<?xml version="1.0" encoding="UTF-8"?>
<!-- 2026-03-10 12:43:18 Generated by QCAD 3.32.6 SVG Exporter -->
<svg  width="2576.6378mm" height="2630.9128mm" viewBox="126.0668 -2878.5122 2576.6378 2630.9128" version="1.1" xmlns="http://www.w3.org/2000/svg" style="stroke-linecap:round;stroke-linejoin:round;">
    <g transform="scale(1,-1)">
            <!-- Auto-generated fillable area -->
            <!-- Block Reference: 10 seater square / entities: 16 -->
        <g>
            <!-- Block Reference: A$C51F1 / entities: 31 -->
            <g>
                <!-- Polyline -->
                <path d="M2156.0702,2859.6295 A213.207,213.207 0 0 1 2146.6373,2773.6199 A1162.09,1162.09 0 0 0 2161.9655,2402.331 A21.8535,21.8535 0 0 0 2137.9251,2405.2131 A11.8433,11.8433 0 0 1 2128.9255,2405.8654 A473.306,473.306 0 0 0 2075.7094,2402.331 L1947.7121,2402.331 L1819.7148,2402.331 A473.306,473.306 0 0 0 1766.4987,2405.8654 A11.8433,11.8433 0 0 1 1757.4991,2405.2131 A21.8535,21.8535 0 0 0 1733.4587,2402.331 A1162.09,1162.09 0 0 0 1748.7868,2773.6199 A213.207,213.207 0 0 1 1739.354,2859.6295 A12.4024,12.4024 0 0 0 1749.9658,2878.5121 L2145.4584,2878.5121 A12.4024,12.4024 0 0 0 2156.0702,2859.6295 Z" style="stroke:#000000;stroke-width:0.1;"/>
                <!-- Line -->
                <path d="M1948.0229,2773.0522 L1842.9195,2773.0522 " style="stroke:#000000;stroke-width:0.1;"/>
                <!-- Arc -->
                <path d="M1773.073,2768.2344 A1136.2291,1136.2291 0 0,1 1758.0859,2405.2089" style="stroke:#000000;stroke-width:0.1;"/>
                <!-- Arc -->
                <path d="M1773.4545,2770.7855 A237.0755,237.0755 0 0,1 1765.3844,2858.4948" style="stroke:#000000;stroke-width:0.1;"/>
                <!-- Line -->
                <path d="M1948.0229,2853.6438 L1767.4901,2853.6438 " style="stroke:#000000;stroke-width:0.1;"/>
                <!-- Line -->
                <path d="M1948.0229,2861.7029 L1767.1731,2861.7029 " style="stroke:#000000;stroke-width:0.1;"/>
                <!-- Arc -->
                <path d="M1767.1731,2861.7029 A2.3796,2.3796 0 0,1 1765.3844,2858.4948" style="stroke:#000000;stroke-width:0.1;"/>
                <!-- Arc -->
                <path d="M1784.2937,2752.478 A312.3192,312.3192 0 0,1 1769.7973,2840.4096" style="stroke:#000000;stroke-width:0.1;"/>
                <!-- Arc -->
                <path d="M1842.9195,2773.0522 A96.2905,96.2905 0 0,1 1766.6919,2734.4558" style="stroke:#000000;stroke-width:0.1;"/>
                <!-- Arc -->
                <path d="M1767.5554,2853.6438 A0.7137,0.7137 0 0,1 1766.8422,2852.716" style="stroke:#000000;stroke-width:0.1;"/>
                <!-- Line -->
                <path d="M1948.0229,2852.8379 L1767.4901,2852.8379 " style="stroke:#000000;stroke-width:0.1;"/>
                <!-- Arc -->
                <path d="M1767.4901,2852.8379 A0.4263,0.4263 0 0,1 1766.936,2852.3647" style="stroke:#000000;stroke-width:0.1;"/>
                <!-- Arc -->
                <path d="M1767.0725,2405.8602 A11.8261,11.8261 0 0,1 1758.0859,2405.2089" style="stroke:#000000;stroke-width:0.1;"/>
                <!-- Line -->
                <path d="M1767.0725,2405.8602 L1765.3352,2424.9558 " style="stroke:#000000;stroke-width:0.1;"/>
                <!-- Line -->
                <path d="M1765.3352,2424.9558 L1756.3369,2420.6965 " style="stroke:#000000;stroke-width:0.1;"/>
                <!-- Line -->
                <path d="M1765.3352,2424.9558 L1755.8935,2424.9558 " style="stroke:#000000;stroke-width:0.1;"/>
                <!-- Line -->
                <path d="M2130.7107,2424.9558 L2140.1523,2424.9558 " style="stroke:#000000;stroke-width:0.1;"/>
                <!-- Line -->
                <path d="M2130.7107,2424.9558 L2139.709,2420.6965 " style="stroke:#000000;stroke-width:0.1;"/>
                <!-- Line -->
                <path d="M2128.9734,2405.8602 L2130.7107,2424.9558 " style="stroke:#000000;stroke-width:0.1;"/>
                <!-- Arc -->
                <path d="M2137.9599,2405.2089 A11.8261,11.8261 0 0,1 2128.9734,2405.8602" style="stroke:#000000;stroke-width:0.1;"/>
                <!-- Arc -->
                <path d="M2129.1099,2852.3647 A0.4263,0.4263 0 0,1 2128.5558,2852.8379" style="stroke:#000000;stroke-width:0.1;"/>
                <!-- Line -->
                <path d="M1948.0229,2852.8379 L2128.5558,2852.8379 " style="stroke:#000000;stroke-width:0.1;"/>
                <!-- Arc -->
                <path d="M2129.2037,2852.716 A0.7137,0.7137 0 0,1 2128.4905,2853.6438" style="stroke:#000000;stroke-width:0.1;"/>
                <!-- Arc -->
                <path d="M2129.354,2734.4558 A96.2905,96.2905 0 0,1 2053.1263,2773.0522" style="stroke:#000000;stroke-width:0.1;"/>
                <!-- Arc -->
                <path d="M2126.2486,2840.4096 A312.3192,312.3192 0 0,1 2111.7522,2752.478" style="stroke:#000000;stroke-width:0.1;"/>
                <!-- Arc -->
                <path d="M2130.6614,2858.4948 A2.3796,2.3796 0 0,1 2128.8728,2861.7029" style="stroke:#000000;stroke-width:0.1;"/>
                <!-- Line -->
                <path d="M1948.0229,2861.7029 L2128.8728,2861.7029 " style="stroke:#000000;stroke-width:0.1;"/>
                <!-- Line -->
                <path d="M1948.0229,2853.6438 L2128.5558,2853.6438 " style="stroke:#000000;stroke-width:0.1;"/>
                <!-- Arc -->
                <path d="M2130.6614,2858.4948 A237.0755,237.0755 0 0,1 2122.5914,2770.7855" style="stroke:#000000;stroke-width:0.1;"/>
                <!-- Arc -->
                <path d="M2137.9599,2405.2089 A1136.2291,1136.2291 0 0,1 2122.9729,2768.2344" style="stroke:#000000;stroke-width:0.1;"/>
                <!-- Line -->
                <path d="M1948.0229,2773.0522 L2053.1263,2773.0522 " style="stroke:#000000;stroke-width:0.1;"/>
            </g>
            <!-- Block Reference: A$C51F1 / entities: 31 -->
            <g>
                <!-- Polyline -->
                <path d="M1623.1075,2859.6295 A213.207,213.207 0 0 1 1613.6747,2773.6199 A1162.09,1162.09 0 0 0 1629.0028,2402.331 A21.8535,21.8535 0 0 0 1604.9624,2405.2131 A11.8433,11.8433 0 0 1 1595.9628,2405.8654 A473.306,473.306 0 0 0 1542.7467,2402.331 L1414.7494,2402.331 L1286.7521,2402.331 A473.306,473.306 0 0 0 1233.536,2405.8654 A11.8433,11.8433 0 0 1 1224.5365,2405.2131 A21.8535,21.8535 0 0 0 1200.496,2402.331 A1162.09,1162.09 0 0 0 1215.8242,2773.6199 A213.207,213.207 0 0 1 1206.3913,2859.6295 A12.4024,12.4024 0 0 0 1217.0031,2878.5121 L1612.4958,2878.5121 A12.4024,12.4024 0 0 0 1623.1075,2859.6295 Z" style="stroke:#000000;stroke-width:0.1;"/>
                <!-- Line -->
                <path d="M1415.0603,2773.0522 L1309.9569,2773.0522 " style="stroke:#000000;stroke-width:0.1;"/>
                <!-- Arc -->
                <path d="M1240.1103,2768.2344 A1136.2291,1136.2291 0 0,1 1225.1233,2405.2089" style="stroke:#000000;stroke-width:0.1;"/>
                <!-- Arc -->
                <path d="M1240.4918,2770.7855 A237.0755,237.0755 0 0,1 1232.4218,2858.4948" style="stroke:#000000;stroke-width:0.1;"/>
                <!-- Line -->
                <path d="M1415.0603,2853.6438 L1234.5274,2853.6438 " style="stroke:#000000;stroke-width:0.1;"/>
                <!-- Line -->
                <path d="M1415.0603,2861.7029 L1234.2104,2861.7029 " style="stroke:#000000;stroke-width:0.1;"/>
                <!-- Arc -->
                <path d="M1234.2104,2861.7029 A2.3796,2.3796 0 0,1 1232.4218,2858.4948" style="stroke:#000000;stroke-width:0.1;"/>
                <!-- Arc -->
                <path d="M1251.331,2752.478 A312.3192,312.3192 0 0,1 1236.8346,2840.4096" style="stroke:#000000;stroke-width:0.1;"/>
                <!-- Arc -->
                <path d="M1309.9569,2773.0522 A96.2905,96.2905 0 0,1 1233.7292,2734.4558" style="stroke:#000000;stroke-width:0.1;"/>
                <!-- Arc -->
                <path d="M1234.5927,2853.6438 A0.7137,0.7137 0 0,1 1233.8795,2852.716" style="stroke:#000000;stroke-width:0.1;"/>
                <!-- Line -->
                <path d="M1415.0603,2852.8379 L1234.5274,2852.8379 " style="stroke:#000000;stroke-width:0.1;"/>
                <!-- Arc -->
                <path d="M1234.5274,2852.8379 A0.4263,0.4263 0 0,1 1233.9733,2852.3647" style="stroke:#000000;stroke-width:0.1;"/>
                <!-- Arc -->
                <path d="M1234.1098,2405.8602 A11.8261,11.8261 0 0,1 1225.1233,2405.2089" style="stroke:#000000;stroke-width:0.1;"/>
                <!-- Line -->
                <path d="M1234.1098,2405.8602 L1232.3725,2424.9558 " style="stroke:#000000;stroke-width:0.1;"/>
                <!-- Line -->
                <path d="M1232.3725,2424.9558 L1223.3742,2420.6965 " style="stroke:#000000;stroke-width:0.1;"/>
                <!-- Line -->
                <path d="M1232.3725,2424.9558 L1222.9309,2424.9558 " style="stroke:#000000;stroke-width:0.1;"/>
                <!-- Line -->
                <path d="M1597.748,2424.9558 L1607.1897,2424.9558 " style="stroke:#000000;stroke-width:0.1;"/>
                <!-- Line -->
                <path d="M1597.748,2424.9558 L1606.7463,2420.6965 " style="stroke:#000000;stroke-width:0.1;"/>
                <!-- Line -->
                <path d="M1596.0107,2405.8602 L1597.748,2424.9558 " style="stroke:#000000;stroke-width:0.1;"/>
                <!-- Arc -->
                <path d="M1604.9973,2405.2089 A11.8261,11.8261 0 0,1 1596.0107,2405.8602" style="stroke:#000000;stroke-width:0.1;"/>
                <!-- Arc -->
                <path d="M1596.1472,2852.3647 A0.4263,0.4263 0 0,1 1595.5931,2852.8379" style="stroke:#000000;stroke-width:0.1;"/>
                <!-- Line -->
                <path d="M1415.0603,2852.8379 L1595.5931,2852.8379 " style="stroke:#000000;stroke-width:0.1;"/>
                <!-- Arc -->
                <path d="M1596.241,2852.716 A0.7137,0.7137 0 0,1 1595.5278,2853.6438" style="stroke:#000000;stroke-width:0.1;"/>
                <!-- Arc -->
                <path d="M1596.3913,2734.4558 A96.2905,96.2905 0 0,1 1520.1637,2773.0522" style="stroke:#000000;stroke-width:0.1;"/>
                <!-- Arc -->
                <path d="M1593.2859,2840.4096 A312.3192,312.3192 0 0,1 1578.7895,2752.478" style="stroke:#000000;stroke-width:0.1;"/>
                <!-- Arc -->
                <path d="M1597.6988,2858.4948 A2.3796,2.3796 0 0,1 1595.9101,2861.7029" style="stroke:#000000;stroke-width:0.1;"/>
                <!-- Line -->
                <path d="M1415.0603,2861.7029 L1595.9101,2861.7029 " style="stroke:#000000;stroke-width:0.1;"/>
                <!-- Line -->
                <path d="M1415.0603,2853.6438 L1595.5931,2853.6438 " style="stroke:#000000;stroke-width:0.1;"/>
                <!-- Arc -->
                <path d="M1597.6988,2858.4948 A237.0755,237.0755 0 0,1 1589.6287,2770.7855" style="stroke:#000000;stroke-width:0.1;"/>
                <!-- Arc -->
                <path d="M1604.9973,2405.2089 A1136.2291,1136.2291 0 0,1 1590.0102,2768.2344" style="stroke:#000000;stroke-width:0.1;"/>
                <!-- Line -->
                <path d="M1415.0603,2773.0522 L1520.1637,2773.0522 " style="stroke:#000000;stroke-width:0.1;"/>
            </g>
            <!-- Polyline -->
            <path d="M684.0707,2293.3707 L2144.7006,2293.3707 L2144.7006,832.7408 L684.0707,832.7408 Z" style="stroke:#000000;stroke-width:0.1;"/>
            <!-- Polyline -->
            <path d="M664.3857,2313.0558 L2164.3857,2313.0558 L2164.3857,813.0558 L664.3857,813.0558 Z" style="stroke:#000000;stroke-width:0.1;"/>
            <!-- Block Reference: A$C51F1 / entities: 31 -->
            <g>
                <!-- Polyline -->
                <path d="M1109.993,2859.6295 A213.207,213.207 0 0 1 1100.5602,2773.6199 A1162.09,1162.09 0 0 0 1115.8883,2402.331 A21.8535,21.8535 0 0 0 1091.8479,2405.2131 A11.8433,11.8433 0 0 1 1082.8483,2405.8654 A473.306,473.306 0 0 0 1029.6322,2402.331 L901.6349,2402.331 L773.6376,2402.331 A473.306,473.306 0 0 0 720.4215,2405.8654 A11.8433,11.8433 0 0 1 711.4219,2405.2131 A21.8535,21.8535 0 0 0 687.3815,2402.331 A1162.09,1162.09 0 0 0 702.7097,2773.6199 A213.207,213.207 0 0 1 693.2768,2859.6295 A12.4024,12.4024 0 0 0 703.8886,2878.5121 L1099.3812,2878.5121 A12.4024,12.4024 0 0 0 1109.993,2859.6295 Z" style="stroke:#000000;stroke-width:0.1;"/>
                <!-- Line -->
                <path d="M901.9457,2773.0522 L796.8424,2773.0522 " style="stroke:#000000;stroke-width:0.1;"/>
                <!-- Arc -->
                <path d="M726.9958,2768.2344 A1136.2291,1136.2291 0 0,1 712.0087,2405.2089" style="stroke:#000000;stroke-width:0.1;"/>
                <!-- Arc -->
                <path d="M727.3773,2770.7855 A237.0755,237.0755 0 0,1 719.3072,2858.4948" style="stroke:#000000;stroke-width:0.1;"/>
                <!-- Line -->
                <path d="M901.9457,2853.6438 L721.4129,2853.6438 " style="stroke:#000000;stroke-width:0.1;"/>
                <!-- Line -->
                <path d="M901.9457,2861.7029 L721.0959,2861.7029 " style="stroke:#000000;stroke-width:0.1;"/>
                <!-- Arc -->
                <path d="M721.0959,2861.7029 A2.3796,2.3796 0 0,1 719.3072,2858.4948" style="stroke:#000000;stroke-width:0.1;"/>
                <!-- Arc -->
                <path d="M738.2165,2752.478 A312.3192,312.3192 0 0,1 723.7201,2840.4096" style="stroke:#000000;stroke-width:0.1;"/>
                <!-- Arc -->
                <path d="M796.8424,2773.0522 A96.2905,96.2905 0 0,1 720.6147,2734.4558" style="stroke:#000000;stroke-width:0.1;"/>
                <!-- Arc -->
                <path d="M721.4782,2853.6438 A0.7137,0.7137 0 0,1 720.765,2852.716" style="stroke:#000000;stroke-width:0.1;"/>
                <!-- Line -->
                <path d="M901.9457,2852.8379 L721.4129,2852.8379 " style="stroke:#000000;stroke-width:0.1;"/>
                <!-- Arc -->
                <path d="M721.4129,2852.8379 A0.4263,0.4263 0 0,1 720.8588,2852.3647" style="stroke:#000000;stroke-width:0.1;"/>
                <!-- Arc -->
                <path d="M720.9953,2405.8602 A11.8261,11.8261 0 0,1 712.0087,2405.2089" style="stroke:#000000;stroke-width:0.1;"/>
                <!-- Line -->
                <path d="M720.9953,2405.8602 L719.258,2424.9558 " style="stroke:#000000;stroke-width:0.1;"/>
                <!-- Line -->
                <path d="M719.258,2424.9558 L710.2597,2420.6965 " style="stroke:#000000;stroke-width:0.1;"/>
                <!-- Line -->
                <path d="M719.258,2424.9558 L709.8164,2424.9558 " style="stroke:#000000;stroke-width:0.1;"/>
                <!-- Line -->
                <path d="M1084.6335,2424.9558 L1094.0751,2424.9558 " style="stroke:#000000;stroke-width:0.1;"/>
                <!-- Line -->
                <path d="M1084.6335,2424.9558 L1093.6318,2420.6965 " style="stroke:#000000;stroke-width:0.1;"/>
                <!-- Line -->
                <path d="M1082.8962,2405.8602 L1084.6335,2424.9558 " style="stroke:#000000;stroke-width:0.1;"/>
                <!-- Arc -->
                <path d="M1091.8827,2405.2089 A11.8261,11.8261 0 0,1 1082.8962,2405.8602" style="stroke:#000000;stroke-width:0.1;"/>
                <!-- Arc -->
                <path d="M1083.0327,2852.3647 A0.4263,0.4263 0 0,1 1082.4786,2852.8379" style="stroke:#000000;stroke-width:0.1;"/>
                <!-- Line -->
                <path d="M901.9457,2852.8379 L1082.4786,2852.8379 " style="stroke:#000000;stroke-width:0.1;"/>
                <!-- Arc -->
                <path d="M1083.1265,2852.716 A0.7137,0.7137 0 0,1 1082.4133,2853.6438" style="stroke:#000000;stroke-width:0.1;"/>
                <!-- Arc -->
                <path d="M1083.2768,2734.4558 A96.2905,96.2905 0 0,1 1007.0491,2773.0522" style="stroke:#000000;stroke-width:0.1;"/>
                <!-- Arc -->
                <path d="M1080.1714,2840.4096 A312.3192,312.3192 0 0,1 1065.675,2752.478" style="stroke:#000000;stroke-width:0.1;"/>
                <!-- Arc -->
                <path d="M1084.5843,2858.4948 A2.3796,2.3796 0 0,1 1082.7956,2861.7029" style="stroke:#000000;stroke-width:0.1;"/>
                <!-- Line -->
                <path d="M901.9457,2861.7029 L1082.7956,2861.7029 " style="stroke:#000000;stroke-width:0.1;"/>
                <!-- Line -->
                <path d="M901.9457,2853.6438 L1082.4786,2853.6438 " style="stroke:#000000;stroke-width:0.1;"/>
                <!-- Arc -->
                <path d="M1084.5843,2858.4948 A237.0755,237.0755 0 0,1 1076.5142,2770.7855" style="stroke:#000000;stroke-width:0.1;"/>
                <!-- Arc -->
                <path d="M1091.8827,2405.2089 A1136.2291,1136.2291 0 0,1 1076.8957,2768.2344" style="stroke:#000000;stroke-width:0.1;"/>
                <!-- Line -->
                <path d="M901.9457,2773.0522 L1007.0491,2773.0522 " style="stroke:#000000;stroke-width:0.1;"/>
            </g>
            <!-- Line -->
            <path d="M2164.3857,813.0558 L2164.3857,2313.0558 " style="stroke:#000000;stroke-width:0.1;"/>
            <!-- Line -->
            <path d="M2164.3857,2313.0558 L664.3857,2313.0558 " style="stroke:#000000;stroke-width:0.1;"/>
            <!-- Line -->
            <path d="M664.3857,2313.0558 L664.3857,813.0558 " style="stroke:#000000;stroke-width:0.1;"/>
            <!-- Line -->
            <path d="M664.3857,813.0558 L2164.3857,813.0558 " style="stroke:#000000;stroke-width:0.1;"/>
            <!-- Block Reference: A$C51F1 / entities: 31 -->
            <g>
                <!-- Polyline -->
                <path d="M2142.1055,266.482 A213.207,213.207 0 0 0 2132.6726,352.4916 A1162.09,1162.09 0 0 1 2148.0008,723.7805 A21.8535,21.8535 0 0 1 2123.9603,720.8984 A11.8433,11.8433 0 0 0 2114.9608,720.2461 A473.306,473.306 0 0 1 2061.7447,723.7805 L1933.7474,723.7805 L1805.7501,723.7805 A473.306,473.306 0 0 1 1752.534,720.2461 A11.8433,11.8433 0 0 0 1743.5344,720.8984 A21.8535,21.8535 0 0 1 1719.494,723.7805 A1162.09,1162.09 0 0 1 1734.8221,352.4916 A213.207,213.207 0 0 0 1725.3893,266.482 A12.4024,12.4024 0 0 1 1736.001,247.5994 L2131.4937,247.5994 A12.4024,12.4024 0 0 1 2142.1055,266.482 Z" style="stroke:#000000;stroke-width:0.1;"/>
                <!-- Line -->
                <path d="M1934.0582,353.0593 L1828.9548,353.0593 " style="stroke:#000000;stroke-width:0.1;"/>
                <!-- Arc -->
                <path d="M1759.1083,357.8771 A1136.2291,1136.2291 0 0,0 1744.1212,720.9026" style="stroke:#000000;stroke-width:0.1;"/>
                <!-- Arc -->
                <path d="M1759.4898,355.326 A237.0755,237.0755 0 0,0 1751.4197,267.6168" style="stroke:#000000;stroke-width:0.1;"/>
                <!-- Line -->
                <path d="M1934.0582,272.4677 L1753.5254,272.4677 " style="stroke:#000000;stroke-width:0.1;"/>
                <!-- Line -->
                <path d="M1934.0582,264.4086 L1753.2083,264.4086 " style="stroke:#000000;stroke-width:0.1;"/>
                <!-- Arc -->
                <path d="M1753.2083,264.4086 A2.3796,2.3796 0 0,0 1751.4197,267.6168" style="stroke:#000000;stroke-width:0.1;"/>
                <!-- Arc -->
                <path d="M1770.329,373.6335 A312.3192,312.3192 0 0,0 1755.8326,285.7019" style="stroke:#000000;stroke-width:0.1;"/>
                <!-- Arc -->
                <path d="M1828.9548,353.0593 A96.2905,96.2905 0 0,0 1752.7272,391.6557" style="stroke:#000000;stroke-width:0.1;"/>
                <!-- Arc -->
                <path d="M1753.5907,272.4677 A0.7137,0.7137 0 0,0 1752.8775,273.3955" style="stroke:#000000;stroke-width:0.1;"/>
                <!-- Line -->
                <path d="M1934.0582,273.2736 L1753.5254,273.2736 " style="stroke:#000000;stroke-width:0.1;"/>
                <!-- Arc -->
                <path d="M1753.5254,273.2736 A0.4263,0.4263 0 0,0 1752.9712,273.7468" style="stroke:#000000;stroke-width:0.1;"/>
                <!-- Arc -->
                <path d="M1753.1077,720.2513 A11.8261,11.8261 0 0,0 1744.1212,720.9026" style="stroke:#000000;stroke-width:0.1;"/>
                <!-- Line -->
                <path d="M1753.1077,720.2513 L1751.3705,701.1557 " style="stroke:#000000;stroke-width:0.1;"/>
                <!-- Line -->
                <path d="M1751.3705,701.1557 L1742.3722,705.415 " style="stroke:#000000;stroke-width:0.1;"/>
                <!-- Line -->
                <path d="M1751.3705,701.1557 L1741.9288,701.1557 " style="stroke:#000000;stroke-width:0.1;"/>
                <!-- Line -->
                <path d="M2116.746,701.1557 L2126.1876,701.1557 " style="stroke:#000000;stroke-width:0.1;"/>
                <!-- Line -->
                <path d="M2116.746,701.1557 L2125.7443,705.415 " style="stroke:#000000;stroke-width:0.1;"/>
                <!-- Line -->
                <path d="M2115.0087,720.2513 L2116.746,701.1557 " style="stroke:#000000;stroke-width:0.1;"/>
                <!-- Arc -->
                <path d="M2123.9952,720.9026 A11.8261,11.8261 0 0,0 2115.0087,720.2513" style="stroke:#000000;stroke-width:0.1;"/>
                <!-- Arc -->
                <path d="M2115.1452,273.7468 A0.4263,0.4263 0 0,0 2114.5911,273.2736" style="stroke:#000000;stroke-width:0.1;"/>
                <!-- Line -->
                <path d="M1934.0582,273.2736 L2114.5911,273.2736 " style="stroke:#000000;stroke-width:0.1;"/>
                <!-- Arc -->
                <path d="M2115.239,273.3955 A0.7137,0.7137 0 0,0 2114.5257,272.4677" style="stroke:#000000;stroke-width:0.1;"/>
                <!-- Arc -->
                <path d="M2115.3893,391.6557 A96.2905,96.2905 0 0,0 2039.1616,353.0593" style="stroke:#000000;stroke-width:0.1;"/>
                <!-- Arc -->
                <path d="M2112.2839,285.7019 A312.3192,312.3192 0 0,0 2097.7874,373.6335" style="stroke:#000000;stroke-width:0.1;"/>
                <!-- Arc -->
                <path d="M2116.6967,267.6168 A2.3796,2.3796 0 0,0 2114.9081,264.4086" style="stroke:#000000;stroke-width:0.1;"/>
                <!-- Line -->
                <path d="M1934.0582,264.4086 L2114.9081,264.4086 " style="stroke:#000000;stroke-width:0.1;"/>
                <!-- Line -->
                <path d="M1934.0582,272.4677 L2114.5911,272.4677 " style="stroke:#000000;stroke-width:0.1;"/>
                <!-- Arc -->
                <path d="M2116.6967,267.6168 A237.0755,237.0755 0 0,0 2108.6266,355.326" style="stroke:#000000;stroke-width:0.1;"/>
                <!-- Arc -->
                <path d="M2123.9952,720.9026 A1136.2291,1136.2291 0 0,0 2109.0082,357.8771" style="stroke:#000000;stroke-width:0.1;"/>
                <!-- Line -->
                <path d="M1934.0582,353.0593 L2039.1616,353.0593 " style="stroke:#000000;stroke-width:0.1;"/>
            </g>
            <!-- Block Reference: A$C51F1 / entities: 31 -->
            <g>
                <!-- Polyline -->
                <path d="M1609.1428,266.482 A213.207,213.207 0 0 0 1599.71,352.4916 A1162.09,1162.09 0 0 1 1615.0381,723.7805 A21.8535,21.8535 0 0 1 1590.9977,720.8984 A11.8433,11.8433 0 0 0 1581.9981,720.2461 A473.306,473.306 0 0 1 1528.782,723.7805 L1400.7847,723.7805 L1272.7874,723.7805 A473.306,473.306 0 0 1 1219.5713,720.2461 A11.8433,11.8433 0 0 0 1210.5717,720.8984 A21.8535,21.8535 0 0 1 1186.5313,723.7805 A1162.09,1162.09 0 0 1 1201.8595,352.4916 A213.207,213.207 0 0 0 1192.4266,266.482 A12.4024,12.4024 0 0 1 1203.0384,247.5994 L1598.531,247.5994 A12.4024,12.4024 0 0 1 1609.1428,266.482 Z" style="stroke:#000000;stroke-width:0.1;"/>
                <!-- Line -->
                <path d="M1401.0955,353.0593 L1295.9922,353.0593 " style="stroke:#000000;stroke-width:0.1;"/>
                <!-- Arc -->
                <path d="M1226.1456,357.8771 A1136.2291,1136.2291 0 0,0 1211.1585,720.9026" style="stroke:#000000;stroke-width:0.1;"/>
                <!-- Arc -->
                <path d="M1226.5271,355.326 A237.0755,237.0755 0 0,0 1218.457,267.6168" style="stroke:#000000;stroke-width:0.1;"/>
                <!-- Line -->
                <path d="M1401.0955,272.4677 L1220.5627,272.4677 " style="stroke:#000000;stroke-width:0.1;"/>
                <!-- Line -->
                <path d="M1401.0955,264.4086 L1220.2457,264.4086 " style="stroke:#000000;stroke-width:0.1;"/>
                <!-- Arc -->
                <path d="M1220.2457,264.4086 A2.3796,2.3796 0 0,0 1218.457,267.6168" style="stroke:#000000;stroke-width:0.1;"/>
                <!-- Arc -->
                <path d="M1237.3663,373.6335 A312.3192,312.3192 0 0,0 1222.8699,285.7019" style="stroke:#000000;stroke-width:0.1;"/>
                <!-- Arc -->
                <path d="M1295.9922,353.0593 A96.2905,96.2905 0 0,0 1219.7645,391.6557" style="stroke:#000000;stroke-width:0.1;"/>
                <!-- Arc -->
                <path d="M1220.628,272.4677 A0.7137,0.7137 0 0,0 1219.9148,273.3955" style="stroke:#000000;stroke-width:0.1;"/>
                <!-- Line -->
                <path d="M1401.0955,273.2736 L1220.5627,273.2736 " style="stroke:#000000;stroke-width:0.1;"/>
                <!-- Arc -->
                <path d="M1220.5627,273.2736 A0.4263,0.4263 0 0,0 1220.0086,273.7468" style="stroke:#000000;stroke-width:0.1;"/>
                <!-- Arc -->
                <path d="M1220.1451,720.2513 A11.8261,11.8261 0 0,0 1211.1585,720.9026" style="stroke:#000000;stroke-width:0.1;"/>
                <!-- Line -->
                <path d="M1220.1451,720.2513 L1218.4078,701.1557 " style="stroke:#000000;stroke-width:0.1;"/>
                <!-- Line -->
                <path d="M1218.4078,701.1557 L1209.4095,705.415 " style="stroke:#000000;stroke-width:0.1;"/>
                <!-- Line -->
                <path d="M1218.4078,701.1557 L1208.9662,701.1557 " style="stroke:#000000;stroke-width:0.1;"/>
                <!-- Line -->
                <path d="M1583.7833,701.1557 L1593.2249,701.1557 " style="stroke:#000000;stroke-width:0.1;"/>
                <!-- Line -->
                <path d="M1583.7833,701.1557 L1592.7816,705.415 " style="stroke:#000000;stroke-width:0.1;"/>
                <!-- Line -->
                <path d="M1582.046,720.2513 L1583.7833,701.1557 " style="stroke:#000000;stroke-width:0.1;"/>
                <!-- Arc -->
                <path d="M1591.0325,720.9026 A11.8261,11.8261 0 0,0 1582.046,720.2513" style="stroke:#000000;stroke-width:0.1;"/>
                <!-- Arc -->
                <path d="M1582.1825,273.7468 A0.4263,0.4263 0 0,0 1581.6284,273.2736" style="stroke:#000000;stroke-width:0.1;"/>
                <!-- Line -->
                <path d="M1401.0955,273.2736 L1581.6284,273.2736 " style="stroke:#000000;stroke-width:0.1;"/>
                <!-- Arc -->
                <path d="M1582.2763,273.3955 A0.7137,0.7137 0 0,0 1581.5631,272.4677" style="stroke:#000000;stroke-width:0.1;"/>
                <!-- Arc -->
                <path d="M1582.4266,391.6557 A96.2905,96.2905 0 0,0 1506.1989,353.0593" style="stroke:#000000;stroke-width:0.1;"/>
                <!-- Arc -->
                <path d="M1579.3212,285.7019 A312.3192,312.3192 0 0,0 1564.8248,373.6335" style="stroke:#000000;stroke-width:0.1;"/>
                <!-- Arc -->
                <path d="M1583.7341,267.6168 A2.3796,2.3796 0 0,0 1581.9454,264.4086" style="stroke:#000000;stroke-width:0.1;"/>
                <!-- Line -->
                <path d="M1401.0955,264.4086 L1581.9454,264.4086 " style="stroke:#000000;stroke-width:0.1;"/>
                <!-- Line -->
                <path d="M1401.0955,272.4677 L1581.6284,272.4677 " style="stroke:#000000;stroke-width:0.1;"/>
                <!-- Arc -->
                <path d="M1583.7341,267.6168 A237.0755,237.0755 0 0,0 1575.664,355.326" style="stroke:#000000;stroke-width:0.1;"/>
                <!-- Arc -->
                <path d="M1591.0325,720.9026 A1136.2291,1136.2291 0 0,0 1576.0455,357.8771" style="stroke:#000000;stroke-width:0.1;"/>
                <!-- Line -->
                <path d="M1401.0955,353.0593 L1506.1989,353.0593 " style="stroke:#000000;stroke-width:0.1;"/>
            </g>
            <!-- Block Reference: A$C51F1 / entities: 31 -->
            <g>
                <!-- Polyline -->
                <path d="M1096.0283,266.482 A213.207,213.207 0 0 0 1086.5954,352.4916 A1162.09,1162.09 0 0 1 1101.9236,723.7805 A21.8535,21.8535 0 0 1 1077.8832,720.8984 A11.8433,11.8433 0 0 0 1068.8836,720.2461 A473.306,473.306 0 0 1 1015.6675,723.7805 L887.6702,723.7805 L759.6729,723.7805 A473.306,473.306 0 0 1 706.4568,720.2461 A11.8433,11.8433 0 0 0 697.4572,720.8984 A21.8535,21.8535 0 0 1 673.4168,723.7805 A1162.09,1162.09 0 0 1 688.7449,352.4916 A213.207,213.207 0 0 0 679.3121,266.482 A12.4024,12.4024 0 0 1 689.9239,247.5994 L1085.4165,247.5994 A12.4024,12.4024 0 0 1 1096.0283,266.482 Z" style="stroke:#000000;stroke-width:0.1;"/>
                <!-- Line -->
                <path d="M887.981,353.0593 L782.8776,353.0593 " style="stroke:#000000;stroke-width:0.1;"/>
                <!-- Arc -->
                <path d="M713.0311,357.8771 A1136.2291,1136.2291 0 0,0 698.044,720.9026" style="stroke:#000000;stroke-width:0.1;"/>
                <!-- Arc -->
                <path d="M713.4126,355.326 A237.0755,237.0755 0 0,0 705.3425,267.6168" style="stroke:#000000;stroke-width:0.1;"/>
                <!-- Line -->
                <path d="M887.981,272.4677 L707.4482,272.4677 " style="stroke:#000000;stroke-width:0.1;"/>
                <!-- Line -->
                <path d="M887.981,264.4086 L707.1311,264.4086 " style="stroke:#000000;stroke-width:0.1;"/>
                <!-- Arc -->
                <path d="M707.1311,264.4086 A2.3796,2.3796 0 0,0 705.3425,267.6168" style="stroke:#000000;stroke-width:0.1;"/>
                <!-- Arc -->
                <path d="M724.2518,373.6335 A312.3192,312.3192 0 0,0 709.7554,285.7019" style="stroke:#000000;stroke-width:0.1;"/>
                <!-- Arc -->
                <path d="M782.8776,353.0593 A96.2905,96.2905 0 0,0 706.65,391.6557" style="stroke:#000000;stroke-width:0.1;"/>
                <!-- Arc -->
                <path d="M707.5135,272.4677 A0.7137,0.7137 0 0,0 706.8003,273.3955" style="stroke:#000000;stroke-width:0.1;"/>
                <!-- Line -->
                <path d="M887.981,273.2736 L707.4482,273.2736 " style="stroke:#000000;stroke-width:0.1;"/>
                <!-- Arc -->
                <path d="M707.4482,273.2736 A0.4263,0.4263 0 0,0 706.894,273.7468" style="stroke:#000000;stroke-width:0.1;"/>
                <!-- Arc -->
                <path d="M707.0306,720.2513 A11.8261,11.8261 0 0,0 698.044,720.9026" style="stroke:#000000;stroke-width:0.1;"/>
                <!-- Line -->
                <path d="M707.0306,720.2513 L705.2933,701.1557 " style="stroke:#000000;stroke-width:0.1;"/>
                <!-- Line -->
                <path d="M705.2933,701.1557 L696.295,705.415 " style="stroke:#000000;stroke-width:0.1;"/>
                <!-- Line -->
                <path d="M705.2933,701.1557 L695.8516,701.1557 " style="stroke:#000000;stroke-width:0.1;"/>
                <!-- Line -->
                <path d="M1070.6688,701.1557 L1080.1104,701.1557 " style="stroke:#000000;stroke-width:0.1;"/>
                <!-- Line -->
                <path d="M1070.6688,701.1557 L1079.6671,705.415 " style="stroke:#000000;stroke-width:0.1;"/>
                <!-- Line -->
                <path d="M1068.9315,720.2513 L1070.6688,701.1557 " style="stroke:#000000;stroke-width:0.1;"/>
                <!-- Arc -->
                <path d="M1077.918,720.9026 A11.8261,11.8261 0 0,0 1068.9315,720.2513" style="stroke:#000000;stroke-width:0.1;"/>
                <!-- Arc -->
                <path d="M1069.068,273.7468 A0.4263,0.4263 0 0,0 1068.5139,273.2736" style="stroke:#000000;stroke-width:0.1;"/>
                <!-- Line -->
                <path d="M887.981,273.2736 L1068.5139,273.2736 " style="stroke:#000000;stroke-width:0.1;"/>
                <!-- Arc -->
                <path d="M1069.1618,273.3955 A0.7137,0.7137 0 0,0 1068.4486,272.4677" style="stroke:#000000;stroke-width:0.1;"/>
                <!-- Arc -->
                <path d="M1069.3121,391.6557 A96.2905,96.2905 0 0,0 993.0844,353.0593" style="stroke:#000000;stroke-width:0.1;"/>
                <!-- Arc -->
                <path d="M1066.2067,285.7019 A312.3192,312.3192 0 0,0 1051.7102,373.6335" style="stroke:#000000;stroke-width:0.1;"/>
                <!-- Arc -->
                <path d="M1070.6195,267.6168 A2.3796,2.3796 0 0,0 1068.8309,264.4086" style="stroke:#000000;stroke-width:0.1;"/>
                <!-- Line -->
                <path d="M887.981,264.4086 L1068.8309,264.4086 " style="stroke:#000000;stroke-width:0.1;"/>
                <!-- Line -->
                <path d="M887.981,272.4677 L1068.5139,272.4677 " style="stroke:#000000;stroke-width:0.1;"/>
                <!-- Arc -->
                <path d="M1070.6195,267.6168 A237.0755,237.0755 0 0,0 1062.5494,355.326" style="stroke:#000000;stroke-width:0.1;"/>
                <!-- Arc -->
                <path d="M1077.918,720.9026 A1136.2291,1136.2291 0 0,0 1062.931,357.8771" style="stroke:#000000;stroke-width:0.1;"/>
                <!-- Line -->
                <path d="M887.981,353.0593 L993.0844,353.0593 " style="stroke:#000000;stroke-width:0.1;"/>
            </g>
            <!-- Block Reference: A$C51F1 / entities: 31 -->
            <g>
                <!-- Polyline -->
                <path d="M2683.822,2035.5427 A213.207,213.207 0 0 0 2597.8123,2026.1099 A1162.09,1162.09 0 0 1 2226.5234,2041.438 A21.8535,21.8535 0 0 1 2229.4055,2017.3976 A11.8433,11.8433 0 0 0 2230.0578,2008.398 A473.306,473.306 0 0 1 2226.5234,1955.1819 L2226.5234,1827.1846 L2226.5234,1699.1873 A473.306,473.306 0 0 1 2230.0578,1645.9712 A11.8433,11.8433 0 0 0 2229.4055,1636.9716 A21.8535,21.8535 0 0 1 2226.5234,1612.9312 A1162.09,1162.09 0 0 1 2597.8123,1628.2594 A213.207,213.207 0 0 0 2683.822,1618.8265 A12.4024,12.4024 0 0 1 2702.7045,1629.4383 L2702.7045,2024.931 A12.4024,12.4024 0 0 1 2683.822,2035.5427 Z" style="stroke:#000000;stroke-width:0.1;"/>
                <!-- Line -->
                <path d="M2597.2446,1827.4955 L2597.2446,1722.3921 " style="stroke:#000000;stroke-width:0.1;"/>
                <!-- Arc -->
                <path d="M2592.4268,1652.5455 A1136.2291,1136.2291 0 0,0 2229.4013,1637.5585" style="stroke:#000000;stroke-width:0.1;"/>
                <!-- Arc -->
                <path d="M2594.9779,1652.927 A237.0755,237.0755 0 0,0 2682.6872,1644.857" style="stroke:#000000;stroke-width:0.1;"/>
                <!-- Line -->
                <path d="M2677.8362,1827.4955 L2677.8362,1646.9626 " style="stroke:#000000;stroke-width:0.1;"/>
                <!-- Line -->
                <path d="M2685.8954,1827.4955 L2685.8954,1646.6456 " style="stroke:#000000;stroke-width:0.1;"/>
                <!-- Arc -->
                <path d="M2685.8954,1646.6456 A2.3796,2.3796 0 0,0 2682.6872,1644.857" style="stroke:#000000;stroke-width:0.1;"/>
                <!-- Arc -->
                <path d="M2576.6704,1663.7662 A312.3192,312.3192 0 0,0 2664.602,1649.2698" style="stroke:#000000;stroke-width:0.1;"/>
                <!-- Arc -->
                <path d="M2597.2446,1722.3921 A96.2905,96.2905 0 0,0 2558.6482,1646.1644" style="stroke:#000000;stroke-width:0.1;"/>
                <!-- Arc -->
                <path d="M2677.8362,1647.0279 A0.7137,0.7137 0 0,0 2676.9084,1646.3147" style="stroke:#000000;stroke-width:0.1;"/>
                <!-- Line -->
                <path d="M2677.0303,1827.4955 L2677.0303,1646.9626 " style="stroke:#000000;stroke-width:0.1;"/>
                <!-- Arc -->
                <path d="M2677.0303,1646.9626 A0.4263,0.4263 0 0,0 2676.5571,1646.4085" style="stroke:#000000;stroke-width:0.1;"/>
                <!-- Arc -->
                <path d="M2230.0527,1646.545 A11.8261,11.8261 0 0,0 2229.4013,1637.5585" style="stroke:#000000;stroke-width:0.1;"/>
                <!-- Line -->
                <path d="M2230.0527,1646.545 L2249.1482,1644.8077 " style="stroke:#000000;stroke-width:0.1;"/>
                <!-- Line -->
                <path d="M2249.1482,1644.8077 L2244.8889,1635.8094 " style="stroke:#000000;stroke-width:0.1;"/>
                <!-- Line -->
                <path d="M2249.1482,1644.8077 L2249.1482,1635.3661 " style="stroke:#000000;stroke-width:0.1;"/>
                <!-- Line -->
                <path d="M2249.1482,2010.1832 L2249.1482,2019.6249 " style="stroke:#000000;stroke-width:0.1;"/>
                <!-- Line -->
                <path d="M2249.1482,2010.1832 L2244.8889,2019.1815 " style="stroke:#000000;stroke-width:0.1;"/>
                <!-- Line -->
                <path d="M2230.0527,2008.4459 L2249.1482,2010.1832 " style="stroke:#000000;stroke-width:0.1;"/>
                <!-- Arc -->
                <path d="M2229.4013,2017.4325 A11.8261,11.8261 0 0,0 2230.0527,2008.4459" style="stroke:#000000;stroke-width:0.1;"/>
                <!-- Arc -->
                <path d="M2676.5571,2008.5824 A0.4263,0.4263 0 0,0 2677.0303,2008.0283" style="stroke:#000000;stroke-width:0.1;"/>
                <!-- Line -->
                <path d="M2677.0303,1827.4955 L2677.0303,2008.0283 " style="stroke:#000000;stroke-width:0.1;"/>
                <!-- Arc -->
                <path d="M2676.9084,2008.6762 A0.7137,0.7137 0 0,0 2677.8362,2007.963" style="stroke:#000000;stroke-width:0.1;"/>
                <!-- Arc -->
                <path d="M2558.6482,2008.8265 A96.2905,96.2905 0 0,0 2597.2446,1932.5989" style="stroke:#000000;stroke-width:0.1;"/>
                <!-- Arc -->
                <path d="M2664.602,2005.7211 A312.3192,312.3192 0 0,0 2576.6704,1991.2247" style="stroke:#000000;stroke-width:0.1;"/>
                <!-- Arc -->
                <path d="M2682.6872,2010.134 A2.3796,2.3796 0 0,0 2685.8954,2008.3453" style="stroke:#000000;stroke-width:0.1;"/>
                <!-- Line -->
                <path d="M2685.8954,1827.4955 L2685.8954,2008.3453 " style="stroke:#000000;stroke-width:0.1;"/>
                <!-- Line -->
                <path d="M2677.8362,1827.4955 L2677.8362,2008.0283 " style="stroke:#000000;stroke-width:0.1;"/>
                <!-- Arc -->
                <path d="M2682.6872,2010.134 A237.0755,237.0755 0 0,0 2594.9779,2002.0639" style="stroke:#000000;stroke-width:0.1;"/>
                <!-- Arc -->
                <path d="M2229.4013,2017.4325 A1136.2291,1136.2291 0 0,0 2592.4268,2002.4454" style="stroke:#000000;stroke-width:0.1;"/>
                <!-- Line -->
                <path d="M2597.2446,1827.4955 L2597.2446,1932.5989 " style="stroke:#000000;stroke-width:0.1;"/>
            </g>
            <!-- Block Reference: A$C51F1 / entities: 31 -->
            <g>
                <!-- Polyline -->
                <path d="M2683.822,1502.58 A213.207,213.207 0 0 0 2597.8123,1493.1472 A1162.09,1162.09 0 0 1 2226.5234,1508.4754 A21.8535,21.8535 0 0 1 2229.4055,1484.4349 A11.8433,11.8433 0 0 0 2230.0578,1475.4353 A473.306,473.306 0 0 1 2226.5234,1422.2192 L2226.5234,1294.2219 L2226.5234,1166.2246 A473.306,473.306 0 0 1 2230.0578,1113.0085 A11.8433,11.8433 0 0 0 2229.4055,1104.009 A21.8535,21.8535 0 0 1 2226.5234,1079.9685 A1162.09,1162.09 0 0 1 2597.8123,1095.2967 A213.207,213.207 0 0 0 2683.822,1085.8638 A12.4024,12.4024 0 0 1 2702.7045,1096.4756 L2702.7045,1491.9683 A12.4024,12.4024 0 0 1 2683.822,1502.58 Z" style="stroke:#000000;stroke-width:0.1;"/>
                <!-- Line -->
                <path d="M2597.2446,1294.5328 L2597.2446,1189.4294 " style="stroke:#000000;stroke-width:0.1;"/>
                <!-- Arc -->
                <path d="M2592.4268,1119.5828 A1136.2291,1136.2291 0 0,0 2229.4013,1104.5958" style="stroke:#000000;stroke-width:0.1;"/>
                <!-- Arc -->
                <path d="M2594.9779,1119.9644 A237.0755,237.0755 0 0,0 2682.6872,1111.8943" style="stroke:#000000;stroke-width:0.1;"/>
                <!-- Line -->
                <path d="M2677.8362,1294.5328 L2677.8362,1113.9999 " style="stroke:#000000;stroke-width:0.1;"/>
                <!-- Line -->
                <path d="M2685.8954,1294.5328 L2685.8954,1113.6829 " style="stroke:#000000;stroke-width:0.1;"/>
                <!-- Arc -->
                <path d="M2685.8954,1113.6829 A2.3796,2.3796 0 0,0 2682.6872,1111.8943" style="stroke:#000000;stroke-width:0.1;"/>
                <!-- Arc -->
                <path d="M2576.6704,1130.8036 A312.3192,312.3192 0 0,0 2664.602,1116.3071" style="stroke:#000000;stroke-width:0.1;"/>
                <!-- Arc -->
                <path d="M2597.2446,1189.4294 A96.2905,96.2905 0 0,0 2558.6482,1113.2018" style="stroke:#000000;stroke-width:0.1;"/>
                <!-- Arc -->
                <path d="M2677.8362,1114.0653 A0.7137,0.7137 0 0,0 2676.9084,1113.352" style="stroke:#000000;stroke-width:0.1;"/>
                <!-- Line -->
                <path d="M2677.0303,1294.5328 L2677.0303,1113.9999 " style="stroke:#000000;stroke-width:0.1;"/>
                <!-- Arc -->
                <path d="M2677.0303,1113.9999 A0.4263,0.4263 0 0,0 2676.5571,1113.4458" style="stroke:#000000;stroke-width:0.1;"/>
                <!-- Arc -->
                <path d="M2230.0527,1113.5823 A11.8261,11.8261 0 0,0 2229.4013,1104.5958" style="stroke:#000000;stroke-width:0.1;"/>
                <!-- Line -->
                <path d="M2230.0527,1113.5823 L2249.1482,1111.845 " style="stroke:#000000;stroke-width:0.1;"/>
                <!-- Line -->
                <path d="M2249.1482,1111.845 L2244.8889,1102.8467 " style="stroke:#000000;stroke-width:0.1;"/>
                <!-- Line -->
                <path d="M2249.1482,1111.845 L2249.1482,1102.4034 " style="stroke:#000000;stroke-width:0.1;"/>
                <!-- Line -->
                <path d="M2249.1482,1477.2205 L2249.1482,1486.6622 " style="stroke:#000000;stroke-width:0.1;"/>
                <!-- Line -->
                <path d="M2249.1482,1477.2205 L2244.8889,1486.2188 " style="stroke:#000000;stroke-width:0.1;"/>
                <!-- Line -->
                <path d="M2230.0527,1475.4833 L2249.1482,1477.2205 " style="stroke:#000000;stroke-width:0.1;"/>
                <!-- Arc -->
                <path d="M2229.4013,1484.4698 A11.8261,11.8261 0 0,0 2230.0527,1475.4833" style="stroke:#000000;stroke-width:0.1;"/>
                <!-- Arc -->
                <path d="M2676.5571,1475.6198 A0.4263,0.4263 0 0,0 2677.0303,1475.0656" style="stroke:#000000;stroke-width:0.1;"/>
                <!-- Line -->
                <path d="M2677.0303,1294.5328 L2677.0303,1475.0656 " style="stroke:#000000;stroke-width:0.1;"/>
                <!-- Arc -->
                <path d="M2676.9084,1475.7135 A0.7137,0.7137 0 0,0 2677.8362,1475.0003" style="stroke:#000000;stroke-width:0.1;"/>
                <!-- Arc -->
                <path d="M2558.6482,1475.8638 A96.2905,96.2905 0 0,0 2597.2446,1399.6362" style="stroke:#000000;stroke-width:0.1;"/>
                <!-- Arc -->
                <path d="M2664.602,1472.7584 A312.3192,312.3192 0 0,0 2576.6704,1458.262" style="stroke:#000000;stroke-width:0.1;"/>
                <!-- Arc -->
                <path d="M2682.6872,1477.1713 A2.3796,2.3796 0 0,0 2685.8954,1475.3827" style="stroke:#000000;stroke-width:0.1;"/>
                <!-- Line -->
                <path d="M2685.8954,1294.5328 L2685.8954,1475.3827 " style="stroke:#000000;stroke-width:0.1;"/>
                <!-- Line -->
                <path d="M2677.8362,1294.5328 L2677.8362,1475.0656 " style="stroke:#000000;stroke-width:0.1;"/>
                <!-- Arc -->
                <path d="M2682.6872,1477.1713 A237.0755,237.0755 0 0,0 2594.9779,1469.1012" style="stroke:#000000;stroke-width:0.1;"/>
                <!-- Arc -->
                <path d="M2229.4013,1484.4698 A1136.2291,1136.2291 0 0,0 2592.4268,1469.4827" style="stroke:#000000;stroke-width:0.1;"/>
                <!-- Line -->
                <path d="M2597.2446,1294.5328 L2597.2446,1399.6362 " style="stroke:#000000;stroke-width:0.1;"/>
            </g>
            <!-- Block Reference: A$C51F1 / entities: 31 -->
            <g>
                <!-- Polyline -->
                <path d="M144.9494,2035.5427 A213.207,213.207 0 0 1 230.959,2026.1099 A1162.09,1162.09 0 0 0 602.2479,2041.438 A21.8535,21.8535 0 0 0 599.3658,2017.3976 A11.8433,11.8433 0 0 1 598.7135,2008.398 A473.306,473.306 0 0 0 602.2479,1955.1819 L602.2479,1827.1846 L602.2479,1699.1873 A473.306,473.306 0 0 0 598.7135,1645.9712 A11.8433,11.8433 0 0 1 599.3658,1636.9716 A21.8535,21.8535 0 0 0 602.2479,1612.9312 A1162.09,1162.09 0 0 0 230.959,1628.2594 A213.207,213.207 0 0 1 144.9494,1618.8265 A12.4024,12.4024 0 0 0 126.0668,1629.4383 L126.0668,2024.931 A12.4024,12.4024 0 0 0 144.9494,2035.5427 Z" style="stroke:#000000;stroke-width:0.1;"/>
                <!-- Line -->
                <path d="M231.5267,1827.4955 L231.5267,1722.3921 " style="stroke:#000000;stroke-width:0.1;"/>
                <!-- Arc -->
                <path d="M236.3445,1652.5455 A1136.2291,1136.2291 0 0,1 599.37,1637.5585" style="stroke:#000000;stroke-width:0.1;"/>
                <!-- Arc -->
                <path d="M233.7934,1652.927 A237.0755,237.0755 0 0,1 146.0842,1644.857" style="stroke:#000000;stroke-width:0.1;"/>
                <!-- Line -->
                <path d="M150.9351,1827.4955 L150.9351,1646.9626 " style="stroke:#000000;stroke-width:0.1;"/>
                <!-- Line -->
                <path d="M142.876,1827.4955 L142.876,1646.6456 " style="stroke:#000000;stroke-width:0.1;"/>
                <!-- Arc -->
                <path d="M142.876,1646.6456 A2.3796,2.3796 0 0,1 146.0842,1644.857" style="stroke:#000000;stroke-width:0.1;"/>
                <!-- Arc -->
                <path d="M252.1009,1663.7662 A312.3192,312.3192 0 0,1 164.1693,1649.2698" style="stroke:#000000;stroke-width:0.1;"/>
                <!-- Arc -->
                <path d="M231.5267,1722.3921 A96.2905,96.2905 0 0,1 270.1232,1646.1644" style="stroke:#000000;stroke-width:0.1;"/>
                <!-- Arc -->
                <path d="M150.9351,1647.0279 A0.7137,0.7137 0 0,1 151.8629,1646.3147" style="stroke:#000000;stroke-width:0.1;"/>
                <!-- Line -->
                <path d="M151.7411,1827.4955 L151.7411,1646.9626 " style="stroke:#000000;stroke-width:0.1;"/>
                <!-- Arc -->
                <path d="M151.7411,1646.9626 A0.4263,0.4263 0 0,1 152.2142,1646.4085" style="stroke:#000000;stroke-width:0.1;"/>
                <!-- Arc -->
                <path d="M598.7187,1646.545 A11.8261,11.8261 0 0,1 599.37,1637.5585" style="stroke:#000000;stroke-width:0.1;"/>
                <!-- Line -->
                <path d="M598.7187,1646.545 L579.6231,1644.8077 " style="stroke:#000000;stroke-width:0.1;"/>
                <!-- Line -->
                <path d="M579.6231,1644.8077 L583.8824,1635.8094 " style="stroke:#000000;stroke-width:0.1;"/>
                <!-- Line -->
                <path d="M579.6231,1644.8077 L579.6231,1635.3661 " style="stroke:#000000;stroke-width:0.1;"/>
                <!-- Line -->
                <path d="M579.6231,2010.1832 L579.6231,2019.6249 " style="stroke:#000000;stroke-width:0.1;"/>
                <!-- Line -->
                <path d="M579.6231,2010.1832 L583.8824,2019.1815 " style="stroke:#000000;stroke-width:0.1;"/>
                <!-- Line -->
                <path d="M598.7187,2008.4459 L579.6231,2010.1832 " style="stroke:#000000;stroke-width:0.1;"/>
                <!-- Arc -->
                <path d="M599.37,2017.4325 A11.8261,11.8261 0 0,1 598.7187,2008.4459" style="stroke:#000000;stroke-width:0.1;"/>
                <!-- Arc -->
                <path d="M152.2142,2008.5824 A0.4263,0.4263 0 0,1 151.7411,2008.0283" style="stroke:#000000;stroke-width:0.1;"/>
                <!-- Line -->
                <path d="M151.7411,1827.4955 L151.7411,2008.0283 " style="stroke:#000000;stroke-width:0.1;"/>
                <!-- Arc -->
                <path d="M151.8629,2008.6762 A0.7137,0.7137 0 0,1 150.9351,2007.963" style="stroke:#000000;stroke-width:0.1;"/>
                <!-- Arc -->
                <path d="M270.1232,2008.8265 A96.2905,96.2905 0 0,1 231.5267,1932.5989" style="stroke:#000000;stroke-width:0.1;"/>
                <!-- Arc -->
                <path d="M164.1693,2005.7211 A312.3192,312.3192 0 0,1 252.1009,1991.2247" style="stroke:#000000;stroke-width:0.1;"/>
                <!-- Arc -->
                <path d="M146.0842,2010.134 A2.3796,2.3796 0 0,1 142.876,2008.3453" style="stroke:#000000;stroke-width:0.1;"/>
                <!-- Line -->
                <path d="M142.876,1827.4955 L142.876,2008.3453 " style="stroke:#000000;stroke-width:0.1;"/>
                <!-- Line -->
                <path d="M150.9351,1827.4955 L150.9351,2008.0283 " style="stroke:#000000;stroke-width:0.1;"/>
                <!-- Arc -->
                <path d="M146.0842,2010.134 A237.0755,237.0755 0 0,1 233.7934,2002.0639" style="stroke:#000000;stroke-width:0.1;"/>
                <!-- Arc -->
                <path d="M599.37,2017.4325 A1136.2291,1136.2291 0 0,1 236.3445,2002.4454" style="stroke:#000000;stroke-width:0.1;"/>
                <!-- Line -->
                <path d="M231.5267,1827.4955 L231.5267,1932.5989 " style="stroke:#000000;stroke-width:0.1;"/>
            </g>
            <!-- Block Reference: A$C51F1 / entities: 31 -->
            <g>
                <!-- Polyline -->
                <path d="M144.9494,1502.58 A213.207,213.207 0 0 1 230.959,1493.1472 A1162.09,1162.09 0 0 0 602.2479,1508.4754 A21.8535,21.8535 0 0 0 599.3658,1484.4349 A11.8433,11.8433 0 0 1 598.7135,1475.4353 A473.306,473.306 0 0 0 602.2479,1422.2192 L602.2479,1294.2219 L602.2479,1166.2246 A473.306,473.306 0 0 0 598.7135,1113.0085 A11.8433,11.8433 0 0 1 599.3658,1104.009 A21.8535,21.8535 0 0 0 602.2479,1079.9685 A1162.09,1162.09 0 0 0 230.959,1095.2967 A213.207,213.207 0 0 1 144.9494,1085.8638 A12.4024,12.4024 0 0 0 126.0668,1096.4756 L126.0668,1491.9683 A12.4024,12.4024 0 0 0 144.9494,1502.58 Z" style="stroke:#000000;stroke-width:0.1;"/>
                <!-- Line -->
                <path d="M231.5267,1294.5328 L231.5267,1189.4294 " style="stroke:#000000;stroke-width:0.1;"/>
                <!-- Arc -->
                <path d="M236.3445,1119.5828 A1136.2291,1136.2291 0 0,1 599.37,1104.5958" style="stroke:#000000;stroke-width:0.1;"/>
                <!-- Arc -->
                <path d="M233.7934,1119.9644 A237.0755,237.0755 0 0,1 146.0842,1111.8943" style="stroke:#000000;stroke-width:0.1;"/>
                <!-- Line -->
                <path d="M150.9351,1294.5328 L150.9351,1113.9999 " style="stroke:#000000;stroke-width:0.1;"/>
                <!-- Line -->
                <path d="M142.876,1294.5328 L142.876,1113.6829 " style="stroke:#000000;stroke-width:0.1;"/>
                <!-- Arc -->
                <path d="M142.876,1113.6829 A2.3796,2.3796 0 0,1 146.0842,1111.8943" style="stroke:#000000;stroke-width:0.1;"/>
                <!-- Arc -->
                <path d="M252.1009,1130.8036 A312.3192,312.3192 0 0,1 164.1693,1116.3071" style="stroke:#000000;stroke-width:0.1;"/>
                <!-- Arc -->
                <path d="M231.5267,1189.4294 A96.2905,96.2905 0 0,1 270.1232,1113.2018" style="stroke:#000000;stroke-width:0.1;"/>
                <!-- Arc -->
                <path d="M150.9351,1114.0653 A0.7137,0.7137 0 0,1 151.8629,1113.352" style="stroke:#000000;stroke-width:0.1;"/>
                <!-- Line -->
                <path d="M151.7411,1294.5328 L151.7411,1113.9999 " style="stroke:#000000;stroke-width:0.1;"/>
                <!-- Arc -->
                <path d="M151.7411,1113.9999 A0.4263,0.4263 0 0,1 152.2142,1113.4458" style="stroke:#000000;stroke-width:0.1;"/>
                <!-- Arc -->
                <path d="M598.7187,1113.5823 A11.8261,11.8261 0 0,1 599.37,1104.5958" style="stroke:#000000;stroke-width:0.1;"/>
                <!-- Line -->
                <path d="M598.7187,1113.5823 L579.6231,1111.845 " style="stroke:#000000;stroke-width:0.1;"/>
                <!-- Line -->
                <path d="M579.6231,1111.845 L583.8824,1102.8467 " style="stroke:#000000;stroke-width:0.1;"/>
                <!-- Line -->
                <path d="M579.6231,1111.845 L579.6231,1102.4034 " style="stroke:#000000;stroke-width:0.1;"/>
                <!-- Line -->
                <path d="M579.6231,1477.2205 L579.6231,1486.6622 " style="stroke:#000000;stroke-width:0.1;"/>
                <!-- Line -->
                <path d="M579.6231,1477.2205 L583.8824,1486.2188 " style="stroke:#000000;stroke-width:0.1;"/>
                <!-- Line -->
                <path d="M598.7187,1475.4833 L579.6231,1477.2205 " style="stroke:#000000;stroke-width:0.1;"/>
                <!-- Arc -->
                <path d="M599.37,1484.4698 A11.8261,11.8261 0 0,1 598.7187,1475.4833" style="stroke:#000000;stroke-width:0.1;"/>
                <!-- Arc -->
                <path d="M152.2142,1475.6198 A0.4263,0.4263 0 0,1 151.7411,1475.0656" style="stroke:#000000;stroke-width:0.1;"/>
                <!-- Line -->
                <path d="M151.7411,1294.5328 L151.7411,1475.0656 " style="stroke:#000000;stroke-width:0.1;"/>
                <!-- Arc -->
                <path d="M151.8629,1475.7135 A0.7137,0.7137 0 0,1 150.9351,1475.0003" style="stroke:#000000;stroke-width:0.1;"/>
                <!-- Arc -->
                <path d="M270.1232,1475.8638 A96.2905,96.2905 0 0,1 231.5267,1399.6362" style="stroke:#000000;stroke-width:0.1;"/>
                <!-- Arc -->
                <path d="M164.1693,1472.7584 A312.3192,312.3192 0 0,1 252.1009,1458.262" style="stroke:#000000;stroke-width:0.1;"/>
                <!-- Arc -->
                <path d="M146.0842,1477.1713 A2.3796,2.3796 0 0,1 142.876,1475.3827" style="stroke:#000000;stroke-width:0.1;"/>
                <!-- Line -->
                <path d="M142.876,1294.5328 L142.876,1475.3827 " style="stroke:#000000;stroke-width:0.1;"/>
                <!-- Line -->
                <path d="M150.9351,1294.5328 L150.9351,1475.0656 " style="stroke:#000000;stroke-width:0.1;"/>
                <!-- Arc -->
                <path d="M146.0842,1477.1713 A237.0755,237.0755 0 0,1 233.7934,1469.1012" style="stroke:#000000;stroke-width:0.1;"/>
                <!-- Arc -->
                <path d="M599.37,1484.4698 A1136.2291,1136.2291 0 0,1 236.3445,1469.4827" style="stroke:#000000;stroke-width:0.1;"/>
                <!-- Line -->
                <path d="M231.5267,1294.5328 L231.5267,1399.6362 " style="stroke:#000000;stroke-width:0.1;"/>
            </g>
        </g>
    </g>
</svg>

