<?xml version="1.0" encoding="UTF-8"?>
<!-- 2026-06-15 03:18:43 Generated by QCAD 3.32.6 SVG Exporter -->
<svg width="2710.0173mm" height="2717.6001mm" viewBox="-3.0528 -2707.2227 2710.0173 2717.6001" version="1.1" xmlns="http://www.w3.org/2000/svg" style="stroke-linecap:round;stroke-linejoin:round;fill:none">
    <g transform="scale(1,-1) translate(-8279.2418,-4691.04)">
        <!-- Polyline -->
        <path d="M10970.6639,6252.0956 A216.619,216.619 0 0 1 10884.5935,6234.2066 A1180.69,1180.69 0 0 0 10530.6394,6102.8251 A22.2032,22.2032 0 0 0 10525.8765,6126.9596 A12.0328,12.0328 0 0 1 10523.6813,6135.8605 A480.879,480.879 0 0 0 10503.5583,6186.1721 L10463.3721,6309.8525 L10423.1859,6433.5329 A480.879,480.879 0 0 0 10409.8933,6486.0638 A12.0328,12.0328 0 0 1 10406.4375,6494.5551 A22.2032,22.2032 0 0 0 10396.1049,6516.8799 A1180.69,1180.69 0 0 0 10759.6839,6618.639 A216.619,216.619 0 0 1 10839.8312,6654.7574 A12.6008,12.6008 0 0 0 10861.4086,6650.4319 L10985.578,6268.2779 A12.6008,12.6008 0 0 0 10970.6639,6252.0956" style="stroke:#000000;stroke-width:0;"/>
        <!-- Block Reference: A$C1D6968EA / entities: 30 -->
        <g>
            <!-- Arc -->
            <path d="M10961.59,6276.2912 A240.8687,240.8687 0 0,1 10874.3052,6256.5517" style="stroke:#000000;stroke-width:0;"/>
            <!-- Arc -->
            <path d="M10942.7293,6274.8771 A317.3163,317.3163 0 0,1 10853.2121,6261.2775" style="stroke:#000000;stroke-width:0;"/>
            <!-- Arc -->
            <path d="M10750.4028,6577.6919 A317.3163,317.3163 0 0,1 10830.8174,6619.3065" style="stroke:#000000;stroke-width:0;"/>
            <!-- Arc -->
            <path d="M10764.6898,6593.9134 A240.8687,240.8687 0 0,1 10846.9072,6629.2486" style="stroke:#000000;stroke-width:0;"/>
            <!-- Line -->
            <path d="M10821.6878,6425.9442 L10854.6862,6324.3856 " style="stroke:#000000;stroke-width:0;"/>
            <!-- Arc -->
            <path d="M10525.8834,6126.9246 A1154.4088,1154.4088 0 0,1 10871.96,6255.3821" style="stroke:#000000;stroke-width:0;"/>
            <!-- Arc -->
            <path d="M10841.324,6238.6111 A97.8312,97.8312 0 0,1 10854.6862,6324.3856" style="stroke:#000000;stroke-width:0;"/>
            <!-- Arc -->
            <path d="M10525.8834,6126.9246 A12.0153,12.0153 0 0,1 10523.6914,6135.8125" style="stroke:#000000;stroke-width:0;"/>
            <!-- Line -->
            <path d="M10523.6914,6135.8125 L10542.6883,6140.1291 " style="stroke:#000000;stroke-width:0;"/>
            <!-- Line -->
            <path d="M10542.6883,6140.1291 L10541.3978,6130.097 " style="stroke:#000000;stroke-width:0;"/>
            <!-- Line -->
            <path d="M10542.6883,6140.1291 L10545.6526,6131.0059 " style="stroke:#000000;stroke-width:0;"/>
            <!-- Line -->
            <path d="M10427.9746,6493.1817 L10425.0103,6502.305 " style="stroke:#000000;stroke-width:0;"/>
            <!-- Line -->
            <path d="M10427.9746,6493.1817 L10421.0338,6500.5393 " style="stroke:#000000;stroke-width:0;"/>
            <!-- Line -->
            <path d="M10410.0685,6485.5078 L10427.9746,6493.1817 " style="stroke:#000000;stroke-width:0;"/>
            <!-- Arc -->
            <path d="M10410.0685,6485.5078 A12.0153,12.0153 0 0,1 10406.6177,6493.9868" style="stroke:#000000;stroke-width:0;"/>
            <!-- Arc -->
            <path d="M10788.6894,6527.5028 A97.8312,97.8312 0 0,1 10727.4621,6589.0418" style="stroke:#000000;stroke-width:0;"/>
            <!-- Arc -->
            <path d="M10762.1049,6593.4811 A1154.4088,1154.4088 0 0,1 10406.6177,6493.9868" style="stroke:#000000;stroke-width:0;"/>
            <!-- Line -->
            <path d="M10821.6878,6425.9442 L10788.6894,6527.5028 " style="stroke:#000000;stroke-width:0;"/>
            <!-- Line -->
            <path d="M10899.5613,6451.2469 L10956.2416,6276.8028 " style="stroke:#000000;stroke-width:0;"/>
            <!-- Line -->
            <path d="M10907.3486,6453.7771 L10964.1285,6279.0267 " style="stroke:#000000;stroke-width:0;"/>
            <!-- Arc -->
            <path d="M10961.59,6276.2912 A2.4177,2.4177 0 0,1 10964.1285,6279.0267" style="stroke:#000000;stroke-width:0;"/>
            <!-- Arc -->
            <path d="M10955.5485,6275.8854 A0.7251,0.7251 0 0,1 10956.2211,6276.8659" style="stroke:#000000;stroke-width:0;"/>
            <!-- Line -->
            <path d="M10898.7825,6450.9938 L10955.4629,6276.5497 " style="stroke:#000000;stroke-width:0;"/>
            <!-- Arc -->
            <path d="M10955.1796,6275.8657 A0.4331,0.4331 0 0,1 10955.4629,6276.5497" style="stroke:#000000;stroke-width:0;"/>
            <!-- Arc -->
            <path d="M10842.1022,6625.4379 A0.4331,0.4331 0 0,1 10841.471,6625.8248" style="stroke:#000000;stroke-width:0;"/>
            <!-- Line -->
            <path d="M10898.7825,6450.9938 L10842.1022,6625.4379 " style="stroke:#000000;stroke-width:0;"/>
            <!-- Arc -->
            <path d="M10842.9014,6625.6278 A0.7251,0.7251 0 0,1 10841.781,6626.0257" style="stroke:#000000;stroke-width:0;"/>
            <!-- Arc -->
            <path d="M10850.5687,6628.5276 A2.4177,2.4177 0 0,1 10846.9072,6629.2486" style="stroke:#000000;stroke-width:0;"/>
            <!-- Line -->
            <path d="M10907.3486,6453.7771 L10850.5687,6628.5276 " style="stroke:#000000;stroke-width:0;"/>
            <!-- Line -->
            <path d="M10899.5613,6451.2469 L10842.8809,6625.691 " style="stroke:#000000;stroke-width:0;"/>
        </g>
        <!-- Polyline -->
        <path d="M9842.8895,7379.0779 A216.619,216.619 0 0 1 9833.3057,7291.6921 A1180.69,1180.69 0 0 0 9848.8792,6914.4626 A22.2032,22.2032 0 0 0 9824.454,6917.3908 A12.0328,12.0328 0 0 1 9815.3105,6918.0535 A480.879,480.879 0 0 0 9761.2429,6914.4626 L9631.1977,6914.4626 L9501.1524,6914.4626 A480.879,480.879 0 0 0 9447.0849,6918.0535 A12.0328,12.0328 0 0 1 9437.9413,6917.3908 A22.2032,22.2032 0 0 0 9413.5162,6914.4626 A1180.69,1180.69 0 0 0 9429.0896,7291.6921 A216.619,216.619 0 0 1 9419.5059,7379.0779 A12.6008,12.6008 0 0 0 9430.2874,7398.2626 L9832.108,7398.2626 A12.6008,12.6008 0 0 0 9842.8895,7379.0779" style="stroke:#000000;stroke-width:0;"/>
        <!-- Block Reference: A$C1D6968EA / entities: 30 -->
        <g>
            <!-- Arc -->
            <path d="M9817.0742,7377.925 A240.8687,240.8687 0 0,1 9808.875,7288.8124" style="stroke:#000000;stroke-width:0;"/>
            <!-- Arc -->
            <path d="M9812.5907,7359.5504 A317.3163,317.3163 0 0,1 9797.8624,7270.212" style="stroke:#000000;stroke-width:0;"/>
            <!-- Arc -->
            <path d="M9465.1646,7270.212 A317.3163,317.3163 0 0,1 9450.4363,7359.5504" style="stroke:#000000;stroke-width:0;"/>
            <!-- Arc -->
            <path d="M9454.152,7288.8124 A240.8687,240.8687 0 0,1 9445.9528,7377.925" style="stroke:#000000;stroke-width:0;"/>
            <!-- Line -->
            <path d="M9631.5135,7291.1154 L9738.2985,7291.1154 " style="stroke:#000000;stroke-width:0;"/>
            <!-- Arc -->
            <path d="M9824.4895,6917.3866 A1154.4088,1154.4088 0 0,1 9809.2627,7286.2205" style="stroke:#000000;stroke-width:0;"/>
            <!-- Arc -->
            <path d="M9815.7458,7251.9014 A97.8312,97.8312 0 0,1 9738.2985,7291.1154" style="stroke:#000000;stroke-width:0;"/>
            <!-- Arc -->
            <path d="M9824.4895,6917.3866 A12.0153,12.0153 0 0,1 9815.3592,6918.0483" style="stroke:#000000;stroke-width:0;"/>
            <!-- Line -->
            <path d="M9815.3592,6918.0483 L9817.1242,6937.4494 " style="stroke:#000000;stroke-width:0;"/>
            <!-- Line -->
            <path d="M9817.1242,6937.4494 L9826.2665,6933.122 " style="stroke:#000000;stroke-width:0;"/>
            <!-- Line -->
            <path d="M9817.1242,6937.4494 L9826.717,6937.4494 " style="stroke:#000000;stroke-width:0;"/>
            <!-- Line -->
            <path d="M9445.9028,6937.4494 L9436.31,6937.4494 " style="stroke:#000000;stroke-width:0;"/>
            <!-- Line -->
            <path d="M9445.9028,6937.4494 L9436.7605,6933.122 " style="stroke:#000000;stroke-width:0;"/>
            <!-- Line -->
            <path d="M9447.6678,6918.0483 L9445.9028,6937.4494 " style="stroke:#000000;stroke-width:0;"/>
            <!-- Arc -->
            <path d="M9447.6678,6918.0483 A12.0153,12.0153 0 0,1 9438.5375,6917.3866" style="stroke:#000000;stroke-width:0;"/>
            <!-- Arc -->
            <path d="M9524.7284,7291.1154 A97.8312,97.8312 0 0,1 9447.2812,7251.9014" style="stroke:#000000;stroke-width:0;"/>
            <!-- Arc -->
            <path d="M9453.7643,7286.2205 A1154.4088,1154.4088 0 0,1 9438.5375,6917.3866" style="stroke:#000000;stroke-width:0;"/>
            <!-- Line -->
            <path d="M9631.5135,7291.1154 L9524.7284,7291.1154 " style="stroke:#000000;stroke-width:0;"/>
            <!-- Line -->
            <path d="M9631.5135,7372.9964 L9814.9349,7372.9964 " style="stroke:#000000;stroke-width:0;"/>
            <!-- Line -->
            <path d="M9631.5135,7381.1845 L9815.257,7381.1845 " style="stroke:#000000;stroke-width:0;"/>
            <!-- Arc -->
            <path d="M9817.0742,7377.925 A2.4177,2.4177 0 0,1 9815.257,7381.1845" style="stroke:#000000;stroke-width:0;"/>
            <!-- Arc -->
            <path d="M9815.5931,7372.0538 A0.7251,0.7251 0 0,1 9814.8685,7372.9964" style="stroke:#000000;stroke-width:0;"/>
            <!-- Line -->
            <path d="M9631.5135,7372.1776 L9814.9349,7372.1776 " style="stroke:#000000;stroke-width:0;"/>
            <!-- Arc -->
            <path d="M9815.4979,7371.6968 A0.4331,0.4331 0 0,1 9814.9349,7372.1776" style="stroke:#000000;stroke-width:0;"/>
            <!-- Arc -->
            <path d="M9448.0921,7372.1776 A0.4331,0.4331 0 0,1 9447.5291,7371.6968" style="stroke:#000000;stroke-width:0;"/>
            <!-- Line -->
            <path d="M9631.5135,7372.1776 L9448.0921,7372.1776 " style="stroke:#000000;stroke-width:0;"/>
            <!-- Arc -->
            <path d="M9448.1585,7372.9964 A0.7251,0.7251 0 0,1 9447.4338,7372.0538" style="stroke:#000000;stroke-width:0;"/>
            <!-- Arc -->
            <path d="M9447.77,7381.1845 A2.4177,2.4177 0 0,1 9445.9528,7377.925" style="stroke:#000000;stroke-width:0;"/>
            <!-- Line -->
            <path d="M9631.5135,7381.1845 L9447.77,7381.1845 " style="stroke:#000000;stroke-width:0;"/>
            <!-- Line -->
            <path d="M9631.5135,7372.9964 L9448.0921,7372.9964 " style="stroke:#000000;stroke-width:0;"/>
        </g>
        <!-- Polyline -->
        <path d="M10589.8661,6998.8049 A216.619,216.619 0 0 1 10530.7486,6933.7414 A1180.69,1180.69 0 0 0 10321.6178,6619.4025 A22.2032,22.2032 0 0 0 10303.5786,6636.1282 A12.0328,12.0328 0 0 1 10296.5708,6642.0388 A480.879,480.879 0 0 0 10250.7186,6670.9138 L10145.5098,6747.3525 L10040.3009,6823.7912 A480.879,480.879 0 0 0 9998.6701,6858.4764 A12.0328,12.0328 0 0 1 9990.8832,6863.3147 A22.2032,22.2032 0 0 0 9969.4018,6875.3025 A1180.69,1180.69 0 0 0 10203.7309,7171.3337 A216.619,216.619 0 0 1 10247.3415,7247.6635 A12.6008,12.6008 0 0 0 10267.3404,7256.847 L10592.4201,7020.6628 A12.6008,12.6008 0 0 0 10589.8661,6998.8049" style="stroke:#000000;stroke-width:0;"/>
        <!-- Block Reference: A$C1D6968EA / entities: 30 -->
        <g>
            <!-- Arc -->
            <path d="M10568.3034,7013.0459 A240.8687,240.8687 0 0,1 10509.291,6945.7717" style="stroke:#000000;stroke-width:0;"/>
            <!-- Arc -->
            <path d="M10553.8759,7000.8159 A317.3163,317.3163 0 0,1 10489.4486,6937.1967" style="stroke:#000000;stroke-width:0;"/>
            <!-- Arc -->
            <path d="M10220.2904,7132.7516 A317.3163,317.3163 0 0,1 10260.8868,7213.685" style="stroke:#000000;stroke-width:0;"/>
            <!-- Arc -->
            <path d="M10222.3141,7154.2726 A240.8687,240.8687 0 0,1 10268.0598,7231.1857" style="stroke:#000000;stroke-width:0;"/>
            <!-- Line -->
            <path d="M10367.1562,7051.8853 L10453.5471,6989.1187 " style="stroke:#000000;stroke-width:0;"/>
            <!-- Arc -->
            <path d="M10303.6048,6636.1039 A1154.4088,1154.4088 0 0,1 10508.0812,6943.4469" style="stroke:#000000;stroke-width:0;"/>
            <!-- Arc -->
            <path d="M10493.1539,6911.8715 A97.8312,97.8312 0 0,1 10453.5471,6989.1187" style="stroke:#000000;stroke-width:0;"/>
            <!-- Arc -->
            <path d="M10303.6048,6636.1039 A12.0153,12.0153 0 0,1 10296.6072,6642.006" style="stroke:#000000;stroke-width:0;"/>
            <!-- Line -->
            <path d="M10296.6072,6642.006 L10309.4388,6656.6643 " style="stroke:#000000;stroke-width:0;"/>
            <!-- Line -->
            <path d="M10309.4388,6656.6643 L10314.2915,6647.7896 " style="stroke:#000000;stroke-width:0;"/>
            <!-- Line -->
            <path d="M10309.4388,6656.6643 L10317.1995,6651.0258 " style="stroke:#000000;stroke-width:0;"/>
            <!-- Line -->
            <path d="M10009.1143,6874.8628 L10001.3536,6880.5013 " style="stroke:#000000;stroke-width:0;"/>
            <!-- Line -->
            <path d="M10009.1143,6874.8628 L9999.1744,6876.7356 " style="stroke:#000000;stroke-width:0;"/>
            <!-- Line -->
            <path d="M9999.1386,6858.1295 L10009.1143,6874.8628 " style="stroke:#000000;stroke-width:0;"/>
            <!-- Arc -->
            <path d="M9999.1386,6858.1295 A12.0153,12.0153 0 0,1 9991.3631,6862.9608" style="stroke:#000000;stroke-width:0;"/>
            <!-- Arc -->
            <path d="M10280.7653,7114.652 A97.8312,97.8312 0 0,1 10195.0597,7128.4496" style="stroke:#000000;stroke-width:0;"/>
            <!-- Arc -->
            <path d="M10220.477,7152.4036 A1154.4088,1154.4088 0 0,1 9991.3631,6862.9608" style="stroke:#000000;stroke-width:0;"/>
            <!-- Line -->
            <path d="M10367.1562,7051.8853 L10280.7653,7114.652 " style="stroke:#000000;stroke-width:0;"/>
            <!-- Line -->
            <path d="M10415.2847,7118.1285 L10563.6757,7010.3161 " style="stroke:#000000;stroke-width:0;"/>
            <!-- Line -->
            <path d="M10420.0975,7124.7528 L10568.7491,7016.7511 " style="stroke:#000000;stroke-width:0;"/>
            <!-- Arc -->
            <path d="M10568.3034,7013.0459 A2.4177,2.4177 0 0,1 10568.7491,7016.7511" style="stroke:#000000;stroke-width:0;"/>
            <!-- Arc -->
            <path d="M10563.6542,7009.1666 A0.7251,0.7251 0 0,1 10563.622,7010.3551" style="stroke:#000000;stroke-width:0;"/>
            <!-- Line -->
            <path d="M10414.8034,7117.4661 L10563.1944,7009.6537 " style="stroke:#000000;stroke-width:0;"/>
            <!-- Arc -->
            <path d="M10563.3673,7008.9338 A0.4331,0.4331 0 0,1 10563.1944,7009.6537" style="stroke:#000000;stroke-width:0;"/>
            <!-- Arc -->
            <path d="M10266.4124,7225.2784 A0.4331,0.4331 0 0,1 10265.6743,7225.2204" style="stroke:#000000;stroke-width:0;"/>
            <!-- Line -->
            <path d="M10414.8034,7117.4661 L10266.4124,7225.2784 " style="stroke:#000000;stroke-width:0;"/>
            <!-- Arc -->
            <path d="M10266.9474,7225.9018 A0.7251,0.7251 0 0,1 10265.807,7225.5652" style="stroke:#000000;stroke-width:0;"/>
            <!-- Arc -->
            <path d="M10271.4459,7232.7545 A2.4177,2.4177 0 0,1 10268.0598,7231.1857" style="stroke:#000000;stroke-width:0;"/>
            <!-- Line -->
            <path d="M10420.0975,7124.7528 L10271.4459,7232.7545 " style="stroke:#000000;stroke-width:0;"/>
            <!-- Line -->
            <path d="M10415.2847,7118.1285 L10266.8936,7225.9409 " style="stroke:#000000;stroke-width:0;"/>
        </g>
        <!-- Polyline -->
        <path d="M8422.5642,6654.7574 A216.619,216.619 0 0 1 8502.7115,6618.639 A1180.69,1180.69 0 0 0 8866.2905,6516.8799 A22.2032,22.2032 0 0 0 8855.9578,6494.5551 A12.0328,12.0328 0 0 1 8852.502,6486.0638 A480.879,480.879 0 0 0 8839.2094,6433.5329 L8799.0232,6309.8525 L8758.837,6186.1721 A480.879,480.879 0 0 0 8738.7141,6135.8605 A12.0328,12.0328 0 0 1 8736.5188,6126.9596 A22.2032,22.2032 0 0 0 8731.7559,6102.8251 A1180.69,1180.69 0 0 0 8377.8018,6234.2066 A216.619,216.619 0 0 1 8291.7314,6252.0956 A12.6008,12.6008 0 0 0 8276.8174,6268.2779 L8400.9868,6650.4319 A12.6008,12.6008 0 0 0 8422.5642,6654.7574" style="stroke:#000000;stroke-width:0;"/>
        <!-- Polyline -->
        <path d="M9015.0538,7247.6635 A216.619,216.619 0 0 1 9058.6645,7171.3337 A1180.69,1180.69 0 0 0 9292.9936,6875.3025 A22.2032,22.2032 0 0 0 9271.5121,6863.3147 A12.0328,12.0328 0 0 1 9263.7253,6858.4764 A480.879,480.879 0 0 0 9222.0944,6823.7912 L9116.8856,6747.3525 L9011.6767,6670.9138 A480.879,480.879 0 0 0 8965.8245,6642.0388 A12.0328,12.0328 0 0 1 8958.8167,6636.1282 A22.2032,22.2032 0 0 0 8940.7776,6619.4025 A1180.69,1180.69 0 0 0 8731.6468,6933.7414 A216.619,216.619 0 0 1 8672.5293,6998.8049 A12.6008,12.6008 0 0 0 8669.9752,7020.6628 L8995.0549,7256.847 A12.6008,12.6008 0 0 0 9015.0538,7247.6635" style="stroke:#000000;stroke-width:0;"/>
        <!-- Block Reference: A$C1D6968EA / entities: 30 -->
        <g>
            <!-- Arc -->
            <path d="M8994.8465,7231.5569 A240.8687,240.8687 0 0,1 9040.5923,7154.6439" style="stroke:#000000;stroke-width:0;"/>
            <!-- Arc -->
            <path d="M9002.0196,7214.0563 A317.3163,317.3163 0 0,1 9042.6159,7133.1228" style="stroke:#000000;stroke-width:0;"/>
            <!-- Arc -->
            <path d="M8773.4578,6937.568 A317.3163,317.3163 0 0,1 8709.0305,7001.1872" style="stroke:#000000;stroke-width:0;"/>
            <!-- Arc -->
            <path d="M8753.6153,6946.143 A240.8687,240.8687 0 0,1 8694.603,7013.4172" style="stroke:#000000;stroke-width:0;"/>
            <!-- Line -->
            <path d="M8895.7501,7052.2566 L8982.1411,7115.0233 " style="stroke:#000000;stroke-width:0;"/>
            <!-- Arc -->
            <path d="M9271.5433,6863.3321 A1154.4088,1154.4088 0 0,1 9042.4294,7152.7749" style="stroke:#000000;stroke-width:0;"/>
            <!-- Arc -->
            <path d="M9067.8466,7128.8209 A97.8312,97.8312 0 0,1 8982.1411,7115.0233" style="stroke:#000000;stroke-width:0;"/>
            <!-- Arc -->
            <path d="M9271.5433,6863.3321 A12.0153,12.0153 0 0,1 9263.7677,6858.5008" style="stroke:#000000;stroke-width:0;"/>
            <!-- Line -->
            <path d="M9263.7677,6858.5008 L9253.792,6875.2341 " style="stroke:#000000;stroke-width:0;"/>
            <!-- Line -->
            <path d="M9253.792,6875.2341 L9263.7319,6877.1068 " style="stroke:#000000;stroke-width:0;"/>
            <!-- Line -->
            <path d="M9253.792,6875.2341 L9261.5527,6880.8726 " style="stroke:#000000;stroke-width:0;"/>
            <!-- Line -->
            <path d="M8953.4675,6657.0356 L8945.7069,6651.3971 " style="stroke:#000000;stroke-width:0;"/>
            <!-- Line -->
            <path d="M8953.4675,6657.0356 L8948.6149,6648.1609 " style="stroke:#000000;stroke-width:0;"/>
            <!-- Line -->
            <path d="M8966.2992,6642.3772 L8953.4675,6657.0356 " style="stroke:#000000;stroke-width:0;"/>
            <!-- Arc -->
            <path d="M8966.2992,6642.3772 A12.0153,12.0153 0 0,1 8959.3016,6636.4752" style="stroke:#000000;stroke-width:0;"/>
            <!-- Arc -->
            <path d="M8809.3592,6989.4899 A97.8312,97.8312 0 0,1 8769.7525,6912.2428" style="stroke:#000000;stroke-width:0;"/>
            <!-- Arc -->
            <path d="M8754.8252,6943.8182 A1154.4088,1154.4088 0 0,1 8959.3016,6636.4752" style="stroke:#000000;stroke-width:0;"/>
            <!-- Line -->
            <path d="M8895.7501,7052.2566 L8809.3592,6989.4899 " style="stroke:#000000;stroke-width:0;"/>
            <!-- Line -->
            <path d="M8847.6217,7118.4997 L8996.0127,7226.3121 " style="stroke:#000000;stroke-width:0;"/>
            <!-- Line -->
            <path d="M8842.8088,7125.1241 L8991.4604,7233.1258 " style="stroke:#000000;stroke-width:0;"/>
            <!-- Arc -->
            <path d="M8994.8465,7231.5569 A2.4177,2.4177 0 0,1 8991.4604,7233.1258" style="stroke:#000000;stroke-width:0;"/>
            <!-- Arc -->
            <path d="M8997.0993,7225.9364 A0.7251,0.7251 0 0,1 8995.959,7226.2731" style="stroke:#000000;stroke-width:0;"/>
            <!-- Line -->
            <path d="M8848.103,7117.8373 L8996.494,7225.6497 " style="stroke:#000000;stroke-width:0;"/>
            <!-- Arc -->
            <path d="M8997.232,7225.5917 A0.4331,0.4331 0 0,1 8996.494,7225.6497" style="stroke:#000000;stroke-width:0;"/>
            <!-- Arc -->
            <path d="M8699.712,7010.0249 A0.4331,0.4331 0 0,1 8699.5391,7009.3051" style="stroke:#000000;stroke-width:0;"/>
            <!-- Line -->
            <path d="M8848.103,7117.8373 L8699.712,7010.0249 " style="stroke:#000000;stroke-width:0;"/>
            <!-- Arc -->
            <path d="M8699.2844,7010.7264 A0.7251,0.7251 0 0,1 8699.2522,7009.5378" style="stroke:#000000;stroke-width:0;"/>
            <!-- Arc -->
            <path d="M8694.1572,7017.1224 A2.4177,2.4177 0 0,1 8694.603,7013.4172" style="stroke:#000000;stroke-width:0;"/>
            <!-- Line -->
            <path d="M8842.8088,7125.1241 L8694.1572,7017.1224 " style="stroke:#000000;stroke-width:0;"/>
            <!-- Line -->
            <path d="M8847.6217,7118.4997 L8699.2307,7010.6874 " style="stroke:#000000;stroke-width:0;"/>
        </g>
        <!-- Block Reference: A$C1D6968EA / entities: 30 -->
        <g>
            <!-- Arc -->
            <path d="M8415.6833,6629.8493 A240.8687,240.8687 0 0,1 8497.9008,6594.5141" style="stroke:#000000;stroke-width:0;"/>
            <!-- Arc -->
            <path d="M8431.7731,6619.9072 A317.3163,317.3163 0 0,1 8512.1877,6578.2926" style="stroke:#000000;stroke-width:0;"/>
            <!-- Arc -->
            <path d="M8409.3784,6261.8783 A317.3163,317.3163 0 0,1 8319.8612,6275.4779" style="stroke:#000000;stroke-width:0;"/>
            <!-- Arc -->
            <path d="M8388.2853,6257.1525 A240.8687,240.8687 0 0,1 8301.0005,6276.8919" style="stroke:#000000;stroke-width:0;"/>
            <!-- Line -->
            <path d="M8440.9028,6426.545 L8473.9012,6528.1036 " style="stroke:#000000;stroke-width:0;"/>
            <!-- Arc -->
            <path d="M8855.9728,6494.5875 A1154.4088,1154.4088 0 0,1 8500.4856,6594.0819" style="stroke:#000000;stroke-width:0;"/>
            <!-- Arc -->
            <path d="M8535.1284,6589.6425 A97.8312,97.8312 0 0,1 8473.9012,6528.1036" style="stroke:#000000;stroke-width:0;"/>
            <!-- Arc -->
            <path d="M8855.9728,6494.5875 A12.0153,12.0153 0 0,1 8852.522,6486.1085" style="stroke:#000000;stroke-width:0;"/>
            <!-- Line -->
            <path d="M8852.522,6486.1085 L8834.6159,6493.7825 " style="stroke:#000000;stroke-width:0;"/>
            <!-- Line -->
            <path d="M8834.6159,6493.7825 L8841.5567,6501.1401 " style="stroke:#000000;stroke-width:0;"/>
            <!-- Line -->
            <path d="M8834.6159,6493.7825 L8837.5803,6502.9057 " style="stroke:#000000;stroke-width:0;"/>
            <!-- Line -->
            <path d="M8719.9022,6140.7299 L8716.9379,6131.6066 " style="stroke:#000000;stroke-width:0;"/>
            <!-- Line -->
            <path d="M8719.9022,6140.7299 L8721.1927,6130.6978 " style="stroke:#000000;stroke-width:0;"/>
            <!-- Line -->
            <path d="M8738.8992,6136.4133 L8719.9022,6140.7299 " style="stroke:#000000;stroke-width:0;"/>
            <!-- Arc -->
            <path d="M8738.8992,6136.4133 A12.0153,12.0153 0 0,1 8736.7071,6127.5253" style="stroke:#000000;stroke-width:0;"/>
            <!-- Arc -->
            <path d="M8407.9044,6324.9863 A97.8312,97.8312 0 0,1 8421.2666,6239.2118" style="stroke:#000000;stroke-width:0;"/>
            <!-- Arc -->
            <path d="M8390.6306,6255.9828 A1154.4088,1154.4088 0 0,1 8736.7071,6127.5253" style="stroke:#000000;stroke-width:0;"/>
            <!-- Line -->
            <path d="M8440.9028,6426.545 L8407.9044,6324.9863 " style="stroke:#000000;stroke-width:0;"/>
            <!-- Line -->
            <path d="M8363.0293,6451.8476 L8419.7096,6626.2917 " style="stroke:#000000;stroke-width:0;"/>
            <!-- Line -->
            <path d="M8355.2419,6454.3778 L8412.0218,6629.1283 " style="stroke:#000000;stroke-width:0;"/>
            <!-- Arc -->
            <path d="M8415.6833,6629.8493 A2.4177,2.4177 0 0,1 8412.0218,6629.1283" style="stroke:#000000;stroke-width:0;"/>
            <!-- Arc -->
            <path d="M8420.8095,6626.6264 A0.7251,0.7251 0 0,1 8419.6891,6626.2286" style="stroke:#000000;stroke-width:0;"/>
            <!-- Line -->
            <path d="M8363.808,6451.5946 L8420.4883,6626.0387 " style="stroke:#000000;stroke-width:0;"/>
            <!-- Arc -->
            <path d="M8421.1195,6626.4255 A0.4331,0.4331 0 0,1 8420.4883,6626.0387" style="stroke:#000000;stroke-width:0;"/>
            <!-- Arc -->
            <path d="M8307.1277,6277.1505 A0.4331,0.4331 0 0,1 8307.4109,6276.4665" style="stroke:#000000;stroke-width:0;"/>
            <!-- Line -->
            <path d="M8363.808,6451.5946 L8307.1277,6277.1505 " style="stroke:#000000;stroke-width:0;"/>
            <!-- Arc -->
            <path d="M8306.3695,6277.4666 A0.7251,0.7251 0 0,1 8307.042,6276.4861" style="stroke:#000000;stroke-width:0;"/>
            <!-- Arc -->
            <path d="M8298.4621,6279.6274 A2.4177,2.4177 0 0,1 8301.0005,6276.8919" style="stroke:#000000;stroke-width:0;"/>
            <!-- Line -->
            <path d="M8355.2419,6454.3778 L8298.4621,6279.6274 " style="stroke:#000000;stroke-width:0;"/>
            <!-- Line -->
            <path d="M8363.0293,6451.8476 L8306.3489,6277.4035 " style="stroke:#000000;stroke-width:0;"/>
        </g>
        <!-- Block Reference: A$C1D6968EA / entities: 30 -->
        <g>
            <!-- Arc -->
            <path d="M9445.3211,4701.0003 A240.8687,240.8687 0 0,1 9453.5203,4790.1129" style="stroke:#000000;stroke-width:0;"/>
            <!-- Arc -->
            <path d="M9449.8046,4719.3748 A317.3163,317.3163 0 0,1 9464.533,4808.7133" style="stroke:#000000;stroke-width:0;"/>
            <!-- Arc -->
            <path d="M9797.2307,4808.7133 A317.3163,317.3163 0 0,1 9811.9591,4719.3748" style="stroke:#000000;stroke-width:0;"/>
            <!-- Arc -->
            <path d="M9808.2434,4790.1129 A240.8687,240.8687 0 0,1 9816.4426,4701.0003" style="stroke:#000000;stroke-width:0;"/>
            <!-- Line -->
            <path d="M9630.8819,4787.8099 L9524.0968,4787.8099 " style="stroke:#000000;stroke-width:0;"/>
            <!-- Arc -->
            <path d="M9437.9059,5161.5387 A1154.4088,1154.4088 0 0,1 9453.1327,4792.7048" style="stroke:#000000;stroke-width:0;"/>
            <!-- Arc -->
            <path d="M9446.6495,4827.0239 A97.8312,97.8312 0 0,1 9524.0968,4787.8099" style="stroke:#000000;stroke-width:0;"/>
            <!-- Arc -->
            <path d="M9437.9059,5161.5387 A12.0153,12.0153 0 0,1 9447.0362,5160.8769" style="stroke:#000000;stroke-width:0;"/>
            <!-- Line -->
            <path d="M9447.0362,5160.8769 L9445.2711,5141.4758 " style="stroke:#000000;stroke-width:0;"/>
            <!-- Line -->
            <path d="M9445.2711,5141.4758 L9436.1288,5145.8033 " style="stroke:#000000;stroke-width:0;"/>
            <!-- Line -->
            <path d="M9445.2711,5141.4758 L9435.6784,5141.4758 " style="stroke:#000000;stroke-width:0;"/>
            <!-- Line -->
            <path d="M9816.4926,5141.4758 L9826.0853,5141.4758 " style="stroke:#000000;stroke-width:0;"/>
            <!-- Line -->
            <path d="M9816.4926,5141.4758 L9825.6349,5145.8033 " style="stroke:#000000;stroke-width:0;"/>
            <!-- Line -->
            <path d="M9814.7275,5160.8769 L9816.4926,5141.4758 " style="stroke:#000000;stroke-width:0;"/>
            <!-- Arc -->
            <path d="M9814.7275,5160.8769 A12.0153,12.0153 0 0,1 9823.8578,5161.5387" style="stroke:#000000;stroke-width:0;"/>
            <!-- Arc -->
            <path d="M9737.6669,4787.8099 A97.8312,97.8312 0 0,1 9815.1142,4827.0239" style="stroke:#000000;stroke-width:0;"/>
            <!-- Arc -->
            <path d="M9808.631,4792.7048 A1154.4088,1154.4088 0 0,1 9823.8578,5161.5387" style="stroke:#000000;stroke-width:0;"/>
            <!-- Line -->
            <path d="M9630.8819,4787.8099 L9737.6669,4787.8099 " style="stroke:#000000;stroke-width:0;"/>
            <!-- Line -->
            <path d="M9630.8819,4705.9288 L9447.4605,4705.9288 " style="stroke:#000000;stroke-width:0;"/>
            <!-- Line -->
            <path d="M9630.8819,4697.7407 L9447.1384,4697.7407 " style="stroke:#000000;stroke-width:0;"/>
            <!-- Arc -->
            <path d="M9445.3211,4701.0003 A2.4177,2.4177 0 0,1 9447.1384,4697.7407" style="stroke:#000000;stroke-width:0;"/>
            <!-- Arc -->
            <path d="M9446.8022,4706.8715 A0.7251,0.7251 0 0,1 9447.5269,4705.9288" style="stroke:#000000;stroke-width:0;"/>
            <!-- Line -->
            <path d="M9630.8819,4706.7477 L9447.4605,4706.7477 " style="stroke:#000000;stroke-width:0;"/>
            <!-- Arc -->
            <path d="M9446.8975,4707.2284 A0.4331,0.4331 0 0,1 9447.4605,4706.7477" style="stroke:#000000;stroke-width:0;"/>
            <!-- Arc -->
            <path d="M9814.3032,4706.7477 A0.4331,0.4331 0 0,1 9814.8662,4707.2284" style="stroke:#000000;stroke-width:0;"/>
            <!-- Line -->
            <path d="M9630.8819,4706.7477 L9814.3032,4706.7477 " style="stroke:#000000;stroke-width:0;"/>
            <!-- Arc -->
            <path d="M9814.2369,4705.9288 A0.7251,0.7251 0 0,1 9814.9615,4706.8715" style="stroke:#000000;stroke-width:0;"/>
            <!-- Arc -->
            <path d="M9814.6253,4697.7407 A2.4177,2.4177 0 0,1 9816.4426,4701.0003" style="stroke:#000000;stroke-width:0;"/>
            <!-- Line -->
            <path d="M9630.8819,4697.7407 L9814.6253,4697.7407 " style="stroke:#000000;stroke-width:0;"/>
            <!-- Line -->
            <path d="M9630.8819,4705.9288 L9814.3032,4705.9288 " style="stroke:#000000;stroke-width:0;"/>
        </g>
        <!-- Polyline -->
        <path d="M9419.5059,4699.8473 A216.619,216.619 0 0 1 9429.0896,4787.2331 A1180.69,1180.69 0 0 0 9413.5162,5164.4626 A22.2032,22.2032 0 0 0 9437.9413,5161.5344 A12.0328,12.0328 0 0 1 9447.0849,5160.8717 A480.879,480.879 0 0 0 9501.1524,5164.4626 L9631.1977,5164.4626 L9761.2429,5164.4626 A480.879,480.879 0 0 0 9815.3105,5160.8717 A12.0328,12.0328 0 0 1 9824.454,5161.5344 A22.2032,22.2032 0 0 0 9848.8792,5164.4626 A1180.69,1180.69 0 0 0 9833.3057,4787.2331 A216.619,216.619 0 0 1 9842.8895,4699.8473 A12.6008,12.6008 0 0 0 9832.108,4680.6626 L9430.2874,4680.6626 A12.6008,12.6008 0 0 0 9419.5059,4699.8473" style="stroke:#000000;stroke-width:0;"/>
        <!-- Polyline -->
        <path d="M10247.3415,4831.2617 A216.619,216.619 0 0 1 10203.7309,4907.5915 A1180.69,1180.69 0 0 0 9969.4018,5203.6228 A22.2032,22.2032 0 0 0 9990.8832,5215.6105 A12.0328,12.0328 0 0 1 9998.6701,5220.4488 A480.879,480.879 0 0 0 10040.3009,5255.1341 L10145.5098,5331.5728 L10250.7186,5408.0114 A480.879,480.879 0 0 0 10296.5708,5436.8864 A12.0328,12.0328 0 0 1 10303.5786,5442.797 A22.2032,22.2032 0 0 0 10321.6178,5459.5227 A1180.69,1180.69 0 0 0 10530.7486,5145.1838 A216.619,216.619 0 0 1 10589.8661,5080.1204 A12.6008,12.6008 0 0 0 10592.4201,5058.2624 L10267.3404,4822.0782 A12.6008,12.6008 0 0 0 10247.3415,4831.2617" style="stroke:#000000;stroke-width:0;"/>
        <!-- Block Reference: A$C1D6968EA / entities: 30 -->
        <g>
            <!-- Arc -->
            <path d="M10267.5488,4847.3683 A240.8687,240.8687 0 0,1 10221.8031,4924.2813" style="stroke:#000000;stroke-width:0;"/>
            <!-- Arc -->
            <path d="M10260.3758,4864.869 A317.3163,317.3163 0 0,1 10219.7794,4945.8024" style="stroke:#000000;stroke-width:0;"/>
            <!-- Arc -->
            <path d="M10488.9376,5141.3573 A317.3163,317.3163 0 0,1 10553.3649,5077.738" style="stroke:#000000;stroke-width:0;"/>
            <!-- Arc -->
            <path d="M10508.78,5132.7823 A240.8687,240.8687 0 0,1 10567.7924,5065.508" style="stroke:#000000;stroke-width:0;"/>
            <!-- Line -->
            <path d="M10366.6452,5026.6686 L10280.2543,4963.902 " style="stroke:#000000;stroke-width:0;"/>
            <!-- Arc -->
            <path d="M9990.8521,5215.5932 A1154.4088,1154.4088 0 0,1 10219.966,4926.1504" style="stroke:#000000;stroke-width:0;"/>
            <!-- Arc -->
            <path d="M10194.5487,4950.1044 A97.8312,97.8312 0 0,1 10280.2543,4963.902" style="stroke:#000000;stroke-width:0;"/>
            <!-- Arc -->
            <path d="M9990.8521,5215.5932 A12.0153,12.0153 0 0,1 9998.6276,5220.4244" style="stroke:#000000;stroke-width:0;"/>
            <!-- Line -->
            <path d="M9998.6276,5220.4244 L10008.6033,5203.6912 " style="stroke:#000000;stroke-width:0;"/>
            <!-- Line -->
            <path d="M10008.6033,5203.6912 L9998.6634,5201.8184 " style="stroke:#000000;stroke-width:0;"/>
            <!-- Line -->
            <path d="M10008.6033,5203.6912 L10000.8426,5198.0527 " style="stroke:#000000;stroke-width:0;"/>
            <!-- Line -->
            <path d="M10308.9278,5421.8897 L10316.6885,5427.5281 " style="stroke:#000000;stroke-width:0;"/>
            <!-- Line -->
            <path d="M10308.9278,5421.8897 L10313.7805,5430.7643 " style="stroke:#000000;stroke-width:0;"/>
            <!-- Line -->
            <path d="M10296.0962,5436.548 L10308.9278,5421.8897 " style="stroke:#000000;stroke-width:0;"/>
            <!-- Arc -->
            <path d="M10296.0962,5436.548 A12.0153,12.0153 0 0,1 10303.0938,5442.45" style="stroke:#000000;stroke-width:0;"/>
            <!-- Arc -->
            <path d="M10453.0361,5089.4353 A97.8312,97.8312 0 0,1 10492.6429,5166.6825" style="stroke:#000000;stroke-width:0;"/>
            <!-- Arc -->
            <path d="M10507.5702,5135.107 A1154.4088,1154.4088 0 0,1 10303.0938,5442.45" style="stroke:#000000;stroke-width:0;"/>
            <!-- Line -->
            <path d="M10366.6452,5026.6686 L10453.0361,5089.4353 " style="stroke:#000000;stroke-width:0;"/>
            <!-- Line -->
            <path d="M10414.7737,4960.4255 L10266.3826,4852.6131 " style="stroke:#000000;stroke-width:0;"/>
            <!-- Line -->
            <path d="M10419.5865,4953.8012 L10270.9349,4845.7995 " style="stroke:#000000;stroke-width:0;"/>
            <!-- Arc -->
            <path d="M10267.5488,4847.3683 A2.4177,2.4177 0 0,1 10270.9349,4845.7995" style="stroke:#000000;stroke-width:0;"/>
            <!-- Arc -->
            <path d="M10265.296,4852.9888 A0.7251,0.7251 0 0,1 10266.4364,4852.6521" style="stroke:#000000;stroke-width:0;"/>
            <!-- Line -->
            <path d="M10414.2924,4961.0879 L10265.9014,4853.2755 " style="stroke:#000000;stroke-width:0;"/>
            <!-- Arc -->
            <path d="M10265.1633,4853.3336 A0.4331,0.4331 0 0,1 10265.9014,4853.2755" style="stroke:#000000;stroke-width:0;"/>
            <!-- Arc -->
            <path d="M10562.6834,5068.9003 A0.4331,0.4331 0 0,1 10562.8563,5069.6202" style="stroke:#000000;stroke-width:0;"/>
            <!-- Line -->
            <path d="M10414.2924,4961.0879 L10562.6834,5068.9003 " style="stroke:#000000;stroke-width:0;"/>
            <!-- Arc -->
            <path d="M10563.111,5068.1989 A0.7251,0.7251 0 0,1 10563.1432,5069.3874" style="stroke:#000000;stroke-width:0;"/>
            <!-- Arc -->
            <path d="M10568.2381,5061.8029 A2.4177,2.4177 0 0,1 10567.7924,5065.508" style="stroke:#000000;stroke-width:0;"/>
            <!-- Line -->
            <path d="M10419.5865,4953.8012 L10568.2381,5061.8029 " style="stroke:#000000;stroke-width:0;"/>
            <!-- Line -->
            <path d="M10414.7737,4960.4255 L10563.1647,5068.2379 " style="stroke:#000000;stroke-width:0;"/>
        </g>
        <!-- Polyline -->
        <path d="M8672.5293,5080.1204 A216.619,216.619 0 0 1 8731.6468,5145.1838 A1180.69,1180.69 0 0 0 8940.7776,5459.5227 A22.2032,22.2032 0 0 0 8958.8167,5442.797 A12.0328,12.0328 0 0 1 8965.8245,5436.8864 A480.879,480.879 0 0 0 9011.6767,5408.0114 L9116.8856,5331.5728 L9222.0944,5255.1341 A480.879,480.879 0 0 0 9263.7253,5220.4488 A12.0328,12.0328 0 0 1 9271.5121,5215.6105 A22.2032,22.2032 0 0 0 9292.9936,5203.6228 A1180.69,1180.69 0 0 0 9058.6645,4907.5915 A216.619,216.619 0 0 1 9015.0538,4831.2617 A12.6008,12.6008 0 0 0 8995.0549,4822.0782 L8669.9752,5058.2624 A12.6008,12.6008 0 0 0 8672.5293,5080.1204" style="stroke:#000000;stroke-width:0;"/>
        <!-- Block Reference: A$C1D6968EA / entities: 30 -->
        <g>
            <!-- Arc -->
            <path d="M8694.092,5065.8793 A240.8687,240.8687 0 0,1 8753.1043,5133.1536" style="stroke:#000000;stroke-width:0;"/>
            <!-- Arc -->
            <path d="M8708.5195,5078.1093 A317.3163,317.3163 0 0,1 8772.9468,5141.7285" style="stroke:#000000;stroke-width:0;"/>
            <!-- Arc -->
            <path d="M9042.1049,4946.1737 A317.3163,317.3163 0 0,1 9001.5086,4865.2402" style="stroke:#000000;stroke-width:0;"/>
            <!-- Arc -->
            <path d="M9040.0813,4924.6526 A240.8687,240.8687 0 0,1 8994.3355,4847.7396" style="stroke:#000000;stroke-width:0;"/>
            <!-- Line -->
            <path d="M8895.2391,5027.0399 L8808.8482,5089.8066 " style="stroke:#000000;stroke-width:0;"/>
            <!-- Arc -->
            <path d="M8958.7906,5442.8213 A1154.4088,1154.4088 0 0,1 8754.3142,5135.4783" style="stroke:#000000;stroke-width:0;"/>
            <!-- Arc -->
            <path d="M8769.2415,5167.0537 A97.8312,97.8312 0 0,1 8808.8482,5089.8066" style="stroke:#000000;stroke-width:0;"/>
            <!-- Arc -->
            <path d="M8958.7906,5442.8213 A12.0153,12.0153 0 0,1 8965.7882,5436.9193" style="stroke:#000000;stroke-width:0;"/>
            <!-- Line -->
            <path d="M8965.7882,5436.9193 L8952.9565,5422.2609 " style="stroke:#000000;stroke-width:0;"/>
            <!-- Line -->
            <path d="M8952.9565,5422.2609 L8948.1039,5431.1356 " style="stroke:#000000;stroke-width:0;"/>
            <!-- Line -->
            <path d="M8952.9565,5422.2609 L8945.1959,5427.8994 " style="stroke:#000000;stroke-width:0;"/>
            <!-- Line -->
            <path d="M9253.281,5204.0624 L9261.0417,5198.424 " style="stroke:#000000;stroke-width:0;"/>
            <!-- Line -->
            <path d="M9253.281,5204.0624 L9263.2209,5202.1897 " style="stroke:#000000;stroke-width:0;"/>
            <!-- Line -->
            <path d="M9263.2567,5220.7957 L9253.281,5204.0624 " style="stroke:#000000;stroke-width:0;"/>
            <!-- Arc -->
            <path d="M9263.2567,5220.7957 A12.0153,12.0153 0 0,1 9271.0323,5215.9644" style="stroke:#000000;stroke-width:0;"/>
            <!-- Arc -->
            <path d="M8981.6301,4964.2732 A97.8312,97.8312 0 0,1 9067.3356,4950.4757" style="stroke:#000000;stroke-width:0;"/>
            <!-- Arc -->
            <path d="M9041.9184,4926.5216 A1154.4088,1154.4088 0 0,1 9271.0323,5215.9644" style="stroke:#000000;stroke-width:0;"/>
            <!-- Line -->
            <path d="M8895.2391,5027.0399 L8981.6301,4964.2732 " style="stroke:#000000;stroke-width:0;"/>
            <!-- Line -->
            <path d="M8847.1107,4960.7968 L8698.7197,5068.6092 " style="stroke:#000000;stroke-width:0;"/>
            <!-- Line -->
            <path d="M8842.2978,4954.1724 L8693.6462,5062.1742 " style="stroke:#000000;stroke-width:0;"/>
            <!-- Arc -->
            <path d="M8694.092,5065.8793 A2.4177,2.4177 0 0,1 8693.6462,5062.1742" style="stroke:#000000;stroke-width:0;"/>
            <!-- Arc -->
            <path d="M8698.7412,5069.7587 A0.7251,0.7251 0 0,1 8698.7734,5068.5701" style="stroke:#000000;stroke-width:0;"/>
            <!-- Line -->
            <path d="M8847.592,4961.4592 L8699.2009,5069.2716 " style="stroke:#000000;stroke-width:0;"/>
            <!-- Arc -->
            <path d="M8699.0281,5069.9914 A0.4331,0.4331 0 0,1 8699.2009,5069.2716" style="stroke:#000000;stroke-width:0;"/>
            <!-- Arc -->
            <path d="M8995.983,4853.6468 A0.4331,0.4331 0 0,1 8996.721,4853.7048" style="stroke:#000000;stroke-width:0;"/>
            <!-- Line -->
            <path d="M8847.592,4961.4592 L8995.983,4853.6468 " style="stroke:#000000;stroke-width:0;"/>
            <!-- Arc -->
            <path d="M8995.448,4853.0234 A0.7251,0.7251 0 0,1 8996.5883,4853.3601" style="stroke:#000000;stroke-width:0;"/>
            <!-- Arc -->
            <path d="M8990.9494,4846.1707 A2.4177,2.4177 0 0,1 8994.3355,4847.7396" style="stroke:#000000;stroke-width:0;"/>
            <!-- Line -->
            <path d="M8842.2978,4954.1724 L8990.9494,4846.1707 " style="stroke:#000000;stroke-width:0;"/>
            <!-- Line -->
            <path d="M8847.1107,4960.7968 L8995.5017,4852.9844 " style="stroke:#000000;stroke-width:0;"/>
        </g>
        <!-- Circle -->
        <circle cx="9631.197674295223" cy="6039.462623378196" r="825" style="stroke:#000000;stroke-width:0;"/>
        <!-- Circle -->
        <circle cx="9631.197674295223" cy="6039.462623378196" r="850" style="stroke:#000000;stroke-width:0;"/>
        <!-- Polyline -->
        <path d="M8291.7314,5826.8296 A216.619,216.619 0 0 1 8377.8018,5844.7186 A1180.69,1180.69 0 0 0 8731.7559,5976.1001 A22.2032,22.2032 0 0 0 8736.5188,5951.9656 A12.0328,12.0328 0 0 1 8738.7141,5943.0648 A480.879,480.879 0 0 0 8758.837,5892.7532 L8799.0232,5769.0728 L8839.2094,5645.3924 A480.879,480.879 0 0 0 8852.502,5592.8614 A12.0328,12.0328 0 0 1 8855.9578,5584.3702 A22.2032,22.2032 0 0 0 8866.2905,5562.0454 A1180.69,1180.69 0 0 0 8502.7115,5460.2862 A216.619,216.619 0 0 1 8422.5642,5424.1678 A12.6008,12.6008 0 0 0 8400.9868,5428.4933 L8276.8174,5810.6474 A12.6008,12.6008 0 0 0 8291.7314,5826.8296" style="stroke:#000000;stroke-width:0;"/>
        <!-- Block Reference: A$C1D6968EA / entities: 30 -->
        <g>
            <!-- Arc -->
            <path d="M8300.8053,5802.6341 A240.8687,240.8687 0 0,1 8388.0901,5822.3735" style="stroke:#000000;stroke-width:0;"/>
            <!-- Arc -->
            <path d="M8319.666,5804.0481 A317.3163,317.3163 0 0,1 8409.1832,5817.6477" style="stroke:#000000;stroke-width:0;"/>
            <!-- Arc -->
            <path d="M8511.9925,5501.2333 A317.3163,317.3163 0 0,1 8431.5779,5459.6187" style="stroke:#000000;stroke-width:0;"/>
            <!-- Arc -->
            <path d="M8497.7056,5485.0119 A240.8687,240.8687 0 0,1 8415.4881,5449.6766" style="stroke:#000000;stroke-width:0;"/>
            <!-- Line -->
            <path d="M8440.7076,5652.981 L8407.7092,5754.5396 " style="stroke:#000000;stroke-width:0;"/>
            <!-- Arc -->
            <path d="M8736.5119,5952.0006 A1154.4088,1154.4088 0 0,1 8390.4354,5823.5431" style="stroke:#000000;stroke-width:0;"/>
            <!-- Arc -->
            <path d="M8421.0714,5840.3142 A97.8312,97.8312 0 0,1 8407.7092,5754.5396" style="stroke:#000000;stroke-width:0;"/>
            <!-- Arc -->
            <path d="M8736.5119,5952.0006 A12.0153,12.0153 0 0,1 8738.704,5943.1127" style="stroke:#000000;stroke-width:0;"/>
            <!-- Line -->
            <path d="M8738.704,5943.1127 L8719.707,5938.7961 " style="stroke:#000000;stroke-width:0;"/>
            <!-- Line -->
            <path d="M8719.707,5938.7961 L8720.9975,5948.8282 " style="stroke:#000000;stroke-width:0;"/>
            <!-- Line -->
            <path d="M8719.707,5938.7961 L8716.7427,5947.9193 " style="stroke:#000000;stroke-width:0;"/>
            <!-- Line -->
            <path d="M8834.4208,5585.7435 L8837.3851,5576.6203 " style="stroke:#000000;stroke-width:0;"/>
            <!-- Line -->
            <path d="M8834.4208,5585.7435 L8841.3615,5578.3859 " style="stroke:#000000;stroke-width:0;"/>
            <!-- Line -->
            <path d="M8852.3269,5593.4174 L8834.4208,5585.7435 " style="stroke:#000000;stroke-width:0;"/>
            <!-- Arc -->
            <path d="M8852.3269,5593.4174 A12.0153,12.0153 0 0,1 8855.7777,5584.9385" style="stroke:#000000;stroke-width:0;"/>
            <!-- Arc -->
            <path d="M8473.706,5551.4224 A97.8312,97.8312 0 0,1 8534.9332,5489.8835" style="stroke:#000000;stroke-width:0;"/>
            <!-- Arc -->
            <path d="M8500.2904,5485.4441 A1154.4088,1154.4088 0 0,1 8855.7777,5584.9385" style="stroke:#000000;stroke-width:0;"/>
            <!-- Line -->
            <path d="M8440.7076,5652.981 L8473.706,5551.4224 " style="stroke:#000000;stroke-width:0;"/>
            <!-- Line -->
            <path d="M8362.8341,5627.6784 L8306.1538,5802.1225 " style="stroke:#000000;stroke-width:0;"/>
            <!-- Line -->
            <path d="M8355.0467,5625.1481 L8298.2669,5799.8986 " style="stroke:#000000;stroke-width:0;"/>
            <!-- Arc -->
            <path d="M8300.8053,5802.6341 A2.4177,2.4177 0 0,1 8298.2669,5799.8986" style="stroke:#000000;stroke-width:0;"/>
            <!-- Arc -->
            <path d="M8306.8468,5803.0398 A0.7251,0.7251 0 0,1 8306.1743,5802.0594" style="stroke:#000000;stroke-width:0;"/>
            <!-- Line -->
            <path d="M8363.6128,5627.9314 L8306.9325,5802.3755 " style="stroke:#000000;stroke-width:0;"/>
            <!-- Arc -->
            <path d="M8307.2158,5803.0595 A0.4331,0.4331 0 0,1 8306.9325,5802.3755" style="stroke:#000000;stroke-width:0;"/>
            <!-- Arc -->
            <path d="M8420.2931,5453.4873 A0.4331,0.4331 0 0,1 8420.9244,5453.1004" style="stroke:#000000;stroke-width:0;"/>
            <!-- Line -->
            <path d="M8363.6128,5627.9314 L8420.2931,5453.4873 " style="stroke:#000000;stroke-width:0;"/>
            <!-- Arc -->
            <path d="M8419.4939,5453.2974 A0.7251,0.7251 0 0,1 8420.6143,5452.8995" style="stroke:#000000;stroke-width:0;"/>
            <!-- Arc -->
            <path d="M8411.8266,5450.3977 A2.4177,2.4177 0 0,1 8415.4881,5449.6766" style="stroke:#000000;stroke-width:0;"/>
            <!-- Line -->
            <path d="M8355.0467,5625.1481 L8411.8266,5450.3977 " style="stroke:#000000;stroke-width:0;"/>
            <!-- Line -->
            <path d="M8362.8341,5627.6784 L8419.5144,5453.2343 " style="stroke:#000000;stroke-width:0;"/>
        </g>
        <!-- Polyline -->
        <path d="M10839.8312,5424.1678 A216.619,216.619 0 0 1 10759.6839,5460.2862 A1180.69,1180.69 0 0 0 10396.1049,5562.0454 A22.2032,22.2032 0 0 0 10406.4375,5584.3702 A12.0328,12.0328 0 0 1 10409.8933,5592.8614 A480.879,480.879 0 0 0 10423.1859,5645.3924 L10463.3721,5769.0728 L10503.5583,5892.7532 A480.879,480.879 0 0 0 10523.6813,5943.0648 A12.0328,12.0328 0 0 1 10525.8765,5951.9656 A22.2032,22.2032 0 0 0 10530.6394,5976.1001 A1180.69,1180.69 0 0 0 10884.5935,5844.7186 A216.619,216.619 0 0 1 10970.6639,5826.8296 A12.6008,12.6008 0 0 0 10985.578,5810.6474 L10861.4086,5428.4933 A12.6008,12.6008 0 0 0 10839.8312,5424.1678" style="stroke:#000000;stroke-width:0;"/>
        <!-- Block Reference: A$C1D6968EA / entities: 30 -->
        <g>
            <!-- Arc -->
            <path d="M10846.712,5449.0759 A240.8687,240.8687 0 0,1 10764.4946,5484.4111" style="stroke:#000000;stroke-width:0;"/>
            <!-- Arc -->
            <path d="M10830.6223,5459.018 A317.3163,317.3163 0 0,1 10750.2077,5500.6326" style="stroke:#000000;stroke-width:0;"/>
            <!-- Arc -->
            <path d="M10853.0169,5817.047 A317.3163,317.3163 0 0,1 10942.5342,5803.4474" style="stroke:#000000;stroke-width:0;"/>
            <!-- Arc -->
            <path d="M10874.11,5821.7728 A240.8687,240.8687 0 0,1 10961.3949,5802.0334" style="stroke:#000000;stroke-width:0;"/>
            <!-- Line -->
            <path d="M10821.4926,5652.3803 L10788.4942,5550.8217 " style="stroke:#000000;stroke-width:0;"/>
            <!-- Arc -->
            <path d="M10406.4225,5584.3378 A1154.4088,1154.4088 0 0,1 10761.9098,5484.8434" style="stroke:#000000;stroke-width:0;"/>
            <!-- Arc -->
            <path d="M10727.2669,5489.2827 A97.8312,97.8312 0 0,1 10788.4942,5550.8217" style="stroke:#000000;stroke-width:0;"/>
            <!-- Arc -->
            <path d="M10406.4225,5584.3378 A12.0153,12.0153 0 0,1 10409.8733,5592.8167" style="stroke:#000000;stroke-width:0;"/>
            <!-- Line -->
            <path d="M10409.8733,5592.8167 L10427.7794,5585.1428 " style="stroke:#000000;stroke-width:0;"/>
            <!-- Line -->
            <path d="M10427.7794,5585.1428 L10420.8386,5577.7852 " style="stroke:#000000;stroke-width:0;"/>
            <!-- Line -->
            <path d="M10427.7794,5585.1428 L10424.8151,5576.0196 " style="stroke:#000000;stroke-width:0;"/>
            <!-- Line -->
            <path d="M10542.4931,5938.1954 L10545.4575,5947.3186 " style="stroke:#000000;stroke-width:0;"/>
            <!-- Line -->
            <path d="M10542.4931,5938.1954 L10541.2026,5948.2275 " style="stroke:#000000;stroke-width:0;"/>
            <!-- Line -->
            <path d="M10523.4962,5942.512 L10542.4931,5938.1954 " style="stroke:#000000;stroke-width:0;"/>
            <!-- Arc -->
            <path d="M10523.4962,5942.512 A12.0153,12.0153 0 0,1 10525.6882,5951.3999" style="stroke:#000000;stroke-width:0;"/>
            <!-- Arc -->
            <path d="M10854.491,5753.9389 A97.8312,97.8312 0 0,1 10841.1288,5839.7134" style="stroke:#000000;stroke-width:0;"/>
            <!-- Arc -->
            <path d="M10871.7648,5822.9424 A1154.4088,1154.4088 0 0,1 10525.6882,5951.3999" style="stroke:#000000;stroke-width:0;"/>
            <!-- Line -->
            <path d="M10821.4926,5652.3803 L10854.491,5753.9389 " style="stroke:#000000;stroke-width:0;"/>
            <!-- Line -->
            <path d="M10899.3661,5627.0777 L10842.6857,5452.6336 " style="stroke:#000000;stroke-width:0;"/>
            <!-- Line -->
            <path d="M10907.1534,5624.5474 L10850.3736,5449.797 " style="stroke:#000000;stroke-width:0;"/>
            <!-- Arc -->
            <path d="M10846.712,5449.0759 A2.4177,2.4177 0 0,1 10850.3736,5449.797" style="stroke:#000000;stroke-width:0;"/>
            <!-- Arc -->
            <path d="M10841.5858,5452.2988 A0.7251,0.7251 0 0,1 10842.7063,5452.6967" style="stroke:#000000;stroke-width:0;"/>
            <!-- Line -->
            <path d="M10898.5873,5627.3307 L10841.907,5452.8866 " style="stroke:#000000;stroke-width:0;"/>
            <!-- Arc -->
            <path d="M10841.2758,5452.4997 A0.4331,0.4331 0 0,1 10841.907,5452.8866" style="stroke:#000000;stroke-width:0;"/>
            <!-- Arc -->
            <path d="M10955.2677,5801.7748 A0.4331,0.4331 0 0,1 10954.9844,5802.4588" style="stroke:#000000;stroke-width:0;"/>
            <!-- Line -->
            <path d="M10898.5873,5627.3307 L10955.2677,5801.7748 " style="stroke:#000000;stroke-width:0;"/>
            <!-- Arc -->
            <path d="M10956.0259,5801.4586 A0.7251,0.7251 0 0,1 10955.3533,5802.4391" style="stroke:#000000;stroke-width:0;"/>
            <!-- Arc -->
            <path d="M10963.9333,5799.2978 A2.4177,2.4177 0 0,1 10961.3949,5802.0334" style="stroke:#000000;stroke-width:0;"/>
            <!-- Line -->
            <path d="M10907.1534,5624.5474 L10963.9333,5799.2978 " style="stroke:#000000;stroke-width:0;"/>
            <!-- Line -->
            <path d="M10899.3661,5627.0777 L10956.0464,5801.5218 " style="stroke:#000000;stroke-width:0;"/>
        </g>
    </g>
</svg>
