<?xml version="1.0" encoding="UTF-8"?>
<!-- 2026-03-10 13:15:31 Generated by QCAD 3.32.6 SVG Exporter -->
<svg  width="2700mm" height="2017.6001mm" viewBox="7.9792 -2023.9909 2700 2017.6001" version="1.1" xmlns="http://www.w3.org/2000/svg" style="stroke-linecap:round;stroke-linejoin:round;">
    <g transform="scale(1,-1)">
            <!-- Auto-generated fillable area -->
            <!-- Block Reference: 10 seater rectangular table / entities: 42 -->
        <g>
            <!-- Block Reference: A$C51F1 / entities: 31 -->
            <g>
                <!-- Polyline -->
                <path d="M544.671,2004.8062 A216.619,216.619 0 0 1 535.0873,1917.4204 A1180.69,1180.69 0 0 0 550.6607,1540.1908 A22.2032,22.2032 0 0 0 526.2356,1543.119 A12.0328,12.0328 0 0 1 517.092,1543.7818 A480.879,480.879 0 0 0 463.0245,1540.1908 L332.9792,1540.1908 L202.9339,1540.1908 A480.879,480.879 0 0 0 148.8664,1543.7818 A12.0328,12.0328 0 0 1 139.7228,1543.119 A22.2032,22.2032 0 0 0 115.2977,1540.1908 A1180.69,1180.69 0 0 0 130.8712,1917.4204 A216.619,216.619 0 0 1 121.2874,2004.8062 A12.6008,12.6008 0 0 0 132.0689,2023.9908 L533.8895,2023.9908 A12.6008,12.6008 0 0 0 544.671,2004.8062 Z" style="stroke:#000000;stroke-width:0.1;"/>
                <!-- Line -->
                <path d="M333.295,1916.8436 L226.51,1916.8436 " style="stroke:#000000;stroke-width:0.1;"/>
                <!-- Arc -->
                <path d="M155.5459,1911.9487 A1154.4088,1154.4088 0 0,1 140.319,1543.1148" style="stroke:#000000;stroke-width:0.1;"/>
                <!-- Arc -->
                <path d="M155.9335,1914.5406 A240.8687,240.8687 0 0,1 147.7343,2003.6532" style="stroke:#000000;stroke-width:0.1;"/>
                <!-- Line -->
                <path d="M333.295,1998.7246 L149.8736,1998.7246 " style="stroke:#000000;stroke-width:0.1;"/>
                <!-- Line -->
                <path d="M333.295,2006.9127 L149.5515,2006.9127 " style="stroke:#000000;stroke-width:0.1;"/>
                <!-- Arc -->
                <path d="M149.5515,2006.9127 A2.4177,2.4177 0 0,1 147.7343,2003.6532" style="stroke:#000000;stroke-width:0.1;"/>
                <!-- Arc -->
                <path d="M166.9461,1895.9402 A317.3163,317.3163 0 0,1 152.2178,1985.2787" style="stroke:#000000;stroke-width:0.1;"/>
                <!-- Arc -->
                <path d="M226.51,1916.8436 A97.8312,97.8312 0 0,1 149.0627,1877.6296" style="stroke:#000000;stroke-width:0.1;"/>
                <!-- Arc -->
                <path d="M149.94,1998.7246 A0.7251,0.7251 0 0,1 149.2154,1997.782" style="stroke:#000000;stroke-width:0.1;"/>
                <!-- Line -->
                <path d="M333.295,1997.9058 L149.8736,1997.9058 " style="stroke:#000000;stroke-width:0.1;"/>
                <!-- Arc -->
                <path d="M149.8736,1997.9058 A0.4331,0.4331 0 0,1 149.3106,1997.425" style="stroke:#000000;stroke-width:0.1;"/>
                <!-- Arc -->
                <path d="M149.4493,1543.7766 A12.0153,12.0153 0 0,1 140.319,1543.1148" style="stroke:#000000;stroke-width:0.1;"/>
                <!-- Line -->
                <path d="M149.4493,1543.7766 L147.6843,1563.1776 " style="stroke:#000000;stroke-width:0.1;"/>
                <!-- Line -->
                <path d="M147.6843,1563.1776 L138.542,1558.8502 " style="stroke:#000000;stroke-width:0.1;"/>
                <!-- Line -->
                <path d="M147.6843,1563.1776 L138.0916,1563.1776 " style="stroke:#000000;stroke-width:0.1;"/>
                <!-- Line -->
                <path d="M518.9058,1563.1776 L528.4985,1563.1776 " style="stroke:#000000;stroke-width:0.1;"/>
                <!-- Line -->
                <path d="M518.9058,1563.1776 L528.0481,1558.8502 " style="stroke:#000000;stroke-width:0.1;"/>
                <!-- Line -->
                <path d="M517.1407,1543.7766 L518.9058,1563.1776 " style="stroke:#000000;stroke-width:0.1;"/>
                <!-- Arc -->
                <path d="M526.271,1543.1148 A12.0153,12.0153 0 0,1 517.1407,1543.7766" style="stroke:#000000;stroke-width:0.1;"/>
                <!-- Arc -->
                <path d="M517.2794,1997.425 A0.4331,0.4331 0 0,1 516.7164,1997.9058" style="stroke:#000000;stroke-width:0.1;"/>
                <!-- Line -->
                <path d="M333.295,1997.9058 L516.7164,1997.9058 " style="stroke:#000000;stroke-width:0.1;"/>
                <!-- Arc -->
                <path d="M517.3747,1997.782 A0.7251,0.7251 0 0,1 516.65,1998.7246" style="stroke:#000000;stroke-width:0.1;"/>
                <!-- Arc -->
                <path d="M517.5273,1877.6296 A97.8312,97.8312 0 0,1 440.0801,1916.8436" style="stroke:#000000;stroke-width:0.1;"/>
                <!-- Arc -->
                <path d="M514.3723,1985.2787 A317.3163,317.3163 0 0,1 499.6439,1895.9402" style="stroke:#000000;stroke-width:0.1;"/>
                <!-- Arc -->
                <path d="M518.8557,2003.6532 A2.4177,2.4177 0 0,1 517.0385,2006.9127" style="stroke:#000000;stroke-width:0.1;"/>
                <!-- Line -->
                <path d="M333.295,2006.9127 L517.0385,2006.9127 " style="stroke:#000000;stroke-width:0.1;"/>
                <!-- Line -->
                <path d="M333.295,1998.7246 L516.7164,1998.7246 " style="stroke:#000000;stroke-width:0.1;"/>
                <!-- Arc -->
                <path d="M518.8557,2003.6532 A240.8687,240.8687 0 0,1 510.6565,1914.5406" style="stroke:#000000;stroke-width:0.1;"/>
                <!-- Arc -->
                <path d="M526.271,1543.1148 A1154.4088,1154.4088 0 0,1 511.0442,1911.9487" style="stroke:#000000;stroke-width:0.1;"/>
                <!-- Line -->
                <path d="M333.295,1916.8436 L440.0801,1916.8436 " style="stroke:#000000;stroke-width:0.1;"/>
            </g>
            <!-- Polyline -->
            <path d="M7.9792,515.1908 L2707.9792,515.1908 L2707.9792,1515.1908 L7.9792,1515.1908 Z" style="stroke:#000000;stroke-width:0.1;"/>
            <!-- Polyline -->
            <path d="M27.9792,535.1908 L2687.9792,535.1908 L2687.9792,1495.1908 L27.9792,1495.1908 Z" style="stroke:#000000;stroke-width:0.1;"/>
            <!-- Block Reference: A$C51F1 / entities: 31 -->
            <g>
                <!-- Polyline -->
                <path d="M544.671,25.5755 A0.216619,0.216619 0 0 0 535.0873,112.9613 A1.18069,1.18069 0 0 1 550.6607,490.1908 A0.0222032,0.0222032 0 0 1 526.2356,487.2626 A0.0120328,0.0120328 0 0 0 517.092,486.5999 A0.480879,0.480879 0 0 1 463.0245,490.1908 L332.9792,490.1908 L202.9339,490.1908 A0.480879,0.480879 0 0 1 148.8664,486.5999 A0.0120328,0.0120328 0 0 0 139.7228,487.2626 A0.0222032,0.0222032 0 0 1 115.2977,490.1908 A1.18069,1.18069 0 0 1 130.8712,112.9613 A0.216619,0.216619 0 0 0 121.2874,25.5755 A0.0126008,0.0126008 0 0 1 132.0689,6.3908 L533.8895,6.3908 A0.0126008,0.0126008 0 0 1 544.671,25.5755 Z" style="stroke:#000000;stroke-width:0.1;"/>
                <!-- Line -->
                <path d="M333.295,113.5381 L226.51,113.5381 " style="stroke:#000000;stroke-width:0.1;"/>
                <!-- Arc -->
                <path d="M155.5459,118.433 A1154.4088,1154.4088 0 0,0 140.319,487.2669" style="stroke:#000000;stroke-width:0.1;"/>
                <!-- Arc -->
                <path d="M155.9335,115.8411 A240.8687,240.8687 0 0,0 147.7343,26.7285" style="stroke:#000000;stroke-width:0.1;"/>
                <!-- Line -->
                <path d="M333.295,31.6571 L149.8736,31.6571 " style="stroke:#000000;stroke-width:0.1;"/>
                <!-- Line -->
                <path d="M333.295,23.469 L149.5515,23.469 " style="stroke:#000000;stroke-width:0.1;"/>
                <!-- Arc -->
                <path d="M149.5515,23.469 A2.4177,2.4177 0 0,0 147.7343,26.7285" style="stroke:#000000;stroke-width:0.1;"/>
                <!-- Arc -->
                <path d="M166.9461,134.4415 A317.3163,317.3163 0 0,0 152.2178,45.103" style="stroke:#000000;stroke-width:0.1;"/>
                <!-- Arc -->
                <path d="M226.51,113.5381 A97.8312,97.8312 0 0,0 149.0627,152.7521" style="stroke:#000000;stroke-width:0.1;"/>
                <!-- Arc -->
                <path d="M149.94,31.6571 A0.7251,0.7251 0 0,0 149.2154,32.5997" style="stroke:#000000;stroke-width:0.1;"/>
                <!-- Line -->
                <path d="M333.295,32.4759 L149.8736,32.4759 " style="stroke:#000000;stroke-width:0.1;"/>
                <!-- Arc -->
                <path d="M149.8736,32.4759 A0.4331,0.4331 0 0,0 149.3106,32.9566" style="stroke:#000000;stroke-width:0.1;"/>
                <!-- Arc -->
                <path d="M149.4493,486.6051 A12.0153,12.0153 0 0,0 140.319,487.2669" style="stroke:#000000;stroke-width:0.1;"/>
                <!-- Line -->
                <path d="M149.4493,486.6051 L147.6843,467.204 " style="stroke:#000000;stroke-width:0.1;"/>
                <!-- Line -->
                <path d="M147.6843,467.204 L138.542,471.5315 " style="stroke:#000000;stroke-width:0.1;"/>
                <!-- Line -->
                <path d="M147.6843,467.204 L138.0916,467.204 " style="stroke:#000000;stroke-width:0.1;"/>
                <!-- Line -->
                <path d="M518.9058,467.204 L528.4985,467.204 " style="stroke:#000000;stroke-width:0.1;"/>
                <!-- Line -->
                <path d="M518.9058,467.204 L528.0481,471.5315 " style="stroke:#000000;stroke-width:0.1;"/>
                <!-- Line -->
                <path d="M517.1407,486.6051 L518.9058,467.204 " style="stroke:#000000;stroke-width:0.1;"/>
                <!-- Arc -->
                <path d="M526.271,487.2669 A12.0153,12.0153 0 0,0 517.1407,486.6051" style="stroke:#000000;stroke-width:0.1;"/>
                <!-- Arc -->
                <path d="M517.2794,32.9566 A0.4331,0.4331 0 0,0 516.7164,32.4759" style="stroke:#000000;stroke-width:0.1;"/>
                <!-- Line -->
                <path d="M333.295,32.4759 L516.7164,32.4759 " style="stroke:#000000;stroke-width:0.1;"/>
                <!-- Arc -->
                <path d="M517.3747,32.5997 A0.7251,0.7251 0 0,0 516.65,31.6571" style="stroke:#000000;stroke-width:0.1;"/>
                <!-- Arc -->
                <path d="M517.5273,152.7521 A97.8312,97.8312 0 0,0 440.0801,113.5381" style="stroke:#000000;stroke-width:0.1;"/>
                <!-- Arc -->
                <path d="M514.3723,45.103 A317.3163,317.3163 0 0,0 499.6439,134.4415" style="stroke:#000000;stroke-width:0.1;"/>
                <!-- Arc -->
                <path d="M518.8557,26.7285 A2.4177,2.4177 0 0,0 517.0385,23.469" style="stroke:#000000;stroke-width:0.1;"/>
                <!-- Line -->
                <path d="M333.295,23.469 L517.0385,23.469 " style="stroke:#000000;stroke-width:0.1;"/>
                <!-- Line -->
                <path d="M333.295,31.6571 L516.7164,31.6571 " style="stroke:#000000;stroke-width:0.1;"/>
                <!-- Arc -->
                <path d="M518.8557,26.7285 A240.8687,240.8687 0 0,0 510.6565,115.8411" style="stroke:#000000;stroke-width:0.1;"/>
                <!-- Arc -->
                <path d="M526.271,487.2669 A1154.4088,1154.4088 0 0,0 511.0442,118.433" style="stroke:#000000;stroke-width:0.1;"/>
                <!-- Line -->
                <path d="M333.295,113.5381 L440.0801,113.5381 " style="stroke:#000000;stroke-width:0.1;"/>
            </g>
            <!-- Line -->
            <path d="M2568.2741,467.204 L2577.8669,467.204 " style="stroke:#000000;stroke-width:0.1;"/>
            <!-- Line -->
            <path d="M2568.2741,467.204 L2577.4164,471.5315 " style="stroke:#000000;stroke-width:0.1;"/>
            <!-- Line -->
            <path d="M2566.5091,486.6051 L2568.2741,467.204 " style="stroke:#000000;stroke-width:0.1;"/>
            <!-- Arc -->
            <path d="M2566.5091,486.6051 A12.0153,12.0153 0 0,1 2575.6394,487.2669" style="stroke:#000000;stroke-width:0.1;"/>
            <!-- Block Reference: A$C51F1 / entities: 31 -->
            <g>
                <!-- Polyline -->
                <path d="M1569.671,2004.8062 A216.619,216.619 0 0 1 1560.0873,1917.4204 A1180.69,1180.69 0 0 0 1575.6607,1540.1908 A22.2032,22.2032 0 0 0 1551.2356,1543.119 A12.0328,12.0328 0 0 1 1542.092,1543.7818 A480.879,480.879 0 0 0 1488.0245,1540.1908 L1357.9792,1540.1908 L1227.9339,1540.1908 A480.879,480.879 0 0 0 1173.8664,1543.7818 A12.0328,12.0328 0 0 1 1164.7228,1543.119 A22.2032,22.2032 0 0 0 1140.2977,1540.1908 A1180.69,1180.69 0 0 0 1155.8712,1917.4204 A216.619,216.619 0 0 1 1146.2874,2004.8062 A12.6008,12.6008 0 0 0 1157.0689,2023.9908 L1558.8895,2023.9908 A12.6008,12.6008 0 0 0 1569.671,2004.8062 Z" style="stroke:#000000;stroke-width:0.1;"/>
                <!-- Line -->
                <path d="M1358.295,1916.8436 L1251.51,1916.8436 " style="stroke:#000000;stroke-width:0.1;"/>
                <!-- Arc -->
                <path d="M1180.5459,1911.9487 A1154.4088,1154.4088 0 0,1 1165.319,1543.1148" style="stroke:#000000;stroke-width:0.1;"/>
                <!-- Arc -->
                <path d="M1180.9335,1914.5406 A240.8687,240.8687 0 0,1 1172.7343,2003.6532" style="stroke:#000000;stroke-width:0.1;"/>
                <!-- Line -->
                <path d="M1358.295,1998.7246 L1174.8736,1998.7246 " style="stroke:#000000;stroke-width:0.1;"/>
                <!-- Line -->
                <path d="M1358.295,2006.9127 L1174.5515,2006.9127 " style="stroke:#000000;stroke-width:0.1;"/>
                <!-- Arc -->
                <path d="M1174.5515,2006.9127 A2.4177,2.4177 0 0,1 1172.7343,2003.6532" style="stroke:#000000;stroke-width:0.1;"/>
                <!-- Arc -->
                <path d="M1191.9461,1895.9402 A317.3163,317.3163 0 0,1 1177.2178,1985.2787" style="stroke:#000000;stroke-width:0.1;"/>
                <!-- Arc -->
                <path d="M1251.51,1916.8436 A97.8312,97.8312 0 0,1 1174.0627,1877.6296" style="stroke:#000000;stroke-width:0.1;"/>
                <!-- Arc -->
                <path d="M1174.94,1998.7246 A0.7251,0.7251 0 0,1 1174.2154,1997.782" style="stroke:#000000;stroke-width:0.1;"/>
                <!-- Line -->
                <path d="M1358.295,1997.9058 L1174.8736,1997.9058 " style="stroke:#000000;stroke-width:0.1;"/>
                <!-- Arc -->
                <path d="M1174.8736,1997.9058 A0.4331,0.4331 0 0,1 1174.3106,1997.425" style="stroke:#000000;stroke-width:0.1;"/>
                <!-- Arc -->
                <path d="M1174.4493,1543.7766 A12.0153,12.0153 0 0,1 1165.319,1543.1148" style="stroke:#000000;stroke-width:0.1;"/>
                <!-- Line -->
                <path d="M1174.4493,1543.7766 L1172.6843,1563.1776 " style="stroke:#000000;stroke-width:0.1;"/>
                <!-- Line -->
                <path d="M1172.6843,1563.1776 L1163.542,1558.8502 " style="stroke:#000000;stroke-width:0.1;"/>
                <!-- Line -->
                <path d="M1172.6843,1563.1776 L1163.0916,1563.1776 " style="stroke:#000000;stroke-width:0.1;"/>
                <!-- Line -->
                <path d="M1543.9058,1563.1776 L1553.4985,1563.1776 " style="stroke:#000000;stroke-width:0.1;"/>
                <!-- Line -->
                <path d="M1543.9058,1563.1776 L1553.0481,1558.8502 " style="stroke:#000000;stroke-width:0.1;"/>
                <!-- Line -->
                <path d="M1542.1407,1543.7766 L1543.9058,1563.1776 " style="stroke:#000000;stroke-width:0.1;"/>
                <!-- Arc -->
                <path d="M1551.271,1543.1148 A12.0153,12.0153 0 0,1 1542.1407,1543.7766" style="stroke:#000000;stroke-width:0.1;"/>
                <!-- Arc -->
                <path d="M1542.2794,1997.425 A0.4331,0.4331 0 0,1 1541.7164,1997.9058" style="stroke:#000000;stroke-width:0.1;"/>
                <!-- Line -->
                <path d="M1358.295,1997.9058 L1541.7164,1997.9058 " style="stroke:#000000;stroke-width:0.1;"/>
                <!-- Arc -->
                <path d="M1542.3747,1997.782 A0.7251,0.7251 0 0,1 1541.65,1998.7246" style="stroke:#000000;stroke-width:0.1;"/>
                <!-- Arc -->
                <path d="M1542.5273,1877.6296 A97.8312,97.8312 0 0,1 1465.0801,1916.8436" style="stroke:#000000;stroke-width:0.1;"/>
                <!-- Arc -->
                <path d="M1539.3723,1985.2787 A317.3163,317.3163 0 0,1 1524.6439,1895.9402" style="stroke:#000000;stroke-width:0.1;"/>
                <!-- Arc -->
                <path d="M1543.8557,2003.6532 A2.4177,2.4177 0 0,1 1542.0385,2006.9127" style="stroke:#000000;stroke-width:0.1;"/>
                <!-- Line -->
                <path d="M1358.295,2006.9127 L1542.0385,2006.9127 " style="stroke:#000000;stroke-width:0.1;"/>
                <!-- Line -->
                <path d="M1358.295,1998.7246 L1541.7164,1998.7246 " style="stroke:#000000;stroke-width:0.1;"/>
                <!-- Arc -->
                <path d="M1543.8557,2003.6532 A240.8687,240.8687 0 0,1 1535.6565,1914.5406" style="stroke:#000000;stroke-width:0.1;"/>
                <!-- Arc -->
                <path d="M1551.271,1543.1148 A1154.4088,1154.4088 0 0,1 1536.0442,1911.9487" style="stroke:#000000;stroke-width:0.1;"/>
                <!-- Line -->
                <path d="M1358.295,1916.8436 L1465.0801,1916.8436 " style="stroke:#000000;stroke-width:0.1;"/>
            </g>
            <!-- Block Reference: A$C51F1 / entities: 31 -->
            <g>
                <!-- Polyline -->
                <path d="M1658.7874,2004.8062 A0.216619,0.216619 0 0 0 1668.3712,1917.4204 A1.18069,1.18069 0 0 1 1652.7977,1540.1908 A0.0222032,0.0222032 0 0 1 1677.2228,1543.119 A0.0120328,0.0120328 0 0 0 1686.3664,1543.7818 A0.480879,0.480879 0 0 1 1740.4339,1540.1908 L1870.4792,1540.1908 L2000.5245,1540.1908 A0.480879,0.480879 0 0 1 2054.592,1543.7818 A0.0120328,0.0120328 0 0 0 2063.7356,1543.119 A0.0222032,0.0222032 0 0 1 2088.1607,1540.1908 A1.18069,1.18069 0 0 1 2072.5873,1917.4204 A0.216619,0.216619 0 0 0 2082.171,2004.8062 A0.0126008,0.0126008 0 0 1 2071.3895,2023.9908 L1669.5689,2023.9908 A0.0126008,0.0126008 0 0 1 1658.7874,2004.8062 Z" style="stroke:#000000;stroke-width:0.1;"/>
                <!-- Line -->
                <path d="M1870.1634,1916.8436 L1976.9484,1916.8436 " style="stroke:#000000;stroke-width:0.1;"/>
                <!-- Arc -->
                <path d="M2047.9126,1911.9487 A1154.4088,1154.4088 0 0,0 2063.1394,1543.1148" style="stroke:#000000;stroke-width:0.1;"/>
                <!-- Arc -->
                <path d="M2047.5249,1914.5406 A240.8687,240.8687 0 0,0 2055.7241,2003.6532" style="stroke:#000000;stroke-width:0.1;"/>
                <!-- Line -->
                <path d="M1870.1634,1998.7246 L2053.5848,1998.7246 " style="stroke:#000000;stroke-width:0.1;"/>
                <!-- Line -->
                <path d="M1870.1634,2006.9127 L2053.9069,2006.9127 " style="stroke:#000000;stroke-width:0.1;"/>
                <!-- Arc -->
                <path d="M2053.9069,2006.9127 A2.4177,2.4177 0 0,0 2055.7241,2003.6532" style="stroke:#000000;stroke-width:0.1;"/>
                <!-- Arc -->
                <path d="M2036.5123,1895.9402 A317.3163,317.3163 0 0,0 2051.2406,1985.2787" style="stroke:#000000;stroke-width:0.1;"/>
                <!-- Arc -->
                <path d="M1976.9484,1916.8436 A97.8312,97.8312 0 0,0 2054.3957,1877.6296" style="stroke:#000000;stroke-width:0.1;"/>
                <!-- Arc -->
                <path d="M2053.5184,1998.7246 A0.7251,0.7251 0 0,0 2054.243,1997.782" style="stroke:#000000;stroke-width:0.1;"/>
                <!-- Line -->
                <path d="M1870.1634,1997.9058 L2053.5848,1997.9058 " style="stroke:#000000;stroke-width:0.1;"/>
                <!-- Arc -->
                <path d="M2053.5848,1997.9058 A0.4331,0.4331 0 0,0 2054.1478,1997.425" style="stroke:#000000;stroke-width:0.1;"/>
                <!-- Arc -->
                <path d="M2054.0091,1543.7766 A12.0153,12.0153 0 0,0 2063.1394,1543.1148" style="stroke:#000000;stroke-width:0.1;"/>
                <!-- Line -->
                <path d="M2054.0091,1543.7766 L2055.7741,1563.1776 " style="stroke:#000000;stroke-width:0.1;"/>
                <!-- Line -->
                <path d="M2055.7741,1563.1776 L2064.9164,1558.8502 " style="stroke:#000000;stroke-width:0.1;"/>
                <!-- Line -->
                <path d="M2055.7741,1563.1776 L2065.3669,1563.1776 " style="stroke:#000000;stroke-width:0.1;"/>
                <!-- Line -->
                <path d="M1684.5526,1563.1776 L1674.9599,1563.1776 " style="stroke:#000000;stroke-width:0.1;"/>
                <!-- Line -->
                <path d="M1684.5526,1563.1776 L1675.4103,1558.8502 " style="stroke:#000000;stroke-width:0.1;"/>
                <!-- Line -->
                <path d="M1686.3177,1543.7766 L1684.5526,1563.1776 " style="stroke:#000000;stroke-width:0.1;"/>
                <!-- Arc -->
                <path d="M1677.1874,1543.1148 A12.0153,12.0153 0 0,0 1686.3177,1543.7766" style="stroke:#000000;stroke-width:0.1;"/>
                <!-- Arc -->
                <path d="M1686.179,1997.425 A0.4331,0.4331 0 0,0 1686.742,1997.9058" style="stroke:#000000;stroke-width:0.1;"/>
                <!-- Line -->
                <path d="M1870.1634,1997.9058 L1686.742,1997.9058 " style="stroke:#000000;stroke-width:0.1;"/>
                <!-- Arc -->
                <path d="M1686.0837,1997.782 A0.7251,0.7251 0 0,0 1686.8084,1998.7246" style="stroke:#000000;stroke-width:0.1;"/>
                <!-- Arc -->
                <path d="M1685.9311,1877.6296 A97.8312,97.8312 0 0,0 1763.3783,1916.8436" style="stroke:#000000;stroke-width:0.1;"/>
                <!-- Arc -->
                <path d="M1689.0861,1985.2787 A317.3163,317.3163 0 0,0 1703.8145,1895.9402" style="stroke:#000000;stroke-width:0.1;"/>
                <!-- Arc -->
                <path d="M1684.6027,2003.6532 A2.4177,2.4177 0 0,0 1686.4199,2006.9127" style="stroke:#000000;stroke-width:0.1;"/>
                <!-- Line -->
                <path d="M1870.1634,2006.9127 L1686.4199,2006.9127 " style="stroke:#000000;stroke-width:0.1;"/>
                <!-- Line -->
                <path d="M1870.1634,1998.7246 L1686.742,1998.7246 " style="stroke:#000000;stroke-width:0.1;"/>
                <!-- Arc -->
                <path d="M1684.6027,2003.6532 A240.8687,240.8687 0 0,0 1692.8019,1914.5406" style="stroke:#000000;stroke-width:0.1;"/>
                <!-- Arc -->
                <path d="M1677.1874,1543.1148 A1154.4088,1154.4088 0 0,0 1692.4142,1911.9487" style="stroke:#000000;stroke-width:0.1;"/>
                <!-- Line -->
                <path d="M1870.1634,1916.8436 L1763.3783,1916.8436 " style="stroke:#000000;stroke-width:0.1;"/>
            </g>
            <!-- Arc -->
            <path d="M2189.6874,487.2669 A12.0153,12.0153 0 0,1 2198.8177,486.6051" style="stroke:#000000;stroke-width:0.1;"/>
            <!-- Line -->
            <path d="M2198.8177,486.6051 L2197.0526,467.204 " style="stroke:#000000;stroke-width:0.1;"/>
            <!-- Line -->
            <path d="M2197.0526,467.204 L2187.9103,471.5315 " style="stroke:#000000;stroke-width:0.1;"/>
            <!-- Line -->
            <path d="M2197.0526,467.204 L2187.4599,467.204 " style="stroke:#000000;stroke-width:0.1;"/>
            <!-- Block Reference: A$C51F1 / entities: 31 -->
            <g>
                <!-- Polyline -->
                <path d="M1057.171,2004.8062 A216.619,216.619 0 0 1 1047.5873,1917.4204 A1180.69,1180.69 0 0 0 1063.1607,1540.1908 A22.2032,22.2032 0 0 0 1038.7356,1543.119 A12.0328,12.0328 0 0 1 1029.592,1543.7818 A480.879,480.879 0 0 0 975.5245,1540.1908 L845.4792,1540.1908 L715.4339,1540.1908 A480.879,480.879 0 0 0 661.3664,1543.7818 A12.0328,12.0328 0 0 1 652.2228,1543.119 A22.2032,22.2032 0 0 0 627.7977,1540.1908 A1180.69,1180.69 0 0 0 643.3712,1917.4204 A216.619,216.619 0 0 1 633.7874,2004.8062 A12.6008,12.6008 0 0 0 644.5689,2023.9908 L1046.3895,2023.9908 A12.6008,12.6008 0 0 0 1057.171,2004.8062 Z" style="stroke:#000000;stroke-width:0.1;"/>
                <!-- Line -->
                <path d="M845.795,1916.8436 L739.01,1916.8436 " style="stroke:#000000;stroke-width:0.1;"/>
                <!-- Arc -->
                <path d="M668.0459,1911.9487 A1154.4088,1154.4088 0 0,1 652.819,1543.1148" style="stroke:#000000;stroke-width:0.1;"/>
                <!-- Arc -->
                <path d="M668.4335,1914.5406 A240.8687,240.8687 0 0,1 660.2343,2003.6532" style="stroke:#000000;stroke-width:0.1;"/>
                <!-- Line -->
                <path d="M845.795,1998.7246 L662.3736,1998.7246 " style="stroke:#000000;stroke-width:0.1;"/>
                <!-- Line -->
                <path d="M845.795,2006.9127 L662.0515,2006.9127 " style="stroke:#000000;stroke-width:0.1;"/>
                <!-- Arc -->
                <path d="M662.0515,2006.9127 A2.4177,2.4177 0 0,1 660.2343,2003.6532" style="stroke:#000000;stroke-width:0.1;"/>
                <!-- Arc -->
                <path d="M679.4461,1895.9402 A317.3163,317.3163 0 0,1 664.7178,1985.2787" style="stroke:#000000;stroke-width:0.1;"/>
                <!-- Arc -->
                <path d="M739.01,1916.8436 A97.8312,97.8312 0 0,1 661.5627,1877.6296" style="stroke:#000000;stroke-width:0.1;"/>
                <!-- Arc -->
                <path d="M662.44,1998.7246 A0.7251,0.7251 0 0,1 661.7154,1997.782" style="stroke:#000000;stroke-width:0.1;"/>
                <!-- Line -->
                <path d="M845.795,1997.9058 L662.3736,1997.9058 " style="stroke:#000000;stroke-width:0.1;"/>
                <!-- Arc -->
                <path d="M662.3736,1997.9058 A0.4331,0.4331 0 0,1 661.8106,1997.425" style="stroke:#000000;stroke-width:0.1;"/>
                <!-- Arc -->
                <path d="M661.9493,1543.7766 A12.0153,12.0153 0 0,1 652.819,1543.1148" style="stroke:#000000;stroke-width:0.1;"/>
                <!-- Line -->
                <path d="M661.9493,1543.7766 L660.1843,1563.1776 " style="stroke:#000000;stroke-width:0.1;"/>
                <!-- Line -->
                <path d="M660.1843,1563.1776 L651.042,1558.8502 " style="stroke:#000000;stroke-width:0.1;"/>
                <!-- Line -->
                <path d="M660.1843,1563.1776 L650.5916,1563.1776 " style="stroke:#000000;stroke-width:0.1;"/>
                <!-- Line -->
                <path d="M1031.4058,1563.1776 L1040.9985,1563.1776 " style="stroke:#000000;stroke-width:0.1;"/>
                <!-- Line -->
                <path d="M1031.4058,1563.1776 L1040.5481,1558.8502 " style="stroke:#000000;stroke-width:0.1;"/>
                <!-- Line -->
                <path d="M1029.6407,1543.7766 L1031.4058,1563.1776 " style="stroke:#000000;stroke-width:0.1;"/>
                <!-- Arc -->
                <path d="M1038.771,1543.1148 A12.0153,12.0153 0 0,1 1029.6407,1543.7766" style="stroke:#000000;stroke-width:0.1;"/>
                <!-- Arc -->
                <path d="M1029.7794,1997.425 A0.4331,0.4331 0 0,1 1029.2164,1997.9058" style="stroke:#000000;stroke-width:0.1;"/>
                <!-- Line -->
                <path d="M845.795,1997.9058 L1029.2164,1997.9058 " style="stroke:#000000;stroke-width:0.1;"/>
                <!-- Arc -->
                <path d="M1029.8747,1997.782 A0.7251,0.7251 0 0,1 1029.15,1998.7246" style="stroke:#000000;stroke-width:0.1;"/>
                <!-- Arc -->
                <path d="M1030.0273,1877.6296 A97.8312,97.8312 0 0,1 952.5801,1916.8436" style="stroke:#000000;stroke-width:0.1;"/>
                <!-- Arc -->
                <path d="M1026.8723,1985.2787 A317.3163,317.3163 0 0,1 1012.1439,1895.9402" style="stroke:#000000;stroke-width:0.1;"/>
                <!-- Arc -->
                <path d="M1031.3557,2003.6532 A2.4177,2.4177 0 0,1 1029.5385,2006.9127" style="stroke:#000000;stroke-width:0.1;"/>
                <!-- Line -->
                <path d="M845.795,2006.9127 L1029.5385,2006.9127 " style="stroke:#000000;stroke-width:0.1;"/>
                <!-- Line -->
                <path d="M845.795,1998.7246 L1029.2164,1998.7246 " style="stroke:#000000;stroke-width:0.1;"/>
                <!-- Arc -->
                <path d="M1031.3557,2003.6532 A240.8687,240.8687 0 0,1 1023.1565,1914.5406" style="stroke:#000000;stroke-width:0.1;"/>
                <!-- Arc -->
                <path d="M1038.771,1543.1148 A1154.4088,1154.4088 0 0,1 1023.5442,1911.9487" style="stroke:#000000;stroke-width:0.1;"/>
                <!-- Line -->
                <path d="M845.795,1916.8436 L952.5801,1916.8436 " style="stroke:#000000;stroke-width:0.1;"/>
            </g>
            <!-- Block Reference: A$C51F1 / entities: 31 -->
            <g>
                <!-- Polyline -->
                <path d="M2171.2874,2004.8062 A0.216619,0.216619 0 0 0 2180.8712,1917.4204 A1.18069,1.18069 0 0 1 2165.2977,1540.1908 A0.0222032,0.0222032 0 0 1 2189.7228,1543.119 A0.0120328,0.0120328 0 0 0 2198.8664,1543.7818 A0.480879,0.480879 0 0 1 2252.9339,1540.1908 L2382.9792,1540.1908 L2513.0245,1540.1908 A0.480879,0.480879 0 0 1 2567.092,1543.7818 A0.0120328,0.0120328 0 0 0 2576.2356,1543.119 A0.0222032,0.0222032 0 0 1 2600.6607,1540.1908 A1.18069,1.18069 0 0 1 2585.0873,1917.4204 A0.216619,0.216619 0 0 0 2594.671,2004.8062 A0.0126008,0.0126008 0 0 1 2583.8895,2023.9908 L2182.0689,2023.9908 A0.0126008,0.0126008 0 0 1 2171.2874,2004.8062 Z" style="stroke:#000000;stroke-width:0.1;"/>
                <!-- Line -->
                <path d="M2382.6634,1916.8436 L2489.4484,1916.8436 " style="stroke:#000000;stroke-width:0.1;"/>
                <!-- Arc -->
                <path d="M2560.4126,1911.9487 A1154.4088,1154.4088 0 0,0 2575.6394,1543.1148" style="stroke:#000000;stroke-width:0.1;"/>
                <!-- Arc -->
                <path d="M2560.0249,1914.5406 A240.8687,240.8687 0 0,0 2568.2241,2003.6532" style="stroke:#000000;stroke-width:0.1;"/>
                <!-- Line -->
                <path d="M2382.6634,1998.7246 L2566.0848,1998.7246 " style="stroke:#000000;stroke-width:0.1;"/>
                <!-- Line -->
                <path d="M2382.6634,2006.9127 L2566.4069,2006.9127 " style="stroke:#000000;stroke-width:0.1;"/>
                <!-- Arc -->
                <path d="M2566.4069,2006.9127 A2.4177,2.4177 0 0,0 2568.2241,2003.6532" style="stroke:#000000;stroke-width:0.1;"/>
                <!-- Arc -->
                <path d="M2549.0123,1895.9402 A317.3163,317.3163 0 0,0 2563.7406,1985.2787" style="stroke:#000000;stroke-width:0.1;"/>
                <!-- Arc -->
                <path d="M2489.4484,1916.8436 A97.8312,97.8312 0 0,0 2566.8957,1877.6296" style="stroke:#000000;stroke-width:0.1;"/>
                <!-- Arc -->
                <path d="M2566.0184,1998.7246 A0.7251,0.7251 0 0,0 2566.743,1997.782" style="stroke:#000000;stroke-width:0.1;"/>
                <!-- Line -->
                <path d="M2382.6634,1997.9058 L2566.0848,1997.9058 " style="stroke:#000000;stroke-width:0.1;"/>
                <!-- Arc -->
                <path d="M2566.0848,1997.9058 A0.4331,0.4331 0 0,0 2566.6478,1997.425" style="stroke:#000000;stroke-width:0.1;"/>
                <!-- Arc -->
                <path d="M2566.5091,1543.7766 A12.0153,12.0153 0 0,0 2575.6394,1543.1148" style="stroke:#000000;stroke-width:0.1;"/>
                <!-- Line -->
                <path d="M2566.5091,1543.7766 L2568.2741,1563.1776 " style="stroke:#000000;stroke-width:0.1;"/>
                <!-- Line -->
                <path d="M2568.2741,1563.1776 L2577.4164,1558.8502 " style="stroke:#000000;stroke-width:0.1;"/>
                <!-- Line -->
                <path d="M2568.2741,1563.1776 L2577.8669,1563.1776 " style="stroke:#000000;stroke-width:0.1;"/>
                <!-- Line -->
                <path d="M2197.0526,1563.1776 L2187.4599,1563.1776 " style="stroke:#000000;stroke-width:0.1;"/>
                <!-- Line -->
                <path d="M2197.0526,1563.1776 L2187.9103,1558.8502 " style="stroke:#000000;stroke-width:0.1;"/>
                <!-- Line -->
                <path d="M2198.8177,1543.7766 L2197.0526,1563.1776 " style="stroke:#000000;stroke-width:0.1;"/>
                <!-- Arc -->
                <path d="M2189.6874,1543.1148 A12.0153,12.0153 0 0,0 2198.8177,1543.7766" style="stroke:#000000;stroke-width:0.1;"/>
                <!-- Arc -->
                <path d="M2198.679,1997.425 A0.4331,0.4331 0 0,0 2199.242,1997.9058" style="stroke:#000000;stroke-width:0.1;"/>
                <!-- Line -->
                <path d="M2382.6634,1997.9058 L2199.242,1997.9058 " style="stroke:#000000;stroke-width:0.1;"/>
                <!-- Arc -->
                <path d="M2198.5837,1997.782 A0.7251,0.7251 0 0,0 2199.3084,1998.7246" style="stroke:#000000;stroke-width:0.1;"/>
                <!-- Arc -->
                <path d="M2198.4311,1877.6296 A97.8312,97.8312 0 0,0 2275.8783,1916.8436" style="stroke:#000000;stroke-width:0.1;"/>
                <!-- Arc -->
                <path d="M2201.5861,1985.2787 A317.3163,317.3163 0 0,0 2216.3145,1895.9402" style="stroke:#000000;stroke-width:0.1;"/>
                <!-- Arc -->
                <path d="M2197.1027,2003.6532 A2.4177,2.4177 0 0,0 2198.9199,2006.9127" style="stroke:#000000;stroke-width:0.1;"/>
                <!-- Line -->
                <path d="M2382.6634,2006.9127 L2198.9199,2006.9127 " style="stroke:#000000;stroke-width:0.1;"/>
                <!-- Line -->
                <path d="M2382.6634,1998.7246 L2199.242,1998.7246 " style="stroke:#000000;stroke-width:0.1;"/>
                <!-- Arc -->
                <path d="M2197.1027,2003.6532 A240.8687,240.8687 0 0,0 2205.3019,1914.5406" style="stroke:#000000;stroke-width:0.1;"/>
                <!-- Arc -->
                <path d="M2189.6874,1543.1148 A1154.4088,1154.4088 0 0,0 2204.9142,1911.9487" style="stroke:#000000;stroke-width:0.1;"/>
                <!-- Line -->
                <path d="M2382.6634,1916.8436 L2275.8783,1916.8436 " style="stroke:#000000;stroke-width:0.1;"/>
            </g>
            <!-- Arc -->
            <path d="M2489.4484,113.5381 A97.8312,97.8312 0 0,1 2566.8957,152.7521" style="stroke:#000000;stroke-width:0.1;"/>
            <!-- Arc -->
            <path d="M2566.0848,32.4759 A0.4331,0.4331 0 0,1 2566.6478,32.9566" style="stroke:#000000;stroke-width:0.1;"/>
            <!-- Arc -->
            <path d="M2566.0184,31.6571 A0.7251,0.7251 0 0,1 2566.743,32.5997" style="stroke:#000000;stroke-width:0.1;"/>
            <!-- Arc -->
            <path d="M2566.4069,23.469 A2.4177,2.4177 0 0,1 2568.2241,26.7285" style="stroke:#000000;stroke-width:0.1;"/>
            <!-- Arc -->
            <path d="M2549.0123,134.4415 A317.3163,317.3163 0 0,1 2563.7406,45.103" style="stroke:#000000;stroke-width:0.1;"/>
            <!-- Arc -->
            <path d="M2560.0249,115.8411 A240.8687,240.8687 0 0,1 2568.2241,26.7285" style="stroke:#000000;stroke-width:0.1;"/>
            <!-- Line -->
            <path d="M2382.6634,113.5381 L2275.8783,113.5381 " style="stroke:#000000;stroke-width:0.1;"/>
            <!-- Arc -->
            <path d="M2198.4311,152.7521 A97.8312,97.8312 0 0,1 2275.8783,113.5381" style="stroke:#000000;stroke-width:0.1;"/>
            <!-- Line -->
            <path d="M2382.6634,31.6571 L2199.242,31.6571 " style="stroke:#000000;stroke-width:0.1;"/>
            <!-- Line -->
            <path d="M2382.6634,23.469 L2198.9199,23.469 " style="stroke:#000000;stroke-width:0.1;"/>
            <!-- Arc -->
            <path d="M2197.1027,26.7285 A2.4177,2.4177 0 0,1 2198.9199,23.469" style="stroke:#000000;stroke-width:0.1;"/>
            <!-- Arc -->
            <path d="M2198.5837,32.5997 A0.7251,0.7251 0 0,1 2199.3084,31.6571" style="stroke:#000000;stroke-width:0.1;"/>
            <!-- Line -->
            <path d="M2382.6634,32.4759 L2199.242,32.4759 " style="stroke:#000000;stroke-width:0.1;"/>
            <!-- Arc -->
            <path d="M2198.679,32.9566 A0.4331,0.4331 0 0,1 2199.242,32.4759" style="stroke:#000000;stroke-width:0.1;"/>
            <!-- Arc -->
            <path d="M2197.1027,26.7285 A240.8687,240.8687 0 0,1 2205.3019,115.8411" style="stroke:#000000;stroke-width:0.1;"/>
            <!-- Arc -->
            <path d="M2201.5861,45.103 A317.3163,317.3163 0 0,1 2216.3145,134.4415" style="stroke:#000000;stroke-width:0.1;"/>
            <!-- Line -->
            <path d="M2382.6634,113.5381 L2489.4484,113.5381 " style="stroke:#000000;stroke-width:0.1;"/>
            <!-- Line -->
            <path d="M2382.6634,32.4759 L2566.0848,32.4759 " style="stroke:#000000;stroke-width:0.1;"/>
            <!-- Line -->
            <path d="M2382.6634,23.469 L2566.4069,23.469 " style="stroke:#000000;stroke-width:0.1;"/>
            <!-- Line -->
            <path d="M2382.6634,31.6571 L2566.0848,31.6571 " style="stroke:#000000;stroke-width:0.1;"/>
            <!-- Block Reference: A$C51F1 / entities: 31 -->
            <g>
                <!-- Polyline -->
                <path d="M1057.171,25.5755 A0.216619,0.216619 0 0 0 1047.5873,112.9613 A1.18069,1.18069 0 0 1 1063.1607,490.1908 A0.0222032,0.0222032 0 0 1 1038.7356,487.2626 A0.0120328,0.0120328 0 0 0 1029.592,486.5999 A0.480879,0.480879 0 0 1 975.5245,490.1908 L845.4792,490.1908 L715.4339,490.1908 A0.480879,0.480879 0 0 1 661.3664,486.5999 A0.0120328,0.0120328 0 0 0 652.2228,487.2626 A0.0222032,0.0222032 0 0 1 627.7977,490.1908 A1.18069,1.18069 0 0 1 643.3712,112.9613 A0.216619,0.216619 0 0 0 633.7874,25.5755 A0.0126008,0.0126008 0 0 1 644.5689,6.3908 L1046.3895,6.3908 A0.0126008,0.0126008 0 0 1 1057.171,25.5755 Z" style="stroke:#000000;stroke-width:0.1;"/>
                <!-- Line -->
                <path d="M845.795,113.5381 L739.01,113.5381 " style="stroke:#000000;stroke-width:0.1;"/>
                <!-- Arc -->
                <path d="M668.0459,118.433 A1154.4088,1154.4088 0 0,0 652.819,487.2669" style="stroke:#000000;stroke-width:0.1;"/>
                <!-- Arc -->
                <path d="M668.4335,115.8411 A240.8687,240.8687 0 0,0 660.2343,26.7285" style="stroke:#000000;stroke-width:0.1;"/>
                <!-- Line -->
                <path d="M845.795,31.6571 L662.3736,31.6571 " style="stroke:#000000;stroke-width:0.1;"/>
                <!-- Line -->
                <path d="M845.795,23.469 L662.0515,23.469 " style="stroke:#000000;stroke-width:0.1;"/>
                <!-- Arc -->
                <path d="M662.0515,23.469 A2.4177,2.4177 0 0,0 660.2343,26.7285" style="stroke:#000000;stroke-width:0.1;"/>
                <!-- Arc -->
                <path d="M679.4461,134.4415 A317.3163,317.3163 0 0,0 664.7178,45.103" style="stroke:#000000;stroke-width:0.1;"/>
                <!-- Arc -->
                <path d="M739.01,113.5381 A97.8312,97.8312 0 0,0 661.5627,152.7521" style="stroke:#000000;stroke-width:0.1;"/>
                <!-- Arc -->
                <path d="M662.44,31.6571 A0.7251,0.7251 0 0,0 661.7154,32.5997" style="stroke:#000000;stroke-width:0.1;"/>
                <!-- Line -->
                <path d="M845.795,32.4759 L662.3736,32.4759 " style="stroke:#000000;stroke-width:0.1;"/>
                <!-- Arc -->
                <path d="M662.3736,32.4759 A0.4331,0.4331 0 0,0 661.8106,32.9566" style="stroke:#000000;stroke-width:0.1;"/>
                <!-- Arc -->
                <path d="M661.9493,486.6051 A12.0153,12.0153 0 0,0 652.819,487.2669" style="stroke:#000000;stroke-width:0.1;"/>
                <!-- Line -->
                <path d="M661.9493,486.6051 L660.1843,467.204 " style="stroke:#000000;stroke-width:0.1;"/>
                <!-- Line -->
                <path d="M660.1843,467.204 L651.042,471.5315 " style="stroke:#000000;stroke-width:0.1;"/>
                <!-- Line -->
                <path d="M660.1843,467.204 L650.5916,467.204 " style="stroke:#000000;stroke-width:0.1;"/>
                <!-- Line -->
                <path d="M1031.4058,467.204 L1040.9985,467.204 " style="stroke:#000000;stroke-width:0.1;"/>
                <!-- Line -->
                <path d="M1031.4058,467.204 L1040.5481,471.5315 " style="stroke:#000000;stroke-width:0.1;"/>
                <!-- Line -->
                <path d="M1029.6407,486.6051 L1031.4058,467.204 " style="stroke:#000000;stroke-width:0.1;"/>
                <!-- Arc -->
                <path d="M1038.771,487.2669 A12.0153,12.0153 0 0,0 1029.6407,486.6051" style="stroke:#000000;stroke-width:0.1;"/>
                <!-- Arc -->
                <path d="M1029.7794,32.9566 A0.4331,0.4331 0 0,0 1029.2164,32.4759" style="stroke:#000000;stroke-width:0.1;"/>
                <!-- Line -->
                <path d="M845.795,32.4759 L1029.2164,32.4759 " style="stroke:#000000;stroke-width:0.1;"/>
                <!-- Arc -->
                <path d="M1029.8747,32.5997 A0.7251,0.7251 0 0,0 1029.15,31.6571" style="stroke:#000000;stroke-width:0.1;"/>
                <!-- Arc -->
                <path d="M1030.0273,152.7521 A97.8312,97.8312 0 0,0 952.5801,113.5381" style="stroke:#000000;stroke-width:0.1;"/>
                <!-- Arc -->
                <path d="M1026.8723,45.103 A317.3163,317.3163 0 0,0 1012.1439,134.4415" style="stroke:#000000;stroke-width:0.1;"/>
                <!-- Arc -->
                <path d="M1031.3557,26.7285 A2.4177,2.4177 0 0,0 1029.5385,23.469" style="stroke:#000000;stroke-width:0.1;"/>
                <!-- Line -->
                <path d="M845.795,23.469 L1029.5385,23.469 " style="stroke:#000000;stroke-width:0.1;"/>
                <!-- Line -->
                <path d="M845.795,31.6571 L1029.2164,31.6571 " style="stroke:#000000;stroke-width:0.1;"/>
                <!-- Arc -->
                <path d="M1031.3557,26.7285 A240.8687,240.8687 0 0,0 1023.1565,115.8411" style="stroke:#000000;stroke-width:0.1;"/>
                <!-- Arc -->
                <path d="M1038.771,487.2669 A1154.4088,1154.4088 0 0,0 1023.5442,118.433" style="stroke:#000000;stroke-width:0.1;"/>
                <!-- Line -->
                <path d="M845.795,113.5381 L952.5801,113.5381 " style="stroke:#000000;stroke-width:0.1;"/>
            </g>
            <!-- Polyline -->
            <path d="M2171.2874,25.5755 A216.619,216.619 0 0 1 2180.8712,112.9613 A1180.69,1180.69 0 0 0 2165.2977,490.1908 A22.2032,22.2032 0 0 0 2189.7228,487.2626 A12.0328,12.0328 0 0 1 2198.8664,486.5999 A480.879,480.879 0 0 0 2252.9339,490.1908 L2382.9792,490.1908 L2513.0245,490.1908 A480.879,480.879 0 0 0 2567.092,486.5999 A12.0328,12.0328 0 0 1 2576.2356,487.2626 A22.2032,22.2032 0 0 0 2600.6607,490.1908 A1180.69,1180.69 0 0 0 2585.0873,112.9613 A216.619,216.619 0 0 1 2594.671,25.5755 A12.6008,12.6008 0 0 0 2583.8895,6.3908 L2182.0689,6.3908 A12.6008,12.6008 0 0 0 2171.2874,25.5755 Z" style="stroke:#000000;stroke-width:0.1;"/>
            <!-- Block Reference: A$C51F1 / entities: 31 -->
            <g>
                <!-- Polyline -->
                <path d="M1569.671,25.5755 A0.216619,0.216619 0 0 0 1560.0873,112.9613 A1.18069,1.18069 0 0 1 1575.6607,490.1908 A0.0222032,0.0222032 0 0 1 1551.2356,487.2626 A0.0120328,0.0120328 0 0 0 1542.092,486.5999 A0.480879,0.480879 0 0 1 1488.0245,490.1908 L1357.9792,490.1908 L1227.9339,490.1908 A0.480879,0.480879 0 0 1 1173.8664,486.5999 A0.0120328,0.0120328 0 0 0 1164.7228,487.2626 A0.0222032,0.0222032 0 0 1 1140.2977,490.1908 A1.18069,1.18069 0 0 1 1155.8712,112.9613 A0.216619,0.216619 0 0 0 1146.2874,25.5755 A0.0126008,0.0126008 0 0 1 1157.0689,6.3908 L1558.8895,6.3908 A0.0126008,0.0126008 0 0 1 1569.671,25.5755 Z" style="stroke:#000000;stroke-width:0.1;"/>
                <!-- Line -->
                <path d="M1358.295,113.5381 L1251.51,113.5381 " style="stroke:#000000;stroke-width:0.1;"/>
                <!-- Arc -->
                <path d="M1180.5459,118.433 A1154.4088,1154.4088 0 0,0 1165.319,487.2669" style="stroke:#000000;stroke-width:0.1;"/>
                <!-- Arc -->
                <path d="M1180.9335,115.8411 A240.8687,240.8687 0 0,0 1172.7343,26.7285" style="stroke:#000000;stroke-width:0.1;"/>
                <!-- Line -->
                <path d="M1358.295,31.6571 L1174.8736,31.6571 " style="stroke:#000000;stroke-width:0.1;"/>
                <!-- Line -->
                <path d="M1358.295,23.469 L1174.5515,23.469 " style="stroke:#000000;stroke-width:0.1;"/>
                <!-- Arc -->
                <path d="M1174.5515,23.469 A2.4177,2.4177 0 0,0 1172.7343,26.7285" style="stroke:#000000;stroke-width:0.1;"/>
                <!-- Arc -->
                <path d="M1191.9461,134.4415 A317.3163,317.3163 0 0,0 1177.2178,45.103" style="stroke:#000000;stroke-width:0.1;"/>
                <!-- Arc -->
                <path d="M1251.51,113.5381 A97.8312,97.8312 0 0,0 1174.0627,152.7521" style="stroke:#000000;stroke-width:0.1;"/>
                <!-- Arc -->
                <path d="M1174.94,31.6571 A0.7251,0.7251 0 0,0 1174.2154,32.5997" style="stroke:#000000;stroke-width:0.1;"/>
                <!-- Line -->
                <path d="M1358.295,32.4759 L1174.8736,32.4759 " style="stroke:#000000;stroke-width:0.1;"/>
                <!-- Arc -->
                <path d="M1174.8736,32.4759 A0.4331,0.4331 0 0,0 1174.3106,32.9566" style="stroke:#000000;stroke-width:0.1;"/>
                <!-- Arc -->
                <path d="M1174.4493,486.6051 A12.0153,12.0153 0 0,0 1165.319,487.2669" style="stroke:#000000;stroke-width:0.1;"/>
                <!-- Line -->
                <path d="M1174.4493,486.6051 L1172.6843,467.204 " style="stroke:#000000;stroke-width:0.1;"/>
                <!-- Line -->
                <path d="M1172.6843,467.204 L1163.542,471.5315 " style="stroke:#000000;stroke-width:0.1;"/>
                <!-- Line -->
                <path d="M1172.6843,467.204 L1163.0916,467.204 " style="stroke:#000000;stroke-width:0.1;"/>
                <!-- Line -->
                <path d="M1543.9058,467.204 L1553.4985,467.204 " style="stroke:#000000;stroke-width:0.1;"/>
                <!-- Line -->
                <path d="M1543.9058,467.204 L1553.0481,471.5315 " style="stroke:#000000;stroke-width:0.1;"/>
                <!-- Line -->
                <path d="M1542.1407,486.6051 L1543.9058,467.204 " style="stroke:#000000;stroke-width:0.1;"/>
                <!-- Arc -->
                <path d="M1551.271,487.2669 A12.0153,12.0153 0 0,0 1542.1407,486.6051" style="stroke:#000000;stroke-width:0.1;"/>
                <!-- Arc -->
                <path d="M1542.2794,32.9566 A0.4331,0.4331 0 0,0 1541.7164,32.4759" style="stroke:#000000;stroke-width:0.1;"/>
                <!-- Line -->
                <path d="M1358.295,32.4759 L1541.7164,32.4759 " style="stroke:#000000;stroke-width:0.1;"/>
                <!-- Arc -->
                <path d="M1542.3747,32.5997 A0.7251,0.7251 0 0,0 1541.65,31.6571" style="stroke:#000000;stroke-width:0.1;"/>
                <!-- Arc -->
                <path d="M1542.5273,152.7521 A97.8312,97.8312 0 0,0 1465.0801,113.5381" style="stroke:#000000;stroke-width:0.1;"/>
                <!-- Arc -->
                <path d="M1539.3723,45.103 A317.3163,317.3163 0 0,0 1524.6439,134.4415" style="stroke:#000000;stroke-width:0.1;"/>
                <!-- Arc -->
                <path d="M1543.8557,26.7285 A2.4177,2.4177 0 0,0 1542.0385,23.469" style="stroke:#000000;stroke-width:0.1;"/>
                <!-- Line -->
                <path d="M1358.295,23.469 L1542.0385,23.469 " style="stroke:#000000;stroke-width:0.1;"/>
                <!-- Line -->
                <path d="M1358.295,31.6571 L1541.7164,31.6571 " style="stroke:#000000;stroke-width:0.1;"/>
                <!-- Arc -->
                <path d="M1543.8557,26.7285 A240.8687,240.8687 0 0,0 1535.6565,115.8411" style="stroke:#000000;stroke-width:0.1;"/>
                <!-- Arc -->
                <path d="M1551.271,487.2669 A1154.4088,1154.4088 0 0,0 1536.0442,118.433" style="stroke:#000000;stroke-width:0.1;"/>
                <!-- Line -->
                <path d="M1358.295,113.5381 L1465.0801,113.5381 " style="stroke:#000000;stroke-width:0.1;"/>
            </g>
            <!-- Block Reference: A$C51F1 / entities: 31 -->
            <g>
                <!-- Polyline -->
                <path d="M1658.7874,25.5755 A216.619,216.619 0 0 1 1668.3712,112.9613 A1180.69,1180.69 0 0 0 1652.7977,490.1908 A22.2032,22.2032 0 0 0 1677.2228,487.2626 A12.0328,12.0328 0 0 1 1686.3664,486.5999 A480.879,480.879 0 0 0 1740.4339,490.1908 L1870.4792,490.1908 L2000.5245,490.1908 A480.879,480.879 0 0 0 2054.592,486.5999 A12.0328,12.0328 0 0 1 2063.7356,487.2626 A22.2032,22.2032 0 0 0 2088.1607,490.1908 A1180.69,1180.69 0 0 0 2072.5873,112.9613 A216.619,216.619 0 0 1 2082.171,25.5755 A12.6008,12.6008 0 0 0 2071.3895,6.3908 L1669.5689,6.3908 A12.6008,12.6008 0 0 0 1658.7874,25.5755 Z" style="stroke:#000000;stroke-width:0.1;"/>
                <!-- Line -->
                <path d="M1870.1634,113.5381 L1976.9484,113.5381 " style="stroke:#000000;stroke-width:0.1;"/>
                <!-- Arc -->
                <path d="M2047.9126,118.433 A1154.4088,1154.4088 0 0,1 2063.1394,487.2669" style="stroke:#000000;stroke-width:0.1;"/>
                <!-- Arc -->
                <path d="M2047.5249,115.8411 A240.8687,240.8687 0 0,1 2055.7241,26.7285" style="stroke:#000000;stroke-width:0.1;"/>
                <!-- Line -->
                <path d="M1870.1634,31.6571 L2053.5848,31.6571 " style="stroke:#000000;stroke-width:0.1;"/>
                <!-- Line -->
                <path d="M1870.1634,23.469 L2053.9069,23.469 " style="stroke:#000000;stroke-width:0.1;"/>
                <!-- Arc -->
                <path d="M2053.9069,23.469 A2.4177,2.4177 0 0,1 2055.7241,26.7285" style="stroke:#000000;stroke-width:0.1;"/>
                <!-- Arc -->
                <path d="M2036.5123,134.4415 A317.3163,317.3163 0 0,1 2051.2406,45.103" style="stroke:#000000;stroke-width:0.1;"/>
                <!-- Arc -->
                <path d="M1976.9484,113.5381 A97.8312,97.8312 0 0,1 2054.3957,152.7521" style="stroke:#000000;stroke-width:0.1;"/>
                <!-- Arc -->
                <path d="M2053.5184,31.6571 A0.7251,0.7251 0 0,1 2054.243,32.5997" style="stroke:#000000;stroke-width:0.1;"/>
                <!-- Line -->
                <path d="M1870.1634,32.4759 L2053.5848,32.4759 " style="stroke:#000000;stroke-width:0.1;"/>
                <!-- Arc -->
                <path d="M2053.5848,32.4759 A0.4331,0.4331 0 0,1 2054.1478,32.9566" style="stroke:#000000;stroke-width:0.1;"/>
                <!-- Arc -->
                <path d="M2054.0091,486.6051 A12.0153,12.0153 0 0,1 2063.1394,487.2669" style="stroke:#000000;stroke-width:0.1;"/>
                <!-- Line -->
                <path d="M2054.0091,486.6051 L2055.7741,467.204 " style="stroke:#000000;stroke-width:0.1;"/>
                <!-- Line -->
                <path d="M2055.7741,467.204 L2064.9164,471.5315 " style="stroke:#000000;stroke-width:0.1;"/>
                <!-- Line -->
                <path d="M2055.7741,467.204 L2065.3669,467.204 " style="stroke:#000000;stroke-width:0.1;"/>
                <!-- Line -->
                <path d="M1684.5526,467.204 L1674.9599,467.204 " style="stroke:#000000;stroke-width:0.1;"/>
                <!-- Line -->
                <path d="M1684.5526,467.204 L1675.4103,471.5315 " style="stroke:#000000;stroke-width:0.1;"/>
                <!-- Line -->
                <path d="M1686.3177,486.6051 L1684.5526,467.204 " style="stroke:#000000;stroke-width:0.1;"/>
                <!-- Arc -->
                <path d="M1677.1874,487.2669 A12.0153,12.0153 0 0,1 1686.3177,486.6051" style="stroke:#000000;stroke-width:0.1;"/>
                <!-- Arc -->
                <path d="M1686.179,32.9566 A0.4331,0.4331 0 0,1 1686.742,32.4759" style="stroke:#000000;stroke-width:0.1;"/>
                <!-- Line -->
                <path d="M1870.1634,32.4759 L1686.742,32.4759 " style="stroke:#000000;stroke-width:0.1;"/>
                <!-- Arc -->
                <path d="M1686.0837,32.5997 A0.7251,0.7251 0 0,1 1686.8084,31.6571" style="stroke:#000000;stroke-width:0.1;"/>
                <!-- Arc -->
                <path d="M1685.9311,152.7521 A97.8312,97.8312 0 0,1 1763.3783,113.5381" style="stroke:#000000;stroke-width:0.1;"/>
                <!-- Arc -->
                <path d="M1689.0861,45.103 A317.3163,317.3163 0 0,1 1703.8145,134.4415" style="stroke:#000000;stroke-width:0.1;"/>
                <!-- Arc -->
                <path d="M1684.6027,26.7285 A2.4177,2.4177 0 0,1 1686.4199,23.469" style="stroke:#000000;stroke-width:0.1;"/>
                <!-- Line -->
                <path d="M1870.1634,23.469 L1686.4199,23.469 " style="stroke:#000000;stroke-width:0.1;"/>
                <!-- Line -->
                <path d="M1870.1634,31.6571 L1686.742,31.6571 " style="stroke:#000000;stroke-width:0.1;"/>
                <!-- Arc -->
                <path d="M1684.6027,26.7285 A240.8687,240.8687 0 0,1 1692.8019,115.8411" style="stroke:#000000;stroke-width:0.1;"/>
                <!-- Arc -->
                <path d="M1677.1874,487.2669 A1154.4088,1154.4088 0 0,1 1692.4142,118.433" style="stroke:#000000;stroke-width:0.1;"/>
                <!-- Line -->
                <path d="M1870.1634,113.5381 L1763.3783,113.5381 " style="stroke:#000000;stroke-width:0.1;"/>
            </g>
            <!-- Arc -->
            <path d="M2189.6874,487.2669 A1154.4088,1154.4088 0 0,1 2204.9142,118.433" style="stroke:#000000;stroke-width:0.1;"/>
            <!-- Arc -->
            <path d="M2560.4126,118.433 A1154.4088,1154.4088 0 0,1 2575.6394,487.2669" style="stroke:#000000;stroke-width:0.1;"/>
        </g>
    </g>
</svg>

