<?xml version="1.0" encoding="UTF-8"?>
<!-- 2026-03-10 12:06:55 Generated by QCAD 3.32.6 SVG Exporter -->
<svg  width="2932.478mm" height="2879.7215mm" viewBox="-2.2604 -2880.6761 2932.478 2879.7215" version="1.1" xmlns="http://www.w3.org/2000/svg" style="stroke-linecap:round;stroke-linejoin:round;">
    <g transform="scale(1,-1)">
            <!-- Auto-generated fillable area -->
            <!-- Block Reference: A$C53C9558B / entities: 282 -->
        <g>
            <!-- Line -->
            <path d="M2377.6315,1116.9264 L2643.3425,886.5029 " style="stroke:#000000;stroke-width:0.1;"/>
            <!-- Line -->
            <path d="M2307.7914,1105.8648 L2043.288,741.8071 " style="stroke:#000000;stroke-width:0.1;"/>
            <!-- Circle -->
            <circle cx="1463.9786680839989" cy="1440.8153193208827" r="750" style="stroke:#000000;stroke-width:0.1;"/>
            <!-- Arc -->
            <path d="M2765.37,786.8335 A30,30 0 0,1 2760.3593,817.5531" style="stroke:#000000;stroke-width:0.1;"/>
            <!-- Arc -->
            <path d="M2651.7525,853.2376 A30,30 0 0,1 2643.3425,886.5029" style="stroke:#000000;stroke-width:0.1;"/>
            <!-- Arc -->
            <path d="M2457.4295,446.7716 A30,30 0 0,1 2457.3399,400.4827" style="stroke:#000000;stroke-width:0.1;"/>
            <!-- Arc -->
            <path d="M2457.3399,400.4827 A30,30 0 0,1 2488.1044,405.2101" style="stroke:#000000;stroke-width:0.1;"/>
            <!-- Arc -->
            <path d="M2355.6046,490.4656 A30,30 0 0,1 2389.8405,492.7468" style="stroke:#000000;stroke-width:0.1;"/>
            <!-- Arc -->
            <path d="M2146.4283,174.5922 A30,30 0 0,1 2102.3772,188.811" style="stroke:#000000;stroke-width:0.1;"/>
            <!-- Arc -->
            <path d="M2132.4255,146.7943 A30,30 0 0,1 2146.4283,174.5922" style="stroke:#000000;stroke-width:0.1;"/>
            <!-- Arc -->
            <path d="M2043.288,741.8071 A50,50 0 0,1 2054.3496,671.967" style="stroke:#000000;stroke-width:0.1;"/>
            <!-- Arc -->
            <path d="M2012.7622,641.752 A50,50 0 0,1 1949.7585,673.854" style="stroke:#000000;stroke-width:0.1;"/>
            <!-- Line -->
            <path d="M2012.7622,641.752 L2092.2874,299.1545 " style="stroke:#000000;stroke-width:0.1;"/>
            <!-- Arc -->
            <path d="M2079.5384,267.2991 A30,30 0 0,1 2092.2874,299.1545" style="stroke:#000000;stroke-width:0.1;"/>
            <!-- Line -->
            <path d="M2054.3496,671.967 L2355.6046,490.4656 " style="stroke:#000000;stroke-width:0.1;"/>
            <!-- Arc -->
            <path d="M2389.8405,492.7468 A843.9175,843.9175 0 0,1 2651.7525,853.2376" style="stroke:#000000;stroke-width:0.1;"/>
            <!-- Line -->
            <path d="M1489.6811,471.7926 L1626.7176,147.8817 " style="stroke:#000000;stroke-width:0.1;"/>
            <!-- Arc -->
            <path d="M1438.2762,471.7926 A50,50 0 0,1 1406.1742,534.7963" style="stroke:#000000;stroke-width:0.1;"/>
            <!-- Arc -->
            <path d="M1521.7831,534.7963 A50,50 0 0,1 1489.6811,471.7926" style="stroke:#000000;stroke-width:0.1;"/>
            <!-- Arc -->
            <path d="M1271.8247,15.2854 A30,30 0 0,1 1244.5443,52.6813" style="stroke:#000000;stroke-width:0.1;"/>
            <!-- Arc -->
            <path d="M1244.157,1.0271 A30,30 0 0,1 1271.8247,15.2854" style="stroke:#000000;stroke-width:0.1;"/>
            <!-- Arc -->
            <path d="M1272.2014,129.6038 A30,30 0 0,1 1301.2397,147.8817" style="stroke:#000000;stroke-width:0.1;"/>
            <!-- Line -->
            <path d="M1438.2762,471.7926 L1301.2397,147.8817 " style="stroke:#000000;stroke-width:0.1;"/>
            <!-- Arc -->
            <path d="M1683.4131,52.6813 A30,30 0 0,1 1656.1326,15.2854" style="stroke:#000000;stroke-width:0.1;"/>
            <!-- Arc -->
            <path d="M1656.1326,15.2854 A30,30 0 0,1 1683.8003,1.0271" style="stroke:#000000;stroke-width:0.1;"/>
            <!-- Arc -->
            <path d="M1626.7176,147.8817 A30,30 0 0,1 1655.7559,129.6038" style="stroke:#000000;stroke-width:0.1;"/>
            <!-- Arc -->
            <path d="M978.1988,673.854 A50,50 0 0,1 915.1951,641.752" style="stroke:#000000;stroke-width:0.1;"/>
            <!-- Line -->
            <path d="M1406.1742,534.7963 L978.1988,673.854 " style="stroke:#000000;stroke-width:0.1;"/>
            <!-- Line -->
            <path d="M1949.7585,673.854 L1521.7831,534.7963 " style="stroke:#000000;stroke-width:0.1;"/>
            <!-- Arc -->
            <path d="M1683.8003,1.0271 A973.9175,973.9175 0 0,1 2132.4255,146.7943" style="stroke:#000000;stroke-width:0.1;"/>
            <!-- Arc -->
            <path d="M1683.4131,52.6813 A873.9175,873.9175 0 0,1 2102.3772,188.811" style="stroke:#000000;stroke-width:0.1;"/>
            <!-- Arc -->
            <path d="M1655.7559,129.6038 A843.9175,843.9175 0 0,1 2079.5384,267.2991" style="stroke:#000000;stroke-width:0.1;"/>
            <!-- Arc -->
            <path d="M795.5319,146.7943 A973.9175,973.9175 0 0,1 1244.157,1.0271" style="stroke:#000000;stroke-width:0.1;"/>
            <!-- Arc -->
            <path d="M825.5801,188.811 A873.9175,873.9175 0 0,1 1244.5443,52.6813" style="stroke:#000000;stroke-width:0.1;"/>
            <!-- Arc -->
            <path d="M848.4189,267.2991 A843.9175,843.9175 0 0,1 1272.2014,129.6038" style="stroke:#000000;stroke-width:0.1;"/>
            <!-- Arc -->
            <path d="M2760.3593,817.5531 A30,30 0 0,1 2716.3636,803.1638" style="stroke:#000000;stroke-width:0.1;"/>
            <!-- Arc -->
            <path d="M2488.1044,405.2101 A973.9175,973.9175 0 0,1 2765.37,786.8335" style="stroke:#000000;stroke-width:0.1;"/>
            <!-- Arc -->
            <path d="M2457.4295,446.7716 A873.9175,873.9175 0 0,1 2716.3636,803.1638" style="stroke:#000000;stroke-width:0.1;"/>
            <!-- Arc -->
            <path d="M2901.2273,1676.6715 A30,30 0 0,1 2879.117,1698.579" style="stroke:#000000;stroke-width:0.1;"/>
            <!-- Arc -->
            <path d="M2879.117,1698.579 A30,30 0 0,1 2851.9815,1661.0778" style="stroke:#000000;stroke-width:0.1;"/>
            <!-- Arc -->
            <path d="M2879.117,1183.0516 A30,30 0 0,1 2901.2273,1204.9591" style="stroke:#000000;stroke-width:0.1;"/>
            <!-- Arc -->
            <path d="M2851.9815,1220.5528 A30,30 0 0,1 2879.117,1183.0516" style="stroke:#000000;stroke-width:0.1;"/>
            <!-- Arc -->
            <path d="M2851.9815,1220.5528 A873.9175,873.9175 0 0,1 2851.9815,1661.0778" style="stroke:#000000;stroke-width:0.1;"/>
            <!-- Arc -->
            <path d="M2901.2273,1204.9591 A973.9175,973.9175 0 0,1 2901.2273,1676.6715" style="stroke:#000000;stroke-width:0.1;"/>
            <!-- Arc -->
            <path d="M2760.3593,2064.0775 A30,30 0 0,1 2765.37,2094.7972" style="stroke:#000000;stroke-width:0.1;"/>
            <!-- Arc -->
            <path d="M2770.2774,1663.6109 A30,30 0 0,1 2743.9208,1685.5798" style="stroke:#000000;stroke-width:0.1;"/>
            <!-- Arc -->
            <path d="M2743.9208,1196.0508 A30,30 0 0,1 2770.2774,1218.0197" style="stroke:#000000;stroke-width:0.1;"/>
            <!-- Arc -->
            <path d="M2770.2774,1218.0197 A843.9175,843.9175 0 0,1 2770.2774,1663.6109" style="stroke:#000000;stroke-width:0.1;"/>
            <!-- Arc -->
            <path d="M2146.4283,2707.0385 A30,30 0 0,1 2132.4255,2734.8364" style="stroke:#000000;stroke-width:0.1;"/>
            <!-- Arc -->
            <path d="M1244.5443,2828.9493 A30,30 0 0,1 1271.8247,2866.3452" style="stroke:#000000;stroke-width:0.1;"/>
            <!-- Arc -->
            <path d="M1271.8247,2866.3452 A30,30 0 0,1 1244.157,2880.6035" style="stroke:#000000;stroke-width:0.1;"/>
            <!-- Arc -->
            <path d="M1301.2397,2733.749 A30,30 0 0,1 1272.2014,2752.0269" style="stroke:#000000;stroke-width:0.1;"/>
            <!-- Arc -->
            <path d="M1656.1326,2866.3452 A30,30 0 0,1 1683.4131,2828.9493" style="stroke:#000000;stroke-width:0.1;"/>
            <!-- Arc -->
            <path d="M1683.8003,2880.6035 A30,30 0 0,1 1656.1326,2866.3452" style="stroke:#000000;stroke-width:0.1;"/>
            <!-- Arc -->
            <path d="M1655.7559,2752.0269 A30,30 0 0,1 1626.7176,2733.749" style="stroke:#000000;stroke-width:0.1;"/>
            <!-- Arc -->
            <path d="M2132.4255,2734.8364 A973.9175,973.9175 0 0,1 1683.8003,2880.6035" style="stroke:#000000;stroke-width:0.1;"/>
            <!-- Arc -->
            <path d="M1244.157,2880.6035 A973.9175,973.9175 0 0,1 795.5319,2734.8364" style="stroke:#000000;stroke-width:0.1;"/>
            <!-- Arc -->
            <path d="M2643.3425,1995.1278 A30,30 0 0,1 2651.7525,2028.393" style="stroke:#000000;stroke-width:0.1;"/>
            <!-- Arc -->
            <path d="M2488.1044,2476.4205 A30,30 0 0,1 2457.3399,2481.148" style="stroke:#000000;stroke-width:0.1;"/>
            <!-- Arc -->
            <path d="M2457.3399,2481.148 A30,30 0 0,1 2457.4295,2434.859" style="stroke:#000000;stroke-width:0.1;"/>
            <!-- Arc -->
            <path d="M2092.2874,2582.4762 A30,30 0 0,1 2079.5384,2614.3316" style="stroke:#000000;stroke-width:0.1;"/>
            <!-- Arc -->
            <path d="M2389.8405,2388.8839 A30,30 0 0,1 2355.6046,2391.165" style="stroke:#000000;stroke-width:0.1;"/>
            <!-- Arc -->
            <path d="M2307.7914,1775.7659 A50,50 0 0,1 2377.6315,1764.7043" style="stroke:#000000;stroke-width:0.1;"/>
            <!-- Line -->
            <path d="M2343.5165,1665.8153 L2343.5165,1215.8153 " style="stroke:#000000;stroke-width:0.1;"/>
            <!-- Arc -->
            <path d="M2054.3496,2209.6636 A50,50 0 0,1 2043.288,2139.8235" style="stroke:#000000;stroke-width:0.1;"/>
            <!-- Arc -->
            <path d="M1949.7585,2207.7767 A50,50 0 0,1 2012.7622,2239.8787" style="stroke:#000000;stroke-width:0.1;"/>
            <!-- Line -->
            <path d="M2043.288,2139.8235 L2307.7914,1775.7659 " style="stroke:#000000;stroke-width:0.1;"/>
            <!-- Line -->
            <path d="M2054.3496,2209.6636 L2355.6046,2391.165 " style="stroke:#000000;stroke-width:0.1;"/>
            <!-- Line -->
            <path d="M2012.7622,2239.8787 L2092.2874,2582.4762 " style="stroke:#000000;stroke-width:0.1;"/>
            <!-- Arc -->
            <path d="M2377.6315,1116.9264 A50,50 0 0,1 2307.7914,1105.8648" style="stroke:#000000;stroke-width:0.1;"/>
            <!-- Arc -->
            <path d="M2393.5165,1715.8153 A50,50 0 0,1 2343.5165,1665.8153" style="stroke:#000000;stroke-width:0.1;"/>
            <!-- Arc -->
            <path d="M2343.5165,1215.8153 A50,50 0 0,1 2393.5165,1165.8153" style="stroke:#000000;stroke-width:0.1;"/>
            <!-- Line -->
            <path d="M2377.6315,1764.7043 L2643.3425,1995.1278 " style="stroke:#000000;stroke-width:0.1;"/>
            <!-- Arc -->
            <path d="M2651.7525,2028.393 A843.9175,843.9175 0 0,1 2389.8405,2388.8839" style="stroke:#000000;stroke-width:0.1;"/>
            <!-- Arc -->
            <path d="M1489.6811,2409.838 A50,50 0 0,1 1521.7831,2346.8343" style="stroke:#000000;stroke-width:0.1;"/>
            <!-- Arc -->
            <path d="M1406.1742,2346.8343 A50,50 0 0,1 1438.2762,2409.838" style="stroke:#000000;stroke-width:0.1;"/>
            <!-- Arc -->
            <path d="M915.1951,2239.8787 A50,50 0 0,1 978.1988,2207.7767" style="stroke:#000000;stroke-width:0.1;"/>
            <!-- Line -->
            <path d="M978.1988,2207.7767 L1406.1742,2346.8343 " style="stroke:#000000;stroke-width:0.1;"/>
            <!-- Line -->
            <path d="M1521.7831,2346.8343 L1949.7585,2207.7767 " style="stroke:#000000;stroke-width:0.1;"/>
            <!-- Line -->
            <path d="M1489.6811,2409.838 L1626.7176,2733.749 " style="stroke:#000000;stroke-width:0.1;"/>
            <!-- Line -->
            <path d="M1438.2762,2409.838 L1301.2397,2733.749 " style="stroke:#000000;stroke-width:0.1;"/>
            <!-- Arc -->
            <path d="M2102.3772,2692.8196 A30,30 0 0,1 2146.4283,2707.0385" style="stroke:#000000;stroke-width:0.1;"/>
            <!-- Arc -->
            <path d="M2079.5384,2614.3316 A843.9175,843.9175 0 0,1 1655.7559,2752.0269" style="stroke:#000000;stroke-width:0.1;"/>
            <!-- Arc -->
            <path d="M2102.3772,2692.8196 A873.9175,873.9175 0 0,1 1683.4131,2828.9493" style="stroke:#000000;stroke-width:0.1;"/>
            <!-- Arc -->
            <path d="M1272.2014,2752.0269 A843.9175,843.9175 0 0,1 848.4189,2614.3316" style="stroke:#000000;stroke-width:0.1;"/>
            <!-- Arc -->
            <path d="M1244.5443,2828.9493 A873.9175,873.9175 0 0,1 825.5801,2692.8196" style="stroke:#000000;stroke-width:0.1;"/>
            <!-- Arc -->
            <path d="M2716.3636,2078.4669 A30,30 0 0,1 2760.3593,2064.0775" style="stroke:#000000;stroke-width:0.1;"/>
            <!-- Line -->
            <path d="M2393.5165,1715.8153 L2743.9208,1685.5798 " style="stroke:#000000;stroke-width:0.1;"/>
            <!-- Line -->
            <path d="M2393.5165,1165.8153 L2743.9208,1196.0508 " style="stroke:#000000;stroke-width:0.1;"/>
            <!-- Arc -->
            <path d="M2716.3636,2078.4669 A873.9175,873.9175 0 0,1 2457.4295,2434.859" style="stroke:#000000;stroke-width:0.1;"/>
            <!-- Arc -->
            <path d="M2765.37,2094.7972 A973.9175,973.9175 0 0,1 2488.1044,2476.4205" style="stroke:#000000;stroke-width:0.1;"/>
            <!-- Line -->
            <path d="M550.3258,1116.9264 L284.6148,886.5029 " style="stroke:#000000;stroke-width:0.1;"/>
            <!-- Line -->
            <path d="M884.6693,741.8071 L620.1659,1105.8648 " style="stroke:#000000;stroke-width:0.1;"/>
            <!-- Arc -->
            <path d="M873.6077,671.967 A50,50 0 0,1 884.6693,741.8071" style="stroke:#000000;stroke-width:0.1;"/>
            <!-- Arc -->
            <path d="M835.6699,299.1545 A30,30 0 0,1 848.4189,267.2991" style="stroke:#000000;stroke-width:0.1;"/>
            <!-- Arc -->
            <path d="M825.5801,188.811 A30,30 0 0,1 781.529,174.5922" style="stroke:#000000;stroke-width:0.1;"/>
            <!-- Arc -->
            <path d="M781.529,174.5922 A30,30 0 0,1 795.5319,146.7943" style="stroke:#000000;stroke-width:0.1;"/>
            <!-- Arc -->
            <path d="M211.5937,803.1638 A30,30 0 0,1 167.598,817.5531" style="stroke:#000000;stroke-width:0.1;"/>
            <!-- Arc -->
            <path d="M167.598,817.5531 A30,30 0 0,1 162.5873,786.8335" style="stroke:#000000;stroke-width:0.1;"/>
            <!-- Arc -->
            <path d="M284.6148,886.5029 A30,30 0 0,1 276.2048,853.2376" style="stroke:#000000;stroke-width:0.1;"/>
            <!-- Arc -->
            <path d="M538.1168,492.7468 A30,30 0 0,1 572.3527,490.4656" style="stroke:#000000;stroke-width:0.1;"/>
            <!-- Arc -->
            <path d="M470.6174,400.4827 A30,30 0 0,1 470.5278,446.7716" style="stroke:#000000;stroke-width:0.1;"/>
            <!-- Arc -->
            <path d="M439.8529,405.2101 A30,30 0 0,1 470.6174,400.4827" style="stroke:#000000;stroke-width:0.1;"/>
            <!-- Arc -->
            <path d="M162.5873,786.8335 A973.9175,973.9175 0 0,1 439.8529,405.2101" style="stroke:#000000;stroke-width:0.1;"/>
            <!-- Arc -->
            <path d="M211.5937,803.1638 A873.9175,873.9175 0 0,1 470.5278,446.7716" style="stroke:#000000;stroke-width:0.1;"/>
            <!-- Arc -->
            <path d="M276.2048,853.2376 A843.9175,843.9175 0 0,1 538.1168,492.7468" style="stroke:#000000;stroke-width:0.1;"/>
            <!-- Line -->
            <path d="M915.1951,641.752 L835.6699,299.1545 " style="stroke:#000000;stroke-width:0.1;"/>
            <!-- Line -->
            <path d="M873.6077,671.967 L572.3527,490.4656 " style="stroke:#000000;stroke-width:0.1;"/>
            <!-- Arc -->
            <path d="M795.5319,2734.8364 A30,30 0 0,1 781.529,2707.0385" style="stroke:#000000;stroke-width:0.1;"/>
            <!-- Arc -->
            <path d="M884.6693,2139.8235 A50,50 0 0,1 873.6077,2209.6636" style="stroke:#000000;stroke-width:0.1;"/>
            <!-- Arc -->
            <path d="M848.4189,2614.3316 A30,30 0 0,1 835.6699,2582.4762" style="stroke:#000000;stroke-width:0.1;"/>
            <!-- Arc -->
            <path d="M470.6174,2481.148 A30,30 0 0,1 439.8529,2476.4205" style="stroke:#000000;stroke-width:0.1;"/>
            <!-- Arc -->
            <path d="M572.3527,2391.165 A30,30 0 0,1 538.1168,2388.8839" style="stroke:#000000;stroke-width:0.1;"/>
            <!-- Arc -->
            <path d="M167.598,2064.0775 A30,30 0 0,1 211.5937,2078.4669" style="stroke:#000000;stroke-width:0.1;"/>
            <!-- Arc -->
            <path d="M162.5873,2094.7972 A30,30 0 0,1 167.598,2064.0775" style="stroke:#000000;stroke-width:0.1;"/>
            <!-- Arc -->
            <path d="M276.2048,2028.393 A30,30 0 0,1 284.6148,1995.1278" style="stroke:#000000;stroke-width:0.1;"/>
            <!-- Arc -->
            <path d="M584.4408,1665.8153 A50,50 0 0,1 534.4408,1715.8153" style="stroke:#000000;stroke-width:0.1;"/>
            <!-- Arc -->
            <path d="M184.0366,1685.5798 A30,30 0 0,1 157.68,1663.6109" style="stroke:#000000;stroke-width:0.1;"/>
            <!-- Line -->
            <path d="M534.4408,1715.8153 L184.0366,1685.5798 " style="stroke:#000000;stroke-width:0.1;"/>
            <!-- Line -->
            <path d="M550.3258,1764.7043 L284.6148,1995.1278 " style="stroke:#000000;stroke-width:0.1;"/>
            <!-- Arc -->
            <path d="M157.68,1218.0197 A30,30 0 0,1 184.0366,1196.0508" style="stroke:#000000;stroke-width:0.1;"/>
            <!-- Line -->
            <path d="M584.4408,1215.8153 L584.4408,1665.8153 " style="stroke:#000000;stroke-width:0.1;"/>
            <!-- Arc -->
            <path d="M470.5278,2434.859 A873.9175,873.9175 0 0,1 211.5937,2078.4669" style="stroke:#000000;stroke-width:0.1;"/>
            <!-- Arc -->
            <path d="M538.1168,2388.8839 A843.9175,843.9175 0 0,1 276.2048,2028.393" style="stroke:#000000;stroke-width:0.1;"/>
            <!-- Arc -->
            <path d="M550.3258,1764.7043 A50,50 0 0,1 620.1659,1775.7659" style="stroke:#000000;stroke-width:0.1;"/>
            <!-- Arc -->
            <path d="M470.5278,2434.859 A30,30 0 0,1 470.6174,2481.148" style="stroke:#000000;stroke-width:0.1;"/>
            <!-- Arc -->
            <path d="M439.8529,2476.4205 A973.9175,973.9175 0 0,1 162.5873,2094.7972" style="stroke:#000000;stroke-width:0.1;"/>
            <!-- Arc -->
            <path d="M75.9758,1661.0778 A30,30 0 0,1 48.8403,1698.579" style="stroke:#000000;stroke-width:0.1;"/>
            <!-- Arc -->
            <path d="M48.8403,1698.579 A30,30 0 0,1 26.7301,1676.6715" style="stroke:#000000;stroke-width:0.1;"/>
            <!-- Arc -->
            <path d="M48.8403,1183.0516 A30,30 0 0,1 75.9758,1220.5528" style="stroke:#000000;stroke-width:0.1;"/>
            <!-- Arc -->
            <path d="M26.7301,1204.9591 A30,30 0 0,1 48.8403,1183.0516" style="stroke:#000000;stroke-width:0.1;"/>
            <!-- Arc -->
            <path d="M26.7301,1676.6715 A973.9175,973.9175 0 0,1 26.7301,1204.9591" style="stroke:#000000;stroke-width:0.1;"/>
            <!-- Arc -->
            <path d="M75.9758,1661.0778 A873.9175,873.9175 0 0,1 75.9758,1220.5528" style="stroke:#000000;stroke-width:0.1;"/>
            <!-- Arc -->
            <path d="M157.68,1663.6109 A843.9175,843.9175 0 0,1 157.68,1218.0197" style="stroke:#000000;stroke-width:0.1;"/>
            <!-- Arc -->
            <path d="M620.1659,1105.8648 A50,50 0 0,1 550.3258,1116.9264" style="stroke:#000000;stroke-width:0.1;"/>
            <!-- Arc -->
            <path d="M534.4408,1165.8153 A50,50 0 0,1 584.4408,1215.8153" style="stroke:#000000;stroke-width:0.1;"/>
            <!-- Line -->
            <path d="M534.4408,1165.8153 L184.0366,1196.0508 " style="stroke:#000000;stroke-width:0.1;"/>
            <!-- Line -->
            <path d="M915.1951,2239.8787 L835.6699,2582.4762 " style="stroke:#000000;stroke-width:0.1;"/>
            <!-- Line -->
            <path d="M620.1659,1775.7659 L884.6693,2139.8235 " style="stroke:#000000;stroke-width:0.1;"/>
            <!-- Line -->
            <path d="M873.6077,2209.6636 L572.3527,2391.165 " style="stroke:#000000;stroke-width:0.1;"/>
            <!-- Arc -->
            <path d="M781.529,2707.0385 A30,30 0 0,1 825.5801,2692.8196" style="stroke:#000000;stroke-width:0.1;"/>
            <!-- Line -->
            <path d="M2377.6315,1116.9264 L2643.3425,886.5029 " style="stroke:#000000;stroke-width:0.1;"/>
            <!-- Line -->
            <path d="M2307.7914,1105.8648 L2043.288,741.8071 " style="stroke:#000000;stroke-width:0.1;"/>
            <!-- Circle -->
            <circle cx="1463.9786680839989" cy="1440.8153193208827" r="750" style="stroke:#000000;stroke-width:0.1;"/>
            <!-- Arc -->
            <path d="M2765.37,786.8335 A30,30 0 0,1 2760.3593,817.5531" style="stroke:#000000;stroke-width:0.1;"/>
            <!-- Arc -->
            <path d="M2651.7525,853.2376 A30,30 0 0,1 2643.3425,886.5029" style="stroke:#000000;stroke-width:0.1;"/>
            <!-- Arc -->
            <path d="M2457.4295,446.7716 A30,30 0 0,1 2457.3399,400.4827" style="stroke:#000000;stroke-width:0.1;"/>
            <!-- Arc -->
            <path d="M2457.3399,400.4827 A30,30 0 0,1 2488.1044,405.2101" style="stroke:#000000;stroke-width:0.1;"/>
            <!-- Arc -->
            <path d="M2355.6046,490.4656 A30,30 0 0,1 2389.8405,492.7468" style="stroke:#000000;stroke-width:0.1;"/>
            <!-- Arc -->
            <path d="M2146.4283,174.5922 A30,30 0 0,1 2102.3772,188.811" style="stroke:#000000;stroke-width:0.1;"/>
            <!-- Arc -->
            <path d="M2132.4255,146.7943 A30,30 0 0,1 2146.4283,174.5922" style="stroke:#000000;stroke-width:0.1;"/>
            <!-- Arc -->
            <path d="M2043.288,741.8071 A50,50 0 0,1 2054.3496,671.967" style="stroke:#000000;stroke-width:0.1;"/>
            <!-- Arc -->
            <path d="M2012.7622,641.752 A50,50 0 0,1 1949.7585,673.854" style="stroke:#000000;stroke-width:0.1;"/>
            <!-- Line -->
            <path d="M2012.7622,641.752 L2092.2874,299.1545 " style="stroke:#000000;stroke-width:0.1;"/>
            <!-- Arc -->
            <path d="M2079.5384,267.2991 A30,30 0 0,1 2092.2874,299.1545" style="stroke:#000000;stroke-width:0.1;"/>
            <!-- Line -->
            <path d="M2054.3496,671.967 L2355.6046,490.4656 " style="stroke:#000000;stroke-width:0.1;"/>
            <!-- Arc -->
            <path d="M2389.8405,492.7468 A843.9175,843.9175 0 0,1 2651.7525,853.2376" style="stroke:#000000;stroke-width:0.1;"/>
            <!-- Line -->
            <path d="M1489.6811,471.7926 L1626.7176,147.8817 " style="stroke:#000000;stroke-width:0.1;"/>
            <!-- Arc -->
            <path d="M1438.2762,471.7926 A50,50 0 0,1 1406.1742,534.7963" style="stroke:#000000;stroke-width:0.1;"/>
            <!-- Arc -->
            <path d="M1521.7831,534.7963 A50,50 0 0,1 1489.6811,471.7926" style="stroke:#000000;stroke-width:0.1;"/>
            <!-- Arc -->
            <path d="M1271.8247,15.2854 A30,30 0 0,1 1244.5443,52.6813" style="stroke:#000000;stroke-width:0.1;"/>
            <!-- Arc -->
            <path d="M1244.157,1.0271 A30,30 0 0,1 1271.8247,15.2854" style="stroke:#000000;stroke-width:0.1;"/>
            <!-- Arc -->
            <path d="M1272.2014,129.6038 A30,30 0 0,1 1301.2397,147.8817" style="stroke:#000000;stroke-width:0.1;"/>
            <!-- Line -->
            <path d="M1438.2762,471.7926 L1301.2397,147.8817 " style="stroke:#000000;stroke-width:0.1;"/>
            <!-- Arc -->
            <path d="M1683.4131,52.6813 A30,30 0 0,1 1656.1326,15.2854" style="stroke:#000000;stroke-width:0.1;"/>
            <!-- Arc -->
            <path d="M1656.1326,15.2854 A30,30 0 0,1 1683.8003,1.0271" style="stroke:#000000;stroke-width:0.1;"/>
            <!-- Arc -->
            <path d="M1626.7176,147.8817 A30,30 0 0,1 1655.7559,129.6038" style="stroke:#000000;stroke-width:0.1;"/>
            <!-- Arc -->
            <path d="M978.1988,673.854 A50,50 0 0,1 915.1951,641.752" style="stroke:#000000;stroke-width:0.1;"/>
            <!-- Line -->
            <path d="M1406.1742,534.7963 L978.1988,673.854 " style="stroke:#000000;stroke-width:0.1;"/>
            <!-- Line -->
            <path d="M1949.7585,673.854 L1521.7831,534.7963 " style="stroke:#000000;stroke-width:0.1;"/>
            <!-- Arc -->
            <path d="M1683.8003,1.0271 A973.9175,973.9175 0 0,1 2132.4255,146.7943" style="stroke:#000000;stroke-width:0.1;"/>
            <!-- Arc -->
            <path d="M1683.4131,52.6813 A873.9175,873.9175 0 0,1 2102.3772,188.811" style="stroke:#000000;stroke-width:0.1;"/>
            <!-- Arc -->
            <path d="M1655.7559,129.6038 A843.9175,843.9175 0 0,1 2079.5384,267.2991" style="stroke:#000000;stroke-width:0.1;"/>
            <!-- Arc -->
            <path d="M795.5319,146.7943 A973.9175,973.9175 0 0,1 1244.157,1.0271" style="stroke:#000000;stroke-width:0.1;"/>
            <!-- Arc -->
            <path d="M825.5801,188.811 A873.9175,873.9175 0 0,1 1244.5443,52.6813" style="stroke:#000000;stroke-width:0.1;"/>
            <!-- Arc -->
            <path d="M848.4189,267.2991 A843.9175,843.9175 0 0,1 1272.2014,129.6038" style="stroke:#000000;stroke-width:0.1;"/>
            <!-- Arc -->
            <path d="M2760.3593,817.5531 A30,30 0 0,1 2716.3636,803.1638" style="stroke:#000000;stroke-width:0.1;"/>
            <!-- Arc -->
            <path d="M2488.1044,405.2101 A973.9175,973.9175 0 0,1 2765.37,786.8335" style="stroke:#000000;stroke-width:0.1;"/>
            <!-- Arc -->
            <path d="M2457.4295,446.7716 A873.9175,873.9175 0 0,1 2716.3636,803.1638" style="stroke:#000000;stroke-width:0.1;"/>
            <!-- Arc -->
            <path d="M2901.2273,1676.6715 A30,30 0 0,1 2879.117,1698.579" style="stroke:#000000;stroke-width:0.1;"/>
            <!-- Arc -->
            <path d="M2879.117,1698.579 A30,30 0 0,1 2851.9815,1661.0778" style="stroke:#000000;stroke-width:0.1;"/>
            <!-- Arc -->
            <path d="M2879.117,1183.0516 A30,30 0 0,1 2901.2273,1204.9591" style="stroke:#000000;stroke-width:0.1;"/>
            <!-- Arc -->
            <path d="M2851.9815,1220.5528 A30,30 0 0,1 2879.117,1183.0516" style="stroke:#000000;stroke-width:0.1;"/>
            <!-- Arc -->
            <path d="M2851.9815,1220.5528 A873.9175,873.9175 0 0,1 2851.9815,1661.0778" style="stroke:#000000;stroke-width:0.1;"/>
            <!-- Arc -->
            <path d="M2901.2273,1204.9591 A973.9175,973.9175 0 0,1 2901.2273,1676.6715" style="stroke:#000000;stroke-width:0.1;"/>
            <!-- Arc -->
            <path d="M2760.3593,2064.0775 A30,30 0 0,1 2765.37,2094.7972" style="stroke:#000000;stroke-width:0.1;"/>
            <!-- Arc -->
            <path d="M2770.2774,1663.6109 A30,30 0 0,1 2743.9208,1685.5798" style="stroke:#000000;stroke-width:0.1;"/>
            <!-- Arc -->
            <path d="M2743.9208,1196.0508 A30,30 0 0,1 2770.2774,1218.0197" style="stroke:#000000;stroke-width:0.1;"/>
            <!-- Arc -->
            <path d="M2770.2774,1218.0197 A843.9175,843.9175 0 0,1 2770.2774,1663.6109" style="stroke:#000000;stroke-width:0.1;"/>
            <!-- Arc -->
            <path d="M2146.4283,2707.0385 A30,30 0 0,1 2132.4255,2734.8364" style="stroke:#000000;stroke-width:0.1;"/>
            <!-- Arc -->
            <path d="M1244.5443,2828.9493 A30,30 0 0,1 1271.8247,2866.3452" style="stroke:#000000;stroke-width:0.1;"/>
            <!-- Arc -->
            <path d="M1271.8247,2866.3452 A30,30 0 0,1 1244.157,2880.6035" style="stroke:#000000;stroke-width:0.1;"/>
            <!-- Arc -->
            <path d="M1301.2397,2733.749 A30,30 0 0,1 1272.2014,2752.0269" style="stroke:#000000;stroke-width:0.1;"/>
            <!-- Arc -->
            <path d="M1656.1326,2866.3452 A30,30 0 0,1 1683.4131,2828.9493" style="stroke:#000000;stroke-width:0.1;"/>
            <!-- Arc -->
            <path d="M1683.8003,2880.6035 A30,30 0 0,1 1656.1326,2866.3452" style="stroke:#000000;stroke-width:0.1;"/>
            <!-- Arc -->
            <path d="M1655.7559,2752.0269 A30,30 0 0,1 1626.7176,2733.749" style="stroke:#000000;stroke-width:0.1;"/>
            <!-- Arc -->
            <path d="M2132.4255,2734.8364 A973.9175,973.9175 0 0,1 1683.8003,2880.6035" style="stroke:#000000;stroke-width:0.1;"/>
            <!-- Arc -->
            <path d="M1244.157,2880.6035 A973.9175,973.9175 0 0,1 795.5319,2734.8364" style="stroke:#000000;stroke-width:0.1;"/>
            <!-- Arc -->
            <path d="M2643.3425,1995.1278 A30,30 0 0,1 2651.7525,2028.393" style="stroke:#000000;stroke-width:0.1;"/>
            <!-- Arc -->
            <path d="M2488.1044,2476.4205 A30,30 0 0,1 2457.3399,2481.148" style="stroke:#000000;stroke-width:0.1;"/>
            <!-- Arc -->
            <path d="M2457.3399,2481.148 A30,30 0 0,1 2457.4295,2434.859" style="stroke:#000000;stroke-width:0.1;"/>
            <!-- Arc -->
            <path d="M2092.2874,2582.4762 A30,30 0 0,1 2079.5384,2614.3316" style="stroke:#000000;stroke-width:0.1;"/>
            <!-- Arc -->
            <path d="M2389.8405,2388.8839 A30,30 0 0,1 2355.6046,2391.165" style="stroke:#000000;stroke-width:0.1;"/>
            <!-- Arc -->
            <path d="M2307.7914,1775.7659 A50,50 0 0,1 2377.6315,1764.7043" style="stroke:#000000;stroke-width:0.1;"/>
            <!-- Line -->
            <path d="M2343.5165,1665.8153 L2343.5165,1215.8153 " style="stroke:#000000;stroke-width:0.1;"/>
            <!-- Arc -->
            <path d="M2054.3496,2209.6636 A50,50 0 0,1 2043.288,2139.8235" style="stroke:#000000;stroke-width:0.1;"/>
            <!-- Arc -->
            <path d="M1949.7585,2207.7767 A50,50 0 0,1 2012.7622,2239.8787" style="stroke:#000000;stroke-width:0.1;"/>
            <!-- Line -->
            <path d="M2043.288,2139.8235 L2307.7914,1775.7659 " style="stroke:#000000;stroke-width:0.1;"/>
            <!-- Line -->
            <path d="M2054.3496,2209.6636 L2355.6046,2391.165 " style="stroke:#000000;stroke-width:0.1;"/>
            <!-- Line -->
            <path d="M2012.7622,2239.8787 L2092.2874,2582.4762 " style="stroke:#000000;stroke-width:0.1;"/>
            <!-- Arc -->
            <path d="M2377.6315,1116.9264 A50,50 0 0,1 2307.7914,1105.8648" style="stroke:#000000;stroke-width:0.1;"/>
            <!-- Arc -->
            <path d="M2393.5165,1715.8153 A50,50 0 0,1 2343.5165,1665.8153" style="stroke:#000000;stroke-width:0.1;"/>
            <!-- Arc -->
            <path d="M2343.5165,1215.8153 A50,50 0 0,1 2393.5165,1165.8153" style="stroke:#000000;stroke-width:0.1;"/>
            <!-- Line -->
            <path d="M2377.6315,1764.7043 L2643.3425,1995.1278 " style="stroke:#000000;stroke-width:0.1;"/>
            <!-- Arc -->
            <path d="M2651.7525,2028.393 A843.9175,843.9175 0 0,1 2389.8405,2388.8839" style="stroke:#000000;stroke-width:0.1;"/>
            <!-- Arc -->
            <path d="M1489.6811,2409.838 A50,50 0 0,1 1521.7831,2346.8343" style="stroke:#000000;stroke-width:0.1;"/>
            <!-- Arc -->
            <path d="M1406.1742,2346.8343 A50,50 0 0,1 1438.2762,2409.838" style="stroke:#000000;stroke-width:0.1;"/>
            <!-- Arc -->
            <path d="M915.1951,2239.8787 A50,50 0 0,1 978.1988,2207.7767" style="stroke:#000000;stroke-width:0.1;"/>
            <!-- Line -->
            <path d="M978.1988,2207.7767 L1406.1742,2346.8343 " style="stroke:#000000;stroke-width:0.1;"/>
            <!-- Line -->
            <path d="M1521.7831,2346.8343 L1949.7585,2207.7767 " style="stroke:#000000;stroke-width:0.1;"/>
            <!-- Line -->
            <path d="M1489.6811,2409.838 L1626.7176,2733.749 " style="stroke:#000000;stroke-width:0.1;"/>
            <!-- Line -->
            <path d="M1438.2762,2409.838 L1301.2397,2733.749 " style="stroke:#000000;stroke-width:0.1;"/>
            <!-- Arc -->
            <path d="M2102.3772,2692.8196 A30,30 0 0,1 2146.4283,2707.0385" style="stroke:#000000;stroke-width:0.1;"/>
            <!-- Arc -->
            <path d="M2079.5384,2614.3316 A843.9175,843.9175 0 0,1 1655.7559,2752.0269" style="stroke:#000000;stroke-width:0.1;"/>
            <!-- Arc -->
            <path d="M2102.3772,2692.8196 A873.9175,873.9175 0 0,1 1683.4131,2828.9493" style="stroke:#000000;stroke-width:0.1;"/>
            <!-- Arc -->
            <path d="M1272.2014,2752.0269 A843.9175,843.9175 0 0,1 848.4189,2614.3316" style="stroke:#000000;stroke-width:0.1;"/>
            <!-- Arc -->
            <path d="M1244.5443,2828.9493 A873.9175,873.9175 0 0,1 825.5801,2692.8196" style="stroke:#000000;stroke-width:0.1;"/>
            <!-- Arc -->
            <path d="M2716.3636,2078.4669 A30,30 0 0,1 2760.3593,2064.0775" style="stroke:#000000;stroke-width:0.1;"/>
            <!-- Line -->
            <path d="M2393.5165,1715.8153 L2743.9208,1685.5798 " style="stroke:#000000;stroke-width:0.1;"/>
            <!-- Line -->
            <path d="M2393.5165,1165.8153 L2743.9208,1196.0508 " style="stroke:#000000;stroke-width:0.1;"/>
            <!-- Arc -->
            <path d="M2716.3636,2078.4669 A873.9175,873.9175 0 0,1 2457.4295,2434.859" style="stroke:#000000;stroke-width:0.1;"/>
            <!-- Arc -->
            <path d="M2765.37,2094.7972 A973.9175,973.9175 0 0,1 2488.1044,2476.4205" style="stroke:#000000;stroke-width:0.1;"/>
            <!-- Line -->
            <path d="M550.3258,1116.9264 L284.6148,886.5029 " style="stroke:#000000;stroke-width:0.1;"/>
            <!-- Line -->
            <path d="M884.6693,741.8071 L620.1659,1105.8648 " style="stroke:#000000;stroke-width:0.1;"/>
            <!-- Arc -->
            <path d="M873.6077,671.967 A50,50 0 0,1 884.6693,741.8071" style="stroke:#000000;stroke-width:0.1;"/>
            <!-- Arc -->
            <path d="M835.6699,299.1545 A30,30 0 0,1 848.4189,267.2991" style="stroke:#000000;stroke-width:0.1;"/>
            <!-- Arc -->
            <path d="M825.5801,188.811 A30,30 0 0,1 781.529,174.5922" style="stroke:#000000;stroke-width:0.1;"/>
            <!-- Arc -->
            <path d="M781.529,174.5922 A30,30 0 0,1 795.5319,146.7943" style="stroke:#000000;stroke-width:0.1;"/>
            <!-- Arc -->
            <path d="M211.5937,803.1638 A30,30 0 0,1 167.598,817.5531" style="stroke:#000000;stroke-width:0.1;"/>
            <!-- Arc -->
            <path d="M167.598,817.5531 A30,30 0 0,1 162.5873,786.8335" style="stroke:#000000;stroke-width:0.1;"/>
            <!-- Arc -->
            <path d="M284.6148,886.5029 A30,30 0 0,1 276.2048,853.2376" style="stroke:#000000;stroke-width:0.1;"/>
            <!-- Arc -->
            <path d="M538.1168,492.7468 A30,30 0 0,1 572.3527,490.4656" style="stroke:#000000;stroke-width:0.1;"/>
            <!-- Arc -->
            <path d="M470.6174,400.4827 A30,30 0 0,1 470.5278,446.7716" style="stroke:#000000;stroke-width:0.1;"/>
            <!-- Arc -->
            <path d="M439.8529,405.2101 A30,30 0 0,1 470.6174,400.4827" style="stroke:#000000;stroke-width:0.1;"/>
            <!-- Arc -->
            <path d="M162.5873,786.8335 A973.9175,973.9175 0 0,1 439.8529,405.2101" style="stroke:#000000;stroke-width:0.1;"/>
            <!-- Arc -->
            <path d="M211.5937,803.1638 A873.9175,873.9175 0 0,1 470.5278,446.7716" style="stroke:#000000;stroke-width:0.1;"/>
            <!-- Arc -->
            <path d="M276.2048,853.2376 A843.9175,843.9175 0 0,1 538.1168,492.7468" style="stroke:#000000;stroke-width:0.1;"/>
            <!-- Line -->
            <path d="M915.1951,641.752 L835.6699,299.1545 " style="stroke:#000000;stroke-width:0.1;"/>
            <!-- Line -->
            <path d="M873.6077,671.967 L572.3527,490.4656 " style="stroke:#000000;stroke-width:0.1;"/>
            <!-- Arc -->
            <path d="M795.5319,2734.8364 A30,30 0 0,1 781.529,2707.0385" style="stroke:#000000;stroke-width:0.1;"/>
            <!-- Arc -->
            <path d="M884.6693,2139.8235 A50,50 0 0,1 873.6077,2209.6636" style="stroke:#000000;stroke-width:0.1;"/>
            <!-- Arc -->
            <path d="M848.4189,2614.3316 A30,30 0 0,1 835.6699,2582.4762" style="stroke:#000000;stroke-width:0.1;"/>
            <!-- Arc -->
            <path d="M470.6174,2481.148 A30,30 0 0,1 439.8529,2476.4205" style="stroke:#000000;stroke-width:0.1;"/>
            <!-- Arc -->
            <path d="M572.3527,2391.165 A30,30 0 0,1 538.1168,2388.8839" style="stroke:#000000;stroke-width:0.1;"/>
            <!-- Arc -->
            <path d="M167.598,2064.0775 A30,30 0 0,1 211.5937,2078.4669" style="stroke:#000000;stroke-width:0.1;"/>
            <!-- Arc -->
            <path d="M162.5873,2094.7972 A30,30 0 0,1 167.598,2064.0775" style="stroke:#000000;stroke-width:0.1;"/>
            <!-- Arc -->
            <path d="M276.2048,2028.393 A30,30 0 0,1 284.6148,1995.1278" style="stroke:#000000;stroke-width:0.1;"/>
            <!-- Arc -->
            <path d="M584.4408,1665.8153 A50,50 0 0,1 534.4408,1715.8153" style="stroke:#000000;stroke-width:0.1;"/>
            <!-- Arc -->
            <path d="M184.0366,1685.5798 A30,30 0 0,1 157.68,1663.6109" style="stroke:#000000;stroke-width:0.1;"/>
            <!-- Line -->
            <path d="M534.4408,1715.8153 L184.0366,1685.5798 " style="stroke:#000000;stroke-width:0.1;"/>
            <!-- Line -->
            <path d="M550.3258,1764.7043 L284.6148,1995.1278 " style="stroke:#000000;stroke-width:0.1;"/>
            <!-- Arc -->
            <path d="M157.68,1218.0197 A30,30 0 0,1 184.0366,1196.0508" style="stroke:#000000;stroke-width:0.1;"/>
            <!-- Line -->
            <path d="M584.4408,1215.8153 L584.4408,1665.8153 " style="stroke:#000000;stroke-width:0.1;"/>
            <!-- Arc -->
            <path d="M470.5278,2434.859 A873.9175,873.9175 0 0,1 211.5937,2078.4669" style="stroke:#000000;stroke-width:0.1;"/>
            <!-- Arc -->
            <path d="M538.1168,2388.8839 A843.9175,843.9175 0 0,1 276.2048,2028.393" style="stroke:#000000;stroke-width:0.1;"/>
            <!-- Arc -->
            <path d="M550.3258,1764.7043 A50,50 0 0,1 620.1659,1775.7659" style="stroke:#000000;stroke-width:0.1;"/>
            <!-- Arc -->
            <path d="M470.5278,2434.859 A30,30 0 0,1 470.6174,2481.148" style="stroke:#000000;stroke-width:0.1;"/>
            <!-- Arc -->
            <path d="M439.8529,2476.4205 A973.9175,973.9175 0 0,1 162.5873,2094.7972" style="stroke:#000000;stroke-width:0.1;"/>
            <!-- Arc -->
            <path d="M75.9758,1661.0778 A30,30 0 0,1 48.8403,1698.579" style="stroke:#000000;stroke-width:0.1;"/>
            <!-- Arc -->
            <path d="M48.8403,1698.579 A30,30 0 0,1 26.7301,1676.6715" style="stroke:#000000;stroke-width:0.1;"/>
            <!-- Arc -->
            <path d="M48.8403,1183.0516 A30,30 0 0,1 75.9758,1220.5528" style="stroke:#000000;stroke-width:0.1;"/>
            <!-- Arc -->
            <path d="M26.7301,1204.9591 A30,30 0 0,1 48.8403,1183.0516" style="stroke:#000000;stroke-width:0.1;"/>
            <!-- Arc -->
            <path d="M26.7301,1676.6715 A973.9175,973.9175 0 0,1 26.7301,1204.9591" style="stroke:#000000;stroke-width:0.1;"/>
            <!-- Arc -->
            <path d="M75.9758,1661.0778 A873.9175,873.9175 0 0,1 75.9758,1220.5528" style="stroke:#000000;stroke-width:0.1;"/>
            <!-- Arc -->
            <path d="M157.68,1663.6109 A843.9175,843.9175 0 0,1 157.68,1218.0197" style="stroke:#000000;stroke-width:0.1;"/>
            <!-- Arc -->
            <path d="M620.1659,1105.8648 A50,50 0 0,1 550.3258,1116.9264" style="stroke:#000000;stroke-width:0.1;"/>
            <!-- Arc -->
            <path d="M534.4408,1165.8153 A50,50 0 0,1 584.4408,1215.8153" style="stroke:#000000;stroke-width:0.1;"/>
            <!-- Line -->
            <path d="M534.4408,1165.8153 L184.0366,1196.0508 " style="stroke:#000000;stroke-width:0.1;"/>
            <!-- Line -->
            <path d="M915.1951,2239.8787 L835.6699,2582.4762 " style="stroke:#000000;stroke-width:0.1;"/>
            <!-- Line -->
            <path d="M620.1659,1775.7659 L884.6693,2139.8235 " style="stroke:#000000;stroke-width:0.1;"/>
            <!-- Line -->
            <path d="M873.6077,2209.6636 L572.3527,2391.165 " style="stroke:#000000;stroke-width:0.1;"/>
            <!-- Arc -->
            <path d="M781.529,2707.0385 A30,30 0 0,1 825.5801,2692.8196" style="stroke:#000000;stroke-width:0.1;"/>
        </g>
    </g>
</svg>

