<?xml version="1.0" encoding="UTF-8"?>
<!-- 2026-03-10 12:44:17 Generated by QCAD 3.32.6 SVG Exporter -->
<svg  width="2982.938mm" height="6573.3662mm" viewBox="288.6565 -6717.0736 2982.938 6573.3662" version="1.1" xmlns="http://www.w3.org/2000/svg" style="stroke-linecap:round;stroke-linejoin:round;">
    <g transform="scale(1,-1)">
        <g>
            <!-- Table Curves -->
            <path d="M2728.24,365.9242 L2493.22,917.98 " style="stroke:#000000;stroke-width:0.1;"/>
            <path d="M2701.9576,376.6016 L2482.5822,891.9084 " style="stroke:#000000;stroke-width:0.1;"/>
            <path d="M573.9233,5426.3568 L338.8697,5978.4913 " style="stroke:#000000;stroke-width:0.1;"/>
            <path d="M584.3987,5452.8096 L365.0463,5968.0627 " style="stroke:#000000;stroke-width:0.1;"/>
            <path d="M2728.24,365.9242 A1700.2203,1700.2203 0 0,0 508.8264,1239.2121" style="stroke:#000000;stroke-width:0.1;"/>
            <path d="M2701.9576,376.6016 A1680.2203,1680.2203 0 0,0 527.0997,1247.3413" style="stroke:#000000;stroke-width:0.1;"/>
            <path d="M2493.22,917.98 A1100.2203,1100.2203 0 0,0 1057.0273,1483.0885" style="stroke:#000000;stroke-width:0.1;"/>
            <path d="M2482.5822,891.9084 A1120.2203,1120.2203 0 0,0 1038.7539,1474.9593" style="stroke:#000000;stroke-width:0.1;"/>
            <path d="M508.8264,1239.2121 A1677.3031,1677.3031 0 0,0 1416.0449,3448.2356" style="stroke:#000000;stroke-width:0.1;"/>
            <path d="M527.2282,1247.0461 A1657.3031,1657.3031 0 0,0 1423.6291,3429.7294" style="stroke:#000000;stroke-width:0.1;"/>
            <path d="M1060.8822,1474.2321 A1077.3031,1077.3031 0 0,0 1646.5198,2894.2527" style="stroke:#000000;stroke-width:0.1;"/>
            <path d="M1042.4803,1466.3981 A1097.3031,1097.3031 0 0,0 1638.8635,2912.7297" style="stroke:#000000;stroke-width:0.1;"/>
            <path d="M2559.9673,5101.2479 A1700.2203,1700.2203 0 0,0 1646.5198,2894.2527" style="stroke:#000000;stroke-width:0.1;"/>
            <path d="M2541.4417,5093.7111 A1680.2203,1680.2203 0 0,0 1638.8635,2912.7297" style="stroke:#000000;stroke-width:0.1;"/>
            <path d="M2004.1998,4875.1452 A1100.2203,1100.2203 0 0,0 1416.0449,3448.2356" style="stroke:#000000;stroke-width:0.1;"/>
            <path d="M2022.7253,4882.682 A1120.2203,1120.2203 0 0,0 1423.8789,3429.8338" style="stroke:#000000;stroke-width:0.1;"/>
            <path d="M338.8697,5978.4913 A1677.3031,1677.3031 0 0,0 2559.9673,5101.2479" style="stroke:#000000;stroke-width:0.1;"/>
            <path d="M365.0463,5968.0627 A1657.3031,1657.3031 0 0,0 2541.5655,5093.4139" style="stroke:#000000;stroke-width:0.1;"/>
            <path d="M573.9233,5426.3568 A1077.3031,1077.3031 0 0,0 2007.9115,4866.2279" style="stroke:#000000;stroke-width:0.1;"/>
            <path d="M584.3987,5452.8096 A1097.3031,1097.3031 0 0,0 2026.3134,4874.0619" style="stroke:#000000;stroke-width:0.1;"/>

            <!-- Chair 1 (GOOD with 1) -->
            <g>
                <path d="M2204.5618,1344.828 A664.583,664.583 0 0,1 2113.0229,1349.6651" style="stroke:#000000;stroke-width:0.1;"/>
                <path d="M2205.3339,1359.4392 A664.583,664.583 0 0,1 2113.7949,1364.2763" style="stroke:#000000;stroke-width:0.1;"/>
                <path d="M2300.1641,1384.2662 A689.911,689.911 0 0 1 2022.1093,1398.9591" style="stroke:#000000;stroke-width:0.1;"/>
                <path d="M2204.5618,1344.828 L2205.3339,1359.4392 A687.5,687.5 0 0 1 2303.8504,1340.2297 A10.4167,10.4167 0 0 1 2316.8185,1348.3363 L2321.0073,1386.1884 A15.625,15.625 0 0 1 2309.525,1402.9986 A710.417,710.417 0 0 1 2014.7748,1418.5737 A15.625,15.625 0 0 1 2001.5848,1403.0673 L2001.7611,1364.9845 A10.4167,10.4167 0 0 1 2013.8026,1355.5563 A687.5,687.5 0 0 1 2113.7949,1364.2763 L2113.0229,1349.6651 A664.583,664.583 0 0 1 2022.9908,1342.0612 A68.75,68.75 0 0 1 1965.7459,1286.2222 L1927.1056,1063.0519 L1925.3905,1053.4718 A91.6667,91.6667 0 0 1 1992.8179,948.5333 A733.333,733.333 0 0 1 2281.8224,933.2618 A91.6667,91.6667 0 0 1 2359.9336,1030.5097 L2359.2377,1040.2173 L2344.3323,1266.217 A68.75,68.75 0 0 1 2293.2912,1327.7781 A664.583,664.583 0 0 1 2204.5618,1344.828 Z" style="stroke:#000000;stroke-width:0.1;"/>
            </g>

            <!-- Chair 2 (GOOD with 1) -->
            <g>
                <path d="M1541.7478,1749.43 A664.583,664.583 0 0,1 1515.3698,1837.2194" style="stroke:#000000;stroke-width:0.1;"/>
                <path d="M1555.7605,1753.6404 A664.583,664.583 0 0,1 1529.3825,1841.4298" style="stroke:#000000;stroke-width:0.1;"/>
                <path d="M1611.1699,1672.7766 A689.911,689.911 0 0 1 1531.0452,1939.442" style="stroke:#000000;stroke-width:0.1;"/>
                <path d="M1541.7478,1749.43 L1555.7605,1753.6404 A687.5,687.5 0 0 1 1570.969,1654.4275 A10.4167,10.4167 0 0 1 1582.9807,1644.9613 L1620.0219,1653.8089 A15.625,15.625 0 0 1 1631.9635,1670.2959 A710.417,710.417 0 0 1 1547.0279,1952.9728 A15.625,15.625 0 0 1 1527.9767,1960.1475 L1492.1933,1947.1135 A10.4167,10.4167 0 0 1 1487.3885,1932.5945 A687.5,687.5 0 0 1 1529.3825,1841.4298 L1515.3698,1837.2194 A664.583,664.583 0 0 1 1477.7918,1919.3869 A68.75,68.75 0 0 1 1405.8942,1954.397 L1182.7936,1915.3565 L1173.1974,1913.7336 A91.6667,91.6667 0 0 1 1097.2144,1814.8139 A733.333,733.333 0 0 1 1180.4944,1537.6474 A91.6667,91.6667 0 0 1 1298.4159,1496.99 L1307.3174,1500.9251 L1514.9882,1591.318 A68.75,68.75 0 0 1 1555.6819,1660.1583 A664.583,664.583 0 0 1 1541.7478,1749.43 Z" style="stroke:#000000;stroke-width:0.1;"/>
            </g>

            <!-- Chair 3 (Transition - Flip to 0) -->
            <g>
                <path d="M1813.8771,2386.0383 A664.583,664.583 0 0,0 1735.0937,2339.1774" style="stroke:#000000;stroke-width:0.1;"/>
                <path d="M1821.3569,2373.4631 A664.583,664.583 0 0,0 1742.5735,2326.6022" style="stroke:#000000;stroke-width:0.1;"/>
                <path d="M1916.852,2395.5954 A689.911,689.911 0 0 0 1677.5428,2253.2525" style="stroke:#000000;stroke-width:0.1;"/>
                <path d="M1813.8771,2386.0383 L1821.3569,2373.4631 A687.5,687.5 0 0 0 1899.6318,2436.2926 A10.4167,10.4167 0 0 0 1914.8823,2435.1485 L1936.1972,2403.5889 A15.625,15.625 0 0 0 1933.8519,2383.367 A710.417,710.417 0 0 0 1680.1738,2232.4774 A15.625,15.625 0 0 0 1661.2848,2240.0689 L1643.7267,2273.8631 A10.4167,10.4167 0 0 0 1650.0009,2287.8103 A687.5,687.5 0 0 0 1742.5735,2326.6022 L1735.0937,2339.1774 A664.583,664.583 0 0 0 1651.8573,2304.0304 A68.75,68.75 0 0 0 1575.2089,2326.8338 L1437.1964,2506.4182 L1431.2219,2514.1011 A91.6667,91.6667 0 0 0 1442.0992,2638.3598 A733.333,733.333 0 0 0 1690.8322,2786.3081 A91.6667,91.6667 0 0 0 1805.2134,2736.5541 L1809.1128,2727.6369 L1901.041,2520.6412 A68.75,68.75 0 0 0 1884.4926,2442.4036 A664.583,664.583 0 0 0 1813.8771,2386.0383 Z" style="stroke:#000000;stroke-width:0.1;"/>
            </g>

            <!-- Chair 4 (Transition - Flip to 0) -->
            <g>
                <path d="M2638.0182,2953.022 A664.583,664.583 0 0,0 2572.1433,2889.2782" style="stroke:#000000;stroke-width:0.1;"/>
                <path d="M2648.1928,2942.5072 A664.583,664.583 0 0,0 2582.3179,2878.7634" style="stroke:#000000;stroke-width:0.1;"/>
                <path d="M2736.0248,2986.0353 A689.911,689.911 0 0 0 2535.9259,2792.4099" style="stroke:#000000;stroke-width:0.1;"/>
                <path d="M2638.0182,2953.022 L2648.1928,2942.5072 A687.5,687.5 0 0 0 2709.8957,3021.6732 A10.4167,10.4167 0 0 0 2724.9998,3024.0718 L2753.0094,2998.2687 A15.625,15.625 0 0 0 2755.3838,2978.0502 A710.417,710.417 0 0 0 2543.2702,2772.7989 A15.625,15.625 0 0 0 2523.1407,2775.8367 L2498.2724,2804.6794 A10.4167,10.4167 0 0 0 2501.1662,2819.6965 A687.5,687.5 0 0 0 2582.3179,2878.7634 L2572.1433,2889.2782 A664.583,664.583 0 0 0 2499.2376,2835.9083 A68.75,68.75 0 0 0 2419.398,2840.4482 L2243.7399,2983.4247 L2236.1569,2989.5254 A91.6667,91.6667 0 0 0 2218.1275,3112.9493 A733.333,733.333 0 0 0 2426.1062,3314.1995 A91.6667,91.6667 0 0 0 2548.8707,3292.1224 L2554.7188,3284.3429 L2691.8433,3104.0794 A68.75,68.75 0 0 0 2693.7561,3024.1338 A664.583,664.583 0 0 0 2638.0182,2953.022 Z" style="stroke:#000000;stroke-width:0.1;"/>
            </g>

            <!-- Chair 5 (GOOD with 0) -->
            <g>
                <path d="M3079.5318,3754.1333 A664.583,664.583 0 0,0 3055.4094,3665.6975" style="stroke:#000000;stroke-width:0.1;"/>
                <path d="M3093.6477,3750.283 A664.583,664.583 0 0,0 3069.5253,3661.8472" style="stroke:#000000;stroke-width:0.1;"/>
                <path d="M3146.9693,3832.5384 A689.911,689.911 0 0 0 3073.6961,3563.9096" style="stroke:#000000;stroke-width:0.1;"/>
                <path d="M3079.5318,3754.1333 L3093.6477,3750.283 A687.5,687.5 0 0 0 3106.3119,3849.8526 A10.4167,10.4167 0 0 0 3118.0773,3859.6232 L3155.3329,3851.7265 A15.625,15.625 0 0 0 3167.6926,3835.5505 A710.417,710.417 0 0 0 3090.0199,3550.7923 A15.625,15.625 0 0 0 3071.1585,3543.1324 L3035.0533,3555.2462 A10.4167,10.4167 0 0 0 3029.8784,3569.6375 A687.5,687.5 0 0 0 3069.5253,3661.8472 L3055.4094,3665.6975 A664.583,664.583 0 0 0 3019.9468,3582.5952 A68.75,68.75 0 0 0 2948.9689,3545.7563 L2724.9421,3579.0738 L2715.3075,3580.4505 A91.6667,91.6667 0 0 0 2636.8176,3677.393 A733.333,733.333 0 0 0 2712.9762,3956.6003 A91.6667,91.6667 0 0 0 2829.8185,4000.2626 L2838.8178,3996.5566 L3048.7341,3911.5086 A68.75,68.75 0 0 0 3091.1765,3843.7324 A664.583,664.583 0 0 0 3079.5318,3754.1333 Z" style="stroke:#000000;stroke-width:0.1;"/>
            </g>

            <!-- Chair 6 (GOOD with 0) -->
            <g>
                <path d="M3161.1268,4688.1155 A664.583,664.583 0 0,0 3176.4633,4597.7409" style="stroke:#000000;stroke-width:0.1;"/>
                <path d="M3175.5521,4690.5635 A664.583,664.583 0 0,0 3190.8886,4600.1889" style="stroke:#000000;stroke-width:0.1;"/>
                <path d="M3189.3041,4787.6204 A689.911,689.911 0 0 0 3235.8895,4513.1023" style="stroke:#000000;stroke-width:0.1;"/>
                <path d="M3161.1268,4688.1155 L3175.5521,4690.5635 A687.5,687.5 0 0 0 3145.1359,4786.2157 A10.4167,10.4167 0 0 0 3151.6967,4800.0304 L3188.8156,4808.5463 A15.625,15.625 0 0 0 3206.8351,4799.0742 A710.417,710.417 0 0 0 3256.2178,4508.0731 A15.625,15.625 0 0 0 3242.3318,4493.1868 L3204.4816,4488.9804 A10.4167,10.4167 0 0 0 3193.7307,4499.8573 A687.5,687.5 0 0 0 3190.8886,4600.1889 L3176.4633,4597.7409 A664.583,664.583 0 0 0 3179.2681,4507.4318 A68.75,68.75 0 0 0 3130.3858,4444.1429 L2913.1431,4380.0835 L2903.8238,4377.2776 A91.6667,91.6667 0 0 0 2791.8247,4432.1841 A733.333,733.333 0 0 0 2743.4047,4717.5125 A91.6667,91.6667 0 0 0 2831.0202,4806.2934 L2840.7434,4806.719 L3066.9572,4817.9138 A68.75,68.75 0 0 0 3133.9818,4774.2941 A664.583,664.583 0 0 0 3161.1268,4688.1155 Z" style="stroke:#000000;stroke-width:0.1;"/>
            </g>

            <!-- Chair 7 (Transition - Flip to 1) -->
            <g>
                <path d="M2930.2179,5427.8363 A664.583,664.583 0 0,1 2890.9138,5510.6492" style="stroke:#000000;stroke-width:0.1;"/>
                <path d="M2943.4363,5434.1099 A664.583,664.583 0 0,1 2904.1322,5516.9228" style="stroke:#000000;stroke-width:0.1;"/>
                <path d="M3010.3968,5362.5178 A689.911,689.911 0 0 1 2891.0086,5614.0666" style="stroke:#000000;stroke-width:0.1;"/>
                <path d="M2930.2179,5427.8363 L2943.4363,5434.1099 A687.5,687.5 0 0 1 2973.4195,5338.3211 A10.4167,10.4167 0 0 1 2986.7203,5330.7727 L3022.0056,5345.1003 A15.625,15.625 0 0 1 3031.3268,5363.1984 A710.417,710.417 0 0 1 2904.7701,5629.8511 A15.625,15.625 0 0 1 2884.8554,5634.0734 L2851.4443,5615.7968 A10.4167,10.4167 0 0 1 2848.8819,5600.7196 A687.5,687.5 0 0 1 2904.1322,5516.9228 L2890.9138,5510.6492 A664.583,664.583 0 0 1 2841.3847,5586.2168 A68.75,68.75 0 0 1 2765.033,5609.9945 L2550.3615,5537.7853 L2541.1193,5534.7351 A91.6667,91.6667 0 0 1 2480.9079,5425.4963 A733.333,733.333 0 0 1 2604.9976,5164.0416 A91.6667,91.6667 0 0 1 2727.6988,5141.6155 L2735.9058,5146.8468 L2927.5864,5267.4974 A68.75,68.75 0 0 1 2957.4434,5341.6832 A664.583,664.583 0 0 1 2930.2179,5427.8363 Z" style="stroke:#000000;stroke-width:0.1;"/>
            </g>

            <!-- Chair 8 (Transition - Flip to 1) -->
            <g>
                <path d="M2391.1967,6155.51 A664.583,664.583 0 0,1 2318.4164,6211.2398" style="stroke:#000000;stroke-width:0.1;"/>
                <path d="M2400.0921,6167.127 A664.583,664.583 0 0,1 2327.3119,6222.8568" style="stroke:#000000;stroke-width:0.1;"/>
                <path d="M2492.3542,6134.0079 A689.911,689.911 0 0 1 2271.28,6303.2905" style="stroke:#000000;stroke-width:0.1;"/>
                <path d="M2391.1967,6155.51 L2400.0921,6167.127 A687.5,687.5 0 0 1 2470.5048,6095.5969 A10.4167,10.4167 0 0 1 2485.7847,6094.9545 L2510.635,6123.8127 A15.625,15.625 0 0 1 2510.635,6123.8127 A15.625,15.625 0 0 1 2510.6642,6144.1701 A710.417,710.417 0 0 1 2276.316,6323.617 A15.625,15.625 0 0 1 2256.6705,6318.2803 L2235.2908,6286.7646 A10.4167,10.4167 0 0 1 2239.8954,6272.1808 A687.5,687.5 0 0 1 2327.3119,6222.8568 L2318.4164,6211.2398 A664.583,664.583 0 0 1 2239.8474,6255.8549 A68.75,68.75 0 0 1 2161.0625,6242.1468 L2003.0466,6079.8847 L1996.2168,6072.951 A91.6667,91.6667 0 0 1 1992.5273,5948.2718 A733.333,733.333 0 0 1 2222.3073,5772.323 A91.6667,91.6667 0 0 1 2341.7108,5808.3969 L2346.6236,5816.7984 L2462.0667,6011.6596 A68.75,68.75 0 0 1 2454.7562,6091.2933 A664.583,664.583 0 0 1 2391.1967,6155.51 Z" style="stroke:#000000;stroke-width:0.1;"/>
            </g>

            <!-- Chair 9 (GOOD with 1) -->
            <g>
                <path d="M1553.8507,6591.4038 A664.583,664.583 0 0,1 1463.4051,6606.316" style="stroke:#000000;stroke-width:0.1;"/>
                <path d="M1556.231,6605.8405 A664.583,664.583 0 0,1 1465.7854,6620.7527" style="stroke:#000000;stroke-width:0.1;"/>
                <path d="M1653.2223,6620.0477 A689.911,689.911 0 0 1 1378.4886,6665.3445" style="stroke:#000000;stroke-width:0.1;"/>
                <path d="M1553.8507,6591.4038 L1556.231,6605.8405 A687.5,687.5 0 0 1 1652.0249,6575.8735 A10.4167,10.4167 0 0 1 1665.8086,6582.499 L1674.1502,6619.6574 A15.625,15.625 0 0 1 1664.5937,6637.6324 A710.417,710.417 0 0 1 1373.3641,6685.6489 A15.625,15.625 0 0 1 1358.543,6671.6932 L1354.5144,6633.8237 A10.4167,10.4167 0 0 1 1365.4416,6623.1239 A687.5,687.5 0 0 1 1465.7854,6620.7527 L1463.4051,6606.316 A664.583,664.583 0 0 1 1373.0839,6608.697 A68.75,68.75 0 0 1 1310.025,6559.5183 L1246.9858,6341.9773 L1244.2236,6332.645 A91.6667,91.6667 0 0 1 1299.6551,6220.9048 A733.333,733.333 0 0 1 1585.2076,6173.8243 A91.6667,91.6667 0 0 1 1673.5764,6261.8555 L1673.9563,6271.5805 L1684.0895,6497.8444 A68.75,68.75 0 0 0 1640.1557,6564.6635 A664.583,664.583 0 0 1 1553.8507,6591.4038 Z" style="stroke:#000000;stroke-width:0.1;"/>
            </g>

            <!-- Chair 10 (GOOD with 1) -->
            <g>
                <path d="M596.6983,6602.2988 A664.583,664.583 0 0,1 507.5761,6580.8508" style="stroke:#000000;stroke-width:0.1;"/>
                <path d="M593.2748,6616.5242 A664.583,664.583 0 0,1 504.1526,6595.0762" style="stroke:#000000;stroke-width:0.1;"/>
                <path d="M677.0988,6667.3443 A689.911,689.911 0 0 1 406.3851,6602.1948" style="stroke:#000000;stroke-width:0.1;"/>
                <path d="M596.6983,6602.2988 L593.2748,6616.5242 A687.5,687.5 0 0 1 693.1807,6626.1839 A10.4167,10.4167 0 0 1 703.3011,6637.6498 L696.5301,6675.1262 A15.625,15.625 0 0 1 680.7337,6687.9675 A710.417,710.417 0 0 1 393.7654,6618.9062 A15.625,15.625 0 0 1 385.5409,6600.2841 L396.5618,6563.8304 A10.4167,10.4167 0 0 1 410.7907,6558.2245 A687.5,687.5 0 0 1 504.1526,6595.0762 L507.5761,6580.8508 A664.583,664.583 0 0 1 423.4434,6547.9071 A68.75,68.75 0 0 0 384.4836,6478.0708 L411.0388,6253.1423 L412.1248,6243.4706 A91.6667,91.6667 0 0 1 506.6594,6162.0966 A733.333,733.333 0 0 1 788.0337,6229.8117 A91.6667,91.6667 0 0 1 835.1952,6345.286 L831.7619,6354.3928 L753.0746,6566.7753 A68.75,68.75 0 0 0 686.6074,6611.2397 A664.583,664.583 0 0 1 596.6983,6602.2988 Z" style="stroke:#000000;stroke-width:0.1;"/>
            </g>
        </g>
    </g>
</svg>
