<?xml version="1.0" encoding="UTF-8"?>
<!-- Rebuilt from clean QCAD chair blocks for consistent fills/outlines -->
<svg width="2700mm" height="2017.6001mm" viewBox="7.9792 -2023.9909 2700 2017.6001" version="1.1" xmlns="http://www.w3.org/2000/svg" style="stroke-linecap:round;stroke-linejoin:round;fill:none">
    <g transform="scale(1,-1)">
        <g transform="translate(-1537.5 0)">
            <path id="auto-fill" d="M1658.7874,2004.8062 A216.619,216.619 0 0 0 1668.3712,1917.4204 A1180.69,1180.69 0 0 1 1652.7977,1540.1908 A22.2032,22.2032 0 0 1 1677.2228,1543.119 A12.0328,12.0328 0 0 0 1686.3664,1543.7818 A480.879,480.879 0 0 1 1740.4339,1540.1908 L1870.4792,1540.1908 L2000.5245,1540.1908 A480.879,480.879 0 0 1 2054.592,1543.7818 A12.0328,12.0328 0 0 0 2063.7356,1543.119 A22.2032,22.2032 0 0 1 2088.1607,1540.1908 A1180.69,1180.69 0 0 1 2072.5873,1917.4204 A216.619,216.619 0 0 0 2082.171,2004.8062 A12.6008,12.6008 0 0 1 2071.3895,2023.9908 L1669.5689,2023.9908 A12.6008,12.6008 0 0 1 1658.7874,2004.8062" style="stroke:#000000;stroke-width:0.1;"/>

            <path d="M1658.7874,2004.8062 A216.619,216.619 0 0 0 1668.3712,1917.4204 A1180.69,1180.69 0 0 1 1652.7977,1540.1908 A22.2032,22.2032 0 0 1 1677.2228,1543.119 A12.0328,12.0328 0 0 0 1686.3664,1543.7818 A480.879,480.879 0 0 1 1740.4339,1540.1908 L1870.4792,1540.1908 L2000.5245,1540.1908 A480.879,480.879 0 0 1 2054.592,1543.7818 A12.0328,12.0328 0 0 0 2063.7356,1543.119 A22.2032,22.2032 0 0 1 2088.1607,1540.1908 A1180.69,1180.69 0 0 1 2072.5873,1917.4204 A216.619,216.619 0 0 0 2082.171,2004.8062 A12.6008,12.6008 0 0 1 2071.3895,2023.9908 L1669.5689,2023.9908 A12.6008,12.6008 0 0 1 1658.7874,2004.8062" style="stroke:#000000;stroke-width:0.1;"/>
            <path d="M1870.1634,1916.8436 L1976.9484,1916.8436 " style="stroke:#000000;stroke-width:0.1;"/>
            <path d="M2047.9126,1911.9487 A1154.4088,1154.4088 0 0,0 2063.1394,1543.1148" style="stroke:#000000;stroke-width:0.1;"/>
            <path d="M2047.5249,1914.5406 A240.8687,240.8687 0 0,0 2055.7241,2003.6532" style="stroke:#000000;stroke-width:0.1;"/>
            <path d="M1870.1634,1998.7246 L2053.5848,1998.7246 " style="stroke:#000000;stroke-width:0.1;"/>
            <path d="M1870.1634,2006.9127 L2053.9069,2006.9127 " style="stroke:#000000;stroke-width:0.1;"/>
            <path d="M2053.9069,2006.9127 A2.4177,2.4177 0 0,0 2055.7241,2003.6532" style="stroke:#000000;stroke-width:0.1;"/>
            <path d="M2036.5123,1895.9402 A317.3163,317.3163 0 0,0 2051.2406,1985.2787" style="stroke:#000000;stroke-width:0.1;"/>
            <path d="M1976.9484,1916.8436 A97.8312,97.8312 0 0,0 2054.3957,1877.6296" style="stroke:#000000;stroke-width:0.1;"/>
            <path d="M2053.5184,1998.7246 A0.7251,0.7251 0 0,0 2054.243,1997.782" style="stroke:#000000;stroke-width:0.1;"/>
            <path d="M1870.1634,1997.9058 L2053.5848,1997.9058 " style="stroke:#000000;stroke-width:0.1;"/>
            <path d="M2053.5848,1997.9058 A0.4331,0.4331 0 0,0 2054.1478,1997.425" style="stroke:#000000;stroke-width:0.1;"/>
            <path d="M2054.0091,1543.7766 A12.0153,12.0153 0 0,0 2063.1394,1543.1148" style="stroke:#000000;stroke-width:0.1;"/>
            <path d="M2054.0091,1543.7766 L2055.7741,1563.1776 " style="stroke:#000000;stroke-width:0.1;"/>
            <path d="M2055.7741,1563.1776 L2064.9164,1558.8502 " style="stroke:#000000;stroke-width:0.1;"/>
            <path d="M2055.7741,1563.1776 L2065.3669,1563.1776 " style="stroke:#000000;stroke-width:0.1;"/>
            <path d="M1684.5526,1563.1776 L1674.9599,1563.1776 " style="stroke:#000000;stroke-width:0.1;"/>
            <path d="M1684.5526,1563.1776 L1675.4103,1558.8502 " style="stroke:#000000;stroke-width:0.1;"/>
            <path d="M1686.3177,1543.7766 L1684.5526,1563.1776 " style="stroke:#000000;stroke-width:0.1;"/>
            <path d="M1677.1874,1543.1148 A12.0153,12.0153 0 0,0 1686.3177,1543.7766" style="stroke:#000000;stroke-width:0.1;"/>
            <path d="M1686.179,1997.425 A0.4331,0.4331 0 0,0 1686.742,1997.9058" style="stroke:#000000;stroke-width:0.1;"/>
            <path d="M1870.1634,1997.9058 L1686.742,1997.9058 " style="stroke:#000000;stroke-width:0.1;"/>
            <path d="M1686.0837,1997.782 A0.7251,0.7251 0 0,0 1686.8084,1998.7246" style="stroke:#000000;stroke-width:0.1;"/>
            <path d="M1685.9311,1877.6296 A97.8312,97.8312 0 0,0 1763.3783,1916.8436" style="stroke:#000000;stroke-width:0.1;"/>
            <path d="M1689.0861,1985.2787 A317.3163,317.3163 0 0,0 1703.8145,1895.9402" style="stroke:#000000;stroke-width:0.1;"/>
            <path d="M1684.6027,2003.6532 A2.4177,2.4177 0 0,0 1686.4199,2006.9127" style="stroke:#000000;stroke-width:0.1;"/>
            <path d="M1870.1634,2006.9127 L1686.4199,2006.9127 " style="stroke:#000000;stroke-width:0.1;"/>
            <path d="M1870.1634,1998.7246 L1686.742,1998.7246 " style="stroke:#000000;stroke-width:0.1;"/>
            <path d="M1684.6027,2003.6532 A240.8687,240.8687 0 0,0 1692.8019,1914.5406" style="stroke:#000000;stroke-width:0.1;"/>
            <path d="M1677.1874,1543.1148 A1154.4088,1154.4088 0 0,0 1692.4142,1911.9487" style="stroke:#000000;stroke-width:0.1;"/>
            <path d="M1870.1634,1916.8436 L1763.3783,1916.8436 " style="stroke:#000000;stroke-width:0.1;"/>
        </g>
        <g transform="translate(-1025 0)">
            <path id="auto-fill" d="M1658.7874,2004.8062 A216.619,216.619 0 0 0 1668.3712,1917.4204 A1180.69,1180.69 0 0 1 1652.7977,1540.1908 A22.2032,22.2032 0 0 1 1677.2228,1543.119 A12.0328,12.0328 0 0 0 1686.3664,1543.7818 A480.879,480.879 0 0 1 1740.4339,1540.1908 L1870.4792,1540.1908 L2000.5245,1540.1908 A480.879,480.879 0 0 1 2054.592,1543.7818 A12.0328,12.0328 0 0 0 2063.7356,1543.119 A22.2032,22.2032 0 0 1 2088.1607,1540.1908 A1180.69,1180.69 0 0 1 2072.5873,1917.4204 A216.619,216.619 0 0 0 2082.171,2004.8062 A12.6008,12.6008 0 0 1 2071.3895,2023.9908 L1669.5689,2023.9908 A12.6008,12.6008 0 0 1 1658.7874,2004.8062" style="stroke:#000000;stroke-width:0.1;"/>

            <path d="M1658.7874,2004.8062 A216.619,216.619 0 0 0 1668.3712,1917.4204 A1180.69,1180.69 0 0 1 1652.7977,1540.1908 A22.2032,22.2032 0 0 1 1677.2228,1543.119 A12.0328,12.0328 0 0 0 1686.3664,1543.7818 A480.879,480.879 0 0 1 1740.4339,1540.1908 L1870.4792,1540.1908 L2000.5245,1540.1908 A480.879,480.879 0 0 1 2054.592,1543.7818 A12.0328,12.0328 0 0 0 2063.7356,1543.119 A22.2032,22.2032 0 0 1 2088.1607,1540.1908 A1180.69,1180.69 0 0 1 2072.5873,1917.4204 A216.619,216.619 0 0 0 2082.171,2004.8062 A12.6008,12.6008 0 0 1 2071.3895,2023.9908 L1669.5689,2023.9908 A12.6008,12.6008 0 0 1 1658.7874,2004.8062" style="stroke:#000000;stroke-width:0.1;"/>
            <path d="M1870.1634,1916.8436 L1976.9484,1916.8436 " style="stroke:#000000;stroke-width:0.1;"/>
            <path d="M2047.9126,1911.9487 A1154.4088,1154.4088 0 0,0 2063.1394,1543.1148" style="stroke:#000000;stroke-width:0.1;"/>
            <path d="M2047.5249,1914.5406 A240.8687,240.8687 0 0,0 2055.7241,2003.6532" style="stroke:#000000;stroke-width:0.1;"/>
            <path d="M1870.1634,1998.7246 L2053.5848,1998.7246 " style="stroke:#000000;stroke-width:0.1;"/>
            <path d="M1870.1634,2006.9127 L2053.9069,2006.9127 " style="stroke:#000000;stroke-width:0.1;"/>
            <path d="M2053.9069,2006.9127 A2.4177,2.4177 0 0,0 2055.7241,2003.6532" style="stroke:#000000;stroke-width:0.1;"/>
            <path d="M2036.5123,1895.9402 A317.3163,317.3163 0 0,0 2051.2406,1985.2787" style="stroke:#000000;stroke-width:0.1;"/>
            <path d="M1976.9484,1916.8436 A97.8312,97.8312 0 0,0 2054.3957,1877.6296" style="stroke:#000000;stroke-width:0.1;"/>
            <path d="M2053.5184,1998.7246 A0.7251,0.7251 0 0,0 2054.243,1997.782" style="stroke:#000000;stroke-width:0.1;"/>
            <path d="M1870.1634,1997.9058 L2053.5848,1997.9058 " style="stroke:#000000;stroke-width:0.1;"/>
            <path d="M2053.5848,1997.9058 A0.4331,0.4331 0 0,0 2054.1478,1997.425" style="stroke:#000000;stroke-width:0.1;"/>
            <path d="M2054.0091,1543.7766 A12.0153,12.0153 0 0,0 2063.1394,1543.1148" style="stroke:#000000;stroke-width:0.1;"/>
            <path d="M2054.0091,1543.7766 L2055.7741,1563.1776 " style="stroke:#000000;stroke-width:0.1;"/>
            <path d="M2055.7741,1563.1776 L2064.9164,1558.8502 " style="stroke:#000000;stroke-width:0.1;"/>
            <path d="M2055.7741,1563.1776 L2065.3669,1563.1776 " style="stroke:#000000;stroke-width:0.1;"/>
            <path d="M1684.5526,1563.1776 L1674.9599,1563.1776 " style="stroke:#000000;stroke-width:0.1;"/>
            <path d="M1684.5526,1563.1776 L1675.4103,1558.8502 " style="stroke:#000000;stroke-width:0.1;"/>
            <path d="M1686.3177,1543.7766 L1684.5526,1563.1776 " style="stroke:#000000;stroke-width:0.1;"/>
            <path d="M1677.1874,1543.1148 A12.0153,12.0153 0 0,0 1686.3177,1543.7766" style="stroke:#000000;stroke-width:0.1;"/>
            <path d="M1686.179,1997.425 A0.4331,0.4331 0 0,0 1686.742,1997.9058" style="stroke:#000000;stroke-width:0.1;"/>
            <path d="M1870.1634,1997.9058 L1686.742,1997.9058 " style="stroke:#000000;stroke-width:0.1;"/>
            <path d="M1686.0837,1997.782 A0.7251,0.7251 0 0,0 1686.8084,1998.7246" style="stroke:#000000;stroke-width:0.1;"/>
            <path d="M1685.9311,1877.6296 A97.8312,97.8312 0 0,0 1763.3783,1916.8436" style="stroke:#000000;stroke-width:0.1;"/>
            <path d="M1689.0861,1985.2787 A317.3163,317.3163 0 0,0 1703.8145,1895.9402" style="stroke:#000000;stroke-width:0.1;"/>
            <path d="M1684.6027,2003.6532 A2.4177,2.4177 0 0,0 1686.4199,2006.9127" style="stroke:#000000;stroke-width:0.1;"/>
            <path d="M1870.1634,2006.9127 L1686.4199,2006.9127 " style="stroke:#000000;stroke-width:0.1;"/>
            <path d="M1870.1634,1998.7246 L1686.742,1998.7246 " style="stroke:#000000;stroke-width:0.1;"/>
            <path d="M1684.6027,2003.6532 A240.8687,240.8687 0 0,0 1692.8019,1914.5406" style="stroke:#000000;stroke-width:0.1;"/>
            <path d="M1677.1874,1543.1148 A1154.4088,1154.4088 0 0,0 1692.4142,1911.9487" style="stroke:#000000;stroke-width:0.1;"/>
            <path d="M1870.1634,1916.8436 L1763.3783,1916.8436 " style="stroke:#000000;stroke-width:0.1;"/>
        </g>
        <g transform="translate(-512.5 0)">
            <path id="auto-fill" d="M1658.7874,2004.8062 A216.619,216.619 0 0 0 1668.3712,1917.4204 A1180.69,1180.69 0 0 1 1652.7977,1540.1908 A22.2032,22.2032 0 0 1 1677.2228,1543.119 A12.0328,12.0328 0 0 0 1686.3664,1543.7818 A480.879,480.879 0 0 1 1740.4339,1540.1908 L1870.4792,1540.1908 L2000.5245,1540.1908 A480.879,480.879 0 0 1 2054.592,1543.7818 A12.0328,12.0328 0 0 0 2063.7356,1543.119 A22.2032,22.2032 0 0 1 2088.1607,1540.1908 A1180.69,1180.69 0 0 1 2072.5873,1917.4204 A216.619,216.619 0 0 0 2082.171,2004.8062 A12.6008,12.6008 0 0 1 2071.3895,2023.9908 L1669.5689,2023.9908 A12.6008,12.6008 0 0 1 1658.7874,2004.8062" style="stroke:#000000;stroke-width:0.1;"/>

            <path d="M1658.7874,2004.8062 A216.619,216.619 0 0 0 1668.3712,1917.4204 A1180.69,1180.69 0 0 1 1652.7977,1540.1908 A22.2032,22.2032 0 0 1 1677.2228,1543.119 A12.0328,12.0328 0 0 0 1686.3664,1543.7818 A480.879,480.879 0 0 1 1740.4339,1540.1908 L1870.4792,1540.1908 L2000.5245,1540.1908 A480.879,480.879 0 0 1 2054.592,1543.7818 A12.0328,12.0328 0 0 0 2063.7356,1543.119 A22.2032,22.2032 0 0 1 2088.1607,1540.1908 A1180.69,1180.69 0 0 1 2072.5873,1917.4204 A216.619,216.619 0 0 0 2082.171,2004.8062 A12.6008,12.6008 0 0 1 2071.3895,2023.9908 L1669.5689,2023.9908 A12.6008,12.6008 0 0 1 1658.7874,2004.8062" style="stroke:#000000;stroke-width:0.1;"/>
            <path d="M1870.1634,1916.8436 L1976.9484,1916.8436 " style="stroke:#000000;stroke-width:0.1;"/>
            <path d="M2047.9126,1911.9487 A1154.4088,1154.4088 0 0,0 2063.1394,1543.1148" style="stroke:#000000;stroke-width:0.1;"/>
            <path d="M2047.5249,1914.5406 A240.8687,240.8687 0 0,0 2055.7241,2003.6532" style="stroke:#000000;stroke-width:0.1;"/>
            <path d="M1870.1634,1998.7246 L2053.5848,1998.7246 " style="stroke:#000000;stroke-width:0.1;"/>
            <path d="M1870.1634,2006.9127 L2053.9069,2006.9127 " style="stroke:#000000;stroke-width:0.1;"/>
            <path d="M2053.9069,2006.9127 A2.4177,2.4177 0 0,0 2055.7241,2003.6532" style="stroke:#000000;stroke-width:0.1;"/>
            <path d="M2036.5123,1895.9402 A317.3163,317.3163 0 0,0 2051.2406,1985.2787" style="stroke:#000000;stroke-width:0.1;"/>
            <path d="M1976.9484,1916.8436 A97.8312,97.8312 0 0,0 2054.3957,1877.6296" style="stroke:#000000;stroke-width:0.1;"/>
            <path d="M2053.5184,1998.7246 A0.7251,0.7251 0 0,0 2054.243,1997.782" style="stroke:#000000;stroke-width:0.1;"/>
            <path d="M1870.1634,1997.9058 L2053.5848,1997.9058 " style="stroke:#000000;stroke-width:0.1;"/>
            <path d="M2053.5848,1997.9058 A0.4331,0.4331 0 0,0 2054.1478,1997.425" style="stroke:#000000;stroke-width:0.1;"/>
            <path d="M2054.0091,1543.7766 A12.0153,12.0153 0 0,0 2063.1394,1543.1148" style="stroke:#000000;stroke-width:0.1;"/>
            <path d="M2054.0091,1543.7766 L2055.7741,1563.1776 " style="stroke:#000000;stroke-width:0.1;"/>
            <path d="M2055.7741,1563.1776 L2064.9164,1558.8502 " style="stroke:#000000;stroke-width:0.1;"/>
            <path d="M2055.7741,1563.1776 L2065.3669,1563.1776 " style="stroke:#000000;stroke-width:0.1;"/>
            <path d="M1684.5526,1563.1776 L1674.9599,1563.1776 " style="stroke:#000000;stroke-width:0.1;"/>
            <path d="M1684.5526,1563.1776 L1675.4103,1558.8502 " style="stroke:#000000;stroke-width:0.1;"/>
            <path d="M1686.3177,1543.7766 L1684.5526,1563.1776 " style="stroke:#000000;stroke-width:0.1;"/>
            <path d="M1677.1874,1543.1148 A12.0153,12.0153 0 0,0 1686.3177,1543.7766" style="stroke:#000000;stroke-width:0.1;"/>
            <path d="M1686.179,1997.425 A0.4331,0.4331 0 0,0 1686.742,1997.9058" style="stroke:#000000;stroke-width:0.1;"/>
            <path d="M1870.1634,1997.9058 L1686.742,1997.9058 " style="stroke:#000000;stroke-width:0.1;"/>
            <path d="M1686.0837,1997.782 A0.7251,0.7251 0 0,0 1686.8084,1998.7246" style="stroke:#000000;stroke-width:0.1;"/>
            <path d="M1685.9311,1877.6296 A97.8312,97.8312 0 0,0 1763.3783,1916.8436" style="stroke:#000000;stroke-width:0.1;"/>
            <path d="M1689.0861,1985.2787 A317.3163,317.3163 0 0,0 1703.8145,1895.9402" style="stroke:#000000;stroke-width:0.1;"/>
            <path d="M1684.6027,2003.6532 A2.4177,2.4177 0 0,0 1686.4199,2006.9127" style="stroke:#000000;stroke-width:0.1;"/>
            <path d="M1870.1634,2006.9127 L1686.4199,2006.9127 " style="stroke:#000000;stroke-width:0.1;"/>
            <path d="M1870.1634,1998.7246 L1686.742,1998.7246 " style="stroke:#000000;stroke-width:0.1;"/>
            <path d="M1684.6027,2003.6532 A240.8687,240.8687 0 0,0 1692.8019,1914.5406" style="stroke:#000000;stroke-width:0.1;"/>
            <path d="M1677.1874,1543.1148 A1154.4088,1154.4088 0 0,0 1692.4142,1911.9487" style="stroke:#000000;stroke-width:0.1;"/>
            <path d="M1870.1634,1916.8436 L1763.3783,1916.8436 " style="stroke:#000000;stroke-width:0.1;"/>
        </g>
        <g>
            <path id="auto-fill" d="M1658.7874,2004.8062 A216.619,216.619 0 0 0 1668.3712,1917.4204 A1180.69,1180.69 0 0 1 1652.7977,1540.1908 A22.2032,22.2032 0 0 1 1677.2228,1543.119 A12.0328,12.0328 0 0 0 1686.3664,1543.7818 A480.879,480.879 0 0 1 1740.4339,1540.1908 L1870.4792,1540.1908 L2000.5245,1540.1908 A480.879,480.879 0 0 1 2054.592,1543.7818 A12.0328,12.0328 0 0 0 2063.7356,1543.119 A22.2032,22.2032 0 0 1 2088.1607,1540.1908 A1180.69,1180.69 0 0 1 2072.5873,1917.4204 A216.619,216.619 0 0 0 2082.171,2004.8062 A12.6008,12.6008 0 0 1 2071.3895,2023.9908 L1669.5689,2023.9908 A12.6008,12.6008 0 0 1 1658.7874,2004.8062" style="stroke:#000000;stroke-width:0.1;"/>

            <path d="M1658.7874,2004.8062 A216.619,216.619 0 0 0 1668.3712,1917.4204 A1180.69,1180.69 0 0 1 1652.7977,1540.1908 A22.2032,22.2032 0 0 1 1677.2228,1543.119 A12.0328,12.0328 0 0 0 1686.3664,1543.7818 A480.879,480.879 0 0 1 1740.4339,1540.1908 L1870.4792,1540.1908 L2000.5245,1540.1908 A480.879,480.879 0 0 1 2054.592,1543.7818 A12.0328,12.0328 0 0 0 2063.7356,1543.119 A22.2032,22.2032 0 0 1 2088.1607,1540.1908 A1180.69,1180.69 0 0 1 2072.5873,1917.4204 A216.619,216.619 0 0 0 2082.171,2004.8062 A12.6008,12.6008 0 0 1 2071.3895,2023.9908 L1669.5689,2023.9908 A12.6008,12.6008 0 0 1 1658.7874,2004.8062" style="stroke:#000000;stroke-width:0.1;"/>
            <path d="M1870.1634,1916.8436 L1976.9484,1916.8436 " style="stroke:#000000;stroke-width:0.1;"/>
            <path d="M2047.9126,1911.9487 A1154.4088,1154.4088 0 0,0 2063.1394,1543.1148" style="stroke:#000000;stroke-width:0.1;"/>
            <path d="M2047.5249,1914.5406 A240.8687,240.8687 0 0,0 2055.7241,2003.6532" style="stroke:#000000;stroke-width:0.1;"/>
            <path d="M1870.1634,1998.7246 L2053.5848,1998.7246 " style="stroke:#000000;stroke-width:0.1;"/>
            <path d="M1870.1634,2006.9127 L2053.9069,2006.9127 " style="stroke:#000000;stroke-width:0.1;"/>
            <path d="M2053.9069,2006.9127 A2.4177,2.4177 0 0,0 2055.7241,2003.6532" style="stroke:#000000;stroke-width:0.1;"/>
            <path d="M2036.5123,1895.9402 A317.3163,317.3163 0 0,0 2051.2406,1985.2787" style="stroke:#000000;stroke-width:0.1;"/>
            <path d="M1976.9484,1916.8436 A97.8312,97.8312 0 0,0 2054.3957,1877.6296" style="stroke:#000000;stroke-width:0.1;"/>
            <path d="M2053.5184,1998.7246 A0.7251,0.7251 0 0,0 2054.243,1997.782" style="stroke:#000000;stroke-width:0.1;"/>
            <path d="M1870.1634,1997.9058 L2053.5848,1997.9058 " style="stroke:#000000;stroke-width:0.1;"/>
            <path d="M2053.5848,1997.9058 A0.4331,0.4331 0 0,0 2054.1478,1997.425" style="stroke:#000000;stroke-width:0.1;"/>
            <path d="M2054.0091,1543.7766 A12.0153,12.0153 0 0,0 2063.1394,1543.1148" style="stroke:#000000;stroke-width:0.1;"/>
            <path d="M2054.0091,1543.7766 L2055.7741,1563.1776 " style="stroke:#000000;stroke-width:0.1;"/>
            <path d="M2055.7741,1563.1776 L2064.9164,1558.8502 " style="stroke:#000000;stroke-width:0.1;"/>
            <path d="M2055.7741,1563.1776 L2065.3669,1563.1776 " style="stroke:#000000;stroke-width:0.1;"/>
            <path d="M1684.5526,1563.1776 L1674.9599,1563.1776 " style="stroke:#000000;stroke-width:0.1;"/>
            <path d="M1684.5526,1563.1776 L1675.4103,1558.8502 " style="stroke:#000000;stroke-width:0.1;"/>
            <path d="M1686.3177,1543.7766 L1684.5526,1563.1776 " style="stroke:#000000;stroke-width:0.1;"/>
            <path d="M1677.1874,1543.1148 A12.0153,12.0153 0 0,0 1686.3177,1543.7766" style="stroke:#000000;stroke-width:0.1;"/>
            <path d="M1686.179,1997.425 A0.4331,0.4331 0 0,0 1686.742,1997.9058" style="stroke:#000000;stroke-width:0.1;"/>
            <path d="M1870.1634,1997.9058 L1686.742,1997.9058 " style="stroke:#000000;stroke-width:0.1;"/>
            <path d="M1686.0837,1997.782 A0.7251,0.7251 0 0,0 1686.8084,1998.7246" style="stroke:#000000;stroke-width:0.1;"/>
            <path d="M1685.9311,1877.6296 A97.8312,97.8312 0 0,0 1763.3783,1916.8436" style="stroke:#000000;stroke-width:0.1;"/>
            <path d="M1689.0861,1985.2787 A317.3163,317.3163 0 0,0 1703.8145,1895.9402" style="stroke:#000000;stroke-width:0.1;"/>
            <path d="M1684.6027,2003.6532 A2.4177,2.4177 0 0,0 1686.4199,2006.9127" style="stroke:#000000;stroke-width:0.1;"/>
            <path d="M1870.1634,2006.9127 L1686.4199,2006.9127 " style="stroke:#000000;stroke-width:0.1;"/>
            <path d="M1870.1634,1998.7246 L1686.742,1998.7246 " style="stroke:#000000;stroke-width:0.1;"/>
            <path d="M1684.6027,2003.6532 A240.8687,240.8687 0 0,0 1692.8019,1914.5406" style="stroke:#000000;stroke-width:0.1;"/>
            <path d="M1677.1874,1543.1148 A1154.4088,1154.4088 0 0,0 1692.4142,1911.9487" style="stroke:#000000;stroke-width:0.1;"/>
            <path d="M1870.1634,1916.8436 L1763.3783,1916.8436 " style="stroke:#000000;stroke-width:0.1;"/>
        </g>
        <g transform="translate(512.5 0)">
            <path id="auto-fill" d="M1658.7874,2004.8062 A216.619,216.619 0 0 0 1668.3712,1917.4204 A1180.69,1180.69 0 0 1 1652.7977,1540.1908 A22.2032,22.2032 0 0 1 1677.2228,1543.119 A12.0328,12.0328 0 0 0 1686.3664,1543.7818 A480.879,480.879 0 0 1 1740.4339,1540.1908 L1870.4792,1540.1908 L2000.5245,1540.1908 A480.879,480.879 0 0 1 2054.592,1543.7818 A12.0328,12.0328 0 0 0 2063.7356,1543.119 A22.2032,22.2032 0 0 1 2088.1607,1540.1908 A1180.69,1180.69 0 0 1 2072.5873,1917.4204 A216.619,216.619 0 0 0 2082.171,2004.8062 A12.6008,12.6008 0 0 1 2071.3895,2023.9908 L1669.5689,2023.9908 A12.6008,12.6008 0 0 1 1658.7874,2004.8062" style="stroke:#000000;stroke-width:0.1;"/>

            <path d="M1658.7874,2004.8062 A216.619,216.619 0 0 0 1668.3712,1917.4204 A1180.69,1180.69 0 0 1 1652.7977,1540.1908 A22.2032,22.2032 0 0 1 1677.2228,1543.119 A12.0328,12.0328 0 0 0 1686.3664,1543.7818 A480.879,480.879 0 0 1 1740.4339,1540.1908 L1870.4792,1540.1908 L2000.5245,1540.1908 A480.879,480.879 0 0 1 2054.592,1543.7818 A12.0328,12.0328 0 0 0 2063.7356,1543.119 A22.2032,22.2032 0 0 1 2088.1607,1540.1908 A1180.69,1180.69 0 0 1 2072.5873,1917.4204 A216.619,216.619 0 0 0 2082.171,2004.8062 A12.6008,12.6008 0 0 1 2071.3895,2023.9908 L1669.5689,2023.9908 A12.6008,12.6008 0 0 1 1658.7874,2004.8062" style="stroke:#000000;stroke-width:0.1;"/>
            <path d="M1870.1634,1916.8436 L1976.9484,1916.8436 " style="stroke:#000000;stroke-width:0.1;"/>
            <path d="M2047.9126,1911.9487 A1154.4088,1154.4088 0 0,0 2063.1394,1543.1148" style="stroke:#000000;stroke-width:0.1;"/>
            <path d="M2047.5249,1914.5406 A240.8687,240.8687 0 0,0 2055.7241,2003.6532" style="stroke:#000000;stroke-width:0.1;"/>
            <path d="M1870.1634,1998.7246 L2053.5848,1998.7246 " style="stroke:#000000;stroke-width:0.1;"/>
            <path d="M1870.1634,2006.9127 L2053.9069,2006.9127 " style="stroke:#000000;stroke-width:0.1;"/>
            <path d="M2053.9069,2006.9127 A2.4177,2.4177 0 0,0 2055.7241,2003.6532" style="stroke:#000000;stroke-width:0.1;"/>
            <path d="M2036.5123,1895.9402 A317.3163,317.3163 0 0,0 2051.2406,1985.2787" style="stroke:#000000;stroke-width:0.1;"/>
            <path d="M1976.9484,1916.8436 A97.8312,97.8312 0 0,0 2054.3957,1877.6296" style="stroke:#000000;stroke-width:0.1;"/>
            <path d="M2053.5184,1998.7246 A0.7251,0.7251 0 0,0 2054.243,1997.782" style="stroke:#000000;stroke-width:0.1;"/>
            <path d="M1870.1634,1997.9058 L2053.5848,1997.9058 " style="stroke:#000000;stroke-width:0.1;"/>
            <path d="M2053.5848,1997.9058 A0.4331,0.4331 0 0,0 2054.1478,1997.425" style="stroke:#000000;stroke-width:0.1;"/>
            <path d="M2054.0091,1543.7766 A12.0153,12.0153 0 0,0 2063.1394,1543.1148" style="stroke:#000000;stroke-width:0.1;"/>
            <path d="M2054.0091,1543.7766 L2055.7741,1563.1776 " style="stroke:#000000;stroke-width:0.1;"/>
            <path d="M2055.7741,1563.1776 L2064.9164,1558.8502 " style="stroke:#000000;stroke-width:0.1;"/>
            <path d="M2055.7741,1563.1776 L2065.3669,1563.1776 " style="stroke:#000000;stroke-width:0.1;"/>
            <path d="M1684.5526,1563.1776 L1674.9599,1563.1776 " style="stroke:#000000;stroke-width:0.1;"/>
            <path d="M1684.5526,1563.1776 L1675.4103,1558.8502 " style="stroke:#000000;stroke-width:0.1;"/>
            <path d="M1686.3177,1543.7766 L1684.5526,1563.1776 " style="stroke:#000000;stroke-width:0.1;"/>
            <path d="M1677.1874,1543.1148 A12.0153,12.0153 0 0,0 1686.3177,1543.7766" style="stroke:#000000;stroke-width:0.1;"/>
            <path d="M1686.179,1997.425 A0.4331,0.4331 0 0,0 1686.742,1997.9058" style="stroke:#000000;stroke-width:0.1;"/>
            <path d="M1870.1634,1997.9058 L1686.742,1997.9058 " style="stroke:#000000;stroke-width:0.1;"/>
            <path d="M1686.0837,1997.782 A0.7251,0.7251 0 0,0 1686.8084,1998.7246" style="stroke:#000000;stroke-width:0.1;"/>
            <path d="M1685.9311,1877.6296 A97.8312,97.8312 0 0,0 1763.3783,1916.8436" style="stroke:#000000;stroke-width:0.1;"/>
            <path d="M1689.0861,1985.2787 A317.3163,317.3163 0 0,0 1703.8145,1895.9402" style="stroke:#000000;stroke-width:0.1;"/>
            <path d="M1684.6027,2003.6532 A2.4177,2.4177 0 0,0 1686.4199,2006.9127" style="stroke:#000000;stroke-width:0.1;"/>
            <path d="M1870.1634,2006.9127 L1686.4199,2006.9127 " style="stroke:#000000;stroke-width:0.1;"/>
            <path d="M1870.1634,1998.7246 L1686.742,1998.7246 " style="stroke:#000000;stroke-width:0.1;"/>
            <path d="M1684.6027,2003.6532 A240.8687,240.8687 0 0,0 1692.8019,1914.5406" style="stroke:#000000;stroke-width:0.1;"/>
            <path d="M1677.1874,1543.1148 A1154.4088,1154.4088 0 0,0 1692.4142,1911.9487" style="stroke:#000000;stroke-width:0.1;"/>
            <path d="M1870.1634,1916.8436 L1763.3783,1916.8436 " style="stroke:#000000;stroke-width:0.1;"/>
        </g>
        <path id="auto-fill" d="M7.9792,515.1908 L2707.9792,515.1908 L2707.9792,1515.1908 L7.9792,1515.1908 Z" style="stroke:#000000;stroke-width:0.1;"/>

        <path d="M7.9792,515.1908 L2707.9792,515.1908 L2707.9792,1515.1908 L7.9792,1515.1908 Z" style="stroke:#000000;stroke-width:0.1;"/>
        <path d="M27.9792,535.1908 L2687.9792,535.1908 L2687.9792,1495.1908 L27.9792,1495.1908 Z" style="stroke:#000000;stroke-width:0.1;"/>
        <g>
            <path id="auto-fill" d="M544.671,25.5755 A216.619,216.619 0 0 0 535.0873,112.9613 A1180.69,1180.69 0 0 1 550.6607,490.1908 A22.2032,22.2032 0 0 1 526.2356,487.2626 A12.0328,12.0328 0 0 0 517.092,486.5999 A480.879,480.879 0 0 1 463.0245,490.1908 L332.9792,490.1908 L202.9339,490.1908 A480.879,480.879 0 0 1 148.8664,486.5999 A12.0328,12.0328 0 0 0 139.7228,487.2626 A22.2032,22.2032 0 0 1 115.2977,490.1908 A1180.69,1180.69 0 0 1 130.8712,112.9613 A216.619,216.619 0 0 0 121.2874,25.5755 A12.6008,12.6008 0 0 1 132.0689,6.3908 L533.8895,6.3908 A12.6008,12.6008 0 0 1 544.671,25.5755" style="stroke:#000000;stroke-width:0.1;"/>

            <path d="M544.671,25.5755 A216.619,216.619 0 0 0 535.0873,112.9613 A1180.69,1180.69 0 0 1 550.6607,490.1908 A22.2032,22.2032 0 0 1 526.2356,487.2626 A12.0328,12.0328 0 0 0 517.092,486.5999 A480.879,480.879 0 0 1 463.0245,490.1908 L332.9792,490.1908 L202.9339,490.1908 A480.879,480.879 0 0 1 148.8664,486.5999 A12.0328,12.0328 0 0 0 139.7228,487.2626 A22.2032,22.2032 0 0 1 115.2977,490.1908 A1180.69,1180.69 0 0 1 130.8712,112.9613 A216.619,216.619 0 0 0 121.2874,25.5755 A12.6008,12.6008 0 0 1 132.0689,6.3908 L533.8895,6.3908 A12.6008,12.6008 0 0 1 544.671,25.5755" style="stroke:#000000;stroke-width:0.1;"/>
            <path d="M333.295,113.5381 L226.51,113.5381 " style="stroke:#000000;stroke-width:0.1;"/>
            <path d="M155.5459,118.433 A1154.4088,1154.4088 0 0,0 140.319,487.2669" style="stroke:#000000;stroke-width:0.1;"/>
            <path d="M155.9335,115.8411 A240.8687,240.8687 0 0,0 147.7343,26.7285" style="stroke:#000000;stroke-width:0.1;"/>
            <path d="M333.295,31.6571 L149.8736,31.6571 " style="stroke:#000000;stroke-width:0.1;"/>
            <path d="M333.295,23.469 L149.5515,23.469 " style="stroke:#000000;stroke-width:0.1;"/>
            <path d="M149.5515,23.469 A2.4177,2.4177 0 0,0 147.7343,26.7285" style="stroke:#000000;stroke-width:0.1;"/>
            <path d="M166.9461,134.4415 A317.3163,317.3163 0 0,0 152.2178,45.103" style="stroke:#000000;stroke-width:0.1;"/>
            <path d="M226.51,113.5381 A97.8312,97.8312 0 0,0 149.0627,152.7521" style="stroke:#000000;stroke-width:0.1;"/>
            <path d="M149.94,31.6571 A0.7251,0.7251 0 0,0 149.2154,32.5997" style="stroke:#000000;stroke-width:0.1;"/>
            <path d="M333.295,32.4759 L149.8736,32.4759 " style="stroke:#000000;stroke-width:0.1;"/>
            <path d="M149.8736,32.4759 A0.4331,0.4331 0 0,0 149.3106,32.9566" style="stroke:#000000;stroke-width:0.1;"/>
            <path d="M149.4493,486.6051 A12.0153,12.0153 0 0,0 140.319,487.2669" style="stroke:#000000;stroke-width:0.1;"/>
            <path d="M149.4493,486.6051 L147.6843,467.204 " style="stroke:#000000;stroke-width:0.1;"/>
            <path d="M147.6843,467.204 L138.542,471.5315 " style="stroke:#000000;stroke-width:0.1;"/>
            <path d="M147.6843,467.204 L138.0916,467.204 " style="stroke:#000000;stroke-width:0.1;"/>
            <path d="M518.9058,467.204 L528.4985,467.204 " style="stroke:#000000;stroke-width:0.1;"/>
            <path d="M518.9058,467.204 L528.0481,471.5315 " style="stroke:#000000;stroke-width:0.1;"/>
            <path d="M517.1407,486.6051 L518.9058,467.204 " style="stroke:#000000;stroke-width:0.1;"/>
            <path d="M526.271,487.2669 A12.0153,12.0153 0 0,0 517.1407,486.6051" style="stroke:#000000;stroke-width:0.1;"/>
            <path d="M517.2794,32.9566 A0.4331,0.4331 0 0,0 516.7164,32.4759" style="stroke:#000000;stroke-width:0.1;"/>
            <path d="M333.295,32.4759 L516.7164,32.4759 " style="stroke:#000000;stroke-width:0.1;"/>
            <path d="M517.3747,32.5997 A0.7251,0.7251 0 0,0 516.65,31.6571" style="stroke:#000000;stroke-width:0.1;"/>
            <path d="M517.5273,152.7521 A97.8312,97.8312 0 0,0 440.0801,113.5381" style="stroke:#000000;stroke-width:0.1;"/>
            <path d="M514.3723,45.103 A317.3163,317.3163 0 0,0 499.6439,134.4415" style="stroke:#000000;stroke-width:0.1;"/>
            <path d="M518.8557,26.7285 A2.4177,2.4177 0 0,0 517.0385,23.469" style="stroke:#000000;stroke-width:0.1;"/>
            <path d="M333.295,23.469 L517.0385,23.469 " style="stroke:#000000;stroke-width:0.1;"/>
            <path d="M333.295,31.6571 L516.7164,31.6571 " style="stroke:#000000;stroke-width:0.1;"/>
            <path d="M518.8557,26.7285 A240.8687,240.8687 0 0,0 510.6565,115.8411" style="stroke:#000000;stroke-width:0.1;"/>
            <path d="M526.271,487.2669 A1154.4088,1154.4088 0 0,0 511.0442,118.433" style="stroke:#000000;stroke-width:0.1;"/>
            <path d="M333.295,113.5381 L440.0801,113.5381 " style="stroke:#000000;stroke-width:0.1;"/>
        </g>
        <g transform="translate(512.5 0)">
            <path id="auto-fill" d="M544.671,25.5755 A216.619,216.619 0 0 0 535.0873,112.9613 A1180.69,1180.69 0 0 1 550.6607,490.1908 A22.2032,22.2032 0 0 1 526.2356,487.2626 A12.0328,12.0328 0 0 0 517.092,486.5999 A480.879,480.879 0 0 1 463.0245,490.1908 L332.9792,490.1908 L202.9339,490.1908 A480.879,480.879 0 0 1 148.8664,486.5999 A12.0328,12.0328 0 0 0 139.7228,487.2626 A22.2032,22.2032 0 0 1 115.2977,490.1908 A1180.69,1180.69 0 0 1 130.8712,112.9613 A216.619,216.619 0 0 0 121.2874,25.5755 A12.6008,12.6008 0 0 1 132.0689,6.3908 L533.8895,6.3908 A12.6008,12.6008 0 0 1 544.671,25.5755" style="stroke:#000000;stroke-width:0.1;"/>

            <path d="M544.671,25.5755 A216.619,216.619 0 0 0 535.0873,112.9613 A1180.69,1180.69 0 0 1 550.6607,490.1908 A22.2032,22.2032 0 0 1 526.2356,487.2626 A12.0328,12.0328 0 0 0 517.092,486.5999 A480.879,480.879 0 0 1 463.0245,490.1908 L332.9792,490.1908 L202.9339,490.1908 A480.879,480.879 0 0 1 148.8664,486.5999 A12.0328,12.0328 0 0 0 139.7228,487.2626 A22.2032,22.2032 0 0 1 115.2977,490.1908 A1180.69,1180.69 0 0 1 130.8712,112.9613 A216.619,216.619 0 0 0 121.2874,25.5755 A12.6008,12.6008 0 0 1 132.0689,6.3908 L533.8895,6.3908 A12.6008,12.6008 0 0 1 544.671,25.5755" style="stroke:#000000;stroke-width:0.1;"/>
            <path d="M333.295,113.5381 L226.51,113.5381 " style="stroke:#000000;stroke-width:0.1;"/>
            <path d="M155.5459,118.433 A1154.4088,1154.4088 0 0,0 140.319,487.2669" style="stroke:#000000;stroke-width:0.1;"/>
            <path d="M155.9335,115.8411 A240.8687,240.8687 0 0,0 147.7343,26.7285" style="stroke:#000000;stroke-width:0.1;"/>
            <path d="M333.295,31.6571 L149.8736,31.6571 " style="stroke:#000000;stroke-width:0.1;"/>
            <path d="M333.295,23.469 L149.5515,23.469 " style="stroke:#000000;stroke-width:0.1;"/>
            <path d="M149.5515,23.469 A2.4177,2.4177 0 0,0 147.7343,26.7285" style="stroke:#000000;stroke-width:0.1;"/>
            <path d="M166.9461,134.4415 A317.3163,317.3163 0 0,0 152.2178,45.103" style="stroke:#000000;stroke-width:0.1;"/>
            <path d="M226.51,113.5381 A97.8312,97.8312 0 0,0 149.0627,152.7521" style="stroke:#000000;stroke-width:0.1;"/>
            <path d="M149.94,31.6571 A0.7251,0.7251 0 0,0 149.2154,32.5997" style="stroke:#000000;stroke-width:0.1;"/>
            <path d="M333.295,32.4759 L149.8736,32.4759 " style="stroke:#000000;stroke-width:0.1;"/>
            <path d="M149.8736,32.4759 A0.4331,0.4331 0 0,0 149.3106,32.9566" style="stroke:#000000;stroke-width:0.1;"/>
            <path d="M149.4493,486.6051 A12.0153,12.0153 0 0,0 140.319,487.2669" style="stroke:#000000;stroke-width:0.1;"/>
            <path d="M149.4493,486.6051 L147.6843,467.204 " style="stroke:#000000;stroke-width:0.1;"/>
            <path d="M147.6843,467.204 L138.542,471.5315 " style="stroke:#000000;stroke-width:0.1;"/>
            <path d="M147.6843,467.204 L138.0916,467.204 " style="stroke:#000000;stroke-width:0.1;"/>
            <path d="M518.9058,467.204 L528.4985,467.204 " style="stroke:#000000;stroke-width:0.1;"/>
            <path d="M518.9058,467.204 L528.0481,471.5315 " style="stroke:#000000;stroke-width:0.1;"/>
            <path d="M517.1407,486.6051 L518.9058,467.204 " style="stroke:#000000;stroke-width:0.1;"/>
            <path d="M526.271,487.2669 A12.0153,12.0153 0 0,0 517.1407,486.6051" style="stroke:#000000;stroke-width:0.1;"/>
            <path d="M517.2794,32.9566 A0.4331,0.4331 0 0,0 516.7164,32.4759" style="stroke:#000000;stroke-width:0.1;"/>
            <path d="M333.295,32.4759 L516.7164,32.4759 " style="stroke:#000000;stroke-width:0.1;"/>
            <path d="M517.3747,32.5997 A0.7251,0.7251 0 0,0 516.65,31.6571" style="stroke:#000000;stroke-width:0.1;"/>
            <path d="M517.5273,152.7521 A97.8312,97.8312 0 0,0 440.0801,113.5381" style="stroke:#000000;stroke-width:0.1;"/>
            <path d="M514.3723,45.103 A317.3163,317.3163 0 0,0 499.6439,134.4415" style="stroke:#000000;stroke-width:0.1;"/>
            <path d="M518.8557,26.7285 A2.4177,2.4177 0 0,0 517.0385,23.469" style="stroke:#000000;stroke-width:0.1;"/>
            <path d="M333.295,23.469 L517.0385,23.469 " style="stroke:#000000;stroke-width:0.1;"/>
            <path d="M333.295,31.6571 L516.7164,31.6571 " style="stroke:#000000;stroke-width:0.1;"/>
            <path d="M518.8557,26.7285 A240.8687,240.8687 0 0,0 510.6565,115.8411" style="stroke:#000000;stroke-width:0.1;"/>
            <path d="M526.271,487.2669 A1154.4088,1154.4088 0 0,0 511.0442,118.433" style="stroke:#000000;stroke-width:0.1;"/>
            <path d="M333.295,113.5381 L440.0801,113.5381 " style="stroke:#000000;stroke-width:0.1;"/>
        </g>
        <g transform="translate(1025 0)">
            <path id="auto-fill" d="M544.671,25.5755 A216.619,216.619 0 0 0 535.0873,112.9613 A1180.69,1180.69 0 0 1 550.6607,490.1908 A22.2032,22.2032 0 0 1 526.2356,487.2626 A12.0328,12.0328 0 0 0 517.092,486.5999 A480.879,480.879 0 0 1 463.0245,490.1908 L332.9792,490.1908 L202.9339,490.1908 A480.879,480.879 0 0 1 148.8664,486.5999 A12.0328,12.0328 0 0 0 139.7228,487.2626 A22.2032,22.2032 0 0 1 115.2977,490.1908 A1180.69,1180.69 0 0 1 130.8712,112.9613 A216.619,216.619 0 0 0 121.2874,25.5755 A12.6008,12.6008 0 0 1 132.0689,6.3908 L533.8895,6.3908 A12.6008,12.6008 0 0 1 544.671,25.5755" style="stroke:#000000;stroke-width:0.1;"/>

            <path d="M544.671,25.5755 A216.619,216.619 0 0 0 535.0873,112.9613 A1180.69,1180.69 0 0 1 550.6607,490.1908 A22.2032,22.2032 0 0 1 526.2356,487.2626 A12.0328,12.0328 0 0 0 517.092,486.5999 A480.879,480.879 0 0 1 463.0245,490.1908 L332.9792,490.1908 L202.9339,490.1908 A480.879,480.879 0 0 1 148.8664,486.5999 A12.0328,12.0328 0 0 0 139.7228,487.2626 A22.2032,22.2032 0 0 1 115.2977,490.1908 A1180.69,1180.69 0 0 1 130.8712,112.9613 A216.619,216.619 0 0 0 121.2874,25.5755 A12.6008,12.6008 0 0 1 132.0689,6.3908 L533.8895,6.3908 A12.6008,12.6008 0 0 1 544.671,25.5755" style="stroke:#000000;stroke-width:0.1;"/>
            <path d="M333.295,113.5381 L226.51,113.5381 " style="stroke:#000000;stroke-width:0.1;"/>
            <path d="M155.5459,118.433 A1154.4088,1154.4088 0 0,0 140.319,487.2669" style="stroke:#000000;stroke-width:0.1;"/>
            <path d="M155.9335,115.8411 A240.8687,240.8687 0 0,0 147.7343,26.7285" style="stroke:#000000;stroke-width:0.1;"/>
            <path d="M333.295,31.6571 L149.8736,31.6571 " style="stroke:#000000;stroke-width:0.1;"/>
            <path d="M333.295,23.469 L149.5515,23.469 " style="stroke:#000000;stroke-width:0.1;"/>
            <path d="M149.5515,23.469 A2.4177,2.4177 0 0,0 147.7343,26.7285" style="stroke:#000000;stroke-width:0.1;"/>
            <path d="M166.9461,134.4415 A317.3163,317.3163 0 0,0 152.2178,45.103" style="stroke:#000000;stroke-width:0.1;"/>
            <path d="M226.51,113.5381 A97.8312,97.8312 0 0,0 149.0627,152.7521" style="stroke:#000000;stroke-width:0.1;"/>
            <path d="M149.94,31.6571 A0.7251,0.7251 0 0,0 149.2154,32.5997" style="stroke:#000000;stroke-width:0.1;"/>
            <path d="M333.295,32.4759 L149.8736,32.4759 " style="stroke:#000000;stroke-width:0.1;"/>
            <path d="M149.8736,32.4759 A0.4331,0.4331 0 0,0 149.3106,32.9566" style="stroke:#000000;stroke-width:0.1;"/>
            <path d="M149.4493,486.6051 A12.0153,12.0153 0 0,0 140.319,487.2669" style="stroke:#000000;stroke-width:0.1;"/>
            <path d="M149.4493,486.6051 L147.6843,467.204 " style="stroke:#000000;stroke-width:0.1;"/>
            <path d="M147.6843,467.204 L138.542,471.5315 " style="stroke:#000000;stroke-width:0.1;"/>
            <path d="M147.6843,467.204 L138.0916,467.204 " style="stroke:#000000;stroke-width:0.1;"/>
            <path d="M518.9058,467.204 L528.4985,467.204 " style="stroke:#000000;stroke-width:0.1;"/>
            <path d="M518.9058,467.204 L528.0481,471.5315 " style="stroke:#000000;stroke-width:0.1;"/>
            <path d="M517.1407,486.6051 L518.9058,467.204 " style="stroke:#000000;stroke-width:0.1;"/>
            <path d="M526.271,487.2669 A12.0153,12.0153 0 0,0 517.1407,486.6051" style="stroke:#000000;stroke-width:0.1;"/>
            <path d="M517.2794,32.9566 A0.4331,0.4331 0 0,0 516.7164,32.4759" style="stroke:#000000;stroke-width:0.1;"/>
            <path d="M333.295,32.4759 L516.7164,32.4759 " style="stroke:#000000;stroke-width:0.1;"/>
            <path d="M517.3747,32.5997 A0.7251,0.7251 0 0,0 516.65,31.6571" style="stroke:#000000;stroke-width:0.1;"/>
            <path d="M517.5273,152.7521 A97.8312,97.8312 0 0,0 440.0801,113.5381" style="stroke:#000000;stroke-width:0.1;"/>
            <path d="M514.3723,45.103 A317.3163,317.3163 0 0,0 499.6439,134.4415" style="stroke:#000000;stroke-width:0.1;"/>
            <path d="M518.8557,26.7285 A2.4177,2.4177 0 0,0 517.0385,23.469" style="stroke:#000000;stroke-width:0.1;"/>
            <path d="M333.295,23.469 L517.0385,23.469 " style="stroke:#000000;stroke-width:0.1;"/>
            <path d="M333.295,31.6571 L516.7164,31.6571 " style="stroke:#000000;stroke-width:0.1;"/>
            <path d="M518.8557,26.7285 A240.8687,240.8687 0 0,0 510.6565,115.8411" style="stroke:#000000;stroke-width:0.1;"/>
            <path d="M526.271,487.2669 A1154.4088,1154.4088 0 0,0 511.0442,118.433" style="stroke:#000000;stroke-width:0.1;"/>
            <path d="M333.295,113.5381 L440.0801,113.5381 " style="stroke:#000000;stroke-width:0.1;"/>
        </g>
        <g transform="translate(1537.5 0)">
            <path id="auto-fill" d="M544.671,25.5755 A216.619,216.619 0 0 0 535.0873,112.9613 A1180.69,1180.69 0 0 1 550.6607,490.1908 A22.2032,22.2032 0 0 1 526.2356,487.2626 A12.0328,12.0328 0 0 0 517.092,486.5999 A480.879,480.879 0 0 1 463.0245,490.1908 L332.9792,490.1908 L202.9339,490.1908 A480.879,480.879 0 0 1 148.8664,486.5999 A12.0328,12.0328 0 0 0 139.7228,487.2626 A22.2032,22.2032 0 0 1 115.2977,490.1908 A1180.69,1180.69 0 0 1 130.8712,112.9613 A216.619,216.619 0 0 0 121.2874,25.5755 A12.6008,12.6008 0 0 1 132.0689,6.3908 L533.8895,6.3908 A12.6008,12.6008 0 0 1 544.671,25.5755" style="stroke:#000000;stroke-width:0.1;"/>

            <path d="M544.671,25.5755 A216.619,216.619 0 0 0 535.0873,112.9613 A1180.69,1180.69 0 0 1 550.6607,490.1908 A22.2032,22.2032 0 0 1 526.2356,487.2626 A12.0328,12.0328 0 0 0 517.092,486.5999 A480.879,480.879 0 0 1 463.0245,490.1908 L332.9792,490.1908 L202.9339,490.1908 A480.879,480.879 0 0 1 148.8664,486.5999 A12.0328,12.0328 0 0 0 139.7228,487.2626 A22.2032,22.2032 0 0 1 115.2977,490.1908 A1180.69,1180.69 0 0 1 130.8712,112.9613 A216.619,216.619 0 0 0 121.2874,25.5755 A12.6008,12.6008 0 0 1 132.0689,6.3908 L533.8895,6.3908 A12.6008,12.6008 0 0 1 544.671,25.5755" style="stroke:#000000;stroke-width:0.1;"/>
            <path d="M333.295,113.5381 L226.51,113.5381 " style="stroke:#000000;stroke-width:0.1;"/>
            <path d="M155.5459,118.433 A1154.4088,1154.4088 0 0,0 140.319,487.2669" style="stroke:#000000;stroke-width:0.1;"/>
            <path d="M155.9335,115.8411 A240.8687,240.8687 0 0,0 147.7343,26.7285" style="stroke:#000000;stroke-width:0.1;"/>
            <path d="M333.295,31.6571 L149.8736,31.6571 " style="stroke:#000000;stroke-width:0.1;"/>
            <path d="M333.295,23.469 L149.5515,23.469 " style="stroke:#000000;stroke-width:0.1;"/>
            <path d="M149.5515,23.469 A2.4177,2.4177 0 0,0 147.7343,26.7285" style="stroke:#000000;stroke-width:0.1;"/>
            <path d="M166.9461,134.4415 A317.3163,317.3163 0 0,0 152.2178,45.103" style="stroke:#000000;stroke-width:0.1;"/>
            <path d="M226.51,113.5381 A97.8312,97.8312 0 0,0 149.0627,152.7521" style="stroke:#000000;stroke-width:0.1;"/>
            <path d="M149.94,31.6571 A0.7251,0.7251 0 0,0 149.2154,32.5997" style="stroke:#000000;stroke-width:0.1;"/>
            <path d="M333.295,32.4759 L149.8736,32.4759 " style="stroke:#000000;stroke-width:0.1;"/>
            <path d="M149.8736,32.4759 A0.4331,0.4331 0 0,0 149.3106,32.9566" style="stroke:#000000;stroke-width:0.1;"/>
            <path d="M149.4493,486.6051 A12.0153,12.0153 0 0,0 140.319,487.2669" style="stroke:#000000;stroke-width:0.1;"/>
            <path d="M149.4493,486.6051 L147.6843,467.204 " style="stroke:#000000;stroke-width:0.1;"/>
            <path d="M147.6843,467.204 L138.542,471.5315 " style="stroke:#000000;stroke-width:0.1;"/>
            <path d="M147.6843,467.204 L138.0916,467.204 " style="stroke:#000000;stroke-width:0.1;"/>
            <path d="M518.9058,467.204 L528.4985,467.204 " style="stroke:#000000;stroke-width:0.1;"/>
            <path d="M518.9058,467.204 L528.0481,471.5315 " style="stroke:#000000;stroke-width:0.1;"/>
            <path d="M517.1407,486.6051 L518.9058,467.204 " style="stroke:#000000;stroke-width:0.1;"/>
            <path d="M526.271,487.2669 A12.0153,12.0153 0 0,0 517.1407,486.6051" style="stroke:#000000;stroke-width:0.1;"/>
            <path d="M517.2794,32.9566 A0.4331,0.4331 0 0,0 516.7164,32.4759" style="stroke:#000000;stroke-width:0.1;"/>
            <path d="M333.295,32.4759 L516.7164,32.4759 " style="stroke:#000000;stroke-width:0.1;"/>
            <path d="M517.3747,32.5997 A0.7251,0.7251 0 0,0 516.65,31.6571" style="stroke:#000000;stroke-width:0.1;"/>
            <path d="M517.5273,152.7521 A97.8312,97.8312 0 0,0 440.0801,113.5381" style="stroke:#000000;stroke-width:0.1;"/>
            <path d="M514.3723,45.103 A317.3163,317.3163 0 0,0 499.6439,134.4415" style="stroke:#000000;stroke-width:0.1;"/>
            <path d="M518.8557,26.7285 A2.4177,2.4177 0 0,0 517.0385,23.469" style="stroke:#000000;stroke-width:0.1;"/>
            <path d="M333.295,23.469 L517.0385,23.469 " style="stroke:#000000;stroke-width:0.1;"/>
            <path d="M333.295,31.6571 L516.7164,31.6571 " style="stroke:#000000;stroke-width:0.1;"/>
            <path d="M518.8557,26.7285 A240.8687,240.8687 0 0,0 510.6565,115.8411" style="stroke:#000000;stroke-width:0.1;"/>
            <path d="M526.271,487.2669 A1154.4088,1154.4088 0 0,0 511.0442,118.433" style="stroke:#000000;stroke-width:0.1;"/>
            <path d="M333.295,113.5381 L440.0801,113.5381 " style="stroke:#000000;stroke-width:0.1;"/>
        </g>
        <g transform="translate(2050 0)">
            <path id="auto-fill" d="M544.671,25.5755 A216.619,216.619 0 0 0 535.0873,112.9613 A1180.69,1180.69 0 0 1 550.6607,490.1908 A22.2032,22.2032 0 0 1 526.2356,487.2626 A12.0328,12.0328 0 0 0 517.092,486.5999 A480.879,480.879 0 0 1 463.0245,490.1908 L332.9792,490.1908 L202.9339,490.1908 A480.879,480.879 0 0 1 148.8664,486.5999 A12.0328,12.0328 0 0 0 139.7228,487.2626 A22.2032,22.2032 0 0 1 115.2977,490.1908 A1180.69,1180.69 0 0 1 130.8712,112.9613 A216.619,216.619 0 0 0 121.2874,25.5755 A12.6008,12.6008 0 0 1 132.0689,6.3908 L533.8895,6.3908 A12.6008,12.6008 0 0 1 544.671,25.5755" style="stroke:#000000;stroke-width:0.1;"/>

            <path d="M544.671,25.5755 A216.619,216.619 0 0 0 535.0873,112.9613 A1180.69,1180.69 0 0 1 550.6607,490.1908 A22.2032,22.2032 0 0 1 526.2356,487.2626 A12.0328,12.0328 0 0 0 517.092,486.5999 A480.879,480.879 0 0 1 463.0245,490.1908 L332.9792,490.1908 L202.9339,490.1908 A480.879,480.879 0 0 1 148.8664,486.5999 A12.0328,12.0328 0 0 0 139.7228,487.2626 A22.2032,22.2032 0 0 1 115.2977,490.1908 A1180.69,1180.69 0 0 1 130.8712,112.9613 A216.619,216.619 0 0 0 121.2874,25.5755 A12.6008,12.6008 0 0 1 132.0689,6.3908 L533.8895,6.3908 A12.6008,12.6008 0 0 1 544.671,25.5755" style="stroke:#000000;stroke-width:0.1;"/>
            <path d="M333.295,113.5381 L226.51,113.5381 " style="stroke:#000000;stroke-width:0.1;"/>
            <path d="M155.5459,118.433 A1154.4088,1154.4088 0 0,0 140.319,487.2669" style="stroke:#000000;stroke-width:0.1;"/>
            <path d="M155.9335,115.8411 A240.8687,240.8687 0 0,0 147.7343,26.7285" style="stroke:#000000;stroke-width:0.1;"/>
            <path d="M333.295,31.6571 L149.8736,31.6571 " style="stroke:#000000;stroke-width:0.1;"/>
            <path d="M333.295,23.469 L149.5515,23.469 " style="stroke:#000000;stroke-width:0.1;"/>
            <path d="M149.5515,23.469 A2.4177,2.4177 0 0,0 147.7343,26.7285" style="stroke:#000000;stroke-width:0.1;"/>
            <path d="M166.9461,134.4415 A317.3163,317.3163 0 0,0 152.2178,45.103" style="stroke:#000000;stroke-width:0.1;"/>
            <path d="M226.51,113.5381 A97.8312,97.8312 0 0,0 149.0627,152.7521" style="stroke:#000000;stroke-width:0.1;"/>
            <path d="M149.94,31.6571 A0.7251,0.7251 0 0,0 149.2154,32.5997" style="stroke:#000000;stroke-width:0.1;"/>
            <path d="M333.295,32.4759 L149.8736,32.4759 " style="stroke:#000000;stroke-width:0.1;"/>
            <path d="M149.8736,32.4759 A0.4331,0.4331 0 0,0 149.3106,32.9566" style="stroke:#000000;stroke-width:0.1;"/>
            <path d="M149.4493,486.6051 A12.0153,12.0153 0 0,0 140.319,487.2669" style="stroke:#000000;stroke-width:0.1;"/>
            <path d="M149.4493,486.6051 L147.6843,467.204 " style="stroke:#000000;stroke-width:0.1;"/>
            <path d="M147.6843,467.204 L138.542,471.5315 " style="stroke:#000000;stroke-width:0.1;"/>
            <path d="M147.6843,467.204 L138.0916,467.204 " style="stroke:#000000;stroke-width:0.1;"/>
            <path d="M518.9058,467.204 L528.4985,467.204 " style="stroke:#000000;stroke-width:0.1;"/>
            <path d="M518.9058,467.204 L528.0481,471.5315 " style="stroke:#000000;stroke-width:0.1;"/>
            <path d="M517.1407,486.6051 L518.9058,467.204 " style="stroke:#000000;stroke-width:0.1;"/>
            <path d="M526.271,487.2669 A12.0153,12.0153 0 0,0 517.1407,486.6051" style="stroke:#000000;stroke-width:0.1;"/>
            <path d="M517.2794,32.9566 A0.4331,0.4331 0 0,0 516.7164,32.4759" style="stroke:#000000;stroke-width:0.1;"/>
            <path d="M333.295,32.4759 L516.7164,32.4759 " style="stroke:#000000;stroke-width:0.1;"/>
            <path d="M517.3747,32.5997 A0.7251,0.7251 0 0,0 516.65,31.6571" style="stroke:#000000;stroke-width:0.1;"/>
            <path d="M517.5273,152.7521 A97.8312,97.8312 0 0,0 440.0801,113.5381" style="stroke:#000000;stroke-width:0.1;"/>
            <path d="M514.3723,45.103 A317.3163,317.3163 0 0,0 499.6439,134.4415" style="stroke:#000000;stroke-width:0.1;"/>
            <path d="M518.8557,26.7285 A2.4177,2.4177 0 0,0 517.0385,23.469" style="stroke:#000000;stroke-width:0.1;"/>
            <path d="M333.295,23.469 L517.0385,23.469 " style="stroke:#000000;stroke-width:0.1;"/>
            <path d="M333.295,31.6571 L516.7164,31.6571 " style="stroke:#000000;stroke-width:0.1;"/>
            <path d="M518.8557,26.7285 A240.8687,240.8687 0 0,0 510.6565,115.8411" style="stroke:#000000;stroke-width:0.1;"/>
            <path d="M526.271,487.2669 A1154.4088,1154.4088 0 0,0 511.0442,118.433" style="stroke:#000000;stroke-width:0.1;"/>
            <path d="M333.295,113.5381 L440.0801,113.5381 " style="stroke:#000000;stroke-width:0.1;"/>
        </g>
    </g>
</svg>
