<?xml version="1.0" encoding="UTF-8"?>
<!-- 2026-06-15 03:29:43 Generated by QCAD 3.32.6 SVG Exporter -->
<svg width="3173.4024mm" height="3173.4024mm" viewBox="18.9133 -3157.4654 3173.4024 3173.4024" version="1.1" xmlns="http://www.w3.org/2000/svg" style="stroke-linecap:round;stroke-linejoin:round;">
    <g transform="scale(1,-1)">
        <!-- Rebuilt editable fill layer.
             Default fill is none. Set SVG/group fill in your workspace to color table and chairs. -->
        <g id="auto-fill-layer" class="auto-fill-layer" fill="inherit" stroke="none">
            <circle class="auto-fill table-fill" data-auto-fill="true" cx="1605.6144830098056" cy="1570.7641869018598" r="450" fill="inherit" stroke="none"/>

            <g class="auto-fill chair-fill-group" data-auto-fill="true">
                <path class="auto-fill chair-seat-fill" data-auto-fill="true" fill="inherit" stroke="none" d="M2605.6145,1795.7642
L2605.6145,1345.7642
A50,50 0 0,1 2655.6145,1295.7642
L3006.0187,1325.9997
A30,30 0 0,1 3032.3754,1347.9686
A843.9175,843.9175 0 0,1 3032.3754,1793.5598
A30,30 0 0,1 3006.0187,1815.5287
L2655.6145,1845.7642
A50,50 0 0,1 2605.6145,1795.7642
Z"/>
                <path class="auto-fill chair-backrest-fill" data-auto-fill="true" fill="inherit" stroke="none" d="M3114.0795,1350.5017
A873.9175,873.9175 0 0,1 3114.0795,1791.0267
A30,30 0 0,1 3141.215,1828.5279
A30,30 0 0,1 3163.3252,1806.6204
A973.9175,973.9175 0 0,0 3163.3252,1334.908
A30,30 0 0,1 3141.215,1313.0005
A30,30 0 0,1 3114.0795,1350.5017
Z"/>
            </g>
            <g class="auto-fill chair-fill-group" data-auto-fill="true" transform="rotate(30 1605.6144830098056 1570.7641869018598)">
                <path class="auto-fill chair-seat-fill" data-auto-fill="true" fill="inherit" stroke="none" d="M2605.6145,1795.7642
L2605.6145,1345.7642
A50,50 0 0,1 2655.6145,1295.7642
L3006.0187,1325.9997
A30,30 0 0,1 3032.3754,1347.9686
A843.9175,843.9175 0 0,1 3032.3754,1793.5598
A30,30 0 0,1 3006.0187,1815.5287
L2655.6145,1845.7642
A50,50 0 0,1 2605.6145,1795.7642
Z"/>
                <path class="auto-fill chair-backrest-fill" data-auto-fill="true" fill="inherit" stroke="none" d="M3114.0795,1350.5017
A873.9175,873.9175 0 0,1 3114.0795,1791.0267
A30,30 0 0,1 3141.215,1828.5279
A30,30 0 0,1 3163.3252,1806.6204
A973.9175,973.9175 0 0,0 3163.3252,1334.908
A30,30 0 0,1 3141.215,1313.0005
A30,30 0 0,1 3114.0795,1350.5017
Z"/>
            </g>
            <g class="auto-fill chair-fill-group" data-auto-fill="true" transform="rotate(60 1605.6144830098056 1570.7641869018598)">
                <path class="auto-fill chair-seat-fill" data-auto-fill="true" fill="inherit" stroke="none" d="M2605.6145,1795.7642
L2605.6145,1345.7642
A50,50 0 0,1 2655.6145,1295.7642
L3006.0187,1325.9997
A30,30 0 0,1 3032.3754,1347.9686
A843.9175,843.9175 0 0,1 3032.3754,1793.5598
A30,30 0 0,1 3006.0187,1815.5287
L2655.6145,1845.7642
A50,50 0 0,1 2605.6145,1795.7642
Z"/>
                <path class="auto-fill chair-backrest-fill" data-auto-fill="true" fill="inherit" stroke="none" d="M3114.0795,1350.5017
A873.9175,873.9175 0 0,1 3114.0795,1791.0267
A30,30 0 0,1 3141.215,1828.5279
A30,30 0 0,1 3163.3252,1806.6204
A973.9175,973.9175 0 0,0 3163.3252,1334.908
A30,30 0 0,1 3141.215,1313.0005
A30,30 0 0,1 3114.0795,1350.5017
Z"/>
            </g>
            <g class="auto-fill chair-fill-group" data-auto-fill="true" transform="rotate(90 1605.6144830098056 1570.7641869018598)">
                <path class="auto-fill chair-seat-fill" data-auto-fill="true" fill="inherit" stroke="none" d="M2605.6145,1795.7642
L2605.6145,1345.7642
A50,50 0 0,1 2655.6145,1295.7642
L3006.0187,1325.9997
A30,30 0 0,1 3032.3754,1347.9686
A843.9175,843.9175 0 0,1 3032.3754,1793.5598
A30,30 0 0,1 3006.0187,1815.5287
L2655.6145,1845.7642
A50,50 0 0,1 2605.6145,1795.7642
Z"/>
                <path class="auto-fill chair-backrest-fill" data-auto-fill="true" fill="inherit" stroke="none" d="M3114.0795,1350.5017
A873.9175,873.9175 0 0,1 3114.0795,1791.0267
A30,30 0 0,1 3141.215,1828.5279
A30,30 0 0,1 3163.3252,1806.6204
A973.9175,973.9175 0 0,0 3163.3252,1334.908
A30,30 0 0,1 3141.215,1313.0005
A30,30 0 0,1 3114.0795,1350.5017
Z"/>
            </g>
            <g class="auto-fill chair-fill-group" data-auto-fill="true" transform="rotate(120 1605.6144830098056 1570.7641869018598)">
                <path class="auto-fill chair-seat-fill" data-auto-fill="true" fill="inherit" stroke="none" d="M2605.6145,1795.7642
L2605.6145,1345.7642
A50,50 0 0,1 2655.6145,1295.7642
L3006.0187,1325.9997
A30,30 0 0,1 3032.3754,1347.9686
A843.9175,843.9175 0 0,1 3032.3754,1793.5598
A30,30 0 0,1 3006.0187,1815.5287
L2655.6145,1845.7642
A50,50 0 0,1 2605.6145,1795.7642
Z"/>
                <path class="auto-fill chair-backrest-fill" data-auto-fill="true" fill="inherit" stroke="none" d="M3114.0795,1350.5017
A873.9175,873.9175 0 0,1 3114.0795,1791.0267
A30,30 0 0,1 3141.215,1828.5279
A30,30 0 0,1 3163.3252,1806.6204
A973.9175,973.9175 0 0,0 3163.3252,1334.908
A30,30 0 0,1 3141.215,1313.0005
A30,30 0 0,1 3114.0795,1350.5017
Z"/>
            </g>
            <g class="auto-fill chair-fill-group" data-auto-fill="true" transform="rotate(150 1605.6144830098056 1570.7641869018598)">
                <path class="auto-fill chair-seat-fill" data-auto-fill="true" fill="inherit" stroke="none" d="M2605.6145,1795.7642
L2605.6145,1345.7642
A50,50 0 0,1 2655.6145,1295.7642
L3006.0187,1325.9997
A30,30 0 0,1 3032.3754,1347.9686
A843.9175,843.9175 0 0,1 3032.3754,1793.5598
A30,30 0 0,1 3006.0187,1815.5287
L2655.6145,1845.7642
A50,50 0 0,1 2605.6145,1795.7642
Z"/>
                <path class="auto-fill chair-backrest-fill" data-auto-fill="true" fill="inherit" stroke="none" d="M3114.0795,1350.5017
A873.9175,873.9175 0 0,1 3114.0795,1791.0267
A30,30 0 0,1 3141.215,1828.5279
A30,30 0 0,1 3163.3252,1806.6204
A973.9175,973.9175 0 0,0 3163.3252,1334.908
A30,30 0 0,1 3141.215,1313.0005
A30,30 0 0,1 3114.0795,1350.5017
Z"/>
            </g>
            <g class="auto-fill chair-fill-group" data-auto-fill="true" transform="rotate(180 1605.6144830098056 1570.7641869018598)">
                <path class="auto-fill chair-seat-fill" data-auto-fill="true" fill="inherit" stroke="none" d="M2605.6145,1795.7642
L2605.6145,1345.7642
A50,50 0 0,1 2655.6145,1295.7642
L3006.0187,1325.9997
A30,30 0 0,1 3032.3754,1347.9686
A843.9175,843.9175 0 0,1 3032.3754,1793.5598
A30,30 0 0,1 3006.0187,1815.5287
L2655.6145,1845.7642
A50,50 0 0,1 2605.6145,1795.7642
Z"/>
                <path class="auto-fill chair-backrest-fill" data-auto-fill="true" fill="inherit" stroke="none" d="M3114.0795,1350.5017
A873.9175,873.9175 0 0,1 3114.0795,1791.0267
A30,30 0 0,1 3141.215,1828.5279
A30,30 0 0,1 3163.3252,1806.6204
A973.9175,973.9175 0 0,0 3163.3252,1334.908
A30,30 0 0,1 3141.215,1313.0005
A30,30 0 0,1 3114.0795,1350.5017
Z"/>
            </g>
            <g class="auto-fill chair-fill-group" data-auto-fill="true" transform="rotate(210 1605.6144830098056 1570.7641869018598)">
                <path class="auto-fill chair-seat-fill" data-auto-fill="true" fill="inherit" stroke="none" d="M2605.6145,1795.7642
L2605.6145,1345.7642
A50,50 0 0,1 2655.6145,1295.7642
L3006.0187,1325.9997
A30,30 0 0,1 3032.3754,1347.9686
A843.9175,843.9175 0 0,1 3032.3754,1793.5598
A30,30 0 0,1 3006.0187,1815.5287
L2655.6145,1845.7642
A50,50 0 0,1 2605.6145,1795.7642
Z"/>
                <path class="auto-fill chair-backrest-fill" data-auto-fill="true" fill="inherit" stroke="none" d="M3114.0795,1350.5017
A873.9175,873.9175 0 0,1 3114.0795,1791.0267
A30,30 0 0,1 3141.215,1828.5279
A30,30 0 0,1 3163.3252,1806.6204
A973.9175,973.9175 0 0,0 3163.3252,1334.908
A30,30 0 0,1 3141.215,1313.0005
A30,30 0 0,1 3114.0795,1350.5017
Z"/>
            </g>
            <g class="auto-fill chair-fill-group" data-auto-fill="true" transform="rotate(240 1605.6144830098056 1570.7641869018598)">
                <path class="auto-fill chair-seat-fill" data-auto-fill="true" fill="inherit" stroke="none" d="M2605.6145,1795.7642
L2605.6145,1345.7642
A50,50 0 0,1 2655.6145,1295.7642
L3006.0187,1325.9997
A30,30 0 0,1 3032.3754,1347.9686
A843.9175,843.9175 0 0,1 3032.3754,1793.5598
A30,30 0 0,1 3006.0187,1815.5287
L2655.6145,1845.7642
A50,50 0 0,1 2605.6145,1795.7642
Z"/>
                <path class="auto-fill chair-backrest-fill" data-auto-fill="true" fill="inherit" stroke="none" d="M3114.0795,1350.5017
A873.9175,873.9175 0 0,1 3114.0795,1791.0267
A30,30 0 0,1 3141.215,1828.5279
A30,30 0 0,1 3163.3252,1806.6204
A973.9175,973.9175 0 0,0 3163.3252,1334.908
A30,30 0 0,1 3141.215,1313.0005
A30,30 0 0,1 3114.0795,1350.5017
Z"/>
            </g>
            <g class="auto-fill chair-fill-group" data-auto-fill="true" transform="rotate(270 1605.6144830098056 1570.7641869018598)">
                <path class="auto-fill chair-seat-fill" data-auto-fill="true" fill="inherit" stroke="none" d="M2605.6145,1795.7642
L2605.6145,1345.7642
A50,50 0 0,1 2655.6145,1295.7642
L3006.0187,1325.9997
A30,30 0 0,1 3032.3754,1347.9686
A843.9175,843.9175 0 0,1 3032.3754,1793.5598
A30,30 0 0,1 3006.0187,1815.5287
L2655.6145,1845.7642
A50,50 0 0,1 2605.6145,1795.7642
Z"/>
                <path class="auto-fill chair-backrest-fill" data-auto-fill="true" fill="inherit" stroke="none" d="M3114.0795,1350.5017
A873.9175,873.9175 0 0,1 3114.0795,1791.0267
A30,30 0 0,1 3141.215,1828.5279
A30,30 0 0,1 3163.3252,1806.6204
A973.9175,973.9175 0 0,0 3163.3252,1334.908
A30,30 0 0,1 3141.215,1313.0005
A30,30 0 0,1 3114.0795,1350.5017
Z"/>
            </g>
            <g class="auto-fill chair-fill-group" data-auto-fill="true" transform="rotate(300 1605.6144830098056 1570.7641869018598)">
                <path class="auto-fill chair-seat-fill" data-auto-fill="true" fill="inherit" stroke="none" d="M2605.6145,1795.7642
L2605.6145,1345.7642
A50,50 0 0,1 2655.6145,1295.7642
L3006.0187,1325.9997
A30,30 0 0,1 3032.3754,1347.9686
A843.9175,843.9175 0 0,1 3032.3754,1793.5598
A30,30 0 0,1 3006.0187,1815.5287
L2655.6145,1845.7642
A50,50 0 0,1 2605.6145,1795.7642
Z"/>
                <path class="auto-fill chair-backrest-fill" data-auto-fill="true" fill="inherit" stroke="none" d="M3114.0795,1350.5017
A873.9175,873.9175 0 0,1 3114.0795,1791.0267
A30,30 0 0,1 3141.215,1828.5279
A30,30 0 0,1 3163.3252,1806.6204
A973.9175,973.9175 0 0,0 3163.3252,1334.908
A30,30 0 0,1 3141.215,1313.0005
A30,30 0 0,1 3114.0795,1350.5017
Z"/>
            </g>
            <g class="auto-fill chair-fill-group" data-auto-fill="true" transform="rotate(330 1605.6144830098056 1570.7641869018598)">
                <path class="auto-fill chair-seat-fill" data-auto-fill="true" fill="inherit" stroke="none" d="M2605.6145,1795.7642
L2605.6145,1345.7642
A50,50 0 0,1 2655.6145,1295.7642
L3006.0187,1325.9997
A30,30 0 0,1 3032.3754,1347.9686
A843.9175,843.9175 0 0,1 3032.3754,1793.5598
A30,30 0 0,1 3006.0187,1815.5287
L2655.6145,1845.7642
A50,50 0 0,1 2605.6145,1795.7642
Z"/>
                <path class="auto-fill chair-backrest-fill" data-auto-fill="true" fill="inherit" stroke="none" d="M3114.0795,1350.5017
A873.9175,873.9175 0 0,1 3114.0795,1791.0267
A30,30 0 0,1 3141.215,1828.5279
A30,30 0 0,1 3163.3252,1806.6204
A973.9175,973.9175 0 0,0 3163.3252,1334.908
A30,30 0 0,1 3141.215,1313.0005
A30,30 0 0,1 3114.0795,1350.5017
Z"/>
            </g>
        </g>
        <!-- Block Reference: A$C4B0038FC / entities: 170 -->
        <g>
            <!-- Line -->
            <path d="M2605.6145,1795.7642 L2605.6145,1345.7642 " style="stroke:#000000;stroke-width:0.1;"/>
            <!-- Circle -->
            <circle cx="1605.6144830098056" cy="1570.7641869018598" r="450" style="stroke:#000000;stroke-width:0.1;"/>
            <!-- Line -->
            <path d="M605.6145,1345.7642 L605.6145,1795.7642 " style="stroke:#000000;stroke-width:0.1;"/>
            <!-- Arc -->
            <path d="M47.9037,1806.6204 A973.9175,973.9175 0 0,1 47.9037,1334.908" style="stroke:#000000;stroke-width:0.1;"/>
            <!-- Arc -->
            <path d="M97.1494,1791.0267 A873.9175,873.9175 0 0,1 97.1494,1350.5017" style="stroke:#000000;stroke-width:0.1;"/>
            <!-- Arc -->
            <path d="M178.8536,1793.5598 A843.9175,843.9175 0 0,1 178.8536,1347.9686" style="stroke:#000000;stroke-width:0.1;"/>
            <!-- Circle -->
            <circle cx="1605.6144830098056" cy="1570.7641869018598" r="900" style="stroke:#000000;stroke-width:0.1;"/>
            <!-- Line -->
            <path d="M2655.6145,1295.7642 L3006.0187,1325.9997 " style="stroke:#000000;stroke-width:0.1;"/>
            <!-- Arc -->
            <path d="M2729.8278,664.4371 A843.9175,843.9175 0 0,1 2952.6235,1050.3304" style="stroke:#000000;stroke-width:0.1;"/>
            <!-- Line -->
            <path d="M2652.4412,1283.9212 L2940.7824,1082.5343 " style="stroke:#000000;stroke-width:0.1;"/>
            <!-- Arc -->
            <path d="M2605.6145,1345.7642 A50,50 0 0,1 2655.6145,1295.7642" style="stroke:#000000;stroke-width:0.1;"/>
            <!-- Arc -->
            <path d="M2652.4412,1283.9212 A50,50 0 0,1 2584.1399,1265.6199" style="stroke:#000000;stroke-width:0.1;"/>
            <!-- Arc -->
            <path d="M2596.6446,369.777 A30,30 0 0,1 2550.5999,374.5264" style="stroke:#000000;stroke-width:0.1;"/>
            <!-- Arc -->
            <path d="M2588.7273,339.6752 A30,30 0 0,1 2596.6446,369.777" style="stroke:#000000;stroke-width:0.1;"/>
            <!-- Arc -->
            <path d="M2511.9416,446.5508 A30,30 0 0,1 2517.7889,480.3608" style="stroke:#000000;stroke-width:0.1;"/>
            <!-- Arc -->
            <path d="M2696.0179,658.5898 A30,30 0 0,1 2729.8278,664.4371" style="stroke:#000000;stroke-width:0.1;"/>
            <!-- Arc -->
            <path d="M2169.0941,154.2639 A30,30 0 0,1 2150.1848,112.0133" style="stroke:#000000;stroke-width:0.1;"/>
            <!-- Arc -->
            <path d="M2150.1848,112.0133 A30,30 0 0,1 2180.2124,103.819" style="stroke:#000000;stroke-width:0.1;"/>
            <!-- Arc -->
            <path d="M2093.8443,235.5963 A30,30 0 0,1 2126.0483,223.7552" style="stroke:#000000;stroke-width:0.1;"/>
            <!-- Arc -->
            <path d="M2359.1399,875.9085 A50,50 0 0,1 2377.4412,807.6072" style="stroke:#000000;stroke-width:0.1;"/>
            <!-- Arc -->
            <path d="M2368.7715,798.9375 A50,50 0 0,1 2300.4702,817.2388" style="stroke:#000000;stroke-width:0.1;"/>
            <!-- Line -->
            <path d="M2368.7715,798.9375 L2517.7889,480.3608 " style="stroke:#000000;stroke-width:0.1;"/>
            <!-- Arc -->
            <path d="M2126.0483,223.7552 A843.9175,843.9175 0 0,1 2511.9416,446.5508" style="stroke:#000000;stroke-width:0.1;"/>
            <!-- Arc -->
            <path d="M2169.0941,154.2639 A873.9175,873.9175 0 0,1 2550.5999,374.5264" style="stroke:#000000;stroke-width:0.1;"/>
            <!-- Arc -->
            <path d="M2180.2124,103.819 A973.9175,973.9175 0 0,1 2588.7273,339.6752" style="stroke:#000000;stroke-width:0.1;"/>
            <!-- Line -->
            <path d="M2377.4412,807.6072 L2696.0179,658.5898 " style="stroke:#000000;stroke-width:0.1;"/>
            <!-- Arc -->
            <path d="M1318.7715,523.9375 A50,50 0 0,1 1300.4702,592.2388" style="stroke:#000000;stroke-width:0.1;"/>
            <!-- Arc -->
            <path d="M1910.7588,592.2388 A50,50 0 0,1 1892.4575,523.9375" style="stroke:#000000;stroke-width:0.1;"/>
            <!-- Arc -->
            <path d="M1085.1807,223.7552 A30,30 0 0,1 1117.3846,235.5963" style="stroke:#000000;stroke-width:0.1;"/>
            <!-- Line -->
            <path d="M1318.7715,523.9375 L1117.3846,235.5963 " style="stroke:#000000;stroke-width:0.1;"/>
            <!-- Line -->
            <path d="M1892.4575,523.9375 L2093.8443,235.5963 " style="stroke:#000000;stroke-width:0.1;"/>
            <!-- Line -->
            <path d="M2300.4702,817.2388 L1910.7588,592.2388 " style="stroke:#000000;stroke-width:0.1;"/>
            <!-- Line -->
            <path d="M2584.1399,1265.6199 L2359.1399,875.9085 " style="stroke:#000000;stroke-width:0.1;"/>
            <!-- Arc -->
            <path d="M627.0891,1265.6199 A50,50 0 0,1 558.7878,1283.9212" style="stroke:#000000;stroke-width:0.1;"/>
            <!-- Arc -->
            <path d="M555.6145,1295.7642 A50,50 0 0,1 605.6145,1345.7642" style="stroke:#000000;stroke-width:0.1;"/>
            <!-- Arc -->
            <path d="M178.8536,1347.9686 A30,30 0 0,1 205.2102,1325.9997" style="stroke:#000000;stroke-width:0.1;"/>
            <!-- Line -->
            <path d="M555.6145,1295.7642 L205.2102,1325.9997 " style="stroke:#000000;stroke-width:0.1;"/>
            <!-- Arc -->
            <path d="M270.4466,1082.5343 A30,30 0 0,1 258.6055,1050.3304" style="stroke:#000000;stroke-width:0.1;"/>
            <!-- Line -->
            <path d="M558.7878,1283.9212 L270.4466,1082.5343 " style="stroke:#000000;stroke-width:0.1;"/>
            <!-- Arc -->
            <path d="M70.014,1313.0005 A30,30 0 0,1 97.1494,1350.5017" style="stroke:#000000;stroke-width:0.1;"/>
            <!-- Arc -->
            <path d="M47.9037,1334.908 A30,30 0 0,1 70.014,1313.0005" style="stroke:#000000;stroke-width:0.1;"/>
            <!-- Arc -->
            <path d="M189.1142,1007.2846 A30,30 0 0,1 146.8636,1026.1939" style="stroke:#000000;stroke-width:0.1;"/>
            <!-- Line -->
            <path d="M842.4575,798.9375 L693.4401,480.3608 " style="stroke:#000000;stroke-width:0.1;"/>
            <!-- Arc -->
            <path d="M1061.0442,112.0133 A30,30 0 0,1 1042.1349,154.2639" style="stroke:#000000;stroke-width:0.1;"/>
            <!-- Arc -->
            <path d="M1031.0166,103.819 A30,30 0 0,1 1061.0442,112.0133" style="stroke:#000000;stroke-width:0.1;"/>
            <!-- Arc -->
            <path d="M693.4401,480.3608 A30,30 0 0,1 699.2874,446.5508" style="stroke:#000000;stroke-width:0.1;"/>
            <!-- Arc -->
            <path d="M614.5843,369.777 A30,30 0 0,1 622.5016,339.6752" style="stroke:#000000;stroke-width:0.1;"/>
            <!-- Arc -->
            <path d="M660.6291,374.5264 A30,30 0 0,1 614.5843,369.777" style="stroke:#000000;stroke-width:0.1;"/>
            <!-- Arc -->
            <path d="M660.6291,374.5264 A873.9175,873.9175 0 0,1 1042.1349,154.2639" style="stroke:#000000;stroke-width:0.1;"/>
            <!-- Arc -->
            <path d="M622.5016,339.6752 A973.9175,973.9175 0 0,1 1031.0166,103.819" style="stroke:#000000;stroke-width:0.1;"/>
            <!-- Arc -->
            <path d="M910.7588,817.2388 A50,50 0 0,1 842.4575,798.9375" style="stroke:#000000;stroke-width:0.1;"/>
            <!-- Arc -->
            <path d="M833.7878,807.6072 A50,50 0 0,1 852.0891,875.9085" style="stroke:#000000;stroke-width:0.1;"/>
            <!-- Arc -->
            <path d="M481.4011,664.4371 A30,30 0 0,1 515.2111,658.5898" style="stroke:#000000;stroke-width:0.1;"/>
            <!-- Line -->
            <path d="M833.7878,807.6072 L515.2111,658.5898 " style="stroke:#000000;stroke-width:0.1;"/>
            <!-- Arc -->
            <path d="M404.6273,579.734 A30,30 0 0,1 409.3767,625.7788" style="stroke:#000000;stroke-width:0.1;"/>
            <!-- Arc -->
            <path d="M374.5255,587.6514 A30,30 0 0,1 404.6273,579.734" style="stroke:#000000;stroke-width:0.1;"/>
            <!-- Arc -->
            <path d="M138.6693,996.1663 A973.9175,973.9175 0 0,1 374.5255,587.6514" style="stroke:#000000;stroke-width:0.1;"/>
            <!-- Arc -->
            <path d="M258.6055,1050.3304 A843.9175,843.9175 0 0,1 481.4011,664.4371" style="stroke:#000000;stroke-width:0.1;"/>
            <!-- Arc -->
            <path d="M189.1142,1007.2846 A873.9175,873.9175 0 0,1 409.3767,625.7788" style="stroke:#000000;stroke-width:0.1;"/>
            <!-- Arc -->
            <path d="M146.8636,1026.1939 A30,30 0 0,1 138.6693,996.1663" style="stroke:#000000;stroke-width:0.1;"/>
            <!-- Line -->
            <path d="M852.0891,875.9085 L627.0891,1265.6199 " style="stroke:#000000;stroke-width:0.1;"/>
            <!-- Arc -->
            <path d="M699.2874,446.5508 A843.9175,843.9175 0 0,1 1085.1807,223.7552" style="stroke:#000000;stroke-width:0.1;"/>
            <!-- Line -->
            <path d="M1300.4702,592.2388 L910.7588,817.2388 " style="stroke:#000000;stroke-width:0.1;"/>
            <!-- Arc -->
            <path d="M2806.6017,579.734 A30,30 0 0,1 2836.7035,587.6514" style="stroke:#000000;stroke-width:0.1;"/>
            <!-- Arc -->
            <path d="M2801.8523,625.7788 A30,30 0 0,1 2806.6017,579.734" style="stroke:#000000;stroke-width:0.1;"/>
            <!-- Arc -->
            <path d="M2801.8523,625.7788 A873.9175,873.9175 0 0,1 3022.1148,1007.2846" style="stroke:#000000;stroke-width:0.1;"/>
            <!-- Arc -->
            <path d="M2836.7035,587.6514 A973.9175,973.9175 0 0,1 3072.5597,996.1663" style="stroke:#000000;stroke-width:0.1;"/>
            <!-- Line -->
            <path d="M2652.4412,1857.6072 L2940.7824,2058.994 " style="stroke:#000000;stroke-width:0.1;"/>
            <!-- Arc -->
            <path d="M2952.6235,2091.198 A843.9175,843.9175 0 0,1 2729.8278,2477.0913" style="stroke:#000000;stroke-width:0.1;"/>
            <!-- Line -->
            <path d="M2655.6145,1845.7642 L3006.0187,1815.5287 " style="stroke:#000000;stroke-width:0.1;"/>
            <!-- Arc -->
            <path d="M2550.5999,2767.002 A30,30 0 0,1 2596.6446,2771.7514" style="stroke:#000000;stroke-width:0.1;"/>
            <!-- Arc -->
            <path d="M2517.7889,2661.1676 A30,30 0 0,1 2511.9416,2694.9775" style="stroke:#000000;stroke-width:0.1;"/>
            <!-- Arc -->
            <path d="M2596.6446,2771.7514 A30,30 0 0,1 2588.7273,2801.8532" style="stroke:#000000;stroke-width:0.1;"/>
            <!-- Arc -->
            <path d="M2150.1848,3029.5151 A30,30 0 0,1 2169.0941,2987.2645" style="stroke:#000000;stroke-width:0.1;"/>
            <!-- Arc -->
            <path d="M2180.2124,3037.7094 A30,30 0 0,1 2150.1848,3029.5151" style="stroke:#000000;stroke-width:0.1;"/>
            <!-- Arc -->
            <path d="M2126.0483,2917.7732 A30,30 0 0,1 2093.8443,2905.9321" style="stroke:#000000;stroke-width:0.1;"/>
            <!-- Arc -->
            <path d="M2511.9416,2694.9775 A843.9175,843.9175 0 0,1 2126.0483,2917.7732" style="stroke:#000000;stroke-width:0.1;"/>
            <!-- Arc -->
            <path d="M2550.5999,2767.002 A873.9175,873.9175 0 0,1 2169.0941,2987.2645" style="stroke:#000000;stroke-width:0.1;"/>
            <!-- Arc -->
            <path d="M2588.7273,2801.8532 A973.9175,973.9175 0 0,1 2180.2124,3037.7094" style="stroke:#000000;stroke-width:0.1;"/>
            <!-- Arc -->
            <path d="M1828.4101,2997.5251 A843.9175,843.9175 0 0,1 1382.8189,2997.5251" style="stroke:#000000;stroke-width:0.1;"/>
            <!-- Arc -->
            <path d="M1825.877,3079.2292 A873.9175,873.9175 0 0,1 1385.352,3079.2292" style="stroke:#000000;stroke-width:0.1;"/>
            <!-- Arc -->
            <path d="M1841.4707,3128.4749 A973.9175,973.9175 0 0,1 1369.7583,3128.4749" style="stroke:#000000;stroke-width:0.1;"/>
            <!-- Arc -->
            <path d="M1347.8508,3106.3647 A30,30 0 0,1 1385.352,3079.2292" style="stroke:#000000;stroke-width:0.1;"/>
            <!-- Arc -->
            <path d="M1369.7583,3128.4749 A30,30 0 0,1 1347.8508,3106.3647" style="stroke:#000000;stroke-width:0.1;"/>
            <!-- Arc -->
            <path d="M1382.8189,2997.5251 A30,30 0 0,1 1360.85,2971.1684" style="stroke:#000000;stroke-width:0.1;"/>
            <!-- Arc -->
            <path d="M1825.877,3079.2292 A30,30 0 0,1 1863.3782,3106.3647" style="stroke:#000000;stroke-width:0.1;"/>
            <!-- Arc -->
            <path d="M1863.3782,3106.3647 A30,30 0 0,1 1841.4707,3128.4749" style="stroke:#000000;stroke-width:0.1;"/>
            <!-- Arc -->
            <path d="M1850.379,2971.1684 A30,30 0 0,1 1828.4101,2997.5251" style="stroke:#000000;stroke-width:0.1;"/>
            <!-- Arc -->
            <path d="M1117.3846,2905.9321 A30,30 0 0,1 1085.1807,2917.7732" style="stroke:#000000;stroke-width:0.1;"/>
            <!-- Arc -->
            <path d="M1042.1349,2987.2645 A30,30 0 0,1 1061.0442,3029.5151" style="stroke:#000000;stroke-width:0.1;"/>
            <!-- Arc -->
            <path d="M1061.0442,3029.5151 A30,30 0 0,1 1031.0166,3037.7094" style="stroke:#000000;stroke-width:0.1;"/>
            <!-- Arc -->
            <path d="M1031.0166,3037.7094 A973.9175,973.9175 0 0,1 622.5016,2801.8532" style="stroke:#000000;stroke-width:0.1;"/>
            <!-- Arc -->
            <path d="M699.2874,2694.9775 A30,30 0 0,1 693.4401,2661.1676" style="stroke:#000000;stroke-width:0.1;"/>
            <!-- Arc -->
            <path d="M614.5843,2771.7514 A30,30 0 0,1 660.6291,2767.002" style="stroke:#000000;stroke-width:0.1;"/>
            <!-- Arc -->
            <path d="M622.5016,2801.8532 A30,30 0 0,1 614.5843,2771.7514" style="stroke:#000000;stroke-width:0.1;"/>
            <!-- Arc -->
            <path d="M1042.1349,2987.2645 A873.9175,873.9175 0 0,1 660.6291,2767.002" style="stroke:#000000;stroke-width:0.1;"/>
            <!-- Arc -->
            <path d="M1085.1807,2917.7732 A843.9175,843.9175 0 0,1 699.2874,2694.9775" style="stroke:#000000;stroke-width:0.1;"/>
            <!-- Arc -->
            <path d="M2729.8278,2477.0913 A30,30 0 0,1 2696.0179,2482.9386" style="stroke:#000000;stroke-width:0.1;"/>
            <!-- Arc -->
            <path d="M2584.1399,1875.9085 A50,50 0 0,1 2652.4412,1857.6072" style="stroke:#000000;stroke-width:0.1;"/>
            <!-- Arc -->
            <path d="M2655.6145,1845.7642 A50,50 0 0,1 2605.6145,1795.7642" style="stroke:#000000;stroke-width:0.1;"/>
            <!-- Arc -->
            <path d="M2300.4702,2324.2896 A50,50 0 0,1 2368.7715,2342.5909" style="stroke:#000000;stroke-width:0.1;"/>
            <!-- Arc -->
            <path d="M2377.4412,2333.9212 A50,50 0 0,1 2359.1399,2265.6199" style="stroke:#000000;stroke-width:0.1;"/>
            <!-- Line -->
            <path d="M2377.4412,2333.9212 L2696.0179,2482.9386 " style="stroke:#000000;stroke-width:0.1;"/>
            <!-- Line -->
            <path d="M2359.1399,2265.6199 L2584.1399,1875.9085 " style="stroke:#000000;stroke-width:0.1;"/>
            <!-- Line -->
            <path d="M1380.6145,2570.7642 L1830.6145,2570.7642 " style="stroke:#000000;stroke-width:0.1;"/>
            <!-- Arc -->
            <path d="M1300.4702,2549.2896 A50,50 0 0,1 1318.7715,2617.5909" style="stroke:#000000;stroke-width:0.1;"/>
            <!-- Arc -->
            <path d="M1330.6145,2620.7642 A50,50 0 0,1 1380.6145,2570.7642" style="stroke:#000000;stroke-width:0.1;"/>
            <!-- Arc -->
            <path d="M1830.6145,2570.7642 A50,50 0 0,1 1880.6145,2620.7642" style="stroke:#000000;stroke-width:0.1;"/>
            <!-- Arc -->
            <path d="M1892.4575,2617.5909 A50,50 0 0,1 1910.7588,2549.2896" style="stroke:#000000;stroke-width:0.1;"/>
            <!-- Line -->
            <path d="M1910.7588,2549.2896 L2300.4702,2324.2896 " style="stroke:#000000;stroke-width:0.1;"/>
            <!-- Arc -->
            <path d="M852.0891,2265.6199 A50,50 0 0,1 833.7878,2333.9212" style="stroke:#000000;stroke-width:0.1;"/>
            <!-- Arc -->
            <path d="M842.4575,2342.5909 A50,50 0 0,1 910.7588,2324.2896" style="stroke:#000000;stroke-width:0.1;"/>
            <!-- Arc -->
            <path d="M409.3767,2515.7496 A30,30 0 0,1 404.6273,2561.7944" style="stroke:#000000;stroke-width:0.1;"/>
            <!-- Arc -->
            <path d="M404.6273,2561.7944 A30,30 0 0,1 374.5255,2553.877" style="stroke:#000000;stroke-width:0.1;"/>
            <!-- Arc -->
            <path d="M515.2111,2482.9386 A30,30 0 0,1 481.4011,2477.0913" style="stroke:#000000;stroke-width:0.1;"/>
            <!-- Arc -->
            <path d="M409.3767,2515.7496 A873.9175,873.9175 0 0,1 189.1142,2134.2438" style="stroke:#000000;stroke-width:0.1;"/>
            <!-- Line -->
            <path d="M833.7878,2333.9212 L515.2111,2482.9386 " style="stroke:#000000;stroke-width:0.1;"/>
            <!-- Arc -->
            <path d="M558.7878,1857.6072 A50,50 0 0,1 627.0891,1875.9085" style="stroke:#000000;stroke-width:0.1;"/>
            <!-- Arc -->
            <path d="M258.6055,2091.198 A30,30 0 0,1 270.4466,2058.994" style="stroke:#000000;stroke-width:0.1;"/>
            <!-- Line -->
            <path d="M558.7878,1857.6072 L270.4466,2058.994 " style="stroke:#000000;stroke-width:0.1;"/>
            <!-- Arc -->
            <path d="M605.6145,1795.7642 A50,50 0 0,1 555.6145,1845.7642" style="stroke:#000000;stroke-width:0.1;"/>
            <!-- Arc -->
            <path d="M205.2102,1815.5287 A30,30 0 0,1 178.8536,1793.5598" style="stroke:#000000;stroke-width:0.1;"/>
            <!-- Line -->
            <path d="M555.6145,1845.7642 L205.2102,1815.5287 " style="stroke:#000000;stroke-width:0.1;"/>
            <!-- Arc -->
            <path d="M481.4011,2477.0913 A843.9175,843.9175 0 0,1 258.6055,2091.198" style="stroke:#000000;stroke-width:0.1;"/>
            <!-- Line -->
            <path d="M627.0891,1875.9085 L852.0891,2265.6199 " style="stroke:#000000;stroke-width:0.1;"/>
            <!-- Arc -->
            <path d="M97.1494,1791.0267 A30,30 0 0,1 70.014,1828.5279" style="stroke:#000000;stroke-width:0.1;"/>
            <!-- Arc -->
            <path d="M70.014,1828.5279 A30,30 0 0,1 47.9037,1806.6204" style="stroke:#000000;stroke-width:0.1;"/>
            <!-- Arc -->
            <path d="M138.6693,2145.3621 A30,30 0 0,1 146.8636,2115.3345" style="stroke:#000000;stroke-width:0.1;"/>
            <!-- Arc -->
            <path d="M146.8636,2115.3345 A30,30 0 0,1 189.1142,2134.2438" style="stroke:#000000;stroke-width:0.1;"/>
            <!-- Arc -->
            <path d="M374.5255,2553.877 A973.9175,973.9175 0 0,1 138.6693,2145.3621" style="stroke:#000000;stroke-width:0.1;"/>
            <!-- Line -->
            <path d="M910.7588,2324.2896 L1300.4702,2549.2896 " style="stroke:#000000;stroke-width:0.1;"/>
            <!-- Line -->
            <path d="M1330.6145,2620.7642 L1360.85,2971.1684 " style="stroke:#000000;stroke-width:0.1;"/>
            <!-- Line -->
            <path d="M1880.6145,2620.7642 L1850.379,2971.1684 " style="stroke:#000000;stroke-width:0.1;"/>
            <!-- Line -->
            <path d="M1892.4575,2617.5909 L2093.8443,2905.9321 " style="stroke:#000000;stroke-width:0.1;"/>
            <!-- Line -->
            <path d="M2368.7715,2342.5909 L2517.7889,2661.1676 " style="stroke:#000000;stroke-width:0.1;"/>
            <!-- Line -->
            <path d="M842.4575,2342.5909 L693.4401,2661.1676 " style="stroke:#000000;stroke-width:0.1;"/>
            <!-- Line -->
            <path d="M1318.7715,2617.5909 L1117.3846,2905.9321 " style="stroke:#000000;stroke-width:0.1;"/>
            <!-- Arc -->
            <path d="M2836.7035,2553.877 A30,30 0 0,1 2806.6017,2561.7944" style="stroke:#000000;stroke-width:0.1;"/>
            <!-- Arc -->
            <path d="M2806.6017,2561.7944 A30,30 0 0,1 2801.8523,2515.7496" style="stroke:#000000;stroke-width:0.1;"/>
            <!-- Arc -->
            <path d="M3022.1148,2134.2438 A873.9175,873.9175 0 0,1 2801.8523,2515.7496" style="stroke:#000000;stroke-width:0.1;"/>
            <!-- Arc -->
            <path d="M3072.5597,2145.3621 A973.9175,973.9175 0 0,1 2836.7035,2553.877" style="stroke:#000000;stroke-width:0.1;"/>
            <!-- Arc -->
            <path d="M3114.0795,1350.5017 A873.9175,873.9175 0 0,1 3114.0795,1791.0267" style="stroke:#000000;stroke-width:0.1;"/>
            <!-- Arc -->
            <path d="M3163.3252,1334.908 A973.9175,973.9175 0 0,1 3163.3252,1806.6204" style="stroke:#000000;stroke-width:0.1;"/>
            <!-- Arc -->
            <path d="M3032.3754,1347.9686 A843.9175,843.9175 0 0,1 3032.3754,1793.5598" style="stroke:#000000;stroke-width:0.1;"/>
            <!-- Arc -->
            <path d="M3114.0795,1350.5017 A30,30 0 0,1 3141.215,1313.0005" style="stroke:#000000;stroke-width:0.1;"/>
            <!-- Arc -->
            <path d="M3141.215,1313.0005 A30,30 0 0,1 3163.3252,1334.908" style="stroke:#000000;stroke-width:0.1;"/>
            <!-- Arc -->
            <path d="M3006.0187,1325.9997 A30,30 0 0,1 3032.3754,1347.9686" style="stroke:#000000;stroke-width:0.1;"/>
            <!-- Arc -->
            <path d="M3064.3654,1026.1939 A30,30 0 0,1 3022.1148,1007.2846" style="stroke:#000000;stroke-width:0.1;"/>
            <!-- Arc -->
            <path d="M2952.6235,1050.3304 A30,30 0 0,1 2940.7824,1082.5343" style="stroke:#000000;stroke-width:0.1;"/>
            <!-- Arc -->
            <path d="M3072.5597,996.1663 A30,30 0 0,1 3064.3654,1026.1939" style="stroke:#000000;stroke-width:0.1;"/>
            <!-- Arc -->
            <path d="M3141.215,1828.5279 A30,30 0 0,1 3114.0795,1791.0267" style="stroke:#000000;stroke-width:0.1;"/>
            <!-- Arc -->
            <path d="M3163.3252,1806.6204 A30,30 0 0,1 3141.215,1828.5279" style="stroke:#000000;stroke-width:0.1;"/>
            <!-- Arc -->
            <path d="M3022.1148,2134.2438 A30,30 0 0,1 3064.3654,2115.3345" style="stroke:#000000;stroke-width:0.1;"/>
            <!-- Arc -->
            <path d="M3064.3654,2115.3345 A30,30 0 0,1 3072.5597,2145.3621" style="stroke:#000000;stroke-width:0.1;"/>
            <!-- Arc -->
            <path d="M2940.7824,2058.994 A30,30 0 0,1 2952.6235,2091.198" style="stroke:#000000;stroke-width:0.1;"/>
            <!-- Arc -->
            <path d="M3032.3754,1793.5598 A30,30 0 0,1 3006.0187,1815.5287" style="stroke:#000000;stroke-width:0.1;"/>
            <!-- Arc -->
            <path d="M1382.8189,144.0033 A843.9175,843.9175 0 0,1 1828.4101,144.0033" style="stroke:#000000;stroke-width:0.1;"/>
            <!-- Arc -->
            <path d="M1385.352,62.2991 A873.9175,873.9175 0 0,1 1825.877,62.2991" style="stroke:#000000;stroke-width:0.1;"/>
            <!-- Arc -->
            <path d="M1369.7583,13.0534 A973.9175,973.9175 0 0,1 1841.4707,13.0534" style="stroke:#000000;stroke-width:0.1;"/>
            <!-- Arc -->
            <path d="M1385.352,62.2991 A30,30 0 0,1 1347.8508,35.1637" style="stroke:#000000;stroke-width:0.1;"/>
            <!-- Arc -->
            <path d="M1347.8508,35.1637 A30,30 0 0,1 1369.7583,13.0534" style="stroke:#000000;stroke-width:0.1;"/>
            <!-- Arc -->
            <path d="M1360.85,170.3599 A30,30 0 0,1 1382.8189,144.0033" style="stroke:#000000;stroke-width:0.1;"/>
            <!-- Arc -->
            <path d="M1863.3782,35.1637 A30,30 0 0,1 1825.877,62.2991" style="stroke:#000000;stroke-width:0.1;"/>
            <!-- Arc -->
            <path d="M1841.4707,13.0534 A30,30 0 0,1 1863.3782,35.1637" style="stroke:#000000;stroke-width:0.1;"/>
            <!-- Arc -->
            <path d="M1828.4101,144.0033 A30,30 0 0,1 1850.379,170.3599" style="stroke:#000000;stroke-width:0.1;"/>
            <!-- Line -->
            <path d="M1380.6145,570.7642 L1830.6145,570.7642 " style="stroke:#000000;stroke-width:0.1;"/>
            <!-- Arc -->
            <path d="M1380.6145,570.7642 A50,50 0 0,1 1330.6145,520.7642" style="stroke:#000000;stroke-width:0.1;"/>
            <!-- Arc -->
            <path d="M1880.6145,520.7642 A50,50 0 0,1 1830.6145,570.7642" style="stroke:#000000;stroke-width:0.1;"/>
            <!-- Line -->
            <path d="M1330.6145,520.7642 L1360.85,170.3599 " style="stroke:#000000;stroke-width:0.1;"/>
            <!-- Line -->
            <path d="M1880.6145,520.7642 L1850.379,170.3599 " style="stroke:#000000;stroke-width:0.1;"/>
        </g>
    </g>
</svg>

