<?xml version="1.0" encoding="UTF-8"?>
<!-- 2026-03-10 12:28:09 Generated by QCAD 3.32.6 SVG Exporter -->
<svg  width="3320.6438mm" height="3331.0074mm" viewBox="17.4402 -3329.7984 3320.6438 3331.0074" version="1.1" xmlns="http://www.w3.org/2000/svg" style="stroke-linecap:round;stroke-linejoin:round;">
    <g transform="scale(1,-1)" fill="none">
            <!-- Auto-generated fillable area -->
            <path id="auto-fill" fill="inherit" stroke="none" d="M1711.5115,2618.8416 A462.0803,462.0803 0 0,1 1711.5115,3319.0917 A1660.3219,1660.3219 0 1,1 3338.0788,1663.2896 A340.3051,340.3051 0 0,1 2705.4937,1672.2026 A960.3219,960.3219 0 1,0 1711.5115,2618.8416 Z"/>
            <circle id="auto-fill" cx="1670.078199711007" cy="1617.1975689678839" r="420" fill="inherit" stroke="none"/>
            <!-- Block Reference: A$C0ECE726C / entities: 20 -->
        <g>
            <!-- Line -->
            <path d="M2610.1598,1247.1859 L3130.6916,1090.254 " style="stroke:#000000;stroke-width:0.1;"/>
            <!-- Line -->
            <path d="M2704.5751,1672.2155 L3338.0788,1663.2896 " style="stroke:#000000;stroke-width:0.1;"/>
            <!-- Arc -->
            <path d="M3338.0788,1663.2896 A340.3051,340.3051 0 0,1 2705.4937,1672.2026" style="stroke:#000000;stroke-width:0.1;"/>
            <!-- Line -->
            <path d="M1340.0158,2569.5005 L1127.5812,3120.4649 " style="stroke:#000000;stroke-width:0.1;"/>
            <!-- Line -->
            <path d="M1041.0338,2380.5985 L624.0326,2797.7572 " style="stroke:#000000;stroke-width:0.1;"/>
            <!-- Circle -->
            <circle cx="1670.078199711007" cy="1617.1975689678839" r="420" style="stroke:#000000;stroke-width:0.1;"/>
            <!-- Arc -->
            <path d="M1711.5115,2618.8416 A960.3219,960.3219 0 1,1 1711.5115,699.3842" style="stroke:#000000;stroke-width:0.1;"/>
            <!-- Line -->
            <path d="M2389.8572,940.22 L2828.5976,605.461 " style="stroke:#000000;stroke-width:0.1;"/>
            <!-- Line -->
            <path d="M1332.1478,751.3179 L1072.5055,223.9661 " style="stroke:#000000;stroke-width:0.1;"/>
            <!-- Line -->
            <path d="M1711.5115,99.156 L1711.5115,695.9749 " style="stroke:#000000;stroke-width:0.1;"/>
            <!-- Line -->
            <path d="M1033.1658,940.22 L568.957,586.0286 " style="stroke:#000000;stroke-width:0.1;"/>
            <!-- Line -->
            <path d="M2090.8753,751.3179 L2339.6119,246.1163 " style="stroke:#000000;stroke-width:0.1;"/>
            <!-- Arc -->
            <path d="M1711.5115,699.3842 A960.3219,960.3219 0 0,1 2705.4937,1672.2026" style="stroke:#000000;stroke-width:0.1;"/>
            <!-- Line -->
            <path d="M718.448,1672.2155 L159.8237,1664.3446 " style="stroke:#000000;stroke-width:0.1;"/>
            <!-- Line -->
            <path d="M804.9953,2065.7617 L238.5031,2309.7602 " style="stroke:#000000;stroke-width:0.1;"/>
            <!-- Line -->
            <path d="M812.8633,1247.1859 L238.5031,1074.0256 " style="stroke:#000000;stroke-width:0.1;"/>
            <!-- Arc -->
            <path d="M1711.5115,3219.0698 A1560.3219,1560.3219 0 1,1 3238.074,1664.6987" style="stroke:#000000;stroke-width:0.1;"/>
            <!-- Line -->
            <path d="M1711.5115,2618.8416 L1711.5115,3329.7984 " style="stroke:#000000;stroke-width:0.1;"/>
            <!-- Arc -->
            <path d="M1711.5115,2618.8416 A462.0803,462.0803 0 0,1 1711.5115,3319.0917" style="stroke:#000000;stroke-width:0.1;"/>
            <!-- Arc -->
            <path d="M1713.6745,3319.0464 A1660.3219,1660.3219 0 1,1 3338.0788,1663.2896" style="stroke:#000000;stroke-width:0.1;"/>
        </g>
    </g>
</svg>

