<?xml version="1.0" encoding="UTF-8"?>
<!-- 2026-03-09 22:02:12 Generated by QCAD 3.32.6 SVG Exporter -->
<svg  width="1296mm" height="648mm" viewBox="17.4189 -668.3154 1296 648" version="1.1" xmlns="http://www.w3.org/2000/svg" style="stroke-linecap:round;stroke-linejoin:round;">
    <g transform="scale(1,-1)">
            <!-- Auto-generated fillable area -->
            <!-- Block Reference: 1300mm X 650mm Coffee Table / entities: 18 -->
        <g>
            <!-- Line -->
            <path d="M1030.6392,77.906 L1255.7992,368.5169 " style="stroke:#000000;stroke-width:0.1;"/>
            <!-- Line -->
            <path d="M1037.8392,77.906 L1256.3902,359.9867 " style="stroke:#000000;stroke-width:0.1;"/>
            <!-- Line -->
            <path d="M1045.0392,77.906 L1256.3902,350.6938 " style="stroke:#000000;stroke-width:0.1;"/>
            <!-- Line -->
            <path d="M1052.2392,77.906 L1256.3902,341.4008 " style="stroke:#000000;stroke-width:0.1;"/>
            <!-- Line -->
            <path d="M1059.4392,77.906 L1256.3902,332.1079 " style="stroke:#000000;stroke-width:0.1;"/>
            <!-- Line -->
            <path d="M436.713,77.906 L890.579,611.2833 " style="stroke:#000000;stroke-width:0.1;"/>
            <!-- Line -->
            <path d="M443.913,77.906 L897.779,611.2833 " style="stroke:#000000;stroke-width:0.1;"/>
            <!-- Line -->
            <path d="M451.113,77.906 L904.979,611.2833 " style="stroke:#000000;stroke-width:0.1;"/>
            <!-- Line -->
            <path d="M458.313,77.906 L912.179,611.2833 " style="stroke:#000000;stroke-width:0.1;"/>
            <!-- Line -->
            <path d="M465.513,77.906 L919.379,611.2833 " style="stroke:#000000;stroke-width:0.1;"/>
            <!-- Line -->
            <path d="M472.713,77.906 L926.579,611.2833 " style="stroke:#000000;stroke-width:0.1;"/>
            <!-- Polyline -->
            <path d="M17.4189,20.3154 L17.4189,668.3154 L1313.4189,668.3154 L1313.4189,20.3154 Z" style="stroke:#000000;stroke-width:0.1;"/>
            <!-- Polyline -->
            <path d="M1256.3902,553.4959 L1195.3232,553.4959 L1195.3232,610.5942 L135.5147,610.5942 L135.5147,553.4959 L72.4777,553.4959 L72.4777,130.1805 L135.5147,130.1805 L135.5147,77.02 L1195.3232,77.02 L1195.3232,130.1805 L1256.3902,130.1805 Z" style="stroke:#000000;stroke-width:0.1;"/>
            <!-- Line -->
            <path d="M72.4777,209.3163 L457.8994,610.5942 " style="stroke:#000000;stroke-width:0.1;"/>
            <!-- Line -->
            <path d="M72.4777,201.8201 L465.0994,610.5942 " style="stroke:#000000;stroke-width:0.1;"/>
            <!-- Line -->
            <path d="M72.4777,194.3238 L472.2994,610.5942 " style="stroke:#000000;stroke-width:0.1;"/>
            <!-- Line -->
            <path d="M72.4777,186.8276 L479.4994,610.5942 " style="stroke:#000000;stroke-width:0.1;"/>
            <!-- Line -->
            <path d="M72.4777,216.8125 L450.6994,610.5942 " style="stroke:#000000;stroke-width:0.1;"/>
        </g>
    </g>
</svg>

