<?xml version="1.0" encoding="UTF-8"?>
<!-- 2026-03-10 12:52:06 Generated by QCAD 3.32.6 SVG Exporter -->
<svg  width="6720.3234mm" height="2520.3234mm" viewBox="4.1406 -2527.0673 6720.3234 2520.3234" version="1.1" xmlns="http://www.w3.org/2000/svg" style="stroke-linecap:round;stroke-linejoin:round;">
    <g transform="scale(1,-1)">
            <!-- Auto-generated fillable area -->
            <!-- Block Reference: 16 seater Executive Table / entities: 18 -->
        <g>
            <!-- Polyline -->
            <path d="M684.3023,686.9056 L6044.3023,686.9056 L6044.3023,1846.9056 L684.3023,1846.9056 Z" style="stroke:#000000;stroke-width:0.1;"/>
            <!-- Polyline -->
            <path d="M664.3023,666.9056 L6064.3023,666.9056 L6064.3023,1866.9056 L664.3023,1866.9056 Z" style="stroke:#000000;stroke-width:0.1;"/>
            <!-- Block Reference: chair_015 / entities: 8 -->
            <g>
                <!-- Arc -->
                <path d="M100.6115,1322.7856 A810.26,810.26 0 0,1 100.6115,1211.0256" style="stroke:#000000;stroke-width:0.1;"/>
                <!-- Arc -->
                <path d="M82.7726,1322.7856 A810.26,810.26 0 0,1 82.7726,1211.0256" style="stroke:#000000;stroke-width:0.1;"/>
                <!-- Polyline -->
                <path d="M46.4449,1436.6443 A841.14,841.14 0 0 1 46.4449,1097.1668" style="stroke:#000000;stroke-width:0.1;"/>
                <!-- Polyline -->
                <path d="M100.6115,1322.7856 L82.7726,1322.7856 A838.2,838.2 0 0 0 99.8222,1443.9653 A12.7,12.7 0 0 1 89.1181,1459.2325 L42.7636,1461.8972 A19.05,19.05 0 0 1 23.0359,1446.836 A866.14,866.14 0 0 1 23.0359,1086.9751 A19.05,19.05 0 0 1 42.7636,1071.914 L89.1181,1074.5786 A12.7,12.7 0 0 1 99.8222,1089.8458 A838.2,838.2 0 0 0 82.7726,1211.0256 L100.6115,1211.0256 A810.26,810.26 0 0 1 115.6614,1101.9006 A83.82,83.82 0 0 1 187.3283,1035.7973 L461.5243,1003.1103 L473.2985,1001.6385 A111.76,111.76 0 0 1 596.7233,1090.4826 A894.08,894.08 0 0 1 596.7233,1443.3285 A111.76,111.76 0 0 1 473.2985,1532.1726 L461.5243,1530.7008 L187.3283,1498.0138 A83.82,83.82 0 0 1 115.6614,1431.9106 A810.26,810.26 0 0 1 100.6115,1322.7856 Z" style="stroke:#000000;stroke-width:0.1;"/>
                <!-- Circle -->
                <circle cx="238.38228831144488" cy="1378.665559001021" r="10" style="stroke:#000000;stroke-width:0.1;"/>
                <!-- Circle -->
                <circle cx="474.60226332082243" cy="1378.6655949962328" r="10" style="stroke:#000000;stroke-width:0.1;"/>
                <!-- Circle -->
                <circle cx="474.6022883114201" cy="1155.1455590010396" r="10" style="stroke:#000000;stroke-width:0.1;"/>
                <!-- Circle -->
                <circle cx="238.38228831144465" cy="1155.1455590010414" r="10" style="stroke:#000000;stroke-width:0.1;"/>
            </g>
            <!-- Block Reference: chair_015 / entities: 8 -->
            <g>
                <!-- Arc -->
                <path d="M3420.1823,2430.5964 A810.26,810.26 0 0,1 3308.4223,2430.5964" style="stroke:#000000;stroke-width:0.1;"/>
                <!-- Arc -->
                <path d="M3420.1823,2448.4352 A810.26,810.26 0 0,1 3308.4223,2448.4352" style="stroke:#000000;stroke-width:0.1;"/>
                <!-- Polyline -->
                <path d="M3534.041,2484.763 A841.14,841.14 0 0 1 3194.5636,2484.763" style="stroke:#000000;stroke-width:0.1;"/>
                <!-- Polyline -->
                <path d="M3420.1823,2430.5964 L3420.1823,2448.4352 A838.2,838.2 0 0 0 3541.3621,2431.3857 A12.7,12.7 0 0 1 3556.6292,2442.0897 L3559.2939,2488.4443 A19.05,19.05 0 0 1 3544.2327,2508.172 A866.14,866.14 0 0 1 3184.3719,2508.172 A19.05,19.05 0 0 1 3169.3107,2488.4443 L3171.9753,2442.0897 A12.7,12.7 0 0 1 3187.2425,2431.3857 A838.2,838.2 0 0 0 3308.4223,2448.4352 L3308.4223,2430.5964 A810.26,810.26 0 0 1 3199.2973,2415.5465 A83.82,83.82 0 0 1 3133.194,2343.8795 L3100.507,2069.6835 L3099.0353,2057.9093 A111.76,111.76 0 0 1 3187.8794,1934.4846 A894.08,894.08 0 0 1 3540.7252,1934.4846 A111.76,111.76 0 0 1 3629.5693,2057.9093 L3628.0975,2069.6835 L3595.4105,2343.8795 A83.82,83.82 0 0 1 3529.3073,2415.5465 A810.26,810.26 0 0 1 3420.1823,2430.5964 Z" style="stroke:#000000;stroke-width:0.1;"/>
                <!-- Circle -->
                <circle cx="3476.0622883114515" cy="2292.825559002676" r="10" style="stroke:#000000;stroke-width:0.1;"/>
                <!-- Circle -->
                <circle cx="3476.0623243066634" cy="2056.6055839932983" r="10" style="stroke:#000000;stroke-width:0.1;"/>
                <!-- Circle -->
                <circle cx="3252.54228831147" cy="2056.6055590027013" r="10" style="stroke:#000000;stroke-width:0.1;"/>
                <!-- Circle -->
                <circle cx="3252.542288311472" cy="2292.825559002676" r="10" style="stroke:#000000;stroke-width:0.1;"/>
            </g>
            <!-- Block Reference: chair_015 / entities: 8 -->
            <g>
                <!-- Arc -->
                <path d="M2670.1823,2430.5964 A810.26,810.26 0 0,1 2558.4223,2430.5964" style="stroke:#000000;stroke-width:0.1;"/>
                <!-- Arc -->
                <path d="M2670.1823,2448.4352 A810.26,810.26 0 0,1 2558.4223,2448.4352" style="stroke:#000000;stroke-width:0.1;"/>
                <!-- Polyline -->
                <path d="M2784.041,2484.763 A841.14,841.14 0 0 1 2444.5636,2484.763" style="stroke:#000000;stroke-width:0.1;"/>
                <!-- Polyline -->
                <path d="M2670.1823,2430.5964 L2670.1823,2448.4352 A838.2,838.2 0 0 0 2791.3621,2431.3857 A12.7,12.7 0 0 1 2806.6292,2442.0897 L2809.2939,2488.4443 A19.05,19.05 0 0 1 2794.2327,2508.172 A866.14,866.14 0 0 1 2434.3719,2508.172 A19.05,19.05 0 0 1 2419.3107,2488.4443 L2421.9753,2442.0897 A12.7,12.7 0 0 1 2437.2425,2431.3857 A838.2,838.2 0 0 0 2558.4223,2448.4352 L2558.4223,2430.5964 A810.26,810.26 0 0 1 2449.2973,2415.5465 A83.82,83.82 0 0 1 2383.194,2343.8795 L2350.507,2069.6835 L2349.0353,2057.9093 A111.76,111.76 0 0 1 2437.8794,1934.4846 A894.08,894.08 0 0 1 2790.7252,1934.4846 A111.76,111.76 0 0 1 2879.5693,2057.9093 L2878.0975,2069.6835 L2845.4105,2343.8795 A83.82,83.82 0 0 1 2779.3073,2415.5465 A810.26,810.26 0 0 1 2670.1823,2430.5964 Z" style="stroke:#000000;stroke-width:0.1;"/>
                <!-- Circle -->
                <circle cx="2726.062288311451" cy="2292.825559002676" r="10" style="stroke:#000000;stroke-width:0.1;"/>
                <!-- Circle -->
                <circle cx="2726.0623243066625" cy="2056.6055839932983" r="10" style="stroke:#000000;stroke-width:0.1;"/>
                <!-- Circle -->
                <circle cx="2502.5422883114693" cy="2056.6055590027013" r="10" style="stroke:#000000;stroke-width:0.1;"/>
                <!-- Circle -->
                <circle cx="2502.5422883114716" cy="2292.825559002676" r="10" style="stroke:#000000;stroke-width:0.1;"/>
            </g>
            <!-- Block Reference: chair_015 / entities: 8 -->
            <g>
                <!-- Arc -->
                <path d="M1920.1823,2430.5964 A810.26,810.26 0 0,1 1808.4223,2430.5964" style="stroke:#000000;stroke-width:0.1;"/>
                <!-- Arc -->
                <path d="M1920.1823,2448.4352 A810.26,810.26 0 0,1 1808.4223,2448.4352" style="stroke:#000000;stroke-width:0.1;"/>
                <!-- Polyline -->
                <path d="M2034.041,2484.763 A841.14,841.14 0 0 1 1694.5636,2484.763" style="stroke:#000000;stroke-width:0.1;"/>
                <!-- Polyline -->
                <path d="M1920.1823,2430.5964 L1920.1823,2448.4352 A838.2,838.2 0 0 0 2041.3621,2431.3857 A12.7,12.7 0 0 1 2056.6292,2442.0897 L2059.2939,2488.4443 A19.05,19.05 0 0 1 2044.2327,2508.172 A866.14,866.14 0 0 1 1684.3719,2508.172 A19.05,19.05 0 0 1 1669.3107,2488.4443 L1671.9753,2442.0897 A12.7,12.7 0 0 1 1687.2425,2431.3857 A838.2,838.2 0 0 0 1808.4223,2448.4352 L1808.4223,2430.5964 A810.26,810.26 0 0 1 1699.2973,2415.5465 A83.82,83.82 0 0 1 1633.194,2343.8795 L1600.507,2069.6835 L1599.0353,2057.9093 A111.76,111.76 0 0 1 1687.8794,1934.4846 A894.08,894.08 0 0 1 2040.7252,1934.4846 A111.76,111.76 0 0 1 2129.5693,2057.9093 L2128.0975,2069.6835 L2095.4105,2343.8795 A83.82,83.82 0 0 1 2029.3073,2415.5465 A810.26,810.26 0 0 1 1920.1823,2430.5964 Z" style="stroke:#000000;stroke-width:0.1;"/>
                <!-- Circle -->
                <circle cx="1976.062288311451" cy="2292.825559002676" r="10" style="stroke:#000000;stroke-width:0.1;"/>
                <!-- Circle -->
                <circle cx="1976.0623243066625" cy="2056.6055839932983" r="10" style="stroke:#000000;stroke-width:0.1;"/>
                <!-- Circle -->
                <circle cx="1752.5422883114693" cy="2056.6055590027013" r="10" style="stroke:#000000;stroke-width:0.1;"/>
                <!-- Circle -->
                <circle cx="1752.5422883114716" cy="2292.825559002676" r="10" style="stroke:#000000;stroke-width:0.1;"/>
            </g>
            <!-- Block Reference: chair_015 / entities: 8 -->
            <g>
                <!-- Arc -->
                <path d="M1170.1823,2430.5964 A810.26,810.26 0 0,1 1058.4223,2430.5964" style="stroke:#000000;stroke-width:0.1;"/>
                <!-- Arc -->
                <path d="M1170.1823,2448.4352 A810.26,810.26 0 0,1 1058.4223,2448.4352" style="stroke:#000000;stroke-width:0.1;"/>
                <!-- Polyline -->
                <path d="M1284.041,2484.763 A841.14,841.14 0 0 1 944.5636,2484.763" style="stroke:#000000;stroke-width:0.1;"/>
                <!-- Polyline -->
                <path d="M1170.1823,2430.5964 L1170.1823,2448.4352 A838.2,838.2 0 0 0 1291.3621,2431.3857 A12.7,12.7 0 0 1 1306.6292,2442.0897 L1309.2939,2488.4443 A19.05,19.05 0 0 1 1294.2327,2508.172 A866.14,866.14 0 0 1 934.3719,2508.172 A19.05,19.05 0 0 1 919.3107,2488.4443 L921.9753,2442.0897 A12.7,12.7 0 0 1 937.2425,2431.3857 A838.2,838.2 0 0 0 1058.4223,2448.4352 L1058.4223,2430.5964 A810.26,810.26 0 0 1 949.2973,2415.5465 A83.82,83.82 0 0 1 883.194,2343.8795 L850.507,2069.6835 L849.0353,2057.9093 A111.76,111.76 0 0 1 937.8794,1934.4846 A894.08,894.08 0 0 1 1290.7252,1934.4846 A111.76,111.76 0 0 1 1379.5693,2057.9093 L1378.0975,2069.6835 L1345.4105,2343.8795 A83.82,83.82 0 0 1 1279.3073,2415.5465 A810.26,810.26 0 0 1 1170.1823,2430.5964 Z" style="stroke:#000000;stroke-width:0.1;"/>
                <!-- Circle -->
                <circle cx="1226.062288311451" cy="2292.825559002676" r="10" style="stroke:#000000;stroke-width:0.1;"/>
                <!-- Circle -->
                <circle cx="1226.0623243066625" cy="2056.6055839932983" r="10" style="stroke:#000000;stroke-width:0.1;"/>
                <!-- Circle -->
                <circle cx="1002.5422883114693" cy="2056.6055590027013" r="10" style="stroke:#000000;stroke-width:0.1;"/>
                <!-- Circle -->
                <circle cx="1002.5422883114716" cy="2292.825559002676" r="10" style="stroke:#000000;stroke-width:0.1;"/>
            </g>
            <!-- Block Reference: chair_015 / entities: 8 -->
            <g>
                <!-- Arc -->
                <path d="M4058.4223,2430.5964 A810.26,810.26 0 0,0 4170.1823,2430.5964" style="stroke:#000000;stroke-width:0.1;"/>
                <!-- Arc -->
                <path d="M4058.4223,2448.4352 A810.26,810.26 0 0,0 4170.1823,2448.4352" style="stroke:#000000;stroke-width:0.1;"/>
                <!-- Polyline -->
                <path d="M3944.5636,2484.763 A841.14,841.14 0 0 0 4284.041,2484.763" style="stroke:#000000;stroke-width:0.1;"/>
                <!-- Polyline -->
                <path d="M4058.4223,2430.5964 L4058.4223,2448.4352 A838.2,838.2 0 0 1 3937.2425,2431.3857 A12.7,12.7 0 0 0 3921.9753,2442.0897 L3919.3107,2488.4443 A19.05,19.05 0 0 0 3934.3719,2508.172 A866.14,866.14 0 0 0 4294.2327,2508.172 A19.05,19.05 0 0 0 4309.2939,2488.4443 L4306.6292,2442.0897 A12.7,12.7 0 0 0 4291.3621,2431.3857 A838.2,838.2 0 0 1 4170.1823,2448.4352 L4170.1823,2430.5964 A810.26,810.26 0 0 0 4279.3073,2415.5465 A83.82,83.82 0 0 0 4345.4105,2343.8795 L4378.0975,2069.6835 L4379.5693,2057.9093 A111.76,111.76 0 0 0 4290.7252,1934.4846 A894.08,894.08 0 0 0 3937.8794,1934.4846 A111.76,111.76 0 0 0 3849.0353,2057.9093 L3850.507,2069.6835 L3883.194,2343.8795 A83.82,83.82 0 0 0 3949.2973,2415.5465 A810.26,810.26 0 0 0 4058.4223,2430.5964 Z" style="stroke:#000000;stroke-width:0.1;"/>
                <!-- Circle -->
                <!-- Circle -->
                <!-- Circle -->
                <!-- Circle -->
            </g>
            <!-- Block Reference: chair_015 / entities: 8 -->
            <g>
                <!-- Arc -->
                <path d="M4808.4223,2430.5964 A810.26,810.26 0 0,0 4920.1823,2430.5964" style="stroke:#000000;stroke-width:0.1;"/>
                <!-- Arc -->
                <path d="M4808.4223,2448.4352 A810.26,810.26 0 0,0 4920.1823,2448.4352" style="stroke:#000000;stroke-width:0.1;"/>
                <!-- Polyline -->
                <path d="M4694.5636,2484.763 A841.14,841.14 0 0 0 5034.041,2484.763" style="stroke:#000000;stroke-width:0.1;"/>
                <!-- Polyline -->
                <path d="M4808.4223,2430.5964 L4808.4223,2448.4352 A838.2,838.2 0 0 1 4687.2425,2431.3857 A12.7,12.7 0 0 0 4671.9753,2442.0897 L4669.3107,2488.4443 A19.05,19.05 0 0 0 4684.3719,2508.172 A866.14,866.14 0 0 0 5044.2327,2508.172 A19.05,19.05 0 0 0 5059.2939,2488.4443 L5056.6292,2442.0897 A12.7,12.7 0 0 0 5041.3621,2431.3857 A838.2,838.2 0 0 1 4920.1823,2448.4352 L4920.1823,2430.5964 A810.26,810.26 0 0 0 5029.3073,2415.5465 A83.82,83.82 0 0 0 5095.4105,2343.8795 L5128.0975,2069.6835 L5129.5693,2057.9093 A111.76,111.76 0 0 0 5040.7252,1934.4846 A894.08,894.08 0 0 0 4687.8794,1934.4846 A111.76,111.76 0 0 0 4599.0353,2057.9093 L4600.507,2069.6835 L4633.194,2343.8795 A83.82,83.82 0 0 0 4699.2973,2415.5465 A810.26,810.26 0 0 0 4808.4223,2430.5964 Z" style="stroke:#000000;stroke-width:0.1;"/>
                <!-- Circle -->
                <!-- Circle -->
                <!-- Circle -->
                <!-- Circle -->
            </g>
            <!-- Block Reference: chair_015 / entities: 8 -->
            <g>
                <!-- Arc -->
                <path d="M5558.4223,2430.5964 A810.26,810.26 0 0,0 5670.1823,2430.5964" style="stroke:#000000;stroke-width:0.1;"/>
                <!-- Arc -->
                <path d="M5558.4223,2448.4352 A810.26,810.26 0 0,0 5670.1823,2448.4352" style="stroke:#000000;stroke-width:0.1;"/>
                <!-- Polyline -->
                <path d="M5444.5636,2484.763 A841.14,841.14 0 0 0 5784.041,2484.763" style="stroke:#000000;stroke-width:0.1;"/>
                <!-- Polyline -->
                <path d="M5558.4223,2430.5964 L5558.4223,2448.4352 A838.2,838.2 0 0 1 5437.2425,2431.3857 A12.7,12.7 0 0 0 5421.9753,2442.0897 L5419.3107,2488.4443 A19.05,19.05 0 0 0 5434.3719,2508.172 A866.14,866.14 0 0 0 5794.2327,2508.172 A19.05,19.05 0 0 0 5809.2939,2488.4443 L5806.6292,2442.0897 A12.7,12.7 0 0 0 5791.3621,2431.3857 A838.2,838.2 0 0 1 5670.1823,2448.4352 L5670.1823,2430.5964 A810.26,810.26 0 0 0 5779.3073,2415.5465 A83.82,83.82 0 0 0 5845.4105,2343.8795 L5878.0975,2069.6835 L5879.5693,2057.9093 A111.76,111.76 0 0 0 5790.7252,1934.4846 A894.08,894.08 0 0 0 5437.8794,1934.4846 A111.76,111.76 0 0 0 5349.0353,2057.9093 L5350.507,2069.6835 L5383.194,2343.8795 A83.82,83.82 0 0 0 5449.2973,2415.5465 A810.26,810.26 0 0 0 5558.4223,2430.5964 Z" style="stroke:#000000;stroke-width:0.1;"/>
                <!-- Circle -->
                <!-- Circle -->
                <!-- Circle -->
                <!-- Circle -->
            </g>
            <!-- Block Reference: chair_015 / entities: 8 -->
            <g>
                <!-- Arc -->
                <path d="M3420.1823,103.2148 A810.26,810.26 0 0,0 3308.4223,103.2148" style="stroke:#000000;stroke-width:0.1;"/>
                <!-- Arc -->
                <path d="M3420.1823,85.3759 A810.26,810.26 0 0,0 3308.4223,85.3759" style="stroke:#000000;stroke-width:0.1;"/>
                <!-- Polyline -->
                <path d="M3534.041,49.0481 A841.14,841.14 0 0 0 3194.5636,49.0481" style="stroke:#000000;stroke-width:0.1;"/>
                <!-- Polyline -->
                <path d="M3420.1823,103.2148 L3420.1823,85.3759 A838.2,838.2 0 0 1 3541.3621,102.4254 A12.7,12.7 0 0 0 3556.6292,91.7214 L3559.2939,45.3668 A19.05,19.05 0 0 0 3544.2327,25.6392 A866.14,866.14 0 0 0 3184.3719,25.6392 A19.05,19.05 0 0 0 3169.3107,45.3668 L3171.9753,91.7214 A12.7,12.7 0 0 0 3187.2425,102.4254 A838.2,838.2 0 0 1 3308.4223,85.3759 L3308.4223,103.2148 A810.26,810.26 0 0 0 3199.2973,118.2646 A83.82,83.82 0 0 0 3133.194,189.9316 L3100.507,464.1276 L3099.0353,475.9018 A111.76,111.76 0 0 0 3187.8794,599.3266 A894.08,894.08 0 0 0 3540.7252,599.3266 A111.76,111.76 0 0 0 3629.5693,475.9018 L3628.0975,464.1276 L3595.4105,189.9316 A83.82,83.82 0 0 0 3529.3073,118.2646 A810.26,810.26 0 0 0 3420.1823,103.2148 Z" style="stroke:#000000;stroke-width:0.1;"/>
                <!-- Circle -->
                <!-- Circle -->
                <!-- Circle -->
                <!-- Circle -->
            </g>
            <!-- Block Reference: chair_015 / entities: 8 -->
            <g>
                <!-- Arc -->
                <path d="M2670.1823,103.2148 A810.26,810.26 0 0,0 2558.4223,103.2148" style="stroke:#000000;stroke-width:0.1;"/>
                <!-- Arc -->
                <path d="M2670.1823,85.3759 A810.26,810.26 0 0,0 2558.4223,85.3759" style="stroke:#000000;stroke-width:0.1;"/>
                <!-- Polyline -->
                <path d="M2784.041,49.0481 A841.14,841.14 0 0 0 2444.5636,49.0481" style="stroke:#000000;stroke-width:0.1;"/>
                <!-- Polyline -->
                <path d="M2670.1823,103.2148 L2670.1823,85.3759 A838.2,838.2 0 0 1 2791.3621,102.4254 A12.7,12.7 0 0 0 2806.6292,91.7214 L2809.2939,45.3668 A19.05,19.05 0 0 0 2794.2327,25.6392 A866.14,866.14 0 0 0 2434.3719,25.6392 A19.05,19.05 0 0 0 2419.3107,45.3668 L2421.9753,91.7214 A12.7,12.7 0 0 0 2437.2425,102.4254 A838.2,838.2 0 0 1 2558.4223,85.3759 L2558.4223,103.2148 A810.26,810.26 0 0 0 2449.2973,118.2646 A83.82,83.82 0 0 0 2383.194,189.9316 L2350.507,464.1276 L2349.0353,475.9018 A111.76,111.76 0 0 0 2437.8794,599.3266 A894.08,894.08 0 0 0 2790.7252,599.3266 A111.76,111.76 0 0 0 2879.5693,475.9018 L2878.0975,464.1276 L2845.4105,189.9316 A83.82,83.82 0 0 0 2779.3073,118.2646 A810.26,810.26 0 0 0 2670.1823,103.2148 Z" style="stroke:#000000;stroke-width:0.1;"/>
                <!-- Circle -->
                <!-- Circle -->
                <!-- Circle -->
                <!-- Circle -->
            </g>
            <!-- Block Reference: chair_015 / entities: 8 -->
            <g>
                <!-- Arc -->
                <path d="M1920.1823,103.2148 A810.26,810.26 0 0,0 1808.4223,103.2148" style="stroke:#000000;stroke-width:0.1;"/>
                <!-- Arc -->
                <path d="M1920.1823,85.3759 A810.26,810.26 0 0,0 1808.4223,85.3759" style="stroke:#000000;stroke-width:0.1;"/>
                <!-- Polyline -->
                <path d="M2034.041,49.0481 A841.14,841.14 0 0 0 1694.5636,49.0481" style="stroke:#000000;stroke-width:0.1;"/>
                <!-- Polyline -->
                <path d="M1920.1823,103.2148 L1920.1823,85.3759 A838.2,838.2 0 0 1 2041.3621,102.4254 A12.7,12.7 0 0 0 2056.6292,91.7214 L2059.2939,45.3668 A19.05,19.05 0 0 0 2044.2327,25.6392 A866.14,866.14 0 0 0 1684.3719,25.6392 A19.05,19.05 0 0 0 1669.3107,45.3668 L1671.9753,91.7214 A12.7,12.7 0 0 0 1687.2425,102.4254 A838.2,838.2 0 0 1 1808.4223,85.3759 L1808.4223,103.2148 A810.26,810.26 0 0 0 1699.2973,118.2646 A83.82,83.82 0 0 0 1633.194,189.9316 L1600.507,464.1276 L1599.0353,475.9018 A111.76,111.76 0 0 0 1687.8794,599.3266 A894.08,894.08 0 0 0 2040.7252,599.3266 A111.76,111.76 0 0 0 2129.5693,475.9018 L2128.0975,464.1276 L2095.4105,189.9316 A83.82,83.82 0 0 0 2029.3073,118.2646 A810.26,810.26 0 0 0 1920.1823,103.2148 Z" style="stroke:#000000;stroke-width:0.1;"/>
                <!-- Circle -->
                <!-- Circle -->
                <!-- Circle -->
                <!-- Circle -->
            </g>
            <!-- Block Reference: chair_015 / entities: 8 -->
            <g>
                <!-- Arc -->
                <path d="M1170.1823,103.2148 A810.26,810.26 0 0,0 1058.4223,103.2148" style="stroke:#000000;stroke-width:0.1;"/>
                <!-- Arc -->
                <path d="M1170.1823,85.3759 A810.26,810.26 0 0,0 1058.4223,85.3759" style="stroke:#000000;stroke-width:0.1;"/>
                <!-- Polyline -->
                <path d="M1284.041,49.0481 A841.14,841.14 0 0 0 944.5636,49.0481" style="stroke:#000000;stroke-width:0.1;"/>
                <!-- Polyline -->
                <path d="M1170.1823,103.2148 L1170.1823,85.3759 A838.2,838.2 0 0 1 1291.3621,102.4254 A12.7,12.7 0 0 0 1306.6292,91.7214 L1309.2939,45.3668 A19.05,19.05 0 0 0 1294.2327,25.6392 A866.14,866.14 0 0 0 934.3719,25.6392 A19.05,19.05 0 0 0 919.3107,45.3668 L921.9753,91.7214 A12.7,12.7 0 0 0 937.2425,102.4254 A838.2,838.2 0 0 1 1058.4223,85.3759 L1058.4223,103.2148 A810.26,810.26 0 0 0 949.2973,118.2646 A83.82,83.82 0 0 0 883.194,189.9316 L850.507,464.1276 L849.0353,475.9018 A111.76,111.76 0 0 0 937.8794,599.3266 A894.08,894.08 0 0 0 1290.7252,599.3266 A111.76,111.76 0 0 0 1379.5693,475.9018 L1378.0975,464.1276 L1345.4105,189.9316 A83.82,83.82 0 0 0 1279.3073,118.2646 A810.26,810.26 0 0 0 1170.1823,103.2148 Z" style="stroke:#000000;stroke-width:0.1;"/>
                <!-- Circle -->
                <!-- Circle -->
                <!-- Circle -->
                <!-- Circle -->
            </g>
            <!-- Block Reference: chair_015 / entities: 8 -->
            <g>
                <!-- Arc -->
                <path d="M4058.4223,103.2148 A810.26,810.26 0 0,1 4170.1823,103.2148" style="stroke:#000000;stroke-width:0.1;"/>
                <!-- Arc -->
                <path d="M4058.4223,85.3759 A810.26,810.26 0 0,1 4170.1823,85.3759" style="stroke:#000000;stroke-width:0.1;"/>
                <!-- Polyline -->
                <path d="M3944.5636,49.0481 A841.14,841.14 0 0 1 4284.041,49.0481" style="stroke:#000000;stroke-width:0.1;"/>
                <!-- Polyline -->
                <path d="M4058.4223,103.2148 L4058.4223,85.3759 A838.2,838.2 0 0 0 3937.2425,102.4254 A12.7,12.7 0 0 1 3921.9753,91.7214 L3919.3107,45.3668 A19.05,19.05 0 0 1 3934.3719,25.6392 A866.14,866.14 0 0 1 4294.2327,25.6392 A19.05,19.05 0 0 1 4309.2939,45.3668 L4306.6292,91.7214 A12.7,12.7 0 0 1 4291.3621,102.4254 A838.2,838.2 0 0 0 4170.1823,85.3759 L4170.1823,103.2148 A810.26,810.26 0 0 1 4279.3073,118.2646 A83.82,83.82 0 0 1 4345.4105,189.9316 L4378.0975,464.1276 L4379.5693,475.9018 A111.76,111.76 0 0 1 4290.7252,599.3266 A894.08,894.08 0 0 1 3937.8794,599.3266 A111.76,111.76 0 0 1 3849.0353,475.9018 L3850.507,464.1276 L3883.194,189.9316 A83.82,83.82 0 0 1 3949.2973,118.2646 A810.26,810.26 0 0 1 4058.4223,103.2148 Z" style="stroke:#000000;stroke-width:0.1;"/>
                <!-- Circle -->
                <circle cx="4002.5422883115075" cy="240.98555900278507" r="10" style="stroke:#000000;stroke-width:0.1;"/>
                <!-- Circle -->
                <circle cx="4002.542252316271" cy="477.20553401216284" r="10" style="stroke:#000000;stroke-width:0.1;"/>
                <!-- Circle -->
                <circle cx="4226.062288311465" cy="477.2055590027844" r="10" style="stroke:#000000;stroke-width:0.1;"/>
                <!-- Circle -->
                <circle cx="4226.062288311487" cy="240.9855590028087" r="10" style="stroke:#000000;stroke-width:0.1;"/>
            </g>
            <!-- Block Reference: chair_015 / entities: 8 -->
            <g>
                <!-- Arc -->
                <path d="M4808.4223,103.2148 A810.26,810.26 0 0,1 4920.1823,103.2148" style="stroke:#000000;stroke-width:0.1;"/>
                <!-- Arc -->
                <path d="M4808.4223,85.3759 A810.26,810.26 0 0,1 4920.1823,85.3759" style="stroke:#000000;stroke-width:0.1;"/>
                <!-- Polyline -->
                <path d="M4694.5636,49.0481 A841.14,841.14 0 0 1 5034.041,49.0481" style="stroke:#000000;stroke-width:0.1;"/>
                <!-- Polyline -->
                <path d="M4808.4223,103.2148 L4808.4223,85.3759 A838.2,838.2 0 0 0 4687.2425,102.4254 A12.7,12.7 0 0 1 4671.9753,91.7214 L4669.3107,45.3668 A19.05,19.05 0 0 1 4684.3719,25.6392 A866.14,866.14 0 0 1 5044.2327,25.6392 A19.05,19.05 0 0 1 5059.2939,45.3668 L5056.6292,91.7214 A12.7,12.7 0 0 1 5041.3621,102.4254 A838.2,838.2 0 0 0 4920.1823,85.3759 L4920.1823,103.2148 A810.26,810.26 0 0 1 5029.3073,118.2646 A83.82,83.82 0 0 1 5095.4105,189.9316 L5128.0975,464.1276 L5129.5693,475.9018 A111.76,111.76 0 0 1 5040.7252,599.3266 A894.08,894.08 0 0 1 4687.8794,599.3266 A111.76,111.76 0 0 1 4599.0353,475.9018 L4600.507,464.1276 L4633.194,189.9316 A83.82,83.82 0 0 1 4699.2973,118.2646 A810.26,810.26 0 0 1 4808.4223,103.2148 Z" style="stroke:#000000;stroke-width:0.1;"/>
                <!-- Circle -->
                <circle cx="4752.542288311508" cy="240.9855590028651" r="10" style="stroke:#000000;stroke-width:0.1;"/>
                <!-- Circle -->
                <circle cx="4752.542252316271" cy="477.2055340122429" r="10" style="stroke:#000000;stroke-width:0.1;"/>
                <!-- Circle -->
                <circle cx="4976.062288311465" cy="477.20555900286445" r="10" style="stroke:#000000;stroke-width:0.1;"/>
                <!-- Circle -->
                <circle cx="4976.062288311487" cy="240.98555900288875" r="10" style="stroke:#000000;stroke-width:0.1;"/>
            </g>
            <!-- Block Reference: chair_015 / entities: 8 -->
            <g>
                <!-- Arc -->
                <path d="M5558.4223,103.2148 A810.26,810.26 0 0,1 5670.1823,103.2148" style="stroke:#000000;stroke-width:0.1;"/>
                <!-- Arc -->
                <path d="M5558.4223,85.3759 A810.26,810.26 0 0,1 5670.1823,85.3759" style="stroke:#000000;stroke-width:0.1;"/>
                <!-- Polyline -->
                <path d="M5444.5636,49.0481 A841.14,841.14 0 0 1 5784.041,49.0481" style="stroke:#000000;stroke-width:0.1;"/>
                <!-- Polyline -->
                <path d="M5558.4223,103.2148 L5558.4223,85.3759 A838.2,838.2 0 0 0 5437.2425,102.4254 A12.7,12.7 0 0 1 5421.9753,91.7214 L5419.3107,45.3668 A19.05,19.05 0 0 1 5434.3719,25.6392 A866.14,866.14 0 0 1 5794.2327,25.6392 A19.05,19.05 0 0 1 5809.2939,45.3668 L5806.6292,91.7214 A12.7,12.7 0 0 1 5791.3621,102.4254 A838.2,838.2 0 0 0 5670.1823,85.3759 L5670.1823,103.2148 A810.26,810.26 0 0 1 5779.3073,118.2646 A83.82,83.82 0 0 1 5845.4105,189.9316 L5878.0975,464.1276 L5879.5693,475.9018 A111.76,111.76 0 0 1 5790.7252,599.3266 A894.08,894.08 0 0 1 5437.8794,599.3266 A111.76,111.76 0 0 1 5349.0353,475.9018 L5350.507,464.1276 L5383.194,189.9316 A83.82,83.82 0 0 1 5449.2973,118.2646 A810.26,810.26 0 0 1 5558.4223,103.2148 Z" style="stroke:#000000;stroke-width:0.1;"/>
                <!-- Circle -->
                <circle cx="5502.542288311508" cy="240.98555900294514" r="10" style="stroke:#000000;stroke-width:0.1;"/>
                <!-- Circle -->
                <circle cx="5502.542252316271" cy="477.2055340123229" r="10" style="stroke:#000000;stroke-width:0.1;"/>
                <!-- Circle -->
                <circle cx="5726.062288311465" cy="477.2055590029445" r="10" style="stroke:#000000;stroke-width:0.1;"/>
                <!-- Circle -->
                <circle cx="5726.062288311487" cy="240.98555900296878" r="10" style="stroke:#000000;stroke-width:0.1;"/>
            </g>
            <!-- Block Reference: chair_015 / entities: 8 -->
            <g>
                <!-- Arc -->
                <path d="M6627.9931,1322.7856 A810.26,810.26 0 0,0 6627.9931,1211.0256" style="stroke:#000000;stroke-width:0.1;"/>
                <!-- Arc -->
                <path d="M6645.832,1322.7856 A810.26,810.26 0 0,0 6645.832,1211.0256" style="stroke:#000000;stroke-width:0.1;"/>
                <!-- Polyline -->
                <path d="M6682.1597,1436.6443 A841.14,841.14 0 0 0 6682.1597,1097.1668" style="stroke:#000000;stroke-width:0.1;"/>
                <!-- Polyline -->
                <path d="M6627.9931,1322.7856 L6645.832,1322.7856 A838.2,838.2 0 0 1 6628.7824,1443.9653 A12.7,12.7 0 0 0 6639.4865,1459.2325 L6685.841,1461.8972 A19.05,19.05 0 0 0 6705.5687,1446.836 A866.14,866.14 0 0 0 6705.5687,1086.9751 A19.05,19.05 0 0 0 6685.841,1071.914 L6639.4865,1074.5786 A12.7,12.7 0 0 0 6628.7824,1089.8458 A838.2,838.2 0 0 1 6645.832,1211.0256 L6627.9931,1211.0256 A810.26,810.26 0 0 0 6612.9432,1101.9006 A83.82,83.82 0 0 0 6541.2763,1035.7973 L6267.0802,1003.1103 L6255.306,1001.6385 A111.76,111.76 0 0 0 6131.8813,1090.4826 A894.08,894.08 0 0 0 6131.8813,1443.3285 A111.76,111.76 0 0 0 6255.306,1532.1726 L6267.0802,1530.7008 L6541.2763,1498.0138 A83.82,83.82 0 0 0 6612.9432,1431.9106 A810.26,810.26 0 0 0 6627.9931,1322.7856 Z" style="stroke:#000000;stroke-width:0.1;"/>
                <!-- Circle -->
                <!-- Circle -->
                <!-- Circle -->
                <!-- Circle -->
            </g>
        </g>
    </g>
</svg>

