<?xml version="1.0" encoding="UTF-8"?>
<!-- 2026-03-10 13:17:14 Generated by QCAD 3.32.6 SVG Exporter -->
<svg  width="3467.6001mm" height="3467.6001mm" viewBox="-0.3855 -3468.4114 3467.6001 3467.6001" version="1.1" xmlns="http://www.w3.org/2000/svg" style="stroke-linecap:round;stroke-linejoin:round;">
    <g transform="scale(1,-1)">
            <!-- Auto-generated fillable area -->
            <!-- Block Reference: 16 seater round table / entities: 34 -->
        <g>
            <!-- Polyline -->
            <path d="M3398.5235,2195.1885 A216.619,216.619 0 0 1 3314.122,2170.6016 A1180.69,1180.69 0 0 0 2971.5671,2011.8542 A22.2032,22.2032 0 0 0 2964.9253,2035.5406 A12.0328,12.0328 0 0 1 2962.0385,2044.2418 A480.879,480.879 0 0 0 2938.0302,2092.8195 L2888.264,2212.9656 L2838.4978,2333.1118 A480.879,480.879 0 0 0 2821.1246,2384.4379 A12.0328,12.0328 0 0 1 2817.0133,2392.6318 A22.2032,22.2032 0 0 0 2804.9609,2414.0771 A1180.69,1180.69 0 0 0 3159.4352,2544.0486 A216.619,216.619 0 0 1 3236.5016,2586.344 A12.6008,12.6008 0 0 0 3258.3519,2583.7248 L3412.1219,2212.491 A12.6008,12.6008 0 0 0 3398.5235,2195.1885 Z" style="stroke:#000000;stroke-width:0.1;"/>
            <!-- Block Reference: A$C1D6968EA / entities: 30 -->
            <g>
                <!-- Arc -->
                <path d="M3387.5793,2218.5975 A240.8687,240.8687 0 0,1 3302.1122,2192.0706" style="stroke:#000000;stroke-width:0.1;"/>
                <!-- Arc -->
                <path d="M3368.8876,2215.708 A317.3163,317.3163 0 0,1 3280.7134,2195.1269" style="stroke:#000000;stroke-width:0.1;"/>
                <!-- Arc -->
                <path d="M3153.3954,2502.4996 A317.3163,317.3163 0 0,1 3230.2971,2550.2951" style="stroke:#000000;stroke-width:0.1;"/>
                <!-- Arc -->
                <path d="M3166.3656,2519.792 A240.8687,240.8687 0 0,1 3245.5572,2561.469" style="stroke:#000000;stroke-width:0.1;"/>
                <!-- Line -->
                <path d="M3236.3666,2356.8126 L3277.2315,2258.1561 " style="stroke:#000000;stroke-width:0.1;"/>
                <!-- Arc -->
                <path d="M2964.9349,2035.5062 A1154.4088,1154.4088 0 0,1 3299.866,2190.7206" style="stroke:#000000;stroke-width:0.1;"/>
                <!-- Arc -->
                <path d="M3270.6403,2171.5976 A97.8312,97.8312 0 0,1 3277.2315,2258.1561" style="stroke:#000000;stroke-width:0.1;"/>
                <!-- Arc -->
                <path d="M2964.9349,2035.5062 A12.0153,12.0153 0 0,1 2962.0523,2044.1948" style="stroke:#000000;stroke-width:0.1;"/>
                <!-- Line -->
                <path d="M2962.0523,2044.1948 L2980.652,2049.9886 " style="stroke:#000000;stroke-width:0.1;"/>
                <!-- Line -->
                <path d="M2980.652,2049.9886 L2980.1526,2039.8861 " style="stroke:#000000;stroke-width:0.1;"/>
                <!-- Line -->
                <path d="M2980.652,2049.9886 L2984.323,2041.126 " style="stroke:#000000;stroke-width:0.1;"/>
                <!-- Line -->
                <path d="M2838.5917,2392.9525 L2834.9207,2401.815 " style="stroke:#000000;stroke-width:0.1;"/>
                <!-- Line -->
                <path d="M2838.5917,2392.9525 L2831.0951,2399.7428 " style="stroke:#000000;stroke-width:0.1;"/>
                <!-- Line -->
                <path d="M2821.3429,2383.8973 L2838.5917,2392.9525 " style="stroke:#000000;stroke-width:0.1;"/>
                <!-- Arc -->
                <path d="M2821.3429,2383.8973 A12.0153,12.0153 0 0,1 2817.2375,2392.0794" style="stroke:#000000;stroke-width:0.1;"/>
                <!-- Arc -->
                <path d="M3195.5017,2455.4691 A97.8312,97.8312 0 0,1 3129.6349,2512.0145" style="stroke:#000000;stroke-width:0.1;"/>
                <!-- Arc -->
                <path d="M3163.8227,2519.1582 A1154.4088,1154.4088 0 0,1 2817.2375,2392.0794" style="stroke:#000000;stroke-width:0.1;"/>
                <!-- Line -->
                <path d="M3236.3666,2356.8126 L3195.5017,2455.4691 " style="stroke:#000000;stroke-width:0.1;"/>
                <!-- Line -->
                <path d="M3312.0148,2388.1471 L3382.2072,2218.6879 " style="stroke:#000000;stroke-width:0.1;"/>
                <!-- Line -->
                <path d="M3319.5796,2391.2806 L3389.8952,2221.5237 " style="stroke:#000000;stroke-width:0.1;"/>
                <!-- Arc -->
                <path d="M3387.5793,2218.5975 A2.4177,2.4177 0 0,1 3389.8952,2221.5237" style="stroke:#000000;stroke-width:0.1;"/>
                <!-- Arc -->
                <path d="M3381.5882,2217.719 A0.7251,0.7251 0 0,1 3382.1817,2218.7492" style="stroke:#000000;stroke-width:0.1;"/>
                <!-- Line -->
                <path d="M3311.2583,2387.8338 L3381.4507,2218.3745 " style="stroke:#000000;stroke-width:0.1;"/>
                <!-- Arc -->
                <path d="M3381.2219,2217.6704 A0.4331,0.4331 0 0,1 3381.4507,2218.3745" style="stroke:#000000;stroke-width:0.1;"/>
                <!-- Arc -->
                <path d="M3241.066,2557.2931 A0.4331,0.4331 0 0,1 3240.4064,2557.6292" style="stroke:#000000;stroke-width:0.1;"/>
                <!-- Line -->
                <path d="M3311.2583,2387.8338 L3241.066,2557.2931 " style="stroke:#000000;stroke-width:0.1;"/>
                <!-- Arc -->
                <path d="M3241.8479,2557.5451 A0.7251,0.7251 0 0,1 3240.6997,2557.8538" style="stroke:#000000;stroke-width:0.1;"/>
                <!-- Arc -->
                <path d="M3249.2641,2561.0374 A2.4177,2.4177 0 0,1 3245.5572,2561.469" style="stroke:#000000;stroke-width:0.1;"/>
                <!-- Line -->
                <path d="M3319.5796,2391.2806 L3249.2641,2561.0374 " style="stroke:#000000;stroke-width:0.1;"/>
                <!-- Line -->
                <path d="M3312.0148,2388.1471 L3241.8225,2557.6064 " style="stroke:#000000;stroke-width:0.1;"/>
            </g>
            <!-- Polyline -->
            <path d="M3095.5194,2797.3387 A216.619,216.619 0 0 1 3026.9516,2742.3244 A1180.69,1180.69 0 0 0 2771.2221,2464.5708 A22.2032,22.2032 0 0 0 2756.0215,2483.9125 A12.0328,12.0328 0 0 1 2750.0246,2490.8466 A480.879,480.879 0 0 0 2709.2539,2526.5389 L2617.2981,2618.4948 L2525.3422,2710.4507 A480.879,480.879 0 0 0 2489.6498,2751.2214 A12.0328,12.0328 0 0 1 2482.7157,2757.2183 A22.2032,22.2032 0 0 0 2463.374,2772.4189 A1180.69,1180.69 0 0 0 2741.1276,3028.1483 A216.619,216.619 0 0 1 2796.142,3096.7162 A12.6008,12.6008 0 0 0 2817.3313,3102.6581 L3101.4613,2818.5281 A12.6008,12.6008 0 0 0 3095.5194,2797.3387 Z" style="stroke:#000000;stroke-width:0.1;"/>
            <!-- Block Reference: A$C1D6968EA / entities: 30 -->
            <g>
                <!-- Arc -->
                <path d="M3076.45,2814.7776 A240.8687,240.8687 0 0,1 3007.6401,2757.5632" style="stroke:#000000;stroke-width:0.1;"/>
                <!-- Arc -->
                <path d="M3060.2869,2804.9552 A317.3163,317.3163 0 0,1 2986.7006,2752.1979" style="stroke:#000000;stroke-width:0.1;"/>
                <!-- Arc -->
                <path d="M2751.4477,2987.4507 A317.3163,317.3163 0 0,1 2804.205,3061.0371" style="stroke:#000000;stroke-width:0.1;"/>
                <!-- Arc -->
                <path d="M2756.8131,3008.3903 A240.8687,240.8687 0 0,1 2814.0275,3077.2001" style="stroke:#000000;stroke-width:0.1;"/>
                <!-- Line -->
                <path d="M2883.8551,2884.6052 L2959.3635,2809.0968 " style="stroke:#000000;stroke-width:0.1;"/>
                <!-- Arc -->
                <path d="M2756.0435,2483.8844 A1154.4088,1154.4088 0 0,1 3006.0815,2755.4564" style="stroke:#000000;stroke-width:0.1;"/>
                <!-- Arc -->
                <path d="M2986.3985,2726.6048 A97.8312,97.8312 0 0,1 2959.3635,2809.0968" style="stroke:#000000;stroke-width:0.1;"/>
                <!-- Arc -->
                <path d="M2756.0435,2483.8844 A12.0153,12.0153 0 0,1 2750.0554,2490.8085" style="stroke:#000000;stroke-width:0.1;"/>
                <!-- Line -->
                <path d="M2750.0554,2490.8085 L2765.0221,2503.279 " style="stroke:#000000;stroke-width:0.1;"/>
                <!-- Line -->
                <path d="M2765.0221,2503.279 L2768.4267,2493.7545 " style="stroke:#000000;stroke-width:0.1;"/>
                <!-- Line -->
                <path d="M2765.0221,2503.279 L2771.8052,2496.4959 " style="stroke:#000000;stroke-width:0.1;"/>
                <!-- Line -->
                <path d="M2502.5289,2765.7722 L2495.7458,2772.5553 " style="stroke:#000000;stroke-width:0.1;"/>
                <!-- Line -->
                <path d="M2502.5289,2765.7722 L2493.0043,2769.1769 " style="stroke:#000000;stroke-width:0.1;"/>
                <!-- Line -->
                <path d="M2490.0583,2750.8055 L2502.5289,2765.7722 " style="stroke:#000000;stroke-width:0.1;"/>
                <!-- Arc -->
                <path d="M2490.0583,2750.8055 A12.0153,12.0153 0 0,1 2483.1343,2756.7937" style="stroke:#000000;stroke-width:0.1;"/>
                <!-- Arc -->
                <path d="M2808.3467,2960.1136 A97.8312,97.8312 0 0,1 2725.8547,2987.1487" style="stroke:#000000;stroke-width:0.1;"/>
                <!-- Arc -->
                <path d="M2754.7062,3006.8317 A1154.4088,1154.4088 0 0,1 2483.1343,2756.7937" style="stroke:#000000;stroke-width:0.1;"/>
                <!-- Line -->
                <path d="M2883.8551,2884.6052 L2808.3467,2960.1136 " style="stroke:#000000;stroke-width:0.1;"/>
                <!-- Line -->
                <path d="M2941.7537,2942.5038 L3071.4522,2812.8053 " style="stroke:#000000;stroke-width:0.1;"/>
                <!-- Line -->
                <path d="M2947.5436,2948.2937 L3077.4698,2818.3674 " style="stroke:#000000;stroke-width:0.1;"/>
                <!-- Arc -->
                <path d="M3076.45,2814.7776 A2.4177,2.4177 0 0,1 3077.4698,2818.3674" style="stroke:#000000;stroke-width:0.1;"/>
                <!-- Arc -->
                <path d="M3071.2511,2811.6733 A0.7251,0.7251 0 0,1 3071.4053,2812.8523" style="stroke:#000000;stroke-width:0.1;"/>
                <!-- Line -->
                <path d="M2941.1747,2941.9249 L3070.8732,2812.2264 " style="stroke:#000000;stroke-width:0.1;"/>
                <!-- Arc -->
                <path d="M3070.9314,2811.4883 A0.4331,0.4331 0 0,1 3070.8732,2812.2264" style="stroke:#000000;stroke-width:0.1;"/>
                <!-- Arc -->
                <path d="M2811.4762,3071.6234 A0.4331,0.4331 0 0,1 2810.7382,3071.6815" style="stroke:#000000;stroke-width:0.1;"/>
                <!-- Line -->
                <path d="M2941.1747,2941.9249 L2811.4762,3071.6234 " style="stroke:#000000;stroke-width:0.1;"/>
                <!-- Arc -->
                <path d="M2812.1022,3072.1554 A0.7251,0.7251 0 0,1 2810.9232,3072.0013" style="stroke:#000000;stroke-width:0.1;"/>
                <!-- Arc -->
                <path d="M2817.6173,3078.22 A2.4177,2.4177 0 0,1 2814.0275,3077.2001" style="stroke:#000000;stroke-width:0.1;"/>
                <!-- Line -->
                <path d="M2947.5436,2948.2937 L2817.6173,3078.22 " style="stroke:#000000;stroke-width:0.1;"/>
                <!-- Line -->
                <path d="M2941.7537,2942.5038 L2812.0552,3072.2024 " style="stroke:#000000;stroke-width:0.1;"/>
            </g>
            <!-- Polyline -->
            <path d="M1945.1064,3449.2267 A216.619,216.619 0 0 1 1935.5226,3361.8409 A1180.69,1180.69 0 0 0 1951.0961,2984.6113 A22.2032,22.2032 0 0 0 1926.6709,2987.5395 A12.0328,12.0328 0 0 1 1917.5274,2988.2023 A480.879,480.879 0 0 0 1863.4598,2984.6113 L1733.4146,2984.6113 L1603.3693,2984.6113 A480.879,480.879 0 0 0 1549.3018,2988.2023 A12.0328,12.0328 0 0 1 1540.1582,2987.5395 A22.2032,22.2032 0 0 0 1515.7331,2984.6113 A1180.69,1180.69 0 0 0 1531.3065,3361.8409 A216.619,216.619 0 0 1 1521.7228,3449.2267 A12.6008,12.6008 0 0 0 1532.5043,3468.4113 L1934.3249,3468.4113 A12.6008,12.6008 0 0 0 1945.1064,3449.2267 Z" style="stroke:#000000;stroke-width:0.1;"/>
            <!-- Block Reference: A$C1D6968EA / entities: 30 -->
            <g>
                <!-- Arc -->
                <path d="M1919.2911,3448.0737 A240.8687,240.8687 0 0,1 1911.0919,3358.9611" style="stroke:#000000;stroke-width:0.1;"/>
                <!-- Arc -->
                <path d="M1914.8076,3429.6992 A317.3163,317.3163 0 0,1 1900.0793,3340.3607" style="stroke:#000000;stroke-width:0.1;"/>
                <!-- Arc -->
                <path d="M1567.3815,3340.3607 A317.3163,317.3163 0 0,1 1552.6532,3429.6992" style="stroke:#000000;stroke-width:0.1;"/>
                <!-- Arc -->
                <path d="M1556.3689,3358.9611 A240.8687,240.8687 0 0,1 1548.1697,3448.0737" style="stroke:#000000;stroke-width:0.1;"/>
                <!-- Line -->
                <path d="M1733.7304,3361.2641 L1840.5154,3361.2641 " style="stroke:#000000;stroke-width:0.1;"/>
                <!-- Arc -->
                <path d="M1926.7064,2987.5353 A1154.4088,1154.4088 0 0,1 1911.4796,3356.3692" style="stroke:#000000;stroke-width:0.1;"/>
                <!-- Arc -->
                <path d="M1917.9627,3322.0501 A97.8312,97.8312 0 0,1 1840.5154,3361.2641" style="stroke:#000000;stroke-width:0.1;"/>
                <!-- Arc -->
                <path d="M1926.7064,2987.5353 A12.0153,12.0153 0 0,1 1917.5761,2988.1971" style="stroke:#000000;stroke-width:0.1;"/>
                <!-- Line -->
                <path d="M1917.5761,2988.1971 L1919.3411,3007.5981 " style="stroke:#000000;stroke-width:0.1;"/>
                <!-- Line -->
                <path d="M1919.3411,3007.5981 L1928.4834,3003.2707 " style="stroke:#000000;stroke-width:0.1;"/>
                <!-- Line -->
                <path d="M1919.3411,3007.5981 L1928.9339,3007.5981 " style="stroke:#000000;stroke-width:0.1;"/>
                <!-- Line -->
                <path d="M1548.1197,3007.5981 L1538.5269,3007.5981 " style="stroke:#000000;stroke-width:0.1;"/>
                <!-- Line -->
                <path d="M1548.1197,3007.5981 L1538.9774,3003.2707 " style="stroke:#000000;stroke-width:0.1;"/>
                <!-- Line -->
                <path d="M1549.8847,2988.1971 L1548.1197,3007.5981 " style="stroke:#000000;stroke-width:0.1;"/>
                <!-- Arc -->
                <path d="M1549.8847,2988.1971 A12.0153,12.0153 0 0,1 1540.7544,2987.5353" style="stroke:#000000;stroke-width:0.1;"/>
                <!-- Arc -->
                <path d="M1626.9453,3361.2641 A97.8312,97.8312 0 0,1 1549.4981,3322.0501" style="stroke:#000000;stroke-width:0.1;"/>
                <!-- Arc -->
                <path d="M1555.9812,3356.3692 A1154.4088,1154.4088 0 0,1 1540.7544,2987.5353" style="stroke:#000000;stroke-width:0.1;"/>
                <!-- Line -->
                <path d="M1733.7304,3361.2641 L1626.9453,3361.2641 " style="stroke:#000000;stroke-width:0.1;"/>
                <!-- Line -->
                <path d="M1733.7304,3443.1451 L1917.1518,3443.1451 " style="stroke:#000000;stroke-width:0.1;"/>
                <!-- Line -->
                <path d="M1733.7304,3451.3332 L1917.4739,3451.3332 " style="stroke:#000000;stroke-width:0.1;"/>
                <!-- Arc -->
                <path d="M1919.2911,3448.0737 A2.4177,2.4177 0 0,1 1917.4739,3451.3332" style="stroke:#000000;stroke-width:0.1;"/>
                <!-- Arc -->
                <path d="M1917.81,3442.2025 A0.7251,0.7251 0 0,1 1917.0854,3443.1451" style="stroke:#000000;stroke-width:0.1;"/>
                <!-- Line -->
                <path d="M1733.7304,3442.3263 L1917.1518,3442.3263 " style="stroke:#000000;stroke-width:0.1;"/>
                <!-- Arc -->
                <path d="M1917.7148,3441.8455 A0.4331,0.4331 0 0,1 1917.1518,3442.3263" style="stroke:#000000;stroke-width:0.1;"/>
                <!-- Arc -->
                <path d="M1550.309,3442.3263 A0.4331,0.4331 0 0,1 1549.746,3441.8455" style="stroke:#000000;stroke-width:0.1;"/>
                <!-- Line -->
                <path d="M1733.7304,3442.3263 L1550.309,3442.3263 " style="stroke:#000000;stroke-width:0.1;"/>
                <!-- Arc -->
                <path d="M1550.3754,3443.1451 A0.7251,0.7251 0 0,1 1549.6507,3442.2025" style="stroke:#000000;stroke-width:0.1;"/>
                <!-- Arc -->
                <path d="M1549.9869,3451.3332 A2.4177,2.4177 0 0,1 1548.1697,3448.0737" style="stroke:#000000;stroke-width:0.1;"/>
                <!-- Line -->
                <path d="M1733.7304,3451.3332 L1549.9869,3451.3332 " style="stroke:#000000;stroke-width:0.1;"/>
                <!-- Line -->
                <path d="M1733.7304,3443.1451 L1550.309,3443.1451 " style="stroke:#000000;stroke-width:0.1;"/>
            </g>
            <!-- Polyline -->
            <path d="M1272.8374,3399.7203 A216.619,216.619 0 0 1 1297.4243,3315.3188 A1180.69,1180.69 0 0 0 1456.1717,2972.7639 A22.2032,22.2032 0 0 0 1432.4853,2966.1221 A12.0328,12.0328 0 0 1 1423.7841,2963.2353 A480.879,480.879 0 0 0 1375.2064,2939.2269 L1255.0603,2889.4608 L1134.9141,2839.6946 A480.879,480.879 0 0 0 1083.5881,2822.3214 A12.0328,12.0328 0 0 1 1075.3941,2818.21 A22.2032,22.2032 0 0 0 1053.9488,2806.1577 A1180.69,1180.69 0 0 0 923.9773,3160.632 A216.619,216.619 0 0 1 881.682,3237.6984 A12.6008,12.6008 0 0 0 884.3011,3259.5486 L1255.5349,3413.3187 A12.6008,12.6008 0 0 0 1272.8374,3399.7203 Z" style="stroke:#000000;stroke-width:0.1;"/>
            <!-- Block Reference: A$C1D6968EA / entities: 30 -->
            <g>
                <!-- Arc -->
                <path d="M1249.4284,3388.776 A240.8687,240.8687 0 0,1 1275.9553,3303.309" style="stroke:#000000;stroke-width:0.1;"/>
                <!-- Arc -->
                <path d="M1252.3179,3370.0844 A317.3163,317.3163 0 0,1 1272.899,3281.9101" style="stroke:#000000;stroke-width:0.1;"/>
                <!-- Arc -->
                <path d="M965.5263,3154.5922 A317.3163,317.3163 0 0,1 917.7308,3231.4939" style="stroke:#000000;stroke-width:0.1;"/>
                <!-- Arc -->
                <path d="M948.234,3167.5624 A240.8687,240.8687 0 0,1 906.5569,3246.754" style="stroke:#000000;stroke-width:0.1;"/>
                <!-- Line -->
                <path d="M1111.2133,3237.5634 L1209.8698,3278.4283 " style="stroke:#000000;stroke-width:0.1;"/>
                <!-- Arc -->
                <path d="M1432.5197,2966.1317 A1154.4088,1154.4088 0 0,1 1277.3053,3301.0628" style="stroke:#000000;stroke-width:0.1;"/>
                <!-- Arc -->
                <path d="M1296.4283,3271.837 A97.8312,97.8312 0 0,1 1209.8698,3278.4283" style="stroke:#000000;stroke-width:0.1;"/>
                <!-- Arc -->
                <path d="M1432.5197,2966.1317 A12.0153,12.0153 0 0,1 1423.8311,2963.2491" style="stroke:#000000;stroke-width:0.1;"/>
                <!-- Line -->
                <path d="M1423.8311,2963.2491 L1418.0374,2981.8488 " style="stroke:#000000;stroke-width:0.1;"/>
                <!-- Line -->
                <path d="M1418.0374,2981.8488 L1428.1398,2981.3494 " style="stroke:#000000;stroke-width:0.1;"/>
                <!-- Line -->
                <path d="M1418.0374,2981.8488 L1426.8999,2985.5198 " style="stroke:#000000;stroke-width:0.1;"/>
                <!-- Line -->
                <path d="M1075.0734,2839.7885 L1066.2109,2836.1175 " style="stroke:#000000;stroke-width:0.1;"/>
                <!-- Line -->
                <path d="M1075.0734,2839.7885 L1068.2831,2832.2919 " style="stroke:#000000;stroke-width:0.1;"/>
                <!-- Line -->
                <path d="M1084.1286,2822.5397 L1075.0734,2839.7885 " style="stroke:#000000;stroke-width:0.1;"/>
                <!-- Arc -->
                <path d="M1084.1286,2822.5397 A12.0153,12.0153 0 0,1 1075.9465,2818.4343" style="stroke:#000000;stroke-width:0.1;"/>
                <!-- Arc -->
                <path d="M1012.5568,3196.6985 A97.8312,97.8312 0 0,1 956.0114,3130.8317" style="stroke:#000000;stroke-width:0.1;"/>
                <!-- Arc -->
                <path d="M948.8677,3165.0194 A1154.4088,1154.4088 0 0,1 1075.9465,2818.4343" style="stroke:#000000;stroke-width:0.1;"/>
                <!-- Line -->
                <path d="M1111.2133,3237.5634 L1012.5568,3196.6985 " style="stroke:#000000;stroke-width:0.1;"/>
                <!-- Line -->
                <path d="M1079.8788,3313.2116 L1249.338,3383.4039 " style="stroke:#000000;stroke-width:0.1;"/>
                <!-- Line -->
                <path d="M1076.7453,3320.7764 L1246.5022,3391.092 " style="stroke:#000000;stroke-width:0.1;"/>
                <!-- Arc -->
                <path d="M1249.4284,3388.776 A2.4177,2.4177 0 0,1 1246.5022,3391.092" style="stroke:#000000;stroke-width:0.1;"/>
                <!-- Arc -->
                <path d="M1250.3069,3382.7849 A0.7251,0.7251 0 0,1 1249.2767,3383.3785" style="stroke:#000000;stroke-width:0.1;"/>
                <!-- Line -->
                <path d="M1080.1921,3312.4551 L1249.6514,3382.6474 " style="stroke:#000000;stroke-width:0.1;"/>
                <!-- Arc -->
                <path d="M1250.3555,3382.4187 A0.4331,0.4331 0 0,1 1249.6514,3382.6474" style="stroke:#000000;stroke-width:0.1;"/>
                <!-- Arc -->
                <path d="M910.7329,3242.2628 A0.4331,0.4331 0 0,1 910.3967,3241.6032" style="stroke:#000000;stroke-width:0.1;"/>
                <!-- Line -->
                <path d="M1080.1921,3312.4551 L910.7329,3242.2628 " style="stroke:#000000;stroke-width:0.1;"/>
                <!-- Arc -->
                <path d="M910.4808,3243.0447 A0.7251,0.7251 0 0,1 910.1721,3241.8965" style="stroke:#000000;stroke-width:0.1;"/>
                <!-- Arc -->
                <path d="M906.9885,3250.4608 A2.4177,2.4177 0 0,1 906.5569,3246.754" style="stroke:#000000;stroke-width:0.1;"/>
                <!-- Line -->
                <path d="M1076.7453,3320.7764 L906.9885,3250.4608 " style="stroke:#000000;stroke-width:0.1;"/>
                <!-- Line -->
                <path d="M1079.8788,3313.2116 L910.4195,3243.0193 " style="stroke:#000000;stroke-width:0.1;"/>
            </g>
            <!-- Block Reference: A$C1D6968EA / entities: 30 -->
            <g>
                <!-- Arc -->
                <path d="M2560.8558,3246.5123 A240.8687,240.8687 0 0,1 2519.1788,3167.3207" style="stroke:#000000;stroke-width:0.1;"/>
                <!-- Arc -->
                <path d="M2549.6819,3231.2522 A317.3163,317.3163 0 0,1 2501.8864,3154.3505" style="stroke:#000000;stroke-width:0.1;"/>
                <!-- Arc -->
                <path d="M2194.5137,3281.6684 A317.3163,317.3163 0 0,1 2215.0948,3369.8427" style="stroke:#000000;stroke-width:0.1;"/>
                <!-- Arc -->
                <path d="M2191.4574,3303.0673 A240.8687,240.8687 0 0,1 2217.9843,3388.5343" style="stroke:#000000;stroke-width:0.1;"/>
                <!-- Line -->
                <path d="M2356.1994,3237.3217 L2454.8559,3196.4568 " style="stroke:#000000;stroke-width:0.1;"/>
                <!-- Arc -->
                <path d="M2391.4662,2818.1926 A1154.4088,1154.4088 0 0,1 2518.545,3164.7777" style="stroke:#000000;stroke-width:0.1;"/>
                <!-- Arc -->
                <path d="M2511.4013,3130.59 A97.8312,97.8312 0 0,1 2454.8559,3196.4568" style="stroke:#000000;stroke-width:0.1;"/>
                <!-- Arc -->
                <path d="M2391.4662,2818.1926 A12.0153,12.0153 0 0,1 2383.2841,2822.298" style="stroke:#000000;stroke-width:0.1;"/>
                <!-- Line -->
                <path d="M2383.2841,2822.298 L2392.3393,2839.5468 " style="stroke:#000000;stroke-width:0.1;"/>
                <!-- Line -->
                <path d="M2392.3393,2839.5468 L2399.1296,2832.0501 " style="stroke:#000000;stroke-width:0.1;"/>
                <!-- Line -->
                <path d="M2392.3393,2839.5468 L2401.2018,2835.8758 " style="stroke:#000000;stroke-width:0.1;"/>
                <!-- Line -->
                <path d="M2049.3753,2981.6071 L2040.5128,2985.2781 " style="stroke:#000000;stroke-width:0.1;"/>
                <!-- Line -->
                <path d="M2049.3753,2981.6071 L2039.2729,2981.1077 " style="stroke:#000000;stroke-width:0.1;"/>
                <!-- Line -->
                <path d="M2043.5816,2963.0074 L2049.3753,2981.6071 " style="stroke:#000000;stroke-width:0.1;"/>
                <!-- Arc -->
                <path d="M2043.5816,2963.0074 A12.0153,12.0153 0 0,1 2034.893,2965.89" style="stroke:#000000;stroke-width:0.1;"/>
                <!-- Arc -->
                <path d="M2257.5429,3278.1865 A97.8312,97.8312 0 0,1 2170.9844,3271.5953" style="stroke:#000000;stroke-width:0.1;"/>
                <!-- Arc -->
                <path d="M2190.1074,3300.821 A1154.4088,1154.4088 0 0,1 2034.893,2965.89" style="stroke:#000000;stroke-width:0.1;"/>
                <!-- Line -->
                <path d="M2356.1994,3237.3217 L2257.5429,3278.1865 " style="stroke:#000000;stroke-width:0.1;"/>
                <!-- Line -->
                <path d="M2387.5339,3312.9699 L2556.9932,3242.7776 " style="stroke:#000000;stroke-width:0.1;"/>
                <!-- Line -->
                <path d="M2390.6674,3320.5347 L2560.4242,3250.2191 " style="stroke:#000000;stroke-width:0.1;"/>
                <!-- Arc -->
                <path d="M2560.8558,3246.5123 A2.4177,2.4177 0 0,1 2560.4242,3250.2191" style="stroke:#000000;stroke-width:0.1;"/>
                <!-- Arc -->
                <path d="M2557.2406,3241.6548 A0.7251,0.7251 0 0,1 2556.9319,3242.803" style="stroke:#000000;stroke-width:0.1;"/>
                <!-- Line -->
                <path d="M2387.2206,3312.2134 L2556.6798,3242.0211 " style="stroke:#000000;stroke-width:0.1;"/>
                <!-- Arc -->
                <path d="M2557.016,3241.3615 A0.4331,0.4331 0 0,1 2556.6798,3242.0211" style="stroke:#000000;stroke-width:0.1;"/>
                <!-- Arc -->
                <path d="M2217.7613,3382.4057 A0.4331,0.4331 0 0,1 2217.0572,3382.177" style="stroke:#000000;stroke-width:0.1;"/>
                <!-- Line -->
                <path d="M2387.2206,3312.2134 L2217.7613,3382.4057 " style="stroke:#000000;stroke-width:0.1;"/>
                <!-- Arc -->
                <path d="M2218.136,3383.1368 A0.7251,0.7251 0 0,1 2217.1058,3382.5432" style="stroke:#000000;stroke-width:0.1;"/>
                <!-- Arc -->
                <path d="M2220.9105,3390.8503 A2.4177,2.4177 0 0,1 2217.9843,3388.5343" style="stroke:#000000;stroke-width:0.1;"/>
                <!-- Line -->
                <path d="M2390.6674,3320.5347 L2220.9105,3390.8503 " style="stroke:#000000;stroke-width:0.1;"/>
                <!-- Line -->
                <path d="M2387.5339,3312.9699 L2218.0747,3383.1622 " style="stroke:#000000;stroke-width:0.1;"/>
            </g>
            <!-- Polyline -->
            <path d="M2585.1472,3237.6984 A216.619,216.619 0 0 1 2542.8518,3160.632 A1180.69,1180.69 0 0 0 2412.8803,2806.1577 A22.2032,22.2032 0 0 0 2391.435,2818.21 A12.0328,12.0328 0 0 1 2383.2411,2822.3214 A480.879,480.879 0 0 0 2331.915,2839.6946 L2211.7689,2889.4608 L2091.6227,2939.2269 A480.879,480.879 0 0 0 2043.045,2963.2353 A12.0328,12.0328 0 0 1 2034.3438,2966.1221 A22.2032,22.2032 0 0 0 2010.6574,2972.7639 A1180.69,1180.69 0 0 0 2169.4049,3315.3188 A216.619,216.619 0 0 1 2193.9917,3399.7203 A12.6008,12.6008 0 0 0 2211.2942,3413.3187 L2582.528,3259.5486 A12.6008,12.6008 0 0 0 2585.1472,3237.6984 Z" style="stroke:#000000;stroke-width:0.1;"/>
            <!-- Polyline -->
            <path d="M230.3275,2586.344 A216.619,216.619 0 0 1 307.3939,2544.0486 A1180.69,1180.69 0 0 0 661.8683,2414.0771 A22.2032,22.2032 0 0 0 649.8159,2392.6318 A12.0328,12.0328 0 0 1 645.7045,2384.4379 A480.879,480.879 0 0 0 628.3313,2333.1118 L578.5652,2212.9656 L528.799,2092.8195 A480.879,480.879 0 0 0 504.7907,2044.2418 A12.0328,12.0328 0 0 1 501.9039,2035.5406 A22.2032,22.2032 0 0 0 495.2621,2011.8542 A1180.69,1180.69 0 0 0 152.7071,2170.6016 A216.619,216.619 0 0 1 68.3056,2195.1885 A12.6008,12.6008 0 0 0 54.7072,2212.491 L208.4773,2583.7248 A12.6008,12.6008 0 0 0 230.3275,2586.344 Z" style="stroke:#000000;stroke-width:0.1;"/>
            <!-- Block Reference: A$C1D6968EA / entities: 30 -->
            <g>
                <!-- Arc -->
                <path d="M221.5136,2562.0525 A240.8687,240.8687 0 0,1 300.7053,2520.3755" style="stroke:#000000;stroke-width:0.1;"/>
                <!-- Arc -->
                <path d="M236.7738,2550.8787 A317.3163,317.3163 0 0,1 313.6754,2503.0831" style="stroke:#000000;stroke-width:0.1;"/>
                <!-- Arc -->
                <path d="M186.3575,2195.7105 A317.3163,317.3163 0 0,1 98.1832,2216.2916" style="stroke:#000000;stroke-width:0.1;"/>
                <!-- Arc -->
                <path d="M164.9586,2192.6542 A240.8687,240.8687 0 0,1 79.4916,2219.181" style="stroke:#000000;stroke-width:0.1;"/>
                <!-- Line -->
                <path d="M230.7043,2357.3962 L271.5691,2456.0527 " style="stroke:#000000;stroke-width:0.1;"/>
                <!-- Arc -->
                <path d="M649.8334,2392.6629 A1154.4088,1154.4088 0 0,1 303.2482,2519.7418" style="stroke:#000000;stroke-width:0.1;"/>
                <!-- Arc -->
                <path d="M337.4359,2512.5981 A97.8312,97.8312 0 0,1 271.5691,2456.0527" style="stroke:#000000;stroke-width:0.1;"/>
                <!-- Arc -->
                <path d="M649.8334,2392.6629 A12.0153,12.0153 0 0,1 645.728,2384.4809" style="stroke:#000000;stroke-width:0.1;"/>
                <!-- Line -->
                <path d="M645.728,2384.4809 L628.4791,2393.536 " style="stroke:#000000;stroke-width:0.1;"/>
                <!-- Line -->
                <path d="M628.4791,2393.536 L635.9758,2400.3264 " style="stroke:#000000;stroke-width:0.1;"/>
                <!-- Line -->
                <path d="M628.4791,2393.536 L632.1501,2402.3986 " style="stroke:#000000;stroke-width:0.1;"/>
                <!-- Line -->
                <path d="M486.4188,2050.5721 L482.7479,2041.7096 " style="stroke:#000000;stroke-width:0.1;"/>
                <!-- Line -->
                <path d="M486.4188,2050.5721 L486.9183,2040.4697 " style="stroke:#000000;stroke-width:0.1;"/>
                <!-- Line -->
                <path d="M505.0186,2044.7783 L486.4188,2050.5721 " style="stroke:#000000;stroke-width:0.1;"/>
                <!-- Arc -->
                <path d="M505.0186,2044.7783 A12.0153,12.0153 0 0,1 502.1359,2036.0898" style="stroke:#000000;stroke-width:0.1;"/>
                <!-- Arc -->
                <path d="M189.8394,2258.7397 A97.8312,97.8312 0 0,1 196.4306,2172.1812" style="stroke:#000000;stroke-width:0.1;"/>
                <!-- Arc -->
                <path d="M167.2049,2191.3042 A1154.4088,1154.4088 0 0,1 502.1359,2036.0898" style="stroke:#000000;stroke-width:0.1;"/>
                <!-- Line -->
                <path d="M230.7043,2357.3962 L189.8394,2258.7397 " style="stroke:#000000;stroke-width:0.1;"/>
                <!-- Line -->
                <path d="M155.056,2388.7307 L225.2484,2558.19 " style="stroke:#000000;stroke-width:0.1;"/>
                <!-- Line -->
                <path d="M147.4912,2391.8641 L217.8068,2561.621 " style="stroke:#000000;stroke-width:0.1;"/>
                <!-- Arc -->
                <path d="M221.5136,2562.0525 A2.4177,2.4177 0 0,1 217.8068,2561.621" style="stroke:#000000;stroke-width:0.1;"/>
                <!-- Arc -->
                <path d="M226.3712,2558.4374 A0.7251,0.7251 0 0,1 225.223,2558.1286" style="stroke:#000000;stroke-width:0.1;"/>
                <!-- Line -->
                <path d="M155.8125,2388.4173 L226.0049,2557.8766 " style="stroke:#000000;stroke-width:0.1;"/>
                <!-- Arc -->
                <path d="M226.6645,2558.2128 A0.4331,0.4331 0 0,1 226.0049,2557.8766" style="stroke:#000000;stroke-width:0.1;"/>
                <!-- Arc -->
                <path d="M85.6202,2218.9581 A0.4331,0.4331 0 0,1 85.8489,2218.254" style="stroke:#000000;stroke-width:0.1;"/>
                <!-- Line -->
                <path d="M155.8125,2388.4173 L85.6202,2218.9581 " style="stroke:#000000;stroke-width:0.1;"/>
                <!-- Arc -->
                <path d="M84.8891,2219.3328 A0.7251,0.7251 0 0,1 85.4827,2218.3025" style="stroke:#000000;stroke-width:0.1;"/>
                <!-- Arc -->
                <path d="M77.1756,2222.1073 A2.4177,2.4177 0 0,1 79.4916,2219.181" style="stroke:#000000;stroke-width:0.1;"/>
                <!-- Line -->
                <path d="M147.4912,2391.8641 L77.1756,2222.1073 " style="stroke:#000000;stroke-width:0.1;"/>
                <!-- Line -->
                <path d="M155.056,2388.7307 L84.8637,2219.2714 " style="stroke:#000000;stroke-width:0.1;"/>
            </g>
            <!-- Polyline -->
            <path d="M670.6872,3096.7162 A216.619,216.619 0 0 1 725.7015,3028.1483 A1180.69,1180.69 0 0 0 1003.4551,2772.4189 A22.2032,22.2032 0 0 0 984.1134,2757.2183 A12.0328,12.0328 0 0 1 977.1793,2751.2214 A480.879,480.879 0 0 0 941.487,2710.4507 L849.5311,2618.4948 L757.5752,2526.5389 A480.879,480.879 0 0 0 716.8045,2490.8466 A12.0328,12.0328 0 0 1 710.8077,2483.9125 A22.2032,22.2032 0 0 0 695.6071,2464.5708 A1180.69,1180.69 0 0 0 439.8776,2742.3244 A216.619,216.619 0 0 1 371.3097,2797.3387 A12.6008,12.6008 0 0 0 365.3678,2818.5281 L649.4979,3102.6581 A12.6008,12.6008 0 0 0 670.6872,3096.7162 Z" style="stroke:#000000;stroke-width:0.1;"/>
            <!-- Block Reference: A$C1D6968EA / entities: 30 -->
            <g>
                <!-- Arc -->
                <path d="M653.2483,3077.6468 A240.8687,240.8687 0 0,1 710.4627,3008.8369" style="stroke:#000000;stroke-width:0.1;"/>
                <!-- Arc -->
                <path d="M663.0707,3061.4837 A317.3163,317.3163 0 0,1 715.828,2987.8973" style="stroke:#000000;stroke-width:0.1;"/>
                <!-- Arc -->
                <path d="M480.5752,2752.6445 A317.3163,317.3163 0 0,1 406.9889,2805.4018" style="stroke:#000000;stroke-width:0.1;"/>
                <!-- Arc -->
                <path d="M459.6356,2758.0099 A240.8687,240.8687 0 0,1 390.8258,2815.2243" style="stroke:#000000;stroke-width:0.1;"/>
                <!-- Line -->
                <path d="M583.4207,2885.0518 L658.9291,2960.5603 " style="stroke:#000000;stroke-width:0.1;"/>
                <!-- Arc -->
                <path d="M984.1415,2757.2403 A1154.4088,1154.4088 0 0,1 712.5696,3007.2783" style="stroke:#000000;stroke-width:0.1;"/>
                <!-- Arc -->
                <path d="M741.4211,2987.5953 A97.8312,97.8312 0 0,1 658.9291,2960.5603" style="stroke:#000000;stroke-width:0.1;"/>
                <!-- Arc -->
                <path d="M984.1415,2757.2403 A12.0153,12.0153 0 0,1 977.2175,2751.2521" style="stroke:#000000;stroke-width:0.1;"/>
                <!-- Line -->
                <path d="M977.2175,2751.2521 L964.7469,2766.2189 " style="stroke:#000000;stroke-width:0.1;"/>
                <!-- Line -->
                <path d="M964.7469,2766.2189 L974.2715,2769.6235 " style="stroke:#000000;stroke-width:0.1;"/>
                <!-- Line -->
                <path d="M964.7469,2766.2189 L971.53,2773.0019 " style="stroke:#000000;stroke-width:0.1;"/>
                <!-- Line -->
                <path d="M702.2537,2503.7256 L695.4706,2496.9426 " style="stroke:#000000;stroke-width:0.1;"/>
                <!-- Line -->
                <path d="M702.2537,2503.7256 L698.8491,2494.2011 " style="stroke:#000000;stroke-width:0.1;"/>
                <!-- Line -->
                <path d="M717.2204,2491.2551 L702.2537,2503.7256 " style="stroke:#000000;stroke-width:0.1;"/>
                <!-- Arc -->
                <path d="M717.2204,2491.2551 A12.0153,12.0153 0 0,1 711.2322,2484.331" style="stroke:#000000;stroke-width:0.1;"/>
                <!-- Arc -->
                <path d="M507.9123,2809.5434 A97.8312,97.8312 0 0,1 480.8773,2727.0514" style="stroke:#000000;stroke-width:0.1;"/>
                <!-- Arc -->
                <path d="M461.1943,2755.903 A1154.4088,1154.4088 0 0,1 711.2322,2484.331" style="stroke:#000000;stroke-width:0.1;"/>
                <!-- Line -->
                <path d="M583.4207,2885.0518 L507.9123,2809.5434 " style="stroke:#000000;stroke-width:0.1;"/>
                <!-- Line -->
                <path d="M525.5221,2942.9505 L655.2206,3072.649 " style="stroke:#000000;stroke-width:0.1;"/>
                <!-- Line -->
                <path d="M519.7322,2948.7403 L649.6585,3078.6666 " style="stroke:#000000;stroke-width:0.1;"/>
                <!-- Arc -->
                <path d="M653.2483,3077.6468 A2.4177,2.4177 0 0,1 649.6585,3078.6666" style="stroke:#000000;stroke-width:0.1;"/>
                <!-- Arc -->
                <path d="M656.3526,3072.4479 A0.7251,0.7251 0 0,1 655.1736,3072.602" style="stroke:#000000;stroke-width:0.1;"/>
                <!-- Line -->
                <path d="M526.1011,2942.3715 L655.7996,3072.07 " style="stroke:#000000;stroke-width:0.1;"/>
                <!-- Arc -->
                <path d="M656.5376,3072.1281 A0.4331,0.4331 0 0,1 655.7996,3072.07" style="stroke:#000000;stroke-width:0.1;"/>
                <!-- Arc -->
                <path d="M396.4025,2812.673 A0.4331,0.4331 0 0,1 396.3444,2811.9349" style="stroke:#000000;stroke-width:0.1;"/>
                <!-- Line -->
                <path d="M526.1011,2942.3715 L396.4025,2812.673 " style="stroke:#000000;stroke-width:0.1;"/>
                <!-- Arc -->
                <path d="M395.8705,2813.2989 A0.7251,0.7251 0 0,1 396.0246,2812.12" style="stroke:#000000;stroke-width:0.1;"/>
                <!-- Arc -->
                <path d="M389.8059,2818.8141 A2.4177,2.4177 0 0,1 390.8258,2815.2243" style="stroke:#000000;stroke-width:0.1;"/>
                <!-- Line -->
                <path d="M519.7322,2948.7403 L389.8059,2818.8141 " style="stroke:#000000;stroke-width:0.1;"/>
                <!-- Line -->
                <path d="M525.5221,2942.9505 L395.8236,2813.252 " style="stroke:#000000;stroke-width:0.1;"/>
            </g>
            <!-- Polyline -->
            <path d="M3236.5016,882.8787 A216.619,216.619 0 0 1 3159.4352,925.1741 A1180.69,1180.69 0 0 0 2804.9609,1055.1456 A22.2032,22.2032 0 0 0 2817.0133,1076.5909 A12.0328,12.0328 0 0 1 2821.1246,1084.7848 A480.879,480.879 0 0 0 2838.4978,1136.1109 L2888.264,1256.2571 L2938.0302,1376.4032 A480.879,480.879 0 0 0 2962.0385,1424.9809 A12.0328,12.0328 0 0 1 2964.9253,1433.6821 A22.2032,22.2032 0 0 0 2971.5671,1457.3685 A1180.69,1180.69 0 0 0 3314.122,1298.6211 A216.619,216.619 0 0 1 3398.5235,1274.0342 A12.6008,12.6008 0 0 0 3412.1219,1256.7317 L3258.3519,885.4979 A12.6008,12.6008 0 0 0 3236.5016,882.8787 Z" style="stroke:#000000;stroke-width:0.1;"/>
            <!-- Block Reference: A$C1D6968EA / entities: 30 -->
            <g>
                <!-- Arc -->
                <path d="M3245.3155,907.1702 A240.8687,240.8687 0 0,1 3166.1239,948.8472" style="stroke:#000000;stroke-width:0.1;"/>
                <!-- Arc -->
                <path d="M3230.0554,918.344 A317.3163,317.3163 0 0,1 3153.1537,966.1396" style="stroke:#000000;stroke-width:0.1;"/>
                <!-- Arc -->
                <path d="M3280.4717,1273.5122 A317.3163,317.3163 0 0,1 3368.6459,1252.9311" style="stroke:#000000;stroke-width:0.1;"/>
                <!-- Arc -->
                <path d="M3301.8705,1276.5685 A240.8687,240.8687 0 0,1 3387.3375,1250.0417" style="stroke:#000000;stroke-width:0.1;"/>
                <!-- Line -->
                <path d="M3236.1249,1111.8265 L3195.26,1013.17 " style="stroke:#000000;stroke-width:0.1;"/>
                <!-- Arc -->
                <path d="M2816.9958,1076.5598 A1154.4088,1154.4088 0 0,1 3163.581,949.4809" style="stroke:#000000;stroke-width:0.1;"/>
                <!-- Arc -->
                <path d="M3129.3932,956.6246 A97.8312,97.8312 0 0,1 3195.26,1013.17" style="stroke:#000000;stroke-width:0.1;"/>
                <!-- Arc -->
                <path d="M2816.9958,1076.5598 A12.0153,12.0153 0 0,1 2821.1012,1084.7418" style="stroke:#000000;stroke-width:0.1;"/>
                <!-- Line -->
                <path d="M2821.1012,1084.7418 L2838.35,1075.6866 " style="stroke:#000000;stroke-width:0.1;"/>
                <!-- Line -->
                <path d="M2838.35,1075.6866 L2830.8534,1068.8963 " style="stroke:#000000;stroke-width:0.1;"/>
                <!-- Line -->
                <path d="M2838.35,1075.6866 L2834.679,1066.8241 " style="stroke:#000000;stroke-width:0.1;"/>
                <!-- Line -->
                <path d="M2980.4103,1418.6506 L2984.0813,1427.5131 " style="stroke:#000000;stroke-width:0.1;"/>
                <!-- Line -->
                <path d="M2980.4103,1418.6506 L2979.9109,1428.753 " style="stroke:#000000;stroke-width:0.1;"/>
                <!-- Line -->
                <path d="M2961.8106,1424.4444 L2980.4103,1418.6506 " style="stroke:#000000;stroke-width:0.1;"/>
                <!-- Arc -->
                <path d="M2961.8106,1424.4444 A12.0153,12.0153 0 0,1 2964.6932,1433.1329" style="stroke:#000000;stroke-width:0.1;"/>
                <!-- Arc -->
                <path d="M3276.9898,1210.483 A97.8312,97.8312 0 0,1 3270.3985,1297.0415" style="stroke:#000000;stroke-width:0.1;"/>
                <!-- Arc -->
                <path d="M3299.6243,1277.9185 A1154.4088,1154.4088 0 0,1 2964.6932,1433.1329" style="stroke:#000000;stroke-width:0.1;"/>
                <!-- Line -->
                <path d="M3236.1249,1111.8265 L3276.9898,1210.483 " style="stroke:#000000;stroke-width:0.1;"/>
                <!-- Line -->
                <path d="M3311.7731,1080.492 L3241.5808,911.0327 " style="stroke:#000000;stroke-width:0.1;"/>
                <!-- Line -->
                <path d="M3319.3379,1077.3585 L3249.0223,907.6017 " style="stroke:#000000;stroke-width:0.1;"/>
                <!-- Arc -->
                <path d="M3245.3155,907.1702 A2.4177,2.4177 0 0,1 3249.0223,907.6017" style="stroke:#000000;stroke-width:0.1;"/>
                <!-- Arc -->
                <path d="M3240.458,910.7853 A0.7251,0.7251 0 0,1 3241.6062,911.0941" style="stroke:#000000;stroke-width:0.1;"/>
                <!-- Line -->
                <path d="M3311.0166,1080.8053 L3240.8243,911.3461 " style="stroke:#000000;stroke-width:0.1;"/>
                <!-- Arc -->
                <path d="M3240.1647,911.0099 A0.4331,0.4331 0 0,1 3240.8243,911.3461" style="stroke:#000000;stroke-width:0.1;"/>
                <!-- Arc -->
                <path d="M3381.209,1250.2646 A0.4331,0.4331 0 0,1 3380.9802,1250.9687" style="stroke:#000000;stroke-width:0.1;"/>
                <!-- Line -->
                <path d="M3311.0166,1080.8053 L3381.209,1250.2646 " style="stroke:#000000;stroke-width:0.1;"/>
                <!-- Arc -->
                <path d="M3381.94,1249.8899 A0.7251,0.7251 0 0,1 3381.3465,1250.9201" style="stroke:#000000;stroke-width:0.1;"/>
                <!-- Arc -->
                <path d="M3389.6535,1247.1154 A2.4177,2.4177 0 0,1 3387.3375,1250.0417" style="stroke:#000000;stroke-width:0.1;"/>
                <!-- Line -->
                <path d="M3319.3379,1077.3585 L3389.6535,1247.1154 " style="stroke:#000000;stroke-width:0.1;"/>
                <!-- Line -->
                <path d="M3311.7731,1080.492 L3381.9654,1249.9513 " style="stroke:#000000;stroke-width:0.1;"/>
            </g>
            <!-- Polyline -->
            <path d="M2796.142,372.5065 A216.619,216.619 0 0 1 2741.1276,441.0743 A1180.69,1180.69 0 0 0 2463.374,696.8038 A22.2032,22.2032 0 0 0 2482.7157,712.0044 A12.0328,12.0328 0 0 1 2489.6498,718.0013 A480.879,480.879 0 0 0 2525.3422,758.772 L2617.2981,850.7279 L2709.2539,942.6838 A480.879,480.879 0 0 0 2750.0246,978.3761 A12.0328,12.0328 0 0 1 2756.0215,985.3102 A22.2032,22.2032 0 0 0 2771.2221,1004.6519 A1180.69,1180.69 0 0 0 3026.9516,726.8983 A216.619,216.619 0 0 1 3095.5194,671.8839 A12.6008,12.6008 0 0 0 3101.4613,650.6946 L2817.3313,366.5646 A12.6008,12.6008 0 0 0 2796.142,372.5065 Z" style="stroke:#000000;stroke-width:0.1;"/>
            <!-- Block Reference: A$C1D6968EA / entities: 30 -->
            <g>
                <!-- Arc -->
                <path d="M2813.5809,391.5759 A240.8687,240.8687 0 0,1 2756.3665,460.3858" style="stroke:#000000;stroke-width:0.1;"/>
                <!-- Arc -->
                <path d="M2803.7584,407.739 A317.3163,317.3163 0 0,1 2751.0011,481.3253" style="stroke:#000000;stroke-width:0.1;"/>
                <!-- Arc -->
                <path d="M2986.2539,716.5782 A317.3163,317.3163 0 0,1 3059.8403,663.8209" style="stroke:#000000;stroke-width:0.1;"/>
                <!-- Arc -->
                <path d="M3007.1935,711.2128 A240.8687,240.8687 0 0,1 3076.0034,653.9984" style="stroke:#000000;stroke-width:0.1;"/>
                <!-- Line -->
                <path d="M2883.4084,584.1708 L2807.9,508.6624 " style="stroke:#000000;stroke-width:0.1;"/>
                <!-- Arc -->
                <path d="M2482.6876,711.9824 A1154.4088,1154.4088 0 0,1 2754.2596,461.9444" style="stroke:#000000;stroke-width:0.1;"/>
                <!-- Arc -->
                <path d="M2725.408,481.6274 A97.8312,97.8312 0 0,1 2807.9,508.6624" style="stroke:#000000;stroke-width:0.1;"/>
                <!-- Arc -->
                <path d="M2482.6876,711.9824 A12.0153,12.0153 0 0,1 2489.6117,717.9705" style="stroke:#000000;stroke-width:0.1;"/>
                <!-- Line -->
                <path d="M2489.6117,717.9705 L2502.0822,703.0038 " style="stroke:#000000;stroke-width:0.1;"/>
                <!-- Line -->
                <path d="M2502.0822,703.0038 L2492.5577,699.5992 " style="stroke:#000000;stroke-width:0.1;"/>
                <!-- Line -->
                <path d="M2502.0822,703.0038 L2495.2992,696.2207 " style="stroke:#000000;stroke-width:0.1;"/>
                <!-- Line -->
                <path d="M2764.5755,965.497 L2771.3585,972.2801 " style="stroke:#000000;stroke-width:0.1;"/>
                <!-- Line -->
                <path d="M2764.5755,965.497 L2767.9801,975.0216 " style="stroke:#000000;stroke-width:0.1;"/>
                <!-- Line -->
                <path d="M2749.6087,977.9676 L2764.5755,965.497 " style="stroke:#000000;stroke-width:0.1;"/>
                <!-- Arc -->
                <path d="M2749.6087,977.9676 A12.0153,12.0153 0 0,1 2755.5969,984.8916" style="stroke:#000000;stroke-width:0.1;"/>
                <!-- Arc -->
                <path d="M2958.9169,659.6793 A97.8312,97.8312 0 0,1 2985.9519,742.1712" style="stroke:#000000;stroke-width:0.1;"/>
                <!-- Arc -->
                <path d="M3005.6349,713.3197 A1154.4088,1154.4088 0 0,1 2755.5969,984.8916" style="stroke:#000000;stroke-width:0.1;"/>
                <!-- Line -->
                <path d="M2883.4084,584.1708 L2958.9169,659.6793 " style="stroke:#000000;stroke-width:0.1;"/>
                <!-- Line -->
                <path d="M2941.3071,526.2722 L2811.6086,396.5737 " style="stroke:#000000;stroke-width:0.1;"/>
                <!-- Line -->
                <path d="M2947.0969,520.4823 L2817.1707,390.5561 " style="stroke:#000000;stroke-width:0.1;"/>
                <!-- Arc -->
                <path d="M2813.5809,391.5759 A2.4177,2.4177 0 0,1 2817.1707,390.5561" style="stroke:#000000;stroke-width:0.1;"/>
                <!-- Arc -->
                <path d="M2810.4766,396.7748 A0.7251,0.7251 0 0,1 2811.6555,396.6206" style="stroke:#000000;stroke-width:0.1;"/>
                <!-- Line -->
                <path d="M2940.7281,526.8512 L2811.0296,397.1527 " style="stroke:#000000;stroke-width:0.1;"/>
                <!-- Arc -->
                <path d="M2810.2915,397.0945 A0.4331,0.4331 0 0,1 2811.0296,397.1527" style="stroke:#000000;stroke-width:0.1;"/>
                <!-- Arc -->
                <path d="M3070.4266,656.5497 A0.4331,0.4331 0 0,1 3070.4847,657.2877" style="stroke:#000000;stroke-width:0.1;"/>
                <!-- Line -->
                <path d="M2940.7281,526.8512 L3070.4266,656.5497 " style="stroke:#000000;stroke-width:0.1;"/>
                <!-- Arc -->
                <path d="M3070.9586,655.9238 A0.7251,0.7251 0 0,1 3070.8045,657.1027" style="stroke:#000000;stroke-width:0.1;"/>
                <!-- Arc -->
                <path d="M3077.0232,650.4086 A2.4177,2.4177 0 0,1 3076.0034,653.9984" style="stroke:#000000;stroke-width:0.1;"/>
                <!-- Line -->
                <path d="M2947.0969,520.4823 L3077.0232,650.4086 " style="stroke:#000000;stroke-width:0.1;"/>
                <!-- Line -->
                <path d="M2941.3071,526.2722 L3071.0056,655.9707 " style="stroke:#000000;stroke-width:0.1;"/>
            </g>
            <!-- Block Reference: A$C1D6968EA / entities: 30 -->
            <g>
                <!-- Arc -->
                <path d="M1547.538,21.149 A240.8687,240.8687 0 0,1 1555.7372,110.2616" style="stroke:#000000;stroke-width:0.1;"/>
                <!-- Arc -->
                <path d="M1552.0215,39.5235 A317.3163,317.3163 0 0,1 1566.7499,128.862" style="stroke:#000000;stroke-width:0.1;"/>
                <!-- Arc -->
                <path d="M1899.4476,128.862 A317.3163,317.3163 0 0,1 1914.176,39.5235" style="stroke:#000000;stroke-width:0.1;"/>
                <!-- Arc -->
                <path d="M1910.4603,110.2616 A240.8687,240.8687 0 0,1 1918.6595,21.149" style="stroke:#000000;stroke-width:0.1;"/>
                <!-- Line -->
                <path d="M1733.0988,107.9586 L1626.3137,107.9586 " style="stroke:#000000;stroke-width:0.1;"/>
                <!-- Arc -->
                <path d="M1540.1228,481.6874 A1154.4088,1154.4088 0 0,1 1555.3496,112.8535" style="stroke:#000000;stroke-width:0.1;"/>
                <!-- Arc -->
                <path d="M1548.8664,147.1726 A97.8312,97.8312 0 0,1 1626.3137,107.9586" style="stroke:#000000;stroke-width:0.1;"/>
                <!-- Arc -->
                <path d="M1540.1228,481.6874 A12.0153,12.0153 0 0,1 1549.2531,481.0256" style="stroke:#000000;stroke-width:0.1;"/>
                <!-- Line -->
                <path d="M1549.2531,481.0256 L1547.488,461.6246 " style="stroke:#000000;stroke-width:0.1;"/>
                <!-- Line -->
                <path d="M1547.488,461.6246 L1538.3457,465.952 " style="stroke:#000000;stroke-width:0.1;"/>
                <!-- Line -->
                <path d="M1547.488,461.6246 L1537.8953,461.6246 " style="stroke:#000000;stroke-width:0.1;"/>
                <!-- Line -->
                <path d="M1918.7095,461.6246 L1928.3022,461.6246 " style="stroke:#000000;stroke-width:0.1;"/>
                <!-- Line -->
                <path d="M1918.7095,461.6246 L1927.8518,465.952 " style="stroke:#000000;stroke-width:0.1;"/>
                <!-- Line -->
                <path d="M1916.9444,481.0256 L1918.7095,461.6246 " style="stroke:#000000;stroke-width:0.1;"/>
                <!-- Arc -->
                <path d="M1916.9444,481.0256 A12.0153,12.0153 0 0,1 1926.0748,481.6874" style="stroke:#000000;stroke-width:0.1;"/>
                <!-- Arc -->
                <path d="M1839.8838,107.9586 A97.8312,97.8312 0 0,1 1917.3311,147.1726" style="stroke:#000000;stroke-width:0.1;"/>
                <!-- Arc -->
                <path d="M1910.8479,112.8535 A1154.4088,1154.4088 0 0,1 1926.0748,481.6874" style="stroke:#000000;stroke-width:0.1;"/>
                <!-- Line -->
                <path d="M1733.0988,107.9586 L1839.8838,107.9586 " style="stroke:#000000;stroke-width:0.1;"/>
                <!-- Line -->
                <path d="M1733.0988,26.0776 L1549.6774,26.0776 " style="stroke:#000000;stroke-width:0.1;"/>
                <!-- Line -->
                <path d="M1733.0988,17.8895 L1549.3553,17.8895 " style="stroke:#000000;stroke-width:0.1;"/>
                <!-- Arc -->
                <path d="M1547.538,21.149 A2.4177,2.4177 0 0,1 1549.3553,17.8895" style="stroke:#000000;stroke-width:0.1;"/>
                <!-- Arc -->
                <path d="M1549.0191,27.0202 A0.7251,0.7251 0 0,1 1549.7438,26.0776" style="stroke:#000000;stroke-width:0.1;"/>
                <!-- Line -->
                <path d="M1733.0988,26.8964 L1549.6774,26.8964 " style="stroke:#000000;stroke-width:0.1;"/>
                <!-- Arc -->
                <path d="M1549.1144,27.3771 A0.4331,0.4331 0 0,1 1549.6774,26.8964" style="stroke:#000000;stroke-width:0.1;"/>
                <!-- Arc -->
                <path d="M1916.5201,26.8964 A0.4331,0.4331 0 0,1 1917.0831,27.3771" style="stroke:#000000;stroke-width:0.1;"/>
                <!-- Line -->
                <path d="M1733.0988,26.8964 L1916.5201,26.8964 " style="stroke:#000000;stroke-width:0.1;"/>
                <!-- Arc -->
                <path d="M1916.4538,26.0776 A0.7251,0.7251 0 0,1 1917.1784,27.0202" style="stroke:#000000;stroke-width:0.1;"/>
                <!-- Arc -->
                <path d="M1916.8422,17.8895 A2.4177,2.4177 0 0,1 1918.6595,21.149" style="stroke:#000000;stroke-width:0.1;"/>
                <!-- Line -->
                <path d="M1733.0988,17.8895 L1916.8422,17.8895 " style="stroke:#000000;stroke-width:0.1;"/>
                <!-- Line -->
                <path d="M1733.0988,26.0776 L1916.5201,26.0776 " style="stroke:#000000;stroke-width:0.1;"/>
            </g>
            <!-- Polyline -->
            <path d="M1521.7228,19.996 A216.619,216.619 0 0 1 1531.3065,107.3818 A1180.69,1180.69 0 0 0 1515.7331,484.6113 A22.2032,22.2032 0 0 0 1540.1582,481.6832 A12.0328,12.0328 0 0 1 1549.3018,481.0204 A480.879,480.879 0 0 0 1603.3693,484.6113 L1733.4146,484.6113 L1863.4598,484.6113 A480.879,480.879 0 0 0 1917.5274,481.0204 A12.0328,12.0328 0 0 1 1926.6709,481.6832 A22.2032,22.2032 0 0 0 1951.0961,484.6113 A1180.69,1180.69 0 0 0 1935.5226,107.3818 A216.619,216.619 0 0 1 1945.1064,19.996 A12.6008,12.6008 0 0 0 1934.3249,0.8113 L1532.5043,0.8113 A12.6008,12.6008 0 0 0 1521.7228,19.996 Z" style="stroke:#000000;stroke-width:0.1;"/>
            <!-- Polyline -->
            <path d="M881.682,231.5243 A216.619,216.619 0 0 1 923.9773,308.5907 A1180.69,1180.69 0 0 0 1053.9488,663.065 A22.2032,22.2032 0 0 0 1075.3941,651.0126 A12.0328,12.0328 0 0 1 1083.5881,646.9013 A480.879,480.879 0 0 0 1134.9141,629.5281 L1255.0603,579.7619 L1375.2064,529.9958 A480.879,480.879 0 0 0 1423.7841,505.9874 A12.0328,12.0328 0 0 1 1432.4853,503.1006 A22.2032,22.2032 0 0 0 1456.1717,496.4588 A1180.69,1180.69 0 0 0 1297.4243,153.9039 A216.619,216.619 0 0 1 1272.8374,69.5024 A12.6008,12.6008 0 0 0 1255.5349,55.904 L884.3011,209.674 A12.6008,12.6008 0 0 0 881.682,231.5243 Z" style="stroke:#000000;stroke-width:0.1;"/>
            <!-- Block Reference: A$C1D6968EA / entities: 30 -->
            <g>
                <!-- Arc -->
                <path d="M905.9734,222.7104 A240.8687,240.8687 0 0,1 947.6504,301.902" style="stroke:#000000;stroke-width:0.1;"/>
                <!-- Arc -->
                <path d="M917.1472,237.9705 A317.3163,317.3163 0 0,1 964.9428,314.8722" style="stroke:#000000;stroke-width:0.1;"/>
                <!-- Arc -->
                <path d="M1272.3154,187.5543 A317.3163,317.3163 0 0,1 1251.7343,99.38" style="stroke:#000000;stroke-width:0.1;"/>
                <!-- Arc -->
                <path d="M1275.3717,166.1554 A240.8687,240.8687 0 0,1 1248.8449,80.6884" style="stroke:#000000;stroke-width:0.1;"/>
                <!-- Line -->
                <path d="M1110.6297,231.901 L1011.9732,272.7659 " style="stroke:#000000;stroke-width:0.1;"/>
                <!-- Arc -->
                <path d="M1075.363,651.0301 A1154.4088,1154.4088 0 0,1 948.2841,304.445" style="stroke:#000000;stroke-width:0.1;"/>
                <!-- Arc -->
                <path d="M955.4278,338.6327 A97.8312,97.8312 0 0,1 1011.9732,272.7659" style="stroke:#000000;stroke-width:0.1;"/>
                <!-- Arc -->
                <path d="M1075.363,651.0301 A12.0153,12.0153 0 0,1 1083.545,646.9247" style="stroke:#000000;stroke-width:0.1;"/>
                <!-- Line -->
                <path d="M1083.545,646.9247 L1074.4899,629.6759 " style="stroke:#000000;stroke-width:0.1;"/>
                <!-- Line -->
                <path d="M1074.4899,629.6759 L1067.6995,637.1726 " style="stroke:#000000;stroke-width:0.1;"/>
                <!-- Line -->
                <path d="M1074.4899,629.6759 L1065.6274,633.3469 " style="stroke:#000000;stroke-width:0.1;"/>
                <!-- Line -->
                <path d="M1417.4538,487.6156 L1426.3163,483.9446 " style="stroke:#000000;stroke-width:0.1;"/>
                <!-- Line -->
                <path d="M1417.4538,487.6156 L1427.5562,488.115 " style="stroke:#000000;stroke-width:0.1;"/>
                <!-- Line -->
                <path d="M1423.2476,506.2153 L1417.4538,487.6156 " style="stroke:#000000;stroke-width:0.1;"/>
                <!-- Arc -->
                <path d="M1423.2476,506.2153 A12.0153,12.0153 0 0,1 1431.9361,503.3327" style="stroke:#000000;stroke-width:0.1;"/>
                <!-- Arc -->
                <path d="M1209.2863,191.0362 A97.8312,97.8312 0 0,1 1295.8448,197.6274" style="stroke:#000000;stroke-width:0.1;"/>
                <!-- Arc -->
                <path d="M1276.7218,168.4016 A1154.4088,1154.4088 0 0,1 1431.9361,503.3327" style="stroke:#000000;stroke-width:0.1;"/>
                <!-- Line -->
                <path d="M1110.6297,231.901 L1209.2863,191.0362 " style="stroke:#000000;stroke-width:0.1;"/>
                <!-- Line -->
                <path d="M1079.2952,156.2528 L909.836,226.4451 " style="stroke:#000000;stroke-width:0.1;"/>
                <!-- Line -->
                <path d="M1076.1618,148.688 L906.4049,219.0036 " style="stroke:#000000;stroke-width:0.1;"/>
                <!-- Arc -->
                <path d="M905.9734,222.7104 A2.4177,2.4177 0 0,1 906.4049,219.0036" style="stroke:#000000;stroke-width:0.1;"/>
                <!-- Arc -->
                <path d="M909.5885,227.5679 A0.7251,0.7251 0 0,1 909.8973,226.4197" style="stroke:#000000;stroke-width:0.1;"/>
                <!-- Line -->
                <path d="M1079.6086,157.0093 L910.1493,227.2016 " style="stroke:#000000;stroke-width:0.1;"/>
                <!-- Arc -->
                <path d="M909.8132,227.8612 A0.4331,0.4331 0 0,1 910.1493,227.2016" style="stroke:#000000;stroke-width:0.1;"/>
                <!-- Arc -->
                <path d="M1249.0678,86.817 A0.4331,0.4331 0 0,1 1249.772,87.0457" style="stroke:#000000;stroke-width:0.1;"/>
                <!-- Line -->
                <path d="M1079.6086,157.0093 L1249.0678,86.817 " style="stroke:#000000;stroke-width:0.1;"/>
                <!-- Arc -->
                <path d="M1248.6932,86.0859 A0.7251,0.7251 0 0,1 1249.7234,86.6795" style="stroke:#000000;stroke-width:0.1;"/>
                <!-- Arc -->
                <path d="M1245.9186,78.3724 A2.4177,2.4177 0 0,1 1248.8449,80.6884" style="stroke:#000000;stroke-width:0.1;"/>
                <!-- Line -->
                <path d="M1076.1618,148.688 L1245.9186,78.3724 " style="stroke:#000000;stroke-width:0.1;"/>
                <!-- Line -->
                <path d="M1079.2952,156.2528 L1248.7545,86.0605 " style="stroke:#000000;stroke-width:0.1;"/>
            </g>
            <!-- Polyline -->
            <path d="M2193.9917,69.5024 A216.619,216.619 0 0 1 2169.4049,153.9039 A1180.69,1180.69 0 0 0 2010.6574,496.4588 A22.2032,22.2032 0 0 0 2034.3438,503.1006 A12.0328,12.0328 0 0 1 2043.045,505.9874 A480.879,480.879 0 0 0 2091.6227,529.9958 L2211.7689,579.7619 L2331.915,629.5281 A480.879,480.879 0 0 0 2383.2411,646.9013 A12.0328,12.0328 0 0 1 2391.435,651.0126 A22.2032,22.2032 0 0 0 2412.8803,663.065 A1180.69,1180.69 0 0 0 2542.8518,308.5907 A216.619,216.619 0 0 1 2585.1472,231.5243 A12.6008,12.6008 0 0 0 2582.528,209.674 L2211.2942,55.904 A12.6008,12.6008 0 0 0 2193.9917,69.5024 Z" style="stroke:#000000;stroke-width:0.1;"/>
            <!-- Block Reference: A$C1D6968EA / entities: 30 -->
            <g>
                <!-- Arc -->
                <path d="M2217.4007,80.4467 A240.8687,240.8687 0 0,1 2190.8739,165.9137" style="stroke:#000000;stroke-width:0.1;"/>
                <!-- Arc -->
                <path d="M2214.5113,99.1383 A317.3163,317.3163 0 0,1 2193.9302,187.3125" style="stroke:#000000;stroke-width:0.1;"/>
                <!-- Arc -->
                <path d="M2501.3028,314.6305 A317.3163,317.3163 0 0,1 2549.0984,237.7288" style="stroke:#000000;stroke-width:0.1;"/>
                <!-- Arc -->
                <path d="M2518.5952,301.6603 A240.8687,240.8687 0 0,1 2560.2722,222.4687" style="stroke:#000000;stroke-width:0.1;"/>
                <!-- Line -->
                <path d="M2355.6159,231.6593 L2256.9593,190.7944 " style="stroke:#000000;stroke-width:0.1;"/>
                <!-- Arc -->
                <path d="M2034.3095,503.091 A1154.4088,1154.4088 0 0,1 2189.5238,168.1599" style="stroke:#000000;stroke-width:0.1;"/>
                <!-- Arc -->
                <path d="M2170.4008,197.3857 A97.8312,97.8312 0 0,1 2256.9593,190.7944" style="stroke:#000000;stroke-width:0.1;"/>
                <!-- Arc -->
                <path d="M2034.3095,503.091 A12.0153,12.0153 0 0,1 2042.998,505.9736" style="stroke:#000000;stroke-width:0.1;"/>
                <!-- Line -->
                <path d="M2042.998,505.9736 L2048.7918,487.3739 " style="stroke:#000000;stroke-width:0.1;"/>
                <!-- Line -->
                <path d="M2048.7918,487.3739 L2038.6894,487.8733 " style="stroke:#000000;stroke-width:0.1;"/>
                <!-- Line -->
                <path d="M2048.7918,487.3739 L2039.9293,483.7029 " style="stroke:#000000;stroke-width:0.1;"/>
                <!-- Line -->
                <path d="M2391.7557,629.4342 L2400.6182,633.1052 " style="stroke:#000000;stroke-width:0.1;"/>
                <!-- Line -->
                <path d="M2391.7557,629.4342 L2398.5461,636.9308 " style="stroke:#000000;stroke-width:0.1;"/>
                <!-- Line -->
                <path d="M2382.7005,646.683 L2391.7557,629.4342 " style="stroke:#000000;stroke-width:0.1;"/>
                <!-- Arc -->
                <path d="M2382.7005,646.683 A12.0153,12.0153 0 0,1 2390.8826,650.7884" style="stroke:#000000;stroke-width:0.1;"/>
                <!-- Arc -->
                <path d="M2454.2724,272.5242 A97.8312,97.8312 0 0,1 2510.8178,338.391" style="stroke:#000000;stroke-width:0.1;"/>
                <!-- Arc -->
                <path d="M2517.9615,304.2033 A1154.4088,1154.4088 0 0,1 2390.8826,650.7884" style="stroke:#000000;stroke-width:0.1;"/>
                <!-- Line -->
                <path d="M2355.6159,231.6593 L2454.2724,272.5242 " style="stroke:#000000;stroke-width:0.1;"/>
                <!-- Line -->
                <path d="M2386.9504,156.0111 L2217.4911,85.8188 " style="stroke:#000000;stroke-width:0.1;"/>
                <!-- Line -->
                <path d="M2390.0838,148.4463 L2220.327,78.1307 " style="stroke:#000000;stroke-width:0.1;"/>
                <!-- Arc -->
                <path d="M2217.4007,80.4467 A2.4177,2.4177 0 0,1 2220.327,78.1307" style="stroke:#000000;stroke-width:0.1;"/>
                <!-- Arc -->
                <path d="M2216.5222,86.4377 A0.7251,0.7251 0 0,1 2217.5524,85.8442" style="stroke:#000000;stroke-width:0.1;"/>
                <!-- Line -->
                <path d="M2386.637,156.7676 L2217.1778,86.5752 " style="stroke:#000000;stroke-width:0.1;"/>
                <!-- Arc -->
                <path d="M2216.4736,86.804 A0.4331,0.4331 0 0,1 2217.1778,86.5752" style="stroke:#000000;stroke-width:0.1;"/>
                <!-- Arc -->
                <path d="M2556.0963,226.9599 A0.4331,0.4331 0 0,1 2556.4324,227.6195" style="stroke:#000000;stroke-width:0.1;"/>
                <!-- Line -->
                <path d="M2386.637,156.7676 L2556.0963,226.9599 " style="stroke:#000000;stroke-width:0.1;"/>
                <!-- Arc -->
                <path d="M2556.3483,226.178 A0.7251,0.7251 0 0,1 2556.6571,227.3262" style="stroke:#000000;stroke-width:0.1;"/>
                <!-- Arc -->
                <path d="M2559.8407,218.7619 A2.4177,2.4177 0 0,1 2560.2722,222.4687" style="stroke:#000000;stroke-width:0.1;"/>
                <!-- Line -->
                <path d="M2390.0838,148.4463 L2559.8407,218.7619 " style="stroke:#000000;stroke-width:0.1;"/>
                <!-- Line -->
                <path d="M2386.9504,156.0111 L2556.4096,226.2034 " style="stroke:#000000;stroke-width:0.1;"/>
            </g>
            <!-- Polyline -->
            <path d="M68.3056,1274.0342 A216.619,216.619 0 0 1 152.7071,1298.6211 A1180.69,1180.69 0 0 0 495.2621,1457.3685 A22.2032,22.2032 0 0 0 501.9039,1433.6821 A12.0328,12.0328 0 0 1 504.7907,1424.9809 A480.879,480.879 0 0 0 528.799,1376.4032 L578.5652,1256.2571 L628.3313,1136.1109 A480.879,480.879 0 0 0 645.7045,1084.7848 A12.0328,12.0328 0 0 1 649.8159,1076.5909 A22.2032,22.2032 0 0 0 661.8683,1055.1456 A1180.69,1180.69 0 0 0 307.3939,925.1741 A216.619,216.619 0 0 1 230.3275,882.8787 A12.6008,12.6008 0 0 0 208.4773,885.4979 L54.7072,1256.7317 A12.6008,12.6008 0 0 0 68.3056,1274.0342 Z" style="stroke:#000000;stroke-width:0.1;"/>
            <!-- Block Reference: A$C1D6968EA / entities: 30 -->
            <g>
                <!-- Arc -->
                <path d="M79.2499,1250.6252 A240.8687,240.8687 0 0,1 164.7169,1277.1521" style="stroke:#000000;stroke-width:0.1;"/>
                <!-- Arc -->
                <path d="M97.9415,1253.5147 A317.3163,317.3163 0 0,1 186.1158,1274.0958" style="stroke:#000000;stroke-width:0.1;"/>
                <!-- Arc -->
                <path d="M313.4337,966.7231 A317.3163,317.3163 0 0,1 236.532,918.9275" style="stroke:#000000;stroke-width:0.1;"/>
                <!-- Arc -->
                <path d="M300.4635,949.4307 A240.8687,240.8687 0 0,1 221.2719,907.7537" style="stroke:#000000;stroke-width:0.1;"/>
                <!-- Line -->
                <path d="M230.4625,1112.4101 L189.5977,1211.0666 " style="stroke:#000000;stroke-width:0.1;"/>
                <!-- Arc -->
                <path d="M501.8942,1433.7165 A1154.4088,1154.4088 0 0,1 166.9632,1278.5021" style="stroke:#000000;stroke-width:0.1;"/>
                <!-- Arc -->
                <path d="M196.1889,1297.6251 A97.8312,97.8312 0 0,1 189.5977,1211.0666" style="stroke:#000000;stroke-width:0.1;"/>
                <!-- Arc -->
                <path d="M501.8942,1433.7165 A12.0153,12.0153 0 0,1 504.7768,1425.0279" style="stroke:#000000;stroke-width:0.1;"/>
                <!-- Line -->
                <path d="M504.7768,1425.0279 L486.1771,1419.2341 " style="stroke:#000000;stroke-width:0.1;"/>
                <!-- Line -->
                <path d="M486.1771,1419.2341 L486.6765,1429.3365 " style="stroke:#000000;stroke-width:0.1;"/>
                <!-- Line -->
                <path d="M486.1771,1419.2341 L482.5061,1428.0967 " style="stroke:#000000;stroke-width:0.1;"/>
                <!-- Line -->
                <path d="M628.2374,1076.2702 L631.9084,1067.4077 " style="stroke:#000000;stroke-width:0.1;"/>
                <!-- Line -->
                <path d="M628.2374,1076.2702 L635.7341,1069.4799 " style="stroke:#000000;stroke-width:0.1;"/>
                <!-- Line -->
                <path d="M645.4862,1085.3254 L628.2374,1076.2702 " style="stroke:#000000;stroke-width:0.1;"/>
                <!-- Arc -->
                <path d="M645.4862,1085.3254 A12.0153,12.0153 0 0,1 649.5916,1077.1433" style="stroke:#000000;stroke-width:0.1;"/>
                <!-- Arc -->
                <path d="M271.3274,1013.7535 A97.8312,97.8312 0 0,1 337.1942,957.2081" style="stroke:#000000;stroke-width:0.1;"/>
                <!-- Arc -->
                <path d="M303.0065,950.0644 A1154.4088,1154.4088 0 0,1 649.5916,1077.1433" style="stroke:#000000;stroke-width:0.1;"/>
                <!-- Line -->
                <path d="M230.4625,1112.4101 L271.3274,1013.7535 " style="stroke:#000000;stroke-width:0.1;"/>
                <!-- Line -->
                <path d="M154.8143,1081.0755 L84.622,1250.5348 " style="stroke:#000000;stroke-width:0.1;"/>
                <!-- Line -->
                <path d="M147.2495,1077.9421 L76.9339,1247.6989 " style="stroke:#000000;stroke-width:0.1;"/>
                <!-- Arc -->
                <path d="M79.2499,1250.6252 A2.4177,2.4177 0 0,1 76.9339,1247.6989" style="stroke:#000000;stroke-width:0.1;"/>
                <!-- Arc -->
                <path d="M85.241,1251.5037 A0.7251,0.7251 0 0,1 84.6474,1250.4735" style="stroke:#000000;stroke-width:0.1;"/>
                <!-- Line -->
                <path d="M155.5708,1081.3889 L85.3785,1250.8482 " style="stroke:#000000;stroke-width:0.1;"/>
                <!-- Arc -->
                <path d="M85.6072,1251.5523 A0.4331,0.4331 0 0,1 85.3785,1250.8482" style="stroke:#000000;stroke-width:0.1;"/>
                <!-- Arc -->
                <path d="M225.7631,911.9296 A0.4331,0.4331 0 0,1 226.4228,911.5935" style="stroke:#000000;stroke-width:0.1;"/>
                <!-- Line -->
                <path d="M155.5708,1081.3889 L225.7631,911.9296 " style="stroke:#000000;stroke-width:0.1;"/>
                <!-- Arc -->
                <path d="M224.9812,911.6776 A0.7251,0.7251 0 0,1 226.1294,911.3689" style="stroke:#000000;stroke-width:0.1;"/>
                <!-- Arc -->
                <path d="M217.5651,908.1853 A2.4177,2.4177 0 0,1 221.2719,907.7537" style="stroke:#000000;stroke-width:0.1;"/>
                <!-- Line -->
                <path d="M147.2495,1077.9421 L217.5651,908.1853 " style="stroke:#000000;stroke-width:0.1;"/>
                <!-- Line -->
                <path d="M154.8143,1081.0755 L225.0067,911.6163 " style="stroke:#000000;stroke-width:0.1;"/>
            </g>
            <!-- Polyline -->
            <path d="M371.3097,671.8839 A216.619,216.619 0 0 1 439.8776,726.8983 A1180.69,1180.69 0 0 0 695.6071,1004.6519 A22.2032,22.2032 0 0 0 710.8077,985.3102 A12.0328,12.0328 0 0 1 716.8045,978.3761 A480.879,480.879 0 0 0 757.5752,942.6838 L849.5311,850.7279 L941.487,758.772 A480.879,480.879 0 0 0 977.1793,718.0013 A12.0328,12.0328 0 0 1 984.1134,712.0044 A22.2032,22.2032 0 0 0 1003.4551,696.8038 A1180.69,1180.69 0 0 0 725.7015,441.0743 A216.619,216.619 0 0 1 670.6872,372.5065 A12.6008,12.6008 0 0 0 649.4979,366.5646 L365.3678,650.6946 A12.6008,12.6008 0 0 0 371.3097,671.8839 Z" style="stroke:#000000;stroke-width:0.1;"/>
            <!-- Block Reference: A$C1D6968EA / entities: 30 -->
            <g>
                <!-- Arc -->
                <path d="M390.3792,654.445 A240.8687,240.8687 0 0,1 459.189,711.6595" style="stroke:#000000;stroke-width:0.1;"/>
                <!-- Arc -->
                <path d="M406.5422,664.2675 A317.3163,317.3163 0 0,1 480.1286,717.0248" style="stroke:#000000;stroke-width:0.1;"/>
                <!-- Arc -->
                <path d="M715.3814,481.772 A317.3163,317.3163 0 0,1 662.6241,408.1856" style="stroke:#000000;stroke-width:0.1;"/>
                <!-- Arc -->
                <path d="M710.0161,460.8324 A240.8687,240.8687 0 0,1 652.8016,392.0226" style="stroke:#000000;stroke-width:0.1;"/>
                <!-- Line -->
                <path d="M582.9741,584.6175 L507.4656,660.1259 " style="stroke:#000000;stroke-width:0.1;"/>
                <!-- Arc -->
                <path d="M710.7856,985.3383 A1154.4088,1154.4088 0 0,1 460.7476,713.7663" style="stroke:#000000;stroke-width:0.1;"/>
                <!-- Arc -->
                <path d="M480.4306,742.6179 A97.8312,97.8312 0 0,1 507.4656,660.1259" style="stroke:#000000;stroke-width:0.1;"/>
                <!-- Arc -->
                <path d="M710.7856,985.3383 A12.0153,12.0153 0 0,1 716.7738,978.4142" style="stroke:#000000;stroke-width:0.1;"/>
                <!-- Line -->
                <path d="M716.7738,978.4142 L701.8071,965.9437 " style="stroke:#000000;stroke-width:0.1;"/>
                <!-- Line -->
                <path d="M701.8071,965.9437 L698.4024,975.4682 " style="stroke:#000000;stroke-width:0.1;"/>
                <!-- Line -->
                <path d="M701.8071,965.9437 L695.024,972.7268 " style="stroke:#000000;stroke-width:0.1;"/>
                <!-- Line -->
                <path d="M964.3003,703.4505 L971.0834,696.6674 " style="stroke:#000000;stroke-width:0.1;"/>
                <!-- Line -->
                <path d="M964.3003,703.4505 L973.8248,700.0458 " style="stroke:#000000;stroke-width:0.1;"/>
                <!-- Line -->
                <path d="M976.7708,718.4172 L964.3003,703.4505 " style="stroke:#000000;stroke-width:0.1;"/>
                <!-- Arc -->
                <path d="M976.7708,718.4172 A12.0153,12.0153 0 0,1 983.6949,712.429" style="stroke:#000000;stroke-width:0.1;"/>
                <!-- Arc -->
                <path d="M658.4825,509.109 A97.8312,97.8312 0 0,1 740.9745,482.074" style="stroke:#000000;stroke-width:0.1;"/>
                <!-- Arc -->
                <path d="M712.1229,462.391 A1154.4088,1154.4088 0 0,1 983.6949,712.429" style="stroke:#000000;stroke-width:0.1;"/>
                <!-- Line -->
                <path d="M582.9741,584.6175 L658.4825,509.109 " style="stroke:#000000;stroke-width:0.1;"/>
                <!-- Line -->
                <path d="M525.0754,526.7188 L395.3769,656.4173 " style="stroke:#000000;stroke-width:0.1;"/>
                <!-- Line -->
                <path d="M519.2856,520.929 L389.3593,650.8552 " style="stroke:#000000;stroke-width:0.1;"/>
                <!-- Arc -->
                <path d="M390.3792,654.445 A2.4177,2.4177 0 0,1 389.3593,650.8552" style="stroke:#000000;stroke-width:0.1;"/>
                <!-- Arc -->
                <path d="M395.578,657.5493 A0.7251,0.7251 0 0,1 395.4239,656.3704" style="stroke:#000000;stroke-width:0.1;"/>
                <!-- Line -->
                <path d="M525.6544,527.2978 L395.9559,656.9963 " style="stroke:#000000;stroke-width:0.1;"/>
                <!-- Arc -->
                <path d="M395.8978,657.7344 A0.4331,0.4331 0 0,1 395.9559,656.9963" style="stroke:#000000;stroke-width:0.1;"/>
                <!-- Arc -->
                <path d="M655.3529,397.5993 A0.4331,0.4331 0 0,1 656.091,397.5412" style="stroke:#000000;stroke-width:0.1;"/>
                <!-- Line -->
                <path d="M525.6544,527.2978 L655.3529,397.5993 " style="stroke:#000000;stroke-width:0.1;"/>
                <!-- Arc -->
                <path d="M654.727,397.0673 A0.7251,0.7251 0 0,1 655.9059,397.2214" style="stroke:#000000;stroke-width:0.1;"/>
                <!-- Arc -->
                <path d="M649.2118,391.0027 A2.4177,2.4177 0 0,1 652.8016,392.0226" style="stroke:#000000;stroke-width:0.1;"/>
                <!-- Line -->
                <path d="M519.2856,520.929 L649.2118,391.0027 " style="stroke:#000000;stroke-width:0.1;"/>
                <!-- Line -->
                <path d="M525.0754,526.7188 L654.7739,397.0203 " style="stroke:#000000;stroke-width:0.1;"/>
            </g>
            <!-- Circle -->
            <circle cx="1733.414575860259" cy="1734.6113431507947" r="1225" style="stroke:#000000;stroke-width:0.1;"/>
            <!-- Circle -->
            <circle cx="1733.414575860259" cy="1734.6113431507947" r="1200.0000000000002" style="stroke:#000000;stroke-width:0.1;"/>
            <!-- Polyline -->
            <path d="M18.7993,1946.3032 A216.619,216.619 0 0 1 106.1851,1936.7194 A1180.69,1180.69 0 0 0 483.4146,1952.2928 A22.2032,22.2032 0 0 0 480.4864,1927.8677 A12.0328,12.0328 0 0 1 479.8237,1918.7241 A480.879,480.879 0 0 0 483.4146,1864.6566 L483.4146,1734.6113 L483.4146,1604.5661 A480.879,480.879 0 0 0 479.8237,1550.4985 A12.0328,12.0328 0 0 1 480.4864,1541.355 A22.2032,22.2032 0 0 0 483.4146,1516.9299 A1180.69,1180.69 0 0 0 106.1851,1532.5033 A216.619,216.619 0 0 1 18.7993,1522.9195 A12.6008,12.6008 0 0 0 -0.3854,1533.7011 L-0.3854,1935.5216 A12.6008,12.6008 0 0 0 18.7993,1946.3032 Z" style="stroke:#000000;stroke-width:0.1;"/>
            <!-- Block Reference: A$C1D6968EA / entities: 30 -->
            <g>
                <!-- Arc -->
                <path d="M19.9522,1920.4879 A240.8687,240.8687 0 0,1 109.0648,1912.2887" style="stroke:#000000;stroke-width:0.1;"/>
                <!-- Arc -->
                <path d="M38.3268,1916.0044 A317.3163,317.3163 0 0,1 127.6652,1901.276" style="stroke:#000000;stroke-width:0.1;"/>
                <!-- Arc -->
                <path d="M127.6652,1568.5783 A317.3163,317.3163 0 0,1 38.3268,1553.8499" style="stroke:#000000;stroke-width:0.1;"/>
                <!-- Arc -->
                <path d="M109.0648,1557.5657 A240.8687,240.8687 0 0,1 19.9522,1549.3664" style="stroke:#000000;stroke-width:0.1;"/>
                <!-- Line -->
                <path d="M106.7618,1734.9272 L106.7618,1841.7122 " style="stroke:#000000;stroke-width:0.1;"/>
                <!-- Arc -->
                <path d="M480.4906,1927.9032 A1154.4088,1154.4088 0 0,1 111.6567,1912.6763" style="stroke:#000000;stroke-width:0.1;"/>
                <!-- Arc -->
                <path d="M145.9758,1919.1595 A97.8312,97.8312 0 0,1 106.7618,1841.7122" style="stroke:#000000;stroke-width:0.1;"/>
                <!-- Arc -->
                <path d="M480.4906,1927.9032 A12.0153,12.0153 0 0,1 479.8289,1918.7728" style="stroke:#000000;stroke-width:0.1;"/>
                <!-- Line -->
                <path d="M479.8289,1918.7728 L460.4278,1920.5379 " style="stroke:#000000;stroke-width:0.1;"/>
                <!-- Line -->
                <path d="M460.4278,1920.5379 L464.7552,1929.6802 " style="stroke:#000000;stroke-width:0.1;"/>
                <!-- Line -->
                <path d="M460.4278,1920.5379 L460.4278,1930.1306 " style="stroke:#000000;stroke-width:0.1;"/>
                <!-- Line -->
                <path d="M460.4278,1549.3164 L460.4278,1539.7237 " style="stroke:#000000;stroke-width:0.1;"/>
                <!-- Line -->
                <path d="M460.4278,1549.3164 L464.7552,1540.1741 " style="stroke:#000000;stroke-width:0.1;"/>
                <!-- Line -->
                <path d="M479.8289,1551.0815 L460.4278,1549.3164 " style="stroke:#000000;stroke-width:0.1;"/>
                <!-- Arc -->
                <path d="M479.8289,1551.0815 A12.0153,12.0153 0 0,1 480.4906,1541.9512" style="stroke:#000000;stroke-width:0.1;"/>
                <!-- Arc -->
                <path d="M106.7618,1628.1421 A97.8312,97.8312 0 0,1 145.9758,1550.6948" style="stroke:#000000;stroke-width:0.1;"/>
                <!-- Arc -->
                <path d="M111.6567,1557.178 A1154.4088,1154.4088 0 0,1 480.4906,1541.9512" style="stroke:#000000;stroke-width:0.1;"/>
                <!-- Line -->
                <path d="M106.7618,1734.9272 L106.7618,1628.1421 " style="stroke:#000000;stroke-width:0.1;"/>
                <!-- Line -->
                <path d="M24.8808,1734.9272 L24.8808,1918.3485 " style="stroke:#000000;stroke-width:0.1;"/>
                <!-- Line -->
                <path d="M16.6927,1734.9272 L16.6927,1918.6706 " style="stroke:#000000;stroke-width:0.1;"/>
                <!-- Arc -->
                <path d="M19.9522,1920.4879 A2.4177,2.4177 0 0,1 16.6927,1918.6706" style="stroke:#000000;stroke-width:0.1;"/>
                <!-- Arc -->
                <path d="M25.8234,1919.0068 A0.7251,0.7251 0 0,1 24.8808,1918.2822" style="stroke:#000000;stroke-width:0.1;"/>
                <!-- Line -->
                <path d="M25.6996,1734.9272 L25.6996,1918.3485 " style="stroke:#000000;stroke-width:0.1;"/>
                <!-- Arc -->
                <path d="M26.1804,1918.9115 A0.4331,0.4331 0 0,1 25.6996,1918.3485" style="stroke:#000000;stroke-width:0.1;"/>
                <!-- Arc -->
                <path d="M25.6996,1551.5058 A0.4331,0.4331 0 0,1 26.1804,1550.9428" style="stroke:#000000;stroke-width:0.1;"/>
                <!-- Line -->
                <path d="M25.6996,1734.9272 L25.6996,1551.5058 " style="stroke:#000000;stroke-width:0.1;"/>
                <!-- Arc -->
                <path d="M24.8808,1551.5722 A0.7251,0.7251 0 0,1 25.8234,1550.8475" style="stroke:#000000;stroke-width:0.1;"/>
                <!-- Arc -->
                <path d="M16.6927,1551.1837 A2.4177,2.4177 0 0,1 19.9522,1549.3664" style="stroke:#000000;stroke-width:0.1;"/>
                <!-- Line -->
                <path d="M16.6927,1734.9272 L16.6927,1551.1837 " style="stroke:#000000;stroke-width:0.1;"/>
                <!-- Line -->
                <path d="M24.8808,1734.9272 L24.8808,1551.5058 " style="stroke:#000000;stroke-width:0.1;"/>
            </g>
            <!-- Polyline -->
            <path d="M3448.0299,1522.9195 A216.619,216.619 0 0 1 3360.6441,1532.5033 A1180.69,1180.69 0 0 0 2983.4146,1516.9299 A22.2032,22.2032 0 0 0 2986.3428,1541.355 A12.0328,12.0328 0 0 1 2987.0055,1550.4985 A480.879,480.879 0 0 0 2983.4146,1604.5661 L2983.4146,1734.6113 L2983.4146,1864.6566 A480.879,480.879 0 0 0 2987.0055,1918.7241 A12.0328,12.0328 0 0 1 2986.3428,1927.8677 A22.2032,22.2032 0 0 0 2983.4146,1952.2928 A1180.69,1180.69 0 0 0 3360.6441,1936.7194 A216.619,216.619 0 0 1 3448.0299,1946.3032 A12.6008,12.6008 0 0 0 3467.2146,1935.5216 L3467.2146,1533.7011 A12.6008,12.6008 0 0 0 3448.0299,1522.9195 Z" style="stroke:#000000;stroke-width:0.1;"/>
            <!-- Block Reference: A$C1D6968EA / entities: 30 -->
            <g>
                <!-- Arc -->
                <path d="M3446.8769,1548.7348 A240.8687,240.8687 0 0,1 3357.7643,1556.934" style="stroke:#000000;stroke-width:0.1;"/>
                <!-- Arc -->
                <path d="M3428.5024,1553.2183 A317.3163,317.3163 0 0,1 3339.1639,1567.9466" style="stroke:#000000;stroke-width:0.1;"/>
                <!-- Arc -->
                <path d="M3339.1639,1900.6444 A317.3163,317.3163 0 0,1 3428.5024,1915.3728" style="stroke:#000000;stroke-width:0.1;"/>
                <!-- Arc -->
                <path d="M3357.7643,1911.657 A240.8687,240.8687 0 0,1 3446.8769,1919.8562" style="stroke:#000000;stroke-width:0.1;"/>
                <!-- Line -->
                <path d="M3360.0673,1734.2955 L3360.0673,1627.5105 " style="stroke:#000000;stroke-width:0.1;"/>
                <!-- Arc -->
                <path d="M2986.3385,1541.3195 A1154.4088,1154.4088 0 0,1 3355.1724,1556.5464" style="stroke:#000000;stroke-width:0.1;"/>
                <!-- Arc -->
                <path d="M3320.8533,1550.0632 A97.8312,97.8312 0 0,1 3360.0673,1627.5105" style="stroke:#000000;stroke-width:0.1;"/>
                <!-- Arc -->
                <path d="M2986.3385,1541.3195 A12.0153,12.0153 0 0,1 2987.0003,1550.4498" style="stroke:#000000;stroke-width:0.1;"/>
                <!-- Line -->
                <path d="M2987.0003,1550.4498 L3006.4014,1548.6848 " style="stroke:#000000;stroke-width:0.1;"/>
                <!-- Line -->
                <path d="M3006.4014,1548.6848 L3002.0739,1539.5425 " style="stroke:#000000;stroke-width:0.1;"/>
                <!-- Line -->
                <path d="M3006.4014,1548.6848 L3006.4014,1539.0921 " style="stroke:#000000;stroke-width:0.1;"/>
                <!-- Line -->
                <path d="M3006.4014,1919.9063 L3006.4014,1929.499 " style="stroke:#000000;stroke-width:0.1;"/>
                <!-- Line -->
                <path d="M3006.4014,1919.9063 L3002.0739,1929.0486 " style="stroke:#000000;stroke-width:0.1;"/>
                <!-- Line -->
                <path d="M2987.0003,1918.1412 L3006.4014,1919.9063 " style="stroke:#000000;stroke-width:0.1;"/>
                <!-- Arc -->
                <path d="M2987.0003,1918.1412 A12.0153,12.0153 0 0,1 2986.3385,1927.2715" style="stroke:#000000;stroke-width:0.1;"/>
                <!-- Arc -->
                <path d="M3360.0673,1841.0806 A97.8312,97.8312 0 0,1 3320.8533,1918.5278" style="stroke:#000000;stroke-width:0.1;"/>
                <!-- Arc -->
                <path d="M3355.1724,1912.0447 A1154.4088,1154.4088 0 0,1 2986.3385,1927.2715" style="stroke:#000000;stroke-width:0.1;"/>
                <!-- Line -->
                <path d="M3360.0673,1734.2955 L3360.0673,1841.0806 " style="stroke:#000000;stroke-width:0.1;"/>
                <!-- Line -->
                <path d="M3441.9484,1734.2955 L3441.9484,1550.8741 " style="stroke:#000000;stroke-width:0.1;"/>
                <!-- Line -->
                <path d="M3450.1365,1734.2955 L3450.1365,1550.552 " style="stroke:#000000;stroke-width:0.1;"/>
                <!-- Arc -->
                <path d="M3446.8769,1548.7348 A2.4177,2.4177 0 0,1 3450.1365,1550.552" style="stroke:#000000;stroke-width:0.1;"/>
                <!-- Arc -->
                <path d="M3441.0057,1550.2159 A0.7251,0.7251 0 0,1 3441.9484,1550.9405" style="stroke:#000000;stroke-width:0.1;"/>
                <!-- Line -->
                <path d="M3441.1295,1734.2955 L3441.1295,1550.8741 " style="stroke:#000000;stroke-width:0.1;"/>
                <!-- Arc -->
                <path d="M3440.6488,1550.3112 A0.4331,0.4331 0 0,1 3441.1295,1550.8741" style="stroke:#000000;stroke-width:0.1;"/>
                <!-- Arc -->
                <path d="M3441.1295,1917.7169 A0.4331,0.4331 0 0,1 3440.6488,1918.2799" style="stroke:#000000;stroke-width:0.1;"/>
                <!-- Line -->
                <path d="M3441.1295,1734.2955 L3441.1295,1917.7169 " style="stroke:#000000;stroke-width:0.1;"/>
                <!-- Arc -->
                <path d="M3441.9484,1917.6505 A0.7251,0.7251 0 0,1 3441.0057,1918.3752" style="stroke:#000000;stroke-width:0.1;"/>
                <!-- Arc -->
                <path d="M3450.1365,1918.039 A2.4177,2.4177 0 0,1 3446.8769,1919.8562" style="stroke:#000000;stroke-width:0.1;"/>
                <!-- Line -->
                <path d="M3450.1365,1734.2955 L3450.1365,1918.039 " style="stroke:#000000;stroke-width:0.1;"/>
                <!-- Line -->
                <path d="M3441.9484,1734.2955 L3441.9484,1917.7169 " style="stroke:#000000;stroke-width:0.1;"/>
            </g>
        </g>
    </g>
</svg>

