<?xml version="1.0" encoding="UTF-8"?>
<!-- 2026-03-10 12:45:30 Generated by QCAD 3.32.6 SVG Exporter -->
<svg  width="2416.7829mm" height="4800mm" viewBox="537.6778 -5180.4226 2416.7829 4800" version="1.1" xmlns="http://www.w3.org/2000/svg" style="stroke-linecap:round;stroke-linejoin:round;">
    <g transform="scale(1,-1)">
            <!-- Auto-generated fillable area -->
            <!-- Block Reference: 16 seater oval / entities: 16 -->
        <g>
            <!-- Ellipse -->
            <path d="M1746.0692,380.4226 L1731.3445,381.1454 L1716.6286,383.3135 L1701.9305,386.9255 L1687.2589,391.9792 L1672.6228,398.4717 L1658.0309,406.3989 L1643.4921,415.7562 L1629.015,426.5379 L1614.6085,438.7374 L1600.2811,452.3475 L1586.0416,467.36 L1571.8984,483.7658 L1557.8602,501.5549 L1543.9353,520.7168 L1530.1322,541.2398 L1516.4591,563.1117 L1502.9244,586.3191 L1489.5362,610.8483 L1476.3024,636.6842 L1463.2312,663.8115 L1450.3303,692.2138 L1437.6076,721.8739 L1425.0706,752.774 L1412.7271,784.8955 L1400.5843,818.219 L1388.6496,852.7245 L1376.9303,888.3911 L1365.4332,925.1975 L1354.1655,963.1213 L1343.1338,1002.1399 L1332.3449,1042.2296 L1321.8051,1083.3663 L1311.521,1125.5252 L1301.4985,1168.6811 L1291.7439,1212.8077 L1282.2629,1257.8787 L1273.0614,1303.8667 L1264.1447,1350.7442 L1255.5183,1398.4829 L1247.1874,1447.054 L1239.1571,1496.4283 L1231.432,1546.576 L1224.017,1597.4669 L1216.9164,1649.0704 L1210.1346,1701.3554 L1203.6756,1754.2903 L1197.5434,1807.8434 L1191.7415,1861.9823 L1186.2735,1916.6745 L1181.1428,1971.8869 L1176.3523,2027.5864 L1171.905,2083.7393 L1167.8036,2140.3119 L1164.0505,2197.2701 L1160.6479,2254.5796 L1157.598,2312.2058 L1154.9026,2370.114 L1152.5633,2428.2694 L1150.5815,2486.6369 L1148.9584,2545.1814 L1147.6949,2603.8676 L1146.7919,2662.6601 L1146.2499,2721.5236 L1146.0692,2780.4226 L1146.2499,2839.3215 L1146.7919,2898.185 L1147.6949,2956.9775 L1148.9584,3015.6637 L1150.5815,3074.2082 L1152.5633,3132.5757 L1154.9026,3190.7311 L1157.598,3248.6393 L1160.6479,3306.2655 L1164.0505,3363.575 L1167.8036,3420.5332 L1171.905,3477.1058 L1176.3523,3533.2587 L1181.1428,3588.9582 L1186.2735,3644.1706 L1191.7415,3698.8628 L1197.5434,3753.0017 L1203.6756,3806.5548 L1210.1346,3859.4897 L1216.9164,3911.7747 L1224.017,3963.3782 L1231.432,4014.2691 L1239.1571,4064.4168 L1247.1874,4113.7911 L1255.5183,4162.3622 L1264.1447,4210.1009 L1273.0614,4256.9784 L1282.2629,4302.9664 L1291.7439,4348.0374 L1301.4985,4392.164 L1311.521,4435.3199 L1321.8051,4477.4788 L1332.3449,4518.6156 L1343.1338,4558.7053 L1354.1655,4597.7238 L1365.4332,4635.6476 L1376.9303,4672.454 L1388.6496,4708.1206 L1400.5843,4742.6261 L1412.7271,4775.9496 L1425.0706,4808.0711 L1437.6076,4838.9712 L1450.3303,4868.6313 L1463.2312,4897.0336 L1476.3024,4924.1609 L1489.5362,4949.9969 L1502.9244,4974.526 L1516.4591,4997.7334 L1530.1322,5019.6053 L1543.9353,5040.1283 L1557.8602,5059.2902 L1571.8984,5077.0794 L1586.0416,5093.4851 L1600.2811,5108.4976 L1614.6085,5122.1077 L1629.015,5134.3072 L1643.4921,5145.0889 L1658.0309,5154.4462 L1672.6228,5162.3734 L1687.2589,5168.8659 L1701.9305,5173.9197 L1716.6286,5177.5317 L1731.3445,5179.6997 L1746.0692,5180.4226 L1760.7939,5179.6997 L1775.5098,5177.5317 L1790.2079,5173.9197 L1804.8795,5168.8659 L1819.5156,5162.3734 L1834.1075,5154.4462 L1848.6463,5145.0889 L1863.1234,5134.3072 L1877.53,5122.1077 L1891.8573,5108.4976 L1906.0969,5093.4851 L1920.24,5077.0794 L1934.2783,5059.2902 L1948.2031,5040.1283 L1962.0062,5019.6053 L1975.6793,4997.7334 L1989.214,4974.526 L2002.6023,4949.9969 L2015.836,4924.1609 L2028.9073,4897.0336 L2041.8081,4868.6313 L2054.5309,4838.9712 L2067.0678,4808.0711 L2079.4113,4775.9496 L2091.5541,4742.6261 L2103.4888,4708.1206 L2115.2082,4672.454 L2126.7052,4635.6476 L2137.9729,4597.7238 L2149.0046,4558.7053 L2159.7935,4518.6156 L2170.3333,4477.4788 L2180.6175,4435.3199 L2190.6399,4392.164 L2200.3945,4348.0374 L2209.8755,4302.9664 L2219.0771,4256.9784 L2227.9937,4210.1009 L2236.6201,4162.3622 L2244.951,4113.7911 L2252.9813,4064.4168 L2260.7064,4014.2691 L2268.1214,3963.3782 L2275.222,3911.7747 L2282.0038,3859.4897 L2288.4628,3806.5548 L2294.5951,3753.0017 L2300.3969,3698.8628 L2305.8649,3644.1706 L2310.9956,3588.9582 L2315.7861,3533.2587 L2320.2334,3477.1058 L2324.3348,3420.5332 L2328.088,3363.575 L2331.4905,3306.2655 L2334.5404,3248.6393 L2337.2358,3190.7311 L2339.5751,3132.5757 L2341.5569,3074.2082 L2343.18,3015.6637 L2344.4435,2956.9775 L2345.3465,2898.185 L2345.8885,2839.3215 L2346.0692,2780.4226 L2345.8885,2721.5236 L2345.3465,2662.6601 L2344.4435,2603.8676 L2343.18,2545.1814 L2341.5569,2486.6369 L2339.5751,2428.2694 L2337.2358,2370.114 L2334.5404,2312.2058 L2331.4905,2254.5796 L2328.088,2197.2701 L2324.3348,2140.3119 L2320.2334,2083.7393 L2315.7861,2027.5864 L2310.9956,1971.8869 L2305.8649,1916.6745 L2300.3969,1861.9823 L2294.5951,1807.8434 L2288.4628,1754.2903 L2282.0038,1701.3554 L2275.222,1649.0704 L2268.1214,1597.4669 L2260.7064,1546.576 L2252.9813,1496.4283 L2244.951,1447.054 L2236.6201,1398.4829 L2227.9937,1350.7442 L2219.0771,1303.8667 L2209.8755,1257.8787 L2200.3945,1212.8077 L2190.6399,1168.6811 L2180.6175,1125.5252 L2170.3333,1083.3663 L2159.7935,1042.2296 L2149.0046,1002.1399 L2137.9729,963.1213 L2126.7052,925.1975 L2115.2082,888.3911 L2103.4888,852.7245 L2091.5541,818.219 L2079.4113,784.8955 L2067.0678,752.774 L2054.5309,721.8739 L2041.8081,692.2138 L2028.9073,663.8115 L2015.836,636.6842 L2002.6023,610.8483 L1989.214,586.3191 L1975.6793,563.1117 L1962.0062,541.2398 L1948.2031,520.7168 L1934.2783,501.5549 L1920.24,483.7658 L1906.0969,467.36 L1891.8573,452.3475 L1877.53,438.7374 L1863.1234,426.5379 L1848.6463,415.7562 L1834.1075,406.3989 L1819.5156,398.4717 L1804.8795,391.9792 L1790.2079,386.9255 L1775.5098,383.3135 L1760.7939,381.1454 Z" style="stroke:#000000;stroke-width:0.1;"/>
            <!-- Spline -->
            <path d="M1746.0692,400.4226 C1737.9793,400.4226 1729.8885,401.1752 1721.7489,402.6959 C1713.6093,404.2166 1705.4201,406.5066 1697.1574,409.6007 C1688.8947,412.6948 1680.5591,416.5942 1672.1551,421.332 C1663.751,426.0699 1655.2793,431.6466 1646.7617,438.0821 C1638.2442,444.5176 1629.6813,451.8117 1621.1004,459.9702 C1612.5194,468.1287 1603.9206,477.1513 1595.3303,487.0334 C1581.8957,502.4881 1568.4829,520.0456 1555.1761,539.6577 C1541.8693,559.2699 1528.6681,580.9359 1515.6383,604.5881 C1502.6085,628.2404 1489.7496,653.8786 1477.1144,681.4242 C1464.4792,708.9698 1452.0674,738.4227 1439.9234,769.6957 C1423.1198,812.9682 1406.8292,859.7267 1391.1519,909.7153 C1375.4745,959.7039 1360.4102,1012.9226 1346.045,1069.0881 C1331.6799,1125.2535 1318.0137,1184.3656 1305.1216,1246.1144 C1292.2295,1307.8632 1280.1115,1372.2486 1268.8325,1438.9363 C1257.5534,1505.624 1247.1134,1574.6137 1237.5677,1645.5491 C1228.0219,1716.4846 1219.3704,1789.3656 1211.6584,1863.8171 C1203.9465,1938.2687 1197.1742,2014.2904 1191.3768,2091.4921 C1185.5794,2168.6937 1180.757,2247.075 1176.9346,2326.2339 C1173.1121,2405.3928 1170.2897,2485.3291 1168.4819,2565.6332 C1166.6742,2645.9372 1165.8811,2726.6088 1166.1067,2807.2346 C1166.3324,2887.8605 1167.5768,2968.4403 1169.8336,3048.5612 C1172.0903,3128.6822 1175.3594,3208.3441 1179.6238,3287.1386 C1183.8883,3365.9331 1189.148,3443.86 1195.3758,3520.5195 C1201.6035,3597.1791 1208.7992,3672.571 1216.9254,3746.308 C1225.0515,3820.0451 1234.1081,3892.1269 1244.0475,3962.1825 C1253.9868,4032.2381 1264.8091,4100.2671 1276.4567,4165.9179 C1288.1044,4231.5688 1300.5776,4294.8412 1313.809,4355.4061 C1327.0405,4415.971 1341.0302,4473.8283 1355.701,4528.6737 C1370.3717,4583.5191 1385.7236,4635.3527 1401.6676,4683.897 C1417.6116,4732.4413 1434.1482,4777.6963 1451.1733,4819.4125 C1468.1984,4861.1288 1485.7129,4899.3062 1503.5891,4933.7246 C1518.1349,4961.7307 1532.9203,4987.2483 1547.8568,5010.1764 C1562.7932,5033.1045 1577.8815,5053.4418 1593.0048,5071.1153 C1604.5723,5084.6335 1616.1595,5096.5931 1627.7018,5106.9847 C1639.2441,5117.3762 1650.74,5126.1985 1662.1265,5133.4797 C1671.2106,5139.2887 1680.2241,5144.1179 1689.1521,5148.0035 C1698.0801,5151.889 1706.9214,5154.8322 1715.695,5156.8779 C1724.4685,5158.9236 1733.1751,5160.0739 1741.8694,5160.3547 C1750.5638,5160.6356 1759.2485,5160.0475 1767.985,5158.5763 C1776.7214,5157.1051 1785.5111,5154.7491 1794.3858,5151.4659 C1803.2604,5148.1828 1812.2194,5143.9708 1821.2569,5138.789 C1830.2943,5133.6072 1839.4089,5127.455 1848.5728,5120.3095 C1857.7367,5113.1639 1866.949,5105.0252 1876.1759,5095.8887 C1885.4028,5086.7522 1894.6439,5076.6183 1903.8675,5065.495 C1913.0911,5054.3717 1922.2972,5042.2593 1931.4585,5029.1737 C1946.3747,5007.8683 1961.1712,4983.9823 1975.7542,4957.6085 C1990.3372,4931.2347 2004.7075,4902.3736 2018.7917,4871.136 C2032.8759,4839.8983 2046.6744,4806.2841 2060.1266,4770.4173 C2073.5788,4734.5504 2086.6849,4696.4309 2099.3925,4656.1948 C2112.1002,4615.9587 2124.4094,4573.606 2136.274,4529.2846 C2148.1386,4484.9631 2159.5584,4438.673 2170.4922,4390.5736 C2181.426,4342.4742 2191.8737,4292.5654 2201.7983,4241.0176 C2211.7229,4189.4697 2221.1244,4136.2829 2229.97,4081.6372 C2242.0761,4006.8491 2253.1403,3929.3276 2263.0913,3849.5621 C2273.0423,3769.7967 2281.88,3687.7876 2289.5479,3604.0509 C2297.2157,3520.3142 2303.7137,3434.8504 2309.0004,3348.1961 C2314.2872,3261.5417 2318.3626,3173.6973 2321.2008,3085.214 C2324.0391,2996.7306 2325.6402,2907.6086 2325.9939,2818.4068 C2326.3476,2729.205 2325.454,2639.9238 2323.3187,2551.123 C2321.1834,2462.3221 2317.8064,2374.0021 2313.2092,2286.7167 C2308.6121,2199.4313 2302.7946,2113.181 2295.7941,2028.5073 C2288.7935,1943.8336 2280.6097,1860.7368 2271.2951,1779.7396 C2261.9804,1698.7423 2251.535,1619.8449 2240.0259,1543.5448 C2228.5168,1467.2448 2215.9442,1393.5425 2202.3898,1322.905 C2188.8355,1252.2675 2174.2995,1184.6951 2158.8785,1120.6195 C2143.4574,1056.5439 2127.1513,995.9654 2110.0728,939.2769 C2092.9944,882.5883 2075.1431,829.7899 2056.6517,781.2333 C2038.1603,732.6767 2019.0278,688.3622 1999.4171,648.5982 C1984.6688,618.6937 1969.6503,591.3623 1954.4507,566.7167 C1939.2511,542.071 1923.8695,520.1122 1908.4234,500.9267 C1896.5164,486.1371 1884.5718,472.9957 1872.6577,461.5202 C1860.7436,450.0447 1848.8614,440.2366 1837.0827,432.0757 C1827.7758,425.6272 1818.5345,420.2064 1809.3809,415.7795 C1800.2274,411.3526 1791.1629,407.9186 1782.177,405.4297 C1773.1911,402.9409 1764.2832,401.395 1755.4019,400.7575 C1752.289,400.5341 1749.1791,400.4226 1746.0692,400.4226 Z" style="stroke:#000000;stroke-width:0.1;"/>
            <!-- Block Reference: chair_015 / entities: 8 -->
            <g>
                <!-- Arc -->
                <path d="M2788.5548,4016.9778 A664.5833,664.5833 0 0,1 2769.1657,4106.5705" style="stroke:#000000;stroke-width:0.1;"/>
                <!-- Arc -->
                <path d="M2802.8553,4020.0727 A664.5833,664.5833 0 0,1 2783.4662,4109.6653" style="stroke:#000000;stroke-width:0.1;"/>
                <!-- Polyline -->
                <path d="M2851.7307,3935.1001 A2.75965,2.75965 0 0 1 2792.8353,4207.2429" style="stroke:#000000;stroke-width:0.1;"/>
                <!-- Polyline -->
                <path d="M2788.5548,4016.9778 L2802.8553,4020.0727 A2.75,2.75 0 0 0 2810.2108,3919.9708 A0.0416667,0.0416667 0 0 1 2821.4404,3909.5888 L2859.0629,3915.4947 A0.0625,0.0625 0 0 1 2872.2647,3930.991 A2.84167,2.84167 0 0 1 2809.833,4219.4742 A0.0625,0.0625 0 0 1 2791.4053,4228.1256 L2754.7074,4217.9474 A0.0416667,0.0416667 0 0 1 2748.7751,4203.8515 A2.75,2.75 0 0 0 2783.4662,4109.6653 L2769.1657,4106.5705 A2.65833,2.65833 0 0 1 2738.169,4191.4398 A0.275,0.275 0 0 1 2669.2488,4231.9982 L2443.7682,4210.6319 L2434.074,4209.7691 A0.366667,0.366667 0 0 1 2350.5438,4117.1343 A2.93333,2.93333 0 0 1 2411.7585,3834.2746 A0.366667,0.366667 0 0 1 2526.1156,3784.4653 L2535.2991,3787.6879 L2749.4381,3861.4614 A0.275,0.275 0 0 1 2795.4219,3926.8866 A2.65833,2.65833 0 0 1 2788.5548,4016.9778 Z" style="stroke:#000000;stroke-width:0.1;"/>
                <!-- Circle -->
                <!-- Circle -->
                <!-- Circle -->
                <!-- Circle -->
            </g>
            <!-- Block Reference: chair_015 / entities: 8 -->
            <g>
                <!-- Arc -->
                <path d="M2650.1599,4617.6789 A664.5833,664.5833 0 0,1 2622.0879,4704.9414" style="stroke:#000000;stroke-width:0.1;"/>
                <!-- Arc -->
                <path d="M2664.0886,4622.1597 A664.5833,664.5833 0 0,1 2636.0165,4709.4222" style="stroke:#000000;stroke-width:0.1;"/>
                <!-- Polyline -->
                <path d="M2721.0526,4542.3834 A2.75965,2.75965 0 0 1 2635.7821,4807.4482" style="stroke:#000000;stroke-width:0.1;"/>
                <!-- Polyline -->
                <path d="M2650.1599,4617.6789 L2664.0886,4622.1597 A2.75,2.75 0 0 0 2681.2143,4523.2597 A0.0416667,0.0416667 0 0 1 2693.4069,4514.0278 L2730.27,4523.5906 A0.0625,0.0625 0 0 1 2741.8903,4540.3056 A2.84167,2.84167 0 0 1 2651.4999,4821.2858 A0.0625,0.0625 0 0 1 2632.3134,4828.0904 L2596.789,4814.3664 A0.0416667,0.0416667 0 0 1 2592.2661,4799.7571 A2.75,2.75 0 0 0 2636.0165,4709.4222 L2622.0879,4704.9414 A2.65833,2.65833 0 0 1 2582.9267,4786.3662 A0.275,0.275 0 0 1 2510.3651,4819.9784 L2288.0618,4776.6275 L2278.4988,4774.8192 A0.366667,0.366667 0 0 1 2204.4445,4674.4475 A2.93333,2.93333 0 0 1 2293.0728,4398.9446 A0.366667,0.366667 0 0 1 2411.7592,4360.577 L2420.5828,4364.6836 L2626.4653,4459.0786 A0.275,0.275 0 0 1 2665.8191,4528.6936 A2.65833,2.65833 0 0 1 2650.1599,4617.6789 Z" style="stroke:#000000;stroke-width:0.1;"/>
                <!-- Circle -->
                <!-- Circle -->
                <!-- Circle -->
                <!-- Circle -->
            </g>
            <!-- Block Reference: chair_015 / entities: 8 -->
            <g>
                <!-- Arc -->
                <path d="M2875.308,2743.3328 A664.5833,664.5833 0 0,1 2875.2843,2834.9994" style="stroke:#000000;stroke-width:0.1;"/>
                <!-- Arc -->
                <path d="M2889.9396,2743.3365 A664.5833,664.5833 0 0,1 2889.9159,2835.0032" style="stroke:#000000;stroke-width:0.1;"/>
                <!-- Polyline -->
                <path d="M2919.7601,2649.9562 A2.75965,2.75965 0 0 1 2919.6882,2928.3989" style="stroke:#000000;stroke-width:0.1;"/>
                <!-- Polyline -->
                <path d="M2875.308,2743.3328 L2889.9396,2743.3365 A2.75,2.75 0 0 0 2875.981,2643.9401 A0.0416667,0.0416667 0 0 1 2884.7638,2631.42 L2922.7849,2629.2443 A0.0625,0.0625 0 0 1 2938.9625,2641.6018 A2.84167,2.84167 0 0 1 2938.8863,2936.7632 A0.0625,0.0625 0 0 1 2922.7023,2949.1124 L2884.6824,2946.917 A0.0416667,0.0416667 0 0 1 2875.9061,2934.3924 A2.75,2.75 0 0 0 2889.9159,2835.0032 L2875.2843,2834.9994 A2.65833,2.65833 0 0 1 2862.9172,2924.5016 A0.275,0.275 0 0 1 2804.1212,2978.705 L2579.216,3005.4572 L2569.5584,3006.6619 A0.366667,0.366667 0 0 1 2468.343,2933.7649 A2.93333,2.93333 0 0 1 2468.4177,2644.3573 A0.366667,0.366667 0 0 1 2569.6707,2571.5126 L2579.3277,2572.7222 L2804.2191,2599.5904 A0.275,0.275 0 0 1 2862.987,2653.8242 A2.65833,2.65833 0 0 1 2875.308,2743.3328 Z" style="stroke:#000000;stroke-width:0.1;"/>
                <!-- Circle -->
                <!-- Circle -->
                <!-- Circle -->
                <!-- Circle -->
            </g>
            <!-- Block Reference: chair_015 / entities: 8 -->
            <g>
                <!-- Arc -->
                <path d="M2844.859,3368.6738 A664.5833,664.5833 0 0,1 2835.6594,3459.8777" style="stroke:#000000;stroke-width:0.1;"/>
                <!-- Arc -->
                <path d="M2859.4167,3370.1423 A664.5833,664.5833 0 0,1 2850.2172,3461.3461" style="stroke:#000000;stroke-width:0.1;"/>
                <!-- Polyline -->
                <path d="M2898.435,3280.216 A2.75965,2.75965 0 0 1 2870.4908,3557.253" style="stroke:#000000;stroke-width:0.1;"/>
                <!-- Polyline -->
                <path d="M2844.859,3368.6738 L2859.4167,3370.1423 A2.75,2.75 0 0 0 2855.4781,3269.8477 A0.0416667,0.0416667 0 0 1 2865.4701,3258.2698 L2903.5179,3259.911 A0.0625,0.0625 0 0 1 2918.3773,3273.8258 A2.84167,2.84167 0 0 1 2888.7552,3567.4971 A0.0625,0.0625 0 0 1 2871.4163,3578.1641 L2833.8071,3572.1739 A0.0416667,0.0416667 0 0 1 2826.3286,3558.8337 A2.75,2.75 0 0 0 2850.2172,3461.3461 L2835.6594,3459.8777 A2.65833,2.65833 0 0 1 2814.395,3547.6924 A0.275,0.275 0 0 1 2750.4685,3595.7379 L2524.015,3599.8422 L2514.2853,3600.074 A0.366667,0.366667 0 0 1 2420.8754,3517.4113 A2.93333,2.93333 0 0 1 2449.9201,3229.4648 A0.366667,0.366667 0 0 1 2557.9565,3167.1216 L2567.4439,3169.2919 L2788.5161,3218.5374 A0.275,0.275 0 0 1 2841.5599,3278.3815 A2.65833,2.65833 0 0 1 2844.859,3368.6738 Z" style="stroke:#000000;stroke-width:0.1;"/>
                <!-- Circle -->
                <!-- Circle -->
                <!-- Circle -->
                <!-- Circle -->
            </g>
            <!-- Block Reference: chair_015 / entities: 8 -->
            <g>
                <!-- Arc -->
                <path d="M2663.6542,926.7243 A664.5833,664.5833 0 0,0 2637.0979,838.9886" style="stroke:#000000;stroke-width:0.1;"/>
                <!-- Arc -->
                <path d="M2677.6584,922.4854 A664.5833,664.5833 0 0,0 2651.1021,834.7498" style="stroke:#000000;stroke-width:0.1;"/>
                <!-- Polyline -->
                <path d="M2733.2319,1003.2365 A689.911,689.911 0 0 0 2652.5657,736.7344" style="stroke:#000000;stroke-width:0.1;"/>
                <!-- Polyline -->
                <path d="M2663.6542,926.7243 L2677.6584,922.4854 A687.5,687.5 0 0 1 2693.0684,1021.6672 A10.4167,10.4167 0 0 0 2705.0992,1031.109 L2742.1224,1022.1862 A15.625,15.625 0 0 0 2754.0305,1005.6749 A710.417,710.417 0 0 0 2668.5209,723.1712 A15.625,15.625 0 0 0 2649.4551,716.0353 L2613.6983,729.1418 A10.4167,10.4167 0 0 0 2608.923,743.6706 A687.5,687.5 0 0 1 2651.1021,834.7498 L2637.0979,838.9886 A664.583,664.583 0 0 0 2599.3531,756.8977 A68.75,68.75 0 0 0 2527.3846,722.0337 L2304.3638,761.5273 L2294.7709,763.1696 A91.6667,91.6667 0 0 0 2218.989,862.2435 A733.333,733.333 0 0 0 2302.8317,1139.2403 A91.6667,91.6667 0 0 0 2420.8357,1179.6581 L2429.7291,1175.7049 L2637.2159,1084.8903 A68.75,68.75 0 0 0 2677.7696,1015.9675 A664.583,664.583 0 0 0 2663.6542,926.7243 Z" style="stroke:#000000;stroke-width:0.1;"/>
                <!-- Circle -->
                <!-- Circle -->
                <!-- Circle -->
                <!-- Circle -->
            </g>
            <!-- Block Reference: chair_015 / entities: 8 -->
            <g>
                <!-- Arc -->
                <path d="M2852.9118,2189.2137 A664.5833,664.5833 0 0,0 2845.4905,2097.8479" style="stroke:#000000;stroke-width:0.1;"/>
                <!-- Arc -->
                <path d="M2867.4954,2188.0291 A664.5833,664.5833 0 0,0 2860.074,2096.6634" style="stroke:#000000;stroke-width:0.1;"/>
                <!-- Polyline -->
                <path d="M2904.7547,2278.6983 A689.911,689.911 0 0 0 2882.2119,2001.1695" style="stroke:#000000;stroke-width:0.1;"/>
                <!-- Polyline -->
                <path d="M2852.9118,2189.2137 L2867.4954,2188.0291 A687.5,687.5 0 0 1 2861.604,2288.2279 A10.4167,10.4167 0 0 0 2871.3686,2299.9982 L2909.4412,2299.0985 A15.625,15.625 0 0 0 2924.5688,2285.4757 A710.417,710.417 0 0 0 2900.6723,1991.2832 A15.625,15.625 0 0 0 2883.5445,1980.2804 L2845.8258,1985.537 A10.4167,10.4167 0 0 0 2838.0888,1998.7289 A687.5,687.5 0 0 1 2860.074,2096.6634 L2845.4905,2097.8479 A664.583,664.583 0 0 0 2825.9405,2009.6357 A68.75,68.75 0 0 0 2762.962,1960.3542 L2536.6314,1951.8399 L2526.908,1951.4185 A91.6667,91.6667 0 0 0 2431.9058,2032.2461 A733.333,733.333 0 0 0 2455.3364,2320.7037 A91.6667,91.6667 0 0 0 2562.1379,2385.1394 L2571.6658,2383.1543 L2793.6553,2338.2242 A68.75,68.75 0 0 0 2847.8547,2279.4247 A664.583,664.583 0 0 0 2852.9118,2189.2137 Z" style="stroke:#000000;stroke-width:0.1;"/>
                <!-- Circle -->
                <!-- Circle -->
                <!-- Circle -->
                <!-- Circle -->
            </g>
            <!-- Block Reference: chair_015 / entities: 8 -->
            <g>
                <!-- Arc -->
                <path d="M2772.0951,1568.3697 A664.5833,664.5833 0 0,0 2755.5651,1478.2058" style="stroke:#000000;stroke-width:0.1;"/>
                <!-- Arc -->
                <path d="M2786.4868,1565.7312 A664.5833,664.5833 0 0,0 2769.9568,1475.5673" style="stroke:#000000;stroke-width:0.1;"/>
                <!-- Polyline -->
                <path d="M2832.6352,1652.2152 A689.911,689.911 0 0 0 2782.4243,1378.3371" style="stroke:#000000;stroke-width:0.1;"/>
                <!-- Polyline -->
                <path d="M2772.0951,1568.3697 L2786.4868,1565.7312 A687.5,687.5 0 0 1 2790.6551,1666.0164 A10.4167,10.4167 0 0 0 2801.5489,1676.7502 L2839.3402,1672.0438 A15.625,15.625 0 0 0 2853.0281,1656.9752 A710.417,710.417 0 0 0 2799.8024,1366.6524 A15.625,15.625 0 0 0 2781.6592,1357.4194 L2744.6561,1366.4253 A10.4167,10.4167 0 0 0 2738.2786,1380.3255 A687.5,687.5 0 0 1 2769.9568,1475.5673 L2755.5651,1478.2058 A664.583,664.583 0 0 0 2727.283,1392.3936 A68.75,68.75 0 0 0 2659.6876,1349.6639 L2433.6416,1363.8486 L2423.9249,1364.4027 A91.6667,91.6667 0 0 0 2337.4909,1454.3342 A733.333,733.333 0 0 0 2389.6791,1738.9975 A91.6667,91.6667 0 0 0 2502.3943,1792.4184 L2511.6756,1789.4896 L2728.0525,1722.5635 A68.75,68.75 0 0 0 2776.0937,1658.6338 A664.583,664.583 0 0 0 2772.0951,1568.3697 Z" style="stroke:#000000;stroke-width:0.1;"/>
                <!-- Circle -->
                <!-- Circle -->
                <!-- Circle -->
                <!-- Circle -->
            </g>
            <!-- Block Reference: chair_015 / entities: 8 -->
            <g>
                <!-- Arc -->
                <path d="M703.5837,4016.9778 A664.5833,664.5833 0 0,0 722.9727,4106.5705" style="stroke:#000000;stroke-width:0.1;"/>
                <!-- Arc -->
                <path d="M689.2831,4020.0727 A664.5833,664.5833 0 0,0 708.6722,4109.6653" style="stroke:#000000;stroke-width:0.1;"/>
                <!-- Polyline -->
                <path d="M640.4077,3935.1001 A689.911,689.911 0 0 0 699.3031,4207.2429" style="stroke:#000000;stroke-width:0.1;"/>
                <!-- Polyline -->
                <path d="M703.5837,4016.9778 L689.2831,4020.0727 A687.5,687.5 0 0 1 681.9276,3919.9708 A10.4167,10.4167 0 0 0 670.698,3909.5888 L633.0755,3915.4947 A15.625,15.625 0 0 0 619.8737,3930.991 A710.417,710.417 0 0 0 682.3054,4219.4742 A15.625,15.625 0 0 0 700.7331,4228.1256 L737.4311,4217.9474 A10.4167,10.4167 0 0 0 743.3633,4203.8515 A687.5,687.5 0 0 1 708.6722,4109.6653 L722.9727,4106.5705 A664.583,664.583 0 0 0 753.9695,4191.4398 A68.75,68.75 0 0 0 822.8896,4231.9982 L1048.3702,4210.6319 L1058.0644,4209.7691 A91.6667,91.6667 0 0 0 1141.5946,4117.1343 A733.333,733.333 0 0 0 1080.3799,3834.2746 A91.6667,91.6667 0 0 0 966.0228,3784.4653 L956.8393,3787.6879 L742.7003,3861.4614 A68.75,68.75 0 0 0 696.7165,3926.8866 A664.583,664.583 0 0 0 703.5837,4016.9778 Z" style="stroke:#000000;stroke-width:0.1;"/>
                <!-- Circle -->
                <!-- Circle -->
                <!-- Circle -->
                <!-- Circle -->
            </g>
            <!-- Block Reference: chair_015 / entities: 8 -->
            <g>
                <!-- Arc -->
                <path d="M841.9785,4617.6789 A664.5833,664.5833 0 0,0 870.0505,4704.9414" style="stroke:#000000;stroke-width:0.1;"/>
                <!-- Arc -->
                <path d="M828.0499,4622.1597 A664.5833,664.5833 0 0,0 856.1219,4709.4222" style="stroke:#000000;stroke-width:0.1;"/>
                <!-- Polyline -->
                <path d="M771.0859,4542.3834 A689.911,689.911 0 0 0 856.3563,4807.4482" style="stroke:#000000;stroke-width:0.1;"/>
                <!-- Polyline -->
                <path d="M841.9785,4617.6789 L828.0499,4622.1597 A687.5,687.5 0 0 1 810.9241,4523.2597 A10.4167,10.4167 0 0 0 798.7315,4514.0278 L761.8684,4523.5906 A15.625,15.625 0 0 0 750.2481,4540.3056 A710.417,710.417 0 0 0 840.6385,4821.2858 A15.625,15.625 0 0 0 859.825,4828.0904 L895.3494,4814.3664 A10.4167,10.4167 0 0 0 899.8723,4799.7571 A687.5,687.5 0 0 1 856.1219,4709.4222 L870.0505,4704.9414 A664.583,664.583 0 0 0 909.2117,4786.3662 A68.75,68.75 0 0 0 981.7733,4819.9784 L1204.0766,4776.6275 L1213.6396,4774.8192 A91.6667,91.6667 0 0 0 1287.6939,4674.4475 A733.333,733.333 0 0 0 1199.0656,4398.9446 A91.6667,91.6667 0 0 0 1080.3793,4360.577 L1071.5556,4364.6836 L865.6731,4459.0786 A68.75,68.75 0 0 0 826.3193,4528.6936 A664.583,664.583 0 0 0 841.9785,4617.6789 Z" style="stroke:#000000;stroke-width:0.1;"/>
                <!-- Circle -->
                <!-- Circle -->
                <!-- Circle -->
                <!-- Circle -->
            </g>
            <!-- Block Reference: chair_015 / entities: 8 -->
            <g>
                <!-- Arc -->
                <path d="M616.8304,2743.3328 A664.5833,664.5833 0 0,0 616.8541,2834.9994" style="stroke:#000000;stroke-width:0.1;"/>
                <!-- Arc -->
                <path d="M602.1988,2743.3365 A664.5833,664.5833 0 0,0 602.2225,2835.0032" style="stroke:#000000;stroke-width:0.1;"/>
                <!-- Polyline -->
                <path d="M572.3783,2649.9562 A689.911,689.911 0 0 0 572.4502,2928.3989" style="stroke:#000000;stroke-width:0.1;"/>
                <!-- Polyline -->
                <path d="M616.8304,2743.3328 L602.1988,2743.3365 A687.5,687.5 0 0 1 616.1574,2643.9401 A10.4167,10.4167 0 0 0 607.3746,2631.42 L569.3536,2629.2443 A15.625,15.625 0 0 0 553.1759,2641.6018 A710.417,710.417 0 0 0 553.2521,2936.7632 A15.625,15.625 0 0 0 569.4361,2949.1124 L607.456,2946.917 A10.4167,10.4167 0 0 0 616.2323,2934.3924 A687.5,687.5 0 0 1 602.2225,2835.0032 L616.8541,2834.9994 A664.583,664.583 0 0 0 629.2213,2924.5016 A68.75,68.75 0 0 0 688.0172,2978.705 L912.9224,3005.4572 L922.58,3006.6619 A91.6667,91.6667 0 0 0 1023.7954,2933.7649 A733.333,733.333 0 0 0 1023.7208,2644.3573 A91.6667,91.6667 0 0 0 922.4678,2571.5126 L912.8107,2572.7222 L687.9194,2599.5904 A68.75,68.75 0 0 0 629.1514,2653.8242 A664.583,664.583 0 0 0 616.8304,2743.3328 Z" style="stroke:#000000;stroke-width:0.1;"/>
                <!-- Circle -->
                <!-- Circle -->
                <!-- Circle -->
                <!-- Circle -->
            </g>
            <!-- Block Reference: chair_015 / entities: 8 -->
            <g>
                <!-- Arc -->
                <path d="M647.2794,3368.6738 A664.5833,664.5833 0 0,0 656.479,3459.8777" style="stroke:#000000;stroke-width:0.1;"/>
                <!-- Arc -->
                <path d="M632.7217,3370.1423 A664.5833,664.5833 0 0,0 641.9213,3461.3461" style="stroke:#000000;stroke-width:0.1;"/>
                <!-- Polyline -->
                <path d="M593.7034,3280.216 A689.911,689.911 0 0 0 621.6476,3557.253" style="stroke:#000000;stroke-width:0.1;"/>
                <!-- Polyline -->
                <path d="M647.2794,3368.6738 L632.7217,3370.1423 A687.5,687.5 0 0 1 636.6603,3269.8477 A10.4167,10.4167 0 0 0 626.6683,3258.2698 L588.6205,3259.911 A15.625,15.625 0 0 0 573.7611,3273.8258 A710.417,710.417 0 0 0 603.3832,3567.4971 A15.625,15.625 0 0 0 620.7222,3578.1641 L658.3313,3572.1739 A10.4167,10.4167 0 0 0 665.8098,3558.8337 A687.5,687.5 0 0 1 641.9213,3461.3461 L656.479,3459.8777 A664.583,664.583 0 0 0 677.7434,3547.6924 A68.75,68.75 0 0 0 741.6699,3595.7379 L968.1234,3599.8422 L977.8531,3600.074 A91.6667,91.6667 0 0 0 1071.263,3517.4113 A733.333,733.333 0 0 0 1042.2183,3229.4648 A91.6667,91.6667 0 0 0 934.1819,3167.1216 L924.6945,3169.2919 L703.6223,3218.5374 A68.75,68.75 0 0 0 650.5785,3278.3815 A664.583,664.583 0 0 0 647.2794,3368.6738 Z" style="stroke:#000000;stroke-width:0.1;"/>
                <!-- Circle -->
                <!-- Circle -->
                <!-- Circle -->
                <!-- Circle -->
            </g>
            <!-- Block Reference: chair_015 / entities: 8 -->
            <g>
                <!-- Arc -->
                <path d="M828.4842,926.7243 A664.5833,664.5833 0 0,1 855.0405,838.9886" style="stroke:#000000;stroke-width:0.1;"/>
                <!-- Arc -->
                <path d="M814.4801,922.4854 A664.5833,664.5833 0 0,1 841.0363,834.7498" style="stroke:#000000;stroke-width:0.1;"/>
                <!-- Polyline -->
                <path d="M758.9065,1003.2365 A2.75965,2.75965 0 0 1 839.5727,736.7344" style="stroke:#000000;stroke-width:0.1;"/>
                <!-- Polyline -->
                <path d="M828.4842,926.7243 L814.4801,922.4854 A2.75,2.75 0 0 0 799.07,1021.6672 A0.0416667,0.0416667 0 0 1 787.0392,1031.109 L750.016,1022.1862 A0.0625,0.0625 0 0 1 738.1079,1005.6749 A2.84167,2.84167 0 0 1 823.6175,723.1712 A0.0625,0.0625 0 0 1 842.6833,716.0353 L878.4401,729.1418 A0.0416667,0.0416667 0 0 1 883.2154,743.6706 A2.75,2.75 0 0 0 841.0363,834.7498 L855.0405,838.9886 A2.65833,2.65833 0 0 1 892.7853,756.8977 A0.275,0.275 0 0 1 964.7538,722.0337 L1187.7747,761.5273 L1197.3676,763.1696 A0.366667,0.366667 0 0 1 1273.1494,862.2435 A2.93333,2.93333 0 0 1 1189.3067,1139.2403 A0.366667,0.366667 0 0 1 1071.3028,1179.6581 L1062.4093,1175.7049 L854.9226,1084.8903 A0.275,0.275 0 0 1 814.3688,1015.9675 A2.65833,2.65833 0 0 1 828.4842,926.7243 Z" style="stroke:#000000;stroke-width:0.1;"/>
                <!-- Circle -->
                <!-- Circle -->
                <!-- Circle -->
                <!-- Circle -->
            </g>
            <!-- Block Reference: chair_015 / entities: 8 -->
            <g>
                <!-- Arc -->
                <path d="M639.2266,2189.2137 A664.5833,664.5833 0 0,1 646.648,2097.8479" style="stroke:#000000;stroke-width:0.1;"/>
                <!-- Arc -->
                <path d="M624.643,2188.0291 A664.5833,664.5833 0 0,1 632.0644,2096.6634" style="stroke:#000000;stroke-width:0.1;"/>
                <!-- Polyline -->
                <path d="M587.3837,2278.6983 A2.75965,2.75965 0 0 1 609.9265,2001.1695" style="stroke:#000000;stroke-width:0.1;"/>
                <!-- Polyline -->
                <path d="M639.2266,2189.2137 L624.643,2188.0291 A2.75,2.75 0 0 0 630.5344,2288.2279 A0.0416667,0.0416667 0 0 1 620.7699,2299.9982 L582.6973,2299.0985 A0.0625,0.0625 0 0 1 567.5697,2285.4757 A2.84167,2.84167 0 0 1 591.4661,1991.2832 A0.0625,0.0625 0 0 1 608.5939,1980.2804 L646.3126,1985.537 A0.0416667,0.0416667 0 0 1 654.0496,1998.7289 A2.75,2.75 0 0 0 632.0644,2096.6634 L646.648,2097.8479 A2.65833,2.65833 0 0 1 666.1979,2009.6357 A0.275,0.275 0 0 1 729.1765,1960.3542 L955.5071,1951.8399 L965.2304,1951.4185 A0.366667,0.366667 0 0 1 1060.2326,2032.2461 A2.93333,2.93333 0 0 1 1036.8021,2320.7037 A0.366667,0.366667 0 0 1 930.0005,2385.1394 L920.4726,2383.1543 L698.4832,2338.2242 A0.275,0.275 0 0 1 644.2837,2279.4247 A2.65833,2.65833 0 0 1 639.2266,2189.2137 Z" style="stroke:#000000;stroke-width:0.1;"/>
                <!-- Circle -->
                <!-- Circle -->
                <!-- Circle -->
                <!-- Circle -->
            </g>
            <!-- Block Reference: chair_015 / entities: 8 -->
            <g>
                <!-- Arc -->
                <path d="M720.0433,1568.3697 A664.5833,664.5833 0 0,1 736.5734,1478.2058" style="stroke:#000000;stroke-width:0.1;"/>
                <!-- Arc -->
                <path d="M705.6516,1565.7312 A664.5833,664.5833 0 0,1 722.1816,1475.5673" style="stroke:#000000;stroke-width:0.1;"/>
                <!-- Polyline -->
                <path d="M659.5032,1652.2152 A2.75965,2.75965 0 0 1 709.7141,1378.3371" style="stroke:#000000;stroke-width:0.1;"/>
                <!-- Polyline -->
                <path d="M720.0433,1568.3697 L705.6516,1565.7312 A2.75,2.75 0 0 0 701.4833,1666.0164 A0.0416667,0.0416667 0 0 1 690.5895,1676.7502 L652.7982,1672.0438 A0.0625,0.0625 0 0 1 639.1103,1656.9752 A2.84167,2.84167 0 0 1 692.336,1366.6524 A0.0625,0.0625 0 0 1 710.4793,1357.4194 L747.4823,1366.4253 A0.0416667,0.0416667 0 0 1 753.8599,1380.3255 A2.75,2.75 0 0 0 722.1816,1475.5673 L736.5734,1478.2058 A2.65833,2.65833 0 0 1 764.8554,1392.3936 A0.275,0.275 0 0 1 832.4508,1349.6639 L1058.4969,1363.8486 L1068.2135,1364.4027 A0.366667,0.366667 0 0 1 1154.6476,1454.3342 A2.93333,2.93333 0 0 1 1102.4594,1738.9975 A0.366667,0.366667 0 0 1 989.7441,1792.4184 L980.4628,1789.4896 L764.086,1722.5635 A0.275,0.275 0 0 1 716.0447,1658.6338 A2.65833,2.65833 0 0 1 720.0433,1568.3697 Z" style="stroke:#000000;stroke-width:0.1;"/>
                <!-- Circle -->
                <!-- Circle -->
                <!-- Circle -->
                <!-- Circle -->
            </g>
        </g>
    </g>
</svg>

