<?xml version="1.0" encoding="UTF-8"?>
<!-- 2 Seater Sofa 01 - Top-down plan view -->
<svg width="1504mm" height="690mm" viewBox="0 0 1504 690" version="1.1" xmlns="http://www.w3.org/2000/svg"
     style="stroke-linecap:round;stroke-linejoin:round;">

    <path id="auto-fill" d="
        M 175,0
        L 1329,0
        Q 1504,0 1504,175
        L 1504,556
        Q 1504,614 1470,652
        L 1404,690
        L 1316,690
        L 1316,568
        Q 1316,530 1289,512
        Q 1262,495 1222,495
        L 282,495
        Q 242,495 215,512
        Q 188,530 188,568
        L 188,690
        L 100,690
        L 34,652
        Q 0,614 0,556
        L 0,175
        Q 0,0 175,0
        Z
    " style="stroke-width:6;"/>

    <path fill="none" d="
        M 175,0
        L 1329,0
        Q 1504,0 1504,175
        L 1504,556
        Q 1504,614 1470,652
        L 1404,690
        L 1316,690
        L 1316,568
        Q 1316,530 1289,512
        Q 1262,495 1222,495
        L 282,495
        Q 242,495 215,512
        Q 188,530 188,568
        L 188,690
        L 100,690
        L 34,652
        Q 0,614 0,556
        L 0,175
        Q 0,0 175,0
        Z
    " style="stroke-width:6;"/>

    <path id="auto-fill" fill="inherit" stroke="none" d="
        M 282,495
        L 1222,495
        Q 1262,495 1289,512
        Q 1316,530 1316,568
        Q 1316,582 1289,617
        Q 1262,652 1222,670
        L 282,670
        Q 242,652 215,617
        Q 188,582 188,568
        Q 188,530 215,512
        Q 242,495 282,495
        Z
    "/>

    <path fill="none" d="
        M 140,177
        L 140,477
        Q 140,504 167,518
        Q 194,532 232,532
        L 1272,532
        Q 1310,532 1337,518
        Q 1364,504 1364,477
        L 1364,177
    " style="stroke-width:5;"/>

    <path fill="none" d="
        M 140,177 Q 151,150 180,141 L 1324,141 Q 1353,150 1364,177
    " style="stroke-width:4;"/>

    <line fill="none" x1="140" y1="248" x2="1364" y2="248" style="stroke-width:4;"/>

    <!-- Single centre divider (2 seats) -->
    <line fill="none" x1="752" y1="177" x2="752" y2="532" style="stroke-width:5;"/>

    <path fill="none" d="
        M 282,495
        L 1222,495
        Q 1262,495 1289,512
        Q 1316,530 1316,568
        Q 1316,582 1289,617
        Q 1262,652 1222,670
        L 282,670
        Q 242,652 215,617
        Q 188,582 188,568
        Q 188,530 215,512
        Q 242,495 282,495
        Z
    " style="stroke-width:4;"/>

    <rect fill="none" x="94" y="620" width="94" height="66" rx="14" style="stroke-width:4;"/>
    <rect fill="none" x="1316" y="620" width="94" height="66" rx="14" style="stroke-width:4;"/>
</svg>
