<?xml version="1.0" encoding="UTF-8"?>
<!-- 2026-07-14 12:55:42 Generated by QCAD 3.32.6 SVG Exporter -->
<svg width="1400in" height="810in" viewBox="5.9103 -807.9803 1400 810" version="1.1" xmlns="http://www.w3.org/2000/svg" style="stroke-linecap:round;stroke-linejoin:round;fill:none">
    <g transform="scale(1,-1)">
        <!-- Block Reference: A$C514E53C8 / entities: 66 -->
        <g>
            <!-- Line -->
            <path d="M75.9103,67.9803 L35.9103,67.9803 " style="stroke:#000000;stroke-width:0.1;"/>
            <!-- Line -->
            <path d="M35.9103,67.9803 L35.9103,267.9803 " style="stroke:#000000;stroke-width:0.1;"/>
            <!-- Line -->
            <path d="M35.9103,267.9803 L105.9103,267.9803 " style="stroke:#000000;stroke-width:0.1;"/>
            <!-- Line -->
            <path d="M105.9103,267.9803 L105.9103,97.9803 " style="stroke:#000000;stroke-width:0.1;"/>
            <!-- Line -->
            <path d="M35.9103,607.9803 L105.9103,607.9803 " style="stroke:#000000;stroke-width:0.1;"/>
            <!-- Line -->
            <path d="M105.9103,607.9803 L105.9103,697.9803 " style="stroke:#000000;stroke-width:0.1;"/>
            <!-- Line -->
            <path d="M35.9103,607.9803 L35.9103,777.9803 " style="stroke:#000000;stroke-width:0.1;"/>
            <!-- Line -->
            <path d="M35.9103,777.9803 L105.9103,777.9803 " style="stroke:#000000;stroke-width:0.1;"/>
            <!-- Line -->
            <path d="M105.9103,777.9803 L105.9103,767.9803 " style="stroke:#000000;stroke-width:0.1;"/>
            <!-- Arc -->
            <path d="M105.9103,767.9803 A30,30 0 0,1 135.9103,737.9803" style="stroke:#000000;stroke-width:0.1;"/>
            <!-- Arc -->
            <path d="M135.9103,807.9803 A30,30 0 0,1 105.9103,777.9803" style="stroke:#000000;stroke-width:0.1;"/>
            <!-- Line -->
            <path d="M105.9103,698.3293 L105.9103,777.9803 " style="stroke:#000000;stroke-width:0.1;"/>
            <!-- Line -->
            <path d="M135.9103,577.9803 L135.9103,297.9803 " style="stroke:#000000;stroke-width:0.1;"/>
            <!-- Line -->
            <path d="M5.9103,577.9803 L5.9103,297.9803 " style="stroke:#000000;stroke-width:0.1;"/>
            <!-- Arc -->
            <path d="M135.9103,577.9803 A30,30 0 0,1 105.9103,607.9803" style="stroke:#000000;stroke-width:0.1;"/>
            <!-- Arc -->
            <path d="M35.9103,607.9803 A30,30 0 0,1 5.9103,577.9803" style="stroke:#000000;stroke-width:0.1;"/>
            <!-- Arc -->
            <path d="M105.9103,267.9803 A30,30 0 0,1 135.9103,297.9803" style="stroke:#000000;stroke-width:0.1;"/>
            <!-- Arc -->
            <path d="M5.9103,297.9803 A30,30 0 0,1 35.9103,267.9803" style="stroke:#000000;stroke-width:0.1;"/>
            <!-- Line -->
            <path d="M75.9103,67.9803 L106.0125,67.9803 " style="stroke:#000000;stroke-width:0.1;"/>
            <!-- Line -->
            <path d="M105.9103,97.9803 L105.9103,138.9402 " style="stroke:#000000;stroke-width:0.1;"/>
            <!-- Line -->
            <path d="M105.9103,97.9803 L105.9103,77.9803 " style="stroke:#000000;stroke-width:0.1;"/>
            <!-- Arc -->
            <path d="M105.9103,77.9803 A80,80 0 0,1 185.9103,-2.0197" style="stroke:#000000;stroke-width:0.1;"/>
            <!-- Line -->
            <path d="M705.9103,182.9803 L705.9103,737.9803 " style="stroke:#000000;stroke-width:0.1;"/>
            <!-- Line -->
            <path d="M705.9103,503.4694 L705.9103,147.9803 " style="stroke:#000000;stroke-width:0.1;"/>
            <!-- Line -->
            <path d="M185.9103,-2.0197 L625.9103,-2.0197 " style="stroke:#000000;stroke-width:0.1;"/>
            <!-- Line -->
            <path d="M939.9026,-2.0197 L939.9026,-2.0197 " style="stroke:#000000;stroke-width:0.1;"/>
            <!-- Line -->
            <path d="M705.9103,182.9803 L705.9103,77.9803 " style="stroke:#000000;stroke-width:0.1;"/>
            <!-- Arc -->
            <path d="M625.9103,-2.0197 A80,80 0 0,1 705.9103,77.9803" style="stroke:#000000;stroke-width:0.1;"/>
            <!-- Line -->
            <path d="M137.4637,543.4694 L665.9103,543.4694 " style="stroke:#000000;stroke-width:0.1;"/>
            <!-- Line -->
            <path d="M705.9103,583.4694 L705.9103,697.9803 " style="stroke:#000000;stroke-width:0.1;"/>
            <!-- Arc -->
            <path d="M665.9103,543.4694 A40,40 0 0,1 705.9103,583.4694" style="stroke:#000000;stroke-width:0.1;"/>
            <!-- Arc -->
            <path d="M745.9103,737.9803 A40,40 0 0,1 705.9103,697.9803" style="stroke:#000000;stroke-width:0.1;"/>
            <!-- Line -->
            <path d="M665.9103,737.9803 L145.9103,737.9803 " style="stroke:#000000;stroke-width:0.1;"/>
            <!-- Arc -->
            <path d="M705.9103,697.9803 A40,40 0 0,1 665.9103,737.9803" style="stroke:#000000;stroke-width:0.1;"/>
            <!-- Line -->
            <path d="M664.9525,739.0467 L753.505,739.0467 " style="stroke:#000000;stroke-width:0.1;"/>
            <!-- Line -->
            <path d="M705.949,468.042 L705.949,614.8918 " style="stroke:#000000;stroke-width:0.1;"/>
            <!-- Arc -->
            <path d="M145.9103,737.9803 A40,40 0 0,1 105.9103,697.9803" style="stroke:#000000;stroke-width:0.1;"/>
            <!-- Line -->
            <path d="M745.9103,543.4694 L1265.9103,543.4694 " style="stroke:#000000;stroke-width:0.1;"/>
            <!-- Line -->
            <path d="M1305.9103,182.9803 L1305.9103,77.9803 " style="stroke:#000000;stroke-width:0.1;"/>
            <!-- Line -->
            <path d="M785.9103,-2.0197 L1225.9103,-2.0197 " style="stroke:#000000;stroke-width:0.1;"/>
            <!-- Arc -->
            <path d="M705.9103,77.9803 A80,80 0 0,1 785.9103,-2.0197" style="stroke:#000000;stroke-width:0.1;"/>
            <!-- Line -->
            <path d="M1305.9103,182.9803 L1305.9103,77.9803 " style="stroke:#000000;stroke-width:0.1;"/>
            <!-- Arc -->
            <path d="M705.9103,583.4694 A40,40 0 0,1 745.9103,543.4694" style="stroke:#000000;stroke-width:0.1;"/>
            <!-- Arc -->
            <path d="M1225.9103,-2.0197 A80,80 0 0,1 1305.9103,77.9803" style="stroke:#000000;stroke-width:0.1;"/>
            <!-- Line -->
            <path d="M1305.9103,97.9803 L1305.9103,77.9803 " style="stroke:#000000;stroke-width:0.1;"/>
            <!-- Line -->
            <path d="M1305.9103,97.9803 L1305.9103,138.9402 " style="stroke:#000000;stroke-width:0.1;"/>
            <!-- Line -->
            <path d="M1335.9103,67.9803 L1305.808,67.9803 " style="stroke:#000000;stroke-width:0.1;"/>
            <!-- Arc -->
            <path d="M1375.9103,267.9803 A30,30 0 0,1 1405.9103,297.9803" style="stroke:#000000;stroke-width:0.1;"/>
            <!-- Arc -->
            <path d="M1275.9103,297.9803 A30,30 0 0,1 1305.9103,267.9803" style="stroke:#000000;stroke-width:0.1;"/>
            <!-- Arc -->
            <path d="M1405.9103,577.9803 A30,30 0 0,1 1375.9103,607.9803" style="stroke:#000000;stroke-width:0.1;"/>
            <!-- Arc -->
            <path d="M1305.9103,607.9803 A30,30 0 0,1 1275.9103,577.9803" style="stroke:#000000;stroke-width:0.1;"/>
            <!-- Line -->
            <path d="M1405.9103,577.9803 L1405.9103,297.9803 " style="stroke:#000000;stroke-width:0.1;"/>
            <!-- Line -->
            <path d="M1275.9103,577.9803 L1275.9103,297.9803 " style="stroke:#000000;stroke-width:0.1;"/>
            <!-- Line -->
            <path d="M1305.9103,611.5543 L1305.9103,709.0467 " style="stroke:#000000;stroke-width:0.1;"/>
            <!-- Arc -->
            <path d="M1305.9103,777.9803 A30,30 0 0,1 1275.9103,807.9803" style="stroke:#000000;stroke-width:0.1;"/>
            <!-- Line -->
            <path d="M1305.9103,777.9803 L1305.9103,769.0467 " style="stroke:#000000;stroke-width:0.1;"/>
            <!-- Line -->
            <path d="M1375.9103,777.9803 L1305.9103,777.9803 " style="stroke:#000000;stroke-width:0.1;"/>
            <!-- Line -->
            <path d="M1375.9103,607.9803 L1375.9103,777.9803 " style="stroke:#000000;stroke-width:0.1;"/>
            <!-- Line -->
            <path d="M1305.9103,607.9803 L1305.9103,779.0967 " style="stroke:#000000;stroke-width:0.1;"/>
            <!-- Line -->
            <path d="M1375.9103,607.9803 L1305.9103,607.9803 " style="stroke:#000000;stroke-width:0.1;"/>
            <!-- Line -->
            <path d="M1305.9103,267.9803 L1305.9103,97.9803 " style="stroke:#000000;stroke-width:0.1;"/>
            <!-- Line -->
            <path d="M1375.9103,267.9803 L1305.9103,267.9803 " style="stroke:#000000;stroke-width:0.1;"/>
            <!-- Line -->
            <path d="M1375.9103,67.9803 L1375.9103,267.9803 " style="stroke:#000000;stroke-width:0.1;"/>
            <!-- Line -->
            <path d="M1335.9103,67.9803 L1375.9103,67.9803 " style="stroke:#000000;stroke-width:0.1;"/>
            <!-- Line -->
            <path d="M135.9103,807.9803 L1275.9103,807.9803 " style="stroke:#000000;stroke-width:0.1;"/>
            <!-- Line -->
            <path d="M753.505,739.0467 L1305.9103,739.0467 " style="stroke:#000000;stroke-width:0.1;"/>
        </g>
    </g>
</svg>
