<?xml version="1.0" encoding="UTF-8"?>
<!-- 2026-07-14 12:50:55 Generated by QCAD 3.32.6 SVG Exporter -->
<svg width="1564.7254in" height="796.0733in" viewBox="2.3399 -802.9694 1564.7254 796.0733" version="1.1" xmlns="http://www.w3.org/2000/svg" style="stroke-linecap:round;stroke-linejoin:round;fill:none">
    <g transform="scale(1,-1)">
        <!-- Block Reference: A$C54DB1D4B / entities: 72 -->
        <g>
            <!-- Line -->
            <path d="M1348.9352,532.9694 L808.4994,532.9694 " style="stroke:#000000;stroke-width:0.1;"/>
            <!-- Line -->
            <path d="M1432.0653,802.9694 L808.4994,802.9694 " style="stroke:#000000;stroke-width:0.1;"/>
            <!-- Line -->
            <path d="M1432.0653,775.9694 L834.1366,775.9694 " style="stroke:#000000;stroke-width:0.1;"/>
            <!-- Arc -->
            <path d="M1422.6605,415.283 A1185.6404,1185.6404 0 0,1 889.4065,511.0719" style="stroke:#000000;stroke-width:0.1;"/>
            <!-- Arc -->
            <path d="M1422.6605,415.283 A656.1856,656.1856 0 0,1 889.4065,511.0719" style="stroke:#000000;stroke-width:0.1;"/>
            <!-- Arc -->
            <path d="M900.9499,423.2111 A454.3514,454.3514 0 0,1 1380.3269,350.3043" style="stroke:#000000;stroke-width:0.1;"/>
            <!-- Line -->
            <path d="M853.4994,8.2974 L1386.0672,8.2974 " style="stroke:#000000;stroke-width:0.1;"/>
            <!-- Line -->
            <path d="M853.4994,35.2974 L1386.0672,35.2974 " style="stroke:#000000;stroke-width:0.1;"/>
            <!-- Line -->
            <path d="M2.3399,442.0521 L187.2168,442.0521 " style="stroke:#000000;stroke-width:0.1;"/>
            <!-- Arc -->
            <path d="M137.3399,802.0521 A135,135 0 0,1 2.3399,667.0521" style="stroke:#000000;stroke-width:0.1;"/>
            <!-- Arc -->
            <path d="M137.3399,775.0521 A108,108 0 0,1 29.3399,667.0521" style="stroke:#000000;stroke-width:0.1;"/>
            <!-- Line -->
            <path d="M220.47,532.0521 L6.4594,700.1476 " style="stroke:#000000;stroke-width:0.1;"/>
            <!-- Line -->
            <path d="M101.9728,72.0924 L2.3399,75.746 " style="stroke:#000000;stroke-width:0.1;"/>
            <!-- Line -->
            <path d="M2.3399,75.746 L2.3399,667.0521 " style="stroke:#000000;stroke-width:0.1;"/>
            <!-- Line -->
            <path d="M29.3399,667.0521 L49.6979,101.09 " style="stroke:#000000;stroke-width:0.1;"/>
            <!-- Line -->
            <path d="M200.3399,52.3801 L200.3399,775.0521 " style="stroke:#000000;stroke-width:0.1;"/>
            <!-- Line -->
            <path d="M808.4994,802.9694 L808.4994,53.2974 " style="stroke:#000000;stroke-width:0.1;"/>
            <!-- Line -->
            <path d="M780.1366,775.0521 L780.1366,52.3801 " style="stroke:#000000;stroke-width:0.1;"/>
            <!-- Line -->
            <path d="M834.1366,775.9694 L834.1366,52.3801 " style="stroke:#000000;stroke-width:0.1;"/>
            <!-- Line -->
            <path d="M807.1366,802.0521 L807.1366,52.3801 " style="stroke:#000000;stroke-width:0.1;"/>
            <!-- Line -->
            <path d="M807.5933,51.4627 L807.5933,801.1348 " style="stroke:#000000;stroke-width:0.1;"/>
            <!-- Line -->
            <path d="M807.1366,802.0521 L807.1366,52.3801 " style="stroke:#000000;stroke-width:0.1;"/>
            <!-- Line -->
            <path d="M780.5933,51.4627 L780.5933,775.0521 " style="stroke:#000000;stroke-width:0.1;"/>
            <!-- Line -->
            <path d="M762.1366,34.3801 L218.3399,34.3801 " style="stroke:#000000;stroke-width:0.1;"/>
            <!-- Line -->
            <path d="M762.1366,7.38 L218.3399,7.3801 " style="stroke:#000000;stroke-width:0.1;"/>
            <!-- Line -->
            <path d="M762.1366,34.3801 L183.3379,34.3801 " style="stroke:#000000;stroke-width:0.1;"/>
            <!-- Line -->
            <path d="M762.1366,7.38 L183.3379,7.38 " style="stroke:#000000;stroke-width:0.1;"/>
            <!-- Line -->
            <path d="M220.47,532.0521 L807.1366,532.0521 " style="stroke:#000000;stroke-width:0.1;"/>
            <!-- Arc -->
            <path d="M739.8198,510.1545 A800.0898,800.0898 0 0,1 146.7446,414.3657" style="stroke:#000000;stroke-width:0.1;"/>
            <!-- Arc -->
            <path d="M739.8198,510.1545 A1263.603,1263.603 0 0,1 146.7446,414.3657" style="stroke:#000000;stroke-width:0.1;"/>
            <!-- Arc -->
            <path d="M189.0782,349.387 A563.0173,563.0173 0 0,1 728.2764,422.2937" style="stroke:#000000;stroke-width:0.1;"/>
            <!-- Line -->
            <path d="M181.976,61.8371 L205.6776,342.0286 " style="stroke:#000000;stroke-width:0.1;"/>
            <!-- Line -->
            <path d="M101.9728,72.0924 L181.976,61.8371 " style="stroke:#000000;stroke-width:0.1;"/>
            <!-- Arc -->
            <path d="M101.9728,72.0924 A73.4112,73.4112 0 0,1 183.3379,7.3801" style="stroke:#000000;stroke-width:0.1;"/>
            <!-- Line -->
            <path d="M49.6979,101.09 L181.976,61.8371 " style="stroke:#000000;stroke-width:0.1;"/>
            <!-- Arc -->
            <path d="M200.3399,52.3801 A18,18 0 0,1 218.3399,34.3801" style="stroke:#000000;stroke-width:0.1;"/>
            <!-- Line -->
            <path d="M183.3379,34.3801 L181.976,61.8371 " style="stroke:#000000;stroke-width:0.1;"/>
            <!-- Line -->
            <path d="M146.7446,414.3657 L189.0782,349.387 " style="stroke:#000000;stroke-width:0.1;"/>
            <!-- Line -->
            <path d="M214.7193,458.179 L220.47,532.0521 " style="stroke:#000000;stroke-width:0.1;"/>
            <!-- Arc -->
            <path d="M835.4994,53.2974 A18,18 0 0,1 853.4994,35.2974" style="stroke:#000000;stroke-width:0.1;"/>
            <!-- Arc -->
            <path d="M762.1366,34.3801 A18,18 0 0,1 780.1366,52.3801" style="stroke:#000000;stroke-width:0.1;"/>
            <!-- Arc -->
            <path d="M808.4994,125.0994 A1509.7159,1509.7159 0 0,1 807.1366,125.0436" style="stroke:#000000;stroke-width:0.1;"/>
            <!-- Arc -->
            <path d="M762.1366,34.3801 A18,18 0 0,1 780.1366,52.3801" style="stroke:#000000;stroke-width:0.1;"/>
            <!-- Arc -->
            <path d="M808.4994,53.2974 A45,45 0 0,1 853.4994,8.2974" style="stroke:#000000;stroke-width:0.1;"/>
            <!-- Arc -->
            <path d="M762.1366,7.3801 A45,45 0 0,1 807.1366,52.3801" style="stroke:#000000;stroke-width:0.1;"/>
            <!-- Arc -->
            <path d="M762.1366,7.3801 A45,45 0 0,1 807.1366,52.3801" style="stroke:#000000;stroke-width:0.1;"/>
            <!-- Line -->
            <path d="M728.2764,422.2937 L739.8198,510.1545 " style="stroke:#000000;stroke-width:0.1;"/>
            <!-- Arc -->
            <path d="M808.4994,555.5216 A1892.2159,1892.2159 0 0,1 807.1366,555.4771" style="stroke:#000000;stroke-width:0.1;"/>
            <!-- Arc -->
            <path d="M808.4994,262.8411 A1599.7159,1599.7159 0 0,1 807.1366,262.7885" style="stroke:#000000;stroke-width:0.1;"/>
            <!-- Arc -->
            <path d="M808.4994,533.0098 A1869.7159,1869.7159 0 0,1 807.1366,532.9647" style="stroke:#000000;stroke-width:0.1;"/>
            <!-- Line -->
            <path d="M807.5933,531.1348 L807.1366,532.0521 " style="stroke:#000000;stroke-width:0.1;"/>
            <!-- Line -->
            <path d="M900.9499,423.2111 L889.4065,511.0719 " style="stroke:#000000;stroke-width:0.1;"/>
            <!-- Line -->
            <path d="M200.3399,775.0521 L780.1366,775.0521 " style="stroke:#000000;stroke-width:0.1;"/>
            <!-- Line -->
            <path d="M137.3399,802.0521 L807.1366,802.0521 " style="stroke:#000000;stroke-width:0.1;"/>
            <!-- Line -->
            <path d="M137.3399,775.0521 L780.5933,775.0521 " style="stroke:#000000;stroke-width:0.1;"/>
            <!-- Line -->
            <path d="M808.4994,607.8065 L807.1366,607.8065 " style="stroke:#000000;stroke-width:0.1;"/>
            <!-- Line -->
            <path d="M807.5933,801.1348 L807.1366,802.0521 " style="stroke:#000000;stroke-width:0.1;"/>
            <!-- Line -->
            <path d="M807.5933,606.8892 L807.1366,606.8892 " style="stroke:#000000;stroke-width:0.1;"/>
            <!-- Line -->
            <path d="M1540.0653,667.9694 L1513.0339,102.0073 " style="stroke:#000000;stroke-width:0.1;"/>
            <!-- Line -->
            <path d="M1567.0653,76.6633 L1567.0653,667.9694 " style="stroke:#000000;stroke-width:0.1;"/>
            <!-- Line -->
            <path d="M1348.9352,532.9694 L1562.9457,701.0649 " style="stroke:#000000;stroke-width:0.1;"/>
            <!-- Line -->
            <path d="M1387.4292,62.7544 L1363.7275,342.9459 " style="stroke:#000000;stroke-width:0.1;"/>
            <!-- Line -->
            <path d="M1513.0339,102.0073 L1387.4292,62.7544 " style="stroke:#000000;stroke-width:0.1;"/>
            <!-- Line -->
            <path d="M1467.4323,73.0097 L1567.0653,76.6633 " style="stroke:#000000;stroke-width:0.1;"/>
            <!-- Line -->
            <path d="M1467.4323,73.0097 L1387.4292,62.7544 " style="stroke:#000000;stroke-width:0.1;"/>
            <!-- Line -->
            <path d="M1386.0672,35.2974 L1387.4292,62.7544 " style="stroke:#000000;stroke-width:0.1;"/>
            <!-- Arc -->
            <path d="M1386.0672,8.2974 A73.4112,73.4112 0 0,1 1467.4323,73.0097" style="stroke:#000000;stroke-width:0.1;"/>
            <!-- Line -->
            <path d="M1567.0653,442.9694 L1382.1883,442.9694 " style="stroke:#000000;stroke-width:0.1;"/>
            <!-- Line -->
            <path d="M1422.6605,415.283 L1380.3269,350.3043 " style="stroke:#000000;stroke-width:0.1;"/>
            <!-- Line -->
            <path d="M1354.6858,459.0963 L1348.9352,532.9694 " style="stroke:#000000;stroke-width:0.1;"/>
            <!-- Arc -->
            <path d="M1567.0653,667.9694 A135,135 0 0,1 1432.0653,802.9694" style="stroke:#000000;stroke-width:0.1;"/>
            <!-- Arc -->
            <path d="M1540.0653,667.9694 A108,108 0 0,1 1432.0653,775.9694" style="stroke:#000000;stroke-width:0.1;"/>
        </g>
    </g>
</svg>
