<?xml version="1.0" encoding="UTF-8"?>
<!-- 2026-03-10 12:45:00 Generated by QCAD 3.32.6 SVG Exporter -->
<svg  width="23978.0843mm" height="33853.9152mm" viewBox="-19173.4377 -34133.8771 23978.0843 33853.9152" version="1.1" xmlns="http://www.w3.org/2000/svg" style="stroke-linecap:round;stroke-linejoin:round;">
    <g transform="scale(1,-1)">
            <!-- Auto-generated fillable area -->
            <!-- Block Reference: 14 seater doughtnut / entities: 5 -->
        <g>
            <!-- Circle -->
            <circle cx="-19084.69406603302" cy="34045.13343174687" r="65.94488188976378" style="stroke:#7f3f00;stroke-width:0.1;"/>
            <!-- Circle -->
            <circle cx="-19084.69406603302" cy="34045.13343174687" r="42.32283464566929" style="stroke:#7f3f00;stroke-width:0.1;"/>
            <!-- Circle -->
            <circle cx="-19084.69406603302" cy="34045.13343174687" r="43.11023622047244" style="stroke:#7f3f00;stroke-width:0.1;"/>
            <!-- Circle -->
            <circle cx="-19084.69406603302" cy="34045.13343174687" r="65.15748031496062" style="stroke:#7f3f00;stroke-width:0.1;"/>
            <!-- Block Reference: *U19 / entities: 20 -->
            <g>
                <!-- Block Reference: *U18 / entities: 1 -->
                <g>
                    <!-- Block Reference: chair_015 / entities: 8 -->
                    <g>
                        <!-- Arc -->
                        <path d="M-19082.8142,34130.7273 A26.1647,26.1647 0 0,1 -19086.4231,34130.7437" style="stroke:#7f3f00;stroke-width:0.1;"/>
                        <!-- Arc -->
                        <path d="M-19082.8116,34131.3033 A26.1647,26.1647 0 0,1 -19086.4205,34131.3197" style="stroke:#7f3f00;stroke-width:0.1;"/>
                        <!-- Polyline -->
                        <path d="M-19079.1296,34132.4597 A27.1619,27.1619 0 0 1 -19090.0918,34132.5095" style="stroke:#7f3f00;stroke-width:0.1;"/>
                        <!-- Polyline -->
                        <path d="M-19082.8142,34130.7273 L-19082.8116,34131.3033 A27.0669,27.0669 0 0 0 -19078.9011,34130.735 A0.410105,0.410105 0 0 1 -19078.4065,34131.0784 L-19078.3136,34132.5749 A0.615157,0.615157 0 0 1 -19078.7971,34133.2141 A27.9692,27.9692 0 0 1 -19090.4175,34133.2669 A0.615157,0.615157 0 0 1 -19090.9068,34132.6321 L-19090.8275,34131.1348 A0.410105,0.410105 0 0 1 -19090.3361,34130.7869 A27.0669,27.0669 0 0 0 -19086.4205,34131.3197 L-19086.4231,34130.7437 A26.1647,26.1647 0 0 1 -19089.9491,34130.2737 A2.70669,2.70669 0 0 1 -19092.0942,34127.9692 L-19093.19,34119.1198 L-19093.2392,34118.7398 A3.60892,3.60892 0 0 1 -19090.3884,34114.7412 A28.8714,28.8714 0 0 1 -19078.9945,34114.6894 A3.60892,3.60892 0 0 1 -19076.1075,34118.662 L-19076.1533,34119.0424 L-19077.1686,34127.9014 A2.70669,2.70669 0 0 1 -19079.2927,34130.2253 A26.1647,26.1647 0 0 1 -19082.8142,34130.7273 Z" style="stroke:#7f3f00;stroke-width:0.1;"/>
                        <!-- Circle -->
                        <circle cx="-19081.030017968063" cy="34126.270262276106" r="0.3229173125012914" style="stroke:#7f3f00;stroke-width:0.1;"/>
                        <!-- Circle -->
                        <circle cx="-19081.064679058814" cy="34118.642389076864" r="0.3229173125012914" style="stroke:#7f3f00;stroke-width:0.1;"/>
                        <!-- Circle -->
                        <circle cx="-19088.28245347302" cy="34118.675186969725" r="0.3229173125012914" style="stroke:#7f3f00;stroke-width:0.1;"/>
                        <!-- Circle -->
                        <circle cx="-19088.24779121627" cy="34126.30306097067" r="0.3229173125012914" style="stroke:#7f3f00;stroke-width:0.1;"/>
                    </g>
                </g>
                <!-- Block Reference: *U18 / entities: 1 -->
                <g>
                    <!-- Block Reference: chair_015 / entities: 8 -->
                    <g>
                        <!-- Arc -->
                        <path d="M-19109.3562,34127.1189 A26.1647,26.1647 0 0,1 -19112.7935,34126.0193" style="stroke:#7f3f00;stroke-width:0.1;"/>
                        <!-- Arc -->
                        <path d="M-19109.5317,34127.6676 A26.1647,26.1647 0 0,1 -19112.969,34126.568" style="stroke:#7f3f00;stroke-width:0.1;"/>
                        <!-- Polyline -->
                        <path d="M-19106.3873,34129.9051 A27.1619,27.1619 0 0 1 -19116.8283,34126.565" style="stroke:#7f3f00;stroke-width:0.1;"/>
                        <!-- Polyline -->
                        <path d="M-19109.3562,34127.1189 L-19109.5317,34127.6676 A27.0669,27.0669 0 0 0 -19105.6369,34128.3355 A0.410105,0.410105 0 0 1 -19105.2727,34128.8149 L-19105.6468,34130.2668 A0.615157,0.615157 0 0 1 -19106.3041,34130.7254 A27.9692,27.9692 0 0 1 -19117.3721,34127.1847 A0.615157,0.615157 0 0 1 -19117.6412,34126.4298 L-19117.1032,34125.0303 A0.410105,0.410105 0 0 1 -19116.5283,34124.8513 A27.0669,27.0669 0 0 0 -19112.969,34126.568 L-19112.7935,34126.0193 A26.1647,26.1647 0 0 1 -19116.0017,34124.4827 A2.70669,2.70669 0 0 1 -19117.3297,34121.6281 L-19115.6372,34112.8733 L-19115.5666,34112.4967 A3.60892,3.60892 0 0 1 -19111.6197,34109.5747 A28.8714,28.8714 0 0 1 -19100.7675,34113.0464 A3.60892,3.60892 0 0 1 -19099.2494,34117.7166 L-19099.4105,34118.0643 L-19103.1136,34126.1759 A2.70669,2.70669 0 0 1 -19105.8518,34127.7297 A26.1647,26.1647 0 0 1 -19109.3562,34127.1189 Z" style="stroke:#7f3f00;stroke-width:0.1;"/>
                        <!-- Circle -->
                        <circle cx="-19106.28200874808" cy="34123.431396253516" r="0.3229173125012913" style="stroke:#7f3f00;stroke-width:0.1;"/>
                        <!-- Circle -->
                        <circle cx="-19103.957830954794" cy="34116.16614687582" r="0.3229173125012913" style="stroke:#7f3f00;stroke-width:0.1;"/>
                        <!-- Circle -->
                        <circle cx="-19110.832477450847" cy="34113.96692456999" r="0.3229173125012913" style="stroke:#7f3f00;stroke-width:0.1;"/>
                        <!-- Circle -->
                        <circle cx="-19113.15665438294" cy="34121.232175070465" r="0.3229173125012913" style="stroke:#7f3f00;stroke-width:0.1;"/>
                    </g>
                </g>
                <!-- Block Reference: *U18 / entities: 1 -->
                <g>
                    <!-- Block Reference: chair_015 / entities: 8 -->
                    <g>
                        <!-- Arc -->
                        <path d="M-19133.4841,34115.4852 A26.1647,26.1647 0 0,1 -19136.4133,34113.3773" style="stroke:#7f3f00;stroke-width:0.1;"/>
                        <!-- Arc -->
                        <path d="M-19133.8205,34115.9528 A26.1647,26.1647 0 0,1 -19136.7498,34113.8448" style="stroke:#7f3f00;stroke-width:0.1;"/>
                        <!-- Polyline -->
                        <path d="M-19131.5214,34119.0525 A27.1619,27.1619 0 0 1 -19140.4193,34112.6494" style="stroke:#7f3f00;stroke-width:0.1;"/>
                        <!-- Polyline -->
                        <path d="M-19133.4841,34115.4852 L-19133.8205,34115.9528 A27.0669,27.0669 0 0 0 -19130.3228,34117.7916 A0.410105,0.410105 0 0 1 -19130.1245,34118.3601 L-19130.929,34119.6253 A0.615157,0.615157 0 0 1 -19131.6958,34119.8583 A27.9692,27.9692 0 0 1 -19141.128,34113.0707 A0.615157,0.615157 0 0 1 -19141.1506,34112.2696 L-19140.2065,34111.1049 A0.410105,0.410105 0 0 1 -19139.6044,34111.1123 A27.0669,27.0669 0 0 0 -19136.7498,34113.8448 L-19136.4133,34113.3773 A26.1647,26.1647 0 0 1 -19138.9897,34110.9245 A2.70669,2.70669 0 0 1 -19139.3705,34107.7993 L-19135.0555,34099.9959 L-19134.872,34099.6595 A3.60892,3.60892 0 0 1 -19130.2153,34098.1003 A28.8714,28.8714 0 0 1 -19120.9671,34104.7555 A3.60892,3.60892 0 0 1 -19120.9664,34109.6663 L-19121.2271,34109.9471 L-19127.2556,34116.5174 A2.70669,2.70669 0 0 1 -19130.34,34117.1491 A26.1647,26.1647 0 0 1 -19133.4841,34115.4852 Z" style="stroke:#7f3f00;stroke-width:0.1;"/>
                        <!-- Circle -->
                        <circle cx="-19129.420821283104" cy="34112.92817993102" r="0.3229173125012913" style="stroke:#7f3f00;stroke-width:0.1;"/>
                        <!-- Circle -->
                        <circle cx="-19124.96531132169" cy="34106.73672760392" r="0.3229173125012913" style="stroke:#7f3f00;stroke-width:0.1;"/>
                        <!-- Circle -->
                        <circle cx="-19130.82389160208" cy="34102.52076030158" r="0.3229173125012913" style="stroke:#7f3f00;stroke-width:0.1;"/>
                        <!-- Circle -->
                        <circle cx="-19135.2794010914" cy="34108.71221396262" r="0.3229173125012913" style="stroke:#7f3f00;stroke-width:0.1;"/>
                    </g>
                </g>
                <!-- Block Reference: *U18 / entities: 1 -->
                <g>
                    <!-- Block Reference: chair_015 / entities: 8 -->
                    <g>
                        <!-- Arc -->
                        <path d="M-19152.836,34096.965 A26.1647,26.1647 0 0,1 -19154.9705,34094.055" style="stroke:#7f3f00;stroke-width:0.1;"/>
                        <!-- Arc -->
                        <path d="M-19153.3005,34097.3057 A26.1647,26.1647 0 0,1 -19155.435,34094.3957" style="stroke:#7f3f00;stroke-width:0.1;"/>
                        <!-- Polyline -->
                        <path d="M-19152.0718,34100.9642 A27.1619,27.1619 0 0 1 -19158.5555,34092.1249" style="stroke:#7f3f00;stroke-width:0.1;"/>
                        <!-- Polyline -->
                        <path d="M-19152.836,34096.965 L-19153.3005,34097.3057 A27.0669,27.0669 0 0 0 -19150.5421,34100.1354 A0.410105,0.410105 0 0 1 -19150.5293,34100.7374 L-19151.6853,34101.6921 A0.615157,0.615157 0 0 1 -19152.4867,34101.6767 A27.9692,27.9692 0 0 1 -19159.3597,34092.3066 A0.615157,0.615157 0 0 1 -19159.1337,34091.5377 L-19157.8758,34090.7217 A0.410105,0.410105 0 0 1 -19157.3055,34090.9148 A27.0669,27.0669 0 0 0 -19155.435,34094.3957 L-19154.9705,34094.055 A26.1647,26.1647 0 0 1 -19156.6628,34090.9262 A2.70669,2.70669 0 0 1 -19156.0593,34087.8362 L-19149.5441,34081.7482 L-19149.2656,34081.485 A3.60892,3.60892 0 0 1 -19144.355,34081.441 A28.8714,28.8714 0 0 1 -19137.616,34090.6284 A3.60892,3.60892 0 0 1 -19139.1329,34095.2991 L-19139.4675,34095.4856 L-19147.2314,34099.8714 A2.70669,2.70669 0 0 1 -19150.3599,34099.519 A26.1647,26.1647 0 0 1 -19152.836,34096.965 Z" style="stroke:#7f3f00;stroke-width:0.1;"/>
                        <!-- Circle -->
                        <circle cx="-19148.18146738462" cy="34095.788741302465" r="0.3229173125012913" style="stroke:#7f3f00;stroke-width:0.1;"/>
                        <!-- Circle -->
                        <circle cx="-19142.030761613463" cy="34091.27714851814" r="0.3229173125012913" style="stroke:#7f3f00;stroke-width:0.1;"/>
                        <!-- Circle -->
                        <circle cx="-19146.299797021213" cy="34085.45712447321" r="0.3229173125012913" style="stroke:#7f3f00;stroke-width:0.1;"/>
                        <!-- Circle -->
                        <circle cx="-19152.450502755597" cy="34089.968718672084" r="0.3229173125012913" style="stroke:#7f3f00;stroke-width:0.1;"/>
                    </g>
                </g>
                <!-- Block Reference: *U18 / entities: 1 -->
                <g>
                    <!-- Block Reference: chair_015 / entities: 8 -->
                    <g>
                        <!-- Arc -->
                        <path d="M-19165.5178,34073.3712 A26.1647,26.1647 0 0,1 -19166.6486,34069.944" style="stroke:#7f3f00;stroke-width:0.1;"/>
                        <!-- Arc -->
                        <path d="M-19166.0648,34073.5517 A26.1647,26.1647 0 0,1 -19167.1956,34070.1245" style="stroke:#7f3f00;stroke-width:0.1;"/>
                        <!-- Polyline -->
                        <path d="M-19166.0268,34077.4108 A27.1619,27.1619 0 0 1 -19169.4616,34067.0005" style="stroke:#7f3f00;stroke-width:0.1;"/>
                        <!-- Polyline -->
                        <path d="M-19165.5178,34073.3712 L-19166.0648,34073.5517 A27.0669,27.0669 0 0 0 -19164.3158,34077.0952 A0.410105,0.410105 0 0 1 -19164.4896,34077.6717 L-19165.8841,34078.2225 A0.615157,0.615157 0 0 1 -19166.6415,34077.9602 A27.9692,27.9692 0 0 1 -19170.2826,34066.9249 A0.615157,0.615157 0 0 1 -19169.83,34066.2634 L-19168.3816,34065.8761 A0.410105,0.410105 0 0 1 -19167.8989,34066.2359 A27.0669,27.0669 0 0 0 -19167.1956,34070.1245 L-19166.6486,34069.944 A26.1647,26.1647 0 0 1 -19167.2912,34066.4454 A2.70669,2.70669 0 0 1 -19165.7623,34063.6931 L-19157.6847,34059.9164 L-19157.3385,34059.7521 A3.60892,3.60892 0 0 1 -19152.6547,34061.2278 A28.8714,28.8714 0 0 1 -19149.0845,34072.048 A3.60892,3.60892 0 0 1 -19151.9705,34076.0213 L-19152.3464,34076.0953 L-19161.0855,34077.8673 A2.70669,2.70669 0 0 1 -19163.9521,34076.5653 A26.1647,26.1647 0 0 1 -19165.5178,34073.3712 Z" style="stroke:#7f3f00;stroke-width:0.1;"/>
                        <!-- Circle -->
                        <circle cx="-19160.727524299105" cy="34073.69080803832" r="0.3229173125012913" style="stroke:#7f3f00;stroke-width:0.1;"/>
                        <!-- Circle -->
                        <circle cx="-19153.483696653577" cy="34071.3007009326" r="0.3229173125012913" style="stroke:#7f3f00;stroke-width:0.1;"/>
                        <!-- Circle -->
                        <circle cx="-19155.745304258857" cy="34064.44632464909" r="0.3229173125012913" style="stroke:#7f3f00;stroke-width:0.1;"/>
                        <!-- Circle -->
                        <circle cx="-19162.989132306535" cy="34066.836433111486" r="0.3229173125012913" style="stroke:#7f3f00;stroke-width:0.1;"/>
                    </g>
                </g>
                <!-- Block Reference: *U18 / entities: 1 -->
                <g>
                    <!-- Block Reference: chair_015 / entities: 8 -->
                    <g>
                        <!-- Arc -->
                        <path d="M-19170.2879,34047.0133 A26.1647,26.1647 0 0,1 -19170.3043,34043.4044" style="stroke:#7f3f00;stroke-width:0.1;"/>
                        <!-- Arc -->
                        <path d="M-19170.8639,34047.0159 A26.1647,26.1647 0 0,1 -19170.8803,34043.407" style="stroke:#7f3f00;stroke-width:0.1;"/>
                        <!-- Polyline -->
                        <path d="M-19172.0203,34050.6979 A27.1619,27.1619 0 0 1 -19172.0701,34039.7357" style="stroke:#7f3f00;stroke-width:0.1;"/>
                        <!-- Polyline -->
                        <path d="M-19170.2879,34047.0133 L-19170.8639,34047.0159 A27.0669,27.0669 0 0 0 -19170.2956,34050.9264 A0.410105,0.410105 0 0 1 -19170.639,34051.421 L-19172.1355,34051.5138 A0.615157,0.615157 0 0 1 -19172.7747,34051.0304 A27.9692,27.9692 0 0 1 -19172.8275,34039.41 A0.615157,0.615157 0 0 1 -19172.1927,34038.9207 L-19170.6955,34039 A0.410105,0.410105 0 0 1 -19170.3476,34039.4914 A27.0669,27.0669 0 0 0 -19170.8803,34043.407 L-19170.3043,34043.4044 A26.1647,26.1647 0 0 1 -19169.8343,34039.8784 A2.70669,2.70669 0 0 1 -19167.5298,34037.7333 L-19158.6804,34036.6375 L-19158.3004,34036.5883 A3.60892,3.60892 0 0 1 -19154.3019,34039.4391 A28.8714,28.8714 0 0 1 -19154.2501,34050.833 A3.60892,3.60892 0 0 1 -19158.2226,34053.72 L-19158.603,34053.6742 L-19167.462,34052.6589 A2.70669,2.70669 0 0 1 -19169.7859,34050.5348 A26.1647,26.1647 0 0 1 -19170.2879,34047.0133 Z" style="stroke:#7f3f00;stroke-width:0.1;"/>
                        <!-- Circle -->
                        <circle cx="-19165.830896562253" cy="34048.79747981183" r="0.3229173125012913" style="stroke:#7f3f00;stroke-width:0.1;"/>
                        <!-- Circle -->
                        <circle cx="-19158.20302336301" cy="34048.76281872108" r="0.3229173125012913" style="stroke:#7f3f00;stroke-width:0.1;"/>
                        <!-- Circle -->
                        <circle cx="-19158.235821255872" cy="34041.54504430687" r="0.3229173125012913" style="stroke:#7f3f00;stroke-width:0.1;"/>
                        <!-- Circle -->
                        <circle cx="-19165.863695256812" cy="34041.57970656362" r="0.3229173125012913" style="stroke:#7f3f00;stroke-width:0.1;"/>
                    </g>
                </g>
                <!-- Block Reference: *U18 / entities: 1 -->
                <g>
                    <!-- Block Reference: chair_015 / entities: 8 -->
                    <g>
                        <!-- Arc -->
                        <path d="M-19166.6795,34020.4713 A26.1647,26.1647 0 0,1 -19165.5799,34017.034" style="stroke:#7f3f00;stroke-width:0.1;"/>
                        <!-- Arc -->
                        <path d="M-19167.2282,34020.2958 A26.1647,26.1647 0 0,1 -19166.1286,34016.8585" style="stroke:#7f3f00;stroke-width:0.1;"/>
                        <!-- Polyline -->
                        <path d="M-19169.4658,34023.4402 A27.1619,27.1619 0 0 1 -19166.1256,34012.9992" style="stroke:#7f3f00;stroke-width:0.1;"/>
                        <!-- Polyline -->
                        <path d="M-19166.6795,34020.4713 L-19167.2282,34020.2958 A27.0669,27.0669 0 0 0 -19167.8961,34024.1906 A0.410105,0.410105 0 0 1 -19168.3755,34024.5548 L-19169.8275,34024.1807 A0.615157,0.615157 0 0 1 -19170.286,34023.5234 A27.9692,27.9692 0 0 1 -19166.7453,34012.4554 A0.615157,0.615157 0 0 1 -19165.9904,34012.1862 L-19164.5909,34012.7243 A0.410105,0.410105 0 0 1 -19164.4119,34013.2992 A27.0669,27.0669 0 0 0 -19166.1286,34016.8585 L-19165.5799,34017.034 A26.1647,26.1647 0 0 1 -19164.0434,34013.8258 A2.70669,2.70669 0 0 1 -19161.1888,34012.4978 L-19152.4339,34014.1903 L-19152.0573,34014.2609 A3.60892,3.60892 0 0 1 -19149.1353,34018.2078 A28.8714,28.8714 0 0 1 -19152.607,34029.06 A3.60892,3.60892 0 0 1 -19157.2772,34030.5781 L-19157.6249,34030.417 L-19165.7365,34026.7139 A2.70669,2.70669 0 0 1 -19167.2904,34023.9757 A26.1647,26.1647 0 0 1 -19166.6795,34020.4713 Z" style="stroke:#7f3f00;stroke-width:0.1;"/>
                        <!-- Circle -->
                        <circle cx="-19162.99203053966" cy="34023.545489031814" r="0.3229173125012914" style="stroke:#7f3f00;stroke-width:0.1;"/>
                        <!-- Circle -->
                        <circle cx="-19155.72678116196" cy="34025.8696668251" r="0.3229173125012914" style="stroke:#7f3f00;stroke-width:0.1;"/>
                        <!-- Circle -->
                        <circle cx="-19153.527558856134" cy="34018.99502032904" r="0.3229173125012914" style="stroke:#7f3f00;stroke-width:0.1;"/>
                        <!-- Circle -->
                        <circle cx="-19160.792809356608" cy="34016.670843396954" r="0.3229173125012914" style="stroke:#7f3f00;stroke-width:0.1;"/>
                    </g>
                </g>
                <!-- Block Reference: *U18 / entities: 1 -->
                <g>
                    <!-- Block Reference: chair_015 / entities: 8 -->
                    <g>
                        <!-- Arc -->
                        <path d="M-19155.0459,33996.3434 A26.1647,26.1647 0 0,1 -19152.9379,33993.4142" style="stroke:#7f3f00;stroke-width:0.1;"/>
                        <!-- Arc -->
                        <path d="M-19155.5134,33996.007 A26.1647,26.1647 0 0,1 -19153.4055,33993.0777" style="stroke:#7f3f00;stroke-width:0.1;"/>
                        <!-- Polyline -->
                        <path d="M-19158.6132,33998.3061 A27.1619,27.1619 0 0 1 -19152.2101,33989.4082" style="stroke:#7f3f00;stroke-width:0.1;"/>
                        <!-- Polyline -->
                        <path d="M-19155.0459,33996.3434 L-19155.5134,33996.007 A27.0669,27.0669 0 0 0 -19157.3522,33999.5047 A0.410105,0.410105 0 0 1 -19157.9207,33999.703 L-19159.186,33998.8985 A0.615157,0.615157 0 0 1 -19159.419,33998.1317 A27.9692,27.9692 0 0 1 -19152.6314,33988.6995 A0.615157,0.615157 0 0 1 -19151.8302,33988.6769 L-19150.6655,33989.621 A0.410105,0.410105 0 0 1 -19150.6729,33990.2231 A27.0669,27.0669 0 0 0 -19153.4055,33993.0777 L-19152.9379,33993.4142 A26.1647,26.1647 0 0 1 -19150.4851,33990.8378 A2.70669,2.70669 0 0 1 -19147.3599,33990.457 L-19139.5565,33994.772 L-19139.2202,33994.9555 A3.60892,3.60892 0 0 1 -19137.6609,33999.6122 A28.8714,28.8714 0 0 1 -19144.3162,34008.8604 A3.60892,3.60892 0 0 1 -19149.2269,34008.8611 L-19149.5078,34008.6004 L-19156.0781,34002.5719 A2.70669,2.70669 0 0 1 -19156.7097,33999.4875 A26.1647,26.1647 0 0 1 -19155.0459,33996.3434 Z" style="stroke:#7f3f00;stroke-width:0.1;"/>
                        <!-- Circle -->
                        <circle cx="-19152.488814217162" cy="34000.406676496794" r="0.3229173125012913" style="stroke:#7f3f00;stroke-width:0.1;"/>
                        <!-- Circle -->
                        <circle cx="-19146.297361890065" cy="34004.8621864582" r="0.3229173125012913" style="stroke:#7f3f00;stroke-width:0.1;"/>
                        <!-- Circle -->
                        <circle cx="-19142.081394587723" cy="33999.003606177816" r="0.3229173125012913" style="stroke:#7f3f00;stroke-width:0.1;"/>
                        <!-- Circle -->
                        <circle cx="-19148.27284824877" cy="33994.54809668849" r="0.3229173125012913" style="stroke:#7f3f00;stroke-width:0.1;"/>
                    </g>
                </g>
                <!-- Block Reference: *U18 / entities: 1 -->
                <g>
                    <!-- Block Reference: chair_015 / entities: 8 -->
                    <g>
                        <!-- Arc -->
                        <path d="M-19136.5257,33976.9915 A26.1647,26.1647 0 0,1 -19133.6157,33974.857" style="stroke:#7f3f00;stroke-width:0.1;"/>
                        <!-- Arc -->
                        <path d="M-19136.8664,33976.527 A26.1647,26.1647 0 0,1 -19133.9564,33974.3925" style="stroke:#7f3f00;stroke-width:0.1;"/>
                        <!-- Polyline -->
                        <path d="M-19140.5249,33977.7557 A27.1619,27.1619 0 0 1 -19131.6855,33971.272" style="stroke:#7f3f00;stroke-width:0.1;"/>
                        <!-- Polyline -->
                        <path d="M-19136.5257,33976.9915 L-19136.8664,33976.527 A27.0669,27.0669 0 0 0 -19139.696,33979.2854 A0.410105,0.410105 0 0 1 -19140.298,33979.2982 L-19141.2527,33978.1422 A0.615157,0.615157 0 0 1 -19141.2373,33977.3408 A27.9692,27.9692 0 0 1 -19131.8673,33970.4678 A0.615157,0.615157 0 0 1 -19131.0983,33970.6938 L-19130.2824,33971.9517 A0.410105,0.410105 0 0 1 -19130.4755,33972.522 A27.0669,27.0669 0 0 0 -19133.9564,33974.3925 L-19133.6157,33974.857 A26.1647,26.1647 0 0 1 -19130.4868,33973.1647 A2.70669,2.70669 0 0 1 -19127.3968,33973.7682 L-19121.3088,33980.2834 L-19121.0456,33980.5619 A3.60892,3.60892 0 0 1 -19121.0017,33985.4725 A28.8714,28.8714 0 0 1 -19130.1891,33992.2115 A3.60892,3.60892 0 0 1 -19134.8597,33990.6946 L-19135.0463,33990.36 L-19139.4321,33982.5961 A2.70669,2.70669 0 0 1 -19139.0796,33979.4676 A26.1647,26.1647 0 0 1 -19136.5257,33976.9915 Z" style="stroke:#7f3f00;stroke-width:0.1;"/>
                        <!-- Circle -->
                        <circle cx="-19135.349375588612" cy="33981.64603039528" r="0.32291731250129124" style="stroke:#7f3f00;stroke-width:0.1;"/>
                        <!-- Circle -->
                        <circle cx="-19130.83778280428" cy="33987.79673616643" r="0.32291731250129124" style="stroke:#7f3f00;stroke-width:0.1;"/>
                        <!-- Circle -->
                        <circle cx="-19125.01775875935" cy="33983.52770075868" r="0.32291731250129124" style="stroke:#7f3f00;stroke-width:0.1;"/>
                        <!-- Circle -->
                        <circle cx="-19129.529352958227" cy="33977.37699502429" r="0.32291731250129124" style="stroke:#7f3f00;stroke-width:0.1;"/>
                    </g>
                </g>
                <!-- Block Reference: *U18 / entities: 1 -->
                <g>
                    <!-- Block Reference: chair_015 / entities: 8 -->
                    <g>
                        <!-- Arc -->
                        <path d="M-19112.9318,33964.3097 A26.1647,26.1647 0 0,1 -19109.5046,33963.1789" style="stroke:#7f3f00;stroke-width:0.1;"/>
                        <!-- Arc -->
                        <path d="M-19113.1123,33963.7627 A26.1647,26.1647 0 0,1 -19109.6851,33962.6319" style="stroke:#7f3f00;stroke-width:0.1;"/>
                        <!-- Polyline -->
                        <path d="M-19116.9714,33963.8007 A27.1619,27.1619 0 0 1 -19106.5612,33960.3659" style="stroke:#7f3f00;stroke-width:0.1;"/>
                        <!-- Polyline -->
                        <path d="M-19112.9318,33964.3097 L-19113.1123,33963.7627 A27.0669,27.0669 0 0 0 -19116.6559,33965.5117 A0.410105,0.410105 0 0 1 -19117.2324,33965.3379 L-19117.7831,33963.9434 A0.615157,0.615157 0 0 1 -19117.5208,33963.186 A27.9692,27.9692 0 0 1 -19106.4855,33959.5449 A0.615157,0.615157 0 0 1 -19105.824,33959.9975 L-19105.4367,33961.4459 A0.410105,0.410105 0 0 1 -19105.7966,33961.9286 A27.0669,27.0669 0 0 0 -19109.6851,33962.6319 L-19109.5046,33963.1789 A26.1647,26.1647 0 0 1 -19106.006,33962.5363 A2.70669,2.70669 0 0 1 -19103.2538,33964.0652 L-19099.477,33972.1428 L-19099.3128,33972.489 A3.60892,3.60892 0 0 1 -19100.7884,33977.1728 A28.8714,28.8714 0 0 1 -19111.6086,33980.743 A3.60892,3.60892 0 0 1 -19115.5819,33977.857 L-19115.6559,33977.4811 L-19117.4279,33968.742 A2.70669,2.70669 0 0 1 -19116.1259,33965.8754 A26.1647,26.1647 0 0 1 -19112.9318,33964.3097 Z" style="stroke:#7f3f00;stroke-width:0.1;"/>
                        <!-- Circle -->
                        <circle cx="-19113.251442324465" cy="33969.09997348079" r="0.3229173125012913" style="stroke:#7f3f00;stroke-width:0.1;"/>
                        <!-- Circle -->
                        <circle cx="-19110.861335218746" cy="33976.34380112632" r="0.3229173125012913" style="stroke:#7f3f00;stroke-width:0.1;"/>
                        <!-- Circle -->
                        <circle cx="-19104.00695893524" cy="33974.08219352103" r="0.3229173125012913" style="stroke:#7f3f00;stroke-width:0.1;"/>
                        <!-- Circle -->
                        <circle cx="-19106.397067397633" cy="33966.83836547336" r="0.3229173125012913" style="stroke:#7f3f00;stroke-width:0.1;"/>
                    </g>
                </g>
                <!-- Block Reference: *U18 / entities: 1 -->
                <g>
                    <!-- Block Reference: chair_015 / entities: 8 -->
                    <g>
                        <!-- Arc -->
                        <path d="M-19086.5739,33959.5396 A26.1647,26.1647 0 0,1 -19082.965,33959.5232" style="stroke:#7f3f00;stroke-width:0.1;"/>
                        <!-- Arc -->
                        <path d="M-19086.5765,33958.9635 A26.1647,26.1647 0 0,1 -19082.9676,33958.9471" style="stroke:#7f3f00;stroke-width:0.1;"/>
                        <!-- Polyline -->
                        <path d="M-19090.2585,33957.8072 A27.1619,27.1619 0 0 1 -19079.2963,33957.7574" style="stroke:#7f3f00;stroke-width:0.1;"/>
                        <!-- Polyline -->
                        <path d="M-19086.5739,33959.5396 L-19086.5765,33958.9635 A27.0669,27.0669 0 0 0 -19090.4871,33959.5319 A0.410105,0.410105 0 0 1 -19090.9816,33959.1885 L-19091.0745,33957.692 A0.615157,0.615157 0 0 1 -19090.591,33957.0528 A27.9692,27.9692 0 0 1 -19078.9706,33957 A0.615157,0.615157 0 0 1 -19078.4814,33957.6348 L-19078.5606,33959.132 A0.410105,0.410105 0 0 1 -19079.0521,33959.4799 A27.0669,27.0669 0 0 0 -19082.9676,33958.9471 L-19082.965,33959.5232 A26.1647,26.1647 0 0 1 -19079.439,33959.9932 A2.70669,2.70669 0 0 1 -19077.2939,33962.2977 L-19076.1982,33971.1471 L-19076.1489,33971.5271 A3.60892,3.60892 0 0 1 -19078.9997,33975.5256 A28.8714,28.8714 0 0 1 -19090.3936,33975.5774 A3.60892,3.60892 0 0 1 -19093.2806,33971.6049 L-19093.2348,33971.2245 L-19092.2195,33962.3655 A2.70669,2.70669 0 0 1 -19090.0955,33960.0416 A26.1647,26.1647 0 0 1 -19086.5739,33959.5396 Z" style="stroke:#7f3f00;stroke-width:0.1;"/>
                        <!-- Circle -->
                        <circle cx="-19088.358114097973" cy="33963.99660121764" r="0.3229173125012913" style="stroke:#7f3f00;stroke-width:0.1;"/>
                        <!-- Circle -->
                        <circle cx="-19088.323453007226" cy="33971.62447441689" r="0.3229173125012913" style="stroke:#7f3f00;stroke-width:0.1;"/>
                        <!-- Circle -->
                        <circle cx="-19081.105678593016" cy="33971.591676524025" r="0.3229173125012913" style="stroke:#7f3f00;stroke-width:0.1;"/>
                        <!-- Circle -->
                        <circle cx="-19081.140340849768" cy="33963.96380252308" r="0.3229173125012913" style="stroke:#7f3f00;stroke-width:0.1;"/>
                    </g>
                </g>
                <!-- Block Reference: *U18 / entities: 1 -->
                <g>
                    <!-- Block Reference: chair_015 / entities: 8 -->
                    <g>
                        <!-- Arc -->
                        <path d="M-19060.0319,33963.148 A26.1647,26.1647 0 0,1 -19056.5946,33964.2476" style="stroke:#7f3f00;stroke-width:0.1;"/>
                        <!-- Arc -->
                        <path d="M-19059.8564,33962.5993 A26.1647,26.1647 0 0,1 -19056.4191,33963.6989" style="stroke:#7f3f00;stroke-width:0.1;"/>
                        <!-- Polyline -->
                        <path d="M-19063.0009,33960.3617 A27.1619,27.1619 0 0 1 -19052.5598,33963.7019" style="stroke:#7f3f00;stroke-width:0.1;"/>
                        <!-- Polyline -->
                        <path d="M-19060.0319,33963.148 L-19059.8564,33962.5993 A27.0669,27.0669 0 0 0 -19063.7512,33961.9314 A0.410105,0.410105 0 0 1 -19064.1154,33961.452 L-19063.7413,33960 A0.615157,0.615157 0 0 1 -19063.084,33959.5415 A27.9692,27.9692 0 0 1 -19052.016,33963.0822 A0.615157,0.615157 0 0 1 -19051.7469,33963.8371 L-19052.2849,33965.2366 A0.410105,0.410105 0 0 1 -19052.8598,33965.4156 A27.0669,27.0669 0 0 0 -19056.4191,33963.6989 L-19056.5946,33964.2476 A26.1647,26.1647 0 0 1 -19053.3864,33965.7841 A2.70669,2.70669 0 0 1 -19052.0584,33968.6387 L-19053.7509,33977.3936 L-19053.8215,33977.7702 A3.60892,3.60892 0 0 1 -19057.7684,33980.6921 A28.8714,28.8714 0 0 1 -19068.6206,33977.2205 A3.60892,3.60892 0 0 1 -19070.1388,33972.5503 L-19069.9777,33972.2026 L-19066.2745,33964.091 A2.70669,2.70669 0 0 1 -19063.5363,33962.5371 A26.1647,26.1647 0 0 1 -19060.0319,33963.148 Z" style="stroke:#7f3f00;stroke-width:0.1;"/>
                        <!-- Circle -->
                        <circle cx="-19063.106123317957" cy="33966.835467240235" r="0.3229173125012913" style="stroke:#7f3f00;stroke-width:0.1;"/>
                        <!-- Circle -->
                        <circle cx="-19065.430301111242" cy="33974.10071661793" r="0.3229173125012913" style="stroke:#7f3f00;stroke-width:0.1;"/>
                        <!-- Circle -->
                        <circle cx="-19058.55565461519" cy="33976.29993892376" r="0.3229173125012913" style="stroke:#7f3f00;stroke-width:0.1;"/>
                        <!-- Circle -->
                        <circle cx="-19056.2314776831" cy="33969.034688423286" r="0.3229173125012913" style="stroke:#7f3f00;stroke-width:0.1;"/>
                    </g>
                </g>
                <!-- Block Reference: *U18 / entities: 1 -->
                <g>
                    <!-- Block Reference: chair_015 / entities: 8 -->
                    <g>
                        <!-- Arc -->
                        <path d="M-19035.9041,33974.7816 A26.1647,26.1647 0 0,1 -19032.9748,33976.8896" style="stroke:#7f3f00;stroke-width:0.1;"/>
                        <!-- Arc -->
                        <path d="M-19035.5676,33974.3141 A26.1647,26.1647 0 0,1 -19032.6383,33976.422" style="stroke:#7f3f00;stroke-width:0.1;"/>
                        <!-- Polyline -->
                        <path d="M-19037.8667,33971.2143 A27.1619,27.1619 0 0 1 -19028.9688,33977.6174" style="stroke:#7f3f00;stroke-width:0.1;"/>
                        <!-- Polyline -->
                        <path d="M-19035.9041,33974.7816 L-19035.5676,33974.3141 A27.0669,27.0669 0 0 0 -19039.0654,33972.4753 A0.410105,0.410105 0 0 1 -19039.2636,33971.9068 L-19038.4592,33970.6415 A0.615157,0.615157 0 0 1 -19037.6923,33970.4085 A27.9692,27.9692 0 0 1 -19028.2601,33977.1961 A0.615157,0.615157 0 0 1 -19028.2375,33977.9973 L-19029.1817,33979.162 A0.410105,0.410105 0 0 1 -19029.7837,33979.1546 A27.0669,27.0669 0 0 0 -19032.6383,33976.422 L-19032.9748,33976.8896 A26.1647,26.1647 0 0 1 -19030.3984,33979.3424 A2.70669,2.70669 0 0 1 -19030.0176,33982.4676 L-19034.3326,33990.271 L-19034.5161,33990.6073 A3.60892,3.60892 0 0 1 -19039.1728,33992.1666 A28.8714,28.8714 0 0 1 -19048.4211,33985.5113 A3.60892,3.60892 0 0 1 -19048.4217,33980.6006 L-19048.1611,33980.3197 L-19042.1325,33973.7494 A2.70669,2.70669 0 0 1 -19039.0482,33973.1178 A26.1647,26.1647 0 0 1 -19035.9041,33974.7816 Z" style="stroke:#7f3f00;stroke-width:0.1;"/>
                        <!-- Circle -->
                        <circle cx="-19039.967310782937" cy="33977.33868356273" r="0.32291731250129124" style="stroke:#7f3f00;stroke-width:0.1;"/>
                        <!-- Circle -->
                        <circle cx="-19044.42282074435" cy="33983.53013588983" r="0.32291731250129124" style="stroke:#7f3f00;stroke-width:0.1;"/>
                        <!-- Circle -->
                        <circle cx="-19038.564240463962" cy="33987.74610319217" r="0.32291731250129124" style="stroke:#7f3f00;stroke-width:0.1;"/>
                        <!-- Circle -->
                        <circle cx="-19034.108730974636" cy="33981.55464953113" r="0.32291731250129124" style="stroke:#7f3f00;stroke-width:0.1;"/>
                    </g>
                </g>
                <!-- Block Reference: *U18 / entities: 1 -->
                <g>
                    <!-- Block Reference: chair_015 / entities: 8 -->
                    <g>
                        <!-- Arc -->
                        <path d="M-19016.5521,33993.3018 A26.1647,26.1647 0 0,1 -19014.4176,33996.2118" style="stroke:#7f3f00;stroke-width:0.1;"/>
                        <!-- Arc -->
                        <path d="M-19016.0876,33992.9611 A26.1647,26.1647 0 0,1 -19013.9531,33995.8711" style="stroke:#7f3f00;stroke-width:0.1;"/>
                        <!-- Polyline -->
                        <path d="M-19017.3163,33989.3026 A27.1619,27.1619 0 0 1 -19010.8326,33998.142" style="stroke:#7f3f00;stroke-width:0.1;"/>
                        <!-- Polyline -->
                        <path d="M-19016.5521,33993.3018 L-19016.0876,33992.9611 A27.0669,27.0669 0 0 0 -19018.846,33990.1315 A0.410105,0.410105 0 0 1 -19018.8589,33989.5295 L-19017.7028,33988.5748 A0.615157,0.615157 0 0 1 -19016.9015,33988.5902 A27.9692,27.9692 0 0 1 -19010.0284,33997.9602 A0.615157,0.615157 0 0 1 -19010.2545,33998.7292 L-19011.5123,33999.5451 A0.410105,0.410105 0 0 1 -19012.0826,33999.352 A27.0669,27.0669 0 0 0 -19013.9531,33995.8711 L-19014.4176,33996.2118 A26.1647,26.1647 0 0 1 -19012.7253,33999.3407 A2.70669,2.70669 0 0 1 -19013.3288,34002.4307 L-19019.8441,34008.5187 L-19020.1225,34008.7819 A3.60892,3.60892 0 0 1 -19025.0331,34008.8258 A28.8714,28.8714 0 0 1 -19031.7722,33999.6384 A3.60892,3.60892 0 0 1 -19030.2553,33994.9678 L-19029.9206,33994.7812 L-19022.1568,33990.3954 A2.70669,2.70669 0 0 1 -19019.0282,33990.7479 A26.1647,26.1647 0 0 1 -19016.5521,33993.3018 Z" style="stroke:#7f3f00;stroke-width:0.1;"/>
                        <!-- Circle -->
                        <circle cx="-19021.20666468142" cy="33994.478122191285" r="0.3229173125012913" style="stroke:#7f3f00;stroke-width:0.1;"/>
                        <!-- Circle -->
                        <circle cx="-19027.357370452573" cy="33998.989714975614" r="0.3229173125012913" style="stroke:#7f3f00;stroke-width:0.1;"/>
                        <!-- Circle -->
                        <circle cx="-19023.088335044824" cy="34004.809739020544" r="0.3229173125012913" style="stroke:#7f3f00;stroke-width:0.1;"/>
                        <!-- Circle -->
                        <circle cx="-19016.93762931044" cy="34000.29814482167" r="0.3229173125012913" style="stroke:#7f3f00;stroke-width:0.1;"/>
                    </g>
                </g>
                <!-- Block Reference: *U18 / entities: 1 -->
                <g>
                    <!-- Block Reference: chair_015 / entities: 8 -->
                    <g>
                        <!-- Arc -->
                        <path d="M-19003.8704,34016.8957 A26.1647,26.1647 0 0,1 -19002.7396,34020.3229" style="stroke:#7f3f00;stroke-width:0.1;"/>
                        <!-- Arc -->
                        <path d="M-19003.3233,34016.7152 A26.1647,26.1647 0 0,1 -19002.1925,34020.1424" style="stroke:#7f3f00;stroke-width:0.1;"/>
                        <!-- Polyline -->
                        <path d="M-19003.3614,34012.8561 A27.1619,27.1619 0 0 1 -18999.9265,34023.2663" style="stroke:#7f3f00;stroke-width:0.1;"/>
                        <!-- Polyline -->
                        <path d="M-19003.8704,34016.8957 L-19003.3233,34016.7152 A27.0669,27.0669 0 0 0 -19005.0723,34013.1716 A0.410105,0.410105 0 0 1 -19004.8985,34012.5951 L-19003.504,34012.0444 A0.615157,0.615157 0 0 1 -19002.7466,34012.3067 A27.9692,27.9692 0 0 1 -18999.1055,34023.342 A0.615157,0.615157 0 0 1 -18999.5581,34024.0035 L-19001.0065,34024.3908 A0.410105,0.410105 0 0 1 -19001.4893,34024.0309 A27.0669,27.0669 0 0 0 -19002.1925,34020.1424 L-19002.7396,34020.3229 A26.1647,26.1647 0 0 1 -19002.0969,34023.8215 A2.70669,2.70669 0 0 1 -19003.6258,34026.5737 L-19011.7035,34030.3505 L-19012.0496,34030.5147 A3.60892,3.60892 0 0 1 -19016.7335,34029.0391 A28.8714,28.8714 0 0 1 -19020.3036,34018.2189 A3.60892,3.60892 0 0 1 -19017.4177,34014.2456 L-19017.0417,34014.1716 L-19008.3026,34012.3996 A2.70669,2.70669 0 0 1 -19005.436,34013.7016 A26.1647,26.1647 0 0 1 -19003.8704,34016.8957 Z" style="stroke:#7f3f00;stroke-width:0.1;"/>
                        <!-- Circle -->
                        <circle cx="-19008.660607766935" cy="34016.57605545543" r="0.3229173125012913" style="stroke:#7f3f00;stroke-width:0.1;"/>
                        <!-- Circle -->
                        <circle cx="-19015.904435412463" cy="34018.96616256115" r="0.3229173125012913" style="stroke:#7f3f00;stroke-width:0.1;"/>
                        <!-- Circle -->
                        <circle cx="-19013.64282780718" cy="34025.82053884466" r="0.3229173125012913" style="stroke:#7f3f00;stroke-width:0.1;"/>
                        <!-- Circle -->
                        <circle cx="-19006.398999759505" cy="34023.430430382265" r="0.3229173125012913" style="stroke:#7f3f00;stroke-width:0.1;"/>
                    </g>
                </g>
                <!-- Block Reference: *U18 / entities: 1 -->
                <g>
                    <!-- Block Reference: chair_015 / entities: 8 -->
                    <g>
                        <!-- Arc -->
                        <path d="M-18999.1002,34043.2536 A26.1647,26.1647 0 0,1 -18999.0838,34046.8625" style="stroke:#7f3f00;stroke-width:0.1;"/>
                        <!-- Arc -->
                        <path d="M-18998.5242,34043.251 A26.1647,26.1647 0 0,1 -18998.5078,34046.8599" style="stroke:#7f3f00;stroke-width:0.1;"/>
                        <!-- Polyline -->
                        <path d="M-18997.3678,34039.569 A27.1619,27.1619 0 0 1 -18997.318,34050.5312" style="stroke:#7f3f00;stroke-width:0.1;"/>
                        <!-- Polyline -->
                        <path d="M-18999.1002,34043.2536 L-18998.5242,34043.251 A27.0669,27.0669 0 0 0 -18999.0925,34039.3404 A0.410105,0.410105 0 0 1 -18998.7491,34038.8459 L-18997.2526,34038.753 A0.615157,0.615157 0 0 1 -18996.6134,34039.2365 A27.9692,27.9692 0 0 1 -18996.5606,34050.8569 A0.615157,0.615157 0 0 1 -18997.1954,34051.3461 L-18998.6927,34051.2669 A0.410105,0.410105 0 0 1 -18999.0406,34050.7754 A27.0669,27.0669 0 0 0 -18998.5078,34046.8599 L-18999.0838,34046.8625 A26.1647,26.1647 0 0 1 -18999.5538,34050.3885 A2.70669,2.70669 0 0 1 -19001.8583,34052.5336 L-19010.7077,34053.6293 L-19011.0877,34053.6786 A3.60892,3.60892 0 0 1 -19015.0863,34050.8278 A28.8714,28.8714 0 0 1 -19015.1381,34039.4339 A3.60892,3.60892 0 0 1 -19011.1655,34036.5469 L-19010.7851,34036.5927 L-19001.9261,34037.608 A2.70669,2.70669 0 0 1 -18999.6022,34039.732 A26.1647,26.1647 0 0 1 -18999.1002,34043.2536 Z" style="stroke:#7f3f00;stroke-width:0.1;"/>
                        <!-- Circle -->
                        <circle cx="-19003.557235503784" cy="34041.46938368192" r="0.3229173125012913" style="stroke:#7f3f00;stroke-width:0.1;"/>
                        <!-- Circle -->
                        <circle cx="-19011.18510870303" cy="34041.50404477267" r="0.3229173125012913" style="stroke:#7f3f00;stroke-width:0.1;"/>
                        <!-- Circle -->
                        <circle cx="-19011.15231081017" cy="34048.721819186874" r="0.3229173125012913" style="stroke:#7f3f00;stroke-width:0.1;"/>
                        <!-- Circle -->
                        <circle cx="-19003.524436809224" cy="34048.68715693012" r="0.3229173125012913" style="stroke:#7f3f00;stroke-width:0.1;"/>
                    </g>
                </g>
                <!-- Block Reference: *U18 / entities: 1 -->
                <g>
                    <!-- Block Reference: chair_015 / entities: 8 -->
                    <g>
                        <!-- Arc -->
                        <path d="M-19002.7086,34069.7956 A26.1647,26.1647 0 0,1 -19003.8082,34073.2329" style="stroke:#7f3f00;stroke-width:0.1;"/>
                        <!-- Arc -->
                        <path d="M-19002.1599,34069.9711 A26.1647,26.1647 0 0,1 -19003.2595,34073.4084" style="stroke:#7f3f00;stroke-width:0.1;"/>
                        <!-- Polyline -->
                        <path d="M-18999.9224,34066.8266 A27.1619,27.1619 0 0 1 -19003.2625,34077.2677" style="stroke:#7f3f00;stroke-width:0.1;"/>
                        <!-- Polyline -->
                        <path d="M-19002.7086,34069.7956 L-19002.1599,34069.9711 A27.0669,27.0669 0 0 0 -19001.492,34066.0763 A0.410105,0.410105 0 0 1 -19001.0126,34065.712 L-18999.5607,34066.0862 A0.615157,0.615157 0 0 1 -18999.1021,34066.7435 A27.9692,27.9692 0 0 1 -19002.6428,34077.8115 A0.615157,0.615157 0 0 1 -19003.3977,34078.0806 L-19004.7972,34077.5426 A0.410105,0.410105 0 0 1 -19004.9762,34076.9677 A27.0669,27.0669 0 0 0 -19003.2595,34073.4084 L-19003.8082,34073.2329 A26.1647,26.1647 0 0 1 -19005.3448,34076.4411 A2.70669,2.70669 0 0 1 -19008.1994,34077.7691 L-19016.9542,34076.0766 L-19017.3308,34076.006 A3.60892,3.60892 0 0 1 -19020.2528,34072.0591 A28.8714,28.8714 0 0 1 -19016.7811,34061.2069 A3.60892,3.60892 0 0 1 -19012.1109,34059.6887 L-19011.7632,34059.8498 L-19003.6516,34063.553 A2.70669,2.70669 0 0 1 -19002.0978,34066.2912 A26.1647,26.1647 0 0 1 -19002.7086,34069.7956 Z" style="stroke:#7f3f00;stroke-width:0.1;"/>
                        <!-- Circle -->
                        <circle cx="-19006.396101526378" cy="34066.72137446194" r="0.3229173125012913" style="stroke:#7f3f00;stroke-width:0.1;"/>
                        <!-- Circle -->
                        <circle cx="-19013.661350904076" cy="34064.39719666865" r="0.3229173125012913" style="stroke:#7f3f00;stroke-width:0.1;"/>
                        <!-- Circle -->
                        <circle cx="-19015.860573209906" cy="34071.2718431647" r="0.3229173125012913" style="stroke:#7f3f00;stroke-width:0.1;"/>
                        <!-- Circle -->
                        <circle cx="-19008.59532270943" cy="34073.5960200968" r="0.3229173125012913" style="stroke:#7f3f00;stroke-width:0.1;"/>
                    </g>
                </g>
                <!-- Block Reference: *U18 / entities: 1 -->
                <g>
                    <!-- Block Reference: chair_015 / entities: 8 -->
                    <g>
                        <!-- Arc -->
                        <path d="M-19014.3423,34093.9234 A26.1647,26.1647 0 0,1 -19016.4502,34096.8527" style="stroke:#7f3f00;stroke-width:0.1;"/>
                        <!-- Arc -->
                        <path d="M-19013.8747,34094.2599 A26.1647,26.1647 0 0,1 -19015.9827,34097.1892" style="stroke:#7f3f00;stroke-width:0.1;"/>
                        <!-- Polyline -->
                        <path d="M-19010.775,34091.9608 A27.1619,27.1619 0 0 1 -19017.1781,34100.8587" style="stroke:#7f3f00;stroke-width:0.1;"/>
                        <!-- Polyline -->
                        <path d="M-19014.3423,34093.9234 L-19013.8747,34094.2599 A27.0669,27.0669 0 0 0 -19012.0359,34090.7621 A0.410105,0.410105 0 0 1 -19011.4674,34090.5639 L-19010.2022,34091.3683 A0.615157,0.615157 0 0 1 -19009.9692,34092.1352 A27.9692,27.9692 0 0 1 -19016.7567,34101.5673 A0.615157,0.615157 0 0 1 -19017.5579,34101.59 L-19018.7226,34100.6458 A0.410105,0.410105 0 0 1 -19018.7152,34100.0438 A27.0669,27.0669 0 0 0 -19015.9827,34097.1892 L-19016.4502,34096.8527 A26.1647,26.1647 0 0 1 -19018.903,34099.4291 A2.70669,2.70669 0 0 1 -19022.0282,34099.8099 L-19029.8316,34095.4949 L-19030.168,34095.3114 A3.60892,3.60892 0 0 1 -19031.7272,34090.6547 A28.8714,28.8714 0 0 1 -19025.072,34081.4064 A3.60892,3.60892 0 0 1 -19020.1612,34081.4058 L-19019.8803,34081.6664 L-19013.3101,34087.695 A2.70669,2.70669 0 0 1 -19012.6784,34090.7793 A26.1647,26.1647 0 0 1 -19014.3423,34093.9234 Z" style="stroke:#7f3f00;stroke-width:0.1;"/>
                        <!-- Circle -->
                        <circle cx="-19016.899317848878" cy="34089.86018699696" r="0.3229173125012913" style="stroke:#7f3f00;stroke-width:0.1;"/>
                        <!-- Circle -->
                        <circle cx="-19023.09077017597" cy="34085.40467703554" r="0.3229173125012913" style="stroke:#7f3f00;stroke-width:0.1;"/>
                        <!-- Circle -->
                        <circle cx="-19027.306737478313" cy="34091.263257315935" r="0.3229173125012913" style="stroke:#7f3f00;stroke-width:0.1;"/>
                        <!-- Circle -->
                        <circle cx="-19021.11528381727" cy="34095.71876680526" r="0.3229173125012913" style="stroke:#7f3f00;stroke-width:0.1;"/>
                    </g>
                </g>
                <!-- Block Reference: *U18 / entities: 1 -->
                <g>
                    <!-- Block Reference: chair_015 / entities: 8 -->
                    <g>
                        <!-- Arc -->
                        <path d="M-19032.8625,34113.2754 A26.1647,26.1647 0 0,1 -19035.7725,34115.4099" style="stroke:#7f3f00;stroke-width:0.1;"/>
                        <!-- Arc -->
                        <path d="M-19032.5218,34113.7399 A26.1647,26.1647 0 0,1 -19035.4318,34115.8744" style="stroke:#7f3f00;stroke-width:0.1;"/>
                        <!-- Polyline -->
                        <path d="M-19028.8633,34112.5112 A27.1619,27.1619 0 0 1 -19037.7026,34118.9949" style="stroke:#7f3f00;stroke-width:0.1;"/>
                        <!-- Polyline -->
                        <path d="M-19032.8625,34113.2754 L-19032.5218,34113.7399 A27.0669,27.0669 0 0 0 -19029.6921,34110.9815 A0.410105,0.410105 0 0 1 -19029.0901,34110.9686 L-19028.1354,34112.1247 A0.615157,0.615157 0 0 1 -19028.1508,34112.926 A27.9692,27.9692 0 0 1 -19037.5209,34119.7991 A0.615157,0.615157 0 0 1 -19038.2898,34119.573 L-19039.1058,34118.3152 A0.410105,0.410105 0 0 1 -19038.9127,34117.7449 A27.0669,27.0669 0 0 0 -19035.4318,34115.8744 L-19035.7725,34115.4099 A26.1647,26.1647 0 0 1 -19038.9013,34117.1022 A2.70669,2.70669 0 0 1 -19041.9913,34116.4987 L-19048.0793,34109.9834 L-19048.3425,34109.705 A3.60892,3.60892 0 0 1 -19048.3865,34104.7944 A28.8714,28.8714 0 0 1 -19039.1991,34098.0553 A3.60892,3.60892 0 0 1 -19034.5284,34099.5722 L-19034.3419,34099.9069 L-19029.9561,34107.6707 A2.70669,2.70669 0 0 1 -19030.3085,34110.7993 A26.1647,26.1647 0 0 1 -19032.8625,34113.2754 Z" style="stroke:#7f3f00;stroke-width:0.1;"/>
                        <!-- Circle -->
                        <circle cx="-19034.03875647743" cy="34108.620833098474" r="0.32291731250129124" style="stroke:#7f3f00;stroke-width:0.1;"/>
                        <!-- Circle -->
                        <circle cx="-19038.550349261757" cy="34102.47012732732" r="0.32291731250129124" style="stroke:#7f3f00;stroke-width:0.1;"/>
                        <!-- Circle -->
                        <circle cx="-19044.370373306687" cy="34106.739162735066" r="0.32291731250129124" style="stroke:#7f3f00;stroke-width:0.1;"/>
                        <!-- Circle -->
                        <circle cx="-19039.858779107813" cy="34112.88986846945" r="0.32291731250129124" style="stroke:#7f3f00;stroke-width:0.1;"/>
                    </g>
                </g>
                <!-- Block Reference: *U18 / entities: 1 -->
                <g>
                    <!-- Block Reference: chair_015 / entities: 8 -->
                    <g>
                        <!-- Arc -->
                        <path d="M-19056.4563,34125.9571 A26.1647,26.1647 0 0,1 -19059.8835,34127.0879" style="stroke:#7f3f00;stroke-width:0.1;"/>
                        <!-- Arc -->
                        <path d="M-19056.2758,34126.5042 A26.1647,26.1647 0 0,1 -19059.703,34127.635" style="stroke:#7f3f00;stroke-width:0.1;"/>
                        <!-- Polyline -->
                        <path d="M-19052.4167,34126.4661 A27.1619,27.1619 0 0 1 -19062.827,34129.901" style="stroke:#7f3f00;stroke-width:0.1;"/>
                        <!-- Polyline -->
                        <path d="M-19056.4563,34125.9571 L-19056.2758,34126.5042 A27.0669,27.0669 0 0 0 -19052.7323,34124.7552 A0.410105,0.410105 0 0 1 -19052.1558,34124.929 L-19051.605,34126.3235 A0.615157,0.615157 0 0 1 -19051.8673,34127.0809 A27.9692,27.9692 0 0 1 -19062.9026,34130.722 A0.615157,0.615157 0 0 1 -19063.5641,34130.2694 L-19063.9514,34128.821 A0.410105,0.410105 0 0 1 -19063.5916,34128.3382 A27.0669,27.0669 0 0 0 -19059.703,34127.635 L-19059.8835,34127.0879 A26.1647,26.1647 0 0 1 -19063.3821,34127.7305 A2.70669,2.70669 0 0 1 -19066.1344,34126.2017 L-19069.9111,34118.124 L-19070.0754,34117.7779 A3.60892,3.60892 0 0 1 -19068.5997,34113.094 A28.8714,28.8714 0 0 1 -19057.7795,34109.5239 A3.60892,3.60892 0 0 1 -19053.8062,34112.4098 L-19053.7322,34112.7858 L-19051.9602,34121.5249 A2.70669,2.70669 0 0 1 -19053.2622,34124.3915 A26.1647,26.1647 0 0 1 -19056.4563,34125.9571 Z" style="stroke:#7f3f00;stroke-width:0.1;"/>
                        <!-- Circle -->
                        <circle cx="-19056.136689741572" cy="34121.16689001296" r="0.3229173125012913" style="stroke:#7f3f00;stroke-width:0.1;"/>
                        <!-- Circle -->
                        <circle cx="-19058.526796847294" cy="34113.92306236743" r="0.3229173125012913" style="stroke:#7f3f00;stroke-width:0.1;"/>
                        <!-- Circle -->
                        <circle cx="-19065.3811731308" cy="34116.18466997271" r="0.3229173125012913" style="stroke:#7f3f00;stroke-width:0.1;"/>
                        <!-- Circle -->
                        <circle cx="-19062.991064668404" cy="34123.42849802039" r="0.3229173125012913" style="stroke:#7f3f00;stroke-width:0.1;"/>
                    </g>
                </g>
            </g>
        </g>
        <!-- Block Reference: 20 seater doughtnut / entities: 24 -->
        <g>
            <!-- Circle -->
            <circle cx="2550.5585670775035" cy="2534.0499262169906" r="1675" style="stroke:#000000;stroke-width:0.1;"/>
            <!-- Circle -->
            <circle cx="2550.5585670775035" cy="2534.0499262169906" r="1075" style="stroke:#000000;stroke-width:0.1;"/>
            <!-- Circle -->
            <circle cx="2550.5585670775035" cy="2534.0499262169906" r="1095" style="stroke:#000000;stroke-width:0.1;"/>
            <!-- Circle -->
            <circle cx="2550.5585670775035" cy="2534.0499262169906" r="1655" style="stroke:#000000;stroke-width:0.1;"/>
            <!-- Block Reference: chair_015 / entities: 8 -->
            <g>
                <!-- Arc -->
                <path d="M2598.306,4708.1335 A664.5833,664.5833 0 0,1 2506.6403,4708.5501" style="stroke:#000000;stroke-width:0.1;"/>
                <!-- Arc -->
                <path d="M2598.3725,4722.765 A664.5833,664.5833 0 0,1 2506.7068,4723.1815" style="stroke:#000000;stroke-width:0.1;"/>
                <!-- Polyline -->
                <path d="M2691.895,4752.1367 A689.911,689.911 0 0 1 2413.4551,4753.402" style="stroke:#000000;stroke-width:0.1;"/>
                <!-- Polyline -->
                <path d="M2598.306,4708.1335 L2598.3725,4722.765 A687.5,687.5 0 0 0 2697.7008,4708.3293 A10.4167,10.4167 0 0 1 2710.2628,4717.0518 L2712.6212,4755.062 A15.625,15.625 0 0 1 2700.3415,4771.2988 A710.417,710.417 0 0 1 2405.1831,4772.64 A15.625,15.625 0 0 1 2392.7564,4756.5155 L2394.7691,4718.4855 A10.4167,10.4167 0 0 1 2407.2514,4709.6491 A687.5,687.5 0 0 0 2506.7068,4723.1815 L2506.6403,4708.5501 A664.583,664.583 0 0 1 2417.0797,4696.6128 A68.75,68.75 0 0 1 2362.5946,4638.0779 L2334.7627,4413.3037 L2333.5117,4403.652 A91.6667,91.6667 0 0 1 2405.9217,4302.0877 A733.333,733.333 0 0 1 2695.3264,4300.7726 A91.6667,91.6667 0 0 1 2768.6565,4401.6746 L2767.4933,4411.3373 L2741.7053,4636.3551 A68.75,68.75 0 0 1 2687.7544,4695.3829 A664.583,664.583 0 0 1 2598.306,4708.1335 Z" style="stroke:#000000;stroke-width:0.1;"/>
                <!-- Circle -->
                <circle cx="2643.6253879273427" cy="4594.925421659544" r="8.202099737532802" style="stroke:#000000;stroke-width:0.1;"/>
                <!-- Circle -->
                <circle cx="2642.7449962223327" cy="4401.177442398741" r="8.202099737532802" style="stroke:#000000;stroke-width:0.1;"/>
                <!-- Circle -->
                <circle cx="2459.41352610146" cy="4402.010508877418" r="8.202099737532802" style="stroke:#000000;stroke-width:0.1;"/>
                <!-- Circle -->
                <circle cx="2460.2939474229497" cy="4595.758508501385" r="8.202099737532802" style="stroke:#000000;stroke-width:0.1;"/>
            </g>
            <!-- Block Reference: chair_015 / entities: 8 -->
            <g>
                <!-- Arc -->
                <path d="M1924.1403,4616.4811 A664.5833,664.5833 0 0,1 1836.8323,4588.551" style="stroke:#000000;stroke-width:0.1;"/>
                <!-- Arc -->
                <path d="M1919.6822,4630.417 A664.5833,664.5833 0 0,1 1832.3742,4602.4868" style="stroke:#000000;stroke-width:0.1;"/>
                <!-- Polyline -->
                <path d="M1999.551,4687.2512 A689.911,689.911 0 0 1 1734.3479,4602.4118" style="stroke:#000000;stroke-width:0.1;"/>
                <!-- Polyline -->
                <path d="M1924.1403,4616.4811 L1919.6822,4630.417 A687.5,687.5 0 0 0 2018.6099,4647.3819 A10.4167,10.4167 0 0 1 2027.8617,4659.5594 L2018.3588,4696.438 A15.625,15.625 0 0 1 2001.6627,4708.0855 A710.417,710.417 0 0 1 1720.5359,4618.1521 A15.625,15.625 0 0 1 1713.7001,4598.9767 L1727.3663,4563.43 A10.4167,10.4167 0 0 1 1741.9682,4558.8833 A687.5,687.5 0 0 0 1832.3742,4602.4868 L1836.8323,4588.551 A664.583,664.583 0 0 1 1755.3439,4549.5222 A68.75,68.75 0 0 1 1721.6138,4477.0154 L1764.6032,4254.6419 L1766.3959,4245.076 A91.6667,91.6667 0 0 1 1866.6471,4170.8585 A733.333,733.333 0 0 1 2142.2937,4259.0388 A91.6667,91.6667 0 0 1 2180.8543,4377.6625 L2176.762,4386.4928 L2082.7019,4592.5286 A68.75,68.75 0 0 1 2013.151,4631.9955 A664.583,664.583 0 0 1 1924.1403,4616.4811 Z" style="stroke:#000000;stroke-width:0.1;"/>
                <!-- Circle -->
                <circle cx="2002.2248221149785" cy="4522.818224685681" r="8.202099737532802" style="stroke:#000000;stroke-width:0.1;"/>
                <!-- Circle -->
                <circle cx="2061.2589380644204" cy="4338.280890492122" r="8.202099737532802" style="stroke:#000000;stroke-width:0.1;"/>
                <!-- Circle -->
                <circle cx="1886.6429170646297" cy="4282.420643924081" r="8.202099737532802" style="stroke:#000000;stroke-width:0.1;"/>
                <!-- Circle -->
                <circle cx="1827.6088229895686" cy="4466.958006636156" r="8.202099737532802" style="stroke:#000000;stroke-width:0.1;"/>
            </g>
            <!-- Block Reference: chair_015 / entities: 8 -->
            <g>
                <!-- Arc -->
                <path d="M1311.2928,4320.9857 A664.5833,664.5833 0 0,1 1236.8888,4267.443" style="stroke:#000000;stroke-width:0.1;"/>
                <!-- Arc -->
                <path d="M1302.7464,4332.8619 A664.5833,664.5833 0 0,1 1228.3425,4279.3192" style="stroke:#000000;stroke-width:0.1;"/>
                <!-- Polyline -->
                <path d="M1361.1434,4411.5953 A689.911,689.911 0 0 1 1135.1371,4248.956" style="stroke:#000000;stroke-width:0.1;"/>
                <!-- Polyline -->
                <path d="M1311.2928,4320.9857 L1302.7464,4332.8619 A687.5,687.5 0 0 0 1391.5898,4379.5669 A10.4167,10.4167 0 0 1 1396.6257,4394.0074 L1376.1918,4426.1444 A15.625,15.625 0 0 1 1356.7136,4432.0625 A710.417,710.417 0 0 1 1117.1371,4259.6578 A15.625,15.625 0 0 1 1116.5614,4239.3085 L1140.5433,4209.7247 A10.4167,10.4167 0 0 1 1155.8355,4209.9128 A687.5,687.5 0 0 0 1228.3425,4279.3192 L1236.8888,4267.443 A664.583,664.583 0 0 1 1171.4493,4205.1432 A68.75,68.75 0 0 1 1161.7759,4125.7619 L1271.3784,3927.5566 L1276.0394,3919.0128 A91.6667,91.6667 0 0 1 1394.3184,3879.4071 A733.333,733.333 0 0 1 1629.2247,4048.451 A91.6667,91.6667 0 0 1 1629.2413,4173.1848 L1622.6206,4180.3183 L1469.4955,4347.2038 A68.75,68.75 0 0 1 1391.1527,4363.2467 A664.583,664.583 0 0 1 1311.2928,4320.9857 Z" style="stroke:#000000;stroke-width:0.1;"/>
                <!-- Circle -->
                <circle cx="1414.4989837254107" cy="4256.0365300941885" r="8.202099737532802" style="stroke:#000000;stroke-width:0.1;"/>
                <!-- Circle -->
                <circle cx="1527.6689367453073" cy="4098.773640985946" r="8.202099737532802" style="stroke:#000000;stroke-width:0.1;"/>
                <!-- Circle -->
                <circle cx="1378.8609976234293" cy="3991.688071506491" r="8.202099737532802" style="stroke:#000000;stroke-width:0.1;"/>
                <!-- Circle -->
                <circle cx="1265.6910565945873" cy="4148.950994497009" r="8.202099737532802" style="stroke:#000000;stroke-width:0.1;"/>
            </g>
            <!-- Block Reference: chair_015 / entities: 8 -->
            <g>
                <!-- Arc -->
                <path d="M819.7532,3850.5727 A664.5833,664.5833 0 0,1 765.5365,3776.6584" style="stroke:#000000;stroke-width:0.1;"/>
                <!-- Arc -->
                <path d="M807.9552,3859.2266 A664.5833,664.5833 0 0,1 753.7385,3785.3124" style="stroke:#000000;stroke-width:0.1;"/>
                <!-- Polyline -->
                <path d="M839.1641,3952.1522 A689.911,689.911 0 0 1 674.4776,3727.6333" style="stroke:#000000;stroke-width:0.1;"/>
                <!-- Polyline -->
                <path d="M819.7532,3850.5727 L807.9552,3859.2266 A687.5,687.5 0 0 0 878.0177,3931.0998 A10.4167,10.4167 0 0 1 878.3447,3946.3897 L848.9801,3970.6395 A15.625,15.625 0 0 1 828.6264,3970.2487 A710.417,710.417 0 0 1 654.0516,3732.2489 A15.625,15.625 0 0 1 659.7923,3712.7177 L691.7424,3691.9926 A10.4167,10.4167 0 0 1 706.228,3696.8971 A687.5,687.5 0 0 0 753.7385,3785.3124 L765.5365,3776.6584 A664.583,664.583 0 0 1 722.5515,3697.1859 A68.75,68.75 0 0 1 737.8818,3618.7005 L903.3687,3464.0651 L910.4418,3457.3798 A91.6667,91.6667 0 0 1 1035.1706,3456.2628 A733.333,733.333 0 0 1 1206.3423,3689.6231 A91.6667,91.6667 0 0 1 1167.8132,3808.2571 L1159.3122,3812.9956 L962.1111,3924.3949 A68.75,68.75 0 0 1 882.6452,3915.4433 A664.583,664.583 0 0 1 819.7532,3850.5727 Z" style="stroke:#000000;stroke-width:0.1;"/>
                <!-- Circle -->
                <circle cx="937.9785727468698" cy="3820.6947889290386" r="8.202099737532802" style="stroke:#000000;stroke-width:0.1;"/>
                <!-- Circle -->
                <circle cx="1094.2064993342065" cy="3706.100332207003" r="8.202099737532802" style="stroke:#000000;stroke-width:0.1;"/>
                <!-- Circle -->
                <circle cx="985.7729999773728" cy="3558.2717214658187" r="8.202099737532802" style="stroke:#000000;stroke-width:0.1;"/>
                <!-- Circle -->
                <circle cx="829.5450743240071" cy="3672.86621411725" r="8.202099737532802" style="stroke:#000000;stroke-width:0.1;"/>
            </g>
            <!-- Block Reference: chair_015 / entities: 8 -->
            <g>
                <!-- Arc -->
                <path d="M497.637,3251.2892 A664.5833,664.5833 0 0,1 468.9146,3164.2387" style="stroke:#000000;stroke-width:0.1;"/>
                <!-- Arc -->
                <path d="M483.7422,3255.8738 A664.5833,664.5833 0 0,1 455.0198,3168.8233" style="stroke:#000000;stroke-width:0.1;"/>
                <!-- Polyline -->
                <path d="M484.708,3353.8954 A689.911,689.911 0 0 1 397.462,3089.4743" style="stroke:#000000;stroke-width:0.1;"/>
                <!-- Polyline -->
                <path d="M497.637,3251.2892 L483.7422,3255.8738 A687.5,687.5 0 0 0 528.1655,3345.8798 A10.4167,10.4167 0 0 1 523.7517,3360.5224 L488.3307,3374.5111 A15.625,15.625 0 0 1 469.0939,3367.8499 A710.417,710.417 0 0 1 376.6094,3087.552 A15.625,15.625 0 0 1 388.1046,3070.7507 L424.8953,3060.9131 A10.4167,10.4167 0 0 1 437.1564,3070.0538 A687.5,687.5 0 0 0 455.0198,3168.8233 L468.9146,3164.2387 A664.583,664.583 0 0 1 452.5918,3075.3727 A68.75,68.75 0 0 1 491.425,3005.466 L696.5974,2909.5372 L705.3902,2905.3649 A91.6667,91.6667 0 0 1 824.3595,2942.8458 A733.333,733.333 0 0 1 915.0412,3217.6797 A91.6667,91.6667 0 0 1 841.7379,3318.6012 L832.1887,3320.4808 L610.2151,3365.4893 A68.75,68.75 0 0 1 537.4047,3332.4195 A664.583,664.583 0 0 1 497.637,3251.2892 Z" style="stroke:#000000;stroke-width:0.1;"/>
                <!-- Circle -->
                <circle cx="619.3087271188997" cy="3259.4072840197477" r="8.202099737532802" style="stroke:#000000;stroke-width:0.1;"/>
                <!-- Circle -->
                <circle cx="803.3019493153406" cy="3198.6985635344026" r="8.202099737532802" style="stroke:#000000;stroke-width:0.1;"/>
                <!-- Circle -->
                <circle cx="745.8571161411965" cy="3024.597405933331" r="8.202099737532802" style="stroke:#000000;stroke-width:0.1;"/>
                <!-- Circle -->
                <circle cx="561.8638837302278" cy="3085.306160878179" r="8.202099737532802" style="stroke:#000000;stroke-width:0.1;"/>
            </g>
            <!-- Block Reference: chair_015 / entities: 8 -->
            <g>
                <!-- Arc -->
                <path d="M376.475,2581.7974 A664.5833,664.5833 0 0,1 376.0584,2490.1317" style="stroke:#000000;stroke-width:0.1;"/>
                <!-- Arc -->
                <path d="M361.8435,2581.8639 A664.5833,664.5833 0 0,1 361.427,2490.1981" style="stroke:#000000;stroke-width:0.1;"/>
                <!-- Polyline -->
                <path d="M332.4718,2675.3864 A689.911,689.911 0 0 1 331.2065,2396.9465" style="stroke:#000000;stroke-width:0.1;"/>
                <!-- Polyline -->
                <path d="M376.475,2581.7974 L361.8435,2581.8639 A687.5,687.5 0 0 0 376.2792,2681.1922 A10.4167,10.4167 0 0 1 367.5567,2693.7542 L329.5465,2696.1125 A15.625,15.625 0 0 1 313.3097,2683.8328 A710.417,710.417 0 0 1 311.9685,2388.6745 A15.625,15.625 0 0 1 328.093,2376.2477 L366.123,2378.2605 A10.4167,10.4167 0 0 1 374.9594,2390.7428 A687.5,687.5 0 0 0 361.427,2490.1981 L376.0584,2490.1317 A664.583,664.583 0 0 1 387.9957,2400.5711 A68.75,68.75 0 0 1 446.5306,2346.086 L671.3048,2318.2541 L680.9565,2317.003 A91.6667,91.6667 0 0 1 782.5208,2389.4131 A733.333,733.333 0 0 1 783.8359,2678.8178 A91.6667,91.6667 0 0 1 682.9339,2752.1479 L673.2712,2750.9846 L448.2534,2725.1966 A68.75,68.75 0 0 1 389.2256,2671.2458 A664.583,664.583 0 0 1 376.475,2581.7974 Z" style="stroke:#000000;stroke-width:0.1;"/>
                <!-- Circle -->
                <circle cx="489.68307163495047" cy="2627.116747066837" r="8.202099737532802" style="stroke:#000000;stroke-width:0.1;"/>
                <!-- Circle -->
                <circle cx="683.4310508957569" cy="2626.236355361816" r="8.202099737532802" style="stroke:#000000;stroke-width:0.1;"/>
                <!-- Circle -->
                <circle cx="682.5979844170797" cy="2442.9048852409433" r="8.202099737532802" style="stroke:#000000;stroke-width:0.1;"/>
                <!-- Circle -->
                <circle cx="488.8499847931089" cy="2443.7853065624367" r="8.202099737532802" style="stroke:#000000;stroke-width:0.1;"/>
            </g>
            <!-- Block Reference: chair_015 / entities: 8 -->
            <g>
                <!-- Arc -->
                <path d="M468.1274,1907.6317 A664.5833,664.5833 0 0,1 496.0575,1820.3237" style="stroke:#000000;stroke-width:0.1;"/>
                <!-- Arc -->
                <path d="M454.1915,1903.1735 A664.5833,664.5833 0 0,1 482.1216,1815.8655" style="stroke:#000000;stroke-width:0.1;"/>
                <!-- Polyline -->
                <path d="M397.3573,1983.0423 A689.911,689.911 0 0 1 482.1966,1717.8393" style="stroke:#000000;stroke-width:0.1;"/>
                <!-- Polyline -->
                <path d="M468.1274,1907.6317 L454.1915,1903.1735 A687.5,687.5 0 0 0 437.2266,2002.1012 A10.4167,10.4167 0 0 1 425.049,2011.353 L388.1705,2001.8502 A15.625,15.625 0 0 1 376.523,1985.154 A710.417,710.417 0 0 1 466.4564,1704.0272 A15.625,15.625 0 0 1 485.6318,1697.1915 L521.1785,1710.8577 A10.4167,10.4167 0 0 1 525.7251,1725.4596 A687.5,687.5 0 0 0 482.1216,1815.8655 L496.0575,1820.3237 A664.583,664.583 0 0 1 535.0863,1738.8353 A68.75,68.75 0 0 1 607.5931,1705.1052 L829.9666,1748.0945 L839.5325,1749.8873 A91.6667,91.6667 0 0 1 913.75,1850.1384 A733.333,733.333 0 0 1 825.5697,2125.785 A91.6667,91.6667 0 0 1 706.946,2164.3456 L698.1156,2160.2534 L492.0799,2066.1932 A68.75,68.75 0 0 1 452.613,1996.6423 A664.583,664.583 0 0 1 468.1274,1907.6317 Z" style="stroke:#000000;stroke-width:0.1;"/>
                <!-- Circle -->
                <circle cx="561.7902686088055" cy="1985.7161812544691" r="8.202099737532802" style="stroke:#000000;stroke-width:0.1;"/>
                <!-- Circle -->
                <circle cx="746.3276028023683" cy="2044.7502972039074" r="8.202099737532802" style="stroke:#000000;stroke-width:0.1;"/>
                <!-- Circle -->
                <circle cx="802.1878493703989" cy="1870.1342762041277" r="8.202099737532802" style="stroke:#000000;stroke-width:0.1;"/>
                <!-- Circle -->
                <circle cx="617.6504866583273" cy="1811.100182129063" r="8.202099737532802" style="stroke:#000000;stroke-width:0.1;"/>
            </g>
            <!-- Block Reference: chair_015 / entities: 8 -->
            <g>
                <!-- Arc -->
                <path d="M763.6227,1294.7842 A664.5833,664.5833 0 0,1 817.1655,1220.3802" style="stroke:#000000;stroke-width:0.1;"/>
                <!-- Arc -->
                <path d="M751.7466,1286.2378 A664.5833,664.5833 0 0,1 805.2893,1211.8338" style="stroke:#000000;stroke-width:0.1;"/>
                <!-- Polyline -->
                <path d="M673.0132,1344.6348 A689.911,689.911 0 0 1 835.6524,1118.6285" style="stroke:#000000;stroke-width:0.1;"/>
                <!-- Polyline -->
                <path d="M763.6227,1294.7842 L751.7466,1286.2378 A687.5,687.5 0 0 0 705.0416,1375.0812 A10.4167,10.4167 0 0 1 690.6011,1380.1171 L658.4641,1359.6832 A15.625,15.625 0 0 1 652.546,1340.205 A710.417,710.417 0 0 1 824.9507,1100.6284 A15.625,15.625 0 0 1 845.3,1100.0528 L874.8838,1124.0346 A10.4167,10.4167 0 0 1 874.6957,1139.3269 A687.5,687.5 0 0 0 805.2893,1211.8338 L817.1655,1220.3802 A664.583,664.583 0 0 1 879.4653,1154.9407 A68.75,68.75 0 0 1 958.8466,1145.2673 L1157.0519,1254.8698 L1165.5957,1259.5308 A91.6667,91.6667 0 0 1 1205.2014,1377.8098 A733.333,733.333 0 0 1 1036.1575,1612.7161 A91.6667,91.6667 0 0 1 911.4237,1612.7326 L904.2901,1606.1119 L737.4047,1452.9869 A68.75,68.75 0 0 1 721.3618,1374.6441 A664.583,664.583 0 0 1 763.6227,1294.7842 Z" style="stroke:#000000;stroke-width:0.1;"/>
                <!-- Circle -->
                <circle cx="828.571963200302" cy="1397.9903428648904" r="8.2020997375328" style="stroke:#000000;stroke-width:0.1;"/>
                <!-- Circle -->
                <circle cx="985.8348523085442" cy="1511.1602958847834" r="8.2020997375328" style="stroke:#000000;stroke-width:0.1;"/>
                <!-- Circle -->
                <circle cx="1092.9204217880033" cy="1362.3523567629127" r="8.2020997375328" style="stroke:#000000;stroke-width:0.1;"/>
                <!-- Circle -->
                <circle cx="935.6574987974745" cy="1249.1824157340743" r="8.2020997375328" style="stroke:#000000;stroke-width:0.1;"/>
            </g>
            <!-- Block Reference: chair_015 / entities: 8 -->
            <g>
                <!-- Arc -->
                <path d="M1234.0358,803.2446 A664.5833,664.5833 0 0,1 1307.9501,749.0279" style="stroke:#000000;stroke-width:0.1;"/>
                <!-- Arc -->
                <path d="M1225.3819,791.4466 A664.5833,664.5833 0 0,1 1299.2961,737.2298" style="stroke:#000000;stroke-width:0.1;"/>
                <!-- Polyline -->
                <path d="M1132.4563,822.6555 A689.911,689.911 0 0 1 1356.9752,657.969" style="stroke:#000000;stroke-width:0.1;"/>
                <!-- Polyline -->
                <path d="M1234.0358,803.2446 L1225.3819,791.4466 A687.5,687.5 0 0 0 1153.5087,861.509 A10.4167,10.4167 0 0 1 1138.2188,861.8361 L1113.969,832.4714 A15.625,15.625 0 0 1 1114.3598,812.1178 A710.417,710.417 0 0 1 1352.3595,637.5429 A15.625,15.625 0 0 1 1371.8908,643.2837 L1392.6159,675.2337 A10.4167,10.4167 0 0 1 1387.7114,689.7194 A687.5,687.5 0 0 0 1299.2961,737.2298 L1307.9501,749.0279 A664.583,664.583 0 0 1 1387.4226,706.0429 A68.75,68.75 0 0 1 1465.908,721.3731 L1620.5434,886.8601 L1627.2287,893.9331 A91.6667,91.6667 0 0 1 1628.3457,1018.6619 A733.333,733.333 0 0 1 1394.9854,1189.8337 A91.6667,91.6667 0 0 1 1276.3514,1151.3046 L1271.6129,1142.8035 L1160.2136,945.6025 A68.75,68.75 0 0 1 1169.1652,866.1366 A664.583,664.583 0 0 1 1234.0358,803.2446 Z" style="stroke:#000000;stroke-width:0.1;"/>
                <!-- Circle -->
                <circle cx="1263.9137043654628" cy="921.4699318863641" r="8.202099737532803" style="stroke:#000000;stroke-width:0.1;"/>
                <!-- Circle -->
                <circle cx="1378.5081610874913" cy="1077.6978584737008" r="8.202099737532803" style="stroke:#000000;stroke-width:0.1;"/>
                <!-- Circle -->
                <circle cx="1526.3367718286754" cy="969.2643591168599" r="8.202099737532803" style="stroke:#000000;stroke-width:0.1;"/>
                <!-- Circle -->
                <circle cx="1411.7422791772406" cy="813.0364334634978" r="8.202099737532803" style="stroke:#000000;stroke-width:0.1;"/>
            </g>
            <!-- Block Reference: chair_015 / entities: 8 -->
            <g>
                <!-- Arc -->
                <path d="M1833.3193,481.1283 A664.5833,664.5833 0 0,1 1920.3698,452.4059" style="stroke:#000000;stroke-width:0.1;"/>
                <!-- Arc -->
                <path d="M1828.7347,467.2335 A664.5833,664.5833 0 0,1 1915.7852,438.5111" style="stroke:#000000;stroke-width:0.1;"/>
                <!-- Polyline -->
                <path d="M1730.7131,468.1994 A689.911,689.911 0 0 1 1995.1342,380.9534" style="stroke:#000000;stroke-width:0.1;"/>
                <!-- Polyline -->
                <path d="M1833.3193,481.1283 L1828.7347,467.2335 A687.5,687.5 0 0 0 1738.7287,511.6569 A10.4167,10.4167 0 0 1 1724.0861,507.2431 L1710.0974,471.822 A15.625,15.625 0 0 1 1716.7586,452.5853 A710.417,710.417 0 0 1 1997.0565,360.1007 A15.625,15.625 0 0 1 2013.8578,371.596 L2023.6954,408.3867 A10.4167,10.4167 0 0 1 2014.5547,420.6478 A687.5,687.5 0 0 0 1915.7852,438.5111 L1920.3698,452.4059 A664.583,664.583 0 0 1 2009.2358,436.0831 A68.75,68.75 0 0 1 2079.1425,474.9164 L2175.0712,680.0888 L2179.2436,688.8815 A91.6667,91.6667 0 0 1 2141.7626,807.8509 A733.333,733.333 0 0 1 1866.9288,898.5326 A91.6667,91.6667 0 0 1 1766.0073,825.2293 L1764.1277,815.68 L1719.1192,593.7064 A68.75,68.75 0 0 1 1752.189,520.896 A664.583,664.583 0 0 1 1833.3193,481.1283 Z" style="stroke:#000000;stroke-width:0.1;"/>
                <!-- Circle -->
                <circle cx="1825.2012092747318" cy="602.8000862583976" r="8.202099737532802" style="stroke:#000000;stroke-width:0.1;"/>
                <!-- Circle -->
                <circle cx="1885.909929760077" cy="786.7933084548422" r="8.202099737532802" style="stroke:#000000;stroke-width:0.1;"/>
                <!-- Circle -->
                <circle cx="2060.0110873611557" cy="729.348475280698" r="8.202099737532802" style="stroke:#000000;stroke-width:0.1;"/>
                <!-- Circle -->
                <circle cx="1999.3023324163078" cy="545.3552428697258" r="8.202099737532802" style="stroke:#000000;stroke-width:0.1;"/>
            </g>
            <!-- Block Reference: chair_015 / entities: 8 -->
            <g>
                <!-- Arc -->
                <path d="M2502.8111,359.9663 A664.5833,664.5833 0 0,1 2594.4768,359.5498" style="stroke:#000000;stroke-width:0.1;"/>
                <!-- Arc -->
                <path d="M2502.7446,345.3349 A664.5833,664.5833 0 0,1 2594.4104,344.9183" style="stroke:#000000;stroke-width:0.1;"/>
                <!-- Polyline -->
                <path d="M2409.2221,315.9632 A689.911,689.911 0 0 1 2687.662,314.6979" style="stroke:#000000;stroke-width:0.1;"/>
                <!-- Polyline -->
                <path d="M2502.8111,359.9663 L2502.7446,345.3349 A687.5,687.5 0 0 0 2403.4163,359.7706 A10.4167,10.4167 0 0 1 2390.8543,351.048 L2388.496,313.0379 A15.625,15.625 0 0 1 2400.7756,296.8011 A710.417,710.417 0 0 1 2695.934,295.4598 A15.625,15.625 0 0 1 2708.3608,311.5844 L2706.348,349.6144 A10.4167,10.4167 0 0 1 2693.8657,358.4508 A687.5,687.5 0 0 0 2594.4104,344.9183 L2594.4768,359.5498 A664.583,664.583 0 0 1 2684.0374,371.487 A68.75,68.75 0 0 1 2738.5225,430.022 L2766.3544,654.7961 L2767.6054,664.4479 A91.6667,91.6667 0 0 1 2695.1954,766.0122 A733.333,733.333 0 0 1 2405.7907,767.3273 A91.6667,91.6667 0 0 1 2332.4606,666.4252 L2333.6239,656.7625 L2359.4118,431.7447 A68.75,68.75 0 0 1 2413.3627,372.717 A664.583,664.583 0 0 1 2502.8111,359.9663 Z" style="stroke:#000000;stroke-width:0.1;"/>
                <!-- Circle -->
                <circle cx="2457.49174622765" cy="473.17443077444113" r="8.202099737532802" style="stroke:#000000;stroke-width:0.1;"/>
                <!-- Circle -->
                <circle cx="2458.3721379326744" cy="666.9224100352403" r="8.202099737532802" style="stroke:#000000;stroke-width:0.1;"/>
                <!-- Circle -->
                <circle cx="2641.703608053547" cy="666.0893435565631" r="8.202099737532802" style="stroke:#000000;stroke-width:0.1;"/>
                <!-- Circle -->
                <circle cx="2640.8231867320574" cy="472.3413439325959" r="8.202099737532802" style="stroke:#000000;stroke-width:0.1;"/>
            </g>
            <!-- Block Reference: chair_015 / entities: 8 -->
            <g>
                <!-- Arc -->
                <path d="M3176.9768,451.6188 A664.5833,664.5833 0 0,1 3264.2848,479.5489" style="stroke:#000000;stroke-width:0.1;"/>
                <!-- Arc -->
                <path d="M3181.435,437.6829 A664.5833,664.5833 0 0,1 3268.743,465.613" style="stroke:#000000;stroke-width:0.1;"/>
                <!-- Polyline -->
                <path d="M3101.5661,380.8487 A689.911,689.911 0 0 1 3366.7692,465.688" style="stroke:#000000;stroke-width:0.1;"/>
                <!-- Polyline -->
                <path d="M3176.9768,451.6188 L3181.435,437.6829 A687.5,687.5 0 0 0 3082.5073,420.718 A10.4167,10.4167 0 0 1 3073.2555,408.5404 L3082.7583,371.6618 A15.625,15.625 0 0 1 3099.4545,360.0144 A710.417,710.417 0 0 1 3380.5812,449.9477 A15.625,15.625 0 0 1 3387.417,469.1231 L3373.7508,504.6698 A10.4167,10.4167 0 0 1 3359.1489,509.2165 A687.5,687.5 0 0 0 3268.743,465.613 L3264.2848,479.5489 A664.583,664.583 0 0 1 3345.7732,518.5776 A68.75,68.75 0 0 1 3379.5033,591.0845 L3336.514,813.4579 L3334.7212,823.0239 A91.6667,91.6667 0 0 1 3234.4701,897.2413 A733.333,733.333 0 0 1 2958.8235,809.0611 A91.6667,91.6667 0 0 1 2920.2629,690.4373 L2924.3551,681.607 L3018.4153,475.5713 A68.75,68.75 0 0 1 3087.9662,436.1043 A664.583,664.583 0 0 1 3176.9768,451.6188 Z" style="stroke:#000000;stroke-width:0.1;"/>
                <!-- Circle -->
                <circle cx="3098.8923120400286" cy="545.2816277482998" r="8.202099737532802" style="stroke:#000000;stroke-width:0.1;"/>
                <!-- Circle -->
                <circle cx="3039.8581960905867" cy="729.818961941859" r="8.202099737532802" style="stroke:#000000;stroke-width:0.1;"/>
                <!-- Circle -->
                <circle cx="3214.4742170903774" cy="785.6792085099005" r="8.202099737532802" style="stroke:#000000;stroke-width:0.1;"/>
                <!-- Circle -->
                <circle cx="3273.5083111654385" cy="601.1418457978252" r="8.202099737532802" style="stroke:#000000;stroke-width:0.1;"/>
            </g>
            <!-- Block Reference: chair_015 / entities: 8 -->
            <g>
                <!-- Arc -->
                <path d="M3789.8243,747.1141 A664.5833,664.5833 0 0,1 3864.2283,800.6569" style="stroke:#000000;stroke-width:0.1;"/>
                <!-- Arc -->
                <path d="M3798.3707,735.2379 A664.5833,664.5833 0 0,1 3872.7747,788.7807" style="stroke:#000000;stroke-width:0.1;"/>
                <!-- Polyline -->
                <path d="M3739.9737,656.5046 A689.911,689.911 0 0 1 3965.98,819.1438" style="stroke:#000000;stroke-width:0.1;"/>
                <!-- Polyline -->
                <path d="M3789.8243,747.1141 L3798.3707,735.2379 A687.5,687.5 0 0 0 3709.5273,688.533 A10.4167,10.4167 0 0 1 3704.4914,674.0925 L3724.9253,641.9554 A15.625,15.625 0 0 1 3744.4035,636.0374 A710.417,710.417 0 0 1 3983.98,808.442 A15.625,15.625 0 0 1 3984.5557,828.7913 L3960.5739,858.3752 A10.4167,10.4167 0 0 1 3945.2816,858.1871 A687.5,687.5 0 0 0 3872.7747,788.7807 L3864.2283,800.6569 A664.583,664.583 0 0 1 3929.6678,862.9567 A68.75,68.75 0 0 1 3939.3412,942.338 L3829.7387,1140.5433 L3825.0777,1149.087 A91.6667,91.6667 0 0 1 3706.7987,1188.6927 A733.333,733.333 0 0 1 3471.8924,1019.6489 A91.6667,91.6667 0 0 1 3471.8759,894.915 L3478.4966,887.7815 L3631.6216,720.8961 A68.75,68.75 0 0 1 3709.9644,704.8532 A664.583,664.583 0 0 1 3789.8243,747.1141 Z" style="stroke:#000000;stroke-width:0.1;"/>
                <!-- Circle -->
                <circle cx="3686.6181504295964" cy="812.063322339789" r="8.202099737532802" style="stroke:#000000;stroke-width:0.1;"/>
                <!-- Circle -->
                <circle cx="3573.4481974097" cy="969.3262114480349" r="8.202099737532802" style="stroke:#000000;stroke-width:0.1;"/>
                <!-- Circle -->
                <circle cx="3722.256136531578" cy="1076.4117809274903" r="8.202099737532802" style="stroke:#000000;stroke-width:0.1;"/>
                <!-- Circle -->
                <circle cx="3835.42607756042" cy="919.1488579369725" r="8.202099737532802" style="stroke:#000000;stroke-width:0.1;"/>
            </g>
            <!-- Block Reference: chair_015 / entities: 8 -->
            <g>
                <!-- Arc -->
                <path d="M4281.3639,1217.5272 A664.5833,664.5833 0 0,1 4335.5806,1291.4414" style="stroke:#000000;stroke-width:0.1;"/>
                <!-- Arc -->
                <path d="M4293.1619,1208.8732 A664.5833,664.5833 0 0,1 4347.3787,1282.7875" style="stroke:#000000;stroke-width:0.1;"/>
                <!-- Polyline -->
                <path d="M4261.953,1115.9477 A689.911,689.911 0 0 1 4426.6395,1340.4666" style="stroke:#000000;stroke-width:0.1;"/>
                <!-- Polyline -->
                <path d="M4281.3639,1217.5272 L4293.1619,1208.8732 A687.5,687.5 0 0 0 4223.0995,1137 A10.4167,10.4167 0 0 1 4222.7724,1121.7101 L4252.137,1097.4604 A15.625,15.625 0 0 1 4272.4907,1097.8511 A710.417,710.417 0 0 1 4447.0656,1335.8509 A15.625,15.625 0 0 1 4441.3248,1355.3821 L4409.3748,1376.1072 A10.4167,10.4167 0 0 1 4394.8891,1371.2028 A687.5,687.5 0 0 0 4347.3787,1282.7875 L4335.5806,1291.4414 A664.583,664.583 0 0 1 4378.5656,1370.914 A68.75,68.75 0 0 1 4363.2354,1449.3994 L4197.7484,1604.0348 L4190.6754,1610.72 A91.6667,91.6667 0 0 1 4065.9466,1611.8371 A733.333,733.333 0 0 1 3894.7748,1378.4767 A91.6667,91.6667 0 0 1 3933.3039,1259.8427 L3941.805,1255.1042 L4139.006,1143.705 A68.75,68.75 0 0 1 4218.4719,1152.6565 A664.583,664.583 0 0 1 4281.3639,1217.5272 Z" style="stroke:#000000;stroke-width:0.1;"/>
                <!-- Circle -->
                <circle cx="4163.138561408137" cy="1247.4050635049425" r="8.202099737532802" style="stroke:#000000;stroke-width:0.1;"/>
                <!-- Circle -->
                <circle cx="4006.9106348208006" cy="1361.9995202269783" r="8.202099737532802" style="stroke:#000000;stroke-width:0.1;"/>
                <!-- Circle -->
                <circle cx="4115.344134177634" cy="1509.8281309681624" r="8.202099737532802" style="stroke:#000000;stroke-width:0.1;"/>
                <!-- Circle -->
                <circle cx="4271.572059831" cy="1395.2336383167276" r="8.202099737532802" style="stroke:#000000;stroke-width:0.1;"/>
            </g>
            <!-- Block Reference: chair_015 / entities: 8 -->
            <g>
                <!-- Arc -->
                <path d="M4603.4802,1816.8106 A664.5833,664.5833 0 0,1 4632.2026,1903.8612" style="stroke:#000000;stroke-width:0.1;"/>
                <!-- Arc -->
                <path d="M4617.375,1812.226 A664.5833,664.5833 0 0,1 4646.0974,1899.2766" style="stroke:#000000;stroke-width:0.1;"/>
                <!-- Polyline -->
                <path d="M4616.4091,1714.2045 A689.911,689.911 0 0 1 4703.6551,1978.6256" style="stroke:#000000;stroke-width:0.1;"/>
                <!-- Polyline -->
                <path d="M4603.4802,1816.8106 L4617.375,1812.226 A687.5,687.5 0 0 0 4572.9516,1722.2201 A10.4167,10.4167 0 0 1 4577.3654,1707.5774 L4612.7864,1693.5888 A15.625,15.625 0 0 1 4632.0232,1700.25 A710.417,710.417 0 0 1 4724.5078,1980.5478 A15.625,15.625 0 0 1 4713.0125,1997.3491 L4676.2218,2007.1868 A10.4167,10.4167 0 0 1 4663.9607,1998.046 A687.5,687.5 0 0 0 4646.0974,1899.2766 L4632.2026,1903.8612 A664.583,664.583 0 0 1 4648.5254,1992.7272 A68.75,68.75 0 0 1 4609.6921,2062.6339 L4404.5197,2158.5626 L4395.727,2162.735 A91.6667,91.6667 0 0 1 4276.7576,2125.254 A733.333,733.333 0 0 1 4186.0759,1850.4202 A91.6667,91.6667 0 0 1 4259.3792,1749.4987 L4268.9285,1747.6191 L4490.9021,1702.6106 A68.75,68.75 0 0 1 4563.7125,1735.6803 A664.583,664.583 0 0 1 4603.4802,1816.8106 Z" style="stroke:#000000;stroke-width:0.1;"/>
                <!-- Circle -->
                <circle cx="4481.808407036107" cy="1808.6925684142334" r="8.202099737532802" style="stroke:#000000;stroke-width:0.1;"/>
                <!-- Circle -->
                <circle cx="4297.815184839652" cy="1869.4012888995821" r="8.202099737532802" style="stroke:#000000;stroke-width:0.1;"/>
                <!-- Circle -->
                <circle cx="4355.260018013811" cy="2043.5024465006536" r="8.202099737532802" style="stroke:#000000;stroke-width:0.1;"/>
                <!-- Circle -->
                <circle cx="4539.253250424779" cy="1982.793691555802" r="8.202099737532802" style="stroke:#000000;stroke-width:0.1;"/>
            </g>
            <!-- Block Reference: chair_015 / entities: 8 -->
            <g>
                <!-- Arc -->
                <path d="M4724.6422,2486.3025 A664.5833,664.5833 0 0,1 4725.0587,2577.9682" style="stroke:#000000;stroke-width:0.1;"/>
                <!-- Arc -->
                <path d="M4739.2736,2486.236 A664.5833,664.5833 0 0,1 4739.6902,2577.9017" style="stroke:#000000;stroke-width:0.1;"/>
                <!-- Polyline -->
                <path d="M4768.6453,2392.7135 A689.911,689.911 0 0 1 4769.9106,2671.1534" style="stroke:#000000;stroke-width:0.1;"/>
                <!-- Polyline -->
                <path d="M4724.6422,2486.3025 L4739.2736,2486.236 A687.5,687.5 0 0 0 4724.8379,2386.9077 A10.4167,10.4167 0 0 1 4733.5605,2374.3457 L4771.5706,2371.9873 A15.625,15.625 0 0 1 4787.8074,2384.267 A710.417,710.417 0 0 1 4789.1487,2679.4254 A15.625,15.625 0 0 1 4773.0241,2691.8521 L4734.9941,2689.8393 A10.4167,10.4167 0 0 1 4726.1577,2677.3571 A687.5,687.5 0 0 0 4739.6902,2577.9017 L4725.0587,2577.9682 A664.583,664.583 0 0 1 4713.1215,2667.5288 A68.75,68.75 0 0 1 4654.5865,2722.0139 L4429.8124,2749.8458 L4420.1606,2751.0968 A91.6667,91.6667 0 0 1 4318.5963,2678.6868 A733.333,733.333 0 0 1 4317.2812,2389.2821 A91.6667,91.6667 0 0 1 4418.1833,2315.952 L4427.846,2317.1152 L4652.8638,2342.9032 A68.75,68.75 0 0 1 4711.8915,2396.8541 A664.583,664.583 0 0 1 4724.6422,2486.3025 Z" style="stroke:#000000;stroke-width:0.1;"/>
                <!-- Circle -->
                <circle cx="4611.434062520057" cy="2440.983105367144" r="8.202099737532802" style="stroke:#000000;stroke-width:0.1;"/>
                <!-- Circle -->
                <circle cx="4417.68608325925" cy="2441.8634970721687" r="8.202099737532802" style="stroke:#000000;stroke-width:0.1;"/>
                <!-- Circle -->
                <circle cx="4418.519149737927" cy="2625.1949671930415" r="8.202099737532802" style="stroke:#000000;stroke-width:0.1;"/>
                <!-- Circle -->
                <circle cx="4612.267149361898" cy="2624.314545871548" r="8.202099737532802" style="stroke:#000000;stroke-width:0.1;"/>
            </g>
            <!-- Block Reference: chair_015 / entities: 8 -->
            <g>
                <!-- Arc -->
                <path d="M4632.9897,3160.4682 A664.5833,664.5833 0 0,1 4605.0596,3247.7762" style="stroke:#000000;stroke-width:0.1;"/>
                <!-- Arc -->
                <path d="M4646.9256,3164.9263 A664.5833,664.5833 0 0,1 4618.9955,3252.2343" style="stroke:#000000;stroke-width:0.1;"/>
                <!-- Polyline -->
                <path d="M4703.7598,3085.0575 A689.911,689.911 0 0 1 4618.9205,3350.2606" style="stroke:#000000;stroke-width:0.1;"/>
                <!-- Polyline -->
                <path d="M4632.9897,3160.4682 L4646.9256,3164.9263 A687.5,687.5 0 0 0 4663.8905,3065.9986 A10.4167,10.4167 0 0 1 4676.0681,3056.7468 L4712.9466,3066.2497 A15.625,15.625 0 0 1 4724.5941,3082.9458 A710.417,710.417 0 0 1 4634.6608,3364.0726 A15.625,15.625 0 0 1 4615.4854,3370.9084 L4579.9387,3357.2422 A10.4167,10.4167 0 0 1 4575.392,3342.6403 A687.5,687.5 0 0 0 4618.9955,3252.2343 L4605.0596,3247.7762 A664.583,664.583 0 0 1 4566.0309,3329.2646 A68.75,68.75 0 0 1 4493.524,3362.9947 L4271.1506,3320.0053 L4261.5846,3318.2126 A91.6667,91.6667 0 0 1 4187.3672,3217.9614 A733.333,733.333 0 0 1 4275.5474,2942.3148 A91.6667,91.6667 0 0 1 4394.1712,2903.7542 L4403.0015,2907.8465 L4609.0372,3001.9066 A68.75,68.75 0 0 1 4648.5042,3071.4575 A664.583,664.583 0 0 1 4632.9897,3160.4682 Z" style="stroke:#000000;stroke-width:0.1;"/>
                <!-- Circle -->
                <circle cx="4539.326865546202" cy="3082.3836711795084" r="8.202099737532803" style="stroke:#000000;stroke-width:0.1;"/>
                <!-- Circle -->
                <circle cx="4354.789531352639" cy="3023.3495552300737" r="8.202099737532803" style="stroke:#000000;stroke-width:0.1;"/>
                <!-- Circle -->
                <circle cx="4298.929284784608" cy="3197.9655762298535" r="8.202099737532803" style="stroke:#000000;stroke-width:0.1;"/>
                <!-- Circle -->
                <circle cx="4483.46664749668" cy="3256.9996703049183" r="8.202099737532803" style="stroke:#000000;stroke-width:0.1;"/>
            </g>
            <!-- Block Reference: chair_015 / entities: 8 -->
            <g>
                <!-- Arc -->
                <path d="M4337.4944,3773.3157 A664.5833,664.5833 0 0,1 4283.9516,3847.7197" style="stroke:#000000;stroke-width:0.1;"/>
                <!-- Arc -->
                <path d="M4349.3706,3781.8621 A664.5833,664.5833 0 0,1 4295.8278,3856.266" style="stroke:#000000;stroke-width:0.1;"/>
                <!-- Polyline -->
                <path d="M4428.1039,3723.465 A689.911,689.911 0 0 1 4265.4647,3949.4714" style="stroke:#000000;stroke-width:0.1;"/>
                <!-- Polyline -->
                <path d="M4337.4944,3773.3157 L4349.3706,3781.8621 A687.5,687.5 0 0 0 4396.0755,3693.0187 A10.4167,10.4167 0 0 1 4410.516,3687.9828 L4442.6531,3708.4167 A15.625,15.625 0 0 1 4448.5711,3727.8949 A710.417,710.417 0 0 1 4276.1664,3967.4714 A15.625,15.625 0 0 1 4255.8172,3968.0471 L4226.2333,3944.0652 A10.4167,10.4167 0 0 1 4226.4214,3928.773 A687.5,687.5 0 0 0 4295.8278,3856.266 L4283.9516,3847.7197 A664.583,664.583 0 0 1 4221.6518,3913.1592 A68.75,68.75 0 0 1 4142.2705,3922.8326 L3944.0652,3813.2301 L3935.5215,3808.5691 A91.6667,91.6667 0 0 1 3895.9158,3690.2901 A733.333,733.333 0 0 1 4064.9596,3455.3838 A91.6667,91.6667 0 0 1 4189.6934,3455.3672 L4196.827,3461.9879 L4363.7124,3615.113 A68.75,68.75 0 0 1 4379.7553,3693.4558 A664.583,664.583 0 0 1 4337.4944,3773.3157 Z" style="stroke:#000000;stroke-width:0.1;"/>
                <!-- Circle -->
                <circle cx="4272.545170954705" cy="3670.1095095690907" r="8.2020997375328" style="stroke:#000000;stroke-width:0.1;"/>
                <!-- Circle -->
                <circle cx="4115.282281846463" cy="3556.939556549194" r="8.2020997375328" style="stroke:#000000;stroke-width:0.1;"/>
                <!-- Circle -->
                <circle cx="4008.1967123670183" cy="3705.7474956710685" r="8.2020997375328" style="stroke:#000000;stroke-width:0.1;"/>
                <!-- Circle -->
                <circle cx="4165.4596353575325" cy="3818.917436699907" r="8.2020997375328" style="stroke:#000000;stroke-width:0.1;"/>
            </g>
            <!-- Block Reference: chair_015 / entities: 8 -->
            <g>
                <!-- Arc -->
                <path d="M3867.0813,4264.8553 A664.5833,664.5833 0 0,1 3793.167,4319.072" style="stroke:#000000;stroke-width:0.1;"/>
                <!-- Arc -->
                <path d="M3875.7353,4276.6533 A664.5833,664.5833 0 0,1 3801.821,4330.87" style="stroke:#000000;stroke-width:0.1;"/>
                <!-- Polyline -->
                <path d="M3968.6608,4245.4444 A689.911,689.911 0 0 1 3744.1419,4410.1308" style="stroke:#000000;stroke-width:0.1;"/>
                <!-- Polyline -->
                <path d="M3867.0813,4264.8553 L3875.7353,4276.6533 A687.5,687.5 0 0 0 3947.6085,4206.5908 A10.4167,10.4167 0 0 1 3962.8984,4206.2637 L3987.1481,4235.6284 A15.625,15.625 0 0 1 3986.7574,4255.9821 A710.417,710.417 0 0 1 3748.7576,4430.5569 A15.625,15.625 0 0 1 3729.2264,4424.8161 L3708.5013,4392.8661 A10.4167,10.4167 0 0 1 3713.4057,4378.3805 A687.5,687.5 0 0 0 3801.821,4330.87 L3793.167,4319.072 A664.583,664.583 0 0 1 3713.6945,4362.057 A68.75,68.75 0 0 1 3635.2091,4346.7267 L3480.5737,4181.2398 L3473.8885,4174.1667 A91.6667,91.6667 0 0 1 3472.7714,4049.4379 A733.333,733.333 0 0 1 3706.1318,3878.2662 A91.6667,91.6667 0 0 1 3824.7658,3916.7953 L3829.5043,3925.2963 L3940.9035,4122.4973 A68.75,68.75 0 0 1 3931.952,4201.9633 A664.583,664.583 0 0 1 3867.0813,4264.8553 Z" style="stroke:#000000;stroke-width:0.1;"/>
                <!-- Circle -->
                <circle cx="3837.203429789559" cy="4146.629920547617" r="8.202099737532803" style="stroke:#000000;stroke-width:0.1;"/>
                <!-- Circle -->
                <circle cx="3722.6089730675158" cy="3990.4019939602767" r="8.202099737532803" style="stroke:#000000;stroke-width:0.1;"/>
                <!-- Circle -->
                <circle cx="3574.7803623263317" cy="4098.835493317121" r="8.202099737532803" style="stroke:#000000;stroke-width:0.1;"/>
                <!-- Circle -->
                <circle cx="3689.3748549777665" cy="4255.06341897048" r="8.202099737532803" style="stroke:#000000;stroke-width:0.1;"/>
            </g>
            <!-- Block Reference: chair_015 / entities: 8 -->
            <g>
                <!-- Arc -->
                <path d="M3267.7979,4586.9715 A664.5833,664.5833 0 0,1 3180.7473,4615.6939" style="stroke:#000000;stroke-width:0.1;"/>
                <!-- Arc -->
                <path d="M3272.3825,4600.8663 A664.5833,664.5833 0 0,1 3185.3319,4629.5887" style="stroke:#000000;stroke-width:0.1;"/>
                <!-- Polyline -->
                <path d="M3370.404,4599.9004 A689.911,689.911 0 0 1 3105.9829,4687.1465" style="stroke:#000000;stroke-width:0.1;"/>
                <!-- Polyline -->
                <path d="M3267.7979,4586.9715 L3272.3825,4600.8663 A687.5,687.5 0 0 0 3362.3884,4556.443 A10.4167,10.4167 0 0 1 3377.031,4560.8568 L3391.0197,4596.2778 A15.625,15.625 0 0 1 3384.3585,4615.5146 A710.417,710.417 0 0 1 3104.0607,4707.9991 A15.625,15.625 0 0 1 3087.2594,4696.5038 L3077.4217,4659.7132 A10.4167,10.4167 0 0 1 3086.5625,4647.452 A687.5,687.5 0 0 0 3185.3319,4629.5887 L3180.7473,4615.6939 A664.583,664.583 0 0 1 3091.8813,4632.0167 A68.75,68.75 0 0 1 3021.9746,4593.1835 L2926.0459,4388.0111 L2921.8735,4379.2183 A91.6667,91.6667 0 0 1 2959.3545,4260.249 A733.333,733.333 0 0 1 3234.1883,4169.5673 A91.6667,91.6667 0 0 1 3335.1098,4242.8706 L3336.9894,4252.4198 L3381.9979,4474.3934 A68.75,68.75 0 0 1 3348.9282,4547.2038 A664.583,664.583 0 0 1 3267.7979,4586.9715 Z" style="stroke:#000000;stroke-width:0.1;"/>
                <!-- Circle -->
                <circle cx="3275.9159248802753" cy="4465.29976617558" r="8.202099737532802" style="stroke:#000000;stroke-width:0.1;"/>
                <!-- Circle -->
                <circle cx="3215.20720439493" cy="4281.306543979139" r="8.202099737532802" style="stroke:#000000;stroke-width:0.1;"/>
                <!-- Circle -->
                <circle cx="3041.1060467938514" cy="4338.751377153283" r="8.202099737532802" style="stroke:#000000;stroke-width:0.1;"/>
                <!-- Circle -->
                <circle cx="3101.8148017386993" cy="4522.744609564255" r="8.202099737532802" style="stroke:#000000;stroke-width:0.1;"/>
            </g>
        </g>
    </g>
</svg>

