<?xml version="1.0" encoding="UTF-8"?>
<!-- 2026-03-10 12:26:20 Generated by QCAD 3.32.6 SVG Exporter -->
<svg width="2031.4023mm" height="807.5074mm" viewBox="14.4171 -807.1415 2031.4023 807.5074" version="1.1" xmlns="http://www.w3.org/2000/svg" style="stroke-linecap:round;stroke-linejoin:round;">
    <!-- Fillable body: rect in SVG viewBox coords (y is negative due to QCAD's y-up system) -->
    <!-- Rendered BEHIND the line art. Picks up fill color via CSS inheritance. -->
    <rect id="auto-fill" x="14.4171" y="-807.1415" width="2031.4023" height="807.5074" rx="135" ry="135"/>
    <g transform="scale(1,-1)">
        <!-- Block Reference: A$C7EC0217F / entities: 82 -->
        <g>
            <!-- Line -->
            <path d="M1827.6893,537.1415 L2041.6998,705.237 " style="stroke:#000000;stroke-width:0.1;"/>
            <!-- Line -->
            <path d="M2018.8194,672.1415 L1991.788,94.2614 " style="stroke:#000000;stroke-width:0.1;"/>
            <!-- Line -->
            <path d="M2045.8194,68.9174 L2045.8194,672.1415 " style="stroke:#000000;stroke-width:0.1;"/>
            <!-- Line -->
            <path d="M1866.1833,55.0085 L1842.4816,347.118 " style="stroke:#000000;stroke-width:0.1;"/>
            <!-- Line -->
            <path d="M1864.8213,27.5515 L1866.1833,55.0085 " style="stroke:#000000;stroke-width:0.1;"/>
            <!-- Line -->
            <path d="M1946.1864,65.2638 L1866.1833,55.0085 " style="stroke:#000000;stroke-width:0.1;"/>
            <!-- Arc -->
            <path d="M1864.8213,0.5515 A73.4112,73.4112 0 0,1 1946.1864,65.2638" style="stroke:#000000;stroke-width:0.1;"/>
            <!-- Line -->
            <path d="M1991.788,94.2614 L1866.1833,55.0085 " style="stroke:#000000;stroke-width:0.1;"/>
            <!-- Line -->
            <path d="M1946.1864,65.2638 L2045.8194,68.9174 " style="stroke:#000000;stroke-width:0.1;"/>
            <!-- Line -->
            <path d="M1901.4146,419.4551 L1859.081,354.4764 " style="stroke:#000000;stroke-width:0.1;"/>
            <!-- Line -->
            <path d="M2045.8194,447.1415 L1860.9424,447.1415 " style="stroke:#000000;stroke-width:0.1;"/>
            <!-- Line -->
            <path d="M1833.4399,463.2684 L1827.6893,537.1415 " style="stroke:#000000;stroke-width:0.1;"/>
            <!-- Arc -->
            <path d="M2045.8194,672.1415 A135,135 0 0,1 1910.8194,807.1415" style="stroke:#000000;stroke-width:0.1;"/>
            <!-- Arc -->
            <path d="M2018.8194,672.1415 A108,108 0 0,1 1910.8194,780.1415" style="stroke:#000000;stroke-width:0.1;"/>
            <!-- Line -->
            <path d="M725.8737,806.2242 L1333.4566,806.2242 " style="stroke:#000000;stroke-width:0.1;"/>
            <!-- Line -->
            <path d="M752.8737,779.2242 L1306.4566,779.2242 " style="stroke:#000000;stroke-width:0.1;"/>
            <!-- Arc -->
            <path d="M756.1327,398.3252 A515.2406,515.2406 0 0,1 1274.9756,390.4355" style="stroke:#000000;stroke-width:0.1;"/>
            <!-- Line -->
            <path d="M1288.4566,26.6341 L770.8737,26.6341 " style="stroke:#000000;stroke-width:0.1;"/>
            <!-- Line -->
            <path d="M1288.4566,-0.3659 L770.8737,-0.3659 " style="stroke:#000000;stroke-width:0.1;"/>
            <!-- Line -->
            <path d="M725.8737,536.2242 L1333.4566,536.2242 " style="stroke:#000000;stroke-width:0.1;"/>
            <!-- Arc -->
            <path d="M1302.0395,474.8175 A989.1895,989.1895 0 0,1 725.8737,462.2102" style="stroke:#000000;stroke-width:0.1;"/>
            <!-- Arc -->
            <path d="M1302.0395,474.8175 A737.7705,737.7705 0 0,1 726.0969,469.8249" style="stroke:#000000;stroke-width:0.1;"/>
            <!-- Arc -->
            <path d="M149.4171,807.1415 A135,135 0 0,1 14.4171,672.1415" style="stroke:#000000;stroke-width:0.1;"/>
            <!-- Arc -->
            <path d="M658.1003,515.244 A581.2612,581.2612 0 0,1 158.8218,419.4551" style="stroke:#000000;stroke-width:0.1;"/>
            <!-- Line -->
            <path d="M232.5472,537.1415 L18.5366,705.237 " style="stroke:#000000;stroke-width:0.1;"/>
            <!-- Line -->
            <path d="M41.4171,672.1415 L61.7751,94.2614 " style="stroke:#000000;stroke-width:0.1;"/>
            <!-- Line -->
            <path d="M14.4171,68.9174 L14.4171,672.1415 " style="stroke:#000000;stroke-width:0.1;"/>
            <!-- Line -->
            <path d="M752.8737,44.6341 L752.8737,779.2242 " style="stroke:#000000;stroke-width:0.1;"/>
            <!-- Line -->
            <path d="M698.8737,44.6341 L698.8737,780.1415 " style="stroke:#000000;stroke-width:0.1;"/>
            <!-- Line -->
            <path d="M725.4171,807.1415 L725.4171,45.5515 " style="stroke:#000000;stroke-width:0.1;"/>
            <!-- Line -->
            <path d="M725.8737,44.6341 L725.8737,806.2242 " style="stroke:#000000;stroke-width:0.1;"/>
            <!-- Arc -->
            <path d="M201.1554,354.4764 A398.3176,398.3176 0 0,1 646.5569,427.3832" style="stroke:#000000;stroke-width:0.1;"/>
            <!-- Arc -->
            <path d="M658.1003,515.244 A910.0222,910.0222 0 0,1 158.8218,419.4551" style="stroke:#000000;stroke-width:0.1;"/>
            <!-- Line -->
            <path d="M232.5472,537.1415 L725.4171,537.1415 " style="stroke:#000000;stroke-width:0.1;"/>
            <!-- Line -->
            <path d="M680.4171,0.5515 L195.4151,0.5515 " style="stroke:#000000;stroke-width:0.1;"/>
            <!-- Line -->
            <path d="M680.4171,27.5515 L195.4151,27.5515 " style="stroke:#000000;stroke-width:0.1;"/>
            <!-- Line -->
            <path d="M194.0531,55.0085 L217.7548,347.118 " style="stroke:#000000;stroke-width:0.1;"/>
            <!-- Line -->
            <path d="M114.05,65.2638 L14.4171,68.9174 " style="stroke:#000000;stroke-width:0.1;"/>
            <!-- Line -->
            <path d="M195.4151,27.5515 L194.0531,55.0085 " style="stroke:#000000;stroke-width:0.1;"/>
            <!-- Arc -->
            <path d="M114.05,65.2638 A73.4112,73.4112 0 0,1 195.4151,0.5515" style="stroke:#000000;stroke-width:0.1;"/>
            <!-- Line -->
            <path d="M61.7751,94.2614 L194.0531,55.0085 " style="stroke:#000000;stroke-width:0.1;"/>
            <!-- Line -->
            <path d="M114.05,65.2638 L194.0531,55.0085 " style="stroke:#000000;stroke-width:0.1;"/>
            <!-- Line -->
            <path d="M158.8218,419.4551 L201.1554,354.4764 " style="stroke:#000000;stroke-width:0.1;"/>
            <!-- Line -->
            <path d="M14.4171,447.1415 L199.294,447.1415 " style="stroke:#000000;stroke-width:0.1;"/>
            <!-- Line -->
            <path d="M226.7965,463.2684 L232.5472,537.1415 " style="stroke:#000000;stroke-width:0.1;"/>
            <!-- Arc -->
            <path d="M725.8737,44.6341 A45,45 0 0,1 770.8737,-0.3659" style="stroke:#000000;stroke-width:0.1;"/>
            <!-- Arc -->
            <path d="M752.8737,44.6341 A18,18 0 0,1 770.8737,26.6341" style="stroke:#000000;stroke-width:0.1;"/>
            <!-- Arc -->
            <path d="M680.4171,0.5515 A45,45 0 0,1 725.4171,45.5515" style="stroke:#000000;stroke-width:0.1;"/>
            <!-- Arc -->
            <path d="M680.4171,27.5515 A18,18 0 0,1 698.4171,45.5515" style="stroke:#000000;stroke-width:0.1;"/>
            <!-- Line -->
            <path d="M726.0969,469.8249 L756.1327,398.3252 " style="stroke:#000000;stroke-width:0.1;"/>
            <!-- Arc -->
            <path d="M725.8737,462.2102 A1892.2159,1892.2159 0 0,1 725.4171,462.0568" style="stroke:#000000;stroke-width:0.1;"/>
            <!-- Arc -->
            <path d="M725.8737,438.4589 A1869.7159,1869.7159 0 0,1 725.4171,438.3034" style="stroke:#000000;stroke-width:0.1;"/>
            <!-- Line -->
            <path d="M725.8737,431.9786 L725.4171,431.9786 " style="stroke:#000000;stroke-width:0.1;"/>
            <!-- Line -->
            <path d="M646.5569,427.3832 L658.1003,515.244 " style="stroke:#000000;stroke-width:0.1;"/>
            <!-- Line -->
            <path d="M149.4171,780.1415 L698.8737,780.1415 " style="stroke:#000000;stroke-width:0.1;"/>
            <!-- Line -->
            <path d="M149.4171,807.1415 L725.4171,807.1415 " style="stroke:#000000;stroke-width:0.1;"/>
            <!-- Arc -->
            <path d="M149.4171,780.1415 A108,108 0 0,1 41.4171,672.1415" style="stroke:#000000;stroke-width:0.1;"/>
            <!-- Line -->
            <path d="M725.8737,611.9786 L725.4171,611.9786 " style="stroke:#000000;stroke-width:0.1;"/>
            <!-- Line -->
            <path d="M1306.4566,779.2242 L1306.4566,44.6341 " style="stroke:#000000;stroke-width:0.1;"/>
            <!-- Line -->
            <path d="M1360.4566,780.1415 L1360.4566,44.6341 " style="stroke:#000000;stroke-width:0.1;"/>
            <!-- Line -->
            <path d="M1334.8194,807.1415 L1334.8194,45.5515 " style="stroke:#000000;stroke-width:0.1;"/>
            <!-- Line -->
            <path d="M1333.4566,806.2242 L1333.4566,44.6341 " style="stroke:#000000;stroke-width:0.1;"/>
            <!-- Arc -->
            <path d="M1334.8194,45.5515 A45,45 0 0,1 1379.8194,0.5515" style="stroke:#000000;stroke-width:0.1;"/>
            <!-- Arc -->
            <path d="M1361.8194,45.5515 A18,18 0 0,1 1379.8194,27.5515" style="stroke:#000000;stroke-width:0.1;"/>
            <!-- Arc -->
            <path d="M1288.4566,-0.3659 A45,45 0 0,1 1333.4566,44.6341" style="stroke:#000000;stroke-width:0.1;"/>
            <!-- Arc -->
            <path d="M1288.4566,26.6341 A18,18 0 0,1 1306.4566,44.6341" style="stroke:#000000;stroke-width:0.1;"/>
            <!-- Arc -->
            <path d="M1334.8194,117.3535 A1509.7159,1509.7159 0 0,1 1333.4566,117.2977" style="stroke:#000000;stroke-width:0.1;"/>
            <!-- Line -->
            <path d="M1334.8194,431.9786 L1333.4566,431.9786 " style="stroke:#000000;stroke-width:0.1;"/>
            <!-- Line -->
            <path d="M1274.9756,390.4355 L1302.0395,474.8175 " style="stroke:#000000;stroke-width:0.1;"/>
            <!-- Arc -->
            <path d="M1334.8194,207.4232 A1599.7159,1599.7159 0 0,1 1333.4566,207.3705" style="stroke:#000000;stroke-width:0.1;"/>
            <!-- Arc -->
            <path d="M1334.8194,537.1819 A1869.7159,1869.7159 0 0,1 1333.4566,537.1368" style="stroke:#000000;stroke-width:0.1;"/>
            <!-- Arc -->
            <path d="M1334.8194,559.6937 A1892.2159,1892.2159 0 0,1 1333.4566,559.6492" style="stroke:#000000;stroke-width:0.1;"/>
            <!-- Line -->
            <path d="M1413.6796,427.3832 L1402.1361,515.244 " style="stroke:#000000;stroke-width:0.1;"/>
            <!-- Line -->
            <path d="M1334.8194,611.9786 L1333.4566,611.9786 " style="stroke:#000000;stroke-width:0.1;"/>
            <!-- Arc -->
            <path d="M1901.4146,419.4551 A581.2612,581.2612 0 0,1 1402.1361,515.244" style="stroke:#000000;stroke-width:0.1;"/>
            <!-- Arc -->
            <path d="M1413.6796,427.3832 A398.3176,398.3176 0 0,1 1859.081,354.4764" style="stroke:#000000;stroke-width:0.1;"/>
            <!-- Line -->
            <path d="M1379.8194,0.5515 L1864.8213,0.5515 " style="stroke:#000000;stroke-width:0.1;"/>
            <!-- Line -->
            <path d="M1379.8194,27.5515 L1864.8213,27.5515 " style="stroke:#000000;stroke-width:0.1;"/>
            <!-- Line -->
            <path d="M1827.6893,537.1415 L1334.8194,537.1415 " style="stroke:#000000;stroke-width:0.1;"/>
            <!-- Arc -->
            <path d="M1901.4146,419.4551 A1045.8167,1045.8167 0 0,1 1402.1361,515.244" style="stroke:#000000;stroke-width:0.1;"/>
            <!-- Line -->
            <path d="M1910.8194,780.1415 L1360.4566,780.1415 " style="stroke:#000000;stroke-width:0.1;"/>
            <!-- Line -->
            <path d="M1910.8194,807.1415 L1334.8194,807.1415 " style="stroke:#000000;stroke-width:0.1;"/>
        </g>
    </g>
</svg>
