<?xml version="1.0" encoding="UTF-8"?>
<!DOCTYPE svg PUBLIC "-//W3C//DTD SVG 1.1//EN" "http://www.w3.org/Graphics/SVG/1.1/DTD/svg11.dtd">
<svg xmlns="http://www.w3.org/2000/svg" version="1.1" width="2000mm" height="810mm" viewBox="0 0 2000 810" style="shape-rendering:geometricPrecision; text-rendering:geometricPrecision; image-rendering:optimizeQuality; fill-rule:evenodd; clip-rule:evenodd" xmlns:xlink="http://www.w3.org/1999/xlink">
<g transform="matrix(3.21371009863567 0 0 3.18478850645215 -26.7809067762636 -357.756847295289)">
<g><path style="opacity:1" fill="#000000" d="M 48.5,112.5 C 229.167,112.333 409.834,112.5 590.5,113C 595.199,114.019 598.199,116.852 599.5,121.5C 606.803,122.497 614.137,122.831 621.5,122.5C 621.5,140.167 621.5,157.833 621.5,175.5C 625.761,176.053 628.594,178.387 630,182.5C 630.667,213.5 630.667,244.5 630,275.5C 628.273,278.893 625.606,281.226 622,282.5C 621.5,303.164 621.333,323.831 621.5,344.5C 614.159,344.334 606.826,344.5 599.5,345C 596.258,354.576 589.924,361.243 580.5,365C 555.534,366.138 530.534,366.638 505.5,366.5C 480.466,366.638 455.466,366.138 430.5,365C 421.786,362.453 415.786,356.953 412.5,348.5C 407.709,358.798 399.709,364.631 388.5,366C 342.5,366.667 296.5,366.667 250.5,366C 239.239,364.564 231.239,358.731 226.5,348.5C 221.709,358.798 213.709,364.631 202.5,366C 156.5,366.667 110.5,366.667 64.5,366C 51.5837,364.385 43.2504,357.385 39.5,345C 32.1742,344.5 24.8409,344.334 17.5,344.5C 17.6666,323.831 17.5,303.164 17,282.5C 13,281.167 10.3333,278.5 9,274.5C 8.33333,243.833 8.33333,213.167 9,182.5C 10.2055,178.123 13.0388,175.79 17.5,175.5C 17.5,157.833 17.5,140.167 17.5,122.5C 24.8635,122.831 32.1968,122.497 39.5,121.5C 40.911,116.755 43.911,113.755 48.5,112.5 Z M 49.5,114.5 C 229.834,114.333 410.167,114.5 590.5,115C 595.52,116.354 597.854,119.687 597.5,125C 597.902,129.2 596.235,132.2 592.5,134C 410.833,134.667 229.167,134.667 47.5,134C 43.0372,132.499 41.0372,129.333 41.5,124.5C 41.361,118.724 44.0276,115.391 49.5,114.5 Z M 19.5,124.5 C 26.1667,124.5 32.8333,124.5 39.5,124.5C 39.5,141.167 39.5,157.833 39.5,174.5C 32.8333,174.5 26.1667,174.5 19.5,174.5C 19.5,157.833 19.5,141.167 19.5,124.5 Z M 599.5,124.5 C 606.167,124.5 612.833,124.5 619.5,124.5C 619.5,141.167 619.5,157.833 619.5,174.5C 612.833,174.5 606.167,174.5 599.5,174.5C 599.5,157.833 599.5,141.167 599.5,124.5 Z M 41.5,132.5 C 45.1844,134.203 45.351,136.203 42,138.5C 41.5045,136.527 41.3379,134.527 41.5,132.5 Z M 596.5,132.5 C 598.814,140.452 597.481,141.618 592.5,136C 594.324,135.34 595.657,134.173 596.5,132.5 Z M 46.5,136.5 C 103.168,136.333 159.834,136.5 216.5,137C 220.896,137.73 223.73,140.23 225,144.5C 225.667,158.5 225.667,172.5 225,186.5C 224.111,190.112 221.945,192.612 218.5,194C 162.501,194.5 106.501,194.667 50.5,194.5C 50.6657,190.154 50.499,185.821 50,181.5C 48.395,177.724 45.5616,175.724 41.5,175.5C 41.3335,164.162 41.5001,152.828 42,141.5C 43.025,139.313 44.525,137.646 46.5,136.5 Z M 221.5,137.5 C 224.64,136.359 227.973,136.192 231.5,137C 229.649,138.684 227.982,140.517 226.5,142.5C 225.145,140.479 223.479,138.812 221.5,137.5 Z M 236.5,136.5 C 291.834,136.333 347.168,136.5 402.5,137C 406.896,137.73 409.73,140.23 411,144.5C 411.667,158.5 411.667,172.5 411,186.5C 410.111,190.112 407.945,192.612 404.5,194C 347.833,194.667 291.167,194.667 234.5,194C 230.594,193.027 228.427,190.527 228,186.5C 227.333,172.5 227.333,158.5 228,144.5C 229.445,140.218 232.278,137.551 236.5,136.5 Z M 407.5,137.5 C 408.568,136.566 409.901,136.232 411.5,136.5C 411.657,137.873 411.49,139.207 411,140.5C 409.961,139.29 408.794,138.29 407.5,137.5 Z M 413.5,136.5 C 418.272,136.367 418.438,137.7 414,140.5C 413.51,139.207 413.343,137.873 413.5,136.5 Z M 422.5,136.5 C 477.834,136.333 533.168,136.5 588.5,137C 592.896,137.73 595.73,140.23 597,144.5C 597.5,154.828 597.666,165.161 597.5,175.5C 593.438,175.724 590.605,177.724 589,181.5C 588.501,185.821 588.334,190.154 588.5,194.5C 532.499,194.667 476.499,194.5 420.5,194C 416.594,193.027 414.427,190.527 414,186.5C 413.333,172.5 413.333,158.5 414,144.5C 415.445,140.218 418.278,137.551 422.5,136.5 Z M 18.5,176.5 C 26.1739,176.334 33.8406,176.5 41.5,177C 44.4944,177.406 46.661,178.906 48,181.5C 48.6667,212.833 48.6667,244.167 48,275.5C 47.065,278.102 45.2317,279.602 42.5,280C 33.8333,280.667 25.1667,280.667 16.5,280C 13.3879,279.375 11.5546,277.542 11,274.5C 10.3333,243.833 10.3333,213.167 11,182.5C 12.354,178.924 14.854,176.924 18.5,176.5 Z M 597.5,176.5 C 605.507,176.334 613.507,176.5 621.5,177C 624.893,177.394 627.06,179.227 628,182.5C 628.667,213.167 628.667,243.833 628,274.5C 627.445,277.542 625.612,279.375 622.5,280C 613.5,280.667 604.5,280.667 595.5,280C 593.333,279.167 591.833,277.667 591,275.5C 590.333,244.167 590.333,212.833 591,181.5C 592.563,178.977 594.73,177.31 597.5,176.5 Z M 224.5,191.5 C 225.665,242.665 225.832,293.998 225,345.5C 221.724,356.774 214.224,362.941 202.5,364C 156.167,364.667 109.833,364.667 63.5,364C 52.3123,362.477 45.1456,356.311 42,345.5C 41.3333,324.5 41.3333,303.5 42,282.5C 45.5821,281.254 48.2488,278.92 50,275.5C 50.5,249.169 50.6666,222.835 50.5,196.5C 106.501,196.667 162.501,196.5 218.5,196C 221.106,195.208 223.106,193.708 224.5,191.5 Z M 227.5,191.5 C 229.465,193.488 231.798,194.988 234.5,196C 291.167,196.667 347.833,196.667 404.5,196C 407.102,195.117 409.269,193.617 411,191.5C 411.667,242.833 411.667,294.167 411,345.5C 407.724,356.774 400.224,362.941 388.5,364C 342.167,364.667 295.833,364.667 249.5,364C 238.312,362.477 231.146,356.311 228,345.5C 227.5,294.168 227.333,242.834 227.5,191.5 Z M 413.5,191.5 C 415.465,193.488 417.798,194.988 420.5,196C 476.499,196.5 532.499,196.667 588.5,196.5C 588.333,222.835 588.5,249.169 589,275.5C 590.695,278.695 593.195,281.028 596.5,282.5C 597.666,303.492 597.833,324.492 597,345.5C 593.724,356.774 586.224,362.941 574.5,364C 528.167,364.667 481.833,364.667 435.5,364C 424.312,362.477 417.146,356.311 414,345.5C 413.5,294.168 413.333,242.834 413.5,191.5 Z M 19.5,282.5 C 26.1667,282.5 32.8333,282.5 39.5,282.5C 39.5,302.5 39.5,322.5 39.5,342.5C 32.8333,342.5 26.1667,342.5 19.5,342.5C 19.5,322.5 19.5,302.5 19.5,282.5 Z M 599.5,282.5 C 606.167,282.5 612.833,282.5 619.5,282.5C 619.5,302.5 619.5,322.5 619.5,342.5C 612.833,342.5 606.167,342.5 599.5,342.5C 599.5,322.5 599.5,302.5 599.5,282.5 Z"/></g>
</g>
</svg>
