<?xml version="1.0" encoding="UTF-8"?>
<!-- 3 Seater Sofa 03 - Top-down plan view -->
<svg width="1820mm" height="800mm" viewBox="0 0 1820 800" version="1.1" xmlns="http://www.w3.org/2000/svg"
     style="stroke-linecap:round;stroke-linejoin:round;">

    <path id="auto-fill" d="
        M 180,0
        L 1640,0
        Q 1820,0 1820,180
        L 1820,638
        Q 1820,700 1785,740
        L 1715,800
        L 1625,800
        L 1625,660
        Q 1625,622 1598,604
        Q 1571,587 1532,587
        L 288,587
        Q 249,587 222,604
        Q 195,622 195,660
        L 195,800
        L 105,800
        L 35,740
        Q 0,700 0,638
        L 0,180
        Q 0,0 180,0
        Z
    " style="stroke-width:6;"/>

    <path fill="none" d="
        M 148,182
        L 148,568
        Q 148,596 176,611
        Q 204,626 244,626
        L 1576,626
        Q 1616,626 1644,611
        Q 1672,596 1672,568
        L 1672,182
    " style="stroke-width:5;"/>

    <path fill="none" d="
        M 148,182 Q 159,154 189,145 L 1631,145 Q 1661,154 1672,182
    " style="stroke-width:4;"/>

    <line fill="none" x1="148" y1="255" x2="1672" y2="255" style="stroke-width:4;"/>

    <line fill="none" x1="653" y1="182" x2="653" y2="626" style="stroke-width:5;"/>
    <line fill="none" x1="1167" y1="182" x2="1167" y2="626" style="stroke-width:5;"/>

    <path fill="none" d="M 195,626 Q 195,680 222,717 Q 249,754 288,773 L 650,773" style="stroke-width:4;"/>
    <path fill="none" d="M 1625,626 Q 1625,680 1598,717 Q 1571,754 1532,773 L 1170,773" style="stroke-width:4;"/>
    <line fill="none" x1="651" y1="773" x2="1169" y2="773" style="stroke-width:4;"/>

    <rect fill="none" x="99" y="724" width="96" height="70" rx="16" style="stroke-width:4;"/>
    <rect fill="none" x="1625" y="724" width="96" height="70" rx="16" style="stroke-width:4;"/>
</svg>
