<svg xmlns="http://www.w3.org/2000/svg" width="2500mm" height="1409mm" viewBox="19.659 -1426.534 2500 1408.8" version="1.1"><path d="M1156.35 1407.35a216.6 216.6 0 0 1-9.583-87.386 1180.7 1180.7 0 0 0 15.573-377.23 22.2 22.2 0 0 0-24.425 2.928 12.03 12.03 0 0 1-9.144.663 481 481 0 0 0-54.067-3.59H814.613a481 481 0 0 0-54.067 3.59 12.03 12.03 0 0 1-9.144-.663 22.2 22.2 0 0 0-24.425-2.928 1180.7 1180.7 0 0 0 15.574 377.23 216.6 216.6 0 0 1-9.584 87.386 12.6 12.6 0 0 0 10.781 19.184h401.82a12.6 12.6 0 0 0 10.782-19.185" style="stroke:#000;stroke-width:.1" transform="scale(1 -1)"/><path d="M944.974 1319.387H838.19" style="stroke:#000;stroke-width:.1" transform="scale(1 -1)"/><path d="M767.225 1314.492a1154.4 1154.4 0 0 1-15.227-368.834" style="stroke:#000;stroke-width:.1" transform="scale(1 -1)"/><path d="M767.613 1317.084a240.9 240.9 0 0 1-8.2 89.113" style="stroke:#000;stroke-width:.1" transform="scale(1 -1)"/><path d="M944.974 1401.268H761.553" style="stroke:#000;stroke-width:.1" transform="scale(1 -1)"/><path d="M944.974 1409.456H761.231" style="stroke:#000;stroke-width:.1" transform="scale(1 -1)"/><path d="M761.23 1409.456a2.418 2.418 0 0 1-1.816-3.26" style="stroke:#000;stroke-width:.1" transform="scale(1 -1)"/><path d="M778.626 1298.484a317.3 317.3 0 0 1-14.729 89.338" style="stroke:#000;stroke-width:.1" transform="scale(1 -1)"/><path d="M838.19 1319.387a97.83 97.83 0 0 1-77.448-39.214" style="stroke:#000;stroke-width:.1" transform="scale(1 -1)"/><path d="M761.62 1401.268a.725.725 0 0 1-.725-.943" style="stroke:#000;stroke-width:.1" transform="scale(1 -1)"/><path d="M944.974 1400.45H761.553" style="stroke:#000;stroke-width:.1" transform="scale(1 -1)"/><path d="M761.553 1400.45a.433.433 0 0 1-.563-.482" style="stroke:#000;stroke-width:.1" transform="scale(1 -1)"/><path d="M761.129 946.32a12.02 12.02 0 0 1-9.13-.662" style="stroke:#000;stroke-width:.1" transform="scale(1 -1)"/><path d="m761.129 946.32-1.765 19.401" style="stroke:#000;stroke-width:.1" transform="scale(1 -1)"/><path d="m759.364 965.721-9.143-4.327" style="stroke:#000;stroke-width:.1" transform="scale(1 -1)"/><path d="M759.364 965.721h-9.593" style="stroke:#000;stroke-width:.1" transform="scale(1 -1)"/><path d="M1130.585 965.721h9.593" style="stroke:#000;stroke-width:.1" transform="scale(1 -1)"/><path d="m1130.585 965.721 9.142-4.327" style="stroke:#000;stroke-width:.1" transform="scale(1 -1)"/><path d="m1128.82 946.32 1.765 19.401" style="stroke:#000;stroke-width:.1" transform="scale(1 -1)"/><path d="M1137.95 945.658a12.02 12.02 0 0 1-9.13.662" style="stroke:#000;stroke-width:.1" transform="scale(1 -1)"/><path d="M1128.959 1399.968a.433.433 0 0 1-.563.481" style="stroke:#000;stroke-width:.1" transform="scale(1 -1)"/><path d="M944.974 1400.45h183.422" style="stroke:#000;stroke-width:.1" transform="scale(1 -1)"/><path d="M1129.054 1400.325a.725.725 0 0 1-.725.943" style="stroke:#000;stroke-width:.1" transform="scale(1 -1)"/><path d="M1129.207 1280.173a97.83 97.83 0 0 1-77.448 39.214" style="stroke:#000;stroke-width:.1" transform="scale(1 -1)"/><path d="M1126.052 1387.822a317.3 317.3 0 0 1-14.729-89.338" style="stroke:#000;stroke-width:.1" transform="scale(1 -1)"/><path d="M1130.535 1406.197a2.418 2.418 0 0 1-1.817 3.26" style="stroke:#000;stroke-width:.1" transform="scale(1 -1)"/><path d="M944.974 1409.456h183.744" style="stroke:#000;stroke-width:.1" transform="scale(1 -1)"/><path d="M944.974 1401.268h183.422" style="stroke:#000;stroke-width:.1" transform="scale(1 -1)"/><path d="M1130.535 1406.197a240.9 240.9 0 0 1-8.2-89.113" style="stroke:#000;stroke-width:.1" transform="scale(1 -1)"/><path d="M1137.95 945.658a1154.4 1154.4 0 0 1-15.226 368.834" style="stroke:#000;stroke-width:.1" transform="scale(1 -1)"/><path d="M944.974 1319.387h106.785" style="stroke:#000;stroke-width:.1" transform="scale(1 -1)"/><path d="M1156.35 1407.35a216.6 216.6 0 0 1-9.583-87.386 1180.7 1180.7 0 0 0 15.573-377.23 22.2 22.2 0 0 0-24.425 2.928 12.03 12.03 0 0 1-9.144.663 481 481 0 0 0-54.067-3.59H814.613a481 481 0 0 0-54.067 3.59 12.03 12.03 0 0 1-9.144-.663 22.2 22.2 0 0 0-24.425-2.928 1180.7 1180.7 0 0 0 15.574 377.23 216.6 216.6 0 0 1-9.584 87.386 12.6 12.6 0 0 0 10.781 19.184h401.82a12.6 12.6 0 0 0 10.782-19.185" style="stroke:#000;stroke-width:.1" transform="translate(2489.317)scale(-1)"/><path d="M1544.343 1319.387h106.785" style="stroke:#000;stroke-width:.1" transform="scale(1 -1)"/><path d="M1722.092 1314.492a1154.4 1154.4 0 0 0 15.227-368.834" style="stroke:#000;stroke-width:.1" transform="scale(1 -1)"/><path d="M1721.704 1317.084a240.9 240.9 0 0 0 8.2 89.113" style="stroke:#000;stroke-width:.1" transform="scale(1 -1)"/><path d="M1544.343 1401.268h183.421" style="stroke:#000;stroke-width:.1" transform="scale(1 -1)"/><path d="M1544.343 1409.456h183.743" style="stroke:#000;stroke-width:.1" transform="scale(1 -1)"/><path d="M1728.086 1409.456a2.418 2.418 0 0 0 1.817-3.26" style="stroke:#000;stroke-width:.1" transform="scale(1 -1)"/><path d="M1710.692 1298.484a317.3 317.3 0 0 0 14.728 89.338" style="stroke:#000;stroke-width:.1" transform="scale(1 -1)"/><path d="M1651.128 1319.387a97.83 97.83 0 0 0 77.447-39.214" style="stroke:#000;stroke-width:.1" transform="scale(1 -1)"/><path d="M1727.698 1401.268a.725.725 0 0 0 .724-.943" style="stroke:#000;stroke-width:.1" transform="scale(1 -1)"/><path d="M1544.343 1400.45h183.421" style="stroke:#000;stroke-width:.1" transform="scale(1 -1)"/><path d="M1727.764 1400.45a.433.433 0 0 0 .563-.482" style="stroke:#000;stroke-width:.1" transform="scale(1 -1)"/><path d="M1728.188 946.32a12.02 12.02 0 0 0 9.13-.662" style="stroke:#000;stroke-width:.1" transform="scale(1 -1)"/><path d="m1728.188 946.32 1.765 19.401" style="stroke:#000;stroke-width:.1" transform="scale(1 -1)"/><path d="m1729.954 965.721 9.142-4.327" style="stroke:#000;stroke-width:.1" transform="scale(1 -1)"/><path d="M1729.954 965.721h9.592" style="stroke:#000;stroke-width:.1" transform="scale(1 -1)"/><path d="M1358.732 965.721h-9.593" style="stroke:#000;stroke-width:.1" transform="scale(1 -1)"/><path d="m1358.732 965.721-9.142-4.327" style="stroke:#000;stroke-width:.1" transform="scale(1 -1)"/><path d="m1360.497 946.32-1.765 19.401" style="stroke:#000;stroke-width:.1" transform="scale(1 -1)"/><path d="M1351.367 945.658a12.02 12.02 0 0 0 9.13.662" style="stroke:#000;stroke-width:.1" transform="scale(1 -1)"/><path d="M1360.358 1399.968a.433.433 0 0 0 .563.481" style="stroke:#000;stroke-width:.1" transform="scale(1 -1)"/><path d="M1544.343 1400.45H1360.92" style="stroke:#000;stroke-width:.1" transform="scale(1 -1)"/><path d="M1360.263 1400.325a.725.725 0 0 0 .725.943" style="stroke:#000;stroke-width:.1" transform="scale(1 -1)"/><path d="M1360.11 1280.173a97.83 97.83 0 0 0 77.448 39.214" style="stroke:#000;stroke-width:.1" transform="scale(1 -1)"/><path d="M1363.266 1387.822a317.3 317.3 0 0 0 14.728-89.338" style="stroke:#000;stroke-width:.1" transform="scale(1 -1)"/><path d="M1358.782 1406.197a2.418 2.418 0 0 0 1.817 3.26" style="stroke:#000;stroke-width:.1" transform="scale(1 -1)"/><path d="M1544.343 1409.456h-183.744" style="stroke:#000;stroke-width:.1" transform="scale(1 -1)"/><path d="M1544.343 1401.268H1360.92" style="stroke:#000;stroke-width:.1" transform="scale(1 -1)"/><path d="M1358.782 1406.197a240.9 240.9 0 0 0 8.2-89.113" style="stroke:#000;stroke-width:.1" transform="scale(1 -1)"/><path d="M1351.367 945.658a1154.4 1154.4 0 0 0 15.226 368.834" style="stroke:#000;stroke-width:.1" transform="scale(1 -1)"/><path d="M1544.343 1319.387h-106.785" style="stroke:#000;stroke-width:.1" transform="scale(1 -1)"/><path d="M556.35 1407.35a216.6 216.6 0 0 1-9.583-87.386 1180.7 1180.7 0 0 0 15.573-377.23 22.2 22.2 0 0 0-24.425 2.928 12.03 12.03 0 0 1-9.144.663 481 481 0 0 0-54.067-3.59H214.613a481 481 0 0 0-54.067 3.59 12.03 12.03 0 0 1-9.144-.663 22.2 22.2 0 0 0-24.425-2.928 1180.7 1180.7 0 0 0 15.573 377.23 216.6 216.6 0 0 1-9.583 87.386 12.6 12.6 0 0 0 10.781 19.184h401.82a12.6 12.6 0 0 0 10.782-19.185" style="stroke:#000;stroke-width:.1" transform="scale(1 -1)"/><path d="M344.974 1319.387H238.19" style="stroke:#000;stroke-width:.1" transform="scale(1 -1)"/><path d="M167.225 1314.492a1154.4 1154.4 0 0 1-15.227-368.834" style="stroke:#000;stroke-width:.1" transform="scale(1 -1)"/><path d="M167.613 1317.084a240.9 240.9 0 0 1-8.2 89.113" style="stroke:#000;stroke-width:.1" transform="scale(1 -1)"/><path d="M344.974 1401.268H161.553" style="stroke:#000;stroke-width:.1" transform="scale(1 -1)"/><path d="M344.974 1409.456H161.231" style="stroke:#000;stroke-width:.1" transform="scale(1 -1)"/><path d="M161.23 1409.456a2.418 2.418 0 0 1-1.816-3.26" style="stroke:#000;stroke-width:.1" transform="scale(1 -1)"/><path d="M178.626 1298.484a317.3 317.3 0 0 1-14.729 89.338" style="stroke:#000;stroke-width:.1" transform="scale(1 -1)"/><path d="M238.19 1319.387a97.83 97.83 0 0 1-77.448-39.214" style="stroke:#000;stroke-width:.1" transform="scale(1 -1)"/><path d="M161.62 1401.268a.725.725 0 0 1-.725-.943" style="stroke:#000;stroke-width:.1" transform="scale(1 -1)"/><path d="M344.974 1400.45H161.553" style="stroke:#000;stroke-width:.1" transform="scale(1 -1)"/><path d="M161.553 1400.45a.433.433 0 0 1-.563-.482" style="stroke:#000;stroke-width:.1" transform="scale(1 -1)"/><path d="M161.129 946.32a12.02 12.02 0 0 1-9.13-.662" style="stroke:#000;stroke-width:.1" transform="scale(1 -1)"/><path d="m161.129 946.32-1.765 19.401" style="stroke:#000;stroke-width:.1" transform="scale(1 -1)"/><path d="m159.364 965.721-9.143-4.327" style="stroke:#000;stroke-width:.1" transform="scale(1 -1)"/><path d="M159.364 965.721h-9.593" style="stroke:#000;stroke-width:.1" transform="scale(1 -1)"/><path d="M530.585 965.721h9.593" style="stroke:#000;stroke-width:.1" transform="scale(1 -1)"/><path d="m530.585 965.721 9.142-4.327" style="stroke:#000;stroke-width:.1" transform="scale(1 -1)"/><path d="m528.82 946.32 1.765 19.401" style="stroke:#000;stroke-width:.1" transform="scale(1 -1)"/><path d="M537.95 945.658a12.02 12.02 0 0 1-9.13.662" style="stroke:#000;stroke-width:.1" transform="scale(1 -1)"/><path d="M528.959 1399.968a.433.433 0 0 1-.563.481" style="stroke:#000;stroke-width:.1" transform="scale(1 -1)"/><path d="M344.974 1400.45h183.422" style="stroke:#000;stroke-width:.1" transform="scale(1 -1)"/><path d="M529.054 1400.325a.725.725 0 0 1-.725.943" style="stroke:#000;stroke-width:.1" transform="scale(1 -1)"/><path d="M529.207 1280.173a97.83 97.83 0 0 1-77.448 39.214" style="stroke:#000;stroke-width:.1" transform="scale(1 -1)"/><path d="M526.052 1387.822a317.3 317.3 0 0 1-14.729-89.338" style="stroke:#000;stroke-width:.1" transform="scale(1 -1)"/><path d="M530.535 1406.197a2.418 2.418 0 0 1-1.817 3.26" style="stroke:#000;stroke-width:.1" transform="scale(1 -1)"/><path d="M344.974 1409.456h183.744" style="stroke:#000;stroke-width:.1" transform="scale(1 -1)"/><path d="M344.974 1401.268h183.422" style="stroke:#000;stroke-width:.1" transform="scale(1 -1)"/><path d="M530.535 1406.197a240.9 240.9 0 0 1-8.2-89.113" style="stroke:#000;stroke-width:.1" transform="scale(1 -1)"/><path d="M537.95 945.658a1154.4 1154.4 0 0 1-15.227 368.834" style="stroke:#000;stroke-width:.1" transform="scale(1 -1)"/><path d="M344.974 1319.387H451.76" style="stroke:#000;stroke-width:.1" transform="scale(1 -1)"/><path d="M556.35 1407.35a216.6 216.6 0 0 1-9.583-87.386 1180.7 1180.7 0 0 0 15.573-377.23 22.2 22.2 0 0 0-24.425 2.928 12.03 12.03 0 0 1-9.144.663 481 481 0 0 0-54.067-3.59H214.613a481 481 0 0 0-54.067 3.59 12.03 12.03 0 0 1-9.144-.663 22.2 22.2 0 0 0-24.425-2.928 1180.7 1180.7 0 0 0 15.573 377.23 216.6 216.6 0 0 1-9.583 87.386 12.6 12.6 0 0 0 10.781 19.184h401.82a12.6 12.6 0 0 0 10.782-19.185" style="stroke:#000;stroke-width:.1" transform="translate(2539.317)scale(-1)"/><path d="M2194.343 1319.387h106.785" style="stroke:#000;stroke-width:.1" transform="scale(1 -1)"/><path d="M2372.092 1314.492a1154.4 1154.4 0 0 0 15.227-368.834" style="stroke:#000;stroke-width:.1" transform="scale(1 -1)"/><path d="M2371.704 1317.084a240.9 240.9 0 0 0 8.2 89.113" style="stroke:#000;stroke-width:.1" transform="scale(1 -1)"/><path d="M2194.343 1401.268h183.421" style="stroke:#000;stroke-width:.1" transform="scale(1 -1)"/><path d="M2194.343 1409.456h183.743" style="stroke:#000;stroke-width:.1" transform="scale(1 -1)"/><path d="M2378.086 1409.456a2.418 2.418 0 0 0 1.817-3.26" style="stroke:#000;stroke-width:.1" transform="scale(1 -1)"/><path d="M2360.692 1298.484a317.3 317.3 0 0 0 14.728 89.338" style="stroke:#000;stroke-width:.1" transform="scale(1 -1)"/><path d="M2301.128 1319.387a97.83 97.83 0 0 0 77.447-39.214" style="stroke:#000;stroke-width:.1" transform="scale(1 -1)"/><path d="M2377.698 1401.268a.725.725 0 0 0 .724-.943" style="stroke:#000;stroke-width:.1" transform="scale(1 -1)"/><path d="M2194.343 1400.45h183.421" style="stroke:#000;stroke-width:.1" transform="scale(1 -1)"/><path d="M2377.764 1400.45a.433.433 0 0 0 .563-.482" style="stroke:#000;stroke-width:.1" transform="scale(1 -1)"/><path d="M2378.188 946.32a12.02 12.02 0 0 0 9.13-.662" style="stroke:#000;stroke-width:.1" transform="scale(1 -1)"/><path d="m2378.188 946.32 1.765 19.401" style="stroke:#000;stroke-width:.1" transform="scale(1 -1)"/><path d="m2379.954 965.721 9.142-4.327" style="stroke:#000;stroke-width:.1" transform="scale(1 -1)"/><path d="M2379.954 965.721h9.592" style="stroke:#000;stroke-width:.1" transform="scale(1 -1)"/><path d="M2008.732 965.721h-9.593" style="stroke:#000;stroke-width:.1" transform="scale(1 -1)"/><path d="m2008.732 965.721-9.142-4.327" style="stroke:#000;stroke-width:.1" transform="scale(1 -1)"/><path d="m2010.497 946.32-1.765 19.401" style="stroke:#000;stroke-width:.1" transform="scale(1 -1)"/><path d="M2001.367 945.658a12.02 12.02 0 0 0 9.13.662" style="stroke:#000;stroke-width:.1" transform="scale(1 -1)"/><path d="M2010.358 1399.968a.433.433 0 0 0 .563.481" style="stroke:#000;stroke-width:.1" transform="scale(1 -1)"/><path d="M2194.343 1400.45H2010.92" style="stroke:#000;stroke-width:.1" transform="scale(1 -1)"/><path d="M2010.263 1400.325a.725.725 0 0 0 .725.943" style="stroke:#000;stroke-width:.1" transform="scale(1 -1)"/><path d="M2010.11 1280.173a97.83 97.83 0 0 0 77.448 39.214" style="stroke:#000;stroke-width:.1" transform="scale(1 -1)"/><path d="M2013.266 1387.822a317.3 317.3 0 0 0 14.728-89.338" style="stroke:#000;stroke-width:.1" transform="scale(1 -1)"/><path d="M2008.782 1406.197a2.418 2.418 0 0 0 1.817 3.26" style="stroke:#000;stroke-width:.1" transform="scale(1 -1)"/><path d="M2194.343 1409.456h-183.744" style="stroke:#000;stroke-width:.1" transform="scale(1 -1)"/><path d="M2194.343 1401.268H2010.92" style="stroke:#000;stroke-width:.1" transform="scale(1 -1)"/><path d="M2008.782 1406.197a240.9 240.9 0 0 0 8.2-89.113" style="stroke:#000;stroke-width:.1" transform="scale(1 -1)"/><path d="M2001.367 945.658a1154.4 1154.4 0 0 0 15.226 368.834" style="stroke:#000;stroke-width:.1" transform="scale(1 -1)"/><path d="M2194.343 1319.387h-106.785" style="stroke:#000;stroke-width:.1" transform="scale(1 -1)"/><path d="M39.659 37.734h2460v860h-2460Z" style="stroke:#000;stroke-width:.1" transform="scale(1 -1)"/><path d="M19.659 17.734h2500v900h-2500Z" style="stroke:#000;stroke-width:.1" transform="scale(1 -1)"/></svg>