<?xml version="1.0" encoding="UTF-8"?>
<!-- 2026-03-10 12:46:46 Generated by QCAD 3.32.6 SVG Exporter -->
<svg  width="2500mm" height="1408.8001mm" viewBox="19.6585 -1426.5342 2500 1408.8001" version="1.1" xmlns="http://www.w3.org/2000/svg" style="stroke-linecap:round;stroke-linejoin:round;">
    <g transform="scale(1,-1)">
            <!-- Auto-generated fillable area -->
            <!-- Block Reference: 4 seater VIP table / entities: 6 -->
        <g>
            <!-- Block Reference: A$C51F1 / entities: 31 -->
            <g>
                <!-- Polyline -->
                <path d="M1156.3504,1407.3495 A216.619,216.619 0 0 1 1146.7666,1319.9637 A1180.69,1180.69 0 0 0 1162.34,942.7342 A22.2032,22.2032 0 0 0 1137.9149,945.6624 A12.0328,12.0328 0 0 1 1128.7713,946.3251 A480.879,480.879 0 0 0 1074.7038,942.7342 L944.6585,942.7342 L814.6133,942.7342 A480.879,480.879 0 0 0 760.5457,946.3251 A12.0328,12.0328 0 0 1 751.4022,945.6624 A22.2032,22.2032 0 0 0 726.9771,942.7342 A1180.69,1180.69 0 0 0 742.5505,1319.9637 A216.619,216.619 0 0 1 732.9667,1407.3495 A12.6008,12.6008 0 0 0 743.7483,1426.5342 L1145.5688,1426.5342 A12.6008,12.6008 0 0 0 1156.3504,1407.3495 Z" style="stroke:#000000;stroke-width:0.1;"/>
                <!-- Line -->
                <path d="M944.9744,1319.3869 L838.1893,1319.3869 " style="stroke:#000000;stroke-width:0.1;"/>
                <!-- Arc -->
                <path d="M767.2252,1314.492 A1154.4088,1154.4088 0 0,1 751.9984,945.6581" style="stroke:#000000;stroke-width:0.1;"/>
                <!-- Arc -->
                <path d="M767.6128,1317.0839 A240.8687,240.8687 0 0,1 759.4136,1406.1966" style="stroke:#000000;stroke-width:0.1;"/>
                <!-- Line -->
                <path d="M944.9744,1401.268 L761.553,1401.268 " style="stroke:#000000;stroke-width:0.1;"/>
                <!-- Line -->
                <path d="M944.9744,1409.4561 L761.2309,1409.4561 " style="stroke:#000000;stroke-width:0.1;"/>
                <!-- Arc -->
                <path d="M761.2309,1409.4561 A2.4177,2.4177 0 0,1 759.4136,1406.1966" style="stroke:#000000;stroke-width:0.1;"/>
                <!-- Arc -->
                <path d="M778.6255,1298.4836 A317.3163,317.3163 0 0,1 763.8971,1387.822" style="stroke:#000000;stroke-width:0.1;"/>
                <!-- Arc -->
                <path d="M838.1893,1319.3869 A97.8312,97.8312 0 0,1 760.742,1280.1729" style="stroke:#000000;stroke-width:0.1;"/>
                <!-- Arc -->
                <path d="M761.6194,1401.268 A0.7251,0.7251 0 0,1 760.8947,1400.3253" style="stroke:#000000;stroke-width:0.1;"/>
                <!-- Line -->
                <path d="M944.9744,1400.4492 L761.553,1400.4492 " style="stroke:#000000;stroke-width:0.1;"/>
                <!-- Arc -->
                <path d="M761.553,1400.4492 A0.4331,0.4331 0 0,1 760.99,1399.9684" style="stroke:#000000;stroke-width:0.1;"/>
                <!-- Arc -->
                <path d="M761.1287,946.3199 A12.0153,12.0153 0 0,1 751.9984,945.6581" style="stroke:#000000;stroke-width:0.1;"/>
                <!-- Line -->
                <path d="M761.1287,946.3199 L759.3636,965.721 " style="stroke:#000000;stroke-width:0.1;"/>
                <!-- Line -->
                <path d="M759.3636,965.721 L750.2213,961.3935 " style="stroke:#000000;stroke-width:0.1;"/>
                <!-- Line -->
                <path d="M759.3636,965.721 L749.7709,965.721 " style="stroke:#000000;stroke-width:0.1;"/>
                <!-- Line -->
                <path d="M1130.5851,965.721 L1140.1778,965.721 " style="stroke:#000000;stroke-width:0.1;"/>
                <!-- Line -->
                <path d="M1130.5851,965.721 L1139.7274,961.3935 " style="stroke:#000000;stroke-width:0.1;"/>
                <!-- Line -->
                <path d="M1128.82,946.3199 L1130.5851,965.721 " style="stroke:#000000;stroke-width:0.1;"/>
                <!-- Arc -->
                <path d="M1137.9503,945.6581 A12.0153,12.0153 0 0,1 1128.82,946.3199" style="stroke:#000000;stroke-width:0.1;"/>
                <!-- Arc -->
                <path d="M1128.9587,1399.9684 A0.4331,0.4331 0 0,1 1128.3957,1400.4492" style="stroke:#000000;stroke-width:0.1;"/>
                <!-- Line -->
                <path d="M944.9744,1400.4492 L1128.3957,1400.4492 " style="stroke:#000000;stroke-width:0.1;"/>
                <!-- Arc -->
                <path d="M1129.054,1400.3253 A0.7251,0.7251 0 0,1 1128.3294,1401.268" style="stroke:#000000;stroke-width:0.1;"/>
                <!-- Arc -->
                <path d="M1129.2067,1280.1729 A97.8312,97.8312 0 0,1 1051.7594,1319.3869" style="stroke:#000000;stroke-width:0.1;"/>
                <!-- Arc -->
                <path d="M1126.0516,1387.822 A317.3163,317.3163 0 0,1 1111.3232,1298.4836" style="stroke:#000000;stroke-width:0.1;"/>
                <!-- Arc -->
                <path d="M1130.5351,1406.1966 A2.4177,2.4177 0 0,1 1128.7178,1409.4561" style="stroke:#000000;stroke-width:0.1;"/>
                <!-- Line -->
                <path d="M944.9744,1409.4561 L1128.7178,1409.4561 " style="stroke:#000000;stroke-width:0.1;"/>
                <!-- Line -->
                <path d="M944.9744,1401.268 L1128.3957,1401.268 " style="stroke:#000000;stroke-width:0.1;"/>
                <!-- Arc -->
                <path d="M1130.5351,1406.1966 A240.8687,240.8687 0 0,1 1122.3359,1317.0839" style="stroke:#000000;stroke-width:0.1;"/>
                <!-- Arc -->
                <path d="M1137.9503,945.6581 A1154.4088,1154.4088 0 0,1 1122.7235,1314.492" style="stroke:#000000;stroke-width:0.1;"/>
                <!-- Line -->
                <path d="M944.9744,1319.3869 L1051.7594,1319.3869 " style="stroke:#000000;stroke-width:0.1;"/>
            </g>
            <!-- Block Reference: A$C51F1 / entities: 31 -->
            <g>
                <!-- Polyline -->
                <path d="M1332.9667,1407.3495 A0.216619,0.216619 0 0 0 1342.5505,1319.9637 A1.18069,1.18069 0 0 1 1326.9771,942.7342 A0.0222032,0.0222032 0 0 1 1351.4022,945.6624 A0.0120328,0.0120328 0 0 0 1360.5457,946.3251 A0.480879,0.480879 0 0 1 1414.6133,942.7342 L1544.6585,942.7342 L1674.7038,942.7342 A0.480879,0.480879 0 0 1 1728.7713,946.3251 A0.0120328,0.0120328 0 0 0 1737.9149,945.6624 A0.0222032,0.0222032 0 0 1 1762.34,942.7342 A1.18069,1.18069 0 0 1 1746.7666,1319.9637 A0.216619,0.216619 0 0 0 1756.3504,1407.3495 A0.0126008,0.0126008 0 0 1 1745.5688,1426.5342 L1343.7483,1426.5342 A0.0126008,0.0126008 0 0 1 1332.9667,1407.3495 Z" style="stroke:#000000;stroke-width:0.1;"/>
                <!-- Line -->
                <path d="M1544.3427,1319.3869 L1651.1278,1319.3869 " style="stroke:#000000;stroke-width:0.1;"/>
                <!-- Arc -->
                <path d="M1722.0919,1314.492 A1154.4088,1154.4088 0 0,0 1737.3187,945.6581" style="stroke:#000000;stroke-width:0.1;"/>
                <!-- Arc -->
                <path d="M1721.7042,1317.0839 A240.8687,240.8687 0 0,0 1729.9034,1406.1966" style="stroke:#000000;stroke-width:0.1;"/>
                <!-- Line -->
                <path d="M1544.3427,1401.268 L1727.7641,1401.268 " style="stroke:#000000;stroke-width:0.1;"/>
                <!-- Line -->
                <path d="M1544.3427,1409.4561 L1728.0862,1409.4561 " style="stroke:#000000;stroke-width:0.1;"/>
                <!-- Arc -->
                <path d="M1728.0862,1409.4561 A2.4177,2.4177 0 0,0 1729.9034,1406.1966" style="stroke:#000000;stroke-width:0.1;"/>
                <!-- Arc -->
                <path d="M1710.6916,1298.4836 A317.3163,317.3163 0 0,0 1725.42,1387.822" style="stroke:#000000;stroke-width:0.1;"/>
                <!-- Arc -->
                <path d="M1651.1278,1319.3869 A97.8312,97.8312 0 0,0 1728.575,1280.1729" style="stroke:#000000;stroke-width:0.1;"/>
                <!-- Arc -->
                <path d="M1727.6977,1401.268 A0.7251,0.7251 0 0,0 1728.4224,1400.3253" style="stroke:#000000;stroke-width:0.1;"/>
                <!-- Line -->
                <path d="M1544.3427,1400.4492 L1727.7641,1400.4492 " style="stroke:#000000;stroke-width:0.1;"/>
                <!-- Arc -->
                <path d="M1727.7641,1400.4492 A0.4331,0.4331 0 0,0 1728.3271,1399.9684" style="stroke:#000000;stroke-width:0.1;"/>
                <!-- Arc -->
                <path d="M1728.1884,946.3199 A12.0153,12.0153 0 0,0 1737.3187,945.6581" style="stroke:#000000;stroke-width:0.1;"/>
                <!-- Line -->
                <path d="M1728.1884,946.3199 L1729.9535,965.721 " style="stroke:#000000;stroke-width:0.1;"/>
                <!-- Line -->
                <path d="M1729.9535,965.721 L1739.0958,961.3935 " style="stroke:#000000;stroke-width:0.1;"/>
                <!-- Line -->
                <path d="M1729.9535,965.721 L1739.5462,965.721 " style="stroke:#000000;stroke-width:0.1;"/>
                <!-- Line -->
                <path d="M1358.732,965.721 L1349.1393,965.721 " style="stroke:#000000;stroke-width:0.1;"/>
                <!-- Line -->
                <path d="M1358.732,965.721 L1349.5897,961.3935 " style="stroke:#000000;stroke-width:0.1;"/>
                <!-- Line -->
                <path d="M1360.497,946.3199 L1358.732,965.721 " style="stroke:#000000;stroke-width:0.1;"/>
                <!-- Arc -->
                <path d="M1351.3667,945.6581 A12.0153,12.0153 0 0,0 1360.497,946.3199" style="stroke:#000000;stroke-width:0.1;"/>
                <!-- Arc -->
                <path d="M1360.3583,1399.9684 A0.4331,0.4331 0 0,0 1360.9213,1400.4492" style="stroke:#000000;stroke-width:0.1;"/>
                <!-- Line -->
                <path d="M1544.3427,1400.4492 L1360.9213,1400.4492 " style="stroke:#000000;stroke-width:0.1;"/>
                <!-- Arc -->
                <path d="M1360.2631,1400.3253 A0.7251,0.7251 0 0,0 1360.9877,1401.268" style="stroke:#000000;stroke-width:0.1;"/>
                <!-- Arc -->
                <path d="M1360.1104,1280.1729 A97.8312,97.8312 0 0,0 1437.5577,1319.3869" style="stroke:#000000;stroke-width:0.1;"/>
                <!-- Arc -->
                <path d="M1363.2655,1387.822 A317.3163,317.3163 0 0,0 1377.9938,1298.4836" style="stroke:#000000;stroke-width:0.1;"/>
                <!-- Arc -->
                <path d="M1358.782,1406.1966 A2.4177,2.4177 0 0,0 1360.5992,1409.4561" style="stroke:#000000;stroke-width:0.1;"/>
                <!-- Line -->
                <path d="M1544.3427,1409.4561 L1360.5992,1409.4561 " style="stroke:#000000;stroke-width:0.1;"/>
                <!-- Line -->
                <path d="M1544.3427,1401.268 L1360.9213,1401.268 " style="stroke:#000000;stroke-width:0.1;"/>
                <!-- Arc -->
                <path d="M1358.782,1406.1966 A240.8687,240.8687 0 0,0 1366.9812,1317.0839" style="stroke:#000000;stroke-width:0.1;"/>
                <!-- Arc -->
                <path d="M1351.3667,945.6581 A1154.4088,1154.4088 0 0,0 1366.5935,1314.492" style="stroke:#000000;stroke-width:0.1;"/>
                <!-- Line -->
                <path d="M1544.3427,1319.3869 L1437.5577,1319.3869 " style="stroke:#000000;stroke-width:0.1;"/>
            </g>
            <!-- Block Reference: A$C51F1 / entities: 31 -->
            <g>
                <!-- Polyline -->
                <path d="M556.3504,1407.3495 A216.619,216.619 0 0 1 546.7666,1319.9637 A1180.69,1180.69 0 0 0 562.34,942.7342 A22.2032,22.2032 0 0 0 537.9149,945.6624 A12.0328,12.0328 0 0 1 528.7713,946.3251 A480.879,480.879 0 0 0 474.7038,942.7342 L344.6585,942.7342 L214.6133,942.7342 A480.879,480.879 0 0 0 160.5457,946.3251 A12.0328,12.0328 0 0 1 151.4022,945.6624 A22.2032,22.2032 0 0 0 126.9771,942.7342 A1180.69,1180.69 0 0 0 142.5505,1319.9637 A216.619,216.619 0 0 1 132.9667,1407.3495 A12.6008,12.6008 0 0 0 143.7483,1426.5342 L545.5688,1426.5342 A12.6008,12.6008 0 0 0 556.3504,1407.3495 Z" style="stroke:#000000;stroke-width:0.1;"/>
                <!-- Line -->
                <path d="M344.9744,1319.3869 L238.1893,1319.3869 " style="stroke:#000000;stroke-width:0.1;"/>
                <!-- Arc -->
                <path d="M167.2252,1314.492 A1154.4088,1154.4088 0 0,1 151.9984,945.6581" style="stroke:#000000;stroke-width:0.1;"/>
                <!-- Arc -->
                <path d="M167.6128,1317.0839 A240.8687,240.8687 0 0,1 159.4136,1406.1966" style="stroke:#000000;stroke-width:0.1;"/>
                <!-- Line -->
                <path d="M344.9744,1401.268 L161.553,1401.268 " style="stroke:#000000;stroke-width:0.1;"/>
                <!-- Line -->
                <path d="M344.9744,1409.4561 L161.2309,1409.4561 " style="stroke:#000000;stroke-width:0.1;"/>
                <!-- Arc -->
                <path d="M161.2309,1409.4561 A2.4177,2.4177 0 0,1 159.4136,1406.1966" style="stroke:#000000;stroke-width:0.1;"/>
                <!-- Arc -->
                <path d="M178.6255,1298.4836 A317.3163,317.3163 0 0,1 163.8971,1387.822" style="stroke:#000000;stroke-width:0.1;"/>
                <!-- Arc -->
                <path d="M238.1893,1319.3869 A97.8312,97.8312 0 0,1 160.742,1280.1729" style="stroke:#000000;stroke-width:0.1;"/>
                <!-- Arc -->
                <path d="M161.6194,1401.268 A0.7251,0.7251 0 0,1 160.8947,1400.3253" style="stroke:#000000;stroke-width:0.1;"/>
                <!-- Line -->
                <path d="M344.9744,1400.4492 L161.553,1400.4492 " style="stroke:#000000;stroke-width:0.1;"/>
                <!-- Arc -->
                <path d="M161.553,1400.4492 A0.4331,0.4331 0 0,1 160.99,1399.9684" style="stroke:#000000;stroke-width:0.1;"/>
                <!-- Arc -->
                <path d="M161.1287,946.3199 A12.0153,12.0153 0 0,1 151.9984,945.6581" style="stroke:#000000;stroke-width:0.1;"/>
                <!-- Line -->
                <path d="M161.1287,946.3199 L159.3636,965.721 " style="stroke:#000000;stroke-width:0.1;"/>
                <!-- Line -->
                <path d="M159.3636,965.721 L150.2213,961.3935 " style="stroke:#000000;stroke-width:0.1;"/>
                <!-- Line -->
                <path d="M159.3636,965.721 L149.7709,965.721 " style="stroke:#000000;stroke-width:0.1;"/>
                <!-- Line -->
                <path d="M530.5851,965.721 L540.1778,965.721 " style="stroke:#000000;stroke-width:0.1;"/>
                <!-- Line -->
                <path d="M530.5851,965.721 L539.7274,961.3935 " style="stroke:#000000;stroke-width:0.1;"/>
                <!-- Line -->
                <path d="M528.82,946.3199 L530.5851,965.721 " style="stroke:#000000;stroke-width:0.1;"/>
                <!-- Arc -->
                <path d="M537.9503,945.6581 A12.0153,12.0153 0 0,1 528.82,946.3199" style="stroke:#000000;stroke-width:0.1;"/>
                <!-- Arc -->
                <path d="M528.9587,1399.9684 A0.4331,0.4331 0 0,1 528.3957,1400.4492" style="stroke:#000000;stroke-width:0.1;"/>
                <!-- Line -->
                <path d="M344.9744,1400.4492 L528.3957,1400.4492 " style="stroke:#000000;stroke-width:0.1;"/>
                <!-- Arc -->
                <path d="M529.054,1400.3253 A0.7251,0.7251 0 0,1 528.3294,1401.268" style="stroke:#000000;stroke-width:0.1;"/>
                <!-- Arc -->
                <path d="M529.2067,1280.1729 A97.8312,97.8312 0 0,1 451.7594,1319.3869" style="stroke:#000000;stroke-width:0.1;"/>
                <!-- Arc -->
                <path d="M526.0516,1387.822 A317.3163,317.3163 0 0,1 511.3232,1298.4836" style="stroke:#000000;stroke-width:0.1;"/>
                <!-- Arc -->
                <path d="M530.5351,1406.1966 A2.4177,2.4177 0 0,1 528.7178,1409.4561" style="stroke:#000000;stroke-width:0.1;"/>
                <!-- Line -->
                <path d="M344.9744,1409.4561 L528.7178,1409.4561 " style="stroke:#000000;stroke-width:0.1;"/>
                <!-- Line -->
                <path d="M344.9744,1401.268 L528.3957,1401.268 " style="stroke:#000000;stroke-width:0.1;"/>
                <!-- Arc -->
                <path d="M530.5351,1406.1966 A240.8687,240.8687 0 0,1 522.3359,1317.0839" style="stroke:#000000;stroke-width:0.1;"/>
                <!-- Arc -->
                <path d="M537.9503,945.6581 A1154.4088,1154.4088 0 0,1 522.7235,1314.492" style="stroke:#000000;stroke-width:0.1;"/>
                <!-- Line -->
                <path d="M344.9744,1319.3869 L451.7594,1319.3869 " style="stroke:#000000;stroke-width:0.1;"/>
            </g>
            <!-- Block Reference: A$C51F1 / entities: 31 -->
            <g>
                <!-- Polyline -->
                <path d="M1982.9667,1407.3495 A0.216619,0.216619 0 0 0 1992.5505,1319.9637 A1.18069,1.18069 0 0 1 1976.9771,942.7342 A0.0222032,0.0222032 0 0 1 2001.4022,945.6624 A0.0120328,0.0120328 0 0 0 2010.5457,946.3251 A0.480879,0.480879 0 0 1 2064.6133,942.7342 L2194.6585,942.7342 L2324.7038,942.7342 A0.480879,0.480879 0 0 1 2378.7713,946.3251 A0.0120328,0.0120328 0 0 0 2387.9149,945.6624 A0.0222032,0.0222032 0 0 1 2412.34,942.7342 A1.18069,1.18069 0 0 1 2396.7666,1319.9637 A0.216619,0.216619 0 0 0 2406.3504,1407.3495 A0.0126008,0.0126008 0 0 1 2395.5688,1426.5342 L1993.7483,1426.5342 A0.0126008,0.0126008 0 0 1 1982.9667,1407.3495 Z" style="stroke:#000000;stroke-width:0.1;"/>
                <!-- Line -->
                <path d="M2194.3427,1319.3869 L2301.1278,1319.3869 " style="stroke:#000000;stroke-width:0.1;"/>
                <!-- Arc -->
                <path d="M2372.0919,1314.492 A1154.4088,1154.4088 0 0,0 2387.3187,945.6581" style="stroke:#000000;stroke-width:0.1;"/>
                <!-- Arc -->
                <path d="M2371.7042,1317.0839 A240.8687,240.8687 0 0,0 2379.9034,1406.1966" style="stroke:#000000;stroke-width:0.1;"/>
                <!-- Line -->
                <path d="M2194.3427,1401.268 L2377.7641,1401.268 " style="stroke:#000000;stroke-width:0.1;"/>
                <!-- Line -->
                <path d="M2194.3427,1409.4561 L2378.0862,1409.4561 " style="stroke:#000000;stroke-width:0.1;"/>
                <!-- Arc -->
                <path d="M2378.0862,1409.4561 A2.4177,2.4177 0 0,0 2379.9034,1406.1966" style="stroke:#000000;stroke-width:0.1;"/>
                <!-- Arc -->
                <path d="M2360.6916,1298.4836 A317.3163,317.3163 0 0,0 2375.42,1387.822" style="stroke:#000000;stroke-width:0.1;"/>
                <!-- Arc -->
                <path d="M2301.1278,1319.3869 A97.8312,97.8312 0 0,0 2378.575,1280.1729" style="stroke:#000000;stroke-width:0.1;"/>
                <!-- Arc -->
                <path d="M2377.6977,1401.268 A0.7251,0.7251 0 0,0 2378.4224,1400.3253" style="stroke:#000000;stroke-width:0.1;"/>
                <!-- Line -->
                <path d="M2194.3427,1400.4492 L2377.7641,1400.4492 " style="stroke:#000000;stroke-width:0.1;"/>
                <!-- Arc -->
                <path d="M2377.7641,1400.4492 A0.4331,0.4331 0 0,0 2378.3271,1399.9684" style="stroke:#000000;stroke-width:0.1;"/>
                <!-- Arc -->
                <path d="M2378.1884,946.3199 A12.0153,12.0153 0 0,0 2387.3187,945.6581" style="stroke:#000000;stroke-width:0.1;"/>
                <!-- Line -->
                <path d="M2378.1884,946.3199 L2379.9535,965.721 " style="stroke:#000000;stroke-width:0.1;"/>
                <!-- Line -->
                <path d="M2379.9535,965.721 L2389.0958,961.3935 " style="stroke:#000000;stroke-width:0.1;"/>
                <!-- Line -->
                <path d="M2379.9535,965.721 L2389.5462,965.721 " style="stroke:#000000;stroke-width:0.1;"/>
                <!-- Line -->
                <path d="M2008.732,965.721 L1999.1393,965.721 " style="stroke:#000000;stroke-width:0.1;"/>
                <!-- Line -->
                <path d="M2008.732,965.721 L1999.5897,961.3935 " style="stroke:#000000;stroke-width:0.1;"/>
                <!-- Line -->
                <path d="M2010.497,946.3199 L2008.732,965.721 " style="stroke:#000000;stroke-width:0.1;"/>
                <!-- Arc -->
                <path d="M2001.3667,945.6581 A12.0153,12.0153 0 0,0 2010.497,946.3199" style="stroke:#000000;stroke-width:0.1;"/>
                <!-- Arc -->
                <path d="M2010.3583,1399.9684 A0.4331,0.4331 0 0,0 2010.9213,1400.4492" style="stroke:#000000;stroke-width:0.1;"/>
                <!-- Line -->
                <path d="M2194.3427,1400.4492 L2010.9213,1400.4492 " style="stroke:#000000;stroke-width:0.1;"/>
                <!-- Arc -->
                <path d="M2010.2631,1400.3253 A0.7251,0.7251 0 0,0 2010.9877,1401.268" style="stroke:#000000;stroke-width:0.1;"/>
                <!-- Arc -->
                <path d="M2010.1104,1280.1729 A97.8312,97.8312 0 0,0 2087.5577,1319.3869" style="stroke:#000000;stroke-width:0.1;"/>
                <!-- Arc -->
                <path d="M2013.2655,1387.822 A317.3163,317.3163 0 0,0 2027.9938,1298.4836" style="stroke:#000000;stroke-width:0.1;"/>
                <!-- Arc -->
                <path d="M2008.782,1406.1966 A2.4177,2.4177 0 0,0 2010.5992,1409.4561" style="stroke:#000000;stroke-width:0.1;"/>
                <!-- Line -->
                <path d="M2194.3427,1409.4561 L2010.5992,1409.4561 " style="stroke:#000000;stroke-width:0.1;"/>
                <!-- Line -->
                <path d="M2194.3427,1401.268 L2010.9213,1401.268 " style="stroke:#000000;stroke-width:0.1;"/>
                <!-- Arc -->
                <path d="M2008.782,1406.1966 A240.8687,240.8687 0 0,0 2016.9812,1317.0839" style="stroke:#000000;stroke-width:0.1;"/>
                <!-- Arc -->
                <path d="M2001.3667,945.6581 A1154.4088,1154.4088 0 0,0 2016.5935,1314.492" style="stroke:#000000;stroke-width:0.1;"/>
                <!-- Line -->
                <path d="M2194.3427,1319.3869 L2087.5577,1319.3869 " style="stroke:#000000;stroke-width:0.1;"/>
            </g>
            <!-- Polyline -->
            <path d="M39.6585,37.7342 L2499.6585,37.7342 L2499.6585,897.7342 L39.6585,897.7342 Z" style="stroke:#000000;stroke-width:0.1;"/>
            <!-- Polyline -->
            <path d="M19.6585,17.7342 L2519.6585,17.7342 L2519.6585,917.7342 L19.6585,917.7342 Z" style="stroke:#000000;stroke-width:0.1;"/>
        </g>
    </g>
</svg>

