<?xml version="1.0" encoding="UTF-8"?>
<!-- 2026-03-10 13:21:47 Generated by QCAD 3.32.6 SVG Exporter -->
<svg  width="2028.2404mm" height="2028.2404mm" viewBox="-0.0042 -2028.2436 2028.2404 2028.2404" version="1.1" xmlns="http://www.w3.org/2000/svg" style="stroke-linecap:round;stroke-linejoin:round;">
    <g transform="scale(1,-1)">
            <!-- Auto-generated fillable area -->
            <!-- Block Reference: 4 seater round table / entities: 10 -->
        <g>
            <!-- Polyline -->
            <path d="M1224.0322,2009.0588 A216.619,216.619 0 0 1 1214.4485,1921.673 A1180.69,1180.69 0 0 0 1230.0219,1544.4435 A22.2032,22.2032 0 0 0 1205.5968,1547.3717 A12.0328,12.0328 0 0 1 1196.4532,1548.0344 A480.879,480.879 0 0 0 1142.3857,1544.4435 L1012.3404,1544.4435 L882.2951,1544.4435 A480.879,480.879 0 0 0 828.2276,1548.0344 A12.0328,12.0328 0 0 1 819.084,1547.3717 A22.2032,22.2032 0 0 0 794.6589,1544.4435 A1180.69,1180.69 0 0 0 810.2324,1921.673 A216.619,216.619 0 0 1 800.6486,2009.0588 A12.6008,12.6008 0 0 0 811.4301,2028.2435 L1213.2507,2028.2435 A12.6008,12.6008 0 0 0 1224.0322,2009.0588 Z" style="stroke:#000000;stroke-width:0.1;"/>
            <!-- Block Reference: A$C2C166547 / entities: 30 -->
            <g>
                <!-- Arc -->
                <path d="M1193.7335,1989.5313 A317.3163,317.3163 0 0,1 1179.0051,1900.1929" style="stroke:#000000;stroke-width:0.1;"/>
                <!-- Arc -->
                <path d="M1196.8886,1881.8823 A97.8312,97.8312 0 0,1 1119.4413,1921.0963" style="stroke:#000000;stroke-width:0.1;"/>
                <!-- Arc -->
                <path d="M905.8712,1921.0963 A97.8312,97.8312 0 0,1 828.4239,1881.8823" style="stroke:#000000;stroke-width:0.1;"/>
                <!-- Arc -->
                <path d="M846.3073,1900.1929 A317.3163,317.3163 0 0,1 831.579,1989.5313" style="stroke:#000000;stroke-width:0.1;"/>
                <!-- Polyline -->
                <path d="M834.9071,1916.2014 A1154.41,1154.41 0 0 1 819.6802,1547.3675" style="stroke:#000000;stroke-width:0.1;"/>
                <!-- Line -->
                <path d="M827.0455,1567.4303 L817.4528,1567.4303 " style="stroke:#000000;stroke-width:0.1;"/>
                <!-- Line -->
                <path d="M827.0455,1567.4303 L817.9032,1563.1029 " style="stroke:#000000;stroke-width:0.1;"/>
                <!-- Line -->
                <path d="M828.8105,1548.0292 L827.0455,1567.4303 " style="stroke:#000000;stroke-width:0.1;"/>
                <!-- Arc -->
                <path d="M828.8105,1548.0292 A12.0153,12.0153 0 0,1 819.6802,1547.3675" style="stroke:#000000;stroke-width:0.1;"/>
                <!-- Arc -->
                <path d="M1205.6322,1547.3675 A1154.4088,1154.4088 0 0,1 1190.4054,1916.2014" style="stroke:#000000;stroke-width:0.1;"/>
                <!-- Arc -->
                <path d="M1205.6322,1547.3675 A12.0153,12.0153 0 0,1 1196.5019,1548.0292" style="stroke:#000000;stroke-width:0.1;"/>
                <!-- Line -->
                <path d="M1196.5019,1548.0292 L1198.267,1567.4303 " style="stroke:#000000;stroke-width:0.1;"/>
                <!-- Line -->
                <path d="M1198.267,1567.4303 L1207.4093,1563.1029 " style="stroke:#000000;stroke-width:0.1;"/>
                <!-- Line -->
                <path d="M1198.267,1567.4303 L1207.8597,1567.4303 " style="stroke:#000000;stroke-width:0.1;"/>
                <!-- Line -->
                <path d="M1012.6562,2002.1585 L829.2348,2002.1585 " style="stroke:#000000;stroke-width:0.1;"/>
                <!-- Line -->
                <path d="M1012.6562,2011.1654 L828.9127,2011.1654 " style="stroke:#000000;stroke-width:0.1;"/>
                <!-- Line -->
                <path d="M1012.6562,2002.9773 L829.2348,2002.9773 " style="stroke:#000000;stroke-width:0.1;"/>
                <!-- Line -->
                <path d="M1012.6562,1921.0963 L905.8712,1921.0963 " style="stroke:#000000;stroke-width:0.1;"/>
                <!-- Arc -->
                <path d="M829.2348,2002.1585 A0.4331,0.4331 0 0,1 828.6719,2001.6777" style="stroke:#000000;stroke-width:0.1;"/>
                <!-- Arc -->
                <path d="M829.3012,2002.9773 A0.7251,0.7251 0 0,1 828.5766,2002.0347" style="stroke:#000000;stroke-width:0.1;"/>
                <!-- Arc -->
                <path d="M828.9127,2011.1654 A2.4177,2.4177 0 0,1 827.0955,2007.9059" style="stroke:#000000;stroke-width:0.1;"/>
                <!-- Arc -->
                <path d="M835.2947,1918.7933 A240.8687,240.8687 0 0,1 827.0955,2007.9059" style="stroke:#000000;stroke-width:0.1;"/>
                <!-- Line -->
                <path d="M1012.6562,1921.0963 L1119.4413,1921.0963 " style="stroke:#000000;stroke-width:0.1;"/>
                <!-- Arc -->
                <path d="M1198.2169,2007.9059 A240.8687,240.8687 0 0,1 1190.0177,1918.7933" style="stroke:#000000;stroke-width:0.1;"/>
                <!-- Line -->
                <path d="M1012.6562,2002.9773 L1196.0776,2002.9773 " style="stroke:#000000;stroke-width:0.1;"/>
                <!-- Line -->
                <path d="M1012.6562,2011.1654 L1196.3997,2011.1654 " style="stroke:#000000;stroke-width:0.1;"/>
                <!-- Arc -->
                <path d="M1198.2169,2007.9059 A2.4177,2.4177 0 0,1 1196.3997,2011.1654" style="stroke:#000000;stroke-width:0.1;"/>
                <!-- Arc -->
                <path d="M1196.7359,2002.0347 A0.7251,0.7251 0 0,1 1196.0112,2002.9773" style="stroke:#000000;stroke-width:0.1;"/>
                <!-- Line -->
                <path d="M1012.6562,2002.1585 L1196.0776,2002.1585 " style="stroke:#000000;stroke-width:0.1;"/>
                <!-- Arc -->
                <path d="M1196.6406,2001.6777 A0.4331,0.4331 0 0,1 1196.0776,2002.1585" style="stroke:#000000;stroke-width:0.1;"/>
            </g>
            <!-- Polyline -->
            <path d="M804.1998,19.1879 A216.619,216.619 0 0 1 813.7836,106.5737 A1180.69,1180.69 0 0 0 798.2101,483.8032 A22.2032,22.2032 0 0 0 822.6352,480.875 A12.0328,12.0328 0 0 1 831.7788,480.2123 A480.879,480.879 0 0 0 885.8463,483.8032 L1015.8916,483.8032 L1145.9369,483.8032 A480.879,480.879 0 0 0 1200.0044,480.2123 A12.0328,12.0328 0 0 1 1209.148,480.875 A22.2032,22.2032 0 0 0 1233.5731,483.8032 A1180.69,1180.69 0 0 0 1217.9997,106.5737 A216.619,216.619 0 0 1 1227.5834,19.1879 A12.6008,12.6008 0 0 0 1216.8019,0.0032 L814.9813,0.0032 A12.6008,12.6008 0 0 0 804.1998,19.1879 Z" style="stroke:#000000;stroke-width:0.1;"/>
            <!-- Block Reference: A$C2C166547 / entities: 30 -->
            <g>
                <!-- Arc -->
                <path d="M834.4985,38.7154 A317.3163,317.3163 0 0,1 849.2269,128.0538" style="stroke:#000000;stroke-width:0.1;"/>
                <!-- Arc -->
                <path d="M831.3435,146.3644 A97.8312,97.8312 0 0,1 908.7907,107.1504" style="stroke:#000000;stroke-width:0.1;"/>
                <!-- Arc -->
                <path d="M1122.3608,107.1504 A97.8312,97.8312 0 0,1 1199.8081,146.3644" style="stroke:#000000;stroke-width:0.1;"/>
                <!-- Arc -->
                <path d="M1181.9247,128.0538 A317.3163,317.3163 0 0,1 1196.653,38.7154" style="stroke:#000000;stroke-width:0.1;"/>
                <!-- Polyline -->
                <path d="M1193.325,112.0453 A1154.41,1154.41 0 0 1 1208.5518,480.8792" style="stroke:#000000;stroke-width:0.1;"/>
                <!-- Line -->
                <path d="M1201.1865,460.8164 L1210.7793,460.8164 " style="stroke:#000000;stroke-width:0.1;"/>
                <!-- Line -->
                <path d="M1201.1865,460.8164 L1210.3288,465.1438 " style="stroke:#000000;stroke-width:0.1;"/>
                <!-- Line -->
                <path d="M1199.4215,480.2175 L1201.1865,460.8164 " style="stroke:#000000;stroke-width:0.1;"/>
                <!-- Arc -->
                <path d="M1199.4215,480.2175 A12.0153,12.0153 0 0,1 1208.5518,480.8792" style="stroke:#000000;stroke-width:0.1;"/>
                <!-- Arc -->
                <path d="M822.5998,480.8792 A1154.4088,1154.4088 0 0,1 837.8266,112.0453" style="stroke:#000000;stroke-width:0.1;"/>
                <!-- Arc -->
                <path d="M822.5998,480.8792 A12.0153,12.0153 0 0,1 831.7301,480.2175" style="stroke:#000000;stroke-width:0.1;"/>
                <!-- Line -->
                <path d="M831.7301,480.2175 L829.9651,460.8164 " style="stroke:#000000;stroke-width:0.1;"/>
                <!-- Line -->
                <path d="M829.9651,460.8164 L820.8228,465.1438 " style="stroke:#000000;stroke-width:0.1;"/>
                <!-- Line -->
                <path d="M829.9651,460.8164 L820.3723,460.8164 " style="stroke:#000000;stroke-width:0.1;"/>
                <!-- Line -->
                <path d="M1015.5758,26.0882 L1198.9972,26.0882 " style="stroke:#000000;stroke-width:0.1;"/>
                <!-- Line -->
                <path d="M1015.5758,17.0813 L1199.3193,17.0813 " style="stroke:#000000;stroke-width:0.1;"/>
                <!-- Line -->
                <path d="M1015.5758,25.2694 L1198.9972,25.2694 " style="stroke:#000000;stroke-width:0.1;"/>
                <!-- Line -->
                <path d="M1015.5758,107.1504 L1122.3608,107.1504 " style="stroke:#000000;stroke-width:0.1;"/>
                <!-- Arc -->
                <path d="M1198.9972,26.0882 A0.4331,0.4331 0 0,1 1199.5602,26.569" style="stroke:#000000;stroke-width:0.1;"/>
                <!-- Arc -->
                <path d="M1198.9308,25.2694 A0.7251,0.7251 0 0,1 1199.6554,26.212" style="stroke:#000000;stroke-width:0.1;"/>
                <!-- Arc -->
                <path d="M1199.3193,17.0813 A2.4177,2.4177 0 0,1 1201.1365,20.3408" style="stroke:#000000;stroke-width:0.1;"/>
                <!-- Arc -->
                <path d="M1192.9373,109.4535 A240.8687,240.8687 0 0,1 1201.1365,20.3408" style="stroke:#000000;stroke-width:0.1;"/>
                <!-- Line -->
                <path d="M1015.5758,107.1504 L908.7907,107.1504 " style="stroke:#000000;stroke-width:0.1;"/>
                <!-- Arc -->
                <path d="M830.0151,20.3408 A240.8687,240.8687 0 0,1 838.2143,109.4535" style="stroke:#000000;stroke-width:0.1;"/>
                <!-- Line -->
                <path d="M1015.5758,25.2694 L832.1544,25.2694 " style="stroke:#000000;stroke-width:0.1;"/>
                <!-- Line -->
                <path d="M1015.5758,17.0813 L831.8323,17.0813 " style="stroke:#000000;stroke-width:0.1;"/>
                <!-- Arc -->
                <path d="M830.0151,20.3408 A2.4177,2.4177 0 0,1 831.8323,17.0813" style="stroke:#000000;stroke-width:0.1;"/>
                <!-- Arc -->
                <path d="M831.4961,26.212 A0.7251,0.7251 0 0,1 832.2208,25.2694" style="stroke:#000000;stroke-width:0.1;"/>
                <!-- Line -->
                <path d="M1015.5758,26.0882 L832.1544,26.0882 " style="stroke:#000000;stroke-width:0.1;"/>
                <!-- Arc -->
                <path d="M831.5914,26.569 A0.4331,0.4331 0 0,1 832.1544,26.0882" style="stroke:#000000;stroke-width:0.1;"/>
            </g>
            <!-- Circle -->
            <circle cx="1014.116009368533" cy="1014.1233549650515" r="480" style="stroke:#000000;stroke-width:0.1;"/>
            <!-- Circle -->
            <circle cx="1014.116009368533" cy="1014.1233549650515" r="500" style="stroke:#000000;stroke-width:0.1;"/>
            <!-- Polyline -->
            <path d="M2009.0515,804.2071 A216.619,216.619 0 0 1 1921.6657,813.7909 A1180.69,1180.69 0 0 0 1544.4362,798.2175 A22.2032,22.2032 0 0 0 1547.3644,822.6426 A12.0328,12.0328 0 0 1 1548.0271,831.7862 A480.879,480.879 0 0 0 1544.4362,885.8537 L1544.4362,1015.899 L1544.4362,1145.9442 A480.879,480.879 0 0 0 1548.0271,1200.0118 A12.0328,12.0328 0 0 1 1547.3644,1209.1553 A22.2032,22.2032 0 0 0 1544.4362,1233.5804 A1180.69,1180.69 0 0 0 1921.6657,1218.007 A216.619,216.619 0 0 1 2009.0515,1227.5908 A12.6008,12.6008 0 0 0 2028.2362,1216.8092 L2028.2362,814.9887 A12.6008,12.6008 0 0 0 2009.0515,804.2071 Z" style="stroke:#000000;stroke-width:0.1;"/>
            <!-- Block Reference: A$C2C166547 / entities: 30 -->
            <g>
                <!-- Arc -->
                <path d="M1989.524,834.5059 A317.3163,317.3163 0 0,1 1900.1855,849.2343" style="stroke:#000000;stroke-width:0.1;"/>
                <!-- Arc -->
                <path d="M1881.8749,831.3508 A97.8312,97.8312 0 0,1 1921.0889,908.7981" style="stroke:#000000;stroke-width:0.1;"/>
                <!-- Arc -->
                <path d="M1921.0889,1122.3682 A97.8312,97.8312 0 0,1 1881.8749,1199.8155" style="stroke:#000000;stroke-width:0.1;"/>
                <!-- Arc -->
                <path d="M1900.1855,1181.932 A317.3163,317.3163 0 0,1 1989.524,1196.6604" style="stroke:#000000;stroke-width:0.1;"/>
                <!-- Polyline -->
                <path d="M1916.194,1193.3323 A1154.41,1154.41 0 0 1 1547.3601,1208.5591" style="stroke:#000000;stroke-width:0.1;"/>
                <!-- Line -->
                <path d="M1567.423,1201.1939 L1567.423,1210.7866 " style="stroke:#000000;stroke-width:0.1;"/>
                <!-- Line -->
                <path d="M1567.423,1201.1939 L1563.0955,1210.3362 " style="stroke:#000000;stroke-width:0.1;"/>
                <!-- Line -->
                <path d="M1548.0219,1199.4288 L1567.423,1201.1939 " style="stroke:#000000;stroke-width:0.1;"/>
                <!-- Arc -->
                <path d="M1548.0219,1199.4288 A12.0153,12.0153 0 0,1 1547.3601,1208.5591" style="stroke:#000000;stroke-width:0.1;"/>
                <!-- Arc -->
                <path d="M1547.3601,822.6071 A1154.4088,1154.4088 0 0,1 1916.194,837.834" style="stroke:#000000;stroke-width:0.1;"/>
                <!-- Arc -->
                <path d="M1547.3601,822.6071 A12.0153,12.0153 0 0,1 1548.0219,831.7374" style="stroke:#000000;stroke-width:0.1;"/>
                <!-- Line -->
                <path d="M1548.0219,831.7374 L1567.423,829.9724 " style="stroke:#000000;stroke-width:0.1;"/>
                <!-- Line -->
                <path d="M1567.423,829.9724 L1563.0955,820.8301 " style="stroke:#000000;stroke-width:0.1;"/>
                <!-- Line -->
                <path d="M1567.423,829.9724 L1567.423,820.3797 " style="stroke:#000000;stroke-width:0.1;"/>
                <!-- Line -->
                <path d="M2002.1511,1015.5831 L2002.1511,1199.0045 " style="stroke:#000000;stroke-width:0.1;"/>
                <!-- Line -->
                <path d="M2011.1581,1015.5831 L2011.1581,1199.3266 " style="stroke:#000000;stroke-width:0.1;"/>
                <!-- Line -->
                <path d="M2002.97,1015.5831 L2002.97,1199.0045 " style="stroke:#000000;stroke-width:0.1;"/>
                <!-- Line -->
                <path d="M1921.0889,1015.5831 L1921.0889,1122.3682 " style="stroke:#000000;stroke-width:0.1;"/>
                <!-- Arc -->
                <path d="M2002.1511,1199.0045 A0.4331,0.4331 0 0,1 2001.6704,1199.5675" style="stroke:#000000;stroke-width:0.1;"/>
                <!-- Arc -->
                <path d="M2002.97,1198.9381 A0.7251,0.7251 0 0,1 2002.0273,1199.6628" style="stroke:#000000;stroke-width:0.1;"/>
                <!-- Arc -->
                <path d="M2011.1581,1199.3266 A2.4177,2.4177 0 0,1 2007.8985,1201.1439" style="stroke:#000000;stroke-width:0.1;"/>
                <!-- Arc -->
                <path d="M1918.7859,1192.9446 A240.8687,240.8687 0 0,1 2007.8985,1201.1439" style="stroke:#000000;stroke-width:0.1;"/>
                <!-- Line -->
                <path d="M1921.0889,1015.5831 L1921.0889,908.7981 " style="stroke:#000000;stroke-width:0.1;"/>
                <!-- Arc -->
                <path d="M2007.8985,830.0224 A240.8687,240.8687 0 0,1 1918.7859,838.2216" style="stroke:#000000;stroke-width:0.1;"/>
                <!-- Line -->
                <path d="M2002.97,1015.5831 L2002.97,832.1617 " style="stroke:#000000;stroke-width:0.1;"/>
                <!-- Line -->
                <path d="M2011.1581,1015.5831 L2011.1581,831.8397 " style="stroke:#000000;stroke-width:0.1;"/>
                <!-- Arc -->
                <path d="M2007.8985,830.0224 A2.4177,2.4177 0 0,1 2011.1581,831.8397" style="stroke:#000000;stroke-width:0.1;"/>
                <!-- Arc -->
                <path d="M2002.0273,831.5035 A0.7251,0.7251 0 0,1 2002.97,832.2281" style="stroke:#000000;stroke-width:0.1;"/>
                <!-- Line -->
                <path d="M2002.1511,1015.5831 L2002.1511,832.1617 " style="stroke:#000000;stroke-width:0.1;"/>
                <!-- Arc -->
                <path d="M2001.6704,831.5988 A0.4331,0.4331 0 0,1 2002.1511,832.1617" style="stroke:#000000;stroke-width:0.1;"/>
            </g>
            <!-- Polyline -->
            <path d="M19.1805,1224.0396 A216.619,216.619 0 0 1 106.5663,1214.4558 A1180.69,1180.69 0 0 0 483.7958,1230.0292 A22.2032,22.2032 0 0 0 480.8677,1205.6041 A12.0328,12.0328 0 0 1 480.2049,1196.4606 A480.879,480.879 0 0 0 483.7958,1142.393 L483.7958,1012.3478 L483.7958,882.3025 A480.879,480.879 0 0 0 480.2049,828.235 A12.0328,12.0328 0 0 1 480.8677,819.0914 A22.2032,22.2032 0 0 0 483.7958,794.6663 A1180.69,1180.69 0 0 0 106.5663,810.2397 A216.619,216.619 0 0 1 19.1805,800.6559 A12.6008,12.6008 0 0 0 -0.0042,811.4375 L-0.0042,1213.258 A12.6008,12.6008 0 0 0 19.1805,1224.0396 Z" style="stroke:#000000;stroke-width:0.1;"/>
            <!-- Block Reference: A$C2C166547 / entities: 30 -->
            <g>
                <!-- Arc -->
                <path d="M38.708,1193.7408 A317.3163,317.3163 0 0,1 128.0465,1179.0125" style="stroke:#000000;stroke-width:0.1;"/>
                <!-- Arc -->
                <path d="M146.3571,1196.8959 A97.8312,97.8312 0 0,1 107.1431,1119.4486" style="stroke:#000000;stroke-width:0.1;"/>
                <!-- Arc -->
                <path d="M107.1431,905.8785 A97.8312,97.8312 0 0,1 146.3571,828.4313" style="stroke:#000000;stroke-width:0.1;"/>
                <!-- Arc -->
                <path d="M128.0465,846.3147 A317.3163,317.3163 0 0,1 38.708,831.5863" style="stroke:#000000;stroke-width:0.1;"/>
                <!-- Polyline -->
                <path d="M112.038,834.9144 A1154.41,1154.41 0 0 1 480.8719,819.6876" style="stroke:#000000;stroke-width:0.1;"/>
                <!-- Line -->
                <path d="M460.8091,827.0528 L460.8091,817.4601 " style="stroke:#000000;stroke-width:0.1;"/>
                <!-- Line -->
                <path d="M460.8091,827.0528 L465.1365,817.9105 " style="stroke:#000000;stroke-width:0.1;"/>
                <!-- Line -->
                <path d="M480.2101,828.8179 L460.8091,827.0528 " style="stroke:#000000;stroke-width:0.1;"/>
                <!-- Arc -->
                <path d="M480.2101,828.8179 A12.0153,12.0153 0 0,1 480.8719,819.6876" style="stroke:#000000;stroke-width:0.1;"/>
                <!-- Arc -->
                <path d="M480.8719,1205.6396 A1154.4088,1154.4088 0 0,1 112.038,1190.4127" style="stroke:#000000;stroke-width:0.1;"/>
                <!-- Arc -->
                <path d="M480.8719,1205.6396 A12.0153,12.0153 0 0,1 480.2101,1196.5093" style="stroke:#000000;stroke-width:0.1;"/>
                <!-- Line -->
                <path d="M480.2101,1196.5093 L460.8091,1198.2743 " style="stroke:#000000;stroke-width:0.1;"/>
                <!-- Line -->
                <path d="M460.8091,1198.2743 L465.1365,1207.4166 " style="stroke:#000000;stroke-width:0.1;"/>
                <!-- Line -->
                <path d="M460.8091,1198.2743 L460.8091,1207.867 " style="stroke:#000000;stroke-width:0.1;"/>
                <!-- Line -->
                <path d="M26.0809,1012.6636 L26.0809,829.2422 " style="stroke:#000000;stroke-width:0.1;"/>
                <!-- Line -->
                <path d="M17.074,1012.6636 L17.074,828.9201 " style="stroke:#000000;stroke-width:0.1;"/>
                <!-- Line -->
                <path d="M25.2621,1012.6636 L25.2621,829.2422 " style="stroke:#000000;stroke-width:0.1;"/>
                <!-- Line -->
                <path d="M107.1431,1012.6636 L107.1431,905.8785 " style="stroke:#000000;stroke-width:0.1;"/>
                <!-- Arc -->
                <path d="M26.0809,829.2422 A0.4331,0.4331 0 0,1 26.5616,828.6792" style="stroke:#000000;stroke-width:0.1;"/>
                <!-- Arc -->
                <path d="M25.2621,829.3086 A0.7251,0.7251 0 0,1 26.2047,828.5839" style="stroke:#000000;stroke-width:0.1;"/>
                <!-- Arc -->
                <path d="M17.074,828.9201 A2.4177,2.4177 0 0,1 20.3335,827.1029" style="stroke:#000000;stroke-width:0.1;"/>
                <!-- Arc -->
                <path d="M109.4461,835.3021 A240.8687,240.8687 0 0,1 20.3335,827.1029" style="stroke:#000000;stroke-width:0.1;"/>
                <!-- Line -->
                <path d="M107.1431,1012.6636 L107.1431,1119.4486 " style="stroke:#000000;stroke-width:0.1;"/>
                <!-- Arc -->
                <path d="M20.3335,1198.2243 A240.8687,240.8687 0 0,1 109.4461,1190.0251" style="stroke:#000000;stroke-width:0.1;"/>
                <!-- Line -->
                <path d="M25.2621,1012.6636 L25.2621,1196.085 " style="stroke:#000000;stroke-width:0.1;"/>
                <!-- Line -->
                <path d="M17.074,1012.6636 L17.074,1196.4071 " style="stroke:#000000;stroke-width:0.1;"/>
                <!-- Arc -->
                <path d="M20.3335,1198.2243 A2.4177,2.4177 0 0,1 17.074,1196.4071" style="stroke:#000000;stroke-width:0.1;"/>
                <!-- Arc -->
                <path d="M26.2047,1196.7432 A0.7251,0.7251 0 0,1 25.2621,1196.0186" style="stroke:#000000;stroke-width:0.1;"/>
                <!-- Line -->
                <path d="M26.0809,1012.6636 L26.0809,1196.085 " style="stroke:#000000;stroke-width:0.1;"/>
                <!-- Arc -->
                <path d="M26.5616,1196.6479 A0.4331,0.4331 0 0,1 26.0809,1196.085" style="stroke:#000000;stroke-width:0.1;"/>
            </g>
        </g>
    </g>
</svg>

