<?xml version="1.0" encoding="UTF-8"?>
<!-- 2026-03-10 13:16:38 Generated by QCAD 3.32.6 SVG Exporter -->
<svg  width="1778.8993mm" height="1778.8993mm" viewBox="8.0306 -1782.5002 1778.8993 1778.8993" version="1.1" xmlns="http://www.w3.org/2000/svg" style="stroke-linecap:round;stroke-linejoin:round;">
    <g transform="scale(1,-1)">
            <!-- Auto-generated fillable area -->
            <!-- Block Reference: 4 seater cocktail table / entities: 10 -->
        <g>
            <!-- Polyline -->
            <path d="M1409.1407,1770.9092 A259.942,259.942 0 0 0 1343.1235,1688.6277 A1416.82,1416.82 0 0 1 1009.8192,1381.7524 A26.6438,26.6438 0 0 1 1033.0292,1363.5116 A14.4394,14.4394 0 0 0 1041.3501,1356.3154 A577.055,577.055 0 0 1 1084.181,1307.3906 L1194.528,1197.0435 L1304.8751,1086.6964 A577.055,577.055 0 0 1 1353.7999,1043.8656 A14.4394,14.4394 0 0 0 1360.9962,1035.5447 A26.6438,26.6438 0 0 1 1379.2369,1012.3347 A1416.82,1416.82 0 0 1 1686.1123,1345.639 A259.942,259.942 0 0 0 1768.3937,1411.6562 A15.121,15.121 0 0 1 1775.524,1437.0834 L1434.5679,1778.0395 A15.121,15.121 0 0 1 1409.1407,1770.9092 Z" style="stroke:#000000;stroke-width:0.1;"/>
            <!-- Block Reference: A$C1D6968EA / entities: 30 -->
            <g>
                <!-- Arc -->
                <path d="M1430.0674,1748.0259 A289.0424,289.0424 0 0,0 1361.4101,1665.454" style="stroke:#000000;stroke-width:0.1;"/>
                <!-- Arc -->
                <path d="M1418.2805,1728.6302 A380.7796,380.7796 0 0,0 1354.9717,1640.3266" style="stroke:#000000;stroke-width:0.1;"/>
                <!-- Arc -->
                <path d="M1637.2751,1358.0231 A380.7796,380.7796 0 0,0 1725.5787,1421.3319" style="stroke:#000000;stroke-width:0.1;"/>
                <!-- Arc -->
                <path d="M1662.4026,1364.4616 A289.0424,289.0424 0 0,0 1744.9744,1433.1189" style="stroke:#000000;stroke-width:0.1;"/>
                <!-- Line -->
                <path d="M1513.8605,1516.912 L1423.2504,1607.5221 " style="stroke:#000000;stroke-width:0.1;"/>
                <!-- Arc -->
                <path d="M1032.9955,1363.5381 A1385.2906,1385.2906 0 0,0 1358.8819,1663.5837" style="stroke:#000000;stroke-width:0.1;"/>
                <!-- Arc -->
                <path d="M1324.26,1639.9641 A117.3974,117.3974 0 0,0 1423.2504,1607.5221" style="stroke:#000000;stroke-width:0.1;"/>
                <!-- Arc -->
                <path d="M1032.9955,1363.5381 A14.4184,14.4184 0 0,0 1041.3044,1356.3523" style="stroke:#000000;stroke-width:0.1;"/>
                <!-- Line -->
                <path d="M1041.3044,1356.3523 L1056.2691,1374.3124 " style="stroke:#000000;stroke-width:0.1;"/>
                <!-- Line -->
                <path d="M1056.2691,1374.3124 L1044.8396,1378.3979 " style="stroke:#000000;stroke-width:0.1;"/>
                <!-- Line -->
                <path d="M1056.2691,1374.3124 L1048.1294,1382.4521 " style="stroke:#000000;stroke-width:0.1;"/>
                <!-- Line -->
                <path d="M1371.2609,1059.3205 L1379.4006,1051.1808 " style="stroke:#000000;stroke-width:0.1;"/>
                <!-- Line -->
                <path d="M1371.2609,1059.3205 L1375.3465,1047.891 " style="stroke:#000000;stroke-width:0.1;"/>
                <!-- Line -->
                <path d="M1353.3009,1044.3558 L1371.2609,1059.3205 " style="stroke:#000000;stroke-width:0.1;"/>
                <!-- Arc -->
                <path d="M1353.3009,1044.3558 A14.4184,14.4184 0 0,0 1360.4867,1036.047" style="stroke:#000000;stroke-width:0.1;"/>
                <!-- Arc -->
                <path d="M1604.4706,1426.3018 A117.3974,117.3974 0 0,0 1636.9126,1327.3115" style="stroke:#000000;stroke-width:0.1;"/>
                <!-- Arc -->
                <path d="M1660.5322,1361.9333 A1385.2906,1385.2906 0 0,0 1360.4867,1036.047" style="stroke:#000000;stroke-width:0.1;"/>
                <!-- Line -->
                <path d="M1513.8605,1516.912 L1604.4706,1426.3018 " style="stroke:#000000;stroke-width:0.1;"/>
                <!-- Line -->
                <path d="M1583.3389,1586.3903 L1427.7007,1742.0285 " style="stroke:#000000;stroke-width:0.1;"/>
                <!-- Line -->
                <path d="M1590.2867,1593.3381 L1434.3752,1749.2497 " style="stroke:#000000;stroke-width:0.1;"/>
                <!-- Arc -->
                <path d="M1430.0674,1748.0259 A2.9012,2.9012 0 0,0 1434.3752,1749.2497" style="stroke:#000000;stroke-width:0.1;"/>
                <!-- Arc -->
                <path d="M1426.3423,1741.7872 A0.8701,0.8701 0 0,0 1427.757,1741.9722" style="stroke:#000000;stroke-width:0.1;"/>
                <!-- Line -->
                <path d="M1582.6441,1585.6955 L1427.0059,1741.3337 " style="stroke:#000000;stroke-width:0.1;"/>
                <!-- Arc -->
                <path d="M1426.1202,1741.4035 A0.5197,0.5197 0 0,0 1427.0059,1741.3337" style="stroke:#000000;stroke-width:0.1;"/>
                <!-- Arc -->
                <path d="M1738.2823,1430.0573 A0.5197,0.5197 0 0,0 1738.3521,1429.1717" style="stroke:#000000;stroke-width:0.1;"/>
                <!-- Line -->
                <path d="M1582.6441,1585.6955 L1738.2823,1430.0573 " style="stroke:#000000;stroke-width:0.1;"/>
                <!-- Arc -->
                <path d="M1738.9208,1430.8084 A0.8701,0.8701 0 0,0 1738.7358,1429.3937" style="stroke:#000000;stroke-width:0.1;"/>
                <!-- Arc -->
                <path d="M1746.1982,1437.4266 A2.9012,2.9012 0 0,0 1744.9744,1433.1189" style="stroke:#000000;stroke-width:0.1;"/>
                <!-- Line -->
                <path d="M1590.2867,1593.3381 L1746.1982,1437.4266 " style="stroke:#000000;stroke-width:0.1;"/>
                <!-- Line -->
                <path d="M1583.3389,1586.3903 L1738.9771,1430.7521 " style="stroke:#000000;stroke-width:0.1;"/>
            </g>
            <!-- Polyline -->
            <path d="M1775.3388,381.39 A259.942,259.942 0 0 0 1693.0574,447.4073 A1416.82,1416.82 0 0 1 1386.182,780.7116 A26.6438,26.6438 0 0 1 1367.9413,757.5016 A14.4394,14.4394 0 0 0 1360.745,749.1806 A577.055,577.055 0 0 1 1311.8202,706.3498 L1201.4731,596.0028 L1091.1261,485.6557 A577.055,577.055 0 0 1 1048.2952,436.7309 A14.4394,14.4394 0 0 0 1039.9743,429.5346 A26.6438,26.6438 0 0 1 1016.7643,411.2939 A1416.82,1416.82 0 0 1 1350.0686,104.4185 A259.942,259.942 0 0 0 1416.0858,22.1371 A15.121,15.121 0 0 1 1441.513,15.0068 L1782.4691,355.9629 A15.121,15.121 0 0 1 1775.3388,381.39 Z" style="stroke:#000000;stroke-width:0.1;"/>
            <!-- Block Reference: A$C1D6968EA / entities: 30 -->
            <g>
                <!-- Arc -->
                <path d="M1752.4555,360.4634 A289.0424,289.0424 0 0,0 1669.8836,429.1207" style="stroke:#000000;stroke-width:0.1;"/>
                <!-- Arc -->
                <path d="M1733.0598,372.2503 A380.7796,380.7796 0 0,0 1644.7562,435.5591" style="stroke:#000000;stroke-width:0.1;"/>
                <!-- Arc -->
                <path d="M1362.4528,153.2557 A380.7796,380.7796 0 0,0 1425.7615,64.9521" style="stroke:#000000;stroke-width:0.1;"/>
                <!-- Arc -->
                <path d="M1368.8912,128.1282 A289.0424,289.0424 0 0,0 1437.5485,45.5564" style="stroke:#000000;stroke-width:0.1;"/>
                <!-- Line -->
                <path d="M1521.3416,276.6703 L1611.9517,367.2804 " style="stroke:#000000;stroke-width:0.1;"/>
                <!-- Arc -->
                <path d="M1367.9677,757.5352 A1385.2906,1385.2906 0 0,0 1668.0133,431.6489" style="stroke:#000000;stroke-width:0.1;"/>
                <!-- Arc -->
                <path d="M1644.3937,466.2708 A117.3974,117.3974 0 0,0 1611.9517,367.2804" style="stroke:#000000;stroke-width:0.1;"/>
                <!-- Arc -->
                <path d="M1367.9677,757.5352 A14.4184,14.4184 0 0,0 1360.7819,749.2264" style="stroke:#000000;stroke-width:0.1;"/>
                <!-- Line -->
                <path d="M1360.7819,749.2264 L1378.742,734.2617 " style="stroke:#000000;stroke-width:0.1;"/>
                <!-- Line -->
                <path d="M1378.742,734.2617 L1382.8275,745.6912 " style="stroke:#000000;stroke-width:0.1;"/>
                <!-- Line -->
                <path d="M1378.742,734.2617 L1386.8817,742.4014 " style="stroke:#000000;stroke-width:0.1;"/>
                <!-- Line -->
                <path d="M1063.7501,419.2699 L1055.6104,411.1302 " style="stroke:#000000;stroke-width:0.1;"/>
                <!-- Line -->
                <path d="M1063.7501,419.2699 L1052.3207,415.1843 " style="stroke:#000000;stroke-width:0.1;"/>
                <!-- Line -->
                <path d="M1048.7855,437.2299 L1063.7501,419.2699 " style="stroke:#000000;stroke-width:0.1;"/>
                <!-- Arc -->
                <path d="M1048.7855,437.2299 A14.4184,14.4184 0 0,0 1040.4766,430.0441" style="stroke:#000000;stroke-width:0.1;"/>
                <!-- Arc -->
                <path d="M1430.7315,186.0602 A117.3974,117.3974 0 0,0 1331.7411,153.6181" style="stroke:#000000;stroke-width:0.1;"/>
                <!-- Arc -->
                <path d="M1366.363,129.9986 A1385.2906,1385.2906 0 0,0 1040.4766,430.0441" style="stroke:#000000;stroke-width:0.1;"/>
                <!-- Line -->
                <path d="M1521.3416,276.6703 L1430.7315,186.0602 " style="stroke:#000000;stroke-width:0.1;"/>
                <!-- Line -->
                <path d="M1590.8199,207.1919 L1746.4581,362.8301 " style="stroke:#000000;stroke-width:0.1;"/>
                <!-- Line -->
                <path d="M1597.7678,200.2441 L1753.6793,356.1556 " style="stroke:#000000;stroke-width:0.1;"/>
                <!-- Arc -->
                <path d="M1752.4555,360.4634 A2.9012,2.9012 0 0,0 1753.6793,356.1556" style="stroke:#000000;stroke-width:0.1;"/>
                <!-- Arc -->
                <path d="M1746.2169,364.1885 A0.8701,0.8701 0 0,0 1746.4018,362.7738" style="stroke:#000000;stroke-width:0.1;"/>
                <!-- Line -->
                <path d="M1590.1252,207.8867 L1745.7634,363.5249 " style="stroke:#000000;stroke-width:0.1;"/>
                <!-- Arc -->
                <path d="M1745.8331,364.4106 A0.5197,0.5197 0 0,0 1745.7634,363.5249" style="stroke:#000000;stroke-width:0.1;"/>
                <!-- Arc -->
                <path d="M1434.4869,52.2485 A0.5197,0.5197 0 0,0 1433.6013,52.1787" style="stroke:#000000;stroke-width:0.1;"/>
                <!-- Line -->
                <path d="M1590.1252,207.8867 L1434.4869,52.2485 " style="stroke:#000000;stroke-width:0.1;"/>
                <!-- Arc -->
                <path d="M1435.2381,51.61 A0.8701,0.8701 0 0,0 1433.8233,51.795" style="stroke:#000000;stroke-width:0.1;"/>
                <!-- Arc -->
                <path d="M1441.8563,44.3326 A2.9012,2.9012 0 0,0 1437.5485,45.5564" style="stroke:#000000;stroke-width:0.1;"/>
                <!-- Line -->
                <path d="M1597.7678,200.2441 L1441.8563,44.3326 " style="stroke:#000000;stroke-width:0.1;"/>
                <!-- Line -->
                <path d="M1590.8199,207.1919 L1435.1817,51.5537 " style="stroke:#000000;stroke-width:0.1;"/>
            </g>
            <!-- Polyline -->
            <path d="M385.8197,15.192 A259.942,259.942 0 0 0 451.8369,97.4734 A1416.82,1416.82 0 0 1 785.1412,404.3488 A26.6438,26.6438 0 0 1 761.9312,422.5895 A14.4394,14.4394 0 0 0 753.6103,429.7858 A577.055,577.055 0 0 1 710.7794,478.7106 L600.4324,589.0576 L490.0853,699.4047 A577.055,577.055 0 0 1 441.1605,742.2355 A14.4394,14.4394 0 0 0 433.9643,750.5565 A26.6438,26.6438 0 0 1 415.7235,773.7665 A1416.82,1416.82 0 0 1 108.8482,440.4622 A259.942,259.942 0 0 0 26.5667,374.4449 A15.121,15.121 0 0 1 19.4364,349.0178 L360.3925,8.0617 A15.121,15.121 0 0 1 385.8197,15.192 Z" style="stroke:#000000;stroke-width:0.1;"/>
            <!-- Block Reference: A$C1D6968EA / entities: 30 -->
            <g>
                <!-- Arc -->
                <path d="M364.893,38.0753 A289.0424,289.0424 0 0,0 433.5503,120.6471" style="stroke:#000000;stroke-width:0.1;"/>
                <!-- Arc -->
                <path d="M376.68,57.471 A380.7796,380.7796 0 0,0 439.9887,145.7746" style="stroke:#000000;stroke-width:0.1;"/>
                <!-- Arc -->
                <path d="M157.6853,428.078 A380.7796,380.7796 0 0,0 69.3817,364.7693" style="stroke:#000000;stroke-width:0.1;"/>
                <!-- Arc -->
                <path d="M132.5578,421.6396 A289.0424,289.0424 0 0,0 49.986,352.9823" style="stroke:#000000;stroke-width:0.1;"/>
                <!-- Line -->
                <path d="M281.0999,269.1892 L371.71,178.5791 " style="stroke:#000000;stroke-width:0.1;"/>
                <!-- Arc -->
                <path d="M761.9649,422.5631 A1385.2906,1385.2906 0 0,0 436.0785,122.5175" style="stroke:#000000;stroke-width:0.1;"/>
                <!-- Arc -->
                <path d="M470.7004,146.1371 A117.3974,117.3974 0 0,0 371.71,178.5791" style="stroke:#000000;stroke-width:0.1;"/>
                <!-- Arc -->
                <path d="M761.9649,422.5631 A14.4184,14.4184 0 0,0 753.656,429.7489" style="stroke:#000000;stroke-width:0.1;"/>
                <!-- Line -->
                <path d="M753.656,429.7489 L738.6913,411.7888 " style="stroke:#000000;stroke-width:0.1;"/>
                <!-- Line -->
                <path d="M738.6913,411.7888 L750.1208,407.7033 " style="stroke:#000000;stroke-width:0.1;"/>
                <!-- Line -->
                <path d="M738.6913,411.7888 L746.831,403.6491 " style="stroke:#000000;stroke-width:0.1;"/>
                <!-- Line -->
                <path d="M423.6995,726.7807 L415.5598,734.9204 " style="stroke:#000000;stroke-width:0.1;"/>
                <!-- Line -->
                <path d="M423.6995,726.7807 L419.6139,738.2101 " style="stroke:#000000;stroke-width:0.1;"/>
                <!-- Line -->
                <path d="M441.6595,741.7453 L423.6995,726.7807 " style="stroke:#000000;stroke-width:0.1;"/>
                <!-- Arc -->
                <path d="M441.6595,741.7453 A14.4184,14.4184 0 0,0 434.4737,750.0542" style="stroke:#000000;stroke-width:0.1;"/>
                <!-- Arc -->
                <path d="M190.4898,359.7993 A117.3974,117.3974 0 0,0 158.0478,458.7897" style="stroke:#000000;stroke-width:0.1;"/>
                <!-- Arc -->
                <path d="M134.4282,424.1678 A1385.2906,1385.2906 0 0,0 434.4737,750.0542" style="stroke:#000000;stroke-width:0.1;"/>
                <!-- Line -->
                <path d="M281.0999,269.1892 L190.4898,359.7993 " style="stroke:#000000;stroke-width:0.1;"/>
                <!-- Line -->
                <path d="M211.6215,199.7109 L367.2597,44.0726 " style="stroke:#000000;stroke-width:0.1;"/>
                <!-- Line -->
                <path d="M204.6737,192.763 L360.5852,36.8515 " style="stroke:#000000;stroke-width:0.1;"/>
                <!-- Arc -->
                <path d="M364.893,38.0753 A2.9012,2.9012 0 0,0 360.5852,36.8515" style="stroke:#000000;stroke-width:0.1;"/>
                <!-- Arc -->
                <path d="M368.6182,44.3139 A0.8701,0.8701 0 0,0 367.2034,44.129" style="stroke:#000000;stroke-width:0.1;"/>
                <!-- Line -->
                <path d="M212.3163,200.4056 L367.9545,44.7674 " style="stroke:#000000;stroke-width:0.1;"/>
                <!-- Arc -->
                <path d="M368.8402,44.6977 A0.5197,0.5197 0 0,0 367.9545,44.7674" style="stroke:#000000;stroke-width:0.1;"/>
                <!-- Arc -->
                <path d="M56.6781,356.0438 A0.5197,0.5197 0 0,0 56.6084,356.9295" style="stroke:#000000;stroke-width:0.1;"/>
                <!-- Line -->
                <path d="M212.3163,200.4056 L56.6781,356.0438 " style="stroke:#000000;stroke-width:0.1;"/>
                <!-- Arc -->
                <path d="M56.0397,355.2927 A0.8701,0.8701 0 0,0 56.2246,356.7075" style="stroke:#000000;stroke-width:0.1;"/>
                <!-- Arc -->
                <path d="M48.7622,348.6745 A2.9012,2.9012 0 0,0 49.986,352.9823" style="stroke:#000000;stroke-width:0.1;"/>
                <!-- Line -->
                <path d="M204.6737,192.763 L48.7622,348.6745 " style="stroke:#000000;stroke-width:0.1;"/>
                <!-- Line -->
                <path d="M211.6215,199.7109 L55.9833,355.3491 " style="stroke:#000000;stroke-width:0.1;"/>
            </g>
            <!-- Block Reference: A$C1D6968EA / entities: 30 -->
            <g>
                <!-- Arc -->
                <path d="M42.5049,1425.6378 A289.0424,289.0424 0 0,0 125.0768,1356.9805" style="stroke:#000000;stroke-width:0.1;"/>
                <!-- Arc -->
                <path d="M61.9006,1413.8508 A380.7796,380.7796 0 0,0 150.2042,1350.5421" style="stroke:#000000;stroke-width:0.1;"/>
                <!-- Arc -->
                <path d="M432.5077,1632.8455 A380.7796,380.7796 0 0,0 369.1989,1721.1491" style="stroke:#000000;stroke-width:0.1;"/>
                <!-- Arc -->
                <path d="M426.0692,1657.973 A289.0424,289.0424 0 0,0 357.4119,1740.5448" style="stroke:#000000;stroke-width:0.1;"/>
                <!-- Line -->
                <path d="M273.6188,1509.4309 L183.0087,1418.8208 " style="stroke:#000000;stroke-width:0.1;"/>
                <!-- Arc -->
                <path d="M426.9927,1028.5659 A1385.2906,1385.2906 0 0,0 126.9471,1354.4523" style="stroke:#000000;stroke-width:0.1;"/>
                <!-- Arc -->
                <path d="M150.5667,1319.8304 A117.3974,117.3974 0 0,0 183.0087,1418.8208" style="stroke:#000000;stroke-width:0.1;"/>
                <!-- Arc -->
                <path d="M426.9927,1028.5659 A14.4184,14.4184 0 0,0 434.1785,1036.8748" style="stroke:#000000;stroke-width:0.1;"/>
                <!-- Line -->
                <path d="M434.1785,1036.8748 L416.2184,1051.8394 " style="stroke:#000000;stroke-width:0.1;"/>
                <!-- Line -->
                <path d="M416.2184,1051.8394 L412.1329,1040.41 " style="stroke:#000000;stroke-width:0.1;"/>
                <!-- Line -->
                <path d="M416.2184,1051.8394 L408.0787,1043.6997 " style="stroke:#000000;stroke-width:0.1;"/>
                <!-- Line -->
                <path d="M731.2103,1366.8313 L739.35,1374.971 " style="stroke:#000000;stroke-width:0.1;"/>
                <!-- Line -->
                <path d="M731.2103,1366.8313 L742.6397,1370.9168 " style="stroke:#000000;stroke-width:0.1;"/>
                <!-- Line -->
                <path d="M746.175,1348.8712 L731.2103,1366.8313 " style="stroke:#000000;stroke-width:0.1;"/>
                <!-- Arc -->
                <path d="M746.175,1348.8712 A14.4184,14.4184 0 0,0 754.4838,1356.057" style="stroke:#000000;stroke-width:0.1;"/>
                <!-- Arc -->
                <path d="M364.229,1600.041 A117.3974,117.3974 0 0,0 463.2193,1632.483" style="stroke:#000000;stroke-width:0.1;"/>
                <!-- Arc -->
                <path d="M428.5975,1656.1026 A1385.2906,1385.2906 0 0,0 754.4838,1356.057" style="stroke:#000000;stroke-width:0.1;"/>
                <!-- Line -->
                <path d="M273.6188,1509.4309 L364.229,1600.041 " style="stroke:#000000;stroke-width:0.1;"/>
                <!-- Line -->
                <path d="M204.1405,1578.9092 L48.5023,1423.271 " style="stroke:#000000;stroke-width:0.1;"/>
                <!-- Line -->
                <path d="M197.1926,1585.8571 L41.2811,1429.9456 " style="stroke:#000000;stroke-width:0.1;"/>
                <!-- Arc -->
                <path d="M42.5049,1425.6378 A2.9012,2.9012 0 0,0 41.2811,1429.9456" style="stroke:#000000;stroke-width:0.1;"/>
                <!-- Arc -->
                <path d="M48.7436,1421.9126 A0.8701,0.8701 0 0,0 48.5586,1423.3274" style="stroke:#000000;stroke-width:0.1;"/>
                <!-- Line -->
                <path d="M204.8353,1578.2145 L49.1971,1422.5763 " style="stroke:#000000;stroke-width:0.1;"/>
                <!-- Arc -->
                <path d="M49.1273,1421.6906 A0.5197,0.5197 0 0,0 49.1971,1422.5763" style="stroke:#000000;stroke-width:0.1;"/>
                <!-- Arc -->
                <path d="M360.4735,1733.8527 A0.5197,0.5197 0 0,0 361.3591,1733.9224" style="stroke:#000000;stroke-width:0.1;"/>
                <!-- Line -->
                <path d="M204.8353,1578.2145 L360.4735,1733.8527 " style="stroke:#000000;stroke-width:0.1;"/>
                <!-- Arc -->
                <path d="M359.7224,1734.4911 A0.8701,0.8701 0 0,0 361.1371,1734.3062" style="stroke:#000000;stroke-width:0.1;"/>
                <!-- Arc -->
                <path d="M353.1042,1741.7686 A2.9012,2.9012 0 0,0 357.4119,1740.5448" style="stroke:#000000;stroke-width:0.1;"/>
                <!-- Line -->
                <path d="M197.1926,1585.8571 L353.1042,1741.7686 " style="stroke:#000000;stroke-width:0.1;"/>
                <!-- Line -->
                <path d="M204.1405,1578.9092 L359.7787,1734.5475 " style="stroke:#000000;stroke-width:0.1;"/>
            </g>
            <!-- Polyline -->
            <path d="M19.6216,1404.7111 A259.942,259.942 0 0 0 101.903,1338.6939 A1416.82,1416.82 0 0 1 408.7784,1005.3896 A26.6438,26.6438 0 0 1 427.0192,1028.5996 A14.4394,14.4394 0 0 0 434.2154,1036.9205 A577.055,577.055 0 0 1 483.1402,1079.7513 L593.4873,1190.0984 L703.8343,1300.4455 A577.055,577.055 0 0 1 746.6652,1349.3703 A14.4394,14.4394 0 0 0 754.9861,1356.5665 A26.6438,26.6438 0 0 1 778.1961,1374.8073 A1416.82,1416.82 0 0 1 444.8918,1681.6826 A259.942,259.942 0 0 0 378.8746,1763.964 A15.121,15.121 0 0 1 353.4474,1771.0943 L12.4913,1430.1383 A15.121,15.121 0 0 1 19.6216,1404.7111 Z" style="stroke:#000000;stroke-width:0.1;"/>
            <!-- Circle -->
            <circle cx="897.4802076870701" cy="893.0505809849237" r="350" style="stroke:#000000;stroke-width:0.1;"/>
            <!-- Circle -->
            <circle cx="897.4802076870701" cy="893.0505809849237" r="330" style="stroke:#000000;stroke-width:0.1;"/>
        </g>
    </g>
</svg>

