<?xml version="1.0" encoding="UTF-8"?>
<!-- 2026-03-10 12:29:13 Generated by QCAD 3.32.6 SVG Exporter -->
<svg  width="2412.3411mm" height="1486.8424mm" viewBox="-2.1262 -1489.0182 2412.3411 1486.8424" version="1.1" xmlns="http://www.w3.org/2000/svg" style="stroke-linecap:round;stroke-linejoin:round;">
    <g transform="scale(1,-1)">
            <!-- Auto-generated fillable area -->
            <!-- Block Reference: A$C5BEB79AF / entities: 12 -->
        <g>
            <!-- Line -->
            <path d="M1711.7096,682.9159 L2163.0765,1010.8531 " style="stroke:#000000;stroke-width:0.1;"/>
            <!-- Line -->
            <path d="M1380.3053,906.2921 L1552.7121,1436.9058 " style="stroke:#000000;stroke-width:0.1;"/>
            <!-- Arc -->
            <path d="M1850.0836,261.8444 A416.1069,416.1069 0 0,1 2410.2149,261.8444" style="stroke:#000000;stroke-width:0.1;"/>
            <!-- Line -->
            <path d="M2410.2149,261.8444 L1852.3848,261.8444 " style="stroke:#000000;stroke-width:0.1;"/>
            <!-- Line -->
            <path d="M666.0433,646.0556 L214.6764,973.9929 " style="stroke:#000000;stroke-width:0.1;"/>
            <!-- Arc -->
            <path d="M-1.9108,261.8444 A411.2505,411.2505 0 0,1 554.4498,261.8444" style="stroke:#000000;stroke-width:0.1;"/>
            <!-- Line -->
            <path d="M556.0094,261.8444 L-1.9108,261.8444 " style="stroke:#000000;stroke-width:0.1;"/>
            <!-- Line -->
            <path d="M980.8963,892.2128 L808.4895,1422.8264 " style="stroke:#000000;stroke-width:0.1;"/>
            <!-- Circle -->
            <circle cx="1213.1304016069553" cy="370.72577229268336" r="368.55" style="stroke:#000000;stroke-width:0.1;"/>
            <!-- Arc -->
            <path d="M1850.0836,261.8444 A648.2173,648.2173 0 1,1 554.4498,261.8444" style="stroke:#000000;stroke-width:0.1;"/>
            <!-- Arc -->
            <path d="M2406.3779,258.5745 A1204.393,1204.393 0 1,1 -1.8445,258.5745" style="stroke:#000000;stroke-width:0.1;"/>
            <!-- Arc -->
            <path d="M2282.2313,261.2604 A1080.2173,1080.2173 0 1,1 122.3021,261.2604" style="stroke:#000000;stroke-width:0.1;"/>
        </g>
    </g>
</svg>

