<?xml version="1.0" encoding="UTF-8"?>
<!-- 2026-03-10 12:46:06 Generated by QCAD 3.32.6 SVG Exporter -->
<svg  width="2700mm" height="1408.8001mm" viewBox="28.0815 -1426.5272 2700 1408.8001" version="1.1" xmlns="http://www.w3.org/2000/svg" style="stroke-linecap:round;stroke-linejoin:round;">
    <g transform="scale(1,-1)">
            <!-- Auto-generated fillable area -->
            <!-- Block Reference: 5 seater VIP table / entities: 7 -->
        <g>
            <!-- Block Reference: A$C51F1 / entities: 31 -->
            <g>
                <!-- Polyline -->
                <path d="M564.7734,1407.3425 A216.619,216.619 0 0 1 555.1896,1319.9567 A1180.69,1180.69 0 0 0 570.763,942.7272 A22.2032,22.2032 0 0 0 546.3379,945.6554 A12.0328,12.0328 0 0 1 537.1944,946.3181 A480.879,480.879 0 0 0 483.1268,942.7272 L353.0815,942.7272 L223.0363,942.7272 A480.879,480.879 0 0 0 168.9687,946.3181 A12.0328,12.0328 0 0 1 159.8252,945.6554 A22.2032,22.2032 0 0 0 135.4001,942.7272 A1180.69,1180.69 0 0 0 150.9735,1319.9567 A216.619,216.619 0 0 1 141.3897,1407.3425 A12.6008,12.6008 0 0 0 152.1713,1426.5272 L553.9918,1426.5272 A12.6008,12.6008 0 0 0 564.7734,1407.3425 Z" style="stroke:#000000;stroke-width:0.1;"/>
                <!-- Line -->
                <path d="M353.3974,1319.3799 L246.6123,1319.3799 " style="stroke:#000000;stroke-width:0.1;"/>
                <!-- Arc -->
                <path d="M175.6482,1314.485 A1154.4088,1154.4088 0 0,1 160.4214,945.6511" style="stroke:#000000;stroke-width:0.1;"/>
                <!-- Arc -->
                <path d="M176.0359,1317.0769 A240.8687,240.8687 0 0,1 167.8366,1406.1895" style="stroke:#000000;stroke-width:0.1;"/>
                <!-- Line -->
                <path d="M353.3974,1401.261 L169.976,1401.261 " style="stroke:#000000;stroke-width:0.1;"/>
                <!-- Line -->
                <path d="M353.3974,1409.4491 L169.6539,1409.4491 " style="stroke:#000000;stroke-width:0.1;"/>
                <!-- Arc -->
                <path d="M169.6539,1409.4491 A2.4177,2.4177 0 0,1 167.8366,1406.1895" style="stroke:#000000;stroke-width:0.1;"/>
                <!-- Arc -->
                <path d="M187.0485,1298.4765 A317.3163,317.3163 0 0,1 172.3201,1387.815" style="stroke:#000000;stroke-width:0.1;"/>
                <!-- Arc -->
                <path d="M246.6123,1319.3799 A97.8312,97.8312 0 0,1 169.165,1280.1659" style="stroke:#000000;stroke-width:0.1;"/>
                <!-- Arc -->
                <path d="M170.0424,1401.261 A0.7251,0.7251 0 0,1 169.3177,1400.3183" style="stroke:#000000;stroke-width:0.1;"/>
                <!-- Line -->
                <path d="M353.3974,1400.4421 L169.976,1400.4421 " style="stroke:#000000;stroke-width:0.1;"/>
                <!-- Arc -->
                <path d="M169.976,1400.4421 A0.4331,0.4331 0 0,1 169.413,1399.9614" style="stroke:#000000;stroke-width:0.1;"/>
                <!-- Arc -->
                <path d="M169.5517,946.3129 A12.0153,12.0153 0 0,1 160.4214,945.6511" style="stroke:#000000;stroke-width:0.1;"/>
                <!-- Line -->
                <path d="M169.5517,946.3129 L167.7866,965.714 " style="stroke:#000000;stroke-width:0.1;"/>
                <!-- Line -->
                <path d="M167.7866,965.714 L158.6443,961.3865 " style="stroke:#000000;stroke-width:0.1;"/>
                <!-- Line -->
                <path d="M167.7866,965.714 L158.1939,965.714 " style="stroke:#000000;stroke-width:0.1;"/>
                <!-- Line -->
                <path d="M539.0081,965.714 L548.6008,965.714 " style="stroke:#000000;stroke-width:0.1;"/>
                <!-- Line -->
                <path d="M539.0081,965.714 L548.1504,961.3865 " style="stroke:#000000;stroke-width:0.1;"/>
                <!-- Line -->
                <path d="M537.2431,946.3129 L539.0081,965.714 " style="stroke:#000000;stroke-width:0.1;"/>
                <!-- Arc -->
                <path d="M546.3734,945.6511 A12.0153,12.0153 0 0,1 537.2431,946.3129" style="stroke:#000000;stroke-width:0.1;"/>
                <!-- Arc -->
                <path d="M537.3817,1399.9614 A0.4331,0.4331 0 0,1 536.8188,1400.4421" style="stroke:#000000;stroke-width:0.1;"/>
                <!-- Line -->
                <path d="M353.3974,1400.4421 L536.8188,1400.4421 " style="stroke:#000000;stroke-width:0.1;"/>
                <!-- Arc -->
                <path d="M537.477,1400.3183 A0.7251,0.7251 0 0,1 536.7524,1401.261" style="stroke:#000000;stroke-width:0.1;"/>
                <!-- Arc -->
                <path d="M537.6297,1280.1659 A97.8312,97.8312 0 0,1 460.1824,1319.3799" style="stroke:#000000;stroke-width:0.1;"/>
                <!-- Arc -->
                <path d="M534.4746,1387.815 A317.3163,317.3163 0 0,1 519.7462,1298.4765" style="stroke:#000000;stroke-width:0.1;"/>
                <!-- Arc -->
                <path d="M538.9581,1406.1895 A2.4177,2.4177 0 0,1 537.1409,1409.4491" style="stroke:#000000;stroke-width:0.1;"/>
                <!-- Line -->
                <path d="M353.3974,1409.4491 L537.1409,1409.4491 " style="stroke:#000000;stroke-width:0.1;"/>
                <!-- Line -->
                <path d="M353.3974,1401.261 L536.8188,1401.261 " style="stroke:#000000;stroke-width:0.1;"/>
                <!-- Arc -->
                <path d="M538.9581,1406.1895 A240.8687,240.8687 0 0,1 530.7589,1317.0769" style="stroke:#000000;stroke-width:0.1;"/>
                <!-- Arc -->
                <path d="M546.3734,945.6511 A1154.4088,1154.4088 0 0,1 531.1465,1314.485" style="stroke:#000000;stroke-width:0.1;"/>
                <!-- Line -->
                <path d="M353.3974,1319.3799 L460.1824,1319.3799 " style="stroke:#000000;stroke-width:0.1;"/>
            </g>
            <!-- Polyline -->
            <path d="M28.0815,17.7272 L2728.0815,17.7272 L2728.0815,917.7272 L28.0815,917.7272 Z" style="stroke:#000000;stroke-width:0.1;"/>
            <!-- Polyline -->
            <path d="M48.0815,37.7272 L2708.0815,37.7272 L2708.0815,897.7272 L48.0815,897.7272 Z" style="stroke:#000000;stroke-width:0.1;"/>
            <!-- Block Reference: A$C51F1 / entities: 31 -->
            <g>
                <!-- Polyline -->
                <path d="M1589.7734,1407.3425 A216.619,216.619 0 0 1 1580.1896,1319.9567 A1180.69,1180.69 0 0 0 1595.763,942.7272 A22.2032,22.2032 0 0 0 1571.3379,945.6554 A12.0328,12.0328 0 0 1 1562.1944,946.3181 A480.879,480.879 0 0 0 1508.1268,942.7272 L1378.0815,942.7272 L1248.0363,942.7272 A480.879,480.879 0 0 0 1193.9687,946.3181 A12.0328,12.0328 0 0 1 1184.8252,945.6554 A22.2032,22.2032 0 0 0 1160.4001,942.7272 A1180.69,1180.69 0 0 0 1175.9735,1319.9567 A216.619,216.619 0 0 1 1166.3897,1407.3425 A12.6008,12.6008 0 0 0 1177.1713,1426.5272 L1578.9918,1426.5272 A12.6008,12.6008 0 0 0 1589.7734,1407.3425 Z" style="stroke:#000000;stroke-width:0.1;"/>
                <!-- Line -->
                <path d="M1378.3974,1319.3799 L1271.6123,1319.3799 " style="stroke:#000000;stroke-width:0.1;"/>
                <!-- Arc -->
                <path d="M1200.6482,1314.485 A1154.4088,1154.4088 0 0,1 1185.4214,945.6511" style="stroke:#000000;stroke-width:0.1;"/>
                <!-- Arc -->
                <path d="M1201.0359,1317.0769 A240.8687,240.8687 0 0,1 1192.8366,1406.1895" style="stroke:#000000;stroke-width:0.1;"/>
                <!-- Line -->
                <path d="M1378.3974,1401.261 L1194.976,1401.261 " style="stroke:#000000;stroke-width:0.1;"/>
                <!-- Line -->
                <path d="M1378.3974,1409.4491 L1194.6539,1409.4491 " style="stroke:#000000;stroke-width:0.1;"/>
                <!-- Arc -->
                <path d="M1194.6539,1409.4491 A2.4177,2.4177 0 0,1 1192.8366,1406.1895" style="stroke:#000000;stroke-width:0.1;"/>
                <!-- Arc -->
                <path d="M1212.0485,1298.4765 A317.3163,317.3163 0 0,1 1197.3201,1387.815" style="stroke:#000000;stroke-width:0.1;"/>
                <!-- Arc -->
                <path d="M1271.6123,1319.3799 A97.8312,97.8312 0 0,1 1194.165,1280.1659" style="stroke:#000000;stroke-width:0.1;"/>
                <!-- Arc -->
                <path d="M1195.0424,1401.261 A0.7251,0.7251 0 0,1 1194.3177,1400.3183" style="stroke:#000000;stroke-width:0.1;"/>
                <!-- Line -->
                <path d="M1378.3974,1400.4421 L1194.976,1400.4421 " style="stroke:#000000;stroke-width:0.1;"/>
                <!-- Arc -->
                <path d="M1194.976,1400.4421 A0.4331,0.4331 0 0,1 1194.413,1399.9614" style="stroke:#000000;stroke-width:0.1;"/>
                <!-- Arc -->
                <path d="M1194.5517,946.3129 A12.0153,12.0153 0 0,1 1185.4214,945.6511" style="stroke:#000000;stroke-width:0.1;"/>
                <!-- Line -->
                <path d="M1194.5517,946.3129 L1192.7866,965.714 " style="stroke:#000000;stroke-width:0.1;"/>
                <!-- Line -->
                <path d="M1192.7866,965.714 L1183.6443,961.3865 " style="stroke:#000000;stroke-width:0.1;"/>
                <!-- Line -->
                <path d="M1192.7866,965.714 L1183.1939,965.714 " style="stroke:#000000;stroke-width:0.1;"/>
                <!-- Line -->
                <path d="M1564.0081,965.714 L1573.6008,965.714 " style="stroke:#000000;stroke-width:0.1;"/>
                <!-- Line -->
                <path d="M1564.0081,965.714 L1573.1504,961.3865 " style="stroke:#000000;stroke-width:0.1;"/>
                <!-- Line -->
                <path d="M1562.2431,946.3129 L1564.0081,965.714 " style="stroke:#000000;stroke-width:0.1;"/>
                <!-- Arc -->
                <path d="M1571.3734,945.6511 A12.0153,12.0153 0 0,1 1562.2431,946.3129" style="stroke:#000000;stroke-width:0.1;"/>
                <!-- Arc -->
                <path d="M1562.3817,1399.9614 A0.4331,0.4331 0 0,1 1561.8188,1400.4421" style="stroke:#000000;stroke-width:0.1;"/>
                <!-- Line -->
                <path d="M1378.3974,1400.4421 L1561.8188,1400.4421 " style="stroke:#000000;stroke-width:0.1;"/>
                <!-- Arc -->
                <path d="M1562.477,1400.3183 A0.7251,0.7251 0 0,1 1561.7524,1401.261" style="stroke:#000000;stroke-width:0.1;"/>
                <!-- Arc -->
                <path d="M1562.6297,1280.1659 A97.8312,97.8312 0 0,1 1485.1824,1319.3799" style="stroke:#000000;stroke-width:0.1;"/>
                <!-- Arc -->
                <path d="M1559.4746,1387.815 A317.3163,317.3163 0 0,1 1544.7462,1298.4765" style="stroke:#000000;stroke-width:0.1;"/>
                <!-- Arc -->
                <path d="M1563.9581,1406.1895 A2.4177,2.4177 0 0,1 1562.1409,1409.4491" style="stroke:#000000;stroke-width:0.1;"/>
                <!-- Line -->
                <path d="M1378.3974,1409.4491 L1562.1409,1409.4491 " style="stroke:#000000;stroke-width:0.1;"/>
                <!-- Line -->
                <path d="M1378.3974,1401.261 L1561.8188,1401.261 " style="stroke:#000000;stroke-width:0.1;"/>
                <!-- Arc -->
                <path d="M1563.9581,1406.1895 A240.8687,240.8687 0 0,1 1555.7589,1317.0769" style="stroke:#000000;stroke-width:0.1;"/>
                <!-- Arc -->
                <path d="M1571.3734,945.6511 A1154.4088,1154.4088 0 0,1 1556.1465,1314.485" style="stroke:#000000;stroke-width:0.1;"/>
                <!-- Line -->
                <path d="M1378.3974,1319.3799 L1485.1824,1319.3799 " style="stroke:#000000;stroke-width:0.1;"/>
            </g>
            <!-- Block Reference: A$C51F1 / entities: 31 -->
            <g>
                <!-- Polyline -->
                <path d="M1589.7734,1407.3425 A216.619,216.619 0 0 1 1580.1896,1319.9567 A1180.69,1180.69 0 0 0 1595.763,942.7272 A22.2032,22.2032 0 0 0 1571.3379,945.6554 A12.0328,12.0328 0 0 1 1562.1944,946.3181 A480.879,480.879 0 0 0 1508.1268,942.7272 L1378.0815,942.7272 L1248.0363,942.7272 A480.879,480.879 0 0 0 1193.9687,946.3181 A12.0328,12.0328 0 0 1 1184.8252,945.6554 A22.2032,22.2032 0 0 0 1160.4001,942.7272 A1180.69,1180.69 0 0 0 1175.9735,1319.9567 A216.619,216.619 0 0 1 1166.3897,1407.3425 A12.6008,12.6008 0 0 0 1177.1713,1426.5272 L1578.9918,1426.5272 A12.6008,12.6008 0 0 0 1589.7734,1407.3425 Z" transform="translate(3268.6631,0) scale(-1,1)" style="stroke:#000000;stroke-width:0.1;"/>
                <!-- Line -->
                <path d="M1890.2657,1319.3799 L1997.0508,1319.3799 " style="stroke:#000000;stroke-width:0.1;"/>
                <!-- Arc -->
                <path d="M2068.0149,1314.485 A1154.4088,1154.4088 0 0,0 2083.2417,945.6511" style="stroke:#000000;stroke-width:0.1;"/>
                <!-- Arc -->
                <path d="M2067.6272,1317.0769 A240.8687,240.8687 0 0,0 2075.8265,1406.1895" style="stroke:#000000;stroke-width:0.1;"/>
                <!-- Line -->
                <path d="M1890.2657,1401.261 L2073.6871,1401.261 " style="stroke:#000000;stroke-width:0.1;"/>
                <!-- Line -->
                <path d="M1890.2657,1409.4491 L2074.0092,1409.4491 " style="stroke:#000000;stroke-width:0.1;"/>
                <!-- Arc -->
                <path d="M2074.0092,1409.4491 A2.4177,2.4177 0 0,0 2075.8265,1406.1895" style="stroke:#000000;stroke-width:0.1;"/>
                <!-- Arc -->
                <path d="M2056.6146,1298.4765 A317.3163,317.3163 0 0,0 2071.343,1387.815" style="stroke:#000000;stroke-width:0.1;"/>
                <!-- Arc -->
                <path d="M1997.0508,1319.3799 A97.8312,97.8312 0 0,0 2074.4981,1280.1659" style="stroke:#000000;stroke-width:0.1;"/>
                <!-- Arc -->
                <path d="M2073.6207,1401.261 A0.7251,0.7251 0 0,0 2074.3454,1400.3183" style="stroke:#000000;stroke-width:0.1;"/>
                <!-- Line -->
                <path d="M1890.2657,1400.4421 L2073.6871,1400.4421 " style="stroke:#000000;stroke-width:0.1;"/>
                <!-- Arc -->
                <path d="M2073.6871,1400.4421 A0.4331,0.4331 0 0,0 2074.2501,1399.9614" style="stroke:#000000;stroke-width:0.1;"/>
                <!-- Arc -->
                <path d="M2074.1114,946.3129 A12.0153,12.0153 0 0,0 2083.2417,945.6511" style="stroke:#000000;stroke-width:0.1;"/>
                <!-- Line -->
                <path d="M2074.1114,946.3129 L2075.8765,965.714 " style="stroke:#000000;stroke-width:0.1;"/>
                <!-- Line -->
                <path d="M2075.8765,965.714 L2085.0188,961.3865 " style="stroke:#000000;stroke-width:0.1;"/>
                <!-- Line -->
                <path d="M2075.8765,965.714 L2085.4692,965.714 " style="stroke:#000000;stroke-width:0.1;"/>
                <!-- Line -->
                <path d="M1704.655,965.714 L1695.0623,965.714 " style="stroke:#000000;stroke-width:0.1;"/>
                <!-- Line -->
                <path d="M1704.655,965.714 L1695.5127,961.3865 " style="stroke:#000000;stroke-width:0.1;"/>
                <!-- Line -->
                <path d="M1706.42,946.3129 L1704.655,965.714 " style="stroke:#000000;stroke-width:0.1;"/>
                <!-- Arc -->
                <path d="M1697.2897,945.6511 A12.0153,12.0153 0 0,0 1706.42,946.3129" style="stroke:#000000;stroke-width:0.1;"/>
                <!-- Arc -->
                <path d="M1706.2814,1399.9614 A0.4331,0.4331 0 0,0 1706.8443,1400.4421" style="stroke:#000000;stroke-width:0.1;"/>
                <!-- Line -->
                <path d="M1890.2657,1400.4421 L1706.8443,1400.4421 " style="stroke:#000000;stroke-width:0.1;"/>
                <!-- Arc -->
                <path d="M1706.1861,1400.3183 A0.7251,0.7251 0 0,0 1706.9107,1401.261" style="stroke:#000000;stroke-width:0.1;"/>
                <!-- Arc -->
                <path d="M1706.0334,1280.1659 A97.8312,97.8312 0 0,0 1783.4807,1319.3799" style="stroke:#000000;stroke-width:0.1;"/>
                <!-- Arc -->
                <path d="M1709.1885,1387.815 A317.3163,317.3163 0 0,0 1723.9168,1298.4765" style="stroke:#000000;stroke-width:0.1;"/>
                <!-- Arc -->
                <path d="M1704.705,1406.1895 A2.4177,2.4177 0 0,0 1706.5222,1409.4491" style="stroke:#000000;stroke-width:0.1;"/>
                <!-- Line -->
                <path d="M1890.2657,1409.4491 L1706.5222,1409.4491 " style="stroke:#000000;stroke-width:0.1;"/>
                <!-- Line -->
                <path d="M1890.2657,1401.261 L1706.8443,1401.261 " style="stroke:#000000;stroke-width:0.1;"/>
                <!-- Arc -->
                <path d="M1704.705,1406.1895 A240.8687,240.8687 0 0,0 1712.9042,1317.0769" style="stroke:#000000;stroke-width:0.1;"/>
                <!-- Arc -->
                <path d="M1697.2897,945.6511 A1154.4088,1154.4088 0 0,0 1712.5166,1314.485" style="stroke:#000000;stroke-width:0.1;"/>
                <!-- Line -->
                <path d="M1890.2657,1319.3799 L1783.4807,1319.3799 " style="stroke:#000000;stroke-width:0.1;"/>
            </g>
            <!-- Block Reference: A$C51F1 / entities: 31 -->
            <g>
                <!-- Polyline -->
                <path d="M1077.2734,1407.3425 A216.619,216.619 0 0 1 1067.6896,1319.9567 A1180.69,1180.69 0 0 0 1083.263,942.7272 A22.2032,22.2032 0 0 0 1058.8379,945.6554 A12.0328,12.0328 0 0 1 1049.6944,946.3181 A480.879,480.879 0 0 0 995.6268,942.7272 L865.5815,942.7272 L735.5363,942.7272 A480.879,480.879 0 0 0 681.4687,946.3181 A12.0328,12.0328 0 0 1 672.3252,945.6554 A22.2032,22.2032 0 0 0 647.9001,942.7272 A1180.69,1180.69 0 0 0 663.4735,1319.9567 A216.619,216.619 0 0 1 653.8897,1407.3425 A12.6008,12.6008 0 0 0 664.6713,1426.5272 L1066.4918,1426.5272 A12.6008,12.6008 0 0 0 1077.2734,1407.3425 Z" style="stroke:#000000;stroke-width:0.1;"/>
                <!-- Line -->
                <path d="M865.8974,1319.3799 L759.1123,1319.3799 " style="stroke:#000000;stroke-width:0.1;"/>
                <!-- Arc -->
                <path d="M688.1482,1314.485 A1154.4088,1154.4088 0 0,1 672.9214,945.6511" style="stroke:#000000;stroke-width:0.1;"/>
                <!-- Arc -->
                <path d="M688.5359,1317.0769 A240.8687,240.8687 0 0,1 680.3366,1406.1895" style="stroke:#000000;stroke-width:0.1;"/>
                <!-- Line -->
                <path d="M865.8974,1401.261 L682.476,1401.261 " style="stroke:#000000;stroke-width:0.1;"/>
                <!-- Line -->
                <path d="M865.8974,1409.4491 L682.1539,1409.4491 " style="stroke:#000000;stroke-width:0.1;"/>
                <!-- Arc -->
                <path d="M682.1539,1409.4491 A2.4177,2.4177 0 0,1 680.3366,1406.1895" style="stroke:#000000;stroke-width:0.1;"/>
                <!-- Arc -->
                <path d="M699.5485,1298.4765 A317.3163,317.3163 0 0,1 684.8201,1387.815" style="stroke:#000000;stroke-width:0.1;"/>
                <!-- Arc -->
                <path d="M759.1123,1319.3799 A97.8312,97.8312 0 0,1 681.665,1280.1659" style="stroke:#000000;stroke-width:0.1;"/>
                <!-- Arc -->
                <path d="M682.5424,1401.261 A0.7251,0.7251 0 0,1 681.8177,1400.3183" style="stroke:#000000;stroke-width:0.1;"/>
                <!-- Line -->
                <path d="M865.8974,1400.4421 L682.476,1400.4421 " style="stroke:#000000;stroke-width:0.1;"/>
                <!-- Arc -->
                <path d="M682.476,1400.4421 A0.4331,0.4331 0 0,1 681.913,1399.9614" style="stroke:#000000;stroke-width:0.1;"/>
                <!-- Arc -->
                <path d="M682.0517,946.3129 A12.0153,12.0153 0 0,1 672.9214,945.6511" style="stroke:#000000;stroke-width:0.1;"/>
                <!-- Line -->
                <path d="M682.0517,946.3129 L680.2866,965.714 " style="stroke:#000000;stroke-width:0.1;"/>
                <!-- Line -->
                <path d="M680.2866,965.714 L671.1443,961.3865 " style="stroke:#000000;stroke-width:0.1;"/>
                <!-- Line -->
                <path d="M680.2866,965.714 L670.6939,965.714 " style="stroke:#000000;stroke-width:0.1;"/>
                <!-- Line -->
                <path d="M1051.5081,965.714 L1061.1008,965.714 " style="stroke:#000000;stroke-width:0.1;"/>
                <!-- Line -->
                <path d="M1051.5081,965.714 L1060.6504,961.3865 " style="stroke:#000000;stroke-width:0.1;"/>
                <!-- Line -->
                <path d="M1049.7431,946.3129 L1051.5081,965.714 " style="stroke:#000000;stroke-width:0.1;"/>
                <!-- Arc -->
                <path d="M1058.8734,945.6511 A12.0153,12.0153 0 0,1 1049.7431,946.3129" style="stroke:#000000;stroke-width:0.1;"/>
                <!-- Arc -->
                <path d="M1049.8817,1399.9614 A0.4331,0.4331 0 0,1 1049.3188,1400.4421" style="stroke:#000000;stroke-width:0.1;"/>
                <!-- Line -->
                <path d="M865.8974,1400.4421 L1049.3188,1400.4421 " style="stroke:#000000;stroke-width:0.1;"/>
                <!-- Arc -->
                <path d="M1049.977,1400.3183 A0.7251,0.7251 0 0,1 1049.2524,1401.261" style="stroke:#000000;stroke-width:0.1;"/>
                <!-- Arc -->
                <path d="M1050.1297,1280.1659 A97.8312,97.8312 0 0,1 972.6824,1319.3799" style="stroke:#000000;stroke-width:0.1;"/>
                <!-- Arc -->
                <path d="M1046.9746,1387.815 A317.3163,317.3163 0 0,1 1032.2462,1298.4765" style="stroke:#000000;stroke-width:0.1;"/>
                <!-- Arc -->
                <path d="M1051.4581,1406.1895 A2.4177,2.4177 0 0,1 1049.6409,1409.4491" style="stroke:#000000;stroke-width:0.1;"/>
                <!-- Line -->
                <path d="M865.8974,1409.4491 L1049.6409,1409.4491 " style="stroke:#000000;stroke-width:0.1;"/>
                <!-- Line -->
                <path d="M865.8974,1401.261 L1049.3188,1401.261 " style="stroke:#000000;stroke-width:0.1;"/>
                <!-- Arc -->
                <path d="M1051.4581,1406.1895 A240.8687,240.8687 0 0,1 1043.2589,1317.0769" style="stroke:#000000;stroke-width:0.1;"/>
                <!-- Arc -->
                <path d="M1058.8734,945.6511 A1154.4088,1154.4088 0 0,1 1043.6465,1314.485" style="stroke:#000000;stroke-width:0.1;"/>
                <!-- Line -->
                <path d="M865.8974,1319.3799 L972.6824,1319.3799 " style="stroke:#000000;stroke-width:0.1;"/>
            </g>
            <!-- Block Reference: A$C51F1 / entities: 31 -->
            <g>
                <!-- Polyline -->
                <path d="M1077.2734,1407.3425 A216.619,216.619 0 0 1 1067.6896,1319.9567 A1180.69,1180.69 0 0 0 1083.263,942.7272 A22.2032,22.2032 0 0 0 1058.8379,945.6554 A12.0328,12.0328 0 0 1 1049.6944,946.3181 A480.879,480.879 0 0 0 995.6268,942.7272 L865.5815,942.7272 L735.5363,942.7272 A480.879,480.879 0 0 0 681.4687,946.3181 A12.0328,12.0328 0 0 1 672.3252,945.6554 A22.2032,22.2032 0 0 0 647.9001,942.7272 A1180.69,1180.69 0 0 0 663.4735,1319.9567 A216.619,216.619 0 0 1 653.8897,1407.3425 A12.6008,12.6008 0 0 0 664.6713,1426.5272 L1066.4918,1426.5272 A12.6008,12.6008 0 0 0 1077.2734,1407.3425 Z" transform="translate(3268.6631,0) scale(-1,1)" style="stroke:#000000;stroke-width:0.1;"/>
                <!-- Line -->
                <path d="M2402.7657,1319.3799 L2509.5508,1319.3799 " style="stroke:#000000;stroke-width:0.1;"/>
                <!-- Arc -->
                <path d="M2580.5149,1314.485 A1154.4088,1154.4088 0 0,0 2595.7417,945.6511" style="stroke:#000000;stroke-width:0.1;"/>
                <!-- Arc -->
                <path d="M2580.1272,1317.0769 A240.8687,240.8687 0 0,0 2588.3265,1406.1895" style="stroke:#000000;stroke-width:0.1;"/>
                <!-- Line -->
                <path d="M2402.7657,1401.261 L2586.1871,1401.261 " style="stroke:#000000;stroke-width:0.1;"/>
                <!-- Line -->
                <path d="M2402.7657,1409.4491 L2586.5092,1409.4491 " style="stroke:#000000;stroke-width:0.1;"/>
                <!-- Arc -->
                <path d="M2586.5092,1409.4491 A2.4177,2.4177 0 0,0 2588.3265,1406.1895" style="stroke:#000000;stroke-width:0.1;"/>
                <!-- Arc -->
                <path d="M2569.1146,1298.4765 A317.3163,317.3163 0 0,0 2583.843,1387.815" style="stroke:#000000;stroke-width:0.1;"/>
                <!-- Arc -->
                <path d="M2509.5508,1319.3799 A97.8312,97.8312 0 0,0 2586.9981,1280.1659" style="stroke:#000000;stroke-width:0.1;"/>
                <!-- Arc -->
                <path d="M2586.1207,1401.261 A0.7251,0.7251 0 0,0 2586.8454,1400.3183" style="stroke:#000000;stroke-width:0.1;"/>
                <!-- Line -->
                <path d="M2402.7657,1400.4421 L2586.1871,1400.4421 " style="stroke:#000000;stroke-width:0.1;"/>
                <!-- Arc -->
                <path d="M2586.1871,1400.4421 A0.4331,0.4331 0 0,0 2586.7501,1399.9614" style="stroke:#000000;stroke-width:0.1;"/>
                <!-- Arc -->
                <path d="M2586.6114,946.3129 A12.0153,12.0153 0 0,0 2595.7417,945.6511" style="stroke:#000000;stroke-width:0.1;"/>
                <!-- Line -->
                <path d="M2586.6114,946.3129 L2588.3765,965.714 " style="stroke:#000000;stroke-width:0.1;"/>
                <!-- Line -->
                <path d="M2588.3765,965.714 L2597.5188,961.3865 " style="stroke:#000000;stroke-width:0.1;"/>
                <!-- Line -->
                <path d="M2588.3765,965.714 L2597.9692,965.714 " style="stroke:#000000;stroke-width:0.1;"/>
                <!-- Line -->
                <path d="M2217.155,965.714 L2207.5623,965.714 " style="stroke:#000000;stroke-width:0.1;"/>
                <!-- Line -->
                <path d="M2217.155,965.714 L2208.0127,961.3865 " style="stroke:#000000;stroke-width:0.1;"/>
                <!-- Line -->
                <path d="M2218.92,946.3129 L2217.155,965.714 " style="stroke:#000000;stroke-width:0.1;"/>
                <!-- Arc -->
                <path d="M2209.7897,945.6511 A12.0153,12.0153 0 0,0 2218.92,946.3129" style="stroke:#000000;stroke-width:0.1;"/>
                <!-- Arc -->
                <path d="M2218.7814,1399.9614 A0.4331,0.4331 0 0,0 2219.3443,1400.4421" style="stroke:#000000;stroke-width:0.1;"/>
                <!-- Line -->
                <path d="M2402.7657,1400.4421 L2219.3443,1400.4421 " style="stroke:#000000;stroke-width:0.1;"/>
                <!-- Arc -->
                <path d="M2218.6861,1400.3183 A0.7251,0.7251 0 0,0 2219.4107,1401.261" style="stroke:#000000;stroke-width:0.1;"/>
                <!-- Arc -->
                <path d="M2218.5334,1280.1659 A97.8312,97.8312 0 0,0 2295.9807,1319.3799" style="stroke:#000000;stroke-width:0.1;"/>
                <!-- Arc -->
                <path d="M2221.6885,1387.815 A317.3163,317.3163 0 0,0 2236.4168,1298.4765" style="stroke:#000000;stroke-width:0.1;"/>
                <!-- Arc -->
                <path d="M2217.205,1406.1895 A2.4177,2.4177 0 0,0 2219.0222,1409.4491" style="stroke:#000000;stroke-width:0.1;"/>
                <!-- Line -->
                <path d="M2402.7657,1409.4491 L2219.0222,1409.4491 " style="stroke:#000000;stroke-width:0.1;"/>
                <!-- Line -->
                <path d="M2402.7657,1401.261 L2219.3443,1401.261 " style="stroke:#000000;stroke-width:0.1;"/>
                <!-- Arc -->
                <path d="M2217.205,1406.1895 A240.8687,240.8687 0 0,0 2225.4042,1317.0769" style="stroke:#000000;stroke-width:0.1;"/>
                <!-- Arc -->
                <path d="M2209.7897,945.6511 A1154.4088,1154.4088 0 0,0 2225.0166,1314.485" style="stroke:#000000;stroke-width:0.1;"/>
                <!-- Line -->
                <path d="M2402.7657,1319.3799 L2295.9807,1319.3799 " style="stroke:#000000;stroke-width:0.1;"/>
            </g>
        </g>
    </g>
</svg>

