<?xml version="1.0" encoding="UTF-8"?>
<!DOCTYPE svg PUBLIC "-//W3C//DTD SVG 1.1//EN" "http://www.w3.org/Graphics/SVG/1.1/DTD/svg11.dtd">
<svg xmlns="http://www.w3.org/2000/svg" version="1.1" width="640px" height="480px" style="shape-rendering:geometricPrecision; text-rendering:geometricPrecision; image-rendering:optimizeQuality; fill-rule:evenodd; clip-rule:evenodd" xmlns:xlink="http://www.w3.org/1999/xlink">
<g><path style="opacity:1" fill="#000000" d="M 165.5,328.5 C 165.426,330.411 164.426,331.578 162.5,332C 167.05,334.883 170.55,338.716 173,343.5C 173.667,382.167 173.667,420.833 173,459.5C 170.859,464.308 167.359,467.808 162.5,470C 120.833,470.667 79.1667,470.667 37.5,470C 31.6405,468.141 27.8072,464.307 26,458.5C 25.8299,421.929 25.3299,385.429 24.5,349C 26.1871,341.973 30.1871,336.64 36.5,333C 31.6667,330.833 28.1667,327.333 26,322.5C 25.3333,283.5 25.3333,244.5 26,205.5C 28.0389,200.628 31.5389,197.294 36.5,195.5C 30.9449,191.783 27.1116,186.783 25,180.5C 27.2381,113.501 57.0714,63.0007 114.5,29C 136.298,17.5914 159.464,10.7581 184,8.5C 192.109,9.05562 198.442,12.7223 203,19.5C 205.667,14.7453 209.501,11.2453 214.5,9C 252.5,8.33333 290.5,8.33333 328.5,9C 333.91,10.7425 337.744,14.2425 340,19.5C 342.232,14.2694 346.065,10.7694 351.5,9C 388.5,8.33333 425.5,8.33333 462.5,9C 468.441,10.7713 473.108,14.2713 476.5,19.5C 479.027,14.8062 482.694,11.3062 487.5,9C 525.833,8.33333 564.167,8.33333 602.5,9C 608.529,11.691 612.362,16.191 614,22.5C 614.667,63.1667 614.667,103.833 614,144.5C 611.414,150.088 607.247,153.921 601.5,156C 564.167,156.667 526.833,156.667 489.5,156C 484.884,153.44 480.718,150.273 477,146.5C 473.957,151.877 469.457,155.377 463.5,157C 426.167,157.667 388.833,157.667 351.5,157C 346.144,155.495 342.144,152.329 339.5,147.5C 336.834,151.67 333.168,154.503 328.5,156C 291.167,156.667 253.833,156.667 216.5,156C 212.56,154.114 209.06,151.614 206,148.5C 205.451,176.048 191.618,192.215 164.5,197C 168.959,200.114 171.792,204.281 173,209.5C 173.667,245.833 173.667,282.167 173,318.5C 171.695,322.797 169.195,326.131 165.5,328.5 Z M 180.5,10.5 C 198.507,11.3438 206.007,20.6771 203,38.5C 201.231,43.9352 197.731,47.7685 192.5,50C 140.559,54.3604 102.726,79.527 79,125.5C 70.8151,143.606 66.8151,162.606 67,182.5C 59.3447,196.059 48.5114,199.226 34.5,192C 29.4407,187.881 26.774,182.548 26.5,176C 30.3639,111.895 59.6973,63.5621 114.5,31C 135.335,19.9967 157.335,13.1634 180.5,10.5 Z M 214.5,10.5 C 252.501,10.3333 290.501,10.5 328.5,11C 333.235,12.0681 336.402,14.9014 338,19.5C 338.667,27.8333 338.667,36.1667 338,44.5C 335.578,49.2565 331.745,52.0898 326.5,53C 290.167,53.6667 253.833,53.6667 217.5,53C 210.724,50.7369 206.724,46.2369 205.5,39.5C 206.287,32.5107 206.453,25.5107 206,18.5C 208.074,14.9231 210.907,12.2565 214.5,10.5 Z M 351.5,10.5 C 388.502,10.3333 425.502,10.5 462.5,11C 468.113,12.2822 472.28,15.4488 475,20.5C 476.557,27.7527 476.89,35.086 476,42.5C 474.5,48 471,51.5 465.5,53C 426.833,53.6667 388.167,53.6667 349.5,53C 344.901,51.4019 342.068,48.2353 341,43.5C 340.099,35.4212 340.432,27.4212 342,19.5C 343.832,15.0158 346.999,12.0158 351.5,10.5 Z M 487.5,10.5 C 525.835,10.3333 564.168,10.5 602.5,11C 606.275,12.4421 609.108,14.9421 611,18.5C 612.537,26.7697 612.87,35.103 612,43.5C 609.435,48.7069 605.268,51.8735 599.5,53C 563.167,53.6667 526.833,53.6667 490.5,53C 486.044,51.0206 482.21,48.1872 479,44.5C 478.333,36.1667 478.333,27.8333 479,19.5C 480.688,15.3148 483.521,12.3148 487.5,10.5 Z M 201.5,44.5 C 202.787,45.8714 203.453,47.7047 203.5,50C 202.185,84.4976 202.185,118.998 203.5,153.5C 202.608,175.226 191.608,188.726 170.5,194C 132.857,195.609 95.1906,195.942 57.5,195C 62.809,192.233 66.6424,188.067 69,182.5C 69.3176,137.362 87.4842,101.529 123.5,75C 143.475,61.6751 165.475,54.3418 189.5,53C 194.763,51.8751 198.763,49.0418 201.5,44.5 Z M 205.5,46.5 C 208.787,50.2794 212.787,53.1127 217.5,55C 253.833,55.6667 290.167,55.6667 326.5,55C 331.364,54.1462 335.197,51.6462 338,47.5C 338.667,80.5 338.667,113.5 338,146.5C 335.876,150.313 332.709,152.813 328.5,154C 291.167,154.667 253.833,154.667 216.5,154C 211.573,152.125 207.74,148.958 205,144.5C 204.226,111.821 204.393,79.1541 205.5,46.5 Z M 475.5,46.5 C 476.596,79.6725 476.429,113.006 475,146.5C 472.545,151.149 468.712,153.983 463.5,155C 426.167,155.667 388.833,155.667 351.5,155C 346,153.5 342.5,150 341,144.5C 340.333,112.5 340.333,80.5 341,48.5C 343.264,51.4335 346.098,53.6001 349.5,55C 388.167,55.6667 426.833,55.6667 465.5,55C 470.273,53.7176 473.606,50.8843 475.5,46.5 Z M 478.5,46.5 C 481.944,50.0608 485.944,52.8942 490.5,55C 526.833,55.6667 563.167,55.6667 599.5,55C 604.789,53.7756 608.955,50.9422 612,46.5C 612.667,79.1667 612.667,111.833 612,144.5C 610.073,149.428 606.573,152.594 601.5,154C 564.167,154.667 526.833,154.667 489.5,154C 484.942,151.648 481.109,148.481 478,144.5C 478.096,111.837 478.262,79.1707 478.5,46.5 Z M 36.5,197.5 C 43.8409,197.334 51.1742,197.5 58.5,198C 63.2664,200.429 66.0998,204.263 67,209.5C 67.6667,246.167 67.6667,282.833 67,319.5C 64.888,323.278 62.388,326.778 59.5,330C 51.5,330.667 43.5,330.667 35.5,330C 31.6667,328.833 29.1667,326.333 28,322.5C 27.3333,283.5 27.3333,244.5 28,205.5C 29.773,201.56 32.6063,198.893 36.5,197.5 Z M 165.5,328.5 C 164.027,329.072 162.693,329.905 161.5,331C 127.833,331.667 94.1667,331.667 60.5,331C 63.7191,327.448 66.5524,323.615 69,319.5C 69.6667,282.833 69.6667,246.167 69,209.5C 68.0772,204.588 65.5772,200.755 61.5,198C 95.1667,197.333 128.833,197.333 162.5,198C 167.256,200.422 170.09,204.255 171,209.5C 171.667,245.833 171.667,282.167 171,318.5C 169.396,322.048 167.563,325.382 165.5,328.5 Z M 40.5,332.5 C 45.8437,332.334 51.1771,332.501 56.5,333C 61.3333,335.167 64.8333,338.667 67,343.5C 67.6667,382.5 67.6667,421.5 67,460.5C 65.4313,464.4 62.598,466.9 58.5,468C 51.5,468.667 44.5,468.667 37.5,468C 32.6405,466.474 29.4738,463.307 28,458.5C 27.3333,420.5 27.3333,382.5 28,344.5C 30.7441,338.921 34.9108,334.921 40.5,332.5 Z M 61.5,334.5 C 94.9975,333.336 128.664,333.169 162.5,334C 166.388,336.222 169.221,339.388 171,343.5C 171.667,382.167 171.667,420.833 171,459.5C 169.526,463.641 166.693,466.474 162.5,468C 129.167,468.667 95.8333,468.667 62.5,468C 65.473,466.235 67.6396,463.735 69,460.5C 69.6667,421.5 69.6667,382.5 69,343.5C 67.4123,339.609 64.9123,336.609 61.5,334.5 Z"/></g>
</svg>
