<?xml version="1.0" encoding="UTF-8"?>
<!-- 2026-03-10 12:20:06 Generated by QCAD 3.32.6 SVG Exporter -->
<svg width="2273.4024mm" height="2156.7875mm" viewBox="-0.3358 -2157.4096 2273.4024 2156.7875" version="1.1" xmlns="http://www.w3.org/2000/svg" style="stroke-linecap:round;stroke-linejoin:round;fill:none">
    <style>
      .chair-fill { pointer-events: all; }
      #original-qcad-strokes path, #original-qcad-strokes circle { vector-effect: non-scaling-stroke; }
    </style>
    <g transform="scale(1,-1)">

        <!-- Editable fill layer added under the original QCAD strokes -->
        <g id="editable-fills" class="auto-fill-layer" stroke="none">

            <!-- Editable backrest fill bands added behind original QCAD arc strokes -->
            <path id="auto-fill" class="chair-backrest-fill" d="M378.2526,237.6383 A973.9175,973.9175 0 0,1 786.7675,1.7821 L797.8858,52.227 A873.9175,873.9175 0 0,0 416.38,272.4895 Z" />
            <path id="auto-fill" class="chair-backrest-fill" d="M1485.9633,1.7821 A973.9175,973.9175 0 0,1 1894.4782,237.6383 L1856.3508,272.4895 A873.9175,873.9175 0 0,0 1474.845,52.227 Z" />
            <path id="auto-fill" class="chair-backrest-fill" d="M2244.0762,843.1597 A973.9175,973.9175 0 0,1 2244.0762,1314.8721 L2194.8304,1299.2784 A873.9175,873.9175 0 0,0 2194.8304,858.7534 Z" />
            <path id="auto-fill" class="chair-backrest-fill" d="M1894.4782,1920.3934 A973.9175,973.9175 0 0,1 1485.9633,2156.2496 L1474.845,2105.8047 A873.9175,873.9175 0 0,0 1856.3508,1885.5423 Z" />
            <path id="auto-fill" class="chair-backrest-fill" d="M786.7675,2156.2496 A973.9175,973.9175 0 0,1 378.2526,1920.3934 L416.38,1885.5423 A873.9175,873.9175 0 0,0 797.8858,2105.8047 Z" />
            <path id="auto-fill" class="chair-backrest-fill" d="M28.6546,1314.8721 A973.9175,973.9175 0 0,1 28.6546,843.1597 L77.9004,858.7534 A873.9175,873.9175 0 0,0 77.9004,1299.2784 Z" />
            <!-- Rounded fill caps for backrest ends so the two corner tips are editable too -->
            <g id="editable-backrest-caps" class="chair-backrest-caps">
              <circle id="auto-fill" cx="397.3163" cy="255.0639" r="27" />
              <circle id="auto-fill" cx="792.3267" cy="27.0046" r="27" />
              <circle id="auto-fill" cx="1480.4042" cy="27.0046" r="27" />
              <circle id="auto-fill" cx="1875.4145" cy="255.0639" r="27" />
              <circle id="auto-fill" cx="2219.4533" cy="850.9566" r="27" />
              <circle id="auto-fill" cx="2219.4533" cy="1307.0753" r="27" />
              <circle id="auto-fill" cx="1875.4145" cy="1902.9679" r="27" />
              <circle id="auto-fill" cx="1480.4042" cy="2131.0272" r="27" />
              <circle id="auto-fill" cx="792.3267" cy="2131.0272" r="27" />
              <circle id="auto-fill" cx="397.3163" cy="1902.9679" r="27" />
              <circle id="auto-fill" cx="53.2776" cy="1307.0753" r="27" />
              <circle id="auto-fill" cx="53.2776" cy="850.9566" r="27" />
            </g>

            <!-- top-left chair fill -->
            <path id="auto-fill" class="chair-fill" d="M1056.2211,490.2019 L666.5097,715.2019 A50,50 0 0,1 598.2084,696.9006 L449.191,378.3239 A30,30 0 0,1 455.0383,344.514 A843.9175,843.9175 0 0,1 840.9316,121.7183 A30,30 0 0,1 873.1356,133.5594 L1074.5224,421.9006 A50,50 0 0,1 1056.2211,490.2019 Z" />
            <!-- top-right chair fill -->
            <path id="auto-fill" class="chair-fill" d="M1216.5097,490.2019 L1606.2211,715.2019 A50,50 0 0,0 1674.5224,696.9006 L1823.5398,378.3239 A30,30 0 0,0 1817.6925,344.514 A843.9175,843.9175 0 0,0 1431.7992,121.7183 A30,30 0 0,0 1399.5953,133.5594 L1198.2084,421.9006 A50,50 0 0,0 1216.5097,490.2019 Z" />
            <!-- right chair fill -->
            <path id="auto-fill" class="chair-fill" d="M1686.3654,854.0159 A50,50 0 0,1 1736.3654,804.0159 L2086.7697,834.2514 A30,30 0 0,1 2113.1263,856.2203 A843.9175,843.9175 0 0,1 2113.1263,1301.8115 A30,30 0 0,1 2086.7697,1323.7804 L1736.3654,1354.0159 A50,50 0 0,1 1686.3654,1304.0159 Z" />
            <!-- bottom-right chair fill -->
            <path id="auto-fill" class="chair-fill" d="M1216.5097,1667.8299 L1606.2211,1442.8299 A50,50 0 0,1 1674.5224,1461.1311 L1823.5398,1779.7079 A30,30 0 0,1 1817.6925,1813.5178 A843.9175,843.9175 0 0,1 1431.7992,2036.3134 A30,30 0 0,1 1399.5953,2024.4724 L1198.2084,1736.1311 A50,50 0 0,1 1216.5097,1667.8299 Z" />
            <!-- bottom-left chair fill -->
            <path id="auto-fill" class="chair-fill" d="M1056.2211,1667.8299 L666.5097,1442.8299 A50,50 0 0,0 598.2084,1461.1311 L449.191,1779.7079 A30,30 0 0,0 455.0383,1813.5178 A843.9175,843.9175 0 0,0 840.9316,2036.3134 A30,30 0 0,0 873.1356,2024.4724 L1074.5224,1736.1311 A50,50 0 0,0 1056.2211,1667.8299 Z" />
            <!-- left chair fill -->
            <path id="auto-fill" class="chair-fill" d="M586.3654,854.0159 L586.3654,1304.0159 A50,50 0 0,1 536.3654,1354.0159 L185.9611,1323.7804 A30,30 0 0,1 159.6045,1301.8115 A843.9175,843.9175 0 0,1 159.6045,856.2203 A30,30 0 0,1 185.9611,834.2514 L536.3654,804.0159 A50,50 0 0,1 586.3654,854.0159 Z" />
        </g>
        <g id="original-qcad-strokes">
        <!-- Block Reference: A$C6D271A1D / entities: 85 -->
        <g>
            <!-- Arc -->
            <path d="M1431.7992,121.7183 A843.9175,843.9175 0 0,1 1817.6925,344.514" style="stroke:#000000;stroke-width:0.1;"/>
            <!-- Line -->
            <path d="M1198.2084,421.9006 L1399.5953,133.5594 " style="stroke:#000000;stroke-width:0.1;"/>
            <!-- Arc -->
            <path d="M1485.9633,1.7821 A973.9175,973.9175 0 0,1 1894.4782,237.6383" style="stroke:#000000;stroke-width:0.1;"/>
            <!-- Arc -->
            <path d="M1474.845,52.227 A873.9175,873.9175 0 0,1 1856.3508,272.4895" style="stroke:#000000;stroke-width:0.1;"/>
            <!-- Arc -->
            <path d="M416.38,272.4895 A873.9175,873.9175 0 0,1 797.8858,52.227" style="stroke:#000000;stroke-width:0.1;"/>
            <!-- Arc -->
            <path d="M455.0383,344.514 A843.9175,843.9175 0 0,1 840.9316,121.7183" style="stroke:#000000;stroke-width:0.1;"/>
            <!-- Arc -->
            <path d="M378.2526,237.6383 A973.9175,973.9175 0 0,1 786.7675,1.7821" style="stroke:#000000;stroke-width:0.1;"/>
            <!-- Line -->
            <path d="M1074.5224,421.9006 L873.1356,133.5594 " style="stroke:#000000;stroke-width:0.1;"/>
            <!-- Arc -->
            <path d="M1474.845,52.227 A30,30 0 0,1 1455.9357,9.9764" style="stroke:#000000;stroke-width:0.1;"/>
            <!-- Arc -->
            <path d="M1455.9357,9.9764 A30,30 0 0,1 1485.9633,1.7821" style="stroke:#000000;stroke-width:0.1;"/>
            <!-- Arc -->
            <path d="M1399.5953,133.5594 A30,30 0 0,1 1431.7992,121.7183" style="stroke:#000000;stroke-width:0.1;"/>
            <!-- Arc -->
            <path d="M840.9316,121.7183 A30,30 0 0,1 873.1356,133.5594" style="stroke:#000000;stroke-width:0.1;"/>
            <!-- Arc -->
            <path d="M786.7675,1.7821 A30,30 0 0,1 816.7951,9.9764" style="stroke:#000000;stroke-width:0.1;"/>
            <!-- Arc -->
            <path d="M816.7951,9.9764 A30,30 0 0,1 797.8858,52.227" style="stroke:#000000;stroke-width:0.1;"/>
            <!-- Arc -->
            <path d="M1902.3956,1890.2916 A30,30 0 0,1 1894.4782,1920.3934" style="stroke:#000000;stroke-width:0.1;"/>
            <!-- Arc -->
            <path d="M2113.1263,1301.8115 A30,30 0 0,1 2086.7697,1323.7804" style="stroke:#000000;stroke-width:0.1;"/>
            <!-- Arc -->
            <path d="M2221.9659,1336.7796 A30,30 0 0,1 2194.8304,1299.2784" style="stroke:#000000;stroke-width:0.1;"/>
            <!-- Arc -->
            <path d="M2244.0762,1314.8721 A30,30 0 0,1 2221.9659,1336.7796" style="stroke:#000000;stroke-width:0.1;"/>
            <!-- Arc -->
            <path d="M1736.3654,1354.0159 A50,50 0 0,1 1686.3654,1304.0159" style="stroke:#000000;stroke-width:0.1;"/>
            <!-- Arc -->
            <path d="M1817.6925,1813.5178 A843.9175,843.9175 0 0,1 1431.7992,2036.3134" style="stroke:#000000;stroke-width:0.1;"/>
            <!-- Line -->
            <path d="M1674.5224,1461.1311 L1823.5398,1779.7079 " style="stroke:#000000;stroke-width:0.1;"/>
            <!-- Arc -->
            <path d="M1485.9633,2156.2496 A30,30 0 0,1 1455.9357,2148.0553" style="stroke:#000000;stroke-width:0.1;"/>
            <!-- Arc -->
            <path d="M1431.7992,2036.3134 A30,30 0 0,1 1399.5953,2024.4724" style="stroke:#000000;stroke-width:0.1;"/>
            <!-- Arc -->
            <path d="M1198.2084,1736.1311 A50,50 0 0,1 1216.5097,1667.8299" style="stroke:#000000;stroke-width:0.1;"/>
            <!-- Line -->
            <path d="M1216.5097,1667.8299 L1606.2211,1442.8299 " style="stroke:#000000;stroke-width:0.1;"/>
            <!-- Line -->
            <path d="M1198.2084,1736.1311 L1399.5953,2024.4724 " style="stroke:#000000;stroke-width:0.1;"/>
            <!-- Arc -->
            <path d="M1606.2211,1442.8299 A50,50 0 0,1 1674.5224,1461.1311" style="stroke:#000000;stroke-width:0.1;"/>
            <!-- Arc -->
            <path d="M1455.9357,2148.0553 A30,30 0 0,1 1474.845,2105.8047" style="stroke:#000000;stroke-width:0.1;"/>
            <!-- Arc -->
            <path d="M1823.5398,1779.7079 A30,30 0 0,1 1817.6925,1813.5178" style="stroke:#000000;stroke-width:0.1;"/>
            <!-- Arc -->
            <path d="M1056.2211,1667.8299 A50,50 0 0,1 1074.5224,1736.1311" style="stroke:#000000;stroke-width:0.1;"/>
            <!-- Arc -->
            <path d="M1894.4782,1920.3934 A973.9175,973.9175 0 0,1 1485.9633,2156.2496" style="stroke:#000000;stroke-width:0.1;"/>
            <!-- Arc -->
            <path d="M1856.3508,1885.5423 A873.9175,873.9175 0 0,1 1474.845,2105.8047" style="stroke:#000000;stroke-width:0.1;"/>
            <!-- Arc -->
            <path d="M1856.3508,1885.5423 A30,30 0 0,1 1902.3956,1890.2916" style="stroke:#000000;stroke-width:0.1;"/>
            <!-- Line -->
            <path d="M1736.3654,1354.0159 L2086.7697,1323.7804 " style="stroke:#000000;stroke-width:0.1;"/>
            <!-- Arc -->
            <path d="M2086.7697,834.2514 A30,30 0 0,1 2113.1263,856.2203" style="stroke:#000000;stroke-width:0.1;"/>
            <!-- Arc -->
            <path d="M2194.8304,858.7534 A30,30 0 0,1 2221.9659,821.2522" style="stroke:#000000;stroke-width:0.1;"/>
            <!-- Arc -->
            <path d="M2221.9659,821.2522 A30,30 0 0,1 2244.0762,843.1597" style="stroke:#000000;stroke-width:0.1;"/>
            <!-- Arc -->
            <path d="M1894.4782,237.6383 A30,30 0 0,1 1902.3956,267.7401" style="stroke:#000000;stroke-width:0.1;"/>
            <!-- Arc -->
            <path d="M1686.3654,854.0159 A50,50 0 0,1 1736.3654,804.0159" style="stroke:#000000;stroke-width:0.1;"/>
            <!-- Arc -->
            <path d="M1674.5224,696.9006 A50,50 0 0,1 1606.2211,715.2019" style="stroke:#000000;stroke-width:0.1;"/>
            <!-- Arc -->
            <path d="M1216.5097,490.2019 A50,50 0 0,1 1198.2084,421.9006" style="stroke:#000000;stroke-width:0.1;"/>
            <!-- Arc -->
            <path d="M1817.6925,344.514 A30,30 0 0,1 1823.5398,378.3239" style="stroke:#000000;stroke-width:0.1;"/>
            <!-- Arc -->
            <path d="M1074.5224,421.9006 A50,50 0 0,1 1056.2211,490.2019" style="stroke:#000000;stroke-width:0.1;"/>
            <!-- Line -->
            <path d="M1674.5224,696.9006 L1823.5398,378.3239 " style="stroke:#000000;stroke-width:0.1;"/>
            <!-- Line -->
            <path d="M1216.5097,490.2019 L1606.2211,715.2019 " style="stroke:#000000;stroke-width:0.1;"/>
            <!-- Line -->
            <path d="M1736.3654,804.0159 L2086.7697,834.2514 " style="stroke:#000000;stroke-width:0.1;"/>
            <!-- Arc -->
            <path d="M1902.3956,267.7401 A30,30 0 0,1 1856.3508,272.4895" style="stroke:#000000;stroke-width:0.1;"/>
            <!-- Arc -->
            <path d="M2113.1263,856.2203 A843.9175,843.9175 0 0,1 2113.1263,1301.8115" style="stroke:#000000;stroke-width:0.1;"/>
            <!-- Arc -->
            <path d="M2194.8304,858.7534 A873.9175,873.9175 0 0,1 2194.8304,1299.2784" style="stroke:#000000;stroke-width:0.1;"/>
            <!-- Arc -->
            <path d="M2244.0762,843.1597 A973.9175,973.9175 0 0,1 2244.0762,1314.8721" style="stroke:#000000;stroke-width:0.1;"/>
            <!-- Line -->
            <path d="M1686.3654,1304.0159 L1686.3654,854.0159 " style="stroke:#000000;stroke-width:0.1;"/>
            <!-- Arc -->
            <path d="M816.7951,2148.0553 A30,30 0 0,1 786.7675,2156.2496" style="stroke:#000000;stroke-width:0.1;"/>
            <!-- Arc -->
            <path d="M873.1356,2024.4724 A30,30 0 0,1 840.9316,2036.3134" style="stroke:#000000;stroke-width:0.1;"/>
            <!-- Line -->
            <path d="M598.2084,1461.1311 L449.191,1779.7079 " style="stroke:#000000;stroke-width:0.1;"/>
            <!-- Arc -->
            <path d="M455.0383,1813.5178 A30,30 0 0,1 449.191,1779.7079" style="stroke:#000000;stroke-width:0.1;"/>
            <!-- Arc -->
            <path d="M840.9316,2036.3134 A843.9175,843.9175 0 0,1 455.0383,1813.5178" style="stroke:#000000;stroke-width:0.1;"/>
            <!-- Arc -->
            <path d="M378.2526,1920.3934 A30,30 0 0,1 370.3352,1890.2916" style="stroke:#000000;stroke-width:0.1;"/>
            <!-- Arc -->
            <path d="M370.3352,1890.2916 A30,30 0 0,1 416.38,1885.5423" style="stroke:#000000;stroke-width:0.1;"/>
            <!-- Arc -->
            <path d="M586.3654,1304.0159 A50,50 0 0,1 536.3654,1354.0159" style="stroke:#000000;stroke-width:0.1;"/>
            <!-- Arc -->
            <path d="M598.2084,1461.1311 A50,50 0 0,1 666.5097,1442.8299" style="stroke:#000000;stroke-width:0.1;"/>
            <!-- Arc -->
            <path d="M77.9004,1299.2784 A30,30 0 0,1 50.7649,1336.7796" style="stroke:#000000;stroke-width:0.1;"/>
            <!-- Arc -->
            <path d="M50.7649,1336.7796 A30,30 0 0,1 28.6546,1314.8721" style="stroke:#000000;stroke-width:0.1;"/>
            <!-- Arc -->
            <path d="M185.9611,1323.7804 A30,30 0 0,1 159.6045,1301.8115" style="stroke:#000000;stroke-width:0.1;"/>
            <!-- Line -->
            <path d="M536.3654,1354.0159 L185.9611,1323.7804 " style="stroke:#000000;stroke-width:0.1;"/>
            <!-- Arc -->
            <path d="M797.8858,2105.8047 A30,30 0 0,1 816.7951,2148.0553" style="stroke:#000000;stroke-width:0.1;"/>
            <!-- Arc -->
            <path d="M797.8858,2105.8047 A873.9175,873.9175 0 0,1 416.38,1885.5423" style="stroke:#000000;stroke-width:0.1;"/>
            <!-- Arc -->
            <path d="M786.7675,2156.2496 A973.9175,973.9175 0 0,1 378.2526,1920.3934" style="stroke:#000000;stroke-width:0.1;"/>
            <!-- Arc -->
            <path d="M536.3654,804.0159 A50,50 0 0,1 586.3654,854.0159" style="stroke:#000000;stroke-width:0.1;"/>
            <!-- Arc -->
            <path d="M50.7649,821.2522 A30,30 0 0,1 77.9004,858.7534" style="stroke:#000000;stroke-width:0.1;"/>
            <!-- Arc -->
            <path d="M28.6546,843.1597 A30,30 0 0,1 50.7649,821.2522" style="stroke:#000000;stroke-width:0.1;"/>
            <!-- Arc -->
            <path d="M159.6045,856.2203 A30,30 0 0,1 185.9611,834.2514" style="stroke:#000000;stroke-width:0.1;"/>
            <!-- Line -->
            <path d="M536.3654,804.0159 L185.9611,834.2514 " style="stroke:#000000;stroke-width:0.1;"/>
            <!-- Arc -->
            <path d="M666.5097,715.2019 A50,50 0 0,1 598.2084,696.9006" style="stroke:#000000;stroke-width:0.1;"/>
            <!-- Arc -->
            <path d="M449.191,378.3239 A30,30 0 0,1 455.0383,344.514" style="stroke:#000000;stroke-width:0.1;"/>
            <!-- Arc -->
            <path d="M370.3352,267.7401 A30,30 0 0,1 378.2526,237.6383" style="stroke:#000000;stroke-width:0.1;"/>
            <!-- Arc -->
            <path d="M416.38,272.4895 A30,30 0 0,1 370.3352,267.7401" style="stroke:#000000;stroke-width:0.1;"/>
            <!-- Line -->
            <path d="M598.2084,696.9006 L449.191,378.3239 " style="stroke:#000000;stroke-width:0.1;"/>
            <!-- Line -->
            <path d="M586.3654,1304.0159 L586.3654,854.0159 " style="stroke:#000000;stroke-width:0.1;"/>
            <!-- Arc -->
            <path d="M28.6546,1314.8721 A973.9175,973.9175 0 0,1 28.6546,843.1597" style="stroke:#000000;stroke-width:0.1;"/>
            <!-- Arc -->
            <path d="M77.9004,1299.2784 A873.9175,873.9175 0 0,1 77.9004,858.7534" style="stroke:#000000;stroke-width:0.1;"/>
            <!-- Arc -->
            <path d="M159.6045,1301.8115 A843.9175,843.9175 0 0,1 159.6045,856.2203" style="stroke:#000000;stroke-width:0.1;"/>
            <!-- Line -->
            <path d="M1056.2211,1667.8299 L666.5097,1442.8299 " style="stroke:#000000;stroke-width:0.1;"/>
            <!-- Line -->
            <path d="M1074.5224,1736.1311 L873.1356,2024.4724 " style="stroke:#000000;stroke-width:0.1;"/>
            <!-- Circle -->
            <circle id="auto-fill" class="table-fill" cx="1136.3654015510713" cy="1079.015882662643" r="450" style="stroke:#000000;stroke-width:0.1;"/>
            <!-- Line -->
            <path d="M1056.2211,490.2019 L666.5097,715.2019 " style="stroke:#000000;stroke-width:0.1;"/>
        </g>
        </g>
    </g>
</svg>
