<?xml version="1.0" encoding="UTF-8"?>
<!-- 2026-03-10 12:53:37 Generated by QCAD 3.32.6 SVG Exporter -->
<svg  width="2000mm" height="2017.6001mm" viewBox="5.0536 -2015.4649 2000 2017.6001" version="1.1" xmlns="http://www.w3.org/2000/svg" style="stroke-linecap:round;stroke-linejoin:round;">
    <g transform="scale(1,-1)">
            <!-- Auto-generated fillable area -->
            <!-- Block Reference: 6 seater rectangular table / entities: 8 -->
        <g>
            <!-- Block Reference: A$C51F1 / entities: 31 -->
            <g>
                <!-- Polyline -->
                <path d="M1418.3618,1996.2802 A0.216619,0.216619 0 0 0 1427.9456,1908.8943 A1.18069,1.18069 0 0 1 1412.3721,1531.6648 A0.0222032,0.0222032 0 0 1 1436.7972,1534.593 A0.0120328,0.0120328 0 0 0 1445.9408,1535.2557 A0.480879,0.480879 0 0 1 1500.0083,1531.6648 L1630.0536,1531.6648 L1760.0989,1531.6648 A0.480879,0.480879 0 0 1 1814.1664,1535.2557 A0.0120328,0.0120328 0 0 0 1823.31,1534.593 A0.0222032,0.0222032 0 0 1 1847.7351,1531.6648 A1.18069,1.18069 0 0 1 1832.1617,1908.8943 A0.216619,0.216619 0 0 0 1841.7454,1996.2802 A0.0126008,0.0126008 0 0 1 1830.9639,2015.4648 L1429.1433,2015.4648 A0.0126008,0.0126008 0 0 1 1418.3618,1996.2802 Z" style="stroke:#000000;stroke-width:0.1;"/>
                <!-- Line -->
                <path d="M1629.7378,1908.3176 L1736.5228,1908.3176 " style="stroke:#000000;stroke-width:0.1;"/>
                <!-- Arc -->
                <path d="M1807.487,1903.4227 A1154.4088,1154.4088 0 0,0 1822.7138,1534.5888" style="stroke:#000000;stroke-width:0.1;"/>
                <!-- Arc -->
                <path d="M1807.0993,1906.0146 A240.8687,240.8687 0 0,0 1815.2985,1995.1272" style="stroke:#000000;stroke-width:0.1;"/>
                <!-- Line -->
                <path d="M1629.7378,1990.1986 L1813.1592,1990.1986 " style="stroke:#000000;stroke-width:0.1;"/>
                <!-- Line -->
                <path d="M1629.7378,1998.3867 L1813.4813,1998.3867 " style="stroke:#000000;stroke-width:0.1;"/>
                <!-- Arc -->
                <path d="M1813.4813,1998.3867 A2.4177,2.4177 0 0,0 1815.2985,1995.1272" style="stroke:#000000;stroke-width:0.1;"/>
                <!-- Arc -->
                <path d="M1796.0867,1887.4142 A317.3163,317.3163 0 0,0 1810.815,1976.7527" style="stroke:#000000;stroke-width:0.1;"/>
                <!-- Arc -->
                <path d="M1736.5228,1908.3176 A97.8312,97.8312 0 0,0 1813.9701,1869.1036" style="stroke:#000000;stroke-width:0.1;"/>
                <!-- Arc -->
                <path d="M1813.0928,1990.1986 A0.7251,0.7251 0 0,0 1813.8174,1989.256" style="stroke:#000000;stroke-width:0.1;"/>
                <!-- Line -->
                <path d="M1629.7378,1989.3798 L1813.1592,1989.3798 " style="stroke:#000000;stroke-width:0.1;"/>
                <!-- Arc -->
                <path d="M1813.1592,1989.3798 A0.4331,0.4331 0 0,0 1813.7222,1988.899" style="stroke:#000000;stroke-width:0.1;"/>
                <!-- Arc -->
                <path d="M1813.5835,1535.2505 A12.0153,12.0153 0 0,0 1822.7138,1534.5888" style="stroke:#000000;stroke-width:0.1;"/>
                <!-- Line -->
                <path d="M1813.5835,1535.2505 L1815.3485,1554.6516 " style="stroke:#000000;stroke-width:0.1;"/>
                <!-- Line -->
                <path d="M1815.3485,1554.6516 L1824.4908,1550.3242 " style="stroke:#000000;stroke-width:0.1;"/>
                <!-- Line -->
                <path d="M1815.3485,1554.6516 L1824.9413,1554.6516 " style="stroke:#000000;stroke-width:0.1;"/>
                <!-- Line -->
                <path d="M1444.1271,1554.6516 L1434.5343,1554.6516 " style="stroke:#000000;stroke-width:0.1;"/>
                <!-- Line -->
                <path d="M1444.1271,1554.6516 L1434.9848,1550.3242 " style="stroke:#000000;stroke-width:0.1;"/>
                <!-- Line -->
                <path d="M1445.8921,1535.2505 L1444.1271,1554.6516 " style="stroke:#000000;stroke-width:0.1;"/>
                <!-- Arc -->
                <path d="M1436.7618,1534.5888 A12.0153,12.0153 0 0,0 1445.8921,1535.2505" style="stroke:#000000;stroke-width:0.1;"/>
                <!-- Arc -->
                <path d="M1445.7534,1988.899 A0.4331,0.4331 0 0,0 1446.3164,1989.3798" style="stroke:#000000;stroke-width:0.1;"/>
                <!-- Line -->
                <path d="M1629.7378,1989.3798 L1446.3164,1989.3798 " style="stroke:#000000;stroke-width:0.1;"/>
                <!-- Arc -->
                <path d="M1445.6581,1989.256 A0.7251,0.7251 0 0,0 1446.3828,1990.1986" style="stroke:#000000;stroke-width:0.1;"/>
                <!-- Arc -->
                <path d="M1445.5055,1869.1036 A97.8312,97.8312 0 0,0 1522.9527,1908.3176" style="stroke:#000000;stroke-width:0.1;"/>
                <!-- Arc -->
                <path d="M1448.6605,1976.7527 A317.3163,317.3163 0 0,0 1463.3889,1887.4142" style="stroke:#000000;stroke-width:0.1;"/>
                <!-- Arc -->
                <path d="M1444.1771,1995.1272 A2.4177,2.4177 0 0,0 1445.9943,1998.3867" style="stroke:#000000;stroke-width:0.1;"/>
                <!-- Line -->
                <path d="M1629.7378,1998.3867 L1445.9943,1998.3867 " style="stroke:#000000;stroke-width:0.1;"/>
                <!-- Line -->
                <path d="M1629.7378,1990.1986 L1446.3164,1990.1986 " style="stroke:#000000;stroke-width:0.1;"/>
                <!-- Arc -->
                <path d="M1444.1771,1995.1272 A240.8687,240.8687 0 0,0 1452.3763,1906.0146" style="stroke:#000000;stroke-width:0.1;"/>
                <!-- Arc -->
                <path d="M1436.7618,1534.5888 A1154.4088,1154.4088 0 0,0 1451.9886,1903.4227" style="stroke:#000000;stroke-width:0.1;"/>
                <!-- Line -->
                <path d="M1629.7378,1908.3176 L1522.9527,1908.3176 " style="stroke:#000000;stroke-width:0.1;"/>
            </g>
            <!-- Block Reference: A$C51F1 / entities: 31 -->
            <g>
                <!-- Polyline -->
                <path d="M1418.3618,17.0495 A216.619,216.619 0 0 1 1427.9456,104.4353 A1180.69,1180.69 0 0 0 1412.3721,481.6648 A22.2032,22.2032 0 0 0 1436.7972,478.7366 A12.0328,12.0328 0 0 1 1445.9408,478.0739 A480.879,480.879 0 0 0 1500.0083,481.6648 L1630.0536,481.6648 L1760.0989,481.6648 A480.879,480.879 0 0 0 1814.1664,478.0739 A12.0328,12.0328 0 0 1 1823.31,478.7366 A22.2032,22.2032 0 0 0 1847.7351,481.6648 A1180.69,1180.69 0 0 0 1832.1617,104.4353 A216.619,216.619 0 0 1 1841.7454,17.0495 A12.6008,12.6008 0 0 0 1830.9639,-2.1352 L1429.1433,-2.1352 A12.6008,12.6008 0 0 0 1418.3618,17.0495 Z" style="stroke:#000000;stroke-width:0.1;"/>
                <!-- Line -->
                <path d="M1629.7378,105.0121 L1736.5228,105.0121 " style="stroke:#000000;stroke-width:0.1;"/>
                <!-- Arc -->
                <path d="M1807.487,109.907 A1154.4088,1154.4088 0 0,1 1822.7138,478.7409" style="stroke:#000000;stroke-width:0.1;"/>
                <!-- Arc -->
                <path d="M1807.0993,107.3151 A240.8687,240.8687 0 0,1 1815.2985,18.2025" style="stroke:#000000;stroke-width:0.1;"/>
                <!-- Line -->
                <path d="M1629.7378,23.131 L1813.1592,23.131 " style="stroke:#000000;stroke-width:0.1;"/>
                <!-- Line -->
                <path d="M1629.7378,14.9429 L1813.4813,14.9429 " style="stroke:#000000;stroke-width:0.1;"/>
                <!-- Arc -->
                <path d="M1813.4813,14.9429 A2.4177,2.4177 0 0,1 1815.2985,18.2025" style="stroke:#000000;stroke-width:0.1;"/>
                <!-- Arc -->
                <path d="M1796.0867,125.9155 A317.3163,317.3163 0 0,1 1810.815,36.577" style="stroke:#000000;stroke-width:0.1;"/>
                <!-- Arc -->
                <path d="M1736.5228,105.0121 A97.8312,97.8312 0 0,1 1813.9701,144.2261" style="stroke:#000000;stroke-width:0.1;"/>
                <!-- Arc -->
                <path d="M1813.0928,23.131 A0.7251,0.7251 0 0,1 1813.8174,24.0737" style="stroke:#000000;stroke-width:0.1;"/>
                <!-- Line -->
                <path d="M1629.7378,23.9499 L1813.1592,23.9499 " style="stroke:#000000;stroke-width:0.1;"/>
                <!-- Arc -->
                <path d="M1813.1592,23.9499 A0.4331,0.4331 0 0,1 1813.7222,24.4306" style="stroke:#000000;stroke-width:0.1;"/>
                <!-- Arc -->
                <path d="M1813.5835,478.0791 A12.0153,12.0153 0 0,1 1822.7138,478.7409" style="stroke:#000000;stroke-width:0.1;"/>
                <!-- Line -->
                <path d="M1813.5835,478.0791 L1815.3485,458.678 " style="stroke:#000000;stroke-width:0.1;"/>
                <!-- Line -->
                <path d="M1815.3485,458.678 L1824.4908,463.0055 " style="stroke:#000000;stroke-width:0.1;"/>
                <!-- Line -->
                <path d="M1815.3485,458.678 L1824.9413,458.678 " style="stroke:#000000;stroke-width:0.1;"/>
                <!-- Line -->
                <path d="M1444.1271,458.678 L1434.5343,458.678 " style="stroke:#000000;stroke-width:0.1;"/>
                <!-- Line -->
                <path d="M1444.1271,458.678 L1434.9848,463.0055 " style="stroke:#000000;stroke-width:0.1;"/>
                <!-- Line -->
                <path d="M1445.8921,478.0791 L1444.1271,458.678 " style="stroke:#000000;stroke-width:0.1;"/>
                <!-- Arc -->
                <path d="M1436.7618,478.7409 A12.0153,12.0153 0 0,1 1445.8921,478.0791" style="stroke:#000000;stroke-width:0.1;"/>
                <!-- Arc -->
                <path d="M1445.7534,24.4306 A0.4331,0.4331 0 0,1 1446.3164,23.9499" style="stroke:#000000;stroke-width:0.1;"/>
                <!-- Line -->
                <path d="M1629.7378,23.9499 L1446.3164,23.9499 " style="stroke:#000000;stroke-width:0.1;"/>
                <!-- Arc -->
                <path d="M1445.6581,24.0737 A0.7251,0.7251 0 0,1 1446.3828,23.131" style="stroke:#000000;stroke-width:0.1;"/>
                <!-- Arc -->
                <path d="M1445.5055,144.2261 A97.8312,97.8312 0 0,1 1522.9527,105.0121" style="stroke:#000000;stroke-width:0.1;"/>
                <!-- Arc -->
                <path d="M1448.6605,36.577 A317.3163,317.3163 0 0,1 1463.3889,125.9155" style="stroke:#000000;stroke-width:0.1;"/>
                <!-- Arc -->
                <path d="M1444.1771,18.2025 A2.4177,2.4177 0 0,1 1445.9943,14.9429" style="stroke:#000000;stroke-width:0.1;"/>
                <!-- Line -->
                <path d="M1629.7378,14.9429 L1445.9943,14.9429 " style="stroke:#000000;stroke-width:0.1;"/>
                <!-- Line -->
                <path d="M1629.7378,23.131 L1446.3164,23.131 " style="stroke:#000000;stroke-width:0.1;"/>
                <!-- Arc -->
                <path d="M1444.1771,18.2025 A240.8687,240.8687 0 0,1 1452.3763,107.3151" style="stroke:#000000;stroke-width:0.1;"/>
                <!-- Arc -->
                <path d="M1436.7618,478.7409 A1154.4088,1154.4088 0 0,1 1451.9886,109.907" style="stroke:#000000;stroke-width:0.1;"/>
                <!-- Line -->
                <path d="M1629.7378,105.0121 L1522.9527,105.0121 " style="stroke:#000000;stroke-width:0.1;"/>
            </g>
            <!-- Block Reference: A$C51F1 / entities: 31 -->
            <g>
                <!-- Polyline -->
                <path d="M1241.7454,1996.2802 A216.619,216.619 0 0 1 1232.1617,1908.8943 A1180.69,1180.69 0 0 0 1247.7351,1531.6648 A22.2032,22.2032 0 0 0 1223.31,1534.593 A12.0328,12.0328 0 0 1 1214.1664,1535.2557 A480.879,480.879 0 0 0 1160.0989,1531.6648 L1030.0536,1531.6648 L900.0083,1531.6648 A480.879,480.879 0 0 0 845.9408,1535.2557 A12.0328,12.0328 0 0 1 836.7972,1534.593 A22.2032,22.2032 0 0 0 812.3721,1531.6648 A1180.69,1180.69 0 0 0 827.9456,1908.8943 A216.619,216.619 0 0 1 818.3618,1996.2802 A12.6008,12.6008 0 0 0 829.1433,2015.4648 L1230.9639,2015.4648 A12.6008,12.6008 0 0 0 1241.7454,1996.2802 Z" style="stroke:#000000;stroke-width:0.1;"/>
                <!-- Line -->
                <path d="M1030.3694,1908.3176 L923.5844,1908.3176 " style="stroke:#000000;stroke-width:0.1;"/>
                <!-- Arc -->
                <path d="M852.6203,1903.4227 A1154.4088,1154.4088 0 0,1 837.3934,1534.5888" style="stroke:#000000;stroke-width:0.1;"/>
                <!-- Arc -->
                <path d="M853.0079,1906.0146 A240.8687,240.8687 0 0,1 844.8087,1995.1272" style="stroke:#000000;stroke-width:0.1;"/>
                <!-- Line -->
                <path d="M1030.3694,1990.1986 L846.948,1990.1986 " style="stroke:#000000;stroke-width:0.1;"/>
                <!-- Line -->
                <path d="M1030.3694,1998.3867 L846.6259,1998.3867 " style="stroke:#000000;stroke-width:0.1;"/>
                <!-- Arc -->
                <path d="M846.6259,1998.3867 A2.4177,2.4177 0 0,1 844.8087,1995.1272" style="stroke:#000000;stroke-width:0.1;"/>
                <!-- Arc -->
                <path d="M864.0205,1887.4142 A317.3163,317.3163 0 0,1 849.2922,1976.7527" style="stroke:#000000;stroke-width:0.1;"/>
                <!-- Arc -->
                <path d="M923.5844,1908.3176 A97.8312,97.8312 0 0,1 846.1371,1869.1036" style="stroke:#000000;stroke-width:0.1;"/>
                <!-- Arc -->
                <path d="M847.0144,1990.1986 A0.7251,0.7251 0 0,1 846.2898,1989.256" style="stroke:#000000;stroke-width:0.1;"/>
                <!-- Line -->
                <path d="M1030.3694,1989.3798 L846.948,1989.3798 " style="stroke:#000000;stroke-width:0.1;"/>
                <!-- Arc -->
                <path d="M846.948,1989.3798 A0.4331,0.4331 0 0,1 846.385,1988.899" style="stroke:#000000;stroke-width:0.1;"/>
                <!-- Arc -->
                <path d="M846.5237,1535.2505 A12.0153,12.0153 0 0,1 837.3934,1534.5888" style="stroke:#000000;stroke-width:0.1;"/>
                <!-- Line -->
                <path d="M846.5237,1535.2505 L844.7587,1554.6516 " style="stroke:#000000;stroke-width:0.1;"/>
                <!-- Line -->
                <path d="M844.7587,1554.6516 L835.6164,1550.3242 " style="stroke:#000000;stroke-width:0.1;"/>
                <!-- Line -->
                <path d="M844.7587,1554.6516 L835.166,1554.6516 " style="stroke:#000000;stroke-width:0.1;"/>
                <!-- Line -->
                <path d="M1215.9802,1554.6516 L1225.5729,1554.6516 " style="stroke:#000000;stroke-width:0.1;"/>
                <!-- Line -->
                <path d="M1215.9802,1554.6516 L1225.1225,1550.3242 " style="stroke:#000000;stroke-width:0.1;"/>
                <!-- Line -->
                <path d="M1214.2151,1535.2505 L1215.9802,1554.6516 " style="stroke:#000000;stroke-width:0.1;"/>
                <!-- Arc -->
                <path d="M1223.3454,1534.5888 A12.0153,12.0153 0 0,1 1214.2151,1535.2505" style="stroke:#000000;stroke-width:0.1;"/>
                <!-- Arc -->
                <path d="M1214.3538,1988.899 A0.4331,0.4331 0 0,1 1213.7908,1989.3798" style="stroke:#000000;stroke-width:0.1;"/>
                <!-- Line -->
                <path d="M1030.3694,1989.3798 L1213.7908,1989.3798 " style="stroke:#000000;stroke-width:0.1;"/>
                <!-- Arc -->
                <path d="M1214.4491,1989.256 A0.7251,0.7251 0 0,1 1213.7244,1990.1986" style="stroke:#000000;stroke-width:0.1;"/>
                <!-- Arc -->
                <path d="M1214.6017,1869.1036 A97.8312,97.8312 0 0,1 1137.1545,1908.3176" style="stroke:#000000;stroke-width:0.1;"/>
                <!-- Arc -->
                <path d="M1211.4467,1976.7527 A317.3163,317.3163 0 0,1 1196.7183,1887.4142" style="stroke:#000000;stroke-width:0.1;"/>
                <!-- Arc -->
                <path d="M1215.9301,1995.1272 A2.4177,2.4177 0 0,1 1214.1129,1998.3867" style="stroke:#000000;stroke-width:0.1;"/>
                <!-- Line -->
                <path d="M1030.3694,1998.3867 L1214.1129,1998.3867 " style="stroke:#000000;stroke-width:0.1;"/>
                <!-- Line -->
                <path d="M1030.3694,1990.1986 L1213.7908,1990.1986 " style="stroke:#000000;stroke-width:0.1;"/>
                <!-- Arc -->
                <path d="M1215.9301,1995.1272 A240.8687,240.8687 0 0,1 1207.7309,1906.0146" style="stroke:#000000;stroke-width:0.1;"/>
                <!-- Arc -->
                <path d="M1223.3454,1534.5888 A1154.4088,1154.4088 0 0,1 1208.1186,1903.4227" style="stroke:#000000;stroke-width:0.1;"/>
                <!-- Line -->
                <path d="M1030.3694,1908.3176 L1137.1545,1908.3176 " style="stroke:#000000;stroke-width:0.1;"/>
            </g>
            <!-- Block Reference: A$C51F1 / entities: 31 -->
            <g>
                <!-- Polyline -->
                <path d="M641.7454,1996.2802 A216.619,216.619 0 0 1 632.1617,1908.8943 A1180.69,1180.69 0 0 0 647.7351,1531.6648 A22.2032,22.2032 0 0 0 623.31,1534.593 A12.0328,12.0328 0 0 1 614.1664,1535.2557 A480.879,480.879 0 0 0 560.0989,1531.6648 L430.0536,1531.6648 L300.0083,1531.6648 A480.879,480.879 0 0 0 245.9408,1535.2557 A12.0328,12.0328 0 0 1 236.7972,1534.593 A22.2032,22.2032 0 0 0 212.3721,1531.6648 A1180.69,1180.69 0 0 0 227.9456,1908.8943 A216.619,216.619 0 0 1 218.3618,1996.2802 A12.6008,12.6008 0 0 0 229.1433,2015.4648 L630.9639,2015.4648 A12.6008,12.6008 0 0 0 641.7454,1996.2802 Z" style="stroke:#000000;stroke-width:0.1;"/>
                <!-- Line -->
                <path d="M430.3694,1908.3176 L323.5844,1908.3176 " style="stroke:#000000;stroke-width:0.1;"/>
                <!-- Arc -->
                <path d="M252.6203,1903.4227 A1154.4088,1154.4088 0 0,1 237.3934,1534.5888" style="stroke:#000000;stroke-width:0.1;"/>
                <!-- Arc -->
                <path d="M253.0079,1906.0146 A240.8687,240.8687 0 0,1 244.8087,1995.1272" style="stroke:#000000;stroke-width:0.1;"/>
                <!-- Line -->
                <path d="M430.3694,1990.1986 L246.948,1990.1986 " style="stroke:#000000;stroke-width:0.1;"/>
                <!-- Line -->
                <path d="M430.3694,1998.3867 L246.6259,1998.3867 " style="stroke:#000000;stroke-width:0.1;"/>
                <!-- Arc -->
                <path d="M246.6259,1998.3867 A2.4177,2.4177 0 0,1 244.8087,1995.1272" style="stroke:#000000;stroke-width:0.1;"/>
                <!-- Arc -->
                <path d="M264.0205,1887.4142 A317.3163,317.3163 0 0,1 249.2922,1976.7527" style="stroke:#000000;stroke-width:0.1;"/>
                <!-- Arc -->
                <path d="M323.5844,1908.3176 A97.8312,97.8312 0 0,1 246.1371,1869.1036" style="stroke:#000000;stroke-width:0.1;"/>
                <!-- Arc -->
                <path d="M247.0144,1990.1986 A0.7251,0.7251 0 0,1 246.2898,1989.256" style="stroke:#000000;stroke-width:0.1;"/>
                <!-- Line -->
                <path d="M430.3694,1989.3798 L246.948,1989.3798 " style="stroke:#000000;stroke-width:0.1;"/>
                <!-- Arc -->
                <path d="M246.948,1989.3798 A0.4331,0.4331 0 0,1 246.385,1988.899" style="stroke:#000000;stroke-width:0.1;"/>
                <!-- Arc -->
                <path d="M246.5237,1535.2505 A12.0153,12.0153 0 0,1 237.3934,1534.5888" style="stroke:#000000;stroke-width:0.1;"/>
                <!-- Line -->
                <path d="M246.5237,1535.2505 L244.7587,1554.6516 " style="stroke:#000000;stroke-width:0.1;"/>
                <!-- Line -->
                <path d="M244.7587,1554.6516 L235.6164,1550.3242 " style="stroke:#000000;stroke-width:0.1;"/>
                <!-- Line -->
                <path d="M244.7587,1554.6516 L235.166,1554.6516 " style="stroke:#000000;stroke-width:0.1;"/>
                <!-- Line -->
                <path d="M615.9802,1554.6516 L625.5729,1554.6516 " style="stroke:#000000;stroke-width:0.1;"/>
                <!-- Line -->
                <path d="M615.9802,1554.6516 L625.1225,1550.3242 " style="stroke:#000000;stroke-width:0.1;"/>
                <!-- Line -->
                <path d="M614.2151,1535.2505 L615.9802,1554.6516 " style="stroke:#000000;stroke-width:0.1;"/>
                <!-- Arc -->
                <path d="M623.3454,1534.5888 A12.0153,12.0153 0 0,1 614.2151,1535.2505" style="stroke:#000000;stroke-width:0.1;"/>
                <!-- Arc -->
                <path d="M614.3538,1988.899 A0.4331,0.4331 0 0,1 613.7908,1989.3798" style="stroke:#000000;stroke-width:0.1;"/>
                <!-- Line -->
                <path d="M430.3694,1989.3798 L613.7908,1989.3798 " style="stroke:#000000;stroke-width:0.1;"/>
                <!-- Arc -->
                <path d="M614.4491,1989.256 A0.7251,0.7251 0 0,1 613.7244,1990.1986" style="stroke:#000000;stroke-width:0.1;"/>
                <!-- Arc -->
                <path d="M614.6017,1869.1036 A97.8312,97.8312 0 0,1 537.1545,1908.3176" style="stroke:#000000;stroke-width:0.1;"/>
                <!-- Arc -->
                <path d="M611.4467,1976.7527 A317.3163,317.3163 0 0,1 596.7183,1887.4142" style="stroke:#000000;stroke-width:0.1;"/>
                <!-- Arc -->
                <path d="M615.9301,1995.1272 A2.4177,2.4177 0 0,1 614.1129,1998.3867" style="stroke:#000000;stroke-width:0.1;"/>
                <!-- Line -->
                <path d="M430.3694,1998.3867 L614.1129,1998.3867 " style="stroke:#000000;stroke-width:0.1;"/>
                <!-- Line -->
                <path d="M430.3694,1990.1986 L613.7908,1990.1986 " style="stroke:#000000;stroke-width:0.1;"/>
                <!-- Arc -->
                <path d="M615.9301,1995.1272 A240.8687,240.8687 0 0,1 607.7309,1906.0146" style="stroke:#000000;stroke-width:0.1;"/>
                <!-- Arc -->
                <path d="M623.3454,1534.5888 A1154.4088,1154.4088 0 0,1 608.1186,1903.4227" style="stroke:#000000;stroke-width:0.1;"/>
                <!-- Line -->
                <path d="M430.3694,1908.3176 L537.1545,1908.3176 " style="stroke:#000000;stroke-width:0.1;"/>
            </g>
            <!-- Block Reference: A$C51F1 / entities: 31 -->
            <g>
                <!-- Polyline -->
                <path d="M1241.7454,17.0495 A0.216619,0.216619 0 0 0 1232.1617,104.4353 A1.18069,1.18069 0 0 1 1247.7351,481.6648 A0.0222032,0.0222032 0 0 1 1223.31,478.7366 A0.0120328,0.0120328 0 0 0 1214.1664,478.0739 A0.480879,0.480879 0 0 1 1160.0989,481.6648 L1030.0536,481.6648 L900.0083,481.6648 A0.480879,0.480879 0 0 1 845.9408,478.0739 A0.0120328,0.0120328 0 0 0 836.7972,478.7366 A0.0222032,0.0222032 0 0 1 812.3721,481.6648 A1.18069,1.18069 0 0 1 827.9456,104.4353 A0.216619,0.216619 0 0 0 818.3618,17.0495 A0.0126008,0.0126008 0 0 1 829.1433,-2.1352 L1230.9639,-2.1352 A0.0126008,0.0126008 0 0 1 1241.7454,17.0495 Z" style="stroke:#000000;stroke-width:0.1;"/>
                <!-- Line -->
                <path d="M1030.3694,105.0121 L923.5844,105.0121 " style="stroke:#000000;stroke-width:0.1;"/>
                <!-- Arc -->
                <path d="M852.6203,109.907 A1154.4088,1154.4088 0 0,0 837.3934,478.7409" style="stroke:#000000;stroke-width:0.1;"/>
                <!-- Arc -->
                <path d="M853.0079,107.3151 A240.8687,240.8687 0 0,0 844.8087,18.2025" style="stroke:#000000;stroke-width:0.1;"/>
                <!-- Line -->
                <path d="M1030.3694,23.131 L846.948,23.131 " style="stroke:#000000;stroke-width:0.1;"/>
                <!-- Line -->
                <path d="M1030.3694,14.9429 L846.6259,14.9429 " style="stroke:#000000;stroke-width:0.1;"/>
                <!-- Arc -->
                <path d="M846.6259,14.9429 A2.4177,2.4177 0 0,0 844.8087,18.2025" style="stroke:#000000;stroke-width:0.1;"/>
                <!-- Arc -->
                <path d="M864.0205,125.9155 A317.3163,317.3163 0 0,0 849.2922,36.577" style="stroke:#000000;stroke-width:0.1;"/>
                <!-- Arc -->
                <path d="M923.5844,105.0121 A97.8312,97.8312 0 0,0 846.1371,144.2261" style="stroke:#000000;stroke-width:0.1;"/>
                <!-- Arc -->
                <path d="M847.0144,23.131 A0.7251,0.7251 0 0,0 846.2898,24.0737" style="stroke:#000000;stroke-width:0.1;"/>
                <!-- Line -->
                <path d="M1030.3694,23.9499 L846.948,23.9499 " style="stroke:#000000;stroke-width:0.1;"/>
                <!-- Arc -->
                <path d="M846.948,23.9499 A0.4331,0.4331 0 0,0 846.385,24.4306" style="stroke:#000000;stroke-width:0.1;"/>
                <!-- Arc -->
                <path d="M846.5237,478.0791 A12.0153,12.0153 0 0,0 837.3934,478.7409" style="stroke:#000000;stroke-width:0.1;"/>
                <!-- Line -->
                <path d="M846.5237,478.0791 L844.7587,458.678 " style="stroke:#000000;stroke-width:0.1;"/>
                <!-- Line -->
                <path d="M844.7587,458.678 L835.6164,463.0055 " style="stroke:#000000;stroke-width:0.1;"/>
                <!-- Line -->
                <path d="M844.7587,458.678 L835.166,458.678 " style="stroke:#000000;stroke-width:0.1;"/>
                <!-- Line -->
                <path d="M1215.9802,458.678 L1225.5729,458.678 " style="stroke:#000000;stroke-width:0.1;"/>
                <!-- Line -->
                <path d="M1215.9802,458.678 L1225.1225,463.0055 " style="stroke:#000000;stroke-width:0.1;"/>
                <!-- Line -->
                <path d="M1214.2151,478.0791 L1215.9802,458.678 " style="stroke:#000000;stroke-width:0.1;"/>
                <!-- Arc -->
                <path d="M1223.3454,478.7409 A12.0153,12.0153 0 0,0 1214.2151,478.0791" style="stroke:#000000;stroke-width:0.1;"/>
                <!-- Arc -->
                <path d="M1214.3538,24.4306 A0.4331,0.4331 0 0,0 1213.7908,23.9499" style="stroke:#000000;stroke-width:0.1;"/>
                <!-- Line -->
                <path d="M1030.3694,23.9499 L1213.7908,23.9499 " style="stroke:#000000;stroke-width:0.1;"/>
                <!-- Arc -->
                <path d="M1214.4491,24.0737 A0.7251,0.7251 0 0,0 1213.7244,23.131" style="stroke:#000000;stroke-width:0.1;"/>
                <!-- Arc -->
                <path d="M1214.6017,144.2261 A97.8312,97.8312 0 0,0 1137.1545,105.0121" style="stroke:#000000;stroke-width:0.1;"/>
                <!-- Arc -->
                <path d="M1211.4467,36.577 A317.3163,317.3163 0 0,0 1196.7183,125.9155" style="stroke:#000000;stroke-width:0.1;"/>
                <!-- Arc -->
                <path d="M1215.9301,18.2025 A2.4177,2.4177 0 0,0 1214.1129,14.9429" style="stroke:#000000;stroke-width:0.1;"/>
                <!-- Line -->
                <path d="M1030.3694,14.9429 L1214.1129,14.9429 " style="stroke:#000000;stroke-width:0.1;"/>
                <!-- Line -->
                <path d="M1030.3694,23.131 L1213.7908,23.131 " style="stroke:#000000;stroke-width:0.1;"/>
                <!-- Arc -->
                <path d="M1215.9301,18.2025 A240.8687,240.8687 0 0,0 1207.7309,107.3151" style="stroke:#000000;stroke-width:0.1;"/>
                <!-- Arc -->
                <path d="M1223.3454,478.7409 A1154.4088,1154.4088 0 0,0 1208.1186,109.907" style="stroke:#000000;stroke-width:0.1;"/>
                <!-- Line -->
                <path d="M1030.3694,105.0121 L1137.1545,105.0121 " style="stroke:#000000;stroke-width:0.1;"/>
            </g>
            <!-- Block Reference: A$C51F1 / entities: 31 -->
            <g>
                <!-- Polyline -->
                <path d="M641.7454,17.0495 A0.216619,0.216619 0 0 0 632.1617,104.4353 A1.18069,1.18069 0 0 1 647.7351,481.6648 A0.0222032,0.0222032 0 0 1 623.31,478.7366 A0.0120328,0.0120328 0 0 0 614.1664,478.0739 A0.480879,0.480879 0 0 1 560.0989,481.6648 L430.0536,481.6648 L300.0083,481.6648 A0.480879,0.480879 0 0 1 245.9408,478.0739 A0.0120328,0.0120328 0 0 0 236.7972,478.7366 A0.0222032,0.0222032 0 0 1 212.3721,481.6648 A1.18069,1.18069 0 0 1 227.9456,104.4353 A0.216619,0.216619 0 0 0 218.3618,17.0495 A0.0126008,0.0126008 0 0 1 229.1433,-2.1352 L630.9639,-2.1352 A0.0126008,0.0126008 0 0 1 641.7454,17.0495 Z" style="stroke:#000000;stroke-width:0.1;"/>
                <!-- Line -->
                <path d="M430.3694,105.0121 L323.5844,105.0121 " style="stroke:#000000;stroke-width:0.1;"/>
                <!-- Arc -->
                <path d="M252.6203,109.907 A1154.4088,1154.4088 0 0,0 237.3934,478.7409" style="stroke:#000000;stroke-width:0.1;"/>
                <!-- Arc -->
                <path d="M253.0079,107.3151 A240.8687,240.8687 0 0,0 244.8087,18.2025" style="stroke:#000000;stroke-width:0.1;"/>
                <!-- Line -->
                <path d="M430.3694,23.131 L246.948,23.131 " style="stroke:#000000;stroke-width:0.1;"/>
                <!-- Line -->
                <path d="M430.3694,14.9429 L246.6259,14.9429 " style="stroke:#000000;stroke-width:0.1;"/>
                <!-- Arc -->
                <path d="M246.6259,14.9429 A2.4177,2.4177 0 0,0 244.8087,18.2025" style="stroke:#000000;stroke-width:0.1;"/>
                <!-- Arc -->
                <path d="M264.0205,125.9155 A317.3163,317.3163 0 0,0 249.2922,36.577" style="stroke:#000000;stroke-width:0.1;"/>
                <!-- Arc -->
                <path d="M323.5844,105.0121 A97.8312,97.8312 0 0,0 246.1371,144.2261" style="stroke:#000000;stroke-width:0.1;"/>
                <!-- Arc -->
                <path d="M247.0144,23.131 A0.7251,0.7251 0 0,0 246.2898,24.0737" style="stroke:#000000;stroke-width:0.1;"/>
                <!-- Line -->
                <path d="M430.3694,23.9499 L246.948,23.9499 " style="stroke:#000000;stroke-width:0.1;"/>
                <!-- Arc -->
                <path d="M246.948,23.9499 A0.4331,0.4331 0 0,0 246.385,24.4306" style="stroke:#000000;stroke-width:0.1;"/>
                <!-- Arc -->
                <path d="M246.5237,478.0791 A12.0153,12.0153 0 0,0 237.3934,478.7409" style="stroke:#000000;stroke-width:0.1;"/>
                <!-- Line -->
                <path d="M246.5237,478.0791 L244.7587,458.678 " style="stroke:#000000;stroke-width:0.1;"/>
                <!-- Line -->
                <path d="M244.7587,458.678 L235.6164,463.0055 " style="stroke:#000000;stroke-width:0.1;"/>
                <!-- Line -->
                <path d="M244.7587,458.678 L235.166,458.678 " style="stroke:#000000;stroke-width:0.1;"/>
                <!-- Line -->
                <path d="M615.9802,458.678 L625.5729,458.678 " style="stroke:#000000;stroke-width:0.1;"/>
                <!-- Line -->
                <path d="M615.9802,458.678 L625.1225,463.0055 " style="stroke:#000000;stroke-width:0.1;"/>
                <!-- Line -->
                <path d="M614.2151,478.0791 L615.9802,458.678 " style="stroke:#000000;stroke-width:0.1;"/>
                <!-- Arc -->
                <path d="M623.3454,478.7409 A12.0153,12.0153 0 0,0 614.2151,478.0791" style="stroke:#000000;stroke-width:0.1;"/>
                <!-- Arc -->
                <path d="M614.3538,24.4306 A0.4331,0.4331 0 0,0 613.7908,23.9499" style="stroke:#000000;stroke-width:0.1;"/>
                <!-- Line -->
                <path d="M430.3694,23.9499 L613.7908,23.9499 " style="stroke:#000000;stroke-width:0.1;"/>
                <!-- Arc -->
                <path d="M614.4491,24.0737 A0.7251,0.7251 0 0,0 613.7244,23.131" style="stroke:#000000;stroke-width:0.1;"/>
                <!-- Arc -->
                <path d="M614.6017,144.2261 A97.8312,97.8312 0 0,0 537.1545,105.0121" style="stroke:#000000;stroke-width:0.1;"/>
                <!-- Arc -->
                <path d="M611.4467,36.577 A317.3163,317.3163 0 0,0 596.7183,125.9155" style="stroke:#000000;stroke-width:0.1;"/>
                <!-- Arc -->
                <path d="M615.9301,18.2025 A2.4177,2.4177 0 0,0 614.1129,14.9429" style="stroke:#000000;stroke-width:0.1;"/>
                <!-- Line -->
                <path d="M430.3694,14.9429 L614.1129,14.9429 " style="stroke:#000000;stroke-width:0.1;"/>
                <!-- Line -->
                <path d="M430.3694,23.131 L613.7908,23.131 " style="stroke:#000000;stroke-width:0.1;"/>
                <!-- Arc -->
                <path d="M615.9301,18.2025 A240.8687,240.8687 0 0,0 607.7309,107.3151" style="stroke:#000000;stroke-width:0.1;"/>
                <!-- Arc -->
                <path d="M623.3454,478.7409 A1154.4088,1154.4088 0 0,0 608.1186,109.907" style="stroke:#000000;stroke-width:0.1;"/>
                <!-- Line -->
                <path d="M430.3694,105.0121 L537.1545,105.0121 " style="stroke:#000000;stroke-width:0.1;"/>
            </g>
            <!-- Polyline -->
            <path d="M5.0536,506.6648 L2005.0536,506.6648 L2005.0536,1506.6648 L5.0536,1506.6648 Z" style="stroke:#000000;stroke-width:0.1;"/>
            <!-- Polyline -->
            <path d="M25.0536,526.6648 L1985.0536,526.6648 L1985.0536,1486.6648 L25.0536,1486.6648 Z" style="stroke:#000000;stroke-width:0.1;"/>
        </g>
    </g>
</svg>

