<?xml version="1.0" encoding="UTF-8"?>
<!DOCTYPE svg PUBLIC "-//W3C//DTD SVG 1.1//EN" "http://www.w3.org/Graphics/SVG/1.1/DTD/svg11.dtd">
<svg xmlns="http://www.w3.org/2000/svg" version="1.1" width="640px" height="480px" style="shape-rendering:geometricPrecision; text-rendering:geometricPrecision; image-rendering:optimizeQuality; fill-rule:evenodd; clip-rule:evenodd" xmlns:xlink="http://www.w3.org/1999/xlink">
<g><path style="opacity:1" fill="#000000" d="M 243.5,8.5 C 250.38,7.87644 253.214,10.8764 252,17.5C 250.833,18.6667 249.667,19.8333 248.5,21C 216.023,30.3972 187.689,46.7305 163.5,70C 153.2,68.7636 151.867,64.4303 159.5,57C 184.029,34.8998 212.029,18.7331 243.5,8.5 Z M 244.5,10.5 C 250.067,9.75322 251.9,12.0866 250,17.5C 217.182,27.6817 188.349,44.5151 163.5,68C 155.61,67.3571 154.61,64.1904 160.5,58.5C 184.844,36.1672 212.844,20.1672 244.5,10.5 Z"/></g>
<g><path style="opacity:1" fill="#000000" d="M 389.5,8.5 C 410.556,13.2432 430.223,21.4098 448.5,33C 459.375,40.2744 469.709,48.2744 479.5,57C 487.133,64.4303 485.8,68.7636 475.5,70C 451.311,46.7305 422.977,30.3972 390.5,21C 384.298,17.1286 383.965,12.9619 389.5,8.5 Z M 389.5,10.5 C 423.641,18.4008 453.308,34.4008 478.5,58.5C 484.39,64.1904 483.39,67.3571 475.5,68C 451.321,44.7352 422.988,28.4018 390.5,19C 388.265,16.4149 387.931,13.5815 389.5,10.5 Z"/></g>
<g><path style="opacity:1" fill="#000000" d="M 253.5,34.5 C 258.901,33.3424 263.067,35.009 266,39.5C 280,59.5 294,79.5 308,99.5C 309.855,106.618 307.689,112.118 301.5,116C 275.242,130.601 249.242,145.601 223.5,161C 216.645,166.055 210.312,165.555 204.5,159.5C 193.57,136.543 182.737,113.543 172,90.5C 171.333,88.1667 171.333,85.8333 172,83.5C 195.062,60.3836 222.229,44.0503 253.5,34.5 Z M 253.5,36.5 C 257.603,35.7691 261.103,36.7691 264,39.5C 278.258,59.6933 292.258,80.0266 306,100.5C 307.581,106.062 306.081,110.562 301.5,114C 275.242,128.601 249.242,143.601 223.5,159C 218.807,162.409 213.807,163.075 208.5,161C 204.367,155.239 200.867,149.073 198,142.5C 190,125.167 182,107.833 174,90.5C 173.333,88.5 173.333,86.5 174,84.5C 196.389,61.7207 222.889,45.7207 253.5,36.5 Z"/></g>
<g><path style="opacity:1" fill="#000000" d="M 377.5,34.5 C 403.922,39.3786 427.589,50.2119 448.5,67C 454.667,72.5 460.833,78 467,83.5C 467.667,85.8333 467.667,88.1667 467,90.5C 456.333,113.167 445.667,135.833 435,158.5C 429.354,165.426 422.854,166.259 415.5,161C 389.758,145.601 363.758,130.601 337.5,116C 331.289,112.08 329.123,106.58 331,99.5C 346.031,77.414 361.531,55.7474 377.5,34.5 Z M 377.5,36.5 C 411.759,43.268 440.925,59.268 465,84.5C 465.667,86.5 465.667,88.5 465,90.5C 456.667,108.5 448.333,126.5 440,144.5C 437.465,150.408 434.298,155.908 430.5,161C 425.193,163.075 420.193,162.409 415.5,159C 389.758,143.601 363.758,128.601 337.5,114C 331.826,108.948 330.992,103.114 335,96.5C 348.997,76.3431 363.164,56.3431 377.5,36.5 Z"/></g>
<g><path style="opacity:1" fill="#000000" d="M 309.5,142.5 C 361.028,141.552 395.528,165.219 413,213.5C 422.817,262.754 406.317,300.254 363.5,326C 318.191,345.472 278.691,337.305 245,301.5C 219.46,267.828 215.793,231.828 234,193.5C 251.059,164.395 276.226,147.395 309.5,142.5 Z M 309.5,144.5 C 350.62,142.306 381.787,158.639 403,193.5C 421.354,231.843 417.687,267.843 392,301.5C 357.64,336.304 318.14,343.47 273.5,323C 238.485,301.809 222.319,270.643 225,229.5C 233.346,181.321 261.512,152.988 309.5,144.5 Z"/></g>
<g><path style="opacity:1" fill="#000000" d="M 189.5,179.5 C 196.301,179.809 200.801,183.143 203,189.5C 203.667,222.833 203.667,256.167 203,289.5C 201.208,295.406 197.208,298.74 191,299.5C 165.108,297.222 139.274,294.555 113.5,291.5C 112.147,290.315 110.98,288.981 110,287.5C 101.046,255.032 101.38,222.699 111,190.5C 112.889,187.311 115.722,185.811 119.5,186C 143.015,184.153 166.348,181.986 189.5,179.5 Z M 189.5,181.5 C 195.402,181.24 199.235,183.907 201,189.5C 201.979,223.894 201.646,258.227 200,292.5C 197.832,295.629 194.832,297.296 191,297.5C 165.491,295.138 139.991,292.638 114.5,290C 111.525,284.955 109.692,279.455 109,273.5C 103.575,245.484 104.908,217.818 113,190.5C 114.826,188.926 116.993,188.093 119.5,188C 143.015,186.15 166.348,183.984 189.5,181.5 Z"/></g>
<g><path style="opacity:1" fill="#000000" d="M 445.5,179.5 C 472.244,181.617 498.91,184.284 525.5,187.5C 526.333,188.5 527.167,189.5 528,190.5C 537.615,222.699 537.948,255.032 529,287.5C 528.02,288.981 526.853,290.315 525.5,291.5C 499.568,294.585 473.568,297.252 447.5,299.5C 441.501,298.593 437.667,295.26 436,289.5C 435.333,256.167 435.333,222.833 436,189.5C 437.35,184.319 440.517,180.986 445.5,179.5 Z M 445.5,181.5 C 470.148,183.756 494.814,185.922 519.5,188C 522.007,188.093 524.174,188.926 526,190.5C 535.584,222.374 535.918,254.374 527,286.5C 526.535,287.931 525.701,289.097 524.5,290C 498.85,292.665 473.184,295.165 447.5,297.5C 443.843,297.226 441.01,295.56 439,292.5C 437.354,258.227 437.021,223.894 438,189.5C 439.353,185.65 441.853,182.983 445.5,181.5 Z"/></g>
<g><path style="opacity:1" fill="#000000" d="M 86.5,183.5 C 91.5351,183.868 94.2018,186.535 94.5,191.5C 89.0205,214.585 87.5205,237.919 90,261.5C 91.1789,270.227 92.6789,278.894 94.5,287.5C 94.4041,291.77 92.2375,294.436 88,295.5C 83.4766,293.308 81.1433,289.641 81,284.5C 74.7516,252.766 75.085,221.1 82,189.5C 83.332,187.34 84.832,185.34 86.5,183.5 Z M 86.5,185.5 C 90.7933,185.299 92.7933,187.299 92.5,191.5C 87.0205,214.585 85.5205,237.919 88,261.5C 89.1789,270.227 90.6789,278.894 92.5,287.5C 93.099,291.068 91.599,293.068 88,293.5C 86.7387,293.241 85.7387,292.574 85,291.5C 76.7192,257.927 76.3859,224.26 84,190.5C 84.3661,188.548 85.1995,186.882 86.5,185.5 Z"/></g>
<g><path style="opacity:1" fill="#000000" d="M 548.5,183.5 C 552.526,183.677 555.359,185.677 557,189.5C 564.63,223.601 564.297,257.601 556,291.5C 552.431,296.66 548.764,296.66 545,291.5C 544.833,290.167 544.667,288.833 544.5,287.5C 549.979,264.415 551.479,241.081 549,217.5C 547.821,208.773 546.321,200.106 544.5,191.5C 544.667,190.167 544.833,188.833 545,187.5C 546.376,186.295 547.542,184.962 548.5,183.5 Z M 548.5,185.5 C 550.722,185.178 552.556,185.845 554,187.5C 558.791,204.498 560.958,221.831 560.5,239.5C 560.958,257.169 558.791,274.502 554,291.5C 551.756,293.994 549.423,293.994 547,291.5C 546.833,290.167 546.667,288.833 546.5,287.5C 551.979,264.415 553.479,241.081 551,217.5C 549.821,208.773 548.321,200.106 546.5,191.5C 546.363,189.159 547.03,187.159 548.5,185.5 Z"/></g>
<g><path style="opacity:1" fill="#000000" d="M 211.5,314.5 C 215.813,314.548 219.813,315.715 223.5,318C 249.242,333.399 275.242,348.399 301.5,363C 307.903,366.961 309.903,372.461 307.5,379.5C 292.32,401.169 276.987,422.669 261.5,444C 253.526,444.015 245.859,442.348 238.5,439C 212.832,429.26 190.665,414.427 172,394.5C 171.333,392.5 171.333,390.5 172,388.5C 182.667,365.833 193.333,343.167 204,320.5C 206.134,317.847 208.634,315.847 211.5,314.5 Z M 211.5,316.5 C 215.813,316.548 219.813,317.715 223.5,320C 249.242,335.399 275.242,350.399 301.5,365C 306.081,368.438 307.581,372.938 306,378.5C 291.044,399.579 276.21,420.746 261.5,442C 227.193,435.706 198.026,419.873 174,394.5C 173.333,392.5 173.333,390.5 174,388.5C 184.667,365.833 195.333,343.167 206,320.5C 207.5,318.531 209.333,317.198 211.5,316.5 Z"/></g>
<g><path style="opacity:1" fill="#000000" d="M 422.5,314.5 C 427.825,314.107 431.991,316.107 435,320.5C 445.667,343.167 456.333,365.833 467,388.5C 467.667,390.5 467.667,392.5 467,394.5C 444.322,418.767 416.822,435.267 384.5,444C 381.084,444.893 377.917,444.393 375,442.5C 373.601,439.371 371.935,436.371 370,433.5C 357.579,415.657 344.912,397.99 332,380.5C 328.822,373.149 330.655,367.316 337.5,363C 365.928,346.792 394.261,330.626 422.5,314.5 Z M 422.5,316.5 C 426.676,316.168 430.176,317.502 433,320.5C 443.667,343.167 454.333,365.833 465,388.5C 465.667,390.5 465.667,392.5 465,394.5C 440.974,419.873 411.807,435.706 377.5,442C 362.79,420.746 347.956,399.579 333,378.5C 331.419,372.938 332.919,368.438 337.5,365C 365.928,348.792 394.261,332.626 422.5,316.5 Z"/></g>
<g><path style="opacity:1" fill="#000000" d="M 159.5,408.5 C 161.655,408.372 163.655,408.872 165.5,410C 188.93,433.047 216.597,449.047 248.5,458C 252.38,460.608 253.38,464.108 251.5,468.5C 250.148,469.896 248.481,470.563 246.5,470.5C 211.83,460.756 181.663,443.423 156,418.5C 155.009,416.553 154.675,414.553 155,412.5C 156.397,410.93 157.897,409.596 159.5,408.5 Z M 159.5,410.5 C 160.873,410.343 162.207,410.51 163.5,411C 188.342,434.474 217.175,451.308 250,461.5C 251.913,467.094 250.08,469.261 244.5,468C 212.125,458.403 183.625,442.236 159,419.5C 158.03,417.726 157.196,415.893 156.5,414C 157.071,412.401 158.071,411.234 159.5,410.5 Z"/></g>
<g><path style="opacity:1" fill="#000000" d="M 475.5,408.5 C 483.565,409.018 485.732,412.684 482,419.5C 456.613,443.702 426.946,460.702 393,470.5C 388.316,470.737 385.816,468.571 385.5,464C 386.79,461.708 388.457,459.708 390.5,458C 423.221,448.653 451.554,432.153 475.5,408.5 Z M 475.5,410.5 C 482.803,410.572 484.303,413.572 480,419.5C 455.606,441.956 427.439,458.123 395.5,468C 391.777,469.312 389.444,468.145 388.5,464.5C 388.39,462.626 389.056,461.126 390.5,460C 423.221,450.653 451.554,434.153 475.5,410.5 Z"/></g>
</svg>
