<?xml version="1.0" encoding="UTF-8"?>
<!-- 2026-03-10 13:20:16 Generated by QCAD 3.32.6 SVG Exporter -->
<svg  width="2179.1139mm" height="2278.2404mm" viewBox="23.6436 -2289.5781 2179.1139 2278.2404" version="1.1" xmlns="http://www.w3.org/2000/svg" style="stroke-linecap:round;stroke-linejoin:round;">
    <g transform="scale(1,-1)">
            <!-- Auto-generated fillable area -->
            <!-- Block Reference: 6 seater round table / entities: 14 -->
        <g>
            <!-- Block Reference: A$C2C166547 / entities: 30 -->
            <g>
                <!-- Arc -->
                <path d="M2155.9905,1545.1086 A317.3163,317.3163 0 0,1 2071.257,1513.1945" style="stroke:#000000;stroke-width:0.1;"/>
                <!-- Arc -->
                <path d="M2064.3412,1488.5517 A97.8312,97.8312 0 0,1 2059.5779,1575.23" style="stroke:#000000;stroke-width:0.1;"/>
                <!-- Arc -->
                <path d="M1952.7929,1760.1871 A97.8312,97.8312 0 0,1 1880.1089,1807.6514" style="stroke:#000000;stroke-width:0.1;"/>
                <!-- Arc -->
                <path d="M1904.9081,1801.3192 A317.3163,317.3163 0 0,1 1974.9133,1858.7436" style="stroke:#000000;stroke-width:0.1;"/>
                <!-- Polyline -->
                <path d="M1913.0717,1819.1964 A1154.41,1154.41 0 0 1 1586.0388,1647.9662" style="stroke:#000000;stroke-width:0.1;"/>
                <!-- Line -->
                <path d="M1607.0963,1651.6192 L1602.3,1659.9267 " style="stroke:#000000;stroke-width:0.1;"/>
                <!-- Line -->
                <path d="M1607.0963,1651.6192 L1598.7775,1657.3729 " style="stroke:#000000;stroke-width:0.1;"/>
                <!-- Line -->
                <path d="M1591.177,1640.39 L1607.0963,1651.6192 " style="stroke:#000000;stroke-width:0.1;"/>
                <!-- Arc -->
                <path d="M1591.177,1640.39 A12.0153,12.0153 0 0,1 1586.0388,1647.9662" style="stroke:#000000;stroke-width:0.1;"/>
                <!-- Arc -->
                <path d="M1779.0147,1313.722 A1154.4088,1154.4088 0 0,1 2090.8209,1511.3258" style="stroke:#000000;stroke-width:0.1;"/>
                <!-- Arc -->
                <path d="M1779.0147,1313.722 A12.0153,12.0153 0 0,1 1775.0227,1321.96" style="stroke:#000000;stroke-width:0.1;"/>
                <!-- Line -->
                <path d="M1775.0227,1321.96 L1792.7071,1330.1319 " style="stroke:#000000;stroke-width:0.1;"/>
                <!-- Line -->
                <path d="M1792.7071,1330.1319 L1793.5305,1320.0508 " style="stroke:#000000;stroke-width:0.1;"/>
                <!-- Line -->
                <path d="M1792.7071,1330.1319 L1797.5034,1321.8244 " style="stroke:#000000;stroke-width:0.1;"/>
                <!-- Line -->
                <path d="M2076.3873,1708.2396 L1984.6766,1867.0872 " style="stroke:#000000;stroke-width:0.1;"/>
                <!-- Line -->
                <path d="M2084.1875,1712.7431 L1992.3158,1871.8696 " style="stroke:#000000;stroke-width:0.1;"/>
                <!-- Line -->
                <path d="M2077.0964,1708.649 L1985.3857,1867.4966 " style="stroke:#000000;stroke-width:0.1;"/>
                <!-- Line -->
                <path d="M2006.1854,1667.7085 L1952.7929,1760.1871 " style="stroke:#000000;stroke-width:0.1;"/>
                <!-- Arc -->
                <path d="M1984.6766,1867.0872 A0.4331,0.4331 0 0,1 1983.9788,1867.3344" style="stroke:#000000;stroke-width:0.1;"/>
                <!-- Arc -->
                <path d="M1985.4189,1867.4391 A0.7251,0.7251 0 0,1 1984.2403,1867.5954" style="stroke:#000000;stroke-width:0.1;"/>
                <!-- Arc -->
                <path d="M1992.3158,1871.8696 A2.4177,2.4177 0 0,1 1988.5844,1871.8136" style="stroke:#000000;stroke-width:0.1;"/>
                <!-- Arc -->
                <path d="M1915.5102,1820.1566 A240.8687,240.8687 0 0,1 1988.5844,1871.8136" style="stroke:#000000;stroke-width:0.1;"/>
                <!-- Line -->
                <path d="M2006.1854,1667.7085 L2059.5779,1575.23 " style="stroke:#000000;stroke-width:0.1;"/>
                <!-- Arc -->
                <path d="M2174.1451,1550.413 A240.8687,240.8687 0 0,1 2092.8717,1512.9575" style="stroke:#000000;stroke-width:0.1;"/>
                <!-- Line -->
                <path d="M2077.0964,1708.649 L2168.8071,1549.8015 " style="stroke:#000000;stroke-width:0.1;"/>
                <!-- Line -->
                <path d="M2084.1875,1712.7431 L2176.0593,1553.6166 " style="stroke:#000000;stroke-width:0.1;"/>
                <!-- Arc -->
                <path d="M2174.1451,1550.413 A2.4177,2.4177 0 0,1 2176.0593,1553.6166" style="stroke:#000000;stroke-width:0.1;"/>
                <!-- Arc -->
                <path d="M2168.3199,1548.7601 A0.7251,0.7251 0 0,1 2168.7739,1549.859" style="stroke:#000000;stroke-width:0.1;"/>
                <!-- Line -->
                <path d="M2076.3873,1708.2396 L2168.098,1549.3921 " style="stroke:#000000;stroke-width:0.1;"/>
                <!-- Arc -->
                <path d="M2167.9632,1548.6641 A0.4331,0.4331 0 0,1 2168.098,1549.3921" style="stroke:#000000;stroke-width:0.1;"/>
            </g>
            <!-- Polyline -->
            <path d="M2188.0512,1528.6328 A216.619,216.619 0 0 1 2107.581,1493.2397 A1180.69,1180.69 0 0 0 1788.6774,1291.138 A22.2032,22.2032 0 0 0 1779.0007,1313.7548 A12.0328,12.0328 0 0 1 1775.0029,1322.0048 A480.879,480.879 0 0 0 1744.8593,1367.0332 L1679.8366,1479.6557 L1614.814,1592.2782 A480.879,480.879 0 0 0 1590.8901,1640.8975 A12.0328,12.0328 0 0 1 1585.7443,1648.4847 A22.2032,22.2032 0 0 0 1570.9959,1668.1733 A1180.69,1180.69 0 0 0 1905.4729,1843.3011 A216.619,216.619 0 0 1 1976.3594,1895.2938 A12.6008,12.6008 0 0 0 1998.3646,1895.5491 L2199.2749,1547.5623 A12.6008,12.6008 0 0 0 2188.0512,1528.6328 Z" style="stroke:#000000;stroke-width:0.1;"/>
            <!-- Block Reference: A$C2C166547 / entities: 30 -->
            <g>
                <!-- Arc -->
                <path d="M250.028,1856.2151 A317.3163,317.3163 0 0,1 320.0332,1798.7908" style="stroke:#000000;stroke-width:0.1;"/>
                <!-- Arc -->
                <path d="M344.8324,1805.123 A97.8312,97.8312 0 0,1 272.1484,1757.6587" style="stroke:#000000;stroke-width:0.1;"/>
                <!-- Arc -->
                <path d="M165.3633,1572.7016 A97.8312,97.8312 0 0,1 160.6,1486.0232" style="stroke:#000000;stroke-width:0.1;"/>
                <!-- Arc -->
                <path d="M153.6843,1510.6661 A317.3163,317.3163 0 0,1 68.9507,1542.5802" style="stroke:#000000;stroke-width:0.1;"/>
                <!-- Polyline -->
                <path d="M134.1204,1508.7974 A1154.41,1154.41 0 0 1 445.9265,1311.1936" style="stroke:#000000;stroke-width:0.1;"/>
                <!-- Line -->
                <path d="M432.2342,1327.6035 L427.4378,1319.296 " style="stroke:#000000;stroke-width:0.1;"/>
                <!-- Line -->
                <path d="M432.2342,1327.6035 L431.4107,1317.5223 " style="stroke:#000000;stroke-width:0.1;"/>
                <!-- Line -->
                <path d="M449.9186,1319.4316 L432.2342,1327.6035 " style="stroke:#000000;stroke-width:0.1;"/>
                <!-- Arc -->
                <path d="M449.9186,1319.4316 A12.0153,12.0153 0 0,1 445.9265,1311.1936" style="stroke:#000000;stroke-width:0.1;"/>
                <!-- Arc -->
                <path d="M638.9025,1645.4378 A1154.4088,1154.4088 0 0,1 311.8696,1816.668" style="stroke:#000000;stroke-width:0.1;"/>
                <!-- Arc -->
                <path d="M638.9025,1645.4378 A12.0153,12.0153 0 0,1 633.7643,1637.8616" style="stroke:#000000;stroke-width:0.1;"/>
                <!-- Line -->
                <path d="M633.7643,1637.8616 L617.8449,1649.0908 " style="stroke:#000000;stroke-width:0.1;"/>
                <!-- Line -->
                <path d="M617.8449,1649.0908 L626.1638,1654.8445 " style="stroke:#000000;stroke-width:0.1;"/>
                <!-- Line -->
                <path d="M617.8449,1649.0908 L622.6413,1657.3983 " style="stroke:#000000;stroke-width:0.1;"/>
                <!-- Line -->
                <path d="M148.5539,1705.7112 L56.8432,1546.8636 " style="stroke:#000000;stroke-width:0.1;"/>
                <!-- Line -->
                <path d="M140.7537,1710.2147 L48.882,1551.0882 " style="stroke:#000000;stroke-width:0.1;"/>
                <!-- Line -->
                <path d="M147.8448,1706.1206 L56.1341,1547.2731 " style="stroke:#000000;stroke-width:0.1;"/>
                <!-- Line -->
                <path d="M218.7559,1665.1801 L165.3633,1572.7016 " style="stroke:#000000;stroke-width:0.1;"/>
                <!-- Arc -->
                <path d="M56.8432,1546.8636 A0.4331,0.4331 0 0,1 56.9781,1546.1357" style="stroke:#000000;stroke-width:0.1;"/>
                <!-- Arc -->
                <path d="M56.1673,1547.3305 A0.7251,0.7251 0 0,1 56.6213,1546.2317" style="stroke:#000000;stroke-width:0.1;"/>
                <!-- Arc -->
                <path d="M48.882,1551.0882 A2.4177,2.4177 0 0,1 50.7962,1547.8846" style="stroke:#000000;stroke-width:0.1;"/>
                <!-- Arc -->
                <path d="M132.0696,1510.429 A240.8687,240.8687 0 0,1 50.7962,1547.8846" style="stroke:#000000;stroke-width:0.1;"/>
                <!-- Line -->
                <path d="M218.7559,1665.1801 L272.1484,1757.6587 " style="stroke:#000000;stroke-width:0.1;"/>
                <!-- Arc -->
                <path d="M236.3569,1869.2852 A240.8687,240.8687 0 0,1 309.4311,1817.6282" style="stroke:#000000;stroke-width:0.1;"/>
                <!-- Line -->
                <path d="M147.8448,1706.1206 L239.5555,1864.9682 " style="stroke:#000000;stroke-width:0.1;"/>
                <!-- Line -->
                <path d="M140.7537,1710.2147 L232.6255,1869.3412 " style="stroke:#000000;stroke-width:0.1;"/>
                <!-- Arc -->
                <path d="M236.3569,1869.2852 A2.4177,2.4177 0 0,1 232.6255,1869.3412" style="stroke:#000000;stroke-width:0.1;"/>
                <!-- Arc -->
                <path d="M240.701,1865.067 A0.7251,0.7251 0 0,1 239.5223,1864.9107" style="stroke:#000000;stroke-width:0.1;"/>
                <!-- Line -->
                <path d="M148.5539,1705.7112 L240.2646,1864.5588 " style="stroke:#000000;stroke-width:0.1;"/>
                <!-- Arc -->
                <path d="M240.9625,1864.806 A0.4331,0.4331 0 0,1 240.2646,1864.5588" style="stroke:#000000;stroke-width:0.1;"/>
            </g>
            <!-- Polyline -->
            <path d="M248.2661,1892.2184 A216.619,216.619 0 0 1 319.1525,1840.2257 A1180.69,1180.69 0 0 0 653.6296,1665.0979 A22.2032,22.2032 0 0 0 638.8811,1645.4093 A12.0328,12.0328 0 0 1 633.7354,1637.8221 A480.879,480.879 0 0 0 609.8114,1589.2027 L544.7888,1476.5802 L479.7662,1363.9577 A480.879,480.879 0 0 0 449.6226,1318.9293 A12.0328,12.0328 0 0 1 445.6247,1310.6794 A22.2032,22.2032 0 0 0 435.9481,1288.0625 A1180.69,1180.69 0 0 0 117.0444,1490.1643 A216.619,216.619 0 0 1 36.5742,1525.5574 A12.6008,12.6008 0 0 0 25.3506,1544.4868 L226.2609,1892.4736 A12.6008,12.6008 0 0 0 248.2661,1892.2184 Z" style="stroke:#000000;stroke-width:0.1;"/>
            <!-- Polyline -->
            <path d="M1323.1167,2270.3933 A216.619,216.619 0 0 1 1313.533,2183.0075 A1180.69,1180.69 0 0 0 1329.1064,1805.778 A22.2032,22.2032 0 0 0 1304.6813,1808.7062 A12.0328,12.0328 0 0 1 1295.5377,1809.3689 A480.879,480.879 0 0 0 1241.4702,1805.778 L1111.4249,1805.778 L981.3797,1805.778 A480.879,480.879 0 0 0 927.3121,1809.3689 A12.0328,12.0328 0 0 1 918.1685,1808.7062 A22.2032,22.2032 0 0 0 893.7434,1805.778 A1180.69,1180.69 0 0 0 909.3169,2183.0075 A216.619,216.619 0 0 1 899.7331,2270.3933 A12.6008,12.6008 0 0 0 910.5146,2289.578 L1312.3352,2289.578 A12.6008,12.6008 0 0 0 1323.1167,2270.3933 Z" style="stroke:#000000;stroke-width:0.1;"/>
            <!-- Block Reference: A$C2C166547 / entities: 30 -->
            <g>
                <!-- Arc -->
                <path d="M1292.818,2250.8659 A317.3163,317.3163 0 0,1 1278.0896,2161.5274" style="stroke:#000000;stroke-width:0.1;"/>
                <!-- Arc -->
                <path d="M1295.9731,2143.2168 A97.8312,97.8312 0 0,1 1218.5258,2182.4308" style="stroke:#000000;stroke-width:0.1;"/>
                <!-- Arc -->
                <path d="M1004.9557,2182.4308 A97.8312,97.8312 0 0,1 927.5084,2143.2168" style="stroke:#000000;stroke-width:0.1;"/>
                <!-- Arc -->
                <path d="M945.3919,2161.5274 A317.3163,317.3163 0 0,1 930.6635,2250.8659" style="stroke:#000000;stroke-width:0.1;"/>
                <!-- Polyline -->
                <path d="M933.9916,2177.5359 A1154.41,1154.41 0 0 1 918.7647,1808.702" style="stroke:#000000;stroke-width:0.1;"/>
                <!-- Line -->
                <path d="M926.13,1828.7648 L916.5373,1828.7648 " style="stroke:#000000;stroke-width:0.1;"/>
                <!-- Line -->
                <path d="M926.13,1828.7648 L916.9877,1824.4374 " style="stroke:#000000;stroke-width:0.1;"/>
                <!-- Line -->
                <path d="M927.8951,1809.3637 L926.13,1828.7648 " style="stroke:#000000;stroke-width:0.1;"/>
                <!-- Arc -->
                <path d="M927.8951,1809.3637 A12.0153,12.0153 0 0,1 918.7647,1808.702" style="stroke:#000000;stroke-width:0.1;"/>
                <!-- Arc -->
                <path d="M1304.7167,1808.702 A1154.4088,1154.4088 0 0,1 1289.4899,2177.5359" style="stroke:#000000;stroke-width:0.1;"/>
                <!-- Arc -->
                <path d="M1304.7167,1808.702 A12.0153,12.0153 0 0,1 1295.5864,1809.3637" style="stroke:#000000;stroke-width:0.1;"/>
                <!-- Line -->
                <path d="M1295.5864,1809.3637 L1297.3515,1828.7648 " style="stroke:#000000;stroke-width:0.1;"/>
                <!-- Line -->
                <path d="M1297.3515,1828.7648 L1306.4938,1824.4374 " style="stroke:#000000;stroke-width:0.1;"/>
                <!-- Line -->
                <path d="M1297.3515,1828.7648 L1306.9442,1828.7648 " style="stroke:#000000;stroke-width:0.1;"/>
                <!-- Line -->
                <path d="M1111.7407,2263.493 L928.3194,2263.493 " style="stroke:#000000;stroke-width:0.1;"/>
                <!-- Line -->
                <path d="M1111.7407,2272.4999 L927.9973,2272.4999 " style="stroke:#000000;stroke-width:0.1;"/>
                <!-- Line -->
                <path d="M1111.7407,2264.3118 L928.3194,2264.3118 " style="stroke:#000000;stroke-width:0.1;"/>
                <!-- Line -->
                <path d="M1111.7407,2182.4308 L1004.9557,2182.4308 " style="stroke:#000000;stroke-width:0.1;"/>
                <!-- Arc -->
                <path d="M928.3194,2263.493 A0.4331,0.4331 0 0,1 927.7564,2263.0122" style="stroke:#000000;stroke-width:0.1;"/>
                <!-- Arc -->
                <path d="M928.3857,2264.3118 A0.7251,0.7251 0 0,1 927.6611,2263.3692" style="stroke:#000000;stroke-width:0.1;"/>
                <!-- Arc -->
                <path d="M927.9973,2272.4999 A2.4177,2.4177 0 0,1 926.18,2269.2404" style="stroke:#000000;stroke-width:0.1;"/>
                <!-- Arc -->
                <path d="M934.3792,2180.1278 A240.8687,240.8687 0 0,1 926.18,2269.2404" style="stroke:#000000;stroke-width:0.1;"/>
                <!-- Line -->
                <path d="M1111.7407,2182.4308 L1218.5258,2182.4308 " style="stroke:#000000;stroke-width:0.1;"/>
                <!-- Arc -->
                <path d="M1297.3015,2269.2404 A240.8687,240.8687 0 0,1 1289.1022,2180.1278" style="stroke:#000000;stroke-width:0.1;"/>
                <!-- Line -->
                <path d="M1111.7407,2264.3118 L1295.1621,2264.3118 " style="stroke:#000000;stroke-width:0.1;"/>
                <!-- Line -->
                <path d="M1111.7407,2272.4999 L1295.4842,2272.4999 " style="stroke:#000000;stroke-width:0.1;"/>
                <!-- Arc -->
                <path d="M1297.3015,2269.2404 A2.4177,2.4177 0 0,1 1295.4842,2272.4999" style="stroke:#000000;stroke-width:0.1;"/>
                <!-- Arc -->
                <path d="M1295.8204,2263.3692 A0.7251,0.7251 0 0,1 1295.0957,2264.3118" style="stroke:#000000;stroke-width:0.1;"/>
                <!-- Line -->
                <path d="M1111.7407,2263.493 L1295.1621,2263.493 " style="stroke:#000000;stroke-width:0.1;"/>
                <!-- Arc -->
                <path d="M1295.7251,2263.0122 A0.4331,0.4331 0 0,1 1295.1621,2263.493" style="stroke:#000000;stroke-width:0.1;"/>
            </g>
            <!-- Block Reference: A$C2C166547 / entities: 30 -->
            <g>
                <!-- Arc -->
                <path d="M933.5831,50.0499 A317.3163,317.3163 0 0,1 948.3114,139.3883" style="stroke:#000000;stroke-width:0.1;"/>
                <!-- Arc -->
                <path d="M930.428,157.699 A97.8312,97.8312 0 0,1 1007.8753,118.485" style="stroke:#000000;stroke-width:0.1;"/>
                <!-- Arc -->
                <path d="M1221.4453,118.485 A97.8312,97.8312 0 0,1 1298.8926,157.699" style="stroke:#000000;stroke-width:0.1;"/>
                <!-- Arc -->
                <path d="M1281.0092,139.3883 A317.3163,317.3163 0 0,1 1295.7375,50.0499" style="stroke:#000000;stroke-width:0.1;"/>
                <!-- Polyline -->
                <path d="M1292.4095,123.3798 A1154.41,1154.41 0 0 1 1307.6363,492.2138" style="stroke:#000000;stroke-width:0.1;"/>
                <!-- Line -->
                <path d="M1300.271,472.1509 L1309.8638,472.1509 " style="stroke:#000000;stroke-width:0.1;"/>
                <!-- Line -->
                <path d="M1300.271,472.1509 L1309.4133,476.4784 " style="stroke:#000000;stroke-width:0.1;"/>
                <!-- Line -->
                <path d="M1298.506,491.552 L1300.271,472.1509 " style="stroke:#000000;stroke-width:0.1;"/>
                <!-- Arc -->
                <path d="M1298.506,491.552 A12.0153,12.0153 0 0,1 1307.6363,492.2138" style="stroke:#000000;stroke-width:0.1;"/>
                <!-- Arc -->
                <path d="M921.6843,492.2138 A1154.4088,1154.4088 0 0,1 936.9111,123.3798" style="stroke:#000000;stroke-width:0.1;"/>
                <!-- Arc -->
                <path d="M921.6843,492.2138 A12.0153,12.0153 0 0,1 930.8146,491.552" style="stroke:#000000;stroke-width:0.1;"/>
                <!-- Line -->
                <path d="M930.8146,491.552 L929.0496,472.1509 " style="stroke:#000000;stroke-width:0.1;"/>
                <!-- Line -->
                <path d="M929.0496,472.1509 L919.9073,476.4784 " style="stroke:#000000;stroke-width:0.1;"/>
                <!-- Line -->
                <path d="M929.0496,472.1509 L919.4568,472.1509 " style="stroke:#000000;stroke-width:0.1;"/>
                <!-- Line -->
                <path d="M1114.6603,37.4227 L1298.0817,37.4227 " style="stroke:#000000;stroke-width:0.1;"/>
                <!-- Line -->
                <path d="M1114.6603,28.4158 L1298.4038,28.4158 " style="stroke:#000000;stroke-width:0.1;"/>
                <!-- Line -->
                <path d="M1114.6603,36.6039 L1298.0817,36.6039 " style="stroke:#000000;stroke-width:0.1;"/>
                <!-- Line -->
                <path d="M1114.6603,118.485 L1221.4453,118.485 " style="stroke:#000000;stroke-width:0.1;"/>
                <!-- Arc -->
                <path d="M1298.0817,37.4227 A0.4331,0.4331 0 0,1 1298.6447,37.9035" style="stroke:#000000;stroke-width:0.1;"/>
                <!-- Arc -->
                <path d="M1298.0153,36.6039 A0.7251,0.7251 0 0,1 1298.74,37.5466" style="stroke:#000000;stroke-width:0.1;"/>
                <!-- Arc -->
                <path d="M1298.4038,28.4158 A2.4177,2.4177 0 0,1 1300.221,31.6753" style="stroke:#000000;stroke-width:0.1;"/>
                <!-- Arc -->
                <path d="M1292.0218,120.788 A240.8687,240.8687 0 0,1 1300.221,31.6753" style="stroke:#000000;stroke-width:0.1;"/>
                <!-- Line -->
                <path d="M1114.6603,118.485 L1007.8753,118.485 " style="stroke:#000000;stroke-width:0.1;"/>
                <!-- Arc -->
                <path d="M929.0996,31.6753 A240.8687,240.8687 0 0,1 937.2988,120.788" style="stroke:#000000;stroke-width:0.1;"/>
                <!-- Line -->
                <path d="M1114.6603,36.6039 L931.2389,36.6039 " style="stroke:#000000;stroke-width:0.1;"/>
                <!-- Line -->
                <path d="M1114.6603,28.4158 L930.9168,28.4158 " style="stroke:#000000;stroke-width:0.1;"/>
                <!-- Arc -->
                <path d="M929.0996,31.6753 A2.4177,2.4177 0 0,1 930.9168,28.4158" style="stroke:#000000;stroke-width:0.1;"/>
                <!-- Arc -->
                <path d="M930.5806,37.5466 A0.7251,0.7251 0 0,1 931.3053,36.6039" style="stroke:#000000;stroke-width:0.1;"/>
                <!-- Line -->
                <path d="M1114.6603,37.4227 L931.2389,37.4227 " style="stroke:#000000;stroke-width:0.1;"/>
                <!-- Arc -->
                <path d="M930.6759,37.9035 A0.4331,0.4331 0 0,1 931.2389,37.4227" style="stroke:#000000;stroke-width:0.1;"/>
            </g>
            <!-- Polyline -->
            <path d="M903.2843,30.5224 A216.619,216.619 0 0 1 912.8681,117.9082 A1180.69,1180.69 0 0 0 897.2946,495.1377 A22.2032,22.2032 0 0 0 921.7197,492.2095 A12.0328,12.0328 0 0 1 930.8633,491.5468 A480.879,480.879 0 0 0 984.9308,495.1377 L1114.9761,495.1377 L1245.0214,495.1377 A480.879,480.879 0 0 0 1299.0889,491.5468 A12.0328,12.0328 0 0 1 1308.2325,492.2095 A22.2032,22.2032 0 0 0 1332.6576,495.1377 A1180.69,1180.69 0 0 0 1317.0842,117.9082 A216.619,216.619 0 0 1 1326.6679,30.5224 A12.6008,12.6008 0 0 0 1315.8864,11.3377 L914.0658,11.3377 A12.6008,12.6008 0 0 0 903.2843,30.5224 Z" style="stroke:#000000;stroke-width:0.1;"/>
            <!-- Circle -->
            <circle cx="1113.200519622078" cy="1150.4578678065945" r="605" style="stroke:#000000;stroke-width:0.1;"/>
            <!-- Circle -->
            <circle cx="1113.200519622078" cy="1150.4578678065945" r="625" style="stroke:#000000;stroke-width:0.1;"/>
            <!-- Block Reference: A$C2C166547 / entities: 30 -->
            <g>
                <!-- Arc -->
                <path d="M70.4105,755.8072 A317.3163,317.3163 0 0,1 155.1441,787.7213" style="stroke:#000000;stroke-width:0.1;"/>
                <!-- Arc -->
                <path d="M162.0598,812.3641 A97.8312,97.8312 0 0,1 166.8231,725.6858" style="stroke:#000000;stroke-width:0.1;"/>
                <!-- Arc -->
                <path d="M273.6082,540.7286 A97.8312,97.8312 0 0,1 346.2921,493.2643" style="stroke:#000000;stroke-width:0.1;"/>
                <!-- Arc -->
                <path d="M321.493,499.5965 A317.3163,317.3163 0 0,1 251.4878,442.1722" style="stroke:#000000;stroke-width:0.1;"/>
                <!-- Polyline -->
                <path d="M313.3293,481.7194 A1154.41,1154.41 0 0 1 640.3623,652.9495" style="stroke:#000000;stroke-width:0.1;"/>
                <!-- Line -->
                <path d="M619.3047,649.2966 L624.1011,640.989 " style="stroke:#000000;stroke-width:0.1;"/>
                <!-- Line -->
                <path d="M619.3047,649.2966 L627.6235,643.5428 " style="stroke:#000000;stroke-width:0.1;"/>
                <!-- Line -->
                <path d="M635.224,660.5257 L619.3047,649.2966 " style="stroke:#000000;stroke-width:0.1;"/>
                <!-- Arc -->
                <path d="M635.224,660.5257 A12.0153,12.0153 0 0,1 640.3623,652.9495" style="stroke:#000000;stroke-width:0.1;"/>
                <!-- Arc -->
                <path d="M447.3863,987.1937 A1154.4088,1154.4088 0 0,1 135.5802,789.5899" style="stroke:#000000;stroke-width:0.1;"/>
                <!-- Arc -->
                <path d="M447.3863,987.1937 A12.0153,12.0153 0 0,1 451.3783,978.9558" style="stroke:#000000;stroke-width:0.1;"/>
                <!-- Line -->
                <path d="M451.3783,978.9558 L433.694,970.7838 " style="stroke:#000000;stroke-width:0.1;"/>
                <!-- Line -->
                <path d="M433.694,970.7838 L432.8705,980.865 " style="stroke:#000000;stroke-width:0.1;"/>
                <!-- Line -->
                <path d="M433.694,970.7838 L428.8976,979.0913 " style="stroke:#000000;stroke-width:0.1;"/>
                <!-- Line -->
                <path d="M150.0137,592.6761 L241.7244,433.8285 " style="stroke:#000000;stroke-width:0.1;"/>
                <!-- Line -->
                <path d="M142.2135,588.1726 L234.0852,429.0461 " style="stroke:#000000;stroke-width:0.1;"/>
                <!-- Line -->
                <path d="M149.3046,592.2667 L241.0153,433.4191 " style="stroke:#000000;stroke-width:0.1;"/>
                <!-- Line -->
                <path d="M220.2157,633.2072 L273.6082,540.7286 " style="stroke:#000000;stroke-width:0.1;"/>
                <!-- Arc -->
                <path d="M241.7244,433.8285 A0.4331,0.4331 0 0,1 242.4223,433.5813" style="stroke:#000000;stroke-width:0.1;"/>
                <!-- Arc -->
                <path d="M240.9821,433.4766 A0.7251,0.7251 0 0,1 242.1608,433.3203" style="stroke:#000000;stroke-width:0.1;"/>
                <!-- Arc -->
                <path d="M234.0852,429.0461 A2.4177,2.4177 0 0,1 237.8167,429.1021" style="stroke:#000000;stroke-width:0.1;"/>
                <!-- Arc -->
                <path d="M310.8909,480.7591 A240.8687,240.8687 0 0,1 237.8167,429.1021" style="stroke:#000000;stroke-width:0.1;"/>
                <!-- Line -->
                <path d="M220.2157,633.2072 L166.8231,725.6858 " style="stroke:#000000;stroke-width:0.1;"/>
                <!-- Arc -->
                <path d="M52.256,750.5027 A240.8687,240.8687 0 0,1 133.5294,787.9583" style="stroke:#000000;stroke-width:0.1;"/>
                <!-- Line -->
                <path d="M149.3046,592.2667 L57.5939,751.1143 " style="stroke:#000000;stroke-width:0.1;"/>
                <!-- Line -->
                <path d="M142.2135,588.1726 L50.3418,747.2992 " style="stroke:#000000;stroke-width:0.1;"/>
                <!-- Arc -->
                <path d="M52.256,750.5027 A2.4177,2.4177 0 0,1 50.3418,747.2992" style="stroke:#000000;stroke-width:0.1;"/>
                <!-- Arc -->
                <path d="M58.0811,752.1557 A0.7251,0.7251 0 0,1 57.6271,751.0568" style="stroke:#000000;stroke-width:0.1;"/>
                <!-- Line -->
                <path d="M150.0137,592.6761 L58.303,751.5237 " style="stroke:#000000;stroke-width:0.1;"/>
                <!-- Arc -->
                <path d="M58.4379,752.2516 A0.4331,0.4331 0 0,1 58.303,751.5237" style="stroke:#000000;stroke-width:0.1;"/>
            </g>
            <!-- Polyline -->
            <path d="M38.3498,772.2829 A216.619,216.619 0 0 1 118.82,807.676 A1180.69,1180.69 0 0 0 437.7237,1009.7778 A22.2032,22.2032 0 0 0 447.4003,987.1609 A12.0328,12.0328 0 0 1 451.3982,978.911 A480.879,480.879 0 0 0 481.5418,933.8826 L546.5644,821.2601 L611.587,708.6376 A480.879,480.879 0 0 0 635.511,660.0183 A12.0328,12.0328 0 0 1 640.6567,652.431 A22.2032,22.2032 0 0 0 655.4051,632.7424 A1180.69,1180.69 0 0 0 320.9281,457.6146 A216.619,216.619 0 0 1 250.0417,405.6219 A12.6008,12.6008 0 0 0 228.0365,405.3667 L27.1262,753.3535 A12.6008,12.6008 0 0 0 38.3498,772.2829 Z" style="stroke:#000000;stroke-width:0.1;"/>
            <!-- Block Reference: A$C2C166547 / entities: 30 -->
            <g>
                <!-- Arc -->
                <path d="M1976.3731,444.7006 A317.3163,317.3163 0 0,1 1906.3679,502.125" style="stroke:#000000;stroke-width:0.1;"/>
                <!-- Arc -->
                <path d="M1881.5687,495.7927 A97.8312,97.8312 0 0,1 1954.2526,543.2571" style="stroke:#000000;stroke-width:0.1;"/>
                <!-- Arc -->
                <path d="M2061.0377,728.2142 A97.8312,97.8312 0 0,1 2065.801,814.8925" style="stroke:#000000;stroke-width:0.1;"/>
                <!-- Arc -->
                <path d="M2072.7167,790.2497 A317.3163,317.3163 0 0,1 2157.4503,758.3356" style="stroke:#000000;stroke-width:0.1;"/>
                <!-- Polyline -->
                <path d="M2092.2807,792.1184 A1154.41,1154.41 0 0 1 1780.4745,989.7221" style="stroke:#000000;stroke-width:0.1;"/>
                <!-- Line -->
                <path d="M1794.1668,973.3122 L1798.9632,981.6198 " style="stroke:#000000;stroke-width:0.1;"/>
                <!-- Line -->
                <path d="M1794.1668,973.3122 L1794.9903,983.3934 " style="stroke:#000000;stroke-width:0.1;"/>
                <!-- Line -->
                <path d="M1776.4825,981.4842 L1794.1668,973.3122 " style="stroke:#000000;stroke-width:0.1;"/>
                <!-- Arc -->
                <path d="M1776.4825,981.4842 A12.0153,12.0153 0 0,1 1780.4745,989.7221" style="stroke:#000000;stroke-width:0.1;"/>
                <!-- Arc -->
                <path d="M1587.4985,655.4779 A1154.4088,1154.4088 0 0,1 1914.5315,484.2478" style="stroke:#000000;stroke-width:0.1;"/>
                <!-- Arc -->
                <path d="M1587.4985,655.4779 A12.0153,12.0153 0 0,1 1592.6368,663.0541" style="stroke:#000000;stroke-width:0.1;"/>
                <!-- Line -->
                <path d="M1592.6368,663.0541 L1608.5561,651.825 " style="stroke:#000000;stroke-width:0.1;"/>
                <!-- Line -->
                <path d="M1608.5561,651.825 L1600.2373,646.0712 " style="stroke:#000000;stroke-width:0.1;"/>
                <!-- Line -->
                <path d="M1608.5561,651.825 L1603.7597,643.5174 " style="stroke:#000000;stroke-width:0.1;"/>
                <!-- Line -->
                <path d="M2077.8471,595.2045 L2169.5578,754.0521 " style="stroke:#000000;stroke-width:0.1;"/>
                <!-- Line -->
                <path d="M2085.6473,590.7011 L2177.5191,749.8276 " style="stroke:#000000;stroke-width:0.1;"/>
                <!-- Line -->
                <path d="M2078.5562,594.7951 L2170.2669,753.6427 " style="stroke:#000000;stroke-width:0.1;"/>
                <!-- Line -->
                <path d="M2007.6452,635.7356 L2061.0377,728.2142 " style="stroke:#000000;stroke-width:0.1;"/>
                <!-- Arc -->
                <path d="M2169.5578,754.0521 A0.4331,0.4331 0 0,1 2169.4229,754.78" style="stroke:#000000;stroke-width:0.1;"/>
                <!-- Arc -->
                <path d="M2170.2337,753.5852 A0.7251,0.7251 0 0,1 2169.7797,754.6841" style="stroke:#000000;stroke-width:0.1;"/>
                <!-- Arc -->
                <path d="M2177.5191,749.8276 A2.4177,2.4177 0 0,1 2175.6049,753.0311" style="stroke:#000000;stroke-width:0.1;"/>
                <!-- Arc -->
                <path d="M2094.3315,790.4867 A240.8687,240.8687 0 0,1 2175.6049,753.0311" style="stroke:#000000;stroke-width:0.1;"/>
                <!-- Line -->
                <path d="M2007.6452,635.7356 L1954.2526,543.2571 " style="stroke:#000000;stroke-width:0.1;"/>
                <!-- Arc -->
                <path d="M1990.0441,431.6305 A240.8687,240.8687 0 0,1 1916.9699,483.2876" style="stroke:#000000;stroke-width:0.1;"/>
                <!-- Line -->
                <path d="M2078.5562,594.7951 L1986.8455,435.9475 " style="stroke:#000000;stroke-width:0.1;"/>
                <!-- Line -->
                <path d="M2085.6473,590.7011 L1993.7756,431.5745 " style="stroke:#000000;stroke-width:0.1;"/>
                <!-- Arc -->
                <path d="M1990.0441,431.6305 A2.4177,2.4177 0 0,1 1993.7756,431.5745" style="stroke:#000000;stroke-width:0.1;"/>
                <!-- Arc -->
                <path d="M1985.7001,435.8488 A0.7251,0.7251 0 0,1 1986.8787,436.005" style="stroke:#000000;stroke-width:0.1;"/>
                <!-- Line -->
                <path d="M2077.8471,595.2045 L1986.1364,436.3569 " style="stroke:#000000;stroke-width:0.1;"/>
                <!-- Arc -->
                <path d="M1985.4386,436.1097 A0.4331,0.4331 0 0,1 1986.1364,436.3569" style="stroke:#000000;stroke-width:0.1;"/>
            </g>
            <!-- Polyline -->
            <path d="M1978.135,408.6973 A216.619,216.619 0 0 1 1907.2485,460.69 A1180.69,1180.69 0 0 0 1572.7715,635.8178 A22.2032,22.2032 0 0 0 1587.5199,655.5065 A12.0328,12.0328 0 0 1 1592.6657,663.0937 A480.879,480.879 0 0 0 1616.5896,711.713 L1681.6122,824.3355 L1746.6349,936.958 A480.879,480.879 0 0 0 1776.7785,981.9864 A12.0328,12.0328 0 0 1 1780.7763,990.2363 A22.2032,22.2032 0 0 0 1790.453,1012.8532 A1180.69,1180.69 0 0 0 2109.3566,810.7515 A216.619,216.619 0 0 1 2189.8268,775.3583 A12.6008,12.6008 0 0 0 2201.0505,756.4289 L2000.1402,408.4421 A12.6008,12.6008 0 0 0 1978.135,408.6973 Z" style="stroke:#000000;stroke-width:0.1;"/>
        </g>
    </g>
</svg>

