<?xml version="1.0" encoding="UTF-8"?>
<!-- 2026-03-10 12:07:31 Generated by QCAD 3.32.6 SVG Exporter -->
<svg  width="2557.0915mm" height="2557.0915mm" viewBox="10.7111 -2551.5686 2557.0915 2557.0915" version="1.1" xmlns="http://www.w3.org/2000/svg" style="stroke-linecap:round;stroke-linejoin:round;">
    <g transform="scale(1,-1)">
            <!-- Auto-generated fillable area -->
            <path id="auto-fill" fill="inherit" stroke="none" d="M1053.4006,23.4676 A973.9175,973.9175 0 0 1 1525.113,23.4676 A30,30 0 0 1 1547.0205,45.5778 A30,30 0 0 1 1509.5193,72.7133 A873.9175,873.9175 0 0 0 1068.9943,72.7133 A30,30 0 0 1 1031.4931,45.5778 A30,30 0 0 1 1053.4006,23.4676 Z"/>
            <path id="auto-fill" fill="inherit" stroke="none" d="M1053.4006,23.4676 A973.9175,973.9175 0 0 1 1525.113,23.4676 A30,30 0 0 1 1547.0205,45.5778 A30,30 0 0 1 1509.5193,72.7133 A873.9175,873.9175 0 0 0 1068.9943,72.7133 A30,30 0 0 1 1031.4931,45.5778 A30,30 0 0 1 1053.4006,23.4676 Z" transform="rotate(45 1289.2568207850354 1273.02289075743)"/>
            <path id="auto-fill" fill="inherit" stroke="none" d="M1053.4006,23.4676 A973.9175,973.9175 0 0 1 1525.113,23.4676 A30,30 0 0 1 1547.0205,45.5778 A30,30 0 0 1 1509.5193,72.7133 A873.9175,873.9175 0 0 0 1068.9943,72.7133 A30,30 0 0 1 1031.4931,45.5778 A30,30 0 0 1 1053.4006,23.4676 Z" transform="rotate(90 1289.2568207850354 1273.02289075743)"/>
            <path id="auto-fill" fill="inherit" stroke="none" d="M1053.4006,23.4676 A973.9175,973.9175 0 0 1 1525.113,23.4676 A30,30 0 0 1 1547.0205,45.5778 A30,30 0 0 1 1509.5193,72.7133 A873.9175,873.9175 0 0 0 1068.9943,72.7133 A30,30 0 0 1 1031.4931,45.5778 A30,30 0 0 1 1053.4006,23.4676 Z" transform="rotate(135 1289.2568207850354 1273.02289075743)"/>
            <path id="auto-fill" fill="inherit" stroke="none" d="M1053.4006,23.4676 A973.9175,973.9175 0 0 1 1525.113,23.4676 A30,30 0 0 1 1547.0205,45.5778 A30,30 0 0 1 1509.5193,72.7133 A873.9175,873.9175 0 0 0 1068.9943,72.7133 A30,30 0 0 1 1031.4931,45.5778 A30,30 0 0 1 1053.4006,23.4676 Z" transform="rotate(180 1289.2568207850354 1273.02289075743)"/>
            <path id="auto-fill" fill="inherit" stroke="none" d="M1053.4006,23.4676 A973.9175,973.9175 0 0 1 1525.113,23.4676 A30,30 0 0 1 1547.0205,45.5778 A30,30 0 0 1 1509.5193,72.7133 A873.9175,873.9175 0 0 0 1068.9943,72.7133 A30,30 0 0 1 1031.4931,45.5778 A30,30 0 0 1 1053.4006,23.4676 Z" transform="rotate(225 1289.2568207850354 1273.02289075743)"/>
            <path id="auto-fill" fill="inherit" stroke="none" d="M1053.4006,23.4676 A973.9175,973.9175 0 0 1 1525.113,23.4676 A30,30 0 0 1 1547.0205,45.5778 A30,30 0 0 1 1509.5193,72.7133 A873.9175,873.9175 0 0 0 1068.9943,72.7133 A30,30 0 0 1 1031.4931,45.5778 A30,30 0 0 1 1053.4006,23.4676 Z" transform="rotate(270 1289.2568207850354 1273.02289075743)"/>
            <path id="auto-fill" fill="inherit" stroke="none" d="M1053.4006,23.4676 A973.9175,973.9175 0 0 1 1525.113,23.4676 A30,30 0 0 1 1547.0205,45.5778 A30,30 0 0 1 1509.5193,72.7133 A873.9175,873.9175 0 0 0 1068.9943,72.7133 A30,30 0 0 1 1031.4931,45.5778 A30,30 0 0 1 1053.4006,23.4676 Z" transform="rotate(315 1289.2568207850354 1273.02289075743)"/>
            <path id="auto-fill" fill="inherit" stroke="none" d="M1066.4612,154.4174 A843.9175,843.9175 0 0,1 1512.0524,154.4174 A30,30 0 0,1 1534.0213,180.7741 L1564.2568,531.1783 A50,50 0 0,1 1514.2568,581.1783 L1064.2568,581.1783 A50,50 0 0,1 1014.2568,531.1783 L1044.4923,180.7741 A30,30 0 0,1 1066.4612,154.4174 Z"/>
            <path id="auto-fill" fill="inherit" stroke="none" d="M1066.4612,154.4174 A843.9175,843.9175 0 0,1 1512.0524,154.4174 A30,30 0 0,1 1534.0213,180.7741 L1564.2568,531.1783 A50,50 0 0,1 1514.2568,581.1783 L1064.2568,581.1783 A50,50 0 0,1 1014.2568,531.1783 L1044.4923,180.7741 A30,30 0 0,1 1066.4612,154.4174 Z" transform="rotate(45 1289.2568207850354 1273.02289075743)"/>
            <path id="auto-fill" fill="inherit" stroke="none" d="M1066.4612,154.4174 A843.9175,843.9175 0 0,1 1512.0524,154.4174 A30,30 0 0,1 1534.0213,180.7741 L1564.2568,531.1783 A50,50 0 0,1 1514.2568,581.1783 L1064.2568,581.1783 A50,50 0 0,1 1014.2568,531.1783 L1044.4923,180.7741 A30,30 0 0,1 1066.4612,154.4174 Z" transform="rotate(90 1289.2568207850354 1273.02289075743)"/>
            <path id="auto-fill" fill="inherit" stroke="none" d="M1066.4612,154.4174 A843.9175,843.9175 0 0,1 1512.0524,154.4174 A30,30 0 0,1 1534.0213,180.7741 L1564.2568,531.1783 A50,50 0 0,1 1514.2568,581.1783 L1064.2568,581.1783 A50,50 0 0,1 1014.2568,531.1783 L1044.4923,180.7741 A30,30 0 0,1 1066.4612,154.4174 Z" transform="rotate(135 1289.2568207850354 1273.02289075743)"/>
            <path id="auto-fill" fill="inherit" stroke="none" d="M1066.4612,154.4174 A843.9175,843.9175 0 0,1 1512.0524,154.4174 A30,30 0 0,1 1534.0213,180.7741 L1564.2568,531.1783 A50,50 0 0,1 1514.2568,581.1783 L1064.2568,581.1783 A50,50 0 0,1 1014.2568,531.1783 L1044.4923,180.7741 A30,30 0 0,1 1066.4612,154.4174 Z" transform="rotate(180 1289.2568207850354 1273.02289075743)"/>
            <path id="auto-fill" fill="inherit" stroke="none" d="M1066.4612,154.4174 A843.9175,843.9175 0 0,1 1512.0524,154.4174 A30,30 0 0,1 1534.0213,180.7741 L1564.2568,531.1783 A50,50 0 0,1 1514.2568,581.1783 L1064.2568,581.1783 A50,50 0 0,1 1014.2568,531.1783 L1044.4923,180.7741 A30,30 0 0,1 1066.4612,154.4174 Z" transform="rotate(225 1289.2568207850354 1273.02289075743)"/>
            <path id="auto-fill" fill="inherit" stroke="none" d="M1066.4612,154.4174 A843.9175,843.9175 0 0,1 1512.0524,154.4174 A30,30 0 0,1 1534.0213,180.7741 L1564.2568,531.1783 A50,50 0 0,1 1514.2568,581.1783 L1064.2568,581.1783 A50,50 0 0,1 1014.2568,531.1783 L1044.4923,180.7741 A30,30 0 0,1 1066.4612,154.4174 Z" transform="rotate(270 1289.2568207850354 1273.02289075743)"/>
            <path id="auto-fill" fill="inherit" stroke="none" d="M1066.4612,154.4174 A843.9175,843.9175 0 0,1 1512.0524,154.4174 A30,30 0 0,1 1534.0213,180.7741 L1564.2568,531.1783 A50,50 0 0,1 1514.2568,581.1783 L1064.2568,581.1783 A50,50 0 0,1 1014.2568,531.1783 L1044.4923,180.7741 A30,30 0 0,1 1066.4612,154.4174 Z" transform="rotate(315 1289.2568207850354 1273.02289075743)"/>
            <!-- Block Reference: A$C04D97323 / entities: 113 -->
        <g>
            <!-- Arc -->
            <path d="M2407.8623,1050.2273 A843.9175,843.9175 0 0,1 2407.8623,1495.8185" style="stroke:#000000;stroke-width:0.1;"/>
            <!-- Line -->
            <path d="M1981.1014,1498.0229 L1981.1014,1048.0229 " style="stroke:#000000;stroke-width:0.1;"/>
            <!-- Circle -->
            <circle cx="1289.2568207850354" cy="1273.02289075743" r="600" style="stroke:#000000;stroke-width:0.1;"/>
            <!-- Line -->
            <path d="M597.4123,1498.0229 L597.4123,1048.0229 " style="stroke:#000000;stroke-width:0.1;"/>
            <!-- Arc -->
            <path d="M39.7015,1508.8791 A973.9175,973.9175 0 0,1 39.7015,1037.1667" style="stroke:#000000;stroke-width:0.1;"/>
            <!-- Arc -->
            <path d="M88.9472,1493.2854 A873.9175,873.9175 0 0,1 88.9472,1052.7604" style="stroke:#000000;stroke-width:0.1;"/>
            <!-- Arc -->
            <path d="M170.6514,1495.8185 A843.9175,843.9175 0 0,1 170.6514,1050.2273" style="stroke:#000000;stroke-width:0.1;"/>
            <!-- Arc -->
            <path d="M2489.5664,1052.7604 A873.9175,873.9175 0 0,1 2489.5664,1493.2854" style="stroke:#000000;stroke-width:0.1;"/>
            <!-- Arc -->
            <path d="M2339.458,587.3546 A30,30 0 0,1 2293.753,580.0249" style="stroke:#000000;stroke-width:0.1;"/>
            <!-- Line -->
            <path d="M2031.1014,998.0229 L2381.5056,1028.2584 " style="stroke:#000000;stroke-width:0.1;"/>
            <!-- Arc -->
            <path d="M2006.0503,222.6783 A973.9175,973.9175 0 0,1 2339.6014,556.2294" style="stroke:#000000;stroke-width:0.1;"/>
            <!-- Arc -->
            <path d="M2237.7706,639.5897 A30,30 0 0,1 2234.668,673.761" style="stroke:#000000;stroke-width:0.1;"/>
            <!-- Arc -->
            <path d="M1981.1014,1048.0229 A50,50 0 0,1 2031.1014,998.0229" style="stroke:#000000;stroke-width:0.1;"/>
            <!-- Arc -->
            <path d="M2008.2745,942.9139 A50,50 0 0,1 1937.5638,942.9139" style="stroke:#000000;stroke-width:0.1;"/>
            <!-- Arc -->
            <path d="M1888.5187,327.6117 A30,30 0 0,1 1922.69,324.5091" style="stroke:#000000;stroke-width:0.1;"/>
            <!-- Arc -->
            <path d="M1974.9251,222.8217 A30,30 0 0,1 2006.0503,222.6783" style="stroke:#000000;stroke-width:0.1;"/>
            <!-- Arc -->
            <path d="M1982.2548,268.5267 A30,30 0 0,1 1974.9251,222.8217" style="stroke:#000000;stroke-width:0.1;"/>
            <!-- Arc -->
            <path d="M1619.3658,624.7159 A50,50 0 0,1 1619.3658,554.0052" style="stroke:#000000;stroke-width:0.1;"/>
            <!-- Line -->
            <path d="M1619.3658,554.0052 L1888.5187,327.6117 " style="stroke:#000000;stroke-width:0.1;"/>
            <!-- Line -->
            <path d="M1619.3658,624.7159 L1937.5638,942.9139 " style="stroke:#000000;stroke-width:0.1;"/>
            <!-- Line -->
            <path d="M2008.2745,942.9139 L2234.668,673.761 " style="stroke:#000000;stroke-width:0.1;"/>
            <!-- Arc -->
            <path d="M1922.69,324.5091 A843.9175,843.9175 0 0,1 2237.7706,639.5897" style="stroke:#000000;stroke-width:0.1;"/>
            <!-- Arc -->
            <path d="M1982.2548,268.5267 A873.9175,873.9175 0 0,1 2293.753,580.0249" style="stroke:#000000;stroke-width:0.1;"/>
            <!-- Line -->
            <path d="M1514.2568,581.1783 L1064.2568,581.1783 " style="stroke:#000000;stroke-width:0.1;"/>
            <!-- Arc -->
            <path d="M1066.4612,154.4174 A843.9175,843.9175 0 0,1 1512.0524,154.4174" style="stroke:#000000;stroke-width:0.1;"/>
            <!-- Arc -->
            <path d="M1064.2568,581.1783 A50,50 0 0,1 1014.2568,531.1783" style="stroke:#000000;stroke-width:0.1;"/>
            <!-- Arc -->
            <path d="M959.1479,554.0052 A50,50 0 0,1 959.1479,624.7159" style="stroke:#000000;stroke-width:0.1;"/>
            <!-- Arc -->
            <path d="M1044.4923,180.7741 A30,30 0 0,1 1066.4612,154.4174" style="stroke:#000000;stroke-width:0.1;"/>
            <!-- Line -->
            <path d="M1014.2568,531.1783 L1044.4923,180.7741 " style="stroke:#000000;stroke-width:0.1;"/>
            <!-- Arc -->
            <path d="M1564.2568,531.1783 A50,50 0 0,1 1514.2568,581.1783" style="stroke:#000000;stroke-width:0.1;"/>
            <!-- Arc -->
            <path d="M1512.0524,154.4174 A30,30 0 0,1 1534.0213,180.7741" style="stroke:#000000;stroke-width:0.1;"/>
            <!-- Line -->
            <path d="M1564.2568,531.1783 L1534.0213,180.7741 " style="stroke:#000000;stroke-width:0.1;"/>
            <!-- Arc -->
            <path d="M1053.4006,23.4676 A973.9175,973.9175 0 0,1 1525.113,23.4676" style="stroke:#000000;stroke-width:0.1;"/>
            <!-- Arc -->
            <path d="M1031.4931,45.5778 A30,30 0 0,1 1053.4006,23.4676" style="stroke:#000000;stroke-width:0.1;"/>
            <!-- Arc -->
            <path d="M1525.113,23.4676 A30,30 0 0,1 1547.0205,45.5778" style="stroke:#000000;stroke-width:0.1;"/>
            <!-- Arc -->
            <path d="M1068.9943,72.7133 A873.9175,873.9175 0 0,1 1509.5193,72.7133" style="stroke:#000000;stroke-width:0.1;"/>
            <!-- Arc -->
            <path d="M1068.9943,72.7133 A30,30 0 0,1 1031.4931,45.5778" style="stroke:#000000;stroke-width:0.1;"/>
            <!-- Arc -->
            <path d="M1547.0205,45.5778 A30,30 0 0,1 1509.5193,72.7133" style="stroke:#000000;stroke-width:0.1;"/>
            <!-- Arc -->
            <path d="M655.8236,324.5091 A30,30 0 0,1 689.9949,327.6117" style="stroke:#000000;stroke-width:0.1;"/>
            <!-- Line -->
            <path d="M959.1479,554.0052 L689.9949,327.6117 " style="stroke:#000000;stroke-width:0.1;"/>
            <!-- Arc -->
            <path d="M640.9498,942.9139 A50,50 0 0,1 570.2391,942.9139" style="stroke:#000000;stroke-width:0.1;"/>
            <!-- Arc -->
            <path d="M547.4123,998.0229 A50,50 0 0,1 597.4123,1048.0229" style="stroke:#000000;stroke-width:0.1;"/>
            <!-- Arc -->
            <path d="M603.5886,222.8217 A30,30 0 0,1 596.2588,268.5267" style="stroke:#000000;stroke-width:0.1;"/>
            <!-- Arc -->
            <path d="M572.4633,222.6783 A30,30 0 0,1 603.5886,222.8217" style="stroke:#000000;stroke-width:0.1;"/>
            <!-- Arc -->
            <path d="M170.6514,1050.2273 A30,30 0 0,1 197.008,1028.2584" style="stroke:#000000;stroke-width:0.1;"/>
            <!-- Arc -->
            <path d="M61.8118,1015.2592 A30,30 0 0,1 88.9472,1052.7604" style="stroke:#000000;stroke-width:0.1;"/>
            <!-- Arc -->
            <path d="M39.7015,1037.1667 A30,30 0 0,1 61.8118,1015.2592" style="stroke:#000000;stroke-width:0.1;"/>
            <!-- Arc -->
            <path d="M343.8456,673.761 A30,30 0 0,1 340.743,639.5897" style="stroke:#000000;stroke-width:0.1;"/>
            <!-- Arc -->
            <path d="M284.7607,580.0249 A30,30 0 0,1 239.0556,587.3546" style="stroke:#000000;stroke-width:0.1;"/>
            <!-- Arc -->
            <path d="M239.0556,587.3546 A30,30 0 0,1 238.9123,556.2294" style="stroke:#000000;stroke-width:0.1;"/>
            <!-- Line -->
            <path d="M547.4123,998.0229 L197.008,1028.2584 " style="stroke:#000000;stroke-width:0.1;"/>
            <!-- Arc -->
            <path d="M238.9123,556.2294 A973.9175,973.9175 0 0,1 572.4633,222.6783" style="stroke:#000000;stroke-width:0.1;"/>
            <!-- Arc -->
            <path d="M284.7607,580.0249 A873.9175,873.9175 0 0,1 596.2588,268.5267" style="stroke:#000000;stroke-width:0.1;"/>
            <!-- Line -->
            <path d="M570.2391,942.9139 L343.8456,673.761 " style="stroke:#000000;stroke-width:0.1;"/>
            <!-- Arc -->
            <path d="M340.743,639.5897 A843.9175,843.9175 0 0,1 655.8236,324.5091" style="stroke:#000000;stroke-width:0.1;"/>
            <!-- Line -->
            <path d="M959.1479,624.7159 L640.9498,942.9139 " style="stroke:#000000;stroke-width:0.1;"/>
            <!-- Arc -->
            <path d="M2381.5056,1028.2584 A30,30 0 0,1 2407.8623,1050.2273" style="stroke:#000000;stroke-width:0.1;"/>
            <!-- Arc -->
            <path d="M2339.6014,556.2294 A30,30 0 0,1 2339.458,587.3546" style="stroke:#000000;stroke-width:0.1;"/>
            <!-- Arc -->
            <path d="M2489.5664,1052.7604 A30,30 0 0,1 2516.7019,1015.2592" style="stroke:#000000;stroke-width:0.1;"/>
            <!-- Arc -->
            <path d="M2293.753,1966.0209 A30,30 0 0,1 2339.458,1958.6912" style="stroke:#000000;stroke-width:0.1;"/>
            <!-- Line -->
            <path d="M2031.1014,1548.0229 L2381.5056,1517.7874 " style="stroke:#000000;stroke-width:0.1;"/>
            <!-- Arc -->
            <path d="M2339.6014,1989.8164 A973.9175,973.9175 0 0,1 2006.0503,2323.3674" style="stroke:#000000;stroke-width:0.1;"/>
            <!-- Arc -->
            <path d="M2006.0503,2323.3674 A30,30 0 0,1 1974.9251,2323.2241" style="stroke:#000000;stroke-width:0.1;"/>
            <!-- Arc -->
            <path d="M1922.69,2221.5367 A30,30 0 0,1 1888.5187,2218.4341" style="stroke:#000000;stroke-width:0.1;"/>
            <!-- Arc -->
            <path d="M1974.9251,2323.2241 A30,30 0 0,1 1982.2548,2277.519" style="stroke:#000000;stroke-width:0.1;"/>
            <!-- Arc -->
            <path d="M2234.668,1872.2848 A30,30 0 0,1 2237.7706,1906.4561" style="stroke:#000000;stroke-width:0.1;"/>
            <!-- Arc -->
            <path d="M2031.1014,1548.0229 A50,50 0 0,1 1981.1014,1498.0229" style="stroke:#000000;stroke-width:0.1;"/>
            <!-- Arc -->
            <path d="M1937.5638,1603.1318 A50,50 0 0,1 2008.2745,1603.1318" style="stroke:#000000;stroke-width:0.1;"/>
            <!-- Arc -->
            <path d="M1619.3658,1992.0406 A50,50 0 0,1 1619.3658,1921.3299" style="stroke:#000000;stroke-width:0.1;"/>
            <!-- Line -->
            <path d="M1619.3658,1921.3299 L1937.5638,1603.1318 " style="stroke:#000000;stroke-width:0.1;"/>
            <!-- Line -->
            <path d="M2008.2745,1603.1318 L2234.668,1872.2848 " style="stroke:#000000;stroke-width:0.1;"/>
            <!-- Line -->
            <path d="M1619.3658,1992.0406 L1888.5187,2218.4341 " style="stroke:#000000;stroke-width:0.1;"/>
            <!-- Arc -->
            <path d="M2293.753,1966.0209 A873.9175,873.9175 0 0,1 1982.2548,2277.519" style="stroke:#000000;stroke-width:0.1;"/>
            <!-- Arc -->
            <path d="M2237.7706,1906.4561 A843.9175,843.9175 0 0,1 1922.69,2221.5367" style="stroke:#000000;stroke-width:0.1;"/>
            <!-- Arc -->
            <path d="M1525.113,2522.5782 A973.9175,973.9175 0 0,1 1053.4006,2522.5782" style="stroke:#000000;stroke-width:0.1;"/>
            <!-- Arc -->
            <path d="M1509.5193,2473.3325 A873.9175,873.9175 0 0,1 1068.9943,2473.3325" style="stroke:#000000;stroke-width:0.1;"/>
            <!-- Arc -->
            <path d="M1512.0524,2391.6283 A843.9175,843.9175 0 0,1 1066.4612,2391.6283" style="stroke:#000000;stroke-width:0.1;"/>
            <!-- Arc -->
            <path d="M1031.4931,2500.4679 A30,30 0 0,1 1068.9943,2473.3325" style="stroke:#000000;stroke-width:0.1;"/>
            <!-- Arc -->
            <path d="M1053.4006,2522.5782 A30,30 0 0,1 1031.4931,2500.4679" style="stroke:#000000;stroke-width:0.1;"/>
            <!-- Arc -->
            <path d="M1066.4612,2391.6283 A30,30 0 0,1 1044.4923,2365.2717" style="stroke:#000000;stroke-width:0.1;"/>
            <!-- Arc -->
            <path d="M1509.5193,2473.3325 A30,30 0 0,1 1547.0205,2500.4679" style="stroke:#000000;stroke-width:0.1;"/>
            <!-- Arc -->
            <path d="M1547.0205,2500.4679 A30,30 0 0,1 1525.113,2522.5782" style="stroke:#000000;stroke-width:0.1;"/>
            <!-- Arc -->
            <path d="M1534.0213,2365.2717 A30,30 0 0,1 1512.0524,2391.6283" style="stroke:#000000;stroke-width:0.1;"/>
            <!-- Line -->
            <path d="M1514.2568,1964.8675 L1064.2568,1964.8675 " style="stroke:#000000;stroke-width:0.1;"/>
            <!-- Arc -->
            <path d="M1014.2568,2014.8675 A50,50 0 0,1 1064.2568,1964.8675" style="stroke:#000000;stroke-width:0.1;"/>
            <!-- Arc -->
            <path d="M959.1479,1921.3299 A50,50 0 0,1 959.1479,1992.0406" style="stroke:#000000;stroke-width:0.1;"/>
            <!-- Arc -->
            <path d="M1514.2568,1964.8675 A50,50 0 0,1 1564.2568,2014.8675" style="stroke:#000000;stroke-width:0.1;"/>
            <!-- Line -->
            <path d="M1014.2568,2014.8675 L1044.4923,2365.2717 " style="stroke:#000000;stroke-width:0.1;"/>
            <!-- Line -->
            <path d="M1564.2568,2014.8675 L1534.0213,2365.2717 " style="stroke:#000000;stroke-width:0.1;"/>
            <!-- Arc -->
            <path d="M689.9949,2218.4341 A30,30 0 0,1 655.8236,2221.5367" style="stroke:#000000;stroke-width:0.1;"/>
            <!-- Line -->
            <path d="M959.1479,1992.0406 L689.9949,2218.4341 " style="stroke:#000000;stroke-width:0.1;"/>
            <!-- Arc -->
            <path d="M603.5886,2323.2241 A30,30 0 0,1 572.4633,2323.3674" style="stroke:#000000;stroke-width:0.1;"/>
            <!-- Arc -->
            <path d="M596.2588,2277.519 A30,30 0 0,1 603.5886,2323.2241" style="stroke:#000000;stroke-width:0.1;"/>
            <!-- Arc -->
            <path d="M597.4123,1498.0229 A50,50 0 0,1 547.4123,1548.0229" style="stroke:#000000;stroke-width:0.1;"/>
            <!-- Arc -->
            <path d="M570.2391,1603.1318 A50,50 0 0,1 640.9498,1603.1318" style="stroke:#000000;stroke-width:0.1;"/>
            <!-- Arc -->
            <path d="M238.9123,1989.8164 A30,30 0 0,1 239.0556,1958.6912" style="stroke:#000000;stroke-width:0.1;"/>
            <!-- Arc -->
            <path d="M239.0556,1958.6912 A30,30 0 0,1 284.7607,1966.0209" style="stroke:#000000;stroke-width:0.1;"/>
            <!-- Arc -->
            <path d="M340.743,1906.4561 A30,30 0 0,1 343.8456,1872.2848" style="stroke:#000000;stroke-width:0.1;"/>
            <!-- Arc -->
            <path d="M197.008,1517.7874 A30,30 0 0,1 170.6514,1495.8185" style="stroke:#000000;stroke-width:0.1;"/>
            <!-- Arc -->
            <path d="M88.9472,1493.2854 A30,30 0 0,1 61.8118,1530.7866" style="stroke:#000000;stroke-width:0.1;"/>
            <!-- Arc -->
            <path d="M61.8118,1530.7866 A30,30 0 0,1 39.7015,1508.8791" style="stroke:#000000;stroke-width:0.1;"/>
            <!-- Line -->
            <path d="M570.2391,1603.1318 L343.8456,1872.2848 " style="stroke:#000000;stroke-width:0.1;"/>
            <!-- Line -->
            <path d="M547.4123,1548.0229 L197.008,1517.7874 " style="stroke:#000000;stroke-width:0.1;"/>
            <!-- Arc -->
            <path d="M572.4633,2323.3674 A973.9175,973.9175 0 0,1 238.9123,1989.8164" style="stroke:#000000;stroke-width:0.1;"/>
            <!-- Arc -->
            <path d="M596.2588,2277.519 A873.9175,873.9175 0 0,1 284.7607,1966.0209" style="stroke:#000000;stroke-width:0.1;"/>
            <!-- Arc -->
            <path d="M655.8236,2221.5367 A843.9175,843.9175 0 0,1 340.743,1906.4561" style="stroke:#000000;stroke-width:0.1;"/>
            <!-- Line -->
            <path d="M959.1479,1921.3299 L640.9498,1603.1318 " style="stroke:#000000;stroke-width:0.1;"/>
            <!-- Arc -->
            <path d="M2339.458,1958.6912 A30,30 0 0,1 2339.6014,1989.8164" style="stroke:#000000;stroke-width:0.1;"/>
            <!-- Arc -->
            <path d="M2407.8623,1495.8185 A30,30 0 0,1 2381.5056,1517.7874" style="stroke:#000000;stroke-width:0.1;"/>
            <!-- Arc -->
            <path d="M2516.7019,1530.7866 A30,30 0 0,1 2489.5664,1493.2854" style="stroke:#000000;stroke-width:0.1;"/>
            <!-- Arc -->
            <path d="M2538.8121,1037.1667 A973.9175,973.9175 0 0,1 2538.8121,1508.8791" style="stroke:#000000;stroke-width:0.1;"/>
            <!-- Arc -->
            <path d="M2516.7019,1015.2592 A30,30 0 0,1 2538.8121,1037.1667" style="stroke:#000000;stroke-width:0.1;"/>
            <!-- Arc -->
            <path d="M2538.8121,1508.8791 A30,30 0 0,1 2516.7019,1530.7866" style="stroke:#000000;stroke-width:0.1;"/>
        </g>
    </g>
</svg>

