<?xml version="1.0" encoding="UTF-8"?>
<!-- 2026-03-10 13:13:35 Generated by QCAD 3.32.6 SVG Exporter -->
<svg  width="2500mm" height="2017.6001mm" viewBox="-0.5404 -2018.3174 2500 2017.6001" version="1.1" xmlns="http://www.w3.org/2000/svg" style="stroke-linecap:round;stroke-linejoin:round;">
    <g transform="scale(1,-1)">
            <!-- Auto-generated fillable area -->
            <!-- Block Reference: 8 seater rectangular table / entities: 10 -->
        <g>
            <!-- Block Reference: A$C51F1 / entities: 31 -->
            <g>
                <!-- Polyline -->
                <path d="M1136.1514,1999.1327 A216.619,216.619 0 0 1 1126.5677,1911.7469 A1180.69,1180.69 0 0 0 1142.1411,1534.5174 A22.2032,22.2032 0 0 0 1117.716,1537.4456 A12.0328,12.0328 0 0 1 1108.5724,1538.1083 A480.879,480.879 0 0 0 1054.5049,1534.5174 L924.4596,1534.5174 L794.4143,1534.5174 A480.879,480.879 0 0 0 740.3468,1538.1083 A12.0328,12.0328 0 0 1 731.2032,1537.4456 A22.2032,22.2032 0 0 0 706.7781,1534.5174 A1180.69,1180.69 0 0 0 722.3516,1911.7469 A216.619,216.619 0 0 1 712.7678,1999.1327 A12.6008,12.6008 0 0 0 723.5493,2018.3174 L1125.3699,2018.3174 A12.6008,12.6008 0 0 0 1136.1514,1999.1327 Z" style="stroke:#000000;stroke-width:0.1;"/>
                <!-- Line -->
                <path d="M924.7754,1911.1701 L817.9904,1911.1701 " style="stroke:#000000;stroke-width:0.1;"/>
                <!-- Arc -->
                <path d="M747.0263,1906.2752 A1154.4088,1154.4088 0 0,1 731.7994,1537.4413" style="stroke:#000000;stroke-width:0.1;"/>
                <!-- Arc -->
                <path d="M747.4139,1908.8671 A240.8687,240.8687 0 0,1 739.2147,1997.9798" style="stroke:#000000;stroke-width:0.1;"/>
                <!-- Line -->
                <path d="M924.7754,1993.0512 L741.354,1993.0512 " style="stroke:#000000;stroke-width:0.1;"/>
                <!-- Line -->
                <path d="M924.7754,2001.2393 L741.0319,2001.2393 " style="stroke:#000000;stroke-width:0.1;"/>
                <!-- Arc -->
                <path d="M741.0319,2001.2393 A2.4177,2.4177 0 0,1 739.2147,1997.9798" style="stroke:#000000;stroke-width:0.1;"/>
                <!-- Arc -->
                <path d="M758.4266,1890.2668 A317.3163,317.3163 0 0,1 743.6982,1979.6052" style="stroke:#000000;stroke-width:0.1;"/>
                <!-- Arc -->
                <path d="M817.9904,1911.1701 A97.8312,97.8312 0 0,1 740.5431,1871.9561" style="stroke:#000000;stroke-width:0.1;"/>
                <!-- Arc -->
                <path d="M741.4204,1993.0512 A0.7251,0.7251 0 0,1 740.6958,1992.1085" style="stroke:#000000;stroke-width:0.1;"/>
                <!-- Line -->
                <path d="M924.7754,1992.2324 L741.354,1992.2324 " style="stroke:#000000;stroke-width:0.1;"/>
                <!-- Arc -->
                <path d="M741.354,1992.2324 A0.4331,0.4331 0 0,1 740.7911,1991.7516" style="stroke:#000000;stroke-width:0.1;"/>
                <!-- Arc -->
                <path d="M740.9297,1538.1031 A12.0153,12.0153 0 0,1 731.7994,1537.4413" style="stroke:#000000;stroke-width:0.1;"/>
                <!-- Line -->
                <path d="M740.9297,1538.1031 L739.1647,1557.5042 " style="stroke:#000000;stroke-width:0.1;"/>
                <!-- Line -->
                <path d="M739.1647,1557.5042 L730.0224,1553.1767 " style="stroke:#000000;stroke-width:0.1;"/>
                <!-- Line -->
                <path d="M739.1647,1557.5042 L729.572,1557.5042 " style="stroke:#000000;stroke-width:0.1;"/>
                <!-- Line -->
                <path d="M1110.3862,1557.5042 L1119.9789,1557.5042 " style="stroke:#000000;stroke-width:0.1;"/>
                <!-- Line -->
                <path d="M1110.3862,1557.5042 L1119.5285,1553.1767 " style="stroke:#000000;stroke-width:0.1;"/>
                <!-- Line -->
                <path d="M1108.6211,1538.1031 L1110.3862,1557.5042 " style="stroke:#000000;stroke-width:0.1;"/>
                <!-- Arc -->
                <path d="M1117.7514,1537.4413 A12.0153,12.0153 0 0,1 1108.6211,1538.1031" style="stroke:#000000;stroke-width:0.1;"/>
                <!-- Arc -->
                <path d="M1108.7598,1991.7516 A0.4331,0.4331 0 0,1 1108.1968,1992.2324" style="stroke:#000000;stroke-width:0.1;"/>
                <!-- Line -->
                <path d="M924.7754,1992.2324 L1108.1968,1992.2324 " style="stroke:#000000;stroke-width:0.1;"/>
                <!-- Arc -->
                <path d="M1108.8551,1992.1085 A0.7251,0.7251 0 0,1 1108.1304,1993.0512" style="stroke:#000000;stroke-width:0.1;"/>
                <!-- Arc -->
                <path d="M1109.0078,1871.9561 A97.8312,97.8312 0 0,1 1031.5605,1911.1701" style="stroke:#000000;stroke-width:0.1;"/>
                <!-- Arc -->
                <path d="M1105.8527,1979.6052 A317.3163,317.3163 0 0,1 1091.1243,1890.2668" style="stroke:#000000;stroke-width:0.1;"/>
                <!-- Arc -->
                <path d="M1110.3362,1997.9798 A2.4177,2.4177 0 0,1 1108.5189,2001.2393" style="stroke:#000000;stroke-width:0.1;"/>
                <!-- Line -->
                <path d="M924.7754,2001.2393 L1108.5189,2001.2393 " style="stroke:#000000;stroke-width:0.1;"/>
                <!-- Line -->
                <path d="M924.7754,1993.0512 L1108.1968,1993.0512 " style="stroke:#000000;stroke-width:0.1;"/>
                <!-- Arc -->
                <path d="M1110.3362,1997.9798 A240.8687,240.8687 0 0,1 1102.1369,1908.8671" style="stroke:#000000;stroke-width:0.1;"/>
                <!-- Arc -->
                <path d="M1117.7514,1537.4413 A1154.4088,1154.4088 0 0,1 1102.5246,1906.2752" style="stroke:#000000;stroke-width:0.1;"/>
                <!-- Line -->
                <path d="M924.7754,1911.1701 L1031.5605,1911.1701 " style="stroke:#000000;stroke-width:0.1;"/>
            </g>
            <!-- Block Reference: A$C51F1 / entities: 31 -->
            <g>
                <!-- Polyline -->
                <path d="M1312.7678,1999.1327 A216.619,216.619 0 0 0 1322.3516,1911.7469 A1180.69,1180.69 0 0 1 1306.7781,1534.5174 A22.2032,22.2032 0 0 1 1331.2032,1537.4456 A12.0328,12.0328 0 0 0 1340.3468,1538.1083 A480.879,480.879 0 0 1 1394.4143,1534.5174 L1524.4596,1534.5174 L1654.5049,1534.5174 A480.879,480.879 0 0 1 1708.5724,1538.1083 A12.0328,12.0328 0 0 0 1717.716,1537.4456 A22.2032,22.2032 0 0 1 1742.1411,1534.5174 A1180.69,1180.69 0 0 1 1726.5677,1911.7469 A216.619,216.619 0 0 0 1736.1514,1999.1327 A12.6008,12.6008 0 0 1 1725.3699,2018.3174 L1323.5493,2018.3174 A12.6008,12.6008 0 0 1 1312.7678,1999.1327 Z" style="stroke:#000000;stroke-width:0.1;"/>
                <!-- Line -->
                <path d="M1524.1438,1911.1701 L1630.9288,1911.1701 " style="stroke:#000000;stroke-width:0.1;"/>
                <!-- Arc -->
                <path d="M1701.893,1906.2752 A1154.4088,1154.4088 0 0,0 1717.1198,1537.4413" style="stroke:#000000;stroke-width:0.1;"/>
                <!-- Arc -->
                <path d="M1701.5053,1908.8671 A240.8687,240.8687 0 0,0 1709.7045,1997.9798" style="stroke:#000000;stroke-width:0.1;"/>
                <!-- Line -->
                <path d="M1524.1438,1993.0512 L1707.5652,1993.0512 " style="stroke:#000000;stroke-width:0.1;"/>
                <!-- Line -->
                <path d="M1524.1438,2001.2393 L1707.8873,2001.2393 " style="stroke:#000000;stroke-width:0.1;"/>
                <!-- Arc -->
                <path d="M1707.8873,2001.2393 A2.4177,2.4177 0 0,0 1709.7045,1997.9798" style="stroke:#000000;stroke-width:0.1;"/>
                <!-- Arc -->
                <path d="M1690.4927,1890.2668 A317.3163,317.3163 0 0,0 1705.221,1979.6052" style="stroke:#000000;stroke-width:0.1;"/>
                <!-- Arc -->
                <path d="M1630.9288,1911.1701 A97.8312,97.8312 0 0,0 1708.3761,1871.9561" style="stroke:#000000;stroke-width:0.1;"/>
                <!-- Arc -->
                <path d="M1707.4988,1993.0512 A0.7251,0.7251 0 0,0 1708.2235,1992.1085" style="stroke:#000000;stroke-width:0.1;"/>
                <!-- Line -->
                <path d="M1524.1438,1992.2324 L1707.5652,1992.2324 " style="stroke:#000000;stroke-width:0.1;"/>
                <!-- Arc -->
                <path d="M1707.5652,1992.2324 A0.4331,0.4331 0 0,0 1708.1282,1991.7516" style="stroke:#000000;stroke-width:0.1;"/>
                <!-- Arc -->
                <path d="M1707.9895,1538.1031 A12.0153,12.0153 0 0,0 1717.1198,1537.4413" style="stroke:#000000;stroke-width:0.1;"/>
                <!-- Line -->
                <path d="M1707.9895,1538.1031 L1709.7545,1557.5042 " style="stroke:#000000;stroke-width:0.1;"/>
                <!-- Line -->
                <path d="M1709.7545,1557.5042 L1718.8968,1553.1767 " style="stroke:#000000;stroke-width:0.1;"/>
                <!-- Line -->
                <path d="M1709.7545,1557.5042 L1719.3473,1557.5042 " style="stroke:#000000;stroke-width:0.1;"/>
                <!-- Line -->
                <path d="M1338.5331,1557.5042 L1328.9403,1557.5042 " style="stroke:#000000;stroke-width:0.1;"/>
                <!-- Line -->
                <path d="M1338.5331,1557.5042 L1329.3908,1553.1767 " style="stroke:#000000;stroke-width:0.1;"/>
                <!-- Line -->
                <path d="M1340.2981,1538.1031 L1338.5331,1557.5042 " style="stroke:#000000;stroke-width:0.1;"/>
                <!-- Arc -->
                <path d="M1331.1678,1537.4413 A12.0153,12.0153 0 0,0 1340.2981,1538.1031" style="stroke:#000000;stroke-width:0.1;"/>
                <!-- Arc -->
                <path d="M1340.1594,1991.7516 A0.4331,0.4331 0 0,0 1340.7224,1992.2324" style="stroke:#000000;stroke-width:0.1;"/>
                <!-- Line -->
                <path d="M1524.1438,1992.2324 L1340.7224,1992.2324 " style="stroke:#000000;stroke-width:0.1;"/>
                <!-- Arc -->
                <path d="M1340.0641,1992.1085 A0.7251,0.7251 0 0,0 1340.7888,1993.0512" style="stroke:#000000;stroke-width:0.1;"/>
                <!-- Arc -->
                <path d="M1339.9115,1871.9561 A97.8312,97.8312 0 0,0 1417.3588,1911.1701" style="stroke:#000000;stroke-width:0.1;"/>
                <!-- Arc -->
                <path d="M1343.0666,1979.6052 A317.3163,317.3163 0 0,0 1357.7949,1890.2668" style="stroke:#000000;stroke-width:0.1;"/>
                <!-- Arc -->
                <path d="M1338.5831,1997.9798 A2.4177,2.4177 0 0,0 1340.4003,2001.2393" style="stroke:#000000;stroke-width:0.1;"/>
                <!-- Line -->
                <path d="M1524.1438,2001.2393 L1340.4003,2001.2393 " style="stroke:#000000;stroke-width:0.1;"/>
                <!-- Line -->
                <path d="M1524.1438,1993.0512 L1340.7224,1993.0512 " style="stroke:#000000;stroke-width:0.1;"/>
                <!-- Arc -->
                <path d="M1338.5831,1997.9798 A240.8687,240.8687 0 0,0 1346.7823,1908.8671" style="stroke:#000000;stroke-width:0.1;"/>
                <!-- Arc -->
                <path d="M1331.1678,1537.4413 A1154.4088,1154.4088 0 0,0 1346.3946,1906.2752" style="stroke:#000000;stroke-width:0.1;"/>
                <!-- Line -->
                <path d="M1524.1438,1911.1701 L1417.3588,1911.1701 " style="stroke:#000000;stroke-width:0.1;"/>
            </g>
            <!-- Block Reference: A$C51F1 / entities: 31 -->
            <g>
                <!-- Polyline -->
                <path d="M536.1514,1999.1327 A216.619,216.619 0 0 1 526.5677,1911.7469 A1180.69,1180.69 0 0 0 542.1411,1534.5174 A22.2032,22.2032 0 0 0 517.716,1537.4456 A12.0328,12.0328 0 0 1 508.5724,1538.1083 A480.879,480.879 0 0 0 454.5049,1534.5174 L324.4596,1534.5174 L194.4143,1534.5174 A480.879,480.879 0 0 0 140.3468,1538.1083 A12.0328,12.0328 0 0 1 131.2032,1537.4456 A22.2032,22.2032 0 0 0 106.7781,1534.5174 A1180.69,1180.69 0 0 0 122.3516,1911.7469 A216.619,216.619 0 0 1 112.7678,1999.1327 A12.6008,12.6008 0 0 0 123.5493,2018.3174 L525.3699,2018.3174 A12.6008,12.6008 0 0 0 536.1514,1999.1327 Z" style="stroke:#000000;stroke-width:0.1;"/>
                <!-- Line -->
                <path d="M324.7754,1911.1701 L217.9904,1911.1701 " style="stroke:#000000;stroke-width:0.1;"/>
                <!-- Arc -->
                <path d="M147.0263,1906.2752 A1154.4088,1154.4088 0 0,1 131.7994,1537.4413" style="stroke:#000000;stroke-width:0.1;"/>
                <!-- Arc -->
                <path d="M147.4139,1908.8671 A240.8687,240.8687 0 0,1 139.2147,1997.9798" style="stroke:#000000;stroke-width:0.1;"/>
                <!-- Line -->
                <path d="M324.7754,1993.0512 L141.354,1993.0512 " style="stroke:#000000;stroke-width:0.1;"/>
                <!-- Line -->
                <path d="M324.7754,2001.2393 L141.0319,2001.2393 " style="stroke:#000000;stroke-width:0.1;"/>
                <!-- Arc -->
                <path d="M141.0319,2001.2393 A2.4177,2.4177 0 0,1 139.2147,1997.9798" style="stroke:#000000;stroke-width:0.1;"/>
                <!-- Arc -->
                <path d="M158.4266,1890.2668 A317.3163,317.3163 0 0,1 143.6982,1979.6052" style="stroke:#000000;stroke-width:0.1;"/>
                <!-- Arc -->
                <path d="M217.9904,1911.1701 A97.8312,97.8312 0 0,1 140.5431,1871.9561" style="stroke:#000000;stroke-width:0.1;"/>
                <!-- Arc -->
                <path d="M141.4204,1993.0512 A0.7251,0.7251 0 0,1 140.6958,1992.1085" style="stroke:#000000;stroke-width:0.1;"/>
                <!-- Line -->
                <path d="M324.7754,1992.2324 L141.354,1992.2324 " style="stroke:#000000;stroke-width:0.1;"/>
                <!-- Arc -->
                <path d="M141.354,1992.2324 A0.4331,0.4331 0 0,1 140.7911,1991.7516" style="stroke:#000000;stroke-width:0.1;"/>
                <!-- Arc -->
                <path d="M140.9297,1538.1031 A12.0153,12.0153 0 0,1 131.7994,1537.4413" style="stroke:#000000;stroke-width:0.1;"/>
                <!-- Line -->
                <path d="M140.9297,1538.1031 L139.1647,1557.5042 " style="stroke:#000000;stroke-width:0.1;"/>
                <!-- Line -->
                <path d="M139.1647,1557.5042 L130.0224,1553.1767 " style="stroke:#000000;stroke-width:0.1;"/>
                <!-- Line -->
                <path d="M139.1647,1557.5042 L129.572,1557.5042 " style="stroke:#000000;stroke-width:0.1;"/>
                <!-- Line -->
                <path d="M510.3862,1557.5042 L519.9789,1557.5042 " style="stroke:#000000;stroke-width:0.1;"/>
                <!-- Line -->
                <path d="M510.3862,1557.5042 L519.5285,1553.1767 " style="stroke:#000000;stroke-width:0.1;"/>
                <!-- Line -->
                <path d="M508.6211,1538.1031 L510.3862,1557.5042 " style="stroke:#000000;stroke-width:0.1;"/>
                <!-- Arc -->
                <path d="M517.7514,1537.4413 A12.0153,12.0153 0 0,1 508.6211,1538.1031" style="stroke:#000000;stroke-width:0.1;"/>
                <!-- Arc -->
                <path d="M508.7598,1991.7516 A0.4331,0.4331 0 0,1 508.1968,1992.2324" style="stroke:#000000;stroke-width:0.1;"/>
                <!-- Line -->
                <path d="M324.7754,1992.2324 L508.1968,1992.2324 " style="stroke:#000000;stroke-width:0.1;"/>
                <!-- Arc -->
                <path d="M508.8551,1992.1085 A0.7251,0.7251 0 0,1 508.1304,1993.0512" style="stroke:#000000;stroke-width:0.1;"/>
                <!-- Arc -->
                <path d="M509.0078,1871.9561 A97.8312,97.8312 0 0,1 431.5605,1911.1701" style="stroke:#000000;stroke-width:0.1;"/>
                <!-- Arc -->
                <path d="M505.8527,1979.6052 A317.3163,317.3163 0 0,1 491.1243,1890.2668" style="stroke:#000000;stroke-width:0.1;"/>
                <!-- Arc -->
                <path d="M510.3362,1997.9798 A2.4177,2.4177 0 0,1 508.5189,2001.2393" style="stroke:#000000;stroke-width:0.1;"/>
                <!-- Line -->
                <path d="M324.7754,2001.2393 L508.5189,2001.2393 " style="stroke:#000000;stroke-width:0.1;"/>
                <!-- Line -->
                <path d="M324.7754,1993.0512 L508.1968,1993.0512 " style="stroke:#000000;stroke-width:0.1;"/>
                <!-- Arc -->
                <path d="M510.3362,1997.9798 A240.8687,240.8687 0 0,1 502.1369,1908.8671" style="stroke:#000000;stroke-width:0.1;"/>
                <!-- Arc -->
                <path d="M517.7514,1537.4413 A1154.4088,1154.4088 0 0,1 502.5246,1906.2752" style="stroke:#000000;stroke-width:0.1;"/>
                <!-- Line -->
                <path d="M324.7754,1911.1701 L431.5605,1911.1701 " style="stroke:#000000;stroke-width:0.1;"/>
            </g>
            <!-- Block Reference: A$C51F1 / entities: 31 -->
            <g>
                <!-- Polyline -->
                <path d="M1962.7678,1999.1327 A216.619,216.619 0 0 0 1972.3516,1911.7469 A1180.69,1180.69 0 0 1 1956.7781,1534.5174 A22.2032,22.2032 0 0 1 1981.2032,1537.4456 A12.0328,12.0328 0 0 0 1990.3468,1538.1083 A480.879,480.879 0 0 1 2044.4143,1534.5174 L2174.4596,1534.5174 L2304.5049,1534.5174 A480.879,480.879 0 0 1 2358.5724,1538.1083 A12.0328,12.0328 0 0 0 2367.716,1537.4456 A22.2032,22.2032 0 0 1 2392.1411,1534.5174 A1180.69,1180.69 0 0 1 2376.5677,1911.7469 A216.619,216.619 0 0 0 2386.1514,1999.1327 A12.6008,12.6008 0 0 1 2375.3699,2018.3174 L1973.5493,2018.3174 A12.6008,12.6008 0 0 1 1962.7678,1999.1327 Z" style="stroke:#000000;stroke-width:0.1;"/>
                <!-- Line -->
                <path d="M2174.1438,1911.1701 L2280.9288,1911.1701 " style="stroke:#000000;stroke-width:0.1;"/>
                <!-- Arc -->
                <path d="M2351.893,1906.2752 A1154.4088,1154.4088 0 0,0 2367.1198,1537.4413" style="stroke:#000000;stroke-width:0.1;"/>
                <!-- Arc -->
                <path d="M2351.5053,1908.8671 A240.8687,240.8687 0 0,0 2359.7045,1997.9798" style="stroke:#000000;stroke-width:0.1;"/>
                <!-- Line -->
                <path d="M2174.1438,1993.0512 L2357.5652,1993.0512 " style="stroke:#000000;stroke-width:0.1;"/>
                <!-- Line -->
                <path d="M2174.1438,2001.2393 L2357.8873,2001.2393 " style="stroke:#000000;stroke-width:0.1;"/>
                <!-- Arc -->
                <path d="M2357.8873,2001.2393 A2.4177,2.4177 0 0,0 2359.7045,1997.9798" style="stroke:#000000;stroke-width:0.1;"/>
                <!-- Arc -->
                <path d="M2340.4927,1890.2668 A317.3163,317.3163 0 0,0 2355.221,1979.6052" style="stroke:#000000;stroke-width:0.1;"/>
                <!-- Arc -->
                <path d="M2280.9288,1911.1701 A97.8312,97.8312 0 0,0 2358.3761,1871.9561" style="stroke:#000000;stroke-width:0.1;"/>
                <!-- Arc -->
                <path d="M2357.4988,1993.0512 A0.7251,0.7251 0 0,0 2358.2235,1992.1085" style="stroke:#000000;stroke-width:0.1;"/>
                <!-- Line -->
                <path d="M2174.1438,1992.2324 L2357.5652,1992.2324 " style="stroke:#000000;stroke-width:0.1;"/>
                <!-- Arc -->
                <path d="M2357.5652,1992.2324 A0.4331,0.4331 0 0,0 2358.1282,1991.7516" style="stroke:#000000;stroke-width:0.1;"/>
                <!-- Arc -->
                <path d="M2357.9895,1538.1031 A12.0153,12.0153 0 0,0 2367.1198,1537.4413" style="stroke:#000000;stroke-width:0.1;"/>
                <!-- Line -->
                <path d="M2357.9895,1538.1031 L2359.7545,1557.5042 " style="stroke:#000000;stroke-width:0.1;"/>
                <!-- Line -->
                <path d="M2359.7545,1557.5042 L2368.8968,1553.1767 " style="stroke:#000000;stroke-width:0.1;"/>
                <!-- Line -->
                <path d="M2359.7545,1557.5042 L2369.3473,1557.5042 " style="stroke:#000000;stroke-width:0.1;"/>
                <!-- Line -->
                <path d="M1988.5331,1557.5042 L1978.9403,1557.5042 " style="stroke:#000000;stroke-width:0.1;"/>
                <!-- Line -->
                <path d="M1988.5331,1557.5042 L1979.3908,1553.1767 " style="stroke:#000000;stroke-width:0.1;"/>
                <!-- Line -->
                <path d="M1990.2981,1538.1031 L1988.5331,1557.5042 " style="stroke:#000000;stroke-width:0.1;"/>
                <!-- Arc -->
                <path d="M1981.1678,1537.4413 A12.0153,12.0153 0 0,0 1990.2981,1538.1031" style="stroke:#000000;stroke-width:0.1;"/>
                <!-- Arc -->
                <path d="M1990.1594,1991.7516 A0.4331,0.4331 0 0,0 1990.7224,1992.2324" style="stroke:#000000;stroke-width:0.1;"/>
                <!-- Line -->
                <path d="M2174.1438,1992.2324 L1990.7224,1992.2324 " style="stroke:#000000;stroke-width:0.1;"/>
                <!-- Arc -->
                <path d="M1990.0641,1992.1085 A0.7251,0.7251 0 0,0 1990.7888,1993.0512" style="stroke:#000000;stroke-width:0.1;"/>
                <!-- Arc -->
                <path d="M1989.9115,1871.9561 A97.8312,97.8312 0 0,0 2067.3588,1911.1701" style="stroke:#000000;stroke-width:0.1;"/>
                <!-- Arc -->
                <path d="M1993.0666,1979.6052 A317.3163,317.3163 0 0,0 2007.7949,1890.2668" style="stroke:#000000;stroke-width:0.1;"/>
                <!-- Arc -->
                <path d="M1988.5831,1997.9798 A2.4177,2.4177 0 0,0 1990.4003,2001.2393" style="stroke:#000000;stroke-width:0.1;"/>
                <!-- Line -->
                <path d="M2174.1438,2001.2393 L1990.4003,2001.2393 " style="stroke:#000000;stroke-width:0.1;"/>
                <!-- Line -->
                <path d="M2174.1438,1993.0512 L1990.7224,1993.0512 " style="stroke:#000000;stroke-width:0.1;"/>
                <!-- Arc -->
                <path d="M1988.5831,1997.9798 A240.8687,240.8687 0 0,0 1996.7823,1908.8671" style="stroke:#000000;stroke-width:0.1;"/>
                <!-- Arc -->
                <path d="M1981.1678,1537.4413 A1154.4088,1154.4088 0 0,0 1996.3946,1906.2752" style="stroke:#000000;stroke-width:0.1;"/>
                <!-- Line -->
                <path d="M2174.1438,1911.1701 L2067.3588,1911.1701 " style="stroke:#000000;stroke-width:0.1;"/>
            </g>
            <!-- Block Reference: A$C51F1 / entities: 31 -->
            <g>
                <!-- Polyline -->
                <path d="M1312.7678,19.9021 A216.619,216.619 0 0 1 1322.3516,107.2879 A1180.69,1180.69 0 0 0 1306.7781,484.5174 A22.2032,22.2032 0 0 0 1331.2032,481.5892 A12.0328,12.0328 0 0 1 1340.3468,480.9265 A480.879,480.879 0 0 0 1394.4143,484.5174 L1524.4596,484.5174 L1654.5049,484.5174 A480.879,480.879 0 0 0 1708.5724,480.9265 A12.0328,12.0328 0 0 1 1717.716,481.5892 A22.2032,22.2032 0 0 0 1742.1411,484.5174 A1180.69,1180.69 0 0 0 1726.5677,107.2879 A216.619,216.619 0 0 1 1736.1514,19.9021 A12.6008,12.6008 0 0 0 1725.3699,0.7174 L1323.5493,0.7174 A12.6008,12.6008 0 0 0 1312.7678,19.9021 Z" style="stroke:#000000;stroke-width:0.1;"/>
                <!-- Line -->
                <path d="M1524.1438,107.8646 L1630.9288,107.8646 " style="stroke:#000000;stroke-width:0.1;"/>
                <!-- Arc -->
                <path d="M1701.893,112.7595 A1154.4088,1154.4088 0 0,1 1717.1198,481.5934" style="stroke:#000000;stroke-width:0.1;"/>
                <!-- Arc -->
                <path d="M1701.5053,110.1676 A240.8687,240.8687 0 0,1 1709.7045,21.055" style="stroke:#000000;stroke-width:0.1;"/>
                <!-- Line -->
                <path d="M1524.1438,25.9836 L1707.5652,25.9836 " style="stroke:#000000;stroke-width:0.1;"/>
                <!-- Line -->
                <path d="M1524.1438,17.7955 L1707.8873,17.7955 " style="stroke:#000000;stroke-width:0.1;"/>
                <!-- Arc -->
                <path d="M1707.8873,17.7955 A2.4177,2.4177 0 0,1 1709.7045,21.055" style="stroke:#000000;stroke-width:0.1;"/>
                <!-- Arc -->
                <path d="M1690.4927,128.768 A317.3163,317.3163 0 0,1 1705.221,39.4296" style="stroke:#000000;stroke-width:0.1;"/>
                <!-- Arc -->
                <path d="M1630.9288,107.8646 A97.8312,97.8312 0 0,1 1708.3761,147.0786" style="stroke:#000000;stroke-width:0.1;"/>
                <!-- Arc -->
                <path d="M1707.4988,25.9836 A0.7251,0.7251 0 0,1 1708.2235,26.9262" style="stroke:#000000;stroke-width:0.1;"/>
                <!-- Line -->
                <path d="M1524.1438,26.8024 L1707.5652,26.8024 " style="stroke:#000000;stroke-width:0.1;"/>
                <!-- Arc -->
                <path d="M1707.5652,26.8024 A0.4331,0.4331 0 0,1 1708.1282,27.2832" style="stroke:#000000;stroke-width:0.1;"/>
                <!-- Arc -->
                <path d="M1707.9895,480.9317 A12.0153,12.0153 0 0,1 1717.1198,481.5934" style="stroke:#000000;stroke-width:0.1;"/>
                <!-- Line -->
                <path d="M1707.9895,480.9317 L1709.7545,461.5306 " style="stroke:#000000;stroke-width:0.1;"/>
                <!-- Line -->
                <path d="M1709.7545,461.5306 L1718.8968,465.858 " style="stroke:#000000;stroke-width:0.1;"/>
                <!-- Line -->
                <path d="M1709.7545,461.5306 L1719.3473,461.5306 " style="stroke:#000000;stroke-width:0.1;"/>
                <!-- Line -->
                <path d="M1338.5331,461.5306 L1328.9403,461.5306 " style="stroke:#000000;stroke-width:0.1;"/>
                <!-- Line -->
                <path d="M1338.5331,461.5306 L1329.3908,465.858 " style="stroke:#000000;stroke-width:0.1;"/>
                <!-- Line -->
                <path d="M1340.2981,480.9317 L1338.5331,461.5306 " style="stroke:#000000;stroke-width:0.1;"/>
                <!-- Arc -->
                <path d="M1331.1678,481.5934 A12.0153,12.0153 0 0,1 1340.2981,480.9317" style="stroke:#000000;stroke-width:0.1;"/>
                <!-- Arc -->
                <path d="M1340.1594,27.2832 A0.4331,0.4331 0 0,1 1340.7224,26.8024" style="stroke:#000000;stroke-width:0.1;"/>
                <!-- Line -->
                <path d="M1524.1438,26.8024 L1340.7224,26.8024 " style="stroke:#000000;stroke-width:0.1;"/>
                <!-- Arc -->
                <path d="M1340.0641,26.9262 A0.7251,0.7251 0 0,1 1340.7888,25.9836" style="stroke:#000000;stroke-width:0.1;"/>
                <!-- Arc -->
                <path d="M1339.9115,147.0786 A97.8312,97.8312 0 0,1 1417.3588,107.8646" style="stroke:#000000;stroke-width:0.1;"/>
                <!-- Arc -->
                <path d="M1343.0666,39.4296 A317.3163,317.3163 0 0,1 1357.7949,128.768" style="stroke:#000000;stroke-width:0.1;"/>
                <!-- Arc -->
                <path d="M1338.5831,21.055 A2.4177,2.4177 0 0,1 1340.4003,17.7955" style="stroke:#000000;stroke-width:0.1;"/>
                <!-- Line -->
                <path d="M1524.1438,17.7955 L1340.4003,17.7955 " style="stroke:#000000;stroke-width:0.1;"/>
                <!-- Line -->
                <path d="M1524.1438,25.9836 L1340.7224,25.9836 " style="stroke:#000000;stroke-width:0.1;"/>
                <!-- Arc -->
                <path d="M1338.5831,21.055 A240.8687,240.8687 0 0,1 1346.7823,110.1676" style="stroke:#000000;stroke-width:0.1;"/>
                <!-- Arc -->
                <path d="M1331.1678,481.5934 A1154.4088,1154.4088 0 0,1 1346.3946,112.7595" style="stroke:#000000;stroke-width:0.1;"/>
                <!-- Line -->
                <path d="M1524.1438,107.8646 L1417.3588,107.8646 " style="stroke:#000000;stroke-width:0.1;"/>
            </g>
            <!-- Block Reference: A$C51F1 / entities: 31 -->
            <g>
                <!-- Polyline -->
                <path d="M1136.1514,19.9021 A216.619,216.619 0 0 0 1126.5677,107.2879 A1180.69,1180.69 0 0 1 1142.1411,484.5174 A22.2032,22.2032 0 0 1 1117.716,481.5892 A12.0328,12.0328 0 0 0 1108.5724,480.9265 A480.879,480.879 0 0 1 1054.5049,484.5174 L924.4596,484.5174 L794.4143,484.5174 A480.879,480.879 0 0 1 740.3468,480.9265 A12.0328,12.0328 0 0 0 731.2032,481.5892 A22.2032,22.2032 0 0 1 706.7781,484.5174 A1180.69,1180.69 0 0 1 722.3516,107.2879 A216.619,216.619 0 0 0 712.7678,19.9021 A12.6008,12.6008 0 0 1 723.5493,0.7174 L1125.3699,0.7174 A12.6008,12.6008 0 0 1 1136.1514,19.9021 Z" style="stroke:#000000;stroke-width:0.1;"/>
                <!-- Line -->
                <path d="M924.7754,107.8646 L817.9904,107.8646 " style="stroke:#000000;stroke-width:0.1;"/>
                <!-- Arc -->
                <path d="M747.0263,112.7595 A1154.4088,1154.4088 0 0,0 731.7994,481.5934" style="stroke:#000000;stroke-width:0.1;"/>
                <!-- Arc -->
                <path d="M747.4139,110.1676 A240.8687,240.8687 0 0,0 739.2147,21.055" style="stroke:#000000;stroke-width:0.1;"/>
                <!-- Line -->
                <path d="M924.7754,25.9836 L741.354,25.9836 " style="stroke:#000000;stroke-width:0.1;"/>
                <!-- Line -->
                <path d="M924.7754,17.7955 L741.0319,17.7955 " style="stroke:#000000;stroke-width:0.1;"/>
                <!-- Arc -->
                <path d="M741.0319,17.7955 A2.4177,2.4177 0 0,0 739.2147,21.055" style="stroke:#000000;stroke-width:0.1;"/>
                <!-- Arc -->
                <path d="M758.4266,128.768 A317.3163,317.3163 0 0,0 743.6982,39.4296" style="stroke:#000000;stroke-width:0.1;"/>
                <!-- Arc -->
                <path d="M817.9904,107.8646 A97.8312,97.8312 0 0,0 740.5431,147.0786" style="stroke:#000000;stroke-width:0.1;"/>
                <!-- Arc -->
                <path d="M741.4204,25.9836 A0.7251,0.7251 0 0,0 740.6958,26.9262" style="stroke:#000000;stroke-width:0.1;"/>
                <!-- Line -->
                <path d="M924.7754,26.8024 L741.354,26.8024 " style="stroke:#000000;stroke-width:0.1;"/>
                <!-- Arc -->
                <path d="M741.354,26.8024 A0.4331,0.4331 0 0,0 740.7911,27.2832" style="stroke:#000000;stroke-width:0.1;"/>
                <!-- Arc -->
                <path d="M740.9297,480.9317 A12.0153,12.0153 0 0,0 731.7994,481.5934" style="stroke:#000000;stroke-width:0.1;"/>
                <!-- Line -->
                <path d="M740.9297,480.9317 L739.1647,461.5306 " style="stroke:#000000;stroke-width:0.1;"/>
                <!-- Line -->
                <path d="M739.1647,461.5306 L730.0224,465.858 " style="stroke:#000000;stroke-width:0.1;"/>
                <!-- Line -->
                <path d="M739.1647,461.5306 L729.572,461.5306 " style="stroke:#000000;stroke-width:0.1;"/>
                <!-- Line -->
                <path d="M1110.3862,461.5306 L1119.9789,461.5306 " style="stroke:#000000;stroke-width:0.1;"/>
                <!-- Line -->
                <path d="M1110.3862,461.5306 L1119.5285,465.858 " style="stroke:#000000;stroke-width:0.1;"/>
                <!-- Line -->
                <path d="M1108.6211,480.9317 L1110.3862,461.5306 " style="stroke:#000000;stroke-width:0.1;"/>
                <!-- Arc -->
                <path d="M1117.7514,481.5934 A12.0153,12.0153 0 0,0 1108.6211,480.9317" style="stroke:#000000;stroke-width:0.1;"/>
                <!-- Arc -->
                <path d="M1108.7598,27.2832 A0.4331,0.4331 0 0,0 1108.1968,26.8024" style="stroke:#000000;stroke-width:0.1;"/>
                <!-- Line -->
                <path d="M924.7754,26.8024 L1108.1968,26.8024 " style="stroke:#000000;stroke-width:0.1;"/>
                <!-- Arc -->
                <path d="M1108.8551,26.9262 A0.7251,0.7251 0 0,0 1108.1304,25.9836" style="stroke:#000000;stroke-width:0.1;"/>
                <!-- Arc -->
                <path d="M1109.0078,147.0786 A97.8312,97.8312 0 0,0 1031.5605,107.8646" style="stroke:#000000;stroke-width:0.1;"/>
                <!-- Arc -->
                <path d="M1105.8527,39.4296 A317.3163,317.3163 0 0,0 1091.1243,128.768" style="stroke:#000000;stroke-width:0.1;"/>
                <!-- Arc -->
                <path d="M1110.3362,21.055 A2.4177,2.4177 0 0,0 1108.5189,17.7955" style="stroke:#000000;stroke-width:0.1;"/>
                <!-- Line -->
                <path d="M924.7754,17.7955 L1108.5189,17.7955 " style="stroke:#000000;stroke-width:0.1;"/>
                <!-- Line -->
                <path d="M924.7754,25.9836 L1108.1968,25.9836 " style="stroke:#000000;stroke-width:0.1;"/>
                <!-- Arc -->
                <path d="M1110.3362,21.055 A240.8687,240.8687 0 0,0 1102.1369,110.1676" style="stroke:#000000;stroke-width:0.1;"/>
                <!-- Arc -->
                <path d="M1117.7514,481.5934 A1154.4088,1154.4088 0 0,0 1102.5246,112.7595" style="stroke:#000000;stroke-width:0.1;"/>
                <!-- Line -->
                <path d="M924.7754,107.8646 L1031.5605,107.8646 " style="stroke:#000000;stroke-width:0.1;"/>
            </g>
            <!-- Block Reference: A$C51F1 / entities: 31 -->
            <g>
                <!-- Polyline -->
                <path d="M536.1514,19.9021 A216.619,216.619 0 0 0 526.5677,107.2879 A1180.69,1180.69 0 0 1 542.1411,484.5174 A22.2032,22.2032 0 0 1 517.716,481.5892 A12.0328,12.0328 0 0 0 508.5724,480.9265 A480.879,480.879 0 0 1 454.5049,484.5174 L324.4596,484.5174 L194.4143,484.5174 A480.879,480.879 0 0 1 140.3468,480.9265 A12.0328,12.0328 0 0 0 131.2032,481.5892 A22.2032,22.2032 0 0 1 106.7781,484.5174 A1180.69,1180.69 0 0 1 122.3516,107.2879 A216.619,216.619 0 0 0 112.7678,19.9021 A12.6008,12.6008 0 0 1 123.5493,0.7174 L525.3699,0.7174 A12.6008,12.6008 0 0 1 536.1514,19.9021 Z" style="stroke:#000000;stroke-width:0.1;"/>
                <!-- Line -->
                <path d="M324.7754,107.8646 L217.9904,107.8646 " style="stroke:#000000;stroke-width:0.1;"/>
                <!-- Arc -->
                <path d="M147.0263,112.7595 A1154.4088,1154.4088 0 0,0 131.7994,481.5934" style="stroke:#000000;stroke-width:0.1;"/>
                <!-- Arc -->
                <path d="M147.4139,110.1676 A240.8687,240.8687 0 0,0 139.2147,21.055" style="stroke:#000000;stroke-width:0.1;"/>
                <!-- Line -->
                <path d="M324.7754,25.9836 L141.354,25.9836 " style="stroke:#000000;stroke-width:0.1;"/>
                <!-- Line -->
                <path d="M324.7754,17.7955 L141.0319,17.7955 " style="stroke:#000000;stroke-width:0.1;"/>
                <!-- Arc -->
                <path d="M141.0319,17.7955 A2.4177,2.4177 0 0,0 139.2147,21.055" style="stroke:#000000;stroke-width:0.1;"/>
                <!-- Arc -->
                <path d="M158.4266,128.768 A317.3163,317.3163 0 0,0 143.6982,39.4296" style="stroke:#000000;stroke-width:0.1;"/>
                <!-- Arc -->
                <path d="M217.9904,107.8646 A97.8312,97.8312 0 0,0 140.5431,147.0786" style="stroke:#000000;stroke-width:0.1;"/>
                <!-- Arc -->
                <path d="M141.4204,25.9836 A0.7251,0.7251 0 0,0 140.6958,26.9262" style="stroke:#000000;stroke-width:0.1;"/>
                <!-- Line -->
                <path d="M324.7754,26.8024 L141.354,26.8024 " style="stroke:#000000;stroke-width:0.1;"/>
                <!-- Arc -->
                <path d="M141.354,26.8024 A0.4331,0.4331 0 0,0 140.7911,27.2832" style="stroke:#000000;stroke-width:0.1;"/>
                <!-- Arc -->
                <path d="M140.9297,480.9317 A12.0153,12.0153 0 0,0 131.7994,481.5934" style="stroke:#000000;stroke-width:0.1;"/>
                <!-- Line -->
                <path d="M140.9297,480.9317 L139.1647,461.5306 " style="stroke:#000000;stroke-width:0.1;"/>
                <!-- Line -->
                <path d="M139.1647,461.5306 L130.0224,465.858 " style="stroke:#000000;stroke-width:0.1;"/>
                <!-- Line -->
                <path d="M139.1647,461.5306 L129.572,461.5306 " style="stroke:#000000;stroke-width:0.1;"/>
                <!-- Line -->
                <path d="M510.3862,461.5306 L519.9789,461.5306 " style="stroke:#000000;stroke-width:0.1;"/>
                <!-- Line -->
                <path d="M510.3862,461.5306 L519.5285,465.858 " style="stroke:#000000;stroke-width:0.1;"/>
                <!-- Line -->
                <path d="M508.6211,480.9317 L510.3862,461.5306 " style="stroke:#000000;stroke-width:0.1;"/>
                <!-- Arc -->
                <path d="M517.7514,481.5934 A12.0153,12.0153 0 0,0 508.6211,480.9317" style="stroke:#000000;stroke-width:0.1;"/>
                <!-- Arc -->
                <path d="M508.7598,27.2832 A0.4331,0.4331 0 0,0 508.1968,26.8024" style="stroke:#000000;stroke-width:0.1;"/>
                <!-- Line -->
                <path d="M324.7754,26.8024 L508.1968,26.8024 " style="stroke:#000000;stroke-width:0.1;"/>
                <!-- Arc -->
                <path d="M508.8551,26.9262 A0.7251,0.7251 0 0,0 508.1304,25.9836" style="stroke:#000000;stroke-width:0.1;"/>
                <!-- Arc -->
                <path d="M509.0078,147.0786 A97.8312,97.8312 0 0,0 431.5605,107.8646" style="stroke:#000000;stroke-width:0.1;"/>
                <!-- Arc -->
                <path d="M505.8527,39.4296 A317.3163,317.3163 0 0,0 491.1243,128.768" style="stroke:#000000;stroke-width:0.1;"/>
                <!-- Arc -->
                <path d="M510.3362,21.055 A2.4177,2.4177 0 0,0 508.5189,17.7955" style="stroke:#000000;stroke-width:0.1;"/>
                <!-- Line -->
                <path d="M324.7754,17.7955 L508.5189,17.7955 " style="stroke:#000000;stroke-width:0.1;"/>
                <!-- Line -->
                <path d="M324.7754,25.9836 L508.1968,25.9836 " style="stroke:#000000;stroke-width:0.1;"/>
                <!-- Arc -->
                <path d="M510.3362,21.055 A240.8687,240.8687 0 0,0 502.1369,110.1676" style="stroke:#000000;stroke-width:0.1;"/>
                <!-- Arc -->
                <path d="M517.7514,481.5934 A1154.4088,1154.4088 0 0,0 502.5246,112.7595" style="stroke:#000000;stroke-width:0.1;"/>
                <!-- Line -->
                <path d="M324.7754,107.8646 L431.5605,107.8646 " style="stroke:#000000;stroke-width:0.1;"/>
            </g>
            <!-- Block Reference: A$C51F1 / entities: 31 -->
            <g>
                <!-- Polyline -->
                <path d="M1962.7678,19.9021 A216.619,216.619 0 0 1 1972.3516,107.2879 A1180.69,1180.69 0 0 0 1956.7781,484.5174 A22.2032,22.2032 0 0 0 1981.2032,481.5892 A12.0328,12.0328 0 0 1 1990.3468,480.9265 A480.879,480.879 0 0 0 2044.4143,484.5174 L2174.4596,484.5174 L2304.5049,484.5174 A480.879,480.879 0 0 0 2358.5724,480.9265 A12.0328,12.0328 0 0 1 2367.716,481.5892 A22.2032,22.2032 0 0 0 2392.1411,484.5174 A1180.69,1180.69 0 0 0 2376.5677,107.2879 A216.619,216.619 0 0 1 2386.1514,19.9021 A12.6008,12.6008 0 0 0 2375.3699,0.7174 L1973.5493,0.7174 A12.6008,12.6008 0 0 0 1962.7678,19.9021 Z" style="stroke:#000000;stroke-width:0.1;"/>
                <!-- Line -->
                <path d="M2174.1438,107.8646 L2280.9288,107.8646 " style="stroke:#000000;stroke-width:0.1;"/>
                <!-- Arc -->
                <path d="M2351.893,112.7595 A1154.4088,1154.4088 0 0,1 2367.1198,481.5934" style="stroke:#000000;stroke-width:0.1;"/>
                <!-- Arc -->
                <path d="M2351.5053,110.1676 A240.8687,240.8687 0 0,1 2359.7045,21.055" style="stroke:#000000;stroke-width:0.1;"/>
                <!-- Line -->
                <path d="M2174.1438,25.9836 L2357.5652,25.9836 " style="stroke:#000000;stroke-width:0.1;"/>
                <!-- Line -->
                <path d="M2174.1438,17.7955 L2357.8873,17.7955 " style="stroke:#000000;stroke-width:0.1;"/>
                <!-- Arc -->
                <path d="M2357.8873,17.7955 A2.4177,2.4177 0 0,1 2359.7045,21.055" style="stroke:#000000;stroke-width:0.1;"/>
                <!-- Arc -->
                <path d="M2340.4927,128.768 A317.3163,317.3163 0 0,1 2355.221,39.4296" style="stroke:#000000;stroke-width:0.1;"/>
                <!-- Arc -->
                <path d="M2280.9288,107.8646 A97.8312,97.8312 0 0,1 2358.3761,147.0786" style="stroke:#000000;stroke-width:0.1;"/>
                <!-- Arc -->
                <path d="M2357.4988,25.9836 A0.7251,0.7251 0 0,1 2358.2235,26.9262" style="stroke:#000000;stroke-width:0.1;"/>
                <!-- Line -->
                <path d="M2174.1438,26.8024 L2357.5652,26.8024 " style="stroke:#000000;stroke-width:0.1;"/>
                <!-- Arc -->
                <path d="M2357.5652,26.8024 A0.4331,0.4331 0 0,1 2358.1282,27.2832" style="stroke:#000000;stroke-width:0.1;"/>
                <!-- Arc -->
                <path d="M2357.9895,480.9317 A12.0153,12.0153 0 0,1 2367.1198,481.5934" style="stroke:#000000;stroke-width:0.1;"/>
                <!-- Line -->
                <path d="M2357.9895,480.9317 L2359.7545,461.5306 " style="stroke:#000000;stroke-width:0.1;"/>
                <!-- Line -->
                <path d="M2359.7545,461.5306 L2368.8968,465.858 " style="stroke:#000000;stroke-width:0.1;"/>
                <!-- Line -->
                <path d="M2359.7545,461.5306 L2369.3473,461.5306 " style="stroke:#000000;stroke-width:0.1;"/>
                <!-- Line -->
                <path d="M1988.5331,461.5306 L1978.9403,461.5306 " style="stroke:#000000;stroke-width:0.1;"/>
                <!-- Line -->
                <path d="M1988.5331,461.5306 L1979.3908,465.858 " style="stroke:#000000;stroke-width:0.1;"/>
                <!-- Line -->
                <path d="M1990.2981,480.9317 L1988.5331,461.5306 " style="stroke:#000000;stroke-width:0.1;"/>
                <!-- Arc -->
                <path d="M1981.1678,481.5934 A12.0153,12.0153 0 0,1 1990.2981,480.9317" style="stroke:#000000;stroke-width:0.1;"/>
                <!-- Arc -->
                <path d="M1990.1594,27.2832 A0.4331,0.4331 0 0,1 1990.7224,26.8024" style="stroke:#000000;stroke-width:0.1;"/>
                <!-- Line -->
                <path d="M2174.1438,26.8024 L1990.7224,26.8024 " style="stroke:#000000;stroke-width:0.1;"/>
                <!-- Arc -->
                <path d="M1990.0641,26.9262 A0.7251,0.7251 0 0,1 1990.7888,25.9836" style="stroke:#000000;stroke-width:0.1;"/>
                <!-- Arc -->
                <path d="M1989.9115,147.0786 A97.8312,97.8312 0 0,1 2067.3588,107.8646" style="stroke:#000000;stroke-width:0.1;"/>
                <!-- Arc -->
                <path d="M1993.0666,39.4296 A317.3163,317.3163 0 0,1 2007.7949,128.768" style="stroke:#000000;stroke-width:0.1;"/>
                <!-- Arc -->
                <path d="M1988.5831,21.055 A2.4177,2.4177 0 0,1 1990.4003,17.7955" style="stroke:#000000;stroke-width:0.1;"/>
                <!-- Line -->
                <path d="M2174.1438,17.7955 L1990.4003,17.7955 " style="stroke:#000000;stroke-width:0.1;"/>
                <!-- Line -->
                <path d="M2174.1438,25.9836 L1990.7224,25.9836 " style="stroke:#000000;stroke-width:0.1;"/>
                <!-- Arc -->
                <path d="M1988.5831,21.055 A240.8687,240.8687 0 0,1 1996.7823,110.1676" style="stroke:#000000;stroke-width:0.1;"/>
                <!-- Arc -->
                <path d="M1981.1678,481.5934 A1154.4088,1154.4088 0 0,1 1996.3946,112.7595" style="stroke:#000000;stroke-width:0.1;"/>
                <!-- Line -->
                <path d="M2174.1438,107.8646 L2067.3588,107.8646 " style="stroke:#000000;stroke-width:0.1;"/>
            </g>
            <!-- Polyline -->
            <path d="M19.4596,529.5174 L2479.4596,529.5174 L2479.4596,1489.5174 L19.4596,1489.5174 Z" style="stroke:#000000;stroke-width:0.1;"/>
            <!-- Polyline -->
            <path d="M-0.5404,509.5174 L2499.4596,509.5174 L2499.4596,1509.5174 L-0.5404,1509.5174 Z" style="stroke:#000000;stroke-width:0.1;"/>
        </g>
    </g>
</svg>

