<?xml version="1.0" encoding="UTF-8"?>
<!-- 2026-03-10 13:19:08 Generated by QCAD 3.32.6 SVG Exporter -->
<svg  width="2278.2404mm" height="2278.2404mm" viewBox="-8.5935 -2270.7468 2278.2404 2278.2404" version="1.1" xmlns="http://www.w3.org/2000/svg" style="stroke-linecap:round;stroke-linejoin:round;">
    <g transform="scale(1,-1)">
            <!-- Auto-generated fillable area -->
            <!-- Block Reference: 8 seater round table 1350mm / entities: 3 -->
        <g>
            <!-- Circle -->
            <circle cx="1130.526674916986" cy="1131.626610800648" r="605" style="stroke:#000000;stroke-width:0.1;"/>
            <!-- Circle -->
            <circle cx="1130.526674916986" cy="1131.626610800648" r="625" style="stroke:#000000;stroke-width:0.1;"/>
            <!-- Block Reference: *U12 / entities: 8 -->
            <g>
                <!-- Block Reference: *U11 / entities: 2 -->
                <g>
                    <!-- Polyline -->
                    <path d="M1340.4429,2251.5621 A216.619,216.619 0 0 1 1330.8591,2164.1763 A1180.69,1180.69 0 0 0 1346.4326,1786.9468 A22.2032,22.2032 0 0 0 1322.0074,1789.875 A12.0328,12.0328 0 0 1 1312.8639,1790.5377 A480.879,480.879 0 0 0 1258.7963,1786.9468 L1128.7511,1786.9468 L998.7058,1786.9468 A480.879,480.879 0 0 0 944.6383,1790.5377 A12.0328,12.0328 0 0 1 935.4947,1789.875 A22.2032,22.2032 0 0 0 911.0696,1786.9468 A1180.69,1180.69 0 0 0 926.643,2164.1763 A216.619,216.619 0 0 1 917.0593,2251.5621 A12.6008,12.6008 0 0 0 927.8408,2270.7468 L1329.6614,2270.7468 A12.6008,12.6008 0 0 0 1340.4429,2251.5621 Z" style="stroke:#000000;stroke-width:0.1;"/>
                    <!-- Block Reference: A$C2C166547 / entities: 30 -->
                    <g>
                        <!-- Arc -->
                        <path d="M1310.1441,2232.0346 A317.3163,317.3163 0 0,1 1295.4158,2142.6961" style="stroke:#000000;stroke-width:0.1;"/>
                        <!-- Arc -->
                        <path d="M1313.2992,2124.3855 A97.8312,97.8312 0 0,1 1235.8519,2163.5995" style="stroke:#000000;stroke-width:0.1;"/>
                        <!-- Arc -->
                        <path d="M1022.2818,2163.5995 A97.8312,97.8312 0 0,1 944.8346,2124.3855" style="stroke:#000000;stroke-width:0.1;"/>
                        <!-- Arc -->
                        <path d="M962.718,2142.6961 A317.3163,317.3163 0 0,1 947.9897,2232.0346" style="stroke:#000000;stroke-width:0.1;"/>
                        <!-- Polyline -->
                        <path d="M951.3177,2158.7046 A1154.41,1154.41 0 0 1 936.0909,1789.8707" style="stroke:#000000;stroke-width:0.1;"/>
                        <!-- Line -->
                        <path d="M943.4562,1809.9336 L933.8634,1809.9336 " style="stroke:#000000;stroke-width:0.1;"/>
                        <!-- Line -->
                        <path d="M943.4562,1809.9336 L934.3139,1805.6061 " style="stroke:#000000;stroke-width:0.1;"/>
                        <!-- Line -->
                        <path d="M945.2212,1790.5325 L943.4562,1809.9336 " style="stroke:#000000;stroke-width:0.1;"/>
                        <!-- Arc -->
                        <path d="M945.2212,1790.5325 A12.0153,12.0153 0 0,1 936.0909,1789.8707" style="stroke:#000000;stroke-width:0.1;"/>
                        <!-- Arc -->
                        <path d="M1322.0429,1789.8707 A1154.4088,1154.4088 0 0,1 1306.8161,2158.7046" style="stroke:#000000;stroke-width:0.1;"/>
                        <!-- Arc -->
                        <path d="M1322.0429,1789.8707 A12.0153,12.0153 0 0,1 1312.9126,1790.5325" style="stroke:#000000;stroke-width:0.1;"/>
                        <!-- Line -->
                        <path d="M1312.9126,1790.5325 L1314.6776,1809.9336 " style="stroke:#000000;stroke-width:0.1;"/>
                        <!-- Line -->
                        <path d="M1314.6776,1809.9336 L1323.8199,1805.6061 " style="stroke:#000000;stroke-width:0.1;"/>
                        <!-- Line -->
                        <path d="M1314.6776,1809.9336 L1324.2704,1809.9336 " style="stroke:#000000;stroke-width:0.1;"/>
                        <!-- Line -->
                        <path d="M1129.0669,2244.6617 L945.6455,2244.6617 " style="stroke:#000000;stroke-width:0.1;"/>
                        <!-- Line -->
                        <path d="M1129.0669,2253.6687 L945.3234,2253.6687 " style="stroke:#000000;stroke-width:0.1;"/>
                        <!-- Line -->
                        <path d="M1129.0669,2245.4806 L945.6455,2245.4806 " style="stroke:#000000;stroke-width:0.1;"/>
                        <!-- Line -->
                        <path d="M1129.0669,2163.5995 L1022.2818,2163.5995 " style="stroke:#000000;stroke-width:0.1;"/>
                        <!-- Arc -->
                        <path d="M945.6455,2244.6617 A0.4331,0.4331 0 0,1 945.0825,2244.181" style="stroke:#000000;stroke-width:0.1;"/>
                        <!-- Arc -->
                        <path d="M945.7119,2245.4806 A0.7251,0.7251 0 0,1 944.9872,2244.5379" style="stroke:#000000;stroke-width:0.1;"/>
                        <!-- Arc -->
                        <path d="M945.3234,2253.6687 A2.4177,2.4177 0 0,1 943.5062,2250.4091" style="stroke:#000000;stroke-width:0.1;"/>
                        <!-- Arc -->
                        <path d="M951.7054,2161.2965 A240.8687,240.8687 0 0,1 943.5062,2250.4091" style="stroke:#000000;stroke-width:0.1;"/>
                        <!-- Line -->
                        <path d="M1129.0669,2163.5995 L1235.8519,2163.5995 " style="stroke:#000000;stroke-width:0.1;"/>
                        <!-- Arc -->
                        <path d="M1314.6276,2250.4091 A240.8687,240.8687 0 0,1 1306.4284,2161.2965" style="stroke:#000000;stroke-width:0.1;"/>
                        <!-- Line -->
                        <path d="M1129.0669,2245.4806 L1312.4883,2245.4806 " style="stroke:#000000;stroke-width:0.1;"/>
                        <!-- Line -->
                        <path d="M1129.0669,2253.6687 L1312.8104,2253.6687 " style="stroke:#000000;stroke-width:0.1;"/>
                        <!-- Arc -->
                        <path d="M1314.6276,2250.4091 A2.4177,2.4177 0 0,1 1312.8104,2253.6687" style="stroke:#000000;stroke-width:0.1;"/>
                        <!-- Arc -->
                        <path d="M1313.1465,2244.5379 A0.7251,0.7251 0 0,1 1312.4219,2245.4806" style="stroke:#000000;stroke-width:0.1;"/>
                        <!-- Line -->
                        <path d="M1129.0669,2244.6617 L1312.4883,2244.6617 " style="stroke:#000000;stroke-width:0.1;"/>
                        <!-- Arc -->
                        <path d="M1313.0513,2244.181 A0.4331,0.4331 0 0,1 1312.4883,2244.6617" style="stroke:#000000;stroke-width:0.1;"/>
                    </g>
                </g>
                <!-- Block Reference: *U11 / entities: 2 -->
                <g>
                    <!-- Polyline -->
                    <path d="M487.0459,2071.9738 A216.619,216.619 0 0 1 542.0602,2003.4059 A1180.69,1180.69 0 0 0 819.8139,1747.6765 A22.2032,22.2032 0 0 0 800.4722,1732.4758 A12.0328,12.0328 0 0 1 793.5381,1726.479 A480.879,480.879 0 0 0 757.8457,1685.7083 L665.8898,1593.7524 L573.9339,1501.7965 A480.879,480.879 0 0 0 533.1632,1466.1042 A12.0328,12.0328 0 0 1 527.1664,1459.1701 A22.2032,22.2032 0 0 0 511.9658,1439.8284 A1180.69,1180.69 0 0 0 256.2363,1717.582 A216.619,216.619 0 0 1 187.6684,1772.5963 A12.6008,12.6008 0 0 0 181.7265,1793.7856 L465.8566,2077.9157 A12.6008,12.6008 0 0 0 487.0459,2071.9738 Z" style="stroke:#000000;stroke-width:0.1;"/>
                    <!-- Block Reference: A$C2C166547 / entities: 30 -->
                    <g>
                        <!-- Arc -->
                        <path d="M479.4295,2036.7413 A317.3163,317.3163 0 0,1 532.1868,1963.1549" style="stroke:#000000;stroke-width:0.1;"/>
                        <!-- Arc -->
                        <path d="M557.7798,1962.8529 A97.8312,97.8312 0 0,1 475.2878,1935.8179" style="stroke:#000000;stroke-width:0.1;"/>
                        <!-- Arc -->
                        <path d="M324.271,1784.801 A97.8312,97.8312 0 0,1 297.236,1702.309" style="stroke:#000000;stroke-width:0.1;"/>
                        <!-- Arc -->
                        <path d="M296.9339,1727.9021 A317.3163,317.3163 0 0,1 223.3476,1780.6594" style="stroke:#000000;stroke-width:0.1;"/>
                        <!-- Polyline -->
                        <path d="M277.553,1731.1606 A1154.41,1154.41 0 0 1 527.591,1459.5886" style="stroke:#000000;stroke-width:0.1;"/>
                        <!-- Line -->
                        <path d="M518.6124,1478.9832 L511.8293,1472.2001 " style="stroke:#000000;stroke-width:0.1;"/>
                        <!-- Line -->
                        <path d="M518.6124,1478.9832 L515.2078,1469.4587 " style="stroke:#000000;stroke-width:0.1;"/>
                        <!-- Line -->
                        <path d="M533.5791,1466.5127 L518.6124,1478.9832 " style="stroke:#000000;stroke-width:0.1;"/>
                        <!-- Arc -->
                        <path d="M533.5791,1466.5127 A12.0153,12.0153 0 0,1 527.591,1459.5886" style="stroke:#000000;stroke-width:0.1;"/>
                        <!-- Arc -->
                        <path d="M800.5002,1732.4979 A1154.4088,1154.4088 0 0,1 528.9283,1982.5359" style="stroke:#000000;stroke-width:0.1;"/>
                        <!-- Arc -->
                        <path d="M800.5002,1732.4979 A12.0153,12.0153 0 0,1 793.5762,1726.5097" style="stroke:#000000;stroke-width:0.1;"/>
                        <!-- Line -->
                        <path d="M793.5762,1726.5097 L781.1056,1741.4764 " style="stroke:#000000;stroke-width:0.1;"/>
                        <!-- Line -->
                        <path d="M781.1056,1741.4764 L790.6302,1744.8811 " style="stroke:#000000;stroke-width:0.1;"/>
                        <!-- Line -->
                        <path d="M781.1056,1741.4764 L787.8887,1748.2595 " style="stroke:#000000;stroke-width:0.1;"/>
                        <!-- Line -->
                        <path d="M342.4598,1917.6291 L212.7613,1787.9306 " style="stroke:#000000;stroke-width:0.1;"/>
                        <!-- Line -->
                        <path d="M336.0909,1923.9979 L206.1647,1794.0717 " style="stroke:#000000;stroke-width:0.1;"/>
                        <!-- Line -->
                        <path d="M341.8808,1918.2081 L212.1823,1788.5096 " style="stroke:#000000;stroke-width:0.1;"/>
                        <!-- Line -->
                        <path d="M399.7794,1860.3094 L324.271,1784.801 " style="stroke:#000000;stroke-width:0.1;"/>
                        <!-- Arc -->
                        <path d="M212.7613,1787.9306 A0.4331,0.4331 0 0,1 212.7031,1787.1925" style="stroke:#000000;stroke-width:0.1;"/>
                        <!-- Arc -->
                        <path d="M212.2292,1788.5565 A0.7251,0.7251 0 0,1 212.3833,1787.3776" style="stroke:#000000;stroke-width:0.1;"/>
                        <!-- Arc -->
                        <path d="M206.1647,1794.0717 A2.4177,2.4177 0 0,1 207.1845,1790.4819" style="stroke:#000000;stroke-width:0.1;"/>
                        <!-- Arc -->
                        <path d="M275.9944,1733.2674 A240.8687,240.8687 0 0,1 207.1845,1790.4819" style="stroke:#000000;stroke-width:0.1;"/>
                        <!-- Line -->
                        <path d="M399.7794,1860.3094 L475.2878,1935.8179 " style="stroke:#000000;stroke-width:0.1;"/>
                        <!-- Arc -->
                        <path d="M469.607,2052.9044 A240.8687,240.8687 0 0,1 526.8214,1984.0945" style="stroke:#000000;stroke-width:0.1;"/>
                        <!-- Line -->
                        <path d="M341.8808,1918.2081 L471.5793,2047.9066 " style="stroke:#000000;stroke-width:0.1;"/>
                        <!-- Line -->
                        <path d="M336.0909,1923.9979 L466.0172,2053.9242 " style="stroke:#000000;stroke-width:0.1;"/>
                        <!-- Arc -->
                        <path d="M469.607,2052.9044 A2.4177,2.4177 0 0,1 466.0172,2053.9242" style="stroke:#000000;stroke-width:0.1;"/>
                        <!-- Arc -->
                        <path d="M472.7113,2047.7055 A0.7251,0.7251 0 0,1 471.5323,2047.8596" style="stroke:#000000;stroke-width:0.1;"/>
                        <!-- Line -->
                        <path d="M342.4598,1917.6291 L472.1583,2047.3276 " style="stroke:#000000;stroke-width:0.1;"/>
                        <!-- Arc -->
                        <path d="M472.8963,2047.3857 A0.4331,0.4331 0 0,1 472.1583,2047.3276" style="stroke:#000000;stroke-width:0.1;"/>
                    </g>
                </g>
                <!-- Block Reference: *U11 / entities: 2 -->
                <g>
                    <!-- Polyline -->
                    <path d="M10.5912,1341.5428 A216.619,216.619 0 0 1 97.977,1331.9591 A1180.69,1180.69 0 0 0 475.2065,1347.5325 A22.2032,22.2032 0 0 0 472.2783,1323.1074 A12.0328,12.0328 0 0 1 471.6156,1313.9638 A480.879,480.879 0 0 0 475.2065,1259.8963 L475.2065,1129.851 L475.2065,999.8057 A480.879,480.879 0 0 0 471.6156,945.7382 A12.0328,12.0328 0 0 1 472.2783,936.5946 A22.2032,22.2032 0 0 0 475.2065,912.1695 A1180.69,1180.69 0 0 0 97.977,927.743 A216.619,216.619 0 0 1 10.5912,918.1592 A12.6008,12.6008 0 0 0 -8.5935,928.9407 L-8.5935,1330.7613 A12.6008,12.6008 0 0 0 10.5912,1341.5428 Z" style="stroke:#000000;stroke-width:0.1;"/>
                    <!-- Block Reference: A$C2C166547 / entities: 30 -->
                    <g>
                        <!-- Arc -->
                        <path d="M30.1187,1311.2441 A317.3163,317.3163 0 0,1 119.4571,1296.5157" style="stroke:#000000;stroke-width:0.1;"/>
                        <!-- Arc -->
                        <path d="M137.7678,1314.3992 A97.8312,97.8312 0 0,1 98.5538,1236.9519" style="stroke:#000000;stroke-width:0.1;"/>
                        <!-- Arc -->
                        <path d="M98.5538,1023.3818 A97.8312,97.8312 0 0,1 137.7678,945.9345" style="stroke:#000000;stroke-width:0.1;"/>
                        <!-- Arc -->
                        <path d="M119.4571,963.8179 A317.3163,317.3163 0 0,1 30.1187,949.0896" style="stroke:#000000;stroke-width:0.1;"/>
                        <!-- Polyline -->
                        <path d="M103.4487,952.4177 A1154.41,1154.41 0 0 1 472.2826,937.1908" style="stroke:#000000;stroke-width:0.1;"/>
                        <!-- Line -->
                        <path d="M452.2197,944.5561 L452.2197,934.9634 " style="stroke:#000000;stroke-width:0.1;"/>
                        <!-- Line -->
                        <path d="M452.2197,944.5561 L456.5472,935.4138 " style="stroke:#000000;stroke-width:0.1;"/>
                        <!-- Line -->
                        <path d="M471.6208,946.3211 L452.2197,944.5561 " style="stroke:#000000;stroke-width:0.1;"/>
                        <!-- Arc -->
                        <path d="M471.6208,946.3211 A12.0153,12.0153 0 0,1 472.2826,937.1908" style="stroke:#000000;stroke-width:0.1;"/>
                        <!-- Arc -->
                        <path d="M472.2826,1323.1428 A1154.4088,1154.4088 0 0,1 103.4487,1307.916" style="stroke:#000000;stroke-width:0.1;"/>
                        <!-- Arc -->
                        <path d="M472.2826,1323.1428 A12.0153,12.0153 0 0,1 471.6208,1314.0125" style="stroke:#000000;stroke-width:0.1;"/>
                        <!-- Line -->
                        <path d="M471.6208,1314.0125 L452.2197,1315.7776 " style="stroke:#000000;stroke-width:0.1;"/>
                        <!-- Line -->
                        <path d="M452.2197,1315.7776 L456.5472,1324.9199 " style="stroke:#000000;stroke-width:0.1;"/>
                        <!-- Line -->
                        <path d="M452.2197,1315.7776 L452.2197,1325.3703 " style="stroke:#000000;stroke-width:0.1;"/>
                        <!-- Line -->
                        <path d="M17.4915,1130.1668 L17.4915,946.7454 " style="stroke:#000000;stroke-width:0.1;"/>
                        <!-- Line -->
                        <path d="M8.4846,1130.1668 L8.4846,946.4233 " style="stroke:#000000;stroke-width:0.1;"/>
                        <!-- Line -->
                        <path d="M16.6727,1130.1668 L16.6727,946.7454 " style="stroke:#000000;stroke-width:0.1;"/>
                        <!-- Line -->
                        <path d="M98.5538,1130.1668 L98.5538,1023.3818 " style="stroke:#000000;stroke-width:0.1;"/>
                        <!-- Arc -->
                        <path d="M17.4915,946.7454 A0.4331,0.4331 0 0,1 17.9723,946.1825" style="stroke:#000000;stroke-width:0.1;"/>
                        <!-- Arc -->
                        <path d="M16.6727,946.8118 A0.7251,0.7251 0 0,1 17.6154,946.0872" style="stroke:#000000;stroke-width:0.1;"/>
                        <!-- Arc -->
                        <path d="M8.4846,946.4233 A2.4177,2.4177 0 0,1 11.7441,944.6061" style="stroke:#000000;stroke-width:0.1;"/>
                        <!-- Arc -->
                        <path d="M100.8568,952.8053 A240.8687,240.8687 0 0,1 11.7441,944.6061" style="stroke:#000000;stroke-width:0.1;"/>
                        <!-- Line -->
                        <path d="M98.5538,1130.1668 L98.5538,1236.9519 " style="stroke:#000000;stroke-width:0.1;"/>
                        <!-- Arc -->
                        <path d="M11.7441,1315.7276 A240.8687,240.8687 0 0,1 100.8568,1307.5283" style="stroke:#000000;stroke-width:0.1;"/>
                        <!-- Line -->
                        <path d="M16.6727,1130.1668 L16.6727,1313.5882 " style="stroke:#000000;stroke-width:0.1;"/>
                        <!-- Line -->
                        <path d="M8.4846,1130.1668 L8.4846,1313.9103 " style="stroke:#000000;stroke-width:0.1;"/>
                        <!-- Arc -->
                        <path d="M11.7441,1315.7276 A2.4177,2.4177 0 0,1 8.4846,1313.9103" style="stroke:#000000;stroke-width:0.1;"/>
                        <!-- Arc -->
                        <path d="M17.6154,1314.2465 A0.7251,0.7251 0 0,1 16.6727,1313.5218" style="stroke:#000000;stroke-width:0.1;"/>
                        <!-- Line -->
                        <path d="M17.4915,1130.1668 L17.4915,1313.5882 " style="stroke:#000000;stroke-width:0.1;"/>
                        <!-- Arc -->
                        <path d="M17.9723,1314.1512 A0.4331,0.4331 0 0,1 17.4915,1313.5882" style="stroke:#000000;stroke-width:0.1;"/>
                    </g>
                </g>
                <!-- Block Reference: *U11 / entities: 2 -->
                <g>
                    <!-- Polyline -->
                    <path d="M190.1795,488.1458 A216.619,216.619 0 0 1 258.7474,543.1602 A1180.69,1180.69 0 0 0 514.4768,820.9138 A22.2032,22.2032 0 0 0 529.6774,801.5721 A12.0328,12.0328 0 0 1 535.6743,794.638 A480.879,480.879 0 0 0 576.445,758.9456 L668.4009,666.9897 L760.3568,575.0339 A480.879,480.879 0 0 0 796.0491,534.2632 A12.0328,12.0328 0 0 1 802.9832,528.2663 A22.2032,22.2032 0 0 0 822.3249,513.0657 A1180.69,1180.69 0 0 0 544.5713,257.3362 A216.619,216.619 0 0 1 489.557,188.7684 A12.6008,12.6008 0 0 0 468.3676,182.8265 L184.2376,466.9565 A12.6008,12.6008 0 0 0 190.1795,488.1458 Z" style="stroke:#000000;stroke-width:0.1;"/>
                    <!-- Block Reference: A$C2C166547 / entities: 30 -->
                    <g>
                        <!-- Arc -->
                        <path d="M225.412,480.5294 A317.3163,317.3163 0 0,1 298.9984,533.2867" style="stroke:#000000;stroke-width:0.1;"/>
                        <!-- Arc -->
                        <path d="M299.3004,558.8798 A97.8312,97.8312 0 0,1 326.3354,476.3878" style="stroke:#000000;stroke-width:0.1;"/>
                        <!-- Arc -->
                        <path d="M477.3523,325.3709 A97.8312,97.8312 0 0,1 559.8443,298.3359" style="stroke:#000000;stroke-width:0.1;"/>
                        <!-- Arc -->
                        <path d="M534.2512,298.0338 A317.3163,317.3163 0 0,1 481.4939,224.4475" style="stroke:#000000;stroke-width:0.1;"/>
                        <!-- Polyline -->
                        <path d="M530.9927,278.6529 A1154.41,1154.41 0 0 1 802.5647,528.6909" style="stroke:#000000;stroke-width:0.1;"/>
                        <!-- Line -->
                        <path d="M783.1701,519.7123 L789.9531,512.9292 " style="stroke:#000000;stroke-width:0.1;"/>
                        <!-- Line -->
                        <path d="M783.1701,519.7123 L792.6946,516.3077 " style="stroke:#000000;stroke-width:0.1;"/>
                        <!-- Line -->
                        <path d="M795.6406,534.679 L783.1701,519.7123 " style="stroke:#000000;stroke-width:0.1;"/>
                        <!-- Arc -->
                        <path d="M795.6406,534.679 A12.0153,12.0153 0 0,1 802.5647,528.6909" style="stroke:#000000;stroke-width:0.1;"/>
                        <!-- Arc -->
                        <path d="M529.6554,801.6002 A1154.4088,1154.4088 0 0,1 279.6174,530.0282" style="stroke:#000000;stroke-width:0.1;"/>
                        <!-- Arc -->
                        <path d="M529.6554,801.6002 A12.0153,12.0153 0 0,1 535.6436,794.6761" style="stroke:#000000;stroke-width:0.1;"/>
                        <!-- Line -->
                        <path d="M535.6436,794.6761 L520.6768,782.2056 " style="stroke:#000000;stroke-width:0.1;"/>
                        <!-- Line -->
                        <path d="M520.6768,782.2056 L517.2722,791.7301 " style="stroke:#000000;stroke-width:0.1;"/>
                        <!-- Line -->
                        <path d="M520.6768,782.2056 L513.8938,788.9886 " style="stroke:#000000;stroke-width:0.1;"/>
                        <!-- Line -->
                        <path d="M344.5242,343.5597 L474.2227,213.8612 " style="stroke:#000000;stroke-width:0.1;"/>
                        <!-- Line -->
                        <path d="M338.1554,337.1909 L468.0816,207.2646 " style="stroke:#000000;stroke-width:0.1;"/>
                        <!-- Line -->
                        <path d="M343.9452,342.9807 L473.6437,213.2822 " style="stroke:#000000;stroke-width:0.1;"/>
                        <!-- Line -->
                        <path d="M401.8439,400.8793 L477.3523,325.3709 " style="stroke:#000000;stroke-width:0.1;"/>
                        <!-- Arc -->
                        <path d="M474.2227,213.8612 A0.4331,0.4331 0 0,1 474.9608,213.8031" style="stroke:#000000;stroke-width:0.1;"/>
                        <!-- Arc -->
                        <path d="M473.5968,213.3292 A0.7251,0.7251 0 0,1 474.7757,213.4833" style="stroke:#000000;stroke-width:0.1;"/>
                        <!-- Arc -->
                        <path d="M468.0816,207.2646 A2.4177,2.4177 0 0,1 471.6714,208.2844" style="stroke:#000000;stroke-width:0.1;"/>
                        <!-- Arc -->
                        <path d="M528.8859,277.0943 A240.8687,240.8687 0 0,1 471.6714,208.2844" style="stroke:#000000;stroke-width:0.1;"/>
                        <!-- Line -->
                        <path d="M401.8439,400.8793 L326.3354,476.3878 " style="stroke:#000000;stroke-width:0.1;"/>
                        <!-- Arc -->
                        <path d="M209.2489,470.7069 A240.8687,240.8687 0 0,1 278.0588,527.9213" style="stroke:#000000;stroke-width:0.1;"/>
                        <!-- Line -->
                        <path d="M343.9452,342.9807 L214.2467,472.6792 " style="stroke:#000000;stroke-width:0.1;"/>
                        <!-- Line -->
                        <path d="M338.1554,337.1909 L208.2291,467.1171 " style="stroke:#000000;stroke-width:0.1;"/>
                        <!-- Arc -->
                        <path d="M209.2489,470.7069 A2.4177,2.4177 0 0,1 208.2291,467.1171" style="stroke:#000000;stroke-width:0.1;"/>
                        <!-- Arc -->
                        <path d="M214.4478,473.8112 A0.7251,0.7251 0 0,1 214.2937,472.6323" style="stroke:#000000;stroke-width:0.1;"/>
                        <!-- Line -->
                        <path d="M344.5242,343.5597 L214.8257,473.2582 " style="stroke:#000000;stroke-width:0.1;"/>
                        <!-- Arc -->
                        <path d="M214.7676,473.9963 A0.4331,0.4331 0 0,1 214.8257,473.2582" style="stroke:#000000;stroke-width:0.1;"/>
                    </g>
                </g>
                <!-- Block Reference: *U11 / entities: 2 -->
                <g>
                    <!-- Polyline -->
                    <path d="M920.6105,11.6911 A216.619,216.619 0 0 1 930.1942,99.0769 A1180.69,1180.69 0 0 0 914.6208,476.3065 A22.2032,22.2032 0 0 0 939.0459,473.3783 A12.0328,12.0328 0 0 1 948.1895,472.7155 A480.879,480.879 0 0 0 1002.257,476.3065 L1132.3023,476.3065 L1262.3475,476.3065 A480.879,480.879 0 0 0 1316.4151,472.7155 A12.0328,12.0328 0 0 1 1325.5586,473.3783 A22.2032,22.2032 0 0 0 1349.9837,476.3065 A1180.69,1180.69 0 0 0 1334.4103,99.0769 A216.619,216.619 0 0 1 1343.9941,11.6911 A12.6008,12.6008 0 0 0 1333.2126,-7.4935 L931.392,-7.4935 A12.6008,12.6008 0 0 0 920.6105,11.6911 Z" style="stroke:#000000;stroke-width:0.1;"/>
                    <!-- Block Reference: A$C2C166547 / entities: 30 -->
                    <g>
                        <!-- Arc -->
                        <path d="M950.9092,31.2186 A317.3163,317.3163 0 0,1 965.6376,120.5571" style="stroke:#000000;stroke-width:0.1;"/>
                        <!-- Arc -->
                        <path d="M947.7541,138.8677 A97.8312,97.8312 0 0,1 1025.2014,99.6537" style="stroke:#000000;stroke-width:0.1;"/>
                        <!-- Arc -->
                        <path d="M1238.7715,99.6537 A97.8312,97.8312 0 0,1 1316.2188,138.8677" style="stroke:#000000;stroke-width:0.1;"/>
                        <!-- Arc -->
                        <path d="M1298.3353,120.5571 A317.3163,317.3163 0 0,1 1313.0637,31.2186" style="stroke:#000000;stroke-width:0.1;"/>
                        <!-- Polyline -->
                        <path d="M1309.7356,104.5486 A1154.41,1154.41 0 0 1 1324.9624,473.3825" style="stroke:#000000;stroke-width:0.1;"/>
                        <!-- Line -->
                        <path d="M1317.5972,453.3197 L1327.1899,453.3197 " style="stroke:#000000;stroke-width:0.1;"/>
                        <!-- Line -->
                        <path d="M1317.5972,453.3197 L1326.7395,457.6471 " style="stroke:#000000;stroke-width:0.1;"/>
                        <!-- Line -->
                        <path d="M1315.8321,472.7207 L1317.5972,453.3197 " style="stroke:#000000;stroke-width:0.1;"/>
                        <!-- Arc -->
                        <path d="M1315.8321,472.7207 A12.0153,12.0153 0 0,1 1324.9624,473.3825" style="stroke:#000000;stroke-width:0.1;"/>
                        <!-- Arc -->
                        <path d="M939.0105,473.3825 A1154.4088,1154.4088 0 0,1 954.2373,104.5486" style="stroke:#000000;stroke-width:0.1;"/>
                        <!-- Arc -->
                        <path d="M939.0105,473.3825 A12.0153,12.0153 0 0,1 948.1408,472.7207" style="stroke:#000000;stroke-width:0.1;"/>
                        <!-- Line -->
                        <path d="M948.1408,472.7207 L946.3757,453.3197 " style="stroke:#000000;stroke-width:0.1;"/>
                        <!-- Line -->
                        <path d="M946.3757,453.3197 L937.2334,457.6471 " style="stroke:#000000;stroke-width:0.1;"/>
                        <!-- Line -->
                        <path d="M946.3757,453.3197 L936.783,453.3197 " style="stroke:#000000;stroke-width:0.1;"/>
                        <!-- Line -->
                        <path d="M1131.9865,18.5915 L1315.4078,18.5915 " style="stroke:#000000;stroke-width:0.1;"/>
                        <!-- Line -->
                        <path d="M1131.9865,9.5846 L1315.7299,9.5846 " style="stroke:#000000;stroke-width:0.1;"/>
                        <!-- Line -->
                        <path d="M1131.9865,17.7727 L1315.4078,17.7727 " style="stroke:#000000;stroke-width:0.1;"/>
                        <!-- Line -->
                        <path d="M1131.9865,99.6537 L1238.7715,99.6537 " style="stroke:#000000;stroke-width:0.1;"/>
                        <!-- Arc -->
                        <path d="M1315.4078,18.5915 A0.4331,0.4331 0 0,1 1315.9708,19.0722" style="stroke:#000000;stroke-width:0.1;"/>
                        <!-- Arc -->
                        <path d="M1315.3415,17.7727 A0.7251,0.7251 0 0,1 1316.0661,18.7153" style="stroke:#000000;stroke-width:0.1;"/>
                        <!-- Arc -->
                        <path d="M1315.7299,9.5846 A2.4177,2.4177 0 0,1 1317.5472,12.8441" style="stroke:#000000;stroke-width:0.1;"/>
                        <!-- Arc -->
                        <path d="M1309.348,101.9567 A240.8687,240.8687 0 0,1 1317.5472,12.8441" style="stroke:#000000;stroke-width:0.1;"/>
                        <!-- Line -->
                        <path d="M1131.9865,99.6537 L1025.2014,99.6537 " style="stroke:#000000;stroke-width:0.1;"/>
                        <!-- Arc -->
                        <path d="M946.4257,12.8441 A240.8687,240.8687 0 0,1 954.6249,101.9567" style="stroke:#000000;stroke-width:0.1;"/>
                        <!-- Line -->
                        <path d="M1131.9865,17.7727 L948.5651,17.7727 " style="stroke:#000000;stroke-width:0.1;"/>
                        <!-- Line -->
                        <path d="M1131.9865,9.5846 L948.243,9.5846 " style="stroke:#000000;stroke-width:0.1;"/>
                        <!-- Arc -->
                        <path d="M946.4257,12.8441 A2.4177,2.4177 0 0,1 948.243,9.5846" style="stroke:#000000;stroke-width:0.1;"/>
                        <!-- Arc -->
                        <path d="M947.9068,18.7153 A0.7251,0.7251 0 0,1 948.6315,17.7727" style="stroke:#000000;stroke-width:0.1;"/>
                        <!-- Line -->
                        <path d="M1131.9865,18.5915 L948.5651,18.5915 " style="stroke:#000000;stroke-width:0.1;"/>
                        <!-- Arc -->
                        <path d="M948.0021,19.0722 A0.4331,0.4331 0 0,1 948.5651,18.5915" style="stroke:#000000;stroke-width:0.1;"/>
                    </g>
                </g>
                <!-- Block Reference: *U11 / entities: 2 -->
                <g>
                    <!-- Polyline -->
                    <path d="M1774.0075,191.2795 A216.619,216.619 0 0 1 1718.9931,259.8473 A1180.69,1180.69 0 0 0 1441.2395,515.5768 A22.2032,22.2032 0 0 0 1460.5812,530.7774 A12.0328,12.0328 0 0 1 1467.5153,536.7742 A480.879,480.879 0 0 0 1503.2077,577.5449 L1595.1635,669.5008 L1687.1194,761.4567 A480.879,480.879 0 0 0 1727.8901,797.1491 A12.0328,12.0328 0 0 1 1733.887,804.0832 A22.2032,22.2032 0 0 0 1749.0876,823.4249 A1180.69,1180.69 0 0 0 2004.8171,545.6712 A216.619,216.619 0 0 1 2073.3849,490.6569 A12.6008,12.6008 0 0 0 2079.3268,469.4676 L1795.1968,185.3375 A12.6008,12.6008 0 0 0 1774.0075,191.2795 Z" style="stroke:#000000;stroke-width:0.1;"/>
                    <!-- Block Reference: A$C2C166547 / entities: 30 -->
                    <g>
                        <!-- Arc -->
                        <path d="M1781.6239,226.5119 A317.3163,317.3163 0 0,1 1728.8666,300.0983" style="stroke:#000000;stroke-width:0.1;"/>
                        <!-- Arc -->
                        <path d="M1703.2735,300.4003 A97.8312,97.8312 0 0,1 1785.7655,327.4354" style="stroke:#000000;stroke-width:0.1;"/>
                        <!-- Arc -->
                        <path d="M1936.7824,478.4522 A97.8312,97.8312 0 0,1 1963.8174,560.9442" style="stroke:#000000;stroke-width:0.1;"/>
                        <!-- Arc -->
                        <path d="M1964.1194,535.3511 A317.3163,317.3163 0 0,1 2037.7058,482.5938" style="stroke:#000000;stroke-width:0.1;"/>
                        <!-- Polyline -->
                        <path d="M1983.5004,532.0926 A1154.41,1154.41 0 0 1 1733.4624,803.6646" style="stroke:#000000;stroke-width:0.1;"/>
                        <!-- Line -->
                        <path d="M1742.441,784.27 L1749.224,791.0531 " style="stroke:#000000;stroke-width:0.1;"/>
                        <!-- Line -->
                        <path d="M1742.441,784.27 L1745.8456,793.7945 " style="stroke:#000000;stroke-width:0.1;"/>
                        <!-- Line -->
                        <path d="M1727.4742,796.7406 L1742.441,784.27 " style="stroke:#000000;stroke-width:0.1;"/>
                        <!-- Arc -->
                        <path d="M1727.4742,796.7406 A12.0153,12.0153 0 0,1 1733.4624,803.6646" style="stroke:#000000;stroke-width:0.1;"/>
                        <!-- Arc -->
                        <path d="M1460.5531,530.7553 A1154.4088,1154.4088 0 0,1 1732.1251,280.7174" style="stroke:#000000;stroke-width:0.1;"/>
                        <!-- Arc -->
                        <path d="M1460.5531,530.7553 A12.0153,12.0153 0 0,1 1467.4772,536.7435" style="stroke:#000000;stroke-width:0.1;"/>
                        <!-- Line -->
                        <path d="M1467.4772,536.7435 L1479.9477,521.7768 " style="stroke:#000000;stroke-width:0.1;"/>
                        <!-- Line -->
                        <path d="M1479.9477,521.7768 L1470.4232,518.3722 " style="stroke:#000000;stroke-width:0.1;"/>
                        <!-- Line -->
                        <path d="M1479.9477,521.7768 L1473.1646,514.9937 " style="stroke:#000000;stroke-width:0.1;"/>
                        <!-- Line -->
                        <path d="M1918.5936,345.6241 L2048.2921,475.3226 " style="stroke:#000000;stroke-width:0.1;"/>
                        <!-- Line -->
                        <path d="M1924.9624,339.2553 L2054.8887,469.1816 " style="stroke:#000000;stroke-width:0.1;"/>
                        <!-- Line -->
                        <path d="M1919.1726,345.0452 L2048.8711,474.7437 " style="stroke:#000000;stroke-width:0.1;"/>
                        <!-- Line -->
                        <path d="M1861.2739,402.9438 L1936.7824,478.4522 " style="stroke:#000000;stroke-width:0.1;"/>
                        <!-- Arc -->
                        <path d="M2048.2921,475.3226 A0.4331,0.4331 0 0,1 2048.3502,476.0607" style="stroke:#000000;stroke-width:0.1;"/>
                        <!-- Arc -->
                        <path d="M2048.8241,474.6967 A0.7251,0.7251 0 0,1 2048.67,475.8757" style="stroke:#000000;stroke-width:0.1;"/>
                        <!-- Arc -->
                        <path d="M2054.8887,469.1816 A2.4177,2.4177 0 0,1 2053.8689,472.7714" style="stroke:#000000;stroke-width:0.1;"/>
                        <!-- Arc -->
                        <path d="M1985.059,529.9858 A240.8687,240.8687 0 0,1 2053.8689,472.7714" style="stroke:#000000;stroke-width:0.1;"/>
                        <!-- Line -->
                        <path d="M1861.2739,402.9438 L1785.7655,327.4354 " style="stroke:#000000;stroke-width:0.1;"/>
                        <!-- Arc -->
                        <path d="M1791.4464,210.3489 A240.8687,240.8687 0 0,1 1734.2319,279.1587" style="stroke:#000000;stroke-width:0.1;"/>
                        <!-- Line -->
                        <path d="M1919.1726,345.0452 L1789.4741,215.3466 " style="stroke:#000000;stroke-width:0.1;"/>
                        <!-- Line -->
                        <path d="M1924.9624,339.2553 L1795.0362,209.329 " style="stroke:#000000;stroke-width:0.1;"/>
                        <!-- Arc -->
                        <path d="M1791.4464,210.3489 A2.4177,2.4177 0 0,1 1795.0362,209.329" style="stroke:#000000;stroke-width:0.1;"/>
                        <!-- Arc -->
                        <path d="M1788.3421,215.5477 A0.7251,0.7251 0 0,1 1789.521,215.3936" style="stroke:#000000;stroke-width:0.1;"/>
                        <!-- Line -->
                        <path d="M1918.5936,345.6241 L1788.8951,215.9256 " style="stroke:#000000;stroke-width:0.1;"/>
                        <!-- Arc -->
                        <path d="M1788.157,215.8675 A0.4331,0.4331 0 0,1 1788.8951,215.9256" style="stroke:#000000;stroke-width:0.1;"/>
                    </g>
                </g>
                <!-- Block Reference: *U11 / entities: 2 -->
                <g>
                    <!-- Polyline -->
                    <path d="M2250.4622,921.7104 A216.619,216.619 0 0 1 2163.0764,931.2942 A1180.69,1180.69 0 0 0 1785.8468,915.7207 A22.2032,22.2032 0 0 0 1788.775,940.1458 A12.0328,12.0328 0 0 1 1789.4378,949.2894 A480.879,480.879 0 0 0 1785.8468,1003.3569 L1785.8468,1133.4022 L1785.8468,1263.4475 A480.879,480.879 0 0 0 1789.4378,1317.515 A12.0328,12.0328 0 0 1 1788.775,1326.6586 A22.2032,22.2032 0 0 0 1785.8468,1351.0837 A1180.69,1180.69 0 0 0 2163.0764,1335.5103 A216.619,216.619 0 0 1 2250.4622,1345.094 A12.6008,12.6008 0 0 0 2269.6468,1334.3125 L2269.6468,932.4919 A12.6008,12.6008 0 0 0 2250.4622,921.7104 Z" style="stroke:#000000;stroke-width:0.1;"/>
                    <!-- Block Reference: A$C2C166547 / entities: 30 -->
                    <g>
                        <!-- Arc -->
                        <path d="M2230.9347,952.0092 A317.3163,317.3163 0 0,1 2141.5962,966.7375" style="stroke:#000000;stroke-width:0.1;"/>
                        <!-- Arc -->
                        <path d="M2123.2856,948.8541 A97.8312,97.8312 0 0,1 2162.4996,1026.3013" style="stroke:#000000;stroke-width:0.1;"/>
                        <!-- Arc -->
                        <path d="M2162.4996,1239.8714 A97.8312,97.8312 0 0,1 2123.2856,1317.3187" style="stroke:#000000;stroke-width:0.1;"/>
                        <!-- Arc -->
                        <path d="M2141.5962,1299.4353 A317.3163,317.3163 0 0,1 2230.9347,1314.1636" style="stroke:#000000;stroke-width:0.1;"/>
                        <!-- Polyline -->
                        <path d="M2157.6047,1310.8356 A1154.41,1154.41 0 0 1 1788.7708,1326.0624" style="stroke:#000000;stroke-width:0.1;"/>
                        <!-- Line -->
                        <path d="M1808.8336,1318.6971 L1808.8336,1328.2899 " style="stroke:#000000;stroke-width:0.1;"/>
                        <!-- Line -->
                        <path d="M1808.8336,1318.6971 L1804.5062,1327.8394 " style="stroke:#000000;stroke-width:0.1;"/>
                        <!-- Line -->
                        <path d="M1789.4325,1316.9321 L1808.8336,1318.6971 " style="stroke:#000000;stroke-width:0.1;"/>
                        <!-- Arc -->
                        <path d="M1789.4325,1316.9321 A12.0153,12.0153 0 0,1 1788.7708,1326.0624" style="stroke:#000000;stroke-width:0.1;"/>
                        <!-- Arc -->
                        <path d="M1788.7708,940.1104 A1154.4088,1154.4088 0 0,1 2157.6047,955.3372" style="stroke:#000000;stroke-width:0.1;"/>
                        <!-- Arc -->
                        <path d="M1788.7708,940.1104 A12.0153,12.0153 0 0,1 1789.4325,949.2407" style="stroke:#000000;stroke-width:0.1;"/>
                        <!-- Line -->
                        <path d="M1789.4325,949.2407 L1808.8336,947.4757 " style="stroke:#000000;stroke-width:0.1;"/>
                        <!-- Line -->
                        <path d="M1808.8336,947.4757 L1804.5062,938.3334 " style="stroke:#000000;stroke-width:0.1;"/>
                        <!-- Line -->
                        <path d="M1808.8336,947.4757 L1808.8336,937.8829 " style="stroke:#000000;stroke-width:0.1;"/>
                        <!-- Line -->
                        <path d="M2243.5618,1133.0864 L2243.5618,1316.5078 " style="stroke:#000000;stroke-width:0.1;"/>
                        <!-- Line -->
                        <path d="M2252.5687,1133.0864 L2252.5687,1316.8299 " style="stroke:#000000;stroke-width:0.1;"/>
                        <!-- Line -->
                        <path d="M2244.3806,1133.0864 L2244.3806,1316.5078 " style="stroke:#000000;stroke-width:0.1;"/>
                        <!-- Line -->
                        <path d="M2162.4996,1133.0864 L2162.4996,1239.8714 " style="stroke:#000000;stroke-width:0.1;"/>
                        <!-- Arc -->
                        <path d="M2243.5618,1316.5078 A0.4331,0.4331 0 0,1 2243.081,1317.0708" style="stroke:#000000;stroke-width:0.1;"/>
                        <!-- Arc -->
                        <path d="M2244.3806,1316.4414 A0.7251,0.7251 0 0,1 2243.438,1317.166" style="stroke:#000000;stroke-width:0.1;"/>
                        <!-- Arc -->
                        <path d="M2252.5687,1316.8299 A2.4177,2.4177 0 0,1 2249.3092,1318.6471" style="stroke:#000000;stroke-width:0.1;"/>
                        <!-- Arc -->
                        <path d="M2160.1966,1310.4479 A240.8687,240.8687 0 0,1 2249.3092,1318.6471" style="stroke:#000000;stroke-width:0.1;"/>
                        <!-- Line -->
                        <path d="M2162.4996,1133.0864 L2162.4996,1026.3013 " style="stroke:#000000;stroke-width:0.1;"/>
                        <!-- Arc -->
                        <path d="M2249.3092,947.5257 A240.8687,240.8687 0 0,1 2160.1966,955.7249" style="stroke:#000000;stroke-width:0.1;"/>
                        <!-- Line -->
                        <path d="M2244.3806,1133.0864 L2244.3806,949.665 " style="stroke:#000000;stroke-width:0.1;"/>
                        <!-- Line -->
                        <path d="M2252.5687,1133.0864 L2252.5687,949.3429 " style="stroke:#000000;stroke-width:0.1;"/>
                        <!-- Arc -->
                        <path d="M2249.3092,947.5257 A2.4177,2.4177 0 0,1 2252.5687,949.3429" style="stroke:#000000;stroke-width:0.1;"/>
                        <!-- Arc -->
                        <path d="M2243.438,949.0067 A0.7251,0.7251 0 0,1 2244.3806,949.7314" style="stroke:#000000;stroke-width:0.1;"/>
                        <!-- Line -->
                        <path d="M2243.5618,1133.0864 L2243.5618,949.665 " style="stroke:#000000;stroke-width:0.1;"/>
                        <!-- Arc -->
                        <path d="M2243.081,949.102 A0.4331,0.4331 0 0,1 2243.5618,949.665" style="stroke:#000000;stroke-width:0.1;"/>
                    </g>
                </g>
                <!-- Block Reference: *U11 / entities: 2 -->
                <g>
                    <!-- Polyline -->
                    <path d="M2070.8738,1775.1074 A216.619,216.619 0 0 1 2002.306,1720.0931 A1180.69,1180.69 0 0 0 1746.5765,1442.3394 A22.2032,22.2032 0 0 0 1731.3759,1461.6811 A12.0328,12.0328 0 0 1 1725.379,1468.6152 A480.879,480.879 0 0 0 1684.6084,1504.3076 L1592.6525,1596.2635 L1500.6966,1688.2194 A480.879,480.879 0 0 0 1465.0042,1728.9901 A12.0328,12.0328 0 0 1 1458.0701,1734.9869 A22.2032,22.2032 0 0 0 1438.7284,1750.1875 A1180.69,1180.69 0 0 0 1716.482,2005.917 A216.619,216.619 0 0 1 1771.4964,2074.4848 A12.6008,12.6008 0 0 0 1792.6857,2080.4268 L2076.8157,1796.2967 A12.6008,12.6008 0 0 0 2070.8738,1775.1074 Z" style="stroke:#000000;stroke-width:0.1;"/>
                    <!-- Block Reference: A$C2C166547 / entities: 30 -->
                    <g>
                        <!-- Arc -->
                        <path d="M2035.6413,1782.7238 A317.3163,317.3163 0 0,1 1962.055,1729.9665" style="stroke:#000000;stroke-width:0.1;"/>
                        <!-- Arc -->
                        <path d="M1961.7529,1704.3735 A97.8312,97.8312 0 0,1 1934.7179,1786.8654" style="stroke:#000000;stroke-width:0.1;"/>
                        <!-- Arc -->
                        <path d="M1783.7011,1937.8823 A97.8312,97.8312 0 0,1 1701.2091,1964.9173" style="stroke:#000000;stroke-width:0.1;"/>
                        <!-- Arc -->
                        <path d="M1726.8022,1965.2194 A317.3163,317.3163 0 0,1 1779.5595,2038.8057" style="stroke:#000000;stroke-width:0.1;"/>
                        <!-- Polyline -->
                        <path d="M1730.0606,1984.6003 A1154.41,1154.41 0 0 1 1458.4887,1734.5623" style="stroke:#000000;stroke-width:0.1;"/>
                        <!-- Line -->
                        <path d="M1477.8833,1743.5409 L1471.1002,1750.324 " style="stroke:#000000;stroke-width:0.1;"/>
                        <!-- Line -->
                        <path d="M1477.8833,1743.5409 L1468.3587,1746.9455 " style="stroke:#000000;stroke-width:0.1;"/>
                        <!-- Line -->
                        <path d="M1465.4127,1728.5742 L1477.8833,1743.5409 " style="stroke:#000000;stroke-width:0.1;"/>
                        <!-- Arc -->
                        <path d="M1465.4127,1728.5742 A12.0153,12.0153 0 0,1 1458.4887,1734.5623" style="stroke:#000000;stroke-width:0.1;"/>
                        <!-- Arc -->
                        <path d="M1731.398,1461.6531 A1154.4088,1154.4088 0 0,1 1981.4359,1733.225" style="stroke:#000000;stroke-width:0.1;"/>
                        <!-- Arc -->
                        <path d="M1731.398,1461.6531 A12.0153,12.0153 0 0,1 1725.4098,1468.5771" style="stroke:#000000;stroke-width:0.1;"/>
                        <!-- Line -->
                        <path d="M1725.4098,1468.5771 L1740.3765,1481.0477 " style="stroke:#000000;stroke-width:0.1;"/>
                        <!-- Line -->
                        <path d="M1740.3765,1481.0477 L1743.7811,1471.5231 " style="stroke:#000000;stroke-width:0.1;"/>
                        <!-- Line -->
                        <path d="M1740.3765,1481.0477 L1747.1596,1474.2646 " style="stroke:#000000;stroke-width:0.1;"/>
                        <!-- Line -->
                        <path d="M1916.5291,1919.6935 L1786.8306,2049.392 " style="stroke:#000000;stroke-width:0.1;"/>
                        <!-- Line -->
                        <path d="M1922.898,1926.0624 L1792.9717,2055.9886 " style="stroke:#000000;stroke-width:0.1;"/>
                        <!-- Line -->
                        <path d="M1917.1081,1920.2725 L1787.4096,2049.971 " style="stroke:#000000;stroke-width:0.1;"/>
                        <!-- Line -->
                        <path d="M1859.2095,1862.3739 L1783.7011,1937.8823 " style="stroke:#000000;stroke-width:0.1;"/>
                        <!-- Arc -->
                        <path d="M1786.8306,2049.392 A0.4331,0.4331 0 0,1 1786.0926,2049.4502" style="stroke:#000000;stroke-width:0.1;"/>
                        <!-- Arc -->
                        <path d="M1787.4566,2049.9241 A0.7251,0.7251 0 0,1 1786.2776,2049.7699" style="stroke:#000000;stroke-width:0.1;"/>
                        <!-- Arc -->
                        <path d="M1792.9717,2055.9886 A2.4177,2.4177 0 0,1 1789.3819,2054.9688" style="stroke:#000000;stroke-width:0.1;"/>
                        <!-- Arc -->
                        <path d="M1732.1675,1986.1589 A240.8687,240.8687 0 0,1 1789.3819,2054.9688" style="stroke:#000000;stroke-width:0.1;"/>
                        <!-- Line -->
                        <path d="M1859.2095,1862.3739 L1934.7179,1786.8654 " style="stroke:#000000;stroke-width:0.1;"/>
                        <!-- Arc -->
                        <path d="M2051.8044,1792.5463 A240.8687,240.8687 0 0,1 1982.9946,1735.3319" style="stroke:#000000;stroke-width:0.1;"/>
                        <!-- Line -->
                        <path d="M1917.1081,1920.2725 L2046.8066,1790.574 " style="stroke:#000000;stroke-width:0.1;"/>
                        <!-- Line -->
                        <path d="M1922.898,1926.0624 L2052.8243,1796.1361 " style="stroke:#000000;stroke-width:0.1;"/>
                        <!-- Arc -->
                        <path d="M2051.8044,1792.5463 A2.4177,2.4177 0 0,1 2052.8243,1796.1361" style="stroke:#000000;stroke-width:0.1;"/>
                        <!-- Arc -->
                        <path d="M2046.6056,1789.442 A0.7251,0.7251 0 0,1 2046.7597,1790.6209" style="stroke:#000000;stroke-width:0.1;"/>
                        <!-- Line -->
                        <path d="M1916.5291,1919.6935 L2046.2277,1789.995 " style="stroke:#000000;stroke-width:0.1;"/>
                        <!-- Arc -->
                        <path d="M2046.2858,1789.257 A0.4331,0.4331 0 0,1 2046.2277,1789.995" style="stroke:#000000;stroke-width:0.1;"/>
                    </g>
                </g>
            </g>
        </g>
    </g>
</svg>

