<?xml version="1.0" encoding="UTF-8"?>
<!-- 2026-03-09 22:00:23 Generated by QCAD 3.32.6 SVG Exporter -->
<svg  width="900mm" height="900mm" viewBox="-0.0094 -899.5059 900 900" version="1.1" xmlns="http://www.w3.org/2000/svg" style="stroke-linecap:round;stroke-linejoin:round;">
    <g transform="scale(1,-1)">
            <!-- Auto-generated fillable area -->
            <!-- Block Reference: 900mm X 900mm Coffee Table / entities: 14 -->
        <g>
            <!-- Arc -->
            <path d="M849.9906,-0.4941 A50,50 0 0,1 899.9906,49.5059" style="stroke:#000000;stroke-width:0.1;"/>
            <!-- Arc -->
            <path d="M899.9906,849.5059 A50,50 0 0,1 849.9906,899.5059" style="stroke:#000000;stroke-width:0.1;"/>
            <!-- Line -->
            <path d="M99.9906,99.5059 L99.9906,799.5059 " style="stroke:#000000;stroke-width:0.1;"/>
            <!-- Line -->
            <path d="M-0.0094,49.5059 L-0.0094,849.5059 " style="stroke:#000000;stroke-width:0.1;"/>
            <!-- Line -->
            <path d="M799.9906,99.5059 L799.9906,799.5059 " style="stroke:#000000;stroke-width:0.1;"/>
            <!-- Line -->
            <path d="M799.9906,694.7569 L108.358,288.843 " style="stroke:#000000;stroke-width:0.1;"/>
            <!-- Line -->
            <path d="M799.9906,99.5059 L99.9906,99.5059 " style="stroke:#000000;stroke-width:0.1;"/>
            <!-- Line -->
            <path d="M849.9906,-0.4941 L49.9906,-0.4941 " style="stroke:#000000;stroke-width:0.1;"/>
            <!-- Line -->
            <path d="M799.9906,646.7774 L100.9013,236.4873 " style="stroke:#000000;stroke-width:0.1;"/>
            <!-- Arc -->
            <path d="M-0.0094,49.5059 A50,50 0 0,1 49.9906,-0.4941" style="stroke:#000000;stroke-width:0.1;"/>
            <!-- Line -->
            <path d="M849.9906,899.5059 L49.9906,899.5059 " style="stroke:#000000;stroke-width:0.1;"/>
            <!-- Line -->
            <path d="M799.9906,799.5059 L99.9906,799.5059 " style="stroke:#000000;stroke-width:0.1;"/>
            <!-- Arc -->
            <path d="M49.9906,899.5059 A50,50 0 0,1 -0.0094,849.5059" style="stroke:#000000;stroke-width:0.1;"/>
            <!-- Line -->
            <path d="M899.9906,49.5059 L899.9906,849.5059 " style="stroke:#000000;stroke-width:0.1;"/>
        </g>
    </g>
</svg>

