<?xml version="1.0" encoding="UTF-8"?>
<svg width="476.3096mm" height="494.4296mm" viewBox="1.9335 -493.1387 476.3096 494.4296" version="1.1" xmlns="http://www.w3.org/2000/svg" style="stroke-linecap:round;stroke-linejoin:round;fill:none">
  <g transform="scale(1,-1)">

    <!-- Fill layer: change fill on this group only -->
    <g id="auto-fill" class="auto-fill" data-auto-fill="true" fill="none" stroke="none">

      <!-- Seat fill -->
      <circle cx="236.70949676945202" cy="211.95562991520183" r="213.2464929235294"/>

      <!-- Backrest fill -->
      <path d="
        M474.7018,419.1605
        A409.014,409.014 0 0,1 5.4748,419.1605
        L5.4748,392.9105
        A409.014,409.014 0 0,0 474.7018,392.9105
        Z
      "/>

      <!-- Center connector fill: the space between both connector lines -->
      <path d="
        M209.0913,423.2378
        L259.1661,423.2378
        L258.6803,466.8878
        L210.0589,465.7849
        Z
      "/>

    </g>

    <!-- Original outline layer -->
    <g fill="none">
      <circle cx="236.70949676945202" cy="211.95562991520183" r="213.2464929235294" style="stroke:#000000;stroke-width:0.1;"/>
      <path d="M474.7018,419.1605 A409.014,409.014 0 0,1 5.4748,419.1605" style="stroke:#000000;stroke-width:0.1;"/>
      <path d="M474.7018,392.9105 A409.014,409.014 0 0,1 5.4748,392.9105" style="stroke:#000000;stroke-width:0.1;"/>
      <path d="M1.9335,392.9105 L1.9335,419.1605" style="stroke:#000000;stroke-width:0.1;"/>
      <path d="M258.6803,466.8878 L259.1661,423.2378" style="stroke:#000000;stroke-width:0.1;"/>
      <path d="M209.0913,423.2378 L210.0589,465.7849" style="stroke:#000000;stroke-width:0.1;"/>
      <path d="M476.4724,390.5241 L478.2431,416.7741" style="stroke:#000000;stroke-width:0.1;"/>
    </g>

  </g>
</svg>