<?xml version="1.0" encoding="UTF-8"?>
<!-- 2026-03-10 12:32:14 Generated by QCAD 3.32.6 SVG Exporter -->
<svg width="508.1924mm" height="510mm" viewBox="-3.2727 -515.5933 508.1924 510" version="1.1" xmlns="http://www.w3.org/2000/svg" style="stroke-linecap:round;stroke-linejoin:round;fill:none">
  <g transform="scale(1,-1)">

    <!-- Fill layer: change fill on this group only -->
    <g id="auto-fill" class="auto-fill" data-auto-fill="true" fill="none" stroke="none">

      <!-- Seat fill -->
      <circle cx="246.3274884026082" cy="218.09326754089034" r="197.5"/>

      <!-- Backrest fill -->
      <path d="
        M504.9197,365.1861
        A297.5,297.5 0 0,1 -3.1354,380.1874
        L32.1049,356.4179
        A255,255 0 0,0 467.978,344.1728
        Z
      "/>

    </g>

    <!-- Original outline layer -->
    <g fill="none">
      <circle cx="246.3274884026082" cy="218.09326754089034" r="212.5" style="fill:none;stroke:#000000;stroke-width:0.1;"/>
      <circle cx="246.3274884026082" cy="218.09326754089034" r="197.5" style="fill:none;stroke:#000000;stroke-width:0.1;"/>
      <path d="M504.9197,365.1861 A297.5,297.5 0 0,1 -3.1354,380.1874" style="fill:none;stroke:#000000;stroke-width:0.1;"/>
      <path d="M467.978,344.1728 A255,255 0 0,1 32.1049,356.4179" style="fill:none;stroke:#000000;stroke-width:0.1;"/>
      <path d="M467.978,344.1728 L504.9197,365.1861" style="fill:none;stroke:#000000;stroke-width:0.1;"/>
      <path d="M32.1049,356.4179 L-2.8837,379.0102" style="fill:none;stroke:#000000;stroke-width:0.1;"/>
      <path d="M-3.1354,380.1874 A0.85,0.85 0 0,1 -2.8837,379.0102" style="fill:none;stroke:#000000;stroke-width:0.1;"/>
      <path d="M476.4724,390.5241 L478.2431,416.7741" style="fill:none;stroke:#000000;stroke-width:0.1;"/>
    </g>

  </g>
</svg>
