<?xml version="1.0" encoding="UTF-8"?>
<svg xmlns="http://www.w3.org/2000/svg" version="1.1" width="421px" height="470px" viewBox="109 4 421 470" style="shape-rendering:geometricPrecision; text-rendering:geometricPrecision; image-rendering:optimizeQuality; stroke-linecap:round; stroke-linejoin:round; fill:none;">

  <!-- Fill layer -->
  <g id="auto-fill" class="auto-fill" data-auto-fill="true" fill="none" stroke="none">
    <path d="M 126.5,8.5 C 255.5,8.33333 384.5,8.5 513.5,9C 518.68,11.3575 521.68,15.3575 522.5,21C 512.469,50.4145 508.969,80.5812 512,111.5C 536.031,229.671 540.531,348.505 525.5,468C 517.757,471.732 510.423,471.065 503.5,466C 501.256,465.094 498.923,464.594 496.5,464.5C 482.217,466.274 467.883,467.44 453.5,468C 364.167,468.667 274.833,468.667 185.5,468C 170.789,467.385 156.122,466.219 141.5,464.5C 135.611,467.185 129.445,469.185 123,470.5C 119.349,470.505 116.016,469.505 113,467.5C 98.4643,348.095 103.131,229.428 127,111.5C 130.069,80.7182 126.569,50.7182 116.5,21.5C 117.217,15.0302 120.55,10.6969 126.5,8.5 Z M 126.5,10.5 C 255.5,10.3333 384.5,10.5 513.5,11C 517.819,12.9794 520.152,16.3127 520.5,21C 510.469,50.4138 506.969,80.5804 510,111.5C 534.026,229.346 538.526,347.846 523.5,467C 515.685,469.8 508.685,468.467 502.5,463C 516.65,346.098 511.817,229.931 488,114.5C 486.251,96.8107 486.584,79.144 489,61.5C 491.021,49.4364 493.021,37.4364 495,25.5C 378.236,24.3346 261.403,24.1679 144.5,25C 144,25.5 143.5,26 143,26.5C 145.753,39.6778 148.086,53.0111 150,66.5C 151.404,79.4735 151.737,92.4735 151,105.5C 140.729,158.398 133.729,211.731 130,265.5C 125.974,331.166 127.807,396.666 135.5,462C 135.415,463.107 135.081,464.107 134.5,465C 128.208,468.886 121.708,469.386 115,466.5C 104.035,379.563 103.701,292.563 114,205.5C 118.686,170.054 124.019,134.72 130,99.5C 130.993,72.6255 127.16,46.4589 118.5,21C 119.138,15.8721 121.805,12.3721 126.5,10.5 Z M 144.5,26.5 C 260.833,26.5 377.167,26.5 493.5,26.5C 493.739,28.4672 493.406,30.3005 492.5,32C 376.834,32.5 261.167,32.6667 145.5,32.5C 145.167,30.5 144.833,28.5 144.5,26.5 Z M 146.5,35.5 C 261.5,35.5 376.5,35.5 491.5,35.5C 488.004,50.1511 484.504,64.8178 481,79.5C 478.196,95.7338 476.196,112.067 475,128.5C 462.778,118.977 448.944,113.144 433.5,111C 395.523,109.862 357.523,109.362 319.5,109.5C 281.146,109.365 242.813,109.865 204.5,111C 189.279,113.698 175.446,119.531 163,128.5C 161.552,96.7613 156.052,65.7613 146.5,35.5 Z M 152.5,68.5 C 158.189,89.0267 160.523,110.027 159.5,131.5C 154.815,135.352 150.648,139.685 147,144.5C 149.115,131.58 151.115,118.58 153,105.5C 153.619,93.154 153.452,80.8207 152.5,68.5 Z M 484.5,70.5 C 484.061,84.68 484.561,99.0133 486,113.5C 488.325,123.449 489.992,133.449 491,143.5C 486.667,139.167 482.333,134.833 478,130.5C 478.191,110.3 480.358,90.2998 484.5,70.5 Z M 214.5,111.5 C 287.522,111.029 360.522,111.529 433.5,113C 456.238,116.616 475.071,127.116 490,144.5C 491.439,146.275 492.439,148.275 493,150.5C 509.314,248.039 512.814,346.039 503.5,444.5C 500.167,444.5 496.833,444.5 493.5,444.5C 493.233,450.838 492.9,457.171 492.5,463.5C 479.516,464.499 466.516,465.332 453.5,466C 364.167,466.667 274.833,466.667 185.5,466C 172.416,465.66 159.416,464.493 146.5,462.5C 145.534,456.549 144.868,450.549 144.5,444.5C 141.5,444.5 138.5,444.5 135.5,444.5C 125.52,345.038 129.02,246.038 146,147.5C 163.64,125.597 186.473,113.597 214.5,111.5 Z M 141.5,446.5 C 142.947,451.488 143.947,456.655 144.5,462C 142.19,462.497 139.857,462.663 137.5,462.5C 137.013,458.272 136.347,454.105 135.5,450C 137.727,449.059 139.727,447.892 141.5,446.5 Z M 499.5,447.5 C 500.386,446.224 501.386,446.224 502.5,447.5C 501.767,448.087 500.767,448.087 499.5,447.5 Z M 495.5,447.5 C 497.84,448.086 500.007,449.086 502,450.5C 501.733,454.441 501.566,458.441 501.5,462.5C 499.167,462.5 496.833,462.5 494.5,462.5C 494.751,457.493 495.084,452.493 495.5,447.5 Z"/>
  </g>

  <!-- Outline layer -->
  <g fill="none" stroke="#000000" stroke-width="1.5">
    <path d="M 126.5,8.5 C 255.5,8.33333 384.5,8.5 513.5,9C 518.68,11.3575 521.68,15.3575 522.5,21C 512.469,50.4145 508.969,80.5812 512,111.5C 536.031,229.671 540.531,348.505 525.5,468C 517.757,471.732 510.423,471.065 503.5,466C 501.256,465.094 498.923,464.594 496.5,464.5C 482.217,466.274 467.883,467.44 453.5,468C 364.167,468.667 274.833,468.667 185.5,468C 170.789,467.385 156.122,466.219 141.5,464.5C 135.611,467.185 129.445,469.185 123,470.5C 119.349,470.505 116.016,469.505 113,467.5C 98.4643,348.095 103.131,229.428 127,111.5C 130.069,80.7182 126.569,50.7182 116.5,21.5C 117.217,15.0302 120.55,10.6969 126.5,8.5 Z M 126.5,10.5 C 255.5,10.3333 384.5,10.5 513.5,11C 517.819,12.9794 520.152,16.3127 520.5,21C 510.469,50.4138 506.969,80.5804 510,111.5C 534.026,229.346 538.526,347.846 523.5,467C 515.685,469.8 508.685,468.467 502.5,463C 516.65,346.098 511.817,229.931 488,114.5C 486.251,96.8107 486.584,79.144 489,61.5C 491.021,49.4364 493.021,37.4364 495,25.5C 378.236,24.3346 261.403,24.1679 144.5,25C 144,25.5 143.5,26 143,26.5C 145.753,39.6778 148.086,53.0111 150,66.5C 151.404,79.4735 151.737,92.4735 151,105.5C 140.729,158.398 133.729,211.731 130,265.5C 125.974,331.166 127.807,396.666 135.5,462C 135.415,463.107 135.081,464.107 134.5,465C 128.208,468.886 121.708,469.386 115,466.5C 104.035,379.563 103.701,292.563 114,205.5C 118.686,170.054 124.019,134.72 130,99.5C 130.993,72.6255 127.16,46.4589 118.5,21C 119.138,15.8721 121.805,12.3721 126.5,10.5 Z M 144.5,26.5 C 260.833,26.5 377.167,26.5 493.5,26.5C 493.739,28.4672 493.406,30.3005 492.5,32C 376.834,32.5 261.167,32.6667 145.5,32.5C 145.167,30.5 144.833,28.5 144.5,26.5 Z M 146.5,35.5 C 261.5,35.5 376.5,35.5 491.5,35.5C 488.004,50.1511 484.504,64.8178 481,79.5C 478.196,95.7338 476.196,112.067 475,128.5C 462.778,118.977 448.944,113.144 433.5,111C 395.523,109.862 357.523,109.362 319.5,109.5C 281.146,109.365 242.813,109.865 204.5,111C 189.279,113.698 175.446,119.531 163,128.5C 161.552,96.7613 156.052,65.7613 146.5,35.5 Z M 152.5,68.5 C 158.189,89.0267 160.523,110.027 159.5,131.5C 154.815,135.352 150.648,139.685 147,144.5C 149.115,131.58 151.115,118.58 153,105.5C 153.619,93.154 153.452,80.8207 152.5,68.5 Z M 484.5,70.5 C 484.061,84.68 484.561,99.0133 486,113.5C 488.325,123.449 489.992,133.449 491,143.5C 486.667,139.167 482.333,134.833 478,130.5C 478.191,110.3 480.358,90.2998 484.5,70.5 Z M 214.5,111.5 C 287.522,111.029 360.522,111.529 433.5,113C 456.238,116.616 475.071,127.116 490,144.5C 491.439,146.275 492.439,148.275 493,150.5C 509.314,248.039 512.814,346.039 503.5,444.5C 500.167,444.5 496.833,444.5 493.5,444.5C 493.233,450.838 492.9,457.171 492.5,463.5C 479.516,464.499 466.516,465.332 453.5,466C 364.167,466.667 274.833,466.667 185.5,466C 172.416,465.66 159.416,464.493 146.5,462.5C 145.534,456.549 144.868,450.549 144.5,444.5C 141.5,444.5 138.5,444.5 135.5,444.5C 125.52,345.038 129.02,246.038 146,147.5C 163.64,125.597 186.473,113.597 214.5,111.5 Z M 141.5,446.5 C 142.947,451.488 143.947,456.655 144.5,462C 142.19,462.497 139.857,462.663 137.5,462.5C 137.013,458.272 136.347,454.105 135.5,450C 137.727,449.059 139.727,447.892 141.5,446.5 Z M 499.5,447.5 C 500.386,446.224 501.386,446.224 502.5,447.5C 501.767,448.087 500.767,448.087 499.5,447.5 Z M 495.5,447.5 C 497.84,448.086 500.007,449.086 502,450.5C 501.733,454.441 501.566,458.441 501.5,462.5C 499.167,462.5 496.833,462.5 494.5,462.5C 494.751,457.493 495.084,452.493 495.5,447.5 Z"/>
  </g>
</svg>
