<?xml version="1.0" encoding="UTF-8"?>
<!-- Fixed fillable version -->
<svg width="488.2716mm" height="575mm" viewBox="0.5019 -582.299 488.2716 575" version="1.1" xmlns="http://www.w3.org/2000/svg" style="stroke-linecap:round;stroke-linejoin:round;fill:none">

    <g transform="scale(1,-1)">

        <!-- AUTO FILL LAYER -->
        <g id="auto-fill" class="auto-fill" data-auto-fill="true" fill="none" stroke="none">

            <!-- Main chair body -->
            <path d="
                M69.6377,7.299
                L419.6377,7.299
                A50,50 0 0,1 469.6377,57.299
                L469.6377,381.1603
                A50,50 0 0,1 446.5608,423.2928
                A375,375 0 0,1 379.6377,457.1561
                L369.6377,460.8524
                A375,375 0 0,1 119.6377,460.8524
                L109.6377,457.1561
                A375,375 0 0,1 42.7147,423.2928
                A50,50 0 0,1 19.6377,381.1603
                L19.6377,57.299
                A50,50 0 0,1 69.6377,7.299
                Z
            "/>

            <!-- Top curved backrest -->
            <path d="
                M5.2306,514.0748
                A454.1667,454.1667 0 0,0 484.0449,514.0748
                A10,10 0 0,0 485.8446,498.5059
                L475.7004,488.3617
                A10,10 0 0,0 462.8114,487.2994
                A375,375 0 0,1 379.6377,532.1561
                L369.6377,535.8524
                A375,375 0 0,1 119.6377,535.8524
                L109.6377,532.1561
                A375,375 0 0,1 26.4641,487.2994
                A10,10 0 0,0 13.575,488.3617
                L3.4309,498.5059
                A10,10 0 0,0 5.2306,514.0748
                Z
            "/>

            <!-- Left connector -->
            <path d="
                M109.6377,457.1561
                L119.6377,460.8524
                L119.6377,535.8524
                L109.6377,532.1561
                Z
            "/>

            <!-- Right connector -->
            <path d="
                M369.6377,460.8524
                L379.6377,457.1561
                L379.6377,532.1561
                L369.6377,535.8524
                Z
            "/>

        </g>

        <!-- ORIGINAL OUTLINES -->
        <g fill="none">

            <path d="M379.6377,457.1561 L379.6377,532.1561" style="stroke:#000000;stroke-width:0.1;"/>
            <path d="M369.6377,535.8524 L369.6377,460.8524" style="stroke:#000000;stroke-width:0.1;"/>
            <path d="M119.6377,460.8524 L119.6377,535.8524" style="stroke:#000000;stroke-width:0.1;"/>
            <path d="M109.6377,532.1561 L109.6377,457.1561" style="stroke:#000000;stroke-width:0.1;"/>

            <path d="M42.7147,423.2928 A50,50 0 0,1 19.6377,381.1603" style="stroke:#000000;stroke-width:0.1;"/>
            <path d="M419.6377,7.299 A50,50 0 0,1 469.6377,57.299" style="stroke:#000000;stroke-width:0.1;"/>
            <path d="M19.6377,57.299 A50,50 0 0,1 69.6377,7.299" style="stroke:#000000;stroke-width:0.1;"/>

            <path d="M485.8446,498.5059 L475.7004,488.3617" style="stroke:#000000;stroke-width:0.1;"/>

            <path d="M13.575,488.3617 A10,10 0 0,1 26.4641,487.2994" style="stroke:#000000;stroke-width:0.1;"/>
            <path d="M5.2306,514.0748 A10,10 0 0,1 3.4309,498.5059" style="stroke:#000000;stroke-width:0.1;"/>
            <path d="M3.4309,498.5059 L13.575,488.3617" style="stroke:#000000;stroke-width:0.1;"/>

            <path d="M484.0449,514.0748 A454.1667,454.1667 0 0,1 5.2306,514.0748" style="stroke:#000000;stroke-width:0.1;"/>

            <path d="M462.8114,487.2994 A375,375 0 0,1 379.6377,532.1561" style="stroke:#000000;stroke-width:0.1;"/>
            <path d="M446.5608,423.2928 A375,375 0 0,1 379.6377,457.1561" style="stroke:#000000;stroke-width:0.1;"/>

            <path d="M19.6377,57.299 L19.6377,381.1603" style="stroke:#000000;stroke-width:0.1;"/>
            <path d="M469.6377,57.299 L469.6377,381.1603" style="stroke:#000000;stroke-width:0.1;"/>
            <path d="M69.6377,7.299 L419.6377,7.299" style="stroke:#000000;stroke-width:0.1;"/>

            <path d="M485.8446,498.5059 A10,10 0 0,1 484.0449,514.0748" style="stroke:#000000;stroke-width:0.1;"/>
            <path d="M462.8114,487.2994 A10,10 0 0,1 475.7004,488.3617" style="stroke:#000000;stroke-width:0.1;"/>

            <path d="M469.6377,381.1603 A50,50 0 0,1 446.5608,423.2928" style="stroke:#000000;stroke-width:0.1;"/>

            <path d="M109.6377,457.1561 A375,375 0 0,1 42.7147,423.2928" style="stroke:#000000;stroke-width:0.1;"/>
            <path d="M109.6377,532.1561 A375,375 0 0,1 26.4641,487.2994" style="stroke:#000000;stroke-width:0.1;"/>

            <path d="M369.6377,535.8524 A375,375 0 0,1 119.6377,535.8524" style="stroke:#000000;stroke-width:0.1;"/>
            <path d="M369.6377,460.8524 A375,375 0 0,1 119.6377,460.8524" style="stroke:#000000;stroke-width:0.1;"/>

        </g>

    </g>

</svg>