<?xml version="1.0" encoding="UTF-8"?>
<!-- 2026-03-10 12:29:55 Generated by QCAD 3.32.6 SVG Exporter -->
<svg  width="482.1673mm" height="516.5063mm" viewBox="2.0419 -518.6078 482.1673 516.5063" version="1.1" xmlns="http://www.w3.org/2000/svg" style="stroke-linecap:round;stroke-linejoin:round;">
    <g transform="scale(1,-1)">
            <!-- Auto-generated fillable area -->
            <!-- Block Reference: Event chair 1 / entities: 66 -->
        <g>
            <!-- Line -->
            <path d="M303.1256,32.1015 L303.1256,142.0275 " style="stroke:#000000;stroke-width:0.1;"/>
            <!-- Line -->
            <path d="M273.1256,32.1015 L273.1256,167.0245 " style="stroke:#000000;stroke-width:0.1;"/>
            <!-- Line -->
            <path d="M213.1256,32.1015 L213.1256,167.0245 " style="stroke:#000000;stroke-width:0.1;"/>
            <!-- Line -->
            <path d="M183.1256,32.1015 L183.1256,142.0275 " style="stroke:#000000;stroke-width:0.1;"/>
            <!-- Line -->
            <path d="M243.1256,32.1015 L243.1256,185.1181 " style="stroke:#000000;stroke-width:0.1;"/>
            <!-- Line -->
            <path d="M448.6306,335.89 L468.1256,52.1015 " style="stroke:#000000;stroke-width:0.1;"/>
            <!-- Line -->
            <path d="M363.1256,32.1015 L363.1256,92.0334 " style="stroke:#000000;stroke-width:0.1;"/>
            <!-- Line -->
            <path d="M333.1256,32.1015 L333.1256,117.0304 " style="stroke:#000000;stroke-width:0.1;"/>
            <!-- Line -->
            <path d="M37.6205,335.89 L18.1256,52.1015 " style="stroke:#000000;stroke-width:0.1;"/>
            <!-- Line -->
            <path d="M153.1256,32.1015 L153.1256,117.0304 " style="stroke:#000000;stroke-width:0.1;"/>
            <!-- Line -->
            <path d="M123.1256,32.1015 L123.1256,92.0334 " style="stroke:#000000;stroke-width:0.1;"/>
            <!-- Line -->
            <path d="M171.1171,132.0215 L53.6864,132.0215 " style="stroke:#000000;stroke-width:0.1;"/>
            <!-- Line -->
            <path d="M207.1213,162.0215 L55.7473,162.0215 " style="stroke:#000000;stroke-width:0.1;"/>
            <!-- Line -->
            <path d="M207.1213,222.0215 L59.869,222.0215 " style="stroke:#000000;stroke-width:0.1;"/>
            <!-- Line -->
            <path d="M171.1171,252.0215 L61.9299,252.0215 " style="stroke:#000000;stroke-width:0.1;"/>
            <!-- Line -->
            <path d="M233.8204,192.0215 L57.8081,192.0215 " style="stroke:#000000;stroke-width:0.1;"/>
            <!-- Arc -->
            <path d="M468.1256,489.7916 A892.82,892.82 0 0,1 18.1256,489.7916" style="stroke:#000000;stroke-width:0.1;"/>
            <!-- Arc -->
            <path d="M455.525,441.4054 A842.82,842.82 0 0,1 30.7261,441.4054" style="stroke:#000000;stroke-width:0.1;"/>
            <!-- Line -->
            <path d="M398.7867,381.9416 L87.4644,381.9416 " style="stroke:#000000;stroke-width:0.1;"/>
            <!-- Line -->
            <path d="M183.1256,242.0156 L183.1256,351.9416 " style="stroke:#000000;stroke-width:0.1;"/>
            <!-- Line -->
            <path d="M213.1256,217.0186 L213.1256,351.9416 " style="stroke:#000000;stroke-width:0.1;"/>
            <!-- Line -->
            <path d="M273.1256,217.0186 L273.1256,351.9416 " style="stroke:#000000;stroke-width:0.1;"/>
            <!-- Line -->
            <path d="M303.1256,242.0156 L303.1256,351.9416 " style="stroke:#000000;stroke-width:0.1;"/>
            <!-- Line -->
            <path d="M243.1256,201.8687 L243.1256,351.9416 " style="stroke:#000000;stroke-width:0.1;"/>
            <!-- Arc -->
            <path d="M450.1192,442.7941 A25.1646,25.1646 0 1,1 462.3991,491.2627" style="stroke:#000000;stroke-width:0.1;"/>
            <!-- Arc -->
            <path d="M448.6306,335.89 A50,50 0 0,1 445.739,349.1312" style="stroke:#000000;stroke-width:0.1;"/>
            <!-- Arc -->
            <path d="M399.1383,378.4176 A30,30 0 0,1 430.4811,348.4476" style="stroke:#000000;stroke-width:0.1;"/>
            <!-- Line -->
            <path d="M445.739,349.1312 L430.4811,348.4476 " style="stroke:#000000;stroke-width:0.1;"/>
            <!-- Line -->
            <path d="M399.1383,378.4176 L399.1383,381.9416 " style="stroke:#000000;stroke-width:0.1;"/>
            <!-- Line -->
            <path d="M471.2195,444.2993 L445.739,349.1312 " style="stroke:#000000;stroke-width:0.1;"/>
            <!-- Line -->
            <path d="M399.1383,381.9416 L414.0842,451.087 " style="stroke:#000000;stroke-width:0.1;"/>
            <!-- Line -->
            <path d="M333.1256,267.0127 L333.1256,351.9416 " style="stroke:#000000;stroke-width:0.1;"/>
            <!-- Line -->
            <path d="M363.1256,292.0097 L363.1256,351.9416 " style="stroke:#000000;stroke-width:0.1;"/>
            <!-- Line -->
            <path d="M393.1256,317.0068 L393.1256,351.9416 " style="stroke:#000000;stroke-width:0.1;"/>
            <!-- Line -->
            <path d="M420.1995,312.0215 L387.1426,312.0215 " style="stroke:#000000;stroke-width:0.1;"/>
            <!-- Line -->
            <path d="M422.2604,282.0215 L351.1383,282.0215 " style="stroke:#000000;stroke-width:0.1;"/>
            <!-- Line -->
            <path d="M434.6256,102.0215 L351.1383,102.0215 " style="stroke:#000000;stroke-width:0.1;"/>
            <!-- Line -->
            <path d="M426.3821,222.0215 L279.1298,222.0215 " style="stroke:#000000;stroke-width:0.1;"/>
            <!-- Line -->
            <path d="M424.3213,252.0215 L315.1341,252.0215 " style="stroke:#000000;stroke-width:0.1;"/>
            <!-- Line -->
            <path d="M430.5039,162.0215 L279.1298,162.0215 " style="stroke:#000000;stroke-width:0.1;"/>
            <!-- Line -->
            <path d="M432.5647,132.0215 L315.1341,132.0215 " style="stroke:#000000;stroke-width:0.1;"/>
            <!-- Line -->
            <path d="M253.3809,192.0215 L428.443,192.0215 " style="stroke:#000000;stroke-width:0.1;"/>
            <!-- Arc -->
            <path d="M23.8521,491.2627 A25.1646,25.1646 0 1,1 36.1319,442.7941" style="stroke:#000000;stroke-width:0.1;"/>
            <!-- Line -->
            <path d="M87.1128,381.9416 L72.1669,451.087 " style="stroke:#000000;stroke-width:0.1;"/>
            <!-- Line -->
            <path d="M87.1128,378.4176 L87.1128,381.9416 " style="stroke:#000000;stroke-width:0.1;"/>
            <!-- Line -->
            <path d="M40.5121,349.1312 L55.77,348.4476 " style="stroke:#000000;stroke-width:0.1;"/>
            <!-- Arc -->
            <path d="M55.77,348.4476 A30,30 0 0,1 87.1128,378.4176" style="stroke:#000000;stroke-width:0.1;"/>
            <!-- Arc -->
            <path d="M40.5121,349.1312 A50,50 0 0,1 37.6205,335.89" style="stroke:#000000;stroke-width:0.1;"/>
            <!-- Line -->
            <path d="M15.0316,444.2993 L40.5121,349.1312 " style="stroke:#000000;stroke-width:0.1;"/>
            <!-- Line -->
            <path d="M135.1128,102.0215 L51.6255,102.0215 " style="stroke:#000000;stroke-width:0.1;"/>
            <!-- Line -->
            <path d="M135.1128,282.0215 L63.9907,282.0215 " style="stroke:#000000;stroke-width:0.1;"/>
            <!-- Line -->
            <path d="M99.1085,312.0215 L66.0516,312.0215 " style="stroke:#000000;stroke-width:0.1;"/>
            <!-- Line -->
            <path d="M93.1256,317.0068 L93.1256,351.9416 " style="stroke:#000000;stroke-width:0.1;"/>
            <!-- Line -->
            <path d="M123.1256,292.0097 L123.1256,351.9416 " style="stroke:#000000;stroke-width:0.1;"/>
            <!-- Line -->
            <path d="M153.1256,267.0127 L153.1256,351.9416 " style="stroke:#000000;stroke-width:0.1;"/>
            <!-- Line -->
            <path d="M68.1256,2.1015 L418.1256,2.1015 " style="stroke:#000000;stroke-width:0.1;"/>
            <!-- Arc -->
            <path d="M418.1256,2.1015 A50,50 0 0,1 468.1256,52.1015" style="stroke:#000000;stroke-width:0.1;"/>
            <!-- Line -->
            <path d="M436.6864,72.0215 L387.1426,72.0215 " style="stroke:#000000;stroke-width:0.1;"/>
            <!-- Line -->
            <path d="M435.3997,42.0215 L423.1468,42.0215 " style="stroke:#000000;stroke-width:0.1;"/>
            <!-- Line -->
            <path d="M423.1256,32.7366 L423.1256,42.0393 " style="stroke:#000000;stroke-width:0.1;"/>
            <!-- Line -->
            <path d="M393.1256,32.1015 L393.1256,67.0363 " style="stroke:#000000;stroke-width:0.1;"/>
            <!-- Arc -->
            <path d="M18.1256,52.1015 A50,50 0 0,1 68.1256,2.1015" style="stroke:#000000;stroke-width:0.1;"/>
            <!-- Line -->
            <path d="M63.1043,42.0215 L50.8515,42.0215 " style="stroke:#000000;stroke-width:0.1;"/>
            <!-- Line -->
            <path d="M99.1085,72.0215 L49.5647,72.0215 " style="stroke:#000000;stroke-width:0.1;"/>
            <!-- Line -->
            <path d="M93.1256,32.1015 L93.1256,67.0363 " style="stroke:#000000;stroke-width:0.1;"/>
            <!-- Line -->
            <path d="M63.1256,32.7366 L63.1256,42.0393 " style="stroke:#000000;stroke-width:0.1;"/>
        </g>
    </g>
</svg>

