<?xml version="1.0" encoding="UTF-8"?>
<!-- 2026-03-10 12:26:57 Generated by QCAD 3.32.6 SVG Exporter -->
<svg  width="482.1673mm" height="516.5063mm" viewBox="3.7715 -520.3647 482.1673 516.5063" version="1.1" xmlns="http://www.w3.org/2000/svg" style="stroke-linecap:round;stroke-linejoin:round;">
    <g transform="scale(1,-1)">
            <!-- Auto-generated fillable area -->
            <!-- Block Reference: Event chair 1 / entities: 66 -->
        <g>
            <!-- Line -->
            <path d="M304.8552,33.8583 L304.8552,143.7843 " style="stroke:#000000;stroke-width:0.1;"/>
            <!-- Line -->
            <path d="M274.8552,33.8583 L274.8552,168.7813 " style="stroke:#000000;stroke-width:0.1;"/>
            <!-- Line -->
            <path d="M214.8552,33.8583 L214.8552,168.7813 " style="stroke:#000000;stroke-width:0.1;"/>
            <!-- Line -->
            <path d="M184.8552,33.8583 L184.8552,143.7843 " style="stroke:#000000;stroke-width:0.1;"/>
            <!-- Line -->
            <path d="M244.8552,33.8583 L244.8552,186.875 " style="stroke:#000000;stroke-width:0.1;"/>
            <!-- Line -->
            <path d="M450.3602,337.6469 L469.8552,53.8583 " style="stroke:#000000;stroke-width:0.1;"/>
            <!-- Line -->
            <path d="M364.8552,33.8583 L364.8552,93.7902 " style="stroke:#000000;stroke-width:0.1;"/>
            <!-- Line -->
            <path d="M334.8552,33.8583 L334.8552,118.7872 " style="stroke:#000000;stroke-width:0.1;"/>
            <!-- Line -->
            <path d="M39.3501,337.6469 L19.8552,53.8583 " style="stroke:#000000;stroke-width:0.1;"/>
            <!-- Line -->
            <path d="M154.8552,33.8583 L154.8552,118.7872 " style="stroke:#000000;stroke-width:0.1;"/>
            <!-- Line -->
            <path d="M124.8552,33.8583 L124.8552,93.7902 " style="stroke:#000000;stroke-width:0.1;"/>
            <!-- Line -->
            <path d="M172.8467,133.7784 L55.416,133.7784 " style="stroke:#000000;stroke-width:0.1;"/>
            <!-- Line -->
            <path d="M208.8509,163.7784 L57.4769,163.7784 " style="stroke:#000000;stroke-width:0.1;"/>
            <!-- Line -->
            <path d="M208.8509,223.7784 L61.5986,223.7784 " style="stroke:#000000;stroke-width:0.1;"/>
            <!-- Line -->
            <path d="M172.8467,253.7784 L63.6595,253.7784 " style="stroke:#000000;stroke-width:0.1;"/>
            <!-- Line -->
            <path d="M235.55,193.7784 L59.5377,193.7784 " style="stroke:#000000;stroke-width:0.1;"/>
            <!-- Arc -->
            <path d="M469.8552,491.5485 A892.82,892.82 0 0,1 19.8552,491.5485" style="stroke:#000000;stroke-width:0.1;"/>
            <!-- Arc -->
            <path d="M457.2546,443.1622 A842.82,842.82 0 0,1 32.4557,443.1622" style="stroke:#000000;stroke-width:0.1;"/>
            <!-- Line -->
            <path d="M400.5163,383.6984 L89.194,383.6984 " style="stroke:#000000;stroke-width:0.1;"/>
            <!-- Line -->
            <path d="M184.8552,243.7725 L184.8552,353.6984 " style="stroke:#000000;stroke-width:0.1;"/>
            <!-- Line -->
            <path d="M214.8552,218.7754 L214.8552,353.6984 " style="stroke:#000000;stroke-width:0.1;"/>
            <!-- Line -->
            <path d="M274.8552,218.7754 L274.8552,353.6984 " style="stroke:#000000;stroke-width:0.1;"/>
            <!-- Line -->
            <path d="M304.8552,243.7725 L304.8552,353.6984 " style="stroke:#000000;stroke-width:0.1;"/>
            <!-- Line -->
            <path d="M244.8552,203.6256 L244.8552,353.6984 " style="stroke:#000000;stroke-width:0.1;"/>
            <!-- Arc -->
            <path d="M451.8489,444.5509 A25.1646,25.1646 0 1,1 464.1287,493.0195" style="stroke:#000000;stroke-width:0.1;"/>
            <!-- Arc -->
            <path d="M450.3602,337.6469 A50,50 0 0,1 447.4686,350.8881" style="stroke:#000000;stroke-width:0.1;"/>
            <!-- Arc -->
            <path d="M400.8679,380.1744 A30,30 0 0,1 432.2107,350.2045" style="stroke:#000000;stroke-width:0.1;"/>
            <!-- Line -->
            <path d="M447.4686,350.8881 L432.2107,350.2045 " style="stroke:#000000;stroke-width:0.1;"/>
            <!-- Line -->
            <path d="M400.8679,380.1744 L400.8679,383.6984 " style="stroke:#000000;stroke-width:0.1;"/>
            <!-- Line -->
            <path d="M472.9491,446.0561 L447.4686,350.8881 " style="stroke:#000000;stroke-width:0.1;"/>
            <!-- Line -->
            <path d="M400.8679,383.6984 L415.8138,452.8438 " style="stroke:#000000;stroke-width:0.1;"/>
            <!-- Line -->
            <path d="M334.8552,268.7695 L334.8552,353.6984 " style="stroke:#000000;stroke-width:0.1;"/>
            <!-- Line -->
            <path d="M364.8552,293.7666 L364.8552,353.6984 " style="stroke:#000000;stroke-width:0.1;"/>
            <!-- Line -->
            <path d="M394.8552,318.7636 L394.8552,353.6984 " style="stroke:#000000;stroke-width:0.1;"/>
            <!-- Line -->
            <path d="M421.9291,313.7784 L388.8722,313.7784 " style="stroke:#000000;stroke-width:0.1;"/>
            <!-- Line -->
            <path d="M423.99,283.7784 L352.8679,283.7784 " style="stroke:#000000;stroke-width:0.1;"/>
            <!-- Line -->
            <path d="M436.3552,103.7784 L352.8679,103.7784 " style="stroke:#000000;stroke-width:0.1;"/>
            <!-- Line -->
            <path d="M428.1117,223.7784 L280.8594,223.7784 " style="stroke:#000000;stroke-width:0.1;"/>
            <!-- Line -->
            <path d="M426.0509,253.7784 L316.8637,253.7784 " style="stroke:#000000;stroke-width:0.1;"/>
            <!-- Line -->
            <path d="M432.2335,163.7784 L280.8594,163.7784 " style="stroke:#000000;stroke-width:0.1;"/>
            <!-- Line -->
            <path d="M434.2943,133.7784 L316.8637,133.7784 " style="stroke:#000000;stroke-width:0.1;"/>
            <!-- Line -->
            <path d="M255.1105,193.7784 L430.1726,193.7784 " style="stroke:#000000;stroke-width:0.1;"/>
            <!-- Arc -->
            <path d="M25.5817,493.0195 A25.1646,25.1646 0 1,1 37.8615,444.5509" style="stroke:#000000;stroke-width:0.1;"/>
            <!-- Line -->
            <path d="M88.8424,383.6984 L73.8965,452.8438 " style="stroke:#000000;stroke-width:0.1;"/>
            <!-- Line -->
            <path d="M88.8424,380.1744 L88.8424,383.6984 " style="stroke:#000000;stroke-width:0.1;"/>
            <!-- Line -->
            <path d="M42.2417,350.8881 L57.4996,350.2045 " style="stroke:#000000;stroke-width:0.1;"/>
            <!-- Arc -->
            <path d="M57.4996,350.2045 A30,30 0 0,1 88.8424,380.1744" style="stroke:#000000;stroke-width:0.1;"/>
            <!-- Arc -->
            <path d="M42.2417,350.8881 A50,50 0 0,1 39.3501,337.6469" style="stroke:#000000;stroke-width:0.1;"/>
            <!-- Line -->
            <path d="M16.7612,446.0561 L42.2417,350.8881 " style="stroke:#000000;stroke-width:0.1;"/>
            <!-- Line -->
            <path d="M136.8424,103.7784 L53.3552,103.7784 " style="stroke:#000000;stroke-width:0.1;"/>
            <!-- Line -->
            <path d="M136.8424,283.7784 L65.7203,283.7784 " style="stroke:#000000;stroke-width:0.1;"/>
            <!-- Line -->
            <path d="M100.8381,313.7784 L67.7812,313.7784 " style="stroke:#000000;stroke-width:0.1;"/>
            <!-- Line -->
            <path d="M94.8552,318.7636 L94.8552,353.6984 " style="stroke:#000000;stroke-width:0.1;"/>
            <!-- Line -->
            <path d="M124.8552,293.7666 L124.8552,353.6984 " style="stroke:#000000;stroke-width:0.1;"/>
            <!-- Line -->
            <path d="M154.8552,268.7695 L154.8552,353.6984 " style="stroke:#000000;stroke-width:0.1;"/>
            <!-- Line -->
            <path d="M69.8552,3.8583 L419.8552,3.8583 " style="stroke:#000000;stroke-width:0.1;"/>
            <!-- Arc -->
            <path d="M419.8552,3.8583 A50,50 0 0,1 469.8552,53.8583" style="stroke:#000000;stroke-width:0.1;"/>
            <!-- Line -->
            <path d="M438.4161,73.7784 L388.8722,73.7784 " style="stroke:#000000;stroke-width:0.1;"/>
            <!-- Line -->
            <path d="M437.1293,43.7784 L424.8765,43.7784 " style="stroke:#000000;stroke-width:0.1;"/>
            <!-- Line -->
            <path d="M424.8552,34.4934 L424.8552,43.7961 " style="stroke:#000000;stroke-width:0.1;"/>
            <!-- Line -->
            <path d="M394.8552,33.8583 L394.8552,68.7932 " style="stroke:#000000;stroke-width:0.1;"/>
            <!-- Arc -->
            <path d="M19.8552,53.8583 A50,50 0 0,1 69.8552,3.8583" style="stroke:#000000;stroke-width:0.1;"/>
            <!-- Line -->
            <path d="M64.8339,43.7784 L52.5811,43.7784 " style="stroke:#000000;stroke-width:0.1;"/>
            <!-- Line -->
            <path d="M100.8381,73.7784 L51.2943,73.7784 " style="stroke:#000000;stroke-width:0.1;"/>
            <!-- Line -->
            <path d="M94.8552,33.8583 L94.8552,68.7932 " style="stroke:#000000;stroke-width:0.1;"/>
            <!-- Line -->
            <path d="M64.8552,34.4934 L64.8552,43.7961 " style="stroke:#000000;stroke-width:0.1;"/>
        </g>
    </g>
</svg>

