<?xml version="1.0" encoding="UTF-8"?>
<!-- 2026-03-10 12:41:15 Generated by QCAD 3.32.6 SVG Exporter -->
<svg width="452.1514mm" height="486.1857mm" viewBox="-1.2608 -490.046 452.1514 486.1857" version="1.1" xmlns="http://www.w3.org/2000/svg" style="stroke-linecap:round;stroke-linejoin:round;">
    <g transform="scale(1,-1)">
            <!-- Auto-generated fillable area -->
            <path id="auto-fill" fill="inherit" stroke="none" d="M41.0777,463.9609 L407.9205,463.9609 L405.5764,451.3337 A317.3163,317.3163 0 0,1 390.848,361.9953 A97.8312,97.8312 0 0,1 331.2842,382.8987 L117.7141,382.8987 A97.8312,97.8312 0 0,1 58.1502,361.9953 A317.3163,317.3163 0 0,1 43.4219,451.3337 Z"/>
            <path id="auto-fill" fill="inherit" stroke="none" d="M23.9047,490.0459 L425.7252,490.0459 L408.2426,472.9678 L40.7556,472.9678 Z"/>
            <!-- Block Reference: Event Chair 4 / entities: 1 -->
        <g>
            <!-- Block Reference: A$C51F1 / entities: 31 -->
            <g>
                <!-- Polyline -->
                <path d="M13.1231,470.8612 A0.216619,0.216619 0 0 0 22.7069,383.4754 A1.18069,1.18069 0 0 1 7.1335,6.2459 A0.0222032,0.0222032 0 0 1 31.5586,9.1741 A0.0120328,0.0120328 0 0 0 40.7021,9.8368 A0.480879,0.480879 0 0 1 94.7697,6.2459 L224.8149,6.2459 L354.8602,6.2459 A0.480879,0.480879 0 0 1 408.9277,9.8368 A0.0120328,0.0120328 0 0 0 418.0713,9.1741 A0.0222032,0.0222032 0 0 1 442.4964,6.2459 A1.18069,1.18069 0 0 1 426.923,383.4754 A0.216619,0.216619 0 0 0 436.5068,470.8612 A0.0126008,0.0126008 0 0 1 425.7252,490.0459 L23.9047,490.0459 A0.0126008,0.0126008 0 0 1 13.1231,470.8612 Z" style="stroke:#000000;stroke-width:0.1;"/>
                <!-- Line -->
                <path d="M224.4991,382.8987 L331.2842,382.8987 " style="stroke:#000000;stroke-width:0.1;"/>
                <!-- Arc -->
                <path d="M402.2483,378.0038 A1154.4088,1154.4088 0 0,0 417.4751,9.1698" style="stroke:#000000;stroke-width:0.1;"/>
                <!-- Arc -->
                <path d="M401.8606,380.5956 A240.8687,240.8687 0 0,0 410.0598,469.7083" style="stroke:#000000;stroke-width:0.1;"/>
                <!-- Line -->
                <path d="M224.4991,464.7797 L407.9205,464.7797 " style="stroke:#000000;stroke-width:0.1;"/>
                <!-- Line -->
                <path d="M224.4991,472.9678 L408.2426,472.9678 " style="stroke:#000000;stroke-width:0.1;"/>
                <!-- Arc -->
                <path d="M408.2426,472.9678 A2.4177,2.4177 0 0,0 410.0598,469.7083" style="stroke:#000000;stroke-width:0.1;"/>
                <!-- Arc -->
                <path d="M390.848,361.9953 A317.3163,317.3163 0 0,0 405.5764,451.3337" style="stroke:#000000;stroke-width:0.1;"/>
                <!-- Arc -->
                <path d="M331.2842,382.8987 A97.8312,97.8312 0 0,0 408.7314,343.6847" style="stroke:#000000;stroke-width:0.1;"/>
                <!-- Arc -->
                <path d="M407.8541,464.7797 A0.7251,0.7251 0 0,0 408.5788,463.8371" style="stroke:#000000;stroke-width:0.1;"/>
                <!-- Line -->
                <path d="M224.4991,463.9609 L407.9205,463.9609 " style="stroke:#000000;stroke-width:0.1;"/>
                <!-- Arc -->
                <path d="M407.9205,463.9609 A0.4331,0.4331 0 0,0 408.4835,463.4801" style="stroke:#000000;stroke-width:0.1;"/>
                <!-- Arc -->
                <path d="M408.3448,9.8316 A12.0153,12.0153 0 0,0 417.4751,9.1698" style="stroke:#000000;stroke-width:0.1;"/>
                <!-- Line -->
                <path d="M408.3448,9.8316 L410.1099,29.2327 " style="stroke:#000000;stroke-width:0.1;"/>
                <!-- Line -->
                <path d="M410.1099,29.2327 L419.2522,24.9053 " style="stroke:#000000;stroke-width:0.1;"/>
                <!-- Line -->
                <path d="M410.1099,29.2327 L419.7026,29.2327 " style="stroke:#000000;stroke-width:0.1;"/>
                <!-- Line -->
                <path d="M38.8884,29.2327 L29.2957,29.2327 " style="stroke:#000000;stroke-width:0.1;"/>
                <!-- Line -->
                <path d="M38.8884,29.2327 L29.7461,24.9053 " style="stroke:#000000;stroke-width:0.1;"/>
                <!-- Line -->
                <path d="M40.6534,9.8316 L38.8884,29.2327 " style="stroke:#000000;stroke-width:0.1;"/>
                <!-- Arc -->
                <path d="M31.5231,9.1698 A12.0153,12.0153 0 0,0 40.6534,9.8316" style="stroke:#000000;stroke-width:0.1;"/>
                <!-- Arc -->
                <path d="M40.5147,463.4801 A0.4331,0.4331 0 0,0 41.0777,463.9609" style="stroke:#000000;stroke-width:0.1;"/>
                <!-- Line -->
                <path d="M224.4991,463.9609 L41.0777,463.9609 " style="stroke:#000000;stroke-width:0.1;"/>
                <!-- Arc -->
                <path d="M40.4195,463.8371 A0.7251,0.7251 0 0,0 41.1441,464.7797" style="stroke:#000000;stroke-width:0.1;"/>
                <!-- Arc -->
                <path d="M40.2668,343.6847 A97.8312,97.8312 0 0,0 117.7141,382.8987" style="stroke:#000000;stroke-width:0.1;"/>
                <!-- Arc -->
                <path d="M43.4219,451.3337 A317.3163,317.3163 0 0,0 58.1502,361.9953" style="stroke:#000000;stroke-width:0.1;"/>
                <!-- Arc -->
                <path d="M38.9384,469.7083 A2.4177,2.4177 0 0,0 40.7556,472.9678" style="stroke:#000000;stroke-width:0.1;"/>
                <!-- Line -->
                <path d="M224.4991,472.9678 L40.7556,472.9678 " style="stroke:#000000;stroke-width:0.1;"/>
                <!-- Line -->
                <path d="M224.4991,464.7797 L41.0777,464.7797 " style="stroke:#000000;stroke-width:0.1;"/>
                <!-- Arc -->
                <path d="M38.9384,469.7083 A240.8687,240.8687 0 0,0 47.1376,380.5956" style="stroke:#000000;stroke-width:0.1;"/>
                <!-- Arc -->
                <path d="M31.5231,9.1698 A1154.4088,1154.4088 0 0,0 46.75,378.0038" style="stroke:#000000;stroke-width:0.1;"/>
                <!-- Line -->
                <path d="M224.4991,382.8987 L117.7141,382.8987 " style="stroke:#000000;stroke-width:0.1;"/>
            </g>
        </g>
    </g>
</svg>

