<?xml version="1.0" encoding="UTF-8"?>
<!-- 2026-03-10 12:42:19 Generated by QCAD 3.32.6 SVG Exporter -->
<svg  width="436.7749mm" height="501.0684mm" viewBox="1.3448 -506.7986 436.7749 501.0684" version="1.1" xmlns="http://www.w3.org/2000/svg" style="stroke-linecap:round;stroke-linejoin:round;">
    <g transform="scale(1,-1)">
            <!-- Auto-generated fillable area -->
            <!-- Block Reference: Event Chair 2 / entities: 1 -->
        <g>
            <!-- Block Reference: chair_015 / entities: 8 -->
            <g>
                <!-- Arc -->
                <path d="M264.8234,427.4604 A664.5833,664.5833 0 0,1 173.1569,427.2695" style="stroke:#000000;stroke-width:0.1;"/>
                <!-- Arc -->
                <path d="M264.7929,442.092 A664.5833,664.5833 0 0,1 173.1265,441.9011" style="stroke:#000000;stroke-width:0.1;"/>
                <!-- Polyline -->
                <path d="M358.1187,472.0828 A689.911,689.911 0 0 1 79.6766,471.5029" style="stroke:#000000;stroke-width:0.1;"/>
                <!-- Polyline -->
                <path d="M264.8234,427.4604 L264.7929,442.092 A687.5,687.5 0 0 0 364.2147,428.3148 A10.4167,10.4167 0 0 1 376.7187,437.1205 L378.8251,475.1454 A15.625,15.625 0 0 1 366.4381,491.3005 A710.417,710.417 0 0 1 71.2773,490.6857 A15.625,15.625 0 0 1 58.9576,474.4792 L61.2224,436.4634 A10.4167,10.4167 0 0 1 73.7629,427.7099 A687.5,687.5 0 0 0 173.1265,441.9011 L173.1569,427.2695 A664.583,664.583 0 0 1 83.6774,414.7391 A68.75,68.75 0 0 1 29.5814,355.8443 L3.2397,130.8907 L2.0526,121.2308 A91.6667,91.6667 0 0 1 75.1341,20.1486 A733.333,733.333 0 0 1 364.5412,20.7514 A91.6667,91.6667 0 0 1 437.201,122.1371 L435.9737,131.7919 L408.6952,356.6339 A68.75,68.75 0 0 1 354.3543,415.3028 A664.583,664.583 0 0 1 264.8234,427.4604 Z" style="stroke:#000000;stroke-width:0.1;"/>
                <!-- Circle -->
                <circle cx="310.8919921601828" cy="314.55513557803624" r="8.202099737532803" style="stroke:#000000;stroke-width:0.1;"/>
                <!-- Circle -->
                <circle cx="311.29554541455946" cy="120.80557634765091" r="8.202099737532803" style="stroke:#000000;stroke-width:0.1;"/>
                <!-- Circle -->
                <circle cx="127.9625802190094" cy="120.42372684170141" r="8.202099737532803" style="stroke:#000000;stroke-width:0.1;"/>
                <!-- Circle -->
                <circle cx="127.55905644551058" cy="314.1733066310685" r="8.202099737532803" style="stroke:#000000;stroke-width:0.1;"/>
            </g>
        </g>
    </g>
</svg>

