<?xml version="1.0" encoding="UTF-8"?>
<!-- 2026-03-10 12:41:47 Generated by QCAD 3.32.6 SVG Exporter -->
<svg  width="488.2716mm" height="575mm" viewBox="0.5019 -582.299 488.2716 575" version="1.1" xmlns="http://www.w3.org/2000/svg" style="stroke-linecap:round;stroke-linejoin:round;">
    <g transform="scale(1,-1)">
            <!-- Auto-generated fillable area -->
            <path id="auto-fill" fill="inherit" stroke="none" d="M69.6377,7.299 L419.6377,7.299 A50,50 0 0,1 469.6377,57.299 L469.6377,381.1603 A50,50 0 0,1 446.5608,423.2928 A375,375 0 0,1 42.7147,423.2928 A50,50 0 0,1 19.6377,381.1603 L19.6377,57.299 A50,50 0 0,1 69.6377,7.299 Z"/>
            <path id="auto-fill" fill="inherit" stroke="none" fill-rule="evenodd" d="M3.4309,498.5059 L13.575,488.3617 A10,10 0 0,1 26.4641,487.2994 A375,375 0 0,0 109.6377,532.1561 L109.6377,457.1561 A375,375 0 0,1 42.7147,423.2928 A50,50 0 0,0 19.6377,381.1603 L469.6377,381.1603 A50,50 0 0,0 446.5608,423.2928 A375,375 0 0,1 379.6377,457.1561 L379.6377,532.1561 A375,375 0 0,0 462.8114,487.2994 A10,10 0 0,1 475.7004,488.3617 L485.8446,498.5059 A10,10 0 0,1 484.0449,514.0748 A454.1667,454.1667 0 0,1 5.2306,514.0748 A10,10 0 0,1 3.4309,498.5059 M26.4641,487.2994 A375,375 0 0,0 109.6377,532.1561 L119.6377,535.8524 A375,375 0 0,0 369.6377,535.8524 L379.6377,532.1561 A375,375 0 0,0 462.8114,487.2994 A10,10 0 0,0 475.7004,488.3617 L485.8446,498.5059 A454.1667,454.1667 0 0,1 3.4309,498.5059 L13.575,488.3617 A10,10 0 0,0 26.4641,487.2994 Z"/>
            <!-- Block Reference: Event Chair 3 / entities: 1 -->
        <g>
            <!-- Block Reference: A$C62F36CF4 / entities: 24 -->
            <g>
                <!-- Line -->
                <path d="M379.6377,457.1561 L379.6377,532.1561 " style="stroke:#000000;stroke-width:0.1;"/>
                <!-- Line -->
                <path d="M369.6377,535.8524 L369.6377,460.8524 " style="stroke:#000000;stroke-width:0.1;"/>
                <!-- Line -->
                <path d="M119.6377,460.8524 L119.6377,535.8524 " style="stroke:#000000;stroke-width:0.1;"/>
                <!-- Line -->
                <path d="M109.6377,532.1561 L109.6377,457.1561 " style="stroke:#000000;stroke-width:0.1;"/>
                <!-- Arc -->
                <path d="M42.7147,423.2928 A50,50 0 0,1 19.6377,381.1603" style="stroke:#000000;stroke-width:0.1;"/>
                <!-- Arc -->
                <path d="M419.6377,7.299 A50,50 0 0,1 469.6377,57.299" style="stroke:#000000;stroke-width:0.1;"/>
                <!-- Arc -->
                <path d="M19.6377,57.299 A50,50 0 0,1 69.6377,7.299" style="stroke:#000000;stroke-width:0.1;"/>
                <!-- Line -->
                <path d="M485.8446,498.5059 L475.7004,488.3617 " style="stroke:#000000;stroke-width:0.1;"/>
                <!-- Arc -->
                <path d="M13.575,488.3617 A10,10 0 0,1 26.4641,487.2994" style="stroke:#000000;stroke-width:0.1;"/>
                <!-- Arc -->
                <path d="M5.2306,514.0748 A10,10 0 0,1 3.4309,498.5059" style="stroke:#000000;stroke-width:0.1;"/>
                <!-- Line -->
                <path d="M3.4309,498.5059 L13.575,488.3617 " style="stroke:#000000;stroke-width:0.1;"/>
                <!-- Arc -->
                <path d="M484.0449,514.0748 A454.1667,454.1667 0 0,1 5.2306,514.0748" style="stroke:#000000;stroke-width:0.1;"/>
                <!-- Arc -->
                <path d="M462.8114,487.2994 A375,375 0 0,1 379.6377,532.1561" style="stroke:#000000;stroke-width:0.1;"/>
                <!-- Arc -->
                <path d="M446.5608,423.2928 A375,375 0 0,1 379.6377,457.1561" style="stroke:#000000;stroke-width:0.1;"/>
                <!-- Line -->
                <path d="M19.6377,57.299 L19.6377,381.1603 " style="stroke:#000000;stroke-width:0.1;"/>
                <!-- Line -->
                <path d="M469.6377,57.299 L469.6377,381.1603 " style="stroke:#000000;stroke-width:0.1;"/>
                <!-- Line -->
                <path d="M69.6377,7.299 L419.6377,7.299 " style="stroke:#000000;stroke-width:0.1;"/>
                <!-- Arc -->
                <path d="M485.8446,498.5059 A10,10 0 0,1 484.0449,514.0748" style="stroke:#000000;stroke-width:0.1;"/>
                <!-- Arc -->
                <path d="M462.8114,487.2994 A10,10 0 0,1 475.7004,488.3617" style="stroke:#000000;stroke-width:0.1;"/>
                <!-- Arc -->
                <path d="M469.6377,381.1603 A50,50 0 0,1 446.5608,423.2928" style="stroke:#000000;stroke-width:0.1;"/>
                <!-- Arc -->
                <path d="M109.6377,457.1561 A375,375 0 0,1 42.7147,423.2928" style="stroke:#000000;stroke-width:0.1;"/>
                <!-- Arc -->
                <path d="M109.6377,532.1561 A375,375 0 0,1 26.4641,487.2994" style="stroke:#000000;stroke-width:0.1;"/>
                <!-- Arc -->
                <path d="M369.6377,535.8524 A375,375 0 0,1 119.6377,535.8524" style="stroke:#000000;stroke-width:0.1;"/>
                <!-- Arc -->
                <path d="M369.6377,460.8524 A375,375 0 0,1 119.6377,460.8524" style="stroke:#000000;stroke-width:0.1;"/>
            </g>
        </g>
    </g>
</svg>

