<?xml version="1.0" encoding="UTF-8"?>
<!DOCTYPE svg PUBLIC "-//W3C//DTD SVG 1.1//EN" "http://www.w3.org/Graphics/SVG/1.1/DTD/svg11.dtd">
<svg xmlns="http://www.w3.org/2000/svg" version="1.1" width="3000mm" height="2300mm" viewBox="0 0 3000 2300" style="shape-rendering:geometricPrecision; text-rendering:geometricPrecision; image-rendering:optimizeQuality; fill-rule:evenodd; clip-rule:evenodd" xmlns:xlink="http://www.w3.org/1999/xlink">
<g transform="matrix(4.991680532445923 0 0 4.978354978354978 -94.84193011647255 -39.82683982683982)">
<g><path style="opacity:1" fill="#000000" d="M 53.5,8.5 C 96.5013,8.33334 139.501,8.50001 182.5,9C 186.333,10.1667 188.833,12.6667 190,16.5C 190.667,21.8333 190.667,27.1667 190,32.5C 188.833,36.3333 186.333,38.8333 182.5,40C 140.5,40.3333 98.5,40.6667 56.5,41C 53.6667,41.8333 51.8333,43.6667 51,46.5C 50.3333,175.167 50.3333,303.833 51,432.5C 51.8333,435.333 53.6667,437.167 56.5,438C 98.5,438.333 140.5,438.667 182.5,439C 186.333,440.167 188.833,442.667 190,446.5C 190.5,454.493 190.666,462.493 190.5,470.5C 144.832,470.667 99.1655,470.5 53.5,470C 36.7259,466.561 25.5592,456.727 20,440.5C 18.3419,308.201 18.0086,175.868 19,43.5C 23.3477,24.653 34.8477,12.9863 53.5,8.5 Z M 53.5,10.5 C 96.5013,10.3333 139.501,10.5 182.5,11C 185.333,11.8333 187.167,13.6667 188,16.5C 189.032,23.0106 188.532,29.344 186.5,35.5C 185.335,36.5836 184.002,37.4169 182.5,38C 140.5,38.3333 98.5,38.6667 56.5,39C 52.6667,40.1667 50.1667,42.6667 49,46.5C 48.3333,175.167 48.3333,303.833 49,432.5C 50.1667,436.333 52.6667,438.833 56.5,440C 98.5,440.333 140.5,440.667 182.5,441C 185.333,441.833 187.167,443.667 188,446.5C 188.5,453.826 188.666,461.159 188.5,468.5C 143.499,468.667 98.4988,468.5 53.5,468C 37.4052,465.238 26.9052,456.072 22,440.5C 20.3419,308.201 20.0086,175.868 21,43.5C 24.6802,25.3205 35.5136,14.3205 53.5,10.5 Z"/></g>
<g><path style="opacity:1" fill="#000000" d="M 61.5,43.5 C 98.8348,43.3333 136.168,43.5 173.5,44C 182.333,46.1667 187.833,51.6667 190,60.5C 190.667,91.5 190.667,122.5 190,153.5C 187.833,162.333 182.333,167.833 173.5,170C 136.167,170.667 98.8333,170.667 61.5,170C 57.6667,168.833 55.1667,166.333 54,162.5C 53.3333,125.5 53.3333,88.5 54,51.5C 55.3532,47.6499 57.8532,44.9832 61.5,43.5 Z M 61.5,45.5 C 66.8437,45.334 72.1771,45.5006 77.5,46C 80.3333,46.8333 82.1667,48.6667 83,51.5C 83.6667,88.5 83.6667,125.5 83,162.5C 82.1667,165.333 80.3333,167.167 77.5,168C 70.9894,169.032 64.656,168.532 58.5,166.5C 57.4164,165.335 56.5831,164.002 56,162.5C 55.3333,125.5 55.3333,88.5 56,51.5C 57.0209,48.6499 58.8542,46.6499 61.5,45.5 Z M 81.5,46.5 C 111.997,45.3361 142.664,45.1694 173.5,46C 181.667,47.5 186.5,52.3333 188,60.5C 188.667,91.5 188.667,122.5 188,153.5C 186.5,161.667 181.667,166.5 173.5,168C 142.833,168.667 112.167,168.667 81.5,168C 83.0412,166.421 84.2078,164.587 85,162.5C 85.6667,125.5 85.6667,88.5 85,51.5C 84.3028,49.4156 83.1361,47.7489 81.5,46.5 Z"/></g>
<g><path style="opacity:1" fill="#000000" d="M 61.5,173.5 C 98.8348,173.333 136.168,173.5 173.5,174C 182.333,176.167 187.833,181.667 190,190.5C 190.667,223.167 190.667,255.833 190,288.5C 187.833,297.333 182.333,302.833 173.5,305C 136.167,305.667 98.8333,305.667 61.5,305C 57.6667,303.833 55.1667,301.333 54,297.5C 53.3333,258.833 53.3333,220.167 54,181.5C 55.3532,177.65 57.8532,174.983 61.5,173.5 Z M 61.5,175.5 C 66.8437,175.334 72.1771,175.501 77.5,176C 80.3333,176.833 82.1667,178.667 83,181.5C 83.6667,220.167 83.6667,258.833 83,297.5C 82.1667,300.333 80.3333,302.167 77.5,303C 70.9894,304.032 64.656,303.532 58.5,301.5C 57.4164,300.335 56.5831,299.002 56,297.5C 55.3333,258.833 55.3333,220.167 56,181.5C 57.0209,178.65 58.8542,176.65 61.5,175.5 Z M 81.5,176.5 C 111.997,175.336 142.664,175.169 173.5,176C 181.667,177.5 186.5,182.333 188,190.5C 188.667,223.167 188.667,255.833 188,288.5C 186.5,296.667 181.667,301.5 173.5,303C 142.833,303.667 112.167,303.667 81.5,303C 83.0412,301.421 84.2078,299.587 85,297.5C 85.6667,258.833 85.6667,220.167 85,181.5C 84.3028,179.416 83.1361,177.749 81.5,176.5 Z"/></g>
<g><path style="opacity:1" fill="#000000" d="M 210.5,303.5 C 241.502,303.333 272.502,303.5 303.5,304C 312.333,306.167 317.833,311.667 320,320.5C 320.667,356.167 320.667,391.833 320,427.5C 318.833,431.333 316.333,433.833 312.5,435C 275.5,435.667 238.5,435.667 201.5,435C 197.667,433.833 195.167,431.333 194,427.5C 193.333,391.833 193.333,356.167 194,320.5C 196.349,311.652 201.849,305.986 210.5,303.5 Z M 210.5,305.5 C 241.502,305.333 272.502,305.5 303.5,306C 311.667,307.5 316.5,312.333 318,320.5C 318.667,349.5 318.667,378.5 318,407.5C 316.421,405.959 314.587,404.792 312.5,404C 275.5,403.333 238.5,403.333 201.5,404C 199.413,404.792 197.579,405.959 196,407.5C 195.333,378.5 195.333,349.5 196,320.5C 197.681,312.321 202.514,307.321 210.5,305.5 Z M 201.5,405.5 C 238.502,405.333 275.502,405.5 312.5,406C 315.333,406.833 317.167,408.667 318,411.5C 319.032,418.011 318.532,424.344 316.5,430.5C 315.335,431.584 314.002,432.417 312.5,433C 275.5,433.667 238.5,433.667 201.5,433C 196.155,430.134 194.155,425.634 195.5,419.5C 194.291,413.267 196.291,408.601 201.5,405.5 Z"/></g>
<g><path style="opacity:1" fill="#000000" d="M 340.5,303.5 C 373.168,303.333 405.835,303.5 438.5,304C 447.333,306.167 452.833,311.667 455,320.5C 455.667,356.167 455.667,391.833 455,427.5C 453.833,431.333 451.333,433.833 447.5,435C 408.833,435.667 370.167,435.667 331.5,435C 327.667,433.833 325.167,431.333 324,427.5C 323.333,391.833 323.333,356.167 324,320.5C 326.349,311.652 331.849,305.986 340.5,303.5 Z M 340.5,305.5 C 373.168,305.333 405.835,305.5 438.5,306C 446.667,307.5 451.5,312.333 453,320.5C 453.667,349.5 453.667,378.5 453,407.5C 451.421,405.959 449.587,404.792 447.5,404C 408.833,403.333 370.167,403.333 331.5,404C 329.413,404.792 327.579,405.959 326,407.5C 325.333,378.5 325.333,349.5 326,320.5C 327.681,312.321 332.514,307.321 340.5,305.5 Z M 331.5,405.5 C 370.168,405.333 408.835,405.5 447.5,406C 450.333,406.833 452.167,408.667 453,411.5C 454.032,418.011 453.532,424.344 451.5,430.5C 450.335,431.584 449.002,432.417 447.5,433C 408.833,433.667 370.167,433.667 331.5,433C 326.155,430.134 324.155,425.634 325.5,419.5C 324.291,413.267 326.291,408.601 331.5,405.5 Z"/></g>
<g><path style="opacity:1" fill="#000000" d="M 475.5,303.5 C 506.502,303.333 537.502,303.5 568.5,304C 577.333,306.167 582.833,311.667 585,320.5C 585.667,356.167 585.667,391.833 585,427.5C 583.833,431.333 581.333,433.833 577.5,435C 540.5,435.667 503.5,435.667 466.5,435C 462.667,433.833 460.167,431.333 459,427.5C 458.333,391.833 458.333,356.167 459,320.5C 461.349,311.652 466.849,305.986 475.5,303.5 Z M 475.5,305.5 C 506.502,305.333 537.502,305.5 568.5,306C 576.667,307.5 581.5,312.333 583,320.5C 583.667,349.5 583.667,378.5 583,407.5C 581.421,405.959 579.587,404.792 577.5,404C 540.5,403.333 503.5,403.333 466.5,404C 464.413,404.792 462.579,405.959 461,407.5C 460.333,378.5 460.333,349.5 461,320.5C 462.681,312.321 467.514,307.321 475.5,305.5 Z M 466.5,405.5 C 503.502,405.333 540.502,405.5 577.5,406C 580.333,406.833 582.167,408.667 583,411.5C 584.032,418.011 583.532,424.344 581.5,430.5C 580.335,431.584 579.002,432.417 577.5,433C 540.5,433.667 503.5,433.667 466.5,433C 461.155,430.134 459.155,425.634 460.5,419.5C 459.291,413.267 461.291,408.601 466.5,405.5 Z"/></g>
<g><path style="opacity:1" fill="#000000" d="M 596.5,303.5 C 601.844,303.334 607.177,303.501 612.5,304C 616.333,305.167 618.833,307.667 620,311.5C 620.667,352.833 620.667,394.167 620,435.5C 615.833,454.333 604.333,465.833 585.5,470C 454.834,470.5 324.167,470.667 193.5,470.5C 193.334,462.493 193.5,454.493 194,446.5C 195.167,442.667 197.667,440.167 201.5,439C 328.5,438.667 455.5,438.333 582.5,438C 585.333,437.167 587.167,435.333 588,432.5C 588.333,392.167 588.667,351.833 589,311.5C 590.353,307.65 592.853,304.983 596.5,303.5 Z M 596.5,305.5 C 601.844,305.334 607.177,305.501 612.5,306C 615.333,306.833 617.167,308.667 618,311.5C 618.667,352.833 618.667,394.167 618,435.5C 614.5,453.667 603.667,464.5 585.5,468C 455.5,468.5 325.5,468.667 195.5,468.5C 195.334,461.159 195.5,453.826 196,446.5C 196.833,443.667 198.667,441.833 201.5,441C 328.5,440.667 455.5,440.333 582.5,440C 586.333,438.833 588.833,436.333 590,432.5C 590.333,392.167 590.667,351.833 591,311.5C 592.021,308.65 593.854,306.65 596.5,305.5 Z"/></g>
<g><path style="opacity:1" fill="#000000" d="M 61.5,308.5 C 98.8348,308.333 136.168,308.5 173.5,309C 182.333,311.167 187.833,316.667 190,325.5C 190.667,356.5 190.667,387.5 190,418.5C 187.833,427.333 182.333,432.833 173.5,435C 136.167,435.667 98.8333,435.667 61.5,435C 57.6667,433.833 55.1667,431.333 54,427.5C 53.3333,390.5 53.3333,353.5 54,316.5C 55.3532,312.65 57.8532,309.983 61.5,308.5 Z M 61.5,310.5 C 66.8437,310.334 72.1771,310.501 77.5,311C 80.3333,311.833 82.1667,313.667 83,316.5C 83.6667,353.5 83.6667,390.5 83,427.5C 82.1667,430.333 80.3333,432.167 77.5,433C 70.9894,434.032 64.656,433.532 58.5,431.5C 57.4164,430.335 56.5831,429.002 56,427.5C 55.3333,390.5 55.3333,353.5 56,316.5C 57.0209,313.65 58.8542,311.65 61.5,310.5 Z M 81.5,311.5 C 111.997,310.336 142.664,310.169 173.5,311C 181.667,312.5 186.5,317.333 188,325.5C 188.667,356.5 188.667,387.5 188,418.5C 186.5,426.667 181.667,431.5 173.5,433C 142.833,433.667 112.167,433.667 81.5,433C 83.0412,431.421 84.2078,429.587 85,427.5C 85.6667,390.5 85.6667,353.5 85,316.5C 84.3028,314.416 83.1361,312.749 81.5,311.5 Z"/></g>
</g>
</svg>
