<?xml version="1.0" encoding="UTF-8"?>
<!-- 2026-03-10 12:22:56 Generated by QCAD 3.32.6 SVG Exporter -->
<svg  width="3506.0661mm" height="1928.4218mm" viewBox="15.6646 -1926.3872 3506.0661 1928.4218" version="1.1" xmlns="http://www.w3.org/2000/svg" style="stroke-linecap:round;stroke-linejoin:round;">
    <g transform="scale(1,-1)">
            <!-- Auto-generated fillable area -->
            <!-- Block Reference: A$C5F6A1817 / entities: 52 -->
        <g>
            <!-- Arc -->
            <path d="M962.5529,-0.8575 A128.9946,128.9946 0 0,1 953.6038,256.9765" style="stroke:#000000;stroke-width:0.1;"/>
            <!-- Arc -->
            <path d="M1079.3904,808.534 A255.173,255.173 0 0,1 828.5723,1110.6491" style="stroke:#000000;stroke-width:0.1;"/>
            <!-- Arc -->
            <path d="M15.6646,1013.9877 A1018.2142,1018.2142 0 0,1 963.0812,-0.8431" style="stroke:#000000;stroke-width:0.1;"/>
            <!-- Line -->
            <path d="M268.1268,1023.5549 L268.1268,1014.9068 " style="stroke:#000000;stroke-width:0.1;"/>
            <!-- Arc -->
            <path d="M268.1268,1014.9068 A765.7516,765.7516 0 0,1 994.924,250.1467" style="stroke:#000000;stroke-width:0.1;"/>
            <!-- Line -->
            <path d="M199.1365,1112.4748 L196.5848,1112.4748 " style="stroke:#000000;stroke-width:0.1;"/>
            <!-- Arc -->
            <path d="M199.1365,1112.4748 A100.9757,100.9757 0 0,1 269.3934,1208.6644" style="stroke:#000000;stroke-width:0.1;"/>
            <!-- Line -->
            <path d="M269.3934,1841.2964 L269.3934,1208.6644 " style="stroke:#000000;stroke-width:0.1;"/>
            <!-- Arc -->
            <path d="M269.3934,1841.2964 A207.5739,207.5739 0 0,1 202.8342,1926.3872" style="stroke:#000000;stroke-width:0.1;"/>
            <!-- Arc -->
            <path d="M105.5649,1922.6876 A85.1661,85.1661 0 0,1 16.8193,1837.5968" style="stroke:#000000;stroke-width:0.1;"/>
            <!-- Line -->
            <path d="M16.8193,1193.866 L16.8193,1837.5968 " style="stroke:#000000;stroke-width:0.1;"/>
            <!-- Arc -->
            <path d="M16.8193,1193.866 A89.0778,89.0778 0 0,1 105.5649,1112.4748" style="stroke:#000000;stroke-width:0.1;"/>
            <!-- Line -->
            <path d="M819.2273,1112.4748 L105.5649,1112.4748 " style="stroke:#000000;stroke-width:0.1;"/>
            <!-- Arc -->
            <path d="M819.2273,1112.4748 A100.9757,100.9757 0 0,1 889.4842,1208.6644" style="stroke:#000000;stroke-width:0.1;"/>
            <!-- Line -->
            <path d="M889.4842,1841.2964 L889.4842,1208.6644 " style="stroke:#000000;stroke-width:0.1;"/>
            <!-- Arc -->
            <path d="M889.4842,1841.2964 A207.5739,207.5739 0 0,1 822.925,1926.3872" style="stroke:#000000;stroke-width:0.1;"/>
            <!-- Arc -->
            <path d="M268.1268,1023.5549 A130.5347,130.5347 0 0,1 15.6646,1013.9877" style="stroke:#000000;stroke-width:0.1;"/>
            <!-- Line -->
            <path d="M822.925,1926.3872 L105.5649,1922.6876 " style="stroke:#000000;stroke-width:0.1;"/>
            <!-- Line -->
            <path d="M2448.846,874.328 L2607.9289,874.328 " style="stroke:#000000;stroke-width:0.1;"/>
            <!-- Arc -->
            <path d="M2707.8182,804.0711 A106.1383,106.1383 0 0,1 2607.9289,874.328" style="stroke:#000000;stroke-width:0.1;"/>
            <!-- Arc -->
            <path d="M2792.909,870.6303 A207.5739,207.5739 0 0,1 2707.8182,804.0711" style="stroke:#000000;stroke-width:0.1;"/>
            <!-- Line -->
            <path d="M2792.909,870.6303 L3425.541,870.6303 " style="stroke:#000000;stroke-width:0.1;"/>
            <!-- Arc -->
            <path d="M3521.7307,800.3734 A100.9757,100.9757 0 0,1 3425.541,870.6303" style="stroke:#000000;stroke-width:0.1;"/>
            <!-- Line -->
            <path d="M3521.7307,800.3734 L3521.7307,86.711 " style="stroke:#000000;stroke-width:0.1;"/>
            <!-- Arc -->
            <path d="M3440.3394,-2.0346 A89.0778,89.0778 0 0,1 3521.7307,86.711" style="stroke:#000000;stroke-width:0.1;"/>
            <!-- Line -->
            <path d="M3440.3394,-2.0346 L2796.6086,-2.0346 " style="stroke:#000000;stroke-width:0.1;"/>
            <!-- Arc -->
            <path d="M2711.5178,86.711 A85.1661,85.1661 0 0,1 2796.6086,-2.0346" style="stroke:#000000;stroke-width:0.1;"/>
            <!-- Arc -->
            <path d="M2611.6285,-2.0346 A125.6776,125.6776 0 0,1 2711.5178,86.711" style="stroke:#000000;stroke-width:0.1;"/>
            <!-- Line -->
            <path d="M2611.6285,-2.0346 L1986.3958,-2.0346 " style="stroke:#000000;stroke-width:0.1;"/>
            <!-- Arc -->
            <path d="M1890.2061,79.3155 A97.5431,97.5431 0 0,1 1986.3958,-2.0346" style="stroke:#000000;stroke-width:0.1;"/>
            <!-- Line -->
            <path d="M1890.2061,79.3155 L1890.2061,789.2802 " style="stroke:#000000;stroke-width:0.1;"/>
            <!-- Arc -->
            <path d="M1975.2969,874.328 A85.0479,85.0479 0 0,1 1890.2061,789.2802" style="stroke:#000000;stroke-width:0.1;"/>
            <!-- Line -->
            <path d="M1975.2969,874.328 L2448.846,874.328 " style="stroke:#000000;stroke-width:0.1;"/>
            <!-- Arc -->
            <path d="M1975.2969,268.5214 A85.0479,85.0479 0 0,1 1893.8179,207.9951" style="stroke:#000000;stroke-width:0.1;"/>
            <!-- Line -->
            <path d="M1975.2969,268.5214 L2448.846,268.5214 " style="stroke:#000000;stroke-width:0.1;"/>
            <!-- Line -->
            <path d="M2711.5178,86.711 L2707.8182,804.0711 " style="stroke:#000000;stroke-width:0.1;"/>
            <!-- Line -->
            <path d="M2448.846,268.5214 L2607.9289,268.5214 " style="stroke:#000000;stroke-width:0.1;"/>
            <!-- Arc -->
            <path d="M2707.8182,198.2645 A106.1383,106.1383 0 0,1 2607.9289,268.5214" style="stroke:#000000;stroke-width:0.1;"/>
            <!-- Arc -->
            <path d="M2792.909,264.8237 A207.5739,207.5739 0 0,1 2707.8182,198.2645" style="stroke:#000000;stroke-width:0.1;"/>
            <!-- Line -->
            <path d="M2792.909,264.8237 L3425.541,264.8237 " style="stroke:#000000;stroke-width:0.1;"/>
            <!-- Arc -->
            <path d="M3516.3547,207.9951 A100.9757,100.9757 0 0,1 3425.541,264.8237" style="stroke:#000000;stroke-width:0.1;"/>
            <!-- Line -->
            <path d="M1080.1479,86.711 L1076.4483,804.0711 " style="stroke:#000000;stroke-width:0.1;"/>
            <!-- Arc -->
            <path d="M1161.5391,264.8237 A207.5739,207.5739 0 0,1 1076.4483,198.2645" style="stroke:#000000;stroke-width:0.1;"/>
            <!-- Line -->
            <path d="M1161.5391,264.8237 L1794.1711,264.8237 " style="stroke:#000000;stroke-width:0.1;"/>
            <!-- Arc -->
            <path d="M1884.9848,207.9951 A100.9757,100.9757 0 0,1 1794.1711,264.8237" style="stroke:#000000;stroke-width:0.1;"/>
            <!-- Arc -->
            <path d="M1161.5391,870.6303 A207.5739,207.5739 0 0,1 1076.4483,804.0711" style="stroke:#000000;stroke-width:0.1;"/>
            <!-- Line -->
            <path d="M1161.5391,870.6303 L1794.1711,870.6303 " style="stroke:#000000;stroke-width:0.1;"/>
            <!-- Arc -->
            <path d="M1890.3608,800.3734 A100.9757,100.9757 0 0,1 1794.1711,870.6303" style="stroke:#000000;stroke-width:0.1;"/>
            <!-- Line -->
            <path d="M1890.3608,800.3734 L1890.3608,86.711 " style="stroke:#000000;stroke-width:0.1;"/>
            <!-- Arc -->
            <path d="M1808.9695,-2.0346 A89.0778,89.0778 0 0,1 1890.3608,86.711" style="stroke:#000000;stroke-width:0.1;"/>
            <!-- Line -->
            <path d="M1808.9695,-2.0346 L1165.2387,-2.0346 " style="stroke:#000000;stroke-width:0.1;"/>
            <!-- Arc -->
            <path d="M1080.1479,86.711 A85.1661,85.1661 0 0,1 1165.2387,-2.0346" style="stroke:#000000;stroke-width:0.1;"/>
        </g>
    </g>
</svg>

