<?xml version="1.0" encoding="UTF-8"?>
<!DOCTYPE svg PUBLIC "-//W3C//DTD SVG 1.1//EN" "http://www.w3.org/Graphics/SVG/1.1/DTD/svg11.dtd">
<svg xmlns="http://www.w3.org/2000/svg" version="1.1" width="3506.0661mm" height="1928.4218mm" viewBox="0 0 3506.0661 1928.4218" style="shape-rendering:geometricPrecision; text-rendering:geometricPrecision; image-rendering:optimizeQuality; fill-rule:evenodd; clip-rule:evenodd" xmlns:xlink="http://www.w3.org/1999/xlink">
<g transform="matrix(5.63374001602709 0 0 5.6058773255814 -46.9478146877591 -378.396719476744)">
<g><path style="opacity:1" fill="#000000" d="M 41.5,67.5 C 78.2913,68.831 115.125,68.831 152,67.5C 157.445,71.9438 161.779,77.2771 165,83.5C 165.667,121.167 165.667,158.833 165,196.5C 164.295,203.199 161.129,208.365 155.5,212C 184.234,217.072 199.067,234.239 200,263.5C 203.21,259.813 207.044,256.979 211.5,255C 250.167,254.333 288.833,254.333 327.5,255C 333.086,256.581 337.586,259.748 341,264.5C 342.833,260 346,256.833 350.5,255C 391.5,254.333 432.5,254.333 473.5,255C 478.864,257.027 483.031,260.527 486,265.5C 489.867,261.154 494.367,257.654 499.5,255C 538.167,254.333 576.833,254.333 615.5,255C 622.318,256.326 627.152,260.16 630,266.5C 630.667,310.5 630.667,354.5 630,398.5C 627.46,405.709 622.46,410.042 615,411.5C 575.238,410.67 535.404,410.17 495.5,410C 491.302,407.303 487.969,403.803 485.5,399.5C 482.229,404.266 477.896,407.766 472.5,410C 434.262,410.17 396.095,410.67 358,411.5C 350.242,410.455 344.576,406.455 341,399.5C 338.065,406.103 333.065,410.103 326,411.5C 286.571,410.67 247.071,410.17 207.5,410C 202.269,407.768 198.769,403.935 197,398.5C 192.096,406.574 184.929,410.574 175.5,410.5C 112.403,403.846 64.57,373.513 32,319.5C 16.0191,291.243 8.35247,260.91 9,228.5C 11.0133,221.819 15.18,216.986 21.5,214C 14.4829,211.648 10.3162,206.815 9,199.5C 8.33333,160.167 8.33333,120.833 9,81.5C 10.6891,76.4748 13.8558,72.6415 18.5,70C 26.2686,68.9356 33.9352,68.1023 41.5,67.5 Z M 148.5,69.5 C 155.351,71.8474 160.185,76.5141 163,83.5C 163.667,121.167 163.667,158.833 163,196.5C 162.596,203.221 159.429,208.055 153.5,211C 118.167,211.667 82.8333,211.667 47.5,211C 51.381,208.072 53.881,204.239 55,199.5C 55.6667,160.833 55.6667,122.167 55,83.5C 52.9488,78.7856 50.1155,74.6189 46.5,71C 80.6691,70.8325 114.669,70.3325 148.5,69.5 Z M 21.5,70.5 C 28.8409,70.3337 36.1742,70.5003 43.5,71C 47.755,74.2658 50.9217,78.4325 53,83.5C 53.6667,122.167 53.6667,160.833 53,199.5C 51.9757,205.184 48.809,209.017 43.5,211C 35.8333,211.667 28.1667,211.667 20.5,211C 15.3954,209.314 12.2287,205.814 11,200.5C 10.3333,160.833 10.3333,121.167 11,81.5C 12.6844,75.9845 16.1844,72.3178 21.5,70.5 Z M 26.5,213.5 C 39.5025,211.526 48.3358,216.526 53,228.5C 54.0985,274.53 72.5985,311.696 108.5,340C 131.437,356.536 157.103,365.536 185.5,367C 193.883,371.054 197.549,377.721 196.5,387C 197.336,397.659 192.669,404.659 182.5,408C 117.132,404.747 67.6322,375.247 34,319.5C 18.0191,291.243 10.3525,260.91 11,228.5C 13.4203,220.578 18.5869,215.578 26.5,213.5 Z M 43.5,214.5 C 79.6644,213.336 115.998,213.169 152.5,214C 179.96,216.294 194.96,231.127 197.5,258.5C 197.626,261.87 196.96,265.037 195.5,268C 196.663,303.429 196.829,338.929 196,374.5C 193.448,370.281 189.948,367.114 185.5,365C 129.862,360.65 90.0286,333.483 66,283.5C 58.615,265.575 54.9484,246.908 55,227.5C 52.7297,221.733 48.8963,217.399 43.5,214.5 Z M 211.5,256.5 C 250.168,256.333 288.835,256.5 327.5,257C 334.094,258.595 338.427,262.595 340.5,269C 339.67,302.429 339.17,335.929 339,369.5C 335.835,365.334 331.668,362.834 326.5,362C 288.167,361.333 249.833,361.333 211.5,362C 206.525,364.074 202.358,367.241 199,371.5C 198.333,336.5 198.333,301.5 199,266.5C 202.598,262.306 206.765,258.972 211.5,256.5 Z M 350.5,256.5 C 391.501,256.333 432.501,256.5 473.5,257C 478.573,258.406 482.073,261.572 484,266.5C 484.49,301.507 484.824,336.507 485,371.5C 482.382,366.884 478.549,363.717 473.5,362C 432.833,361.333 392.167,361.333 351.5,362C 347.654,363.669 344.488,366.169 342,369.5C 341.333,336.167 341.333,302.833 342,269.5C 342.683,263.67 345.516,259.337 350.5,256.5 Z M 499.5,256.5 C 538.168,256.333 576.835,256.5 615.5,257C 621.268,258.126 625.435,261.293 628,266.5C 628.667,301.167 628.667,335.833 628,370.5C 624.763,365.791 620.263,362.958 614.5,362C 576.167,361.333 537.833,361.333 499.5,362C 495.385,364.448 491.552,367.281 488,370.5C 486.464,335.849 486.13,301.182 487,266.5C 490.963,262.787 495.129,259.454 499.5,256.5 Z M 211.5,363.5 C 251.215,363.023 290.881,363.523 330.5,365C 334.275,366.442 337.108,368.942 339,372.5C 339.667,381.5 339.667,390.5 339,399.5C 336.794,405.192 332.627,408.359 326.5,409C 286.795,409.97 247.128,409.637 207.5,408C 202.664,406.181 199.831,402.681 199,397.5C 199.802,390.684 199.636,383.85 198.5,377C 198.667,375.833 198.833,374.667 199,373.5C 202.598,369.306 206.765,365.972 211.5,363.5 Z M 351.5,363.5 C 392.168,363.333 432.835,363.5 473.5,364C 479.333,365.833 483.167,369.667 485,375.5C 485.667,382.167 485.667,388.833 485,395.5C 482.212,403.286 476.712,407.786 468.5,409C 429.795,409.97 391.128,409.636 352.5,408C 346.51,405.717 342.844,401.384 341.5,395C 341.409,388.037 341.575,380.87 342,373.5C 344.048,368.955 347.215,365.622 351.5,363.5 Z M 500.5,363.5 C 539.881,363.024 579.215,363.524 618.5,365C 622.612,366.779 625.778,369.612 628,373.5C 628.667,381.833 628.667,390.167 628,398.5C 626.273,404.893 622.106,408.393 615.5,409C 575.462,409.971 535.462,409.637 495.5,408C 491.915,406.084 489.415,403.251 488,399.5C 487.333,390.5 487.333,381.5 488,372.5C 491.79,368.862 495.957,365.862 500.5,363.5 Z"/></g>
</g>
</svg>
