<?xml version="1.0" encoding="UTF-8"?>
<!-- 2026-03-10 12:22:01 Generated by QCAD 3.32.6 SVG Exporter -->
<svg  width="3000mm" height="2300mm" viewBox="-0.6604 -2307.7463 3000 2300" version="1.1" xmlns="http://www.w3.org/2000/svg" style="stroke-linecap:round;stroke-linejoin:round;">
    <g transform="scale(1,-1)">
            <!-- Auto-generated fillable area -->
            <!-- Block Reference: A$C2AFA021D / entities: 104 -->
        <g>
            <!-- Arc -->
            <path d="M849.3396,107.7463 A50,50 0 0,1 799.3396,157.7463" style="stroke:#000000;stroke-width:0.1;"/>
            <!-- Line -->
            <path d="M849.3396,7.7463 L849.3396,107.7463 " style="stroke:#000000;stroke-width:0.1;"/>
            <!-- Line -->
            <path d="M199.3396,7.7463 L849.3396,7.7463 " style="stroke:#000000;stroke-width:0.1;"/>
            <!-- Arc -->
            <path d="M-0.6604,207.7463 A200,200 0 0,1 199.3396,7.7463" style="stroke:#000000;stroke-width:0.1;"/>
            <!-- Line -->
            <path d="M-0.6604,2107.7463 L-0.6604,207.7463 " style="stroke:#000000;stroke-width:0.1;"/>
            <!-- Arc -->
            <path d="M199.3396,2307.7463 A200,200 0 0,1 -0.6604,2107.7463" style="stroke:#000000;stroke-width:0.1;"/>
            <!-- Line -->
            <path d="M799.3396,2307.7463 L199.3396,2307.7463 " style="stroke:#000000;stroke-width:0.1;"/>
            <!-- Arc -->
            <path d="M849.3396,2257.7463 A50,50 0 0,1 799.3396,2307.7463" style="stroke:#000000;stroke-width:0.1;"/>
            <!-- Line -->
            <path d="M849.3396,2207.7463 L849.3396,2257.7463 " style="stroke:#000000;stroke-width:0.1;"/>
            <!-- Arc -->
            <path d="M799.3396,2157.7463 A50,50 0 0,1 849.3396,2207.7463" style="stroke:#000000;stroke-width:0.1;"/>
            <!-- Line -->
            <path d="M199.3396,2157.7463 L799.3396,2157.7463 " style="stroke:#000000;stroke-width:0.1;"/>
            <!-- Arc -->
            <path d="M199.3396,2157.7463 A50,50 0 0,1 149.3396,2107.7463" style="stroke:#000000;stroke-width:0.1;"/>
            <!-- Line -->
            <path d="M149.3396,207.7463 L149.3396,2107.7463 " style="stroke:#000000;stroke-width:0.1;"/>
            <!-- Arc -->
            <path d="M149.3396,207.7463 A50,50 0 0,1 199.3396,157.7463" style="stroke:#000000;stroke-width:0.1;"/>
            <!-- Line -->
            <path d="M799.3396,157.7463 L199.3396,157.7463 " style="stroke:#000000;stroke-width:0.1;"/>
            <!-- Line -->
            <path d="M2199.3396,282.7463 L2199.3396,732.7463 " style="stroke:#000000;stroke-width:0.1;"/>
            <!-- Arc -->
            <path d="M2299.3396,832.7463 A100,100 0 0,1 2199.3396,732.7463" style="stroke:#000000;stroke-width:0.1;"/>
            <!-- Line -->
            <path d="M2299.3396,832.7463 L2724.3396,832.7463 " style="stroke:#000000;stroke-width:0.1;"/>
            <!-- Arc -->
            <path d="M2824.3396,732.7463 A100,100 0 0,1 2724.3396,832.7463" style="stroke:#000000;stroke-width:0.1;"/>
            <!-- Line -->
            <path d="M2824.3396,732.7463 L2824.3396,282.7463 " style="stroke:#000000;stroke-width:0.1;"/>
            <!-- Line -->
            <path d="M1524.3396,282.7463 L1524.3396,732.7463 " style="stroke:#000000;stroke-width:0.1;"/>
            <!-- Arc -->
            <path d="M1624.3396,832.7463 A100,100 0 0,1 1524.3396,732.7463" style="stroke:#000000;stroke-width:0.1;"/>
            <!-- Line -->
            <path d="M1624.3396,832.7463 L2074.3396,832.7463 " style="stroke:#000000;stroke-width:0.1;"/>
            <!-- Arc -->
            <path d="M2174.3396,732.7463 A100,100 0 0,1 2074.3396,832.7463" style="stroke:#000000;stroke-width:0.1;"/>
            <!-- Line -->
            <path d="M2174.3396,732.7463 L2174.3396,282.7463 " style="stroke:#000000;stroke-width:0.1;"/>
            <!-- Line -->
            <path d="M874.3396,282.7463 L874.3396,732.7463 " style="stroke:#000000;stroke-width:0.1;"/>
            <!-- Arc -->
            <path d="M974.3396,832.7463 A100,100 0 0,1 874.3396,732.7463" style="stroke:#000000;stroke-width:0.1;"/>
            <!-- Line -->
            <path d="M974.3396,832.7463 L1399.3396,832.7463 " style="stroke:#000000;stroke-width:0.1;"/>
            <!-- Arc -->
            <path d="M1499.3396,732.7463 A100,100 0 0,1 1399.3396,832.7463" style="stroke:#000000;stroke-width:0.1;"/>
            <!-- Line -->
            <path d="M1499.3396,732.7463 L1499.3396,282.7463 " style="stroke:#000000;stroke-width:0.1;"/>
            <!-- Line -->
            <path d="M274.3396,182.7463 L749.3396,182.7463 " style="stroke:#000000;stroke-width:0.1;"/>
            <!-- Arc -->
            <path d="M749.3396,182.7463 A100,100 0 0,1 849.3396,282.7463" style="stroke:#000000;stroke-width:0.1;"/>
            <!-- Line -->
            <path d="M849.3396,282.7463 L849.3396,707.7463 " style="stroke:#000000;stroke-width:0.1;"/>
            <!-- Arc -->
            <path d="M849.3396,707.7463 A100,100 0 0,1 749.3396,807.7463" style="stroke:#000000;stroke-width:0.1;"/>
            <!-- Line -->
            <path d="M749.3396,807.7463 L274.3396,807.7463 " style="stroke:#000000;stroke-width:0.1;"/>
            <!-- Line -->
            <path d="M274.3396,832.7463 L749.3396,832.7463 " style="stroke:#000000;stroke-width:0.1;"/>
            <!-- Arc -->
            <path d="M749.3396,832.7463 A100,100 0 0,1 849.3396,932.7463" style="stroke:#000000;stroke-width:0.1;"/>
            <!-- Line -->
            <path d="M849.3396,932.7463 L849.3396,1382.7463 " style="stroke:#000000;stroke-width:0.1;"/>
            <!-- Arc -->
            <path d="M849.3396,1382.7463 A100,100 0 0,1 749.3396,1482.7463" style="stroke:#000000;stroke-width:0.1;"/>
            <!-- Line -->
            <path d="M749.3396,1482.7463 L274.3396,1482.7463 " style="stroke:#000000;stroke-width:0.1;"/>
            <!-- Line -->
            <path d="M274.3396,1507.7463 L749.3396,1507.7463 " style="stroke:#000000;stroke-width:0.1;"/>
            <!-- Arc -->
            <path d="M749.3396,1507.7463 A100,100 0 0,1 849.3396,1607.7463" style="stroke:#000000;stroke-width:0.1;"/>
            <!-- Line -->
            <path d="M849.3396,1607.7463 L849.3396,2032.7463 " style="stroke:#000000;stroke-width:0.1;"/>
            <!-- Arc -->
            <path d="M849.3396,2032.7463 A100,100 0 0,1 749.3396,2132.7463" style="stroke:#000000;stroke-width:0.1;"/>
            <!-- Line -->
            <path d="M749.3396,2132.7463 L274.3396,2132.7463 " style="stroke:#000000;stroke-width:0.1;"/>
            <!-- Arc -->
            <path d="M924.3396,157.7463 A50,50 0 0,1 874.3396,107.7463" style="stroke:#000000;stroke-width:0.1;"/>
            <!-- Line -->
            <path d="M874.3396,107.7463 L874.3396,7.7463 " style="stroke:#000000;stroke-width:0.1;"/>
            <!-- Line -->
            <path d="M2799.3396,7.7463 L874.3396,7.7463 " style="stroke:#000000;stroke-width:0.1;"/>
            <!-- Arc -->
            <path d="M2799.3396,7.7463 A200,200 0 0,1 2999.3396,207.7463" style="stroke:#000000;stroke-width:0.1;"/>
            <!-- Line -->
            <path d="M2999.3396,782.7463 L2999.3396,207.7463 " style="stroke:#000000;stroke-width:0.1;"/>
            <!-- Arc -->
            <path d="M2999.3396,782.7463 A50,50 0 0,1 2949.3396,832.7463" style="stroke:#000000;stroke-width:0.1;"/>
            <!-- Line -->
            <path d="M2899.3396,832.7463 L2949.3396,832.7463 " style="stroke:#000000;stroke-width:0.1;"/>
            <!-- Arc -->
            <path d="M2899.3396,832.7463 A50,50 0 0,1 2849.3396,782.7463" style="stroke:#000000;stroke-width:0.1;"/>
            <!-- Line -->
            <path d="M2849.3396,207.7463 L2849.3396,782.7463 " style="stroke:#000000;stroke-width:0.1;"/>
            <!-- Arc -->
            <path d="M2799.3396,157.7463 A50,50 0 0,1 2849.3396,207.7463" style="stroke:#000000;stroke-width:0.1;"/>
            <!-- Line -->
            <path d="M924.3396,157.7463 L2799.3396,157.7463 " style="stroke:#000000;stroke-width:0.1;"/>
            <!-- Line -->
            <path d="M924.3396,182.7463 L1449.3396,182.7463 " style="stroke:#000000;stroke-width:0.1;"/>
            <!-- Arc -->
            <path d="M1449.3396,182.7463 A50,50 0 0,1 1499.3396,232.7463" style="stroke:#000000;stroke-width:0.1;"/>
            <!-- Line -->
            <path d="M1499.3396,232.7463 L1499.3396,282.7463 " style="stroke:#000000;stroke-width:0.1;"/>
            <!-- Arc -->
            <path d="M1499.3396,282.7463 A50,50 0 0,1 1449.3396,332.7463" style="stroke:#000000;stroke-width:0.1;"/>
            <!-- Line -->
            <path d="M1449.3396,332.7463 L924.3396,332.7463 " style="stroke:#000000;stroke-width:0.1;"/>
            <!-- Arc -->
            <path d="M924.3396,332.7463 A50,50 0 0,1 874.3396,282.7463" style="stroke:#000000;stroke-width:0.1;"/>
            <!-- Line -->
            <path d="M874.3396,282.7463 L874.3396,232.7463 " style="stroke:#000000;stroke-width:0.1;"/>
            <!-- Arc -->
            <path d="M874.3396,232.7463 A50,50 0 0,1 924.3396,182.7463" style="stroke:#000000;stroke-width:0.1;"/>
            <!-- Line -->
            <path d="M2249.3396,182.7463 L2774.3396,182.7463 " style="stroke:#000000;stroke-width:0.1;"/>
            <!-- Arc -->
            <path d="M2774.3396,182.7463 A50,50 0 0,1 2824.3396,232.7463" style="stroke:#000000;stroke-width:0.1;"/>
            <!-- Line -->
            <path d="M2824.3396,232.7463 L2824.3396,282.7463 " style="stroke:#000000;stroke-width:0.1;"/>
            <!-- Arc -->
            <path d="M2824.3396,282.7463 A50,50 0 0,1 2774.3396,332.7463" style="stroke:#000000;stroke-width:0.1;"/>
            <!-- Line -->
            <path d="M2774.3396,332.7463 L2249.3396,332.7463 " style="stroke:#000000;stroke-width:0.1;"/>
            <!-- Arc -->
            <path d="M2249.3396,332.7463 A50,50 0 0,1 2199.3396,282.7463" style="stroke:#000000;stroke-width:0.1;"/>
            <!-- Line -->
            <path d="M2199.3396,282.7463 L2199.3396,232.7463 " style="stroke:#000000;stroke-width:0.1;"/>
            <!-- Arc -->
            <path d="M2199.3396,232.7463 A50,50 0 0,1 2249.3396,182.7463" style="stroke:#000000;stroke-width:0.1;"/>
            <!-- Arc -->
            <path d="M1574.3396,332.7463 A50,50 0 0,1 1524.3396,282.7463" style="stroke:#000000;stroke-width:0.1;"/>
            <!-- Line -->
            <path d="M1524.3396,282.7463 L1524.3396,232.7463 " style="stroke:#000000;stroke-width:0.1;"/>
            <!-- Arc -->
            <path d="M1524.3396,232.7463 A50,50 0 0,1 1574.3396,182.7463" style="stroke:#000000;stroke-width:0.1;"/>
            <!-- Line -->
            <path d="M1574.3396,182.7463 L2124.3396,182.7463 " style="stroke:#000000;stroke-width:0.1;"/>
            <!-- Arc -->
            <path d="M2124.3396,182.7463 A50,50 0 0,1 2174.3396,232.7463" style="stroke:#000000;stroke-width:0.1;"/>
            <!-- Line -->
            <path d="M2174.3396,232.7463 L2174.3396,282.7463 " style="stroke:#000000;stroke-width:0.1;"/>
            <!-- Arc -->
            <path d="M2174.3396,282.7463 A50,50 0 0,1 2124.3396,332.7463" style="stroke:#000000;stroke-width:0.1;"/>
            <!-- Line -->
            <path d="M2124.3396,332.7463 L1574.3394,332.7463 " style="stroke:#000000;stroke-width:0.1;"/>
            <!-- Arc -->
            <path d="M274.3396,832.7463 A50,50 0 0,1 324.3396,882.7463" style="stroke:#000000;stroke-width:0.1;"/>
            <!-- Line -->
            <path d="M274.3396,832.7463 L224.3396,832.7463 " style="stroke:#000000;stroke-width:0.1;"/>
            <!-- Arc -->
            <path d="M174.3396,882.7463 A50,50 0 0,1 224.3396,832.7463" style="stroke:#000000;stroke-width:0.1;"/>
            <!-- Line -->
            <path d="M174.3396,882.7463 L174.3396,1432.7463 " style="stroke:#000000;stroke-width:0.1;"/>
            <!-- Arc -->
            <path d="M224.3396,1482.7463 A50,50 0 0,1 174.3396,1432.7463" style="stroke:#000000;stroke-width:0.1;"/>
            <!-- Line -->
            <path d="M224.3396,1482.7463 L274.3396,1482.7463 " style="stroke:#000000;stroke-width:0.1;"/>
            <!-- Arc -->
            <path d="M324.3396,1432.7463 A50,50 0 0,1 274.3396,1482.7463" style="stroke:#000000;stroke-width:0.1;"/>
            <!-- Line -->
            <path d="M324.3396,1432.7463 L324.3396,882.7461 " style="stroke:#000000;stroke-width:0.1;"/>
            <!-- Line -->
            <path d="M174.3396,1557.7463 L174.3396,2082.7463 " style="stroke:#000000;stroke-width:0.1;"/>
            <!-- Arc -->
            <path d="M224.3396,2132.7463 A50,50 0 0,1 174.3396,2082.7463" style="stroke:#000000;stroke-width:0.1;"/>
            <!-- Line -->
            <path d="M224.3396,2132.7463 L274.3396,2132.7463 " style="stroke:#000000;stroke-width:0.1;"/>
            <!-- Arc -->
            <path d="M324.3396,2082.7463 A50,50 0 0,1 274.3396,2132.7463" style="stroke:#000000;stroke-width:0.1;"/>
            <!-- Line -->
            <path d="M324.3396,2082.7463 L324.3396,1557.7463 " style="stroke:#000000;stroke-width:0.1;"/>
            <!-- Arc -->
            <path d="M274.3396,1507.7463 A50,50 0 0,1 324.3396,1557.7463" style="stroke:#000000;stroke-width:0.1;"/>
            <!-- Line -->
            <path d="M274.3396,1507.7463 L224.3396,1507.7463 " style="stroke:#000000;stroke-width:0.1;"/>
            <!-- Arc -->
            <path d="M174.3396,1557.7463 A50,50 0 0,1 224.3396,1507.7463" style="stroke:#000000;stroke-width:0.1;"/>
            <!-- Line -->
            <path d="M174.3396,232.7463 L174.3396,757.7463 " style="stroke:#000000;stroke-width:0.1;"/>
            <!-- Arc -->
            <path d="M224.3396,807.7463 A50,50 0 0,1 174.3396,757.7463" style="stroke:#000000;stroke-width:0.1;"/>
            <!-- Line -->
            <path d="M224.3396,807.7463 L274.3396,807.7463 " style="stroke:#000000;stroke-width:0.1;"/>
            <!-- Arc -->
            <path d="M324.3396,757.7463 A50,50 0 0,1 274.3396,807.7463" style="stroke:#000000;stroke-width:0.1;"/>
            <!-- Line -->
            <path d="M324.3396,757.7463 L324.3396,232.7463 " style="stroke:#000000;stroke-width:0.1;"/>
            <!-- Arc -->
            <path d="M274.3396,182.7463 A50,50 0 0,1 324.3396,232.7463" style="stroke:#000000;stroke-width:0.1;"/>
            <!-- Line -->
            <path d="M274.3396,182.7463 L224.3396,182.7463 " style="stroke:#000000;stroke-width:0.1;"/>
            <!-- Arc -->
            <path d="M174.3396,232.7463 A50,50 0 0,1 224.3396,182.7463" style="stroke:#000000;stroke-width:0.1;"/>
        </g>
    </g>
</svg>

