<?xml version="1.0" encoding="UTF-8"?>
<!-- Fixed fillable version: fill layer added, original QCAD strokes kept on top -->
<svg width="645.4269mm" height="457.1948mm" viewBox="5.5004 -459.34 645.4269 457.1948" version="1.1" xmlns="http://www.w3.org/2000/svg" style="stroke-linecap:round;stroke-linejoin:round;fill:none">
    <g transform="scale(1,-1)">
        <!-- Editable fill layer -->
        <g id="auto-fill" class="auto-fill-layer">
            <!-- Back rest -->
            <path class="auto-fill" fill="inherit" stroke="none" d="M149.229,459.338 L494.4105,459.338 A30.8414,30.8414 0 0,0 494.4103,398.3766 L149.2291,398.3766 A30.8414,30.8414 0 0,0 149.229,459.338 Z"/>

            <!-- Main seat -->
            <path class="auto-fill" fill="inherit" stroke="none" d="M123.2083,2.1524 L533.6523,2.1524 A74.5811,74.5811 0 0,1 569.7251,79.8957 L520.5766,332.349 A61.6215,61.6215 0 0,1 468.3035,383.1489 L188.5576,383.1481 A61.6206,61.6206 0 0,1 136.2848,332.3483 L87.1356,79.8964 A74.5811,74.5811 0 0,1 123.2083,2.1524 Z"/>

            <!-- Left armrest, rebuilt to include the rounded top cap with no white gap -->
            <path class="auto-fill" fill="inherit" stroke="none" d="
                M5.5004,66.0851
                A63.8259,63.8259 0 0,1 71.4535,66.0851
                L71.4535,231.3585
                A63.8259,63.8259 0 0,1 58.8338,237.5031
                L58.8338,287.4713
                A22.1224,22.1224 0 0,1 18.6357,287.5447
                L18.7211,237.6984
                A63.8259,63.8259 0 0,1 5.5004,231.3585
                Z"/>

            <!-- Right armrest, rebuilt to include the rounded top cap with no white gap -->
            <path class="auto-fill" fill="inherit" stroke="none" d="
                M585.1066,66.0851
                A63.8253,63.8253 0 0,1 650.9095,66.0851
                L650.9095,231.3585
                A63.8253,63.8253 0 0,1 637.839,237.6984
                L637.839,287.5464
                A22.1225,22.1225 0 0,1 597.6034,287.4638
                L597.5761,237.5031
                A63.8253,63.8253 0 0,1 585.1066,231.3585
                Z"/>
        </g>

        <!-- Original QCAD strokes kept untouched on top -->
        <g id="stroke-layer" fill="none">
            <!-- Line -->
            <path d="M123.1343,2.1452 L533.576,2.1452 " style="fill:none;stroke:#000000;stroke-width:0.1;"/>
            <!-- Arc -->
            <path d="M149.229,459.338 A30.8414,30.8414 0 0,1 149.2291,398.3766" style="fill:none;stroke:#000000;stroke-width:0.1;"/>
            <!-- Arc -->
            <path d="M188.5576,383.1481 A61.6206,61.6206 0 0,1 136.2848,332.3483" style="fill:none;stroke:#000000;stroke-width:0.1;"/>
            <!-- Line -->
            <path d="M136.2047,332.3464 L87.0779,79.8917 " style="fill:none;stroke:#000000;stroke-width:0.1;"/>
            <!-- Line -->
            <path d="M5.5004,231.3585 L5.5004,66.0851 " style="fill:none;stroke:#000000;stroke-width:0.1;"/>
            <!-- Line -->
            <path d="M71.4535,231.3585 L71.4535,66.0851 " style="fill:none;stroke:#000000;stroke-width:0.1;"/>
            <!-- Line -->
            <path d="M58.8338,287.4713 L58.8338,237.5031 " style="fill:none;stroke:#000000;stroke-width:0.1;"/>
            <!-- Line -->
            <path d="M18.7211,287.5464 L18.7211,237.6984 " style="fill:none;stroke:#000000;stroke-width:0.1;"/>
            <!-- Arc -->
            <path d="M87.1356,79.8964 A74.5811,74.5811 0 0,1 123.2083,2.1524" style="fill:none;stroke:#000000;stroke-width:0.1;"/>
            <!-- Arc -->
            <path d="M5.6325,66.0892 A63.8259,63.8259 0 0,1 71.4716,66.0892" style="fill:none;stroke:#000000;stroke-width:0.1;"/>
            <!-- Arc -->
            <path d="M71.4713,231.3546 A63.8259,63.8259 0 0,1 5.6325,231.3544" style="fill:none;stroke:#000000;stroke-width:0.1;"/>
            <!-- Arc -->
            <path d="M58.8063,287.4637 A22.1224,22.1224 0 0,1 18.6357,287.5447" style="fill:none;stroke:#000000;stroke-width:0.1;"/>
            <!-- Arc -->
            <path d="M494.4103,398.3766 A30.8414,30.8414 0 0,1 494.4105,459.338" style="fill:none;stroke:#000000;stroke-width:0.1;"/>
            <!-- Line -->
            <path d="M520.5056,332.3464 L569.6324,79.8917 " style="fill:none;stroke:#000000;stroke-width:0.1;"/>
            <!-- Arc -->
            <path d="M533.6523,2.1524 A74.5811,74.5811 0 0,1 569.7251,79.8957" style="fill:none;stroke:#000000;stroke-width:0.1;"/>
            <!-- Line -->
            <path d="M494.3647,398.3897 L149.2752,398.3897 " style="fill:none;stroke:#000000;stroke-width:0.1;"/>
            <!-- Line -->
            <path d="M468.2239,383.1408 L188.4865,383.1408 " style="fill:none;stroke:#000000;stroke-width:0.1;"/>
            <!-- Arc -->
            <path d="M520.5766,332.349 A61.6215,61.6215 0 0,1 468.3035,383.1489" style="fill:none;stroke:#000000;stroke-width:0.1;"/>
            <!-- Line -->
            <path d="M650.9095,231.3585 L650.9095,66.0851 " style="fill:none;stroke:#000000;stroke-width:0.1;"/>
            <!-- Line -->
            <path d="M585.1066,231.3585 L585.1066,66.0851 " style="fill:none;stroke:#000000;stroke-width:0.1;"/>
            <!-- Line -->
            <path d="M597.5761,287.4713 L597.5761,237.5031 " style="fill:none;stroke:#000000;stroke-width:0.1;"/>
            <!-- Line -->
            <path d="M637.839,287.5464 L637.839,237.6984 " style="fill:none;stroke:#000000;stroke-width:0.1;"/>
            <!-- Arc -->
            <path d="M585.0888,66.0898 A63.8253,63.8253 0 0,1 650.9273,66.0898" style="fill:none;stroke:#000000;stroke-width:0.1;"/>
            <!-- Arc -->
            <path d="M650.9272,231.3539 A63.8253,63.8253 0 0,1 585.0888,231.3539" style="fill:none;stroke:#000000;stroke-width:0.1;"/>
            <!-- Arc -->
            <path d="M637.7743,287.5448 A22.1225,22.1225 0 0,1 597.6034,287.4638" style="fill:none;stroke:#000000;stroke-width:0.1;"/>
            <!-- Line -->
            <path d="M494.3647,459.34 L149.2752,459.34 " style="fill:none;stroke:#000000;stroke-width:0.1;"/>
        </g>
    </g>
</svg>
