<?xml version="1.0" encoding="UTF-8"?>
<!-- 2026-03-10 12:34:46 Generated by QCAD 3.32.6 SVG Exporter -->
<svg  width="525mm" height="675.1453mm" viewBox="5.4591 -675.5717 525 675.1453" version="1.1" xmlns="http://www.w3.org/2000/svg" style="stroke-linecap:round;stroke-linejoin:round;">
    <g transform="scale(1,-1)">
            <!-- Auto-generated fillable area -->
            <!-- Block Reference: CH9 / entities: 22 -->
        <g>
            <!-- Arc -->
            <path d="M453.3145,200.4264 A75,75 0 0,1 528.0936,281.1786" style="stroke:#000000;stroke-width:0.1;"/>
            <!-- Arc -->
            <path d="M130.4591,512.9264 A62.5,62.5 0 0,1 5.4591,512.9264" style="stroke:#000000;stroke-width:0.1;"/>
            <!-- Arc -->
            <path d="M130.4591,418.9506 A75,75 0 0,1 168.2487,353.8324" style="stroke:#000000;stroke-width:0.1;"/>
            <!-- Arc -->
            <path d="M305.4591,231.9022 A75,75 0 0,1 267.6695,297.0204" style="stroke:#000000;stroke-width:0.1;"/>
            <!-- Arc -->
            <path d="M5.4591,75.4264 A75,75 0 0,1 80.4591,0.4264" style="stroke:#000000;stroke-width:0.1;"/>
            <!-- Arc -->
            <path d="M230.4591,0.4264 A75,75 0 0,1 305.4591,75.4264" style="stroke:#000000;stroke-width:0.1;"/>
            <!-- Arc -->
            <path d="M511.5134,496.7205 A75,75 0 0,1 451.9364,564.4114" style="stroke:#000000;stroke-width:0.1;"/>
            <!-- Arc -->
            <path d="M183.9819,564.4114 A75,75 0 0,1 130.0518,520.0501" style="stroke:#000000;stroke-width:0.1;"/>
            <!-- Arc -->
            <path d="M451.9363,564.4114 A809.7639,809.7639 0 0,1 183.9819,564.4114" style="stroke:#000000;stroke-width:0.1;"/>
            <!-- Arc -->
            <path d="M505.4591,650.4264 A711.6339,711.6339 0 0,1 130.4591,650.4264" style="stroke:#000000;stroke-width:0.1;"/>
            <!-- Arc -->
            <path d="M505.4591,600.4264 A711.6339,711.6339 0 0,1 130.4591,600.4264" style="stroke:#000000;stroke-width:0.1;"/>
            <!-- Line -->
            <path d="M130.4591,418.9506 L130.4591,512.9264 " style="stroke:#000000;stroke-width:0.1;"/>
            <!-- Line -->
            <path d="M267.6695,297.0204 L168.2487,353.8323 " style="stroke:#000000;stroke-width:0.1;"/>
            <!-- Line -->
            <path d="M305.4591,75.4264 L305.4591,231.9022 " style="stroke:#000000;stroke-width:0.1;"/>
            <!-- Line -->
            <path d="M305.4591,200.4264 L453.3145,200.4264 " style="stroke:#000000;stroke-width:0.1;"/>
            <!-- Line -->
            <path d="M528.0936,281.1786 L511.5134,496.7205 " style="stroke:#000000;stroke-width:0.1;"/>
            <!-- Arc -->
            <path d="M505.4591,600.4264 A25,25 0 0,1 505.4591,650.4264" style="stroke:#000000;stroke-width:0.1;"/>
            <!-- Arc -->
            <path d="M130.4591,650.4264 A25,25 0 0,1 130.4591,600.4264" style="stroke:#000000;stroke-width:0.1;"/>
            <!-- Line -->
            <path d="M355.4591,624.583 L355.4591,574.7029 " style="stroke:#000000;stroke-width:0.1;"/>
            <!-- Line -->
            <path d="M280.4591,574.7029 L280.4591,624.583 " style="stroke:#000000;stroke-width:0.1;"/>
            <!-- Line -->
            <path d="M5.4591,512.9264 L5.4591,75.4264 " style="stroke:#000000;stroke-width:0.1;"/>
            <!-- Line -->
            <path d="M80.4591,0.4264 L230.4591,0.4264 " style="stroke:#000000;stroke-width:0.1;"/>
        </g>
    </g>
</svg>

