<?xml version="1.0" encoding="UTF-8"?>
<!-- 2026-03-10 12:05:35 Generated by QCAD 3.32.6 SVG Exporter -->
<svg  width="3725.1104mm" height="2117.7095mm" viewBox="9.0724 -2154.8847 3725.1104 2117.7095" version="1.1" xmlns="http://www.w3.org/2000/svg" style="stroke-linecap:round;stroke-linejoin:round;">
    <g transform="scale(1,-1)">
            <!-- Auto-generated fillable area -->
            <!-- Block Reference: A$C5EBD0AE0 / entities: 78 -->
        <g>
            <!-- Face -->
            <path d="M1732.305,646.8787 L1782.305,646.8787 L1782.305,646.8787 L1732.305,646.8787 Z" style="stroke:#000000;stroke-width:0.1;"/>
            <!-- Face -->
            <path d="M1782.305,646.8787 L1782.305,596.8787 L1782.305,596.8787 L1782.305,646.8787 Z" style="stroke:#000000;stroke-width:0.1;"/>
            <!-- Face -->
            <path d="M1782.305,596.8787 L1782.305,646.8787 L1782.305,646.8787 L1782.305,596.8787 Z" style="stroke:#000000;stroke-width:0.1;"/>
            <!-- Face -->
            <path d="M1782.305,646.8787 L1732.305,646.8787 L1732.305,646.8787 L1782.305,646.8787 Z" style="stroke:#000000;stroke-width:0.1;"/>
            <!-- Face -->
            <path d="M1732.305,646.8787 L1732.305,596.8787 L1732.305,596.8787 L1732.305,646.8787 Z" style="stroke:#000000;stroke-width:0.1;"/>
            <!-- Face -->
            <path d="M1732.305,596.8787 L1782.305,596.8787 L1782.305,596.8787 L1732.305,596.8787 Z" style="stroke:#000000;stroke-width:0.1;"/>
            <!-- Face -->
            <path d="M1732.305,146.8787 L1732.305,196.8787 L1732.305,196.8787 L1732.305,146.8787 Z" style="stroke:#000000;stroke-width:0.1;"/>
            <!-- Face -->
            <path d="M1732.305,196.8787 L1782.305,196.8787 L1782.305,196.8787 L1732.305,196.8787 Z" style="stroke:#000000;stroke-width:0.1;"/>
            <!-- Face -->
            <path d="M1782.305,196.8787 L1782.305,146.8787 L1782.305,146.8787 L1782.305,196.8787 Z" style="stroke:#000000;stroke-width:0.1;"/>
            <!-- Face -->
            <path d="M1782.305,146.8787 L1732.305,146.8787 L1732.305,146.8787 L1782.305,146.8787 Z" style="stroke:#000000;stroke-width:0.1;"/>
            <!-- Face -->
            <path d="M2032.305,146.8787 L1982.305,146.8787 L1982.305,146.8787 L2032.305,146.8787 Z" style="stroke:#000000;stroke-width:0.1;"/>
            <!-- Face -->
            <path d="M1982.305,146.8787 L1982.305,196.8787 L1982.305,196.8787 L1982.305,146.8787 Z" style="stroke:#000000;stroke-width:0.1;"/>
            <!-- Face -->
            <path d="M1982.305,196.8787 L2032.305,196.8787 L2032.305,196.8787 L1982.305,196.8787 Z" style="stroke:#000000;stroke-width:0.1;"/>
            <!-- Face -->
            <path d="M2032.305,146.8787 L2032.305,196.8787 L2032.305,196.8787 L2032.305,146.8787 Z" style="stroke:#000000;stroke-width:0.1;"/>
            <!-- Face -->
            <path d="M1982.305,596.8787 L2032.305,596.8787 L2032.305,596.8787 L1982.305,596.8787 Z" style="stroke:#000000;stroke-width:0.1;"/>
            <!-- Face -->
            <path d="M2032.305,596.8787 L2032.305,646.8787 L2032.305,646.8787 L2032.305,596.8787 Z" style="stroke:#000000;stroke-width:0.1;"/>
            <!-- Face -->
            <path d="M2032.305,646.8787 L1982.305,646.8787 L1982.305,646.8787 L2032.305,646.8787 Z" style="stroke:#000000;stroke-width:0.1;"/>
            <!-- Face -->
            <path d="M1982.305,646.8787 L1982.305,596.8787 L1982.305,596.8787 L1982.305,646.8787 Z" style="stroke:#000000;stroke-width:0.1;"/>
            <!-- Face -->
            <path d="M1732.305,596.8787 L1732.305,196.8787 L1732.305,196.8787 L1732.305,596.8787 Z" style="stroke:#000000;stroke-width:0.1;"/>
            <!-- Face -->
            <path d="M1732.305,196.8787 L2032.305,196.8787 L2032.305,196.8787 L1732.305,196.8787 Z" style="stroke:#000000;stroke-width:0.1;"/>
            <!-- Face -->
            <path d="M2032.305,196.8787 L2032.305,596.8787 L2032.305,596.8787 L2032.305,196.8787 Z" style="stroke:#000000;stroke-width:0.1;"/>
            <!-- Face -->
            <path d="M2032.305,596.8787 L1782.305,596.8787 L1782.305,596.8787 L2032.305,596.8787 Z" style="stroke:#000000;stroke-width:0.1;"/>
            <!-- Face -->
            <path d="M1782.305,596.8787 L1782.305,146.8787 L1782.305,146.8787 L1782.305,596.8787 Z" style="stroke:#000000;stroke-width:0.1;"/>
            <!-- Face -->
            <path d="M1782.305,146.8787 L1982.305,146.8787 L1982.305,146.8787 L1782.305,146.8787 Z" style="stroke:#000000;stroke-width:0.1;"/>
            <!-- Face -->
            <path d="M1982.305,146.8787 L1982.305,646.8787 L1982.305,646.8787 L1982.305,146.8787 Z" style="stroke:#000000;stroke-width:0.1;"/>
            <!-- Face -->
            <path d="M1982.305,646.8787 L1782.305,646.8787 L1782.305,646.8787 L1982.305,646.8787 Z" style="stroke:#000000;stroke-width:0.1;"/>
            <!-- Polyline -->
            <path d="M1621.6828,2154.8847 L871.6828,2154.8847" style="stroke:#000000;stroke-width:0.1;"/>
            <!-- Polyline -->
            <path d="M871.6828,2017.3847 L1621.6828,2017.3847" style="stroke:#000000;stroke-width:0.1;"/>
            <!-- Polyline -->
            <path d="M871.6828,1829.8847 L1621.6828,1829.8847" style="stroke:#000000;stroke-width:0.1;"/>
            <!-- Polyline -->
            <path d="M871.6828,1292.3847 L1621.6828,1292.3847" style="stroke:#000000;stroke-width:0.1;"/>
            <!-- Polyline -->
            <path d="M871.5724,124.6753 L871.5724,874.6753" style="stroke:#000000;stroke-width:0.1;"/>
            <!-- Polyline -->
            <path d="M146.5724,124.6753 L146.5724,874.6753" style="stroke:#000000;stroke-width:0.1;"/>
            <!-- Polyline -->
            <path d="M334.0724,124.6753 L334.0724,874.6753" style="stroke:#000000;stroke-width:0.1;"/>
            <!-- Polyline -->
            <path d="M9.0724,874.6753 L9.0724,124.6753" style="stroke:#000000;stroke-width:0.1;"/>
            <!-- Polyline -->
            <path d="M334.0724,124.6753 L871.5724,124.6753" style="stroke:#000000;stroke-width:0.1;"/>
            <!-- Polyline -->
            <path d="M146.5724,37.1753 L871.5724,37.1753" style="stroke:#000000;stroke-width:0.1;"/>
            <!-- Polyline -->
            <path d="M871.5724,112.1753 L146.5724,112.1753" style="stroke:#000000;stroke-width:0.1;"/>
            <!-- Polyline -->
            <path d="M9.0724,124.6753 L146.5724,124.6753" style="stroke:#000000;stroke-width:0.1;"/>
            <!-- Polyline -->
            <path d="M146.5724,124.6753 L334.0724,124.6753" style="stroke:#000000;stroke-width:0.1;"/>
            <!-- Polyline -->
            <path d="M146.5724,112.1753 L146.5724,37.1753" style="stroke:#000000;stroke-width:0.1;"/>
            <!-- Polyline -->
            <path d="M871.5724,37.1753 L871.5724,112.1753" style="stroke:#000000;stroke-width:0.1;"/>
            <!-- Polyline -->
            <path d="M871.6828,1829.8847 L871.6828,1292.3847" style="stroke:#000000;stroke-width:0.1;"/>
            <!-- Polyline -->
            <path d="M871.5724,887.1753 L146.5724,887.1753" style="stroke:#000000;stroke-width:0.1;"/>
            <!-- Polyline -->
            <path d="M146.5724,962.1753 L871.5724,962.1753" style="stroke:#000000;stroke-width:0.1;"/>
            <!-- Polyline -->
            <path d="M871.5724,874.6753 L9.0724,874.6753" style="stroke:#000000;stroke-width:0.1;"/>
            <!-- Polyline -->
            <path d="M146.5724,887.1753 L146.5724,962.1753" style="stroke:#000000;stroke-width:0.1;"/>
            <!-- Polyline -->
            <path d="M871.5724,962.1753 L871.5724,887.1753" style="stroke:#000000;stroke-width:0.1;"/>
            <!-- Polyline -->
            <path d="M871.6828,2154.8847 L871.6828,2017.3847" style="stroke:#000000;stroke-width:0.1;"/>
            <!-- Polyline -->
            <path d="M871.6828,2017.3847 L871.6828,1829.8847" style="stroke:#000000;stroke-width:0.1;"/>
            <!-- Face -->
            <path d="M1632.305,46.8787 L1632.305,746.8787 L1632.305,746.8787 L1632.305,46.8787 Z" style="stroke:#000000;stroke-width:0.1;"/>
            <!-- Face -->
            <path d="M2132.305,746.8787 L2132.305,46.8787 L2132.305,46.8787 L2132.305,746.8787 Z" style="stroke:#000000;stroke-width:0.1;"/>
            <!-- Polyline -->
            <path d="M3409.1828,792.3847 L3409.1828,42.3847" style="stroke:#000000;stroke-width:0.1;"/>
            <!-- Polyline -->
            <path d="M3596.6828,792.3847 L3596.6828,42.3847" style="stroke:#000000;stroke-width:0.1;"/>
            <!-- Polyline -->
            <path d="M3734.1828,42.3847 L3734.1828,792.3847" style="stroke:#000000;stroke-width:0.1;"/>
            <!-- Polyline -->
            <path d="M2871.6828,792.3847 L2871.6828,42.3847" style="stroke:#000000;stroke-width:0.1;"/>
            <!-- Polyline -->
            <path d="M3409.1828,42.3847 L2871.6828,42.3847" style="stroke:#000000;stroke-width:0.1;"/>
            <!-- Polyline -->
            <path d="M2871.6828,42.3847 L3734.1828,42.3847" style="stroke:#000000;stroke-width:0.1;"/>
            <!-- Polyline -->
            <path d="M3734.1828,42.3847 L3596.6828,42.3847" style="stroke:#000000;stroke-width:0.1;"/>
            <!-- Polyline -->
            <path d="M3596.6828,42.3847 L3409.1828,42.3847" style="stroke:#000000;stroke-width:0.1;"/>
            <!-- Face -->
            <path d="M2132.305,46.8787 L1632.305,46.8787 L1632.305,46.8787 L2132.305,46.8787 Z" style="stroke:#000000;stroke-width:0.1;"/>
            <!-- Polyline -->
            <path d="M2371.6828,1829.8847 L2378.0488,1829.8652 L2384.4145,1829.8066 L2390.7798,1829.709 L2397.1443,1829.5723 L2403.5079,1829.3965 L2409.8703,1829.1817 L2416.2312,1828.9279 L2422.5905,1828.635 L2428.9478,1828.3032 L2435.303,1827.9323 L2441.6558,1827.5224 L2448.006,1827.0736 L2454.3533,1826.5858 L2460.6975,1826.0591 L2467.0383,1825.4934 L2473.3756,1824.8889 L2479.709,1824.2455 L2486.0383,1823.5632 L2492.3633,1822.8421 L2498.6838,1822.0823 L2504.9996,1821.2836 L2511.3103,1820.4462 L2517.6157,1819.5701 L2523.9156,1818.6554 L2530.2098,1817.702 L2536.4981,1816.71 L2542.7801,1815.6794 L2549.0557,1814.6103 L2555.3246,1813.5027 L2561.5867,1812.3567 L2567.8415,1811.1723 L2574.089,1809.9495 L2580.3288,1808.6884 L2586.5608,1807.389 L2592.7847,1806.0514 L2599.0003,1804.6757 L2605.2073,1803.2618 L2611.4056,1801.8099 L2617.5948,1800.32 L2623.7747,1798.7922 L2629.9452,1797.2264 L2636.1059,1795.6228 L2642.2567,1793.9815 L2648.3973,1792.3024 L2654.5274,1790.5857 L2660.6469,1788.8314 L2666.7556,1787.0396 L2672.8531,1785.2103 L2678.9393,1783.3437 L2685.0139,1781.4398 L2691.0768,1779.4986 L2697.1276,1777.5202 L2703.1661,1775.5048 L2709.1922,1773.4523 L2715.2056,1771.363 L2721.206,1769.2367 L2727.1933,1767.0737 L2733.1672,1764.874 L2739.1274,1762.6376 L2745.0739,1760.3648 L2751.0063,1758.0555 L2756.9244,1755.7098 L2762.828,1753.3279 L2768.7168,1750.9098 L2774.5908,1748.4556 L2780.4495,1745.9654 L2786.2929,1743.4393 L2792.1206,1740.8774 L2797.9326,1738.2797 L2803.7284,1735.6465 L2809.5081,1732.9778 L2815.2712,1730.2736 L2821.0176,1727.5342 L2826.7471,1724.7595 L2832.4595,1721.9497 L2838.1545,1719.105 L2843.832,1716.2253 L2849.4917,1713.3108 L2855.1334,1710.3617 L2860.7569,1707.378 L2866.362,1704.3599 L2871.9484,1701.3075 L2877.5161,1698.2208 L2883.0646,1695.1 L2888.594,1691.9452 L2894.1038,1688.7566 L2899.594,1685.5342 L2905.0644,1682.2782 L2910.5146,1678.9887 L2915.9446,1675.6658 L2921.354,1672.3096 L2926.7428,1668.9203 L2932.1107,1665.498 L2937.4574,1662.0429 L2942.7829,1658.555 L2948.0869,1655.0345 L2953.3692,1651.4815 L2958.6295,1647.8961 L2963.8678,1644.2786 L2969.0838,1640.629 L2974.2773,1636.9474 L2979.448,1633.2341 L2984.596,1629.4891 L2989.7208,1625.7126 L2994.8224,1621.9047 L2999.9005,1618.0655 L3004.9549,1614.1953 L3009.9855,1610.2942 L3014.9921,1606.3622 L3019.9745,1602.3996 L3024.9324,1598.4065 L3029.8658,1594.3831 L3034.7744,1590.3295 L3039.658,1586.2458 L3044.5165,1582.1322 L3049.3496,1577.9889 L3054.1572,1573.816 L3058.9391,1569.6137 L3063.6952,1565.3822 L3068.4252,1561.1215 L3073.1289,1556.8319 L3077.8063,1552.5135 L3082.4571,1548.1665 L3087.0811,1543.7911 L3091.6782,1539.3873 L3096.2481,1534.9555 L3100.7908,1530.4956 L3105.3061,1526.008 L3109.7937,1521.4928 L3114.2535,1516.9501 L3118.6854,1512.3801 L3123.0891,1507.7831 L3127.4646,1503.159 L3131.8116,1498.5083 L3136.13,1493.8309 L3140.4196,1489.1272 L3144.6802,1484.3972 L3148.9118,1479.6411 L3153.1141,1474.8592 L3157.2869,1470.0516 L3161.4302,1465.2184 L3165.5438,1460.36 L3169.6275,1455.4763 L3173.6811,1450.5678 L3177.7046,1445.6344 L3181.6976,1440.6765 L3185.6602,1435.6941 L3189.5922,1430.6875 L3193.4933,1425.6569 L3197.3636,1420.6024 L3201.2027,1415.5243 L3205.0106,1410.4228 L3208.7871,1405.2979 L3212.5321,1400.15 L3216.2455,1394.9792 L3219.927,1389.7857 L3223.5766,1384.5698 L3227.1942,1379.3315 L3230.7795,1374.0711 L3234.3325,1368.7889 L3237.853,1363.4849 L3241.3409,1358.1594 L3244.7961,1352.8126 L3248.2183,1347.4448 L3251.6076,1342.056 L3254.9638,1336.6465 L3258.2867,1331.2166 L3261.5762,1325.7663 L3264.8322,1320.296 L3268.0546,1314.8058 L3271.2432,1309.2959 L3274.398,1303.7666 L3277.5188,1298.218 L3280.6055,1292.6504 L3283.658,1287.0639 L3286.6761,1281.4589 L3289.6598,1275.8354 L3292.6089,1270.1937 L3295.5233,1264.534 L3298.403,1258.8565 L3301.2478,1253.1615 L3304.0575,1247.4491 L3306.8322,1241.7196 L3309.5717,1235.9731 L3312.2758,1230.21 L3314.9446,1224.4304 L3317.5778,1218.6345 L3320.1754,1212.8226 L3322.7373,1206.9948 L3325.2634,1201.1515 L3327.7536,1195.2927 L3330.2078,1189.4188 L3332.6259,1183.5299 L3335.0078,1177.6263 L3337.3535,1171.7082 L3339.6628,1165.7758 L3341.9357,1159.8294 L3344.172,1153.8691 L3346.3717,1147.8952 L3348.5347,1141.908 L3350.661,1135.9075 L3352.7504,1129.8942 L3354.8028,1123.8681 L3356.8183,1117.8295 L3358.7966,1111.7787 L3360.7378,1105.7159 L3362.6417,1099.6413 L3364.5084,1093.5551 L3366.3376,1087.4576 L3368.1294,1081.3489 L3369.8837,1075.2294 L3371.6004,1069.0992 L3373.2795,1062.9586 L3374.9209,1056.8079 L3376.5244,1050.6471 L3378.0902,1044.4767 L3379.6181,1038.2967 L3381.108,1032.1075 L3382.5599,1025.9093 L3383.9737,1019.7023 L3385.3495,1013.4867 L3386.687,1007.2628 L3387.9864,1001.0308 L3389.2475,994.7909 L3390.4703,988.5435 L3391.6547,982.2886 L3392.8007,976.0266 L3393.9083,969.7577 L3394.9774,963.4821 L3396.008,957.2001 L3397,950.9118 L3397.9534,944.6176 L3398.8682,938.3177 L3399.7443,932.0122 L3400.5816,925.7015 L3401.3803,919.3858 L3402.1402,913.0653 L3402.8613,906.7403 L3403.5435,900.4109 L3404.1869,894.0775 L3404.7915,887.7403 L3405.3571,881.3994 L3405.8838,875.0553 L3406.3716,868.708 L3406.8205,862.3578 L3407.2303,856.005 L3407.6012,849.6498 L3407.9331,843.2924 L3408.2259,836.9332 L3408.4797,830.5722 L3408.6945,824.2098 L3408.8703,817.8463 L3409.007,811.4817 L3409.1046,805.1165 L3409.1632,798.7507 L3409.1828,792.3847" style="stroke:#000000;stroke-width:0.1;"/>
            <!-- Polyline -->
            <path d="M2371.6828,2017.3847 L2379.1992,2017.3617 L2386.7154,2017.2925 L2394.231,2017.1772 L2401.7458,2017.0158 L2409.2594,2016.8083 L2416.7716,2016.5547 L2424.2821,2016.255 L2431.7907,2015.9092 L2439.2969,2015.5173 L2446.8007,2015.0794 L2454.3016,2014.5955 L2461.7994,2014.0655 L2469.2938,2013.4896 L2476.7845,2012.8677 L2484.2712,2012.1998 L2491.7538,2011.486 L2499.2318,2010.7263 L2506.705,2009.9208 L2514.1731,2009.0694 L2521.6358,2008.1722 L2529.093,2007.2292 L2536.5441,2006.2405 L2543.9891,2005.206 L2551.4276,2004.126 L2558.8593,2003.0003 L2566.284,2001.829 L2573.7013,2000.6122 L2581.1111,1999.3498 L2588.5129,1998.0421 L2595.9066,1996.689 L2603.2919,1995.2905 L2610.6684,1993.8467 L2618.0359,1992.3577 L2625.3942,1990.8235 L2632.7429,1989.2442 L2640.0818,1987.6198 L2647.4106,1985.9505 L2654.729,1984.2362 L2662.0367,1982.477 L2669.3335,1980.673 L2676.6191,1978.8243 L2683.8932,1976.9309 L2691.1556,1974.9929 L2698.4059,1973.0104 L2705.6439,1970.9835 L2712.8694,1968.9121 L2720.082,1966.7965 L2727.2815,1964.6366 L2734.4676,1962.4327 L2741.6401,1960.1846 L2748.7986,1957.8926 L2755.9429,1955.5568 L2763.0728,1953.1771 L2770.1879,1950.7537 L2777.288,1948.2867 L2784.3728,1945.7762 L2791.4421,1943.2223 L2798.4957,1940.625 L2805.5331,1937.9845 L2812.5542,1935.3009 L2819.5587,1932.5743 L2826.5463,1929.8047 L2833.5168,1926.9923 L2840.47,1924.1372 L2847.4055,1921.2394 L2854.323,1918.2992 L2861.2224,1915.3166 L2868.1034,1912.2917 L2874.9657,1909.2246 L2881.809,1906.1155 L2888.6331,1902.9645 L2895.4378,1899.7716 L2902.2227,1896.5371 L2908.9877,1893.261 L2915.7324,1889.9434 L2922.4566,1886.5845 L2929.1602,1883.1844 L2935.8427,1879.7433 L2942.504,1876.2612 L2949.1438,1872.7383 L2955.7618,1869.1747 L2962.3579,1865.5706 L2968.9317,1861.9261 L2975.4831,1858.2413 L2982.0117,1854.5164 L2988.5173,1850.7515 L2994.9997,1846.9467 L3001.4586,1843.1023 L3007.8939,1839.2183 L3014.3051,1835.2948 L3020.6922,1831.3322 L3027.0549,1827.3304 L3033.3928,1823.2896 L3039.7059,1819.21 L3045.9938,1815.0918 L3052.2563,1810.935 L3058.4932,1806.7399 L3064.7042,1802.5066 L3070.8892,1798.2353 L3077.0478,1793.9261 L3083.1799,1789.5792 L3089.2851,1785.1948 L3095.3634,1780.773 L3101.4144,1776.314 L3107.438,1771.8179 L3113.4338,1767.2849 L3119.4017,1762.7153 L3125.3415,1758.1091 L3131.2529,1753.4666 L3137.1356,1748.7878 L3142.9896,1744.0731 L3148.8145,1739.3225 L3154.6102,1734.5363 L3160.3764,1729.7146 L3166.1129,1724.8577 L3171.8195,1719.9656 L3177.496,1715.0386 L3183.1421,1710.0768 L3188.7577,1705.0805 L3194.3425,1700.0499 L3199.8963,1694.985 L3205.419,1689.8862 L3210.9103,1684.7536 L3216.3699,1679.5874 L3221.7978,1674.3878 L3227.1937,1669.155 L3232.5573,1663.8892 L3237.8886,1658.5905 L3243.1872,1653.2593 L3248.453,1647.8956 L3253.6858,1642.4998 L3258.8854,1637.0719 L3264.0516,1631.6122 L3269.1843,1626.121 L3274.2831,1620.5983 L3279.3479,1615.0445 L3284.3786,1609.4596 L3289.3749,1603.8441 L3294.3366,1598.1979 L3299.2636,1592.5215 L3304.1557,1586.8149 L3309.0127,1581.0784 L3313.8344,1575.3122 L3318.6206,1569.5165 L3323.3711,1563.6916 L3328.0859,1557.8376 L3332.7646,1551.9548 L3337.4071,1546.0434 L3342.0133,1540.1037 L3346.583,1534.1358 L3351.1159,1528.1399 L3355.612,1522.1164 L3360.071,1516.0654 L3364.4928,1509.9871 L3368.8773,1503.8818 L3373.2242,1497.7498 L3377.5334,1491.5912 L3381.8047,1485.4062 L3386.038,1479.1952 L3390.233,1472.9583 L3394.3898,1466.6958 L3398.508,1460.4078 L3402.5876,1454.0948 L3406.6284,1447.7568 L3410.6302,1441.3942 L3414.5929,1435.0071 L3418.5163,1428.5958 L3422.4003,1422.1606 L3426.2448,1415.7017 L3430.0495,1409.2193 L3433.8144,1402.7136 L3437.5393,1396.185 L3441.2241,1389.6337 L3444.8686,1383.0599 L3448.4727,1376.4638 L3452.0363,1369.8457 L3455.5592,1363.2059 L3459.0413,1356.5447 L3462.4825,1349.8621 L3465.8825,1343.1586 L3469.2414,1336.4344 L3472.559,1329.6896 L3475.8351,1322.9247 L3479.0697,1316.1397 L3482.2625,1309.3351 L3485.4135,1302.5109 L3488.5227,1295.6676 L3491.5897,1288.8053 L3494.6146,1281.9244 L3497.5972,1275.025 L3500.5375,1268.1074 L3503.4352,1261.1719 L3506.2903,1254.2188 L3509.1027,1247.2483 L3511.8723,1240.2607 L3514.5989,1233.2562 L3517.2826,1226.2351 L3519.9231,1219.1976 L3522.5203,1212.1441 L3525.0742,1205.0748 L3527.5848,1197.99 L3530.0517,1190.8898 L3532.4751,1183.7747 L3534.8548,1176.6449 L3537.1907,1169.5005 L3539.4827,1162.342 L3541.7307,1155.1696 L3543.9347,1147.9835 L3546.0945,1140.784 L3548.2102,1133.5714 L3550.2815,1126.3459 L3552.3085,1119.1079 L3554.291,1111.8575 L3556.2289,1104.5952 L3558.1223,1097.3211 L3559.9711,1090.0355 L3561.775,1082.7387 L3563.5342,1075.4309 L3565.2485,1068.1125 L3566.9179,1060.7838 L3568.5422,1053.4449 L3570.1215,1046.0962 L3571.6557,1038.7379 L3573.1447,1031.3704 L3574.5885,1023.9939 L3575.987,1016.6086 L3577.3401,1009.2149 L3578.6479,1001.8131 L3579.9102,994.4033 L3581.127,986.986 L3582.2983,979.5613 L3583.424,972.1296 L3584.5041,964.6911 L3585.5385,957.2461 L3586.5272,949.7949 L3587.4702,942.3378 L3588.3674,934.8751 L3589.2188,927.4069 L3590.0244,919.9337 L3590.7841,912.4557 L3591.4979,904.9732 L3592.1657,897.4864 L3592.7876,889.9957 L3593.3636,882.5013 L3593.8935,875.0035 L3594.3775,867.5026 L3594.8154,859.9989 L3595.2072,852.4926 L3595.553,844.9841 L3595.8527,837.4736 L3596.1063,829.9614 L3596.3138,822.4477 L3596.4752,814.933 L3596.5905,807.4174 L3596.6597,799.9012 L3596.6828,792.3847" style="stroke:#000000;stroke-width:0.1;"/>
            <!-- Polyline -->
            <path d="M2371.6828,2154.8847 L2380.0429,2154.8591 L2388.4027,2154.7821 L2396.7619,2154.6539 L2405.1202,2154.4744 L2413.4772,2154.2436 L2421.8326,2153.9615 L2430.1861,2153.6281 L2438.5375,2153.2435 L2446.8863,2152.8077 L2455.2323,2152.3207 L2463.5751,2151.7824 L2471.9145,2151.193 L2480.2501,2150.5524 L2488.5816,2149.8607 L2496.9087,2149.1178 L2505.2311,2148.3239 L2513.5485,2147.479 L2521.8605,2146.583 L2530.1669,2145.636 L2538.4673,2144.6381 L2546.7614,2143.5893 L2555.049,2142.4896 L2563.3296,2141.339 L2571.603,2140.1377 L2579.8689,2138.8857 L2588.127,2137.5829 L2596.3769,2136.2295 L2604.6183,2134.8255 L2612.851,2133.371 L2621.0746,2131.866 L2629.2888,2130.3105 L2637.4933,2128.7047 L2645.6878,2127.0485 L2653.872,2125.3422 L2662.0456,2123.5856 L2670.2082,2121.7789 L2678.3596,2119.9221 L2686.4994,2118.0154 L2694.6274,2116.0588 L2702.7433,2114.0523 L2710.8466,2111.9961 L2718.9372,2109.8902 L2727.0148,2107.7347 L2735.0789,2105.5296 L2743.1294,2103.2752 L2751.1658,2100.9713 L2759.188,2098.6182 L2767.1956,2096.2159 L2775.1884,2093.7646 L2783.1659,2091.2642 L2791.1279,2088.715 L2799.0741,2086.1169 L2807.0043,2083.4701 L2814.918,2080.7747 L2822.8151,2078.0308 L2830.6952,2075.2385 L2838.558,2072.3979 L2846.4032,2069.5091 L2854.2306,2066.5723 L2862.0398,2063.5874 L2869.8305,2060.5547 L2877.6024,2057.4743 L2885.3554,2054.3462 L2893.0889,2051.1706 L2900.8029,2047.9476 L2908.4969,2044.6774 L2916.1707,2041.36 L2923.8241,2037.9955 L2931.4566,2034.5842 L2939.068,2031.1261 L2946.6581,2027.6214 L2954.2266,2024.0701 L2961.7731,2020.4725 L2969.2974,2016.8287 L2976.7992,2013.1388 L2984.2782,2009.4028 L2991.7342,2005.6211 L2999.1668,2001.7937 L3006.5757,1997.9208 L3013.9608,1994.0025 L3021.3217,1990.0389 L3028.6582,1986.0302 L3035.9699,1981.9766 L3043.2566,1977.8783 L3050.518,1973.7352 L3057.7538,1969.5478 L3064.9638,1965.3159 L3072.1478,1961.04 L3079.3053,1956.72 L3086.4362,1952.3562 L3093.5402,1947.9487 L3100.617,1943.4977 L3107.6664,1939.0034 L3114.6881,1934.4659 L3121.6818,1929.8854 L3128.6472,1925.2621 L3135.5842,1920.5961 L3142.4924,1915.8877 L3149.3715,1911.1369 L3156.2214,1906.344 L3163.0418,1901.5092 L3169.8324,1896.6327 L3176.5929,1891.7145 L3183.3231,1886.755 L3190.0227,1881.7543 L3196.6916,1876.7125 L3203.3293,1871.6299 L3209.9358,1866.5067 L3216.5107,1861.3431 L3223.0538,1856.1392 L3229.5649,1850.8953 L3236.0436,1845.6115 L3242.4898,1840.288 L3248.9032,1834.9251 L3255.2836,1829.523 L3261.6308,1824.0818 L3267.9444,1818.6018 L3274.2243,1813.0831 L3280.4702,1807.526 L3286.6818,1801.9306 L3292.8591,1796.2973 L3299.0016,1790.6262 L3305.1093,1784.9175 L3311.1818,1779.1714 L3317.2189,1773.3882 L3323.2204,1767.568 L3329.1861,1761.7111 L3335.1158,1755.8177 L3341.0091,1749.8881 L3346.866,1743.9224 L3352.6862,1737.9209 L3358.4694,1731.8837 L3364.2155,1725.8112 L3369.9242,1719.7036 L3375.5953,1713.561 L3381.2287,1707.3838 L3386.824,1701.1721 L3392.3811,1694.9262 L3397.8998,1688.6464 L3403.3798,1682.3327 L3408.821,1675.9856 L3414.2232,1669.6052 L3419.5861,1663.1918 L3424.9095,1656.7456 L3430.1933,1650.2668 L3435.4372,1643.7558 L3440.6411,1637.2127 L3445.8048,1630.6378 L3450.928,1624.0313 L3456.0106,1617.3935 L3461.0523,1610.7247 L3466.053,1604.025 L3471.0126,1597.2948 L3475.9307,1590.5343 L3480.8073,1583.7438 L3485.6421,1576.9234 L3490.4349,1570.0735 L3495.1857,1563.1943 L3499.8941,1556.2861 L3504.5601,1549.3492 L3509.1834,1542.3837 L3513.7639,1535.39 L3518.3014,1528.3684 L3522.7958,1521.319 L3527.2467,1514.2422 L3531.6542,1507.1382 L3536.018,1500.0073 L3540.338,1492.8497 L3544.614,1485.6658 L3548.8458,1478.4558 L3553.0333,1471.2199 L3557.1763,1463.9585 L3561.2747,1456.6718 L3565.3283,1449.3601 L3569.3369,1442.0237 L3573.3005,1434.6628 L3577.2188,1427.2777 L3581.0918,1419.8687 L3584.9192,1412.4361 L3588.7009,1404.9802 L3592.4368,1397.5012 L3596.1267,1389.9994 L3599.7706,1382.4751 L3603.3682,1374.9286 L3606.9194,1367.3601 L3610.4241,1359.77 L3613.8822,1352.1586 L3617.2936,1344.526 L3620.658,1336.8727 L3623.9754,1329.1989 L3627.2456,1321.5049 L3630.4686,1313.7909 L3633.6442,1306.0573 L3636.7723,1298.3044 L3639.8528,1290.5324 L3642.8855,1282.7417 L3645.8703,1274.9325 L3648.8072,1267.1052 L3651.696,1259.26 L3654.5366,1251.3972 L3657.3289,1243.5171 L3660.0728,1235.62 L3662.7681,1227.7063 L3665.4149,1219.7761 L3668.013,1211.8299 L3670.5622,1203.8678 L3673.0626,1195.8903 L3675.514,1187.8976 L3677.9163,1179.89 L3680.2694,1171.8678 L3682.5732,1163.8313 L3684.8277,1155.7809 L3687.0327,1147.7167 L3689.1882,1139.6392 L3691.2941,1131.5486 L3693.3504,1123.4452 L3695.3568,1115.3294 L3697.3135,1107.2014 L3699.2202,1099.0616 L3701.0769,1090.9102 L3702.8836,1082.7475 L3704.6402,1074.574 L3706.3466,1066.3898 L3708.0027,1058.1953 L3709.6085,1049.9908 L3711.164,1041.7766 L3712.669,1033.553 L3714.1236,1025.3203 L3715.5276,1017.0789 L3716.881,1008.829 L3718.1837,1000.5709 L3719.4358,992.305 L3720.6371,984.0316 L3721.7876,975.751 L3722.8873,967.4634 L3723.9361,959.1693 L3724.9341,950.8689 L3725.881,942.5625 L3726.777,934.2505 L3727.622,925.9331 L3728.4159,917.6107 L3729.1587,909.2836 L3729.8504,900.9521 L3730.491,892.6165 L3731.0804,884.2771 L3731.6187,875.9342 L3732.1057,867.5883 L3732.5416,859.2394 L3732.9262,850.8881 L3733.2595,842.5346 L3733.5416,834.1792 L3733.7724,825.8222 L3733.9519,817.4639 L3734.0802,809.1047 L3734.1571,800.7449 L3734.1828,792.3847" style="stroke:#000000;stroke-width:0.1;"/>
            <!-- Polyline -->
            <path d="M3409.1828,792.3847 L2871.6828,792.3847" style="stroke:#000000;stroke-width:0.1;"/>
            <!-- Polyline -->
            <path d="M1621.6828,1292.3847 L1621.6828,2154.8847" style="stroke:#000000;stroke-width:0.1;"/>
            <!-- Polyline -->
            <path d="M1621.6828,1829.8847 L1621.6828,1292.3847" style="stroke:#000000;stroke-width:0.1;"/>
            <!-- Polyline -->
            <path d="M2371.6828,1292.3847 L2371.6828,2154.8847" style="stroke:#000000;stroke-width:0.1;"/>
            <!-- Polyline -->
            <path d="M2371.6828,1292.3847 L2371.6828,2154.8847" style="stroke:#000000;stroke-width:0.1;"/>
            <!-- Polyline -->
            <path d="M1621.6828,1292.3847 L2371.6828,1292.3847" style="stroke:#000000;stroke-width:0.1;"/>
            <!-- Polyline -->
            <path d="M2371.6828,1292.3847 L2374.7507,1292.3753 L2377.8185,1292.3471 L2380.8861,1292.3 L2383.9534,1292.2341 L2387.0202,1292.1494 L2390.0864,1292.0459 L2393.1519,1291.9236 L2396.2166,1291.7825 L2399.2804,1291.6225 L2402.3431,1291.4438 L2405.4047,1291.2463 L2408.4651,1291.03 L2411.524,1290.7949 L2414.5814,1290.541 L2417.6372,1290.2684 L2420.6913,1289.9771 L2423.7436,1289.667 L2426.7939,1289.3382 L2429.8421,1288.9907 L2432.8881,1288.6245 L2435.9318,1288.2396 L2438.9731,1287.8361 L2442.0119,1287.4138 L2445.048,1286.973 L2448.0814,1286.5135 L2451.1118,1286.0354 L2454.1393,1285.5388 L2457.1637,1285.0236 L2460.1849,1284.4898 L2463.2027,1283.9375 L2466.2171,1283.3667 L2469.2279,1282.7774 L2472.2351,1282.1696 L2475.2385,1281.5434 L2478.2379,1280.8988 L2481.2334,1280.2358 L2484.2247,1279.5544 L2487.2118,1278.8547 L2490.1946,1278.1367 L2493.1729,1277.4004 L2496.1466,1276.6458 L2499.1156,1275.873 L2502.0798,1275.082 L2505.0391,1274.2728 L2507.9934,1273.4454 L2510.9426,1272.6 L2513.8865,1271.7365 L2516.8251,1270.8549 L2519.7582,1269.9553 L2522.6857,1269.0378 L2525.6076,1268.1022 L2528.5236,1267.1488 L2531.4338,1266.1775 L2534.3379,1265.1884 L2537.2359,1264.1815 L2540.1277,1263.1568 L2543.0131,1262.1143 L2545.8921,1261.0542 L2548.7645,1259.9765 L2551.6303,1258.8811 L2554.4893,1257.7682 L2557.3414,1256.6378 L2560.1865,1255.4899 L2563.0245,1254.3245 L2565.8553,1253.1418 L2568.6788,1251.9417 L2571.4949,1250.7243 L2574.3034,1249.4896 L2577.1044,1248.2378 L2579.8975,1246.9687 L2582.6829,1245.6826 L2585.4603,1244.3794 L2588.2297,1243.0592 L2590.9909,1241.722 L2593.7438,1240.3679 L2596.4884,1238.9969 L2599.2246,1237.6091 L2601.9521,1236.2045 L2604.671,1234.7833 L2607.3811,1233.3454 L2610.0824,1231.8909 L2612.7747,1230.4198 L2615.4578,1228.9322 L2618.1319,1227.4282 L2620.7966,1225.9079 L2623.452,1224.3712 L2626.0978,1222.8182 L2628.7341,1221.249 L2631.3608,1219.6637 L2633.9776,1218.0623 L2636.5846,1216.4449 L2639.1816,1214.8115 L2641.7685,1213.1622 L2644.3453,1211.4971 L2646.9118,1209.8162 L2649.4679,1208.1195 L2652.0136,1206.4073 L2654.5487,1204.6794 L2657.0731,1202.936 L2659.5869,1201.1771 L2662.0897,1199.4029 L2664.5817,1197.6133 L2667.0626,1195.8085 L2669.5324,1193.9885 L2671.991,1192.1534 L2674.4383,1190.3032 L2676.8742,1188.438 L2679.2986,1186.558 L2681.7114,1184.663 L2684.1125,1182.7534 L2686.5019,1180.829 L2688.8794,1178.89 L2691.245,1176.9364 L2693.5985,1174.9684 L2695.94,1172.9859 L2698.2692,1170.9892 L2700.5861,1168.9781 L2702.8907,1166.9529 L2705.1827,1164.9136 L2707.4622,1162.8603 L2709.7291,1160.793 L2711.9833,1158.7119 L2714.2246,1156.6169 L2716.453,1154.5083 L2718.6685,1152.386 L2720.8709,1150.2502 L2723.0601,1148.1008 L2725.2362,1145.9381 L2727.3989,1143.7621 L2729.5482,1141.5729 L2731.684,1139.3705 L2733.8063,1137.155 L2735.915,1134.9266 L2738.0099,1132.6852 L2740.0911,1130.4311 L2742.1583,1128.1642 L2744.2117,1125.8847 L2746.251,1123.5926 L2748.2762,1121.2881 L2750.2872,1118.9712 L2752.284,1116.6419 L2754.2664,1114.3005 L2756.2344,1111.947 L2758.188,1109.5814 L2760.127,1107.2039 L2762.0514,1104.8145 L2763.9611,1102.4133 L2765.856,1100.0005 L2767.7361,1097.5761 L2769.6012,1095.1403 L2771.4514,1092.693 L2773.2865,1090.2344 L2775.1065,1087.7646 L2776.9114,1085.2837 L2778.7009,1082.7917 L2780.4752,1080.2888 L2782.234,1077.7751 L2783.9774,1075.2506 L2785.7053,1072.7155 L2787.4176,1070.1699 L2789.1142,1067.6137 L2790.7951,1065.0472 L2792.4603,1062.4705 L2794.1096,1059.8835 L2795.7429,1057.2866 L2797.3604,1054.6796 L2798.9618,1052.0627 L2800.5471,1049.4361 L2802.1162,1046.7998 L2803.6692,1044.1539 L2805.2059,1041.4986 L2806.7263,1038.8338 L2808.2303,1036.1598 L2809.7178,1033.4766 L2811.1889,1030.7844 L2812.6434,1028.0831 L2814.0813,1025.373 L2815.5026,1022.6541 L2816.9071,1019.9265 L2818.2949,1017.1904 L2819.6659,1014.4458 L2821.02,1011.6929 L2822.3572,1008.9316 L2823.6774,1006.1623 L2824.9806,1003.3849 L2826.2668,1000.5995 L2827.5358,997.8063 L2828.7876,995.0054 L2830.0223,992.1968 L2831.2397,989.3808 L2832.4398,986.5573 L2833.6225,983.7265 L2834.7879,980.8884 L2835.9358,978.0433 L2837.0663,975.1912 L2838.1792,972.3323 L2839.2745,969.4665 L2840.3523,966.5941 L2841.4124,963.7151 L2842.4548,960.8297 L2843.4795,957.9379 L2844.4864,955.0399 L2845.4756,952.1358 L2846.4469,949.2256 L2847.4003,946.3096 L2848.3358,943.3877 L2849.2534,940.4602 L2850.1529,937.5271 L2851.0345,934.5885 L2851.898,931.6446 L2852.7435,928.6954 L2853.5708,925.7411 L2854.38,922.7818 L2855.171,919.8176 L2855.9438,916.8485 L2856.6984,913.8748 L2857.4347,910.8965 L2858.1527,907.9138 L2858.8525,904.9267 L2859.5338,901.9354 L2860.1968,898.9399 L2860.8415,895.9404 L2861.4677,892.9371 L2862.0754,889.9299 L2862.6647,886.9191 L2863.2355,883.9047 L2863.7878,880.8868 L2864.3216,877.8657 L2864.8368,874.8413 L2865.3335,871.8138 L2865.8116,868.7833 L2866.271,865.75 L2866.7119,862.7139 L2867.1341,859.6751 L2867.5376,856.6338 L2867.9225,853.5901 L2868.2887,850.5441 L2868.6363,847.4958 L2868.9651,844.4456 L2869.2751,841.3933 L2869.5665,838.3392 L2869.8391,835.2834 L2870.0929,832.226 L2870.328,829.167 L2870.5443,826.1067 L2870.7418,823.0451 L2870.9206,819.9824 L2871.0805,816.9186 L2871.2216,813.8539 L2871.344,810.7883 L2871.4475,807.7221 L2871.5322,804.6554 L2871.5981,801.5881 L2871.6451,798.5205 L2871.6734,795.4527 L2871.6828,792.3847" style="stroke:#000000;stroke-width:0.1;"/>
            <!-- Polyline -->
            <path d="M1621.6828,1829.8847 L2371.6828,1829.8847" style="stroke:#000000;stroke-width:0.1;"/>
            <!-- Polyline -->
            <path d="M1621.6828,2017.3847 L2371.6828,2017.3847" style="stroke:#000000;stroke-width:0.1;"/>
            <!-- Polyline -->
            <path d="M2371.6828,2154.8847 L1621.6828,2154.8847" style="stroke:#000000;stroke-width:0.1;"/>
            <!-- Polyline -->
            <path d="M1621.6828,2017.3847 L1621.6828,1829.8847" style="stroke:#000000;stroke-width:0.1;"/>
            <!-- Polyline -->
            <path d="M1621.6828,2154.8847 L1621.6828,2017.3847" style="stroke:#000000;stroke-width:0.1;"/>
            <!-- Polyline -->
            <path d="M3734.1828,792.3847 L3596.6828,792.3847" style="stroke:#000000;stroke-width:0.1;"/>
            <!-- Polyline -->
            <path d="M3596.6828,792.3847 L3409.1828,792.3847" style="stroke:#000000;stroke-width:0.1;"/>
            <!-- Face -->
            <path d="M1632.305,746.8787 L2132.305,746.8787 L2132.305,746.8787 L1632.305,746.8787 Z" style="stroke:#000000;stroke-width:0.1;"/>
        </g>
    </g>
</svg>

