<svg xmlns="http://www.w3.org/2000/svg" width="3168mm" height="1893mm" viewBox="0 0 3168 1893" version="1.1"><path fill="#fff" fill-rule="evenodd" d="m2424 1534-1 1h-3l-1 1h-1l-1 1h-1l-1 1h-1l-1 1h-1l-5 5v1l-2 2v1l-1 1v1l-1 1v2l-1 1v3l-1 1v47h1l1 1h3l1 1v1l-1 1h-5v49l1 1v5l1 1v3l1 1v3l1 1v1l1 1v2l1 1v1l1 1v1l2 2v1l2 2v1l3 3v1l6 6h1l3 3h1l2 2h1l1 1h1l1 1h1l1 1h1l1 1h1l1 1h2l1 1h3l1 1h3l1 1h518l1-1h2l1-1h1l1-1h1l1-1h1l2-2h1l3-3v-1l2-2v-1l1-1v-32l-1-1v-3l-1-1v-3l-1-1v-3l-1-1v-3l-1-1v-3l-1-1v-3l-1-1v-3l-1-1v-3l-1-1v-3l-1-1v-3l-1-1v-3l-1-1v-3l-1-1v-3l-1-1v-3l-1-1v-3l-1-1v-3l-1-1v-3l-1-1v-3l-1-1v-3l-1-1v-3l-1-1v-3l-1-1v-3l-1-1v-3l-1-1v-3l-1-1v-3l-1-1v-3l-1-1v-3l-1-1v-3l-1-1v-3l-1-1v-3l-1-1v-3l-1-1v-3l-1-1v-1Zm-2209-84v1l-1 1v3l-1 1v3l-1 1v3l-1 1v3l-1 1v3l-1 1v3l-1 1v3l-1 1v3l-1 1v3l-1 1v3l-1 1v3l-1 1v3l-1 1v3l-1 1v3l-1 1v3l-1 1v3l-1 1v3l-1 1v3l-1 1v3l-1 1v3l-1 1v3l-1 1v3l-1 1v3l-1 1v3l-1 1v3l-1 1v3l-1 1v3l-1 1v3l-1 1v3l-1 1v3l-1 1v3l-1 1v3l-1 1v32l1 1v1l2 2v1l2 2h1l3 3h1l1 1h1l1 1h1l1 1h3l1 1h515l1-1h5l1-1h2l1-1h2l1-1h2l1-1h1l1-1h1l1-1h1l2-2h1l2-2h1l4-4h1l3-3v-1l4-4v-1l2-2v-1l1-1v-1l1-1v-1l1-1v-1l1-1v-1l1-1v-2l1-1v-2l1-1v-3l1-1v-5l1-1v-50h-5l-1-1v-1l1-1h5v-47l-1-1v-3l-1-1v-2l-1-1v-1l-1-1v-1l-1-1v-1l-6-6h-1l-2-2h-1l-1-1h-2l-1-1h-2l-1-1Zm1629-187-2 2h-1l-1 1h-1l-1 1h-1l-2 2h-1l-1 1h-1l-2 2h-1l-1 1h-1l-2 2h-1l-1 1h-1l-1 1h-1l-2 2h-1l-1 1h-1l-2 2h-1l-1 1h-1l-2 2h-1l-1 1h-1l-1 1h-1l-2 2h-1l-1 1h-1l-2 2h-1l-1 1h-1l-1 1h-1l-2 2h-1l-1 1h-1l-2 2h-1l-1 1h-1l-2 2h-1l-1 1h-1l-1 1h-1l-2 2h-1l-1 1h-1l-2 2h-1l-1 1h-1l-2 2h-1l-1 1h-1l-1 1h-1l-2 2h-1l-1 1h-1l-2 2h-1l-1 1h-1l-1 1h-1l-2 2h-1l-1 1h-1l-2 2h-1l-1 1h-1l-2 2h-1l-1 1h-1l-1 1h-1l-2 2h-1l-1 1h-1l-2 2h-1l-1 1h-1l-2 2h-1l-1 1h-1l-1 1h-1l-2 2h-1l-1 1h-1l-2 2h-1l-1 1h-1l-1 1h-1l-2 2h-1l-1 1h-1l-2 2h-1l-1 1h-1l-2 2h-1l-1 1h-1l-1 1h-1l-2 2h-1l-1 1h-1l-2 2h-1l-1 1h-1l-2 2h-1l-1 1h-1l-1 1h-1l-2 2h-1l-1 1h-1l-2 2h-1l-1 1h-1l-1 1h-1l-2 2h-1l-1 1h-1l-2 2h-1l-1 1h-1l-2 2h-1l-1 1h-1l-1 1h-1l-2 2h-1l-1 1h-1l-2 2h-1l-1 1h-1l-2 2h-1l-1 1h-1l-1 1h-1l-2 2h-1l-1 1h-1l-2 2h-1l-1 1h-1l-1 1h-1l-2 2h-1l-1 1h-1l-2 2h-1l-1 1h-1l-2 2h-1l-1 1h-1l-1 1h-1l-2 2h-1l-1 1h-1l-2 2h-1l-1 1h-1l-1 1h-1l-2 2h-1l-1 1h-1l-2 2h-1l-1 1h-1l-2 2h-1l-1 1h-1l-1 1h-1l-2 2h-1l-1 1h-1l-2 2h-1l-1 1h-1l-2 2h-1l-1 1h-1l-1 1h-1l-2 2h-1l-1 1h-1l-2 2h-1l-1 1h-1l-1 1h-1l-2 2h-1l-1 1h-1l-2 2h-1l-1 1h-1l-2 2h-1l-1 1h-1l-1 1h-1l-2 2h-1l-1 1h-1l-2 2h-1l-1 1h-1l-2 2h-1l-1 1h-1l-1 1h-1l-2 2h-1l-1 1h-1l-2 2h-1l-1 1h-1l-1 1h-1l-2 2h-1l-1 1h-1l-2 2h-1l-1 1h-1l-2 2h-1l-1 1h-1l-1 1h-1l-2 2h-1l-1 1h-1l-2 2h-1l-1 1h-1l-2 2h-1l-1 1h-1l-1 1h-1l-2 2h-1l-1 1h-1l-2 2h-1l-1 1h-1l-1 1h-1l-2 2h-1l-1 1h-1l-2 2h-1l-1 1h-1l-2 2h-1l-1 1h-1l-1 1h-1l-2 2h-1l-1 1h-1l-2 2h-1l-1 1h-1l-2 2h-1l-1 1h-1l-1 1h-1l-2 2h-1l-1 1h-1l-2 2h-1l-1 1h-1l-1 1h-1l-2 2h-1l-1 1h-1l-2 2h-1l-1 1h-1l-2 2h-1l-1 1h-1l-1 1h-1l-2 2h-1l-1 1h-1l-2 2h-1l-1 1h-1l-2 2h-1l-1 1h-1l-1 1h-1l-2 2h-1l-1 1h-1l-2 2h-1l-1 1h-1l-1 1h-1l-2 2h-1l-1 1h-1l-2 2h-1l-1 1h-1l-2 2h-1l-1 1h-1l-1 1h-1l-2 2h-1l-1 1h-1l-2 2h-1l-1 1h-1l-1 1h-1l-2 2h-1l-1 1h-1l-2 2h-1l-1 1h-1l-2 2h-1l-1 1h-1l-1 1h-1l-2 2h-1l-1 1h-1l-2 2h-1l-1 1h-1l-2 2h-1l-1 1h-1l-1 1h-1l-2 2h-1l-1 1h-1l-2 2h-1l-1 1h-1l-1 1h-1l-2 2h-1l-1 1h-1l-2 2h-1l-1 1h-1l-2 2h-1l-1 1h-1l-1 1h-1l-2 2h-1l-1 1h-1l-2 2h-1l-1 1h-1l-2 2h-1l-1 1h-1l-1 1h-1l-2 2h-1l-1 1h-1l-2 2h-1l-1 1h-1l-1 1h-1l-2 2h-1l-1 1h-1l-2 2h-1l-1 1h-1l-2 2h-1l-1 1h-1l-1 1h-1l-2 2h-1l-1 1h-1l-2 2h-1l-1 1h-1l-2 2h-1l-1 1h-1l-1 1h-1l-2 2h-1l-1 1h-1l-1 1v133h690v-519Zm-657-171v488h33l1-1h1l2-2h1l1-1h1l2-2h1l1-1h1l2-2h1l1-1h1l1-1h1l2-2h1l1-1h1l2-2h1l1-1h1l1-1h1l2-2h1l1-1h1l2-2h1l1-1h1l2-2h1l1-1h1l1-1h1l2-2h1l1-1h1l2-2h1l1-1h1l2-2h1l1-1h1l1-1h1l2-2h1l1-1h1l2-2h1l1-1h1l1-1h1l2-2h1l1-1h1l2-2h1l1-1h1l2-2h1l1-1h1l1-1h1l2-2h1l1-1h1l2-2h1l1-1h1l2-2h1l1-1h1l1-1h1l2-2h1l1-1h1l2-2h1l1-1h1l1-1h1l2-2h1l1-1h1l2-2h1l1-1h1l2-2h1l1-1h1l1-1h1l2-2h1l1-1h1l2-2h1l1-1h1l1-1h1l2-2h1l1-1h1l2-2h1l1-1h1l2-2h1l1-1h1l1-1h1l2-2h1l1-1h1l2-2h1l1-1h1l2-2h1l1-1h1l1-1h1l2-2h1l1-1h1l2-2h1l1-1h1l1-1h1l2-2h1l1-1h1l2-2h1l1-1h1l2-2h1l1-1h1l1-1h1l2-2h1l1-1h1l2-2h1l1-1h1l2-2h1l1-1h1l1-1h1l2-2h1l1-1h1l2-2h1l1-1h1l1-1h1l2-2h1l1-1h1l2-2h1l1-1h1l2-2h1l1-1h1l1-1h1l2-2h1l1-1h1l2-2h1l1-1h1l2-2h1l1-1h1l1-1h1l2-2h1l1-1h1l2-2h1l1-1h1l1-1h1l2-2h1l1-1h1l2-2h1l1-1h1l2-2h1l1-1h1l1-1h1l2-2h1l1-1h1l2-2h1l1-1h1l2-2h1l1-1h1l1-1h1l2-2h1l1-1h1l2-2h1l1-1h1l1-1h1l2-2h1l1-1h1l2-2h1l1-1h1l2-2h1l1-1h1l1-1h1l2-2h1l1-1h1l2-2h1l1-1h1l2-2h1l1-1h1l1-1h1l2-2h1l1-1h1l2-2h1l1-1h1l1-1h1l2-2h1l1-1h1l2-2h1l1-1h1l2-2h1l1-1h1l1-1h1l2-2h1l1-1h1l2-2h1l1-1h1l1-1h1l2-2h1l1-1h1l2-2h1l1-1h1l2-2h1l1-1h1l1-1h1l2-2h1l1-1h1l2-2h1l1-1h1l2-2h1l1-1h1l1-1h1l2-2h1l1-1h1l2-2h1l1-1h1l1-1h1l2-2h1l1-1h1l2-2h1l1-1h1l2-2h1l1-1h1l1-1h1l2-2h1l1-1h1l2-2h1l1-1h1l2-2h1l1-1h1l1-1h1l2-2h1l1-1h1l2-2h1l1-1h1l1-1h1l2-2h1l1-1h1l2-2h1l1-1h1l2-2h1l1-1h1l1-1h1l2-2h1l1-1h1l2-2h1l1-1h1l2-2h1l1-1h1l1-1h1l2-2h1l1-1h1l2-2h1l1-1h1l1-1h1l2-2h1l1-1h1l2-2h1l1-1h1l2-2h1l1-1h1l1-1h1l2-2h1l1-1h1l2-2h1l1-1h1l2-2h1l1-1h1l1-1h1l2-2h1l1-1h1l2-2h1l1-1h1l1-1h1l2-2h1l1-1h1l2-2h1l1-1h1l2-2h1l1-1h1l1-1h1l2-2h1l1-1h1l2-2h1l1-1h1l1-1h1l2-2h1l1-1h1l2-2h1l1-1h1l2-2h1l1-1h1l1-1h1l2-2h1l1-1h1l2-2h1l1-1h1l2-2h1l1-1h1l1-1v-102Zm1190-17v464h32l2-2h1l2-2h1l1-1h1l1-1h1l1-1h3l1-1h520v-448h-521l-1-1h-2l-1-1h-2l-1-1h-1l-2-2h-1l-3-3Zm-1245-82-1 1h-5l-1 1h-3l-1 1h-2l-1 1h-1l-1 1h-1l-1 1h-1l-1 1h-1l-1 1h-1l-3 3h-1l-6 6v1l-3 3v1l-1 1v1l-1 1v1l-1 1v1l-1 1v1l-1 1v2l-1 1v3l-1 1v5l-1 1v800l1 1v5l1 1v3l1 1v2l1 1v1l1 1v2l2 2v1l1 1v1l2 2v1l8 8h1l2 2h1l2 2h1l1 1h1l1 1h2l1 1h1l1 1h3l1 1h4l1 1h804l1-1h5l1-1h2l1-1h2l1-1h1l1-1h1l1-1h1l1-1h1l2-2h1l10-10v-1l2-2v-1l1-1v-1l1-1v-1l1-1v-1l1-1v-2l1-1v-2l1-1v-4l1-1v-805l-1-1v-4l-1-1v-3l-1-1v-2l-1-1v-1l-1-1v-1l-1-1v-1l-2-2v-1l-2-2v-1l-8-8h-1l-2-2h-1l-2-2h-1l-1-1h-1l-1-1h-2l-1-1h-2l-1-1h-3l-1-1h-5l-1-1Zm52 97 1-1h694l1 1v694l-1 1h-694l-1-1Zm-426-99-2 2h-1l-2 2h-1l-1 1h-1l-1 1h-1l-1 1h-3l-1 1H223v448h521l1 1h2l1 1h2l1 1h1l2 2h1l3 3h32V991Zm2253-66-1 1h-3l-1 1h-1l-1 1h-1l-1 1h-1l-1 1h-1l-6 6v1l-2 2v1l-1 1v2l-1 1v3l-1 1v3l-1 1v3l-1 1v3l-1 1v3l-1 1v3l-1 1v3l-1 1v3l-1 1v3l-1 1v3l-1 1v3l-1 1v3l-1 1v3l-1 1v3l-1 1v3l-1 1v3l-1 1v3l-1 1v3l-1 1v3l-1 1v3l-1 1v3l-1 1v3l-1 1v3l-1 1v3l-1 1v3l-1 1v3l-1 1v3l-1 1v3l-1 1v3l-1 1v3l-1 1v3l-1 1v3l-1 1v3l-1 1v3l-1 1v455l1 1v3l1 1v3l1 1v3l1 1v3l1 1v3l1 1v3l1 1v3l1 1v3l1 1v3l1 1v3l1 1v3l1 1v3l1 1v3l1 1v3l1 1v3l1 1v3l1 1v3l1 1v3l1 1v3l1 1v3l1 1v3l1 1v3l1 1v3l1 1v3l1 1v3l1 1v3l1 1v3l1 1v3l1 1v3l1 1v3l1 1v3l1 1v3l1 1v3l1 1v2l1 1v2l1 1v1l2 2v1l6 6h1l2 2h1l1 1h2l1 1h2l1 1h91l1-1h4l1-1h2l1-1h2l1-1h2l1-1h1l1-1h1l1-1h1l2-2h1l2-2h1l4-4h1l3-3v-1l4-4v-1l2-2v-1l1-1v-1l1-1v-1l1-1v-1l1-1v-1l1-1v-2l1-1v-2l1-1v-3l1-1v-6l1-1V978l-1-1v-6l-1-1v-3l-1-1v-2l-1-1v-2l-1-1v-1l-1-1v-1l-1-1v-1l-1-1v-1l-1-1v-1l-3-3v-1l-5-5v-1h-1l-5-5h-1l-2-2h-1l-1-1h-1l-1-1h-1l-1-1h-1l-1-1h-1l-1-1h-1l-1-1h-2l-1-1h-3l-1-1h-5l-1-1Zm-560-23-1 1h-4l-1 1h-3l-1 1h-2l-1 1h-1l-1 1h-2l-1 1h-1l-2 2h-1l-1 1h-1l-2 2h-1l-4 4h-1l-3 3v1l-4 4v1l-2 2v1l-1 1v1l-1 1v1l-1 1v1l-1 1v1l-1 1v2l-1 1v2l-1 1v3l-1 1v5l-1 1v50h5l1 1v1l-1 1h-5v49l1 1v3l1 1v2l1 1v1l1 1v1l1 1v1l6 6h1l2 2h1l1 1h2l1 1h2l1 1h529l1-1v-3l1-1v-3l1-1v-3l1-1v-3l1-1v-3l1-1v-3l1-1v-3l1-1v-3l1-1v-3l1-1v-3l1-1v-3l1-1v-3l1-1v-3l1-1v-3l1-1v-3l1-1v-3l1-1v-3l1-1v-3l1-1v-3l1-1v-3l1-1v-3l1-1v-3l1-1v-3l1-1v-3l1-1v-3l1-1v-3l1-1v-3l1-1v-3l1-1v-3l1-1v-3l1-1v-3l1-1v-3l1-1v-36l-2-2v-1l-4-4h-1l-2-2h-1l-1-1h-1l-1-1h-1l-1-1h-3l-1-1ZM66 841l-1 1h-4l-1 1h-2l-1 1h-2l-1 1h-2l-1 1h-1l-1 1h-1l-1 1h-1l-2 2h-1l-1 1h-1l-4 4h-1l-5 5v1l-3 3v1l-2 2v1l-1 1v1l-1 1v1l-1 1v1l-1 1v1l-1 1v2l-1 1v2l-1 1v3l-1 1v5l-1 1v659l1 1v6l1 1v3l1 1v2l1 1v2l1 1v1l1 1v1l1 1v1l1 1v1l2 2v1l2 2v1l11 11h1l2 2h1l1 1h1l1 1h1l1 1h1l1 1h1l1 1h2l1 1h2l1 1h2l1 1h5l1 1h88l1-1h3l1-1h1l1-1h1l1-1h1l1-1h1l6-6v-1l1-1v-1l1-1v-1l1-1v-1l1-1v-2l1-1v-3l1-1v-3l1-1v-3l1-1v-3l1-1v-3l1-1v-3l1-1v-3l1-1v-3l1-1v-3l1-1v-3l1-1v-3l1-1v-3l1-1v-3l1-1v-3l1-1v-3l1-1v-3l1-1v-3l1-1v-3l1-1v-3l1-1v-3l1-1v-3l1-1v-3l1-1v-3l1-1v-3l1-1v-3l1-1v-3l1-1v-3l1-1v-3l1-1v-3l1-1v-3l1-1v-3l1-1v-3l1-1v-3l1-1V996l-1-1v-3l-1-1v-3l-1-1v-3l-1-1v-3l-1-1v-3l-1-1v-3l-1-1v-3l-1-1v-3l-1-1v-3l-1-1v-3l-1-1v-3l-1-1v-3l-1-1v-3l-1-1v-3l-1-1v-3l-1-1v-3l-1-1v-3l-1-1v-3l-1-1v-3l-1-1v-3l-1-1v-3l-1-1v-3l-1-1v-3l-1-1v-3l-1-1v-3l-1-1v-3l-1-1v-3l-1-1v-3l-1-1v-3l-1-1v-3l-1-1v-3l-1-1v-3l-1-1v-3l-1-1v-3l-1-1v-2l-1-1v-1l-2-2v-1l-7-7h-1l-1-1h-1l-1-1h-2l-1-1h-2l-1-1Zm134-23-1 1h-2l-1 1h-2l-1 1h-1l-2 2h-1l-6 6v1l-1 1v36l1 1v3l1 1v3l1 1v3l1 1v3l1 1v3l1 1v3l1 1v3l1 1v3l1 1v3l1 1v3l1 1v3l1 1v3l1 1v3l1 1v3l1 1v3l1 1v3l1 1v3l1 1v3l1 1v3l1 1v3l1 1v3l1 1v3l1 1v3l1 1v3l1 1v3l1 1v3l1 1v3l1 1v3l1 1v3l1 1v3l1 1v3l1 1v3l1 1h528l1-1h3l1-1h1l1-1h1l1-1h1l2-2h1l4-4v-1l2-2v-1l1-1v-1l1-1v-2l1-1v-3l1-1v-49h-3l-1-1h-1l-1-1 2-2h4v-49l-1-1v-5l-1-1v-3l-1-1v-2l-1-1v-2l-1-1v-1l-1-1v-2l-2-2v-1l-1-1v-1l-2-2v-1l-3-3v-1l-6-6h-1l-3-3h-1l-2-2h-1l-1-1h-1l-1-1h-1l-1-1h-1l-1-1h-2l-1-1h-2l-1-1h-2l-1-1h-4l-1-1Zm37-349-2 2h-29v49l1 1v1l1 1v1l1 1v1l2 2h33v-2l1-1v-20l1-1h23v-35Zm121-42v32l2 2v1l2 2v15h33v-52Zm-73-22v41l1 1v14l1 1v15l1 1v32h4l1 1v2l1 1v4h32v-24l1-1h13v-55l-1-1v-1l-3-3v-1l-2-2v-1l-2-2v-1l-2-2v-1l-3-3v-1l-2-2v-1l-2-2v-1l-2-2v-1l-3-3v-1l-1-1Zm-45-37-1 1h-3l-1 1h-2l-1 1h-2l-1 1h-1l-1 1h-2l-1 1h-2l-1 1h-2l-1 1h-1l-1 1h-2l-1 1h-2l-1 1h-1l-1 1h-2l-1 1h-2l-1 1h-1l-1 1h-1l-2 2v1l-1 1v1l-2 2v1l-1 1v1l-1 1v1l-2 2v1l-1 1v1l-1 1v1l-2 2v1l-1 1v1l-2 2v1l-1 1v1l-1 1v1l-2 2v1l-1 1v1l-2 2v1l-1 1v1l-1 1v1l-2 2v1l-1 1v32h33l1-1 1 1v3h32l14-14v-1l19-19v-1l5-5v-40l-1-1v-10l-1-1v-5Zm125-33-1 1h-9l-1 1h-7v32h1l1 1h1l1 1h2l1 1h1l2 2v1l-1 1h-30v33l2 2h3l1 1h2l1 1h2l1 1h3l1 1h2l1 1h2l1 1h3l1 1h2l1 1h35v-11l1-1h1l2 2v2h33l1-1h1l1-1h1v-33l-2-2v-25h-6l-1-1h-6l-1-1h-1l-1-1h-2l-1-1h-1l-3-3v-7Zm25-45-3 3v32h43v-32h-2l-1-1h-1l-1-1h-1l-1-1ZM97 277l-1 1h-2l-1 1h-1l-2 2h-1l-2 2v33h30l1 1v27h19l1 1v1l-4 4h-1l-1 1h-1l-1 1h-1l-1 1h-3l-1 1h-18v42h39l1-1h2l1-1h1l1-1h2l1-1h2l1-1h2l1-1h1l1-1h2l1-1h2l1-1h1l1-1h2l1-1h2l1-1h1l1-1h2l1-1h2l1-1h2l1-1h1l1-1h2l1-1h2l1-1h1l1-1h2l1-1h2l1-1h1l1-1h2l1-1h2l1-1h1l1-1h2l1-1h2l1-1h2l1-1h1l1-1h2l1-1h2l1-1h1l1-1h2l1-1h2l1-1v-32l-3-3h-1l-8-8h-1l-1-1v-4h-1l-2-2h-1l-2-2h-1l-1-1h-2l-1-1h-2l-1-1h-3l-1-1h-2l-1-1h-3l-1-1h-2l-1-1h-3l-1-1h-2l-1-1h-3l-1-1h-2l-1-1h-2l-1-1h-3l-1-1h-2l-1-1h-3l-1-1h-2l-1-1h-3l-1-1h-2l-1-1h-2l-1-1h-3l-1-1h-11l-1-1v-11Zm104-51v32l1 1v1l1 1v2l1 1v1l1 1v2l1 1v1l1 1v1l1 1v2h32v-33l-1-1v-2l-1-1v-3l-1-1v-2l-1-1v-3l-1-1v-1Zm161-2-3 3v1l-3 3v1l-3 3v1l-3 3v1l-3 3v1l-3 3v1l-3 3v1l-3 3v1l-1 1v32h49l2-2v-15l1-1v-2l1-1v-1l3-3v-1l3-3h1l2-2h1l2-2h2v-32Zm1505-7v567h499v-32l-1-1v-1l-3-3v-1l-1-1v-1l-1-1v-2l-1-1v-3l-1-1V217Zm-485 0-1 1h-2l-2 2h-1l-1 1v1l-2 2v560h491V217Zm-504 0v517l-1 1v4l-1 1v2l-1 1v1l-1 1v1l-1 1v1l-4 4v32h500V217Zm-728-5v57l7 7v1l1 1v9h2l1 1h35v-32l-1-1v-1l-1-1v-2l-1-1v-2l-1-1v-2l-1-1v-1l-1-1v-2l-1-1v-2l-1-1v-1l-1-1v-2l-1-1v-2l-1-1v-2l-1-1v-1l-1-1v-2l-1-1v-8Zm153-27-2 2h-24v8l-1 1v31l-1 1v1l-1 1v2l-1 1v1l-1 1v1l-1 1v2l-1 1v1l-1 1v1l-1 1v2l-1 1v1l-1 1v2l-1 1v1l-1 1v1l-1 1v2l-1 1v1l-1 1v1l-1 1v2l-1 1v36l1 1v2h32l2-2v-1l5-5v-1l4-4v-1l4-4v-1l5-5v-1l4-4v-1l4-4v-1l4-4v-11l1-1v-16l1-1v-11l1-1h10v-39l-1-1Zm-69-5v32l1 1v3l1 1v3l1 1v2l1 1v3h32v-47Zm478-4-1 1h-1l-3 3h-1v1l-3 3v1l-2 2v2l-1 1v1l-1 1v4l-1 1v510l1 1v6l1 1v3l1 1v2l1 1v1l1 1v2l1 1v1l1 1v1l1 1v1l2 2v1l3 3v1l8 8h1l3 3h1l1 1h1l2 2h1l1 1h2l1 1h1l1 1h2l1 1h2l1 1h3l1 1h8l1 1h46v-5l1-1h1l1 1v5h45l1-1h5l1-1h2l1-1h1l1-1h1l1-1h1l7-7v-1l1-1v-1l1-1v-1l1-1v-2l1-1v-4l1-1V209l-1-1h-3l-1-1h-3l-1-1h-3l-1-1h-3l-1-1h-3l-1-1h-3l-1-1h-3l-1-1h-3l-1-1h-3l-1-1h-3l-1-1h-3l-1-1h-3l-1-1h-3l-1-1h-3l-1-1h-3l-1-1h-3l-1-1h-3l-1-1h-3l-1-1h-3l-1-1h-3l-1-1h-3l-1-1h-3l-1-1h-3l-1-1h-3l-1-1h-3l-1-1h-3l-1-1h-3l-1-1h-3l-1-1h-3l-1-1h-3l-1-1h-3l-1-1h-3l-1-1Zm1781-1-1 1h-3l-1 1h-3l-1 1h-3l-1 1h-3l-1 1h-3l-1 1h-3l-1 1h-3l-1 1h-3l-1 1h-3l-1 1h-3l-1 1h-3l-1 1h-3l-1 1h-3l-1 1h-3l-1 1h-3l-1 1h-3l-1 1h-3l-1 1h-3l-1 1h-3l-1 1h-3l-1 1h-3l-1 1h-3l-1 1h-3l-1 1h-3l-1 1h-3l-1 1h-3l-1 1h-3l-1 1h-3l-1 1h-3l-1 1h-3l-1 1h-3l-1 1h-3l-1 1h-3v528l1 1v3l1 1v2l1 1v1l1 1v1l3 3v1l2 2h1l2 2h1l1 1h1l1 1h1l1 1h2l1 1h5l1 1h46v-2l1-1v-2l1-1h1l1 1v5h46l1-1h7l1-1h4l1-1h2l1-1h2l1-1h1l1-1h1l1-1h1l1-1h1l1-1h1l2-2h1l4-4h1l4-4v-1l3-3v-1l2-2v-1l2-2v-1l1-1v-1l1-1v-1l1-1v-2l1-1v-2l1-1v-2l1-1v-4l1-1V193l-1-1v-2l-1-1v-1l-1-1v-1l-1-1v-1l-3-3v-1h-1l-4-4h-1l-1-1ZM1867 11v195h493l1-1h3l1-1h3l1-1h3l1-1h3l1-1h3l1-1h3l1-1h3l1-1h3l1-1h3l1-1h3l1-1h3l1-1h3l1-1h3l1-1h3l1-1h3l1-1h3l1-1h3l1-1h3l1-1h3l1-1h3l1-1h3l1-1h3l1-1h3l1-1h3l1-1h3l1-1h3l1-1h3l1-1h3l1-1h3l1-1h3l1-1h3l1-1h3l1-1h3l1-1h3l1-1h2l1-1h1l1-1h1l1-1h1l6-6v-1l2-2v-1l1-1v-2l1-1v-2l1-1V59l-1-1v-3l-1-1v-3l-1-1v-2l-1-1v-1l-1-1v-1l-1-1v-1l-1-1v-1l-1-1v-1l-2-2v-1l-2-2v-1l-8-8h-1l-3-3h-1l-2-2h-1l-1-1h-1l-1-1h-1l-1-1h-1l-1-1h-2l-1-1h-2l-1-1h-3l-1-1h-4l-1-1Zm-485 0-1 1h-2l-2 2h-1l-1 1v1l-1 1v1l-1 1v187h491V11Zm-612 0-1 1h-5l-1 1h-2l-1 1h-2l-1 1h-2l-1 1h-1l-1 1h-1l-1 1h-1l-1 1h-1l-2 2h-1l-2 2h-1l-10 10v1l-2 2v1l-2 2v1l-1 1v1l-1 1v1l-1 1v2l-1 1v1l-1 1v3l-1 1v3l-1 1v6l-1 1v82l1 1v4l1 1v2l1 1v1l1 1v1l1 1v1l3 3v1h1l3 3h1l2 2h2l1 1h1l1 1h2l1 1h3l1 1h3l1 1h3l1 1h3l1 1h3l1 1h3l1 1h3l1 1h3l1 1h3l1 1h3l1 1h3l1 1h3l1 1h3l1 1h4l1 1h3l1 1h3l1 1h3l1 1h3l1 1h3l1 1h3l1 1h3l1 1h3l1 1h3l1 1h3l1 1h3l1 1h3l1 1h3l1 1h3l1 1h3l1 1h3l1 1h3l1 1h3l1 1h3l1 1h494V11Z"/><image width="3168" height="1893" href="/assets/modal/Furniture/Sofa-set-with-coffe-table-02-outline.png"/></svg>