<svg width="24" height="24" viewBox="0 0 24 24" fill="none" xmlns="http://www.w3.org/2000/svg">
<path d="M21.0833 6.48052C20.9117 6.5694 20.7118 6.5865 20.5275 6.52805C20.3433 6.4696 20.1898 6.34038 20.1008 6.1688C19.4048 4.79386 18.3513 3.63176 17.051 2.80461C16.97 2.7535 16.8998 2.68693 16.8445 2.6087C16.7892 2.53047 16.7499 2.44212 16.7287 2.34868C16.7076 2.25524 16.705 2.15855 16.7212 2.06412C16.7374 1.9697 16.7721 1.87939 16.8232 1.79836C16.8743 1.71733 16.9409 1.64715 17.0191 1.59185C17.0973 1.53654 17.1857 1.49718 17.2791 1.47603C17.3726 1.45487 17.4692 1.45232 17.5637 1.46853C17.6581 1.48474 17.7484 1.51939 17.8294 1.57049C19.3448 2.54077 20.5753 3.89614 21.3951 5.49797C21.4839 5.66961 21.501 5.86953 21.4426 6.05377C21.3841 6.23801 21.2549 6.39151 21.0833 6.48052ZM3.92149 6.56255C4.05507 6.5625 4.18608 6.52574 4.3002 6.45631C4.41432 6.38687 4.50717 6.28742 4.56862 6.1688C5.26462 4.79386 6.31809 3.63176 7.61836 2.80461C7.78202 2.70139 7.89796 2.53738 7.9407 2.34868C7.98343 2.15997 7.94945 1.96201 7.84623 1.79836C7.74301 1.63471 7.579 1.51876 7.3903 1.47603C7.20159 1.43329 7.00363 1.46727 6.83998 1.57049C5.32459 2.54077 4.0941 3.89614 3.27435 5.49797C3.21678 5.60909 3.18878 5.73316 3.19305 5.85824C3.19732 5.98332 3.23371 6.1052 3.29871 6.21214C3.36372 6.31908 3.45516 6.40749 3.56423 6.46886C3.67331 6.53024 3.79634 6.5625 3.92149 6.56255ZM20.8837 16.0363C21.0129 16.2578 21.0814 16.5094 21.0823 16.7659C21.0832 17.0223 21.0164 17.2744 20.8887 17.4969C20.7611 17.7193 20.577 17.9041 20.3552 18.0326C20.1333 18.1612 19.8814 18.229 19.625 18.2292H15.9063C15.7389 19.0534 15.2918 19.7944 14.6406 20.3266C13.9895 20.8588 13.1743 21.1495 12.3333 21.1495C11.4923 21.1495 10.6772 20.8588 10.0261 20.3266C9.37491 19.7944 8.92778 19.0534 8.76042 18.2292H5.04167C4.78539 18.2287 4.53376 18.1607 4.31215 18.032C4.09053 17.9033 3.90674 17.7184 3.7793 17.4961C3.65186 17.2737 3.58527 17.0217 3.58623 16.7654C3.58719 16.5091 3.65567 16.2576 3.78477 16.0363C4.60599 14.6189 5.04167 12.6037 5.04167 10.2084C5.04167 8.27452 5.8099 6.41985 7.17735 5.0524C8.5448 3.68495 10.3995 2.91672 12.3333 2.91672C14.2672 2.91672 16.1219 3.68495 17.4893 5.0524C18.8568 6.41985 19.625 8.27452 19.625 10.2084C19.625 12.6028 20.0607 14.618 20.8837 16.0363ZM14.3951 18.2292H10.2716C10.4227 18.6552 10.702 19.024 11.0712 19.2848C11.4404 19.5456 11.8813 19.6856 12.3333 19.6856C12.7854 19.6856 13.2263 19.5456 13.5955 19.2848C13.9647 19.024 14.244 18.6552 14.3951 18.2292ZM19.625 16.7709C18.6552 15.1057 18.1667 12.8981 18.1667 10.2084C18.1667 8.66129 17.5521 7.17756 16.4581 6.0836C15.3642 4.98963 13.8804 4.37505 12.3333 4.37505C10.7862 4.37505 9.30251 4.98963 8.20855 6.0836C7.11459 7.17756 6.5 8.66129 6.5 10.2084C6.5 12.899 6.00964 15.1066 5.04167 16.7709H19.625Z" fill="black"/>
</svg>
