<svg width="24" height="24" viewBox="0 0 24 24" fill="none" xmlns="http://www.w3.org/2000/svg">
<path d="M19.6249 3.58333H17.4374V2.85417C17.4374 2.66078 17.3606 2.47531 17.2239 2.33857C17.0871 2.20182 16.9016 2.125 16.7083 2.125C16.5149 2.125 16.3294 2.20182 16.1927 2.33857C16.0559 2.47531 15.9791 2.66078 15.9791 2.85417V3.58333H8.68742V2.85417C8.68742 2.66078 8.6106 2.47531 8.47385 2.33857C8.33711 2.20182 8.15164 2.125 7.95825 2.125C7.76486 2.125 7.5794 2.20182 7.44265 2.33857C7.30591 2.47531 7.22909 2.66078 7.22909 2.85417V3.58333H5.04159C4.65481 3.58333 4.28388 3.73698 4.01039 4.01047C3.7369 4.28396 3.58325 4.65489 3.58325 5.04167V19.625C3.58325 20.0118 3.7369 20.3827 4.01039 20.6562C4.28388 20.9297 4.65481 21.0833 5.04159 21.0833H19.6249C20.0117 21.0833 20.3826 20.9297 20.6561 20.6562C20.9296 20.3827 21.0833 20.0118 21.0833 19.625V5.04167C21.0833 4.65489 20.9296 4.28396 20.6561 4.01047C20.3826 3.73698 20.0117 3.58333 19.6249 3.58333ZM7.22909 5.04167V5.77083C7.22909 5.96422 7.30591 6.14969 7.44265 6.28643C7.5794 6.42318 7.76486 6.5 7.95825 6.5C8.15164 6.5 8.33711 6.42318 8.47385 6.28643C8.6106 6.14969 8.68742 5.96422 8.68742 5.77083V5.04167H15.9791V5.77083C15.9791 5.96422 16.0559 6.14969 16.1927 6.28643C16.3294 6.42318 16.5149 6.5 16.7083 6.5C16.9016 6.5 17.0871 6.42318 17.2239 6.28643C17.3606 6.14969 17.4374 5.96422 17.4374 5.77083V5.04167H19.6249V7.95833H5.04159V5.04167H7.22909ZM19.6249 19.625H5.04159V9.41667H19.6249V19.625ZM13.427 12.6979C13.427 12.9142 13.3629 13.1257 13.2427 13.3056C13.1225 13.4854 12.9517 13.6256 12.7518 13.7084C12.552 13.7912 12.332 13.8129 12.1199 13.7707C11.9077 13.7284 11.7128 13.6243 11.5599 13.4713C11.4069 13.3184 11.3027 13.1235 11.2605 12.9113C11.2183 12.6991 11.24 12.4792 11.3228 12.2794C11.4055 12.0795 11.5457 11.9087 11.7256 11.7885C11.9055 11.6683 12.1169 11.6042 12.3333 11.6042C12.6233 11.6042 12.9015 11.7194 13.1066 11.9245C13.3118 12.1296 13.427 12.4078 13.427 12.6979ZM17.4374 12.6979C17.4374 12.9142 17.3733 13.1257 17.2531 13.3056C17.1329 13.4854 16.9621 13.6256 16.7622 13.7084C16.5624 13.7912 16.3425 13.8129 16.1303 13.7707C15.9181 13.7284 15.7232 13.6243 15.5703 13.4713C15.4173 13.3184 15.3131 13.1235 15.2709 12.9113C15.2287 12.6991 15.2504 12.4792 15.3332 12.2794C15.416 12.0795 15.5561 11.9087 15.736 11.7885C15.9159 11.6683 16.1273 11.6042 16.3437 11.6042C16.6337 11.6042 16.9119 11.7194 17.1171 11.9245C17.3222 12.1296 17.4374 12.4078 17.4374 12.6979ZM9.41659 16.3438C9.41659 16.5601 9.35244 16.7715 9.23226 16.9514C9.11207 17.1313 8.94125 17.2715 8.7414 17.3542C8.54154 17.437 8.32162 17.4587 8.10946 17.4165C7.89729 17.3743 7.7024 17.2701 7.54944 17.1171C7.39647 16.9642 7.2923 16.7693 7.2501 16.5571C7.2079 16.345 7.22956 16.125 7.31234 15.9252C7.39513 15.7253 7.53531 15.5545 7.71518 15.4343C7.89505 15.3141 8.10651 15.25 8.32284 15.25C8.61292 15.25 8.89112 15.3652 9.09623 15.5704C9.30135 15.7755 9.41659 16.0537 9.41659 16.3438ZM13.427 16.3438C13.427 16.5601 13.3629 16.7715 13.2427 16.9514C13.1225 17.1313 12.9517 17.2715 12.7518 17.3542C12.552 17.437 12.332 17.4587 12.1199 17.4165C11.9077 17.3743 11.7128 17.2701 11.5599 17.1171C11.4069 16.9642 11.3027 16.7693 11.2605 16.5571C11.2183 16.345 11.24 16.125 11.3228 15.9252C11.4055 15.7253 11.5457 15.5545 11.7256 15.4343C11.9055 15.3141 12.1169 15.25 12.3333 15.25C12.6233 15.25 12.9015 15.3652 13.1066 15.5704C13.3118 15.7755 13.427 16.0537 13.427 16.3438ZM17.4374 16.3438C17.4374 16.5601 17.3733 16.7715 17.2531 16.9514C17.1329 17.1313 16.9621 17.2715 16.7622 17.3542C16.5624 17.437 16.3425 17.4587 16.1303 17.4165C15.9181 17.3743 15.7232 17.2701 15.5703 17.1171C15.4173 16.9642 15.3131 16.7693 15.2709 16.5571C15.2287 16.345 15.2504 16.125 15.3332 15.9252C15.416 15.7253 15.5561 15.5545 15.736 15.4343C15.9159 15.3141 16.1273 15.25 16.3437 15.25C16.6337 15.25 16.9119 15.3652 17.1171 15.5704C17.3222 15.7755 17.4374 16.0537 17.4374 16.3438Z" fill="black"/>
</svg>
