<svg width="24" height="24" viewBox="0 0 24 24" fill="none" xmlns="http://www.w3.org/2000/svg">
<path d="M19.6249 2.91659H17.4374V2.18742C17.4374 1.99403 17.3606 1.80857 17.2239 1.67182C17.0871 1.53507 16.9016 1.45825 16.7083 1.45825C16.5149 1.45825 16.3294 1.53507 16.1927 1.67182C16.0559 1.80857 15.9791 1.99403 15.9791 2.18742V2.91659H8.68742V2.18742C8.68742 1.99403 8.6106 1.80857 8.47385 1.67182C8.33711 1.53507 8.15164 1.45825 7.95825 1.45825C7.76486 1.45825 7.5794 1.53507 7.44265 1.67182C7.30591 1.80857 7.22909 1.99403 7.22909 2.18742V2.91659H5.04159C4.65481 2.91659 4.28388 3.07023 4.01039 3.34372C3.7369 3.61721 3.58325 3.98814 3.58325 4.37492V18.9583C3.58325 19.345 3.7369 19.716 4.01039 19.9895C4.28388 20.2629 4.65481 20.4166 5.04159 20.4166H19.6249C20.0117 20.4166 20.3826 20.2629 20.6561 19.9895C20.9296 19.716 21.0833 19.345 21.0833 18.9583V4.37492C21.0833 3.98814 20.9296 3.61721 20.6561 3.34372C20.3826 3.07023 20.0117 2.91659 19.6249 2.91659ZM7.22909 4.37492V5.10409C7.22909 5.29747 7.30591 5.48294 7.44265 5.61968C7.5794 5.75643 7.76486 5.83325 7.95825 5.83325C8.15164 5.83325 8.33711 5.75643 8.47385 5.61968C8.6106 5.48294 8.68742 5.29747 8.68742 5.10409V4.37492H15.9791V5.10409C15.9791 5.29747 16.0559 5.48294 16.1927 5.61968C16.3294 5.75643 16.5149 5.83325 16.7083 5.83325C16.9016 5.83325 17.0871 5.75643 17.2239 5.61968C17.3606 5.48294 17.4374 5.29747 17.4374 5.10409V4.37492H19.6249V7.29159H5.04159V4.37492H7.22909ZM19.6249 18.9583H5.04159V8.74992H19.6249V18.9583ZM16.1304 11.1507C16.1982 11.2184 16.252 11.2988 16.2887 11.3874C16.3254 11.4759 16.3442 11.5708 16.3442 11.6666C16.3442 11.7624 16.3254 11.8573 16.2887 11.9458C16.252 12.0343 16.1982 12.1148 16.1304 12.1825L11.7554 16.5575C11.6877 16.6253 11.6072 16.679 11.5187 16.7157C11.4302 16.7524 11.3353 16.7713 11.2395 16.7713C11.1437 16.7713 11.0488 16.7524 10.9603 16.7157C10.8718 16.679 10.7913 16.6253 10.7236 16.5575L8.53612 14.37C8.39929 14.2332 8.32243 14.0476 8.32243 13.8541C8.32243 13.6606 8.39929 13.475 8.53612 13.3382C8.67294 13.2014 8.85851 13.1245 9.052 13.1245C9.2455 13.1245 9.43107 13.2014 9.56789 13.3382L11.2395 15.0107L15.0986 11.1507C15.1663 11.0829 15.2468 11.0291 15.3353 10.9924C15.4238 10.9557 15.5187 10.9368 15.6145 10.9368C15.7103 10.9368 15.8052 10.9557 15.8937 10.9924C15.9822 11.0291 16.0627 11.0829 16.1304 11.1507Z" fill="black"/>
</svg>
