<svg width="24" height="24" viewBox="0 0 24 24" fill="none" xmlns="http://www.w3.org/2000/svg">
<path d="M21.8126 19.625C21.8126 19.8184 21.7358 20.0039 21.599 20.1406C21.4623 20.2773 21.2768 20.3542 21.0834 20.3542H3.58341C3.39003 20.3542 3.20456 20.2773 3.06782 20.1406C2.93107 20.0039 2.85425 19.8184 2.85425 19.625V5.04167C2.85425 4.84828 2.93107 4.66281 3.06782 4.52607C3.20456 4.38932 3.39003 4.3125 3.58341 4.3125C3.7768 4.3125 3.96227 4.38932 4.09901 4.52607C4.23576 4.66281 4.31258 4.84828 4.31258 5.04167V18.8958H21.0834C21.2768 18.8958 21.4623 18.9727 21.599 19.1094C21.7358 19.2461 21.8126 19.4316 21.8126 19.625ZM12.698 15.25C12.9143 15.25 13.1258 15.1859 13.3057 15.0657C13.4855 14.9455 13.6257 14.7747 13.7085 14.5748C13.7913 14.375 13.8129 14.155 13.7707 13.9429C13.7285 13.7307 13.6244 13.5358 13.4714 13.3829C13.3184 13.2299 13.1235 13.1257 12.9114 13.0835C12.6992 13.0413 12.4793 13.063 12.2794 13.1458C12.0796 13.2285 11.9088 13.3687 11.7886 13.5486C11.6684 13.7285 11.6042 13.9399 11.6042 14.1562C11.6042 14.4463 11.7195 14.7245 11.9246 14.9296C12.1297 15.1348 12.4079 15.25 12.698 15.25ZM10.5105 10.1458C10.7268 10.1458 10.9383 10.0817 11.1182 9.9615C11.298 9.84132 11.4382 9.6705 11.521 9.47064C11.6038 9.27079 11.6254 9.05087 11.5832 8.8387C11.541 8.62654 11.4369 8.43165 11.2839 8.27868C11.1309 8.12572 10.936 8.02155 10.7239 7.97935C10.5117 7.93715 10.2918 7.95881 10.0919 8.04159C9.89208 8.12437 9.72126 8.26456 9.60108 8.44443C9.4809 8.62429 9.41675 8.83576 9.41675 9.05208C9.41675 9.34216 9.53198 9.62036 9.7371 9.82548C9.94222 10.0306 10.2204 10.1458 10.5105 10.1458ZM7.59383 16.7083C7.81015 16.7083 8.02162 16.6442 8.20149 16.524C8.38135 16.4038 8.52154 16.233 8.60432 16.0331C8.68711 15.8333 8.70877 15.6134 8.66657 15.4012C8.62436 15.189 8.52019 14.9941 8.36723 14.8412C8.21427 14.6882 8.01938 14.5841 7.80721 14.5418C7.59505 14.4996 7.37513 14.5213 7.17527 14.6041C6.97541 14.6869 6.80459 14.8271 6.68441 15.0069C6.56423 15.1868 6.50008 15.3983 6.50008 15.6146C6.50008 15.9047 6.61532 16.1829 6.82043 16.388C7.02555 16.5931 7.30375 16.7083 7.59383 16.7083ZM16.3438 12.3333C16.5602 12.3333 16.7716 12.2692 16.9515 12.149C17.1314 12.0288 17.2715 11.858 17.3543 11.6581C17.4371 11.4583 17.4588 11.2384 17.4166 11.0262C17.3744 10.814 17.2702 10.6191 17.1172 10.4662C16.9643 10.3132 16.7694 10.2091 16.5572 10.1668C16.345 10.1246 16.1251 10.1463 15.9253 10.2291C15.7254 10.3119 15.5546 10.4521 15.4344 10.6319C15.3142 10.8118 15.2501 11.0233 15.2501 11.2396C15.2501 11.5297 15.3653 11.8079 15.5704 12.013C15.7756 12.2181 16.0538 12.3333 16.3438 12.3333ZM18.5313 8.6875C18.7477 8.6875 18.9591 8.62335 19.139 8.50317C19.3189 8.38299 19.459 8.21217 19.5418 8.01231C19.6246 7.81245 19.6463 7.59254 19.6041 7.38037C19.5619 7.1682 19.4577 6.97332 19.3047 6.82035C19.1518 6.66739 18.9569 6.56322 18.7447 6.52102C18.5325 6.47881 18.3126 6.50047 18.1128 6.58326C17.9129 6.66604 17.7421 6.80623 17.6219 6.9861C17.5017 7.16596 17.4376 7.37743 17.4376 7.59375C17.4376 7.88383 17.5528 8.16203 17.7579 8.36715C17.9631 8.57227 18.2413 8.6875 18.5313 8.6875ZM16.7084 15.6146C16.7084 15.8309 16.7726 16.0424 16.8927 16.2222C17.0129 16.4021 17.1837 16.5423 17.3836 16.6251C17.5835 16.7079 17.8034 16.7295 18.0155 16.6873C18.2277 16.6451 18.4226 16.5409 18.5756 16.388C18.7285 16.235 18.8327 16.0401 18.8749 15.828C18.9171 15.6158 18.8954 15.3959 18.8127 15.196C18.7299 14.9962 18.5897 14.8253 18.4098 14.7052C18.23 14.585 18.0185 14.5208 17.8022 14.5208C17.5121 14.5208 17.2339 14.6361 17.0288 14.8412C16.8236 15.0463 16.7084 15.3245 16.7084 15.6146Z" fill="black"/>
</svg>
