<svg width="24" height="24" viewBox="0 0 24 24" fill="none" xmlns="http://www.w3.org/2000/svg">
<path d="M22.2272 13.9524L18.3535 11.2709L22.2272 8.5894C22.3242 8.52231 22.4035 8.4327 22.4583 8.32824C22.513 8.22378 22.5416 8.1076 22.5416 7.98966C22.5416 7.87171 22.513 7.75553 22.4583 7.65107C22.4035 7.54661 22.3242 7.457 22.2272 7.38992L17.4876 4.10867C17.3657 4.02439 17.2211 3.97925 17.0729 3.97925C16.9247 3.97925 16.7801 4.02439 16.6582 4.10867L12.3333 7.10281L8.00845 4.10867C7.88658 4.02439 7.74192 3.97925 7.59374 3.97925C7.44556 3.97925 7.3009 4.02439 7.17903 4.10867L2.43944 7.38992C2.34243 7.457 2.26314 7.54661 2.20838 7.65107C2.15361 7.75553 2.125 7.87171 2.125 7.98966C2.125 8.1076 2.15361 8.22378 2.20838 8.32824C2.26314 8.4327 2.34243 8.52231 2.43944 8.5894L6.3177 11.2709L2.444 13.9524C2.34699 14.0195 2.2677 14.1091 2.21293 14.2136C2.15817 14.318 2.12956 14.4342 2.12956 14.5522C2.12956 14.6701 2.15817 14.7863 2.21293 14.8907C2.2677 14.9952 2.34699 15.0848 2.444 15.1519L7.18358 18.4331C7.30546 18.5174 7.45012 18.5626 7.5983 18.5626C7.74647 18.5626 7.89113 18.5174 8.01301 18.4331L12.3333 15.439L16.6582 18.4331C16.7801 18.5174 16.9247 18.5626 17.0729 18.5626C17.2211 18.5626 17.3657 18.5174 17.4876 18.4331L22.2272 15.1519C22.3242 15.0848 22.4035 14.9952 22.4583 14.8907C22.513 14.7863 22.5416 14.6701 22.5416 14.5522C22.5416 14.4342 22.513 14.318 22.4583 14.2136C22.4035 14.1091 22.3242 14.0195 22.2272 13.9524ZM12.3333 13.6653L8.87434 11.2709L12.3379 8.87651L15.7969 11.2709L12.3333 13.6653ZM17.0729 5.59526L20.5364 7.98966L17.0729 10.3841L13.6139 7.98966L17.0729 5.59526ZM7.59374 5.59526L11.0573 7.98966L7.59374 10.3841L4.13475 7.98966L7.59374 5.59526ZM7.59374 16.9466L4.13475 14.5522L7.5983 12.1578L11.0573 14.5522L7.59374 16.9466ZM17.0729 16.9466L13.6139 14.5522L17.0729 12.1578L20.5364 14.5522L17.0729 16.9466ZM15.1105 19.1924C15.2208 19.3511 15.2635 19.5471 15.2293 19.7373C15.1952 19.9276 15.0869 20.0964 14.9282 20.2068L12.7508 21.7144C12.6289 21.7987 12.4842 21.8438 12.3361 21.8438C12.1879 21.8438 12.0432 21.7987 11.9213 21.7144L9.74113 20.2032C9.58296 20.0928 9.47494 19.9243 9.44073 19.7345C9.40652 19.5447 9.4489 19.3491 9.55859 19.1905C9.66828 19.0318 9.83635 18.9231 10.026 18.8881C10.2157 18.8531 10.4115 18.8947 10.5706 19.0037L12.3333 20.2278L14.0961 19.0074C14.2551 18.8974 14.4514 18.8551 14.6416 18.8898C14.8319 18.9245 15.0005 19.0333 15.1105 19.1924Z" fill="black"/>
</svg>
