<svg width="24" height="24" viewBox="0 0 24 24" fill="none" xmlns="http://www.w3.org/2000/svg">
<path d="M11.5652 7.99168C10.7122 7.99168 9.87846 8.2446 9.16927 8.71847C8.46008 9.19233 7.90734 9.86585 7.58094 10.6539C7.25453 11.4419 7.16913 12.309 7.33553 13.1455C7.50193 13.982 7.91265 14.7505 8.51577 15.3536C9.11888 15.9567 9.8873 16.3674 10.7238 16.5338C11.5604 16.7002 12.4275 16.6148 13.2155 16.2884C14.0035 15.962 14.677 15.4093 15.1509 14.7001C15.6247 13.9909 15.8777 13.1571 15.8777 12.3042C15.8765 11.1608 15.4217 10.0646 14.6133 9.2561C13.8048 8.4476 12.7085 7.99287 11.5652 7.99168ZM11.5652 15.1792C10.9965 15.1792 10.4407 15.0106 9.9679 14.6947C9.49511 14.3787 9.12661 13.9297 8.90901 13.4044C8.69141 12.8791 8.63448 12.301 8.74541 11.7433C8.85634 11.1856 9.13016 10.6733 9.53223 10.2712C9.93431 9.86917 10.4466 9.59535 11.0043 9.48442C11.562 9.37349 12.14 9.43042 12.6654 9.64803C13.1907 9.86563 13.6397 10.2341 13.9556 10.7069C14.2716 11.1797 14.4402 11.7356 14.4402 12.3042C14.4402 13.0667 14.1373 13.7979 13.5981 14.3371C13.0589 14.8763 12.3277 15.1792 11.5652 15.1792ZM19.4714 12.4982C19.475 12.3689 19.475 12.2395 19.4714 12.1101L20.8119 10.4354C20.8822 10.3475 20.9308 10.2443 20.9539 10.1341C20.977 10.0239 20.9739 9.90989 20.9449 9.80113C20.7251 8.97511 20.3964 8.18201 19.9674 7.44273C19.9112 7.34599 19.8332 7.26369 19.7396 7.20239C19.646 7.1411 19.5394 7.10249 19.4283 7.08965L17.2972 6.85246C17.2086 6.75902 17.1187 6.66918 17.0277 6.58293L16.7761 4.44644C16.7632 4.33523 16.7244 4.22857 16.663 4.13498C16.6015 4.04139 16.519 3.96345 16.4221 3.90738C15.6826 3.47914 14.8895 3.15075 14.0637 2.93078C13.9549 2.90185 13.8408 2.89889 13.7306 2.92214C13.6204 2.94539 13.5173 2.99421 13.4294 3.06465L11.7592 4.39793C11.6299 4.39793 11.5005 4.39793 11.3711 4.39793L9.69642 3.06016C9.60849 2.98987 9.50528 2.94122 9.3951 2.91812C9.28493 2.89503 9.17087 2.89813 9.06212 2.92719C8.23623 3.14733 7.44318 3.47603 6.70372 3.90469C6.60697 3.96086 6.52468 4.03885 6.46338 4.13243C6.40208 4.22602 6.36348 4.33262 6.35063 4.44375L6.11345 6.57844C6.02001 6.66768 5.93017 6.75753 5.84392 6.84797L3.70743 7.09324C3.59622 7.10618 3.48956 7.14492 3.39597 7.20638C3.30238 7.26784 3.22444 7.35031 3.16837 7.44723C2.74013 8.18679 2.41174 8.97982 2.19177 9.80563C2.16283 9.91445 2.15988 10.0285 2.18313 10.1387C2.20638 10.2489 2.25519 10.3521 2.32563 10.4399L3.65892 12.1101C3.65892 12.2395 3.65892 12.3689 3.65892 12.4982L2.32114 14.1729C2.25086 14.2609 2.20221 14.3641 2.17911 14.4742C2.15601 14.5844 2.15912 14.6985 2.18817 14.8072C2.40792 15.6332 2.73664 16.4263 3.16567 17.1656C3.22185 17.2624 3.29983 17.3447 3.39342 17.406C3.487 17.4673 3.5936 17.5059 3.70474 17.5187L5.83583 17.7559C5.92508 17.8493 6.01492 17.9392 6.10536 18.0254L6.35423 20.1619C6.36717 20.2731 6.40591 20.3798 6.46737 20.4734C6.52883 20.567 6.6113 20.6449 6.70821 20.701C7.44777 21.1292 8.2408 21.4576 9.06661 21.6776C9.17543 21.7065 9.28953 21.7095 9.39971 21.6862C9.50989 21.663 9.61306 21.6142 9.70091 21.5437L11.3711 20.2104C11.5005 20.214 11.6299 20.214 11.7592 20.2104L13.4339 21.5509C13.5218 21.6212 13.6251 21.6698 13.7352 21.6929C13.8454 21.716 13.9595 21.7129 14.0682 21.6839C14.8942 21.4641 15.6873 21.1354 16.4266 20.7064C16.5234 20.6502 16.6057 20.5722 16.667 20.4786C16.7283 20.385 16.7669 20.2784 16.7797 20.1673L17.0169 18.0362C17.1103 17.9476 17.2002 17.8577 17.2864 17.7667L19.4229 17.5151C19.5341 17.5022 19.6408 17.4634 19.7344 17.402C19.828 17.3405 19.9059 17.258 19.962 17.1611C20.3902 16.4216 20.7186 15.6285 20.9386 14.8027C20.9675 14.6939 20.9705 14.5798 20.9472 14.4696C20.924 14.3595 20.8751 14.2563 20.8047 14.1684L19.4714 12.4982ZM18.0249 11.9143C18.0402 12.174 18.0402 12.4344 18.0249 12.6941C18.0142 12.8719 18.0699 13.0474 18.1813 13.1864L19.4561 14.7794C19.3099 15.2443 19.1225 15.6953 18.8964 16.127L16.8659 16.357C16.6891 16.3767 16.5259 16.4612 16.4077 16.5942C16.2348 16.7887 16.0506 16.9729 15.8561 17.1459C15.7231 17.264 15.6385 17.4272 15.6189 17.6041L15.3934 19.6327C14.9617 19.859 14.5107 20.0463 14.0458 20.1925L12.4519 18.9176C12.3244 18.8157 12.166 18.7602 12.0027 18.7604H11.9596C11.6999 18.7756 11.4395 18.7756 11.1797 18.7604C11.0019 18.7496 10.8265 18.8054 10.6874 18.9167L9.08997 20.1925C8.62506 20.0462 8.17407 19.8589 7.74231 19.6327L7.51231 17.605C7.49269 17.4281 7.40817 17.2649 7.27513 17.1468C7.08062 16.9738 6.89643 16.7896 6.72349 16.5951C6.60537 16.4621 6.44211 16.3776 6.26528 16.3579L4.23661 16.1315C4.01038 15.6998 3.82306 15.2488 3.67688 14.7839L4.95177 13.19C5.06309 13.051 5.1188 12.8755 5.1081 12.6977C5.09282 12.438 5.09282 12.1776 5.1081 11.9179C5.1188 11.74 5.06309 11.5646 4.95177 11.4255L3.67688 9.82898C3.82317 9.36407 4.01048 8.91308 4.23661 8.48133L6.26438 8.25133C6.44121 8.2317 6.60447 8.14719 6.72259 8.01414C6.89553 7.81964 7.07972 7.63544 7.27423 7.4625C7.4078 7.34431 7.49266 7.18067 7.51231 7.0034L7.73782 4.97562C8.16952 4.74939 8.62053 4.56207 9.08548 4.4159L10.6793 5.69078C10.8184 5.8021 10.9938 5.85781 11.1717 5.84711C11.4314 5.83184 11.6918 5.83184 11.9515 5.84711C12.1293 5.85781 12.3048 5.8021 12.4438 5.69078L14.0404 4.4159C14.5053 4.56219 14.9563 4.7495 15.388 4.97562L15.618 7.0034C15.6376 7.18022 15.7222 7.34349 15.8552 7.4616C16.0497 7.63454 16.2339 7.81874 16.4068 8.01324C16.525 8.14629 16.6882 8.2308 16.8651 8.25043L18.8937 8.47594C19.12 8.90764 19.3073 9.35864 19.4534 9.82359L18.1786 11.4174C18.0662 11.5577 18.0104 11.7349 18.0222 11.9143H18.0249Z" fill="#272235"/>
</svg>
