<svg width="24" height="24" viewBox="0 0 24 24" fill="none" xmlns="http://www.w3.org/2000/svg">
<path d="M10.8464 20.3411C10.8464 20.5317 10.7707 20.7145 10.6359 20.8493C10.5011 20.9841 10.3183 21.0598 10.1277 21.0598H4.37769C4.18706 21.0598 4.00424 20.9841 3.86945 20.8493C3.73466 20.7145 3.65894 20.5317 3.65894 20.3411V4.52856C3.65894 4.33794 3.73466 4.15512 3.86945 4.02033C4.00424 3.88554 4.18706 3.80981 4.37769 3.80981H10.1277C10.3183 3.80981 10.5011 3.88554 10.6359 4.02033C10.7707 4.15512 10.8464 4.33794 10.8464 4.52856C10.8464 4.71919 10.7707 4.90201 10.6359 5.0368C10.5011 5.17159 10.3183 5.24731 10.1277 5.24731H5.09644V19.6223H10.1277C10.3183 19.6223 10.5011 19.698 10.6359 19.8328C10.7707 19.9676 10.8464 20.1504 10.8464 20.3411ZM20.6987 11.9263L17.105 8.33255C16.9701 8.19768 16.7872 8.12191 16.5964 8.12191C16.4057 8.12191 16.2228 8.19768 16.0879 8.33255C15.9531 8.46742 15.8773 8.65033 15.8773 8.84106C15.8773 9.0318 15.9531 9.21471 16.0879 9.34958L18.4553 11.7161H10.1277C9.93706 11.7161 9.75424 11.7918 9.61945 11.9266C9.48466 12.0614 9.40894 12.2442 9.40894 12.4348C9.40894 12.6254 9.48466 12.8083 9.61945 12.943C9.75424 13.0778 9.93706 13.1536 10.1277 13.1536H18.4553L16.0879 15.52C15.9531 15.6549 15.8773 15.8378 15.8773 16.0286C15.8773 16.2193 15.9531 16.4022 16.0879 16.5371C16.2228 16.6719 16.4057 16.7477 16.5964 16.7477C16.7872 16.7477 16.9701 16.6719 17.105 16.5371L20.6987 12.9433C20.7655 12.8766 20.8185 12.7973 20.8547 12.7101C20.8909 12.6228 20.9095 12.5293 20.9095 12.4348C20.9095 12.3404 20.8909 12.2468 20.8547 12.1596C20.8185 12.0723 20.7655 11.9931 20.6987 11.9263Z" fill="#272235"/>
</svg>
