<svg width="24" height="24" viewBox="0 0 24 24" fill="none" xmlns="http://www.w3.org/2000/svg">
<path d="M18.6753 12.0966L13.974 10.3594L12.2422 5.65443C12.1397 5.37582 11.9541 5.13538 11.7106 4.96553C11.4671 4.79569 11.1774 4.70463 10.8805 4.70463C10.5836 4.70463 10.2939 4.79569 10.0504 4.96553C9.80689 5.13538 9.62135 5.37582 9.51879 5.65443L7.77608 10.3594L3.07114 12.0911C2.79253 12.1937 2.55209 12.3792 2.38224 12.6227C2.2124 12.8662 2.12134 13.156 2.12134 13.4529C2.12134 13.7497 2.2124 14.0395 2.38224 14.283C2.55209 14.5265 2.79253 14.712 3.07114 14.8146L7.77608 16.5573L9.50786 21.2622C9.61041 21.5408 9.79595 21.7813 10.0395 21.9511C10.283 22.121 10.5727 22.212 10.8696 22.212C11.1665 22.212 11.4562 22.121 11.6997 21.9511C11.9432 21.7813 12.1287 21.5408 12.2313 21.2622L13.974 16.5573L18.6789 14.8255C18.9576 14.723 19.198 14.5374 19.3678 14.2939C19.5377 14.0504 19.6287 13.7607 19.6287 13.4638C19.6287 13.1669 19.5377 12.8772 19.3678 12.6337C19.198 12.3902 18.9576 12.2046 18.6789 12.1021L18.6753 12.0966ZM13.1537 15.3013C13.0547 15.3378 12.9648 15.3953 12.8902 15.4699C12.8157 15.5445 12.7581 15.6344 12.7217 15.7333L10.875 20.7363L9.03207 15.737C8.99566 15.637 8.93778 15.5461 8.86251 15.4709C8.78725 15.3956 8.69642 15.3377 8.5964 15.3013L3.59705 13.4583L8.5964 11.6154C8.69642 11.5789 8.78725 11.5211 8.86251 11.4458C8.93778 11.3705 8.99566 11.2797 9.03207 11.1797L10.875 6.18034L12.718 11.1797C12.7545 11.2787 12.812 11.3685 12.8866 11.4431C12.9612 11.5177 13.0511 11.5752 13.15 11.6117L18.153 13.4583L13.1537 15.3013ZM13.7917 3.97917C13.7917 3.78578 13.8685 3.60031 14.0053 3.46357C14.142 3.32682 14.3275 3.25 14.5209 3.25H15.9792V1.79167C15.9792 1.59828 16.056 1.41281 16.1928 1.27607C16.3295 1.13932 16.515 1.0625 16.7084 1.0625C16.9018 1.0625 17.0872 1.13932 17.224 1.27607C17.3607 1.41281 17.4375 1.59828 17.4375 1.79167V3.25H18.8959C19.0893 3.25 19.2747 3.32682 19.4115 3.46357C19.5482 3.60031 19.625 3.78578 19.625 3.97917C19.625 4.17255 19.5482 4.35802 19.4115 4.49477C19.2747 4.63151 19.0893 4.70833 18.8959 4.70833H17.4375V6.16667C17.4375 6.36005 17.3607 6.54552 17.224 6.68226C17.0872 6.81901 16.9018 6.89583 16.7084 6.89583C16.515 6.89583 16.3295 6.81901 16.1928 6.68226C16.056 6.54552 15.9792 6.36005 15.9792 6.16667V4.70833H14.5209C14.3275 4.70833 14.142 4.63151 14.0053 4.49477C13.8685 4.35802 13.7917 4.17255 13.7917 3.97917ZM23.2709 8.35417C23.2709 8.54755 23.1941 8.73302 23.0573 8.86976C22.9206 9.00651 22.7351 9.08333 22.5417 9.08333H21.8125V9.8125C21.8125 10.0059 21.7357 10.1914 21.599 10.3281C21.4622 10.4648 21.2768 10.5417 21.0834 10.5417C20.89 10.5417 20.7045 10.4648 20.5678 10.3281C20.431 10.1914 20.3542 10.0059 20.3542 9.8125V9.08333H19.625C19.4317 9.08333 19.2462 9.00651 19.1094 8.86976C18.9727 8.73302 18.8959 8.54755 18.8959 8.35417C18.8959 8.16078 18.9727 7.97531 19.1094 7.83857C19.2462 7.70182 19.4317 7.625 19.625 7.625H20.3542V6.89583C20.3542 6.70245 20.431 6.51698 20.5678 6.38023C20.7045 6.24349 20.89 6.16667 21.0834 6.16667C21.2768 6.16667 21.4622 6.24349 21.599 6.38023C21.7357 6.51698 21.8125 6.70245 21.8125 6.89583V7.625H22.5417C22.7351 7.625 22.9206 7.70182 23.0573 7.83857C23.1941 7.97531 23.2709 8.16078 23.2709 8.35417Z" fill="black"/>
</svg>
