<svg width="24" height="24" viewBox="0 0 24 24" fill="none" xmlns="http://www.w3.org/2000/svg">
<path d="M10.1458 4.3125H5.77083C5.38406 4.3125 5.01313 4.46615 4.73964 4.73964C4.46615 5.01313 4.3125 5.38406 4.3125 5.77083V10.1458C4.3125 10.5326 4.46615 10.9035 4.73964 11.177C5.01313 11.4505 5.38406 11.6042 5.77083 11.6042H10.1458C10.5326 11.6042 10.9035 11.4505 11.177 11.177C11.4505 10.9035 11.6042 10.5326 11.6042 10.1458V5.77083C11.6042 5.38406 11.4505 5.01313 11.177 4.73964C10.9035 4.46615 10.5326 4.3125 10.1458 4.3125ZM10.1458 10.1458H5.77083V5.77083H10.1458V10.1458ZM18.8958 4.3125H14.5208C14.1341 4.3125 13.7631 4.46615 13.4896 4.73964C13.2161 5.01313 13.0625 5.38406 13.0625 5.77083V10.1458C13.0625 10.5326 13.2161 10.9035 13.4896 11.177C13.7631 11.4505 14.1341 11.6042 14.5208 11.6042H18.8958C19.2826 11.6042 19.6535 11.4505 19.927 11.177C20.2005 10.9035 20.3542 10.5326 20.3542 10.1458V5.77083C20.3542 5.38406 20.2005 5.01313 19.927 4.73964C19.6535 4.46615 19.2826 4.3125 18.8958 4.3125ZM18.8958 10.1458H14.5208V5.77083H18.8958V10.1458ZM10.1458 13.0625H5.77083C5.38406 13.0625 5.01313 13.2161 4.73964 13.4896C4.46615 13.7631 4.3125 14.1341 4.3125 14.5208V18.8958C4.3125 19.2826 4.46615 19.6535 4.73964 19.927C5.01313 20.2005 5.38406 20.3542 5.77083 20.3542H10.1458C10.5326 20.3542 10.9035 20.2005 11.177 19.927C11.4505 19.6535 11.6042 19.2826 11.6042 18.8958V14.5208C11.6042 14.1341 11.4505 13.7631 11.177 13.4896C10.9035 13.2161 10.5326 13.0625 10.1458 13.0625ZM10.1458 18.8958H5.77083V14.5208H10.1458V18.8958ZM18.8958 13.0625H14.5208C14.1341 13.0625 13.7631 13.2161 13.4896 13.4896C13.2161 13.7631 13.0625 14.1341 13.0625 14.5208V18.8958C13.0625 19.2826 13.2161 19.6535 13.4896 19.927C13.7631 20.2005 14.1341 20.3542 14.5208 20.3542H18.8958C19.2826 20.3542 19.6535 20.2005 19.927 19.927C20.2005 19.6535 20.3542 19.2826 20.3542 18.8958V14.5208C20.3542 14.1341 20.2005 13.7631 19.927 13.4896C19.6535 13.2161 19.2826 13.0625 18.8958 13.0625ZM18.8958 18.8958H14.5208V14.5208H18.8958V18.8958Z" fill="black"/>
</svg>
