<svg width="616" height="463" viewBox="0 0 616 463" fill="none" xmlns="http://www.w3.org/2000/svg">
<path d="M0.5 345.133H615.109V117.5H0.5V345.133Z" stroke="black"/>
<path d="M5.05469 340.581H610.559V122.053H5.05469V340.581Z" stroke="black"/>
<path d="M582.906 351.641C583.592 351.867 584.339 351.813 584.985 351.49" stroke="black"/>
<path d="M497.133 351.49C497.779 351.813 498.526 351.867 499.211 351.641" stroke="black"/>
<path d="M582.812 455.016C582.829 455.021 582.846 455.022 582.862 455.019C582.879 455.015 582.894 455.008 582.907 454.997C582.92 454.986 582.93 454.972 582.936 454.956C582.942 454.94 582.943 454.923 582.941 454.906" stroke="black"/>
<path d="M582.797 455.201C582.823 455.202 582.85 455.197 582.874 455.186C582.898 455.175 582.919 455.158 582.935 455.137C582.951 455.116 582.962 455.091 582.967 455.065C582.972 455.039 582.97 455.012 582.962 454.986" stroke="black"/>
<path d="M499.156 454.986C499.148 455.012 499.146 455.039 499.151 455.065C499.156 455.091 499.166 455.116 499.183 455.137C499.199 455.158 499.22 455.175 499.244 455.186C499.268 455.197 499.295 455.202 499.321 455.201" stroke="black"/>
<path d="M499.173 454.906C499.17 454.923 499.172 454.94 499.178 454.956C499.184 454.972 499.194 454.986 499.206 454.997C499.219 455.008 499.235 455.015 499.251 455.019C499.268 455.022 499.285 455.021 499.301 455.016" stroke="black"/>
<path d="M587.828 357.275H590.011" stroke="black"/>
<path d="M587.828 357.276L589.909 356.291" stroke="black"/>
<path d="M587.43 352.859L587.832 357.275" stroke="black"/>
<path d="M503.73 352.859L503.328 357.275" stroke="black"/>
<path d="M503.331 357.276L501.25 356.291" stroke="black"/>
<path d="M503.331 357.275H501.148" stroke="black"/>
<path d="M569.891 437.782C573.318 437.751 576.692 436.929 579.75 435.381C582.808 433.833 585.467 431.6 587.52 428.855" stroke="black"/>
<path d="M587.406 458.285C587.486 458.27 587.562 458.238 587.628 458.191C587.694 458.144 587.749 458.082 587.788 458.012C587.828 457.941 587.851 457.862 587.856 457.781C587.862 457.7 587.85 457.619 587.82 457.543" stroke="black"/>
<path d="M583.445 433.023C583.585 439.928 584.714 446.776 586.798 453.36" stroke="black"/>
<path d="M585.951 437.258C585.3 444.077 585.934 450.957 587.817 457.543" stroke="black"/>
<path d="M545.581 437.781H521.273" stroke="black"/>
<path d="M503.641 428.855C505.694 431.6 508.353 433.833 511.411 435.381C514.469 436.929 517.843 437.751 521.27 437.782" stroke="black"/>
<path d="M545.584 458.285H503.758" stroke="black"/>
<path d="M503.343 457.543C503.313 457.619 503.3 457.7 503.306 457.781C503.311 457.862 503.335 457.941 503.374 458.012C503.414 458.082 503.469 458.144 503.535 458.191C503.601 458.238 503.676 458.27 503.756 458.285" stroke="black"/>
<path d="M545.581 456.232H503.828" stroke="black"/>
<path d="M503.344 457.543C505.228 450.957 505.861 444.077 505.21 437.258" stroke="black"/>
<path d="M504.359 453.36C506.443 446.776 507.572 439.928 507.712 433.023" stroke="black"/>
<path d="M545.578 437.781H569.885" stroke="black"/>
<path d="M545.578 458.285H587.404" stroke="black"/>
<path d="M545.578 456.42H587.33" stroke="black"/>
<path d="M497.462 457.805C499.541 451.393 500.283 444.623 499.643 437.913C493.863 409.665 492.666 380.671 496.098 352.043C496.988 351.594 497.99 351.417 498.979 351.536C499.968 351.655 500.9 352.063 501.658 352.71C502.305 353.033 503.053 353.087 503.74 352.86C507.824 352.357 511.933 352.084 516.047 352.043H545.65H575.252C579.367 352.084 583.476 352.357 587.56 352.86C588.247 353.087 588.995 353.033 589.641 352.71C590.399 352.063 591.331 351.655 592.321 351.536C593.31 351.417 594.312 351.594 595.201 352.043C598.633 380.671 597.436 409.665 591.656 437.913C591.016 444.623 591.759 451.393 593.838 457.805C594.105 458.24 594.25 458.739 594.26 459.249C594.27 459.76 594.143 460.264 593.893 460.709C593.643 461.154 593.278 461.524 592.837 461.781C592.396 462.039 591.894 462.173 591.384 462.172H499.916C499.405 462.173 498.904 462.039 498.463 461.781C498.021 461.524 497.657 461.154 497.407 460.709C497.157 460.264 497.03 459.76 497.04 459.249C497.049 458.739 497.195 458.24 497.462 457.805Z" stroke="black"/>
<path d="M501.65 352.709C498.294 380.7 499.464 409.049 505.116 436.668" stroke="black"/>
<path d="M586.039 436.668C591.691 409.049 592.861 380.7 589.505 352.709" stroke="black"/>
<path d="M587.828 105.396H590.011" stroke="black"/>
<path d="M587.828 105.396L589.909 106.381" stroke="black"/>
<path d="M587.43 109.812L587.832 105.396" stroke="black"/>
<path d="M503.73 109.812L503.328 105.396" stroke="black"/>
<path d="M503.331 105.396L501.25 106.381" stroke="black"/>
<path d="M503.331 105.396H501.148" stroke="black"/>
<path d="M569.891 24.89C573.318 24.9209 576.692 25.7425 579.75 27.2907C582.808 28.839 585.467 31.0722 587.52 33.8164" stroke="black"/>
<path d="M587.406 4.38693C587.486 4.40151 587.562 4.43357 587.628 4.48083C587.694 4.5281 587.749 4.58942 587.788 4.66034C587.828 4.73126 587.851 4.81004 587.856 4.89105C587.862 4.97206 587.85 5.05329 587.82 5.12891" stroke="black"/>
<path d="M583.445 29.6484C583.585 22.7442 584.714 15.8957 586.798 9.31204" stroke="black"/>
<path d="M585.951 25.4141C585.3 18.5952 585.934 11.7148 587.817 5.12909" stroke="black"/>
<path d="M545.581 24.8906H521.273" stroke="black"/>
<path d="M503.641 33.8164C505.694 31.0722 508.353 28.839 511.411 27.2907C514.469 25.7425 517.843 24.9209 521.27 24.89" stroke="black"/>
<path d="M545.584 4.38672H503.758" stroke="black"/>
<path d="M503.343 5.12891C503.313 5.05329 503.3 4.97206 503.306 4.89105C503.311 4.81004 503.335 4.73126 503.374 4.66034C503.414 4.58942 503.469 4.5281 503.535 4.48083C503.601 4.43357 503.676 4.40151 503.756 4.38693" stroke="black"/>
<path d="M545.581 6.43945H503.828" stroke="black"/>
<path d="M503.344 5.12909C505.228 11.7148 505.861 18.5952 505.21 25.4141" stroke="black"/>
<path d="M504.359 9.31204C506.443 15.8957 507.572 22.7442 507.712 29.6484" stroke="black"/>
<path d="M545.578 24.8906H569.885" stroke="black"/>
<path d="M545.578 4.38672H587.404" stroke="black"/>
<path d="M545.578 6.25195H587.33" stroke="black"/>
<path d="M497.462 4.86699C499.541 11.2788 500.283 18.0488 499.643 24.7589C493.863 53.0067 492.666 82.0006 496.098 110.629C496.988 111.078 497.99 111.255 498.979 111.136C499.968 111.017 500.9 110.609 501.658 109.962C502.305 109.639 503.053 109.585 503.74 109.811C507.824 110.315 511.933 110.588 516.047 110.629H545.65H575.252C579.367 110.588 583.476 110.315 587.56 109.811C588.247 109.585 588.995 109.639 589.641 109.962C590.399 110.609 591.331 111.017 592.321 111.136C593.31 111.255 594.312 111.078 595.201 110.629C598.633 82.0006 597.436 53.0067 591.656 24.7589C591.016 18.0488 591.759 11.2788 593.838 4.86699C594.105 4.43163 594.25 3.93294 594.26 3.42244C594.27 2.91193 594.143 2.40812 593.893 1.963C593.643 1.51788 593.278 1.1476 592.837 0.890396C592.396 0.633195 591.894 0.498402 591.384 0.499924H499.916C499.405 0.498402 498.904 0.633195 498.463 0.890396C498.021 1.1476 497.657 1.51788 497.407 1.963C497.157 2.40812 497.03 2.91193 497.04 3.42244C497.049 3.93294 497.195 4.43163 497.462 4.86699Z" stroke="black"/>
<path d="M501.65 109.963C498.294 81.9719 499.464 53.6233 505.116 26.0041" stroke="black"/>
<path d="M586.039 26.0041C591.691 53.6233 592.861 81.9719 589.505 109.963" stroke="black"/>
<path d="M468.906 357.275H471.089" stroke="black"/>
<path d="M468.906 357.276L470.987 356.291" stroke="black"/>
<path d="M468.508 352.859L468.91 357.275" stroke="black"/>
<path d="M384.808 352.859L384.406 357.275" stroke="black"/>
<path d="M384.409 357.276L382.328 356.291" stroke="black"/>
<path d="M384.41 357.275H382.227" stroke="black"/>
<path d="M450.969 437.782C454.396 437.751 457.77 436.929 460.828 435.381C463.886 433.833 466.545 431.6 468.598 428.855" stroke="black"/>
<path d="M468.484 458.285C468.564 458.27 468.64 458.238 468.706 458.191C468.772 458.144 468.827 458.082 468.866 458.012C468.906 457.941 468.929 457.862 468.935 457.781C468.94 457.7 468.928 457.619 468.898 457.543" stroke="black"/>
<path d="M464.523 433.023C464.663 439.928 465.792 446.776 467.876 453.36" stroke="black"/>
<path d="M467.029 437.258C466.379 444.077 467.012 450.957 468.895 457.543" stroke="black"/>
<path d="M426.66 437.781H402.352" stroke="black"/>
<path d="M384.719 428.855C386.772 431.6 389.431 433.833 392.489 435.381C395.547 436.929 398.921 437.751 402.348 437.782" stroke="black"/>
<path d="M426.662 458.285H384.836" stroke="black"/>
<path d="M384.421 457.543C384.391 457.619 384.379 457.7 384.384 457.781C384.39 457.862 384.413 457.941 384.452 458.012C384.492 458.082 384.547 458.144 384.613 458.191C384.679 458.238 384.754 458.27 384.834 458.285" stroke="black"/>
<path d="M426.659 456.232H384.906" stroke="black"/>
<path d="M384.422 457.543C386.306 450.957 386.939 444.077 386.288 437.258" stroke="black"/>
<path d="M385.438 453.36C387.521 446.776 388.65 439.928 388.79 433.023" stroke="black"/>
<path d="M426.656 437.781H450.963" stroke="black"/>
<path d="M426.656 458.285H468.482" stroke="black"/>
<path d="M426.656 456.42H468.408" stroke="black"/>
<path d="M378.54 457.805C380.619 451.393 381.361 444.623 380.721 437.913C374.941 409.665 373.744 380.671 377.176 352.043C378.066 351.594 379.068 351.417 380.057 351.536C381.046 351.655 381.979 352.063 382.736 352.71C383.383 353.033 384.131 353.087 384.818 352.86C388.902 352.357 393.011 352.084 397.125 352.043H426.728H456.331C460.445 352.084 464.554 352.357 468.638 352.86C469.325 353.087 470.073 353.033 470.719 352.71C471.477 352.063 472.409 351.655 473.399 351.536C474.388 351.417 475.39 351.594 476.279 352.043C479.712 380.671 478.515 409.665 472.734 437.913C472.094 444.623 472.837 451.393 474.916 457.805C475.183 458.24 475.329 458.739 475.338 459.249C475.348 459.76 475.221 460.264 474.971 460.709C474.721 461.154 474.356 461.524 473.915 461.781C473.474 462.039 472.972 462.173 472.462 462.172H380.994C380.484 462.173 379.982 462.039 379.541 461.781C379.1 461.524 378.735 461.154 378.485 460.709C378.235 460.264 378.108 459.76 378.118 459.249C378.127 458.739 378.273 458.24 378.54 457.805Z" stroke="black"/>
<path d="M382.728 352.709C379.372 380.7 380.542 409.049 386.194 436.668" stroke="black"/>
<path d="M467.117 436.668C472.769 409.049 473.939 380.7 470.583 352.709" stroke="black"/>
<path d="M468.906 105.396H471.089" stroke="black"/>
<path d="M468.906 105.396L470.987 106.381" stroke="black"/>
<path d="M468.508 109.812L468.91 105.396" stroke="black"/>
<path d="M384.808 109.812L384.406 105.396" stroke="black"/>
<path d="M384.409 105.396L382.328 106.381" stroke="black"/>
<path d="M384.41 105.396H382.227" stroke="black"/>
<path d="M450.969 24.89C454.396 24.9209 457.77 25.7425 460.828 27.2907C463.886 28.839 466.545 31.0722 468.598 33.8164" stroke="black"/>
<path d="M468.484 4.38693C468.564 4.40151 468.64 4.43357 468.706 4.48083C468.772 4.5281 468.827 4.58942 468.866 4.66034C468.906 4.73126 468.929 4.81004 468.935 4.89105C468.94 4.97206 468.928 5.05329 468.898 5.12891" stroke="black"/>
<path d="M464.523 29.6484C464.663 22.7442 465.792 15.8957 467.876 9.31204" stroke="black"/>
<path d="M467.029 25.4141C466.379 18.5952 467.012 11.7148 468.895 5.12909" stroke="black"/>
<path d="M426.66 24.8906H402.352" stroke="black"/>
<path d="M384.719 33.8164C386.772 31.0722 389.431 28.839 392.489 27.2907C395.547 25.7425 398.921 24.9209 402.348 24.89" stroke="black"/>
<path d="M426.662 4.38672H384.836" stroke="black"/>
<path d="M384.421 5.12891C384.391 5.05329 384.379 4.97206 384.384 4.89105C384.39 4.81004 384.413 4.73126 384.452 4.66034C384.492 4.58942 384.547 4.5281 384.613 4.48083C384.679 4.43357 384.754 4.40151 384.834 4.38693" stroke="black"/>
<path d="M426.659 6.43945H384.906" stroke="black"/>
<path d="M384.422 5.12909C386.306 11.7148 386.939 18.5952 386.288 25.4141" stroke="black"/>
<path d="M385.438 9.31204C387.521 15.8957 388.65 22.7442 388.79 29.6484" stroke="black"/>
<path d="M426.656 24.8906H450.963" stroke="black"/>
<path d="M426.656 4.38672H468.482" stroke="black"/>
<path d="M426.656 6.25195H468.408" stroke="black"/>
<path d="M378.54 4.86699C380.619 11.2788 381.361 18.0488 380.721 24.7589C374.941 53.0067 373.744 82.0006 377.176 110.629C378.066 111.078 379.068 111.255 380.057 111.136C381.046 111.017 381.979 110.609 382.736 109.962C383.383 109.639 384.131 109.585 384.818 109.811C388.902 110.315 393.011 110.588 397.125 110.629H426.728H456.331C460.445 110.588 464.554 110.315 468.638 109.811C469.325 109.585 470.073 109.639 470.719 109.962C471.477 110.609 472.409 111.017 473.399 111.136C474.388 111.255 475.39 111.078 476.279 110.629C479.712 82.0006 478.515 53.0067 472.734 24.7589C472.094 18.0488 472.837 11.2788 474.916 4.86699C475.183 4.43163 475.329 3.93294 475.338 3.42244C475.348 2.91193 475.221 2.40812 474.971 1.963C474.721 1.51788 474.356 1.1476 473.915 0.890396C473.474 0.633195 472.972 0.498402 472.462 0.499924H380.994C380.484 0.498402 379.982 0.633195 379.541 0.890396C379.1 1.1476 378.735 1.51788 378.485 1.963C378.235 2.40812 378.108 2.91193 378.118 3.42244C378.127 3.93294 378.273 4.43163 378.54 4.86699Z" stroke="black"/>
<path d="M382.728 109.963C379.372 81.9719 380.542 53.6233 386.194 26.0041" stroke="black"/>
<path d="M467.117 26.0041C472.769 53.6233 473.939 81.9719 470.583 109.963" stroke="black"/>
<path d="M349.984 357.275H352.167" stroke="black"/>
<path d="M349.984 357.276L352.065 356.291" stroke="black"/>
<path d="M349.586 352.859L349.988 357.275" stroke="black"/>
<path d="M265.886 352.859L265.484 357.275" stroke="black"/>
<path d="M265.487 357.276L263.406 356.291" stroke="black"/>
<path d="M265.488 357.275H263.305" stroke="black"/>
<path d="M332.047 437.782C335.474 437.751 338.848 436.929 341.906 435.381C344.964 433.833 347.623 431.6 349.676 428.855" stroke="black"/>
<path d="M349.562 458.285C349.642 458.27 349.718 458.238 349.784 458.191C349.85 458.144 349.905 458.082 349.944 458.012C349.984 457.941 350.007 457.862 350.013 457.781C350.018 457.7 350.006 457.619 349.976 457.543" stroke="black"/>
<path d="M345.602 433.023C345.741 439.928 346.87 446.776 348.954 453.36" stroke="black"/>
<path d="M348.107 437.258C347.457 444.077 348.09 450.957 349.974 457.543" stroke="black"/>
<path d="M307.738 437.781H283.43" stroke="black"/>
<path d="M265.797 428.855C267.85 431.6 270.51 433.833 273.567 435.381C276.625 436.929 279.999 437.751 283.426 437.782" stroke="black"/>
<path d="M307.74 458.285H265.914" stroke="black"/>
<path d="M265.499 457.543C265.469 457.619 265.457 457.7 265.462 457.781C265.468 457.862 265.491 457.941 265.531 458.012C265.57 458.082 265.625 458.144 265.691 458.191C265.757 458.238 265.833 458.27 265.912 458.285" stroke="black"/>
<path d="M307.737 456.232H265.984" stroke="black"/>
<path d="M265.5 457.543C267.384 450.957 268.017 444.077 267.366 437.258" stroke="black"/>
<path d="M266.516 453.36C268.6 446.776 269.729 439.928 269.868 433.023" stroke="black"/>
<path d="M307.734 437.781H332.041" stroke="black"/>
<path d="M307.734 458.285H349.56" stroke="black"/>
<path d="M307.734 456.42H349.486" stroke="black"/>
<path d="M259.618 457.805C261.697 451.393 262.44 444.623 261.8 437.913C256.019 409.665 254.822 380.671 258.255 352.043C259.144 351.594 260.146 351.417 261.135 351.536C262.125 351.655 263.057 352.063 263.815 352.71C264.461 353.033 265.209 353.087 265.896 352.86C269.98 352.357 274.089 352.084 278.203 352.043H307.806H337.409C341.523 352.084 345.632 352.357 349.716 352.86C350.403 353.087 351.151 353.033 351.798 352.71C352.555 352.063 353.488 351.655 354.477 351.536C355.466 351.417 356.468 351.594 357.358 352.043C360.79 380.671 359.593 409.665 353.813 437.913C353.173 444.623 353.915 451.393 355.994 457.805C356.261 458.24 356.407 458.739 356.416 459.249C356.426 459.76 356.299 460.264 356.049 460.709C355.799 461.154 355.434 461.524 354.993 461.781C354.552 462.039 354.05 462.173 353.54 462.172H262.072C261.562 462.173 261.06 462.039 260.619 461.781C260.178 461.524 259.813 461.154 259.563 460.709C259.313 460.264 259.186 459.76 259.196 459.249C259.205 458.739 259.351 458.24 259.618 457.805Z" stroke="black"/>
<path d="M263.806 352.709C260.45 380.7 261.62 409.049 267.272 436.668" stroke="black"/>
<path d="M348.195 436.668C353.847 409.049 355.017 380.7 351.661 352.709" stroke="black"/>
<path d="M349.984 105.396H352.167" stroke="black"/>
<path d="M349.984 105.396L352.065 106.381" stroke="black"/>
<path d="M349.586 109.812L349.988 105.396" stroke="black"/>
<path d="M265.886 109.812L265.484 105.396" stroke="black"/>
<path d="M265.487 105.396L263.406 106.381" stroke="black"/>
<path d="M265.488 105.396H263.305" stroke="black"/>
<path d="M332.047 24.89C335.474 24.9209 338.848 25.7425 341.906 27.2907C344.964 28.839 347.623 31.0722 349.676 33.8164" stroke="black"/>
<path d="M349.562 4.38693C349.642 4.40151 349.718 4.43357 349.784 4.48083C349.85 4.5281 349.905 4.58942 349.944 4.66034C349.984 4.73126 350.007 4.81004 350.013 4.89105C350.018 4.97206 350.006 5.05329 349.976 5.12891" stroke="black"/>
<path d="M345.602 29.6484C345.741 22.7442 346.87 15.8957 348.954 9.31204" stroke="black"/>
<path d="M348.107 25.4141C347.457 18.5952 348.09 11.7148 349.974 5.12909" stroke="black"/>
<path d="M307.738 24.8906H283.43" stroke="black"/>
<path d="M265.797 33.8164C267.85 31.0722 270.51 28.839 273.567 27.2907C276.625 25.7425 279.999 24.9209 283.426 24.89" stroke="black"/>
<path d="M307.74 4.38672H265.914" stroke="black"/>
<path d="M265.499 5.12891C265.469 5.05329 265.457 4.97206 265.462 4.89105C265.468 4.81004 265.491 4.73126 265.531 4.66034C265.57 4.58942 265.625 4.5281 265.691 4.48083C265.757 4.43357 265.833 4.40151 265.912 4.38693" stroke="black"/>
<path d="M307.737 6.43945H265.984" stroke="black"/>
<path d="M265.5 5.12909C267.384 11.7148 268.017 18.5952 267.366 25.4141" stroke="black"/>
<path d="M266.516 9.31204C268.6 15.8957 269.729 22.7442 269.868 29.6484" stroke="black"/>
<path d="M307.734 24.8906H332.041" stroke="black"/>
<path d="M307.734 4.38672H349.56" stroke="black"/>
<path d="M307.734 6.25195H349.486" stroke="black"/>
<path d="M259.618 4.86699C261.697 11.2788 262.44 18.0488 261.8 24.7589C256.019 53.0067 254.822 82.0006 258.255 110.629C259.144 111.078 260.146 111.255 261.135 111.136C262.125 111.017 263.057 110.609 263.815 109.962C264.461 109.639 265.209 109.585 265.896 109.811C269.98 110.315 274.089 110.588 278.203 110.629H307.806H337.409C341.523 110.588 345.632 110.315 349.716 109.811C350.403 109.585 351.151 109.639 351.798 109.962C352.555 110.609 353.488 111.017 354.477 111.136C355.466 111.255 356.468 111.078 357.358 110.629C360.79 82.0006 359.593 53.0067 353.813 24.7589C353.173 18.0488 353.915 11.2788 355.994 4.86699C356.261 4.43163 356.407 3.93294 356.416 3.42244C356.426 2.91193 356.299 2.40812 356.049 1.963C355.799 1.51788 355.434 1.1476 354.993 0.890396C354.552 0.633195 354.05 0.498402 353.54 0.499924H262.072C261.562 0.498402 261.06 0.633195 260.619 0.890396C260.178 1.1476 259.813 1.51788 259.563 1.963C259.313 2.40812 259.186 2.91193 259.196 3.42244C259.205 3.93294 259.351 4.43163 259.618 4.86699Z" stroke="black"/>
<path d="M263.806 109.963C260.45 81.9719 261.62 53.6233 267.272 26.0041" stroke="black"/>
<path d="M348.195 26.0041C353.847 53.6233 355.017 81.9719 351.661 109.963" stroke="black"/>
<path d="M231.062 357.275H233.245" stroke="black"/>
<path d="M231.062 357.276L233.143 356.291" stroke="black"/>
<path d="M230.664 352.859L231.066 357.275" stroke="black"/>
<path d="M146.965 352.859L146.562 357.275" stroke="black"/>
<path d="M146.565 357.276L144.484 356.291" stroke="black"/>
<path d="M146.566 357.275H144.383" stroke="black"/>
<path d="M213.125 437.782C216.552 437.751 219.926 436.929 222.984 435.381C226.042 433.833 228.701 431.6 230.755 428.855" stroke="black"/>
<path d="M230.641 458.285C230.721 458.27 230.796 458.238 230.862 458.191C230.928 458.144 230.983 458.082 231.022 458.012C231.062 457.941 231.085 457.862 231.091 457.781C231.096 457.7 231.084 457.619 231.054 457.543" stroke="black"/>
<path d="M226.68 433.023C226.819 439.928 227.948 446.776 230.032 453.36" stroke="black"/>
<path d="M229.185 437.258C228.535 444.077 229.168 450.957 231.052 457.543" stroke="black"/>
<path d="M188.816 437.781H164.508" stroke="black"/>
<path d="M146.875 428.855C148.928 431.6 151.588 433.833 154.645 435.381C157.703 436.929 161.077 437.751 164.505 437.782" stroke="black"/>
<path d="M188.818 458.285H146.992" stroke="black"/>
<path d="M146.577 457.543C146.547 457.619 146.535 457.7 146.54 457.781C146.546 457.862 146.569 457.941 146.609 458.012C146.648 458.082 146.703 458.144 146.769 458.191C146.835 458.238 146.911 458.27 146.991 458.285" stroke="black"/>
<path d="M188.815 456.232H147.062" stroke="black"/>
<path d="M146.578 457.543C148.462 450.957 149.095 444.077 148.445 437.258" stroke="black"/>
<path d="M147.594 453.36C149.678 446.776 150.807 439.928 150.946 433.023" stroke="black"/>
<path d="M188.812 437.781H213.12" stroke="black"/>
<path d="M188.812 458.285H230.639" stroke="black"/>
<path d="M188.812 456.42H230.565" stroke="black"/>
<path d="M140.696 457.805C142.775 451.393 143.518 444.623 142.878 437.913C137.098 409.665 135.901 380.671 139.333 352.043C140.222 351.594 141.224 351.417 142.213 351.536C143.203 351.655 144.135 352.063 144.893 352.71C145.539 353.033 146.288 353.087 146.974 352.86C151.058 352.357 155.167 352.084 159.282 352.043H188.884H218.487C222.601 352.084 226.71 352.357 230.794 352.86C231.481 353.087 232.229 353.033 232.876 352.71C233.634 352.063 234.566 351.655 235.555 351.536C236.544 351.417 237.546 351.594 238.436 352.043C241.868 380.671 240.671 409.665 234.891 437.913C234.251 444.623 234.993 451.393 237.072 457.805C237.339 458.24 237.485 458.739 237.494 459.249C237.504 459.76 237.377 460.264 237.127 460.709C236.877 461.154 236.513 461.524 236.071 461.781C235.63 462.039 235.129 462.173 234.618 462.172H143.15C142.64 462.173 142.138 462.039 141.697 461.781C141.256 461.524 140.891 461.154 140.641 460.709C140.391 460.264 140.264 459.76 140.274 459.249C140.284 458.739 140.429 458.24 140.696 457.805Z" stroke="black"/>
<path d="M144.884 352.709C141.528 380.7 142.699 409.049 148.35 436.668" stroke="black"/>
<path d="M229.273 436.668C234.925 409.049 236.095 380.7 232.74 352.709" stroke="black"/>
<path d="M231.062 105.396H233.245" stroke="black"/>
<path d="M231.062 105.396L233.143 106.381" stroke="black"/>
<path d="M230.664 109.812L231.066 105.396" stroke="black"/>
<path d="M146.965 109.812L146.562 105.396" stroke="black"/>
<path d="M146.565 105.396L144.484 106.381" stroke="black"/>
<path d="M146.566 105.396H144.383" stroke="black"/>
<path d="M213.125 24.89C216.552 24.9209 219.926 25.7425 222.984 27.2907C226.042 28.839 228.701 31.0722 230.755 33.8164" stroke="black"/>
<path d="M230.641 4.38693C230.721 4.40151 230.796 4.43357 230.862 4.48083C230.928 4.5281 230.983 4.58942 231.022 4.66034C231.062 4.73126 231.085 4.81004 231.091 4.89105C231.096 4.97206 231.084 5.05329 231.054 5.12891" stroke="black"/>
<path d="M226.68 29.6484C226.819 22.7442 227.948 15.8957 230.032 9.31204" stroke="black"/>
<path d="M229.185 25.4141C228.535 18.5952 229.168 11.7148 231.052 5.12909" stroke="black"/>
<path d="M188.816 24.8906H164.508" stroke="black"/>
<path d="M146.875 33.8164C148.928 31.0722 151.588 28.839 154.645 27.2907C157.703 25.7425 161.077 24.9209 164.505 24.89" stroke="black"/>
<path d="M188.818 4.38672H146.992" stroke="black"/>
<path d="M146.577 5.12891C146.547 5.05329 146.535 4.97206 146.54 4.89105C146.546 4.81004 146.569 4.73126 146.609 4.66034C146.648 4.58942 146.703 4.5281 146.769 4.48083C146.835 4.43357 146.911 4.40151 146.991 4.38693" stroke="black"/>
<path d="M188.815 6.43945H147.062" stroke="black"/>
<path d="M146.578 5.12909C148.462 11.7148 149.095 18.5952 148.445 25.4141" stroke="black"/>
<path d="M147.594 9.31204C149.678 15.8957 150.807 22.7442 150.946 29.6484" stroke="black"/>
<path d="M188.812 24.8906H213.12" stroke="black"/>
<path d="M188.812 4.38672H230.639" stroke="black"/>
<path d="M188.812 6.25195H230.565" stroke="black"/>
<path d="M140.696 4.86699C142.775 11.2788 143.518 18.0488 142.878 24.7589C137.098 53.0067 135.901 82.0006 139.333 110.629C140.222 111.078 141.224 111.255 142.213 111.136C143.203 111.017 144.135 110.609 144.893 109.962C145.539 109.639 146.288 109.585 146.974 109.811C151.058 110.315 155.167 110.588 159.282 110.629H188.884H218.487C222.601 110.588 226.71 110.315 230.794 109.811C231.481 109.585 232.229 109.639 232.876 109.962C233.634 110.609 234.566 111.017 235.555 111.136C236.544 111.255 237.546 111.078 238.436 110.629C241.868 82.0006 240.671 53.0067 234.891 24.7589C234.251 18.0488 234.993 11.2788 237.072 4.86699C237.339 4.43163 237.485 3.93294 237.494 3.42244C237.504 2.91193 237.377 2.40812 237.127 1.963C236.877 1.51788 236.513 1.1476 236.071 0.890396C235.63 0.633195 235.129 0.498402 234.618 0.499924H143.15C142.64 0.498402 142.138 0.633195 141.697 0.890396C141.256 1.1476 140.891 1.51788 140.641 1.963C140.391 2.40812 140.264 2.91193 140.274 3.42244C140.284 3.93294 140.429 4.43163 140.696 4.86699Z" stroke="black"/>
<path d="M144.884 109.963C141.528 81.9719 142.699 53.6233 148.35 26.0041" stroke="black"/>
<path d="M229.273 26.0041C234.925 53.6233 236.095 81.9719 232.74 109.963" stroke="black"/>
<path d="M112.141 357.275H114.324" stroke="black"/>
<path d="M112.141 357.276L114.222 356.291" stroke="black"/>
<path d="M111.742 352.859L112.144 357.275" stroke="black"/>
<path d="M28.0426 352.859L27.6406 357.275" stroke="black"/>
<path d="M27.6435 357.276L25.5625 356.291" stroke="black"/>
<path d="M27.6439 357.275H25.4609" stroke="black"/>
<path d="M94.2031 437.782C97.6304 437.751 101.004 436.929 104.062 435.381C107.12 433.833 109.779 431.6 111.833 428.855" stroke="black"/>
<path d="M111.719 458.285C111.799 458.27 111.874 458.238 111.94 458.191C112.006 458.144 112.061 458.082 112.101 458.012C112.14 457.941 112.163 457.862 112.169 457.781C112.174 457.7 112.162 457.619 112.132 457.543" stroke="black"/>
<path d="M107.758 433.023C107.898 439.928 109.027 446.776 111.11 453.36" stroke="black"/>
<path d="M110.263 437.258C109.613 444.077 110.246 450.957 112.13 457.543" stroke="black"/>
<path d="M69.8939 437.781H45.5859" stroke="black"/>
<path d="M27.9531 428.855C30.0066 431.6 32.6658 433.833 35.7236 435.381C38.7814 436.929 42.1554 437.751 45.5827 437.782" stroke="black"/>
<path d="M69.8963 458.285H28.0703" stroke="black"/>
<path d="M27.655 457.543C27.6254 457.619 27.613 457.7 27.6185 457.781C27.6239 457.862 27.6473 457.941 27.6869 458.012C27.7264 458.082 27.7811 458.144 27.8471 458.191C27.9132 458.238 27.9888 458.27 28.0687 458.285" stroke="black"/>
<path d="M69.8936 456.232H28.1406" stroke="black"/>
<path d="M27.6562 457.543C29.54 450.957 30.1731 444.077 29.5227 437.258" stroke="black"/>
<path d="M28.6719 453.36C30.7558 446.776 31.8848 439.928 32.0245 433.023" stroke="black"/>
<path d="M69.8906 437.781H94.1976" stroke="black"/>
<path d="M69.8906 458.285H111.717" stroke="black"/>
<path d="M69.8906 456.42H111.643" stroke="black"/>
<path d="M21.7743 457.805C23.8534 451.393 24.5959 444.623 23.9558 437.913C18.1757 409.665 16.9787 380.671 20.4108 352.043C21.3001 351.594 22.3023 351.417 23.2915 351.536C24.2808 351.655 25.2129 352.063 25.9708 352.71C26.6175 353.033 27.3656 353.087 28.0521 352.86C32.136 352.357 36.2451 352.084 40.3597 352.043H69.9623H99.5649C103.68 352.084 107.789 352.357 111.872 352.86C112.559 353.087 113.307 353.033 113.954 352.71C114.712 352.063 115.644 351.655 116.633 351.536C117.622 351.417 118.625 351.594 119.514 352.043C122.946 380.671 121.749 409.665 115.969 437.913C115.329 444.623 116.071 451.393 118.15 457.805C118.417 458.24 118.563 458.739 118.573 459.249C118.582 459.76 118.455 460.264 118.205 460.709C117.955 461.154 117.591 461.524 117.15 461.781C116.708 462.039 116.207 462.173 115.696 462.172H24.2285C23.7179 462.173 23.2161 462.039 22.7751 461.781C22.334 461.524 21.9695 461.154 21.7194 460.709C21.4692 460.264 21.3424 459.76 21.3521 459.249C21.3617 458.739 21.5075 458.24 21.7743 457.805Z" stroke="black"/>
<path d="M25.962 352.709C22.6063 380.7 23.7767 409.049 29.4282 436.668" stroke="black"/>
<path d="M110.352 436.668C116.003 409.049 117.173 380.7 113.818 352.709" stroke="black"/>
<path d="M112.141 105.396H114.324" stroke="black"/>
<path d="M112.141 105.396L114.222 106.381" stroke="black"/>
<path d="M111.742 109.812L112.144 105.396" stroke="black"/>
<path d="M28.0426 109.812L27.6406 105.396" stroke="black"/>
<path d="M27.6435 105.396L25.5625 106.381" stroke="black"/>
<path d="M27.6439 105.396H25.4609" stroke="black"/>
<path d="M94.2031 24.89C97.6304 24.9209 101.004 25.7425 104.062 27.2907C107.12 28.839 109.779 31.0722 111.833 33.8164" stroke="black"/>
<path d="M111.719 4.38693C111.799 4.40151 111.874 4.43357 111.94 4.48083C112.006 4.5281 112.061 4.58942 112.101 4.66034C112.14 4.73126 112.163 4.81004 112.169 4.89105C112.174 4.97206 112.162 5.05329 112.132 5.12891" stroke="black"/>
<path d="M107.758 29.6484C107.898 22.7442 109.027 15.8957 111.11 9.31204" stroke="black"/>
<path d="M110.263 25.4141C109.613 18.5952 110.246 11.7148 112.13 5.12909" stroke="black"/>
<path d="M69.8939 24.8906H45.5859" stroke="black"/>
<path d="M27.9531 33.8164C30.0066 31.0722 32.6658 28.839 35.7236 27.2907C38.7814 25.7425 42.1554 24.9209 45.5827 24.89" stroke="black"/>
<path d="M69.8963 4.38672H28.0703" stroke="black"/>
<path d="M27.655 5.12891C27.6254 5.05329 27.613 4.97206 27.6185 4.89105C27.6239 4.81004 27.6473 4.73126 27.6869 4.66034C27.7264 4.58942 27.7811 4.5281 27.8471 4.48083C27.9132 4.43357 27.9888 4.40151 28.0687 4.38693" stroke="black"/>
<path d="M69.8936 6.43945H28.1406" stroke="black"/>
<path d="M27.6562 5.12909C29.54 11.7148 30.1731 18.5952 29.5227 25.4141" stroke="black"/>
<path d="M28.6719 9.31204C30.7558 15.8957 31.8848 22.7442 32.0245 29.6484" stroke="black"/>
<path d="M69.8906 24.8906H94.1976" stroke="black"/>
<path d="M69.8906 4.38672H111.717" stroke="black"/>
<path d="M69.8906 6.25195H111.643" stroke="black"/>
<path d="M21.7743 4.86699C23.8534 11.2788 24.5959 18.0488 23.9558 24.7589C18.1757 53.0067 16.9787 82.0006 20.4108 110.629C21.3001 111.078 22.3023 111.255 23.2915 111.136C24.2808 111.017 25.2129 110.609 25.9708 109.962C26.6175 109.639 27.3656 109.585 28.0521 109.811C32.136 110.315 36.2451 110.588 40.3597 110.629H69.9623H99.5649C103.68 110.588 107.789 110.315 111.872 109.811C112.559 109.585 113.307 109.639 113.954 109.962C114.712 110.609 115.644 111.017 116.633 111.136C117.622 111.255 118.625 111.078 119.514 110.629C122.946 82.0006 121.749 53.0067 115.969 24.7589C115.329 18.0488 116.071 11.2788 118.15 4.86699C118.417 4.43163 118.563 3.93294 118.573 3.42244C118.582 2.91193 118.455 2.40812 118.205 1.963C117.955 1.51788 117.591 1.1476 117.15 0.890396C116.708 0.633195 116.207 0.498402 115.696 0.499924H24.2285C23.7179 0.498402 23.2161 0.633195 22.7751 0.890396C22.334 1.1476 21.9695 1.51788 21.7194 1.963C21.4692 2.40812 21.3424 2.91193 21.3521 3.42244C21.3617 3.93294 21.5075 4.43163 21.7743 4.86699Z" stroke="black"/>
<path d="M25.962 109.963C22.6063 81.9719 23.7767 53.6233 29.4282 26.0041" stroke="black"/>
<path d="M110.352 26.0041C116.003 53.6233 117.173 81.9719 113.818 109.963" stroke="black"/>
</svg>
