<svg width="790" height="793" viewBox="0 0 790 793" fill="none" xmlns="http://www.w3.org/2000/svg">
<path d="M784.88 334.155C776.26 334.16 767.733 335.933 759.825 339.363C727.753 357.556 692.962 370.47 656.787 377.609C655.889 376.705 655.278 375.556 655.032 374.306C654.785 373.055 654.913 371.76 655.4 370.583C655.538 369.669 655.308 368.738 654.761 367.992C652.535 363.224 650.579 358.334 648.903 353.346L637.205 317.342L625.507 281.338C623.93 276.317 622.638 271.212 621.637 266.046C621.641 265.121 621.279 264.233 620.631 263.574C619.545 262.908 618.68 261.935 618.145 260.779C617.61 259.623 617.428 258.334 617.623 257.075C651.086 241.588 686.823 231.585 723.463 227.452C731.877 225.579 739.818 222.001 746.794 216.938C747.218 216.442 747.767 216.067 748.384 215.854C749.002 215.64 749.664 215.596 750.305 215.724C750.945 215.852 751.539 216.149 752.026 216.584C752.513 217.019 752.876 217.576 753.076 218.197L789.222 329.445C789.426 330.065 789.46 330.728 789.322 331.367C789.183 332.005 788.877 332.594 788.434 333.074C787.992 333.555 787.429 333.908 786.804 334.098C786.179 334.288 785.515 334.308 784.88 334.155Z" stroke="black"/>
<path d="M456.577 6.08473C453.918 14.2844 452.969 22.9422 453.787 31.5233C461.179 67.6477 462.71 104.726 458.321 141.337C457.184 141.911 455.902 142.137 454.637 141.985C453.372 141.834 452.18 141.312 451.211 140.485C450.384 140.071 449.427 140.002 448.549 140.292C443.326 140.936 438.071 141.285 432.81 141.337H394.953H357.096C351.834 141.285 346.579 140.936 341.356 140.292C340.478 140.002 339.522 140.071 338.695 140.485C337.725 141.312 336.533 141.834 335.268 141.985C334.003 142.137 332.721 141.911 331.584 141.337C327.195 104.726 328.726 67.6477 336.118 31.5233C336.936 22.9422 335.987 14.2844 333.328 6.08473C332.987 5.52798 332.8 4.8903 332.788 4.23744C332.776 3.58459 332.938 2.94035 333.258 2.37111C333.578 1.80187 334.044 1.32832 334.608 0.999406C335.172 0.670488 335.814 0.49807 336.466 0.500016H453.439C454.092 0.49807 454.733 0.670488 455.297 0.999406C455.861 1.32832 456.328 1.80187 456.647 2.37111C456.967 2.94035 457.129 3.58459 457.117 4.23744C457.105 4.8903 456.919 5.52799 456.577 6.08473Z" stroke="black"/>
<path d="M674.027 116.784C667.056 121.854 661.199 128.301 656.817 135.724C641.564 169.294 621.008 200.191 595.938 227.23C594.68 227.026 593.511 226.455 592.577 225.589C591.642 224.723 590.985 223.6 590.687 222.361C590.261 221.541 589.527 220.922 588.647 220.64C584.043 218.091 579.587 215.285 575.299 212.234L544.672 189.983L514.045 167.731C509.819 164.596 505.773 161.225 501.927 157.634C501.386 156.884 500.572 156.377 499.66 156.225C498.389 156.325 497.118 156.047 496.005 155.426C494.893 154.805 493.989 153.869 493.406 152.736C511.375 120.537 534.407 91.4399 561.621 66.5594C567.327 60.0983 571.648 52.5359 574.316 44.3394C574.367 43.6884 574.591 43.0629 574.965 42.5275C575.339 41.9921 575.849 41.5662 576.442 41.2937C577.036 41.0212 577.691 40.912 578.341 40.9775C578.99 41.0429 579.611 41.2806 580.138 41.666L674.77 110.421C675.3 110.803 675.717 111.319 675.98 111.917C676.243 112.515 676.342 113.172 676.267 113.82C676.191 114.469 675.943 115.085 675.55 115.606C675.156 116.127 674.63 116.534 674.027 116.784Z" stroke="black"/>
<path d="M43.1106 216.938C50.0873 222.001 58.0279 225.579 66.4419 227.452C103.082 231.585 138.819 241.588 172.282 257.075C172.477 258.334 172.295 259.623 171.76 260.779C171.225 261.935 170.36 262.908 169.274 263.574C168.626 264.233 168.264 265.121 168.268 266.046C167.267 271.212 165.975 276.317 164.398 281.338L152.7 317.342L141.001 353.346C139.326 358.334 137.37 363.224 135.144 367.992C134.597 368.738 134.367 369.669 134.505 370.583C134.992 371.76 135.12 373.055 134.873 374.306C134.627 375.556 134.016 376.705 133.118 377.609C96.943 370.47 62.1522 357.556 30.0801 339.363C22.172 335.933 13.6444 334.16 5.02443 334.155C4.3895 334.308 3.72555 334.288 3.10084 334.098C2.47613 333.908 1.91348 333.555 1.47096 333.074C1.02844 332.594 0.722019 332.005 0.583508 331.367C0.444997 330.728 0.479245 330.065 0.682874 329.445L36.8294 218.197C37.0293 217.576 37.3915 217.019 37.8787 216.584C38.3658 216.149 38.9601 215.852 39.6004 215.724C40.2406 215.596 40.9034 215.64 41.5205 215.854C42.1376 216.067 42.6865 216.442 43.1106 216.938Z" stroke="black"/>
<path d="M215.585 44.3394C218.253 52.5359 222.574 60.0983 228.28 66.5594C255.493 91.4399 278.526 120.537 296.495 152.736C295.912 153.869 295.008 154.805 293.895 155.426C292.783 156.047 291.511 156.325 290.241 156.225C289.329 156.377 288.514 156.884 287.974 157.634C284.128 161.225 280.082 164.596 275.855 167.731L245.228 189.983L214.602 212.234C210.314 215.285 205.858 218.091 201.254 220.64C200.373 220.922 199.64 221.541 199.214 222.361C198.916 223.6 198.258 224.723 197.324 225.589C196.39 226.455 195.22 227.026 193.963 227.23C168.892 200.191 148.337 169.294 133.083 135.724C128.702 128.301 122.845 121.854 115.874 116.784C115.271 116.534 114.745 116.127 114.351 115.606C113.957 115.085 113.71 114.469 113.634 113.82C113.558 113.172 113.657 112.515 113.92 111.917C114.183 111.319 114.601 110.803 115.13 110.421L209.763 41.666C210.29 41.2806 210.911 41.0429 211.56 40.9775C212.21 40.912 212.865 41.0212 213.459 41.2937C214.052 41.5662 214.562 41.9921 214.936 42.5275C215.309 43.0629 215.533 43.6884 215.585 44.3394Z" stroke="black"/>
<path d="M333.328 786.025C335.987 777.825 336.936 769.167 336.118 760.586C328.726 724.462 327.195 687.383 331.584 650.773C332.721 650.198 334.003 649.972 335.268 650.124C336.533 650.276 337.725 650.798 338.695 651.625C339.522 652.038 340.478 652.107 341.356 651.818C346.579 651.174 351.834 650.825 357.096 650.773H394.953H432.81C438.071 650.825 443.326 651.174 448.549 651.818C449.427 652.107 450.384 652.038 451.211 651.625C452.18 650.798 453.372 650.276 454.637 650.124C455.902 649.972 457.184 650.198 458.321 650.773C462.71 687.383 461.179 724.462 453.787 760.586C452.969 769.167 453.918 777.825 456.577 786.025C456.919 786.581 457.105 787.219 457.117 787.872C457.129 788.525 456.967 789.169 456.647 789.738C456.328 790.308 455.861 790.781 455.297 791.11C454.733 791.439 454.092 791.611 453.439 791.609H336.466C335.814 791.611 335.172 791.439 334.608 791.11C334.044 790.781 333.578 790.308 333.258 789.738C332.938 789.169 332.776 788.525 332.788 787.872C332.8 787.219 332.987 786.581 333.328 786.025Z" stroke="black"/>
<path d="M574.316 747.769C571.648 739.573 567.327 732.01 561.621 725.549C534.407 700.669 511.375 671.571 493.406 639.373C493.989 638.24 494.893 637.304 496.005 636.683C497.118 636.062 498.389 635.784 499.66 635.883C500.572 635.731 501.386 635.225 501.927 634.475C505.773 630.884 509.819 627.513 514.045 624.378L544.672 602.126L575.299 579.874C579.587 576.824 584.043 574.017 588.647 571.468C589.527 571.187 590.261 570.568 590.687 569.748C590.985 568.509 591.642 567.386 592.577 566.52C593.511 565.653 594.68 565.083 595.938 564.879C621.008 591.918 641.564 622.815 656.817 656.385C661.199 663.808 667.056 670.254 674.027 675.325C674.63 675.575 675.156 675.981 675.55 676.502C675.943 677.023 676.191 677.64 676.267 678.288C676.342 678.937 676.243 679.594 675.98 680.192C675.717 680.789 675.3 681.306 674.77 681.688L580.138 750.443C579.611 750.828 578.99 751.066 578.341 751.131C577.691 751.197 577.036 751.087 576.442 750.815C575.849 750.542 575.339 750.117 574.965 749.581C574.591 749.046 574.367 748.42 574.316 747.769Z" stroke="black"/>
<path d="M115.874 675.325C122.845 670.254 128.702 663.808 133.083 656.385C148.337 622.815 168.892 591.918 193.963 564.879C195.22 565.083 196.39 565.653 197.324 566.52C198.258 567.386 198.916 568.509 199.214 569.748C199.64 570.568 200.373 571.187 201.254 571.468C205.858 574.017 210.314 576.824 214.602 579.874L245.228 602.126L275.855 624.378C280.082 627.513 284.128 630.884 287.974 634.475C288.514 635.225 289.329 635.731 290.241 635.883C291.511 635.784 292.783 636.062 293.895 636.683C295.008 637.304 295.912 638.24 296.495 639.373C278.526 671.571 255.493 700.669 228.28 725.549C222.574 732.01 218.253 739.573 215.585 747.769C215.533 748.42 215.309 749.046 214.936 749.581C214.562 750.117 214.052 750.542 213.459 750.815C212.865 751.087 212.21 751.197 211.56 751.131C210.911 751.066 210.29 750.828 209.763 750.443L115.13 681.688C114.601 681.306 114.183 680.789 113.92 680.192C113.657 679.594 113.558 678.937 113.634 678.288C113.71 677.64 113.957 677.023 114.351 676.502C114.745 675.981 115.271 675.575 115.874 675.325Z" stroke="black"/>
<path d="M635.113 396.055C635.113 332.36 609.811 271.274 564.771 226.234C519.732 181.195 458.646 155.893 394.951 155.893C331.256 155.893 270.17 181.195 225.131 226.234C180.092 271.274 154.789 332.36 154.789 396.055C154.789 459.75 180.092 520.836 225.131 565.875C270.17 610.914 331.256 636.217 394.951 636.217C458.646 636.217 519.732 610.914 564.771 565.875C609.811 520.836 635.113 459.75 635.113 396.055Z" stroke="black"/>
<path d="M642.387 396.055C642.383 330.433 616.312 267.499 569.908 221.099C523.505 174.698 460.57 148.631 394.948 148.631C329.325 148.631 266.39 174.698 219.987 221.099C173.583 267.499 147.512 330.433 147.508 396.055C147.512 461.677 173.583 524.611 219.987 571.011C266.39 617.412 329.325 643.479 394.948 643.479C460.57 643.479 523.505 617.412 569.908 571.011C616.312 524.611 642.383 461.677 642.387 396.055Z" stroke="black"/>
<path d="M5.02443 457.953C13.6444 457.948 22.172 456.176 30.0801 452.746C62.1522 434.553 96.943 421.639 133.118 414.5C134.016 415.404 134.627 416.553 134.873 417.803C135.12 419.053 134.992 420.348 134.505 421.526C134.367 422.44 134.597 423.371 135.144 424.117C137.37 428.885 139.326 433.775 141.001 438.763L152.7 474.767L164.398 510.771C165.975 515.791 167.267 520.897 168.268 526.063C168.264 526.987 168.626 527.876 169.274 528.535C170.36 529.201 171.225 530.173 171.76 531.33C172.295 532.486 172.477 533.775 172.282 535.034C138.819 550.521 103.082 560.523 66.4419 564.656C58.0279 566.53 50.0873 570.108 43.1106 575.171C42.6865 575.667 42.1376 576.041 41.5205 576.255C40.9034 576.468 40.2406 576.513 39.6004 576.385C38.9601 576.257 38.3658 575.96 37.8787 575.525C37.3915 575.09 37.0293 574.533 36.8294 573.911L0.682874 462.664C0.479245 462.044 0.444997 461.38 0.583508 460.742C0.722019 460.104 1.02844 459.515 1.47096 459.034C1.91348 458.554 2.47613 458.201 3.10084 458.011C3.72555 457.821 4.3895 457.801 5.02443 457.953Z" stroke="black"/>
<path d="M746.794 575.171C739.818 570.108 731.877 566.53 723.463 564.656C686.823 560.523 651.086 550.521 617.623 535.034C617.428 533.775 617.61 532.486 618.145 531.33C618.68 530.173 619.545 529.201 620.631 528.535C621.279 527.876 621.641 526.987 621.637 526.063C622.638 520.897 623.93 515.791 625.507 510.771L637.205 474.767L648.903 438.763C650.579 433.775 652.535 428.885 654.761 424.117C655.308 423.371 655.538 422.44 655.4 421.526C654.913 420.348 654.785 419.053 655.032 417.803C655.278 416.553 655.889 415.404 656.787 414.5C692.962 421.639 727.753 434.553 759.825 452.746C767.733 456.176 776.26 457.948 784.88 457.953C785.515 457.801 786.179 457.821 786.804 458.011C787.429 458.201 787.992 458.554 788.434 459.034C788.877 459.515 789.183 460.104 789.322 460.742C789.46 461.38 789.426 462.044 789.222 462.664L753.076 573.911C752.876 574.533 752.513 575.09 752.026 575.525C751.539 575.96 750.945 576.257 750.305 576.385C749.664 576.513 749.002 576.468 748.384 576.255C747.767 576.041 747.218 575.667 746.794 575.171Z" stroke="black"/>
</svg>
