<svg width="492" height="463" viewBox="0 0 492 463" fill="none" xmlns="http://www.w3.org/2000/svg">
<path d="M0.5 345.314H491.5V117.314H0.5V345.314Z" stroke="black"/>
<path d="M4.5 340.314H487.5V122.314H4.5V340.314Z" stroke="black"/>
<path d="M459.297 351.639C459.982 351.865 460.729 351.811 461.375 351.488" stroke="black"/>
<path d="M373.523 351.488C374.169 351.811 374.916 351.865 375.602 351.639" stroke="black"/>
<path d="M459.203 455.014C459.219 455.019 459.236 455.02 459.253 455.017C459.27 455.014 459.285 455.006 459.298 454.995C459.311 454.984 459.321 454.97 459.327 454.954C459.332 454.938 459.334 454.921 459.331 454.904" stroke="black"/>
<path d="M459.188 455.201C459.214 455.202 459.24 455.197 459.265 455.186C459.289 455.175 459.31 455.158 459.326 455.137C459.342 455.116 459.353 455.091 459.358 455.065C459.362 455.039 459.36 455.012 459.352 454.986" stroke="black"/>
<path d="M375.547 454.986C375.539 455.012 375.537 455.039 375.542 455.065C375.546 455.091 375.557 455.116 375.573 455.137C375.589 455.158 375.61 455.175 375.635 455.186C375.659 455.197 375.685 455.202 375.712 455.201" stroke="black"/>
<path d="M375.564 454.904C375.561 454.921 375.563 454.938 375.569 454.954C375.574 454.97 375.584 454.984 375.597 454.995C375.61 455.006 375.625 455.014 375.642 455.017C375.659 455.02 375.676 455.019 375.692 455.014" stroke="black"/>
<path d="M464.219 357.275H466.402" stroke="black"/>
<path d="M464.219 357.276L466.3 356.291" stroke="black"/>
<path d="M463.82 352.859L464.222 357.275" stroke="black"/>
<path d="M380.121 352.859L379.719 357.275" stroke="black"/>
<path d="M379.722 357.276L377.641 356.291" stroke="black"/>
<path d="M379.722 357.275H377.539" stroke="black"/>
<path d="M446.281 437.782C449.709 437.751 453.083 436.929 456.14 435.381C459.198 433.833 461.857 431.6 463.911 428.855" stroke="black"/>
<path d="M463.797 458.285C463.877 458.27 463.952 458.238 464.018 458.191C464.084 458.144 464.139 458.082 464.179 458.012C464.218 457.941 464.242 457.862 464.247 457.781C464.253 457.7 464.24 457.619 464.211 457.543" stroke="black"/>
<path d="M459.836 433.023C459.976 439.928 461.105 446.776 463.189 453.36" stroke="black"/>
<path d="M462.341 437.258C461.691 444.077 462.324 450.957 464.208 457.543" stroke="black"/>
<path d="M421.972 437.781H397.664" stroke="black"/>
<path d="M380.031 428.855C382.085 431.6 384.744 433.833 387.802 435.381C390.86 436.929 394.233 437.751 397.661 437.782" stroke="black"/>
<path d="M421.974 458.285H380.148" stroke="black"/>
<path d="M379.733 457.543C379.704 457.619 379.691 457.7 379.697 457.781C379.702 457.862 379.725 457.941 379.765 458.012C379.805 458.082 379.859 458.144 379.925 458.191C379.991 458.238 380.067 458.27 380.147 458.285" stroke="black"/>
<path d="M421.972 456.232H380.219" stroke="black"/>
<path d="M379.734 457.543C381.618 450.957 382.251 444.077 381.601 437.258" stroke="black"/>
<path d="M380.75 453.36C382.834 446.776 383.963 439.928 384.103 433.023" stroke="black"/>
<path d="M421.969 437.781H446.276" stroke="black"/>
<path d="M421.969 458.285H463.795" stroke="black"/>
<path d="M421.969 456.42H463.721" stroke="black"/>
<path d="M373.852 457.805C375.932 451.393 376.674 444.623 376.034 437.913C370.254 409.665 369.057 380.671 372.489 352.043C373.378 351.594 374.38 351.417 375.37 351.536C376.359 351.655 377.291 352.063 378.049 352.71C378.696 353.033 379.444 353.087 380.13 352.86C384.214 352.357 388.323 352.084 392.438 352.043H422.04H451.643C455.758 352.084 459.867 352.357 463.951 352.86C464.637 353.087 465.385 353.033 466.032 352.71C466.79 352.063 467.722 351.655 468.711 351.536C469.7 351.417 470.703 351.594 471.592 352.043C475.024 380.671 473.827 409.665 468.047 437.913C467.407 444.623 468.149 451.393 470.229 457.805C470.495 458.24 470.641 458.739 470.651 459.249C470.66 459.76 470.534 460.264 470.283 460.709C470.033 461.154 469.669 461.524 469.228 461.781C468.787 462.039 468.285 462.173 467.774 462.172H376.307C375.796 462.173 375.294 462.039 374.853 461.781C374.412 461.524 374.048 461.154 373.798 460.709C373.547 460.264 373.421 459.76 373.43 459.249C373.44 458.739 373.586 458.24 373.852 457.805Z" stroke="black"/>
<path d="M378.04 352.709C374.684 380.7 375.855 409.049 381.506 436.668" stroke="black"/>
<path d="M462.43 436.668C468.081 409.049 469.252 380.7 465.896 352.709" stroke="black"/>
<path d="M464.219 105.396H466.402" stroke="black"/>
<path d="M464.219 105.396L466.3 106.381" stroke="black"/>
<path d="M463.82 109.812L464.222 105.396" stroke="black"/>
<path d="M380.121 109.812L379.719 105.396" stroke="black"/>
<path d="M379.722 105.396L377.641 106.381" stroke="black"/>
<path d="M379.722 105.396H377.539" stroke="black"/>
<path d="M446.281 24.89C449.709 24.9209 453.083 25.7425 456.14 27.2907C459.198 28.839 461.857 31.0722 463.911 33.8164" stroke="black"/>
<path d="M463.797 4.38693C463.877 4.40151 463.952 4.43357 464.018 4.48083C464.084 4.5281 464.139 4.58942 464.179 4.66034C464.218 4.73126 464.242 4.81004 464.247 4.89105C464.253 4.97206 464.24 5.05329 464.211 5.12891" stroke="black"/>
<path d="M459.836 29.6484C459.976 22.7442 461.105 15.8957 463.189 9.31204" stroke="black"/>
<path d="M462.341 25.4141C461.691 18.5952 462.324 11.7148 464.208 5.12909" stroke="black"/>
<path d="M421.972 24.8906H397.664" stroke="black"/>
<path d="M380.031 33.8164C382.085 31.0722 384.744 28.839 387.802 27.2907C390.86 25.7425 394.233 24.9209 397.661 24.89" stroke="black"/>
<path d="M421.974 4.38672H380.148" stroke="black"/>
<path d="M379.733 5.12891C379.704 5.05329 379.691 4.97206 379.697 4.89105C379.702 4.81004 379.725 4.73126 379.765 4.66034C379.805 4.58942 379.859 4.5281 379.925 4.48083C379.991 4.43357 380.067 4.40151 380.147 4.38693" stroke="black"/>
<path d="M421.972 6.43945H380.219" stroke="black"/>
<path d="M379.734 5.12909C381.618 11.7148 382.251 18.5952 381.601 25.4141" stroke="black"/>
<path d="M380.75 9.31204C382.834 15.8957 383.963 22.7442 384.103 29.6484" stroke="black"/>
<path d="M421.969 24.8906H446.276" stroke="black"/>
<path d="M421.969 4.38672H463.795" stroke="black"/>
<path d="M421.969 6.25195H463.721" stroke="black"/>
<path d="M373.852 4.86699C375.932 11.2788 376.674 18.0488 376.034 24.7589C370.254 53.0067 369.057 82.0006 372.489 110.629C373.378 111.078 374.38 111.255 375.37 111.136C376.359 111.017 377.291 110.609 378.049 109.962C378.696 109.639 379.444 109.585 380.13 109.811C384.214 110.315 388.323 110.588 392.438 110.629H422.04H451.643C455.758 110.588 459.867 110.315 463.951 109.811C464.637 109.585 465.385 109.639 466.032 109.962C466.79 110.609 467.722 111.017 468.711 111.136C469.7 111.255 470.703 111.078 471.592 110.629C475.024 82.0006 473.827 53.0067 468.047 24.7589C467.407 18.0488 468.149 11.2788 470.229 4.86699C470.495 4.43163 470.641 3.93294 470.651 3.42244C470.66 2.91193 470.534 2.40812 470.283 1.963C470.033 1.51788 469.669 1.1476 469.228 0.890396C468.787 0.633195 468.285 0.498402 467.774 0.499924H376.307C375.796 0.498402 375.294 0.633195 374.853 0.890396C374.412 1.1476 374.048 1.51788 373.798 1.963C373.547 2.40812 373.421 2.91193 373.43 3.42244C373.44 3.93294 373.586 4.43163 373.852 4.86699Z" stroke="black"/>
<path d="M378.04 109.963C374.684 81.9719 375.855 53.6233 381.506 26.0041" stroke="black"/>
<path d="M462.43 26.0041C468.081 53.6233 469.252 81.9719 465.896 109.963" stroke="black"/>
<path d="M345.297 357.275H347.48" stroke="black"/>
<path d="M345.297 357.276L347.378 356.291" stroke="black"/>
<path d="M344.898 352.859L345.3 357.275" stroke="black"/>
<path d="M261.199 352.859L260.797 357.275" stroke="black"/>
<path d="M260.8 357.276L258.719 356.291" stroke="black"/>
<path d="M260.8 357.275H258.617" stroke="black"/>
<path d="M327.359 437.782C330.787 437.751 334.161 436.929 337.218 435.381C340.276 433.833 342.935 431.6 344.989 428.855" stroke="black"/>
<path d="M344.875 458.285C344.955 458.27 345.031 458.238 345.097 458.191C345.163 458.144 345.217 458.082 345.257 458.012C345.296 457.941 345.32 457.862 345.325 457.781C345.331 457.7 345.318 457.619 345.289 457.543" stroke="black"/>
<path d="M340.914 433.023C341.054 439.928 342.183 446.776 344.267 453.36" stroke="black"/>
<path d="M343.42 437.258C342.769 444.077 343.402 450.957 345.286 457.543" stroke="black"/>
<path d="M303.05 437.781H278.742" stroke="black"/>
<path d="M261.109 428.855C263.163 431.6 265.822 433.833 268.88 435.381C271.938 436.929 275.312 437.751 278.739 437.782" stroke="black"/>
<path d="M303.053 458.285H261.227" stroke="black"/>
<path d="M260.811 457.543C260.782 457.619 260.769 457.7 260.775 457.781C260.78 457.862 260.804 457.941 260.843 458.012C260.883 458.082 260.937 458.144 261.003 458.191C261.069 458.238 261.145 458.27 261.225 458.285" stroke="black"/>
<path d="M303.05 456.232H261.297" stroke="black"/>
<path d="M260.812 457.543C262.696 450.957 263.329 444.077 262.679 437.258" stroke="black"/>
<path d="M261.828 453.36C263.912 446.776 265.041 439.928 265.181 433.023" stroke="black"/>
<path d="M303.047 437.781H327.354" stroke="black"/>
<path d="M303.047 458.285H344.873" stroke="black"/>
<path d="M303.047 456.42H344.799" stroke="black"/>
<path d="M254.931 457.805C257.01 451.393 257.752 444.623 257.112 437.913C251.332 409.665 250.135 380.671 253.567 352.043C254.456 351.594 255.459 351.417 256.448 351.536C257.437 351.655 258.369 352.063 259.127 352.71C259.774 353.033 260.522 353.087 261.208 352.86C265.292 352.357 269.401 352.084 273.516 352.043H303.119H332.721C336.836 352.084 340.945 352.357 345.029 352.86C345.715 353.087 346.463 353.033 347.11 352.71C347.868 352.063 348.8 351.655 349.789 351.536C350.779 351.417 351.781 351.594 352.67 352.043C356.102 380.671 354.905 409.665 349.125 437.913C348.485 444.623 349.227 451.393 351.307 457.805C351.573 458.24 351.719 458.739 351.729 459.249C351.738 459.76 351.612 460.264 351.361 460.709C351.111 461.154 350.747 461.524 350.306 461.781C349.865 462.039 349.363 462.173 348.852 462.172H257.385C256.874 462.173 256.372 462.039 255.931 461.781C255.49 461.524 255.126 461.154 254.876 460.709C254.625 460.264 254.499 459.76 254.508 459.249C254.518 458.739 254.664 458.24 254.931 457.805Z" stroke="black"/>
<path d="M259.118 352.709C255.763 380.7 256.933 409.049 262.584 436.668" stroke="black"/>
<path d="M343.508 436.668C349.159 409.049 350.33 380.7 346.974 352.709" stroke="black"/>
<path d="M345.297 105.396H347.48" stroke="black"/>
<path d="M345.297 105.396L347.378 106.381" stroke="black"/>
<path d="M344.898 109.812L345.3 105.396" stroke="black"/>
<path d="M261.199 109.812L260.797 105.396" stroke="black"/>
<path d="M260.8 105.396L258.719 106.381" stroke="black"/>
<path d="M260.8 105.396H258.617" stroke="black"/>
<path d="M327.359 24.89C330.787 24.9209 334.161 25.7425 337.218 27.2907C340.276 28.839 342.935 31.0722 344.989 33.8164" stroke="black"/>
<path d="M344.875 4.38693C344.955 4.40151 345.031 4.43357 345.097 4.48083C345.163 4.5281 345.217 4.58942 345.257 4.66034C345.296 4.73126 345.32 4.81004 345.325 4.89105C345.331 4.97206 345.318 5.05329 345.289 5.12891" stroke="black"/>
<path d="M340.914 29.6484C341.054 22.7442 342.183 15.8957 344.267 9.31204" stroke="black"/>
<path d="M343.42 25.4141C342.769 18.5952 343.402 11.7148 345.286 5.12909" stroke="black"/>
<path d="M303.05 24.8906H278.742" stroke="black"/>
<path d="M261.109 33.8164C263.163 31.0722 265.822 28.839 268.88 27.2907C271.938 25.7425 275.312 24.9209 278.739 24.89" stroke="black"/>
<path d="M303.053 4.38672H261.227" stroke="black"/>
<path d="M260.811 5.12891C260.782 5.05329 260.769 4.97206 260.775 4.89105C260.78 4.81004 260.804 4.73126 260.843 4.66034C260.883 4.58942 260.937 4.5281 261.003 4.48083C261.069 4.43357 261.145 4.40151 261.225 4.38693" stroke="black"/>
<path d="M303.05 6.43945H261.297" stroke="black"/>
<path d="M260.812 5.12909C262.696 11.7148 263.329 18.5952 262.679 25.4141" stroke="black"/>
<path d="M261.828 9.31204C263.912 15.8957 265.041 22.7442 265.181 29.6484" stroke="black"/>
<path d="M303.047 24.8906H327.354" stroke="black"/>
<path d="M303.047 4.38672H344.873" stroke="black"/>
<path d="M303.047 6.25195H344.799" stroke="black"/>
<path d="M254.931 4.86699C257.01 11.2788 257.752 18.0488 257.112 24.7589C251.332 53.0067 250.135 82.0006 253.567 110.629C254.456 111.078 255.459 111.255 256.448 111.136C257.437 111.017 258.369 110.609 259.127 109.962C259.774 109.639 260.522 109.585 261.208 109.811C265.292 110.315 269.401 110.588 273.516 110.629H303.119H332.721C336.836 110.588 340.945 110.315 345.029 109.811C345.715 109.585 346.463 109.639 347.11 109.962C347.868 110.609 348.8 111.017 349.789 111.136C350.779 111.255 351.781 111.078 352.67 110.629C356.102 82.0006 354.905 53.0067 349.125 24.7589C348.485 18.0488 349.227 11.2788 351.307 4.86699C351.573 4.43163 351.719 3.93294 351.729 3.42244C351.738 2.91193 351.612 2.40812 351.361 1.963C351.111 1.51788 350.747 1.1476 350.306 0.890396C349.865 0.633195 349.363 0.498402 348.852 0.499924H257.385C256.874 0.498402 256.372 0.633195 255.931 0.890396C255.49 1.1476 255.126 1.51788 254.876 1.963C254.625 2.40812 254.499 2.91193 254.508 3.42244C254.518 3.93294 254.664 4.43163 254.931 4.86699Z" stroke="black"/>
<path d="M259.118 109.963C255.763 81.9719 256.933 53.6233 262.584 26.0041" stroke="black"/>
<path d="M343.508 26.0041C349.159 53.6233 350.33 81.9719 346.974 109.963" stroke="black"/>
<path d="M226.375 357.275H228.558" stroke="black"/>
<path d="M226.375 357.276L228.456 356.291" stroke="black"/>
<path d="M225.977 352.859L226.379 357.275" stroke="black"/>
<path d="M142.277 352.859L141.875 357.275" stroke="black"/>
<path d="M141.878 357.276L139.797 356.291" stroke="black"/>
<path d="M141.878 357.275H139.695" stroke="black"/>
<path d="M208.438 437.782C211.865 437.751 215.239 436.929 218.297 435.381C221.354 433.833 224.014 431.6 226.067 428.855" stroke="black"/>
<path d="M225.953 458.285C226.033 458.27 226.109 458.238 226.175 458.191C226.241 458.144 226.295 458.082 226.335 458.012C226.375 457.941 226.398 457.862 226.403 457.781C226.409 457.7 226.396 457.619 226.367 457.543" stroke="black"/>
<path d="M221.992 433.023C222.132 439.928 223.261 446.776 225.345 453.36" stroke="black"/>
<path d="M224.498 437.258C223.847 444.077 224.48 450.957 226.364 457.543" stroke="black"/>
<path d="M184.128 437.781H159.82" stroke="black"/>
<path d="M142.188 428.855C144.241 431.6 146.9 433.833 149.958 435.381C153.016 436.929 156.39 437.751 159.817 437.782" stroke="black"/>
<path d="M184.131 458.285H142.305" stroke="black"/>
<path d="M141.889 457.543C141.86 457.619 141.847 457.7 141.853 457.781C141.858 457.862 141.882 457.941 141.921 458.012C141.961 458.082 142.016 458.144 142.082 458.191C142.148 458.238 142.223 458.27 142.303 458.285" stroke="black"/>
<path d="M184.128 456.232H142.375" stroke="black"/>
<path d="M141.891 457.543C143.774 450.957 144.407 444.077 143.757 437.258" stroke="black"/>
<path d="M142.906 453.36C144.99 446.776 146.119 439.928 146.259 433.023" stroke="black"/>
<path d="M184.125 437.781H208.432" stroke="black"/>
<path d="M184.125 458.285H225.951" stroke="black"/>
<path d="M184.125 456.42H225.877" stroke="black"/>
<path d="M136.009 457.805C138.088 451.393 138.83 444.623 138.19 437.913C132.41 409.665 131.213 380.671 134.645 352.043C135.534 351.594 136.537 351.417 137.526 351.536C138.515 351.655 139.447 352.063 140.205 352.71C140.852 353.033 141.6 353.087 142.287 352.86C146.37 352.357 150.479 352.084 154.594 352.043H184.197H213.799C217.914 352.084 222.023 352.357 226.107 352.86C226.793 353.087 227.542 353.033 228.188 352.71C228.946 352.063 229.878 351.655 230.867 351.536C231.857 351.417 232.859 351.594 233.748 352.043C237.18 380.671 235.983 409.665 230.203 437.913C229.563 444.623 230.306 451.393 232.385 457.805C232.652 458.24 232.797 458.739 232.807 459.249C232.817 459.76 232.69 460.264 232.44 460.709C232.189 461.154 231.825 461.524 231.384 461.781C230.943 462.039 230.441 462.173 229.931 462.172H138.463C137.952 462.173 137.451 462.039 137.009 461.781C136.568 461.524 136.204 461.154 135.954 460.709C135.704 460.264 135.577 459.76 135.586 459.249C135.596 458.739 135.742 458.24 136.009 457.805Z" stroke="black"/>
<path d="M140.196 352.709C136.841 380.7 138.011 409.049 143.663 436.668" stroke="black"/>
<path d="M224.586 436.668C230.237 409.049 231.408 380.7 228.052 352.709" stroke="black"/>
<path d="M226.375 105.396H228.558" stroke="black"/>
<path d="M226.375 105.396L228.456 106.381" stroke="black"/>
<path d="M225.977 109.812L226.379 105.396" stroke="black"/>
<path d="M142.277 109.812L141.875 105.396" stroke="black"/>
<path d="M141.878 105.396L139.797 106.381" stroke="black"/>
<path d="M141.878 105.396H139.695" stroke="black"/>
<path d="M208.438 24.89C211.865 24.9209 215.239 25.7425 218.297 27.2907C221.354 28.839 224.014 31.0722 226.067 33.8164" stroke="black"/>
<path d="M225.953 4.38693C226.033 4.40151 226.109 4.43357 226.175 4.48083C226.241 4.5281 226.295 4.58942 226.335 4.66034C226.375 4.73126 226.398 4.81004 226.403 4.89105C226.409 4.97206 226.396 5.05329 226.367 5.12891" stroke="black"/>
<path d="M221.992 29.6484C222.132 22.7442 223.261 15.8957 225.345 9.31204" stroke="black"/>
<path d="M224.498 25.4141C223.847 18.5952 224.48 11.7148 226.364 5.12909" stroke="black"/>
<path d="M184.128 24.8906H159.82" stroke="black"/>
<path d="M142.188 33.8164C144.241 31.0722 146.9 28.839 149.958 27.2907C153.016 25.7425 156.39 24.9209 159.817 24.89" stroke="black"/>
<path d="M184.131 4.38672H142.305" stroke="black"/>
<path d="M141.889 5.12891C141.86 5.05329 141.847 4.97206 141.853 4.89105C141.858 4.81004 141.882 4.73126 141.921 4.66034C141.961 4.58942 142.016 4.5281 142.082 4.48083C142.148 4.43357 142.223 4.40151 142.303 4.38693" stroke="black"/>
<path d="M184.128 6.43945H142.375" stroke="black"/>
<path d="M141.891 5.12909C143.774 11.7148 144.407 18.5952 143.757 25.4141" stroke="black"/>
<path d="M142.906 9.31204C144.99 15.8957 146.119 22.7442 146.259 29.6484" stroke="black"/>
<path d="M184.125 24.8906H208.432" stroke="black"/>
<path d="M184.125 4.38672H225.951" stroke="black"/>
<path d="M184.125 6.25195H225.877" stroke="black"/>
<path d="M136.009 4.86699C138.088 11.2788 138.83 18.0488 138.19 24.7589C132.41 53.0067 131.213 82.0006 134.645 110.629C135.534 111.078 136.537 111.255 137.526 111.136C138.515 111.017 139.447 110.609 140.205 109.962C140.852 109.639 141.6 109.585 142.287 109.811C146.37 110.315 150.479 110.588 154.594 110.629H184.197H213.799C217.914 110.588 222.023 110.315 226.107 109.811C226.793 109.585 227.542 109.639 228.188 109.962C228.946 110.609 229.878 111.017 230.867 111.136C231.857 111.255 232.859 111.078 233.748 110.629C237.18 82.0006 235.983 53.0067 230.203 24.7589C229.563 18.0488 230.306 11.2788 232.385 4.86699C232.652 4.43163 232.797 3.93294 232.807 3.42244C232.817 2.91193 232.69 2.40812 232.44 1.963C232.189 1.51788 231.825 1.1476 231.384 0.890396C230.943 0.633195 230.441 0.498402 229.931 0.499924H138.463C137.952 0.498402 137.451 0.633195 137.009 0.890396C136.568 1.1476 136.204 1.51788 135.954 1.963C135.704 2.40812 135.577 2.91193 135.586 3.42244C135.596 3.93294 135.742 4.43163 136.009 4.86699Z" stroke="black"/>
<path d="M140.196 109.963C136.841 81.9719 138.011 53.6233 143.663 26.0041" stroke="black"/>
<path d="M224.586 26.0041C230.237 53.6233 231.408 81.9719 228.052 109.963" stroke="black"/>
<path d="M107.453 357.275H109.636" stroke="black"/>
<path d="M107.453 357.276L109.534 356.291" stroke="black"/>
<path d="M107.055 352.859L107.457 357.275" stroke="black"/>
<path d="M23.3551 352.859L22.9531 357.275" stroke="black"/>
<path d="M22.956 357.276L20.875 356.291" stroke="black"/>
<path d="M22.9564 357.275H20.7734" stroke="black"/>
<path d="M89.5156 437.782C92.9429 437.751 96.3169 436.929 99.3747 435.381C102.433 433.833 105.092 431.6 107.145 428.855" stroke="black"/>
<path d="M107.031 458.285C107.111 458.27 107.187 458.238 107.253 458.191C107.319 458.144 107.374 458.082 107.413 458.012C107.453 457.941 107.476 457.862 107.481 457.781C107.487 457.7 107.475 457.619 107.445 457.543" stroke="black"/>
<path d="M103.07 433.023C103.21 439.928 104.339 446.776 106.423 453.36" stroke="black"/>
<path d="M105.576 437.258C104.925 444.077 105.559 450.957 107.442 457.543" stroke="black"/>
<path d="M65.2064 437.781H40.8984" stroke="black"/>
<path d="M23.2656 428.855C25.3191 431.6 27.9783 433.833 31.0361 435.381C34.0939 436.929 37.4679 437.751 40.8952 437.782" stroke="black"/>
<path d="M65.2088 458.285H23.3828" stroke="black"/>
<path d="M22.9675 457.543C22.9379 457.619 22.9255 457.7 22.931 457.781C22.9364 457.862 22.9598 457.941 22.9994 458.012C23.0389 458.082 23.0936 458.144 23.1596 458.191C23.2257 458.238 23.3013 458.27 23.3812 458.285" stroke="black"/>
<path d="M65.2061 456.232H23.4531" stroke="black"/>
<path d="M22.9688 457.543C24.8525 450.957 25.4856 444.077 24.8352 437.258" stroke="black"/>
<path d="M23.9844 453.36C26.0683 446.776 27.1973 439.928 27.337 433.023" stroke="black"/>
<path d="M65.2031 437.781H89.5101" stroke="black"/>
<path d="M65.2031 458.285H107.029" stroke="black"/>
<path d="M65.2031 456.42H106.955" stroke="black"/>
<path d="M17.0868 457.805C19.1659 451.393 19.9084 444.623 19.2683 437.913C13.4882 409.665 12.2912 380.671 15.7233 352.043C16.6126 351.594 17.6148 351.417 18.604 351.536C19.5933 351.655 20.5254 352.063 21.2833 352.71C21.93 353.033 22.6781 353.087 23.3646 352.86C27.4485 352.357 31.5576 352.084 35.6722 352.043H65.2748H94.8774C98.992 352.084 103.101 352.357 107.185 352.86C107.872 353.087 108.62 353.033 109.266 352.71C110.024 352.063 110.956 351.655 111.946 351.536C112.935 351.417 113.937 351.594 114.826 352.043C118.258 380.671 117.061 409.665 111.281 437.913C110.641 444.623 111.384 451.393 113.463 457.805C113.73 458.24 113.875 458.739 113.885 459.249C113.895 459.76 113.768 460.264 113.518 460.709C113.268 461.154 112.903 461.524 112.462 461.781C112.021 462.039 111.519 462.173 111.009 462.172H19.541C19.0304 462.173 18.5286 462.039 18.0876 461.781C17.6465 461.524 17.282 461.154 17.0319 460.709C16.7817 460.264 16.6549 459.76 16.6646 459.249C16.6742 458.739 16.82 458.24 17.0868 457.805Z" stroke="black"/>
<path d="M21.2745 352.709C17.9188 380.7 19.0892 409.049 24.7407 436.668" stroke="black"/>
<path d="M105.664 436.668C111.316 409.049 112.486 380.7 109.13 352.709" stroke="black"/>
<path d="M107.453 105.396H109.636" stroke="black"/>
<path d="M107.453 105.396L109.534 106.381" stroke="black"/>
<path d="M107.055 109.812L107.457 105.396" stroke="black"/>
<path d="M23.3551 109.812L22.9531 105.396" stroke="black"/>
<path d="M22.956 105.396L20.875 106.381" stroke="black"/>
<path d="M22.9564 105.396H20.7734" stroke="black"/>
<path d="M89.5156 24.89C92.9429 24.9209 96.3169 25.7425 99.3747 27.2907C102.433 28.839 105.092 31.0722 107.145 33.8164" stroke="black"/>
<path d="M107.031 4.38693C107.111 4.40151 107.187 4.43357 107.253 4.48083C107.319 4.5281 107.374 4.58942 107.413 4.66034C107.453 4.73126 107.476 4.81004 107.481 4.89105C107.487 4.97206 107.475 5.05329 107.445 5.12891" stroke="black"/>
<path d="M103.07 29.6484C103.21 22.7442 104.339 15.8957 106.423 9.31204" stroke="black"/>
<path d="M105.576 25.4141C104.925 18.5952 105.559 11.7148 107.442 5.12909" stroke="black"/>
<path d="M65.2064 24.8906H40.8984" stroke="black"/>
<path d="M23.2656 33.8164C25.3191 31.0722 27.9783 28.839 31.0361 27.2907C34.0939 25.7425 37.4679 24.9209 40.8952 24.89" stroke="black"/>
<path d="M65.2088 4.38672H23.3828" stroke="black"/>
<path d="M22.9675 5.12891C22.9379 5.05329 22.9255 4.97206 22.931 4.89105C22.9364 4.81004 22.9598 4.73126 22.9994 4.66034C23.0389 4.58942 23.0936 4.5281 23.1596 4.48083C23.2257 4.43357 23.3013 4.40151 23.3812 4.38693" stroke="black"/>
<path d="M65.2061 6.43945H23.4531" stroke="black"/>
<path d="M22.9688 5.12909C24.8525 11.7148 25.4856 18.5952 24.8352 25.4141" stroke="black"/>
<path d="M23.9844 9.31204C26.0683 15.8957 27.1973 22.7442 27.337 29.6484" stroke="black"/>
<path d="M65.2031 24.8906H89.5101" stroke="black"/>
<path d="M65.2031 4.38672H107.029" stroke="black"/>
<path d="M65.2031 6.25195H106.955" stroke="black"/>
<path d="M17.0868 4.86699C19.1659 11.2788 19.9084 18.0488 19.2683 24.7589C13.4882 53.0067 12.2912 82.0006 15.7233 110.629C16.6126 111.078 17.6148 111.255 18.604 111.136C19.5933 111.017 20.5254 110.609 21.2833 109.962C21.93 109.639 22.6781 109.585 23.3646 109.811C27.4485 110.315 31.5576 110.588 35.6722 110.629H65.2748H94.8774C98.992 110.588 103.101 110.315 107.185 109.811C107.872 109.585 108.62 109.639 109.266 109.962C110.024 110.609 110.956 111.017 111.946 111.136C112.935 111.255 113.937 111.078 114.826 110.629C118.258 82.0006 117.061 53.0067 111.281 24.7589C110.641 18.0488 111.384 11.2788 113.463 4.86699C113.73 4.43163 113.875 3.93294 113.885 3.42244C113.895 2.91193 113.768 2.40812 113.518 1.963C113.268 1.51788 112.903 1.1476 112.462 0.890396C112.021 0.633195 111.519 0.498402 111.009 0.499924H19.541C19.0304 0.498402 18.5286 0.633195 18.0876 0.890396C17.6465 1.1476 17.282 1.51788 17.0319 1.963C16.7817 2.40812 16.6549 2.91193 16.6646 3.42244C16.6742 3.93294 16.82 4.43163 17.0868 4.86699Z" stroke="black"/>
<path d="M21.2745 109.963C17.9188 81.9719 19.0892 53.6233 24.7407 26.0041" stroke="black"/>
<path d="M105.664 26.0041C111.316 53.6233 112.486 81.9719 109.13 109.963" stroke="black"/>
</svg>
