<svg width="383" height="463" viewBox="0 0 383 463" fill="none" xmlns="http://www.w3.org/2000/svg">
<path d="M0.5 345.5H382.5V117.5H0.5V345.5Z" stroke="black"/>
<path d="M3.5 340.5H379.5V122.5H3.5V340.5Z" stroke="black"/>
<path d="M347.906 351.641C348.592 351.867 349.339 351.813 349.985 351.49" stroke="black"/>
<path d="M262.133 351.49C262.779 351.813 263.526 351.867 264.211 351.641" stroke="black"/>
<path d="M347.812 455.016C347.829 455.021 347.846 455.022 347.862 455.019C347.879 455.015 347.894 455.008 347.907 454.997C347.92 454.986 347.93 454.972 347.936 454.956C347.942 454.94 347.943 454.923 347.941 454.906" stroke="black"/>
<path d="M347.797 455.203C347.823 455.204 347.85 455.199 347.874 455.188C347.898 455.176 347.919 455.16 347.935 455.139C347.951 455.117 347.962 455.093 347.967 455.067C347.972 455.04 347.97 455.014 347.962 454.988" stroke="black"/>
<path d="M264.156 454.988C264.148 455.014 264.146 455.04 264.151 455.067C264.156 455.093 264.166 455.117 264.183 455.139C264.199 455.16 264.22 455.176 264.244 455.188C264.268 455.199 264.295 455.204 264.321 455.203" stroke="black"/>
<path d="M264.173 454.906C264.17 454.923 264.172 454.94 264.178 454.956C264.184 454.972 264.194 454.986 264.206 454.997C264.219 455.008 264.235 455.015 264.251 455.019C264.268 455.022 264.285 455.021 264.301 455.016" stroke="black"/>
<path d="M352.828 357.275H355.011" stroke="black"/>
<path d="M352.828 357.276L354.909 356.291" stroke="black"/>
<path d="M352.43 352.859L352.832 357.275" stroke="black"/>
<path d="M268.73 352.859L268.328 357.275" stroke="black"/>
<path d="M268.331 357.276L266.25 356.291" stroke="black"/>
<path d="M268.331 357.275H266.148" stroke="black"/>
<path d="M334.891 437.782C338.318 437.751 341.692 436.929 344.75 435.381C347.808 433.833 350.467 431.6 352.52 428.855" stroke="black"/>
<path d="M352.406 458.285C352.486 458.27 352.562 458.238 352.628 458.191C352.694 458.144 352.749 458.082 352.788 458.012C352.828 457.941 352.851 457.862 352.856 457.781C352.862 457.7 352.85 457.619 352.82 457.543" stroke="black"/>
<path d="M348.445 433.023C348.585 439.928 349.714 446.776 351.798 453.36" stroke="black"/>
<path d="M350.951 437.258C350.3 444.077 350.934 450.957 352.817 457.543" stroke="black"/>
<path d="M310.581 437.781H286.273" stroke="black"/>
<path d="M268.641 428.855C270.694 431.6 273.353 433.833 276.411 435.381C279.469 436.929 282.843 437.751 286.27 437.782" stroke="black"/>
<path d="M310.584 458.285H268.758" stroke="black"/>
<path d="M268.343 457.543C268.313 457.619 268.3 457.7 268.306 457.781C268.311 457.862 268.335 457.941 268.374 458.012C268.414 458.082 268.469 458.144 268.535 458.191C268.601 458.238 268.676 458.27 268.756 458.285" stroke="black"/>
<path d="M310.581 456.232H268.828" stroke="black"/>
<path d="M268.344 457.543C270.228 450.957 270.861 444.077 270.21 437.258" stroke="black"/>
<path d="M269.359 453.36C271.443 446.776 272.572 439.928 272.712 433.023" stroke="black"/>
<path d="M310.578 437.781H334.885" stroke="black"/>
<path d="M310.578 458.285H352.404" stroke="black"/>
<path d="M310.578 456.42H352.33" stroke="black"/>
<path d="M262.462 457.805C264.541 451.393 265.283 444.623 264.643 437.913C258.863 409.665 257.666 380.671 261.098 352.043C261.988 351.594 262.99 351.417 263.979 351.536C264.968 351.655 265.9 352.063 266.658 352.71C267.305 353.033 268.053 353.087 268.74 352.86C272.824 352.357 276.933 352.084 281.047 352.043H310.65H340.252C344.367 352.084 348.476 352.357 352.56 352.86C353.247 353.087 353.995 353.033 354.641 352.71C355.399 352.063 356.331 351.655 357.321 351.536C358.31 351.417 359.312 351.594 360.201 352.043C363.633 380.671 362.436 409.665 356.656 437.913C356.016 444.623 356.759 451.393 358.838 457.805C359.105 458.24 359.25 458.739 359.26 459.249C359.27 459.76 359.143 460.264 358.893 460.709C358.643 461.154 358.278 461.524 357.837 461.781C357.396 462.039 356.894 462.173 356.384 462.172H264.916C264.405 462.173 263.904 462.039 263.463 461.781C263.021 461.524 262.657 461.154 262.407 460.709C262.157 460.264 262.03 459.76 262.04 459.249C262.049 458.739 262.195 458.24 262.462 457.805Z" stroke="black"/>
<path d="M266.65 352.709C263.294 380.7 264.464 409.049 270.116 436.668" stroke="black"/>
<path d="M351.039 436.668C356.691 409.049 357.861 380.7 354.505 352.709" stroke="black"/>
<path d="M352.828 105.396H355.011" stroke="black"/>
<path d="M352.828 105.396L354.909 106.381" stroke="black"/>
<path d="M352.43 109.812L352.832 105.396" stroke="black"/>
<path d="M268.73 109.812L268.328 105.396" stroke="black"/>
<path d="M268.331 105.396L266.25 106.381" stroke="black"/>
<path d="M268.331 105.396H266.148" stroke="black"/>
<path d="M334.891 24.89C338.318 24.9209 341.692 25.7425 344.75 27.2907C347.808 28.839 350.467 31.0722 352.52 33.8164" stroke="black"/>
<path d="M352.406 4.38693C352.486 4.40151 352.562 4.43357 352.628 4.48083C352.694 4.5281 352.749 4.58942 352.788 4.66034C352.828 4.73126 352.851 4.81004 352.856 4.89105C352.862 4.97206 352.85 5.05329 352.82 5.12891" stroke="black"/>
<path d="M348.445 29.6484C348.585 22.7442 349.714 15.8957 351.798 9.31204" stroke="black"/>
<path d="M350.951 25.4141C350.3 18.5952 350.934 11.7148 352.817 5.12909" stroke="black"/>
<path d="M310.581 24.8906H286.273" stroke="black"/>
<path d="M268.641 33.8164C270.694 31.0722 273.353 28.839 276.411 27.2907C279.469 25.7425 282.843 24.9209 286.27 24.89" stroke="black"/>
<path d="M310.584 4.38672H268.758" stroke="black"/>
<path d="M268.343 5.12891C268.313 5.05329 268.3 4.97206 268.306 4.89105C268.311 4.81004 268.335 4.73126 268.374 4.66034C268.414 4.58942 268.469 4.5281 268.535 4.48083C268.601 4.43357 268.676 4.40151 268.756 4.38693" stroke="black"/>
<path d="M310.581 6.43945H268.828" stroke="black"/>
<path d="M268.344 5.12909C270.228 11.7148 270.861 18.5952 270.21 25.4141" stroke="black"/>
<path d="M269.359 9.31204C271.443 15.8957 272.572 22.7442 272.712 29.6484" stroke="black"/>
<path d="M310.578 24.8906H334.885" stroke="black"/>
<path d="M310.578 4.38672H352.404" stroke="black"/>
<path d="M310.578 6.25195H352.33" stroke="black"/>
<path d="M262.462 4.86699C264.541 11.2788 265.283 18.0488 264.643 24.7589C258.863 53.0067 257.666 82.0006 261.098 110.629C261.988 111.078 262.99 111.255 263.979 111.136C264.968 111.017 265.9 110.609 266.658 109.962C267.305 109.639 268.053 109.585 268.74 109.811C272.824 110.315 276.933 110.588 281.047 110.629H310.65H340.252C344.367 110.588 348.476 110.315 352.56 109.811C353.247 109.585 353.995 109.639 354.641 109.962C355.399 110.609 356.331 111.017 357.321 111.136C358.31 111.255 359.312 111.078 360.201 110.629C363.633 82.0006 362.436 53.0067 356.656 24.7589C356.016 18.0488 356.759 11.2788 358.838 4.86699C359.105 4.43163 359.25 3.93294 359.26 3.42244C359.27 2.91193 359.143 2.40812 358.893 1.963C358.643 1.51788 358.278 1.1476 357.837 0.890396C357.396 0.633195 356.894 0.498402 356.384 0.499924H264.916C264.405 0.498402 263.904 0.633195 263.463 0.890396C263.021 1.1476 262.657 1.51788 262.407 1.963C262.157 2.40812 262.03 2.91193 262.04 3.42244C262.049 3.93294 262.195 4.43163 262.462 4.86699Z" stroke="black"/>
<path d="M266.65 109.963C263.294 81.9719 264.464 53.6233 270.116 26.0041" stroke="black"/>
<path d="M351.039 26.0041C356.691 53.6233 357.861 81.9719 354.505 109.963" stroke="black"/>
<path d="M233.906 357.275H236.089" stroke="black"/>
<path d="M233.906 357.276L235.987 356.291" stroke="black"/>
<path d="M233.508 352.859L233.91 357.275" stroke="black"/>
<path d="M149.808 352.859L149.406 357.275" stroke="black"/>
<path d="M149.409 357.276L147.328 356.291" stroke="black"/>
<path d="M149.41 357.275H147.227" stroke="black"/>
<path d="M215.969 437.782C219.396 437.751 222.77 436.929 225.828 435.381C228.886 433.833 231.545 431.6 233.598 428.855" stroke="black"/>
<path d="M233.484 458.285C233.564 458.27 233.64 458.238 233.706 458.191C233.772 458.144 233.827 458.082 233.866 458.012C233.906 457.941 233.929 457.862 233.935 457.781C233.94 457.7 233.928 457.619 233.898 457.543" stroke="black"/>
<path d="M229.523 433.023C229.663 439.928 230.792 446.776 232.876 453.36" stroke="black"/>
<path d="M232.029 437.258C231.379 444.077 232.012 450.957 233.895 457.543" stroke="black"/>
<path d="M191.66 437.781H167.352" stroke="black"/>
<path d="M149.719 428.855C151.772 431.6 154.431 433.833 157.489 435.381C160.547 436.929 163.921 437.751 167.348 437.782" stroke="black"/>
<path d="M191.662 458.285H149.836" stroke="black"/>
<path d="M149.421 457.543C149.391 457.619 149.379 457.7 149.384 457.781C149.39 457.862 149.413 457.941 149.452 458.012C149.492 458.082 149.547 458.144 149.613 458.191C149.679 458.238 149.754 458.27 149.834 458.285" stroke="black"/>
<path d="M191.659 456.232H149.906" stroke="black"/>
<path d="M149.422 457.543C151.306 450.957 151.939 444.077 151.288 437.258" stroke="black"/>
<path d="M150.438 453.36C152.521 446.776 153.65 439.928 153.79 433.023" stroke="black"/>
<path d="M191.656 437.781H215.963" stroke="black"/>
<path d="M191.656 458.285H233.482" stroke="black"/>
<path d="M191.656 456.42H233.408" stroke="black"/>
<path d="M143.54 457.805C145.619 451.393 146.361 444.623 145.721 437.913C139.941 409.665 138.744 380.671 142.176 352.043C143.066 351.594 144.068 351.417 145.057 351.536C146.046 351.655 146.979 352.063 147.736 352.71C148.383 353.033 149.131 353.087 149.818 352.86C153.902 352.357 158.011 352.084 162.125 352.043H191.728H221.331C225.445 352.084 229.554 352.357 233.638 352.86C234.325 353.087 235.073 353.033 235.719 352.71C236.477 352.063 237.409 351.655 238.399 351.536C239.388 351.417 240.39 351.594 241.279 352.043C244.712 380.671 243.515 409.665 237.734 437.913C237.094 444.623 237.837 451.393 239.916 457.805C240.183 458.24 240.329 458.739 240.338 459.249C240.348 459.76 240.221 460.264 239.971 460.709C239.721 461.154 239.356 461.524 238.915 461.781C238.474 462.039 237.972 462.173 237.462 462.172H145.994C145.484 462.173 144.982 462.039 144.541 461.781C144.1 461.524 143.735 461.154 143.485 460.709C143.235 460.264 143.108 459.76 143.118 459.249C143.127 458.739 143.273 458.24 143.54 457.805Z" stroke="black"/>
<path d="M147.728 352.709C144.372 380.7 145.542 409.049 151.194 436.668" stroke="black"/>
<path d="M232.117 436.668C237.769 409.049 238.939 380.7 235.583 352.709" stroke="black"/>
<path d="M233.906 105.396H236.089" stroke="black"/>
<path d="M233.906 105.396L235.987 106.381" stroke="black"/>
<path d="M233.508 109.812L233.91 105.396" stroke="black"/>
<path d="M149.808 109.812L149.406 105.396" stroke="black"/>
<path d="M149.409 105.396L147.328 106.381" stroke="black"/>
<path d="M149.41 105.396H147.227" stroke="black"/>
<path d="M215.969 24.89C219.396 24.9209 222.77 25.7425 225.828 27.2907C228.886 28.839 231.545 31.0722 233.598 33.8164" stroke="black"/>
<path d="M233.484 4.38693C233.564 4.40151 233.64 4.43357 233.706 4.48083C233.772 4.5281 233.827 4.58942 233.866 4.66034C233.906 4.73126 233.929 4.81004 233.935 4.89105C233.94 4.97206 233.928 5.05329 233.898 5.12891" stroke="black"/>
<path d="M229.523 29.6484C229.663 22.7442 230.792 15.8957 232.876 9.31204" stroke="black"/>
<path d="M232.029 25.4141C231.379 18.5952 232.012 11.7148 233.895 5.12909" stroke="black"/>
<path d="M191.66 24.8906H167.352" stroke="black"/>
<path d="M149.719 33.8164C151.772 31.0722 154.431 28.839 157.489 27.2907C160.547 25.7425 163.921 24.9209 167.348 24.89" stroke="black"/>
<path d="M191.662 4.38672H149.836" stroke="black"/>
<path d="M149.421 5.12891C149.391 5.05329 149.379 4.97206 149.384 4.89105C149.39 4.81004 149.413 4.73126 149.452 4.66034C149.492 4.58942 149.547 4.5281 149.613 4.48083C149.679 4.43357 149.754 4.40151 149.834 4.38693" stroke="black"/>
<path d="M191.659 6.43945H149.906" stroke="black"/>
<path d="M149.422 5.12909C151.306 11.7148 151.939 18.5952 151.288 25.4141" stroke="black"/>
<path d="M150.438 9.31204C152.521 15.8957 153.65 22.7442 153.79 29.6484" stroke="black"/>
<path d="M191.656 24.8906H215.963" stroke="black"/>
<path d="M191.656 4.38672H233.482" stroke="black"/>
<path d="M191.656 6.25195H233.408" stroke="black"/>
<path d="M143.54 4.86699C145.619 11.2788 146.361 18.0488 145.721 24.7589C139.941 53.0067 138.744 82.0006 142.176 110.629C143.066 111.078 144.068 111.255 145.057 111.136C146.046 111.017 146.979 110.609 147.736 109.962C148.383 109.639 149.131 109.585 149.818 109.811C153.902 110.315 158.011 110.588 162.125 110.629H191.728H221.331C225.445 110.588 229.554 110.315 233.638 109.811C234.325 109.585 235.073 109.639 235.719 109.962C236.477 110.609 237.409 111.017 238.399 111.136C239.388 111.255 240.39 111.078 241.279 110.629C244.712 82.0006 243.515 53.0067 237.734 24.7589C237.094 18.0488 237.837 11.2788 239.916 4.86699C240.183 4.43163 240.329 3.93294 240.338 3.42244C240.348 2.91193 240.221 2.40812 239.971 1.963C239.721 1.51788 239.356 1.1476 238.915 0.890396C238.474 0.633195 237.972 0.498402 237.462 0.499924H145.994C145.484 0.498402 144.982 0.633195 144.541 0.890396C144.1 1.1476 143.735 1.51788 143.485 1.963C143.235 2.40812 143.108 2.91193 143.118 3.42244C143.127 3.93294 143.273 4.43163 143.54 4.86699Z" stroke="black"/>
<path d="M147.728 109.963C144.372 81.9719 145.542 53.6233 151.194 26.0041" stroke="black"/>
<path d="M232.117 26.0041C237.769 53.6233 238.939 81.9719 235.583 109.963" stroke="black"/>
<path d="M114.984 357.275H117.167" stroke="black"/>
<path d="M114.984 357.276L117.065 356.291" stroke="black"/>
<path d="M114.586 352.859L114.988 357.275" stroke="black"/>
<path d="M30.8864 352.859L30.4844 357.275" stroke="black"/>
<path d="M30.4872 357.276L28.4062 356.291" stroke="black"/>
<path d="M30.4877 357.275H28.3047" stroke="black"/>
<path d="M97.0469 437.782C100.474 437.751 103.848 436.929 106.906 435.381C109.964 433.833 112.623 431.6 114.676 428.855" stroke="black"/>
<path d="M114.562 458.285C114.642 458.27 114.718 458.238 114.784 458.191C114.85 458.144 114.905 458.082 114.944 458.012C114.984 457.941 115.007 457.862 115.013 457.781C115.018 457.7 115.006 457.619 114.976 457.543" stroke="black"/>
<path d="M110.602 433.023C110.741 439.928 111.87 446.776 113.954 453.36" stroke="black"/>
<path d="M113.107 437.258C112.457 444.077 113.09 450.957 114.974 457.543" stroke="black"/>
<path d="M72.7377 437.781H48.4297" stroke="black"/>
<path d="M30.7969 428.855C32.8504 431.6 35.5095 433.833 38.5674 435.381C41.6252 436.929 44.9991 437.751 48.4264 437.782" stroke="black"/>
<path d="M72.7401 458.285H30.9141" stroke="black"/>
<path d="M30.4988 457.543C30.4692 457.619 30.4567 457.7 30.4622 457.781C30.4677 457.862 30.4911 457.941 30.5306 458.012C30.5701 458.082 30.6249 458.144 30.6909 458.191C30.7569 458.238 30.8326 458.27 30.9125 458.285" stroke="black"/>
<path d="M72.7374 456.232H30.9844" stroke="black"/>
<path d="M30.5 457.543C32.3838 450.957 33.0168 444.077 32.3664 437.258" stroke="black"/>
<path d="M31.5156 453.36C33.5996 446.776 34.7286 439.928 34.8683 433.023" stroke="black"/>
<path d="M72.7344 437.781H97.0414" stroke="black"/>
<path d="M72.7344 458.285H114.56" stroke="black"/>
<path d="M72.7344 456.42H114.486" stroke="black"/>
<path d="M24.618 457.805C26.6971 451.393 27.4396 444.623 26.7996 437.913C21.0195 409.665 19.8225 380.671 23.2546 352.043C24.1438 351.594 25.1461 351.417 26.1353 351.536C27.1245 351.655 28.0566 352.063 28.8145 352.71C29.4612 353.033 30.2094 353.087 30.8959 352.86C34.9798 352.357 39.0888 352.084 43.2035 352.043H72.8061H102.409C106.523 352.084 110.632 352.357 114.716 352.86C115.403 353.087 116.151 353.033 116.798 352.71C117.555 352.063 118.488 351.655 119.477 351.536C120.466 351.417 121.468 351.594 122.358 352.043C125.79 380.671 124.593 409.665 118.813 437.913C118.173 444.623 118.915 451.393 120.994 457.805C121.261 458.24 121.407 458.739 121.416 459.249C121.426 459.76 121.299 460.264 121.049 460.709C120.799 461.154 120.434 461.524 119.993 461.781C119.552 462.039 119.05 462.173 118.54 462.172H27.0722C26.5616 462.173 26.0599 462.039 25.6188 461.781C25.1777 461.524 24.8133 461.154 24.5631 460.709C24.313 460.264 24.1862 459.76 24.1958 459.249C24.2055 458.739 24.3512 458.24 24.618 457.805Z" stroke="black"/>
<path d="M28.8058 352.709C25.4501 380.7 26.6204 409.049 32.2719 436.668" stroke="black"/>
<path d="M113.195 436.668C118.847 409.049 120.017 380.7 116.661 352.709" stroke="black"/>
<path d="M114.984 105.396H117.167" stroke="black"/>
<path d="M114.984 105.396L117.065 106.381" stroke="black"/>
<path d="M114.586 109.812L114.988 105.396" stroke="black"/>
<path d="M30.8864 109.812L30.4844 105.396" stroke="black"/>
<path d="M30.4872 105.396L28.4062 106.381" stroke="black"/>
<path d="M30.4877 105.396H28.3047" stroke="black"/>
<path d="M97.0469 24.89C100.474 24.9209 103.848 25.7425 106.906 27.2907C109.964 28.839 112.623 31.0722 114.676 33.8164" stroke="black"/>
<path d="M114.562 4.38693C114.642 4.40151 114.718 4.43357 114.784 4.48083C114.85 4.5281 114.905 4.58942 114.944 4.66034C114.984 4.73126 115.007 4.81004 115.013 4.89105C115.018 4.97206 115.006 5.05329 114.976 5.12891" stroke="black"/>
<path d="M110.602 29.6484C110.741 22.7442 111.87 15.8957 113.954 9.31204" stroke="black"/>
<path d="M113.107 25.4141C112.457 18.5952 113.09 11.7148 114.974 5.12909" stroke="black"/>
<path d="M72.7377 24.8906H48.4297" stroke="black"/>
<path d="M30.7969 33.8164C32.8504 31.0722 35.5095 28.839 38.5674 27.2907C41.6252 25.7425 44.9991 24.9209 48.4264 24.89" stroke="black"/>
<path d="M72.7401 4.38672H30.9141" stroke="black"/>
<path d="M30.4988 5.12891C30.4692 5.05329 30.4567 4.97206 30.4622 4.89105C30.4677 4.81004 30.4911 4.73126 30.5306 4.66034C30.5701 4.58942 30.6249 4.5281 30.6909 4.48083C30.7569 4.43357 30.8326 4.40151 30.9125 4.38693" stroke="black"/>
<path d="M72.7374 6.43945H30.9844" stroke="black"/>
<path d="M30.5 5.12909C32.3838 11.7148 33.0168 18.5952 32.3664 25.4141" stroke="black"/>
<path d="M31.5156 9.31204C33.5996 15.8957 34.7286 22.7442 34.8683 29.6484" stroke="black"/>
<path d="M72.7344 24.8906H97.0414" stroke="black"/>
<path d="M72.7344 4.38672H114.56" stroke="black"/>
<path d="M72.7344 6.25195H114.486" stroke="black"/>
<path d="M24.618 4.86699C26.6971 11.2788 27.4396 18.0488 26.7996 24.7589C21.0195 53.0067 19.8225 82.0006 23.2546 110.629C24.1438 111.078 25.1461 111.255 26.1353 111.136C27.1245 111.017 28.0566 110.609 28.8145 109.962C29.4612 109.639 30.2094 109.585 30.8959 109.811C34.9798 110.315 39.0888 110.588 43.2035 110.629H72.8061H102.409C106.523 110.588 110.632 110.315 114.716 109.811C115.403 109.585 116.151 109.639 116.798 109.962C117.555 110.609 118.488 111.017 119.477 111.136C120.466 111.255 121.468 111.078 122.358 110.629C125.79 82.0006 124.593 53.0067 118.813 24.7589C118.173 18.0488 118.915 11.2788 120.994 4.86699C121.261 4.43163 121.407 3.93294 121.416 3.42244C121.426 2.91193 121.299 2.40812 121.049 1.963C120.799 1.51788 120.434 1.1476 119.993 0.890396C119.552 0.633195 119.05 0.498402 118.54 0.499924H27.0722C26.5616 0.498402 26.0599 0.633195 25.6188 0.890396C25.1777 1.1476 24.8133 1.51788 24.5631 1.963C24.313 2.40812 24.1862 2.91193 24.1958 3.42244C24.2055 3.93294 24.3512 4.43163 24.618 4.86699Z" stroke="black"/>
<path d="M28.8058 109.963C25.4501 81.9719 26.6204 53.6233 32.2719 26.0041" stroke="black"/>
<path d="M113.195 26.0041C118.847 53.6233 120.017 81.9719 116.661 109.963" stroke="black"/>
</svg>
