<svg width="325" height="325" viewBox="0 0 325 325" fill="none" xmlns="http://www.w3.org/2000/svg">
<path d="M317.978 162.467C317.978 121.226 301.595 81.6739 272.433 52.5118C243.271 23.3498 203.718 6.9668 162.477 6.9668C121.236 6.9668 81.6836 23.3498 52.5216 52.5118C23.3596 81.6739 6.97656 121.226 6.97656 162.467C6.97656 203.709 23.3596 243.261 52.5216 272.423C81.6836 301.585 121.236 317.968 162.477 317.968C203.718 317.968 243.271 301.585 272.433 272.423C301.595 243.261 317.978 203.709 317.978 162.467Z" stroke="black"/>
<path d="M324.46 162.467C324.456 119.51 307.389 78.3126 277.012 47.9383C246.636 17.5639 205.437 0.5 162.48 0.5C119.522 0.5 78.324 17.5639 47.9473 47.9383C17.5705 78.3126 0.503375 119.51 0.5 162.467C0.503375 205.425 17.5705 246.622 47.9473 276.996C78.324 307.37 119.522 324.434 162.48 324.434C205.437 324.434 246.636 307.37 277.012 276.996C307.389 246.622 324.456 205.425 324.46 162.467Z" stroke="black"/>
</svg>
