<svg width="793" height="793" viewBox="0 0 793 793" fill="none" xmlns="http://www.w3.org/2000/svg">
<path d="M763.625 251.63C755.631 253.334 748.071 256.659 741.413 261.399C715.254 284.595 685.533 303.431 653.389 317.183C652.378 316.522 651.585 315.576 651.11 314.466C650.635 313.355 650.499 312.129 650.718 310.941C650.665 310.066 650.269 309.247 649.615 308.663C646.61 304.68 643.832 300.531 641.294 296.235L623.347 265.149L605.399 234.062C602.948 229.717 600.743 225.236 598.796 220.643C598.617 219.784 598.107 219.032 597.375 218.548C596.237 218.145 595.243 217.413 594.519 216.446C593.795 215.479 593.372 214.32 593.305 213.114C621.287 192.153 652.459 175.831 685.627 164.775C693.062 161.379 699.721 156.495 705.193 150.424C705.489 149.88 705.924 149.424 706.454 149.105C706.984 148.785 707.59 148.613 708.209 148.606C708.829 148.599 709.438 148.757 709.976 149.064C710.513 149.371 710.959 149.816 711.267 150.354L766.722 246.405C767.034 246.94 767.196 247.549 767.194 248.168C767.191 248.787 767.023 249.394 766.707 249.927C766.392 250.459 765.939 250.898 765.397 251.197C764.855 251.497 764.243 251.646 763.625 251.63Z" stroke="black"/>
<path d="M642.095 87.3227C636.024 92.7953 631.14 99.4543 627.744 106.889C616.688 140.057 600.366 171.229 579.406 199.211C578.199 199.144 577.04 198.722 576.073 197.997C575.106 197.273 574.375 196.279 573.971 195.14C573.488 194.409 572.735 193.899 571.877 193.72C567.283 191.773 562.802 189.568 558.457 187.116L527.371 169.169L496.285 151.221C491.989 148.684 487.839 145.906 483.856 142.901C483.272 142.247 482.454 141.851 481.579 141.798C480.391 142.017 479.164 141.881 478.054 141.406C476.943 140.931 475.997 140.138 475.336 139.127C489.089 106.983 507.924 77.2619 531.12 51.1028C535.86 44.4445 539.185 36.8851 540.889 28.8914C540.873 28.2725 541.022 27.6605 541.322 27.1186C541.621 26.5766 542.06 26.1244 542.593 25.8086C543.125 25.4929 543.732 25.325 544.351 25.3223C544.97 25.3196 545.579 25.4823 546.114 25.7935L642.166 81.2488C642.703 81.5568 643.148 82.0024 643.455 82.5399C643.763 83.0775 643.921 83.6873 643.914 84.3064C643.906 84.9255 643.734 85.5314 643.414 86.0617C643.095 86.5919 642.639 87.0272 642.095 87.3227Z" stroke="black"/>
<path d="M87.3208 150.424C92.7934 156.495 99.4524 161.379 106.887 164.775C140.055 175.831 171.227 192.153 199.209 213.114C199.142 214.32 198.719 215.479 197.995 216.446C197.271 217.413 196.277 218.145 195.138 218.548C194.407 219.032 193.897 219.784 193.718 220.643C191.771 225.236 189.566 229.717 187.115 234.062L169.167 265.149L151.22 296.235C148.682 300.531 145.904 304.68 142.899 308.663C142.245 309.247 141.849 310.066 141.796 310.941C142.015 312.129 141.879 313.355 141.404 314.466C140.929 315.576 140.136 316.522 139.125 317.183C106.981 303.431 77.2599 284.595 51.1009 261.399C44.4426 256.659 36.8831 253.334 28.8894 251.63C28.2705 251.646 27.6587 251.497 27.1167 251.197C26.5748 250.898 26.1224 250.459 25.8067 249.927C25.4909 249.394 25.323 248.787 25.3203 248.168C25.3177 247.549 25.4804 246.94 25.7915 246.405L81.2469 150.354C81.5548 149.816 82.0006 149.371 82.5381 149.064C83.0756 148.757 83.6854 148.599 84.3045 148.606C84.9236 148.613 85.5296 148.785 86.0598 149.105C86.5901 149.424 87.0254 149.88 87.3208 150.424Z" stroke="black"/>
<path d="M251.626 28.8914C253.33 36.8851 256.655 44.4445 261.395 51.1028C284.591 77.2619 303.427 106.983 317.179 139.127C316.518 140.138 315.572 140.931 314.462 141.406C313.351 141.881 312.125 142.017 310.937 141.798C310.062 141.851 309.243 142.247 308.659 142.901C304.676 145.906 300.527 148.684 296.231 151.221L265.145 169.169L234.059 187.116C229.713 189.568 225.233 191.773 220.639 193.72C219.781 193.899 219.028 194.409 218.544 195.14C218.141 196.279 217.41 197.273 216.443 197.997C215.476 198.722 214.316 199.144 213.11 199.211C192.149 171.229 175.828 140.057 164.771 106.889C161.375 99.4543 156.491 92.7953 150.42 87.3227C149.876 87.0272 149.421 86.5919 149.101 86.0617C148.781 85.5314 148.609 84.9255 148.602 84.3064C148.595 83.6873 148.753 83.0775 149.06 82.5399C149.367 82.0024 149.812 81.5568 150.35 81.2488L246.401 25.7935C246.936 25.4823 247.545 25.3196 248.164 25.3223C248.783 25.325 249.39 25.4929 249.923 25.8086C250.455 26.1244 250.894 26.5766 251.194 27.1186C251.493 27.6605 251.642 28.2725 251.626 28.8914Z" stroke="black"/>
<path d="M454.692 5.7953C452.171 13.5701 451.271 21.7792 452.047 29.9155C459.056 64.1679 460.507 99.325 456.346 134.039C455.267 134.583 454.052 134.797 452.852 134.653C451.653 134.51 450.523 134.015 449.604 133.23C448.819 132.839 447.912 132.773 447.08 133.047C442.128 133.658 437.145 133.989 432.156 134.039H396.261H360.366C355.377 133.989 350.394 133.658 345.442 133.047C344.61 132.773 343.702 132.839 342.918 133.23C341.999 134.015 340.869 134.51 339.67 134.653C338.47 134.797 337.255 134.583 336.176 134.039C332.015 99.325 333.466 64.1679 340.475 29.9155C341.251 21.7792 340.351 13.5701 337.83 5.7953C337.506 5.26741 337.329 4.66274 337.318 4.04372C337.306 3.4247 337.46 2.8138 337.763 2.27406C338.067 1.73433 338.508 1.28528 339.043 0.973404C339.578 0.661531 340.187 0.49817 340.806 0.500015H451.716C452.335 0.49817 452.944 0.661531 453.479 0.973404C454.013 1.28528 454.455 1.73433 454.759 2.27406C455.062 2.8138 455.216 3.4247 455.204 4.04372C455.192 4.66274 455.016 5.26741 454.692 5.7953Z" stroke="black"/>
<path d="M705.193 642.091C699.721 636.021 693.062 631.136 685.627 627.74C652.459 616.684 621.287 600.362 593.305 579.401C593.372 578.195 593.795 577.036 594.519 576.069C595.243 575.102 596.237 574.371 597.375 573.967C598.107 573.484 598.617 572.731 598.796 571.873C600.743 567.279 602.948 562.799 605.399 558.453L623.347 527.367L641.294 496.281C643.832 491.985 646.61 487.835 649.615 483.852C650.269 483.268 650.665 482.45 650.718 481.575C650.499 480.387 650.635 479.16 651.11 478.05C651.585 476.939 652.378 475.993 653.389 475.332C685.533 489.085 715.254 507.92 741.413 531.116C748.071 535.857 755.631 539.181 763.625 540.885C764.243 540.869 764.855 541.019 765.397 541.318C765.939 541.617 766.392 542.056 766.707 542.589C767.023 543.121 767.191 543.728 767.194 544.347C767.196 544.967 767.034 545.575 766.722 546.11L711.267 642.162C710.959 642.699 710.513 643.144 709.976 643.451C709.438 643.759 708.829 643.917 708.209 643.91C707.59 643.902 706.984 643.73 706.454 643.41C705.924 643.091 705.489 642.635 705.193 642.091Z" stroke="black"/>
<path d="M540.889 763.624C539.185 755.631 535.86 748.071 531.12 741.413C507.924 715.254 489.089 685.533 475.336 653.389C475.997 652.378 476.943 651.585 478.054 651.11C479.164 650.635 480.391 650.498 481.579 650.718C482.454 650.665 483.272 650.269 483.856 649.615C487.839 646.61 491.989 643.832 496.285 641.294L527.371 623.347L558.457 605.399C562.802 602.948 567.283 600.743 571.877 598.796C572.735 598.617 573.488 598.107 573.971 597.375C574.375 596.237 575.106 595.243 576.073 594.519C577.04 593.794 578.199 593.372 579.406 593.305C600.366 621.287 616.688 652.459 627.744 685.627C631.14 693.061 636.024 699.721 642.095 705.193C642.639 705.489 643.095 705.924 643.414 706.454C643.734 706.984 643.906 707.59 643.914 708.209C643.921 708.829 643.763 709.438 643.455 709.976C643.148 710.513 642.703 710.959 642.166 711.267L546.114 766.722C545.579 767.034 544.97 767.196 544.351 767.193C543.732 767.191 543.125 767.023 542.593 766.707C542.06 766.391 541.621 765.939 541.322 765.397C541.022 764.855 540.873 764.243 540.889 763.624Z" stroke="black"/>
<path d="M28.8894 540.885C36.8831 539.181 44.4426 535.857 51.1009 531.116C77.2599 507.92 106.981 489.085 139.125 475.332C140.136 475.993 140.929 476.939 141.404 478.05C141.879 479.16 142.015 480.387 141.796 481.575C141.849 482.45 142.245 483.268 142.899 483.852C145.904 487.835 148.682 491.985 151.22 496.281L169.167 527.367L187.115 558.453C189.566 562.799 191.771 567.279 193.718 571.873C193.897 572.731 194.407 573.484 195.138 573.967C196.277 574.371 197.271 575.102 197.995 576.069C198.719 577.036 199.142 578.195 199.209 579.401C171.227 600.362 140.055 616.684 106.887 627.74C99.4524 631.136 92.7934 636.021 87.3208 642.091C87.0254 642.635 86.5901 643.091 86.0598 643.41C85.5296 643.73 84.9236 643.902 84.3045 643.91C83.6854 643.917 83.0756 643.759 82.5381 643.451C82.0006 643.144 81.5548 642.699 81.2469 642.162L25.7915 546.11C25.4804 545.575 25.3177 544.967 25.3203 544.347C25.323 543.728 25.4909 543.121 25.8067 542.589C26.1224 542.056 26.5748 541.617 27.1167 541.318C27.6587 541.019 28.2705 540.869 28.8894 540.885Z" stroke="black"/>
<path d="M150.42 705.193C156.491 699.721 161.375 693.061 164.771 685.627C175.828 652.459 192.149 621.287 213.11 593.305C214.316 593.372 215.476 593.794 216.443 594.519C217.41 595.243 218.141 596.237 218.544 597.375C219.028 598.107 219.781 598.617 220.639 598.796C225.233 600.743 229.713 602.948 234.059 605.399L265.145 623.347L296.231 641.294C300.527 643.832 304.676 646.61 308.659 649.615C309.243 650.269 310.062 650.665 310.937 650.718C312.125 650.498 313.351 650.635 314.462 651.11C315.572 651.585 316.518 652.378 317.179 653.389C303.427 685.533 284.591 715.254 261.395 741.413C256.655 748.071 253.33 755.631 251.626 763.624C251.642 764.243 251.493 764.855 251.194 765.397C250.894 765.939 250.455 766.391 249.923 766.707C249.39 767.023 248.783 767.191 248.164 767.193C247.545 767.196 246.936 767.034 246.401 766.722L150.35 711.267C149.812 710.959 149.367 710.513 149.06 709.976C148.753 709.438 148.595 708.829 148.602 708.209C148.609 707.59 148.781 706.984 149.101 706.454C149.421 705.924 149.876 705.489 150.42 705.193Z" stroke="black"/>
<path d="M337.83 786.72C340.351 778.945 341.251 770.736 340.475 762.6C333.466 728.347 332.015 693.19 336.176 658.477C337.255 657.932 338.47 657.718 339.67 657.862C340.869 658.006 341.999 658.501 342.918 659.285C343.702 659.677 344.61 659.742 345.442 659.468C350.394 658.857 355.377 658.527 360.366 658.477H396.261H432.156C437.145 658.527 442.128 658.857 447.08 659.468C447.912 659.742 448.819 659.677 449.604 659.285C450.523 658.501 451.653 658.006 452.852 657.862C454.052 657.718 455.267 657.932 456.346 658.477C460.507 693.19 459.056 728.347 452.047 762.6C451.271 770.736 452.171 778.945 454.692 786.72C455.016 787.248 455.192 787.853 455.204 788.472C455.216 789.091 455.062 789.702 454.759 790.241C454.455 790.781 454.013 791.23 453.479 791.542C452.944 791.854 452.335 792.017 451.716 792.015H340.806C340.187 792.017 339.578 791.854 339.043 791.542C338.508 791.23 338.067 790.781 337.763 790.241C337.46 789.702 337.306 789.091 337.318 788.472C337.329 787.853 337.506 787.248 337.83 786.72Z" stroke="black"/>
<path d="M646.057 396.257C646.057 330.007 619.74 266.469 572.893 219.623C526.047 172.777 462.51 146.459 396.259 146.459C330.009 146.459 266.471 172.777 219.625 219.623C172.779 266.469 146.461 330.007 146.461 396.257C146.461 462.508 172.779 526.045 219.625 572.891C266.471 619.738 330.009 646.056 396.259 646.056C462.51 646.056 526.047 619.738 572.893 572.891C619.74 526.045 646.057 462.508 646.057 396.257Z" stroke="black"/>
<path d="M651.575 396.258C651.571 328.546 624.669 263.609 576.788 215.73C528.907 167.852 463.968 140.955 396.256 140.955C328.544 140.955 263.605 167.852 215.724 215.73C167.843 263.609 140.942 328.546 140.938 396.258C140.942 463.97 167.843 528.907 215.724 576.785C263.605 624.663 328.544 651.561 396.256 651.561C463.968 651.561 528.907 624.663 576.788 576.785C624.669 528.907 651.571 463.97 651.575 396.258Z" stroke="black"/>
<path d="M5.79543 337.826C13.5702 340.347 21.7794 341.247 29.9158 340.471C64.1682 333.462 99.3253 332.011 134.039 336.172C134.584 337.251 134.797 338.466 134.654 339.665C134.51 340.865 134.015 341.995 133.23 342.914C132.839 343.698 132.773 344.606 133.048 345.438C133.658 350.39 133.989 355.373 134.039 360.362V396.257V432.152C133.989 437.141 133.658 442.124 133.048 447.076C132.773 447.908 132.839 448.815 133.23 449.6C134.015 450.519 134.51 451.649 134.654 452.848C134.797 454.048 134.584 455.263 134.039 456.341C99.3253 460.503 64.1682 459.052 29.9158 452.043C21.7794 451.267 13.5702 452.167 5.79543 454.688C5.26753 455.012 4.66298 455.188 4.04396 455.2C3.42494 455.212 2.81392 455.058 2.27419 454.755C1.73445 454.451 1.28552 454.009 0.973648 453.475C0.661775 452.94 0.49817 452.331 0.500015 451.712V340.802C0.49817 340.182 0.661775 339.574 0.973648 339.039C1.28552 338.504 1.73445 338.062 2.27419 337.759C2.81392 337.456 3.42494 337.302 4.04396 337.314C4.66298 337.325 5.26753 337.502 5.79543 337.826Z" stroke="black"/>
<path d="M786.722 454.688C778.947 452.167 770.738 451.267 762.602 452.043C728.349 459.052 693.192 460.503 658.479 456.341C657.934 455.263 657.72 454.048 657.864 452.848C658.008 451.649 658.503 450.519 659.287 449.6C659.679 448.815 659.744 447.908 659.47 447.076C658.859 442.124 658.528 437.141 658.479 432.152V396.257V360.362C658.528 355.373 658.859 350.39 659.47 345.438C659.744 344.606 659.679 343.698 659.287 342.914C658.503 341.995 658.008 340.865 657.864 339.665C657.72 338.466 657.934 337.251 658.479 336.172C693.192 332.011 728.349 333.462 762.602 340.471C770.738 341.247 778.947 340.347 786.722 337.826C787.25 337.502 787.855 337.325 788.474 337.314C789.093 337.302 789.704 337.456 790.243 337.759C790.783 338.062 791.232 338.504 791.544 339.039C791.856 339.574 792.019 340.182 792.017 340.802V451.712C792.019 452.331 791.856 452.94 791.544 453.475C791.232 454.009 790.783 454.451 790.243 454.755C789.704 455.058 789.093 455.212 788.474 455.2C787.855 455.188 787.25 455.012 786.722 454.688Z" stroke="black"/>
</svg>
