<svg width="1179" height="590" viewBox="0 0 1179 590" fill="none" xmlns="http://www.w3.org/2000/svg">
<path d="M921.461 537.152L1126.1 273.002" stroke="black"/>
<path d="M928.008 537.154L1126.65 280.754" stroke="black"/>
<path d="M934.547 537.156L1126.64 289.205" stroke="black"/>
<path d="M941.094 537.155L1126.65 297.648" stroke="black"/>
<path d="M947.641 537.152L1126.66 306.094" stroke="black"/>
<path d="M381.602 537.157L794.152 52.3418" stroke="black"/>
<path d="M388.148 537.157L800.699 52.3418" stroke="black"/>
<path d="M394.727 537.157L807.232 52.3418" stroke="black"/>
<path d="M401.273 537.157L813.778 52.3418" stroke="black"/>
<path d="M407.82 537.157L820.37 52.3418" stroke="black"/>
<path d="M414.359 537.157L826.91 52.3418" stroke="black"/>
<path d="M0.5 589.5V0.5H1178.5V589.5H0.5Z" stroke="black"/>
<path d="M1126.66 104.863H1071.16V52.9629H107.844V104.863H50.5469V489.635H107.844V537.955H1071.16V489.635H1126.66V104.863Z" stroke="black"/>
<path d="M50.5469 417.704L400.872 52.9629" stroke="black"/>
<path d="M50.5469 424.518L407.412 52.9629" stroke="black"/>
<path d="M50.5469 431.332L413.952 52.9629" stroke="black"/>
<path d="M50.5469 438.146L420.493 52.9629" stroke="black"/>
<path d="M50.5469 410.89L394.331 52.9629" stroke="black"/>
</svg>
