<svg width="794" height="794" viewBox="0 0 794 794" fill="none" xmlns="http://www.w3.org/2000/svg">
<path d="M782.35 396.536C782.35 294.212 741.701 196.078 669.347 123.723C596.993 51.369 498.859 10.7207 396.534 10.7207C294.21 10.7207 196.076 51.369 123.721 123.723C51.3671 196.078 10.7188 294.212 10.7188 396.536C10.7188 498.861 51.3671 596.994 123.721 669.349C196.076 741.703 294.21 782.352 396.534 782.352C498.859 782.352 596.993 741.703 669.347 669.349C741.701 596.994 782.35 498.861 782.35 396.536Z" stroke="black"/>
<path d="M792.572 396.536C792.572 291.501 750.846 190.767 676.575 116.496C602.304 42.2251 501.571 0.5 396.536 0.5C291.501 0.5 190.767 42.2251 116.496 116.496C42.2251 190.767 0.500002 291.501 0.5 396.536C0.500002 501.571 42.2251 602.304 116.496 676.575C190.767 750.846 291.501 792.572 396.536 792.572C501.571 792.572 602.304 750.846 676.575 676.575C750.846 602.304 792.572 501.571 792.572 396.536Z" stroke="black"/>
</svg>
