<svg width="791" height="791" viewBox="0 0 791 791" fill="none" xmlns="http://www.w3.org/2000/svg">
<path d="M774.207 290.328C767.487 290.861 760.949 292.765 754.994 295.925C731.109 312.075 704.78 324.276 677.017 332.061C676.262 331.411 675.716 330.553 675.447 329.593C675.178 328.634 675.198 327.617 675.506 326.669C675.557 325.948 675.32 325.236 674.848 324.688C672.82 321.108 670.996 317.416 669.383 313.63L658.055 286.281L646.726 258.932C645.19 255.115 643.869 251.214 642.772 247.248C642.718 246.528 642.382 245.857 641.836 245.383C640.948 244.93 640.215 244.226 639.726 243.357C639.238 242.488 639.018 241.495 639.092 240.501C664.228 226.375 691.473 216.385 719.783 210.916C726.227 208.939 732.197 205.662 737.325 201.288C737.625 200.875 738.03 200.549 738.498 200.345C738.966 200.141 739.48 200.065 739.987 200.126C740.494 200.187 740.976 200.382 741.382 200.691C741.789 201 742.105 201.412 742.299 201.884L777.302 286.389C777.499 286.86 777.567 287.375 777.498 287.881C777.429 288.387 777.226 288.866 776.911 289.267C776.595 289.669 776.178 289.979 775.703 290.165C775.228 290.351 774.711 290.408 774.207 290.328Z" stroke="black"/>
<path d="M705.233 153.259C699.229 156.323 693.917 160.585 689.625 165.782C673.738 189.844 654.082 211.192 631.412 229.008C630.466 228.697 629.632 228.113 629.017 227.33C628.401 226.546 628.031 225.598 627.952 224.605C627.723 223.92 627.232 223.352 626.587 223.027C623.343 220.495 620.245 217.783 617.306 214.902L596.374 193.97L575.442 173.038C572.561 170.099 569.849 167.001 567.317 163.757C566.992 163.111 566.424 162.621 565.739 162.392C564.745 162.313 563.798 161.943 563.014 161.327C562.231 160.712 561.647 159.878 561.336 158.932C579.152 136.262 600.5 116.606 624.562 100.719C629.759 96.4269 634.021 91.1148 637.085 85.1108C637.204 84.6143 637.454 84.1587 637.808 83.7909C638.162 83.4231 638.608 83.1565 639.099 83.0186C639.591 82.8808 640.111 82.8767 640.604 83.0067C641.098 83.1367 641.548 83.3961 641.908 83.7583L706.586 148.436C706.948 148.796 707.207 149.246 707.337 149.739C707.467 150.233 707.463 150.753 707.325 151.244C707.187 151.736 706.921 152.182 706.553 152.536C706.185 152.89 705.73 153.14 705.233 153.259Z" stroke="black"/>
<path d="M443.361 4.86708C441.282 11.2789 440.54 18.049 441.18 24.759C446.96 53.0069 448.157 82.0008 444.725 110.629C443.835 111.078 442.833 111.255 441.844 111.136C440.855 111.017 439.923 110.609 439.165 109.962C438.518 109.639 437.77 109.585 437.083 109.812C432.999 110.315 428.89 110.588 424.776 110.629H395.173H365.571C361.456 110.588 357.347 110.315 353.263 109.812C352.577 109.585 351.828 109.639 351.182 109.962C350.424 110.609 349.492 111.017 348.503 111.136C347.513 111.255 346.511 111.078 345.622 110.629C342.19 82.0008 343.387 53.0069 349.167 24.759C349.807 18.049 349.064 11.2789 346.985 4.86708C346.718 4.43172 346.573 3.933 346.563 3.4225C346.553 2.91199 346.68 2.40827 346.93 1.96315C347.18 1.51803 347.545 1.14772 347.986 0.890516C348.427 0.633315 348.929 0.498491 349.439 0.500013H440.907C441.418 0.498491 441.919 0.633315 442.36 0.890516C442.802 1.14772 443.166 1.51803 443.416 1.96315C443.666 2.40827 443.793 2.91199 443.784 3.4225C443.774 3.933 443.628 4.43172 443.361 4.86708Z" stroke="black"/>
<path d="M290.324 16.1374C290.857 22.8568 292.761 29.3956 295.921 35.3499C312.071 59.2356 324.272 85.5645 332.057 113.327C331.407 114.082 330.549 114.629 329.59 114.898C328.63 115.167 327.613 115.146 326.665 114.839C325.944 114.788 325.232 115.024 324.684 115.496C321.104 117.524 317.412 119.348 313.626 120.961L286.277 132.289L258.928 143.618C255.111 145.155 251.21 146.475 247.245 147.572C246.524 147.626 245.853 147.962 245.379 148.508C244.927 149.396 244.222 150.13 243.353 150.618C242.485 151.106 241.491 151.327 240.497 151.252C226.371 126.116 216.382 98.8714 210.912 70.5618C208.935 64.1176 205.658 58.1471 201.284 53.019C200.871 52.7189 200.545 52.3138 200.341 51.8459C200.137 51.3779 200.061 50.864 200.122 50.357C200.183 49.85 200.378 49.3685 200.687 48.9621C200.996 48.5557 201.408 48.2391 201.88 48.0451L286.385 13.0419C286.856 12.8451 287.371 12.7777 287.877 12.8465C288.383 12.9153 288.862 13.1179 289.263 13.4334C289.665 13.7489 289.975 14.166 290.161 14.6413C290.347 15.1166 290.404 15.6331 290.324 16.1374Z" stroke="black"/>
<path d="M589.054 53.019C584.68 58.1471 581.403 64.1176 579.427 70.5618C573.957 98.8714 563.967 126.116 549.841 151.252C548.847 151.327 547.854 151.106 546.985 150.618C546.117 150.13 545.412 149.396 544.959 148.508C544.485 147.962 543.815 147.626 543.094 147.572C539.128 146.475 535.227 145.155 531.41 143.618L504.061 132.289L476.712 120.961C472.926 119.348 469.234 117.524 465.654 115.496C465.106 115.024 464.394 114.788 463.673 114.839C462.725 115.146 461.708 115.167 460.749 114.898C459.789 114.629 458.931 114.082 458.281 113.327C466.066 85.5645 478.267 59.2356 494.417 35.3499C497.577 29.3956 499.481 22.8568 500.014 16.1374C499.934 15.6331 499.991 15.1166 500.177 14.6413C500.363 14.166 500.674 13.7489 501.075 13.4334C501.476 13.1179 501.955 12.9153 502.461 12.8465C502.967 12.7777 503.482 12.8451 503.953 13.0419L588.458 48.0451C588.93 48.2391 589.342 48.5557 589.651 48.9621C589.96 49.3685 590.156 49.85 590.216 50.357C590.277 50.864 590.201 51.3779 589.997 51.8459C589.793 52.3138 589.467 52.7189 589.054 53.019Z" stroke="black"/>
<path d="M53.019 201.288C58.1471 205.662 64.1176 208.939 70.5618 210.916C98.8714 216.385 126.116 226.375 151.252 240.501C151.327 241.495 151.106 242.488 150.618 243.357C150.13 244.226 149.396 244.93 148.508 245.383C147.963 245.857 147.626 246.528 147.573 247.248C146.475 251.214 145.155 255.115 143.618 258.932L132.289 286.281L120.961 313.63C119.349 317.416 117.524 321.108 115.496 324.688C115.024 325.236 114.788 325.948 114.839 326.669C115.146 327.617 115.167 328.634 114.898 329.593C114.629 330.553 114.082 331.411 113.327 332.061C85.5645 324.276 59.2357 312.075 35.35 295.925C29.3957 292.765 22.8568 290.861 16.1374 290.328C15.6331 290.408 15.1166 290.351 14.6413 290.165C14.166 289.979 13.749 289.669 13.4335 289.267C13.118 288.866 12.9153 288.387 12.8465 287.881C12.7777 287.375 12.8451 286.86 13.0419 286.389L48.0451 201.884C48.2391 201.412 48.5557 201 48.9621 200.691C49.3685 200.382 49.85 200.187 50.357 200.126C50.864 200.065 51.3781 200.141 51.846 200.345C52.314 200.549 52.7189 200.875 53.019 201.288Z" stroke="black"/>
<path d="M153.261 85.1108C156.325 91.1148 160.587 96.4269 165.784 100.719C189.846 116.606 211.194 136.262 229.01 158.932C228.699 159.878 228.115 160.712 227.332 161.327C226.548 161.943 225.6 162.313 224.607 162.392C223.922 162.621 223.354 163.111 223.029 163.757C220.497 167.001 217.785 170.099 214.904 173.038L193.972 193.97L173.04 214.902C170.101 217.783 167.003 220.495 163.759 223.027C163.113 223.352 162.623 223.92 162.394 224.605C162.315 225.598 161.945 226.546 161.329 227.33C160.714 228.113 159.88 228.697 158.934 229.008C136.264 211.192 116.608 189.844 100.721 165.782C96.429 160.585 91.1168 156.323 85.1128 153.259C84.6163 153.14 84.1606 152.89 83.7928 152.536C83.425 152.182 83.1585 151.736 83.0206 151.244C82.8827 150.753 82.8786 150.233 83.0086 149.739C83.1387 149.246 83.3981 148.796 83.7602 148.436L148.438 83.7583C148.798 83.3961 149.248 83.1367 149.742 83.0067C150.235 82.8767 150.755 82.8808 151.246 83.0186C151.738 83.1565 152.184 83.4231 152.538 83.7909C152.892 84.1587 153.142 84.6143 153.261 85.1108Z" stroke="black"/>
<path d="M737.325 589.052C732.197 584.678 726.227 581.401 719.783 579.424C691.473 573.955 664.228 563.965 639.092 549.839C639.018 548.845 639.238 547.852 639.726 546.983C640.215 546.115 640.948 545.41 641.836 544.957C642.382 544.483 642.718 543.813 642.772 543.092C643.869 539.126 645.19 535.225 646.726 531.408L658.055 504.059L669.383 476.71C670.996 472.924 672.82 469.232 674.848 465.652C675.32 465.104 675.557 464.392 675.506 463.671C675.198 462.723 675.178 461.706 675.447 460.747C675.716 459.787 676.262 458.929 677.017 458.279C704.78 466.064 731.109 478.265 754.994 494.416C760.949 497.575 767.487 499.479 774.207 500.012C774.711 499.932 775.228 499.989 775.703 500.175C776.178 500.362 776.595 500.671 776.911 501.073C777.226 501.474 777.429 501.953 777.498 502.459C777.567 502.965 777.499 503.48 777.302 503.951L742.299 588.456C742.105 588.928 741.789 589.34 741.382 589.649C740.976 589.958 740.494 590.153 739.987 590.214C739.48 590.275 738.966 590.199 738.498 589.995C738.03 589.791 737.625 589.465 737.325 589.052Z" stroke="black"/>
<path d="M637.085 705.231C634.021 699.227 629.759 693.915 624.562 689.623C600.5 673.736 579.152 654.08 561.336 631.41C561.647 630.464 562.231 629.63 563.014 629.015C563.798 628.399 564.745 628.029 565.739 627.95C566.424 627.721 566.992 627.231 567.317 626.585C569.849 623.341 572.561 620.243 575.442 617.304L596.374 596.372L617.306 575.44C620.245 572.559 623.343 569.847 626.587 567.315C627.232 566.99 627.723 566.422 627.952 565.737C628.031 564.744 628.401 563.796 629.017 563.012C629.632 562.229 630.466 561.645 631.412 561.334C654.082 579.15 673.738 600.498 689.625 624.56C693.917 629.757 699.229 634.019 705.233 637.083C705.73 637.202 706.185 637.452 706.553 637.806C706.921 638.16 707.187 638.606 707.325 639.098C707.463 639.589 707.467 640.109 707.337 640.603C707.207 641.096 706.948 641.546 706.586 641.906L641.908 706.584C641.548 706.946 641.098 707.205 640.604 707.335C640.111 707.465 639.591 707.461 639.099 707.323C638.608 707.186 638.162 706.919 637.808 706.551C637.454 706.183 637.204 705.728 637.085 705.231Z" stroke="black"/>
<path d="M346.985 785.473C349.064 779.061 349.807 772.291 349.167 765.581C343.387 737.333 342.19 708.339 345.622 679.711C346.511 679.262 347.513 679.085 348.503 679.204C349.492 679.323 350.424 679.731 351.182 680.378C351.828 680.701 352.577 680.755 353.263 680.528C357.347 680.025 361.456 679.752 365.571 679.711H395.173H424.776C428.89 679.752 432.999 680.025 437.083 680.528C437.77 680.755 438.518 680.701 439.165 680.378C439.923 679.731 440.855 679.323 441.844 679.204C442.833 679.085 443.835 679.262 444.725 679.711C448.157 708.339 446.96 737.333 441.18 765.581C440.54 772.291 441.282 779.061 443.361 785.473C443.628 785.908 443.774 786.407 443.784 786.917C443.793 787.428 443.666 787.932 443.416 788.377C443.166 788.822 442.802 789.192 442.36 789.449C441.919 789.707 441.418 789.841 440.907 789.84H349.439C348.929 789.841 348.427 789.707 347.986 789.449C347.545 789.192 347.18 788.822 346.93 788.377C346.68 787.932 346.553 787.428 346.563 786.917C346.573 786.407 346.718 785.908 346.985 785.473Z" stroke="black"/>
<path d="M201.284 737.323C205.658 732.195 208.935 726.225 210.912 719.78C216.382 691.471 226.371 664.226 240.497 639.09C241.491 639.016 242.485 639.236 243.353 639.724C244.222 640.212 244.927 640.946 245.379 641.834C245.853 642.38 246.524 642.716 247.245 642.77C251.21 643.867 255.111 645.188 258.928 646.725L286.277 658.053L313.626 669.381C317.412 670.994 321.104 672.818 324.684 674.846C325.232 675.318 325.944 675.555 326.665 675.504C327.613 675.196 328.63 675.176 329.59 675.445C330.549 675.714 331.407 676.26 332.057 677.015C324.272 704.778 312.071 731.107 295.921 754.992C292.761 760.947 290.857 767.486 290.324 774.205C290.404 774.709 290.347 775.226 290.161 775.701C289.975 776.176 289.665 776.593 289.263 776.909C288.862 777.224 288.383 777.427 287.877 777.496C287.371 777.565 286.856 777.497 286.385 777.3L201.88 742.297C201.408 742.103 200.996 741.787 200.687 741.38C200.378 740.974 200.183 740.492 200.122 739.985C200.061 739.478 200.137 738.964 200.341 738.496C200.545 738.028 200.871 737.624 201.284 737.323Z" stroke="black"/>
<path d="M500.014 774.205C499.481 767.486 497.577 760.947 494.417 754.992C478.267 731.107 466.066 704.778 458.281 677.015C458.931 676.26 459.789 675.714 460.749 675.445C461.708 675.176 462.725 675.196 463.673 675.504C464.394 675.555 465.106 675.318 465.654 674.846C469.234 672.818 472.926 670.994 476.712 669.381L504.061 658.053L531.41 646.725C535.227 645.188 539.128 643.867 543.094 642.77C543.815 642.716 544.485 642.38 544.959 641.834C545.412 640.946 546.117 640.212 546.985 639.724C547.854 639.236 548.847 639.016 549.841 639.09C563.967 664.226 573.957 691.471 579.427 719.78C581.403 726.225 584.68 732.195 589.054 737.323C589.467 737.624 589.793 738.028 589.997 738.496C590.201 738.964 590.277 739.478 590.216 739.985C590.156 740.492 589.96 740.974 589.651 741.38C589.342 741.787 588.93 742.103 588.458 742.297L503.953 777.3C503.482 777.497 502.967 777.565 502.461 777.496C501.955 777.427 501.476 777.224 501.075 776.909C500.674 776.593 500.363 776.176 500.177 775.701C499.991 775.226 499.934 774.709 500.014 774.205Z" stroke="black"/>
<path d="M16.1374 500.012C22.8568 499.479 29.3957 497.575 35.35 494.416C59.2357 478.265 85.5645 466.064 113.327 458.279C114.082 458.929 114.629 459.787 114.898 460.747C115.167 461.706 115.146 462.723 114.839 463.671C114.788 464.392 115.024 465.104 115.496 465.652C117.524 469.232 119.349 472.924 120.961 476.71L132.289 504.059L143.618 531.408C145.155 535.225 146.475 539.126 147.573 543.092C147.626 543.813 147.963 544.483 148.508 544.957C149.396 545.41 150.13 546.115 150.618 546.983C151.106 547.852 151.327 548.845 151.252 549.839C126.116 563.965 98.8714 573.955 70.5618 579.424C64.1176 581.401 58.1471 584.678 53.019 589.052C52.7189 589.465 52.314 589.791 51.846 589.995C51.3781 590.199 50.864 590.275 50.357 590.214C49.85 590.153 49.3685 589.958 48.9621 589.649C48.5557 589.34 48.2391 588.928 48.0451 588.456L13.0419 503.951C12.8451 503.48 12.7777 502.965 12.8465 502.459C12.9153 501.953 13.118 501.474 13.4335 501.073C13.749 500.671 14.166 500.362 14.6413 500.175C15.1166 499.989 15.6331 499.932 16.1374 500.012Z" stroke="black"/>
<path d="M85.1128 637.083C91.1168 634.019 96.429 629.757 100.721 624.56C116.608 600.498 136.264 579.15 158.934 561.334C159.88 561.645 160.714 562.229 161.329 563.012C161.945 563.796 162.315 564.744 162.394 565.737C162.623 566.422 163.113 566.99 163.759 567.315C167.003 569.847 170.101 572.559 173.04 575.44L193.972 596.372L214.904 617.304C217.785 620.243 220.497 623.341 223.029 626.585C223.354 627.231 223.922 627.721 224.607 627.95C225.6 628.029 226.548 628.399 227.332 629.015C228.115 629.63 228.699 630.464 229.01 631.41C211.194 654.08 189.846 673.736 165.784 689.623C160.587 693.915 156.325 699.227 153.261 705.231C153.142 705.728 152.892 706.183 152.538 706.551C152.184 706.919 151.738 707.186 151.246 707.323C150.755 707.461 150.235 707.465 149.742 707.335C149.248 707.205 148.798 706.946 148.438 706.584L83.7602 641.906C83.3981 641.546 83.1387 641.096 83.0086 640.603C82.8786 640.109 82.8827 639.589 83.0206 639.098C83.1585 638.606 83.425 638.16 83.7928 637.806C84.1606 637.452 84.6163 637.202 85.1128 637.083Z" stroke="black"/>
<path d="M674.021 395.17C674.017 321.217 644.636 250.294 592.342 198.003C540.048 145.712 469.124 116.336 395.171 116.336C321.218 116.336 250.294 145.712 198 198.003C145.705 250.294 116.325 321.217 116.32 395.17C116.325 469.123 145.705 540.045 198 592.336C250.294 644.627 321.218 674.004 395.171 674.004C469.124 674.004 540.048 644.627 592.342 592.336C644.636 540.045 674.017 469.123 674.021 395.17Z" stroke="black"/>
<path d="M668.327 395.17C668.327 322.723 639.548 253.244 588.321 202.016C537.093 150.789 467.614 122.01 395.167 122.01C322.721 122.01 253.242 150.789 202.014 202.016C150.787 253.244 122.008 322.723 122.008 395.17C122.008 467.616 150.787 537.095 202.014 588.323C253.242 639.55 322.721 668.329 395.167 668.329C467.614 668.329 537.093 639.55 588.321 588.323C639.548 537.095 668.327 467.616 668.327 395.17Z" stroke="black"/>
<path d="M4.86708 346.981C11.2789 349.06 18.049 349.803 24.759 349.163C53.0069 343.383 82.0008 342.186 110.629 345.618C111.078 346.507 111.255 347.509 111.136 348.499C111.018 349.488 110.609 350.42 109.962 351.178C109.639 351.824 109.585 352.573 109.812 353.259C110.315 357.343 110.588 361.452 110.629 365.567V395.169V424.772C110.588 428.887 110.315 432.996 109.812 437.079C109.585 437.766 109.639 438.514 109.962 439.161C110.609 439.919 111.018 440.851 111.136 441.84C111.255 442.829 111.078 443.832 110.629 444.721C82.0008 448.153 53.0069 446.956 24.759 441.176C18.049 440.536 11.2789 441.278 4.86708 443.357C4.43172 443.624 3.93313 443.77 3.42262 443.78C2.91212 443.789 2.40827 443.662 1.96315 443.412C1.51803 443.162 1.14772 442.798 0.890516 442.357C0.633315 441.916 0.498491 441.414 0.500013 440.903V349.435C0.498491 348.925 0.633315 348.423 0.890516 347.982C1.14772 347.541 1.51803 347.177 1.96315 346.926C2.40827 346.676 2.91212 346.549 3.42262 346.559C3.93313 346.569 4.43172 346.714 4.86708 346.981Z" stroke="black"/>
<path d="M785.477 443.357C779.065 441.278 772.295 440.536 765.585 441.176C737.337 446.956 708.343 448.153 679.715 444.721C679.266 443.832 679.089 442.829 679.208 441.84C679.326 440.851 679.735 439.919 680.381 439.161C680.704 438.514 680.759 437.766 680.532 437.079C680.029 432.996 679.756 428.887 679.715 424.772V395.169V365.567C679.756 361.452 680.029 357.343 680.532 353.259C680.759 352.573 680.704 351.824 680.381 351.178C679.735 350.42 679.326 349.488 679.208 348.499C679.089 347.509 679.266 346.507 679.715 345.618C708.343 342.186 737.337 343.383 765.585 349.163C772.295 349.803 779.065 349.06 785.477 346.981C785.912 346.714 786.411 346.569 786.921 346.559C787.432 346.549 787.936 346.676 788.381 346.926C788.826 347.177 789.196 347.541 789.453 347.982C789.71 348.423 789.845 348.925 789.844 349.435V440.903C789.845 441.414 789.71 441.916 789.453 442.357C789.196 442.798 788.826 443.162 788.381 443.412C787.936 443.662 787.432 443.789 786.921 443.78C786.411 443.77 785.912 443.624 785.477 443.357Z" stroke="black"/>
</svg>
