<svg width="1079" height="411" viewBox="0 0 1079 411" fill="none" xmlns="http://www.w3.org/2000/svg">
<path d="M111.219 298.417H967.252V113.156H111.219V298.417Z" stroke="black"/>
<path d="M108.023 301.614H970.445V109.965H108.023V301.614Z" stroke="black"/>
<path d="M1062.79 197.236C1063.2 203.179 1063.2 209.143 1062.79 215.085" stroke="black"/>
<path d="M1065.64 197.236C1066.05 203.179 1066.05 209.143 1065.64 215.085" stroke="black"/>
<path d="M1071.44 179.051C1075.12 196.935 1075.12 215.383 1071.44 233.268" stroke="black"/>
<path d="M1062.8 197.237H1065.64C1065.21 190.728 1064.3 184.26 1062.92 177.883C1062.86 177.61 1062.86 177.328 1062.92 177.053C1062.97 176.779 1063.08 176.52 1063.24 176.291C1063.4 176.062 1063.61 175.868 1063.85 175.723C1064.09 175.577 1064.35 175.483 1064.63 175.445L1072.03 175.02C1072.76 174.978 1073.48 175.198 1074.06 175.639C1074.63 176.08 1075.03 176.714 1075.19 177.425C1079.21 196.371 1079.21 215.951 1075.19 234.898C1075.03 235.609 1074.63 236.243 1074.06 236.684C1073.48 237.125 1072.76 237.345 1072.03 237.303L1064.63 236.877C1064.35 236.84 1064.09 236.745 1063.85 236.6C1063.61 236.454 1063.4 236.261 1063.24 236.032C1063.08 235.803 1062.97 235.543 1062.92 235.269C1062.86 234.995 1062.86 234.713 1062.92 234.439C1064.3 228.063 1065.21 221.595 1065.64 215.086H1062.8C1062.39 220.943 1061.59 226.766 1060.39 232.514C1059.82 235.248 1058.41 237.735 1056.36 239.628C1054.31 241.521 1051.72 242.725 1048.95 243.071L1005.16 248.291L1003.27 248.527C998.805 249.085 994.289 247.933 990.634 245.302C986.978 242.67 984.452 238.753 983.563 234.337C979.82 215.74 979.82 196.583 983.563 177.985C984.452 173.569 986.978 169.653 990.634 167.021C994.289 164.389 998.805 163.237 1003.27 163.796L1005.16 164.031L1048.95 169.252C1051.72 169.598 1054.31 170.802 1056.36 172.695C1058.41 174.588 1059.82 177.075 1060.39 179.809C1061.59 185.557 1062.39 191.38 1062.8 197.237Z" stroke="black"/>
<path d="M1039.19 188.312C1039.19 187.889 1039.36 187.483 1039.66 187.184C1039.96 186.885 1040.36 186.717 1040.79 186.717C1041.21 186.717 1041.62 186.885 1041.91 187.184C1042.21 187.483 1042.38 187.889 1042.38 188.312C1042.38 188.736 1042.21 189.141 1041.91 189.441C1041.62 189.74 1041.21 189.908 1040.79 189.908C1040.36 189.908 1039.96 189.74 1039.66 189.441C1039.36 189.141 1039.19 188.736 1039.19 188.312Z" stroke="black"/>
<path d="M1001.48 188.314C1001.48 187.89 1001.65 187.484 1001.95 187.184C1002.25 186.885 1002.65 186.717 1003.07 186.717C1003.5 186.717 1003.9 186.885 1004.2 187.184C1004.5 187.484 1004.67 187.89 1004.67 188.314C1004.67 188.737 1004.5 189.144 1004.2 189.443C1003.9 189.743 1003.5 189.911 1003.07 189.911C1002.65 189.911 1002.25 189.743 1001.95 189.443C1001.65 189.144 1001.48 188.737 1001.48 188.314Z" stroke="black"/>
<path d="M1001.48 224.013C1001.48 223.59 1001.65 223.183 1001.95 222.884C1002.25 222.584 1002.65 222.416 1003.07 222.416C1003.5 222.416 1003.9 222.584 1004.2 222.884C1004.5 223.183 1004.67 223.59 1004.67 224.013C1004.67 224.437 1004.5 224.843 1004.2 225.143C1003.9 225.442 1003.5 225.61 1003.07 225.61C1002.65 225.61 1002.25 225.442 1001.95 225.143C1001.65 224.843 1001.48 224.437 1001.48 224.013Z" stroke="black"/>
<path d="M1039.19 224.012C1039.19 223.588 1039.36 223.183 1039.66 222.883C1039.96 222.584 1040.36 222.416 1040.79 222.416C1041.21 222.416 1041.62 222.584 1041.91 222.883C1042.21 223.183 1042.38 223.588 1042.38 224.012C1042.38 224.435 1042.21 224.841 1041.91 225.14C1041.62 225.439 1041.21 225.607 1040.79 225.607C1040.36 225.607 1039.96 225.439 1039.66 225.14C1039.36 224.841 1039.19 224.435 1039.19 224.012Z" stroke="black"/>
<path d="M15.9097 206.195C15.4989 200.253 15.4989 194.289 15.9097 188.346" stroke="black"/>
<path d="M13.0581 206.195C12.6473 200.253 12.6473 194.289 13.0581 188.346" stroke="black"/>
<path d="M7.26363 224.377C3.57879 206.492 3.57879 188.044 7.26363 170.16" stroke="black"/>
<path d="M15.9072 206.191H13.0581C13.493 212.7 14.4031 219.168 15.7811 225.544C15.8402 225.818 15.8421 226.1 15.7867 226.374C15.7313 226.648 15.6199 226.908 15.4593 227.137C15.2988 227.366 15.0926 227.559 14.8538 227.705C14.615 227.85 14.3487 227.945 14.0716 227.983L6.66838 228.408C5.94243 228.45 5.22554 228.23 4.64757 227.789C4.0696 227.348 3.66879 226.714 3.51773 226.003C-0.50591 207.056 -0.50591 187.476 3.51773 168.53C3.66879 167.819 4.0696 167.185 4.64757 166.744C5.22554 166.303 5.94243 166.083 6.66838 166.125L14.0716 166.55C14.3487 166.588 14.615 166.682 14.8538 166.828C15.0926 166.973 15.2988 167.167 15.4593 167.396C15.6199 167.625 15.7313 167.884 15.7867 168.159C15.8421 168.433 15.8402 168.715 15.7811 168.989C14.4031 175.365 13.493 181.833 13.0581 188.342H15.9072C16.3121 182.485 17.1151 176.662 18.3107 170.914C18.8793 168.18 20.2884 165.693 22.3408 163.8C24.3931 161.907 26.986 160.703 29.7565 160.357L73.5477 155.136L75.4282 154.901C79.898 154.342 84.4137 155.494 88.0696 158.126C91.7255 160.758 94.2512 164.674 95.1401 169.09C98.8834 187.688 98.8834 206.845 95.1401 225.443C94.2512 229.859 91.7255 233.775 88.0696 236.407C84.4137 239.038 79.898 240.19 75.4282 239.632L73.5477 239.397L29.7565 234.176C26.986 233.83 24.3931 232.626 22.3408 230.733C20.2884 228.84 18.8793 226.352 18.3107 223.619C17.1151 217.871 16.3121 212.048 15.9072 206.191Z" stroke="black"/>
<path d="M39.5145 215.117C39.5141 215.541 39.3456 215.947 39.0462 216.246C38.7467 216.545 38.3407 216.713 37.9174 216.713C37.4941 216.713 37.0881 216.545 36.7886 216.246C36.4891 215.947 36.3207 215.541 36.3203 215.117C36.3207 214.694 36.4891 214.288 36.7886 213.989C37.0881 213.69 37.4941 213.522 37.9174 213.522C38.3407 213.522 38.7467 213.69 39.0462 213.989C39.3456 214.288 39.5141 214.694 39.5145 215.117Z" stroke="black"/>
<path d="M77.2254 215.116C77.2254 215.539 77.0571 215.946 76.7576 216.245C76.4581 216.545 76.0519 216.713 75.6283 216.713C75.2048 216.713 74.7985 216.545 74.499 216.245C74.1995 215.946 74.0312 215.539 74.0312 215.116C74.0312 214.692 74.1995 214.286 74.499 213.987C74.7985 213.687 75.2048 213.519 75.6283 213.519C76.0519 213.519 76.4581 213.687 76.7576 213.987C77.0571 214.286 77.2254 214.692 77.2254 215.116Z" stroke="black"/>
<path d="M77.2254 179.415C77.2254 179.838 77.0571 180.244 76.7576 180.544C76.4581 180.843 76.0519 181.012 75.6283 181.012C75.2048 181.012 74.7985 180.843 74.499 180.544C74.1995 180.244 74.0313 179.838 74.0312 179.415C74.0313 178.991 74.1995 178.585 74.499 178.285C74.7985 177.986 75.2048 177.817 75.6283 177.817C76.0519 177.817 76.4581 177.986 76.7576 178.285C77.0571 178.585 77.2254 178.991 77.2254 179.415Z" stroke="black"/>
<path d="M39.5145 179.416C39.5141 179.839 39.3456 180.245 39.0462 180.544C38.7467 180.844 38.3407 181.012 37.9174 181.012C37.4941 181.012 37.0881 180.844 36.7886 180.544C36.4891 180.245 36.3207 179.839 36.3203 179.416C36.3207 178.993 36.4891 178.587 36.7886 178.288C37.0881 177.989 37.4941 177.82 37.9174 177.82C38.3407 177.82 38.7467 177.989 39.0462 178.288C39.3456 178.587 39.5141 178.993 39.5145 179.416Z" stroke="black"/>
<path d="M532.562 395.094C526.62 395.505 520.656 395.505 514.713 395.094" stroke="black"/>
<path d="M532.562 397.942C526.62 398.353 520.656 398.353 514.713 397.942" stroke="black"/>
<path d="M550.758 403.744C532.873 407.429 514.425 407.429 496.541 403.744" stroke="black"/>
<path d="M532.562 395.093V397.942C539.071 397.507 545.539 396.597 551.915 395.219C552.189 395.16 552.471 395.158 552.745 395.213C553.02 395.269 553.279 395.38 553.508 395.541C553.737 395.701 553.93 395.907 554.076 396.146C554.221 396.385 554.316 396.651 554.354 396.928L554.779 404.332C554.821 405.058 554.601 405.774 554.16 406.352C553.719 406.93 553.085 407.331 552.374 407.482C533.428 411.506 513.848 411.506 494.901 407.482C494.19 407.331 493.556 406.93 493.115 406.352C492.674 405.774 492.454 405.058 492.496 404.332L492.921 396.928C492.959 396.651 493.054 396.385 493.199 396.146C493.345 395.907 493.538 395.701 493.767 395.541C493.996 395.38 494.256 395.269 494.53 395.213C494.804 395.158 495.086 395.16 495.36 395.219C501.736 396.597 508.204 397.507 514.713 397.942V395.093C508.856 394.688 503.033 393.885 497.285 392.689C494.551 392.121 492.064 390.712 490.171 388.659C488.278 386.607 487.074 384.014 486.728 381.243L481.507 337.452L481.272 335.572C480.714 331.102 481.866 326.586 484.497 322.93C487.129 319.274 491.045 316.749 495.461 315.86C514.059 312.117 533.216 312.117 551.814 315.86C556.23 316.749 560.146 319.274 562.778 322.93C565.41 326.586 566.561 331.102 566.003 335.572L565.768 337.452L560.547 381.243C560.201 384.014 558.997 386.607 557.104 388.659C555.211 390.712 552.724 392.121 549.99 392.689C544.242 393.885 538.419 394.688 532.562 395.093Z" stroke="black"/>
<path d="M541.498 371.493C541.922 371.494 542.327 371.662 542.627 371.962C542.926 372.261 543.094 372.667 543.094 373.09C543.094 373.514 542.926 373.92 542.627 374.219C542.327 374.519 541.922 374.687 541.498 374.688C541.075 374.687 540.669 374.519 540.37 374.219C540.071 373.92 539.903 373.514 539.903 373.09C539.903 372.667 540.071 372.261 540.37 371.962C540.669 371.662 541.075 371.494 541.498 371.493Z" stroke="black"/>
<path d="M541.497 333.767C541.92 333.767 542.327 333.935 542.626 334.235C542.926 334.534 543.094 334.94 543.094 335.364C543.094 335.787 542.926 336.194 542.626 336.493C542.327 336.793 541.92 336.961 541.497 336.961C541.073 336.961 540.667 336.793 540.367 336.493C540.068 336.194 539.9 335.787 539.9 335.364C539.9 334.94 540.068 334.534 540.367 334.235C540.667 333.935 541.073 333.767 541.497 333.767Z" stroke="black"/>
<path d="M505.786 333.767C506.209 333.767 506.616 333.935 506.915 334.235C507.215 334.534 507.383 334.94 507.383 335.364C507.383 335.787 507.215 336.194 506.915 336.493C506.616 336.793 506.209 336.961 505.786 336.961C505.362 336.961 504.956 336.793 504.656 336.493C504.357 336.194 504.189 335.787 504.189 335.364C504.189 334.94 504.357 334.534 504.656 334.235C504.956 333.935 505.362 333.767 505.786 333.767Z" stroke="black"/>
<path d="M505.787 371.493C506.21 371.494 506.616 371.662 506.916 371.962C507.215 372.261 507.383 372.667 507.383 373.09C507.383 373.514 507.215 373.92 506.916 374.219C506.616 374.519 506.21 374.687 505.787 374.688C505.364 374.687 504.958 374.519 504.659 374.219C504.36 373.92 504.192 373.514 504.192 373.09C504.192 372.667 504.36 372.261 504.659 371.962C504.958 371.662 505.364 371.494 505.787 371.493Z" stroke="black"/>
<path d="M421.602 395.094C415.659 395.505 409.695 395.505 403.753 395.094" stroke="black"/>
<path d="M421.602 397.942C415.659 398.353 409.695 398.353 403.753 397.942" stroke="black"/>
<path d="M439.797 403.744C421.912 407.429 403.464 407.429 385.58 403.744" stroke="black"/>
<path d="M421.601 395.093V397.942C428.11 397.507 434.578 396.597 440.954 395.219C441.228 395.16 441.51 395.158 441.784 395.213C442.059 395.269 442.318 395.38 442.547 395.541C442.776 395.701 442.97 395.907 443.115 396.146C443.261 396.385 443.355 396.651 443.393 396.928L443.818 404.332C443.86 405.058 443.64 405.774 443.199 406.352C442.758 406.93 442.124 407.331 441.413 407.482C422.467 411.506 402.887 411.506 383.94 407.482C383.229 407.331 382.595 406.93 382.154 406.352C381.713 405.774 381.493 405.058 381.535 404.332L381.96 396.928C381.998 396.651 382.093 396.385 382.238 396.146C382.384 395.907 382.577 395.701 382.806 395.541C383.035 395.38 383.295 395.269 383.569 395.213C383.843 395.158 384.125 395.16 384.399 395.219C390.775 396.597 397.243 397.507 403.752 397.942V395.093C397.895 394.688 392.072 393.885 386.324 392.689C383.59 392.121 381.103 390.712 379.21 388.659C377.317 386.607 376.113 384.014 375.767 381.243L370.546 337.452L370.311 335.572C369.753 331.102 370.905 326.586 373.536 322.93C376.168 319.274 380.084 316.749 384.5 315.86C403.098 312.117 422.255 312.117 440.853 315.86C445.269 316.749 449.185 319.274 451.817 322.93C454.449 326.586 455.601 331.102 455.042 335.572L454.807 337.452L449.586 381.243C449.24 384.014 448.036 386.607 446.143 388.659C444.25 390.712 441.763 392.121 439.029 392.689C433.281 393.885 427.458 394.688 421.601 395.093Z" stroke="black"/>
<path d="M430.537 371.493C430.961 371.494 431.366 371.662 431.666 371.962C431.965 372.261 432.133 372.667 432.133 373.09C432.133 373.514 431.965 373.92 431.666 374.219C431.366 374.519 430.961 374.687 430.537 374.688C430.114 374.687 429.708 374.519 429.409 374.219C429.11 373.92 428.942 373.514 428.942 373.09C428.942 372.667 429.11 372.261 429.409 371.962C429.708 371.662 430.114 371.494 430.537 371.493Z" stroke="black"/>
<path d="M430.536 333.767C430.959 333.767 431.366 333.935 431.665 334.235C431.965 334.534 432.133 334.94 432.133 335.364C432.133 335.787 431.965 336.194 431.665 336.493C431.366 336.793 430.959 336.961 430.536 336.961C430.112 336.961 429.706 336.793 429.406 336.493C429.107 336.194 428.939 335.787 428.939 335.364C428.939 334.94 429.107 334.534 429.406 334.235C429.706 333.935 430.112 333.767 430.536 333.767Z" stroke="black"/>
<path d="M394.825 333.767C395.248 333.767 395.655 333.935 395.954 334.235C396.254 334.534 396.422 334.94 396.422 335.364C396.422 335.787 396.254 336.194 395.954 336.493C395.655 336.793 395.248 336.961 394.825 336.961C394.401 336.961 393.995 336.793 393.695 336.493C393.396 336.194 393.228 335.787 393.228 335.364C393.228 334.94 393.396 334.534 393.695 334.235C393.995 333.935 394.401 333.767 394.825 333.767Z" stroke="black"/>
<path d="M394.826 371.493C395.25 371.494 395.655 371.662 395.955 371.962C396.254 372.261 396.422 372.667 396.422 373.09C396.422 373.514 396.254 373.92 395.955 374.219C395.655 374.519 395.25 374.687 394.826 374.688C394.403 374.687 393.997 374.519 393.698 374.219C393.399 373.92 393.231 373.514 393.231 373.09C393.231 372.667 393.399 372.261 393.698 371.962C393.997 371.662 394.403 371.494 394.826 371.493Z" stroke="black"/>
<path d="M865.438 395.094C859.495 395.505 853.531 395.505 847.588 395.094" stroke="black"/>
<path d="M865.438 397.942C859.495 398.353 853.531 398.353 847.588 397.942" stroke="black"/>
<path d="M883.617 403.744C865.733 407.429 847.285 407.429 829.4 403.744" stroke="black"/>
<path d="M865.437 395.093V397.942C871.946 397.507 878.414 396.597 884.79 395.219C885.064 395.16 885.346 395.158 885.62 395.213C885.895 395.269 886.154 395.38 886.383 395.541C886.612 395.701 886.805 395.907 886.951 396.146C887.096 396.385 887.191 396.651 887.229 396.928L887.654 404.332C887.696 405.058 887.476 405.774 887.035 406.352C886.594 406.93 885.96 407.331 885.249 407.482C866.303 411.506 846.723 411.506 827.776 407.482C827.065 407.331 826.431 406.93 825.99 406.352C825.549 405.774 825.329 405.058 825.371 404.332L825.796 396.928C825.834 396.651 825.929 396.385 826.074 396.146C826.22 395.907 826.413 395.701 826.642 395.541C826.871 395.38 827.131 395.269 827.405 395.213C827.679 395.158 827.961 395.16 828.235 395.219C834.611 396.597 841.079 397.507 847.588 397.942V395.093C841.731 394.688 835.908 393.885 830.16 392.689C827.426 392.121 824.939 390.712 823.046 388.659C821.153 386.607 819.949 384.014 819.603 381.243L814.382 337.452L814.147 335.572C813.589 331.102 814.741 326.586 817.372 322.93C820.004 319.274 823.92 316.749 828.336 315.86C846.934 312.117 866.091 312.117 884.689 315.86C889.105 316.749 893.021 319.274 895.653 322.93C898.285 326.586 899.436 331.102 898.878 335.572L898.643 337.452L893.422 381.243C893.076 384.014 891.872 386.607 889.979 388.659C888.086 390.712 885.599 392.121 882.865 392.689C877.117 393.885 871.294 394.688 865.437 395.093Z" stroke="black"/>
<path d="M874.358 371.493C874.781 371.494 875.187 371.662 875.486 371.962C875.785 372.261 875.953 372.667 875.953 373.09C875.953 373.514 875.785 373.92 875.486 374.219C875.187 374.519 874.781 374.687 874.358 374.688C873.934 374.687 873.528 374.519 873.229 374.219C872.93 373.92 872.762 373.514 872.762 373.09C872.762 372.667 872.93 372.261 873.229 371.962C873.528 371.662 873.934 371.494 874.358 371.493Z" stroke="black"/>
<path d="M874.356 333.767C874.78 333.767 875.186 333.935 875.485 334.235C875.785 334.534 875.953 334.94 875.953 335.364C875.953 335.787 875.785 336.194 875.485 336.493C875.186 336.793 874.78 336.961 874.356 336.961C873.933 336.961 873.526 336.793 873.227 336.493C872.927 336.194 872.759 335.787 872.759 335.364C872.759 334.94 872.927 334.534 873.227 334.235C873.526 333.935 873.933 333.767 874.356 333.767Z" stroke="black"/>
<path d="M838.661 333.767C839.084 333.767 839.491 333.935 839.79 334.235C840.09 334.534 840.258 334.94 840.258 335.364C840.258 335.787 840.09 336.194 839.79 336.493C839.491 336.793 839.084 336.961 838.661 336.961C838.237 336.961 837.831 336.793 837.531 336.493C837.232 336.194 837.064 335.787 837.064 335.364C837.064 334.94 837.232 334.534 837.531 334.235C837.831 333.935 838.237 333.767 838.661 333.767Z" stroke="black"/>
<path d="M838.662 371.493C839.085 371.494 839.491 371.662 839.791 371.962C840.09 372.261 840.258 372.667 840.258 373.09C840.258 373.514 840.09 373.92 839.791 374.219C839.491 374.519 839.085 374.687 838.662 374.688C838.239 374.687 837.833 374.519 837.534 374.219C837.235 373.92 837.067 373.514 837.067 373.09C837.067 372.667 837.235 372.261 837.534 371.962C837.833 371.662 838.239 371.494 838.662 371.493Z" stroke="black"/>
<path d="M310.648 395.094C304.706 395.505 298.742 395.505 292.799 395.094" stroke="black"/>
<path d="M310.648 397.942C304.706 398.353 298.742 398.353 292.799 397.942" stroke="black"/>
<path d="M328.836 403.744C310.951 407.429 292.503 407.429 274.619 403.744" stroke="black"/>
<path d="M310.64 395.093V397.942C317.149 397.507 323.617 396.597 329.994 395.219C330.267 395.16 330.549 395.158 330.824 395.213C331.098 395.269 331.357 395.38 331.586 395.541C331.815 395.701 332.009 395.907 332.154 396.146C332.3 396.385 332.394 396.651 332.432 396.928L332.857 404.332C332.899 405.058 332.679 405.774 332.238 406.352C331.797 406.93 331.163 407.331 330.452 407.482C311.506 411.506 291.926 411.506 272.979 407.482C272.268 407.331 271.634 406.93 271.193 406.352C270.752 405.774 270.532 405.058 270.574 404.332L271 396.928C271.037 396.651 271.132 396.385 271.277 396.146C271.423 395.907 271.616 395.701 271.845 395.541C272.074 395.38 272.334 395.269 272.608 395.213C272.882 395.158 273.164 395.16 273.438 395.219C279.814 396.597 286.282 397.507 292.791 397.942V395.093C286.934 394.688 281.111 393.885 275.363 392.689C272.629 392.121 270.142 390.712 268.249 388.659C266.356 386.607 265.152 384.014 264.806 381.243L259.585 337.452L259.35 335.572C258.792 331.102 259.944 326.586 262.575 322.93C265.207 319.274 269.124 316.749 273.54 315.86C292.137 312.117 311.294 312.117 329.892 315.86C334.308 316.749 338.224 319.274 340.856 322.93C343.488 326.586 344.64 331.102 344.081 335.572L343.846 337.452L338.625 381.243C338.279 384.014 337.075 386.607 335.182 388.659C333.289 390.712 330.802 392.121 328.068 392.689C322.32 393.885 316.497 394.688 310.64 395.093Z" stroke="black"/>
<path d="M319.576 371.493C320 371.494 320.406 371.662 320.705 371.962C321.004 372.261 321.172 372.667 321.172 373.09C321.172 373.514 321.004 373.92 320.705 374.219C320.406 374.519 320 374.687 319.576 374.688C319.153 374.687 318.747 374.519 318.448 374.219C318.149 373.92 317.981 373.514 317.981 373.09C317.981 372.667 318.149 372.261 318.448 371.962C318.747 371.662 319.153 371.494 319.576 371.493Z" stroke="black"/>
<path d="M319.575 333.767C319.998 333.767 320.405 333.935 320.704 334.235C321.004 334.534 321.172 334.94 321.172 335.364C321.172 335.787 321.004 336.194 320.704 336.493C320.405 336.793 319.998 336.961 319.575 336.961C319.151 336.961 318.745 336.793 318.446 336.493C318.146 336.194 317.978 335.787 317.978 335.364C317.978 334.94 318.146 334.534 318.446 334.235C318.745 333.935 319.151 333.767 319.575 333.767Z" stroke="black"/>
<path d="M283.864 333.767C284.287 333.767 284.694 333.935 284.993 334.235C285.293 334.534 285.461 334.94 285.461 335.364C285.461 335.787 285.293 336.194 284.993 336.493C284.694 336.793 284.287 336.961 283.864 336.961C283.44 336.961 283.034 336.793 282.734 336.493C282.435 336.194 282.267 335.787 282.267 335.364C282.267 334.94 282.435 334.534 282.734 334.235C283.034 333.935 283.44 333.767 283.864 333.767Z" stroke="black"/>
<path d="M283.865 371.493C284.289 371.494 284.694 371.662 284.994 371.962C285.293 372.261 285.461 372.667 285.461 373.09C285.461 373.514 285.293 373.92 284.994 374.219C284.694 374.519 284.289 374.687 283.865 374.688C283.442 374.687 283.036 374.519 282.737 374.219C282.438 373.92 282.27 373.514 282.27 373.09C282.27 372.667 282.438 372.261 282.737 371.962C283.036 371.662 283.442 371.494 283.865 371.493Z" stroke="black"/>
<path d="M754.484 395.094C748.542 395.505 742.578 395.505 736.635 395.094" stroke="black"/>
<path d="M754.484 397.942C748.542 398.353 742.578 398.353 736.635 397.942" stroke="black"/>
<path d="M772.664 403.744C754.779 407.429 736.332 407.429 718.447 403.744" stroke="black"/>
<path d="M754.484 395.093V397.942C760.993 397.507 767.461 396.597 773.837 395.219C774.111 395.16 774.393 395.158 774.667 395.213C774.941 395.269 775.201 395.38 775.43 395.541C775.659 395.701 775.852 395.907 775.998 396.146C776.143 396.385 776.238 396.651 776.276 396.928L776.701 404.332C776.743 405.058 776.523 405.774 776.082 406.352C775.641 406.93 775.007 407.331 774.296 407.482C755.349 411.506 735.769 411.506 716.823 407.482C716.112 407.331 715.478 406.93 715.037 406.352C714.596 405.774 714.376 405.058 714.418 404.332L714.843 396.928C714.881 396.651 714.975 396.385 715.121 396.146C715.266 395.907 715.46 395.701 715.689 395.541C715.918 395.38 716.177 395.269 716.451 395.213C716.726 395.158 717.008 395.16 717.282 395.219C723.658 396.597 730.126 397.507 736.635 397.942V395.093C730.778 394.688 724.955 393.885 719.207 392.689C716.473 392.121 713.986 390.712 712.093 388.659C710.2 386.607 708.996 384.014 708.65 381.243L703.429 337.452L703.194 335.572C702.635 331.102 703.787 326.586 706.419 322.93C709.051 319.274 712.967 316.749 717.383 315.86C735.981 312.117 755.138 312.117 773.736 315.86C778.152 316.749 782.068 319.274 784.7 322.93C787.331 326.586 788.483 331.102 787.925 335.572L787.69 337.452L782.469 381.243C782.123 384.014 780.919 386.607 779.026 388.659C777.133 390.712 774.645 392.121 771.912 392.689C766.164 393.885 760.341 394.688 754.484 395.093Z" stroke="black"/>
<path d="M763.405 371.493C763.828 371.494 764.234 371.662 764.533 371.962C764.832 372.261 765 372.667 765 373.09C765 373.514 764.832 373.92 764.533 374.219C764.234 374.519 763.828 374.687 763.405 374.688C762.981 374.687 762.575 374.519 762.276 374.219C761.977 373.92 761.809 373.514 761.809 373.09C761.809 372.667 761.977 372.261 762.276 371.962C762.575 371.662 762.981 371.494 763.405 371.493Z" stroke="black"/>
<path d="M763.403 333.767C763.827 333.767 764.233 333.935 764.532 334.235C764.832 334.534 765 334.94 765 335.364C765 335.787 764.832 336.194 764.532 336.493C764.233 336.793 763.827 336.961 763.403 336.961C762.979 336.961 762.573 336.793 762.274 336.493C761.974 336.194 761.806 335.787 761.806 335.364C761.806 334.94 761.974 334.534 762.274 334.235C762.573 333.935 762.979 333.767 763.403 333.767Z" stroke="black"/>
<path d="M727.708 333.767C728.131 333.767 728.537 333.935 728.837 334.235C729.136 334.534 729.305 334.94 729.305 335.364C729.305 335.787 729.136 336.194 728.837 336.493C728.537 336.793 728.131 336.961 727.708 336.961C727.284 336.961 726.878 336.793 726.578 336.493C726.279 336.194 726.11 335.787 726.11 335.364C726.11 334.94 726.279 334.534 726.578 334.235C726.878 333.935 727.284 333.767 727.708 333.767Z" stroke="black"/>
<path d="M727.709 371.493C728.132 371.494 728.538 371.662 728.837 371.962C729.137 372.261 729.305 372.667 729.305 373.09C729.305 373.514 729.137 373.92 728.837 374.219C728.538 374.519 728.132 374.687 727.709 374.688C727.286 374.687 726.88 374.519 726.581 374.219C726.281 373.92 726.113 373.514 726.113 373.09C726.113 372.667 726.281 372.261 726.581 371.962C726.88 371.662 727.286 371.494 727.709 371.493Z" stroke="black"/>
<path d="M199.438 395.094C193.495 395.505 187.531 395.505 181.588 395.094" stroke="black"/>
<path d="M199.438 397.942C193.495 398.353 187.531 398.353 181.588 397.942" stroke="black"/>
<path d="M217.617 403.744C199.733 407.429 181.285 407.429 163.4 403.744" stroke="black"/>
<path d="M199.437 395.093V397.942C205.946 397.507 212.414 396.597 218.79 395.219C219.064 395.16 219.346 395.158 219.62 395.213C219.895 395.269 220.154 395.38 220.383 395.541C220.612 395.701 220.805 395.907 220.951 396.146C221.096 396.385 221.191 396.651 221.229 396.928L221.654 404.332C221.696 405.058 221.476 405.774 221.035 406.352C220.594 406.93 219.96 407.331 219.249 407.482C200.303 411.506 180.723 411.506 161.776 407.482C161.065 407.331 160.431 406.93 159.99 406.352C159.549 405.774 159.329 405.058 159.371 404.332L159.796 396.928C159.834 396.651 159.929 396.385 160.074 396.146C160.22 395.907 160.413 395.701 160.642 395.541C160.871 395.38 161.131 395.269 161.405 395.213C161.679 395.158 161.961 395.16 162.235 395.219C168.611 396.597 175.079 397.507 181.588 397.942V395.093C175.731 394.688 169.908 393.885 164.16 392.689C161.426 392.121 158.939 390.712 157.046 388.659C155.153 386.607 153.949 384.014 153.603 381.243L148.382 337.452L148.147 335.572C147.589 331.102 148.741 326.586 151.372 322.93C154.004 319.274 157.92 316.749 162.336 315.86C180.934 312.117 200.091 312.117 218.689 315.86C223.105 316.749 227.021 319.274 229.653 322.93C232.285 326.586 233.436 331.102 232.878 335.572L232.643 337.452L227.422 381.243C227.076 384.014 225.872 386.607 223.979 388.659C222.086 390.712 219.599 392.121 216.865 392.689C211.117 393.885 205.294 394.688 199.437 395.093Z" stroke="black"/>
<path d="M208.365 371.493C208.789 371.494 209.195 371.662 209.494 371.962C209.793 372.261 209.961 372.667 209.961 373.09C209.961 373.514 209.793 373.92 209.494 374.219C209.195 374.519 208.789 374.687 208.365 374.688C207.942 374.687 207.536 374.519 207.237 374.219C206.938 373.92 206.77 373.514 206.77 373.09C206.77 372.667 206.938 372.261 207.237 371.962C207.536 371.662 207.942 371.494 208.365 371.493Z" stroke="black"/>
<path d="M208.364 333.767C208.788 333.767 209.194 333.935 209.493 334.235C209.793 334.534 209.961 334.94 209.961 335.364C209.961 335.787 209.793 336.194 209.493 336.493C209.194 336.793 208.788 336.961 208.364 336.961C207.94 336.961 207.534 336.793 207.235 336.493C206.935 336.194 206.767 335.787 206.767 335.364C206.767 334.94 206.935 334.534 207.235 334.235C207.534 333.935 207.94 333.767 208.364 333.767Z" stroke="black"/>
<path d="M172.661 333.767C173.084 333.767 173.491 333.935 173.79 334.235C174.09 334.534 174.258 334.94 174.258 335.364C174.258 335.787 174.09 336.194 173.79 336.493C173.491 336.793 173.084 336.961 172.661 336.961C172.237 336.961 171.831 336.793 171.531 336.493C171.232 336.194 171.064 335.787 171.064 335.364C171.064 334.94 171.232 334.534 171.531 334.235C171.831 333.935 172.237 333.767 172.661 333.767Z" stroke="black"/>
<path d="M172.662 371.493C173.085 371.494 173.491 371.662 173.791 371.962C174.09 372.261 174.258 372.667 174.258 373.09C174.258 373.514 174.09 373.92 173.791 374.219C173.491 374.519 173.085 374.687 172.662 374.688C172.239 374.687 171.833 374.519 171.534 374.219C171.235 373.92 171.067 373.514 171.067 373.09C171.067 372.667 171.235 372.261 171.534 371.962C171.833 371.662 172.239 371.494 172.662 371.493Z" stroke="black"/>
<path d="M643.523 395.094C637.581 395.505 631.617 395.505 625.674 395.094" stroke="black"/>
<path d="M643.523 397.942C637.581 398.353 631.617 398.353 625.674 397.942" stroke="black"/>
<path d="M661.711 403.744C643.826 407.429 625.378 407.429 607.494 403.744" stroke="black"/>
<path d="M643.523 395.093V397.942C650.032 397.507 656.5 396.597 662.876 395.219C663.15 395.16 663.432 395.158 663.706 395.213C663.98 395.269 664.24 395.38 664.469 395.541C664.698 395.701 664.891 395.907 665.037 396.146C665.182 396.385 665.277 396.651 665.315 396.928L665.74 404.332C665.782 405.058 665.562 405.774 665.121 406.352C664.68 406.93 664.046 407.331 663.335 407.482C644.388 411.506 624.808 411.506 605.862 407.482C605.151 407.331 604.517 406.93 604.076 406.352C603.635 405.774 603.415 405.058 603.457 404.332L603.882 396.928C603.92 396.651 604.015 396.385 604.16 396.146C604.306 395.907 604.499 395.701 604.728 395.541C604.957 395.38 605.216 395.269 605.491 395.213C605.765 395.158 606.047 395.16 606.321 395.219C612.697 396.597 619.165 397.507 625.674 397.942V395.093C619.817 394.688 613.994 393.885 608.246 392.689C605.512 392.121 603.025 390.712 601.132 388.659C599.239 386.607 598.035 384.014 597.689 381.243L592.468 337.452L592.233 335.572C591.675 331.102 592.826 326.586 595.458 322.93C598.09 319.274 602.006 316.749 606.422 315.86C625.02 312.117 644.177 312.117 662.775 315.86C667.191 316.749 671.107 319.274 673.739 322.93C676.37 326.586 677.522 331.102 676.964 335.572L676.729 337.452L671.508 381.243C671.162 384.014 669.958 386.607 668.065 388.659C666.172 390.712 663.685 392.121 660.951 392.689C655.203 393.885 649.38 394.688 643.523 395.093Z" stroke="black"/>
<path d="M652.459 371.493C652.883 371.494 653.288 371.662 653.588 371.962C653.887 372.261 654.055 372.667 654.055 373.09C654.055 373.514 653.887 373.92 653.588 374.219C653.288 374.519 652.883 374.687 652.459 374.688C652.036 374.687 651.63 374.519 651.331 374.219C651.032 373.92 650.864 373.514 650.864 373.09C650.864 372.667 651.032 372.261 651.331 371.962C651.63 371.662 652.036 371.494 652.459 371.493Z" stroke="black"/>
<path d="M652.458 333.767C652.881 333.767 653.288 333.935 653.587 334.235C653.887 334.534 654.055 334.94 654.055 335.364C654.055 335.787 653.887 336.194 653.587 336.493C653.288 336.793 652.881 336.961 652.458 336.961C652.034 336.961 651.628 336.793 651.328 336.493C651.029 336.194 650.861 335.787 650.861 335.364C650.861 334.94 651.029 334.534 651.328 334.235C651.628 333.935 652.034 333.767 652.458 333.767Z" stroke="black"/>
<path d="M616.747 333.767C617.17 333.767 617.576 333.935 617.876 334.235C618.175 334.534 618.344 334.94 618.344 335.364C618.344 335.787 618.175 336.194 617.876 336.493C617.576 336.793 617.17 336.961 616.747 336.961C616.323 336.961 615.917 336.793 615.617 336.493C615.318 336.194 615.149 335.787 615.149 335.364C615.149 334.94 615.318 334.534 615.617 334.235C615.917 333.935 616.323 333.767 616.747 333.767Z" stroke="black"/>
<path d="M616.748 371.493C617.171 371.494 617.577 371.662 617.876 371.962C618.176 372.261 618.344 372.667 618.344 373.09C618.344 373.514 618.176 373.92 617.876 374.219C617.577 374.519 617.171 374.687 616.748 374.688C616.325 374.687 615.919 374.519 615.62 374.219C615.321 373.92 615.152 373.514 615.152 373.09C615.152 372.667 615.321 372.261 615.62 371.962C615.919 371.662 616.325 371.494 616.748 371.493Z" stroke="black"/>
<path d="M542.055 15.9077C536.112 15.4969 530.148 15.4969 524.206 15.9077" stroke="black"/>
<path d="M542.055 13.0581C536.112 12.6473 530.148 12.6473 524.206 13.0581" stroke="black"/>
<path d="M560.234 7.25582C542.35 3.57098 523.902 3.57098 506.017 7.25582" stroke="black"/>
<path d="M542.039 15.9072V13.0581C548.547 13.493 555.016 14.4031 561.392 15.7811C561.665 15.8402 561.948 15.8421 562.222 15.7867C562.496 15.7313 562.756 15.6199 562.985 15.4593C563.214 15.2988 563.407 15.0926 563.553 14.8538C563.698 14.615 563.793 14.3487 563.83 14.0716L564.256 6.66838C564.297 5.94243 564.078 5.22554 563.637 4.64757C563.195 4.0696 562.562 3.66879 561.85 3.51773C542.904 -0.50591 523.324 -0.50591 504.378 3.51773C503.667 3.66879 503.033 4.0696 502.592 4.64757C502.15 5.22554 501.931 5.94243 501.972 6.66838L502.398 14.0716C502.436 14.3487 502.53 14.615 502.676 14.8538C502.821 15.0926 503.014 15.2988 503.243 15.4593C503.472 15.6199 503.732 15.7313 504.006 15.7867C504.28 15.8421 504.563 15.8402 504.836 15.7811C511.212 14.4031 517.681 13.493 524.19 13.0581V15.9072C518.332 16.3121 512.51 17.1151 506.761 18.3107C504.028 18.8793 501.541 20.2884 499.648 22.3408C497.755 24.3931 496.551 26.986 496.204 29.7565L490.984 73.5477L490.749 75.4282C490.19 79.898 491.342 84.4137 493.974 88.0696C496.605 91.7255 500.522 94.2512 504.938 95.1401C523.536 98.8834 542.693 98.8834 561.29 95.1401C565.706 94.2512 569.623 91.7255 572.254 88.0696C574.886 84.4137 576.038 79.898 575.479 75.4282L575.244 73.5477L570.024 29.7565C569.678 26.986 568.474 24.3931 566.581 22.3408C564.688 20.2884 562.2 18.8793 559.467 18.3107C553.718 17.1151 547.896 16.3121 542.039 15.9072Z" stroke="black"/>
<path d="M550.975 39.5067C551.398 39.5063 551.804 39.3378 552.103 39.0384C552.402 38.7389 552.57 38.3329 552.57 37.9096C552.57 37.4863 552.402 37.0803 552.103 36.7808C551.804 36.4813 551.398 36.3129 550.975 36.3125C550.552 36.3129 550.146 36.4813 549.846 36.7808C549.547 37.0803 549.379 37.4863 549.379 37.9096C549.379 38.3329 549.547 38.7389 549.846 39.0384C550.146 39.3378 550.552 39.5063 550.975 39.5067Z" stroke="black"/>
<path d="M550.973 77.2332C551.397 77.2332 551.803 77.065 552.103 76.7654C552.402 76.4659 552.57 76.0597 552.57 75.6361C552.57 75.2126 552.402 74.8063 552.103 74.5068C551.803 74.2073 551.397 74.0391 550.973 74.0391C550.55 74.0391 550.143 74.2073 549.844 74.5068C549.544 74.8063 549.376 75.2126 549.376 75.6361C549.376 76.0597 549.544 76.4659 549.844 76.7654C550.143 77.065 550.55 77.2332 550.973 77.2332Z" stroke="black"/>
<path d="M515.262 77.2332C515.686 77.2332 516.092 77.065 516.392 76.7654C516.691 76.4659 516.859 76.0597 516.859 75.6361C516.859 75.2126 516.691 74.8063 516.392 74.5068C516.092 74.2073 515.686 74.0391 515.262 74.0391C514.839 74.0391 514.432 74.2073 514.133 74.5068C513.833 74.8063 513.665 75.2126 513.665 75.6361C513.665 76.0597 513.833 76.4659 514.133 76.7654C514.432 77.065 514.839 77.2332 515.262 77.2332Z" stroke="black"/>
<path d="M515.264 39.5067C515.687 39.5063 516.093 39.3378 516.392 39.0384C516.691 38.7389 516.859 38.3329 516.859 37.9096C516.859 37.4863 516.691 37.0803 516.392 36.7808C516.093 36.4813 515.687 36.3129 515.264 36.3125C514.84 36.3129 514.435 36.4813 514.135 36.7808C513.836 37.0803 513.668 37.4863 513.668 37.9096C513.668 38.3329 513.836 38.7389 514.135 39.0384C514.435 39.3378 514.84 39.5063 515.264 39.5067Z" stroke="black"/>
<path d="M431.086 15.9077C425.143 15.4969 419.179 15.4969 413.237 15.9077" stroke="black"/>
<path d="M431.086 13.0581C425.143 12.6473 419.179 12.6473 413.237 13.0581" stroke="black"/>
<path d="M449.266 7.25582C431.381 3.57098 412.933 3.57098 395.049 7.25582" stroke="black"/>
<path d="M431.078 15.9072V13.0581C437.587 13.493 444.055 14.4031 450.431 15.7811C450.704 15.8402 450.987 15.8421 451.261 15.7867C451.535 15.7313 451.795 15.6199 452.024 15.4593C452.253 15.2988 452.446 15.0926 452.592 14.8538C452.737 14.615 452.832 14.3487 452.869 14.0716L453.295 6.66838C453.336 5.94243 453.117 5.22554 452.676 4.64757C452.234 4.0696 451.601 3.66879 450.889 3.51773C431.943 -0.50591 412.363 -0.50591 393.417 3.51773C392.706 3.66879 392.072 4.0696 391.631 4.64757C391.189 5.22554 390.97 5.94243 391.011 6.66838L391.437 14.0716C391.475 14.3487 391.569 14.615 391.715 14.8538C391.86 15.0926 392.053 15.2988 392.282 15.4593C392.511 15.6199 392.771 15.7313 393.045 15.7867C393.319 15.8421 393.602 15.8402 393.875 15.7811C400.251 14.4031 406.72 13.493 413.229 13.0581V15.9072C407.371 16.3121 401.549 17.1151 395.8 18.3107C393.067 18.8793 390.58 20.2884 388.687 22.3408C386.794 24.3931 385.59 26.986 385.243 29.7565L380.023 73.5477L379.788 75.4282C379.229 79.898 380.381 84.4137 383.013 88.0696C385.644 91.7255 389.561 94.2512 393.977 95.1401C412.575 98.8834 431.732 98.8834 450.329 95.1401C454.745 94.2512 458.662 91.7255 461.294 88.0696C463.925 84.4137 465.077 79.898 464.518 75.4282L464.283 73.5477L459.063 29.7565C458.717 26.986 457.513 24.3931 455.62 22.3408C453.727 20.2884 451.239 18.8793 448.506 18.3107C442.758 17.1151 436.935 16.3121 431.078 15.9072Z" stroke="black"/>
<path d="M440.006 39.5067C440.429 39.5063 440.835 39.3378 441.134 39.0384C441.434 38.7389 441.602 38.3329 441.602 37.9096C441.602 37.4863 441.434 37.0803 441.134 36.7808C440.835 36.4813 440.429 36.3129 440.006 36.3125C439.583 36.3129 439.177 36.4813 438.878 36.7808C438.579 37.0803 438.41 37.4863 438.41 37.9096C438.41 38.3329 438.579 38.7389 438.878 39.0384C439.177 39.3378 439.583 39.5063 440.006 39.5067Z" stroke="black"/>
<path d="M440.005 77.2332C440.428 77.2332 440.834 77.065 441.134 76.7654C441.433 76.4659 441.602 76.0597 441.602 75.6361C441.602 75.2126 441.433 74.8063 441.134 74.5068C440.834 74.2073 440.428 74.0391 440.005 74.0391C439.581 74.0391 439.175 74.2073 438.875 74.5068C438.576 74.8063 438.407 75.2126 438.407 75.6361C438.407 76.0597 438.576 76.4659 438.875 76.7654C439.175 77.065 439.581 77.2332 440.005 77.2332Z" stroke="black"/>
<path d="M404.301 77.2332C404.725 77.2332 405.131 77.065 405.431 76.7654C405.73 76.4659 405.898 76.0597 405.898 75.6361C405.898 75.2126 405.73 74.8063 405.431 74.5068C405.131 74.2073 404.725 74.0391 404.301 74.0391C403.878 74.0391 403.471 74.2073 403.172 74.5068C402.872 74.8063 402.704 75.2126 402.704 75.6361C402.704 76.0597 402.872 76.4659 403.172 76.7654C403.471 77.065 403.878 77.2332 404.301 77.2332Z" stroke="black"/>
<path d="M404.303 39.5067C404.726 39.5063 405.132 39.3378 405.431 39.0384C405.73 38.7389 405.898 38.3329 405.898 37.9096C405.898 37.4863 405.73 37.0803 405.431 36.7808C405.132 36.4813 404.726 36.3129 404.303 36.3125C403.879 36.3129 403.474 36.4813 403.174 36.7808C402.875 37.0803 402.707 37.4863 402.707 37.9096C402.707 38.3329 402.875 38.7389 403.174 39.0384C403.474 39.3378 403.879 39.5063 404.303 39.5067Z" stroke="black"/>
<path d="M874.922 15.9077C868.979 15.4969 863.015 15.4969 857.073 15.9077" stroke="black"/>
<path d="M874.922 13.0581C868.979 12.6473 863.015 12.6473 857.073 13.0581" stroke="black"/>
<path d="M893.117 7.25582C875.233 3.57098 856.785 3.57098 838.9 7.25582" stroke="black"/>
<path d="M874.921 15.9072V13.0581C881.43 13.493 887.899 14.4031 894.275 15.7811C894.548 15.8402 894.831 15.8421 895.105 15.7867C895.379 15.7313 895.639 15.6199 895.868 15.4593C896.097 15.2988 896.29 15.0926 896.435 14.8538C896.581 14.615 896.675 14.3487 896.713 14.0716L897.139 6.66838C897.18 5.94243 896.961 5.22554 896.519 4.64757C896.078 4.0696 895.444 3.66879 894.733 3.51773C875.787 -0.50591 856.207 -0.50591 837.261 3.51773C836.549 3.66879 835.916 4.0696 835.474 4.64757C835.033 5.22554 834.813 5.94243 834.855 6.66838L835.281 14.0716C835.318 14.3487 835.413 14.615 835.558 14.8538C835.704 15.0926 835.897 15.2988 836.126 15.4593C836.355 15.6199 836.615 15.7313 836.889 15.7867C837.163 15.8421 837.446 15.8402 837.719 15.7811C844.095 14.4031 850.564 13.493 857.072 13.0581V15.9072C851.215 16.3121 845.392 17.1151 839.644 18.3107C836.911 18.8793 834.423 20.2884 832.53 22.3408C830.637 24.3931 829.433 26.986 829.087 29.7565L823.867 73.5477L823.632 75.4282C823.073 79.898 824.225 84.4137 826.857 88.0696C829.488 91.7255 833.405 94.2512 837.821 95.1401C856.418 98.8834 875.575 98.8834 894.173 95.1401C898.589 94.2512 902.506 91.7255 905.137 88.0696C907.769 84.4137 908.921 79.898 908.362 75.4282L908.127 73.5477L902.907 29.7565C902.56 26.986 901.356 24.3931 899.463 22.3408C897.57 20.2884 895.083 18.8793 892.349 18.3107C886.601 17.1151 880.779 16.3121 874.921 15.9072Z" stroke="black"/>
<path d="M883.858 39.5067C884.281 39.5063 884.687 39.3378 884.986 39.0384C885.285 38.7389 885.453 38.3329 885.453 37.9096C885.453 37.4863 885.285 37.0803 884.986 36.7808C884.687 36.4813 884.281 36.3129 883.858 36.3125C883.434 36.3129 883.028 36.4813 882.729 36.7808C882.43 37.0803 882.262 37.4863 882.262 37.9096C882.262 38.3329 882.43 38.7389 882.729 39.0384C883.028 39.3378 883.434 39.5063 883.858 39.5067Z" stroke="black"/>
<path d="M883.856 77.2332C884.28 77.2332 884.686 77.065 884.985 76.7654C885.285 76.4659 885.453 76.0597 885.453 75.6361C885.453 75.2126 885.285 74.8063 884.985 74.5068C884.686 74.2073 884.28 74.0391 883.856 74.0391C883.433 74.0391 883.026 74.2073 882.727 74.5068C882.427 74.8063 882.259 75.2126 882.259 75.6361C882.259 76.0597 882.427 76.4659 882.727 76.7654C883.026 77.065 883.433 77.2332 883.856 77.2332Z" stroke="black"/>
<path d="M848.145 77.2332C848.569 77.2332 848.975 77.065 849.274 76.7654C849.574 76.4659 849.742 76.0597 849.742 75.6361C849.742 75.2126 849.574 74.8063 849.274 74.5068C848.975 74.2073 848.569 74.0391 848.145 74.0391C847.721 74.0391 847.315 74.2073 847.016 74.5068C846.716 74.8063 846.548 75.2126 846.548 75.6361C846.548 76.0597 846.716 76.4659 847.016 76.7654C847.315 77.065 847.721 77.2332 848.145 77.2332Z" stroke="black"/>
<path d="M848.147 39.5067C848.57 39.5063 848.976 39.3378 849.275 39.0384C849.574 38.7389 849.742 38.3329 849.742 37.9096C849.742 37.4863 849.574 37.0803 849.275 36.7808C848.976 36.4813 848.57 36.3129 848.147 36.3125C847.723 36.3129 847.317 36.4813 847.018 36.7808C846.719 37.0803 846.551 37.4863 846.551 37.9096C846.551 38.3329 846.719 38.7389 847.018 39.0384C847.317 39.3378 847.723 39.5063 848.147 39.5067Z" stroke="black"/>
<path d="M320.117 15.9077C314.175 15.4969 308.211 15.4969 302.268 15.9077" stroke="black"/>
<path d="M320.117 13.0581C314.175 12.6473 308.211 12.6473 302.268 13.0581" stroke="black"/>
<path d="M338.297 7.25582C320.412 3.57098 301.964 3.57098 284.08 7.25582" stroke="black"/>
<path d="M320.117 15.9072V13.0581C326.626 13.493 333.094 14.4031 339.47 15.7811C339.743 15.8402 340.026 15.8421 340.3 15.7867C340.574 15.7313 340.834 15.6199 341.063 15.4593C341.292 15.2988 341.485 15.0926 341.631 14.8538C341.776 14.615 341.871 14.3487 341.908 14.0716L342.334 6.66838C342.376 5.94243 342.156 5.22554 341.715 4.64757C341.273 4.0696 340.64 3.66879 339.928 3.51773C320.982 -0.50591 301.402 -0.50591 282.456 3.51773C281.745 3.66879 281.111 4.0696 280.67 4.64757C280.228 5.22554 280.009 5.94243 280.05 6.66838L280.476 14.0716C280.514 14.3487 280.608 14.615 280.754 14.8538C280.899 15.0926 281.093 15.2988 281.322 15.4593C281.55 15.6199 281.81 15.7313 282.084 15.7867C282.358 15.8421 282.641 15.8402 282.914 15.7811C289.291 14.4031 295.759 13.493 302.268 13.0581V15.9072C296.411 16.3121 290.588 17.1151 284.84 18.3107C282.106 18.8793 279.619 20.2884 277.726 22.3408C275.833 24.3931 274.629 26.986 274.282 29.7565L269.062 73.5477L268.827 75.4282C268.268 79.898 269.42 84.4137 272.052 88.0696C274.683 91.7255 278.6 94.2512 283.016 95.1401C301.614 98.8834 320.771 98.8834 339.368 95.1401C343.784 94.2512 347.701 91.7255 350.333 88.0696C352.964 84.4137 354.116 79.898 353.557 75.4282L353.322 73.5477L348.102 29.7565C347.756 26.986 346.552 24.3931 344.659 22.3408C342.766 20.2884 340.278 18.8793 337.545 18.3107C331.797 17.1151 325.974 16.3121 320.117 15.9072Z" stroke="black"/>
<path d="M329.037 39.5067C329.461 39.5063 329.866 39.3378 330.166 39.0384C330.465 38.7389 330.633 38.3329 330.633 37.9096C330.633 37.4863 330.465 37.0803 330.166 36.7808C329.866 36.4813 329.461 36.3129 329.037 36.3125C328.614 36.3129 328.208 36.4813 327.909 36.7808C327.61 37.0803 327.442 37.4863 327.442 37.9096C327.442 38.3329 327.61 38.7389 327.909 39.0384C328.208 39.3378 328.614 39.5063 329.037 39.5067Z" stroke="black"/>
<path d="M329.036 77.2332C329.459 77.2332 329.866 77.065 330.165 76.7654C330.465 76.4659 330.633 76.0597 330.633 75.6361C330.633 75.2126 330.465 74.8063 330.165 74.5068C329.866 74.2073 329.459 74.0391 329.036 74.0391C328.612 74.0391 328.206 74.2073 327.906 74.5068C327.607 74.8063 327.439 75.2126 327.439 75.6361C327.439 76.0597 327.607 76.4659 327.906 76.7654C328.206 77.065 328.612 77.2332 329.036 77.2332Z" stroke="black"/>
<path d="M293.34 77.2332C293.764 77.2332 294.17 77.065 294.47 76.7654C294.769 76.4659 294.938 76.0597 294.938 75.6361C294.938 75.2126 294.769 74.8063 294.47 74.5068C294.17 74.2073 293.764 74.0391 293.34 74.0391C292.917 74.0391 292.511 74.2073 292.211 74.5068C291.912 74.8063 291.743 75.2126 291.743 75.6361C291.743 76.0597 291.912 76.4659 292.211 76.7654C292.511 77.065 292.917 77.2332 293.34 77.2332Z" stroke="black"/>
<path d="M293.342 39.5067C293.765 39.5063 294.171 39.3378 294.47 39.0384C294.769 38.7389 294.938 38.3329 294.938 37.9096C294.938 37.4863 294.769 37.0803 294.47 36.7808C294.171 36.4813 293.765 36.3129 293.342 36.3125C292.919 36.3129 292.513 36.4813 292.213 36.7808C291.914 37.0803 291.746 37.4863 291.746 37.9096C291.746 38.3329 291.914 38.7389 292.213 39.0384C292.513 39.3378 292.919 39.5063 293.342 39.5067Z" stroke="black"/>
<path d="M763.961 15.9077C758.018 15.4969 752.054 15.4969 746.112 15.9077" stroke="black"/>
<path d="M763.961 13.0581C758.018 12.6473 752.054 12.6473 746.112 13.0581" stroke="black"/>
<path d="M782.156 7.25582C764.272 3.57098 745.824 3.57098 727.939 7.25582" stroke="black"/>
<path d="M763.96 15.9072V13.0581C770.469 13.493 776.938 14.4031 783.314 15.7811C783.587 15.8402 783.87 15.8421 784.144 15.7867C784.418 15.7313 784.678 15.6199 784.907 15.4593C785.136 15.2988 785.329 15.0926 785.474 14.8538C785.62 14.615 785.714 14.3487 785.752 14.0716L786.178 6.66838C786.219 5.94243 786 5.22554 785.558 4.64757C785.117 4.0696 784.483 3.66879 783.772 3.51773C764.826 -0.50591 745.246 -0.50591 726.3 3.51773C725.588 3.66879 724.955 4.0696 724.513 4.64757C724.072 5.22554 723.852 5.94243 723.894 6.66838L724.32 14.0716C724.357 14.3487 724.452 14.615 724.598 14.8538C724.743 15.0926 724.936 15.2988 725.165 15.4593C725.394 15.6199 725.654 15.7313 725.928 15.7867C726.202 15.8421 726.485 15.8402 726.758 15.7811C733.134 14.4031 739.603 13.493 746.111 13.0581V15.9072C740.254 16.3121 734.431 17.1151 728.683 18.3107C725.95 18.8793 723.462 20.2884 721.569 22.3408C719.676 24.3931 718.473 26.986 718.126 29.7565L712.906 73.5477L712.671 75.4282C712.112 79.898 713.264 84.4137 715.896 88.0696C718.527 91.7255 722.444 94.2512 726.86 95.1401C745.457 98.8834 764.614 98.8834 783.212 95.1401C787.628 94.2512 791.545 91.7255 794.176 88.0696C796.808 84.4137 797.96 79.898 797.401 75.4282L797.166 73.5477L791.946 29.7565C791.599 26.986 790.396 24.3931 788.503 22.3408C786.609 20.2884 784.122 18.8793 781.388 18.3107C775.64 17.1151 769.818 16.3121 763.96 15.9072Z" stroke="black"/>
<path d="M772.897 39.5067C773.32 39.5063 773.726 39.3378 774.025 39.0384C774.324 38.7389 774.492 38.3329 774.492 37.9096C774.492 37.4863 774.324 37.0803 774.025 36.7808C773.726 36.4813 773.32 36.3129 772.897 36.3125C772.473 36.3129 772.068 36.4813 771.768 36.7808C771.469 37.0803 771.301 37.4863 771.301 37.9096C771.301 38.3329 771.469 38.7389 771.768 39.0384C772.068 39.3378 772.473 39.5063 772.897 39.5067Z" stroke="black"/>
<path d="M772.895 77.2332C773.319 77.2332 773.725 77.065 774.025 76.7654C774.324 76.4659 774.492 76.0597 774.492 75.6361C774.492 75.2126 774.324 74.8063 774.025 74.5068C773.725 74.2073 773.319 74.0391 772.895 74.0391C772.472 74.0391 772.065 74.2073 771.766 74.5068C771.466 74.8063 771.298 75.2126 771.298 75.6361C771.298 76.0597 771.466 76.4659 771.766 76.7654C772.065 77.065 772.472 77.2332 772.895 77.2332Z" stroke="black"/>
<path d="M737.184 77.2332C737.608 77.2332 738.014 77.065 738.313 76.7654C738.613 76.4659 738.781 76.0597 738.781 75.6361C738.781 75.2126 738.613 74.8063 738.313 74.5068C738.014 74.2073 737.608 74.0391 737.184 74.0391C736.761 74.0391 736.354 74.2073 736.055 74.5068C735.755 74.8063 735.587 75.2126 735.587 75.6361C735.587 76.0597 735.755 76.4659 736.055 76.7654C736.354 77.065 736.761 77.2332 737.184 77.2332Z" stroke="black"/>
<path d="M737.186 39.5067C737.609 39.5063 738.015 39.3378 738.314 39.0384C738.613 38.7389 738.781 38.3329 738.781 37.9096C738.781 37.4863 738.613 37.0803 738.314 36.7808C738.015 36.4813 737.609 36.3129 737.186 36.3125C736.762 36.3129 736.356 36.4813 736.057 36.7808C735.758 37.0803 735.59 37.4863 735.59 37.9096C735.59 38.3329 735.758 38.7389 736.057 39.0384C736.356 39.3378 736.762 39.5063 737.186 39.5067Z" stroke="black"/>
<path d="M208.922 15.9077C202.979 15.4969 197.015 15.4969 191.073 15.9077" stroke="black"/>
<path d="M208.922 13.0581C202.979 12.6473 197.015 12.6473 191.073 13.0581" stroke="black"/>
<path d="M227.109 7.25582C209.225 3.57098 190.777 3.57098 172.892 7.25582" stroke="black"/>
<path d="M208.921 15.9072V13.0581C215.43 13.493 221.899 14.4031 228.275 15.7811C228.548 15.8402 228.831 15.8421 229.105 15.7867C229.379 15.7313 229.639 15.6199 229.868 15.4593C230.097 15.2988 230.29 15.0926 230.435 14.8538C230.581 14.615 230.675 14.3487 230.713 14.0716L231.139 6.66838C231.18 5.94243 230.961 5.22554 230.519 4.64757C230.078 4.0696 229.444 3.66879 228.733 3.51773C209.787 -0.50591 190.207 -0.50591 171.261 3.51773C170.549 3.66879 169.916 4.0696 169.474 4.64757C169.033 5.22554 168.813 5.94243 168.855 6.66838L169.281 14.0716C169.318 14.3487 169.413 14.615 169.558 14.8538C169.704 15.0926 169.897 15.2988 170.126 15.4593C170.355 15.6199 170.615 15.7313 170.889 15.7867C171.163 15.8421 171.446 15.8402 171.719 15.7811C178.095 14.4031 184.564 13.493 191.072 13.0581V15.9072C185.215 16.3121 179.392 17.1151 173.644 18.3107C170.911 18.8793 168.423 20.2884 166.53 22.3408C164.637 24.3931 163.433 26.986 163.087 29.7565L157.867 73.5477L157.632 75.4282C157.073 79.898 158.225 84.4137 160.857 88.0696C163.488 91.7255 167.405 94.2512 171.821 95.1401C190.418 98.8834 209.575 98.8834 228.173 95.1401C232.589 94.2512 236.506 91.7255 239.137 88.0696C241.769 84.4137 242.921 79.898 242.362 75.4282L242.127 73.5477L236.907 29.7565C236.56 26.986 235.356 24.3931 233.463 22.3408C231.57 20.2884 229.083 18.8793 226.349 18.3107C220.601 17.1151 214.779 16.3121 208.921 15.9072Z" stroke="black"/>
<path d="M217.85 39.5067C218.273 39.5063 218.679 39.3378 218.978 39.0384C219.277 38.7389 219.445 38.3329 219.445 37.9096C219.445 37.4863 219.277 37.0803 218.978 36.7808C218.679 36.4813 218.273 36.3129 217.85 36.3125C217.427 36.3129 217.021 36.4813 216.721 36.7808C216.422 37.0803 216.254 37.4863 216.254 37.9096C216.254 38.3329 216.422 38.7389 216.721 39.0384C217.021 39.3378 217.427 39.5063 217.85 39.5067Z" stroke="black"/>
<path d="M217.848 77.2332C218.272 77.2332 218.678 77.065 218.978 76.7654C219.277 76.4659 219.445 76.0597 219.445 75.6361C219.445 75.2126 219.277 74.8063 218.978 74.5068C218.678 74.2073 218.272 74.0391 217.848 74.0391C217.425 74.0391 217.018 74.2073 216.719 74.5068C216.419 74.8063 216.251 75.2126 216.251 75.6361C216.251 76.0597 216.419 76.4659 216.719 76.7654C217.018 77.065 217.425 77.2332 217.848 77.2332Z" stroke="black"/>
<path d="M182.145 77.2332C182.569 77.2332 182.975 77.065 183.274 76.7654C183.574 76.4659 183.742 76.0597 183.742 75.6361C183.742 75.2126 183.574 74.8063 183.274 74.5068C182.975 74.2073 182.569 74.0391 182.145 74.0391C181.721 74.0391 181.315 74.2073 181.016 74.5068C180.716 74.8063 180.548 75.2126 180.548 75.6361C180.548 76.0597 180.716 76.4659 181.016 76.7654C181.315 77.065 181.721 77.2332 182.145 77.2332Z" stroke="black"/>
<path d="M182.147 39.5067C182.57 39.5063 182.976 39.3378 183.275 39.0384C183.574 38.7389 183.742 38.3329 183.742 37.9096C183.742 37.4863 183.574 37.0803 183.275 36.7808C182.976 36.4813 182.57 36.3129 182.147 36.3125C181.723 36.3129 181.317 36.4813 181.018 36.7808C180.719 37.0803 180.551 37.4863 180.551 37.9096C180.551 38.3329 180.719 38.7389 181.018 39.0384C181.317 39.3378 181.723 39.5063 182.147 39.5067Z" stroke="black"/>
<path d="M653.016 15.9077C647.073 15.4969 641.109 15.4969 635.167 15.9077" stroke="black"/>
<path d="M653.016 13.0581C647.073 12.6473 641.109 12.6473 635.167 13.0581" stroke="black"/>
<path d="M671.195 7.25582C653.311 3.57098 634.863 3.57098 616.978 7.25582" stroke="black"/>
<path d="M653 15.9072V13.0581C659.508 13.493 665.977 14.4031 672.353 15.7811C672.626 15.8402 672.909 15.8421 673.183 15.7867C673.457 15.7313 673.717 15.6199 673.946 15.4593C674.175 15.2988 674.368 15.0926 674.513 14.8538C674.659 14.615 674.753 14.3487 674.791 14.0716L675.217 6.66838C675.258 5.94243 675.039 5.22554 674.598 4.64757C674.156 4.0696 673.523 3.66879 672.811 3.51773C653.865 -0.50591 634.285 -0.50591 615.339 3.51773C614.627 3.66879 613.994 4.0696 613.553 4.64757C613.111 5.22554 612.892 5.94243 612.933 6.66838L613.359 14.0716C613.397 14.3487 613.491 14.615 613.637 14.8538C613.782 15.0926 613.975 15.2988 614.204 15.4593C614.433 15.6199 614.693 15.7313 614.967 15.7867C615.241 15.8421 615.524 15.8402 615.797 15.7811C622.173 14.4031 628.642 13.493 635.151 13.0581V15.9072C629.293 16.3121 623.47 17.1151 617.722 18.3107C614.989 18.8793 612.501 20.2884 610.608 22.3408C608.715 24.3931 607.512 26.986 607.165 29.7565L601.945 73.5477L601.71 75.4282C601.151 79.898 602.303 84.4137 604.935 88.0696C607.566 91.7255 611.483 94.2512 615.899 95.1401C634.496 98.8834 653.654 98.8834 672.251 95.1401C676.667 94.2512 680.584 91.7255 683.215 88.0696C685.847 84.4137 686.999 79.898 686.44 75.4282L686.205 73.5477L680.985 29.7565C680.638 26.986 679.435 24.3931 677.542 22.3408C675.649 20.2884 673.161 18.8793 670.428 18.3107C664.679 17.1151 658.857 16.3121 653 15.9072Z" stroke="black"/>
<path d="M661.936 39.5067C662.359 39.5063 662.765 39.3378 663.064 39.0384C663.363 38.7389 663.531 38.3329 663.531 37.9096C663.531 37.4863 663.363 37.0803 663.064 36.7808C662.765 36.4813 662.359 36.3129 661.936 36.3125C661.512 36.3129 661.107 36.4813 660.807 36.7808C660.508 37.0803 660.34 37.4863 660.34 37.9096C660.34 38.3329 660.508 38.7389 660.807 39.0384C661.107 39.3378 661.512 39.5063 661.936 39.5067Z" stroke="black"/>
<path d="M661.934 77.2332C662.358 77.2332 662.764 77.065 663.064 76.7654C663.363 76.4659 663.531 76.0597 663.531 75.6361C663.531 75.2126 663.363 74.8063 663.064 74.5068C662.764 74.2073 662.358 74.0391 661.934 74.0391C661.511 74.0391 661.104 74.2073 660.805 74.5068C660.505 74.8063 660.337 75.2126 660.337 75.6361C660.337 76.0597 660.505 76.4659 660.805 76.7654C661.104 77.065 661.511 77.2332 661.934 77.2332Z" stroke="black"/>
<path d="M626.223 77.2332C626.647 77.2332 627.053 77.065 627.353 76.7654C627.652 76.4659 627.82 76.0597 627.82 75.6361C627.82 75.2126 627.652 74.8063 627.353 74.5068C627.053 74.2073 626.647 74.0391 626.223 74.0391C625.8 74.0391 625.393 74.2073 625.094 74.5068C624.794 74.8063 624.626 75.2126 624.626 75.6361C624.626 76.0597 624.794 76.4659 625.094 76.7654C625.393 77.065 625.8 77.2332 626.223 77.2332Z" stroke="black"/>
<path d="M626.225 39.5067C626.648 39.5063 627.054 39.3378 627.353 39.0384C627.652 38.7389 627.82 38.3329 627.82 37.9096C627.82 37.4863 627.652 37.0803 627.353 36.7808C627.054 36.4813 626.648 36.3129 626.225 36.3125C625.801 36.3129 625.395 36.4813 625.096 36.7808C624.797 37.0803 624.629 37.4863 624.629 37.9096C624.629 38.3329 624.797 38.7389 625.096 39.0384C625.395 39.3378 625.801 39.5063 626.225 39.5067Z" stroke="black"/>
</svg>
