<svg width="795" height="795" viewBox="0 0 795 795" fill="none" xmlns="http://www.w3.org/2000/svg">
<path d="M785.618 397.33C785.613 294.358 744.703 195.605 671.889 122.795C599.075 49.9843 500.32 9.08008 397.348 9.08008C294.376 9.08008 195.621 49.9843 122.807 122.795C49.9925 195.605 9.08335 294.358 9.07812 397.33C9.08335 500.302 49.9925 599.055 122.807 671.866C195.621 744.676 294.376 785.58 397.348 785.58C500.32 785.58 599.075 744.676 671.889 671.866C744.703 599.055 785.613 500.302 785.618 397.33Z" stroke="black"/>
<path d="M794.201 397.331C794.196 292.083 752.382 191.147 677.959 116.728C603.536 42.3082 502.598 0.5 397.35 0.5C292.103 0.5 191.165 42.3082 116.742 116.728C42.3185 191.147 0.505283 292.083 0.5 397.331C0.505283 502.578 42.3185 603.514 116.742 677.933C191.165 752.353 292.103 794.161 397.35 794.161C502.598 794.161 603.536 752.353 677.959 677.933C752.382 603.514 794.196 502.578 794.201 397.331Z" stroke="black"/>
</svg>
