<svg width="565" height="565" viewBox="0 0 565 565" fill="none" xmlns="http://www.w3.org/2000/svg">
<path d="M491.889 282.302C491.879 226.935 469.879 173.839 430.725 134.692C391.571 95.5445 338.472 73.5527 283.105 73.5527C227.738 73.5527 174.637 95.5445 135.484 134.692C96.3301 173.839 74.3296 226.935 74.3203 282.302C74.3296 337.669 96.3301 390.765 135.484 429.912C174.637 469.059 227.738 491.051 283.105 491.051C338.472 491.051 391.571 469.059 430.725 429.912C469.879 390.765 491.879 337.669 491.889 282.302Z" stroke="black"/>
<path d="M417.093 282.3C417.093 246.763 402.976 212.68 377.847 187.551C352.717 162.422 318.635 148.305 283.097 148.305C247.559 148.305 213.477 162.422 188.347 187.551C163.218 212.68 149.102 246.763 149.102 282.3C149.102 317.838 163.218 351.921 188.347 377.05C213.477 402.179 247.559 416.296 283.097 416.296C318.635 416.296 352.717 402.179 377.847 377.05C402.976 351.921 417.093 317.838 417.093 282.3Z" stroke="black"/>
<path d="M419.571 282.3C419.571 246.1 405.191 211.384 379.594 185.787C353.998 160.191 319.282 145.811 283.083 145.811C246.884 145.811 212.167 160.191 186.57 185.787C160.974 211.384 146.594 246.1 146.594 282.3C146.594 318.499 160.974 353.215 186.57 378.812C212.167 404.408 246.884 418.788 283.083 418.788C319.282 418.788 353.998 404.408 379.594 378.812C405.191 353.215 419.571 318.499 419.571 282.3Z" stroke="black"/>
<path d="M489.411 282.301C489.411 227.589 467.677 175.118 428.989 136.431C390.302 97.7439 337.831 76.0098 283.119 76.0098C228.408 76.0098 175.937 97.7439 137.249 136.431C98.5623 175.118 76.8281 227.589 76.8281 282.301C76.8281 337.013 98.5623 389.484 137.249 428.171C175.937 466.858 228.408 488.592 283.119 488.592C337.831 488.592 390.302 466.858 428.989 428.171C467.677 389.484 489.411 337.013 489.411 282.301Z" stroke="black"/>
<path d="M292.554 10.3984C288.751 10.1181 284.952 10.1009 281.147 10.3466" stroke="black"/>
<path d="M292.554 8.57422C288.751 8.29391 284.952 8.27665 281.147 8.52238" stroke="black"/>
<path d="M304.453 4.81209C293.015 2.40124 281.156 2.34735 269.697 4.65415" stroke="black"/>
<path d="M305.088 10.3582C301.01 9.45742 296.785 8.8611 292.619 8.56368L292.611 10.3906C296.359 10.6669 300.157 11.1744 303.833 11.9566C305.581 12.3287 307.071 13.242 308.277 14.5613C309.483 15.8806 310.359 17.5652 310.573 19.3396L313.826 48.5857C314.171 51.4487 313.524 54.3093 311.829 56.642C310.134 58.9746 307.508 60.5986 304.679 61.1546C292.763 63.4968 280.569 63.4413 268.675 60.991C265.851 60.4093 263.419 58.7623 261.745 56.4144C260.071 54.0664 259.455 49.9969 259.826 47.1372L263.34 19.125C263.57 17.3524 264.283 15.6752 265.501 14.3669C266.718 13.0586 268.395 12.1594 270.146 11.8036C273.829 11.0548 277.454 10.5811 281.204 10.3388L281.212 8.51184C277.045 8.77147 272.457 9.32773 268.371 10.1913M305.088 10.3582C305.263 10.3968 304.912 10.3928 305.088 10.3582ZM305.088 10.3582C305.235 10.2561 306.423 9.93779 306.516 9.78539M306.516 9.78539C306.61 9.63299 306.492 9.96262 306.516 9.78539ZM306.516 9.78539L306.897 4.52905M306.897 4.52905C306.926 4.06466 307.177 4.90019 306.897 4.52905ZM306.897 4.52905C306.616 4.15791 305.935 2.61638 305.48 2.51742C293.364 -0.113338 280.725 -0.170769 268.585 2.34976M268.585 2.34976C268.129 2.44428 268.869 1.98115 268.585 2.34976ZM268.585 2.34976C268.301 2.71836 266.948 3.88279 266.972 4.34762L267.307 9.07249M267.307 9.07249C267.33 9.24995 267.215 8.91925 267.307 9.07249ZM267.307 9.07249C267.453 9.17586 268.196 10.1552 268.371 10.1913M268.371 10.1913C268.547 10.2275 268.196 10.2284 268.371 10.1913Z" stroke="black"/>
<path d="M298.187 25.5077C298.458 25.509 297.994 25.6985 298.187 25.5077ZM298.187 25.5077C298.379 25.3169 299.26 24.7588 299.261 24.4877M298.187 25.5077C298.188 25.2367 298.004 23.6488 298.196 23.458M299.261 24.4877C299.262 24.2167 299.452 24.6803 299.261 24.4877ZM299.261 24.4877C299.07 24.2952 298.467 23.4593 298.196 23.458M298.196 23.458C297.925 23.4568 298.389 23.2672 298.196 23.458Z" stroke="black"/>
<path d="M298.046 49.6445C298.317 49.6457 297.854 49.8353 298.046 49.6445ZM298.046 49.6445C298.239 49.4537 299.119 48.8955 299.12 48.6245M298.046 49.6445C298.048 49.3734 297.863 47.7856 298.056 47.5947M299.12 48.6245C299.122 48.3534 299.311 48.817 299.12 48.6245ZM299.12 48.6245C298.93 48.4319 298.327 47.596 298.056 47.5947M298.056 47.5947C297.785 47.5935 298.248 47.4039 298.056 47.5947Z" stroke="black"/>
<path d="M275.234 49.5429C275.505 49.5441 275.041 49.7337 275.234 49.5429ZM275.234 49.5429C275.426 49.3521 276.307 48.794 276.308 48.5229M275.234 49.5429C275.043 49.3504 274.168 48.7843 274.169 48.5132C274.17 48.2421 275.051 47.684 275.243 47.4932M276.308 48.5229C276.309 48.2518 276.499 48.7155 276.308 48.5229ZM276.308 48.5229C276.117 48.3304 275.514 47.4944 275.243 47.4932M275.243 47.4932C274.972 47.492 275.436 47.3024 275.243 47.4932Z" stroke="black"/>
<path d="M275.367 25.4042C275.638 25.4055 275.174 25.595 275.367 25.4042ZM275.367 25.4042C275.559 25.2134 276.439 24.6553 276.441 24.3842M275.367 25.4042C275.176 25.2117 274.301 24.6456 274.302 24.3745C274.303 24.1034 275.183 23.5453 275.376 23.3545M276.441 24.3842C276.442 24.1132 276.631 24.5768 276.441 24.3842ZM276.441 24.3842C276.25 24.1917 275.647 23.3557 275.376 23.3545M275.376 23.3545C275.105 23.3533 275.568 23.1637 275.376 23.3545Z" stroke="black"/>
<path d="M204.826 22.9652C201.122 23.8739 197.504 25.0312 193.961 26.4409" stroke="black"/>
<path d="M204.279 21.1801C200.575 22.0887 196.957 23.2461 193.414 24.6558" stroke="black"/>
<path d="M214.25 14.0366C202.627 15.2783 191.332 18.8915 181.146 24.6266" stroke="black"/>
<path d="M216.734 19.0562C212.578 19.4596 208.375 20.1983 204.321 21.2026L204.878 22.9426C208.528 22.0471 212.296 21.3563 216.034 20.9642C217.812 20.7779 219.512 21.186 221.066 22.0681C222.62 22.9502 223.974 24.2817 224.726 25.9033L236.858 52.7126C238.07 55.3289 238.339 58.2494 237.448 60.9918C236.556 63.7341 234.561 66.0899 232.042 67.493C221.433 73.4028 209.819 77.1181 197.75 78.4632C194.884 78.7828 192.062 77.968 189.744 76.2522C187.427 74.5365 185.584 70.8562 185.053 68.0219L179.738 40.2948C179.409 38.538 179.569 36.7226 180.323 35.102C181.077 33.4813 182.393 32.1081 183.949 31.2284C187.22 29.3783 190.521 27.8077 194.013 26.4183L193.456 24.6783C189.573 26.213 185.381 28.1599 181.763 30.2436M216.734 19.0562C216.912 19.039 216.578 19.1434 216.734 19.0562ZM216.734 19.0562C216.842 18.9137 217.873 18.244 217.916 18.07M217.916 18.07C217.958 17.8961 217.947 18.2463 217.916 18.07ZM217.916 18.07L216.653 12.9534M216.653 12.9534C216.537 12.5029 217.035 13.2197 216.653 12.9534ZM216.653 12.9534C216.272 12.6871 215.147 11.4317 214.684 11.478C202.348 12.7202 190.31 16.5711 179.543 22.7197M179.543 22.7197C179.139 22.9505 179.699 22.2813 179.543 22.7197ZM179.543 22.7197C179.387 23.1581 178.459 24.6838 178.626 25.1183L180.405 29.5084M180.405 29.5084C180.482 29.67 180.27 29.3913 180.405 29.5084ZM180.405 29.5084C180.576 29.5616 181.585 30.2634 181.763 30.2436M181.763 30.2436C181.941 30.2238 181.608 30.333 181.763 30.2436Z" stroke="black"/>
<path d="M214.817 35.6023C215.075 35.5197 214.693 35.8433 214.817 35.6023ZM214.817 35.6023C214.941 35.3614 215.606 34.5585 215.523 34.3004M214.817 35.6023C214.734 35.3442 214.068 33.891 214.192 33.6501M215.523 34.3004C215.441 34.0422 215.764 34.4245 215.523 34.3004ZM215.523 34.3004C215.282 34.1762 214.451 33.5675 214.192 33.6501M214.192 33.6501C213.934 33.7327 214.317 33.4091 214.192 33.6501Z" stroke="black"/>
<path d="M222.215 58.5926C222.474 58.51 222.091 58.8335 222.215 58.5926ZM222.215 58.5926C222.339 58.3516 223.004 57.5488 222.922 57.2906M222.215 58.5926C222.133 58.3344 221.467 56.8813 221.591 56.6403M222.922 57.2906C222.839 57.0324 223.163 57.4148 222.922 57.2906ZM222.922 57.2906C222.681 57.1664 221.849 56.5577 221.591 56.6403M221.591 56.6403C221.333 56.7229 221.715 56.3993 221.591 56.6403Z" stroke="black"/>
<path d="M200.45 65.5398C200.708 65.4572 200.326 65.7808 200.45 65.5398ZM200.45 65.5398C200.574 65.2989 201.239 64.496 201.156 64.2379M200.45 65.5398C200.209 65.4157 199.201 65.1477 199.119 64.8895C199.036 64.6314 199.701 63.8285 199.825 63.5876M201.156 64.2379C201.073 63.9797 201.397 64.362 201.156 64.2379ZM201.156 64.2379C200.915 64.1137 200.083 63.505 199.825 63.5876M199.825 63.5876C199.567 63.6702 199.949 63.3466 199.825 63.5876Z" stroke="black"/>
<path d="M193.098 42.5555C193.356 42.4729 192.974 42.7964 193.098 42.5555ZM193.098 42.5555C193.222 42.3145 193.887 41.5117 193.804 41.2535M193.098 42.5555C192.857 42.4313 191.85 42.1634 191.767 41.9052C191.685 41.647 192.349 40.8442 192.474 40.6032M193.804 41.2535C193.722 40.9953 194.045 41.3776 193.804 41.2535ZM193.804 41.2535C193.563 41.1293 192.732 40.5206 192.474 40.6032M192.474 40.6032C192.215 40.6858 192.598 40.3622 192.474 40.6032Z" stroke="black"/>
<path d="M132.342 62.9785C129.1 64.9872 126.017 67.2058 123.083 69.6415" stroke="black"/>
<path d="M131.24 61.4961C127.999 63.5048 124.916 65.7234 121.981 68.1591" stroke="black"/>
<path d="M138.502 51.5825C127.832 56.3551 118.206 63.2819 110.291 71.8838" stroke="black"/>
<path d="M142.436 55.584C138.608 57.2521 134.839 59.2534 131.294 61.4612L132.361 62.944C135.556 60.9644 138.927 59.1429 142.361 57.6149C143.994 56.8884 145.736 56.7512 147.487 57.1099C149.238 57.4685 150.937 58.3164 152.153 59.6264L171.975 81.3746C173.937 83.4881 175.095 86.1826 175.095 89.0662C175.095 91.9499 173.925 94.8068 171.963 96.9197C163.699 105.819 153.802 112.941 142.739 117.95C140.112 119.139 137.176 119.237 134.442 118.321C131.708 117.405 128.818 114.475 127.437 111.943L113.815 87.2155C112.959 85.6463 112.549 83.8705 112.766 82.0962C112.982 80.3219 113.81 78.6091 115.018 77.2916C117.557 74.5212 120.211 72.0074 123.102 69.6071L122.035 68.1242C118.816 70.7838 115.431 73.9307 112.634 77.0306M142.436 55.584C142.6 55.5126 142.315 55.7152 142.436 55.584ZM142.436 55.584C142.495 55.4151 143.269 54.4594 143.255 54.281M143.255 54.281C143.242 54.1025 143.339 54.439 143.255 54.281ZM143.255 54.281L140.473 49.8049M140.473 49.8049C140.224 49.4124 140.919 49.9403 140.473 49.8049ZM140.473 49.8049C140.028 49.6696 138.571 48.8231 138.145 49.0102C126.796 54.0038 116.538 61.3861 108.198 70.5609M108.198 70.5609C107.885 70.9053 108.211 70.0956 108.198 70.5609ZM108.198 70.5609C108.184 71.0262 107.774 72.7638 108.067 73.1255L111.115 76.7511M111.115 76.7511C111.238 76.8809 110.95 76.6814 111.115 76.7511ZM111.115 76.7511C111.294 76.7488 112.471 77.1044 112.634 77.0306M112.634 77.0306C112.797 76.9568 112.514 77.1635 112.634 77.0306Z" stroke="black"/>
<path d="M145.735 71.9056C145.956 71.7472 145.692 72.1731 145.735 71.9056ZM145.735 71.9056C145.779 71.638 146.163 70.6691 146.005 70.4491M145.735 71.9056C145.577 71.6855 144.495 70.5094 144.538 70.2418M146.005 70.4491C145.847 70.229 146.272 70.4927 146.005 70.4491ZM146.005 70.4491C145.737 70.4054 144.758 70.0835 144.538 70.2418M144.538 70.2418C144.318 70.4002 144.582 69.9743 144.538 70.2418Z" stroke="black"/>
<path d="M159.837 91.4974C160.057 91.339 159.793 91.7649 159.837 91.4974ZM159.837 91.4974C159.881 91.2298 160.265 90.2609 160.106 90.0408M159.837 91.4974C159.679 91.2773 158.596 90.1012 158.64 89.8336M160.106 90.0408C159.948 89.8208 160.374 90.0845 160.106 90.0408ZM160.106 90.0408C159.839 89.9972 158.86 89.6753 158.64 89.8336M158.64 89.8336C158.42 89.992 158.683 89.5661 158.64 89.8336Z" stroke="black"/>
<path d="M141.314 104.822C141.534 104.663 141.27 105.089 141.314 104.822ZM141.314 104.822C141.357 104.554 141.741 103.585 141.583 103.365M141.314 104.822C141.046 104.778 140.005 104.834 139.847 104.614C139.689 104.394 140.073 103.425 140.116 103.158M141.583 103.365C141.425 103.145 141.851 103.409 141.583 103.365ZM141.583 103.365C141.315 103.321 140.336 103 140.116 103.158M140.116 103.158C139.896 103.316 140.16 102.89 140.116 103.158Z" stroke="black"/>
<path d="M127.212 85.2298C127.432 85.0715 127.168 85.4973 127.212 85.2298ZM127.212 85.2298C127.256 84.9623 127.64 83.9933 127.481 83.7733M127.212 85.2298C126.944 85.1862 125.904 85.2426 125.745 85.0226C125.587 84.8026 125.971 83.8336 126.015 83.5661M127.481 83.7733C127.323 83.5532 127.749 83.8169 127.481 83.7733ZM127.481 83.7733C127.214 83.7297 126.235 83.4077 126.015 83.5661M126.015 83.5661C125.795 83.7244 126.058 83.2985 126.015 83.5661Z" stroke="black"/>
<path d="M63.9872 113.964C61.5249 116.876 59.2784 119.939 57.2403 123.162" stroke="black"/>
<path d="M62.5263 112.886C60.064 115.798 57.8174 118.861 55.7794 122.084" stroke="black"/>
<path d="M66.3953 101.24C57.7218 109.076 50.7078 118.638 45.8384 129.265" stroke="black"/>
<path d="M71.3033 103.805C68.1777 106.574 65.2116 109.642 62.5226 112.837L63.9957 113.918C66.4225 111.048 69.0652 108.274 71.8588 105.759C73.1873 104.564 74.8022 103.895 76.5782 103.695C78.3542 103.495 80.2321 103.776 81.7932 104.647L107.366 119.205C109.885 120.609 111.819 122.813 112.71 125.556C113.601 128.299 113.371 131.377 112.158 133.993C107.049 145.01 99.8368 154.842 90.8631 163.024C88.7324 164.967 85.9704 165.967 83.0869 165.941C80.2034 165.915 76.5495 164.021 74.4539 162.04L53.8569 142.732C52.5579 141.505 51.62 139.942 51.2774 138.188C50.9349 136.433 51.1927 134.549 51.9344 132.922C53.4933 129.503 55.2406 126.292 57.2488 123.116L55.7757 122.035C53.5362 125.559 51.2893 129.598 49.5867 133.411M71.3033 103.805C71.4373 103.686 71.228 103.967 71.3033 103.805ZM71.3033 103.805C71.3071 103.626 71.7477 102.478 71.6795 102.312M71.6795 102.312C71.6114 102.147 71.8083 102.437 71.6795 102.312ZM71.6795 102.312L67.6506 98.9149M67.6506 98.9149C67.2918 98.6187 68.1158 98.906 67.6506 98.9149ZM67.6506 98.9149C67.1854 98.9237 65.5377 98.569 65.1904 98.8786C55.9402 107.135 48.465 117.326 43.3685 128.629M43.3685 128.629C43.1771 129.053 43.2374 128.182 43.3685 128.629ZM43.3685 128.629C43.4996 129.075 43.6462 130.855 44.0366 131.108L48.056 133.614M48.056 133.614C48.2133 133.7 47.8777 133.599 48.056 133.614ZM48.056 133.614C48.2255 133.557 49.4544 133.531 49.5867 133.411M49.5867 133.411C49.719 133.29 49.5138 133.574 49.5867 133.411Z" stroke="black"/>
<path d="M79.489 118.301C79.6493 118.083 79.5302 118.569 79.489 118.301ZM79.489 118.301C79.4478 118.033 79.5137 116.993 79.2951 116.833M79.489 118.301C79.2704 118.141 77.8774 117.357 77.8362 117.089M79.2951 116.833C79.0766 116.672 79.5631 116.792 79.2951 116.833ZM79.2951 116.833C79.0272 116.874 77.9966 116.87 77.8362 117.089M77.8362 117.089C77.6759 117.307 77.795 116.821 77.8362 117.089Z" stroke="black"/>
<path d="M98.9734 132.579C99.1337 132.36 99.0146 132.846 98.9734 132.579ZM98.9734 132.579C98.9322 132.311 98.9981 131.27 98.7795 131.11M98.9734 132.579C98.7548 132.418 97.3618 131.634 97.3206 131.366M98.7795 131.11C98.5609 130.95 99.0474 131.069 98.7795 131.11ZM98.7795 131.11C98.5116 131.151 97.4809 131.148 97.3206 131.366M97.3206 131.366C97.1603 131.585 97.2794 131.098 97.3206 131.366Z" stroke="black"/>
<path d="M85.4734 150.977C85.6337 150.758 85.5146 151.245 85.4734 150.977ZM85.4734 150.977C85.4322 150.709 85.4981 149.669 85.2795 149.509M85.4734 150.977C85.2055 151.018 84.233 151.393 84.0145 151.233C83.7959 151.073 83.8618 150.033 83.8206 149.765M85.2795 149.509C85.0609 149.348 85.5474 149.467 85.2795 149.509ZM85.2795 149.509C85.0116 149.55 83.9809 149.546 83.8206 149.765M83.8206 149.765C83.6603 149.983 83.7794 149.497 83.8206 149.765Z" stroke="black"/>
<path d="M65.989 136.702C66.1493 136.483 66.0302 136.97 65.989 136.702ZM65.989 136.702C65.9478 136.434 66.0137 135.393 65.7951 135.233M65.989 136.702C65.7211 136.743 64.7487 137.118 64.5301 136.958C64.3115 136.797 64.3774 135.757 64.3362 135.489M65.7951 135.233C65.5766 135.073 66.0631 135.192 65.7951 135.233ZM65.7951 135.233C65.5272 135.274 64.4966 135.271 64.3362 135.489M64.3362 135.489C64.1759 135.708 64.295 135.221 64.3362 135.489Z" stroke="black"/>
<path d="M28.0936 195.437C26.6517 198.967 25.4616 202.574 24.5193 206.27" stroke="black"/>
<path d="M26.3592 194.866C24.9174 198.397 23.7272 202.004 22.7849 205.699" stroke="black"/>
<path d="M26.4847 182.595C20.6573 192.729 16.9416 203.99 15.5943 215.602" stroke="black"/>
<path d="M31.9516 183.512C29.8348 187.112 27.9619 190.946 26.3919 194.816L28.1268 195.388C29.5479 191.909 31.2041 188.454 33.084 185.199C33.978 183.652 35.3072 182.517 36.9345 181.778C38.5618 181.039 40.4347 180.726 42.1883 181.071L71.0085 187.014C73.8379 187.571 76.3587 189.07 78.0533 191.403C79.7479 193.736 80.4812 196.735 80.1356 199.598C78.6809 211.655 74.8602 223.234 68.8542 233.789C67.4283 236.295 65.1103 238.1 62.3599 238.966C59.6096 239.833 55.5491 239.16 52.944 237.924L27.3885 225.926C25.7737 225.159 24.3988 223.963 23.5309 222.401C22.663 220.838 22.3259 218.966 22.5287 217.19C22.9546 213.456 23.6241 209.863 24.5525 206.221L22.8176 205.649C21.7767 209.692 20.8879 214.228 20.4468 218.38M31.9516 183.512C32.0424 183.358 31.9302 183.69 31.9516 183.512ZM31.9516 183.512C31.9 183.341 31.9642 182.113 31.8483 181.976M31.8483 181.976C31.7323 181.84 32.0091 182.055 31.8483 181.976ZM31.8483 181.976L26.9667 179.99M26.9667 179.99C26.5339 179.819 27.4064 179.838 26.9667 179.99ZM26.9667 179.99C26.527 180.142 24.8503 180.314 24.6157 180.716C18.3695 191.427 14.4094 203.429 13.0551 215.753M13.0551 215.753C13.0042 216.216 12.7924 215.369 13.0551 215.753ZM13.0551 215.753C13.3178 216.138 14.0071 217.785 14.4567 217.905L19.0538 219.047M19.0538 219.047C19.2298 219.079 18.8795 219.087 19.0538 219.047ZM19.0538 219.047C19.1973 218.94 20.3583 218.536 20.4468 218.38M20.4468 218.38C20.5354 218.224 20.428 218.558 20.4468 218.38Z" stroke="black"/>
<path d="M44.213 194.769C44.2979 194.512 44.335 195.011 44.213 194.769ZM44.213 194.769C44.091 194.527 43.8322 193.517 43.5748 193.432M44.213 194.769C43.9556 194.684 42.3884 194.369 42.2665 194.127M43.5748 193.432C43.3174 193.348 43.8169 193.31 43.5748 193.432ZM43.5748 193.432C43.3327 193.554 42.3514 193.869 42.2665 194.127M42.2665 194.127C42.1815 194.384 42.1445 193.885 42.2665 194.127Z" stroke="black"/>
<path d="M67.2052 202.343C67.2901 202.086 67.3271 202.585 67.2052 202.343ZM67.2052 202.343C67.0832 202.101 66.8244 201.092 66.567 201.007M67.2052 202.343C66.9478 202.258 65.3806 201.943 65.2587 201.701M66.567 201.007C66.3096 200.922 66.8091 200.885 66.567 201.007ZM66.567 201.007C66.3249 201.129 65.3436 201.444 65.2587 201.701M65.2587 201.701C65.1737 201.959 65.1367 201.459 65.2587 201.701Z" stroke="black"/>
<path d="M60.0411 224.011C60.1261 223.754 60.1631 224.253 60.0411 224.011ZM60.0411 224.011C59.9192 223.769 59.6604 222.76 59.4029 222.675M60.0411 224.011C59.799 224.133 58.9902 224.791 58.7328 224.706C58.4753 224.621 58.2166 223.611 58.0946 223.369M59.4029 222.675C59.1455 222.59 59.645 222.553 59.4029 222.675ZM59.4029 222.675C59.1609 222.797 58.1795 223.112 58.0946 223.369M58.0946 223.369C58.0097 223.627 57.9726 223.127 58.0946 223.369Z" stroke="black"/>
<path d="M37.0958 216.431C37.1807 216.174 37.2178 216.673 37.0958 216.431ZM37.0958 216.431C36.9738 216.189 36.7151 215.18 36.4576 215.095M37.0958 216.431C36.8537 216.553 36.0449 217.211 35.7875 217.126C35.53 217.041 35.2713 216.031 35.1493 215.789M36.4576 215.095C36.2002 215.01 36.6997 214.973 36.4576 215.095ZM36.4576 215.095C36.2155 215.217 35.2342 215.532 35.1493 215.789M35.1493 215.789C35.0643 216.046 35.0273 215.547 35.1493 215.789Z" stroke="black"/>
<path d="M10.4082 271.628C10.1279 275.431 10.1106 279.229 10.3564 283.035" stroke="black"/>
<path d="M8.58008 271.616C8.29977 275.419 8.28251 279.218 8.52824 283.023" stroke="black"/>
<path d="M4.86287 259.739C2.45202 271.176 2.39813 283.035 4.70494 294.495" stroke="black"/>
<path d="M10.3582 259.098C9.45742 263.175 8.8611 267.401 8.56368 271.566L10.3906 271.575C10.6669 267.826 11.1744 264.029 11.9566 260.353C12.3287 258.604 13.242 257.114 14.5613 255.908C15.8806 254.703 17.5652 253.827 19.3396 253.613L48.5857 250.359C51.4487 250.015 54.3093 250.661 56.642 252.357C58.9746 254.052 60.5986 256.677 61.1546 259.507C63.4968 271.423 63.4413 283.616 60.991 295.51C60.4093 298.335 58.7623 300.767 56.4144 302.441C54.0664 304.115 49.9969 304.73 47.1372 304.359L19.125 300.845C17.3524 300.616 15.6752 299.903 14.3669 298.685C13.0586 297.467 12.1594 295.791 11.8036 294.039C11.0548 290.356 10.5811 286.732 10.3388 282.982L8.51184 282.973C8.77147 287.141 9.32773 291.729 10.1913 295.814M10.3582 259.098C10.3968 258.923 10.3928 259.273 10.3582 259.098ZM10.3582 259.098C10.2561 258.951 9.93779 257.763 9.78539 257.669M9.78539 257.669C9.63299 257.575 9.96262 257.694 9.78539 257.669ZM9.78539 257.669L4.52905 257.289M4.52905 257.289C4.06466 257.26 4.90019 257.008 4.52905 257.289ZM4.52905 257.289C4.15791 257.569 2.61638 258.251 2.51742 258.705C-0.113338 270.822 -0.170769 283.46 2.34976 295.6M2.34976 295.6C2.44428 296.056 1.98115 295.316 2.34976 295.6ZM2.34976 295.6C2.71836 295.885 3.88279 297.238 4.34762 297.214L9.07249 296.879M9.07249 296.879C9.24995 296.855 8.91925 296.971 9.07249 296.879ZM9.07249 296.879C9.17586 296.732 10.1552 295.989 10.1913 295.814M10.1913 295.814C10.2275 295.639 10.2284 295.989 10.1913 295.814Z" stroke="black"/>
<path d="M25.537 266.01C25.5383 265.739 25.7278 266.203 25.537 266.01ZM25.537 266.01C25.3462 265.818 24.7881 264.938 24.517 264.936M25.537 266.01C25.266 266.009 23.6781 266.194 23.4873 266.001M24.517 264.936C24.246 264.935 24.7096 264.745 24.517 264.936ZM24.517 264.936C24.3245 265.127 23.4886 265.73 23.4873 266.001M23.4873 266.001C23.4861 266.272 23.2965 265.809 23.4873 266.001Z" stroke="black"/>
<path d="M49.7167 266.124C49.718 265.853 49.9075 266.316 49.7167 266.124ZM49.7167 266.124C49.5259 265.931 48.9678 265.051 48.6967 265.05M49.7167 266.124C49.4457 266.122 47.8578 266.307 47.667 266.114M48.6967 265.05C48.4257 265.048 48.8893 264.859 48.6967 265.05ZM48.6967 265.05C48.5042 265.24 47.6683 265.843 47.667 266.114M47.667 266.114C47.6658 266.385 47.4762 265.922 47.667 266.114Z" stroke="black"/>
<path d="M49.5839 288.932C49.5851 288.661 49.7747 289.125 49.5839 288.932ZM49.5839 288.932C49.3931 288.74 48.835 287.859 48.5639 287.858M49.5839 288.932C49.3914 289.123 48.8253 289.998 48.5542 289.997C48.2831 289.996 47.725 289.115 47.5342 288.923M48.5639 287.858C48.2928 287.857 48.7565 287.667 48.5639 287.858ZM48.5639 287.858C48.3714 288.049 47.5354 288.652 47.5342 288.923M47.5342 288.923C47.533 289.194 47.3434 288.73 47.5342 288.923Z" stroke="black"/>
<path d="M25.3964 288.825C25.3976 288.554 25.5872 289.017 25.3964 288.825ZM25.3964 288.825C25.2056 288.632 24.6475 287.752 24.3764 287.751M25.3964 288.825C25.2039 289.016 24.6378 289.891 24.3667 289.89C24.0956 289.888 23.5375 289.008 23.3467 288.816M24.3764 287.751C24.1053 287.75 24.569 287.56 24.3764 287.751ZM24.3764 287.751C24.1839 287.942 23.3479 288.544 23.3467 288.816M23.3467 288.816C23.3455 289.087 23.1559 288.623 23.3467 288.816Z" stroke="black"/>
<path d="M22.4457 365.215C23.3544 368.919 24.5117 372.537 25.9214 376.08" stroke="black"/>
<path d="M20.6644 365.786C21.5731 369.489 22.7304 373.107 24.1401 376.65" stroke="black"/>
<path d="M13.4897 355.805C14.7314 367.428 18.3446 378.723 24.0797 388.909" stroke="black"/>
<path d="M18.523 353.311C18.9264 357.467 19.665 361.67 20.6694 365.724L22.4094 365.167C21.5139 361.517 20.8231 357.748 20.431 354.01C20.2447 352.233 20.6528 350.533 21.5349 348.979C22.417 347.425 23.7485 346.071 25.3701 345.319L52.1794 333.187C54.7957 331.975 57.7162 331.706 60.4585 332.597C63.2009 333.489 65.5567 335.484 66.9598 338.003C72.8696 348.612 76.5849 360.226 77.93 372.295C78.2496 375.161 77.4348 377.983 75.719 380.301C74.0033 382.618 70.323 384.461 67.4887 384.992L39.7616 390.307C38.0048 390.636 36.1894 390.476 34.5688 389.722C32.9481 388.968 31.5749 387.652 30.6952 386.096C28.8451 382.825 27.2745 379.524 25.8851 376.032L24.1451 376.589C25.6798 380.472 27.6267 384.664 29.7104 388.282M18.523 353.311C18.5058 353.133 18.6102 353.467 18.523 353.311ZM18.523 353.311C18.3805 353.203 17.7108 352.171 17.5368 352.129M17.5368 352.129C17.3629 352.087 17.7131 352.098 17.5368 352.129ZM17.5368 352.129L12.4202 353.392M12.4202 353.392C11.9697 353.508 12.6865 353.01 12.4202 353.392ZM12.4202 353.392C12.1539 353.773 10.8984 354.898 10.9448 355.361C12.187 367.697 16.0379 379.735 22.1865 390.502M22.1865 390.502C22.4173 390.906 21.7481 390.345 22.1865 390.502ZM22.1865 390.502C22.6249 390.658 24.1506 391.586 24.5851 391.419L28.9752 389.64M28.9752 389.64C29.1368 389.563 28.858 389.775 28.9752 389.64ZM28.9752 389.64C29.0284 389.469 29.7302 388.46 29.7104 388.282M29.7104 388.282C29.6906 388.104 29.7998 388.437 29.7104 388.282Z" stroke="black"/>
<path d="M35.075 355.205C34.9924 354.946 35.316 355.329 35.075 355.205ZM35.075 355.205C34.834 355.08 34.0312 354.416 33.773 354.498M35.075 355.205C34.8168 355.287 33.3637 355.953 33.1227 355.829M33.773 354.498C33.5148 354.581 33.8972 354.257 33.773 354.498ZM33.773 354.498C33.6489 354.739 33.0401 355.571 33.1227 355.829M33.1227 355.829C33.2053 356.087 32.8818 355.705 33.1227 355.829Z" stroke="black"/>
<path d="M58.075 347.853C57.9924 347.595 58.316 347.977 58.075 347.853ZM58.075 347.853C57.834 347.729 57.0312 347.064 56.773 347.147M58.075 347.853C57.8168 347.936 56.3637 348.602 56.1227 348.478M56.773 347.147C56.5148 347.229 56.8972 346.906 56.773 347.147ZM56.773 347.147C56.6489 347.388 56.0401 348.219 56.1227 348.478M56.1227 348.478C56.2053 348.736 55.8818 348.353 56.1227 348.478Z" stroke="black"/>
<path d="M65.0047 369.583C64.9221 369.325 65.2457 369.708 65.0047 369.583ZM65.0047 369.583C64.7637 369.459 63.9609 368.795 63.7027 368.877M65.0047 369.583C64.8805 369.824 64.6126 370.832 64.3544 370.914C64.0962 370.997 63.2934 370.332 63.0524 370.208M63.7027 368.877C63.4445 368.96 63.8269 368.636 63.7027 368.877ZM63.7027 368.877C63.5785 369.118 62.9698 369.95 63.0524 370.208M63.0524 370.208C63.135 370.466 62.8114 370.084 63.0524 370.208Z" stroke="black"/>
<path d="M42.0125 376.935C41.9299 376.677 42.2535 377.059 42.0125 376.935ZM42.0125 376.935C41.7715 376.811 40.9687 376.146 40.7105 376.229M42.0125 376.935C41.8883 377.176 41.6204 378.183 41.3622 378.266C41.104 378.348 40.3012 377.684 40.0602 377.56M40.7105 376.229C40.4523 376.311 40.8347 375.988 40.7105 376.229ZM40.7105 376.229C40.5864 376.47 39.9776 377.301 40.0602 377.56M40.0602 377.56C40.1428 377.818 39.8193 377.435 40.0602 377.56Z" stroke="black"/>
<path d="M62.4336 437.729C64.4423 440.97 66.6609 444.053 69.0966 446.988" stroke="black"/>
<path d="M60.9257 438.795C62.9344 442.037 65.1531 445.12 67.5888 448.054" stroke="black"/>
<path d="M51.0219 431.539C55.7946 442.21 62.7213 451.835 71.3233 459.75" stroke="black"/>
<path d="M55.0235 427.616C56.6916 431.445 58.6929 435.214 60.9006 438.759L62.3835 437.691C60.4038 434.497 58.5823 431.126 57.0543 427.692C56.3278 426.059 56.1907 424.317 56.5493 422.566C56.9079 420.815 57.7559 419.116 59.0659 417.9L80.814 398.077C82.9276 396.116 85.622 394.957 88.5057 394.958C91.3893 394.958 94.2462 396.128 96.3592 398.09C105.258 406.353 112.38 416.251 117.389 427.314C118.579 429.941 118.676 432.876 117.76 435.611C116.845 438.345 113.914 441.235 111.383 442.616L86.6549 456.238C85.0858 457.094 83.3099 457.503 81.5356 457.287C79.7613 457.071 78.0485 456.243 76.731 455.035C73.9607 452.496 71.4469 449.842 69.0465 446.95L67.5636 448.018C70.2232 451.236 73.3702 454.621 76.4701 457.419M55.0235 427.616C54.9521 427.452 55.1547 427.738 55.0235 427.616ZM55.0235 427.616C54.8545 427.557 53.8989 426.784 53.7204 426.797M53.7204 426.797C53.542 426.811 53.8785 426.713 53.7204 426.797ZM53.7204 426.797L49.2444 429.579M49.2444 429.579C48.8518 429.829 49.3797 429.134 49.2444 429.579ZM49.2444 429.579C49.1091 430.024 48.2625 431.482 48.4497 431.908C53.4433 443.257 60.8255 453.515 70.0004 461.855M70.0004 461.855C70.3447 462.168 69.5351 461.842 70.0004 461.855ZM70.0004 461.855C70.4657 461.868 72.2032 462.279 72.5649 461.986L76.1905 458.938M76.1905 458.938C76.3204 458.814 76.1209 459.103 76.1905 458.938ZM76.1905 458.938C76.1883 458.759 76.5438 457.582 76.4701 457.419M76.4701 457.419C76.3963 457.256 76.603 457.539 76.4701 457.419Z" stroke="black"/>
<path d="M71.3587 424.306C71.2004 424.086 71.6262 424.349 71.3587 424.306ZM71.3587 424.306C71.0912 424.262 70.1222 423.878 69.9022 424.036M71.3587 424.306C71.1387 424.464 69.9625 425.546 69.695 425.503M69.9022 424.036C69.6822 424.194 69.9458 423.769 69.9022 424.036ZM69.9022 424.036C69.8586 424.304 69.5366 425.283 69.695 425.503M69.695 425.503C69.8533 425.723 69.4274 425.459 69.695 425.503Z" stroke="black"/>
<path d="M90.9368 410.206C90.7785 409.986 91.2044 410.25 90.9368 410.206ZM90.9368 410.206C90.6693 410.162 89.7003 409.778 89.4803 409.937M90.9368 410.206C90.7168 410.364 89.5406 411.447 89.2731 411.403M89.4803 409.937C89.2603 410.095 89.5239 409.669 89.4803 409.937ZM89.4803 409.937C89.4367 410.204 89.1148 411.183 89.2731 411.403M89.2731 411.403C89.4314 411.623 89.0056 411.36 89.2731 411.403Z" stroke="black"/>
<path d="M104.257 428.725C104.099 428.505 104.525 428.769 104.257 428.725ZM104.257 428.725C103.99 428.682 103.021 428.298 102.801 428.456M104.257 428.725C104.214 428.993 104.27 430.034 104.05 430.192C103.83 430.35 102.861 429.966 102.593 429.923M102.801 428.456C102.581 428.614 102.844 428.189 102.801 428.456ZM102.801 428.456C102.757 428.724 102.435 429.703 102.593 429.923M102.593 429.923C102.752 430.143 102.326 429.879 102.593 429.923Z" stroke="black"/>
<path d="M84.6868 442.825C84.5285 442.605 84.9544 442.869 84.6868 442.825ZM84.6868 442.825C84.4193 442.781 83.4503 442.397 83.2303 442.556M84.6868 442.825C84.6432 443.093 84.6996 444.133 84.4796 444.292C84.2596 444.45 83.2906 444.066 83.0231 444.022M83.2303 442.556C83.0103 442.714 83.2739 442.288 83.2303 442.556ZM83.2303 442.556C83.1867 442.823 82.8648 443.802 83.0231 444.022M83.0231 444.022C83.1814 444.242 82.7556 443.979 83.0231 444.022Z" stroke="black"/>
<path d="M119.234 502.577C122.146 505.04 125.209 507.286 128.432 509.324" stroke="black"/>
<path d="M118.187 504.05C121.099 506.512 124.162 508.759 127.385 510.797" stroke="black"/>
<path d="M106.382 500.073C114.219 508.747 123.781 515.761 134.408 520.63" stroke="black"/>
<path d="M109.123 495.21C111.892 498.336 114.96 501.302 118.155 503.991L119.236 502.518C116.366 500.091 113.592 497.449 111.078 494.655C109.882 493.326 109.213 491.711 109.013 489.935C108.813 488.159 109.095 486.282 109.965 484.72L124.523 459.147C125.927 456.629 128.132 454.694 130.874 453.804C133.617 452.913 136.695 453.142 139.311 454.356C150.328 459.465 160.16 466.677 168.343 475.651C170.286 477.781 171.285 480.543 171.26 483.427C171.234 486.31 169.339 489.964 167.359 492.06L148.051 512.657C146.823 513.956 145.26 514.894 143.506 515.236C141.752 515.579 139.867 515.321 138.241 514.579C134.821 513.02 131.61 511.273 128.434 509.265L127.354 510.738C130.878 512.977 134.917 515.224 138.729 516.927M109.123 495.21C109.004 495.076 109.285 495.286 109.123 495.21ZM109.123 495.21C108.944 495.207 107.796 494.766 107.631 494.834M107.631 494.834C107.465 494.902 107.755 494.705 107.631 494.834ZM107.631 494.834L104.233 498.863M104.233 498.863C103.937 499.222 104.224 498.398 104.233 498.863ZM104.233 498.863C104.242 499.328 103.887 500.976 104.197 501.323C112.453 510.573 122.644 518.049 133.947 523.145M133.947 523.145C134.371 523.337 133.5 523.276 133.947 523.145ZM133.947 523.145C134.394 523.014 136.173 522.868 136.426 522.477L138.933 518.458M138.933 518.458C139.018 518.3 138.917 518.636 138.933 518.458ZM138.933 518.458C138.875 518.288 138.85 517.059 138.729 516.927M138.729 516.927C138.609 516.795 138.893 517 138.729 516.927Z" stroke="black"/>
<path d="M123.614 487.019C123.395 486.858 123.882 486.978 123.614 487.019ZM123.614 487.019C123.346 487.06 122.306 486.994 122.145 487.213M123.614 487.019C123.453 487.237 122.669 488.63 122.401 488.672M122.145 487.213C121.985 487.431 122.104 486.945 122.145 487.213ZM122.145 487.213C122.186 487.481 122.183 488.511 122.401 488.672M122.401 488.672C122.62 488.832 122.133 488.713 122.401 488.672Z" stroke="black"/>
<path d="M137.895 467.552C137.676 467.392 138.163 467.511 137.895 467.552ZM137.895 467.552C137.627 467.593 136.587 467.527 136.426 467.746M137.895 467.552C137.735 467.771 136.951 469.164 136.683 469.205M136.426 467.746C136.266 467.964 136.385 467.478 136.426 467.746ZM136.426 467.746C136.468 468.014 136.464 469.044 136.683 469.205M136.683 469.205C136.901 469.365 136.415 469.246 136.683 469.205Z" stroke="black"/>
<path d="M156.286 481.046C156.067 480.886 156.554 481.005 156.286 481.046ZM156.286 481.046C156.018 481.087 154.977 481.021 154.817 481.24M156.286 481.046C156.327 481.314 156.702 482.286 156.542 482.505C156.381 482.724 155.341 482.658 155.073 482.699M154.817 481.24C154.657 481.459 154.776 480.972 154.817 481.24ZM154.817 481.24C154.858 481.508 154.855 482.539 155.073 482.699M155.073 482.699C155.292 482.859 154.805 482.74 155.073 482.699Z" stroke="black"/>
<path d="M142.004 500.513C141.786 500.353 142.272 500.472 142.004 500.513ZM142.004 500.513C141.736 500.554 140.696 500.488 140.536 500.707M142.004 500.513C142.046 500.781 142.421 501.753 142.26 501.972C142.1 502.19 141.06 502.125 140.792 502.166M140.536 500.707C140.376 500.925 140.495 500.439 140.536 500.707ZM140.536 500.707C140.577 500.975 140.573 502.005 140.792 502.166M140.792 502.166C141.011 502.326 140.524 502.207 140.792 502.166Z" stroke="black"/>
<path d="M194.882 538.135C198.413 539.577 202.02 540.767 205.715 541.709" stroke="black"/>
<path d="M194.288 539.863C197.819 541.305 201.426 542.495 205.121 543.438" stroke="black"/>
<path d="M182 539.785C192.133 545.612 203.394 549.328 215.006 550.675" stroke="black"/>
<path d="M182.938 534.298C186.537 536.415 190.372 538.288 194.242 539.858L194.814 538.123C191.334 536.702 187.88 535.046 184.625 533.166C183.078 532.272 181.942 530.943 181.203 529.315C180.464 527.688 180.152 525.815 180.497 524.062L186.44 495.241C186.997 492.412 188.496 489.891 190.829 488.197C193.162 486.502 196.161 485.769 199.024 486.114C211.08 487.569 222.66 491.39 233.215 497.396C235.721 498.822 237.525 501.14 238.392 503.89C239.258 506.64 238.586 510.701 237.35 513.306L225.352 538.861C224.585 540.476 223.389 541.851 221.826 542.719C220.264 543.587 218.392 543.924 216.616 543.721C212.882 543.295 209.288 542.626 205.647 541.697L205.074 543.432C209.118 544.473 213.654 545.362 217.806 545.803M182.938 534.298C182.783 534.208 183.115 534.32 182.938 534.298ZM182.938 534.298C182.766 534.35 181.538 534.286 181.402 534.402M181.402 534.402C181.266 534.518 181.481 534.241 181.402 534.402ZM181.402 534.402L179.416 539.283M179.416 539.283C179.245 539.716 179.264 538.844 179.416 539.283ZM179.416 539.283C179.568 539.723 179.74 541.4 180.142 541.634C190.852 547.88 202.855 551.841 215.179 553.195M215.179 553.195C215.642 553.246 214.795 553.458 215.179 553.195ZM215.179 553.195C215.563 552.932 217.21 552.243 217.331 551.793L218.472 547.196M218.472 547.196C218.505 547.02 218.513 547.37 218.472 547.196ZM218.472 547.196C218.365 547.053 217.961 545.892 217.806 545.803M217.806 545.803C217.65 545.715 217.984 545.822 217.806 545.803Z" stroke="black"/>
<path d="M194.197 522.023C193.939 521.938 194.439 521.901 194.197 522.023ZM194.197 522.023C193.955 522.145 192.945 522.404 192.86 522.662M194.197 522.023C194.112 522.281 193.797 523.848 193.555 523.97M192.86 522.662C192.775 522.919 192.738 522.419 192.86 522.662ZM192.86 522.662C192.982 522.904 193.297 523.885 193.555 523.97M193.555 523.97C193.812 524.055 193.313 524.092 193.555 523.97Z" stroke="black"/>
<path d="M201.767 499.06C201.51 498.976 202.009 498.938 201.767 499.06ZM201.767 499.06C201.525 499.182 200.515 499.441 200.431 499.699M201.767 499.06C201.682 499.318 201.367 500.885 201.125 501.007M200.431 499.699C200.346 499.956 200.309 499.457 200.431 499.699ZM200.431 499.699C200.552 499.941 200.868 500.922 201.125 501.007M201.125 501.007C201.382 501.092 200.883 501.129 201.125 501.007Z" stroke="black"/>
<path d="M223.439 506.207C223.182 506.122 223.681 506.085 223.439 506.207ZM223.439 506.207C223.197 506.329 222.187 506.588 222.102 506.845M223.439 506.207C223.561 506.449 224.218 507.258 224.134 507.515C224.049 507.773 223.039 508.031 222.797 508.153M222.102 506.845C222.017 507.103 221.98 506.603 222.102 506.845ZM222.102 506.845C222.224 507.087 222.539 508.069 222.797 508.153M222.797 508.153C223.054 508.238 222.555 508.275 222.797 508.153Z" stroke="black"/>
<path d="M215.869 529.176C215.611 529.091 216.111 529.054 215.869 529.176ZM215.869 529.176C215.627 529.298 214.617 529.556 214.532 529.814M215.869 529.176C215.991 529.418 216.648 530.227 216.563 530.484C216.478 530.741 215.469 531 215.227 531.122M214.532 529.814C214.447 530.071 214.41 529.572 214.532 529.814ZM214.532 529.814C214.654 530.056 214.969 531.037 215.227 531.122M215.227 531.122C215.484 531.207 214.984 531.244 215.227 531.122Z" stroke="black"/>
<path d="M276.915 554.354C280.718 554.634 284.516 554.651 288.322 554.405" stroke="black"/>
<path d="M276.915 556.178C280.718 556.458 284.516 556.475 288.322 556.23" stroke="black"/>
<path d="M265.008 559.94C276.446 562.351 288.305 562.405 299.764 560.098" stroke="black"/>
<path d="M264.381 554.394C268.458 555.295 272.684 555.891 276.849 556.188L276.858 554.361C273.109 554.085 269.312 553.578 265.636 552.795C263.888 552.423 262.397 551.51 261.192 550.191C259.986 548.871 259.11 547.187 258.896 545.412L255.643 516.166C255.298 513.303 255.944 510.443 257.64 508.11C259.335 505.777 261.96 504.153 264.79 503.597C276.706 501.255 288.899 501.311 300.794 503.761C303.618 504.343 306.05 505.99 307.724 508.338C309.398 510.686 310.013 514.755 309.643 517.615L306.129 545.627C305.899 547.4 305.186 549.077 303.968 550.385C302.75 551.693 301.074 552.593 299.322 552.948C295.64 553.697 292.015 554.171 288.265 554.413L288.257 556.24C292.424 555.98 297.012 555.424 301.097 554.561M264.381 554.394C264.206 554.355 264.556 554.359 264.381 554.394ZM264.381 554.394C264.234 554.496 263.046 554.814 262.952 554.967M262.952 554.967C262.858 555.119 262.977 554.789 262.952 554.967ZM262.952 554.967L262.572 560.223M262.572 560.223C262.543 560.687 262.291 559.852 262.572 560.223ZM262.572 560.223C262.853 560.594 263.534 562.136 263.989 562.235C276.105 564.865 288.744 564.923 300.884 562.402M300.884 562.402C301.339 562.308 300.599 562.771 300.884 562.402ZM300.884 562.402C301.168 562.034 302.521 560.869 302.497 560.404L302.162 555.679M302.162 555.679C302.138 555.502 302.254 555.833 302.162 555.679ZM302.162 555.679C302.016 555.576 301.273 554.597 301.097 554.561M301.097 554.561C300.922 554.524 301.272 554.524 301.097 554.561Z" stroke="black"/>
<path d="M271.282 539.244C271.011 539.243 271.474 539.053 271.282 539.244ZM271.282 539.244C271.089 539.435 270.209 539.993 270.208 540.264M271.282 539.244C271.281 539.515 271.465 541.103 271.273 541.294M270.208 540.264C270.207 540.535 270.017 540.072 270.208 540.264ZM270.208 540.264C270.399 540.457 271.001 541.293 271.273 541.294M271.273 541.294C271.544 541.295 271.08 541.485 271.273 541.294Z" stroke="black"/>
<path d="M271.422 515.107C271.151 515.106 271.615 514.917 271.422 515.107ZM271.422 515.107C271.23 515.298 270.35 515.856 270.348 516.127M271.422 515.107C271.421 515.379 271.606 516.966 271.413 517.157M270.348 516.127C270.347 516.399 270.158 515.935 270.348 516.127ZM270.348 516.127C270.539 516.32 271.142 517.156 271.413 517.157M271.413 517.157C271.684 517.158 271.221 517.348 271.413 517.157Z" stroke="black"/>
<path d="M294.235 515.209C293.964 515.208 294.428 515.018 294.235 515.209ZM294.235 515.209C294.042 515.4 293.162 515.958 293.161 516.229M294.235 515.209C294.426 515.402 295.301 515.968 295.3 516.239C295.299 516.51 294.418 517.068 294.226 517.259M293.161 516.229C293.16 516.5 292.97 516.037 293.161 516.229ZM293.161 516.229C293.352 516.422 293.955 517.258 294.226 517.259M294.226 517.259C294.497 517.26 294.033 517.45 294.226 517.259Z" stroke="black"/>
<path d="M294.094 539.348C293.823 539.346 294.287 539.157 294.094 539.348ZM294.094 539.348C293.902 539.539 293.022 540.097 293.02 540.368M294.094 539.348C294.285 539.54 295.16 540.106 295.159 540.377C295.158 540.649 294.278 541.207 294.085 541.397M293.02 540.368C293.019 540.639 292.829 540.175 293.02 540.368ZM293.02 540.368C293.211 540.56 293.814 541.396 294.085 541.397M294.085 541.397C294.356 541.399 293.892 541.588 294.085 541.397Z" stroke="black"/>
<path d="M364.643 541.785C368.347 540.876 371.964 539.719 375.508 538.309" stroke="black"/>
<path d="M365.19 543.57C368.894 542.661 372.511 541.504 376.055 540.094" stroke="black"/>
<path d="M355.219 550.715C366.842 549.474 378.137 545.86 388.323 540.125" stroke="black"/>
<path d="M352.735 545.696C356.891 545.292 361.094 544.554 365.148 543.549L364.591 541.809C360.941 542.705 357.172 543.396 353.434 543.788C351.657 543.974 349.957 543.566 348.403 542.684C346.848 541.802 345.495 540.47 344.743 538.849L332.611 512.039C331.399 509.423 331.13 506.503 332.021 503.76C332.913 501.018 334.908 498.662 337.427 497.259C348.036 491.349 359.65 487.634 371.719 486.289C374.585 485.969 377.407 486.784 379.725 488.5C382.042 490.215 383.885 493.896 384.416 496.73L389.73 524.457C390.06 526.214 389.9 528.029 389.146 529.65C388.392 531.271 387.075 532.644 385.52 533.524C382.248 535.374 378.948 536.944 375.456 538.334L376.012 540.074C379.896 538.539 384.088 536.592 387.706 534.508M352.735 545.696C352.557 545.713 352.891 545.609 352.735 545.696ZM352.735 545.696C352.626 545.838 351.595 546.508 351.553 546.682M351.553 546.682C351.511 546.856 351.522 546.506 351.553 546.682ZM351.553 546.682L352.816 551.799M352.816 551.799C352.932 552.249 352.434 551.532 352.816 551.799ZM352.816 551.799C353.197 552.065 354.322 553.32 354.785 553.274C367.121 552.032 379.159 548.181 389.926 542.032M389.926 542.032C390.33 541.801 389.769 542.471 389.926 542.032ZM389.926 542.032C390.082 541.594 391.009 540.068 390.843 539.634L389.064 535.244M389.064 535.244C388.987 535.082 389.199 535.361 389.064 535.244ZM389.064 535.244C388.893 535.19 387.884 534.489 387.706 534.508M387.706 534.508C387.528 534.528 387.861 534.419 387.706 534.508Z" stroke="black"/>
<path d="M354.644 529.15C354.386 529.232 354.768 528.909 354.644 529.15ZM354.644 529.15C354.52 529.391 353.855 530.193 353.938 530.452M354.644 529.15C354.727 529.408 355.393 530.861 355.269 531.102M353.938 530.452C354.02 530.71 353.697 530.327 353.938 530.452ZM353.938 530.452C354.179 530.576 355.01 531.184 355.269 531.102M355.269 531.102C355.527 531.019 355.144 531.343 355.269 531.102Z" stroke="black"/>
<path d="M347.253 506.157C346.995 506.24 347.378 505.916 347.253 506.157ZM347.253 506.157C347.129 506.398 346.465 507.201 346.547 507.459M347.253 506.157C347.336 506.416 348.002 507.869 347.878 508.11M346.547 507.459C346.63 507.718 346.306 507.335 346.547 507.459ZM346.547 507.459C346.788 507.584 347.62 508.192 347.878 508.11M347.878 508.11C348.136 508.027 347.754 508.351 347.878 508.11Z" stroke="black"/>
<path d="M369.019 499.21C368.761 499.293 369.143 498.969 369.019 499.21ZM369.019 499.21C368.895 499.451 368.23 500.254 368.313 500.512M369.019 499.21C369.26 499.334 370.267 499.602 370.35 499.86C370.432 500.119 369.768 500.921 369.644 501.162M368.313 500.512C368.395 500.77 368.072 500.388 368.313 500.512ZM368.313 500.512C368.554 500.636 369.385 501.245 369.644 501.162M369.644 501.162C369.902 501.08 369.519 501.403 369.644 501.162Z" stroke="black"/>
<path d="M376.363 522.196C376.105 522.279 376.487 521.956 376.363 522.196ZM376.363 522.196C376.239 522.437 375.574 523.24 375.656 523.498M376.363 522.196C376.604 522.321 377.611 522.589 377.694 522.847C377.776 523.105 377.111 523.908 376.987 524.149M375.656 523.498C375.739 523.757 375.416 523.374 375.656 523.498ZM375.656 523.498C375.897 523.623 376.729 524.231 376.987 524.149M376.987 524.149C377.246 524.066 376.863 524.39 376.987 524.149Z" stroke="black"/>
<path d="M443.025 507.615C446.267 505.607 449.35 503.388 452.284 500.952" stroke="black"/>
<path d="M444.119 509.098C447.361 507.089 450.444 504.87 453.378 502.435" stroke="black"/>
<path d="M436.857 519.011C447.528 514.239 457.153 507.312 465.068 498.71" stroke="black"/>
<path d="M432.923 515.01C436.751 513.342 440.521 511.34 444.065 509.133L442.998 507.65C439.803 509.629 436.433 511.451 432.999 512.979C431.366 513.705 429.623 513.843 427.872 513.484C426.122 513.125 424.423 512.277 423.207 510.967L403.384 489.219C401.422 487.106 400.264 484.411 400.264 481.528C400.265 478.644 401.434 475.787 403.397 473.674C411.66 464.775 421.557 457.653 432.62 452.644C435.247 451.454 438.183 451.357 440.917 452.273C443.652 453.188 446.541 456.119 447.922 458.651L461.545 483.378C462.401 484.947 462.81 486.723 462.594 488.498C462.377 490.272 461.55 491.985 460.342 493.302C457.803 496.073 455.149 498.586 452.257 500.987L453.324 502.47C456.543 499.81 459.928 496.663 462.726 493.563M432.923 515.01C432.759 515.081 433.045 514.879 432.923 515.01ZM432.923 515.01C432.864 515.179 432.09 516.134 432.104 516.313M432.104 516.313C432.118 516.491 432.02 516.155 432.104 516.313ZM432.104 516.313L434.886 520.789M434.886 520.789C435.136 521.181 434.441 520.653 434.886 520.789ZM434.886 520.789C435.331 520.924 436.789 521.771 437.215 521.584C448.563 516.59 458.822 509.208 467.162 500.033M467.162 500.033C467.475 499.688 467.148 500.498 467.162 500.033ZM467.162 500.033C467.175 499.568 467.585 497.83 467.293 497.468L464.244 493.843M464.244 493.843C464.121 493.713 464.409 493.912 464.244 493.843ZM464.244 493.843C464.065 493.845 462.889 493.489 462.726 493.563M462.726 493.563C462.562 493.637 462.845 493.43 462.726 493.563Z" stroke="black"/>
<path d="M429.624 498.688C429.404 498.847 429.668 498.421 429.624 498.688ZM429.624 498.688C429.58 498.956 429.196 499.925 429.354 500.145M429.624 498.688C429.782 498.908 430.865 500.084 430.821 500.352M429.354 500.145C429.513 500.365 429.087 500.101 429.354 500.145ZM429.354 500.145C429.622 500.188 430.601 500.51 430.821 500.352M430.821 500.352C431.041 500.194 430.778 500.619 430.821 500.352Z" stroke="black"/>
<path d="M415.522 479.096C415.302 479.255 415.566 478.829 415.522 479.096ZM415.522 479.096C415.479 479.364 415.095 480.333 415.253 480.553M415.522 479.096C415.681 479.316 416.763 480.493 416.72 480.76M415.253 480.553C415.411 480.773 414.985 480.509 415.253 480.553ZM415.253 480.553C415.52 480.597 416.5 480.918 416.72 480.76M416.72 480.76C416.94 480.602 416.676 481.028 416.72 480.76Z" stroke="black"/>
<path d="M434.046 465.772C433.826 465.93 434.089 465.505 434.046 465.772ZM434.046 465.772C434.002 466.04 433.618 467.009 433.776 467.229M434.046 465.772C434.313 465.816 435.354 465.759 435.512 465.979C435.671 466.199 435.287 467.168 435.243 467.436M433.776 467.229C433.935 467.449 433.509 467.185 433.776 467.229ZM433.776 467.229C434.044 467.272 435.023 467.594 435.243 467.436M435.243 467.436C435.463 467.278 435.199 467.703 435.243 467.436Z" stroke="black"/>
<path d="M448.147 485.364C447.927 485.522 448.191 485.096 448.147 485.364ZM448.147 485.364C448.104 485.631 447.72 486.6 447.878 486.82M448.147 485.364C448.415 485.408 449.456 485.351 449.614 485.571C449.772 485.791 449.388 486.76 449.345 487.028M447.878 486.82C448.036 487.041 447.61 486.777 447.878 486.82ZM447.878 486.82C448.145 486.864 449.125 487.186 449.345 487.028M449.345 487.028C449.565 486.869 449.301 487.295 449.345 487.028Z" stroke="black"/>
<path d="M502.013 444.946C504.475 442.034 506.722 438.971 508.76 435.748" stroke="black"/>
<path d="M503.474 446.024C505.936 443.112 508.183 440.049 510.221 436.826" stroke="black"/>
<path d="M499.519 457.819C508.192 449.982 515.206 440.42 520.076 429.794" stroke="black"/>
<path d="M494.65 455.078C497.775 452.309 500.742 449.241 503.431 446.046L501.957 444.965C499.531 447.835 496.888 450.609 494.094 453.123C492.766 454.319 491.151 454.988 489.375 455.188C487.599 455.388 485.721 455.106 484.16 454.236L458.587 439.678C456.068 438.274 454.134 436.069 453.243 433.327C452.353 430.584 452.582 427.506 453.795 424.89C458.904 413.873 466.116 404.041 475.09 395.858C477.221 393.915 479.983 392.916 482.866 392.942C485.75 392.967 489.404 394.862 491.499 396.843L512.096 416.15C513.395 417.378 514.333 418.941 514.676 420.695C515.018 422.449 514.76 424.334 514.019 425.96C512.46 429.38 510.713 432.591 508.704 435.767L510.177 436.848C512.417 433.324 514.664 429.285 516.366 425.472M494.65 455.078C494.516 455.197 494.725 454.916 494.65 455.078ZM494.65 455.078C494.646 455.257 494.205 456.405 494.274 456.571M494.274 456.571C494.342 456.736 494.145 456.446 494.274 456.571ZM494.274 456.571L498.302 459.968M498.302 459.968C498.661 460.264 497.837 459.977 498.302 459.968ZM498.302 459.968C498.768 459.959 500.415 460.314 500.763 460.004C510.013 451.748 517.488 441.557 522.585 430.254M522.585 430.254C522.776 429.83 522.716 430.701 522.585 430.254ZM522.585 430.254C522.453 429.808 522.307 428.028 521.917 427.775L517.897 425.269M517.897 425.269C517.74 425.183 518.075 425.284 517.897 425.269ZM517.897 425.269C517.728 425.326 516.499 425.351 516.366 425.472M516.366 425.472C516.234 425.593 516.439 425.309 516.366 425.472Z" stroke="black"/>
<path d="M486.464 440.582C486.304 440.8 486.423 440.314 486.464 440.582ZM486.464 440.582C486.505 440.85 486.439 441.89 486.658 442.05M486.464 440.582C486.683 440.742 488.076 441.526 488.117 441.794M486.658 442.05C486.877 442.21 486.39 442.091 486.658 442.05ZM486.658 442.05C486.926 442.009 487.957 442.013 488.117 441.794M488.117 441.794C488.277 441.575 488.158 442.062 488.117 441.794Z" stroke="black"/>
<path d="M466.98 426.306C466.819 426.525 466.939 426.038 466.98 426.306ZM466.98 426.306C467.021 426.574 466.955 427.614 467.174 427.775M466.98 426.306C467.198 426.467 468.591 427.251 468.633 427.519M467.174 427.775C467.392 427.935 466.906 427.816 467.174 427.775ZM467.174 427.775C467.442 427.734 468.472 427.737 468.633 427.519M468.633 427.519C468.793 427.3 468.674 427.786 468.633 427.519Z" stroke="black"/>
<path d="M480.488 407.906C480.327 408.124 480.446 407.638 480.488 407.906ZM480.488 407.906C480.529 408.174 480.463 409.214 480.681 409.374M480.488 407.906C480.755 407.865 481.728 407.489 481.946 407.65C482.165 407.81 482.099 408.85 482.14 409.118M480.681 409.374C480.9 409.535 480.413 409.415 480.681 409.374ZM480.681 409.374C480.949 409.333 481.98 409.337 482.14 409.118M482.14 409.118C482.301 408.9 482.182 409.386 482.14 409.118Z" stroke="black"/>
<path d="M499.964 422.181C499.804 422.4 499.923 421.913 499.964 422.181ZM499.964 422.181C500.005 422.449 499.939 423.489 500.158 423.65M499.964 422.181C500.232 422.14 501.204 421.765 501.423 421.925C501.642 422.085 501.576 423.126 501.617 423.394M500.158 423.65C500.377 423.81 499.89 423.691 500.158 423.65ZM500.158 423.65C500.426 423.609 501.457 423.612 501.617 423.394M501.617 423.394C501.777 423.175 501.658 423.661 501.617 423.394Z" stroke="black"/>
<path d="M537.313 369.313C538.755 365.783 539.945 362.176 540.887 358.48" stroke="black"/>
<path d="M539.047 369.884C540.489 366.353 541.679 362.746 542.621 359.051" stroke="black"/>
<path d="M538.922 382.157C544.749 372.023 548.465 360.762 549.812 349.15" stroke="black"/>
<path d="M533.455 381.24C535.571 377.64 537.444 373.806 539.014 369.936L537.279 369.364C535.858 372.843 534.202 376.298 532.322 379.553C531.428 381.1 530.099 382.235 528.472 382.974C526.844 383.713 524.972 384.026 523.218 383.681L494.398 377.738C491.568 377.181 489.048 375.682 487.353 373.349C485.658 371.015 484.925 368.017 485.271 365.154C486.725 353.097 490.546 341.518 496.552 330.963C497.978 328.457 500.296 326.652 503.046 325.786C505.797 324.919 509.857 325.592 512.462 326.828L538.018 338.826C539.633 339.593 541.007 340.789 541.875 342.351C542.743 343.914 543.08 345.786 542.878 347.562C542.452 351.296 541.782 354.889 540.854 358.531L542.589 359.103C543.63 355.06 544.518 350.524 544.959 346.372M533.455 381.24C533.364 381.394 533.476 381.062 533.455 381.24ZM533.455 381.24C533.506 381.411 533.442 382.639 533.558 382.776M533.558 382.776C533.674 382.912 533.397 382.697 533.558 382.776ZM533.558 382.776L538.44 384.762M538.44 384.762C538.872 384.933 538 384.914 538.44 384.762ZM538.44 384.762C538.879 384.61 540.556 384.438 540.791 384.036C547.037 373.325 550.997 361.323 552.351 348.999M552.351 348.999C552.402 348.536 552.614 349.383 552.351 348.999ZM552.351 348.999C552.088 348.614 551.399 346.967 550.95 346.847L546.352 345.705M546.352 345.705C546.176 345.673 546.527 345.665 546.352 345.705ZM546.352 345.705C546.209 345.812 545.048 346.216 544.959 346.372M544.959 346.372C544.871 346.527 544.978 346.194 544.959 346.372Z" stroke="black"/>
<path d="M521.193 369.981C521.108 370.238 521.071 369.739 521.193 369.981ZM521.193 369.981C521.315 370.223 521.574 371.233 521.831 371.318M521.193 369.981C521.451 370.066 523.018 370.381 523.14 370.623M521.831 371.318C522.089 371.402 521.589 371.44 521.831 371.318ZM521.831 371.318C522.074 371.196 523.055 370.881 523.14 370.623M523.14 370.623C523.225 370.366 523.262 370.865 523.14 370.623Z" stroke="black"/>
<path d="M498.201 362.407C498.116 362.664 498.079 362.165 498.201 362.407ZM498.201 362.407C498.323 362.649 498.582 363.658 498.839 363.743M498.201 362.407C498.458 362.492 500.026 362.807 500.148 363.049M498.839 363.743C499.097 363.828 498.597 363.865 498.839 363.743ZM498.839 363.743C499.081 363.621 500.063 363.306 500.148 363.049M500.148 363.049C500.233 362.791 500.27 363.291 500.148 363.049Z" stroke="black"/>
<path d="M505.365 340.739C505.28 340.996 505.243 340.497 505.365 340.739ZM505.365 340.739C505.487 340.981 505.746 341.99 506.003 342.075M505.365 340.739C505.607 340.617 506.416 339.959 506.673 340.044C506.931 340.129 507.19 341.139 507.312 341.381M506.003 342.075C506.261 342.16 505.761 342.197 506.003 342.075ZM506.003 342.075C506.245 341.953 507.227 341.638 507.312 341.381M507.312 341.381C507.397 341.123 507.434 341.623 507.312 341.381Z" stroke="black"/>
<path d="M528.31 348.319C528.226 348.576 528.188 348.077 528.31 348.319ZM528.31 348.319C528.432 348.561 528.691 349.57 528.949 349.655M528.31 348.319C528.553 348.197 529.361 347.539 529.619 347.624C529.876 347.709 530.135 348.719 530.257 348.961M528.949 349.655C529.206 349.74 528.707 349.777 528.949 349.655ZM528.949 349.655C529.191 349.533 530.172 349.218 530.257 348.961M530.257 348.961C530.342 348.704 530.379 349.203 530.257 348.961Z" stroke="black"/>
<path d="M553.811 287.284C554.091 283.481 554.108 279.683 553.862 275.877" stroke="black"/>
<path d="M555.639 287.296C555.919 283.493 555.936 279.694 555.691 275.889" stroke="black"/>
<path d="M559.403 299.176C561.814 287.738 561.867 275.879 559.561 264.42" stroke="black"/>
<path d="M553.861 299.815C554.761 295.737 555.358 291.511 555.655 287.346L553.828 287.338C553.552 291.086 553.044 294.883 552.262 298.56C551.89 300.308 550.977 301.798 549.657 303.004C548.338 304.209 546.654 305.086 544.879 305.299L515.633 308.553C512.77 308.898 509.909 308.251 507.577 306.556C505.244 304.86 503.62 302.235 503.064 299.405C500.722 287.489 500.777 275.296 503.228 263.402C503.809 260.577 505.456 258.145 507.804 256.471C510.152 254.797 514.222 254.182 517.082 254.553L545.094 258.067C546.866 258.296 548.544 259.009 549.852 260.227C551.16 261.445 552.059 263.121 552.415 264.873C553.164 268.556 553.638 272.18 553.88 275.93L555.707 275.939C555.447 271.771 554.891 267.183 554.027 263.098M553.861 299.815C553.822 299.989 553.826 299.639 553.861 299.815ZM553.861 299.815C553.963 299.962 554.281 301.149 554.433 301.243M554.433 301.243C554.586 301.337 554.256 301.218 554.433 301.243ZM554.433 301.243L559.69 301.623M559.69 301.623C560.154 301.652 559.319 301.904 559.69 301.623ZM559.69 301.623C560.061 301.343 561.602 300.661 561.701 300.207C564.332 288.09 564.39 275.452 561.869 263.312M561.869 263.312C561.774 262.856 562.238 263.596 561.869 263.312ZM561.869 263.312C561.5 263.028 560.336 261.674 559.871 261.699L555.146 262.034M555.146 262.034C554.969 262.057 555.3 261.941 555.146 262.034ZM555.146 262.034C555.043 262.18 554.064 262.923 554.027 263.098M554.027 263.098C553.991 263.273 553.99 262.923 554.027 263.098Z" stroke="black"/>
<path d="M538.69 292.902C538.688 293.173 538.499 292.709 538.69 292.902ZM538.69 292.902C538.88 293.094 539.438 293.975 539.71 293.976M538.69 292.902C538.961 292.903 540.548 292.719 540.739 292.911M539.71 293.976C539.981 293.977 539.517 294.167 539.71 293.976ZM539.71 293.976C539.902 293.785 540.738 293.182 540.739 292.911M540.739 292.911C540.74 292.64 540.93 293.104 540.739 292.911Z" stroke="black"/>
<path d="M514.549 292.788C514.548 293.06 514.358 292.596 514.549 292.788ZM514.549 292.788C514.74 292.981 515.298 293.861 515.569 293.863M514.549 292.788C514.82 292.79 516.408 292.605 516.599 292.798M515.569 293.863C515.84 293.864 515.376 294.053 515.569 293.863ZM515.569 293.863C515.761 293.672 516.597 293.069 516.599 292.798M516.599 292.798C516.6 292.527 516.789 292.99 516.599 292.798Z" stroke="black"/>
<path d="M514.682 269.98C514.68 270.251 514.491 269.787 514.682 269.98ZM514.682 269.98C514.873 270.172 515.431 271.053 515.702 271.054M514.682 269.98C514.874 269.789 515.44 268.914 515.711 268.915C515.982 268.916 516.541 269.797 516.731 269.989M515.702 271.054C515.973 271.055 515.509 271.245 515.702 271.054ZM515.702 271.054C515.894 270.863 516.73 270.26 516.731 269.989M516.731 269.989C516.733 269.718 516.922 270.182 516.731 269.989Z" stroke="black"/>
<path d="M538.822 270.087C538.821 270.358 538.632 269.895 538.822 270.087ZM538.822 270.087C539.013 270.28 539.571 271.16 539.842 271.161M538.822 270.087C539.015 269.896 539.581 269.021 539.852 269.023C540.123 269.024 540.681 269.904 540.872 270.097M539.842 271.161C540.113 271.163 539.65 271.352 539.842 271.161ZM539.842 271.161C540.035 270.971 540.871 270.368 540.872 270.097M540.872 270.097C540.873 269.826 541.063 270.289 540.872 270.097Z" stroke="black"/>
<path d="M541.234 205.377C540.325 201.673 539.168 198.055 537.758 194.512" stroke="black"/>
<path d="M543.015 204.806C542.107 201.103 540.949 197.485 539.54 193.941" stroke="black"/>
<path d="M550.19 214.789C548.948 203.166 545.335 191.871 539.6 181.685" stroke="black"/>
<path d="M545.157 217.283C544.753 213.126 544.015 208.923 543.01 204.87L541.27 205.427C542.166 209.077 542.857 212.845 543.249 216.583C543.435 218.361 543.027 220.06 542.145 221.615C541.263 223.169 539.931 224.523 538.31 225.274L511.5 237.406C508.884 238.619 505.964 238.888 503.221 237.996C500.479 237.105 498.123 235.11 496.72 232.591C490.81 221.982 487.095 210.368 485.75 198.299C485.43 195.433 486.245 192.611 487.961 190.293C489.676 187.975 493.357 186.133 496.191 185.602L523.918 180.287C525.675 179.958 527.49 180.118 529.111 180.872C530.732 181.626 532.105 182.942 532.984 184.498C534.835 187.769 536.405 191.07 537.795 194.562L539.535 194.005C538 190.122 536.053 185.93 533.969 182.312M545.157 217.283C545.174 217.461 545.07 217.127 545.157 217.283ZM545.157 217.283C545.299 217.391 545.969 218.422 546.143 218.464M546.143 218.464C546.317 218.507 545.967 218.496 546.143 218.464ZM546.143 218.464L551.259 217.202M551.259 217.202C551.71 217.086 550.993 217.583 551.259 217.202ZM551.259 217.202C551.526 216.82 552.781 215.696 552.735 215.233C551.493 202.896 547.642 190.859 541.493 180.092M541.493 180.092C541.262 179.688 541.932 180.248 541.493 180.092ZM541.493 180.092C541.055 179.935 539.529 179.008 539.095 179.175L534.704 180.954M534.704 180.954C534.543 181.031 534.822 180.818 534.704 180.954ZM534.704 180.954C534.651 181.125 533.95 182.134 533.969 182.312M533.969 182.312C533.989 182.49 533.88 182.157 533.969 182.312Z" stroke="black"/>
<path d="M528.605 215.389C528.687 215.647 528.364 215.265 528.605 215.389ZM528.605 215.389C528.846 215.513 529.648 216.178 529.907 216.095M528.605 215.389C528.863 215.307 530.316 214.64 530.557 214.765M529.907 216.095C530.165 216.013 529.783 216.336 529.907 216.095ZM529.907 216.095C530.031 215.855 530.64 215.023 530.557 214.765M530.557 214.765C530.474 214.506 530.798 214.889 530.557 214.765Z" stroke="black"/>
<path d="M505.605 222.741C505.687 222.999 505.364 222.617 505.605 222.741ZM505.605 222.741C505.846 222.865 506.648 223.53 506.907 223.447M505.605 222.741C505.863 222.658 507.316 221.992 507.557 222.116M506.907 223.447C507.165 223.364 506.783 223.688 506.907 223.447ZM506.907 223.447C507.031 223.206 507.64 222.374 507.557 222.116M507.557 222.116C507.474 221.858 507.798 222.24 507.557 222.116Z" stroke="black"/>
<path d="M498.675 201.01C498.758 201.268 498.434 200.886 498.675 201.01ZM498.675 201.01C498.916 201.134 499.719 201.799 499.977 201.717M498.675 201.01C498.799 200.769 499.067 199.762 499.325 199.679C499.583 199.597 500.386 200.262 500.627 200.386M499.977 201.717C500.235 201.634 499.853 201.958 499.977 201.717ZM499.977 201.717C500.101 201.476 500.71 200.644 500.627 200.386M500.627 200.386C500.545 200.128 500.868 200.51 500.627 200.386Z" stroke="black"/>
<path d="M521.667 193.659C521.75 193.917 521.426 193.535 521.667 193.659ZM521.667 193.659C521.908 193.783 522.711 194.448 522.969 194.365M521.667 193.659C521.791 193.418 522.059 192.41 522.317 192.328C522.576 192.245 523.378 192.91 523.619 193.034M522.969 194.365C523.227 194.282 522.845 194.606 522.969 194.365ZM522.969 194.365C523.093 194.124 523.702 193.292 523.619 193.034M523.619 193.034C523.537 192.776 523.86 193.158 523.619 193.034Z" stroke="black"/>
<path d="M507.043 127.023C505.034 123.782 502.816 120.699 500.38 117.764" stroke="black"/>
<path d="M508.551 125.957C506.542 122.715 504.323 119.632 501.888 116.698" stroke="black"/>
<path d="M518.447 133.213C513.674 122.542 506.747 112.917 498.145 105.002" stroke="black"/>
<path d="M514.445 137.136C512.777 133.307 510.776 129.538 508.568 125.993L507.085 127.061C509.065 130.255 510.886 133.626 512.414 137.06C513.141 138.693 513.278 140.435 512.919 142.186C512.561 143.937 511.713 145.636 510.403 146.852L488.655 166.675C486.541 168.636 483.847 169.795 480.963 169.794C478.079 169.794 475.223 168.624 473.11 166.662C464.211 158.399 457.088 148.501 452.079 137.438C450.89 134.811 450.793 131.876 451.708 129.141C452.624 126.407 455.555 123.517 458.086 122.136L482.814 108.514C484.383 107.658 486.159 107.249 487.933 107.465C489.707 107.681 491.42 108.509 492.738 109.717C495.508 112.256 498.022 114.91 500.422 117.802L501.905 116.734C499.246 113.515 496.099 110.13 492.999 107.333M514.445 137.136C514.517 137.3 514.314 137.014 514.445 137.136ZM514.445 137.136C514.614 137.195 515.57 137.968 515.748 137.955M515.748 137.955C515.927 137.941 515.59 138.039 515.748 137.955ZM515.748 137.955L520.224 135.173M520.224 135.173C520.617 134.923 520.089 135.618 520.224 135.173ZM520.224 135.173C520.36 134.728 521.206 133.27 521.019 132.844C516.025 121.495 508.643 111.237 499.468 102.897M499.468 102.897C499.124 102.584 499.934 102.91 499.468 102.897ZM499.468 102.897C499.003 102.884 497.266 102.473 496.904 102.766L493.278 105.814M493.278 105.814C493.148 105.938 493.348 105.649 493.278 105.814ZM493.278 105.814C493.28 105.993 492.925 107.17 492.999 107.333M492.999 107.333C493.072 107.496 492.866 107.213 492.999 107.333Z" stroke="black"/>
<path d="M498.118 140.448C498.276 140.668 497.85 140.405 498.118 140.448ZM498.118 140.448C498.385 140.492 499.354 140.876 499.574 140.718M498.118 140.448C498.338 140.29 499.514 139.207 499.782 139.251M499.574 140.718C499.794 140.559 499.531 140.985 499.574 140.718ZM499.574 140.718C499.618 140.45 499.94 139.471 499.782 139.251M499.782 139.251C499.623 139.031 500.049 139.295 499.782 139.251Z" stroke="black"/>
<path d="M478.54 154.546C478.698 154.766 478.272 154.502 478.54 154.546ZM478.54 154.546C478.807 154.59 479.776 154.974 479.996 154.815M478.54 154.546C478.76 154.388 479.936 153.305 480.203 153.349M479.996 154.815C480.216 154.657 479.953 155.083 479.996 154.815ZM479.996 154.815C480.04 154.548 480.362 153.569 480.203 153.349M480.203 153.349C480.045 153.129 480.471 153.392 480.203 153.349Z" stroke="black"/>
<path d="M465.219 136.026C465.378 136.247 464.952 135.983 465.219 136.026ZM465.219 136.026C465.487 136.07 466.456 136.454 466.676 136.296M465.219 136.026C465.263 135.759 465.207 134.718 465.427 134.56C465.647 134.401 466.616 134.786 466.883 134.829M466.676 136.296C466.896 136.138 466.632 136.563 466.676 136.296ZM466.676 136.296C466.72 136.028 467.041 135.049 466.883 134.829M466.883 134.829C466.725 134.609 467.151 134.873 466.883 134.829Z" stroke="black"/>
<path d="M484.79 121.929C484.948 122.149 484.522 121.885 484.79 121.929ZM484.79 121.929C485.057 121.972 486.026 122.357 486.246 122.198M484.79 121.929C484.833 121.661 484.777 120.621 484.997 120.462C485.217 120.304 486.186 120.688 486.453 120.732M486.246 122.198C486.466 122.04 486.203 122.466 486.246 122.198ZM486.246 122.198C486.29 121.931 486.612 120.952 486.453 120.732M486.453 120.732C486.295 120.512 486.721 120.775 486.453 120.732Z" stroke="black"/>
<path d="M450.219 64.5458C447.307 62.0835 444.244 59.837 441.021 57.7989" stroke="black"/>
<path d="M451.321 63.0751C448.409 60.6128 445.346 58.3663 442.123 56.3282" stroke="black"/>
<path d="M462.938 66.948C455.102 58.2745 445.539 51.2606 434.913 46.3911" stroke="black"/>
<path d="M460.385 71.8794C457.615 68.7539 454.547 65.7877 451.352 63.0988L450.272 64.5719C453.142 66.9987 455.916 69.6413 458.43 72.435C459.626 73.7635 460.295 75.3784 460.494 77.1544C460.694 78.9304 460.413 80.8083 459.543 82.3694L444.985 107.942C443.581 110.461 441.376 112.395 438.633 113.286C435.891 114.177 432.812 113.948 430.196 112.734C419.18 107.625 409.347 100.413 401.165 91.4393C399.222 89.3086 398.222 86.5466 398.248 83.6631C398.274 80.7795 400.168 77.1257 402.149 75.03L421.457 54.4331C422.685 53.1341 424.247 52.1962 426.002 51.8536C427.756 51.5111 429.641 51.7689 431.267 52.5106C434.686 54.0695 437.897 55.8167 441.074 57.825L442.154 56.3519C438.63 54.1124 434.591 51.8655 430.779 50.1629M460.385 71.8794C460.504 72.0134 460.222 71.8042 460.385 71.8794ZM460.385 71.8794C460.564 71.8833 461.712 72.3238 461.877 72.2557M461.877 72.2557C462.043 72.1876 461.753 72.3844 461.877 72.2557ZM461.877 72.2557L465.275 68.2268M465.275 68.2268C465.571 67.868 465.283 68.692 465.275 68.2268ZM465.275 68.2268C465.266 67.7616 465.62 66.1139 465.311 65.7666C457.055 56.5164 446.864 49.0412 435.561 43.9447M435.561 43.9447C435.137 43.7532 436.007 43.8135 435.561 43.9447ZM435.561 43.9447C435.114 44.0758 433.335 44.2223 433.081 44.6127L430.575 48.6322M430.575 48.6322C430.49 48.7894 430.59 48.4538 430.575 48.6322ZM430.575 48.6322C430.633 48.8017 430.658 50.0306 430.779 50.1629M430.779 50.1629C430.899 50.2952 430.615 50.09 430.779 50.1629Z" stroke="black"/>
<path d="M445.894 80.071C446.113 80.2314 445.626 80.1122 445.894 80.071ZM445.894 80.071C446.162 80.0299 447.202 80.0957 447.363 79.8772M445.894 80.071C446.054 79.8525 446.839 78.4594 447.106 78.4183M447.363 79.8772C447.523 79.6586 447.404 80.1451 447.363 79.8772ZM447.363 79.8772C447.321 79.6092 447.325 78.5786 447.106 78.4183M447.106 78.4183C446.888 78.2579 447.374 78.3771 447.106 78.4183Z" stroke="black"/>
<path d="M431.613 99.5378C431.831 99.6982 431.345 99.579 431.613 99.5378ZM431.613 99.5378C431.881 99.4966 432.921 99.5625 433.081 99.344M431.613 99.5378C431.773 99.3193 432.557 97.9262 432.825 97.8851M433.081 99.344C433.242 99.1254 433.123 99.6119 433.081 99.344ZM433.081 99.344C433.04 99.076 433.044 98.0454 432.825 97.8851M432.825 97.8851C432.607 97.7247 433.093 97.8439 432.825 97.8851Z" stroke="black"/>
<path d="M413.222 86.0417C413.441 86.2021 412.954 86.0829 413.222 86.0417ZM413.222 86.0417C413.49 86.0006 414.53 86.0664 414.691 85.8479M413.222 86.0417C413.181 85.7738 412.806 84.8014 412.966 84.5828C413.126 84.3643 414.167 84.4302 414.435 84.389M414.691 85.8479C414.851 85.6293 414.732 86.1158 414.691 85.8479ZM414.691 85.8479C414.65 85.5799 414.653 84.5493 414.435 84.389M414.435 84.389C414.216 84.2286 414.702 84.3478 414.435 84.389Z" stroke="black"/>
<path d="M427.503 66.5769C427.722 66.7372 427.236 66.6181 427.503 66.5769ZM427.503 66.5769C427.771 66.5357 428.812 66.6016 428.972 66.383M427.503 66.5769C427.462 66.309 427.087 65.3366 427.247 65.118C427.408 64.8994 428.448 64.9653 428.716 64.9241M428.972 66.383C429.132 66.1645 429.013 66.651 428.972 66.383ZM428.972 66.383C428.931 66.1151 428.934 65.0844 428.716 64.9241M428.716 64.9241C428.497 64.7638 428.984 64.8829 428.716 64.9241Z" stroke="black"/>
<path d="M368.751 28.8358C365.22 27.3939 361.613 26.2038 357.918 25.2615" stroke="black"/>
<path d="M369.337 27.1073C365.806 25.6654 362.199 24.4753 358.504 23.533" stroke="black"/>
<path d="M381.625 27.1859C371.492 21.3585 360.231 17.6427 348.619 16.2955" stroke="black"/>
<path d="M380.687 32.6723C377.088 30.5555 373.253 28.6826 369.383 27.1126L368.811 28.8475C372.291 30.2686 375.745 31.9248 379 33.8047C380.547 34.6987 381.683 36.0279 382.422 37.6552C383.161 39.2825 383.473 41.1555 383.128 42.909L377.185 71.7292C376.628 74.5586 375.129 77.0794 372.796 78.774C370.463 80.4686 367.464 81.2019 364.601 80.8563C352.545 79.4016 340.965 75.5809 330.41 69.5749C327.904 68.149 326.1 65.831 325.233 63.0807C324.367 60.3303 325.039 56.2698 326.275 53.6647L338.273 28.1092C339.04 26.4944 340.236 25.1195 341.799 24.2516C343.361 23.3837 345.233 23.0466 347.009 23.2494C350.743 23.6753 354.337 24.3448 357.978 25.2732L358.551 23.5383C354.507 22.4974 349.971 21.6086 345.819 21.1675M380.687 32.6723C380.842 32.7631 380.51 32.6509 380.687 32.6723ZM380.687 32.6723C380.859 32.6207 382.087 32.6849 382.223 32.569M382.223 32.569C382.359 32.453 382.144 32.7298 382.223 32.569ZM382.223 32.569L384.209 27.6874M384.209 27.6874C384.38 27.2546 384.361 28.1271 384.209 27.6874ZM384.209 27.6874C384.057 27.2477 383.885 25.571 383.483 25.3364C372.773 19.0902 360.77 15.1301 348.446 13.7758M348.446 13.7758C347.983 13.7249 348.83 13.5131 348.446 13.7758ZM348.446 13.7758C348.062 14.0385 346.415 14.7278 346.294 15.1774L345.153 19.7745M345.153 19.7745C345.12 19.9505 345.112 19.6002 345.153 19.7745ZM345.153 19.7745C345.26 19.918 345.664 21.079 345.819 21.1675M345.819 21.1675C345.975 21.2561 345.641 21.1487 345.819 21.1675Z" stroke="black"/>
<path d="M369.436 44.9474C369.693 45.0323 369.194 45.0693 369.436 44.9474ZM369.436 44.9474C369.678 44.8254 370.688 44.5666 370.773 44.3092M369.436 44.9474C369.521 44.6899 369.836 43.1228 370.078 43.0008M370.773 44.3092C370.858 44.0518 370.895 44.5513 370.773 44.3092ZM370.773 44.3092C370.651 44.0671 370.336 43.0858 370.078 43.0008M370.078 43.0008C369.821 42.9159 370.32 42.8789 370.078 43.0008Z" stroke="black"/>
<path d="M361.858 67.9103C362.115 67.9952 361.616 68.0322 361.858 67.9103ZM361.858 67.9103C362.1 67.7883 363.11 67.5295 363.194 67.2721M361.858 67.9103C361.943 67.6528 362.258 66.0857 362.5 65.9637M363.194 67.2721C363.279 67.0147 363.316 67.5142 363.194 67.2721ZM363.194 67.2721C363.073 67.03 362.757 66.0487 362.5 65.9637M362.5 65.9637C362.243 65.8788 362.742 65.8418 362.5 65.9637Z" stroke="black"/>
<path d="M340.186 60.7638C340.443 60.8487 339.944 60.8857 340.186 60.7638ZM340.186 60.7638C340.428 60.6418 341.438 60.383 341.523 60.1256M340.186 60.7638C340.064 60.5217 339.407 59.7128 339.491 59.4554C339.576 59.198 340.586 58.9392 340.828 58.8173M341.523 60.1256C341.608 59.8682 341.645 60.3677 341.523 60.1256ZM341.523 60.1256C341.401 59.8835 341.086 58.9022 340.828 58.8173M340.828 58.8173C340.571 58.7323 341.07 58.6953 340.828 58.8173Z" stroke="black"/>
<path d="M347.756 37.795C348.014 37.88 347.514 37.917 347.756 37.795ZM347.756 37.795C347.998 37.6731 349.008 37.4143 349.093 37.1569M347.756 37.795C347.634 37.5529 346.977 36.7441 347.062 36.4867C347.147 36.2292 348.156 35.9705 348.398 35.8485M349.093 37.1569C349.178 36.8994 349.215 37.3989 349.093 37.1569ZM349.093 37.1569C348.971 36.9148 348.656 35.9334 348.398 35.8485M348.398 35.8485C348.141 35.7636 348.641 35.7265 348.398 35.8485Z" stroke="black"/>
</svg>
