<svg width="489" height="489" viewBox="0 0 489 489" fill="none" xmlns="http://www.w3.org/2000/svg">
<path d="M384.812 3.67929C380.382 12.3609 374.219 20.0421 366.704 26.2484C331.912 49.2205 301.043 77.6417 275.281 110.422C275.731 111.79 276.575 112.995 277.708 113.886C278.841 114.776 280.211 115.311 281.648 115.425C282.639 115.756 283.459 116.465 283.93 117.399C287.591 122.089 291.513 126.57 295.678 130.818L325.945 161.086L356.212 191.353C360.461 195.518 364.942 199.44 369.632 203.101C370.565 203.572 371.275 204.392 371.606 205.383C371.72 206.819 372.255 208.19 373.145 209.323C374.035 210.455 375.241 211.3 376.609 211.75C409.389 185.988 437.81 155.119 460.782 120.327C466.989 112.812 474.67 106.649 483.351 102.219C484.069 102.047 484.728 101.686 485.26 101.174C485.792 100.662 486.177 100.017 486.377 99.3062C486.576 98.5953 486.582 97.8441 486.394 97.1301C486.206 96.4162 485.831 95.7654 485.307 95.2448L391.786 1.72357C391.266 1.19996 390.615 0.824725 389.901 0.636713C389.187 0.448701 388.435 0.454724 387.725 0.65407C387.014 0.853416 386.369 1.23896 385.857 1.77079C385.345 2.30261 384.984 2.96139 384.812 3.67929Z" stroke="black"/>
<path d="M485.258 384.814C476.576 380.384 468.895 374.221 462.689 366.706C439.717 331.914 411.296 301.045 378.515 275.283C377.147 275.733 375.942 276.577 375.051 277.71C374.161 278.843 373.626 280.213 373.512 281.649C373.181 282.641 372.472 283.461 371.538 283.932C366.848 287.593 362.368 291.515 358.119 295.68L327.851 325.947L297.584 356.214C293.419 360.463 289.497 364.944 285.836 369.634C285.366 370.567 284.545 371.277 283.554 371.608C282.118 371.722 280.747 372.257 279.614 373.147C278.482 374.037 277.637 375.243 277.188 376.611C302.949 409.391 333.818 437.812 368.61 460.784C376.125 466.991 382.288 474.672 386.718 483.353C386.89 484.071 387.251 484.73 387.763 485.262C388.275 485.794 388.92 486.179 389.631 486.379C390.342 486.578 391.093 486.584 391.807 486.396C392.521 486.208 393.172 485.833 393.692 485.309L487.213 391.788C487.737 391.267 488.112 390.617 488.3 389.903C488.488 389.189 488.482 388.437 488.283 387.727C488.084 387.016 487.698 386.371 487.166 385.859C486.635 385.347 485.976 384.986 485.258 384.814Z" stroke="black"/>
<path d="M104.118 485.258C108.548 476.576 114.711 468.895 122.226 462.689C157.018 439.717 187.886 411.296 213.648 378.515C213.198 377.147 212.354 375.942 211.221 375.051C210.088 374.161 208.718 373.626 207.282 373.512C206.29 373.181 205.47 372.472 204.999 371.538C201.339 366.848 197.416 362.368 193.251 358.119L162.984 327.851L132.717 297.584C128.468 293.419 123.988 289.497 119.297 285.836C118.364 285.366 117.654 284.545 117.323 283.554C117.21 282.118 116.674 280.747 115.784 279.614C114.894 278.482 113.689 277.637 112.32 277.188C79.5401 302.949 51.119 333.818 28.1468 368.61C21.9405 376.125 14.2595 382.288 5.57788 386.718C4.85997 386.89 4.20105 387.251 3.66922 387.763C3.1374 388.275 2.75185 388.92 2.55251 389.631C2.35316 390.342 2.34714 391.093 2.53515 391.807C2.72316 392.521 3.09839 393.172 3.62201 393.692L97.1433 487.213C97.6638 487.737 98.3146 488.112 99.0286 488.3C99.7425 488.488 100.494 488.482 101.205 488.283C101.916 488.084 102.56 487.698 103.072 487.166C103.584 486.635 103.945 485.976 104.118 485.258Z" stroke="black"/>
<path d="M3.67929 104.124C12.3609 108.554 20.0421 114.716 26.2484 122.232C49.2205 157.024 77.6417 187.892 110.422 213.654C111.79 213.204 112.995 212.36 113.886 211.227C114.776 210.094 115.311 208.724 115.425 207.288C115.756 206.296 116.465 205.476 117.399 205.005C122.089 201.345 126.57 197.422 130.818 193.257L161.086 162.99L191.353 132.723C195.518 128.474 199.44 123.994 203.101 119.303C203.572 118.37 204.392 117.66 205.383 117.329C206.819 117.216 208.19 116.68 209.323 115.79C210.455 114.9 211.3 113.695 211.75 112.326C185.988 79.546 155.119 51.1248 120.327 28.1527C112.812 21.9464 106.649 14.2652 102.219 5.58359C102.047 4.86569 101.686 4.20691 101.174 3.67508C100.662 3.14326 100.017 2.75771 99.3062 2.55837C98.5953 2.35902 97.8441 2.353 97.1301 2.54101C96.4162 2.72902 95.7654 3.10425 95.2448 3.62787L1.72357 97.1491C1.19996 97.6696 0.824725 98.3204 0.636713 99.0344C0.448701 99.7484 0.454724 100.5 0.65407 101.21C0.853416 101.921 1.23896 102.566 1.77079 103.078C2.30261 103.59 2.96139 103.951 3.67929 104.124Z" stroke="black"/>
<path d="M340.473 244.469C340.473 219.007 330.358 194.589 312.354 176.585C294.35 158.581 269.932 148.467 244.471 148.467C219.009 148.467 194.591 158.581 176.587 176.585C158.583 194.589 148.469 219.007 148.469 244.469C148.469 269.93 158.583 294.348 176.587 312.352C194.591 330.356 219.009 340.471 244.471 340.471C269.932 340.471 294.35 330.356 312.354 312.352C330.358 294.348 340.473 269.93 340.473 244.469Z" stroke="black"/>
<path d="M334.985 244.469C334.982 220.464 325.445 197.444 308.47 180.471C291.495 163.498 268.474 153.963 244.469 153.963C220.465 153.963 197.443 163.498 180.468 180.471C163.494 197.444 153.956 220.464 153.953 244.469C153.956 268.473 163.494 291.494 180.468 308.466C197.443 325.439 220.465 334.974 244.469 334.974C268.474 334.974 291.495 325.439 308.47 308.466C325.445 291.494 334.982 268.473 334.985 244.469Z" stroke="black"/>
</svg>
