<svg width="795" height="795" viewBox="0 0 795 795" fill="none" xmlns="http://www.w3.org/2000/svg">
<path d="M479.497 8.00735C475.923 19.0299 474.646 30.6684 475.747 42.2036C485.683 90.7646 487.741 140.608 481.841 189.823C480.312 190.595 478.589 190.898 476.888 190.695C475.188 190.491 473.586 189.789 472.283 188.677C471.171 188.122 469.885 188.029 468.705 188.418C461.684 189.283 454.62 189.753 447.547 189.823H396.657H345.767C338.693 189.753 331.629 189.283 324.609 188.418C323.428 188.029 322.142 188.122 321.03 188.677C319.728 189.789 318.125 190.491 316.425 190.695C314.724 190.898 313.001 190.595 311.472 189.823C305.572 140.608 307.63 90.7646 317.567 42.2036C318.667 30.6684 317.391 19.0299 313.816 8.00735C313.358 7.25893 313.107 6.4018 313.091 5.52419C313.074 4.64658 313.292 3.78037 313.722 3.01516C314.152 2.24995 314.779 1.61332 315.537 1.17116C316.295 0.729009 317.158 0.497406 318.035 0.500022H475.278C476.156 0.497406 477.018 0.729009 477.776 1.17116C478.535 1.61332 479.161 2.24995 479.591 3.01516C480.021 3.78037 480.239 4.64658 480.223 5.52419C480.206 6.4018 479.955 7.25893 479.497 8.00735Z" stroke="black"/>
<path d="M315.207 786.692C318.781 775.67 320.058 764.031 318.957 752.496C309.021 703.935 306.963 654.092 312.863 604.877C314.392 604.105 316.115 603.801 317.815 604.005C319.516 604.209 321.118 604.911 322.421 606.023C323.533 606.578 324.819 606.671 325.999 606.282C333.02 605.416 340.084 604.947 347.157 604.877H398.047H448.937C456.011 604.947 463.074 605.416 470.095 606.282C471.275 606.671 472.561 606.578 473.673 606.023C474.976 604.911 476.579 604.209 478.279 604.005C479.98 603.801 481.703 604.105 483.231 604.877C489.131 654.092 487.074 703.935 477.137 752.496C476.037 764.031 477.313 775.67 480.887 786.692C481.346 787.441 481.597 788.298 481.613 789.176C481.63 790.053 481.412 790.919 480.982 791.685C480.552 792.45 479.925 793.086 479.167 793.529C478.409 793.971 477.546 794.202 476.668 794.2H319.426C318.548 794.202 317.686 793.971 316.927 793.529C316.169 793.086 315.543 792.45 315.113 791.685C314.683 790.919 314.465 790.053 314.481 789.176C314.498 788.298 314.748 787.441 315.207 786.692Z" stroke="black"/>
<path d="M585.188 397.35C585.187 347.532 565.398 299.756 530.172 264.53C494.946 229.303 447.169 209.514 397.352 209.514C347.534 209.514 299.758 229.303 264.531 264.53C229.305 299.756 209.516 347.532 209.516 397.35C209.516 447.167 229.305 494.944 264.531 530.17C299.758 565.396 347.534 585.186 397.352 585.186C447.169 585.186 494.946 565.396 530.172 530.17C565.398 494.944 585.187 447.167 585.188 397.35Z" stroke="black"/>
<path d="M593.012 397.35C593.012 345.457 572.398 295.689 535.704 258.996C499.011 222.302 449.243 201.688 397.35 201.688C345.457 201.688 295.69 222.302 258.996 258.996C222.302 295.689 201.688 345.457 201.688 397.35C201.688 449.243 222.302 499.01 258.996 535.704C295.69 572.398 345.457 593.012 397.35 593.012C449.243 593.012 499.011 572.398 535.704 535.704C572.398 499.01 593.012 449.243 593.012 397.35Z" stroke="black"/>
<path d="M786.694 479.495C775.672 475.921 764.034 474.644 752.498 475.744C703.937 485.681 654.094 487.739 604.879 481.839C604.107 480.31 603.803 478.587 604.007 476.886C604.211 475.186 604.913 473.583 606.025 472.281C606.58 471.169 606.673 469.883 606.284 468.702C605.418 461.682 604.949 454.618 604.879 447.545V396.655V345.765C604.949 338.691 605.418 331.627 606.284 324.607C606.673 323.426 606.58 322.14 606.025 321.029C604.913 319.726 604.211 318.123 604.007 316.423C603.803 314.722 604.107 312.999 604.879 311.47C654.094 305.57 703.937 307.628 752.498 317.565C764.034 318.665 775.672 317.389 786.694 313.814C787.443 313.356 788.3 313.105 789.178 313.089C790.055 313.072 790.922 313.29 791.687 313.72C792.452 314.15 793.088 314.777 793.531 315.535C793.973 316.293 794.205 317.156 794.202 318.033V475.276C794.205 476.153 793.973 477.016 793.531 477.774C793.088 478.533 792.452 479.159 791.687 479.589C790.922 480.019 790.055 480.237 789.178 480.221C788.3 480.204 787.443 479.953 786.694 479.495Z" stroke="black"/>
<path d="M8.00735 315.205C19.0299 318.779 30.6684 320.056 42.2036 318.955C90.7646 309.019 140.608 306.961 189.823 312.861C190.595 314.39 190.898 316.113 190.695 317.813C190.491 319.514 189.789 321.116 188.677 322.419C188.122 323.531 188.029 324.817 188.418 325.997C189.283 333.018 189.752 340.082 189.823 347.155V398.045V448.935C189.752 456.009 189.283 463.072 188.418 470.093C188.029 471.273 188.122 472.559 188.677 473.671C189.789 474.974 190.491 476.577 190.695 478.277C190.898 479.978 190.595 481.701 189.823 483.229C140.608 489.13 90.7646 487.072 42.2036 477.135C30.6684 476.035 19.0299 477.311 8.00735 480.885C7.25893 481.344 6.40156 481.595 5.52395 481.611C4.64634 481.628 3.78037 481.41 3.01516 480.98C2.24995 480.55 1.61332 479.923 1.17116 479.165C0.729009 478.407 0.497406 477.544 0.500022 476.666V319.424C0.497406 318.546 0.729009 317.684 1.17116 316.925C1.61332 316.167 2.24995 315.541 3.01516 315.111C3.78037 314.681 4.64634 314.463 5.52395 314.479C6.40156 314.496 7.25893 314.746 8.00735 315.205Z" stroke="black"/>
</svg>
