<svg width="374" height="463" viewBox="0 0 374 463" fill="none" xmlns="http://www.w3.org/2000/svg">
<path d="M0.5 345.314H373.5V117.314H0.5V345.314Z" stroke="black"/>
<path d="M3.5 340.314H370.5V122.314H3.5V340.314Z" stroke="black"/>
<path d="M341.297 351.641C341.982 351.867 342.729 351.813 343.375 351.49" stroke="black"/>
<path d="M255.523 351.49C256.169 351.813 256.916 351.867 257.602 351.641" stroke="black"/>
<path d="M341.203 455.016C341.219 455.021 341.236 455.022 341.253 455.019C341.27 455.015 341.285 455.008 341.298 454.997C341.311 454.986 341.321 454.972 341.327 454.956C341.332 454.94 341.334 454.923 341.331 454.906" stroke="black"/>
<path d="M341.188 455.201C341.214 455.202 341.24 455.197 341.265 455.186C341.289 455.175 341.31 455.158 341.326 455.137C341.342 455.116 341.353 455.091 341.358 455.065C341.362 455.039 341.36 455.012 341.352 454.986" stroke="black"/>
<path d="M257.547 454.986C257.539 455.012 257.537 455.039 257.542 455.065C257.546 455.091 257.557 455.116 257.573 455.137C257.589 455.158 257.61 455.175 257.635 455.186C257.659 455.197 257.685 455.202 257.712 455.201" stroke="black"/>
<path d="M257.564 454.906C257.561 454.923 257.563 454.94 257.569 454.956C257.574 454.972 257.584 454.986 257.597 454.997C257.61 455.008 257.625 455.015 257.642 455.019C257.659 455.022 257.676 455.021 257.692 455.016" stroke="black"/>
<path d="M346.219 357.275H348.402" stroke="black"/>
<path d="M346.219 357.276L348.3 356.291" stroke="black"/>
<path d="M345.82 352.859L346.222 357.275" stroke="black"/>
<path d="M262.121 352.859L261.719 357.275" stroke="black"/>
<path d="M261.722 357.276L259.641 356.291" stroke="black"/>
<path d="M261.722 357.275H259.539" stroke="black"/>
<path d="M328.281 437.782C331.709 437.751 335.083 436.929 338.14 435.381C341.198 433.833 343.857 431.6 345.911 428.855" stroke="black"/>
<path d="M345.797 458.285C345.877 458.27 345.952 458.238 346.018 458.191C346.084 458.144 346.139 458.082 346.179 458.012C346.218 457.941 346.242 457.862 346.247 457.781C346.253 457.7 346.24 457.619 346.211 457.543" stroke="black"/>
<path d="M341.836 433.023C341.976 439.928 343.105 446.776 345.189 453.36" stroke="black"/>
<path d="M344.341 437.258C343.691 444.077 344.324 450.957 346.208 457.543" stroke="black"/>
<path d="M303.972 437.781H279.664" stroke="black"/>
<path d="M262.031 428.855C264.085 431.6 266.744 433.833 269.802 435.381C272.86 436.929 276.233 437.751 279.661 437.782" stroke="black"/>
<path d="M303.974 458.285H262.148" stroke="black"/>
<path d="M261.733 457.543C261.704 457.619 261.691 457.7 261.697 457.781C261.702 457.862 261.725 457.941 261.765 458.012C261.805 458.082 261.859 458.144 261.925 458.191C261.991 458.238 262.067 458.27 262.147 458.285" stroke="black"/>
<path d="M303.972 456.232H262.219" stroke="black"/>
<path d="M261.734 457.543C263.618 450.957 264.251 444.077 263.601 437.258" stroke="black"/>
<path d="M262.75 453.36C264.834 446.776 265.963 439.928 266.103 433.023" stroke="black"/>
<path d="M303.969 437.781H328.276" stroke="black"/>
<path d="M303.969 458.285H345.795" stroke="black"/>
<path d="M303.969 456.42H345.721" stroke="black"/>
<path d="M255.852 457.805C257.932 451.393 258.674 444.623 258.034 437.913C252.254 409.665 251.057 380.671 254.489 352.043C255.378 351.594 256.38 351.417 257.37 351.536C258.359 351.655 259.291 352.063 260.049 352.71C260.696 353.033 261.444 353.087 262.13 352.86C266.214 352.357 270.323 352.084 274.438 352.043H304.04H333.643C337.758 352.084 341.867 352.357 345.951 352.86C346.637 353.087 347.385 353.033 348.032 352.71C348.79 352.063 349.722 351.655 350.711 351.536C351.7 351.417 352.703 351.594 353.592 352.043C357.024 380.671 355.827 409.665 350.047 437.913C349.407 444.623 350.149 451.393 352.229 457.805C352.495 458.24 352.641 458.739 352.651 459.249C352.66 459.76 352.534 460.264 352.283 460.709C352.033 461.154 351.669 461.524 351.228 461.781C350.787 462.039 350.285 462.173 349.774 462.172H258.307C257.796 462.173 257.294 462.039 256.853 461.781C256.412 461.524 256.048 461.154 255.798 460.709C255.547 460.264 255.421 459.76 255.43 459.249C255.44 458.739 255.586 458.24 255.852 457.805Z" stroke="black"/>
<path d="M260.04 352.709C256.684 380.7 257.855 409.049 263.506 436.668" stroke="black"/>
<path d="M344.43 436.668C350.081 409.049 351.252 380.7 347.896 352.709" stroke="black"/>
<path d="M346.219 105.396H348.402" stroke="black"/>
<path d="M346.219 105.396L348.3 106.381" stroke="black"/>
<path d="M345.82 109.812L346.222 105.396" stroke="black"/>
<path d="M262.121 109.812L261.719 105.396" stroke="black"/>
<path d="M261.722 105.396L259.641 106.381" stroke="black"/>
<path d="M261.722 105.396H259.539" stroke="black"/>
<path d="M328.281 24.89C331.709 24.9209 335.083 25.7425 338.14 27.2907C341.198 28.839 343.857 31.0722 345.911 33.8164" stroke="black"/>
<path d="M345.797 4.38693C345.877 4.40151 345.952 4.43357 346.018 4.48083C346.084 4.5281 346.139 4.58942 346.179 4.66034C346.218 4.73126 346.242 4.81004 346.247 4.89105C346.253 4.97206 346.24 5.05329 346.211 5.12891" stroke="black"/>
<path d="M341.836 29.6484C341.976 22.7442 343.105 15.8957 345.189 9.31204" stroke="black"/>
<path d="M344.341 25.4141C343.691 18.5952 344.324 11.7148 346.208 5.12909" stroke="black"/>
<path d="M303.972 24.8906H279.664" stroke="black"/>
<path d="M262.031 33.8164C264.085 31.0722 266.744 28.839 269.802 27.2907C272.86 25.7425 276.233 24.9209 279.661 24.89" stroke="black"/>
<path d="M303.974 4.38672H262.148" stroke="black"/>
<path d="M261.733 5.12891C261.704 5.05329 261.691 4.97206 261.697 4.89105C261.702 4.81004 261.725 4.73126 261.765 4.66034C261.805 4.58942 261.859 4.5281 261.925 4.48083C261.991 4.43357 262.067 4.40151 262.147 4.38693" stroke="black"/>
<path d="M303.972 6.43945H262.219" stroke="black"/>
<path d="M261.734 5.12909C263.618 11.7148 264.251 18.5952 263.601 25.4141" stroke="black"/>
<path d="M262.75 9.31204C264.834 15.8957 265.963 22.7442 266.103 29.6484" stroke="black"/>
<path d="M303.969 24.8906H328.276" stroke="black"/>
<path d="M303.969 4.38672H345.795" stroke="black"/>
<path d="M303.969 6.25195H345.721" stroke="black"/>
<path d="M255.852 4.86699C257.932 11.2788 258.674 18.0488 258.034 24.7589C252.254 53.0067 251.057 82.0006 254.489 110.629C255.378 111.078 256.38 111.255 257.37 111.136C258.359 111.017 259.291 110.609 260.049 109.962C260.696 109.639 261.444 109.585 262.13 109.811C266.214 110.315 270.323 110.588 274.438 110.629H304.04H333.643C337.758 110.588 341.867 110.315 345.951 109.811C346.637 109.585 347.385 109.639 348.032 109.962C348.79 110.609 349.722 111.017 350.711 111.136C351.7 111.255 352.703 111.078 353.592 110.629C357.024 82.0006 355.827 53.0067 350.047 24.7589C349.407 18.0488 350.149 11.2788 352.229 4.86699C352.495 4.43163 352.641 3.93294 352.651 3.42244C352.66 2.91193 352.534 2.40812 352.283 1.963C352.033 1.51788 351.669 1.1476 351.228 0.890396C350.787 0.633195 350.285 0.498402 349.774 0.499924H258.307C257.796 0.498402 257.294 0.633195 256.853 0.890396C256.412 1.1476 256.048 1.51788 255.798 1.963C255.547 2.40812 255.421 2.91193 255.43 3.42244C255.44 3.93294 255.586 4.43163 255.852 4.86699Z" stroke="black"/>
<path d="M260.04 109.963C256.684 81.9719 257.855 53.6233 263.506 26.0041" stroke="black"/>
<path d="M344.43 26.0041C350.081 53.6233 351.252 81.9719 347.896 109.963" stroke="black"/>
<path d="M227.297 357.275H229.48" stroke="black"/>
<path d="M227.297 357.276L229.378 356.291" stroke="black"/>
<path d="M226.898 352.859L227.3 357.275" stroke="black"/>
<path d="M143.199 352.859L142.797 357.275" stroke="black"/>
<path d="M142.8 357.276L140.719 356.291" stroke="black"/>
<path d="M142.8 357.275H140.617" stroke="black"/>
<path d="M209.359 437.782C212.787 437.751 216.161 436.929 219.218 435.381C222.276 433.833 224.935 431.6 226.989 428.855" stroke="black"/>
<path d="M226.875 458.285C226.955 458.27 227.031 458.238 227.097 458.191C227.163 458.144 227.217 458.082 227.257 458.012C227.296 457.941 227.32 457.862 227.325 457.781C227.331 457.7 227.318 457.619 227.289 457.543" stroke="black"/>
<path d="M222.914 433.023C223.054 439.928 224.183 446.776 226.267 453.36" stroke="black"/>
<path d="M225.42 437.258C224.769 444.077 225.402 450.957 227.286 457.543" stroke="black"/>
<path d="M185.05 437.781H160.742" stroke="black"/>
<path d="M143.109 428.855C145.163 431.6 147.822 433.833 150.88 435.381C153.938 436.929 157.312 437.751 160.739 437.782" stroke="black"/>
<path d="M185.053 458.285H143.227" stroke="black"/>
<path d="M142.811 457.543C142.782 457.619 142.769 457.7 142.775 457.781C142.78 457.862 142.804 457.941 142.843 458.012C142.883 458.082 142.937 458.144 143.003 458.191C143.069 458.238 143.145 458.27 143.225 458.285" stroke="black"/>
<path d="M185.05 456.232H143.297" stroke="black"/>
<path d="M142.812 457.543C144.696 450.957 145.329 444.077 144.679 437.258" stroke="black"/>
<path d="M143.828 453.36C145.912 446.776 147.041 439.928 147.181 433.023" stroke="black"/>
<path d="M185.047 437.781H209.354" stroke="black"/>
<path d="M185.047 458.285H226.873" stroke="black"/>
<path d="M185.047 456.42H226.799" stroke="black"/>
<path d="M136.931 457.805C139.01 451.393 139.752 444.623 139.112 437.913C133.332 409.665 132.135 380.671 135.567 352.043C136.456 351.594 137.459 351.417 138.448 351.536C139.437 351.655 140.369 352.063 141.127 352.71C141.774 353.033 142.522 353.087 143.208 352.86C147.292 352.357 151.401 352.084 155.516 352.043H185.119H214.721C218.836 352.084 222.945 352.357 227.029 352.86C227.715 353.087 228.463 353.033 229.11 352.71C229.868 352.063 230.8 351.655 231.789 351.536C232.779 351.417 233.781 351.594 234.67 352.043C238.102 380.671 236.905 409.665 231.125 437.913C230.485 444.623 231.227 451.393 233.307 457.805C233.573 458.24 233.719 458.739 233.729 459.249C233.738 459.76 233.612 460.264 233.361 460.709C233.111 461.154 232.747 461.524 232.306 461.781C231.865 462.039 231.363 462.173 230.852 462.172H139.385C138.874 462.173 138.372 462.039 137.931 461.781C137.49 461.524 137.126 461.154 136.876 460.709C136.625 460.264 136.499 459.76 136.508 459.249C136.518 458.739 136.664 458.24 136.931 457.805Z" stroke="black"/>
<path d="M141.118 352.709C137.763 380.7 138.933 409.049 144.584 436.668" stroke="black"/>
<path d="M225.508 436.668C231.159 409.049 232.33 380.7 228.974 352.709" stroke="black"/>
<path d="M227.297 105.396H229.48" stroke="black"/>
<path d="M227.297 105.396L229.378 106.381" stroke="black"/>
<path d="M226.898 109.812L227.3 105.396" stroke="black"/>
<path d="M143.199 109.812L142.797 105.396" stroke="black"/>
<path d="M142.8 105.396L140.719 106.381" stroke="black"/>
<path d="M142.8 105.396H140.617" stroke="black"/>
<path d="M209.359 24.89C212.787 24.9209 216.161 25.7425 219.218 27.2907C222.276 28.839 224.935 31.0722 226.989 33.8164" stroke="black"/>
<path d="M226.875 4.38693C226.955 4.40151 227.031 4.43357 227.097 4.48083C227.163 4.5281 227.217 4.58942 227.257 4.66034C227.296 4.73126 227.32 4.81004 227.325 4.89105C227.331 4.97206 227.318 5.05329 227.289 5.12891" stroke="black"/>
<path d="M222.914 29.6484C223.054 22.7442 224.183 15.8957 226.267 9.31204" stroke="black"/>
<path d="M225.42 25.4141C224.769 18.5952 225.402 11.7148 227.286 5.12909" stroke="black"/>
<path d="M185.05 24.8906H160.742" stroke="black"/>
<path d="M143.109 33.8164C145.163 31.0722 147.822 28.839 150.88 27.2907C153.938 25.7425 157.312 24.9209 160.739 24.89" stroke="black"/>
<path d="M185.053 4.38672H143.227" stroke="black"/>
<path d="M142.811 5.12891C142.782 5.05329 142.769 4.97206 142.775 4.89105C142.78 4.81004 142.804 4.73126 142.843 4.66034C142.883 4.58942 142.937 4.5281 143.003 4.48083C143.069 4.43357 143.145 4.40151 143.225 4.38693" stroke="black"/>
<path d="M185.05 6.43945H143.297" stroke="black"/>
<path d="M142.812 5.12909C144.696 11.7148 145.329 18.5952 144.679 25.4141" stroke="black"/>
<path d="M143.828 9.31204C145.912 15.8957 147.041 22.7442 147.181 29.6484" stroke="black"/>
<path d="M185.047 24.8906H209.354" stroke="black"/>
<path d="M185.047 4.38672H226.873" stroke="black"/>
<path d="M185.047 6.25195H226.799" stroke="black"/>
<path d="M136.931 4.86699C139.01 11.2788 139.752 18.0488 139.112 24.7589C133.332 53.0067 132.135 82.0006 135.567 110.629C136.456 111.078 137.459 111.255 138.448 111.136C139.437 111.017 140.369 110.609 141.127 109.962C141.774 109.639 142.522 109.585 143.208 109.811C147.292 110.315 151.401 110.588 155.516 110.629H185.119H214.721C218.836 110.588 222.945 110.315 227.029 109.811C227.715 109.585 228.463 109.639 229.11 109.962C229.868 110.609 230.8 111.017 231.789 111.136C232.779 111.255 233.781 111.078 234.67 110.629C238.102 82.0006 236.905 53.0067 231.125 24.7589C230.485 18.0488 231.227 11.2788 233.307 4.86699C233.573 4.43163 233.719 3.93294 233.729 3.42244C233.738 2.91193 233.612 2.40812 233.361 1.963C233.111 1.51788 232.747 1.1476 232.306 0.890396C231.865 0.633195 231.363 0.498402 230.852 0.499924H139.385C138.874 0.498402 138.372 0.633195 137.931 0.890396C137.49 1.1476 137.126 1.51788 136.876 1.963C136.625 2.40812 136.499 2.91193 136.508 3.42244C136.518 3.93294 136.664 4.43163 136.931 4.86699Z" stroke="black"/>
<path d="M141.118 109.963C137.763 81.9719 138.933 53.6233 144.584 26.0041" stroke="black"/>
<path d="M225.508 26.0041C231.159 53.6233 232.33 81.9719 228.974 109.963" stroke="black"/>
<path d="M108.375 357.275H110.558" stroke="black"/>
<path d="M108.375 357.276L110.456 356.291" stroke="black"/>
<path d="M107.977 352.859L108.379 357.275" stroke="black"/>
<path d="M24.277 352.859L23.875 357.275" stroke="black"/>
<path d="M23.8779 357.276L21.7969 356.291" stroke="black"/>
<path d="M23.8783 357.275H21.6953" stroke="black"/>
<path d="M90.4375 437.782C93.8648 437.751 97.2388 436.929 100.297 435.381C103.354 433.833 106.014 431.6 108.067 428.855" stroke="black"/>
<path d="M107.953 458.285C108.033 458.27 108.109 458.238 108.175 458.191C108.241 458.144 108.295 458.082 108.335 458.012C108.375 457.941 108.398 457.862 108.403 457.781C108.409 457.7 108.396 457.619 108.367 457.543" stroke="black"/>
<path d="M103.992 433.023C104.132 439.928 105.261 446.776 107.345 453.36" stroke="black"/>
<path d="M106.498 437.258C105.847 444.077 106.48 450.957 108.364 457.543" stroke="black"/>
<path d="M66.1283 437.781H41.8203" stroke="black"/>
<path d="M24.1875 428.855C26.241 431.6 28.9002 433.833 31.958 435.381C35.0158 436.929 38.3897 437.751 41.8171 437.782" stroke="black"/>
<path d="M66.1307 458.285H24.3047" stroke="black"/>
<path d="M23.8894 457.543C23.8598 457.619 23.8473 457.7 23.8528 457.781C23.8583 457.862 23.8817 457.941 23.9212 458.012C23.9608 458.082 24.0155 458.144 24.0815 458.191C24.1475 458.238 24.2232 458.27 24.3031 458.285" stroke="black"/>
<path d="M66.128 456.232H24.375" stroke="black"/>
<path d="M23.8906 457.543C25.7744 450.957 26.4075 444.077 25.757 437.258" stroke="black"/>
<path d="M24.9062 453.36C26.9902 446.776 28.1192 439.928 28.2589 433.023" stroke="black"/>
<path d="M66.125 437.781H90.432" stroke="black"/>
<path d="M66.125 458.285H107.951" stroke="black"/>
<path d="M66.125 456.42H107.877" stroke="black"/>
<path d="M18.0086 457.805C20.0878 451.393 20.8302 444.623 20.1902 437.913C14.4101 409.665 13.2131 380.671 16.6452 352.043C17.5344 351.594 18.5367 351.417 19.5259 351.536C20.5152 351.655 21.4473 352.063 22.2051 352.71C22.8519 353.033 23.6 353.087 24.2865 352.86C28.3704 352.357 32.4795 352.084 36.5941 352.043H66.1967H95.7993C99.9139 352.084 104.023 352.357 108.107 352.86C108.793 353.087 109.542 353.033 110.188 352.71C110.946 352.063 111.878 351.655 112.867 351.536C113.857 351.417 114.859 351.594 115.748 352.043C119.18 380.671 117.983 409.665 112.203 437.913C111.563 444.623 112.306 451.393 114.385 457.805C114.652 458.24 114.797 458.739 114.807 459.249C114.817 459.76 114.69 460.264 114.44 460.709C114.189 461.154 113.825 461.524 113.384 461.781C112.943 462.039 112.441 462.173 111.931 462.172H20.4629C19.9523 462.173 19.4505 462.039 19.0094 461.781C18.5684 461.524 18.2039 461.154 17.9538 460.709C17.7036 460.264 17.5768 459.76 17.5864 459.249C17.5961 458.739 17.7418 458.24 18.0086 457.805Z" stroke="black"/>
<path d="M22.1964 352.709C18.8407 380.7 20.011 409.049 25.6625 436.668" stroke="black"/>
<path d="M106.586 436.668C112.237 409.049 113.408 380.7 110.052 352.709" stroke="black"/>
<path d="M108.375 105.396H110.558" stroke="black"/>
<path d="M108.375 105.396L110.456 106.381" stroke="black"/>
<path d="M107.977 109.812L108.379 105.396" stroke="black"/>
<path d="M24.277 109.812L23.875 105.396" stroke="black"/>
<path d="M23.8779 105.396L21.7969 106.381" stroke="black"/>
<path d="M23.8783 105.396H21.6953" stroke="black"/>
<path d="M90.4375 24.89C93.8648 24.9209 97.2388 25.7425 100.297 27.2907C103.354 28.839 106.014 31.0722 108.067 33.8164" stroke="black"/>
<path d="M107.953 4.38693C108.033 4.40151 108.109 4.43357 108.175 4.48083C108.241 4.5281 108.295 4.58942 108.335 4.66034C108.375 4.73126 108.398 4.81004 108.403 4.89105C108.409 4.97206 108.396 5.05329 108.367 5.12891" stroke="black"/>
<path d="M103.992 29.6484C104.132 22.7442 105.261 15.8957 107.345 9.31204" stroke="black"/>
<path d="M106.498 25.4141C105.847 18.5952 106.48 11.7148 108.364 5.12909" stroke="black"/>
<path d="M66.1283 24.8906H41.8203" stroke="black"/>
<path d="M24.1875 33.8164C26.241 31.0722 28.9002 28.839 31.958 27.2907C35.0158 25.7425 38.3897 24.9209 41.8171 24.89" stroke="black"/>
<path d="M66.1307 4.38672H24.3047" stroke="black"/>
<path d="M23.8894 5.12891C23.8598 5.05329 23.8473 4.97206 23.8528 4.89105C23.8583 4.81004 23.8817 4.73126 23.9212 4.66034C23.9608 4.58942 24.0155 4.5281 24.0815 4.48083C24.1475 4.43357 24.2232 4.40151 24.3031 4.38693" stroke="black"/>
<path d="M66.128 6.43945H24.375" stroke="black"/>
<path d="M23.8906 5.12909C25.7744 11.7148 26.4075 18.5952 25.757 25.4141" stroke="black"/>
<path d="M24.9062 9.31204C26.9902 15.8957 28.1192 22.7442 28.2589 29.6484" stroke="black"/>
<path d="M66.125 24.8906H90.432" stroke="black"/>
<path d="M66.125 4.38672H107.951" stroke="black"/>
<path d="M66.125 6.25195H107.877" stroke="black"/>
<path d="M18.0086 4.86699C20.0878 11.2788 20.8302 18.0488 20.1902 24.7589C14.4101 53.0067 13.2131 82.0006 16.6452 110.629C17.5344 111.078 18.5367 111.255 19.5259 111.136C20.5152 111.017 21.4473 110.609 22.2051 109.962C22.8519 109.639 23.6 109.585 24.2865 109.811C28.3704 110.315 32.4795 110.588 36.5941 110.629H66.1967H95.7993C99.9139 110.588 104.023 110.315 108.107 109.811C108.793 109.585 109.542 109.639 110.188 109.962C110.946 110.609 111.878 111.017 112.867 111.136C113.857 111.255 114.859 111.078 115.748 110.629C119.18 82.0006 117.983 53.0067 112.203 24.7589C111.563 18.0488 112.306 11.2788 114.385 4.86699C114.652 4.43163 114.797 3.93294 114.807 3.42244C114.817 2.91193 114.69 2.40812 114.44 1.963C114.189 1.51788 113.825 1.1476 113.384 0.890396C112.943 0.633195 112.441 0.498402 111.931 0.499924H20.4629C19.9523 0.498402 19.4505 0.633195 19.0094 0.890396C18.5684 1.1476 18.2039 1.51788 17.9538 1.963C17.7036 2.40812 17.5768 2.91193 17.5864 3.42244C17.5961 3.93294 17.7418 4.43163 18.0086 4.86699Z" stroke="black"/>
<path d="M22.1964 109.963C18.8407 81.9719 20.011 53.6233 25.6625 26.0041" stroke="black"/>
<path d="M106.586 26.0041C112.237 53.6233 113.408 81.9719 110.052 109.963" stroke="black"/>
</svg>
