<svg width="713" height="559" viewBox="0 0 713 559" fill="none" xmlns="http://www.w3.org/2000/svg">
<path d="M51.7266 208.588V206.834C51.7266 166.996 67.0295 128.68 94.4734 99.8022C121.917 70.9248 159.405 53.6926 199.192 51.666" stroke="black"/>
<path d="M0.5 206.648C0.547186 154.375 20.4081 104.064 56.0798 65.8538C91.7515 27.6438 140.582 4.37677 192.728 0.742188" stroke="black"/>
<path d="M51.7236 208.59C50.0325 214.203 46.527 219.096 41.7563 222.503C36.9857 225.91 31.2196 227.637 25.3616 227.415C19.5035 227.193 13.8846 225.034 9.3855 221.276C4.88636 217.518 1.76143 212.373 0.5 206.648" stroke="black"/>
<path d="M494.188 55.3956H526.465C530.9 55.3956 535.227 54.0263 538.854 51.4749C542.482 48.9235 545.233 45.3144 546.732 41.1406C551.194 47.0871 557.151 51.7464 563.997 54.6453H692.356C696.2 54.6453 699.966 53.564 703.224 51.5251C706.482 49.4862 709.102 46.5718 710.782 43.1149" stroke="black"/>
<path d="M494.182 178.311H526.46C530.895 178.311 535.221 176.942 538.849 174.391C542.476 171.839 545.228 168.23 546.727 164.057C551.189 170.003 557.146 174.662 563.992 177.561H692.351C696.695 177.561 700.927 176.18 704.435 173.618C707.943 171.056 710.546 167.445 711.868 163.306V18.5062C711.868 13.9828 710.171 9.62377 707.114 6.29007C704.057 2.95636 699.86 0.890331 695.354 0.5H564.742C562.412 0.5 560.106 0.971365 557.962 1.88574C555.819 2.80012 553.882 4.13861 552.27 5.82071C550.657 7.50281 549.401 9.49376 548.577 11.6738C547.754 13.8538 547.38 16.1779 547.478 18.5062C546.134 13.9028 543.52 9.77152 539.935 6.58654C536.35 3.40156 531.94 1.29199 527.21 0.5H400.353C395.673 0.5 391.145 2.158 387.572 5.17969C383.999 8.20138 381.613 12.3913 380.836 17.0057V161.056C380.836 163.322 381.282 165.567 382.15 167.661C383.018 169.755 384.29 171.658 385.893 173.26C387.496 174.863 389.4 176.134 391.494 177C393.589 177.867 395.834 178.313 398.101 178.311H494.182Z" stroke="black"/>
<path d="M547.477 18.5059L546.727 164.056" stroke="black"/>
<path d="M215.727 164.057C220.189 170.003 226.145 174.662 232.991 177.561H361.35C365.695 177.561 369.926 176.18 373.435 173.618C376.943 171.056 379.545 167.445 380.867 163.306V18.5062C380.867 13.9828 379.171 9.62377 376.113 6.29007C373.056 2.95636 368.86 0.890331 364.353 0.5H233.742C231.411 0.5 229.105 0.971365 226.962 1.88574C224.818 2.80012 222.882 4.13861 221.269 5.82071C219.656 7.50281 218.4 9.49376 217.577 11.6738C216.753 13.8538 216.379 16.1779 216.477 18.5062" stroke="black"/>
<path d="M216.477 18.5059L215.727 164.056" stroke="black"/>
<path d="M165.438 226.261C173.043 226.261 180.556 224.585 187.441 221.353C194.326 218.12 200.414 213.411 205.272 207.559C210.131 201.707 213.64 194.856 215.551 187.494C217.462 180.132 217.727 172.439 216.328 164.963" stroke="black"/>
<path d="M215.727 41.1406C220.189 47.0871 226.145 51.7464 232.991 54.6453H361.35C365.194 54.6453 368.96 53.564 372.219 51.5251C375.477 49.4862 378.096 46.5718 379.776 43.1149" stroke="black"/>
<path d="M192.62 0.738281C199.558 0.979065 206.115 3.96579 210.85 9.04142C215.585 14.117 218.11 20.8658 217.869 27.803C217.629 34.7403 214.642 41.2977 209.566 46.0328C204.491 50.768 197.742 53.2928 190.805 53.0521" stroke="black"/>
<path d="M381.57 43.1152C382.64 46.6672 384.826 49.78 387.803 51.9921C390.781 54.2042 394.393 55.3977 398.102 55.3959H494.184" stroke="black"/>
<path d="M164.284 391.771L18.7344 391.021" stroke="black"/>
<path d="M178.546 444.316V412.039C178.546 407.604 177.177 403.277 174.625 399.649C172.074 396.022 168.465 393.271 164.291 391.771C170.237 387.309 174.897 381.353 177.796 374.507V246.147C177.796 241.803 176.415 237.571 173.853 234.063C171.29 230.555 167.679 227.952 163.541 226.631H18.7407C14.2173 226.631 9.85812 228.327 6.52441 231.385C3.19071 234.442 1.12471 238.638 0.734375 243.145V373.756C0.734375 376.086 1.20574 378.393 2.12012 380.536C3.03449 382.68 4.37308 384.616 6.05518 386.229C7.73728 387.842 9.72817 389.098 11.9082 389.921C14.0882 390.745 16.4124 391.119 18.7407 391.021C14.1373 392.364 10.006 394.978 6.82104 398.563C3.63606 402.148 1.52636 406.558 0.734375 411.288V538.146C0.734375 542.825 2.39237 547.353 5.41406 550.926C8.43576 554.499 12.6258 556.886 17.2402 557.663H161.29C163.557 557.663 165.801 557.216 167.896 556.348C169.99 555.48 171.892 554.209 173.495 552.605C175.097 551.002 176.368 549.099 177.235 547.004C178.102 544.91 178.547 542.665 178.546 540.398V444.316Z" stroke="black"/>
<path d="M52.7339 444.316V412.039C52.7339 407.604 51.3646 403.277 48.8132 399.649C46.2618 396.022 42.6528 393.271 38.479 391.771C44.4255 387.309 49.0848 381.353 51.9836 374.507V246.147C51.9836 241.803 50.6028 237.571 48.0405 234.063C45.4782 230.555 41.8671 227.952 37.7288 226.631H37.2109" stroke="black"/>
<path d="M37.2109 557.576C41.4673 557.146 45.4125 555.151 48.2808 551.977C51.1491 548.803 52.736 544.676 52.7339 540.398V444.316" stroke="black"/>
</svg>
