<svg width="787" height="822" viewBox="0 0 787 822" fill="none" xmlns="http://www.w3.org/2000/svg">
<path d="M780.385 274.685C769.95 276.909 760.081 281.25 751.39 287.438C717.241 317.718 678.443 342.306 636.482 360.259C635.162 359.396 634.127 358.161 633.507 356.711C632.887 355.262 632.709 353.661 632.995 352.11C632.926 350.968 632.409 349.899 631.555 349.137C627.632 343.937 624.006 338.521 620.694 332.912L597.265 292.332L573.835 251.752C570.635 246.079 567.757 240.23 565.215 234.233C564.982 233.113 564.316 232.131 563.361 231.5C561.875 230.973 560.577 230.018 559.632 228.756C558.686 227.494 558.135 225.98 558.047 224.405C594.575 197.043 635.268 175.736 678.566 161.303C688.271 156.87 696.964 150.494 704.108 142.569C704.494 141.859 705.062 141.264 705.754 140.847C706.446 140.43 707.237 140.205 708.045 140.196C708.854 140.186 709.65 140.393 710.351 140.794C711.053 141.195 711.635 141.776 712.037 142.477L784.429 267.864C784.835 268.563 785.047 269.357 785.044 270.166C785.04 270.974 784.821 271.766 784.409 272.462C783.997 273.157 783.407 273.729 782.699 274.12C781.992 274.511 781.193 274.706 780.385 274.685Z" stroke="black"/>
<path d="M81.4361 143.677C88.5801 151.601 97.2732 157.977 106.978 162.411C150.276 176.844 190.969 198.15 227.497 225.513C227.409 227.087 226.858 228.601 225.912 229.863C224.967 231.125 223.669 232.08 222.183 232.607C221.228 233.238 220.562 234.221 220.329 235.341C217.787 241.338 214.909 247.187 211.708 252.859L188.279 293.44L164.85 334.02C161.538 339.628 157.912 345.045 153.989 350.245C153.135 351.007 152.618 352.075 152.549 353.217C152.835 354.768 152.657 356.369 152.037 357.819C151.417 359.269 150.382 360.503 149.062 361.367C107.101 343.414 68.3027 318.825 34.1543 288.545C25.4625 282.357 15.5943 278.017 5.15922 275.792C4.35128 275.813 3.55222 275.618 2.84477 275.228C2.13732 274.837 1.54701 274.264 1.13481 273.569C0.722605 272.874 0.503525 272.081 0.500042 271.273C0.496559 270.465 0.708836 269.67 1.11503 268.972L73.5071 143.585C73.9091 142.883 74.491 142.302 75.1927 141.901C75.8943 141.5 76.6904 141.294 77.4986 141.303C78.3067 141.312 79.0979 141.537 79.7901 141.955C80.4823 142.372 81.0504 142.966 81.4361 143.677Z" stroke="black"/>
<path d="M468.729 7.41266C465.438 17.562 464.263 28.2782 465.276 38.8996C474.425 83.6131 476.32 129.508 470.887 174.823C469.479 175.534 467.893 175.814 466.327 175.626C464.761 175.438 463.286 174.792 462.086 173.768C461.063 173.257 459.878 173.171 458.792 173.529C452.327 174.326 445.823 174.758 439.31 174.823H392.452H345.594C339.081 174.758 332.577 174.326 326.112 173.529C325.026 173.171 323.841 173.257 322.818 173.768C321.618 174.792 320.143 175.438 318.577 175.626C317.011 175.814 315.424 175.534 314.017 174.823C308.584 129.508 310.479 83.6131 319.628 38.8996C320.641 28.2782 319.466 17.562 316.175 7.41266C315.753 6.72354 315.522 5.93418 315.507 5.1261C315.491 4.31802 315.692 3.52052 316.088 2.81594C316.484 2.11136 317.061 1.52523 317.759 1.11811C318.457 0.710984 319.252 0.497611 320.06 0.50002H464.844C465.652 0.497611 466.446 0.710984 467.145 1.11811C467.843 1.52523 468.42 2.11136 468.816 2.81594C469.212 3.52052 469.412 4.31802 469.397 5.1261C469.382 5.93418 469.151 6.72354 468.729 7.41266Z" stroke="black"/>
<path d="M317.456 814.485C320.747 804.336 321.923 793.619 320.91 782.998C311.76 738.285 309.865 692.39 315.298 647.074C316.706 646.363 318.292 646.084 319.858 646.272C321.424 646.459 322.899 647.106 324.099 648.13C325.123 648.641 326.307 648.727 327.394 648.368C333.858 647.571 340.362 647.139 346.875 647.074H393.733H440.591C447.104 647.139 453.609 647.571 460.073 648.368C461.16 648.727 462.344 648.641 463.368 648.13C464.567 647.106 466.043 646.459 467.609 646.272C469.174 646.084 470.761 646.363 472.168 647.074C477.601 692.39 475.706 738.285 466.557 782.998C465.544 793.619 466.719 804.336 470.01 814.485C470.432 815.174 470.663 815.963 470.678 816.772C470.694 817.58 470.493 818.377 470.097 819.082C469.701 819.786 469.124 820.372 468.426 820.78C467.728 821.187 466.934 821.4 466.125 821.398H321.341C320.533 821.4 319.739 821.187 319.04 820.78C318.342 820.372 317.766 819.786 317.37 819.082C316.974 818.377 316.773 817.58 316.788 816.772C316.803 815.963 317.034 815.174 317.456 814.485Z" stroke="black"/>
<path d="M611.082 410.949C611.082 353.134 588.115 297.686 547.233 256.804C506.351 215.922 450.903 192.955 393.088 192.955C335.272 192.955 279.824 215.922 238.943 256.804C198.061 297.686 175.094 353.134 175.094 410.949C175.094 468.765 198.061 524.212 238.943 565.094C279.824 605.976 335.272 628.943 393.088 628.943C450.903 628.943 506.351 605.976 547.233 565.094C588.115 524.212 611.082 468.765 611.082 410.949Z" stroke="black"/>
<path d="M618.292 410.949C618.292 351.222 594.565 293.941 552.332 251.708C510.099 209.474 452.818 185.748 393.091 185.748C333.364 185.748 276.084 209.474 233.85 251.708C191.617 293.941 167.891 351.222 167.891 410.949C167.891 470.675 191.617 527.956 233.85 570.189C276.084 612.423 333.364 636.149 393.091 636.149C452.818 636.149 510.099 612.423 552.332 570.189C594.565 527.956 618.292 470.675 618.292 410.949Z" stroke="black"/>
<path d="M5.79985 547.213C16.2349 544.989 26.1032 540.648 34.795 534.46C68.9434 504.18 107.742 479.592 149.703 461.639C151.022 462.502 152.057 463.736 152.678 465.186C153.298 466.636 153.476 468.237 153.189 469.788C153.258 470.93 153.776 471.999 154.63 472.761C158.552 477.96 162.179 483.377 165.491 488.985L188.92 529.566L212.349 570.146C215.55 575.819 218.428 581.667 220.97 587.664C221.203 588.785 221.869 589.767 222.824 590.398C224.31 590.925 225.608 591.88 226.553 593.142C227.499 594.404 228.05 595.918 228.138 597.492C191.61 624.855 150.916 646.161 107.619 660.595C97.9138 665.028 89.221 671.404 82.077 679.329C81.6913 680.039 81.1229 680.633 80.4307 681.051C79.7385 681.468 78.9476 681.693 78.1395 681.702C77.3313 681.712 76.5352 681.505 75.8335 681.104C75.1319 680.703 74.55 680.122 74.148 679.421L1.7559 554.034C1.34971 553.335 1.13718 552.54 1.14067 551.732C1.14415 550.924 1.36347 550.131 1.77568 549.436C2.18788 548.741 2.77819 548.168 3.48564 547.778C4.19309 547.387 4.9919 547.192 5.79985 547.213Z" stroke="black"/>
<path d="M704.74 678.221C697.596 670.296 688.904 663.92 679.199 659.487C635.901 645.054 595.208 623.748 558.68 596.385C558.768 594.81 559.319 593.297 560.264 592.035C561.21 590.772 562.507 589.818 563.994 589.291C564.948 588.66 565.615 587.677 565.848 586.557C568.39 580.56 571.268 574.711 574.468 569.038L597.897 528.458L621.326 487.878C624.639 482.27 628.265 476.853 632.188 471.653C633.041 470.891 633.559 469.823 633.628 468.681C633.341 467.13 633.519 465.529 634.14 464.079C634.76 462.629 635.795 461.395 637.115 460.531C679.075 478.484 717.874 503.072 752.022 533.353C760.714 539.541 770.582 543.881 781.018 546.106C781.826 546.084 782.624 546.279 783.332 546.67C784.039 547.061 784.63 547.634 785.042 548.329C785.454 549.024 785.673 549.817 785.677 550.625C785.68 551.433 785.468 552.228 785.062 552.926L712.669 678.313C712.267 679.014 711.686 679.595 710.984 679.996C710.282 680.398 709.486 680.604 708.678 680.595C707.87 680.585 707.079 680.36 706.387 679.943C705.695 679.526 705.126 678.931 704.74 678.221Z" stroke="black"/>
</svg>
