<svg width="795" height="795" viewBox="0 0 795 795" fill="none" xmlns="http://www.w3.org/2000/svg">
<path d="M462.533 6.40749C459.72 15.0809 458.716 24.2387 459.582 33.3154C467.401 71.5267 469.02 110.747 464.377 149.473C463.174 150.081 461.818 150.319 460.48 150.159C459.142 149.998 457.881 149.446 456.856 148.571C455.981 148.134 454.969 148.061 454.04 148.367C448.516 149.048 442.958 149.418 437.392 149.473H397.348H357.304C351.738 149.418 346.18 149.048 340.656 148.367C339.727 148.061 338.715 148.134 337.84 148.571C336.815 149.446 335.554 149.998 334.216 150.159C332.878 150.319 331.522 150.081 330.319 149.473C325.677 110.747 327.296 71.5267 335.115 33.3154C335.98 24.2387 334.976 15.0809 332.163 6.40749C331.802 5.81858 331.605 5.14395 331.592 4.45339C331.579 3.76282 331.751 3.08126 332.089 2.47914C332.428 1.87702 332.92 1.37613 333.517 1.02822C334.114 0.680296 334.793 0.497959 335.483 0.500017H459.213C459.903 0.497959 460.582 0.680296 461.179 1.02822C461.776 1.37613 462.268 1.87702 462.607 2.47914C462.945 3.08126 463.117 3.76282 463.104 4.45339C463.091 5.14395 462.893 5.81858 462.533 6.40749Z" stroke="black"/>
<path d="M788.292 462.535C779.619 459.722 770.461 458.718 761.385 459.584C723.173 467.403 683.953 469.022 645.227 464.379C644.619 463.176 644.38 461.82 644.541 460.482C644.701 459.144 645.254 457.883 646.129 456.858C646.566 455.983 646.639 454.971 646.333 454.043C645.652 448.518 645.282 442.96 645.227 437.394V397.35V357.306C645.282 351.74 645.652 346.182 646.333 340.658C646.639 339.729 646.566 338.717 646.129 337.842C645.254 336.817 644.701 335.556 644.541 334.218C644.38 332.88 644.619 331.524 645.227 330.321C683.953 325.678 723.173 327.298 761.385 335.117C770.461 335.982 779.619 334.978 788.292 332.165C788.881 331.805 789.556 331.607 790.246 331.594C790.937 331.581 791.618 331.753 792.22 332.091C792.823 332.43 793.324 332.923 793.672 333.519C794.02 334.116 794.202 334.795 794.2 335.485V459.215C794.202 459.906 794.02 460.584 793.672 461.181C793.324 461.778 792.823 462.271 792.22 462.609C791.618 462.947 790.937 463.119 790.246 463.106C789.556 463.093 788.881 462.896 788.292 462.535Z" stroke="black"/>
<path d="M719.878 167.005C711.757 171.149 704.571 176.915 698.765 183.945C677.274 216.493 650.686 245.371 620.02 269.472C618.74 269.051 617.612 268.261 616.779 267.201C615.947 266.142 615.446 264.859 615.339 263.516C615.03 262.588 614.366 261.821 613.493 261.381C609.105 257.956 604.913 254.287 600.938 250.39L572.623 222.075L544.308 193.76C540.411 189.785 536.742 185.594 533.317 181.206C532.877 180.332 532.11 179.669 531.182 179.359C529.839 179.253 528.557 178.752 527.497 177.919C526.437 177.086 525.647 175.959 525.227 174.678C549.327 144.012 578.205 117.424 610.753 95.9335C617.783 90.1275 623.549 82.9417 627.693 74.82C627.855 74.1484 628.192 73.532 628.671 73.0344C629.15 72.5369 629.753 72.1763 630.418 71.9898C631.083 71.8033 631.786 71.7978 632.454 71.9737C633.122 72.1495 633.731 72.5005 634.218 72.9904L721.708 160.48C722.198 160.967 722.549 161.576 722.725 162.244C722.9 162.912 722.895 163.615 722.708 164.28C722.522 164.945 722.161 165.548 721.664 166.027C721.166 166.506 720.55 166.844 719.878 167.005Z" stroke="black"/>
<path d="M6.40749 332.165C15.0809 334.978 24.2387 335.982 33.3154 335.117C71.5267 327.298 110.747 325.678 149.473 330.321C150.081 331.524 150.319 332.88 150.159 334.218C149.999 335.556 149.446 336.817 148.571 337.842C148.134 338.717 148.061 339.729 148.367 340.658C149.048 346.182 149.418 351.74 149.473 357.306V397.35V437.394C149.418 442.96 149.048 448.518 148.367 454.043C148.061 454.971 148.134 455.983 148.571 456.858C149.446 457.883 149.999 459.144 150.159 460.482C150.319 461.82 150.081 463.176 149.473 464.379C110.747 469.022 71.5267 467.403 33.3154 459.584C24.2387 458.718 15.0809 459.722 6.40749 462.535C5.81858 462.896 5.14395 463.093 4.45339 463.106C3.76282 463.119 3.08139 462.947 2.47927 462.609C1.87714 462.271 1.37626 461.778 1.02834 461.181C0.680418 460.584 0.497959 459.906 0.500017 459.215V335.485C0.497959 334.795 0.680418 334.116 1.02834 333.519C1.37626 332.923 1.87714 332.43 2.47927 332.091C3.08139 331.753 3.76282 331.581 4.45339 331.594C5.14395 331.607 5.81858 331.805 6.40749 332.165Z" stroke="black"/>
<path d="M167.003 74.82C171.147 82.9417 176.913 90.1275 183.943 95.9335C216.491 117.424 245.369 144.012 269.47 174.678C269.049 175.959 268.259 177.086 267.199 177.919C266.14 178.752 264.857 179.253 263.514 179.359C262.586 179.669 261.819 180.332 261.379 181.206C257.954 185.594 254.285 189.785 250.388 193.76L222.073 222.075L193.758 250.39C189.783 254.287 185.592 257.956 181.204 261.381C180.33 261.821 179.667 262.588 179.357 263.516C179.251 264.859 178.75 266.142 177.917 267.201C177.084 268.261 175.957 269.051 174.677 269.472C144.011 245.371 117.422 216.493 95.9317 183.945C90.1256 176.915 82.9399 171.149 74.8181 167.005C74.1465 166.844 73.53 166.506 73.0325 166.027C72.535 165.548 72.1743 164.945 71.9878 164.28C71.8013 163.615 71.7958 162.912 71.9717 162.244C72.1476 161.576 72.4985 160.967 72.9883 160.48L160.478 72.9904C160.965 72.5005 161.574 72.1495 162.242 71.9737C162.91 71.7978 163.613 71.8033 164.278 71.9898C164.943 72.1763 165.546 72.5369 166.025 73.0344C166.504 73.532 166.842 74.1484 167.003 74.82Z" stroke="black"/>
<path d="M332.163 788.294C334.976 779.621 335.98 770.463 335.115 761.386C327.296 723.175 325.677 683.954 330.319 645.229C331.522 644.621 332.878 644.382 334.216 644.543C335.554 644.703 336.815 645.256 337.84 646.13C338.715 646.567 339.727 646.641 340.656 646.334C346.18 645.653 351.738 645.284 357.304 645.229H397.348H437.392C442.958 645.284 448.516 645.653 454.04 646.334C454.969 646.641 455.981 646.567 456.856 646.13C457.881 645.256 459.142 644.703 460.48 644.543C461.818 644.382 463.174 644.621 464.377 645.229C469.02 683.954 467.401 723.175 459.582 761.386C458.716 770.463 459.72 779.621 462.533 788.294C462.893 788.883 463.091 789.558 463.104 790.248C463.117 790.939 462.945 791.62 462.607 792.222C462.268 792.825 461.776 793.325 461.179 793.673C460.582 794.021 459.903 794.204 459.213 794.202H335.483C334.793 794.204 334.114 794.021 333.517 793.673C332.92 793.325 332.428 792.825 332.089 792.222C331.751 791.62 331.579 790.939 331.592 790.248C331.605 789.558 331.802 788.883 332.163 788.294Z" stroke="black"/>
<path d="M627.693 719.882C623.549 711.76 617.783 704.575 610.753 698.769C578.205 677.278 549.327 650.69 525.227 620.024C525.647 618.743 526.437 617.616 527.497 616.783C528.557 615.95 529.839 615.449 531.182 615.343C532.11 615.034 532.877 614.37 533.317 613.497C536.742 609.109 540.411 604.917 544.308 600.942L572.623 572.627L600.938 544.312C604.913 540.415 609.105 536.746 613.493 533.321C614.366 532.881 615.03 532.114 615.339 531.186C615.446 529.843 615.947 528.561 616.779 527.501C617.612 526.441 618.74 525.651 620.02 525.23C650.686 549.331 677.274 578.209 698.765 610.757C704.571 617.787 711.757 623.553 719.878 627.697C720.55 627.858 721.166 628.196 721.664 628.675C722.161 629.154 722.522 629.757 722.708 630.422C722.895 631.087 722.9 631.79 722.725 632.458C722.549 633.126 722.198 633.735 721.708 634.222L634.218 721.712C633.731 722.202 633.122 722.553 632.454 722.729C631.786 722.904 631.083 722.899 630.418 722.712C629.753 722.526 629.15 722.165 628.671 721.668C628.192 721.17 627.855 720.554 627.693 719.882Z" stroke="black"/>
<path d="M74.8181 627.697C82.9399 623.553 90.1256 617.787 95.9317 610.757C117.422 578.209 144.011 549.331 174.677 525.23C175.957 525.651 177.084 526.441 177.917 527.501C178.75 528.561 179.251 529.843 179.357 531.186C179.667 532.114 180.33 532.881 181.204 533.321C185.592 536.746 189.783 540.415 193.758 544.312L222.073 572.627L250.388 600.942C254.285 604.917 257.954 609.109 261.379 613.497C261.819 614.37 262.586 615.034 263.514 615.343C264.857 615.449 266.14 615.95 267.199 616.783C268.259 617.616 269.049 618.743 269.47 620.024C245.369 650.69 216.491 677.278 183.943 698.769C176.913 704.575 171.147 711.76 167.003 719.882C166.842 720.554 166.504 721.17 166.025 721.668C165.546 722.165 164.943 722.526 164.278 722.712C163.613 722.899 162.91 722.904 162.242 722.729C161.574 722.553 160.965 722.202 160.478 721.712L72.9883 634.222C72.4985 633.735 72.1476 633.126 71.9717 632.458C71.7958 631.79 71.8013 631.087 71.9878 630.422C72.1743 629.757 72.535 629.154 73.0325 628.675C73.53 628.196 74.1465 627.858 74.8181 627.697Z" stroke="black"/>
<path d="M629.83 397.351C629.83 335.693 605.337 276.56 561.738 232.961C518.139 189.363 459.007 164.869 397.349 164.869C335.691 164.869 276.558 189.363 232.959 232.961C189.361 276.56 164.867 335.693 164.867 397.351C164.867 459.008 189.361 518.141 232.959 561.74C276.558 605.338 335.691 629.832 397.349 629.832C459.007 629.832 518.139 605.338 561.738 561.74C605.337 518.141 629.83 459.008 629.83 397.351Z" stroke="black"/>
<path d="M635.991 397.351C635.991 334.06 610.849 273.361 566.095 228.607C521.341 183.853 460.642 158.711 397.351 158.711C334.06 158.711 273.361 183.853 228.607 228.607C183.853 273.361 158.711 334.06 158.711 397.351C158.711 460.642 183.853 521.341 228.607 566.095C273.361 610.848 334.06 635.991 397.351 635.991C460.642 635.991 521.341 610.848 566.095 566.095C610.849 521.341 635.991 460.642 635.991 397.351Z" stroke="black"/>
</svg>
