<svg width="795" height="795" viewBox="0 0 795 795" fill="none" xmlns="http://www.w3.org/2000/svg">
<path d="M750.141 794.198C755.931 794.198 761.664 793.057 767.014 790.841C772.363 788.625 777.226 785.377 781.32 781.283C785.415 777.188 788.661 772.327 790.877 766.978C793.093 761.628 794.234 755.894 794.234 750.104" stroke="black"/>
<path d="M794.234 44.5942C794.234 38.8037 793.093 33.07 790.877 27.7202C788.661 22.3704 785.415 17.5091 781.32 13.4146C777.226 9.32001 772.363 6.07239 767.014 3.85645C761.664 1.6405 755.931 0.5 750.141 0.5" stroke="black"/>
<path d="M88.7031 706.011V88.6914" stroke="black"/>
<path d="M0.5 750.1V44.5898" stroke="black"/>
<path d="M706 706.011V88.6914" stroke="black"/>
<path d="M706.002 181.061L96.1016 539.03" stroke="black"/>
<path d="M706.004 706.012H88.7031" stroke="black"/>
<path d="M750.102 794.201H44.6016" stroke="black"/>
<path d="M706 223.381L89.5 585.211" stroke="black"/>
<path d="M0.53125 750.104C0.53125 761.798 5.17797 773.013 13.4473 781.283C21.7166 789.552 32.9324 794.198 44.627 794.198" stroke="black"/>
<path d="M750.102 0.5H44.6016" stroke="black"/>
<path d="M706.004 88.6914H88.7031" stroke="black"/>
<path d="M44.627 0.5C32.9324 0.5 21.7166 5.14526 13.4473 13.4146C5.17797 21.6838 0.53125 32.8997 0.53125 44.5942" stroke="black"/>
<path d="M794.203 750.1V44.5898" stroke="black"/>
</svg>
