<svg width="721" height="826" viewBox="0 0 721 826" fill="none" xmlns="http://www.w3.org/2000/svg">
<path d="M435.068 130.841C384.823 127.473 334.39 127.578 284.159 131.155" stroke="black"/>
<path d="M435.021 106.757C384.776 103.389 334.343 103.494 284.112 107.071" stroke="black"/>
<path d="M588.635 57.3888C437.376 26.5525 281.422 26.8773 130.293 58.3434" stroke="black"/>
<path d="M435.062 130.842L435.012 106.756C490.045 110.318 544.737 117.898 598.664 129.435C600.976 129.93 603.367 129.941 605.683 129.468C608 128.995 610.184 128.048 612.117 126.687C614.05 125.326 615.671 123.58 616.897 121.558C618.123 119.537 618.92 117.284 619.233 114.94L622.704 52.347C623.044 46.2091 621.19 40.1524 617.45 35.2741C613.709 30.3957 608.34 27.0184 602.324 25.7539C442.084 -7.92789 276.554 -7.58314 116.456 26.7658C110.445 28.0554 105.089 31.4551 101.369 36.349C97.6492 41.2428 95.8208 47.3072 96.1864 53.4436L99.8873 116.022C100.21 118.364 101.017 120.614 102.251 122.63C103.485 124.646 105.145 126.386 107.083 127.739C109.022 129.092 111.21 130.03 113.528 130.493C115.847 130.956 118.237 130.935 120.547 130.431C174.426 118.669 229.086 110.862 284.103 107.071L284.153 131.156C234.645 134.682 185.43 141.573 136.858 151.782C113.758 156.637 92.7763 168.593 76.8091 185.977C60.8418 203.361 50.705 225.302 47.826 248.729L4.46879 619.027L2.48774 634.929C-2.15687 672.725 7.6812 710.881 29.9929 741.741C52.3047 772.601 85.451 793.884 122.799 801.321C280.087 832.639 442.051 832.302 599.207 800.328C636.524 792.736 669.581 771.316 691.764 740.363C713.947 709.41 723.595 671.214 718.793 633.437L716.777 617.544L671.877 247.43C668.901 224.014 658.673 202.115 642.633 184.798C626.594 167.482 605.562 155.613 582.443 150.854C533.828 140.848 484.585 134.161 435.062 130.842Z" stroke="black"/>
<path d="M510.935 330.197C514.516 330.19 517.952 328.76 520.478 326.223C523.005 323.686 524.403 320.248 524.395 316.668C524.388 313.087 522.976 309.655 520.439 307.129C517.901 304.602 514.459 303.187 510.878 303.194C507.298 303.202 503.862 304.631 501.335 307.169C498.808 309.706 497.38 313.143 497.387 316.724C497.395 320.305 498.837 323.736 501.375 326.263C503.912 328.789 507.354 330.205 510.935 330.197Z" stroke="black"/>
<path d="M511.599 649.131C515.18 649.123 518.616 647.694 521.143 645.156C523.669 642.619 525.067 639.182 525.059 635.601C525.052 632.02 523.64 628.589 521.103 626.062C518.565 623.536 515.123 622.12 511.543 622.128C507.962 622.135 504.526 623.565 501.999 626.102C499.472 628.639 498.044 632.077 498.051 635.657C498.059 639.238 499.501 642.669 502.039 645.196C504.576 647.723 508.018 649.138 511.599 649.131Z" stroke="black"/>
<path d="M209.818 649.758C213.398 649.75 216.834 648.321 219.361 645.783C221.888 643.246 223.286 639.809 223.278 636.228C223.271 632.647 221.859 629.216 219.321 626.689C216.784 624.163 213.342 622.747 209.761 622.755C206.18 622.762 202.744 624.192 200.218 626.729C197.691 629.266 196.293 632.703 196.301 636.284C196.308 639.865 197.72 643.296 200.257 645.823C202.795 648.35 206.237 649.765 209.818 649.758Z" stroke="black"/>
<path d="M209.153 330.826C212.734 330.819 216.17 329.389 218.697 326.852C221.224 324.314 222.622 320.877 222.614 317.297C222.607 313.716 221.195 310.284 218.657 307.758C216.12 305.231 212.678 303.816 209.097 303.823C205.516 303.83 202.08 305.26 199.553 307.797C197.027 310.335 195.629 313.772 195.637 317.353C195.644 320.934 197.056 324.365 199.593 326.892C202.131 329.418 205.573 330.834 209.153 330.826Z" stroke="black"/>
</svg>
