<svg width="640" height="823" viewBox="0 0 640 823" fill="none" xmlns="http://www.w3.org/2000/svg">
<path d="M545.531 578.743C558.107 578.743 570.548 576.144 582.072 571.109C593.596 566.074 603.956 558.712 612.501 549.485C621.046 540.257 627.591 529.364 631.727 517.487C635.863 505.611 637.501 493.008 636.536 480.469" stroke="black"/>
<path d="M152.623 198.436C152.623 178.264 144.609 158.917 130.345 144.653C116.081 130.389 96.7341 122.375 76.5613 122.375C56.3886 122.375 37.0421 130.389 22.7778 144.653C8.51356 158.917 0.5 178.264 0.5 198.436" stroke="black"/>
<path d="M152.625 312.803C152.625 328.894 156.879 344.698 164.955 358.615C173.032 372.532 184.644 384.067 198.614 392.05" stroke="black"/>
<path d="M365.591 540.437C365.591 524.346 361.337 508.542 353.261 494.624C345.184 480.707 333.572 469.173 319.602 461.189" stroke="black"/>
<path d="M0.5 730.865C0.5 742.851 2.86086 754.72 7.44778 765.794C12.0347 776.868 18.7579 786.93 27.2334 795.405C35.7089 803.881 45.7709 810.604 56.8447 815.191C67.9185 819.778 79.7874 822.139 91.7736 822.139" stroke="black"/>
<path d="M274.32 822.139C286.307 822.139 298.175 819.778 309.249 815.191C320.323 810.604 330.385 803.881 338.861 795.405C347.336 786.93 354.059 776.868 358.646 765.794C363.233 754.72 365.594 742.851 365.594 730.865" stroke="black"/>
<path d="M616.356 218.158C614.838 198.422 606.945 179.714 593.867 164.855C580.789 149.996 563.235 139.791 543.852 135.779" stroke="black"/>
<path d="M217.757 135.779C203.259 138.78 189.709 145.263 178.274 154.668C166.84 164.074 157.866 176.119 152.125 189.766" stroke="black"/>
<path d="M543.853 135.779C435.909 117.67 325.702 117.67 217.758 135.779" stroke="black"/>
<path d="M608.993 31.1014C459.606 -9.70047 302.012 -9.70047 152.625 31.1014" stroke="black"/>
<path d="M608.993 91.951C459.606 51.1491 302.012 51.1491 152.625 91.951" stroke="black"/>
<path d="M152.625 312.803V198.436" stroke="black"/>
<path d="M319.602 461.195L198.609 392.051" stroke="black"/>
<path d="M365.594 730.864V540.434" stroke="black"/>
<path d="M365.594 578.744H545.531" stroke="black"/>
<path d="M636.536 480.464L616.359 218.158" stroke="black"/>
<path d="M608.992 91.9506C617.061 91.9506 624.8 88.7452 630.506 83.0395C636.211 77.3338 639.417 69.5952 639.417 61.5261C639.417 53.457 636.211 45.7184 630.506 40.0127C624.8 34.307 617.061 31.1016 608.992 31.1016" stroke="black"/>
<path d="M152.62 31.1016C144.551 31.1016 136.812 34.307 131.106 40.0127C125.401 45.7184 122.195 53.457 122.195 61.5261C122.195 69.5952 125.401 77.3338 131.106 83.0395C136.812 88.7452 144.551 91.9506 152.62 91.9506" stroke="black"/>
<path d="M426.445 62.5527V123.256" stroke="black"/>
<path d="M335.172 123.256V62.5527" stroke="black"/>
<path d="M0.5 198.436V730.864" stroke="black"/>
<path d="M91.7734 822.135H274.321" stroke="black"/>
</svg>
