<svg width="727" height="867" viewBox="0 0 727 867" fill="none" xmlns="http://www.w3.org/2000/svg">
<path d="M260.543 226.076C198.549 226.076 138.9 249.775 93.8096 292.32C48.719 334.865 21.5982 393.038 18 454.928" stroke="black"/>
<path d="M708.676 454.928C705.078 393.038 677.957 334.865 632.866 292.32C587.776 249.775 528.127 226.076 466.133 226.076" stroke="black"/>
<path d="M593.188 165.734C603.72 168.409 614.682 168.941 625.424 167.299C636.166 165.657 646.468 161.875 655.721 156.175C664.973 150.476 672.987 142.976 679.286 134.122C685.585 125.267 690.041 115.237 692.391 104.627" stroke="black"/>
<path d="M696.253 88.9006C481.053 34.2467 255.606 34.2467 40.4062 88.9006" stroke="black"/>
<path d="M692.265 104.6C479.681 50.6101 256.974 50.6101 44.3906 104.6" stroke="black"/>
<path d="M692.266 104.599C693.296 104.861 694.368 104.917 695.421 104.764C696.473 104.612 697.485 104.253 698.399 103.709C699.313 103.166 700.112 102.447 700.748 101.595C701.384 100.743 701.847 99.7739 702.108 98.7432C702.37 97.7124 702.426 96.6404 702.273 95.5879C702.121 94.5354 701.763 93.5229 701.219 92.6089C700.675 91.6949 699.957 90.8971 699.104 90.2607C698.252 89.6244 697.283 89.1622 696.252 88.9004" stroke="black"/>
<path d="M322.852 19.9492H403.831" stroke="black"/>
<path d="M40.4103 88.9004C38.3285 89.4291 36.5417 90.763 35.4435 92.6089C34.3453 94.4548 34.0251 96.6614 34.5538 98.7432C35.0825 100.825 36.417 102.611 38.2628 103.709C40.1087 104.808 42.3149 105.128 44.3966 104.599" stroke="black"/>
<path d="M44.2734 104.627C46.6228 115.237 51.0788 125.267 57.3779 134.122C63.677 142.976 71.691 150.476 80.9434 156.175C90.1957 161.875 100.498 165.657 111.24 167.299C121.982 168.941 132.944 168.409 143.477 165.734" stroke="black"/>
<path d="M403.828 145.1V226.08" stroke="black"/>
<path d="M322.852 145.1V226.08" stroke="black"/>
<path d="M403.831 0.5H322.852" stroke="black"/>
<path d="M322.852 0.5V19.9502" stroke="black"/>
<path d="M403.828 19.9502V0.5" stroke="black"/>
<path d="M260.539 226.08H466.14" stroke="black"/>
<path d="M593.188 165.734C441.246 137.6 285.374 138.23 133.664 167.592" stroke="black"/>
<path d="M564.203 865.852C586.265 865.852 608.094 861.345 628.352 852.607C648.609 843.869 666.868 831.085 682.009 815.039C697.149 798.992 708.851 780.022 716.398 759.292C723.946 738.561 727.179 716.507 725.898 694.482" stroke="black"/>
<path d="M708.68 454.93L725.939 694.479" stroke="black"/>
<path d="M0.78125 694.479L18.001 454.93" stroke="black"/>
<path d="M0.773015 694.482C-0.507482 716.507 2.72585 738.561 10.273 759.292C17.8202 780.022 29.5222 798.992 44.6627 815.039C59.8032 831.085 78.0622 843.869 98.3199 852.607C118.578 861.345 140.408 865.852 162.469 865.852" stroke="black"/>
<path d="M564.208 865.85H162.469" stroke="black"/>
</svg>
