<?xml version="1.0" encoding="UTF-8"?>
<!-- 2026-03-10 13:37:16 Generated by QCAD 3.32.6 SVG Exporter -->
<svg  width="10443mm" height="10443mm" viewBox="31.5362 -10468.9242 10443 10443" version="1.1" xmlns="http://www.w3.org/2000/svg" style="stroke-linecap:round;stroke-linejoin:round;">
    <g transform="scale(1,-1)">
            <!-- Auto-generated fillable area -->
            <!-- Block Reference: Banquet sitting style / entities: 63 -->
        <g>
            <!-- Block Reference: chair_04_top_cad-block.com / entities: 8 -->
            <g>
                <!-- Line -->
                <path d="M3909.3237,5504.5992 L3909.3237,4990.2492 " style="stroke:#000000;stroke-width:0.1;"/>
                <!-- Arc -->
                <path d="M3880.7231,5542.6992 A50.8,50.8 0 0,1 3831.5362,5504.5992" style="stroke:#000000;stroke-width:0.1;"/>
                <!-- Arc -->
                <path d="M3831.5362,4990.2492 A50.8,50.8 0 0,1 3880.7231,4952.1492" style="stroke:#000000;stroke-width:0.1;"/>
                <!-- Polyline -->
                <path d="M3880.7231,4952.1492 L4352.2106,4952.1492 L4352.2106,4990.2492" style="stroke:#000000;stroke-width:0.1;"/>
                <!-- Polyline -->
                <path d="M3880.7231,5542.6992 L4352.2106,5542.6992 L4352.2106,5504.5992" style="stroke:#000000;stroke-width:0.1;"/>
                <!-- Polyline -->
                <path d="M4403.0362,5504.5992 L4403.0362,4990.2492 L3831.5362,4990.2492 L3831.5362,5504.5992 Z" style="stroke:#000000;stroke-width:0.1;"/>
                <!-- Hatch -->
                <path d="M3831.5362,5504.5992 L3831.5362,4990.2492 L3909.3237,4990.2492 L3909.3237,5504.5992 ZM3909.3237,5504.5992 L3909.3237,4990.2492 L4403.0362,4990.2492 L4403.0362,5504.5992 Z" style="fill-rule:evenodd;"/>
                <!-- Hatch -->
                <path d="M3831.5362,4990.2492 A50.8,50.8 0 0 1 3880.7233,4952.1492 L4352.2106,4952.1492 L4352.2106,4990.2492 ZM3880.723,5542.6992 A50.8,50.8 0 0 1 3831.5362,5504.5992 L4352.2106,5504.5992 L4352.2106,5542.6992 L3880.723,5542.6992" style="fill-rule:evenodd;"/>
            </g>
            <!-- Block Reference: chair_04_top_cad-block.com / entities: 8 -->
            <g>
                <!-- Line -->
                <path d="M4484.7382,6379.4226 L4121.0378,6015.7222 " style="stroke:#000000;stroke-width:0.1;"/>
                <!-- Arc -->
                <path d="M4491.4553,6426.5871 A50.8,50.8 0 0,1 4429.7341,6434.4267" style="stroke:#000000;stroke-width:0.1;"/>
                <!-- Arc -->
                <path d="M4066.0338,6070.7263 A50.8,50.8 0 0,1 4073.8734,6009.0052" style="stroke:#000000;stroke-width:0.1;"/>
                <!-- Polyline -->
                <path d="M4073.8734,6009.0052 L4407.2654,5675.6131 L4434.2061,5702.5539" style="stroke:#000000;stroke-width:0.1;"/>
                <!-- Polyline -->
                <path d="M4491.4553,6426.5871 L4824.8473,6093.1951 L4797.9065,6066.2543" style="stroke:#000000;stroke-width:0.1;"/>
                <!-- Polyline -->
                <path d="M4833.8457,6030.3152 L4470.1453,5666.6148 L4066.0338,6070.7263 L4429.7341,6434.4267 Z" style="stroke:#000000;stroke-width:0.1;"/>
                <!-- Hatch -->
                <path d="M4429.7341,6434.4267 L4066.0338,6070.7263 L4121.0378,6015.7222 L4484.7382,6379.4226 ZM4484.7382,6379.4226 L4121.0378,6015.7222 L4470.1453,5666.6148 L4833.8457,6030.3152 Z" style="fill-rule:evenodd;"/>
                <!-- Hatch -->
                <path d="M4066.0338,6070.7263 A50.8,50.8 0 0 1 4073.8735,6009.0051 L4407.2654,5675.6131 L4434.2061,5702.5539 ZM4491.4552,6426.5872 A50.8,50.8 0 0 1 4429.7341,6434.4267 L4797.9065,6066.2543 L4824.8473,6093.1951 L4491.4552,6426.5872" style="fill-rule:evenodd;"/>
            </g>
            <!-- Block Reference: chair_04_top_cad-block.com / entities: 8 -->
            <g>
                <!-- Line -->
                <path d="M5510.2112,6591.1367 L4995.8612,6591.1367 " style="stroke:#000000;stroke-width:0.1;"/>
                <!-- Arc -->
                <path d="M5548.3112,6619.7373 A50.8,50.8 0 0,1 5510.2112,6668.9242" style="stroke:#000000;stroke-width:0.1;"/>
                <!-- Arc -->
                <path d="M4995.8612,6668.9242 A50.8,50.8 0 0,1 4957.7612,6619.7373" style="stroke:#000000;stroke-width:0.1;"/>
                <!-- Polyline -->
                <path d="M4957.7612,6619.7373 L4957.7612,6148.2498 L4995.8612,6148.2498" style="stroke:#000000;stroke-width:0.1;"/>
                <!-- Polyline -->
                <path d="M5548.3112,6619.7373 L5548.3112,6148.2498 L5510.2112,6148.2498" style="stroke:#000000;stroke-width:0.1;"/>
                <!-- Polyline -->
                <path d="M5510.2112,6097.4242 L4995.8612,6097.4242 L4995.8612,6668.9242 L5510.2112,6668.9242 Z" style="stroke:#000000;stroke-width:0.1;"/>
                <!-- Hatch -->
                <path d="M5510.2112,6668.9242 L4995.8612,6668.9242 L4995.8612,6591.1367 L5510.2112,6591.1367 ZM5510.2112,6591.1367 L4995.8612,6591.1367 L4995.8612,6097.4242 L5510.2112,6097.4242 Z" style="fill-rule:evenodd;"/>
                <!-- Hatch -->
                <path d="M4995.8612,6668.9242 A50.8,50.8 0 0 1 4957.7612,6619.7372 L4957.7612,6148.2498 L4995.8612,6148.2498 ZM5548.3112,6619.7375 A50.8,50.8 0 0 1 5510.2112,6668.9242 L5510.2112,6148.2498 L5548.3112,6148.2498 L5548.3112,6619.7375" style="fill-rule:evenodd;"/>
            </g>
            <!-- Block Reference: chair_04_top_cad-block.com / entities: 8 -->
            <g>
                <!-- Line -->
                <path d="M6385.0346,6015.7222 L6021.3343,6379.4226 " style="stroke:#000000;stroke-width:0.1;"/>
                <!-- Arc -->
                <path d="M6432.1991,6009.0052 A50.8,50.8 0 0,1 6440.0387,6070.7263" style="stroke:#000000;stroke-width:0.1;"/>
                <!-- Arc -->
                <path d="M6076.3383,6434.4267 A50.8,50.8 0 0,1 6014.6172,6426.5871" style="stroke:#000000;stroke-width:0.1;"/>
                <!-- Polyline -->
                <path d="M6014.6172,6426.5871 L5681.2252,6093.1951 L5708.1659,6066.2543" style="stroke:#000000;stroke-width:0.1;"/>
                <!-- Polyline -->
                <path d="M6432.1991,6009.0052 L6098.8071,5675.6131 L6071.8663,5702.5539" style="stroke:#000000;stroke-width:0.1;"/>
                <!-- Polyline -->
                <path d="M6035.9272,5666.6148 L5672.2268,6030.3152 L6076.3383,6434.4267 L6440.0387,6070.7263 Z" style="stroke:#000000;stroke-width:0.1;"/>
                <!-- Hatch -->
                <path d="M6440.0387,6070.7263 L6076.3383,6434.4267 L6021.3343,6379.4226 L6385.0346,6015.7222 ZM6385.0346,6015.7222 L6021.3343,6379.4226 L5672.2268,6030.3152 L6035.9272,5666.6148 Z" style="fill-rule:evenodd;"/>
                <!-- Hatch -->
                <path d="M6076.3383,6434.4267 A50.8,50.8 0 0 1 6014.6171,6426.587 L5681.2252,6093.1951 L5708.1659,6066.2543 ZM6432.1992,6009.0053 A50.8,50.8 0 0 1 6440.0387,6070.7263 L6071.8663,5702.5539 L6098.8071,5675.6131 L6432.1992,6009.0053" style="fill-rule:evenodd;"/>
            </g>
            <!-- Block Reference: chair_04_top_cad-block.com / entities: 8 -->
            <g>
                <!-- Line -->
                <path d="M6596.7487,4990.2492 L6596.7487,5504.5992 " style="stroke:#000000;stroke-width:0.1;"/>
                <!-- Arc -->
                <path d="M6625.3493,4952.1492 A50.8,50.8 0 0,1 6674.5362,4990.2492" style="stroke:#000000;stroke-width:0.1;"/>
                <!-- Arc -->
                <path d="M6674.5362,5504.5992 A50.8,50.8 0 0,1 6625.3493,5542.6992" style="stroke:#000000;stroke-width:0.1;"/>
                <!-- Polyline -->
                <path d="M6625.3493,5542.6992 L6153.8618,5542.6992 L6153.8618,5504.5992" style="stroke:#000000;stroke-width:0.1;"/>
                <!-- Polyline -->
                <path d="M6625.3493,4952.1492 L6153.8618,4952.1492 L6153.8618,4990.2492" style="stroke:#000000;stroke-width:0.1;"/>
                <!-- Polyline -->
                <path d="M6103.0362,4990.2492 L6103.0362,5504.5992 L6674.5362,5504.5992 L6674.5362,4990.2492 Z" style="stroke:#000000;stroke-width:0.1;"/>
                <!-- Hatch -->
                <path d="M6674.5362,4990.2492 L6674.5362,5504.5992 L6596.7487,5504.5992 L6596.7487,4990.2492 ZM6596.7487,4990.2492 L6596.7487,5504.5992 L6103.0362,5504.5992 L6103.0362,4990.2492 Z" style="fill-rule:evenodd;"/>
                <!-- Hatch -->
                <path d="M6674.5362,5504.5992 A50.8,50.8 0 0 1 6625.3492,5542.6992 L6153.8618,5542.6992 L6153.8618,5504.5992 ZM6625.3495,4952.1492 A50.8,50.8 0 0 1 6674.5362,4990.2492 L6153.8618,4990.2492 L6153.8618,4952.1492 L6625.3495,4952.1492" style="fill-rule:evenodd;"/>
            </g>
            <!-- Block Reference: chair_04_top_cad-block.com / entities: 8 -->
            <g>
                <!-- Line -->
                <path d="M6021.3343,4115.4258 L6385.0346,4479.1262 " style="stroke:#000000;stroke-width:0.1;"/>
                <!-- Arc -->
                <path d="M6014.6172,4068.2613 A50.8,50.8 0 0,1 6076.3383,4060.4217" style="stroke:#000000;stroke-width:0.1;"/>
                <!-- Arc -->
                <path d="M6440.0387,4424.1221 A50.8,50.8 0 0,1 6432.1991,4485.8433" style="stroke:#000000;stroke-width:0.1;"/>
                <!-- Polyline -->
                <path d="M6432.1991,4485.8433 L6098.8071,4819.2353 L6071.8663,4792.2945" style="stroke:#000000;stroke-width:0.1;"/>
                <!-- Polyline -->
                <path d="M6014.6172,4068.2613 L5681.2252,4401.6534 L5708.1659,4428.5941" style="stroke:#000000;stroke-width:0.1;"/>
                <!-- Polyline -->
                <path d="M5672.2268,4464.5333 L6035.9272,4828.2336 L6440.0387,4424.1221 L6076.3383,4060.4217 Z" style="stroke:#000000;stroke-width:0.1;"/>
                <!-- Hatch -->
                <path d="M6076.3383,4060.4217 L6440.0387,4424.1221 L6385.0346,4479.1262 L6021.3343,4115.4258 ZM6021.3343,4115.4258 L6385.0346,4479.1262 L6035.9272,4828.2336 L5672.2268,4464.5333 Z" style="fill-rule:evenodd;"/>
                <!-- Hatch -->
                <path d="M6440.0387,4424.1221 A50.8,50.8 0 0 1 6432.199,4485.8433 L6098.8071,4819.2353 L6071.8663,4792.2945 ZM6014.6173,4068.2612 A50.8,50.8 0 0 1 6076.3383,4060.4217 L5708.1659,4428.5941 L5681.2252,4401.6534 L6014.6173,4068.2612" style="fill-rule:evenodd;"/>
            </g>
            <!-- Block Reference: chair_04_top_cad-block.com / entities: 8 -->
            <g>
                <!-- Line -->
                <path d="M4995.8612,3903.7117 L5510.2112,3903.7117 " style="stroke:#000000;stroke-width:0.1;"/>
                <!-- Arc -->
                <path d="M4957.7612,3875.1111 A50.8,50.8 0 0,1 4995.8612,3825.9242" style="stroke:#000000;stroke-width:0.1;"/>
                <!-- Arc -->
                <path d="M5510.2112,3825.9242 A50.8,50.8 0 0,1 5548.3112,3875.1111" style="stroke:#000000;stroke-width:0.1;"/>
                <!-- Polyline -->
                <path d="M5548.3112,3875.1111 L5548.3112,4346.5986 L5510.2112,4346.5986" style="stroke:#000000;stroke-width:0.1;"/>
                <!-- Polyline -->
                <path d="M4957.7612,3875.1111 L4957.7612,4346.5986 L4995.8612,4346.5986" style="stroke:#000000;stroke-width:0.1;"/>
                <!-- Polyline -->
                <path d="M4995.8612,4397.4242 L5510.2112,4397.4242 L5510.2112,3825.9242 L4995.8612,3825.9242 Z" style="stroke:#000000;stroke-width:0.1;"/>
                <!-- Hatch -->
                <path d="M4995.8612,3825.9242 L5510.2112,3825.9242 L5510.2112,3903.7117 L4995.8612,3903.7117 ZM4995.8612,3903.7117 L5510.2112,3903.7117 L5510.2112,4397.4242 L4995.8612,4397.4242 Z" style="fill-rule:evenodd;"/>
                <!-- Hatch -->
                <path d="M5510.2112,3825.9242 A50.8,50.8 0 0 1 5548.3112,3875.1112 L5548.3112,4346.5986 L5510.2112,4346.5986 ZM4957.7612,3875.111 A50.8,50.8 0 0 1 4995.8612,3825.9242 L4995.8612,4346.5986 L4957.7612,4346.5986 L4957.7612,3875.111" style="fill-rule:evenodd;"/>
            </g>
            <!-- Block Reference: chair_04_top_cad-block.com / entities: 8 -->
            <g>
                <!-- Line -->
                <path d="M4121.0378,4479.1262 L4484.7382,4115.4258 " style="stroke:#000000;stroke-width:0.1;"/>
                <!-- Arc -->
                <path d="M4073.8734,4485.8433 A50.8,50.8 0 0,1 4066.0338,4424.1221" style="stroke:#000000;stroke-width:0.1;"/>
                <!-- Arc -->
                <path d="M4429.7341,4060.4217 A50.8,50.8 0 0,1 4491.4553,4068.2613" style="stroke:#000000;stroke-width:0.1;"/>
                <!-- Polyline -->
                <path d="M4491.4553,4068.2613 L4824.8473,4401.6534 L4797.9065,4428.5941" style="stroke:#000000;stroke-width:0.1;"/>
                <!-- Polyline -->
                <path d="M4073.8734,4485.8433 L4407.2654,4819.2353 L4434.2061,4792.2945" style="stroke:#000000;stroke-width:0.1;"/>
                <!-- Polyline -->
                <path d="M4470.1453,4828.2336 L4833.8457,4464.5333 L4429.7341,4060.4217 L4066.0338,4424.1221 Z" style="stroke:#000000;stroke-width:0.1;"/>
                <!-- Hatch -->
                <path d="M4066.0338,4424.1221 L4429.7341,4060.4217 L4484.7382,4115.4258 L4121.0378,4479.1262 ZM4121.0378,4479.1262 L4484.7382,4115.4258 L4833.8457,4464.5333 L4470.1453,4828.2336 Z" style="fill-rule:evenodd;"/>
                <!-- Hatch -->
                <path d="M4429.7341,4060.4217 A50.8,50.8 0 0 1 4491.4554,4068.2614 L4824.8473,4401.6534 L4797.9065,4428.5941 ZM4073.8733,4485.8432 A50.8,50.8 0 0 1 4066.0338,4424.1221 L4434.2061,4792.2945 L4407.2654,4819.2353 L4073.8733,4485.8432" style="fill-rule:evenodd;"/>
            </g>
            <!-- Block Reference: Table round R750_top_cad-block.com / entities: 2 -->
            <g>
                <!-- Hatch -->
                <path d="M6003.0362,5247.4242 A750,750 0 0 1 4503.0362,5247.4242 A750,750 0 0 1 6003.0362,5247.4242 Z" style="fill-rule:evenodd;"/>
                <!-- Circle -->
                <circle cx="5253.036230187659" cy="5247.424205933545" r="750" style="stroke:#000000;stroke-width:0.1;"/>
            </g>
            <!-- Block Reference: chair_04_top_cad-block.com / entities: 8 -->
            <g>
                <!-- Line -->
                <path d="M7709.3237,5504.5992 L7709.3237,4990.2492 " style="stroke:#000000;stroke-width:0.1;"/>
                <!-- Arc -->
                <path d="M7680.7231,5542.6992 A50.8,50.8 0 0,1 7631.5362,5504.5992" style="stroke:#000000;stroke-width:0.1;"/>
                <!-- Arc -->
                <path d="M7631.5362,4990.2492 A50.8,50.8 0 0,1 7680.7231,4952.1492" style="stroke:#000000;stroke-width:0.1;"/>
                <!-- Polyline -->
                <path d="M7680.7231,4952.1492 L8152.2106,4952.1492 L8152.2106,4990.2492" style="stroke:#000000;stroke-width:0.1;"/>
                <!-- Polyline -->
                <path d="M7680.7231,5542.6992 L8152.2106,5542.6992 L8152.2106,5504.5992" style="stroke:#000000;stroke-width:0.1;"/>
                <!-- Polyline -->
                <path d="M8203.0362,5504.5992 L8203.0362,4990.2492 L7631.5362,4990.2492 L7631.5362,5504.5992 Z" style="stroke:#000000;stroke-width:0.1;"/>
                <!-- Hatch -->
                <path d="M7631.5362,5504.5992 L7631.5362,4990.2492 L7709.3237,4990.2492 L7709.3237,5504.5992 ZM7709.3237,5504.5992 L7709.3237,4990.2492 L8203.0362,4990.2492 L8203.0362,5504.5992 Z" style="fill-rule:evenodd;"/>
                <!-- Hatch -->
                <path d="M7631.5362,4990.2492 A50.8,50.8 0 0 1 7680.7233,4952.1492 L8152.2106,4952.1492 L8152.2106,4990.2492 ZM7680.723,5542.6992 A50.8,50.8 0 0 1 7631.5362,5504.5992 L8152.2106,5504.5992 L8152.2106,5542.6992 L7680.723,5542.6992" style="fill-rule:evenodd;"/>
            </g>
            <!-- Block Reference: chair_04_top_cad-block.com / entities: 8 -->
            <g>
                <!-- Line -->
                <path d="M8284.7382,6379.4226 L7921.0378,6015.7222 " style="stroke:#000000;stroke-width:0.1;"/>
                <!-- Arc -->
                <path d="M8291.4553,6426.5871 A50.8,50.8 0 0,1 8229.7341,6434.4267" style="stroke:#000000;stroke-width:0.1;"/>
                <!-- Arc -->
                <path d="M7866.0338,6070.7263 A50.8,50.8 0 0,1 7873.8734,6009.0052" style="stroke:#000000;stroke-width:0.1;"/>
                <!-- Polyline -->
                <path d="M7873.8734,6009.0052 L8207.2654,5675.6131 L8234.2061,5702.5539" style="stroke:#000000;stroke-width:0.1;"/>
                <!-- Polyline -->
                <path d="M8291.4553,6426.5871 L8624.8473,6093.1951 L8597.9065,6066.2543" style="stroke:#000000;stroke-width:0.1;"/>
                <!-- Polyline -->
                <path d="M8633.8457,6030.3152 L8270.1453,5666.6148 L7866.0338,6070.7263 L8229.7341,6434.4267 Z" style="stroke:#000000;stroke-width:0.1;"/>
                <!-- Hatch -->
                <path d="M8229.7341,6434.4267 L7866.0338,6070.7263 L7921.0378,6015.7222 L8284.7382,6379.4226 ZM8284.7382,6379.4226 L7921.0378,6015.7222 L8270.1453,5666.6148 L8633.8457,6030.3152 Z" style="fill-rule:evenodd;"/>
                <!-- Hatch -->
                <path d="M7866.0338,6070.7263 A50.8,50.8 0 0 1 7873.8735,6009.0051 L8207.2654,5675.6131 L8234.2061,5702.5539 ZM8291.4552,6426.5872 A50.8,50.8 0 0 1 8229.7341,6434.4267 L8597.9065,6066.2543 L8624.8473,6093.1951 L8291.4552,6426.5872" style="fill-rule:evenodd;"/>
            </g>
            <!-- Block Reference: chair_04_top_cad-block.com / entities: 8 -->
            <g>
                <!-- Line -->
                <path d="M9310.2112,6591.1367 L8795.8612,6591.1367 " style="stroke:#000000;stroke-width:0.1;"/>
                <!-- Arc -->
                <path d="M9348.3112,6619.7373 A50.8,50.8 0 0,1 9310.2112,6668.9242" style="stroke:#000000;stroke-width:0.1;"/>
                <!-- Arc -->
                <path d="M8795.8612,6668.9242 A50.8,50.8 0 0,1 8757.7612,6619.7373" style="stroke:#000000;stroke-width:0.1;"/>
                <!-- Polyline -->
                <path d="M8757.7612,6619.7373 L8757.7612,6148.2498 L8795.8612,6148.2498" style="stroke:#000000;stroke-width:0.1;"/>
                <!-- Polyline -->
                <path d="M9348.3112,6619.7373 L9348.3112,6148.2498 L9310.2112,6148.2498" style="stroke:#000000;stroke-width:0.1;"/>
                <!-- Polyline -->
                <path d="M9310.2112,6097.4242 L8795.8612,6097.4242 L8795.8612,6668.9242 L9310.2112,6668.9242 Z" style="stroke:#000000;stroke-width:0.1;"/>
                <!-- Hatch -->
                <path d="M9310.2112,6668.9242 L8795.8612,6668.9242 L8795.8612,6591.1367 L9310.2112,6591.1367 ZM9310.2112,6591.1367 L8795.8612,6591.1367 L8795.8612,6097.4242 L9310.2112,6097.4242 Z" style="fill-rule:evenodd;"/>
                <!-- Hatch -->
                <path d="M8795.8612,6668.9242 A50.8,50.8 0 0 1 8757.7612,6619.7372 L8757.7612,6148.2498 L8795.8612,6148.2498 ZM9348.3112,6619.7375 A50.8,50.8 0 0 1 9310.2112,6668.9242 L9310.2112,6148.2498 L9348.3112,6148.2498 L9348.3112,6619.7375" style="fill-rule:evenodd;"/>
            </g>
            <!-- Block Reference: chair_04_top_cad-block.com / entities: 8 -->
            <g>
                <!-- Line -->
                <path d="M10185.0346,6015.7222 L9821.3343,6379.4226 " style="stroke:#000000;stroke-width:0.1;"/>
                <!-- Arc -->
                <path d="M10232.1991,6009.0052 A50.8,50.8 0 0,1 10240.0387,6070.7263" style="stroke:#000000;stroke-width:0.1;"/>
                <!-- Arc -->
                <path d="M9876.3383,6434.4267 A50.8,50.8 0 0,1 9814.6172,6426.5871" style="stroke:#000000;stroke-width:0.1;"/>
                <!-- Polyline -->
                <path d="M9814.6172,6426.5871 L9481.2252,6093.1951 L9508.1659,6066.2543" style="stroke:#000000;stroke-width:0.1;"/>
                <!-- Polyline -->
                <path d="M10232.1991,6009.0052 L9898.8071,5675.6131 L9871.8663,5702.5539" style="stroke:#000000;stroke-width:0.1;"/>
                <!-- Polyline -->
                <path d="M9835.9272,5666.6148 L9472.2268,6030.3152 L9876.3383,6434.4267 L10240.0387,6070.7263 Z" style="stroke:#000000;stroke-width:0.1;"/>
                <!-- Hatch -->
                <path d="M10240.0387,6070.7263 L9876.3383,6434.4267 L9821.3343,6379.4226 L10185.0346,6015.7222 ZM10185.0346,6015.7222 L9821.3343,6379.4226 L9472.2268,6030.3152 L9835.9272,5666.6148 Z" style="fill-rule:evenodd;"/>
                <!-- Hatch -->
                <path d="M9876.3383,6434.4267 A50.8,50.8 0 0 1 9814.6171,6426.587 L9481.2252,6093.1951 L9508.1659,6066.2543 ZM10232.1992,6009.0053 A50.8,50.8 0 0 1 10240.0387,6070.7263 L9871.8663,5702.5539 L9898.8071,5675.6131 L10232.1992,6009.0053" style="fill-rule:evenodd;"/>
            </g>
            <!-- Block Reference: chair_04_top_cad-block.com / entities: 8 -->
            <g>
                <!-- Line -->
                <path d="M10396.7487,4990.2492 L10396.7487,5504.5992 " style="stroke:#000000;stroke-width:0.1;"/>
                <!-- Arc -->
                <path d="M10425.3493,4952.1492 A50.8,50.8 0 0,1 10474.5362,4990.2492" style="stroke:#000000;stroke-width:0.1;"/>
                <!-- Arc -->
                <path d="M10474.5362,5504.5992 A50.8,50.8 0 0,1 10425.3493,5542.6992" style="stroke:#000000;stroke-width:0.1;"/>
                <!-- Polyline -->
                <path d="M10425.3493,5542.6992 L9953.8618,5542.6992 L9953.8618,5504.5992" style="stroke:#000000;stroke-width:0.1;"/>
                <!-- Polyline -->
                <path d="M10425.3493,4952.1492 L9953.8618,4952.1492 L9953.8618,4990.2492" style="stroke:#000000;stroke-width:0.1;"/>
                <!-- Polyline -->
                <path d="M9903.0362,4990.2492 L9903.0362,5504.5992 L10474.5362,5504.5992 L10474.5362,4990.2492 Z" style="stroke:#000000;stroke-width:0.1;"/>
                <!-- Hatch -->
                <path d="M10474.5362,4990.2492 L10474.5362,5504.5992 L10396.7487,5504.5992 L10396.7487,4990.2492 ZM10396.7487,4990.2492 L10396.7487,5504.5992 L9903.0362,5504.5992 L9903.0362,4990.2492 Z" style="fill-rule:evenodd;"/>
                <!-- Hatch -->
                <path d="M10474.5362,5504.5992 A50.8,50.8 0 0 1 10425.3492,5542.6992 L9953.8618,5542.6992 L9953.8618,5504.5992 ZM10425.3495,4952.1492 A50.8,50.8 0 0 1 10474.5362,4990.2492 L9953.8618,4990.2492 L9953.8618,4952.1492 L10425.3495,4952.1492" style="fill-rule:evenodd;"/>
            </g>
            <!-- Block Reference: chair_04_top_cad-block.com / entities: 8 -->
            <g>
                <!-- Line -->
                <path d="M9821.3343,4115.4258 L10185.0346,4479.1262 " style="stroke:#000000;stroke-width:0.1;"/>
                <!-- Arc -->
                <path d="M9814.6172,4068.2613 A50.8,50.8 0 0,1 9876.3383,4060.4217" style="stroke:#000000;stroke-width:0.1;"/>
                <!-- Arc -->
                <path d="M10240.0387,4424.1221 A50.8,50.8 0 0,1 10232.1991,4485.8433" style="stroke:#000000;stroke-width:0.1;"/>
                <!-- Polyline -->
                <path d="M10232.1991,4485.8433 L9898.8071,4819.2353 L9871.8663,4792.2945" style="stroke:#000000;stroke-width:0.1;"/>
                <!-- Polyline -->
                <path d="M9814.6172,4068.2613 L9481.2252,4401.6534 L9508.1659,4428.5941" style="stroke:#000000;stroke-width:0.1;"/>
                <!-- Polyline -->
                <path d="M9472.2268,4464.5333 L9835.9272,4828.2336 L10240.0387,4424.1221 L9876.3383,4060.4217 Z" style="stroke:#000000;stroke-width:0.1;"/>
                <!-- Hatch -->
                <path d="M9876.3383,4060.4217 L10240.0387,4424.1221 L10185.0346,4479.1262 L9821.3343,4115.4258 ZM9821.3343,4115.4258 L10185.0346,4479.1262 L9835.9272,4828.2336 L9472.2268,4464.5333 Z" style="fill-rule:evenodd;"/>
                <!-- Hatch -->
                <path d="M10240.0387,4424.1221 A50.8,50.8 0 0 1 10232.199,4485.8433 L9898.8071,4819.2353 L9871.8663,4792.2945 ZM9814.6173,4068.2612 A50.8,50.8 0 0 1 9876.3383,4060.4217 L9508.1659,4428.5941 L9481.2252,4401.6534 L9814.6173,4068.2612" style="fill-rule:evenodd;"/>
            </g>
            <!-- Block Reference: chair_04_top_cad-block.com / entities: 8 -->
            <g>
                <!-- Line -->
                <path d="M8795.8612,3903.7117 L9310.2112,3903.7117 " style="stroke:#000000;stroke-width:0.1;"/>
                <!-- Arc -->
                <path d="M8757.7612,3875.1111 A50.8,50.8 0 0,1 8795.8612,3825.9242" style="stroke:#000000;stroke-width:0.1;"/>
                <!-- Arc -->
                <path d="M9310.2112,3825.9242 A50.8,50.8 0 0,1 9348.3112,3875.1111" style="stroke:#000000;stroke-width:0.1;"/>
                <!-- Polyline -->
                <path d="M9348.3112,3875.1111 L9348.3112,4346.5986 L9310.2112,4346.5986" style="stroke:#000000;stroke-width:0.1;"/>
                <!-- Polyline -->
                <path d="M8757.7612,3875.1111 L8757.7612,4346.5986 L8795.8612,4346.5986" style="stroke:#000000;stroke-width:0.1;"/>
                <!-- Polyline -->
                <path d="M8795.8612,4397.4242 L9310.2112,4397.4242 L9310.2112,3825.9242 L8795.8612,3825.9242 Z" style="stroke:#000000;stroke-width:0.1;"/>
                <!-- Hatch -->
                <path d="M8795.8612,3825.9242 L9310.2112,3825.9242 L9310.2112,3903.7117 L8795.8612,3903.7117 ZM8795.8612,3903.7117 L9310.2112,3903.7117 L9310.2112,4397.4242 L8795.8612,4397.4242 Z" style="fill-rule:evenodd;"/>
                <!-- Hatch -->
                <path d="M9310.2112,3825.9242 A50.8,50.8 0 0 1 9348.3112,3875.1112 L9348.3112,4346.5986 L9310.2112,4346.5986 ZM8757.7612,3875.111 A50.8,50.8 0 0 1 8795.8612,3825.9242 L8795.8612,4346.5986 L8757.7612,4346.5986 L8757.7612,3875.111" style="fill-rule:evenodd;"/>
            </g>
            <!-- Block Reference: chair_04_top_cad-block.com / entities: 8 -->
            <g>
                <!-- Line -->
                <path d="M7921.0378,4479.1262 L8284.7382,4115.4258 " style="stroke:#000000;stroke-width:0.1;"/>
                <!-- Arc -->
                <path d="M7873.8734,4485.8433 A50.8,50.8 0 0,1 7866.0338,4424.1221" style="stroke:#000000;stroke-width:0.1;"/>
                <!-- Arc -->
                <path d="M8229.7341,4060.4217 A50.8,50.8 0 0,1 8291.4553,4068.2613" style="stroke:#000000;stroke-width:0.1;"/>
                <!-- Polyline -->
                <path d="M8291.4553,4068.2613 L8624.8473,4401.6534 L8597.9065,4428.5941" style="stroke:#000000;stroke-width:0.1;"/>
                <!-- Polyline -->
                <path d="M7873.8734,4485.8433 L8207.2654,4819.2353 L8234.2061,4792.2945" style="stroke:#000000;stroke-width:0.1;"/>
                <!-- Polyline -->
                <path d="M8270.1453,4828.2336 L8633.8457,4464.5333 L8229.7341,4060.4217 L7866.0338,4424.1221 Z" style="stroke:#000000;stroke-width:0.1;"/>
                <!-- Hatch -->
                <path d="M7866.0338,4424.1221 L8229.7341,4060.4217 L8284.7382,4115.4258 L7921.0378,4479.1262 ZM7921.0378,4479.1262 L8284.7382,4115.4258 L8633.8457,4464.5333 L8270.1453,4828.2336 Z" style="fill-rule:evenodd;"/>
                <!-- Hatch -->
                <path d="M8229.7341,4060.4217 A50.8,50.8 0 0 1 8291.4554,4068.2614 L8624.8473,4401.6534 L8597.9065,4428.5941 ZM7873.8733,4485.8432 A50.8,50.8 0 0 1 7866.0338,4424.1221 L8234.2061,4792.2945 L8207.2654,4819.2353 L7873.8733,4485.8432" style="fill-rule:evenodd;"/>
            </g>
            <!-- Block Reference: Table round R750_top_cad-block.com / entities: 2 -->
            <g>
                <!-- Hatch -->
                <path d="M9803.0362,5247.4242 A750,750 0 0 1 8303.0362,5247.4242 A750,750 0 0 1 9803.0362,5247.4242 Z" style="fill-rule:evenodd;"/>
                <!-- Circle -->
                <circle cx="9053.03623018766" cy="5247.424205933545" r="750" style="stroke:#000000;stroke-width:0.1;"/>
            </g>
            <!-- Block Reference: chair_04_top_cad-block.com / entities: 8 -->
            <g>
                <!-- Line -->
                <path d="M5809.3237,1704.5992 L5809.3237,1190.2492 " style="stroke:#000000;stroke-width:0.1;"/>
                <!-- Arc -->
                <path d="M5780.7231,1742.6992 A50.8,50.8 0 0,1 5731.5362,1704.5992" style="stroke:#000000;stroke-width:0.1;"/>
                <!-- Arc -->
                <path d="M5731.5362,1190.2492 A50.8,50.8 0 0,1 5780.7231,1152.1492" style="stroke:#000000;stroke-width:0.1;"/>
                <!-- Polyline -->
                <path d="M5780.7231,1152.1492 L6252.2106,1152.1492 L6252.2106,1190.2492" style="stroke:#000000;stroke-width:0.1;"/>
                <!-- Polyline -->
                <path d="M5780.7231,1742.6992 L6252.2106,1742.6992 L6252.2106,1704.5992" style="stroke:#000000;stroke-width:0.1;"/>
                <!-- Polyline -->
                <path d="M6303.0362,1704.5992 L6303.0362,1190.2492 L5731.5362,1190.2492 L5731.5362,1704.5992 Z" style="stroke:#000000;stroke-width:0.1;"/>
                <!-- Hatch -->
                <path d="M5731.5362,1704.5992 L5731.5362,1190.2492 L5809.3237,1190.2492 L5809.3237,1704.5992 ZM5809.3237,1704.5992 L5809.3237,1190.2492 L6303.0362,1190.2492 L6303.0362,1704.5992 Z" style="fill-rule:evenodd;"/>
                <!-- Hatch -->
                <path d="M5731.5362,1190.2492 A50.8,50.8 0 0 1 5780.7233,1152.1492 L6252.2106,1152.1492 L6252.2106,1190.2492 ZM5780.723,1742.6992 A50.8,50.8 0 0 1 5731.5362,1704.5992 L6252.2106,1704.5992 L6252.2106,1742.6992 L5780.723,1742.6992" style="fill-rule:evenodd;"/>
            </g>
            <!-- Block Reference: chair_04_top_cad-block.com / entities: 8 -->
            <g>
                <!-- Line -->
                <path d="M6384.7382,2579.4226 L6021.0378,2215.7222 " style="stroke:#000000;stroke-width:0.1;"/>
                <!-- Arc -->
                <path d="M6391.4553,2626.5871 A50.8,50.8 0 0,1 6329.7341,2634.4267" style="stroke:#000000;stroke-width:0.1;"/>
                <!-- Arc -->
                <path d="M5966.0338,2270.7263 A50.8,50.8 0 0,1 5973.8734,2209.0052" style="stroke:#000000;stroke-width:0.1;"/>
                <!-- Polyline -->
                <path d="M5973.8734,2209.0052 L6307.2654,1875.6131 L6334.2061,1902.5539" style="stroke:#000000;stroke-width:0.1;"/>
                <!-- Polyline -->
                <path d="M6391.4553,2626.5871 L6724.8473,2293.1951 L6697.9065,2266.2543" style="stroke:#000000;stroke-width:0.1;"/>
                <!-- Polyline -->
                <path d="M6733.8457,2230.3152 L6370.1453,1866.6148 L5966.0338,2270.7263 L6329.7341,2634.4267 Z" style="stroke:#000000;stroke-width:0.1;"/>
                <!-- Hatch -->
                <path d="M6329.7341,2634.4267 L5966.0338,2270.7263 L6021.0378,2215.7222 L6384.7382,2579.4226 ZM6384.7382,2579.4226 L6021.0378,2215.7222 L6370.1453,1866.6148 L6733.8457,2230.3152 Z" style="fill-rule:evenodd;"/>
                <!-- Hatch -->
                <path d="M5966.0338,2270.7263 A50.8,50.8 0 0 1 5973.8735,2209.0051 L6307.2654,1875.6131 L6334.2061,1902.5539 ZM6391.4552,2626.5872 A50.8,50.8 0 0 1 6329.7341,2634.4267 L6697.9065,2266.2543 L6724.8473,2293.1951 L6391.4552,2626.5872" style="fill-rule:evenodd;"/>
            </g>
            <!-- Block Reference: chair_04_top_cad-block.com / entities: 8 -->
            <g>
                <!-- Line -->
                <path d="M7410.2112,2791.1367 L6895.8612,2791.1367 " style="stroke:#000000;stroke-width:0.1;"/>
                <!-- Arc -->
                <path d="M7448.3112,2819.7373 A50.8,50.8 0 0,1 7410.2112,2868.9242" style="stroke:#000000;stroke-width:0.1;"/>
                <!-- Arc -->
                <path d="M6895.8612,2868.9242 A50.8,50.8 0 0,1 6857.7612,2819.7373" style="stroke:#000000;stroke-width:0.1;"/>
                <!-- Polyline -->
                <path d="M6857.7612,2819.7373 L6857.7612,2348.2498 L6895.8612,2348.2498" style="stroke:#000000;stroke-width:0.1;"/>
                <!-- Polyline -->
                <path d="M7448.3112,2819.7373 L7448.3112,2348.2498 L7410.2112,2348.2498" style="stroke:#000000;stroke-width:0.1;"/>
                <!-- Polyline -->
                <path d="M7410.2112,2297.4242 L6895.8612,2297.4242 L6895.8612,2868.9242 L7410.2112,2868.9242 Z" style="stroke:#000000;stroke-width:0.1;"/>
                <!-- Hatch -->
                <path d="M7410.2112,2868.9242 L6895.8612,2868.9242 L6895.8612,2791.1367 L7410.2112,2791.1367 ZM7410.2112,2791.1367 L6895.8612,2791.1367 L6895.8612,2297.4242 L7410.2112,2297.4242 Z" style="fill-rule:evenodd;"/>
                <!-- Hatch -->
                <path d="M6895.8612,2868.9242 A50.8,50.8 0 0 1 6857.7612,2819.7372 L6857.7612,2348.2498 L6895.8612,2348.2498 ZM7448.3112,2819.7375 A50.8,50.8 0 0 1 7410.2112,2868.9242 L7410.2112,2348.2498 L7448.3112,2348.2498 L7448.3112,2819.7375" style="fill-rule:evenodd;"/>
            </g>
            <!-- Block Reference: chair_04_top_cad-block.com / entities: 8 -->
            <g>
                <!-- Line -->
                <path d="M8285.0346,2215.7222 L7921.3343,2579.4226 " style="stroke:#000000;stroke-width:0.1;"/>
                <!-- Arc -->
                <path d="M8332.1991,2209.0052 A50.8,50.8 0 0,1 8340.0387,2270.7263" style="stroke:#000000;stroke-width:0.1;"/>
                <!-- Arc -->
                <path d="M7976.3383,2634.4267 A50.8,50.8 0 0,1 7914.6172,2626.5871" style="stroke:#000000;stroke-width:0.1;"/>
                <!-- Polyline -->
                <path d="M7914.6172,2626.5871 L7581.2252,2293.1951 L7608.1659,2266.2543" style="stroke:#000000;stroke-width:0.1;"/>
                <!-- Polyline -->
                <path d="M8332.1991,2209.0052 L7998.8071,1875.6131 L7971.8663,1902.5539" style="stroke:#000000;stroke-width:0.1;"/>
                <!-- Polyline -->
                <path d="M7935.9272,1866.6148 L7572.2268,2230.3152 L7976.3383,2634.4267 L8340.0387,2270.7263 Z" style="stroke:#000000;stroke-width:0.1;"/>
                <!-- Hatch -->
                <path d="M8340.0387,2270.7263 L7976.3383,2634.4267 L7921.3343,2579.4226 L8285.0346,2215.7222 ZM8285.0346,2215.7222 L7921.3343,2579.4226 L7572.2268,2230.3152 L7935.9272,1866.6148 Z" style="fill-rule:evenodd;"/>
                <!-- Hatch -->
                <path d="M7976.3383,2634.4267 A50.8,50.8 0 0 1 7914.6171,2626.587 L7581.2252,2293.1951 L7608.1659,2266.2543 ZM8332.1992,2209.0053 A50.8,50.8 0 0 1 8340.0387,2270.7263 L7971.8663,1902.5539 L7998.8071,1875.6131 L8332.1992,2209.0053" style="fill-rule:evenodd;"/>
            </g>
            <!-- Block Reference: chair_04_top_cad-block.com / entities: 8 -->
            <g>
                <!-- Line -->
                <path d="M8496.7487,1190.2492 L8496.7487,1704.5992 " style="stroke:#000000;stroke-width:0.1;"/>
                <!-- Arc -->
                <path d="M8525.3493,1152.1492 A50.8,50.8 0 0,1 8574.5362,1190.2492" style="stroke:#000000;stroke-width:0.1;"/>
                <!-- Arc -->
                <path d="M8574.5362,1704.5992 A50.8,50.8 0 0,1 8525.3493,1742.6992" style="stroke:#000000;stroke-width:0.1;"/>
                <!-- Polyline -->
                <path d="M8525.3493,1742.6992 L8053.8618,1742.6992 L8053.8618,1704.5992" style="stroke:#000000;stroke-width:0.1;"/>
                <!-- Polyline -->
                <path d="M8525.3493,1152.1492 L8053.8618,1152.1492 L8053.8618,1190.2492" style="stroke:#000000;stroke-width:0.1;"/>
                <!-- Polyline -->
                <path d="M8003.0362,1190.2492 L8003.0362,1704.5992 L8574.5362,1704.5992 L8574.5362,1190.2492 Z" style="stroke:#000000;stroke-width:0.1;"/>
                <!-- Hatch -->
                <path d="M8574.5362,1190.2492 L8574.5362,1704.5992 L8496.7487,1704.5992 L8496.7487,1190.2492 ZM8496.7487,1190.2492 L8496.7487,1704.5992 L8003.0362,1704.5992 L8003.0362,1190.2492 Z" style="fill-rule:evenodd;"/>
                <!-- Hatch -->
                <path d="M8574.5362,1704.5992 A50.8,50.8 0 0 1 8525.3492,1742.6992 L8053.8618,1742.6992 L8053.8618,1704.5992 ZM8525.3495,1152.1492 A50.8,50.8 0 0 1 8574.5362,1190.2492 L8053.8618,1190.2492 L8053.8618,1152.1492 L8525.3495,1152.1492" style="fill-rule:evenodd;"/>
            </g>
            <!-- Block Reference: chair_04_top_cad-block.com / entities: 8 -->
            <g>
                <!-- Line -->
                <path d="M7921.3343,315.4258 L8285.0346,679.1262 " style="stroke:#000000;stroke-width:0.1;"/>
                <!-- Arc -->
                <path d="M7914.6172,268.2613 A50.8,50.8 0 0,1 7976.3383,260.4217" style="stroke:#000000;stroke-width:0.1;"/>
                <!-- Arc -->
                <path d="M8340.0387,624.1221 A50.8,50.8 0 0,1 8332.1991,685.8433" style="stroke:#000000;stroke-width:0.1;"/>
                <!-- Polyline -->
                <path d="M8332.1991,685.8433 L7998.8071,1019.2353 L7971.8663,992.2945" style="stroke:#000000;stroke-width:0.1;"/>
                <!-- Polyline -->
                <path d="M7914.6172,268.2613 L7581.2252,601.6534 L7608.1659,628.5941" style="stroke:#000000;stroke-width:0.1;"/>
                <!-- Polyline -->
                <path d="M7572.2268,664.5333 L7935.9272,1028.2336 L8340.0387,624.1221 L7976.3383,260.4217 Z" style="stroke:#000000;stroke-width:0.1;"/>
                <!-- Hatch -->
                <path d="M7976.3383,260.4217 L8340.0387,624.1221 L8285.0346,679.1262 L7921.3343,315.4258 ZM7921.3343,315.4258 L8285.0346,679.1262 L7935.9272,1028.2336 L7572.2268,664.5333 Z" style="fill-rule:evenodd;"/>
                <!-- Hatch -->
                <path d="M8340.0387,624.1221 A50.8,50.8 0 0 1 8332.199,685.8433 L7998.8071,1019.2353 L7971.8663,992.2945 ZM7914.6173,268.2612 A50.8,50.8 0 0 1 7976.3383,260.4217 L7608.1659,628.5941 L7581.2252,601.6534 L7914.6173,268.2612" style="fill-rule:evenodd;"/>
            </g>
            <!-- Block Reference: chair_04_top_cad-block.com / entities: 8 -->
            <g>
                <!-- Line -->
                <path d="M6895.8612,103.7117 L7410.2112,103.7117 " style="stroke:#000000;stroke-width:0.1;"/>
                <!-- Arc -->
                <path d="M6857.7612,75.1111 A50.8,50.8 0 0,1 6895.8612,25.9242" style="stroke:#000000;stroke-width:0.1;"/>
                <!-- Arc -->
                <path d="M7410.2112,25.9242 A50.8,50.8 0 0,1 7448.3112,75.1111" style="stroke:#000000;stroke-width:0.1;"/>
                <!-- Polyline -->
                <path d="M7448.3112,75.1111 L7448.3112,546.5986 L7410.2112,546.5986" style="stroke:#000000;stroke-width:0.1;"/>
                <!-- Polyline -->
                <path d="M6857.7612,75.1111 L6857.7612,546.5986 L6895.8612,546.5986" style="stroke:#000000;stroke-width:0.1;"/>
                <!-- Polyline -->
                <path d="M6895.8612,597.4242 L7410.2112,597.4242 L7410.2112,25.9242 L6895.8612,25.9242 Z" style="stroke:#000000;stroke-width:0.1;"/>
                <!-- Hatch -->
                <path d="M6895.8612,25.9242 L7410.2112,25.9242 L7410.2112,103.7117 L6895.8612,103.7117 ZM6895.8612,103.7117 L7410.2112,103.7117 L7410.2112,597.4242 L6895.8612,597.4242 Z" style="fill-rule:evenodd;"/>
                <!-- Hatch -->
                <path d="M7410.2112,25.9242 A50.8,50.8 0 0 1 7448.3112,75.1112 L7448.3112,546.5986 L7410.2112,546.5986 ZM6857.7612,75.111 A50.8,50.8 0 0 1 6895.8612,25.9242 L6895.8612,546.5986 L6857.7612,546.5986 L6857.7612,75.111" style="fill-rule:evenodd;"/>
            </g>
            <!-- Block Reference: chair_04_top_cad-block.com / entities: 8 -->
            <g>
                <!-- Line -->
                <path d="M6021.0378,679.1262 L6384.7382,315.4258 " style="stroke:#000000;stroke-width:0.1;"/>
                <!-- Arc -->
                <path d="M5973.8734,685.8433 A50.8,50.8 0 0,1 5966.0338,624.1221" style="stroke:#000000;stroke-width:0.1;"/>
                <!-- Arc -->
                <path d="M6329.7341,260.4217 A50.8,50.8 0 0,1 6391.4553,268.2613" style="stroke:#000000;stroke-width:0.1;"/>
                <!-- Polyline -->
                <path d="M6391.4553,268.2613 L6724.8473,601.6534 L6697.9065,628.5941" style="stroke:#000000;stroke-width:0.1;"/>
                <!-- Polyline -->
                <path d="M5973.8734,685.8433 L6307.2654,1019.2353 L6334.2061,992.2945" style="stroke:#000000;stroke-width:0.1;"/>
                <!-- Polyline -->
                <path d="M6370.1453,1028.2336 L6733.8457,664.5333 L6329.7341,260.4217 L5966.0338,624.1221 Z" style="stroke:#000000;stroke-width:0.1;"/>
                <!-- Hatch -->
                <path d="M5966.0338,624.1221 L6329.7341,260.4217 L6384.7382,315.4258 L6021.0378,679.1262 ZM6021.0378,679.1262 L6384.7382,315.4258 L6733.8457,664.5333 L6370.1453,1028.2336 Z" style="fill-rule:evenodd;"/>
                <!-- Hatch -->
                <path d="M6329.7341,260.4217 A50.8,50.8 0 0 1 6391.4554,268.2614 L6724.8473,601.6534 L6697.9065,628.5941 ZM5973.8733,685.8432 A50.8,50.8 0 0 1 5966.0338,624.1221 L6334.2061,992.2945 L6307.2654,1019.2353 L5973.8733,685.8432" style="fill-rule:evenodd;"/>
            </g>
            <!-- Block Reference: Table round R750_top_cad-block.com / entities: 2 -->
            <g>
                <!-- Hatch -->
                <path d="M7903.0362,1447.4242 A750,750 0 0 1 6403.0362,1447.4242 A750,750 0 0 1 7903.0362,1447.4242 Z" style="fill-rule:evenodd;"/>
                <!-- Circle -->
                <circle cx="7153.036230187659" cy="1447.4242059335447" r="750" style="stroke:#000000;stroke-width:0.1;"/>
            </g>
            <!-- Block Reference: chair_04_top_cad-block.com / entities: 8 -->
            <g>
                <!-- Line -->
                <path d="M2009.3237,1704.5992 L2009.3237,1190.2492 " style="stroke:#000000;stroke-width:0.1;"/>
                <!-- Arc -->
                <path d="M1980.7231,1742.6992 A50.8,50.8 0 0,1 1931.5362,1704.5992" style="stroke:#000000;stroke-width:0.1;"/>
                <!-- Arc -->
                <path d="M1931.5362,1190.2492 A50.8,50.8 0 0,1 1980.7231,1152.1492" style="stroke:#000000;stroke-width:0.1;"/>
                <!-- Polyline -->
                <path d="M1980.7231,1152.1492 L2452.2106,1152.1492 L2452.2106,1190.2492" style="stroke:#000000;stroke-width:0.1;"/>
                <!-- Polyline -->
                <path d="M1980.7231,1742.6992 L2452.2106,1742.6992 L2452.2106,1704.5992" style="stroke:#000000;stroke-width:0.1;"/>
                <!-- Polyline -->
                <path d="M2503.0362,1704.5992 L2503.0362,1190.2492 L1931.5362,1190.2492 L1931.5362,1704.5992 Z" style="stroke:#000000;stroke-width:0.1;"/>
                <!-- Hatch -->
                <path d="M1931.5362,1704.5992 L1931.5362,1190.2492 L2009.3237,1190.2492 L2009.3237,1704.5992 ZM2009.3237,1704.5992 L2009.3237,1190.2492 L2503.0362,1190.2492 L2503.0362,1704.5992 Z" style="fill-rule:evenodd;"/>
                <!-- Hatch -->
                <path d="M1931.5362,1190.2492 A50.8,50.8 0 0 1 1980.7233,1152.1492 L2452.2106,1152.1492 L2452.2106,1190.2492 ZM1980.723,1742.6992 A50.8,50.8 0 0 1 1931.5362,1704.5992 L2452.2106,1704.5992 L2452.2106,1742.6992 L1980.723,1742.6992" style="fill-rule:evenodd;"/>
            </g>
            <!-- Block Reference: chair_04_top_cad-block.com / entities: 8 -->
            <g>
                <!-- Line -->
                <path d="M2584.7382,2579.4226 L2221.0378,2215.7222 " style="stroke:#000000;stroke-width:0.1;"/>
                <!-- Arc -->
                <path d="M2591.4553,2626.5871 A50.8,50.8 0 0,1 2529.7341,2634.4267" style="stroke:#000000;stroke-width:0.1;"/>
                <!-- Arc -->
                <path d="M2166.0338,2270.7263 A50.8,50.8 0 0,1 2173.8734,2209.0052" style="stroke:#000000;stroke-width:0.1;"/>
                <!-- Polyline -->
                <path d="M2173.8734,2209.0052 L2507.2654,1875.6131 L2534.2061,1902.5539" style="stroke:#000000;stroke-width:0.1;"/>
                <!-- Polyline -->
                <path d="M2591.4553,2626.5871 L2924.8473,2293.1951 L2897.9065,2266.2543" style="stroke:#000000;stroke-width:0.1;"/>
                <!-- Polyline -->
                <path d="M2933.8457,2230.3152 L2570.1453,1866.6148 L2166.0338,2270.7263 L2529.7341,2634.4267 Z" style="stroke:#000000;stroke-width:0.1;"/>
                <!-- Hatch -->
                <path d="M2529.7341,2634.4267 L2166.0338,2270.7263 L2221.0378,2215.7222 L2584.7382,2579.4226 ZM2584.7382,2579.4226 L2221.0378,2215.7222 L2570.1453,1866.6148 L2933.8457,2230.3152 Z" style="fill-rule:evenodd;"/>
                <!-- Hatch -->
                <path d="M2166.0338,2270.7263 A50.8,50.8 0 0 1 2173.8735,2209.0051 L2507.2654,1875.6131 L2534.2061,1902.5539 ZM2591.4552,2626.5872 A50.8,50.8 0 0 1 2529.7341,2634.4267 L2897.9065,2266.2543 L2924.8473,2293.1951 L2591.4552,2626.5872" style="fill-rule:evenodd;"/>
            </g>
            <!-- Block Reference: chair_04_top_cad-block.com / entities: 8 -->
            <g>
                <!-- Line -->
                <path d="M3610.2112,2791.1367 L3095.8612,2791.1367 " style="stroke:#000000;stroke-width:0.1;"/>
                <!-- Arc -->
                <path d="M3648.3112,2819.7373 A50.8,50.8 0 0,1 3610.2112,2868.9242" style="stroke:#000000;stroke-width:0.1;"/>
                <!-- Arc -->
                <path d="M3095.8612,2868.9242 A50.8,50.8 0 0,1 3057.7612,2819.7373" style="stroke:#000000;stroke-width:0.1;"/>
                <!-- Polyline -->
                <path d="M3057.7612,2819.7373 L3057.7612,2348.2498 L3095.8612,2348.2498" style="stroke:#000000;stroke-width:0.1;"/>
                <!-- Polyline -->
                <path d="M3648.3112,2819.7373 L3648.3112,2348.2498 L3610.2112,2348.2498" style="stroke:#000000;stroke-width:0.1;"/>
                <!-- Polyline -->
                <path d="M3610.2112,2297.4242 L3095.8612,2297.4242 L3095.8612,2868.9242 L3610.2112,2868.9242 Z" style="stroke:#000000;stroke-width:0.1;"/>
                <!-- Hatch -->
                <path d="M3610.2112,2868.9242 L3095.8612,2868.9242 L3095.8612,2791.1367 L3610.2112,2791.1367 ZM3610.2112,2791.1367 L3095.8612,2791.1367 L3095.8612,2297.4242 L3610.2112,2297.4242 Z" style="fill-rule:evenodd;"/>
                <!-- Hatch -->
                <path d="M3095.8612,2868.9242 A50.8,50.8 0 0 1 3057.7612,2819.7372 L3057.7612,2348.2498 L3095.8612,2348.2498 ZM3648.3112,2819.7375 A50.8,50.8 0 0 1 3610.2112,2868.9242 L3610.2112,2348.2498 L3648.3112,2348.2498 L3648.3112,2819.7375" style="fill-rule:evenodd;"/>
            </g>
            <!-- Block Reference: chair_04_top_cad-block.com / entities: 8 -->
            <g>
                <!-- Line -->
                <path d="M4485.0346,2215.7222 L4121.3343,2579.4226 " style="stroke:#000000;stroke-width:0.1;"/>
                <!-- Arc -->
                <path d="M4532.1991,2209.0052 A50.8,50.8 0 0,1 4540.0387,2270.7263" style="stroke:#000000;stroke-width:0.1;"/>
                <!-- Arc -->
                <path d="M4176.3383,2634.4267 A50.8,50.8 0 0,1 4114.6172,2626.5871" style="stroke:#000000;stroke-width:0.1;"/>
                <!-- Polyline -->
                <path d="M4114.6172,2626.5871 L3781.2252,2293.1951 L3808.1659,2266.2543" style="stroke:#000000;stroke-width:0.1;"/>
                <!-- Polyline -->
                <path d="M4532.1991,2209.0052 L4198.8071,1875.6131 L4171.8663,1902.5539" style="stroke:#000000;stroke-width:0.1;"/>
                <!-- Polyline -->
                <path d="M4135.9272,1866.6148 L3772.2268,2230.3152 L4176.3383,2634.4267 L4540.0387,2270.7263 Z" style="stroke:#000000;stroke-width:0.1;"/>
                <!-- Hatch -->
                <path d="M4540.0387,2270.7263 L4176.3383,2634.4267 L4121.3343,2579.4226 L4485.0346,2215.7222 ZM4485.0346,2215.7222 L4121.3343,2579.4226 L3772.2268,2230.3152 L4135.9272,1866.6148 Z" style="fill-rule:evenodd;"/>
                <!-- Hatch -->
                <path d="M4176.3383,2634.4267 A50.8,50.8 0 0 1 4114.6171,2626.587 L3781.2252,2293.1951 L3808.1659,2266.2543 ZM4532.1992,2209.0053 A50.8,50.8 0 0 1 4540.0387,2270.7263 L4171.8663,1902.5539 L4198.8071,1875.6131 L4532.1992,2209.0053" style="fill-rule:evenodd;"/>
            </g>
            <!-- Block Reference: chair_04_top_cad-block.com / entities: 8 -->
            <g>
                <!-- Line -->
                <path d="M4696.7487,1190.2492 L4696.7487,1704.5992 " style="stroke:#000000;stroke-width:0.1;"/>
                <!-- Arc -->
                <path d="M4725.3493,1152.1492 A50.8,50.8 0 0,1 4774.5362,1190.2492" style="stroke:#000000;stroke-width:0.1;"/>
                <!-- Arc -->
                <path d="M4774.5362,1704.5992 A50.8,50.8 0 0,1 4725.3493,1742.6992" style="stroke:#000000;stroke-width:0.1;"/>
                <!-- Polyline -->
                <path d="M4725.3493,1742.6992 L4253.8618,1742.6992 L4253.8618,1704.5992" style="stroke:#000000;stroke-width:0.1;"/>
                <!-- Polyline -->
                <path d="M4725.3493,1152.1492 L4253.8618,1152.1492 L4253.8618,1190.2492" style="stroke:#000000;stroke-width:0.1;"/>
                <!-- Polyline -->
                <path d="M4203.0362,1190.2492 L4203.0362,1704.5992 L4774.5362,1704.5992 L4774.5362,1190.2492 Z" style="stroke:#000000;stroke-width:0.1;"/>
                <!-- Hatch -->
                <path d="M4774.5362,1190.2492 L4774.5362,1704.5992 L4696.7487,1704.5992 L4696.7487,1190.2492 ZM4696.7487,1190.2492 L4696.7487,1704.5992 L4203.0362,1704.5992 L4203.0362,1190.2492 Z" style="fill-rule:evenodd;"/>
                <!-- Hatch -->
                <path d="M4774.5362,1704.5992 A50.8,50.8 0 0 1 4725.3492,1742.6992 L4253.8618,1742.6992 L4253.8618,1704.5992 ZM4725.3495,1152.1492 A50.8,50.8 0 0 1 4774.5362,1190.2492 L4253.8618,1190.2492 L4253.8618,1152.1492 L4725.3495,1152.1492" style="fill-rule:evenodd;"/>
            </g>
            <!-- Block Reference: chair_04_top_cad-block.com / entities: 8 -->
            <g>
                <!-- Line -->
                <path d="M4121.3343,315.4258 L4485.0346,679.1262 " style="stroke:#000000;stroke-width:0.1;"/>
                <!-- Arc -->
                <path d="M4114.6172,268.2613 A50.8,50.8 0 0,1 4176.3383,260.4217" style="stroke:#000000;stroke-width:0.1;"/>
                <!-- Arc -->
                <path d="M4540.0387,624.1221 A50.8,50.8 0 0,1 4532.1991,685.8433" style="stroke:#000000;stroke-width:0.1;"/>
                <!-- Polyline -->
                <path d="M4532.1991,685.8433 L4198.8071,1019.2353 L4171.8663,992.2945" style="stroke:#000000;stroke-width:0.1;"/>
                <!-- Polyline -->
                <path d="M4114.6172,268.2613 L3781.2252,601.6534 L3808.1659,628.5941" style="stroke:#000000;stroke-width:0.1;"/>
                <!-- Polyline -->
                <path d="M3772.2268,664.5333 L4135.9272,1028.2336 L4540.0387,624.1221 L4176.3383,260.4217 Z" style="stroke:#000000;stroke-width:0.1;"/>
                <!-- Hatch -->
                <path d="M4176.3383,260.4217 L4540.0387,624.1221 L4485.0346,679.1262 L4121.3343,315.4258 ZM4121.3343,315.4258 L4485.0346,679.1262 L4135.9272,1028.2336 L3772.2268,664.5333 Z" style="fill-rule:evenodd;"/>
                <!-- Hatch -->
                <path d="M4540.0387,624.1221 A50.8,50.8 0 0 1 4532.199,685.8433 L4198.8071,1019.2353 L4171.8663,992.2945 ZM4114.6173,268.2612 A50.8,50.8 0 0 1 4176.3383,260.4217 L3808.1659,628.5941 L3781.2252,601.6534 L4114.6173,268.2612" style="fill-rule:evenodd;"/>
            </g>
            <!-- Block Reference: chair_04_top_cad-block.com / entities: 8 -->
            <g>
                <!-- Line -->
                <path d="M3095.8612,103.7117 L3610.2112,103.7117 " style="stroke:#000000;stroke-width:0.1;"/>
                <!-- Arc -->
                <path d="M3057.7612,75.1111 A50.8,50.8 0 0,1 3095.8612,25.9242" style="stroke:#000000;stroke-width:0.1;"/>
                <!-- Arc -->
                <path d="M3610.2112,25.9242 A50.8,50.8 0 0,1 3648.3112,75.1111" style="stroke:#000000;stroke-width:0.1;"/>
                <!-- Polyline -->
                <path d="M3648.3112,75.1111 L3648.3112,546.5986 L3610.2112,546.5986" style="stroke:#000000;stroke-width:0.1;"/>
                <!-- Polyline -->
                <path d="M3057.7612,75.1111 L3057.7612,546.5986 L3095.8612,546.5986" style="stroke:#000000;stroke-width:0.1;"/>
                <!-- Polyline -->
                <path d="M3095.8612,597.4242 L3610.2112,597.4242 L3610.2112,25.9242 L3095.8612,25.9242 Z" style="stroke:#000000;stroke-width:0.1;"/>
                <!-- Hatch -->
                <path d="M3095.8612,25.9242 L3610.2112,25.9242 L3610.2112,103.7117 L3095.8612,103.7117 ZM3095.8612,103.7117 L3610.2112,103.7117 L3610.2112,597.4242 L3095.8612,597.4242 Z" style="fill-rule:evenodd;"/>
                <!-- Hatch -->
                <path d="M3610.2112,25.9242 A50.8,50.8 0 0 1 3648.3112,75.1112 L3648.3112,546.5986 L3610.2112,546.5986 ZM3057.7612,75.111 A50.8,50.8 0 0 1 3095.8612,25.9242 L3095.8612,546.5986 L3057.7612,546.5986 L3057.7612,75.111" style="fill-rule:evenodd;"/>
            </g>
            <!-- Block Reference: chair_04_top_cad-block.com / entities: 8 -->
            <g>
                <!-- Line -->
                <path d="M2221.0378,679.1262 L2584.7382,315.4258 " style="stroke:#000000;stroke-width:0.1;"/>
                <!-- Arc -->
                <path d="M2173.8734,685.8433 A50.8,50.8 0 0,1 2166.0338,624.1221" style="stroke:#000000;stroke-width:0.1;"/>
                <!-- Arc -->
                <path d="M2529.7341,260.4217 A50.8,50.8 0 0,1 2591.4553,268.2613" style="stroke:#000000;stroke-width:0.1;"/>
                <!-- Polyline -->
                <path d="M2591.4553,268.2613 L2924.8473,601.6534 L2897.9065,628.5941" style="stroke:#000000;stroke-width:0.1;"/>
                <!-- Polyline -->
                <path d="M2173.8734,685.8433 L2507.2654,1019.2353 L2534.2061,992.2945" style="stroke:#000000;stroke-width:0.1;"/>
                <!-- Polyline -->
                <path d="M2570.1453,1028.2336 L2933.8457,664.5333 L2529.7341,260.4217 L2166.0338,624.1221 Z" style="stroke:#000000;stroke-width:0.1;"/>
                <!-- Hatch -->
                <path d="M2166.0338,624.1221 L2529.7341,260.4217 L2584.7382,315.4258 L2221.0378,679.1262 ZM2221.0378,679.1262 L2584.7382,315.4258 L2933.8457,664.5333 L2570.1453,1028.2336 Z" style="fill-rule:evenodd;"/>
                <!-- Hatch -->
                <path d="M2529.7341,260.4217 A50.8,50.8 0 0 1 2591.4554,268.2614 L2924.8473,601.6534 L2897.9065,628.5941 ZM2173.8733,685.8432 A50.8,50.8 0 0 1 2166.0338,624.1221 L2534.2061,992.2945 L2507.2654,1019.2353 L2173.8733,685.8432" style="fill-rule:evenodd;"/>
            </g>
            <!-- Block Reference: Table round R750_top_cad-block.com / entities: 2 -->
            <g>
                <!-- Hatch -->
                <path d="M4103.0362,1447.4242 A750,750 0 0 1 2603.0362,1447.4242 A750,750 0 0 1 4103.0362,1447.4242 Z" style="fill-rule:evenodd;"/>
                <!-- Circle -->
                <circle cx="3353.0362301876594" cy="1447.4242059335447" r="750" style="stroke:#000000;stroke-width:0.1;"/>
            </g>
            <!-- Block Reference: chair_04_top_cad-block.com / entities: 8 -->
            <g>
                <!-- Line -->
                <path d="M109.3237,5504.5992 L109.3237,4990.2492 " style="stroke:#000000;stroke-width:0.1;"/>
                <!-- Arc -->
                <path d="M80.7231,5542.6992 A50.8,50.8 0 0,1 31.5362,5504.5992" style="stroke:#000000;stroke-width:0.1;"/>
                <!-- Arc -->
                <path d="M31.5362,4990.2492 A50.8,50.8 0 0,1 80.7231,4952.1492" style="stroke:#000000;stroke-width:0.1;"/>
                <!-- Polyline -->
                <path d="M80.7231,4952.1492 L552.2106,4952.1492 L552.2106,4990.2492" style="stroke:#000000;stroke-width:0.1;"/>
                <!-- Polyline -->
                <path d="M80.7231,5542.6992 L552.2106,5542.6992 L552.2106,5504.5992" style="stroke:#000000;stroke-width:0.1;"/>
                <!-- Polyline -->
                <path d="M603.0362,5504.5992 L603.0362,4990.2492 L31.5362,4990.2492 L31.5362,5504.5992 Z" style="stroke:#000000;stroke-width:0.1;"/>
                <!-- Hatch -->
                <path d="M31.5362,5504.5992 L31.5362,4990.2492 L109.3237,4990.2492 L109.3237,5504.5992 ZM109.3237,5504.5992 L109.3237,4990.2492 L603.0362,4990.2492 L603.0362,5504.5992 Z" style="fill-rule:evenodd;"/>
                <!-- Hatch -->
                <path d="M31.5362,4990.2492 A50.8,50.8 0 0 1 80.7233,4952.1492 L552.2106,4952.1492 L552.2106,4990.2492 ZM80.723,5542.6992 A50.8,50.8 0 0 1 31.5362,5504.5992 L552.2106,5504.5992 L552.2106,5542.6992 L80.723,5542.6992" style="fill-rule:evenodd;"/>
            </g>
            <!-- Block Reference: chair_04_top_cad-block.com / entities: 8 -->
            <g>
                <!-- Line -->
                <path d="M684.7382,6379.4226 L321.0378,6015.7222 " style="stroke:#000000;stroke-width:0.1;"/>
                <!-- Arc -->
                <path d="M691.4553,6426.5871 A50.8,50.8 0 0,1 629.7341,6434.4267" style="stroke:#000000;stroke-width:0.1;"/>
                <!-- Arc -->
                <path d="M266.0338,6070.7263 A50.8,50.8 0 0,1 273.8734,6009.0052" style="stroke:#000000;stroke-width:0.1;"/>
                <!-- Polyline -->
                <path d="M273.8734,6009.0052 L607.2654,5675.6131 L634.2061,5702.5539" style="stroke:#000000;stroke-width:0.1;"/>
                <!-- Polyline -->
                <path d="M691.4553,6426.5871 L1024.8473,6093.1951 L997.9065,6066.2543" style="stroke:#000000;stroke-width:0.1;"/>
                <!-- Polyline -->
                <path d="M1033.8457,6030.3152 L670.1453,5666.6148 L266.0338,6070.7263 L629.7341,6434.4267 Z" style="stroke:#000000;stroke-width:0.1;"/>
                <!-- Hatch -->
                <path d="M629.7341,6434.4267 L266.0338,6070.7263 L321.0378,6015.7222 L684.7382,6379.4226 ZM684.7382,6379.4226 L321.0378,6015.7222 L670.1453,5666.6148 L1033.8457,6030.3152 Z" style="fill-rule:evenodd;"/>
                <!-- Hatch -->
                <path d="M266.0338,6070.7263 A50.8,50.8 0 0 1 273.8735,6009.0051 L607.2654,5675.6131 L634.2061,5702.5539 ZM691.4552,6426.5872 A50.8,50.8 0 0 1 629.7341,6434.4267 L997.9065,6066.2543 L1024.8473,6093.1951 L691.4552,6426.5872" style="fill-rule:evenodd;"/>
            </g>
            <!-- Block Reference: chair_04_top_cad-block.com / entities: 8 -->
            <g>
                <!-- Line -->
                <path d="M1710.2112,6591.1367 L1195.8612,6591.1367 " style="stroke:#000000;stroke-width:0.1;"/>
                <!-- Arc -->
                <path d="M1748.3112,6619.7373 A50.8,50.8 0 0,1 1710.2112,6668.9242" style="stroke:#000000;stroke-width:0.1;"/>
                <!-- Arc -->
                <path d="M1195.8612,6668.9242 A50.8,50.8 0 0,1 1157.7612,6619.7373" style="stroke:#000000;stroke-width:0.1;"/>
                <!-- Polyline -->
                <path d="M1157.7612,6619.7373 L1157.7612,6148.2498 L1195.8612,6148.2498" style="stroke:#000000;stroke-width:0.1;"/>
                <!-- Polyline -->
                <path d="M1748.3112,6619.7373 L1748.3112,6148.2498 L1710.2112,6148.2498" style="stroke:#000000;stroke-width:0.1;"/>
                <!-- Polyline -->
                <path d="M1710.2112,6097.4242 L1195.8612,6097.4242 L1195.8612,6668.9242 L1710.2112,6668.9242 Z" style="stroke:#000000;stroke-width:0.1;"/>
                <!-- Hatch -->
                <path d="M1710.2112,6668.9242 L1195.8612,6668.9242 L1195.8612,6591.1367 L1710.2112,6591.1367 ZM1710.2112,6591.1367 L1195.8612,6591.1367 L1195.8612,6097.4242 L1710.2112,6097.4242 Z" style="fill-rule:evenodd;"/>
                <!-- Hatch -->
                <path d="M1195.8612,6668.9242 A50.8,50.8 0 0 1 1157.7612,6619.7372 L1157.7612,6148.2498 L1195.8612,6148.2498 ZM1748.3112,6619.7375 A50.8,50.8 0 0 1 1710.2112,6668.9242 L1710.2112,6148.2498 L1748.3112,6148.2498 L1748.3112,6619.7375" style="fill-rule:evenodd;"/>
            </g>
            <!-- Block Reference: chair_04_top_cad-block.com / entities: 8 -->
            <g>
                <!-- Line -->
                <path d="M2585.0346,6015.7222 L2221.3343,6379.4226 " style="stroke:#000000;stroke-width:0.1;"/>
                <!-- Arc -->
                <path d="M2632.1991,6009.0052 A50.8,50.8 0 0,1 2640.0387,6070.7263" style="stroke:#000000;stroke-width:0.1;"/>
                <!-- Arc -->
                <path d="M2276.3383,6434.4267 A50.8,50.8 0 0,1 2214.6172,6426.5871" style="stroke:#000000;stroke-width:0.1;"/>
                <!-- Polyline -->
                <path d="M2214.6172,6426.5871 L1881.2252,6093.1951 L1908.1659,6066.2543" style="stroke:#000000;stroke-width:0.1;"/>
                <!-- Polyline -->
                <path d="M2632.1991,6009.0052 L2298.8071,5675.6131 L2271.8663,5702.5539" style="stroke:#000000;stroke-width:0.1;"/>
                <!-- Polyline -->
                <path d="M2235.9272,5666.6148 L1872.2268,6030.3152 L2276.3383,6434.4267 L2640.0387,6070.7263 Z" style="stroke:#000000;stroke-width:0.1;"/>
                <!-- Hatch -->
                <path d="M2640.0387,6070.7263 L2276.3383,6434.4267 L2221.3343,6379.4226 L2585.0346,6015.7222 ZM2585.0346,6015.7222 L2221.3343,6379.4226 L1872.2268,6030.3152 L2235.9272,5666.6148 Z" style="fill-rule:evenodd;"/>
                <!-- Hatch -->
                <path d="M2276.3383,6434.4267 A50.8,50.8 0 0 1 2214.6171,6426.587 L1881.2252,6093.1951 L1908.1659,6066.2543 ZM2632.1992,6009.0053 A50.8,50.8 0 0 1 2640.0387,6070.7263 L2271.8663,5702.5539 L2298.8071,5675.6131 L2632.1992,6009.0053" style="fill-rule:evenodd;"/>
            </g>
            <!-- Block Reference: chair_04_top_cad-block.com / entities: 8 -->
            <g>
                <!-- Line -->
                <path d="M2796.7487,4990.2492 L2796.7487,5504.5992 " style="stroke:#000000;stroke-width:0.1;"/>
                <!-- Arc -->
                <path d="M2825.3493,4952.1492 A50.8,50.8 0 0,1 2874.5362,4990.2492" style="stroke:#000000;stroke-width:0.1;"/>
                <!-- Arc -->
                <path d="M2874.5362,5504.5992 A50.8,50.8 0 0,1 2825.3493,5542.6992" style="stroke:#000000;stroke-width:0.1;"/>
                <!-- Polyline -->
                <path d="M2825.3493,5542.6992 L2353.8618,5542.6992 L2353.8618,5504.5992" style="stroke:#000000;stroke-width:0.1;"/>
                <!-- Polyline -->
                <path d="M2825.3493,4952.1492 L2353.8618,4952.1492 L2353.8618,4990.2492" style="stroke:#000000;stroke-width:0.1;"/>
                <!-- Polyline -->
                <path d="M2303.0362,4990.2492 L2303.0362,5504.5992 L2874.5362,5504.5992 L2874.5362,4990.2492 Z" style="stroke:#000000;stroke-width:0.1;"/>
                <!-- Hatch -->
                <path d="M2874.5362,4990.2492 L2874.5362,5504.5992 L2796.7487,5504.5992 L2796.7487,4990.2492 ZM2796.7487,4990.2492 L2796.7487,5504.5992 L2303.0362,5504.5992 L2303.0362,4990.2492 Z" style="fill-rule:evenodd;"/>
                <!-- Hatch -->
                <path d="M2874.5362,5504.5992 A50.8,50.8 0 0 1 2825.3492,5542.6992 L2353.8618,5542.6992 L2353.8618,5504.5992 ZM2825.3495,4952.1492 A50.8,50.8 0 0 1 2874.5362,4990.2492 L2353.8618,4990.2492 L2353.8618,4952.1492 L2825.3495,4952.1492" style="fill-rule:evenodd;"/>
            </g>
            <!-- Block Reference: chair_04_top_cad-block.com / entities: 8 -->
            <g>
                <!-- Line -->
                <path d="M2221.3343,4115.4258 L2585.0346,4479.1262 " style="stroke:#000000;stroke-width:0.1;"/>
                <!-- Arc -->
                <path d="M2214.6172,4068.2613 A50.8,50.8 0 0,1 2276.3383,4060.4217" style="stroke:#000000;stroke-width:0.1;"/>
                <!-- Arc -->
                <path d="M2640.0387,4424.1221 A50.8,50.8 0 0,1 2632.1991,4485.8433" style="stroke:#000000;stroke-width:0.1;"/>
                <!-- Polyline -->
                <path d="M2632.1991,4485.8433 L2298.8071,4819.2353 L2271.8663,4792.2945" style="stroke:#000000;stroke-width:0.1;"/>
                <!-- Polyline -->
                <path d="M2214.6172,4068.2613 L1881.2252,4401.6534 L1908.1659,4428.5941" style="stroke:#000000;stroke-width:0.1;"/>
                <!-- Polyline -->
                <path d="M1872.2268,4464.5333 L2235.9272,4828.2336 L2640.0387,4424.1221 L2276.3383,4060.4217 Z" style="stroke:#000000;stroke-width:0.1;"/>
                <!-- Hatch -->
                <path d="M2276.3383,4060.4217 L2640.0387,4424.1221 L2585.0346,4479.1262 L2221.3343,4115.4258 ZM2221.3343,4115.4258 L2585.0346,4479.1262 L2235.9272,4828.2336 L1872.2268,4464.5333 Z" style="fill-rule:evenodd;"/>
                <!-- Hatch -->
                <path d="M2640.0387,4424.1221 A50.8,50.8 0 0 1 2632.199,4485.8433 L2298.8071,4819.2353 L2271.8663,4792.2945 ZM2214.6173,4068.2612 A50.8,50.8 0 0 1 2276.3383,4060.4217 L1908.1659,4428.5941 L1881.2252,4401.6534 L2214.6173,4068.2612" style="fill-rule:evenodd;"/>
            </g>
            <!-- Block Reference: chair_04_top_cad-block.com / entities: 8 -->
            <g>
                <!-- Line -->
                <path d="M1195.8612,3903.7117 L1710.2112,3903.7117 " style="stroke:#000000;stroke-width:0.1;"/>
                <!-- Arc -->
                <path d="M1157.7612,3875.1111 A50.8,50.8 0 0,1 1195.8612,3825.9242" style="stroke:#000000;stroke-width:0.1;"/>
                <!-- Arc -->
                <path d="M1710.2112,3825.9242 A50.8,50.8 0 0,1 1748.3112,3875.1111" style="stroke:#000000;stroke-width:0.1;"/>
                <!-- Polyline -->
                <path d="M1748.3112,3875.1111 L1748.3112,4346.5986 L1710.2112,4346.5986" style="stroke:#000000;stroke-width:0.1;"/>
                <!-- Polyline -->
                <path d="M1157.7612,3875.1111 L1157.7612,4346.5986 L1195.8612,4346.5986" style="stroke:#000000;stroke-width:0.1;"/>
                <!-- Polyline -->
                <path d="M1195.8612,4397.4242 L1710.2112,4397.4242 L1710.2112,3825.9242 L1195.8612,3825.9242 Z" style="stroke:#000000;stroke-width:0.1;"/>
                <!-- Hatch -->
                <path d="M1195.8612,3825.9242 L1710.2112,3825.9242 L1710.2112,3903.7117 L1195.8612,3903.7117 ZM1195.8612,3903.7117 L1710.2112,3903.7117 L1710.2112,4397.4242 L1195.8612,4397.4242 Z" style="fill-rule:evenodd;"/>
                <!-- Hatch -->
                <path d="M1710.2112,3825.9242 A50.8,50.8 0 0 1 1748.3112,3875.1112 L1748.3112,4346.5986 L1710.2112,4346.5986 ZM1157.7612,3875.111 A50.8,50.8 0 0 1 1195.8612,3825.9242 L1195.8612,4346.5986 L1157.7612,4346.5986 L1157.7612,3875.111" style="fill-rule:evenodd;"/>
            </g>
            <!-- Block Reference: chair_04_top_cad-block.com / entities: 8 -->
            <g>
                <!-- Line -->
                <path d="M321.0378,4479.1262 L684.7382,4115.4258 " style="stroke:#000000;stroke-width:0.1;"/>
                <!-- Arc -->
                <path d="M273.8734,4485.8433 A50.8,50.8 0 0,1 266.0338,4424.1221" style="stroke:#000000;stroke-width:0.1;"/>
                <!-- Arc -->
                <path d="M629.7341,4060.4217 A50.8,50.8 0 0,1 691.4553,4068.2613" style="stroke:#000000;stroke-width:0.1;"/>
                <!-- Polyline -->
                <path d="M691.4553,4068.2613 L1024.8473,4401.6534 L997.9065,4428.5941" style="stroke:#000000;stroke-width:0.1;"/>
                <!-- Polyline -->
                <path d="M273.8734,4485.8433 L607.2654,4819.2353 L634.2061,4792.2945" style="stroke:#000000;stroke-width:0.1;"/>
                <!-- Polyline -->
                <path d="M670.1453,4828.2336 L1033.8457,4464.5333 L629.7341,4060.4217 L266.0338,4424.1221 Z" style="stroke:#000000;stroke-width:0.1;"/>
                <!-- Hatch -->
                <path d="M266.0338,4424.1221 L629.7341,4060.4217 L684.7382,4115.4258 L321.0378,4479.1262 ZM321.0378,4479.1262 L684.7382,4115.4258 L1033.8457,4464.5333 L670.1453,4828.2336 Z" style="fill-rule:evenodd;"/>
                <!-- Hatch -->
                <path d="M629.7341,4060.4217 A50.8,50.8 0 0 1 691.4554,4068.2614 L1024.8473,4401.6534 L997.9065,4428.5941 ZM273.8733,4485.8432 A50.8,50.8 0 0 1 266.0338,4424.1221 L634.2061,4792.2945 L607.2654,4819.2353 L273.8733,4485.8432" style="fill-rule:evenodd;"/>
            </g>
            <!-- Block Reference: Table round R750_top_cad-block.com / entities: 2 -->
            <g>
                <!-- Hatch -->
                <path d="M2203.0362,5247.4242 A750,750 0 0 1 703.0362,5247.4242 A750,750 0 0 1 2203.0362,5247.4242 Z" style="fill-rule:evenodd;"/>
                <!-- Circle -->
                <circle cx="1453.0362301876594" cy="5247.424205933545" r="750" style="stroke:#000000;stroke-width:0.1;"/>
            </g>
            <!-- Block Reference: chair_04_top_cad-block.com / entities: 8 -->
            <g>
                <!-- Line -->
                <path d="M5809.3237,8790.2492 L5809.3237,9304.5992 " style="stroke:#000000;stroke-width:0.1;"/>
                <!-- Arc -->
                <path d="M5780.7231,8752.1492 A50.8,50.8 0 0,0 5731.5362,8790.2492" style="stroke:#000000;stroke-width:0.1;"/>
                <!-- Arc -->
                <path d="M5731.5362,9304.5992 A50.8,50.8 0 0,0 5780.7231,9342.6992" style="stroke:#000000;stroke-width:0.1;"/>
                <!-- Polyline -->
                <path d="M5780.7231,9342.6992 L6252.2106,9342.6992 L6252.2106,9304.5992" style="stroke:#000000;stroke-width:0.1;"/>
                <!-- Polyline -->
                <path d="M5780.7231,8752.1492 L6252.2106,8752.1492 L6252.2106,8790.2492" style="stroke:#000000;stroke-width:0.1;"/>
                <!-- Polyline -->
                <path d="M6303.0362,8790.2492 L6303.0362,9304.5992 L5731.5362,9304.5992 L5731.5362,8790.2492 Z" style="stroke:#000000;stroke-width:0.1;"/>
                <!-- Hatch -->
                <path d="M5731.5362,8790.2492 L5731.5362,9304.5992 L5809.3237,9304.5992 L5809.3237,8790.2492 ZM5809.3237,8790.2492 L5809.3237,9304.5992 L6303.0362,9304.5992 L6303.0362,8790.2492 Z" style="fill-rule:evenodd;"/>
                <!-- Hatch -->
                <path d="M5731.5362,9304.5992 A50.8,50.8 0 0 0 5780.7233,9342.6992 L6252.2106,9342.6992 L6252.2106,9304.5992 ZM5780.723,8752.1492 A50.8,50.8 0 0 0 5731.5362,8790.2492 L6252.2106,8790.2492 L6252.2106,8752.1492 L5780.723,8752.1492" style="fill-rule:evenodd;"/>
            </g>
            <!-- Block Reference: chair_04_top_cad-block.com / entities: 8 -->
            <g>
                <!-- Line -->
                <path d="M6384.7382,7915.4258 L6021.0378,8279.1262 " style="stroke:#000000;stroke-width:0.1;"/>
                <!-- Arc -->
                <path d="M6391.4553,7868.2613 A50.8,50.8 0 0,0 6329.7341,7860.4217" style="stroke:#000000;stroke-width:0.1;"/>
                <!-- Arc -->
                <path d="M5966.0338,8224.1221 A50.8,50.8 0 0,0 5973.8734,8285.8433" style="stroke:#000000;stroke-width:0.1;"/>
                <!-- Polyline -->
                <path d="M5973.8734,8285.8433 L6307.2654,8619.2353 L6334.2061,8592.2945" style="stroke:#000000;stroke-width:0.1;"/>
                <!-- Polyline -->
                <path d="M6391.4553,7868.2613 L6724.8473,8201.6534 L6697.9065,8228.5941" style="stroke:#000000;stroke-width:0.1;"/>
                <!-- Polyline -->
                <path d="M6733.8457,8264.5333 L6370.1453,8628.2336 L5966.0338,8224.1221 L6329.7341,7860.4217 Z" style="stroke:#000000;stroke-width:0.1;"/>
                <!-- Hatch -->
                <path d="M6329.7341,7860.4217 L5966.0338,8224.1221 L6021.0378,8279.1262 L6384.7382,7915.4258 ZM6384.7382,7915.4258 L6021.0378,8279.1262 L6370.1453,8628.2336 L6733.8457,8264.5333 Z" style="fill-rule:evenodd;"/>
                <!-- Hatch -->
                <path d="M5966.0338,8224.1221 A50.8,50.8 0 0 0 5973.8735,8285.8433 L6307.2654,8619.2353 L6334.2061,8592.2945 ZM6391.4552,7868.2612 A50.8,50.8 0 0 0 6329.7341,7860.4217 L6697.9065,8228.5941 L6724.8473,8201.6534 L6391.4552,7868.2612" style="fill-rule:evenodd;"/>
            </g>
            <!-- Block Reference: chair_04_top_cad-block.com / entities: 8 -->
            <g>
                <!-- Line -->
                <path d="M7410.2112,7703.7117 L6895.8612,7703.7117 " style="stroke:#000000;stroke-width:0.1;"/>
                <!-- Arc -->
                <path d="M7448.3112,7675.1111 A50.8,50.8 0 0,0 7410.2112,7625.9242" style="stroke:#000000;stroke-width:0.1;"/>
                <!-- Arc -->
                <path d="M6895.8612,7625.9242 A50.8,50.8 0 0,0 6857.7612,7675.1111" style="stroke:#000000;stroke-width:0.1;"/>
                <!-- Polyline -->
                <path d="M6857.7612,7675.1111 L6857.7612,8146.5986 L6895.8612,8146.5986" style="stroke:#000000;stroke-width:0.1;"/>
                <!-- Polyline -->
                <path d="M7448.3112,7675.1111 L7448.3112,8146.5986 L7410.2112,8146.5986" style="stroke:#000000;stroke-width:0.1;"/>
                <!-- Polyline -->
                <path d="M7410.2112,8197.4242 L6895.8612,8197.4242 L6895.8612,7625.9242 L7410.2112,7625.9242 Z" style="stroke:#000000;stroke-width:0.1;"/>
                <!-- Hatch -->
                <path d="M7410.2112,7625.9242 L6895.8612,7625.9242 L6895.8612,7703.7117 L7410.2112,7703.7117 ZM7410.2112,7703.7117 L6895.8612,7703.7117 L6895.8612,8197.4242 L7410.2112,8197.4242 Z" style="fill-rule:evenodd;"/>
                <!-- Hatch -->
                <path d="M6895.8612,7625.9242 A50.8,50.8 0 0 0 6857.7612,7675.1112 L6857.7612,8146.5986 L6895.8612,8146.5986 ZM7448.3112,7675.111 A50.8,50.8 0 0 0 7410.2112,7625.9242 L7410.2112,8146.5986 L7448.3112,8146.5986 L7448.3112,7675.111" style="fill-rule:evenodd;"/>
            </g>
            <!-- Block Reference: chair_04_top_cad-block.com / entities: 8 -->
            <g>
                <!-- Line -->
                <path d="M8285.0346,8279.1262 L7921.3343,7915.4258 " style="stroke:#000000;stroke-width:0.1;"/>
                <!-- Arc -->
                <path d="M8332.1991,8285.8433 A50.8,50.8 0 0,0 8340.0387,8224.1221" style="stroke:#000000;stroke-width:0.1;"/>
                <!-- Arc -->
                <path d="M7976.3383,7860.4217 A50.8,50.8 0 0,0 7914.6172,7868.2613" style="stroke:#000000;stroke-width:0.1;"/>
                <!-- Polyline -->
                <path d="M7914.6172,7868.2613 L7581.2252,8201.6534 L7608.1659,8228.5941" style="stroke:#000000;stroke-width:0.1;"/>
                <!-- Polyline -->
                <path d="M8332.1991,8285.8433 L7998.8071,8619.2353 L7971.8663,8592.2945" style="stroke:#000000;stroke-width:0.1;"/>
                <!-- Polyline -->
                <path d="M7935.9272,8628.2336 L7572.2268,8264.5333 L7976.3383,7860.4217 L8340.0387,8224.1221 Z" style="stroke:#000000;stroke-width:0.1;"/>
                <!-- Hatch -->
                <path d="M8340.0387,8224.1221 L7976.3383,7860.4217 L7921.3343,7915.4258 L8285.0346,8279.1262 ZM8285.0346,8279.1262 L7921.3343,7915.4258 L7572.2268,8264.5333 L7935.9272,8628.2336 Z" style="fill-rule:evenodd;"/>
                <!-- Hatch -->
                <path d="M7976.3383,7860.4217 A50.8,50.8 0 0 0 7914.6171,7868.2614 L7581.2252,8201.6534 L7608.1659,8228.5941 ZM8332.1992,8285.8432 A50.8,50.8 0 0 0 8340.0387,8224.1221 L7971.8663,8592.2945 L7998.8071,8619.2353 L8332.1992,8285.8432" style="fill-rule:evenodd;"/>
            </g>
            <!-- Block Reference: chair_04_top_cad-block.com / entities: 8 -->
            <g>
                <!-- Line -->
                <path d="M8496.7487,9304.5992 L8496.7487,8790.2492 " style="stroke:#000000;stroke-width:0.1;"/>
                <!-- Arc -->
                <path d="M8525.3493,9342.6992 A50.8,50.8 0 0,0 8574.5362,9304.5992" style="stroke:#000000;stroke-width:0.1;"/>
                <!-- Arc -->
                <path d="M8574.5362,8790.2492 A50.8,50.8 0 0,0 8525.3493,8752.1492" style="stroke:#000000;stroke-width:0.1;"/>
                <!-- Polyline -->
                <path d="M8525.3493,8752.1492 L8053.8618,8752.1492 L8053.8618,8790.2492" style="stroke:#000000;stroke-width:0.1;"/>
                <!-- Polyline -->
                <path d="M8525.3493,9342.6992 L8053.8618,9342.6992 L8053.8618,9304.5992" style="stroke:#000000;stroke-width:0.1;"/>
                <!-- Polyline -->
                <path d="M8003.0362,9304.5992 L8003.0362,8790.2492 L8574.5362,8790.2492 L8574.5362,9304.5992 Z" style="stroke:#000000;stroke-width:0.1;"/>
                <!-- Hatch -->
                <path d="M8574.5362,9304.5992 L8574.5362,8790.2492 L8496.7487,8790.2492 L8496.7487,9304.5992 ZM8496.7487,9304.5992 L8496.7487,8790.2492 L8003.0362,8790.2492 L8003.0362,9304.5992 Z" style="fill-rule:evenodd;"/>
                <!-- Hatch -->
                <path d="M8574.5362,8790.2492 A50.8,50.8 0 0 0 8525.3492,8752.1492 L8053.8618,8752.1492 L8053.8618,8790.2492 ZM8525.3495,9342.6992 A50.8,50.8 0 0 0 8574.5362,9304.5992 L8053.8618,9304.5992 L8053.8618,9342.6992 L8525.3495,9342.6992" style="fill-rule:evenodd;"/>
            </g>
            <!-- Block Reference: chair_04_top_cad-block.com / entities: 8 -->
            <g>
                <!-- Line -->
                <path d="M7921.3343,10179.4226 L8285.0346,9815.7222 " style="stroke:#000000;stroke-width:0.1;"/>
                <!-- Arc -->
                <path d="M7914.6172,10226.5871 A50.8,50.8 0 0,0 7976.3383,10234.4267" style="stroke:#000000;stroke-width:0.1;"/>
                <!-- Arc -->
                <path d="M8340.0387,9870.7263 A50.8,50.8 0 0,0 8332.1991,9809.0052" style="stroke:#000000;stroke-width:0.1;"/>
                <!-- Polyline -->
                <path d="M8332.1991,9809.0052 L7998.8071,9475.6131 L7971.8663,9502.5539" style="stroke:#000000;stroke-width:0.1;"/>
                <!-- Polyline -->
                <path d="M7914.6172,10226.5871 L7581.2252,9893.1951 L7608.1659,9866.2543" style="stroke:#000000;stroke-width:0.1;"/>
                <!-- Polyline -->
                <path d="M7572.2268,9830.3152 L7935.9272,9466.6148 L8340.0387,9870.7263 L7976.3383,10234.4267 Z" style="stroke:#000000;stroke-width:0.1;"/>
                <!-- Hatch -->
                <path d="M7976.3383,10234.4267 L8340.0387,9870.7263 L8285.0346,9815.7222 L7921.3343,10179.4226 ZM7921.3343,10179.4226 L8285.0346,9815.7222 L7935.9272,9466.6148 L7572.2268,9830.3152 Z" style="fill-rule:evenodd;"/>
                <!-- Hatch -->
                <path d="M8340.0387,9870.7263 A50.8,50.8 0 0 0 8332.199,9809.0051 L7998.8071,9475.6131 L7971.8663,9502.5539 ZM7914.6173,10226.5872 A50.8,50.8 0 0 0 7976.3383,10234.4267 L7608.1659,9866.2543 L7581.2252,9893.1951 L7914.6173,10226.5872" style="fill-rule:evenodd;"/>
            </g>
            <!-- Block Reference: chair_04_top_cad-block.com / entities: 8 -->
            <g>
                <!-- Line -->
                <path d="M6895.8612,10391.1367 L7410.2112,10391.1367 " style="stroke:#000000;stroke-width:0.1;"/>
                <!-- Arc -->
                <path d="M6857.7612,10419.7373 A50.8,50.8 0 0,0 6895.8612,10468.9242" style="stroke:#000000;stroke-width:0.1;"/>
                <!-- Arc -->
                <path d="M7410.2112,10468.9242 A50.8,50.8 0 0,0 7448.3112,10419.7373" style="stroke:#000000;stroke-width:0.1;"/>
                <!-- Polyline -->
                <path d="M7448.3112,10419.7373 L7448.3112,9948.2498 L7410.2112,9948.2498" style="stroke:#000000;stroke-width:0.1;"/>
                <!-- Polyline -->
                <path d="M6857.7612,10419.7373 L6857.7612,9948.2498 L6895.8612,9948.2498" style="stroke:#000000;stroke-width:0.1;"/>
                <!-- Polyline -->
                <path d="M6895.8612,9897.4242 L7410.2112,9897.4242 L7410.2112,10468.9242 L6895.8612,10468.9242 Z" style="stroke:#000000;stroke-width:0.1;"/>
                <!-- Hatch -->
                <path d="M6895.8612,10468.9242 L7410.2112,10468.9242 L7410.2112,10391.1367 L6895.8612,10391.1367 ZM6895.8612,10391.1367 L7410.2112,10391.1367 L7410.2112,9897.4242 L6895.8612,9897.4242 Z" style="fill-rule:evenodd;"/>
                <!-- Hatch -->
                <path d="M7410.2112,10468.9242 A50.8,50.8 0 0 0 7448.3112,10419.7372 L7448.3112,9948.2498 L7410.2112,9948.2498 ZM6857.7612,10419.7375 A50.8,50.8 0 0 0 6895.8612,10468.9242 L6895.8612,9948.2498 L6857.7612,9948.2498 L6857.7612,10419.7375" style="fill-rule:evenodd;"/>
            </g>
            <!-- Block Reference: chair_04_top_cad-block.com / entities: 8 -->
            <g>
                <!-- Line -->
                <path d="M6021.0378,9815.7222 L6384.7382,10179.4226 " style="stroke:#000000;stroke-width:0.1;"/>
                <!-- Arc -->
                <path d="M5973.8734,9809.0052 A50.8,50.8 0 0,0 5966.0338,9870.7263" style="stroke:#000000;stroke-width:0.1;"/>
                <!-- Arc -->
                <path d="M6329.7341,10234.4267 A50.8,50.8 0 0,0 6391.4553,10226.5871" style="stroke:#000000;stroke-width:0.1;"/>
                <!-- Polyline -->
                <path d="M6391.4553,10226.5871 L6724.8473,9893.1951 L6697.9065,9866.2543" style="stroke:#000000;stroke-width:0.1;"/>
                <!-- Polyline -->
                <path d="M5973.8734,9809.0052 L6307.2654,9475.6131 L6334.2061,9502.5539" style="stroke:#000000;stroke-width:0.1;"/>
                <!-- Polyline -->
                <path d="M6370.1453,9466.6148 L6733.8457,9830.3152 L6329.7341,10234.4267 L5966.0338,9870.7263 Z" style="stroke:#000000;stroke-width:0.1;"/>
                <!-- Hatch -->
                <path d="M5966.0338,9870.7263 L6329.7341,10234.4267 L6384.7382,10179.4226 L6021.0378,9815.7222 ZM6021.0378,9815.7222 L6384.7382,10179.4226 L6733.8457,9830.3152 L6370.1453,9466.6148 Z" style="fill-rule:evenodd;"/>
                <!-- Hatch -->
                <path d="M6329.7341,10234.4267 A50.8,50.8 0 0 0 6391.4554,10226.587 L6724.8473,9893.1951 L6697.9065,9866.2543 ZM5973.8733,9809.0053 A50.8,50.8 0 0 0 5966.0338,9870.7263 L6334.2061,9502.5539 L6307.2654,9475.6131 L5973.8733,9809.0053" style="fill-rule:evenodd;"/>
            </g>
            <!-- Block Reference: Table round R750_top_cad-block.com / entities: 2 -->
            <g>
                <!-- Hatch -->
                <path d="M7903.0362,9047.4242 A750,750 0 0 0 6403.0362,9047.4242 A750,750 0 0 0 7903.0362,9047.4242 Z" style="fill-rule:evenodd;"/>
                <!-- Circle -->
            </g>
            <!-- Block Reference: chair_04_top_cad-block.com / entities: 8 -->
            <g>
                <!-- Line -->
                <path d="M2009.3237,8790.2492 L2009.3237,9304.5992 " style="stroke:#000000;stroke-width:0.1;"/>
                <!-- Arc -->
                <path d="M1980.7231,8752.1492 A50.8,50.8 0 0,0 1931.5362,8790.2492" style="stroke:#000000;stroke-width:0.1;"/>
                <!-- Arc -->
                <path d="M1931.5362,9304.5992 A50.8,50.8 0 0,0 1980.7231,9342.6992" style="stroke:#000000;stroke-width:0.1;"/>
                <!-- Polyline -->
                <path d="M1980.7231,9342.6992 L2452.2106,9342.6992 L2452.2106,9304.5992" style="stroke:#000000;stroke-width:0.1;"/>
                <!-- Polyline -->
                <path d="M1980.7231,8752.1492 L2452.2106,8752.1492 L2452.2106,8790.2492" style="stroke:#000000;stroke-width:0.1;"/>
                <!-- Polyline -->
                <path d="M2503.0362,8790.2492 L2503.0362,9304.5992 L1931.5362,9304.5992 L1931.5362,8790.2492 Z" style="stroke:#000000;stroke-width:0.1;"/>
                <!-- Hatch -->
                <path d="M1931.5362,8790.2492 L1931.5362,9304.5992 L2009.3237,9304.5992 L2009.3237,8790.2492 ZM2009.3237,8790.2492 L2009.3237,9304.5992 L2503.0362,9304.5992 L2503.0362,8790.2492 Z" style="fill-rule:evenodd;"/>
                <!-- Hatch -->
                <path d="M1931.5362,9304.5992 A50.8,50.8 0 0 0 1980.7233,9342.6992 L2452.2106,9342.6992 L2452.2106,9304.5992 ZM1980.723,8752.1492 A50.8,50.8 0 0 0 1931.5362,8790.2492 L2452.2106,8790.2492 L2452.2106,8752.1492 L1980.723,8752.1492" style="fill-rule:evenodd;"/>
            </g>
            <!-- Block Reference: chair_04_top_cad-block.com / entities: 8 -->
            <g>
                <!-- Line -->
                <path d="M2584.7382,7915.4258 L2221.0378,8279.1262 " style="stroke:#000000;stroke-width:0.1;"/>
                <!-- Arc -->
                <path d="M2591.4553,7868.2613 A50.8,50.8 0 0,0 2529.7341,7860.4217" style="stroke:#000000;stroke-width:0.1;"/>
                <!-- Arc -->
                <path d="M2166.0338,8224.1221 A50.8,50.8 0 0,0 2173.8734,8285.8433" style="stroke:#000000;stroke-width:0.1;"/>
                <!-- Polyline -->
                <path d="M2173.8734,8285.8433 L2507.2654,8619.2353 L2534.2061,8592.2945" style="stroke:#000000;stroke-width:0.1;"/>
                <!-- Polyline -->
                <path d="M2591.4553,7868.2613 L2924.8473,8201.6534 L2897.9065,8228.5941" style="stroke:#000000;stroke-width:0.1;"/>
                <!-- Polyline -->
                <path d="M2933.8457,8264.5333 L2570.1453,8628.2336 L2166.0338,8224.1221 L2529.7341,7860.4217 Z" style="stroke:#000000;stroke-width:0.1;"/>
                <!-- Hatch -->
                <path d="M2529.7341,7860.4217 L2166.0338,8224.1221 L2221.0378,8279.1262 L2584.7382,7915.4258 ZM2584.7382,7915.4258 L2221.0378,8279.1262 L2570.1453,8628.2336 L2933.8457,8264.5333 Z" style="fill-rule:evenodd;"/>
                <!-- Hatch -->
                <path d="M2166.0338,8224.1221 A50.8,50.8 0 0 0 2173.8735,8285.8433 L2507.2654,8619.2353 L2534.2061,8592.2945 ZM2591.4552,7868.2612 A50.8,50.8 0 0 0 2529.7341,7860.4217 L2897.9065,8228.5941 L2924.8473,8201.6534 L2591.4552,7868.2612" style="fill-rule:evenodd;"/>
            </g>
            <!-- Block Reference: chair_04_top_cad-block.com / entities: 8 -->
            <g>
                <!-- Line -->
                <path d="M3610.2112,7703.7117 L3095.8612,7703.7117 " style="stroke:#000000;stroke-width:0.1;"/>
                <!-- Arc -->
                <path d="M3648.3112,7675.1111 A50.8,50.8 0 0,0 3610.2112,7625.9242" style="stroke:#000000;stroke-width:0.1;"/>
                <!-- Arc -->
                <path d="M3095.8612,7625.9242 A50.8,50.8 0 0,0 3057.7612,7675.1111" style="stroke:#000000;stroke-width:0.1;"/>
                <!-- Polyline -->
                <path d="M3057.7612,7675.1111 L3057.7612,8146.5986 L3095.8612,8146.5986" style="stroke:#000000;stroke-width:0.1;"/>
                <!-- Polyline -->
                <path d="M3648.3112,7675.1111 L3648.3112,8146.5986 L3610.2112,8146.5986" style="stroke:#000000;stroke-width:0.1;"/>
                <!-- Polyline -->
                <path d="M3610.2112,8197.4242 L3095.8612,8197.4242 L3095.8612,7625.9242 L3610.2112,7625.9242 Z" style="stroke:#000000;stroke-width:0.1;"/>
                <!-- Hatch -->
                <path d="M3610.2112,7625.9242 L3095.8612,7625.9242 L3095.8612,7703.7117 L3610.2112,7703.7117 ZM3610.2112,7703.7117 L3095.8612,7703.7117 L3095.8612,8197.4242 L3610.2112,8197.4242 Z" style="fill-rule:evenodd;"/>
                <!-- Hatch -->
                <path d="M3095.8612,7625.9242 A50.8,50.8 0 0 0 3057.7612,7675.1112 L3057.7612,8146.5986 L3095.8612,8146.5986 ZM3648.3112,7675.111 A50.8,50.8 0 0 0 3610.2112,7625.9242 L3610.2112,8146.5986 L3648.3112,8146.5986 L3648.3112,7675.111" style="fill-rule:evenodd;"/>
            </g>
            <!-- Block Reference: chair_04_top_cad-block.com / entities: 8 -->
            <g>
                <!-- Line -->
                <path d="M4485.0346,8279.1262 L4121.3343,7915.4258 " style="stroke:#000000;stroke-width:0.1;"/>
                <!-- Arc -->
                <path d="M4532.1991,8285.8433 A50.8,50.8 0 0,0 4540.0387,8224.1221" style="stroke:#000000;stroke-width:0.1;"/>
                <!-- Arc -->
                <path d="M4176.3383,7860.4217 A50.8,50.8 0 0,0 4114.6172,7868.2613" style="stroke:#000000;stroke-width:0.1;"/>
                <!-- Polyline -->
                <path d="M4114.6172,7868.2613 L3781.2252,8201.6534 L3808.1659,8228.5941" style="stroke:#000000;stroke-width:0.1;"/>
                <!-- Polyline -->
                <path d="M4532.1991,8285.8433 L4198.8071,8619.2353 L4171.8663,8592.2945" style="stroke:#000000;stroke-width:0.1;"/>
                <!-- Polyline -->
                <path d="M4135.9272,8628.2336 L3772.2268,8264.5333 L4176.3383,7860.4217 L4540.0387,8224.1221 Z" style="stroke:#000000;stroke-width:0.1;"/>
                <!-- Hatch -->
                <path d="M4540.0387,8224.1221 L4176.3383,7860.4217 L4121.3343,7915.4258 L4485.0346,8279.1262 ZM4485.0346,8279.1262 L4121.3343,7915.4258 L3772.2268,8264.5333 L4135.9272,8628.2336 Z" style="fill-rule:evenodd;"/>
                <!-- Hatch -->
                <path d="M4176.3383,7860.4217 A50.8,50.8 0 0 0 4114.6171,7868.2614 L3781.2252,8201.6534 L3808.1659,8228.5941 ZM4532.1992,8285.8432 A50.8,50.8 0 0 0 4540.0387,8224.1221 L4171.8663,8592.2945 L4198.8071,8619.2353 L4532.1992,8285.8432" style="fill-rule:evenodd;"/>
            </g>
            <!-- Block Reference: chair_04_top_cad-block.com / entities: 8 -->
            <g>
                <!-- Line -->
                <path d="M4696.7487,9304.5992 L4696.7487,8790.2492 " style="stroke:#000000;stroke-width:0.1;"/>
                <!-- Arc -->
                <path d="M4725.3493,9342.6992 A50.8,50.8 0 0,0 4774.5362,9304.5992" style="stroke:#000000;stroke-width:0.1;"/>
                <!-- Arc -->
                <path d="M4774.5362,8790.2492 A50.8,50.8 0 0,0 4725.3493,8752.1492" style="stroke:#000000;stroke-width:0.1;"/>
                <!-- Polyline -->
                <path d="M4725.3493,8752.1492 L4253.8618,8752.1492 L4253.8618,8790.2492" style="stroke:#000000;stroke-width:0.1;"/>
                <!-- Polyline -->
                <path d="M4725.3493,9342.6992 L4253.8618,9342.6992 L4253.8618,9304.5992" style="stroke:#000000;stroke-width:0.1;"/>
                <!-- Polyline -->
                <path d="M4203.0362,9304.5992 L4203.0362,8790.2492 L4774.5362,8790.2492 L4774.5362,9304.5992 Z" style="stroke:#000000;stroke-width:0.1;"/>
                <!-- Hatch -->
                <path d="M4774.5362,9304.5992 L4774.5362,8790.2492 L4696.7487,8790.2492 L4696.7487,9304.5992 ZM4696.7487,9304.5992 L4696.7487,8790.2492 L4203.0362,8790.2492 L4203.0362,9304.5992 Z" style="fill-rule:evenodd;"/>
                <!-- Hatch -->
                <path d="M4774.5362,8790.2492 A50.8,50.8 0 0 0 4725.3492,8752.1492 L4253.8618,8752.1492 L4253.8618,8790.2492 ZM4725.3495,9342.6992 A50.8,50.8 0 0 0 4774.5362,9304.5992 L4253.8618,9304.5992 L4253.8618,9342.6992 L4725.3495,9342.6992" style="fill-rule:evenodd;"/>
            </g>
            <!-- Block Reference: chair_04_top_cad-block.com / entities: 8 -->
            <g>
                <!-- Line -->
                <path d="M4121.3343,10179.4226 L4485.0346,9815.7222 " style="stroke:#000000;stroke-width:0.1;"/>
                <!-- Arc -->
                <path d="M4114.6172,10226.5871 A50.8,50.8 0 0,0 4176.3383,10234.4267" style="stroke:#000000;stroke-width:0.1;"/>
                <!-- Arc -->
                <path d="M4540.0387,9870.7263 A50.8,50.8 0 0,0 4532.1991,9809.0052" style="stroke:#000000;stroke-width:0.1;"/>
                <!-- Polyline -->
                <path d="M4532.1991,9809.0052 L4198.8071,9475.6131 L4171.8663,9502.5539" style="stroke:#000000;stroke-width:0.1;"/>
                <!-- Polyline -->
                <path d="M4114.6172,10226.5871 L3781.2252,9893.1951 L3808.1659,9866.2543" style="stroke:#000000;stroke-width:0.1;"/>
                <!-- Polyline -->
                <path d="M3772.2268,9830.3152 L4135.9272,9466.6148 L4540.0387,9870.7263 L4176.3383,10234.4267 Z" style="stroke:#000000;stroke-width:0.1;"/>
                <!-- Hatch -->
                <path d="M4176.3383,10234.4267 L4540.0387,9870.7263 L4485.0346,9815.7222 L4121.3343,10179.4226 ZM4121.3343,10179.4226 L4485.0346,9815.7222 L4135.9272,9466.6148 L3772.2268,9830.3152 Z" style="fill-rule:evenodd;"/>
                <!-- Hatch -->
                <path d="M4540.0387,9870.7263 A50.8,50.8 0 0 0 4532.199,9809.0051 L4198.8071,9475.6131 L4171.8663,9502.5539 ZM4114.6173,10226.5872 A50.8,50.8 0 0 0 4176.3383,10234.4267 L3808.1659,9866.2543 L3781.2252,9893.1951 L4114.6173,10226.5872" style="fill-rule:evenodd;"/>
            </g>
            <!-- Block Reference: chair_04_top_cad-block.com / entities: 8 -->
            <g>
                <!-- Line -->
                <path d="M3095.8612,10391.1367 L3610.2112,10391.1367 " style="stroke:#000000;stroke-width:0.1;"/>
                <!-- Arc -->
                <path d="M3057.7612,10419.7373 A50.8,50.8 0 0,0 3095.8612,10468.9242" style="stroke:#000000;stroke-width:0.1;"/>
                <!-- Arc -->
                <path d="M3610.2112,10468.9242 A50.8,50.8 0 0,0 3648.3112,10419.7373" style="stroke:#000000;stroke-width:0.1;"/>
                <!-- Polyline -->
                <path d="M3648.3112,10419.7373 L3648.3112,9948.2498 L3610.2112,9948.2498" style="stroke:#000000;stroke-width:0.1;"/>
                <!-- Polyline -->
                <path d="M3057.7612,10419.7373 L3057.7612,9948.2498 L3095.8612,9948.2498" style="stroke:#000000;stroke-width:0.1;"/>
                <!-- Polyline -->
                <path d="M3095.8612,9897.4242 L3610.2112,9897.4242 L3610.2112,10468.9242 L3095.8612,10468.9242 Z" style="stroke:#000000;stroke-width:0.1;"/>
                <!-- Hatch -->
                <path d="M3095.8612,10468.9242 L3610.2112,10468.9242 L3610.2112,10391.1367 L3095.8612,10391.1367 ZM3095.8612,10391.1367 L3610.2112,10391.1367 L3610.2112,9897.4242 L3095.8612,9897.4242 Z" style="fill-rule:evenodd;"/>
                <!-- Hatch -->
                <path d="M3610.2112,10468.9242 A50.8,50.8 0 0 0 3648.3112,10419.7372 L3648.3112,9948.2498 L3610.2112,9948.2498 ZM3057.7612,10419.7375 A50.8,50.8 0 0 0 3095.8612,10468.9242 L3095.8612,9948.2498 L3057.7612,9948.2498 L3057.7612,10419.7375" style="fill-rule:evenodd;"/>
            </g>
            <!-- Block Reference: chair_04_top_cad-block.com / entities: 8 -->
            <g>
                <!-- Line -->
                <path d="M2221.0378,9815.7222 L2584.7382,10179.4226 " style="stroke:#000000;stroke-width:0.1;"/>
                <!-- Arc -->
                <path d="M2173.8734,9809.0052 A50.8,50.8 0 0,0 2166.0338,9870.7263" style="stroke:#000000;stroke-width:0.1;"/>
                <!-- Arc -->
                <path d="M2529.7341,10234.4267 A50.8,50.8 0 0,0 2591.4553,10226.5871" style="stroke:#000000;stroke-width:0.1;"/>
                <!-- Polyline -->
                <path d="M2591.4553,10226.5871 L2924.8473,9893.1951 L2897.9065,9866.2543" style="stroke:#000000;stroke-width:0.1;"/>
                <!-- Polyline -->
                <path d="M2173.8734,9809.0052 L2507.2654,9475.6131 L2534.2061,9502.5539" style="stroke:#000000;stroke-width:0.1;"/>
                <!-- Polyline -->
                <path d="M2570.1453,9466.6148 L2933.8457,9830.3152 L2529.7341,10234.4267 L2166.0338,9870.7263 Z" style="stroke:#000000;stroke-width:0.1;"/>
                <!-- Hatch -->
                <path d="M2166.0338,9870.7263 L2529.7341,10234.4267 L2584.7382,10179.4226 L2221.0378,9815.7222 ZM2221.0378,9815.7222 L2584.7382,10179.4226 L2933.8457,9830.3152 L2570.1453,9466.6148 Z" style="fill-rule:evenodd;"/>
                <!-- Hatch -->
                <path d="M2529.7341,10234.4267 A50.8,50.8 0 0 0 2591.4554,10226.587 L2924.8473,9893.1951 L2897.9065,9866.2543 ZM2173.8733,9809.0053 A50.8,50.8 0 0 0 2166.0338,9870.7263 L2534.2061,9502.5539 L2507.2654,9475.6131 L2173.8733,9809.0053" style="fill-rule:evenodd;"/>
            </g>
            <!-- Block Reference: Table round R750_top_cad-block.com / entities: 2 -->
            <g>
                <!-- Hatch -->
                <path d="M4103.0362,9047.4242 A750,750 0 0 0 2603.0362,9047.4242 A750,750 0 0 0 4103.0362,9047.4242 Z" style="fill-rule:evenodd;"/>
                <!-- Circle -->
            </g>
        </g>
    </g>
</svg>

