<?xml version="1.0" encoding="UTF-8"?>
<!-- 2026-03-10 13:35:26 Generated by QCAD 3.32.6 SVG Exporter -->
<svg  width="6943mm" height="2843mm" viewBox="-5.098 -2890.194 6943 2843" version="1.1" xmlns="http://www.w3.org/2000/svg" style="stroke-linecap:round;stroke-linejoin:round;">
    <g transform="scale(1,-1)">
            <!-- Auto-generated fillable area -->
            <!-- Block Reference: Boardroom / entities: 20 -->
        <g>
            <!-- Block Reference: chair_04_top_cad-block.com / entities: 8 -->
            <g>
                <!-- Line -->
                <path d="M72.6895,1725.869 L72.6895,1211.519 " style="stroke:#000000;stroke-width:0.1;"/>
                <!-- Arc -->
                <path d="M44.0889,1763.969 A50.8,50.8 0 0,1 -5.098,1725.869" style="stroke:#000000;stroke-width:0.1;"/>
                <!-- Arc -->
                <path d="M-5.098,1211.519 A50.8,50.8 0 0,1 44.0889,1173.419" style="stroke:#000000;stroke-width:0.1;"/>
                <!-- Polyline -->
                <path d="M44.0889,1173.419 L515.5764,1173.419 L515.5764,1211.519" style="stroke:#000000;stroke-width:0.1;"/>
                <!-- Polyline -->
                <path d="M44.0889,1763.969 L515.5764,1763.969 L515.5764,1725.869" style="stroke:#000000;stroke-width:0.1;"/>
                <!-- Polyline -->
                <path d="M566.402,1725.869 L566.402,1211.519 L-5.098,1211.519 L-5.098,1725.869 Z" style="stroke:#000000;stroke-width:0.1;"/>
                <!-- Hatch -->
                <path d="M-5.098,1725.869 L-5.098,1211.519 L72.6895,1211.519 L72.6895,1725.869 ZM72.6895,1725.869 L72.6895,1211.519 L566.402,1211.519 L566.402,1725.869 Z" style="fill-rule:evenodd;"/>
                <!-- Hatch -->
                <path d="M-5.098,1211.519 A50.8,50.8 0 0 1 44.089,1173.419 L515.5764,1173.419 L515.5764,1211.519 ZM44.0888,1763.969 A50.8,50.8 0 0 1 -5.098,1725.869 L515.5764,1725.869 L515.5764,1763.969 L44.0888,1763.969" style="fill-rule:evenodd;"/>
            </g>
            <!-- Block Reference: chair_04_top_cad-block.com / entities: 8 -->
            <g>
                <!-- Line -->
                <path d="M2859.227,2812.4065 L3373.577,2812.4065 " style="stroke:#000000;stroke-width:0.1;"/>
                <!-- Arc -->
                <path d="M2821.127,2841.0071 A50.8,50.8 0 0,0 2859.227,2890.194" style="stroke:#000000;stroke-width:0.1;"/>
                <!-- Arc -->
                <path d="M3373.577,2890.194 A50.8,50.8 0 0,0 3411.677,2841.0071" style="stroke:#000000;stroke-width:0.1;"/>
                <!-- Polyline -->
                <path d="M3411.677,2841.0071 L3411.677,2369.5196 L3373.577,2369.5196" style="stroke:#000000;stroke-width:0.1;"/>
                <!-- Polyline -->
                <path d="M2821.127,2841.0071 L2821.127,2369.5196 L2859.227,2369.5196" style="stroke:#000000;stroke-width:0.1;"/>
                <!-- Polyline -->
                <path d="M2859.227,2318.694 L3373.577,2318.694 L3373.577,2890.194 L2859.227,2890.194 Z" style="stroke:#000000;stroke-width:0.1;"/>
                <!-- Hatch -->
                <path d="M2859.227,2890.194 L3373.577,2890.194 L3373.577,2812.4065 L2859.227,2812.4065 ZM2859.227,2812.4065 L3373.577,2812.4065 L3373.577,2318.694 L2859.227,2318.694 Z" style="fill-rule:evenodd;"/>
                <!-- Hatch -->
                <path d="M3373.577,2890.194 A50.8,50.8 0 0 0 3411.677,2841.0069 L3411.677,2369.5196 L3373.577,2369.5196 ZM2821.127,2841.0072 A50.8,50.8 0 0 0 2859.227,2890.194 L2859.227,2369.5196 L2821.127,2369.5196 L2821.127,2841.0072" style="fill-rule:evenodd;"/>
            </g>
            <!-- Block Reference: chair_04_top_cad-block.com / entities: 8 -->
            <g>
                <!-- Line -->
                <path d="M2159.227,2812.4065 L2673.577,2812.4065 " style="stroke:#000000;stroke-width:0.1;"/>
                <!-- Arc -->
                <path d="M2121.127,2841.0071 A50.8,50.8 0 0,0 2159.227,2890.194" style="stroke:#000000;stroke-width:0.1;"/>
                <!-- Arc -->
                <path d="M2673.577,2890.194 A50.8,50.8 0 0,0 2711.677,2841.0071" style="stroke:#000000;stroke-width:0.1;"/>
                <!-- Polyline -->
                <path d="M2711.677,2841.0071 L2711.677,2369.5196 L2673.577,2369.5196" style="stroke:#000000;stroke-width:0.1;"/>
                <!-- Polyline -->
                <path d="M2121.127,2841.0071 L2121.127,2369.5196 L2159.227,2369.5196" style="stroke:#000000;stroke-width:0.1;"/>
                <!-- Polyline -->
                <path d="M2159.227,2318.694 L2673.577,2318.694 L2673.577,2890.194 L2159.227,2890.194 Z" style="stroke:#000000;stroke-width:0.1;"/>
                <!-- Hatch -->
                <path d="M2159.227,2890.194 L2673.577,2890.194 L2673.577,2812.4065 L2159.227,2812.4065 ZM2159.227,2812.4065 L2673.577,2812.4065 L2673.577,2318.694 L2159.227,2318.694 Z" style="fill-rule:evenodd;"/>
                <!-- Hatch -->
                <path d="M2673.577,2890.194 A50.8,50.8 0 0 0 2711.677,2841.0069 L2711.677,2369.5196 L2673.577,2369.5196 ZM2121.127,2841.0072 A50.8,50.8 0 0 0 2159.227,2890.194 L2159.227,2369.5196 L2121.127,2369.5196 L2121.127,2841.0072" style="fill-rule:evenodd;"/>
            </g>
            <!-- Block Reference: chair_04_top_cad-block.com / entities: 8 -->
            <g>
                <!-- Line -->
                <path d="M1273.577,2812.4065 L759.227,2812.4065 " style="stroke:#000000;stroke-width:0.1;"/>
                <!-- Arc -->
                <path d="M1311.677,2841.0071 A50.8,50.8 0 0,1 1273.577,2890.194" style="stroke:#000000;stroke-width:0.1;"/>
                <!-- Arc -->
                <path d="M759.227,2890.194 A50.8,50.8 0 0,1 721.127,2841.0071" style="stroke:#000000;stroke-width:0.1;"/>
                <!-- Polyline -->
                <path d="M721.127,2841.0071 L721.127,2369.5196 L759.227,2369.5196" style="stroke:#000000;stroke-width:0.1;"/>
                <!-- Polyline -->
                <path d="M1311.677,2841.0071 L1311.677,2369.5196 L1273.577,2369.5196" style="stroke:#000000;stroke-width:0.1;"/>
                <!-- Polyline -->
                <path d="M1273.577,2318.694 L759.227,2318.694 L759.227,2890.194 L1273.577,2890.194 Z" style="stroke:#000000;stroke-width:0.1;"/>
                <!-- Hatch -->
                <path d="M1273.577,2890.194 L759.227,2890.194 L759.227,2812.4065 L1273.577,2812.4065 ZM1273.577,2812.4065 L759.227,2812.4065 L759.227,2318.694 L1273.577,2318.694 Z" style="fill-rule:evenodd;"/>
                <!-- Hatch -->
                <path d="M759.227,2890.194 A50.8,50.8 0 0 1 721.127,2841.0069 L721.127,2369.5196 L759.227,2369.5196 ZM1311.677,2841.0072 A50.8,50.8 0 0 1 1273.577,2890.194 L1273.577,2369.5196 L1311.677,2369.5196 L1311.677,2841.0072" style="fill-rule:evenodd;"/>
            </g>
            <!-- Block Reference: chair_04_top_cad-block.com / entities: 8 -->
            <g>
                <!-- Line -->
                <path d="M1973.577,2812.4065 L1459.227,2812.4065 " style="stroke:#000000;stroke-width:0.1;"/>
                <!-- Arc -->
                <path d="M2011.677,2841.0071 A50.8,50.8 0 0,1 1973.577,2890.194" style="stroke:#000000;stroke-width:0.1;"/>
                <!-- Arc -->
                <path d="M1459.227,2890.194 A50.8,50.8 0 0,1 1421.127,2841.0071" style="stroke:#000000;stroke-width:0.1;"/>
                <!-- Polyline -->
                <path d="M1421.127,2841.0071 L1421.127,2369.5196 L1459.227,2369.5196" style="stroke:#000000;stroke-width:0.1;"/>
                <!-- Polyline -->
                <path d="M2011.677,2841.0071 L2011.677,2369.5196 L1973.577,2369.5196" style="stroke:#000000;stroke-width:0.1;"/>
                <!-- Polyline -->
                <path d="M1973.577,2318.694 L1459.227,2318.694 L1459.227,2890.194 L1973.577,2890.194 Z" style="stroke:#000000;stroke-width:0.1;"/>
                <!-- Hatch -->
                <path d="M1973.577,2890.194 L1459.227,2890.194 L1459.227,2812.4065 L1973.577,2812.4065 ZM1973.577,2812.4065 L1459.227,2812.4065 L1459.227,2318.694 L1973.577,2318.694 Z" style="fill-rule:evenodd;"/>
                <!-- Hatch -->
                <path d="M1459.227,2890.194 A50.8,50.8 0 0 1 1421.127,2841.0069 L1421.127,2369.5196 L1459.227,2369.5196 ZM2011.677,2841.0072 A50.8,50.8 0 0 1 1973.577,2890.194 L1973.577,2369.5196 L2011.677,2369.5196 L2011.677,2841.0072" style="fill-rule:evenodd;"/>
            </g>
            <!-- Block Reference: chair_04_top_cad-block.com / entities: 8 -->
            <g>
                <!-- Line -->
                <path d="M2859.227,124.9815 L3373.577,124.9815 " style="stroke:#000000;stroke-width:0.1;"/>
                <!-- Arc -->
                <path d="M2821.127,96.3808 A50.8,50.8 0 0,1 2859.227,47.194" style="stroke:#000000;stroke-width:0.1;"/>
                <!-- Arc -->
                <path d="M3373.577,47.194 A50.8,50.8 0 0,1 3411.677,96.3808" style="stroke:#000000;stroke-width:0.1;"/>
                <!-- Polyline -->
                <path d="M3411.677,96.3808 L3411.677,567.8683 L3373.577,567.8683" style="stroke:#000000;stroke-width:0.1;"/>
                <!-- Polyline -->
                <path d="M2821.127,96.3808 L2821.127,567.8683 L2859.227,567.8683" style="stroke:#000000;stroke-width:0.1;"/>
                <!-- Polyline -->
                <path d="M2859.227,618.694 L3373.577,618.694 L3373.577,47.194 L2859.227,47.194 Z" style="stroke:#000000;stroke-width:0.1;"/>
                <!-- Hatch -->
                <path d="M2859.227,47.194 L3373.577,47.194 L3373.577,124.9815 L2859.227,124.9815 ZM2859.227,124.9815 L3373.577,124.9815 L3373.577,618.694 L2859.227,618.694 Z" style="fill-rule:evenodd;"/>
                <!-- Hatch -->
                <path d="M3373.577,47.194 A50.8,50.8 0 0 1 3411.677,96.381 L3411.677,567.8683 L3373.577,567.8683 ZM2821.127,96.3807 A50.8,50.8 0 0 1 2859.227,47.194 L2859.227,567.8683 L2821.127,567.8683 L2821.127,96.3807" style="fill-rule:evenodd;"/>
            </g>
            <!-- Block Reference: chair_04_top_cad-block.com / entities: 8 -->
            <g>
                <!-- Line -->
                <path d="M2159.227,124.9815 L2673.577,124.9815 " style="stroke:#000000;stroke-width:0.1;"/>
                <!-- Arc -->
                <path d="M2121.127,96.3808 A50.8,50.8 0 0,1 2159.227,47.194" style="stroke:#000000;stroke-width:0.1;"/>
                <!-- Arc -->
                <path d="M2673.577,47.194 A50.8,50.8 0 0,1 2711.677,96.3808" style="stroke:#000000;stroke-width:0.1;"/>
                <!-- Polyline -->
                <path d="M2711.677,96.3808 L2711.677,567.8683 L2673.577,567.8683" style="stroke:#000000;stroke-width:0.1;"/>
                <!-- Polyline -->
                <path d="M2121.127,96.3808 L2121.127,567.8683 L2159.227,567.8683" style="stroke:#000000;stroke-width:0.1;"/>
                <!-- Polyline -->
                <path d="M2159.227,618.694 L2673.577,618.694 L2673.577,47.194 L2159.227,47.194 Z" style="stroke:#000000;stroke-width:0.1;"/>
                <!-- Hatch -->
                <path d="M2159.227,47.194 L2673.577,47.194 L2673.577,124.9815 L2159.227,124.9815 ZM2159.227,124.9815 L2673.577,124.9815 L2673.577,618.694 L2159.227,618.694 Z" style="fill-rule:evenodd;"/>
                <!-- Hatch -->
                <path d="M2673.577,47.194 A50.8,50.8 0 0 1 2711.677,96.381 L2711.677,567.8683 L2673.577,567.8683 ZM2121.127,96.3807 A50.8,50.8 0 0 1 2159.227,47.194 L2159.227,567.8683 L2121.127,567.8683 L2121.127,96.3807" style="fill-rule:evenodd;"/>
            </g>
            <!-- Block Reference: chair_04_top_cad-block.com / entities: 8 -->
            <g>
                <!-- Line -->
                <path d="M1273.577,124.9815 L759.227,124.9815 " style="stroke:#000000;stroke-width:0.1;"/>
                <!-- Arc -->
                <path d="M1311.677,96.3808 A50.8,50.8 0 0,0 1273.577,47.194" style="stroke:#000000;stroke-width:0.1;"/>
                <!-- Arc -->
                <path d="M759.227,47.194 A50.8,50.8 0 0,0 721.127,96.3808" style="stroke:#000000;stroke-width:0.1;"/>
                <!-- Polyline -->
                <path d="M721.127,96.3808 L721.127,567.8683 L759.227,567.8683" style="stroke:#000000;stroke-width:0.1;"/>
                <!-- Polyline -->
                <path d="M1311.677,96.3808 L1311.677,567.8683 L1273.577,567.8683" style="stroke:#000000;stroke-width:0.1;"/>
                <!-- Polyline -->
                <path d="M1273.577,618.694 L759.227,618.694 L759.227,47.194 L1273.577,47.194 Z" style="stroke:#000000;stroke-width:0.1;"/>
                <!-- Hatch -->
                <path d="M1273.577,47.194 L759.227,47.194 L759.227,124.9815 L1273.577,124.9815 ZM1273.577,124.9815 L759.227,124.9815 L759.227,618.694 L1273.577,618.694 Z" style="fill-rule:evenodd;"/>
                <!-- Hatch -->
                <path d="M759.227,47.194 A50.8,50.8 0 0 0 721.127,96.381 L721.127,567.8683 L759.227,567.8683 ZM1311.677,96.3807 A50.8,50.8 0 0 0 1273.577,47.194 L1273.577,567.8683 L1311.677,567.8683 L1311.677,96.3807" style="fill-rule:evenodd;"/>
            </g>
            <!-- Block Reference: chair_04_top_cad-block.com / entities: 8 -->
            <g>
                <!-- Line -->
                <path d="M1973.577,124.9815 L1459.227,124.9815 " style="stroke:#000000;stroke-width:0.1;"/>
                <!-- Arc -->
                <path d="M2011.677,96.3808 A50.8,50.8 0 0,0 1973.577,47.194" style="stroke:#000000;stroke-width:0.1;"/>
                <!-- Arc -->
                <path d="M1459.227,47.194 A50.8,50.8 0 0,0 1421.127,96.3808" style="stroke:#000000;stroke-width:0.1;"/>
                <!-- Polyline -->
                <path d="M1421.127,96.3808 L1421.127,567.8683 L1459.227,567.8683" style="stroke:#000000;stroke-width:0.1;"/>
                <!-- Polyline -->
                <path d="M2011.677,96.3808 L2011.677,567.8683 L1973.577,567.8683" style="stroke:#000000;stroke-width:0.1;"/>
                <!-- Polyline -->
                <path d="M1973.577,618.694 L1459.227,618.694 L1459.227,47.194 L1973.577,47.194 Z" style="stroke:#000000;stroke-width:0.1;"/>
                <!-- Hatch -->
                <path d="M1973.577,47.194 L1459.227,47.194 L1459.227,124.9815 L1973.577,124.9815 ZM1973.577,124.9815 L1459.227,124.9815 L1459.227,618.694 L1973.577,618.694 Z" style="fill-rule:evenodd;"/>
                <!-- Hatch -->
                <path d="M1459.227,47.194 A50.8,50.8 0 0 0 1421.127,96.381 L1421.127,567.8683 L1459.227,567.8683 ZM2011.677,96.3807 A50.8,50.8 0 0 0 1973.577,47.194 L1973.577,567.8683 L2011.677,567.8683 L2011.677,96.3807" style="fill-rule:evenodd;"/>
            </g>
            <!-- Block Reference: table x1 / entities: 15 -->
            <g>
                <!-- Hatch -->
                <path d="M3466.402,2218.694 L2066.402,2218.694 L2066.402,718.694 L3466.402,718.694 ZM2066.402,2218.694 L666.402,2218.694 L666.402,718.694 L2066.402,718.694 Z" style="fill-rule:evenodd;"/>
                <!-- Line -->
                <path d="M2956.402,1501.194 L2820.4645,1501.194 M2741.0895,1501.194 L2582.3395,1501.194 M2502.9645,1501.194 L2344.2145,1501.194 M2264.8395,1501.194 L2106.0895,1501.194 M2026.7145,1501.194 L1867.9645,1501.194 M1788.5895,1501.194 L1629.8395,1501.194 M1550.4645,1501.194 L1391.7145,1501.194 M1312.3395,1501.194 L1176.402,1501.194 " style="stroke:#000000;stroke-width:0.1;"/>
                <!-- Line -->
                <path d="M2956.402,1436.194 L2820.4645,1436.194 M2741.0895,1436.194 L2582.3395,1436.194 M2502.9645,1436.194 L2344.2145,1436.194 M2264.8395,1436.194 L2106.0895,1436.194 M2026.7145,1436.194 L1867.9645,1436.194 M1788.5895,1436.194 L1629.8395,1436.194 M1550.4645,1436.194 L1391.7145,1436.194 M1312.3395,1436.194 L1176.402,1436.194 " style="stroke:#000000;stroke-width:0.1;"/>
                <!-- Polyline -->
                <path d="M1166.402,1501.194 L1312.3395,1501.194 M1391.7145,1501.194 L1550.4645,1501.194 M1629.8395,1501.194 L1788.5895,1501.194 M1867.9645,1501.194 L2026.7145,1501.194 M2106.0895,1501.194 L2264.8395,1501.194 M2344.2145,1501.194 L2502.9645,1501.194 M2582.3395,1501.194 L2741.0895,1501.194 M2820.4645,1501.194 L2966.402,1501.194 L2966.402,1436.194 L2820.4645,1436.194 M2741.0895,1436.194 L2582.3395,1436.194 M2502.9645,1436.194 L2344.2145,1436.194 M2264.8395,1436.194 L2106.0895,1436.194 M2026.7145,1436.194 L1867.9645,1436.194 M1788.5895,1436.194 L1629.8395,1436.194 M1550.4645,1436.194 L1391.7145,1436.194 M1312.3395,1436.194 L1166.402,1436.194 L1166.402,1501.194 Z" style="stroke:#000000;stroke-width:0.1;"/>
                <!-- Polyline -->
                <path d="M1066.402,1887.194 L1066.402,1746.5065 M1066.402,1667.1315 L1066.402,1508.3815 M1066.402,1429.0065 L1066.402,1270.2565 M1066.402,1190.8815 L1066.402,1050.194 L1166.402,1050.194 L1166.402,1190.8815 M1166.402,1270.2565 L1166.402,1429.0065 M1166.402,1508.3815 L1166.402,1667.1315 M1166.402,1746.5065 L1166.402,1887.194 L1066.402,1887.194 Z" style="stroke:#000000;stroke-width:0.1;"/>
                <!-- Line -->
                <path d="M1066.402,1518.694 L1066.402,1418.694 " style="stroke:#000000;stroke-width:0.1;"/>
                <!-- Polyline -->
                <path d="M3066.402,1887.194 L3066.402,1746.5065 M3066.402,1667.1315 L3066.402,1508.3815 M3066.402,1429.0065 L3066.402,1270.2565 M3066.402,1190.8815 L3066.402,1050.194 L2966.402,1050.194 L2966.402,1190.8815 M2966.402,1270.2565 L2966.402,1429.0065 M2966.402,1508.3815 L2966.402,1667.1315 M2966.402,1746.5065 L2966.402,1887.194 L3066.402,1887.194 Z" style="stroke:#000000;stroke-width:0.1;"/>
                <!-- Polyline -->
                <path d="M2942.902,1982.194 L2872.902,1982.194 L2872.902,1900.444 M2872.902,1821.069 L2872.902,1662.319 M2872.902,1582.944 L2872.902,1501.194 L2942.902,1501.194 L2942.902,1582.944 M2942.902,1662.319 L2942.902,1821.069 M2942.902,1900.444 L2942.902,1982.194 Z" style="stroke:#000000;stroke-width:0.1;"/>
                <!-- Polyline -->
                <path d="M2942.902,955.194 L2872.902,955.194 L2872.902,1036.944 M2872.902,1116.319 L2872.902,1275.069 M2872.902,1354.444 L2872.902,1436.194 L2942.902,1436.194 L2942.902,1354.444 M2942.902,1275.069 L2942.902,1116.319 M2942.902,1036.944 L2942.902,955.194 Z" style="stroke:#000000;stroke-width:0.1;"/>
                <!-- Polyline -->
                <path d="M1189.902,1982.194 L1259.902,1982.194 L1259.902,1900.444 M1259.902,1821.069 L1259.902,1662.319 M1259.902,1582.944 L1259.902,1501.194 L1189.902,1501.194 L1189.902,1582.944 M1189.902,1662.319 L1189.902,1821.069 M1189.902,1900.444 L1189.902,1982.194 Z" style="stroke:#000000;stroke-width:0.1;"/>
                <!-- Polyline -->
                <path d="M1189.902,955.194 L1259.902,955.194 L1259.902,1036.944 M1259.902,1116.319 L1259.902,1275.069 M1259.902,1354.444 L1259.902,1436.194 L1189.902,1436.194 L1189.902,1354.444 M1189.902,1275.069 L1189.902,1116.319 M1189.902,1036.944 L1189.902,955.194 Z" style="stroke:#000000;stroke-width:0.1;"/>
                <!-- Polyline -->
                <path d="M2031.402,1982.194 L2101.402,1982.194 L2101.402,1900.444 M2101.402,1821.069 L2101.402,1662.319 M2101.402,1582.944 L2101.402,1501.194 L2031.402,1501.194 L2031.402,1582.944 M2031.402,1662.319 L2031.402,1821.069 M2031.402,1900.444 L2031.402,1982.194 Z" style="stroke:#000000;stroke-width:0.1;"/>
                <!-- Polyline -->
                <path d="M2031.402,955.194 L2101.402,955.194 L2101.402,1036.944 M2101.402,1116.319 L2101.402,1275.069 M2101.402,1354.444 L2101.402,1436.194 L2031.402,1436.194 L2031.402,1354.444 M2031.402,1275.069 L2031.402,1116.319 M2031.402,1036.944 L2031.402,955.194 Z" style="stroke:#000000;stroke-width:0.1;"/>
                <!-- Polyline -->
                <path d="M666.402,718.694 L3466.402,718.694 L3466.402,2218.694 L666.402,2218.694 Z" style="stroke:#000000;stroke-width:0.1;"/>
                <!-- Line -->
                <path d="M2066.402,2218.694 L2066.402,718.694 " style="stroke:#000000;stroke-width:0.1;"/>
            </g>
            <!-- Block Reference: chair_04_top_cad-block.com / entities: 8 -->
            <g>
                <!-- Line -->
                <path d="M6860.1145,1725.869 L6860.1145,1211.519 " style="stroke:#000000;stroke-width:0.1;"/>
                <!-- Arc -->
                <path d="M6888.7151,1763.969 A50.8,50.8 0 0,0 6937.902,1725.869" style="stroke:#000000;stroke-width:0.1;"/>
                <!-- Arc -->
                <path d="M6937.902,1211.519 A50.8,50.8 0 0,0 6888.7151,1173.419" style="stroke:#000000;stroke-width:0.1;"/>
                <!-- Polyline -->
                <path d="M6888.7151,1173.419 L6417.2276,1173.419 L6417.2276,1211.519" style="stroke:#000000;stroke-width:0.1;"/>
                <!-- Polyline -->
                <path d="M6888.7151,1763.969 L6417.2276,1763.969 L6417.2276,1725.869" style="stroke:#000000;stroke-width:0.1;"/>
                <!-- Polyline -->
                <path d="M6366.402,1725.869 L6366.402,1211.519 L6937.902,1211.519 L6937.902,1725.869 Z" style="stroke:#000000;stroke-width:0.1;"/>
                <!-- Hatch -->
                <path d="M6937.902,1725.869 L6937.902,1211.519 L6860.1145,1211.519 L6860.1145,1725.869 ZM6860.1145,1725.869 L6860.1145,1211.519 L6366.402,1211.519 L6366.402,1725.869 Z" style="fill-rule:evenodd;"/>
                <!-- Hatch -->
                <path d="M6937.902,1211.519 A50.8,50.8 0 0 0 6888.715,1173.419 L6417.2276,1173.419 L6417.2276,1211.519 ZM6888.7152,1763.969 A50.8,50.8 0 0 0 6937.902,1725.869 L6417.2276,1725.869 L6417.2276,1763.969 L6888.7152,1763.969" style="fill-rule:evenodd;"/>
            </g>
            <!-- Block Reference: chair_04_top_cad-block.com / entities: 8 -->
            <g>
                <!-- Line -->
                <path d="M4073.577,2812.4065 L3559.227,2812.4065 " style="stroke:#000000;stroke-width:0.1;"/>
                <!-- Arc -->
                <path d="M4111.677,2841.0071 A50.8,50.8 0 0,1 4073.577,2890.194" style="stroke:#000000;stroke-width:0.1;"/>
                <!-- Arc -->
                <path d="M3559.227,2890.194 A50.8,50.8 0 0,1 3521.127,2841.0071" style="stroke:#000000;stroke-width:0.1;"/>
                <!-- Polyline -->
                <path d="M3521.127,2841.0071 L3521.127,2369.5196 L3559.227,2369.5196" style="stroke:#000000;stroke-width:0.1;"/>
                <!-- Polyline -->
                <path d="M4111.677,2841.0071 L4111.677,2369.5196 L4073.577,2369.5196" style="stroke:#000000;stroke-width:0.1;"/>
                <!-- Polyline -->
                <path d="M4073.577,2318.694 L3559.227,2318.694 L3559.227,2890.194 L4073.577,2890.194 Z" style="stroke:#000000;stroke-width:0.1;"/>
                <!-- Hatch -->
                <path d="M4073.577,2890.194 L3559.227,2890.194 L3559.227,2812.4065 L4073.577,2812.4065 ZM4073.577,2812.4065 L3559.227,2812.4065 L3559.227,2318.694 L4073.577,2318.694 Z" style="fill-rule:evenodd;"/>
                <!-- Hatch -->
                <path d="M3559.227,2890.194 A50.8,50.8 0 0 1 3521.127,2841.0069 L3521.127,2369.5196 L3559.227,2369.5196 ZM4111.677,2841.0072 A50.8,50.8 0 0 1 4073.577,2890.194 L4073.577,2369.5196 L4111.677,2369.5196 L4111.677,2841.0072" style="fill-rule:evenodd;"/>
            </g>
            <!-- Block Reference: chair_04_top_cad-block.com / entities: 8 -->
            <g>
                <!-- Line -->
                <path d="M4773.577,2812.4065 L4259.227,2812.4065 " style="stroke:#000000;stroke-width:0.1;"/>
                <!-- Arc -->
                <path d="M4811.677,2841.0071 A50.8,50.8 0 0,1 4773.577,2890.194" style="stroke:#000000;stroke-width:0.1;"/>
                <!-- Arc -->
                <path d="M4259.227,2890.194 A50.8,50.8 0 0,1 4221.127,2841.0071" style="stroke:#000000;stroke-width:0.1;"/>
                <!-- Polyline -->
                <path d="M4221.127,2841.0071 L4221.127,2369.5196 L4259.227,2369.5196" style="stroke:#000000;stroke-width:0.1;"/>
                <!-- Polyline -->
                <path d="M4811.677,2841.0071 L4811.677,2369.5196 L4773.577,2369.5196" style="stroke:#000000;stroke-width:0.1;"/>
                <!-- Polyline -->
                <path d="M4773.577,2318.694 L4259.227,2318.694 L4259.227,2890.194 L4773.577,2890.194 Z" style="stroke:#000000;stroke-width:0.1;"/>
                <!-- Hatch -->
                <path d="M4773.577,2890.194 L4259.227,2890.194 L4259.227,2812.4065 L4773.577,2812.4065 ZM4773.577,2812.4065 L4259.227,2812.4065 L4259.227,2318.694 L4773.577,2318.694 Z" style="fill-rule:evenodd;"/>
                <!-- Hatch -->
                <path d="M4259.227,2890.194 A50.8,50.8 0 0 1 4221.127,2841.0069 L4221.127,2369.5196 L4259.227,2369.5196 ZM4811.677,2841.0072 A50.8,50.8 0 0 1 4773.577,2890.194 L4773.577,2369.5196 L4811.677,2369.5196 L4811.677,2841.0072" style="fill-rule:evenodd;"/>
            </g>
            <!-- Block Reference: chair_04_top_cad-block.com / entities: 8 -->
            <g>
                <!-- Line -->
                <path d="M5659.227,2812.4065 L6173.577,2812.4065 " style="stroke:#000000;stroke-width:0.1;"/>
                <!-- Arc -->
                <path d="M5621.127,2841.0071 A50.8,50.8 0 0,0 5659.227,2890.194" style="stroke:#000000;stroke-width:0.1;"/>
                <!-- Arc -->
                <path d="M6173.577,2890.194 A50.8,50.8 0 0,0 6211.677,2841.0071" style="stroke:#000000;stroke-width:0.1;"/>
                <!-- Polyline -->
                <path d="M6211.677,2841.0071 L6211.677,2369.5196 L6173.577,2369.5196" style="stroke:#000000;stroke-width:0.1;"/>
                <!-- Polyline -->
                <path d="M5621.127,2841.0071 L5621.127,2369.5196 L5659.227,2369.5196" style="stroke:#000000;stroke-width:0.1;"/>
                <!-- Polyline -->
                <path d="M5659.227,2318.694 L6173.577,2318.694 L6173.577,2890.194 L5659.227,2890.194 Z" style="stroke:#000000;stroke-width:0.1;"/>
                <!-- Hatch -->
                <path d="M5659.227,2890.194 L6173.577,2890.194 L6173.577,2812.4065 L5659.227,2812.4065 ZM5659.227,2812.4065 L6173.577,2812.4065 L6173.577,2318.694 L5659.227,2318.694 Z" style="fill-rule:evenodd;"/>
                <!-- Hatch -->
                <path d="M6173.577,2890.194 A50.8,50.8 0 0 0 6211.677,2841.0069 L6211.677,2369.5196 L6173.577,2369.5196 ZM5621.127,2841.0072 A50.8,50.8 0 0 0 5659.227,2890.194 L5659.227,2369.5196 L5621.127,2369.5196 L5621.127,2841.0072" style="fill-rule:evenodd;"/>
            </g>
            <!-- Block Reference: chair_04_top_cad-block.com / entities: 8 -->
            <g>
                <!-- Line -->
                <path d="M4959.227,2812.4065 L5473.577,2812.4065 " style="stroke:#000000;stroke-width:0.1;"/>
                <!-- Arc -->
                <path d="M4921.127,2841.0071 A50.8,50.8 0 0,0 4959.227,2890.194" style="stroke:#000000;stroke-width:0.1;"/>
                <!-- Arc -->
                <path d="M5473.577,2890.194 A50.8,50.8 0 0,0 5511.677,2841.0071" style="stroke:#000000;stroke-width:0.1;"/>
                <!-- Polyline -->
                <path d="M5511.677,2841.0071 L5511.677,2369.5196 L5473.577,2369.5196" style="stroke:#000000;stroke-width:0.1;"/>
                <!-- Polyline -->
                <path d="M4921.127,2841.0071 L4921.127,2369.5196 L4959.227,2369.5196" style="stroke:#000000;stroke-width:0.1;"/>
                <!-- Polyline -->
                <path d="M4959.227,2318.694 L5473.577,2318.694 L5473.577,2890.194 L4959.227,2890.194 Z" style="stroke:#000000;stroke-width:0.1;"/>
                <!-- Hatch -->
                <path d="M4959.227,2890.194 L5473.577,2890.194 L5473.577,2812.4065 L4959.227,2812.4065 ZM4959.227,2812.4065 L5473.577,2812.4065 L5473.577,2318.694 L4959.227,2318.694 Z" style="fill-rule:evenodd;"/>
                <!-- Hatch -->
                <path d="M5473.577,2890.194 A50.8,50.8 0 0 0 5511.677,2841.0069 L5511.677,2369.5196 L5473.577,2369.5196 ZM4921.127,2841.0072 A50.8,50.8 0 0 0 4959.227,2890.194 L4959.227,2369.5196 L4921.127,2369.5196 L4921.127,2841.0072" style="fill-rule:evenodd;"/>
            </g>
            <!-- Block Reference: chair_04_top_cad-block.com / entities: 8 -->
            <g>
                <!-- Line -->
                <path d="M4073.577,124.9815 L3559.227,124.9815 " style="stroke:#000000;stroke-width:0.1;"/>
                <!-- Arc -->
                <path d="M4111.677,96.3808 A50.8,50.8 0 0,0 4073.577,47.194" style="stroke:#000000;stroke-width:0.1;"/>
                <!-- Arc -->
                <path d="M3559.227,47.194 A50.8,50.8 0 0,0 3521.127,96.3808" style="stroke:#000000;stroke-width:0.1;"/>
                <!-- Polyline -->
                <path d="M3521.127,96.3808 L3521.127,567.8683 L3559.227,567.8683" style="stroke:#000000;stroke-width:0.1;"/>
                <!-- Polyline -->
                <path d="M4111.677,96.3808 L4111.677,567.8683 L4073.577,567.8683" style="stroke:#000000;stroke-width:0.1;"/>
                <!-- Polyline -->
                <path d="M4073.577,618.694 L3559.227,618.694 L3559.227,47.194 L4073.577,47.194 Z" style="stroke:#000000;stroke-width:0.1;"/>
                <!-- Hatch -->
                <path d="M4073.577,47.194 L3559.227,47.194 L3559.227,124.9815 L4073.577,124.9815 ZM4073.577,124.9815 L3559.227,124.9815 L3559.227,618.694 L4073.577,618.694 Z" style="fill-rule:evenodd;"/>
                <!-- Hatch -->
                <path d="M3559.227,47.194 A50.8,50.8 0 0 0 3521.127,96.381 L3521.127,567.8683 L3559.227,567.8683 ZM4111.677,96.3807 A50.8,50.8 0 0 0 4073.577,47.194 L4073.577,567.8683 L4111.677,567.8683 L4111.677,96.3807" style="fill-rule:evenodd;"/>
            </g>
            <!-- Block Reference: chair_04_top_cad-block.com / entities: 8 -->
            <g>
                <!-- Line -->
                <path d="M4773.577,124.9815 L4259.227,124.9815 " style="stroke:#000000;stroke-width:0.1;"/>
                <!-- Arc -->
                <path d="M4811.677,96.3808 A50.8,50.8 0 0,0 4773.577,47.194" style="stroke:#000000;stroke-width:0.1;"/>
                <!-- Arc -->
                <path d="M4259.227,47.194 A50.8,50.8 0 0,0 4221.127,96.3808" style="stroke:#000000;stroke-width:0.1;"/>
                <!-- Polyline -->
                <path d="M4221.127,96.3808 L4221.127,567.8683 L4259.227,567.8683" style="stroke:#000000;stroke-width:0.1;"/>
                <!-- Polyline -->
                <path d="M4811.677,96.3808 L4811.677,567.8683 L4773.577,567.8683" style="stroke:#000000;stroke-width:0.1;"/>
                <!-- Polyline -->
                <path d="M4773.577,618.694 L4259.227,618.694 L4259.227,47.194 L4773.577,47.194 Z" style="stroke:#000000;stroke-width:0.1;"/>
                <!-- Hatch -->
                <path d="M4773.577,47.194 L4259.227,47.194 L4259.227,124.9815 L4773.577,124.9815 ZM4773.577,124.9815 L4259.227,124.9815 L4259.227,618.694 L4773.577,618.694 Z" style="fill-rule:evenodd;"/>
                <!-- Hatch -->
                <path d="M4259.227,47.194 A50.8,50.8 0 0 0 4221.127,96.381 L4221.127,567.8683 L4259.227,567.8683 ZM4811.677,96.3807 A50.8,50.8 0 0 0 4773.577,47.194 L4773.577,567.8683 L4811.677,567.8683 L4811.677,96.3807" style="fill-rule:evenodd;"/>
            </g>
            <!-- Block Reference: chair_04_top_cad-block.com / entities: 8 -->
            <g>
                <!-- Line -->
                <path d="M5659.227,124.9815 L6173.577,124.9815 " style="stroke:#000000;stroke-width:0.1;"/>
                <!-- Arc -->
                <path d="M5621.127,96.3808 A50.8,50.8 0 0,1 5659.227,47.194" style="stroke:#000000;stroke-width:0.1;"/>
                <!-- Arc -->
                <path d="M6173.577,47.194 A50.8,50.8 0 0,1 6211.677,96.3808" style="stroke:#000000;stroke-width:0.1;"/>
                <!-- Polyline -->
                <path d="M6211.677,96.3808 L6211.677,567.8683 L6173.577,567.8683" style="stroke:#000000;stroke-width:0.1;"/>
                <!-- Polyline -->
                <path d="M5621.127,96.3808 L5621.127,567.8683 L5659.227,567.8683" style="stroke:#000000;stroke-width:0.1;"/>
                <!-- Polyline -->
                <path d="M5659.227,618.694 L6173.577,618.694 L6173.577,47.194 L5659.227,47.194 Z" style="stroke:#000000;stroke-width:0.1;"/>
                <!-- Hatch -->
                <path d="M5659.227,47.194 L6173.577,47.194 L6173.577,124.9815 L5659.227,124.9815 ZM5659.227,124.9815 L6173.577,124.9815 L6173.577,618.694 L5659.227,618.694 Z" style="fill-rule:evenodd;"/>
                <!-- Hatch -->
                <path d="M6173.577,47.194 A50.8,50.8 0 0 1 6211.677,96.381 L6211.677,567.8683 L6173.577,567.8683 ZM5621.127,96.3807 A50.8,50.8 0 0 1 5659.227,47.194 L5659.227,567.8683 L5621.127,567.8683 L5621.127,96.3807" style="fill-rule:evenodd;"/>
            </g>
            <!-- Block Reference: chair_04_top_cad-block.com / entities: 8 -->
            <g>
                <!-- Line -->
                <path d="M4959.227,124.9815 L5473.577,124.9815 " style="stroke:#000000;stroke-width:0.1;"/>
                <!-- Arc -->
                <path d="M4921.127,96.3808 A50.8,50.8 0 0,1 4959.227,47.194" style="stroke:#000000;stroke-width:0.1;"/>
                <!-- Arc -->
                <path d="M5473.577,47.194 A50.8,50.8 0 0,1 5511.677,96.3808" style="stroke:#000000;stroke-width:0.1;"/>
                <!-- Polyline -->
                <path d="M5511.677,96.3808 L5511.677,567.8683 L5473.577,567.8683" style="stroke:#000000;stroke-width:0.1;"/>
                <!-- Polyline -->
                <path d="M4921.127,96.3808 L4921.127,567.8683 L4959.227,567.8683" style="stroke:#000000;stroke-width:0.1;"/>
                <!-- Polyline -->
                <path d="M4959.227,618.694 L5473.577,618.694 L5473.577,47.194 L4959.227,47.194 Z" style="stroke:#000000;stroke-width:0.1;"/>
                <!-- Hatch -->
                <path d="M4959.227,47.194 L5473.577,47.194 L5473.577,124.9815 L4959.227,124.9815 ZM4959.227,124.9815 L5473.577,124.9815 L5473.577,618.694 L4959.227,618.694 Z" style="fill-rule:evenodd;"/>
                <!-- Hatch -->
                <path d="M5473.577,47.194 A50.8,50.8 0 0 1 5511.677,96.381 L5511.677,567.8683 L5473.577,567.8683 ZM4921.127,96.3807 A50.8,50.8 0 0 1 4959.227,47.194 L4959.227,567.8683 L4921.127,567.8683 L4921.127,96.3807" style="fill-rule:evenodd;"/>
            </g>
            <!-- Block Reference: table x1 / entities: 15 -->
            <g>
                <!-- Hatch -->
                <path d="M3466.402,2218.694 L4866.402,2218.694 L4866.402,718.694 L3466.402,718.694 ZM4866.402,2218.694 L6266.402,2218.694 L6266.402,718.694 L4866.402,718.694 Z" style="fill-rule:evenodd;"/>
                <!-- Line -->
                <path d="M3976.402,1501.194 L4112.3395,1501.194 M4191.7145,1501.194 L4350.4645,1501.194 M4429.8395,1501.194 L4588.5895,1501.194 M4667.9645,1501.194 L4826.7145,1501.194 M4906.0895,1501.194 L5064.8395,1501.194 M5144.2145,1501.194 L5302.9645,1501.194 M5382.3395,1501.194 L5541.0895,1501.194 M5620.4645,1501.194 L5756.402,1501.194 " style="stroke:#000000;stroke-width:0.1;"/>
                <!-- Line -->
                <path d="M3976.402,1436.194 L4112.3395,1436.194 M4191.7145,1436.194 L4350.4645,1436.194 M4429.8395,1436.194 L4588.5895,1436.194 M4667.9645,1436.194 L4826.7145,1436.194 M4906.0895,1436.194 L5064.8395,1436.194 M5144.2145,1436.194 L5302.9645,1436.194 M5382.3395,1436.194 L5541.0895,1436.194 M5620.4645,1436.194 L5756.402,1436.194 " style="stroke:#000000;stroke-width:0.1;"/>
                <!-- Polyline -->
                <path d="M5766.402,1501.194 L5620.4645,1501.194 M5541.0895,1501.194 L5382.3395,1501.194 M5302.9645,1501.194 L5144.2145,1501.194 M5064.8395,1501.194 L4906.0895,1501.194 M4826.7145,1501.194 L4667.9645,1501.194 M4588.5895,1501.194 L4429.8395,1501.194 M4350.4645,1501.194 L4191.7145,1501.194 M4112.3395,1501.194 L3966.402,1501.194 L3966.402,1436.194 L4112.3395,1436.194 M4191.7145,1436.194 L4350.4645,1436.194 M4429.8395,1436.194 L4588.5895,1436.194 M4667.9645,1436.194 L4826.7145,1436.194 M4906.0895,1436.194 L5064.8395,1436.194 M5144.2145,1436.194 L5302.9645,1436.194 M5382.3395,1436.194 L5541.0895,1436.194 M5620.4645,1436.194 L5766.402,1436.194 L5766.402,1501.194 Z" style="stroke:#000000;stroke-width:0.1;"/>
                <!-- Polyline -->
                <path d="M5866.402,1887.194 L5866.402,1746.5065 M5866.402,1667.1315 L5866.402,1508.3815 M5866.402,1429.0065 L5866.402,1270.2565 M5866.402,1190.8815 L5866.402,1050.194 L5766.402,1050.194 L5766.402,1190.8815 M5766.402,1270.2565 L5766.402,1429.0065 M5766.402,1508.3815 L5766.402,1667.1315 M5766.402,1746.5065 L5766.402,1887.194 L5866.402,1887.194 Z" style="stroke:#000000;stroke-width:0.1;"/>
                <!-- Line -->
                <path d="M5866.402,1518.694 L5866.402,1418.694 " style="stroke:#000000;stroke-width:0.1;"/>
                <!-- Polyline -->
                <path d="M3866.402,1887.194 L3866.402,1746.5065 M3866.402,1667.1315 L3866.402,1508.3815 M3866.402,1429.0065 L3866.402,1270.2565 M3866.402,1190.8815 L3866.402,1050.194 L3966.402,1050.194 L3966.402,1190.8815 M3966.402,1270.2565 L3966.402,1429.0065 M3966.402,1508.3815 L3966.402,1667.1315 M3966.402,1746.5065 L3966.402,1887.194 L3866.402,1887.194 Z" style="stroke:#000000;stroke-width:0.1;"/>
                <!-- Polyline -->
                <path d="M3989.902,1982.194 L4059.902,1982.194 L4059.902,1900.444 M4059.902,1821.069 L4059.902,1662.319 M4059.902,1582.944 L4059.902,1501.194 L3989.902,1501.194 L3989.902,1582.944 M3989.902,1662.319 L3989.902,1821.069 M3989.902,1900.444 L3989.902,1982.194 Z" style="stroke:#000000;stroke-width:0.1;"/>
                <!-- Polyline -->
                <path d="M3989.902,955.194 L4059.902,955.194 L4059.902,1036.944 M4059.902,1116.319 L4059.902,1275.069 M4059.902,1354.444 L4059.902,1436.194 L3989.902,1436.194 L3989.902,1354.444 M3989.902,1275.069 L3989.902,1116.319 M3989.902,1036.944 L3989.902,955.194 Z" style="stroke:#000000;stroke-width:0.1;"/>
                <!-- Polyline -->
                <path d="M5742.902,1982.194 L5672.902,1982.194 L5672.902,1900.444 M5672.902,1821.069 L5672.902,1662.319 M5672.902,1582.944 L5672.902,1501.194 L5742.902,1501.194 L5742.902,1582.944 M5742.902,1662.319 L5742.902,1821.069 M5742.902,1900.444 L5742.902,1982.194 Z" style="stroke:#000000;stroke-width:0.1;"/>
                <!-- Polyline -->
                <path d="M5742.902,955.194 L5672.902,955.194 L5672.902,1036.944 M5672.902,1116.319 L5672.902,1275.069 M5672.902,1354.444 L5672.902,1436.194 L5742.902,1436.194 L5742.902,1354.444 M5742.902,1275.069 L5742.902,1116.319 M5742.902,1036.944 L5742.902,955.194 Z" style="stroke:#000000;stroke-width:0.1;"/>
                <!-- Polyline -->
                <path d="M4901.402,1982.194 L4831.402,1982.194 L4831.402,1900.444 M4831.402,1821.069 L4831.402,1662.319 M4831.402,1582.944 L4831.402,1501.194 L4901.402,1501.194 L4901.402,1582.944 M4901.402,1662.319 L4901.402,1821.069 M4901.402,1900.444 L4901.402,1982.194 Z" style="stroke:#000000;stroke-width:0.1;"/>
                <!-- Polyline -->
                <path d="M4901.402,955.194 L4831.402,955.194 L4831.402,1036.944 M4831.402,1116.319 L4831.402,1275.069 M4831.402,1354.444 L4831.402,1436.194 L4901.402,1436.194 L4901.402,1354.444 M4901.402,1275.069 L4901.402,1116.319 M4901.402,1036.944 L4901.402,955.194 Z" style="stroke:#000000;stroke-width:0.1;"/>
                <!-- Polyline -->
                <path d="M6266.402,718.694 L3466.402,718.694 L3466.402,2218.694 L6266.402,2218.694 Z" style="stroke:#000000;stroke-width:0.1;"/>
                <!-- Line -->
                <path d="M4866.402,2218.694 L4866.402,718.694 " style="stroke:#000000;stroke-width:0.1;"/>
            </g>
        </g>
    </g>
</svg>

