<?xml version="1.0" encoding="UTF-8"?>
<!-- 2026-03-10 13:37:46 Generated by QCAD 3.32.6 SVG Exporter -->
<svg  width="7578.1137mm" height="8567.564mm" viewBox="31.5815 -8684.4703 7578.1137 8567.564" version="1.1" xmlns="http://www.w3.org/2000/svg" style="stroke-linecap:round;stroke-linejoin:round;">
    <g transform="scale(1,-1)">
            <!-- Auto-generated fillable area -->
            <!-- Block Reference: Chevron sitting style / entities: 45 -->
        <g>
            <!-- Block Reference: chair_04_top_cad-block.com / entities: 8 -->
            <g>
                <!-- Line -->
                <path d="M2528.3419,5010.4973 L2973.7821,4753.3223 " style="stroke:#000000;stroke-width:0.1;"/>
                <!-- Arc -->
                <path d="M2481.046,5004.7784 A50.8,50.8 0 0,1 2489.4482,4943.1313" style="stroke:#000000;stroke-width:0.1;"/>
                <!-- Arc -->
                <path d="M2934.8883,4685.9563 A50.8,50.8 0 0,1 2992.4773,4709.5034" style="stroke:#000000;stroke-width:0.1;"/>
                <!-- Polyline -->
                <path d="M2992.4773,4709.5034 L3228.2211,5117.8236 L3195.2255,5136.8736" style="stroke:#000000;stroke-width:0.1;"/>
                <!-- Polyline -->
                <path d="M2481.046,5004.7784 L2716.7898,5413.0986 L2749.7854,5394.0486" style="stroke:#000000;stroke-width:0.1;"/>
                <!-- Polyline -->
                <path d="M2775.1982,5438.0648 L3220.6383,5180.8898 L2934.8883,4685.9563 L2489.4482,4943.1313 Z" style="stroke:#000000;stroke-width:0.1;"/>
                <!-- Hatch -->
                <path d="M2489.4482,4943.1313 L2934.8883,4685.9563 L2973.7821,4753.3223 L2528.3419,5010.4973 ZM2528.3419,5010.4973 L2973.7821,4753.3223 L3220.6383,5180.8898 L2775.1982,5438.0648 Z" style="fill-rule:evenodd;"/>
                <!-- Hatch -->
                <path d="M2934.8883,4685.9563 A50.8,50.8 0 0 1 2992.4774,4709.5035 L3228.2211,5117.8236 L3195.2255,5136.8736 ZM2481.046,5004.7783 A50.8,50.8 0 0 1 2489.4482,4943.1313 L2749.7854,5394.0486 L2716.7898,5413.0986 L2481.046,5004.7783" style="fill-rule:evenodd;"/>
            </g>
            <!-- Block Reference: chair_04_top_cad-block.com / entities: 8 -->
            <g>
                <!-- Line -->
                <path d="M1922.1241,5360.4973 L2367.5643,5103.3223 " style="stroke:#000000;stroke-width:0.1;"/>
                <!-- Arc -->
                <path d="M1874.8282,5354.7784 A50.8,50.8 0 0,1 1883.2304,5293.1313" style="stroke:#000000;stroke-width:0.1;"/>
                <!-- Arc -->
                <path d="M2328.6705,5035.9563 A50.8,50.8 0 0,1 2386.2596,5059.5034" style="stroke:#000000;stroke-width:0.1;"/>
                <!-- Polyline -->
                <path d="M2386.2596,5059.5034 L2622.0033,5467.8236 L2589.0077,5486.8736" style="stroke:#000000;stroke-width:0.1;"/>
                <!-- Polyline -->
                <path d="M1874.8282,5354.7784 L2110.572,5763.0986 L2143.5676,5744.0486" style="stroke:#000000;stroke-width:0.1;"/>
                <!-- Polyline -->
                <path d="M2168.9804,5788.0648 L2614.4205,5530.8898 L2328.6705,5035.9563 L1883.2304,5293.1313 Z" style="stroke:#000000;stroke-width:0.1;"/>
                <!-- Hatch -->
                <path d="M1883.2304,5293.1313 L2328.6705,5035.9563 L2367.5643,5103.3223 L1922.1241,5360.4973 ZM1922.1241,5360.4973 L2367.5643,5103.3223 L2614.4205,5530.8898 L2168.9804,5788.0648 Z" style="fill-rule:evenodd;"/>
                <!-- Hatch -->
                <path d="M2328.6705,5035.9563 A50.8,50.8 0 0 1 2386.2596,5059.5035 L2622.0033,5467.8236 L2589.0077,5486.8736 ZM1874.8282,5354.7783 A50.8,50.8 0 0 1 1883.2304,5293.1313 L2143.5676,5744.0486 L2110.572,5763.0986 L1874.8282,5354.7783" style="fill-rule:evenodd;"/>
            </g>
            <!-- Block Reference: chair_04_top_cad-block.com / entities: 8 -->
            <g>
                <!-- Line -->
                <path d="M1155.1287,5803.3223 L709.6886,6060.4973 " style="stroke:#000000;stroke-width:0.1;"/>
                <!-- Arc -->
                <path d="M1173.824,5759.5034 A50.8,50.8 0 0,0 1116.235,5735.9563" style="stroke:#000000;stroke-width:0.1;"/>
                <!-- Arc -->
                <path d="M670.7948,5993.1313 A50.8,50.8 0 0,0 662.3927,6054.7784" style="stroke:#000000;stroke-width:0.1;"/>
                <!-- Polyline -->
                <path d="M662.3927,6054.7784 L898.1364,6463.0986 L931.132,6444.0486" style="stroke:#000000;stroke-width:0.1;"/>
                <!-- Polyline -->
                <path d="M1173.824,5759.5034 L1409.5677,6167.8236 L1376.5722,6186.8736" style="stroke:#000000;stroke-width:0.1;"/>
                <!-- Polyline -->
                <path d="M1401.985,6230.8898 L956.5448,6488.0648 L670.7948,5993.1313 L1116.235,5735.9563 Z" style="stroke:#000000;stroke-width:0.1;"/>
                <!-- Hatch -->
                <path d="M1116.235,5735.9563 L670.7948,5993.1313 L709.6886,6060.4973 L1155.1287,5803.3223 ZM1155.1287,5803.3223 L709.6886,6060.4973 L956.5448,6488.0648 L1401.985,6230.8898 Z" style="fill-rule:evenodd;"/>
                <!-- Hatch -->
                <path d="M670.7948,5993.1313 A50.8,50.8 0 0 0 662.3928,6054.7785 L898.1364,6463.0986 L931.132,6444.0486 ZM1173.8239,5759.5033 A50.8,50.8 0 0 0 1116.235,5735.9563 L1376.5722,6186.8736 L1409.5677,6167.8236 L1173.8239,5759.5033" style="fill-rule:evenodd;"/>
            </g>
            <!-- Block Reference: chair_04_top_cad-block.com / entities: 8 -->
            <g>
                <!-- Line -->
                <path d="M1761.3465,5453.3223 L1315.9063,5710.4973 " style="stroke:#000000;stroke-width:0.1;"/>
                <!-- Arc -->
                <path d="M1780.0418,5409.5034 A50.8,50.8 0 0,0 1722.4528,5385.9563" style="stroke:#000000;stroke-width:0.1;"/>
                <!-- Arc -->
                <path d="M1277.0126,5643.1313 A50.8,50.8 0 0,0 1268.6105,5704.7784" style="stroke:#000000;stroke-width:0.1;"/>
                <!-- Polyline -->
                <path d="M1268.6105,5704.7784 L1504.3542,6113.0986 L1537.3498,6094.0486" style="stroke:#000000;stroke-width:0.1;"/>
                <!-- Polyline -->
                <path d="M1780.0418,5409.5034 L2015.7855,5817.8236 L1982.79,5836.8736" style="stroke:#000000;stroke-width:0.1;"/>
                <!-- Polyline -->
                <path d="M2008.2028,5880.8898 L1562.7626,6138.0648 L1277.0126,5643.1313 L1722.4528,5385.9563 Z" style="stroke:#000000;stroke-width:0.1;"/>
                <!-- Hatch -->
                <path d="M1722.4528,5385.9563 L1277.0126,5643.1313 L1315.9063,5710.4973 L1761.3465,5453.3223 ZM1761.3465,5453.3223 L1315.9063,5710.4973 L1562.7626,6138.0648 L2008.2028,5880.8898 Z" style="fill-rule:evenodd;"/>
                <!-- Hatch -->
                <path d="M1277.0126,5643.1313 A50.8,50.8 0 0 0 1268.6105,5704.7785 L1504.3542,6113.0986 L1537.3498,6094.0486 ZM1780.0417,5409.5033 A50.8,50.8 0 0 0 1722.4528,5385.9563 L1982.79,5836.8736 L2015.7855,5817.8236 L1780.0417,5409.5033" style="fill-rule:evenodd;"/>
            </g>
            <!-- Block Reference: chair_04_top_cad-block.com / entities: 8 -->
            <g>
                <!-- Line -->
                <path d="M2528.3419,3610.4973 L2973.7821,3353.3223 " style="stroke:#000000;stroke-width:0.1;"/>
                <!-- Arc -->
                <path d="M2481.046,3604.7784 A50.8,50.8 0 0,1 2489.4482,3543.1313" style="stroke:#000000;stroke-width:0.1;"/>
                <!-- Arc -->
                <path d="M2934.8883,3285.9563 A50.8,50.8 0 0,1 2992.4773,3309.5034" style="stroke:#000000;stroke-width:0.1;"/>
                <!-- Polyline -->
                <path d="M2992.4773,3309.5034 L3228.2211,3717.8236 L3195.2255,3736.8736" style="stroke:#000000;stroke-width:0.1;"/>
                <!-- Polyline -->
                <path d="M2481.046,3604.7784 L2716.7898,4013.0986 L2749.7854,3994.0486" style="stroke:#000000;stroke-width:0.1;"/>
                <!-- Polyline -->
                <path d="M2775.1982,4038.0648 L3220.6383,3780.8898 L2934.8883,3285.9563 L2489.4482,3543.1313 Z" style="stroke:#000000;stroke-width:0.1;"/>
                <!-- Hatch -->
                <path d="M2489.4482,3543.1313 L2934.8883,3285.9563 L2973.7821,3353.3223 L2528.3419,3610.4973 ZM2528.3419,3610.4973 L2973.7821,3353.3223 L3220.6383,3780.8898 L2775.1982,4038.0648 Z" style="fill-rule:evenodd;"/>
                <!-- Hatch -->
                <path d="M2934.8883,3285.9563 A50.8,50.8 0 0 1 2992.4774,3309.5035 L3228.2211,3717.8236 L3195.2255,3736.8736 ZM2481.046,3604.7783 A50.8,50.8 0 0 1 2489.4482,3543.1313 L2749.7854,3994.0486 L2716.7898,4013.0986 L2481.046,3604.7783" style="fill-rule:evenodd;"/>
            </g>
            <!-- Block Reference: chair_04_top_cad-block.com / entities: 8 -->
            <g>
                <!-- Line -->
                <path d="M1922.1241,3960.4973 L2367.5643,3703.3223 " style="stroke:#000000;stroke-width:0.1;"/>
                <!-- Arc -->
                <path d="M1874.8282,3954.7784 A50.8,50.8 0 0,1 1883.2304,3893.1313" style="stroke:#000000;stroke-width:0.1;"/>
                <!-- Arc -->
                <path d="M2328.6705,3635.9563 A50.8,50.8 0 0,1 2386.2596,3659.5034" style="stroke:#000000;stroke-width:0.1;"/>
                <!-- Polyline -->
                <path d="M2386.2596,3659.5034 L2622.0033,4067.8236 L2589.0077,4086.8736" style="stroke:#000000;stroke-width:0.1;"/>
                <!-- Polyline -->
                <path d="M1874.8282,3954.7784 L2110.572,4363.0986 L2143.5676,4344.0486" style="stroke:#000000;stroke-width:0.1;"/>
                <!-- Polyline -->
                <path d="M2168.9804,4388.0648 L2614.4205,4130.8898 L2328.6705,3635.9563 L1883.2304,3893.1313 Z" style="stroke:#000000;stroke-width:0.1;"/>
                <!-- Hatch -->
                <path d="M1883.2304,3893.1313 L2328.6705,3635.9563 L2367.5643,3703.3223 L1922.1241,3960.4973 ZM1922.1241,3960.4973 L2367.5643,3703.3223 L2614.4205,4130.8898 L2168.9804,4388.0648 Z" style="fill-rule:evenodd;"/>
                <!-- Hatch -->
                <path d="M2328.6705,3635.9563 A50.8,50.8 0 0 1 2386.2596,3659.5035 L2622.0033,4067.8236 L2589.0077,4086.8736 ZM1874.8282,3954.7783 A50.8,50.8 0 0 1 1883.2304,3893.1313 L2143.5676,4344.0486 L2110.572,4363.0986 L1874.8282,3954.7783" style="fill-rule:evenodd;"/>
            </g>
            <!-- Block Reference: chair_04_top_cad-block.com / entities: 8 -->
            <g>
                <!-- Line -->
                <path d="M1155.1287,4403.3223 L709.6886,4660.4973 " style="stroke:#000000;stroke-width:0.1;"/>
                <!-- Arc -->
                <path d="M1173.824,4359.5034 A50.8,50.8 0 0,0 1116.235,4335.9563" style="stroke:#000000;stroke-width:0.1;"/>
                <!-- Arc -->
                <path d="M670.7948,4593.1313 A50.8,50.8 0 0,0 662.3927,4654.7784" style="stroke:#000000;stroke-width:0.1;"/>
                <!-- Polyline -->
                <path d="M662.3927,4654.7784 L898.1364,5063.0986 L931.132,5044.0486" style="stroke:#000000;stroke-width:0.1;"/>
                <!-- Polyline -->
                <path d="M1173.824,4359.5034 L1409.5677,4767.8236 L1376.5722,4786.8736" style="stroke:#000000;stroke-width:0.1;"/>
                <!-- Polyline -->
                <path d="M1401.985,4830.8898 L956.5448,5088.0648 L670.7948,4593.1313 L1116.235,4335.9563 Z" style="stroke:#000000;stroke-width:0.1;"/>
                <!-- Hatch -->
                <path d="M1116.235,4335.9563 L670.7948,4593.1313 L709.6886,4660.4973 L1155.1287,4403.3223 ZM1155.1287,4403.3223 L709.6886,4660.4973 L956.5448,5088.0648 L1401.985,4830.8898 Z" style="fill-rule:evenodd;"/>
                <!-- Hatch -->
                <path d="M670.7948,4593.1313 A50.8,50.8 0 0 0 662.3928,4654.7785 L898.1364,5063.0986 L931.132,5044.0486 ZM1173.8239,4359.5033 A50.8,50.8 0 0 0 1116.235,4335.9563 L1376.5722,4786.8736 L1409.5677,4767.8236 L1173.8239,4359.5033" style="fill-rule:evenodd;"/>
            </g>
            <!-- Block Reference: chair_04_top_cad-block.com / entities: 8 -->
            <g>
                <!-- Line -->
                <path d="M1761.3465,4053.3223 L1315.9063,4310.4973 " style="stroke:#000000;stroke-width:0.1;"/>
                <!-- Arc -->
                <path d="M1780.0418,4009.5034 A50.8,50.8 0 0,0 1722.4528,3985.9563" style="stroke:#000000;stroke-width:0.1;"/>
                <!-- Arc -->
                <path d="M1277.0126,4243.1313 A50.8,50.8 0 0,0 1268.6105,4304.7784" style="stroke:#000000;stroke-width:0.1;"/>
                <!-- Polyline -->
                <path d="M1268.6105,4304.7784 L1504.3542,4713.0986 L1537.3498,4694.0486" style="stroke:#000000;stroke-width:0.1;"/>
                <!-- Polyline -->
                <path d="M1780.0418,4009.5034 L2015.7855,4417.8236 L1982.79,4436.8736" style="stroke:#000000;stroke-width:0.1;"/>
                <!-- Polyline -->
                <path d="M2008.2028,4480.8898 L1562.7626,4738.0648 L1277.0126,4243.1313 L1722.4528,3985.9563 Z" style="stroke:#000000;stroke-width:0.1;"/>
                <!-- Hatch -->
                <path d="M1722.4528,3985.9563 L1277.0126,4243.1313 L1315.9063,4310.4973 L1761.3465,4053.3223 ZM1761.3465,4053.3223 L1315.9063,4310.4973 L1562.7626,4738.0648 L2008.2028,4480.8898 Z" style="fill-rule:evenodd;"/>
                <!-- Hatch -->
                <path d="M1277.0126,4243.1313 A50.8,50.8 0 0 0 1268.6105,4304.7785 L1504.3542,4713.0986 L1537.3498,4694.0486 ZM1780.0417,4009.5033 A50.8,50.8 0 0 0 1722.4528,3985.9563 L1982.79,4436.8736 L2015.7855,4417.8236 L1780.0417,4009.5033" style="fill-rule:evenodd;"/>
            </g>
            <!-- Block Reference: chair_04_top_cad-block.com / entities: 8 -->
            <g>
                <!-- Line -->
                <path d="M548.9109,4753.3223 L103.4708,5010.4973 " style="stroke:#000000;stroke-width:0.1;"/>
                <!-- Arc -->
                <path d="M567.6062,4709.5034 A50.8,50.8 0 0,0 510.0172,4685.9563" style="stroke:#000000;stroke-width:0.1;"/>
                <!-- Arc -->
                <path d="M64.577,4943.1313 A50.8,50.8 0 0,0 56.1749,5004.7784" style="stroke:#000000;stroke-width:0.1;"/>
                <!-- Polyline -->
                <path d="M56.1749,5004.7784 L291.9187,5413.0986 L324.9142,5394.0486" style="stroke:#000000;stroke-width:0.1;"/>
                <!-- Polyline -->
                <path d="M567.6062,4709.5034 L803.35,5117.8236 L770.3544,5136.8736" style="stroke:#000000;stroke-width:0.1;"/>
                <!-- Polyline -->
                <path d="M795.7672,5180.8898 L350.327,5438.0648 L64.577,4943.1313 L510.0172,4685.9563 Z" style="stroke:#000000;stroke-width:0.1;"/>
                <!-- Hatch -->
                <path d="M510.0172,4685.9563 L64.577,4943.1313 L103.4708,5010.4973 L548.9109,4753.3223 ZM548.9109,4753.3223 L103.4708,5010.4973 L350.327,5438.0648 L795.7672,5180.8898 Z" style="fill-rule:evenodd;"/>
                <!-- Hatch -->
                <path d="M64.577,4943.1313 A50.8,50.8 0 0 0 56.175,5004.7785 L291.9187,5413.0986 L324.9142,5394.0486 ZM567.6061,4709.5033 A50.8,50.8 0 0 0 510.0172,4685.9563 L770.3544,5136.8736 L803.35,5117.8236 L567.6061,4709.5033" style="fill-rule:evenodd;"/>
            </g>
            <!-- Block Reference: chair_04_top_cad-block.com / entities: 8 -->
            <g>
                <!-- Line -->
                <path d="M2528.3419,2210.4973 L2973.7821,1953.3223 " style="stroke:#000000;stroke-width:0.1;"/>
                <!-- Arc -->
                <path d="M2481.046,2204.7784 A50.8,50.8 0 0,1 2489.4482,2143.1313" style="stroke:#000000;stroke-width:0.1;"/>
                <!-- Arc -->
                <path d="M2934.8883,1885.9563 A50.8,50.8 0 0,1 2992.4773,1909.5034" style="stroke:#000000;stroke-width:0.1;"/>
                <!-- Polyline -->
                <path d="M2992.4773,1909.5034 L3228.2211,2317.8236 L3195.2255,2336.8736" style="stroke:#000000;stroke-width:0.1;"/>
                <!-- Polyline -->
                <path d="M2481.046,2204.7784 L2716.7898,2613.0986 L2749.7854,2594.0486" style="stroke:#000000;stroke-width:0.1;"/>
                <!-- Polyline -->
                <path d="M2775.1982,2638.0648 L3220.6383,2380.8898 L2934.8883,1885.9563 L2489.4482,2143.1313 Z" style="stroke:#000000;stroke-width:0.1;"/>
                <!-- Hatch -->
                <path d="M2489.4482,2143.1313 L2934.8883,1885.9563 L2973.7821,1953.3223 L2528.3419,2210.4973 ZM2528.3419,2210.4973 L2973.7821,1953.3223 L3220.6383,2380.8898 L2775.1982,2638.0648 Z" style="fill-rule:evenodd;"/>
                <!-- Hatch -->
                <path d="M2934.8883,1885.9563 A50.8,50.8 0 0 1 2992.4774,1909.5035 L3228.2211,2317.8236 L3195.2255,2336.8736 ZM2481.046,2204.7783 A50.8,50.8 0 0 1 2489.4482,2143.1313 L2749.7854,2594.0486 L2716.7898,2613.0986 L2481.046,2204.7783" style="fill-rule:evenodd;"/>
            </g>
            <!-- Block Reference: chair_04_top_cad-block.com / entities: 8 -->
            <g>
                <!-- Line -->
                <path d="M1922.1241,2560.4973 L2367.5643,2303.3223 " style="stroke:#000000;stroke-width:0.1;"/>
                <!-- Arc -->
                <path d="M1874.8282,2554.7784 A50.8,50.8 0 0,1 1883.2304,2493.1313" style="stroke:#000000;stroke-width:0.1;"/>
                <!-- Arc -->
                <path d="M2328.6705,2235.9563 A50.8,50.8 0 0,1 2386.2596,2259.5034" style="stroke:#000000;stroke-width:0.1;"/>
                <!-- Polyline -->
                <path d="M2386.2596,2259.5034 L2622.0033,2667.8236 L2589.0077,2686.8736" style="stroke:#000000;stroke-width:0.1;"/>
                <!-- Polyline -->
                <path d="M1874.8282,2554.7784 L2110.572,2963.0986 L2143.5676,2944.0486" style="stroke:#000000;stroke-width:0.1;"/>
                <!-- Polyline -->
                <path d="M2168.9804,2988.0648 L2614.4205,2730.8898 L2328.6705,2235.9563 L1883.2304,2493.1313 Z" style="stroke:#000000;stroke-width:0.1;"/>
                <!-- Hatch -->
                <path d="M1883.2304,2493.1313 L2328.6705,2235.9563 L2367.5643,2303.3223 L1922.1241,2560.4973 ZM1922.1241,2560.4973 L2367.5643,2303.3223 L2614.4205,2730.8898 L2168.9804,2988.0648 Z" style="fill-rule:evenodd;"/>
                <!-- Hatch -->
                <path d="M2328.6705,2235.9563 A50.8,50.8 0 0 1 2386.2596,2259.5035 L2622.0033,2667.8236 L2589.0077,2686.8736 ZM1874.8282,2554.7783 A50.8,50.8 0 0 1 1883.2304,2493.1313 L2143.5676,2944.0486 L2110.572,2963.0986 L1874.8282,2554.7783" style="fill-rule:evenodd;"/>
            </g>
            <!-- Block Reference: chair_04_top_cad-block.com / entities: 8 -->
            <g>
                <!-- Line -->
                <path d="M1155.1287,3003.3223 L709.6886,3260.4973 " style="stroke:#000000;stroke-width:0.1;"/>
                <!-- Arc -->
                <path d="M1173.824,2959.5034 A50.8,50.8 0 0,0 1116.235,2935.9563" style="stroke:#000000;stroke-width:0.1;"/>
                <!-- Arc -->
                <path d="M670.7948,3193.1313 A50.8,50.8 0 0,0 662.3927,3254.7784" style="stroke:#000000;stroke-width:0.1;"/>
                <!-- Polyline -->
                <path d="M662.3927,3254.7784 L898.1364,3663.0986 L931.132,3644.0486" style="stroke:#000000;stroke-width:0.1;"/>
                <!-- Polyline -->
                <path d="M1173.824,2959.5034 L1409.5677,3367.8236 L1376.5722,3386.8736" style="stroke:#000000;stroke-width:0.1;"/>
                <!-- Polyline -->
                <path d="M1401.985,3430.8898 L956.5448,3688.0648 L670.7948,3193.1313 L1116.235,2935.9563 Z" style="stroke:#000000;stroke-width:0.1;"/>
                <!-- Hatch -->
                <path d="M1116.235,2935.9563 L670.7948,3193.1313 L709.6886,3260.4973 L1155.1287,3003.3223 ZM1155.1287,3003.3223 L709.6886,3260.4973 L956.5448,3688.0648 L1401.985,3430.8898 Z" style="fill-rule:evenodd;"/>
                <!-- Hatch -->
                <path d="M670.7948,3193.1313 A50.8,50.8 0 0 0 662.3928,3254.7785 L898.1364,3663.0986 L931.132,3644.0486 ZM1173.8239,2959.5033 A50.8,50.8 0 0 0 1116.235,2935.9563 L1376.5722,3386.8736 L1409.5677,3367.8236 L1173.8239,2959.5033" style="fill-rule:evenodd;"/>
            </g>
            <!-- Block Reference: chair_04_top_cad-block.com / entities: 8 -->
            <g>
                <!-- Line -->
                <path d="M1761.3465,2653.3223 L1315.9063,2910.4973 " style="stroke:#000000;stroke-width:0.1;"/>
                <!-- Arc -->
                <path d="M1780.0418,2609.5034 A50.8,50.8 0 0,0 1722.4528,2585.9563" style="stroke:#000000;stroke-width:0.1;"/>
                <!-- Arc -->
                <path d="M1277.0126,2843.1313 A50.8,50.8 0 0,0 1268.6105,2904.7784" style="stroke:#000000;stroke-width:0.1;"/>
                <!-- Polyline -->
                <path d="M1268.6105,2904.7784 L1504.3542,3313.0986 L1537.3498,3294.0486" style="stroke:#000000;stroke-width:0.1;"/>
                <!-- Polyline -->
                <path d="M1780.0418,2609.5034 L2015.7855,3017.8236 L1982.79,3036.8736" style="stroke:#000000;stroke-width:0.1;"/>
                <!-- Polyline -->
                <path d="M2008.2028,3080.8898 L1562.7626,3338.0648 L1277.0126,2843.1313 L1722.4528,2585.9563 Z" style="stroke:#000000;stroke-width:0.1;"/>
                <!-- Hatch -->
                <path d="M1722.4528,2585.9563 L1277.0126,2843.1313 L1315.9063,2910.4973 L1761.3465,2653.3223 ZM1761.3465,2653.3223 L1315.9063,2910.4973 L1562.7626,3338.0648 L2008.2028,3080.8898 Z" style="fill-rule:evenodd;"/>
                <!-- Hatch -->
                <path d="M1277.0126,2843.1313 A50.8,50.8 0 0 0 1268.6105,2904.7785 L1504.3542,3313.0986 L1537.3498,3294.0486 ZM1780.0417,2609.5033 A50.8,50.8 0 0 0 1722.4528,2585.9563 L1982.79,3036.8736 L2015.7855,3017.8236 L1780.0417,2609.5033" style="fill-rule:evenodd;"/>
            </g>
            <!-- Block Reference: chair_04_top_cad-block.com / entities: 8 -->
            <g>
                <!-- Line -->
                <path d="M548.9109,3353.3223 L103.4708,3610.4973 " style="stroke:#000000;stroke-width:0.1;"/>
                <!-- Arc -->
                <path d="M567.6062,3309.5034 A50.8,50.8 0 0,0 510.0172,3285.9563" style="stroke:#000000;stroke-width:0.1;"/>
                <!-- Arc -->
                <path d="M64.577,3543.1313 A50.8,50.8 0 0,0 56.1749,3604.7784" style="stroke:#000000;stroke-width:0.1;"/>
                <!-- Polyline -->
                <path d="M56.1749,3604.7784 L291.9187,4013.0986 L324.9142,3994.0486" style="stroke:#000000;stroke-width:0.1;"/>
                <!-- Polyline -->
                <path d="M567.6062,3309.5034 L803.35,3717.8236 L770.3544,3736.8736" style="stroke:#000000;stroke-width:0.1;"/>
                <!-- Polyline -->
                <path d="M795.7672,3780.8898 L350.327,4038.0648 L64.577,3543.1313 L510.0172,3285.9563 Z" style="stroke:#000000;stroke-width:0.1;"/>
                <!-- Hatch -->
                <path d="M510.0172,3285.9563 L64.577,3543.1313 L103.4708,3610.4973 L548.9109,3353.3223 ZM548.9109,3353.3223 L103.4708,3610.4973 L350.327,4038.0648 L795.7672,3780.8898 Z" style="fill-rule:evenodd;"/>
                <!-- Hatch -->
                <path d="M64.577,3543.1313 A50.8,50.8 0 0 0 56.175,3604.7785 L291.9187,4013.0986 L324.9142,3994.0486 ZM567.6061,3309.5033 A50.8,50.8 0 0 0 510.0172,3285.9563 L770.3544,3736.8736 L803.35,3717.8236 L567.6061,3309.5033" style="fill-rule:evenodd;"/>
            </g>
            <!-- Block Reference: chair_04_top_cad-block.com / entities: 8 -->
            <g>
                <!-- Line -->
                <path d="M2528.3419,810.4973 L2973.7821,553.3223 " style="stroke:#000000;stroke-width:0.1;"/>
                <!-- Arc -->
                <path d="M2481.046,804.7784 A50.8,50.8 0 0,1 2489.4482,743.1313" style="stroke:#000000;stroke-width:0.1;"/>
                <!-- Arc -->
                <path d="M2934.8883,485.9563 A50.8,50.8 0 0,1 2992.4773,509.5034" style="stroke:#000000;stroke-width:0.1;"/>
                <!-- Polyline -->
                <path d="M2992.4773,509.5034 L3228.2211,917.8236 L3195.2255,936.8736" style="stroke:#000000;stroke-width:0.1;"/>
                <!-- Polyline -->
                <path d="M2481.046,804.7784 L2716.7898,1213.0986 L2749.7854,1194.0486" style="stroke:#000000;stroke-width:0.1;"/>
                <!-- Polyline -->
                <path d="M2775.1982,1238.0648 L3220.6383,980.8898 L2934.8883,485.9563 L2489.4482,743.1313 Z" style="stroke:#000000;stroke-width:0.1;"/>
                <!-- Hatch -->
                <path d="M2489.4482,743.1313 L2934.8883,485.9563 L2973.7821,553.3223 L2528.3419,810.4973 ZM2528.3419,810.4973 L2973.7821,553.3223 L3220.6383,980.8898 L2775.1982,1238.0648 Z" style="fill-rule:evenodd;"/>
                <!-- Hatch -->
                <path d="M2934.8883,485.9563 A50.8,50.8 0 0 1 2992.4774,509.5035 L3228.2211,917.8236 L3195.2255,936.8736 ZM2481.046,804.7783 A50.8,50.8 0 0 1 2489.4482,743.1313 L2749.7854,1194.0486 L2716.7898,1213.0986 L2481.046,804.7783" style="fill-rule:evenodd;"/>
            </g>
            <!-- Block Reference: chair_04_top_cad-block.com / entities: 8 -->
            <g>
                <!-- Line -->
                <path d="M1922.1241,1160.4973 L2367.5643,903.3223 " style="stroke:#000000;stroke-width:0.1;"/>
                <!-- Arc -->
                <path d="M1874.8282,1154.7784 A50.8,50.8 0 0,1 1883.2304,1093.1313" style="stroke:#000000;stroke-width:0.1;"/>
                <!-- Arc -->
                <path d="M2328.6705,835.9563 A50.8,50.8 0 0,1 2386.2596,859.5034" style="stroke:#000000;stroke-width:0.1;"/>
                <!-- Polyline -->
                <path d="M2386.2596,859.5034 L2622.0033,1267.8236 L2589.0077,1286.8736" style="stroke:#000000;stroke-width:0.1;"/>
                <!-- Polyline -->
                <path d="M1874.8282,1154.7784 L2110.572,1563.0986 L2143.5676,1544.0486" style="stroke:#000000;stroke-width:0.1;"/>
                <!-- Polyline -->
                <path d="M2168.9804,1588.0648 L2614.4205,1330.8898 L2328.6705,835.9563 L1883.2304,1093.1313 Z" style="stroke:#000000;stroke-width:0.1;"/>
                <!-- Hatch -->
                <path d="M1883.2304,1093.1313 L2328.6705,835.9563 L2367.5643,903.3223 L1922.1241,1160.4973 ZM1922.1241,1160.4973 L2367.5643,903.3223 L2614.4205,1330.8898 L2168.9804,1588.0648 Z" style="fill-rule:evenodd;"/>
                <!-- Hatch -->
                <path d="M2328.6705,835.9563 A50.8,50.8 0 0 1 2386.2596,859.5035 L2622.0033,1267.8236 L2589.0077,1286.8736 ZM1874.8282,1154.7783 A50.8,50.8 0 0 1 1883.2304,1093.1313 L2143.5676,1544.0486 L2110.572,1563.0986 L1874.8282,1154.7783" style="fill-rule:evenodd;"/>
            </g>
            <!-- Block Reference: chair_04_top_cad-block.com / entities: 8 -->
            <g>
                <!-- Line -->
                <path d="M1155.1287,1603.3223 L709.6886,1860.4973 " style="stroke:#000000;stroke-width:0.1;"/>
                <!-- Arc -->
                <path d="M1173.824,1559.5034 A50.8,50.8 0 0,0 1116.235,1535.9563" style="stroke:#000000;stroke-width:0.1;"/>
                <!-- Arc -->
                <path d="M670.7948,1793.1313 A50.8,50.8 0 0,0 662.3927,1854.7784" style="stroke:#000000;stroke-width:0.1;"/>
                <!-- Polyline -->
                <path d="M662.3927,1854.7784 L898.1364,2263.0986 L931.132,2244.0486" style="stroke:#000000;stroke-width:0.1;"/>
                <!-- Polyline -->
                <path d="M1173.824,1559.5034 L1409.5677,1967.8236 L1376.5722,1986.8736" style="stroke:#000000;stroke-width:0.1;"/>
                <!-- Polyline -->
                <path d="M1401.985,2030.8898 L956.5448,2288.0648 L670.7948,1793.1313 L1116.235,1535.9563 Z" style="stroke:#000000;stroke-width:0.1;"/>
                <!-- Hatch -->
                <path d="M1116.235,1535.9563 L670.7948,1793.1313 L709.6886,1860.4973 L1155.1287,1603.3223 ZM1155.1287,1603.3223 L709.6886,1860.4973 L956.5448,2288.0648 L1401.985,2030.8898 Z" style="fill-rule:evenodd;"/>
                <!-- Hatch -->
                <path d="M670.7948,1793.1313 A50.8,50.8 0 0 0 662.3928,1854.7785 L898.1364,2263.0986 L931.132,2244.0486 ZM1173.8239,1559.5033 A50.8,50.8 0 0 0 1116.235,1535.9563 L1376.5722,1986.8736 L1409.5677,1967.8236 L1173.8239,1559.5033" style="fill-rule:evenodd;"/>
            </g>
            <!-- Block Reference: chair_04_top_cad-block.com / entities: 8 -->
            <g>
                <!-- Line -->
                <path d="M1761.3465,1253.3223 L1315.9063,1510.4973 " style="stroke:#000000;stroke-width:0.1;"/>
                <!-- Arc -->
                <path d="M1780.0418,1209.5034 A50.8,50.8 0 0,0 1722.4528,1185.9563" style="stroke:#000000;stroke-width:0.1;"/>
                <!-- Arc -->
                <path d="M1277.0126,1443.1313 A50.8,50.8 0 0,0 1268.6105,1504.7784" style="stroke:#000000;stroke-width:0.1;"/>
                <!-- Polyline -->
                <path d="M1268.6105,1504.7784 L1504.3542,1913.0986 L1537.3498,1894.0486" style="stroke:#000000;stroke-width:0.1;"/>
                <!-- Polyline -->
                <path d="M1780.0418,1209.5034 L2015.7855,1617.8236 L1982.79,1636.8736" style="stroke:#000000;stroke-width:0.1;"/>
                <!-- Polyline -->
                <path d="M2008.2028,1680.8898 L1562.7626,1938.0648 L1277.0126,1443.1313 L1722.4528,1185.9563 Z" style="stroke:#000000;stroke-width:0.1;"/>
                <!-- Hatch -->
                <path d="M1722.4528,1185.9563 L1277.0126,1443.1313 L1315.9063,1510.4973 L1761.3465,1253.3223 ZM1761.3465,1253.3223 L1315.9063,1510.4973 L1562.7626,1938.0648 L2008.2028,1680.8898 Z" style="fill-rule:evenodd;"/>
                <!-- Hatch -->
                <path d="M1277.0126,1443.1313 A50.8,50.8 0 0 0 1268.6105,1504.7785 L1504.3542,1913.0986 L1537.3498,1894.0486 ZM1780.0417,1209.5033 A50.8,50.8 0 0 0 1722.4528,1185.9563 L1982.79,1636.8736 L2015.7855,1617.8236 L1780.0417,1209.5033" style="fill-rule:evenodd;"/>
            </g>
            <!-- Block Reference: chair_04_top_cad-block.com / entities: 8 -->
            <g>
                <!-- Line -->
                <path d="M548.9109,1953.3223 L103.4708,2210.4973 " style="stroke:#000000;stroke-width:0.1;"/>
                <!-- Arc -->
                <path d="M567.6062,1909.5034 A50.8,50.8 0 0,0 510.0172,1885.9563" style="stroke:#000000;stroke-width:0.1;"/>
                <!-- Arc -->
                <path d="M64.577,2143.1313 A50.8,50.8 0 0,0 56.1749,2204.7784" style="stroke:#000000;stroke-width:0.1;"/>
                <!-- Polyline -->
                <path d="M56.1749,2204.7784 L291.9187,2613.0986 L324.9142,2594.0486" style="stroke:#000000;stroke-width:0.1;"/>
                <!-- Polyline -->
                <path d="M567.6062,1909.5034 L803.35,2317.8236 L770.3544,2336.8736" style="stroke:#000000;stroke-width:0.1;"/>
                <!-- Polyline -->
                <path d="M795.7672,2380.8898 L350.327,2638.0648 L64.577,2143.1313 L510.0172,1885.9563 Z" style="stroke:#000000;stroke-width:0.1;"/>
                <!-- Hatch -->
                <path d="M510.0172,1885.9563 L64.577,2143.1313 L103.4708,2210.4973 L548.9109,1953.3223 ZM548.9109,1953.3223 L103.4708,2210.4973 L350.327,2638.0648 L795.7672,2380.8898 Z" style="fill-rule:evenodd;"/>
                <!-- Hatch -->
                <path d="M64.577,2143.1313 A50.8,50.8 0 0 0 56.175,2204.7785 L291.9187,2613.0986 L324.9142,2594.0486 ZM567.6061,1909.5033 A50.8,50.8 0 0 0 510.0172,1885.9563 L770.3544,2336.8736 L803.35,2317.8236 L567.6061,1909.5033" style="fill-rule:evenodd;"/>
            </g>
            <!-- Block Reference: chair_04_top_cad-block.com / entities: 8 -->
            <g>
                <!-- Line -->
                <path d="M5112.9347,3610.4973 L4667.4946,3353.3223 " style="stroke:#000000;stroke-width:0.1;"/>
                <!-- Arc -->
                <path d="M5160.2306,3604.7784 A50.8,50.8 0 0,0 5151.8285,3543.1313" style="stroke:#000000;stroke-width:0.1;"/>
                <!-- Arc -->
                <path d="M4706.3883,3285.9563 A50.8,50.8 0 0,0 4648.7993,3309.5034" style="stroke:#000000;stroke-width:0.1;"/>
                <!-- Polyline -->
                <path d="M4648.7993,3309.5034 L4413.0556,3717.8236 L4446.0511,3736.8736" style="stroke:#000000;stroke-width:0.1;"/>
                <!-- Polyline -->
                <path d="M5160.2306,3604.7784 L4924.4869,4013.0986 L4891.4913,3994.0486" style="stroke:#000000;stroke-width:0.1;"/>
                <!-- Polyline -->
                <path d="M4866.0785,4038.0648 L4420.6383,3780.8898 L4706.3883,3285.9563 L5151.8285,3543.1313 Z" style="stroke:#000000;stroke-width:0.1;"/>
                <!-- Hatch -->
                <path d="M5151.8285,3543.1313 L4706.3883,3285.9563 L4667.4946,3353.3223 L5112.9347,3610.4973 ZM5112.9347,3610.4973 L4667.4946,3353.3223 L4420.6383,3780.8898 L4866.0785,4038.0648 Z" style="fill-rule:evenodd;"/>
                <!-- Hatch -->
                <path d="M4706.3883,3285.9563 A50.8,50.8 0 0 0 4648.7992,3309.5035 L4413.0556,3717.8236 L4446.0511,3736.8736 ZM5160.2307,3604.7783 A50.8,50.8 0 0 0 5151.8285,3543.1313 L4891.4913,3994.0486 L4924.4869,4013.0986 L5160.2307,3604.7783" style="fill-rule:evenodd;"/>
            </g>
            <!-- Block Reference: chair_04_top_cad-block.com / entities: 8 -->
            <g>
                <!-- Line -->
                <path d="M5719.1525,3960.4973 L5273.7124,3703.3223 " style="stroke:#000000;stroke-width:0.1;"/>
                <!-- Arc -->
                <path d="M5766.4484,3954.7784 A50.8,50.8 0 0,0 5758.0463,3893.1313" style="stroke:#000000;stroke-width:0.1;"/>
                <!-- Arc -->
                <path d="M5312.6061,3635.9563 A50.8,50.8 0 0,0 5255.0171,3659.5034" style="stroke:#000000;stroke-width:0.1;"/>
                <!-- Polyline -->
                <path d="M5255.0171,3659.5034 L5019.2733,4067.8236 L5052.2689,4086.8736" style="stroke:#000000;stroke-width:0.1;"/>
                <!-- Polyline -->
                <path d="M5766.4484,3954.7784 L5530.7046,4363.0986 L5497.7091,4344.0486" style="stroke:#000000;stroke-width:0.1;"/>
                <!-- Polyline -->
                <path d="M5472.2963,4388.0648 L5026.8561,4130.8898 L5312.6061,3635.9563 L5758.0463,3893.1313 Z" style="stroke:#000000;stroke-width:0.1;"/>
                <!-- Hatch -->
                <path d="M5758.0463,3893.1313 L5312.6061,3635.9563 L5273.7124,3703.3223 L5719.1525,3960.4973 ZM5719.1525,3960.4973 L5273.7124,3703.3223 L5026.8561,4130.8898 L5472.2963,4388.0648 Z" style="fill-rule:evenodd;"/>
                <!-- Hatch -->
                <path d="M5312.6061,3635.9563 A50.8,50.8 0 0 0 5255.017,3659.5035 L5019.2733,4067.8236 L5052.2689,4086.8736 ZM5766.4485,3954.7783 A50.8,50.8 0 0 0 5758.0463,3893.1313 L5497.7091,4344.0486 L5530.7046,4363.0986 L5766.4485,3954.7783" style="fill-rule:evenodd;"/>
            </g>
            <!-- Block Reference: chair_04_top_cad-block.com / entities: 8 -->
            <g>
                <!-- Line -->
                <path d="M6486.1479,4403.3223 L6931.5881,4660.4973 " style="stroke:#000000;stroke-width:0.1;"/>
                <!-- Arc -->
                <path d="M6467.4527,4359.5034 A50.8,50.8 0 0,1 6525.0417,4335.9563" style="stroke:#000000;stroke-width:0.1;"/>
                <!-- Arc -->
                <path d="M6970.4818,4593.1313 A50.8,50.8 0 0,1 6978.884,4654.7784" style="stroke:#000000;stroke-width:0.1;"/>
                <!-- Polyline -->
                <path d="M6978.884,4654.7784 L6743.1402,5063.0986 L6710.1446,5044.0486" style="stroke:#000000;stroke-width:0.1;"/>
                <!-- Polyline -->
                <path d="M6467.4527,4359.5034 L6231.7089,4767.8236 L6264.7045,4786.8736" style="stroke:#000000;stroke-width:0.1;"/>
                <!-- Polyline -->
                <path d="M6239.2917,4830.8898 L6684.7318,5088.0648 L6970.4818,4593.1313 L6525.0417,4335.9563 Z" style="stroke:#000000;stroke-width:0.1;"/>
                <!-- Hatch -->
                <path d="M6525.0417,4335.9563 L6970.4818,4593.1313 L6931.5881,4660.4973 L6486.1479,4403.3223 ZM6486.1479,4403.3223 L6931.5881,4660.4973 L6684.7318,5088.0648 L6239.2917,4830.8898 Z" style="fill-rule:evenodd;"/>
                <!-- Hatch -->
                <path d="M6970.4818,4593.1313 A50.8,50.8 0 0 1 6978.8839,4654.7785 L6743.1402,5063.0986 L6710.1446,5044.0486 ZM6467.4527,4359.5033 A50.8,50.8 0 0 1 6525.0417,4335.9563 L6264.7045,4786.8736 L6231.7089,4767.8236 L6467.4527,4359.5033" style="fill-rule:evenodd;"/>
            </g>
            <!-- Block Reference: chair_04_top_cad-block.com / entities: 8 -->
            <g>
                <!-- Line -->
                <path d="M5879.9301,4053.3223 L6325.3703,4310.4973 " style="stroke:#000000;stroke-width:0.1;"/>
                <!-- Arc -->
                <path d="M5861.2349,4009.5034 A50.8,50.8 0 0,1 5918.8239,3985.9563" style="stroke:#000000;stroke-width:0.1;"/>
                <!-- Arc -->
                <path d="M6364.2641,4243.1313 A50.8,50.8 0 0,1 6372.6662,4304.7784" style="stroke:#000000;stroke-width:0.1;"/>
                <!-- Polyline -->
                <path d="M6372.6662,4304.7784 L6136.9224,4713.0986 L6103.9269,4694.0486" style="stroke:#000000;stroke-width:0.1;"/>
                <!-- Polyline -->
                <path d="M5861.2349,4009.5034 L5625.4911,4417.8236 L5658.4867,4436.8736" style="stroke:#000000;stroke-width:0.1;"/>
                <!-- Polyline -->
                <path d="M5633.0739,4480.8898 L6078.5141,4738.0648 L6364.2641,4243.1313 L5918.8239,3985.9563 Z" style="stroke:#000000;stroke-width:0.1;"/>
                <!-- Hatch -->
                <path d="M5918.8239,3985.9563 L6364.2641,4243.1313 L6325.3703,4310.4973 L5879.9301,4053.3223 ZM5879.9301,4053.3223 L6325.3703,4310.4973 L6078.5141,4738.0648 L5633.0739,4480.8898 Z" style="fill-rule:evenodd;"/>
                <!-- Hatch -->
                <path d="M6364.2641,4243.1313 A50.8,50.8 0 0 1 6372.6661,4304.7785 L6136.9224,4713.0986 L6103.9269,4694.0486 ZM5861.2349,4009.5033 A50.8,50.8 0 0 1 5918.8239,3985.9563 L5658.4867,4436.8736 L5625.4911,4417.8236 L5861.2349,4009.5033" style="fill-rule:evenodd;"/>
            </g>
            <!-- Block Reference: chair_04_top_cad-block.com / entities: 8 -->
            <g>
                <!-- Line -->
                <path d="M7092.3657,4753.3223 L7537.8059,5010.4973 " style="stroke:#000000;stroke-width:0.1;"/>
                <!-- Arc -->
                <path d="M7073.6704,4709.5034 A50.8,50.8 0 0,1 7131.2595,4685.9563" style="stroke:#000000;stroke-width:0.1;"/>
                <!-- Arc -->
                <path d="M7576.6996,4943.1313 A50.8,50.8 0 0,1 7585.1017,5004.7784" style="stroke:#000000;stroke-width:0.1;"/>
                <!-- Polyline -->
                <path d="M7585.1017,5004.7784 L7349.358,5413.0986 L7316.3624,5394.0486" style="stroke:#000000;stroke-width:0.1;"/>
                <!-- Polyline -->
                <path d="M7073.6704,4709.5034 L6837.9267,5117.8236 L6870.9223,5136.8736" style="stroke:#000000;stroke-width:0.1;"/>
                <!-- Polyline -->
                <path d="M6845.5095,5180.8898 L7290.9496,5438.0648 L7576.6996,4943.1313 L7131.2595,4685.9563 Z" style="stroke:#000000;stroke-width:0.1;"/>
                <!-- Hatch -->
                <path d="M7131.2595,4685.9563 L7576.6996,4943.1313 L7537.8059,5010.4973 L7092.3657,4753.3223 ZM7092.3657,4753.3223 L7537.8059,5010.4973 L7290.9496,5438.0648 L6845.5095,5180.8898 Z" style="fill-rule:evenodd;"/>
                <!-- Hatch -->
                <path d="M7576.6996,4943.1313 A50.8,50.8 0 0 1 7585.1017,5004.7785 L7349.358,5413.0986 L7316.3624,5394.0486 ZM7073.6705,4709.5033 A50.8,50.8 0 0 1 7131.2595,4685.9563 L6870.9223,5136.8736 L6837.9267,5117.8236 L7073.6705,4709.5033" style="fill-rule:evenodd;"/>
            </g>
            <!-- Block Reference: chair_04_top_cad-block.com / entities: 8 -->
            <g>
                <!-- Line -->
                <path d="M5112.9347,2210.4973 L4667.4946,1953.3223 " style="stroke:#000000;stroke-width:0.1;"/>
                <!-- Arc -->
                <path d="M5160.2306,2204.7784 A50.8,50.8 0 0,0 5151.8285,2143.1313" style="stroke:#000000;stroke-width:0.1;"/>
                <!-- Arc -->
                <path d="M4706.3883,1885.9563 A50.8,50.8 0 0,0 4648.7993,1909.5034" style="stroke:#000000;stroke-width:0.1;"/>
                <!-- Polyline -->
                <path d="M4648.7993,1909.5034 L4413.0556,2317.8236 L4446.0511,2336.8736" style="stroke:#000000;stroke-width:0.1;"/>
                <!-- Polyline -->
                <path d="M5160.2306,2204.7784 L4924.4869,2613.0986 L4891.4913,2594.0486" style="stroke:#000000;stroke-width:0.1;"/>
                <!-- Polyline -->
                <path d="M4866.0785,2638.0648 L4420.6383,2380.8898 L4706.3883,1885.9563 L5151.8285,2143.1313 Z" style="stroke:#000000;stroke-width:0.1;"/>
                <!-- Hatch -->
                <path d="M5151.8285,2143.1313 L4706.3883,1885.9563 L4667.4946,1953.3223 L5112.9347,2210.4973 ZM5112.9347,2210.4973 L4667.4946,1953.3223 L4420.6383,2380.8898 L4866.0785,2638.0648 Z" style="fill-rule:evenodd;"/>
                <!-- Hatch -->
                <path d="M4706.3883,1885.9563 A50.8,50.8 0 0 0 4648.7992,1909.5035 L4413.0556,2317.8236 L4446.0511,2336.8736 ZM5160.2307,2204.7783 A50.8,50.8 0 0 0 5151.8285,2143.1313 L4891.4913,2594.0486 L4924.4869,2613.0986 L5160.2307,2204.7783" style="fill-rule:evenodd;"/>
            </g>
            <!-- Block Reference: chair_04_top_cad-block.com / entities: 8 -->
            <g>
                <!-- Line -->
                <path d="M5719.1525,2560.4973 L5273.7124,2303.3223 " style="stroke:#000000;stroke-width:0.1;"/>
                <!-- Arc -->
                <path d="M5766.4484,2554.7784 A50.8,50.8 0 0,0 5758.0463,2493.1313" style="stroke:#000000;stroke-width:0.1;"/>
                <!-- Arc -->
                <path d="M5312.6061,2235.9563 A50.8,50.8 0 0,0 5255.0171,2259.5034" style="stroke:#000000;stroke-width:0.1;"/>
                <!-- Polyline -->
                <path d="M5255.0171,2259.5034 L5019.2733,2667.8236 L5052.2689,2686.8736" style="stroke:#000000;stroke-width:0.1;"/>
                <!-- Polyline -->
                <path d="M5766.4484,2554.7784 L5530.7046,2963.0986 L5497.7091,2944.0486" style="stroke:#000000;stroke-width:0.1;"/>
                <!-- Polyline -->
                <path d="M5472.2963,2988.0648 L5026.8561,2730.8898 L5312.6061,2235.9563 L5758.0463,2493.1313 Z" style="stroke:#000000;stroke-width:0.1;"/>
                <!-- Hatch -->
                <path d="M5758.0463,2493.1313 L5312.6061,2235.9563 L5273.7124,2303.3223 L5719.1525,2560.4973 ZM5719.1525,2560.4973 L5273.7124,2303.3223 L5026.8561,2730.8898 L5472.2963,2988.0648 Z" style="fill-rule:evenodd;"/>
                <!-- Hatch -->
                <path d="M5312.6061,2235.9563 A50.8,50.8 0 0 0 5255.017,2259.5035 L5019.2733,2667.8236 L5052.2689,2686.8736 ZM5766.4485,2554.7783 A50.8,50.8 0 0 0 5758.0463,2493.1313 L5497.7091,2944.0486 L5530.7046,2963.0986 L5766.4485,2554.7783" style="fill-rule:evenodd;"/>
            </g>
            <!-- Block Reference: chair_04_top_cad-block.com / entities: 8 -->
            <g>
                <!-- Line -->
                <path d="M6486.1479,3003.3223 L6931.5881,3260.4973 " style="stroke:#000000;stroke-width:0.1;"/>
                <!-- Arc -->
                <path d="M6467.4527,2959.5034 A50.8,50.8 0 0,1 6525.0417,2935.9563" style="stroke:#000000;stroke-width:0.1;"/>
                <!-- Arc -->
                <path d="M6970.4818,3193.1313 A50.8,50.8 0 0,1 6978.884,3254.7784" style="stroke:#000000;stroke-width:0.1;"/>
                <!-- Polyline -->
                <path d="M6978.884,3254.7784 L6743.1402,3663.0986 L6710.1446,3644.0486" style="stroke:#000000;stroke-width:0.1;"/>
                <!-- Polyline -->
                <path d="M6467.4527,2959.5034 L6231.7089,3367.8236 L6264.7045,3386.8736" style="stroke:#000000;stroke-width:0.1;"/>
                <!-- Polyline -->
                <path d="M6239.2917,3430.8898 L6684.7318,3688.0648 L6970.4818,3193.1313 L6525.0417,2935.9563 Z" style="stroke:#000000;stroke-width:0.1;"/>
                <!-- Hatch -->
                <path d="M6525.0417,2935.9563 L6970.4818,3193.1313 L6931.5881,3260.4973 L6486.1479,3003.3223 ZM6486.1479,3003.3223 L6931.5881,3260.4973 L6684.7318,3688.0648 L6239.2917,3430.8898 Z" style="fill-rule:evenodd;"/>
                <!-- Hatch -->
                <path d="M6970.4818,3193.1313 A50.8,50.8 0 0 1 6978.8839,3254.7785 L6743.1402,3663.0986 L6710.1446,3644.0486 ZM6467.4527,2959.5033 A50.8,50.8 0 0 1 6525.0417,2935.9563 L6264.7045,3386.8736 L6231.7089,3367.8236 L6467.4527,2959.5033" style="fill-rule:evenodd;"/>
            </g>
            <!-- Block Reference: chair_04_top_cad-block.com / entities: 8 -->
            <g>
                <!-- Line -->
                <path d="M5879.9301,2653.3223 L6325.3703,2910.4973 " style="stroke:#000000;stroke-width:0.1;"/>
                <!-- Arc -->
                <path d="M5861.2349,2609.5034 A50.8,50.8 0 0,1 5918.8239,2585.9563" style="stroke:#000000;stroke-width:0.1;"/>
                <!-- Arc -->
                <path d="M6364.2641,2843.1313 A50.8,50.8 0 0,1 6372.6662,2904.7784" style="stroke:#000000;stroke-width:0.1;"/>
                <!-- Polyline -->
                <path d="M6372.6662,2904.7784 L6136.9224,3313.0986 L6103.9269,3294.0486" style="stroke:#000000;stroke-width:0.1;"/>
                <!-- Polyline -->
                <path d="M5861.2349,2609.5034 L5625.4911,3017.8236 L5658.4867,3036.8736" style="stroke:#000000;stroke-width:0.1;"/>
                <!-- Polyline -->
                <path d="M5633.0739,3080.8898 L6078.5141,3338.0648 L6364.2641,2843.1313 L5918.8239,2585.9563 Z" style="stroke:#000000;stroke-width:0.1;"/>
                <!-- Hatch -->
                <path d="M5918.8239,2585.9563 L6364.2641,2843.1313 L6325.3703,2910.4973 L5879.9301,2653.3223 ZM5879.9301,2653.3223 L6325.3703,2910.4973 L6078.5141,3338.0648 L5633.0739,3080.8898 Z" style="fill-rule:evenodd;"/>
                <!-- Hatch -->
                <path d="M6364.2641,2843.1313 A50.8,50.8 0 0 1 6372.6661,2904.7785 L6136.9224,3313.0986 L6103.9269,3294.0486 ZM5861.2349,2609.5033 A50.8,50.8 0 0 1 5918.8239,2585.9563 L5658.4867,3036.8736 L5625.4911,3017.8236 L5861.2349,2609.5033" style="fill-rule:evenodd;"/>
            </g>
            <!-- Block Reference: chair_04_top_cad-block.com / entities: 8 -->
            <g>
                <!-- Line -->
                <path d="M7092.3657,3353.3223 L7537.8059,3610.4973 " style="stroke:#000000;stroke-width:0.1;"/>
                <!-- Arc -->
                <path d="M7073.6704,3309.5034 A50.8,50.8 0 0,1 7131.2595,3285.9563" style="stroke:#000000;stroke-width:0.1;"/>
                <!-- Arc -->
                <path d="M7576.6996,3543.1313 A50.8,50.8 0 0,1 7585.1017,3604.7784" style="stroke:#000000;stroke-width:0.1;"/>
                <!-- Polyline -->
                <path d="M7585.1017,3604.7784 L7349.358,4013.0986 L7316.3624,3994.0486" style="stroke:#000000;stroke-width:0.1;"/>
                <!-- Polyline -->
                <path d="M7073.6704,3309.5034 L6837.9267,3717.8236 L6870.9223,3736.8736" style="stroke:#000000;stroke-width:0.1;"/>
                <!-- Polyline -->
                <path d="M6845.5095,3780.8898 L7290.9496,4038.0648 L7576.6996,3543.1313 L7131.2595,3285.9563 Z" style="stroke:#000000;stroke-width:0.1;"/>
                <!-- Hatch -->
                <path d="M7131.2595,3285.9563 L7576.6996,3543.1313 L7537.8059,3610.4973 L7092.3657,3353.3223 ZM7092.3657,3353.3223 L7537.8059,3610.4973 L7290.9496,4038.0648 L6845.5095,3780.8898 Z" style="fill-rule:evenodd;"/>
                <!-- Hatch -->
                <path d="M7576.6996,3543.1313 A50.8,50.8 0 0 1 7585.1017,3604.7785 L7349.358,4013.0986 L7316.3624,3994.0486 ZM7073.6705,3309.5033 A50.8,50.8 0 0 1 7131.2595,3285.9563 L6870.9223,3736.8736 L6837.9267,3717.8236 L7073.6705,3309.5033" style="fill-rule:evenodd;"/>
            </g>
            <!-- Block Reference: chair_04_top_cad-block.com / entities: 8 -->
            <g>
                <!-- Line -->
                <path d="M5112.9347,810.4973 L4667.4946,553.3223 " style="stroke:#000000;stroke-width:0.1;"/>
                <!-- Arc -->
                <path d="M5160.2306,804.7784 A50.8,50.8 0 0,0 5151.8285,743.1313" style="stroke:#000000;stroke-width:0.1;"/>
                <!-- Arc -->
                <path d="M4706.3883,485.9563 A50.8,50.8 0 0,0 4648.7993,509.5034" style="stroke:#000000;stroke-width:0.1;"/>
                <!-- Polyline -->
                <path d="M4648.7993,509.5034 L4413.0556,917.8236 L4446.0511,936.8736" style="stroke:#000000;stroke-width:0.1;"/>
                <!-- Polyline -->
                <path d="M5160.2306,804.7784 L4924.4869,1213.0986 L4891.4913,1194.0486" style="stroke:#000000;stroke-width:0.1;"/>
                <!-- Polyline -->
                <path d="M4866.0785,1238.0648 L4420.6383,980.8898 L4706.3883,485.9563 L5151.8285,743.1313 Z" style="stroke:#000000;stroke-width:0.1;"/>
                <!-- Hatch -->
                <path d="M5151.8285,743.1313 L4706.3883,485.9563 L4667.4946,553.3223 L5112.9347,810.4973 ZM5112.9347,810.4973 L4667.4946,553.3223 L4420.6383,980.8898 L4866.0785,1238.0648 Z" style="fill-rule:evenodd;"/>
                <!-- Hatch -->
                <path d="M4706.3883,485.9563 A50.8,50.8 0 0 0 4648.7992,509.5035 L4413.0556,917.8236 L4446.0511,936.8736 ZM5160.2307,804.7783 A50.8,50.8 0 0 0 5151.8285,743.1313 L4891.4913,1194.0486 L4924.4869,1213.0986 L5160.2307,804.7783" style="fill-rule:evenodd;"/>
            </g>
            <!-- Block Reference: chair_04_top_cad-block.com / entities: 8 -->
            <g>
                <!-- Line -->
                <path d="M5719.1525,1160.4973 L5273.7124,903.3223 " style="stroke:#000000;stroke-width:0.1;"/>
                <!-- Arc -->
                <path d="M5766.4484,1154.7784 A50.8,50.8 0 0,0 5758.0463,1093.1313" style="stroke:#000000;stroke-width:0.1;"/>
                <!-- Arc -->
                <path d="M5312.6061,835.9563 A50.8,50.8 0 0,0 5255.0171,859.5034" style="stroke:#000000;stroke-width:0.1;"/>
                <!-- Polyline -->
                <path d="M5255.0171,859.5034 L5019.2733,1267.8236 L5052.2689,1286.8736" style="stroke:#000000;stroke-width:0.1;"/>
                <!-- Polyline -->
                <path d="M5766.4484,1154.7784 L5530.7046,1563.0986 L5497.7091,1544.0486" style="stroke:#000000;stroke-width:0.1;"/>
                <!-- Polyline -->
                <path d="M5472.2963,1588.0648 L5026.8561,1330.8898 L5312.6061,835.9563 L5758.0463,1093.1313 Z" style="stroke:#000000;stroke-width:0.1;"/>
                <!-- Hatch -->
                <path d="M5758.0463,1093.1313 L5312.6061,835.9563 L5273.7124,903.3223 L5719.1525,1160.4973 ZM5719.1525,1160.4973 L5273.7124,903.3223 L5026.8561,1330.8898 L5472.2963,1588.0648 Z" style="fill-rule:evenodd;"/>
                <!-- Hatch -->
                <path d="M5312.6061,835.9563 A50.8,50.8 0 0 0 5255.017,859.5035 L5019.2733,1267.8236 L5052.2689,1286.8736 ZM5766.4485,1154.7783 A50.8,50.8 0 0 0 5758.0463,1093.1313 L5497.7091,1544.0486 L5530.7046,1563.0986 L5766.4485,1154.7783" style="fill-rule:evenodd;"/>
            </g>
            <!-- Block Reference: chair_04_top_cad-block.com / entities: 8 -->
            <g>
                <!-- Line -->
                <path d="M6486.1479,1603.3223 L6931.5881,1860.4973 " style="stroke:#000000;stroke-width:0.1;"/>
                <!-- Arc -->
                <path d="M6467.4527,1559.5034 A50.8,50.8 0 0,1 6525.0417,1535.9563" style="stroke:#000000;stroke-width:0.1;"/>
                <!-- Arc -->
                <path d="M6970.4818,1793.1313 A50.8,50.8 0 0,1 6978.884,1854.7784" style="stroke:#000000;stroke-width:0.1;"/>
                <!-- Polyline -->
                <path d="M6978.884,1854.7784 L6743.1402,2263.0986 L6710.1446,2244.0486" style="stroke:#000000;stroke-width:0.1;"/>
                <!-- Polyline -->
                <path d="M6467.4527,1559.5034 L6231.7089,1967.8236 L6264.7045,1986.8736" style="stroke:#000000;stroke-width:0.1;"/>
                <!-- Polyline -->
                <path d="M6239.2917,2030.8898 L6684.7318,2288.0648 L6970.4818,1793.1313 L6525.0417,1535.9563 Z" style="stroke:#000000;stroke-width:0.1;"/>
                <!-- Hatch -->
                <path d="M6525.0417,1535.9563 L6970.4818,1793.1313 L6931.5881,1860.4973 L6486.1479,1603.3223 ZM6486.1479,1603.3223 L6931.5881,1860.4973 L6684.7318,2288.0648 L6239.2917,2030.8898 Z" style="fill-rule:evenodd;"/>
                <!-- Hatch -->
                <path d="M6970.4818,1793.1313 A50.8,50.8 0 0 1 6978.8839,1854.7785 L6743.1402,2263.0986 L6710.1446,2244.0486 ZM6467.4527,1559.5033 A50.8,50.8 0 0 1 6525.0417,1535.9563 L6264.7045,1986.8736 L6231.7089,1967.8236 L6467.4527,1559.5033" style="fill-rule:evenodd;"/>
            </g>
            <!-- Block Reference: chair_04_top_cad-block.com / entities: 8 -->
            <g>
                <!-- Line -->
                <path d="M5879.9301,1253.3223 L6325.3703,1510.4973 " style="stroke:#000000;stroke-width:0.1;"/>
                <!-- Arc -->
                <path d="M5861.2349,1209.5034 A50.8,50.8 0 0,1 5918.8239,1185.9563" style="stroke:#000000;stroke-width:0.1;"/>
                <!-- Arc -->
                <path d="M6364.2641,1443.1313 A50.8,50.8 0 0,1 6372.6662,1504.7784" style="stroke:#000000;stroke-width:0.1;"/>
                <!-- Polyline -->
                <path d="M6372.6662,1504.7784 L6136.9224,1913.0986 L6103.9269,1894.0486" style="stroke:#000000;stroke-width:0.1;"/>
                <!-- Polyline -->
                <path d="M5861.2349,1209.5034 L5625.4911,1617.8236 L5658.4867,1636.8736" style="stroke:#000000;stroke-width:0.1;"/>
                <!-- Polyline -->
                <path d="M5633.0739,1680.8898 L6078.5141,1938.0648 L6364.2641,1443.1313 L5918.8239,1185.9563 Z" style="stroke:#000000;stroke-width:0.1;"/>
                <!-- Hatch -->
                <path d="M5918.8239,1185.9563 L6364.2641,1443.1313 L6325.3703,1510.4973 L5879.9301,1253.3223 ZM5879.9301,1253.3223 L6325.3703,1510.4973 L6078.5141,1938.0648 L5633.0739,1680.8898 Z" style="fill-rule:evenodd;"/>
                <!-- Hatch -->
                <path d="M6364.2641,1443.1313 A50.8,50.8 0 0 1 6372.6661,1504.7785 L6136.9224,1913.0986 L6103.9269,1894.0486 ZM5861.2349,1209.5033 A50.8,50.8 0 0 1 5918.8239,1185.9563 L5658.4867,1636.8736 L5625.4911,1617.8236 L5861.2349,1209.5033" style="fill-rule:evenodd;"/>
            </g>
            <!-- Block Reference: chair_04_top_cad-block.com / entities: 8 -->
            <g>
                <!-- Line -->
                <path d="M7092.3657,1953.3223 L7537.8059,2210.4973 " style="stroke:#000000;stroke-width:0.1;"/>
                <!-- Arc -->
                <path d="M7073.6704,1909.5034 A50.8,50.8 0 0,1 7131.2595,1885.9563" style="stroke:#000000;stroke-width:0.1;"/>
                <!-- Arc -->
                <path d="M7576.6996,2143.1313 A50.8,50.8 0 0,1 7585.1017,2204.7784" style="stroke:#000000;stroke-width:0.1;"/>
                <!-- Polyline -->
                <path d="M7585.1017,2204.7784 L7349.358,2613.0986 L7316.3624,2594.0486" style="stroke:#000000;stroke-width:0.1;"/>
                <!-- Polyline -->
                <path d="M7073.6704,1909.5034 L6837.9267,2317.8236 L6870.9223,2336.8736" style="stroke:#000000;stroke-width:0.1;"/>
                <!-- Polyline -->
                <path d="M6845.5095,2380.8898 L7290.9496,2638.0648 L7576.6996,2143.1313 L7131.2595,1885.9563 Z" style="stroke:#000000;stroke-width:0.1;"/>
                <!-- Hatch -->
                <path d="M7131.2595,1885.9563 L7576.6996,2143.1313 L7537.8059,2210.4973 L7092.3657,1953.3223 ZM7092.3657,1953.3223 L7537.8059,2210.4973 L7290.9496,2638.0648 L6845.5095,2380.8898 Z" style="fill-rule:evenodd;"/>
                <!-- Hatch -->
                <path d="M7576.6996,2143.1313 A50.8,50.8 0 0 1 7585.1017,2204.7785 L7349.358,2613.0986 L7316.3624,2594.0486 ZM7073.6705,1909.5033 A50.8,50.8 0 0 1 7131.2595,1885.9563 L6870.9223,2336.8736 L6837.9267,2317.8236 L7073.6705,1909.5033" style="fill-rule:evenodd;"/>
            </g>
            <!-- Block Reference: chair_04_top_cad-block.com / entities: 8 -->
            <g>
                <!-- Line -->
                <path d="M1155.1287,203.3223 L709.6886,460.4973 " style="stroke:#000000;stroke-width:0.1;"/>
                <!-- Arc -->
                <path d="M1173.824,159.5034 A50.8,50.8 0 0,0 1116.235,135.9563" style="stroke:#000000;stroke-width:0.1;"/>
                <!-- Arc -->
                <path d="M670.7948,393.1313 A50.8,50.8 0 0,0 662.3927,454.7784" style="stroke:#000000;stroke-width:0.1;"/>
                <!-- Polyline -->
                <path d="M662.3927,454.7784 L898.1364,863.0986 L931.132,844.0486" style="stroke:#000000;stroke-width:0.1;"/>
                <!-- Polyline -->
                <path d="M1173.824,159.5034 L1409.5677,567.8236 L1376.5722,586.8736" style="stroke:#000000;stroke-width:0.1;"/>
                <!-- Polyline -->
                <path d="M1401.985,630.8898 L956.5448,888.0648 L670.7948,393.1313 L1116.235,135.9563 Z" style="stroke:#000000;stroke-width:0.1;"/>
                <!-- Hatch -->
                <path d="M1116.235,135.9563 L670.7948,393.1313 L709.6886,460.4973 L1155.1287,203.3223 ZM1155.1287,203.3223 L709.6886,460.4973 L956.5448,888.0648 L1401.985,630.8898 Z" style="fill-rule:evenodd;"/>
                <!-- Hatch -->
                <path d="M670.7948,393.1313 A50.8,50.8 0 0 0 662.3928,454.7785 L898.1364,863.0986 L931.132,844.0486 ZM1173.8239,159.5033 A50.8,50.8 0 0 0 1116.235,135.9563 L1376.5722,586.8736 L1409.5677,567.8236 L1173.8239,159.5033" style="fill-rule:evenodd;"/>
            </g>
            <!-- Block Reference: chair_04_top_cad-block.com / entities: 8 -->
            <g>
                <!-- Line -->
                <path d="M548.9109,553.3223 L103.4708,810.4973 " style="stroke:#000000;stroke-width:0.1;"/>
                <!-- Arc -->
                <path d="M567.6062,509.5034 A50.8,50.8 0 0,0 510.0172,485.9563" style="stroke:#000000;stroke-width:0.1;"/>
                <!-- Arc -->
                <path d="M64.577,743.1313 A50.8,50.8 0 0,0 56.1749,804.7784" style="stroke:#000000;stroke-width:0.1;"/>
                <!-- Polyline -->
                <path d="M56.1749,804.7784 L291.9187,1213.0986 L324.9142,1194.0486" style="stroke:#000000;stroke-width:0.1;"/>
                <!-- Polyline -->
                <path d="M567.6062,509.5034 L803.35,917.8236 L770.3544,936.8736" style="stroke:#000000;stroke-width:0.1;"/>
                <!-- Polyline -->
                <path d="M795.7672,980.8898 L350.327,1238.0648 L64.577,743.1313 L510.0172,485.9563 Z" style="stroke:#000000;stroke-width:0.1;"/>
                <!-- Hatch -->
                <path d="M510.0172,485.9563 L64.577,743.1313 L103.4708,810.4973 L548.9109,553.3223 ZM548.9109,553.3223 L103.4708,810.4973 L350.327,1238.0648 L795.7672,980.8898 Z" style="fill-rule:evenodd;"/>
                <!-- Hatch -->
                <path d="M64.577,743.1313 A50.8,50.8 0 0 0 56.175,804.7785 L291.9187,1213.0986 L324.9142,1194.0486 ZM567.6061,509.5033 A50.8,50.8 0 0 0 510.0172,485.9563 L770.3544,936.8736 L803.35,917.8236 L567.6061,509.5033" style="fill-rule:evenodd;"/>
            </g>
            <!-- Block Reference: chair_04_top_cad-block.com / entities: 8 -->
            <g>
                <!-- Line -->
                <path d="M6486.1479,203.3223 L6931.5881,460.4973 " style="stroke:#000000;stroke-width:0.1;"/>
                <!-- Arc -->
                <path d="M6467.4527,159.5034 A50.8,50.8 0 0,1 6525.0417,135.9563" style="stroke:#000000;stroke-width:0.1;"/>
                <!-- Arc -->
                <path d="M6970.4818,393.1313 A50.8,50.8 0 0,1 6978.884,454.7784" style="stroke:#000000;stroke-width:0.1;"/>
                <!-- Polyline -->
                <path d="M6978.884,454.7784 L6743.1402,863.0986 L6710.1446,844.0486" style="stroke:#000000;stroke-width:0.1;"/>
                <!-- Polyline -->
                <path d="M6467.4527,159.5034 L6231.7089,567.8236 L6264.7045,586.8736" style="stroke:#000000;stroke-width:0.1;"/>
                <!-- Polyline -->
                <path d="M6239.2917,630.8898 L6684.7318,888.0648 L6970.4818,393.1313 L6525.0417,135.9563 Z" style="stroke:#000000;stroke-width:0.1;"/>
                <!-- Hatch -->
                <path d="M6525.0417,135.9563 L6970.4818,393.1313 L6931.5881,460.4973 L6486.1479,203.3223 ZM6486.1479,203.3223 L6931.5881,460.4973 L6684.7318,888.0648 L6239.2917,630.8898 Z" style="fill-rule:evenodd;"/>
                <!-- Hatch -->
                <path d="M6970.4818,393.1313 A50.8,50.8 0 0 1 6978.8839,454.7785 L6743.1402,863.0986 L6710.1446,844.0486 ZM6467.4527,159.5033 A50.8,50.8 0 0 1 6525.0417,135.9563 L6264.7045,586.8736 L6231.7089,567.8236 L6467.4527,159.5033" style="fill-rule:evenodd;"/>
            </g>
            <!-- Block Reference: chair_04_top_cad-block.com / entities: 8 -->
            <g>
                <!-- Line -->
                <path d="M7092.3657,553.3223 L7537.8059,810.4973 " style="stroke:#000000;stroke-width:0.1;"/>
                <!-- Arc -->
                <path d="M7073.6704,509.5034 A50.8,50.8 0 0,1 7131.2595,485.9563" style="stroke:#000000;stroke-width:0.1;"/>
                <!-- Arc -->
                <path d="M7576.6996,743.1313 A50.8,50.8 0 0,1 7585.1017,804.7784" style="stroke:#000000;stroke-width:0.1;"/>
                <!-- Polyline -->
                <path d="M7585.1017,804.7784 L7349.358,1213.0986 L7316.3624,1194.0486" style="stroke:#000000;stroke-width:0.1;"/>
                <!-- Polyline -->
                <path d="M7073.6704,509.5034 L6837.9267,917.8236 L6870.9223,936.8736" style="stroke:#000000;stroke-width:0.1;"/>
                <!-- Polyline -->
                <path d="M6845.5095,980.8898 L7290.9496,1238.0648 L7576.6996,743.1313 L7131.2595,485.9563 Z" style="stroke:#000000;stroke-width:0.1;"/>
                <!-- Hatch -->
                <path d="M7131.2595,485.9563 L7576.6996,743.1313 L7537.8059,810.4973 L7092.3657,553.3223 ZM7092.3657,553.3223 L7537.8059,810.4973 L7290.9496,1238.0648 L6845.5095,980.8898 Z" style="fill-rule:evenodd;"/>
                <!-- Hatch -->
                <path d="M7576.6996,743.1313 A50.8,50.8 0 0 1 7585.1017,804.7785 L7349.358,1213.0986 L7316.3624,1194.0486 ZM7073.6705,509.5033 A50.8,50.8 0 0 1 7131.2595,485.9563 L6870.9223,936.8736 L6837.9267,917.8236 L7073.6705,509.5033" style="fill-rule:evenodd;"/>
            </g>
            <!-- Block Reference: chair_04_top_cad-block.com / entities: 8 -->
            <g>
                <!-- Line -->
                <path d="M5892.3897,8236.9216 L6406.7397,8236.9216 " style="stroke:#000000;stroke-width:0.1;"/>
                <!-- Arc -->
                <path d="M5854.2897,8265.5222 A50.8,50.8 0 0,0 5892.3897,8314.7091" style="stroke:#000000;stroke-width:0.1;"/>
                <!-- Arc -->
                <path d="M6406.7397,8314.7091 A50.8,50.8 0 0,0 6444.8397,8265.5222" style="stroke:#000000;stroke-width:0.1;"/>
                <!-- Polyline -->
                <path d="M6444.8397,8265.5222 L6444.8397,7794.0347 L6406.7397,7794.0347" style="stroke:#000000;stroke-width:0.1;"/>
                <!-- Polyline -->
                <path d="M5854.2897,8265.5222 L5854.2897,7794.0347 L5892.3897,7794.0347" style="stroke:#000000;stroke-width:0.1;"/>
                <!-- Polyline -->
                <path d="M5892.3897,7743.2091 L6406.7397,7743.2091 L6406.7397,8314.7091 L5892.3897,8314.7091 Z" style="stroke:#000000;stroke-width:0.1;"/>
                <!-- Hatch -->
                <path d="M5892.3897,8314.7091 L6406.7397,8314.7091 L6406.7397,8236.9216 L5892.3897,8236.9216 ZM5892.3897,8236.9216 L6406.7397,8236.9216 L6406.7397,7743.2091 L5892.3897,7743.2091 Z" style="fill-rule:evenodd;"/>
                <!-- Hatch -->
                <path d="M6406.7397,8314.7091 A50.8,50.8 0 0 0 6444.8397,8265.5221 L6444.8397,7794.0347 L6406.7397,7794.0347 ZM5854.2897,8265.5223 A50.8,50.8 0 0 0 5892.3897,8314.7091 L5892.3897,7794.0347 L5854.2897,7794.0347 L5854.2897,8265.5223" style="fill-rule:evenodd;"/>
            </g>
            <!-- Block Reference: screen / entities: 2 -->
            <g>
                <!-- Hatch -->
                <path d="M3820.6383,8634.4703 L2320.6383,8634.4703 L2320.6383,8684.4703 L3820.6383,8684.4703 L5320.6383,8684.4703 L5320.6383,8634.4703 Z" style="fill-rule:evenodd;"/>
                <!-- Polyline -->
                <path d="M3820.6383,8684.4703 L2320.6383,8684.4703 L2320.6383,8634.4703 L3820.6383,8634.4703 L5320.6383,8634.4703 L5320.6383,8684.4703 Z" style="stroke:#000000;stroke-width:0.1;"/>
            </g>
            <!-- Block Reference: table 1000x600_top / entities: 2 -->
            <g>
                <!-- Hatch -->
                <path d="M6649.5647,7643.2091 L5649.5647,7643.2091 L5649.5647,7043.2091 L6649.5647,7043.2091 Z" style="fill-rule:evenodd;"/>
                <!-- Polyline -->
                <path d="M6649.5647,7643.2091 L5649.5647,7643.2091 L5649.5647,7043.2091 L6649.5647,7043.2091 Z" style="stroke:#000000;stroke-width:0.1;"/>
            </g>
            <!-- Block Reference: chair_04_top_cad-block.com / entities: 8 -->
            <g>
                <!-- Line -->
                <path d="M5112.9347,5010.4973 L4667.4946,4753.3223 " style="stroke:#000000;stroke-width:0.1;"/>
                <!-- Arc -->
                <path d="M5160.2306,5004.7784 A50.8,50.8 0 0,0 5151.8285,4943.1313" style="stroke:#000000;stroke-width:0.1;"/>
                <!-- Arc -->
                <path d="M4706.3883,4685.9563 A50.8,50.8 0 0,0 4648.7993,4709.5034" style="stroke:#000000;stroke-width:0.1;"/>
                <!-- Polyline -->
                <path d="M4648.7993,4709.5034 L4413.0556,5117.8236 L4446.0511,5136.8736" style="stroke:#000000;stroke-width:0.1;"/>
                <!-- Polyline -->
                <path d="M5160.2306,5004.7784 L4924.4869,5413.0986 L4891.4913,5394.0486" style="stroke:#000000;stroke-width:0.1;"/>
                <!-- Polyline -->
                <path d="M4866.0785,5438.0648 L4420.6383,5180.8898 L4706.3883,4685.9563 L5151.8285,4943.1313 Z" style="stroke:#000000;stroke-width:0.1;"/>
                <!-- Hatch -->
                <path d="M5151.8285,4943.1313 L4706.3883,4685.9563 L4667.4946,4753.3223 L5112.9347,5010.4973 ZM5112.9347,5010.4973 L4667.4946,4753.3223 L4420.6383,5180.8898 L4866.0785,5438.0648 Z" style="fill-rule:evenodd;"/>
                <!-- Hatch -->
                <path d="M4706.3883,4685.9563 A50.8,50.8 0 0 0 4648.7992,4709.5035 L4413.0556,5117.8236 L4446.0511,5136.8736 ZM5160.2307,5004.7783 A50.8,50.8 0 0 0 5151.8285,4943.1313 L4891.4913,5394.0486 L4924.4869,5413.0986 L5160.2307,5004.7783" style="fill-rule:evenodd;"/>
            </g>
            <!-- Block Reference: chair_04_top_cad-block.com / entities: 8 -->
            <g>
                <!-- Line -->
                <path d="M5719.1525,5360.4973 L5273.7124,5103.3223 " style="stroke:#000000;stroke-width:0.1;"/>
                <!-- Arc -->
                <path d="M5766.4484,5354.7784 A50.8,50.8 0 0,0 5758.0463,5293.1313" style="stroke:#000000;stroke-width:0.1;"/>
                <!-- Arc -->
                <path d="M5312.6061,5035.9563 A50.8,50.8 0 0,0 5255.0171,5059.5034" style="stroke:#000000;stroke-width:0.1;"/>
                <!-- Polyline -->
                <path d="M5255.0171,5059.5034 L5019.2733,5467.8236 L5052.2689,5486.8736" style="stroke:#000000;stroke-width:0.1;"/>
                <!-- Polyline -->
                <path d="M5766.4484,5354.7784 L5530.7046,5763.0986 L5497.7091,5744.0486" style="stroke:#000000;stroke-width:0.1;"/>
                <!-- Polyline -->
                <path d="M5472.2963,5788.0648 L5026.8561,5530.8898 L5312.6061,5035.9563 L5758.0463,5293.1313 Z" style="stroke:#000000;stroke-width:0.1;"/>
                <!-- Hatch -->
                <path d="M5758.0463,5293.1313 L5312.6061,5035.9563 L5273.7124,5103.3223 L5719.1525,5360.4973 ZM5719.1525,5360.4973 L5273.7124,5103.3223 L5026.8561,5530.8898 L5472.2963,5788.0648 Z" style="fill-rule:evenodd;"/>
                <!-- Hatch -->
                <path d="M5312.6061,5035.9563 A50.8,50.8 0 0 0 5255.017,5059.5035 L5019.2733,5467.8236 L5052.2689,5486.8736 ZM5766.4485,5354.7783 A50.8,50.8 0 0 0 5758.0463,5293.1313 L5497.7091,5744.0486 L5530.7046,5763.0986 L5766.4485,5354.7783" style="fill-rule:evenodd;"/>
            </g>
            <!-- Block Reference: chair_04_top_cad-block.com / entities: 8 -->
            <g>
                <!-- Line -->
                <path d="M6486.1479,5803.3223 L6931.5881,6060.4973 " style="stroke:#000000;stroke-width:0.1;"/>
                <!-- Arc -->
                <path d="M6467.4527,5759.5034 A50.8,50.8 0 0,1 6525.0417,5735.9563" style="stroke:#000000;stroke-width:0.1;"/>
                <!-- Arc -->
                <path d="M6970.4818,5993.1313 A50.8,50.8 0 0,1 6978.884,6054.7784" style="stroke:#000000;stroke-width:0.1;"/>
                <!-- Polyline -->
                <path d="M6978.884,6054.7784 L6743.1402,6463.0986 L6710.1446,6444.0486" style="stroke:#000000;stroke-width:0.1;"/>
                <!-- Polyline -->
                <path d="M6467.4527,5759.5034 L6231.7089,6167.8236 L6264.7045,6186.8736" style="stroke:#000000;stroke-width:0.1;"/>
                <!-- Polyline -->
                <path d="M6239.2917,6230.8898 L6684.7318,6488.0648 L6970.4818,5993.1313 L6525.0417,5735.9563 Z" style="stroke:#000000;stroke-width:0.1;"/>
                <!-- Hatch -->
                <path d="M6525.0417,5735.9563 L6970.4818,5993.1313 L6931.5881,6060.4973 L6486.1479,5803.3223 ZM6486.1479,5803.3223 L6931.5881,6060.4973 L6684.7318,6488.0648 L6239.2917,6230.8898 Z" style="fill-rule:evenodd;"/>
                <!-- Hatch -->
                <path d="M6970.4818,5993.1313 A50.8,50.8 0 0 1 6978.8839,6054.7785 L6743.1402,6463.0986 L6710.1446,6444.0486 ZM6467.4527,5759.5033 A50.8,50.8 0 0 1 6525.0417,5735.9563 L6264.7045,6186.8736 L6231.7089,6167.8236 L6467.4527,5759.5033" style="fill-rule:evenodd;"/>
            </g>
            <!-- Block Reference: chair_04_top_cad-block.com / entities: 8 -->
            <g>
                <!-- Line -->
                <path d="M5879.9301,5453.3223 L6325.3703,5710.4973 " style="stroke:#000000;stroke-width:0.1;"/>
                <!-- Arc -->
                <path d="M5861.2349,5409.5034 A50.8,50.8 0 0,1 5918.8239,5385.9563" style="stroke:#000000;stroke-width:0.1;"/>
                <!-- Arc -->
                <path d="M6364.2641,5643.1313 A50.8,50.8 0 0,1 6372.6662,5704.7784" style="stroke:#000000;stroke-width:0.1;"/>
                <!-- Polyline -->
                <path d="M6372.6662,5704.7784 L6136.9224,6113.0986 L6103.9269,6094.0486" style="stroke:#000000;stroke-width:0.1;"/>
                <!-- Polyline -->
                <path d="M5861.2349,5409.5034 L5625.4911,5817.8236 L5658.4867,5836.8736" style="stroke:#000000;stroke-width:0.1;"/>
                <!-- Polyline -->
                <path d="M5633.0739,5880.8898 L6078.5141,6138.0648 L6364.2641,5643.1313 L5918.8239,5385.9563 Z" style="stroke:#000000;stroke-width:0.1;"/>
                <!-- Hatch -->
                <path d="M5918.8239,5385.9563 L6364.2641,5643.1313 L6325.3703,5710.4973 L5879.9301,5453.3223 ZM5879.9301,5453.3223 L6325.3703,5710.4973 L6078.5141,6138.0648 L5633.0739,5880.8898 Z" style="fill-rule:evenodd;"/>
                <!-- Hatch -->
                <path d="M6364.2641,5643.1313 A50.8,50.8 0 0 1 6372.6661,5704.7785 L6136.9224,6113.0986 L6103.9269,6094.0486 ZM5861.2349,5409.5033 A50.8,50.8 0 0 1 5918.8239,5385.9563 L5658.4867,5836.8736 L5625.4911,5817.8236 L5861.2349,5409.5033" style="fill-rule:evenodd;"/>
            </g>
        </g>
    </g>
</svg>

