<?xml version="1.0" encoding="UTF-8"?>
<!-- 2026-03-10 13:31:43 Generated by QCAD 3.32.6 SVG Exporter -->
<svg  width="7952.1288mm" height="7952.1288mm" viewBox="56.8926 -7909.82 7952.1288 7952.1288" version="1.1" xmlns="http://www.w3.org/2000/svg" style="stroke-linecap:round;stroke-linejoin:round;">
    <g transform="scale(1,-1)">
            <!-- Auto-generated fillable area -->
            <!-- Block Reference: Circle sitting style / entities: 32 -->
        <g>
            <!-- Block Reference: chair_04_top_cad-block.com / entities: 8 -->
            <g>
                <!-- Line -->
                <path d="M534.0523,5661.4135 L337.2191,5186.2161 " style="stroke:#000000;stroke-width:0.1;"/>
                <!-- Arc -->
                <path d="M522.2091,5707.5583 A50.8,50.8 0 0,1 462.1861,5691.1815" style="stroke:#000000;stroke-width:0.1;"/>
                <!-- Arc -->
                <path d="M265.3528,5215.9841 A50.8,50.8 0 0,1 296.2154,5161.9613" style="stroke:#000000;stroke-width:0.1;"/>
                <!-- Polyline -->
                <path d="M296.2154,5161.9613 L731.813,4981.5308 L746.3932,5016.7306" style="stroke:#000000;stroke-width:0.1;"/>
                <!-- Polyline -->
                <path d="M522.2091,5707.5583 L957.8067,5527.1279 L943.2265,5491.9281" style="stroke:#000000;stroke-width:0.1;"/>
                <!-- Polyline -->
                <path d="M990.1832,5472.478 L793.35,4997.2805 L265.3528,5215.9841 L462.1861,5691.1815 Z" style="stroke:#000000;stroke-width:0.1;"/>
                <!-- Hatch -->
                <path d="M462.1861,5691.1815 L265.3528,5215.9841 L337.2191,5186.2161 L534.0523,5661.4135 ZM534.0523,5661.4135 L337.2191,5186.2161 L793.35,4997.2805 L990.1832,5472.478 Z" style="fill-rule:evenodd;"/>
                <!-- Hatch -->
                <path d="M265.3528,5215.9841 A50.8,50.8 0 0 1 296.2155,5161.9612 L731.813,4981.5308 L746.3932,5016.7306 ZM522.2089,5707.5584 A50.8,50.8 0 0 1 462.1861,5691.1815 L943.2265,5491.9281 L957.8067,5527.1279 L522.2089,5707.5584" style="fill-rule:evenodd;"/>
            </g>
            <!-- Block Reference: chair_04_top_cad-block.com / entities: 8 -->
            <g>
                <!-- Line -->
                <path d="M206.1238,4696.9619 L138.9877,4187.0122 " style="stroke:#000000;stroke-width:0.1;"/>
                <!-- Arc -->
                <path d="M182.741,4738.469 A50.8,50.8 0 0,1 129.0018,4707.1152" style="stroke:#000000;stroke-width:0.1;"/>
                <!-- Arc -->
                <path d="M61.8657,4197.1655 A50.8,50.8 0 0,1 105.6587,4152.9713" style="stroke:#000000;stroke-width:0.1;"/>
                <!-- Polyline -->
                <path d="M105.6587,4152.9713 L573.1126,4091.4298 L578.0856,4129.2039" style="stroke:#000000;stroke-width:0.1;"/>
                <!-- Polyline -->
                <path d="M182.741,4738.469 L650.1948,4676.9276 L645.2218,4639.1535" style="stroke:#000000;stroke-width:0.1;"/>
                <!-- Polyline -->
                <path d="M695.6126,4632.5194 L628.4764,4122.5698 L61.8657,4197.1655 L129.0018,4707.1152 Z" style="stroke:#000000;stroke-width:0.1;"/>
                <!-- Hatch -->
                <path d="M129.0018,4707.1152 L61.8657,4197.1655 L138.9877,4187.0122 L206.1238,4696.9619 ZM206.1238,4696.9619 L138.9877,4187.0122 L628.4764,4122.5698 L695.6126,4632.5194 Z" style="fill-rule:evenodd;"/>
                <!-- Hatch -->
                <path d="M61.8657,4197.1655 A50.8,50.8 0 0 1 105.6588,4152.9713 L573.1126,4091.4298 L578.0856,4129.2039 ZM182.7408,4738.4691 A50.8,50.8 0 0 1 129.0018,4707.1152 L645.2218,4639.1535 L650.1948,4676.9276 L182.7408,4738.4691" style="fill-rule:evenodd;"/>
            </g>
            <!-- Block Reference: chair_04_top_cad-block.com / entities: 8 -->
            <g>
                <!-- Line -->
                <path d="M1100.4254,6508.1282 L787.309,6100.0669 " style="stroke:#000000;stroke-width:0.1;"/>
                <!-- Arc -->
                <path d="M1100.9288,6555.7659 A50.8,50.8 0 0,1 1038.7124,6555.4822" style="stroke:#000000;stroke-width:0.1;"/>
                <!-- Arc -->
                <path d="M725.596,6147.4209 A50.8,50.8 0 0,1 741.4248,6087.2511" style="stroke:#000000;stroke-width:0.1;"/>
                <!-- Polyline -->
                <path d="M741.4248,6087.2511 L1115.481,5800.2277 L1138.6748,5830.4544" style="stroke:#000000;stroke-width:0.1;"/>
                <!-- Polyline -->
                <path d="M1100.9288,6555.7659 L1474.985,6268.7425 L1451.7912,6238.5157" style="stroke:#000000;stroke-width:0.1;"/>
                <!-- Polyline -->
                <path d="M1492.1139,6207.5751 L1178.9974,5799.5138 L725.596,6147.4209 L1038.7124,6555.4822 Z" style="stroke:#000000;stroke-width:0.1;"/>
                <!-- Hatch -->
                <path d="M1038.7124,6555.4822 L725.596,6147.4209 L787.309,6100.0669 L1100.4254,6508.1282 ZM1100.4254,6508.1282 L787.309,6100.0669 L1178.9974,5799.5138 L1492.1139,6207.5751 Z" style="fill-rule:evenodd;"/>
                <!-- Hatch -->
                <path d="M725.596,6147.4209 A50.8,50.8 0 0 1 741.4249,6087.251 L1115.481,5800.2277 L1138.6748,5830.4544 ZM1100.9287,6555.766 A50.8,50.8 0 0 1 1038.7124,6555.4822 L1451.7912,6238.5157 L1474.985,6268.7425 L1100.9287,6555.766" style="fill-rule:evenodd;"/>
            </g>
            <!-- Block Reference: table round seg_top / entities: 4 -->
            <g>
                <!-- Polyline -->
                <path d="M1532.957,3933.7556 L732.957,3933.7556" style="stroke:#000000;stroke-width:0.1;"/>
                <!-- Polyline -->
                <path d="M2265.1901,5701.5225 L1699.5046,6267.2079" style="stroke:#000000;stroke-width:0.1;"/>
                <!-- Hatch -->
                <path d="M1532.957,3933.7556 L732.957,3933.7556 A3300,3300 0 0 0 1699.5046,6267.2079 L2265.1901,5701.5225 A2500,2500 0 0 1 1532.957,3933.7556 Z" style="fill-rule:evenodd;"/>
                <!-- Polyline -->
                <path d="M1532.957,3933.7556 L732.957,3933.7556 A3300,3300 0 0 0 1699.5046,6267.2079 L2265.1901,5701.5225 A2500,2500 0 0 1 1532.957,3933.7556 Z" style="stroke:#000000;stroke-width:0.1;"/>
            </g>
            <!-- Block Reference: chair_04_top_cad-block.com / entities: 8 -->
            <g>
                <!-- Line -->
                <path d="M337.2191,2681.295 L534.0523,2206.0976 " style="stroke:#000000;stroke-width:0.1;"/>
                <!-- Arc -->
                <path d="M296.2154,2705.5498 A50.8,50.8 0 0,1 265.3528,2651.527" style="stroke:#000000;stroke-width:0.1;"/>
                <!-- Arc -->
                <path d="M462.1861,2176.3296 A50.8,50.8 0 0,1 522.2091,2159.9528" style="stroke:#000000;stroke-width:0.1;"/>
                <!-- Polyline -->
                <path d="M522.2091,2159.9528 L957.8067,2340.3832 L943.2265,2375.5831" style="stroke:#000000;stroke-width:0.1;"/>
                <!-- Polyline -->
                <path d="M296.2154,2705.5498 L731.813,2885.9803 L746.3932,2850.7805" style="stroke:#000000;stroke-width:0.1;"/>
                <!-- Polyline -->
                <path d="M793.35,2870.2306 L990.1832,2395.0332 L462.1861,2176.3296 L265.3528,2651.527 Z" style="stroke:#000000;stroke-width:0.1;"/>
                <!-- Hatch -->
                <path d="M265.3528,2651.527 L462.1861,2176.3296 L534.0523,2206.0976 L337.2191,2681.295 ZM337.2191,2681.295 L534.0523,2206.0976 L990.1832,2395.0332 L793.35,2870.2306 Z" style="fill-rule:evenodd;"/>
                <!-- Hatch -->
                <path d="M462.1861,2176.3296 A50.8,50.8 0 0 1 522.2092,2159.9528 L957.8067,2340.3832 L943.2265,2375.5831 ZM296.2152,2705.5498 A50.8,50.8 0 0 1 265.3528,2651.527 L746.3932,2850.7805 L731.813,2885.9803 L296.2152,2705.5498" style="fill-rule:evenodd;"/>
            </g>
            <!-- Block Reference: chair_04_top_cad-block.com / entities: 8 -->
            <g>
                <!-- Line -->
                <path d="M787.309,1767.4442 L1100.4254,1359.3829 " style="stroke:#000000;stroke-width:0.1;"/>
                <!-- Arc -->
                <path d="M741.4248,1780.26 A50.8,50.8 0 0,1 725.596,1720.0902" style="stroke:#000000;stroke-width:0.1;"/>
                <!-- Arc -->
                <path d="M1038.7124,1312.0289 A50.8,50.8 0 0,1 1100.9288,1311.7452" style="stroke:#000000;stroke-width:0.1;"/>
                <!-- Polyline -->
                <path d="M1100.9288,1311.7452 L1474.985,1598.7686 L1451.7912,1628.9954" style="stroke:#000000;stroke-width:0.1;"/>
                <!-- Polyline -->
                <path d="M741.4248,1780.26 L1115.481,2067.2834 L1138.6748,2037.0567" style="stroke:#000000;stroke-width:0.1;"/>
                <!-- Polyline -->
                <path d="M1178.9974,2067.9973 L1492.1139,1659.9361 L1038.7124,1312.0289 L725.596,1720.0902 Z" style="stroke:#000000;stroke-width:0.1;"/>
                <!-- Hatch -->
                <path d="M725.596,1720.0902 L1038.7124,1312.0289 L1100.4254,1359.3829 L787.309,1767.4442 ZM787.309,1767.4442 L1100.4254,1359.3829 L1492.1139,1659.9361 L1178.9974,2067.9973 Z" style="fill-rule:evenodd;"/>
                <!-- Hatch -->
                <path d="M1038.7124,1312.0289 A50.8,50.8 0 0 1 1100.9289,1311.7453 L1474.985,1598.7686 L1451.7912,1628.9954 ZM741.4247,1780.26 A50.8,50.8 0 0 1 725.596,1720.0902 L1138.6748,2037.0567 L1115.481,2067.2834 L741.4247,1780.26" style="fill-rule:evenodd;"/>
            </g>
            <!-- Block Reference: chair_04_top_cad-block.com / entities: 8 -->
            <g>
                <!-- Line -->
                <path d="M138.9877,3680.4989 L206.1238,3170.5493 " style="stroke:#000000;stroke-width:0.1;"/>
                <!-- Arc -->
                <path d="M105.6587,3714.5399 A50.8,50.8 0 0,1 61.8657,3670.3456" style="stroke:#000000;stroke-width:0.1;"/>
                <!-- Arc -->
                <path d="M129.0018,3160.396 A50.8,50.8 0 0,1 182.741,3129.0421" style="stroke:#000000;stroke-width:0.1;"/>
                <!-- Polyline -->
                <path d="M182.741,3129.0421 L650.1948,3190.5836 L645.2218,3228.3576" style="stroke:#000000;stroke-width:0.1;"/>
                <!-- Polyline -->
                <path d="M105.6587,3714.5399 L573.1126,3776.0813 L578.0856,3738.3073" style="stroke:#000000;stroke-width:0.1;"/>
                <!-- Polyline -->
                <path d="M628.4764,3744.9413 L695.6126,3234.9917 L129.0018,3160.396 L61.8657,3670.3456 Z" style="stroke:#000000;stroke-width:0.1;"/>
                <!-- Hatch -->
                <path d="M61.8657,3670.3456 L129.0018,3160.396 L206.1238,3170.5493 L138.9877,3680.4989 ZM138.9877,3680.4989 L206.1238,3170.5493 L695.6126,3234.9917 L628.4764,3744.9413 Z" style="fill-rule:evenodd;"/>
                <!-- Hatch -->
                <path d="M129.0018,3160.396 A50.8,50.8 0 0 1 182.7411,3129.0421 L650.1948,3190.5836 L645.2218,3228.3576 ZM105.6586,3714.5398 A50.8,50.8 0 0 1 61.8657,3670.3456 L578.0856,3738.3073 L573.1126,3776.0813 L105.6586,3714.5398" style="fill-rule:evenodd;"/>
            </g>
            <!-- Block Reference: table round seg_top / entities: 4 -->
            <g>
                <!-- Polyline -->
                <path d="M2265.1901,2165.9886 L1699.5046,1600.3032" style="stroke:#000000;stroke-width:0.1;"/>
                <!-- Polyline -->
                <path d="M1532.957,3933.7556 L732.957,3933.7556" style="stroke:#000000;stroke-width:0.1;"/>
                <!-- Hatch -->
                <path d="M2265.1901,2165.9886 L1699.5046,1600.3032 A3300,3300 0 0 0 732.957,3933.7556 L1532.957,3933.7556 A2500,2500 0 0 1 2265.1901,2165.9886 Z" style="fill-rule:evenodd;"/>
                <!-- Polyline -->
                <path d="M2265.1901,2165.9886 L1699.5046,1600.3032 A3300,3300 0 0 0 732.957,3933.7556 L1532.957,3933.7556 A2500,2500 0 0 1 2265.1901,2165.9886 Z" style="stroke:#000000;stroke-width:0.1;"/>
            </g>
            <!-- Block Reference: chair_04_top_cad-block.com / entities: 8 -->
            <g>
                <!-- Line -->
                <path d="M2305.299,434.8509 L2780.4965,238.0177 " style="stroke:#000000;stroke-width:0.1;"/>
                <!-- Arc -->
                <path d="M2259.1542,423.0076 A50.8,50.8 0 0,1 2275.531,362.9846" style="stroke:#000000;stroke-width:0.1;"/>
                <!-- Arc -->
                <path d="M2750.7285,166.1514 A50.8,50.8 0 0,1 2804.7513,197.0139" style="stroke:#000000;stroke-width:0.1;"/>
                <!-- Polyline -->
                <path d="M2804.7513,197.0139 L2985.1818,632.6116 L2949.9819,647.1918" style="stroke:#000000;stroke-width:0.1;"/>
                <!-- Polyline -->
                <path d="M2259.1542,423.0076 L2439.5847,858.6053 L2474.7845,844.025" style="stroke:#000000;stroke-width:0.1;"/>
                <!-- Polyline -->
                <path d="M2494.2346,890.9818 L2969.4321,694.1485 L2750.7285,166.1514 L2275.531,362.9846 Z" style="stroke:#000000;stroke-width:0.1;"/>
                <!-- Hatch -->
                <path d="M2275.531,362.9846 L2750.7285,166.1514 L2780.4965,238.0177 L2305.299,434.8509 ZM2305.299,434.8509 L2780.4965,238.0177 L2969.4321,694.1485 L2494.2346,890.9818 Z" style="fill-rule:evenodd;"/>
                <!-- Hatch -->
                <path d="M2750.7285,166.1514 A50.8,50.8 0 0 1 2804.7513,197.014 L2985.1818,632.6116 L2949.9819,647.1918 ZM2259.1542,423.0075 A50.8,50.8 0 0 1 2275.531,362.9846 L2474.7845,844.025 L2439.5847,858.6053 L2259.1542,423.0075" style="fill-rule:evenodd;"/>
            </g>
            <!-- Block Reference: chair_04_top_cad-block.com / entities: 8 -->
            <g>
                <!-- Line -->
                <path d="M3269.7507,106.9224 L3779.7004,39.7862 " style="stroke:#000000;stroke-width:0.1;"/>
                <!-- Arc -->
                <path d="M3228.2435,83.5395 A50.8,50.8 0 0,1 3259.5974,29.8004" style="stroke:#000000;stroke-width:0.1;"/>
                <!-- Arc -->
                <path d="M3769.5471,-37.3358 A50.8,50.8 0 0,1 3813.7413,6.4573" style="stroke:#000000;stroke-width:0.1;"/>
                <!-- Polyline -->
                <path d="M3813.7413,6.4573 L3875.2828,473.9111 L3837.5087,478.8842" style="stroke:#000000;stroke-width:0.1;"/>
                <!-- Polyline -->
                <path d="M3228.2435,83.5395 L3289.785,550.9934 L3327.559,546.0203" style="stroke:#000000;stroke-width:0.1;"/>
                <!-- Polyline -->
                <path d="M3334.1931,596.4111 L3844.1428,529.275 L3769.5471,-37.3358 L3259.5974,29.8004 Z" style="stroke:#000000;stroke-width:0.1;"/>
                <!-- Hatch -->
                <path d="M3259.5974,29.8004 L3769.5471,-37.3358 L3779.7004,39.7862 L3269.7507,106.9224 ZM3269.7507,106.9224 L3779.7004,39.7862 L3844.1428,529.275 L3334.1931,596.4111 Z" style="fill-rule:evenodd;"/>
                <!-- Hatch -->
                <path d="M3769.5471,-37.3358 A50.8,50.8 0 0 1 3813.7413,6.4574 L3875.2828,473.9111 L3837.5087,478.8842 ZM3228.2435,83.5394 A50.8,50.8 0 0 1 3259.5974,29.8004 L3327.5591,546.0203 L3289.785,550.9934 L3228.2435,83.5394" style="fill-rule:evenodd;"/>
            </g>
            <!-- Block Reference: chair_04_top_cad-block.com / entities: 8 -->
            <g>
                <!-- Line -->
                <path d="M1458.5844,1001.224 L1866.6457,688.1075 " style="stroke:#000000;stroke-width:0.1;"/>
                <!-- Arc -->
                <path d="M1410.9467,1001.7274 A50.8,50.8 0 0,1 1411.2303,939.511" style="stroke:#000000;stroke-width:0.1;"/>
                <!-- Arc -->
                <path d="M1819.2916,626.3946 A50.8,50.8 0 0,1 1879.4615,642.2233" style="stroke:#000000;stroke-width:0.1;"/>
                <!-- Polyline -->
                <path d="M1879.4615,642.2233 L2166.4849,1016.2795 L2136.2581,1039.4733" style="stroke:#000000;stroke-width:0.1;"/>
                <!-- Polyline -->
                <path d="M1410.9467,1001.7274 L1697.9701,1375.7836 L1728.1968,1352.5898" style="stroke:#000000;stroke-width:0.1;"/>
                <!-- Polyline -->
                <path d="M1759.1375,1392.9124 L2167.1988,1079.796 L1819.2916,626.3946 L1411.2303,939.511 Z" style="stroke:#000000;stroke-width:0.1;"/>
                <!-- Hatch -->
                <path d="M1411.2303,939.511 L1819.2916,626.3946 L1866.6457,688.1075 L1458.5844,1001.224 ZM1458.5844,1001.224 L1866.6457,688.1075 L2167.1988,1079.796 L1759.1375,1392.9124 Z" style="fill-rule:evenodd;"/>
                <!-- Hatch -->
                <path d="M1819.2916,626.3946 A50.8,50.8 0 0 1 1879.4616,642.2234 L2166.4849,1016.2795 L2136.2581,1039.4733 ZM1410.9466,1001.7273 A50.8,50.8 0 0 1 1411.2303,939.511 L1728.1968,1352.5898 L1697.9701,1375.7836 L1410.9466,1001.7273" style="fill-rule:evenodd;"/>
            </g>
            <!-- Block Reference: table round seg_top / entities: 4 -->
            <g>
                <!-- Polyline -->
                <path d="M4032.957,1433.7556 L4032.957,633.7556" style="stroke:#000000;stroke-width:0.1;"/>
                <!-- Polyline -->
                <path d="M2265.1901,2165.9886 L1699.5046,1600.3032" style="stroke:#000000;stroke-width:0.1;"/>
                <!-- Hatch -->
                <path d="M4032.957,1433.7556 L4032.957,633.7556 A3300,3300 0 0 0 1699.5046,1600.3032 L2265.1901,2165.9886 A2500,2500 0 0 1 4032.957,1433.7556 Z" style="fill-rule:evenodd;"/>
                <!-- Polyline -->
                <path d="M4032.957,1433.7556 L4032.957,633.7556 A3300,3300 0 0 0 1699.5046,1600.3032 L2265.1901,2165.9886 A2500,2500 0 0 1 4032.957,1433.7556 Z" style="stroke:#000000;stroke-width:0.1;"/>
            </g>
            <!-- Block Reference: chair_04_top_cad-block.com / entities: 8 -->
            <g>
                <!-- Line -->
                <path d="M5285.4176,238.0177 L5760.615,434.8509 " style="stroke:#000000;stroke-width:0.1;"/>
                <!-- Arc -->
                <path d="M5261.1627,197.0139 A50.8,50.8 0 0,1 5315.1855,166.1514" style="stroke:#000000;stroke-width:0.1;"/>
                <!-- Arc -->
                <path d="M5790.383,362.9846 A50.8,50.8 0 0,1 5806.7598,423.0076" style="stroke:#000000;stroke-width:0.1;"/>
                <!-- Polyline -->
                <path d="M5806.7598,423.0076 L5626.3293,858.6053 L5591.1295,844.025" style="stroke:#000000;stroke-width:0.1;"/>
                <!-- Polyline -->
                <path d="M5261.1627,197.0139 L5080.7323,632.6116 L5115.9321,647.1918" style="stroke:#000000;stroke-width:0.1;"/>
                <!-- Polyline -->
                <path d="M5096.482,694.1485 L5571.6794,890.9818 L5790.383,362.9846 L5315.1855,166.1514 Z" style="stroke:#000000;stroke-width:0.1;"/>
                <!-- Hatch -->
                <path d="M5315.1855,166.1514 L5790.383,362.9846 L5760.615,434.8509 L5285.4176,238.0177 ZM5285.4176,238.0177 L5760.615,434.8509 L5571.6794,890.9818 L5096.482,694.1485 Z" style="fill-rule:evenodd;"/>
                <!-- Hatch -->
                <path d="M5790.383,362.9846 A50.8,50.8 0 0 1 5806.7597,423.0077 L5626.3293,858.6053 L5591.1295,844.025 ZM5261.1628,197.0138 A50.8,50.8 0 0 1 5315.1855,166.1514 L5115.9321,647.1918 L5080.7323,632.6116 L5261.1628,197.0138" style="fill-rule:evenodd;"/>
            </g>
            <!-- Block Reference: chair_04_top_cad-block.com / entities: 8 -->
            <g>
                <!-- Line -->
                <path d="M6199.2683,688.1075 L6607.3296,1001.224 " style="stroke:#000000;stroke-width:0.1;"/>
                <!-- Arc -->
                <path d="M6186.4525,642.2233 A50.8,50.8 0 0,1 6246.6224,626.3946" style="stroke:#000000;stroke-width:0.1;"/>
                <!-- Arc -->
                <path d="M6654.6837,939.511 A50.8,50.8 0 0,1 6654.9674,1001.7274" style="stroke:#000000;stroke-width:0.1;"/>
                <!-- Polyline -->
                <path d="M6654.9674,1001.7274 L6367.9439,1375.7836 L6337.7172,1352.5898" style="stroke:#000000;stroke-width:0.1;"/>
                <!-- Polyline -->
                <path d="M6186.4525,642.2233 L5899.4291,1016.2795 L5929.6559,1039.4733" style="stroke:#000000;stroke-width:0.1;"/>
                <!-- Polyline -->
                <path d="M5898.7152,1079.796 L6306.7765,1392.9124 L6654.6837,939.511 L6246.6224,626.3946 Z" style="stroke:#000000;stroke-width:0.1;"/>
                <!-- Hatch -->
                <path d="M6246.6224,626.3946 L6654.6837,939.511 L6607.3296,1001.224 L6199.2683,688.1075 ZM6199.2683,688.1075 L6607.3296,1001.224 L6306.7765,1392.9124 L5898.7152,1079.796 Z" style="fill-rule:evenodd;"/>
                <!-- Hatch -->
                <path d="M6654.6837,939.511 A50.8,50.8 0 0 1 6654.9673,1001.7275 L6367.9439,1375.7836 L6337.7172,1352.5898 ZM6186.4526,642.2232 A50.8,50.8 0 0 1 6246.6224,626.3946 L5929.6559,1039.4733 L5899.4291,1016.2795 L6186.4526,642.2232" style="fill-rule:evenodd;"/>
            </g>
            <!-- Block Reference: chair_04_top_cad-block.com / entities: 8 -->
            <g>
                <!-- Line -->
                <path d="M4286.2136,39.7862 L4796.1633,106.9224 " style="stroke:#000000;stroke-width:0.1;"/>
                <!-- Arc -->
                <path d="M4252.1727,6.4573 A50.8,50.8 0 0,1 4296.3669,-37.3358" style="stroke:#000000;stroke-width:0.1;"/>
                <!-- Arc -->
                <path d="M4806.3166,29.8004 A50.8,50.8 0 0,1 4837.6705,83.5395" style="stroke:#000000;stroke-width:0.1;"/>
                <!-- Polyline -->
                <path d="M4837.6705,83.5395 L4776.129,550.9934 L4738.355,546.0203" style="stroke:#000000;stroke-width:0.1;"/>
                <!-- Polyline -->
                <path d="M4252.1727,6.4573 L4190.6313,473.9111 L4228.4053,478.8842" style="stroke:#000000;stroke-width:0.1;"/>
                <!-- Polyline -->
                <path d="M4221.7712,529.275 L4731.7209,596.4111 L4806.3166,29.8004 L4296.3669,-37.3358 Z" style="stroke:#000000;stroke-width:0.1;"/>
                <!-- Hatch -->
                <path d="M4296.3669,-37.3358 L4806.3166,29.8004 L4796.1633,106.9224 L4286.2136,39.7862 ZM4286.2136,39.7862 L4796.1633,106.9224 L4731.7209,596.4111 L4221.7712,529.275 Z" style="fill-rule:evenodd;"/>
                <!-- Hatch -->
                <path d="M4806.3166,29.8004 A50.8,50.8 0 0 1 4837.6705,83.5396 L4776.129,550.9934 L4738.355,546.0203 ZM4252.1727,6.4571 A50.8,50.8 0 0 1 4296.3669,-37.3358 L4228.4053,478.8842 L4190.6313,473.9111 L4252.1727,6.4571" style="fill-rule:evenodd;"/>
            </g>
            <!-- Block Reference: table round seg_top / entities: 4 -->
            <g>
                <!-- Polyline -->
                <path d="M5800.724,2165.9886 L6366.4094,1600.3032" style="stroke:#000000;stroke-width:0.1;"/>
                <!-- Polyline -->
                <path d="M4032.957,1433.7556 L4032.957,633.7556" style="stroke:#000000;stroke-width:0.1;"/>
                <!-- Hatch -->
                <path d="M5800.724,2165.9886 L6366.4094,1600.3032 A3300,3300 0 0 0 4032.957,633.7556 L4032.957,1433.7556 A2500,2500 0 0 1 5800.724,2165.9886 Z" style="fill-rule:evenodd;"/>
                <!-- Polyline -->
                <path d="M5800.724,2165.9886 L6366.4094,1600.3032 A3300,3300 0 0 0 4032.957,633.7556 L4032.957,1433.7556 A2500,2500 0 0 1 5800.724,2165.9886 Z" style="stroke:#000000;stroke-width:0.1;"/>
            </g>
            <!-- Block Reference: chair_04_top_cad-block.com / entities: 8 -->
            <g>
                <!-- Line -->
                <path d="M7531.8617,2206.0976 L7728.6949,2681.295 " style="stroke:#000000;stroke-width:0.1;"/>
                <!-- Arc -->
                <path d="M7543.705,2159.9528 A50.8,50.8 0 0,1 7603.728,2176.3296" style="stroke:#000000;stroke-width:0.1;"/>
                <!-- Arc -->
                <path d="M7800.5612,2651.527 A50.8,50.8 0 0,1 7769.6987,2705.5498" style="stroke:#000000;stroke-width:0.1;"/>
                <!-- Polyline -->
                <path d="M7769.6987,2705.5498 L7334.101,2885.9803 L7319.5208,2850.7805" style="stroke:#000000;stroke-width:0.1;"/>
                <!-- Polyline -->
                <path d="M7543.705,2159.9528 L7108.1073,2340.3832 L7122.6875,2375.5831" style="stroke:#000000;stroke-width:0.1;"/>
                <!-- Polyline -->
                <path d="M7075.7308,2395.0332 L7272.564,2870.2306 L7800.5612,2651.527 L7603.728,2176.3296 Z" style="stroke:#000000;stroke-width:0.1;"/>
                <!-- Hatch -->
                <path d="M7603.728,2176.3296 L7800.5612,2651.527 L7728.6949,2681.295 L7531.8617,2206.0976 ZM7531.8617,2206.0976 L7728.6949,2681.295 L7272.564,2870.2306 L7075.7308,2395.0332 Z" style="fill-rule:evenodd;"/>
                <!-- Hatch -->
                <path d="M7800.5612,2651.527 A50.8,50.8 0 0 1 7769.6985,2705.5499 L7334.101,2885.9803 L7319.5208,2850.7805 ZM7543.7051,2159.9527 A50.8,50.8 0 0 1 7603.728,2176.3296 L7122.6875,2375.5831 L7108.1073,2340.3832 L7543.7051,2159.9527" style="fill-rule:evenodd;"/>
            </g>
            <!-- Block Reference: chair_04_top_cad-block.com / entities: 8 -->
            <g>
                <!-- Line -->
                <path d="M7859.7902,3170.5493 L7926.9263,3680.4989 " style="stroke:#000000;stroke-width:0.1;"/>
                <!-- Arc -->
                <path d="M7883.1731,3129.0421 A50.8,50.8 0 0,1 7936.9122,3160.396" style="stroke:#000000;stroke-width:0.1;"/>
                <!-- Arc -->
                <path d="M8004.0483,3670.3456 A50.8,50.8 0 0,1 7960.2553,3714.5399" style="stroke:#000000;stroke-width:0.1;"/>
                <!-- Polyline -->
                <path d="M7960.2553,3714.5399 L7492.8015,3776.0813 L7487.8284,3738.3073" style="stroke:#000000;stroke-width:0.1;"/>
                <!-- Polyline -->
                <path d="M7883.1731,3129.0421 L7415.7192,3190.5836 L7420.6923,3228.3576" style="stroke:#000000;stroke-width:0.1;"/>
                <!-- Polyline -->
                <path d="M7370.3015,3234.9917 L7437.4376,3744.9413 L8004.0483,3670.3456 L7936.9122,3160.396 Z" style="stroke:#000000;stroke-width:0.1;"/>
                <!-- Hatch -->
                <path d="M7936.9122,3160.396 L8004.0483,3670.3456 L7926.9263,3680.4989 L7859.7902,3170.5493 ZM7859.7902,3170.5493 L7926.9263,3680.4989 L7437.4376,3744.9413 L7370.3015,3234.9917 Z" style="fill-rule:evenodd;"/>
                <!-- Hatch -->
                <path d="M8004.0483,3670.3456 A50.8,50.8 0 0 1 7960.2552,3714.5399 L7492.8015,3776.0813 L7487.8284,3738.3073 ZM7883.1732,3129.0421 A50.8,50.8 0 0 1 7936.9122,3160.396 L7420.6923,3228.3576 L7415.7192,3190.5836 L7883.1732,3129.0421" style="fill-rule:evenodd;"/>
            </g>
            <!-- Block Reference: chair_04_top_cad-block.com / entities: 8 -->
            <g>
                <!-- Line -->
                <path d="M6965.4886,1359.3829 L7278.605,1767.4442 " style="stroke:#000000;stroke-width:0.1;"/>
                <!-- Arc -->
                <path d="M6964.9852,1311.7452 A50.8,50.8 0 0,1 7027.2016,1312.0289" style="stroke:#000000;stroke-width:0.1;"/>
                <!-- Arc -->
                <path d="M7340.318,1720.0902 A50.8,50.8 0 0,1 7324.4893,1780.26" style="stroke:#000000;stroke-width:0.1;"/>
                <!-- Polyline -->
                <path d="M7324.4892,1780.26 L6950.4331,2067.2834 L6927.2393,2037.0567" style="stroke:#000000;stroke-width:0.1;"/>
                <!-- Polyline -->
                <path d="M6964.9852,1311.7452 L6590.929,1598.7686 L6614.1228,1628.9954" style="stroke:#000000;stroke-width:0.1;"/>
                <!-- Polyline -->
                <path d="M6573.8001,1659.9361 L6886.9166,2067.9973 L7340.318,1720.0902 L7027.2016,1312.0289 Z" style="stroke:#000000;stroke-width:0.1;"/>
                <!-- Hatch -->
                <path d="M7027.2016,1312.0289 L7340.318,1720.0902 L7278.605,1767.4442 L6965.4886,1359.3829 ZM6965.4886,1359.3829 L7278.605,1767.4442 L6886.9166,2067.9973 L6573.8001,1659.9361 Z" style="fill-rule:evenodd;"/>
                <!-- Hatch -->
                <path d="M7340.318,1720.0902 A50.8,50.8 0 0 1 7324.4891,1780.2601 L6950.4331,2067.2834 L6927.2393,2037.0567 ZM6964.9853,1311.7451 A50.8,50.8 0 0 1 7027.2016,1312.0289 L6614.1228,1628.9954 L6590.929,1598.7686 L6964.9853,1311.7451" style="fill-rule:evenodd;"/>
            </g>
            <!-- Block Reference: table round seg_top / entities: 4 -->
            <g>
                <!-- Polyline -->
                <path d="M6532.957,3933.7556 L7332.957,3933.7556" style="stroke:#000000;stroke-width:0.1;"/>
                <!-- Polyline -->
                <path d="M5800.724,2165.9886 L6366.4094,1600.3032" style="stroke:#000000;stroke-width:0.1;"/>
                <!-- Hatch -->
                <path d="M6532.957,3933.7556 L7332.957,3933.7556 A3300,3300 0 0 0 6366.4094,1600.3032 L5800.724,2165.9886 A2500,2500 0 0 1 6532.957,3933.7556 Z" style="fill-rule:evenodd;"/>
                <!-- Polyline -->
                <path d="M6532.957,3933.7556 L7332.957,3933.7556 A3300,3300 0 0 0 6366.4094,1600.3032 L5800.724,2165.9886 A2500,2500 0 0 1 6532.957,3933.7556 Z" style="stroke:#000000;stroke-width:0.1;"/>
            </g>
            <!-- Block Reference: chair_04_top_cad-block.com / entities: 8 -->
            <g>
                <!-- Line -->
                <path d="M7728.6949,5186.2161 L7531.8617,5661.4135 " style="stroke:#000000;stroke-width:0.1;"/>
                <!-- Arc -->
                <path d="M7769.6987,5161.9613 A50.8,50.8 0 0,1 7800.5612,5215.9841" style="stroke:#000000;stroke-width:0.1;"/>
                <!-- Arc -->
                <path d="M7603.728,5691.1815 A50.8,50.8 0 0,1 7543.705,5707.5583" style="stroke:#000000;stroke-width:0.1;"/>
                <!-- Polyline -->
                <path d="M7543.705,5707.5583 L7108.1073,5527.1279 L7122.6875,5491.9281" style="stroke:#000000;stroke-width:0.1;"/>
                <!-- Polyline -->
                <path d="M7769.6987,5161.9613 L7334.101,4981.5308 L7319.5208,5016.7306" style="stroke:#000000;stroke-width:0.1;"/>
                <!-- Polyline -->
                <path d="M7272.564,4997.2805 L7075.7308,5472.478 L7603.728,5691.1815 L7800.5612,5215.9841 Z" style="stroke:#000000;stroke-width:0.1;"/>
                <!-- Hatch -->
                <path d="M7800.5612,5215.9841 L7603.728,5691.1815 L7531.8617,5661.4135 L7728.6949,5186.2161 ZM7728.6949,5186.2161 L7531.8617,5661.4135 L7075.7308,5472.478 L7272.564,4997.2805 Z" style="fill-rule:evenodd;"/>
                <!-- Hatch -->
                <path d="M7603.728,5691.1815 A50.8,50.8 0 0 1 7543.7048,5707.5583 L7108.1073,5527.1279 L7122.6875,5491.9281 ZM7769.6988,5161.9613 A50.8,50.8 0 0 1 7800.5612,5215.9841 L7319.5208,5016.7306 L7334.101,4981.5308 L7769.6988,5161.9613" style="fill-rule:evenodd;"/>
            </g>
            <!-- Block Reference: chair_04_top_cad-block.com / entities: 8 -->
            <g>
                <!-- Line -->
                <path d="M7278.605,6100.0669 L6965.4886,6508.1282 " style="stroke:#000000;stroke-width:0.1;"/>
                <!-- Arc -->
                <path d="M7324.4893,6087.2511 A50.8,50.8 0 0,1 7340.318,6147.4209" style="stroke:#000000;stroke-width:0.1;"/>
                <!-- Arc -->
                <path d="M7027.2016,6555.4822 A50.8,50.8 0 0,1 6964.9852,6555.7659" style="stroke:#000000;stroke-width:0.1;"/>
                <!-- Polyline -->
                <path d="M6964.9852,6555.7659 L6590.929,6268.7425 L6614.1228,6238.5157" style="stroke:#000000;stroke-width:0.1;"/>
                <!-- Polyline -->
                <path d="M7324.4892,6087.2511 L6950.4331,5800.2277 L6927.2393,5830.4544" style="stroke:#000000;stroke-width:0.1;"/>
                <!-- Polyline -->
                <path d="M6886.9166,5799.5138 L6573.8001,6207.5751 L7027.2016,6555.4822 L7340.318,6147.4209 Z" style="stroke:#000000;stroke-width:0.1;"/>
                <!-- Hatch -->
                <path d="M7340.318,6147.4209 L7027.2016,6555.4822 L6965.4886,6508.1282 L7278.605,6100.0669 ZM7278.605,6100.0669 L6965.4886,6508.1282 L6573.8001,6207.5751 L6886.9166,5799.5138 Z" style="fill-rule:evenodd;"/>
                <!-- Hatch -->
                <path d="M7027.2016,6555.4822 A50.8,50.8 0 0 1 6964.9851,6555.7658 L6590.929,6268.7425 L6614.1228,6238.5157 ZM7324.4894,6087.2512 A50.8,50.8 0 0 1 7340.318,6147.4209 L6927.2393,5830.4544 L6950.4331,5800.2277 L7324.4894,6087.2512" style="fill-rule:evenodd;"/>
            </g>
            <!-- Block Reference: chair_04_top_cad-block.com / entities: 8 -->
            <g>
                <!-- Line -->
                <path d="M7926.9263,4187.0122 L7859.7902,4696.9619 " style="stroke:#000000;stroke-width:0.1;"/>
                <!-- Arc -->
                <path d="M7960.2553,4152.9713 A50.8,50.8 0 0,1 8004.0483,4197.1655" style="stroke:#000000;stroke-width:0.1;"/>
                <!-- Arc -->
                <path d="M7936.9122,4707.1152 A50.8,50.8 0 0,1 7883.1731,4738.469" style="stroke:#000000;stroke-width:0.1;"/>
                <!-- Polyline -->
                <path d="M7883.1731,4738.469 L7415.7192,4676.9276 L7420.6923,4639.1535" style="stroke:#000000;stroke-width:0.1;"/>
                <!-- Polyline -->
                <path d="M7960.2553,4152.9713 L7492.8015,4091.4298 L7487.8284,4129.2039" style="stroke:#000000;stroke-width:0.1;"/>
                <!-- Polyline -->
                <path d="M7437.4376,4122.5698 L7370.3015,4632.5194 L7936.9122,4707.1152 L8004.0483,4197.1655 Z" style="stroke:#000000;stroke-width:0.1;"/>
                <!-- Hatch -->
                <path d="M8004.0483,4197.1655 L7936.9122,4707.1152 L7859.7902,4696.9619 L7926.9263,4187.0122 ZM7926.9263,4187.0122 L7859.7902,4696.9619 L7370.3015,4632.5194 L7437.4376,4122.5698 Z" style="fill-rule:evenodd;"/>
                <!-- Hatch -->
                <path d="M7936.9122,4707.1152 A50.8,50.8 0 0 1 7883.1729,4738.469 L7415.7192,4676.9276 L7420.6923,4639.1535 ZM7960.2554,4152.9713 A50.8,50.8 0 0 1 8004.0483,4197.1655 L7487.8284,4129.2039 L7492.8015,4091.4298 L7960.2554,4152.9713" style="fill-rule:evenodd;"/>
            </g>
            <!-- Block Reference: table round seg_top / entities: 4 -->
            <g>
                <!-- Polyline -->
                <path d="M5800.724,5701.5225 L6366.4094,6267.2079" style="stroke:#000000;stroke-width:0.1;"/>
                <!-- Polyline -->
                <path d="M6532.957,3933.7556 L7332.957,3933.7556" style="stroke:#000000;stroke-width:0.1;"/>
                <!-- Hatch -->
                <path d="M5800.724,5701.5225 L6366.4094,6267.2079 A3300,3300 0 0 0 7332.957,3933.7556 L6532.957,3933.7556 A2500,2500 0 0 1 5800.724,5701.5225 Z" style="fill-rule:evenodd;"/>
                <!-- Polyline -->
                <path d="M5800.724,5701.5225 L6366.4094,6267.2079 A3300,3300 0 0 0 7332.957,3933.7556 L6532.957,3933.7556 A2500,2500 0 0 1 5800.724,5701.5225 Z" style="stroke:#000000;stroke-width:0.1;"/>
            </g>
            <!-- Block Reference: chair_04_top_cad-block.com / entities: 8 -->
            <g>
                <!-- Line -->
                <path d="M5760.615,7432.6602 L5285.4176,7629.4935 " style="stroke:#000000;stroke-width:0.1;"/>
                <!-- Arc -->
                <path d="M5806.7598,7444.5035 A50.8,50.8 0 0,1 5790.383,7504.5265" style="stroke:#000000;stroke-width:0.1;"/>
                <!-- Arc -->
                <path d="M5315.1855,7701.3597 A50.8,50.8 0 0,1 5261.1627,7670.4972" style="stroke:#000000;stroke-width:0.1;"/>
                <!-- Polyline -->
                <path d="M5261.1627,7670.4972 L5080.7323,7234.8996 L5115.9321,7220.3193" style="stroke:#000000;stroke-width:0.1;"/>
                <!-- Polyline -->
                <path d="M5806.7598,7444.5035 L5626.3293,7008.9059 L5591.1295,7023.4861" style="stroke:#000000;stroke-width:0.1;"/>
                <!-- Polyline -->
                <path d="M5571.6794,6976.5294 L5096.482,7173.3626 L5315.1855,7701.3597 L5790.383,7504.5265 Z" style="stroke:#000000;stroke-width:0.1;"/>
                <!-- Hatch -->
                <path d="M5790.383,7504.5265 L5315.1855,7701.3597 L5285.4176,7629.4935 L5760.615,7432.6602 ZM5760.615,7432.6602 L5285.4176,7629.4935 L5096.482,7173.3626 L5571.6794,6976.5294 Z" style="fill-rule:evenodd;"/>
                <!-- Hatch -->
                <path d="M5315.1855,7701.3597 A50.8,50.8 0 0 1 5261.1627,7670.4971 L5080.7323,7234.8996 L5115.9321,7220.3193 ZM5806.7598,7444.5036 A50.8,50.8 0 0 1 5790.383,7504.5265 L5591.1295,7023.4861 L5626.3293,7008.9059 L5806.7598,7444.5036" style="fill-rule:evenodd;"/>
            </g>
            <!-- Block Reference: chair_04_top_cad-block.com / entities: 8 -->
            <g>
                <!-- Line -->
                <path d="M4796.1633,7760.5887 L4286.2136,7827.7249 " style="stroke:#000000;stroke-width:0.1;"/>
                <!-- Arc -->
                <path d="M4837.6705,7783.9716 A50.8,50.8 0 0,1 4806.3166,7837.7108" style="stroke:#000000;stroke-width:0.1;"/>
                <!-- Arc -->
                <path d="M4296.3669,7904.8469 A50.8,50.8 0 0,1 4252.1727,7861.0539" style="stroke:#000000;stroke-width:0.1;"/>
                <!-- Polyline -->
                <path d="M4252.1727,7861.0539 L4190.6313,7393.6 L4228.4053,7388.627" style="stroke:#000000;stroke-width:0.1;"/>
                <!-- Polyline -->
                <path d="M4837.6705,7783.9716 L4776.129,7316.5178 L4738.355,7321.4908" style="stroke:#000000;stroke-width:0.1;"/>
                <!-- Polyline -->
                <path d="M4731.7209,7271.1 L4221.7712,7338.2362 L4296.3669,7904.8469 L4806.3166,7837.7108 Z" style="stroke:#000000;stroke-width:0.1;"/>
                <!-- Hatch -->
                <path d="M4806.3166,7837.7108 L4296.3669,7904.8469 L4286.2136,7827.7249 L4796.1633,7760.5887 ZM4796.1633,7760.5887 L4286.2136,7827.7249 L4221.7712,7338.2362 L4731.7209,7271.1 Z" style="fill-rule:evenodd;"/>
                <!-- Hatch -->
                <path d="M4296.3669,7904.8469 A50.8,50.8 0 0 1 4252.1727,7861.0537 L4190.6313,7393.6 L4228.4053,7388.627 ZM4837.6705,7783.9718 A50.8,50.8 0 0 1 4806.3166,7837.7108 L4738.355,7321.4908 L4776.129,7316.5178 L4837.6705,7783.9718" style="fill-rule:evenodd;"/>
            </g>
            <!-- Block Reference: chair_04_top_cad-block.com / entities: 8 -->
            <g>
                <!-- Line -->
                <path d="M6607.3296,6866.2872 L6199.2683,7179.4036 " style="stroke:#000000;stroke-width:0.1;"/>
                <!-- Arc -->
                <path d="M6654.9674,6865.7837 A50.8,50.8 0 0,1 6654.6837,6928.0001" style="stroke:#000000;stroke-width:0.1;"/>
                <!-- Arc -->
                <path d="M6246.6224,7241.1166 A50.8,50.8 0 0,1 6186.4525,7225.2878" style="stroke:#000000;stroke-width:0.1;"/>
                <!-- Polyline -->
                <path d="M6186.4525,7225.2878 L5899.4291,6851.2316 L5929.6559,6828.0378" style="stroke:#000000;stroke-width:0.1;"/>
                <!-- Polyline -->
                <path d="M6654.9674,6865.7837 L6367.9439,6491.7276 L6337.7172,6514.9214" style="stroke:#000000;stroke-width:0.1;"/>
                <!-- Polyline -->
                <path d="M6306.7765,6474.5987 L5898.7152,6787.7151 L6246.6224,7241.1166 L6654.6837,6928.0001 Z" style="stroke:#000000;stroke-width:0.1;"/>
                <!-- Hatch -->
                <path d="M6654.6837,6928.0001 L6246.6224,7241.1166 L6199.2683,7179.4036 L6607.3296,6866.2872 ZM6607.3296,6866.2872 L6199.2683,7179.4036 L5898.7152,6787.7151 L6306.7765,6474.5987 Z" style="fill-rule:evenodd;"/>
                <!-- Hatch -->
                <path d="M6246.6224,7241.1166 A50.8,50.8 0 0 1 6186.4525,7225.2877 L5899.4291,6851.2316 L5929.6559,6828.0378 ZM6654.9674,6865.7838 A50.8,50.8 0 0 1 6654.6837,6928.0001 L6337.7172,6514.9214 L6367.9439,6491.7276 L6654.9674,6865.7838" style="fill-rule:evenodd;"/>
            </g>
            <!-- Block Reference: table round seg_top / entities: 4 -->
            <g>
                <!-- Polyline -->
                <path d="M4032.957,6433.7556 L4032.957,7233.7556" style="stroke:#000000;stroke-width:0.1;"/>
                <!-- Polyline -->
                <path d="M5800.724,5701.5225 L6366.4094,6267.2079" style="stroke:#000000;stroke-width:0.1;"/>
                <!-- Hatch -->
                <path d="M4032.957,6433.7556 L4032.957,7233.7556 A3300,3300 0 0 0 6366.4094,6267.2079 L5800.724,5701.5225 A2500,2500 0 0 1 4032.957,6433.7556 Z" style="fill-rule:evenodd;"/>
                <!-- Polyline -->
                <path d="M4032.957,6433.7556 L4032.957,7233.7556 A3300,3300 0 0 0 6366.4094,6267.2079 L5800.724,5701.5225 A2500,2500 0 0 1 4032.957,6433.7556 Z" style="stroke:#000000;stroke-width:0.1;"/>
            </g>
            <!-- Block Reference: chair_04_top_cad-block.com / entities: 8 -->
            <g>
                <!-- Line -->
                <path d="M2780.4965,7629.4935 L2305.299,7432.6602 " style="stroke:#000000;stroke-width:0.1;"/>
                <!-- Arc -->
                <path d="M2804.7513,7670.4972 A50.8,50.8 0 0,1 2750.7285,7701.3597" style="stroke:#000000;stroke-width:0.1;"/>
                <!-- Arc -->
                <path d="M2275.531,7504.5265 A50.8,50.8 0 0,1 2259.1542,7444.5035" style="stroke:#000000;stroke-width:0.1;"/>
                <!-- Polyline -->
                <path d="M2259.1542,7444.5035 L2439.5847,7008.9059 L2474.7845,7023.4861" style="stroke:#000000;stroke-width:0.1;"/>
                <!-- Polyline -->
                <path d="M2804.7513,7670.4972 L2985.1818,7234.8996 L2949.9819,7220.3193" style="stroke:#000000;stroke-width:0.1;"/>
                <!-- Polyline -->
                <path d="M2969.4321,7173.3626 L2494.2346,6976.5294 L2275.531,7504.5265 L2750.7285,7701.3597 Z" style="stroke:#000000;stroke-width:0.1;"/>
                <!-- Hatch -->
                <path d="M2750.7285,7701.3597 L2275.531,7504.5265 L2305.299,7432.6602 L2780.4965,7629.4935 ZM2780.4965,7629.4935 L2305.299,7432.6602 L2494.2346,6976.5294 L2969.4321,7173.3626 Z" style="fill-rule:evenodd;"/>
                <!-- Hatch -->
                <path d="M2275.531,7504.5265 A50.8,50.8 0 0 1 2259.1543,7444.5034 L2439.5847,7008.9059 L2474.7845,7023.4861 ZM2804.7512,7670.4973 A50.8,50.8 0 0 1 2750.7285,7701.3597 L2949.9819,7220.3193 L2985.1818,7234.8996 L2804.7512,7670.4973" style="fill-rule:evenodd;"/>
            </g>
            <!-- Block Reference: chair_04_top_cad-block.com / entities: 8 -->
            <g>
                <!-- Line -->
                <path d="M1866.6457,7179.4036 L1458.5844,6866.2872 " style="stroke:#000000;stroke-width:0.1;"/>
                <!-- Arc -->
                <path d="M1879.4615,7225.2878 A50.8,50.8 0 0,1 1819.2916,7241.1166" style="stroke:#000000;stroke-width:0.1;"/>
                <!-- Arc -->
                <path d="M1411.2303,6928.0001 A50.8,50.8 0 0,1 1410.9467,6865.7837" style="stroke:#000000;stroke-width:0.1;"/>
                <!-- Polyline -->
                <path d="M1410.9467,6865.7837 L1697.9701,6491.7276 L1728.1968,6514.9214" style="stroke:#000000;stroke-width:0.1;"/>
                <!-- Polyline -->
                <path d="M1879.4615,7225.2878 L2166.4849,6851.2316 L2136.2581,6828.0378" style="stroke:#000000;stroke-width:0.1;"/>
                <!-- Polyline -->
                <path d="M2167.1988,6787.7151 L1759.1375,6474.5987 L1411.2303,6928.0001 L1819.2916,7241.1166 Z" style="stroke:#000000;stroke-width:0.1;"/>
                <!-- Hatch -->
                <path d="M1819.2916,7241.1166 L1411.2303,6928.0001 L1458.5844,6866.2872 L1866.6457,7179.4036 ZM1866.6457,7179.4036 L1458.5844,6866.2872 L1759.1375,6474.5987 L2167.1988,6787.7151 Z" style="fill-rule:evenodd;"/>
                <!-- Hatch -->
                <path d="M1411.2303,6928.0001 A50.8,50.8 0 0 1 1410.9467,6865.7836 L1697.9701,6491.7276 L1728.1968,6514.9214 ZM1879.4614,7225.2879 A50.8,50.8 0 0 1 1819.2916,7241.1166 L2136.2581,6828.0378 L2166.4849,6851.2316 L1879.4614,7225.2879" style="fill-rule:evenodd;"/>
            </g>
            <!-- Block Reference: chair_04_top_cad-block.com / entities: 8 -->
            <g>
                <!-- Line -->
                <path d="M3779.7004,7827.7249 L3269.7507,7760.5887 " style="stroke:#000000;stroke-width:0.1;"/>
                <!-- Arc -->
                <path d="M3813.7413,7861.0539 A50.8,50.8 0 0,1 3769.5471,7904.8469" style="stroke:#000000;stroke-width:0.1;"/>
                <!-- Arc -->
                <path d="M3259.5974,7837.7108 A50.8,50.8 0 0,1 3228.2435,7783.9716" style="stroke:#000000;stroke-width:0.1;"/>
                <!-- Polyline -->
                <path d="M3228.2435,7783.9716 L3289.785,7316.5178 L3327.559,7321.4908" style="stroke:#000000;stroke-width:0.1;"/>
                <!-- Polyline -->
                <path d="M3813.7413,7861.0539 L3875.2828,7393.6 L3837.5087,7388.627" style="stroke:#000000;stroke-width:0.1;"/>
                <!-- Polyline -->
                <path d="M3844.1428,7338.2362 L3334.1931,7271.1 L3259.5974,7837.7108 L3769.5471,7904.8469 Z" style="stroke:#000000;stroke-width:0.1;"/>
                <!-- Hatch -->
                <path d="M3769.5471,7904.8469 L3259.5974,7837.7108 L3269.7507,7760.5887 L3779.7004,7827.7249 ZM3779.7004,7827.7249 L3269.7507,7760.5887 L3334.1931,7271.1 L3844.1428,7338.2362 Z" style="fill-rule:evenodd;"/>
                <!-- Hatch -->
                <path d="M3259.5974,7837.7108 A50.8,50.8 0 0 1 3228.2435,7783.9715 L3289.785,7316.5178 L3327.5591,7321.4908 ZM3813.7413,7861.054 A50.8,50.8 0 0 1 3769.5471,7904.8469 L3837.5087,7388.627 L3875.2828,7393.6 L3813.7413,7861.054" style="fill-rule:evenodd;"/>
            </g>
            <!-- Block Reference: table round seg_top / entities: 4 -->
            <g>
                <!-- Polyline -->
                <path d="M2265.1901,5701.5225 L1699.5046,6267.2079" style="stroke:#000000;stroke-width:0.1;"/>
                <!-- Polyline -->
                <path d="M4032.957,6433.7556 L4032.957,7233.7556" style="stroke:#000000;stroke-width:0.1;"/>
                <!-- Hatch -->
                <path d="M2265.1901,5701.5225 L1699.5046,6267.2079 A3300,3300 0 0 0 4032.957,7233.7556 L4032.957,6433.7556 A2500,2500 0 0 1 2265.1901,5701.5225 Z" style="fill-rule:evenodd;"/>
                <!-- Polyline -->
                <path d="M2265.1901,5701.5225 L1699.5046,6267.2079 A3300,3300 0 0 0 4032.957,7233.7556 L4032.957,6433.7556 A2500,2500 0 0 1 2265.1901,5701.5225 Z" style="stroke:#000000;stroke-width:0.1;"/>
            </g>
        </g>
    </g>
</svg>

