<?xml version="1.0" encoding="UTF-8"?>
<!-- 2026-03-10 13:34:23 Generated by QCAD 3.32.6 SVG Exporter -->
<svg  width="7100mm" height="5471.5mm" viewBox="9.1935 -5490.002 7100 5471.5" version="1.1" xmlns="http://www.w3.org/2000/svg" style="stroke-linecap:round;stroke-linejoin:round;">
    <g transform="scale(1,-1)">
            <!-- Auto-generated fillable area -->
            <!-- Block Reference: Classroom / entities: 30 -->
        <g>
            <!-- Block Reference: chair_04_top_cad-block.com / entities: 8 -->
            <g>
                <!-- Line -->
                <path d="M601.426,3412.2145 L87.076,3412.2145 " style="stroke:#000000;stroke-width:0.1;"/>
                <!-- Arc -->
                <path d="M639.526,3440.8151 A50.8,50.8 0 0,1 601.426,3490.002" style="stroke:#000000;stroke-width:0.1;"/>
                <!-- Arc -->
                <path d="M87.076,3490.002 A50.8,50.8 0 0,1 48.976,3440.8151" style="stroke:#000000;stroke-width:0.1;"/>
                <!-- Polyline -->
                <path d="M48.976,3440.8151 L48.976,2969.3276 L87.076,2969.3276" style="stroke:#000000;stroke-width:0.1;"/>
                <!-- Polyline -->
                <path d="M639.526,3440.8151 L639.526,2969.3276 L601.426,2969.3276" style="stroke:#000000;stroke-width:0.1;"/>
                <!-- Polyline -->
                <path d="M601.426,2918.502 L87.076,2918.502 L87.076,3490.002 L601.426,3490.002 Z" style="stroke:#000000;stroke-width:0.1;"/>
                <!-- Hatch -->
                <path d="M601.426,3490.002 L87.076,3490.002 L87.076,3412.2145 L601.426,3412.2145 ZM601.426,3412.2145 L87.076,3412.2145 L87.076,2918.502 L601.426,2918.502 Z" style="fill-rule:evenodd;"/>
                <!-- Hatch -->
                <path d="M87.076,3490.002 A50.8,50.8 0 0 1 48.976,3440.815 L48.976,2969.3276 L87.076,2969.3276 ZM639.526,3440.8152 A50.8,50.8 0 0 1 601.426,3490.002 L601.426,2969.3276 L639.526,2969.3276 L639.526,3440.8152" style="fill-rule:evenodd;"/>
            </g>
            <!-- Block Reference: chair_04_top_cad-block.com / entities: 8 -->
            <g>
                <!-- Line -->
                <path d="M1301.426,3412.2145 L787.076,3412.2145 " style="stroke:#000000;stroke-width:0.1;"/>
                <!-- Arc -->
                <path d="M1339.526,3440.8151 A50.8,50.8 0 0,1 1301.426,3490.002" style="stroke:#000000;stroke-width:0.1;"/>
                <!-- Arc -->
                <path d="M787.076,3490.002 A50.8,50.8 0 0,1 748.976,3440.8151" style="stroke:#000000;stroke-width:0.1;"/>
                <!-- Polyline -->
                <path d="M748.976,3440.8151 L748.976,2969.3276 L787.076,2969.3276" style="stroke:#000000;stroke-width:0.1;"/>
                <!-- Polyline -->
                <path d="M1339.526,3440.8151 L1339.526,2969.3276 L1301.426,2969.3276" style="stroke:#000000;stroke-width:0.1;"/>
                <!-- Polyline -->
                <path d="M1301.426,2918.502 L787.076,2918.502 L787.076,3490.002 L1301.426,3490.002 Z" style="stroke:#000000;stroke-width:0.1;"/>
                <!-- Hatch -->
                <path d="M1301.426,3490.002 L787.076,3490.002 L787.076,3412.2145 L1301.426,3412.2145 ZM1301.426,3412.2145 L787.076,3412.2145 L787.076,2918.502 L1301.426,2918.502 Z" style="fill-rule:evenodd;"/>
                <!-- Hatch -->
                <path d="M787.076,3490.002 A50.8,50.8 0 0 1 748.976,3440.815 L748.976,2969.3276 L787.076,2969.3276 ZM1339.526,3440.8152 A50.8,50.8 0 0 1 1301.426,3490.002 L1301.426,2969.3276 L1339.526,2969.3276 L1339.526,3440.8152" style="fill-rule:evenodd;"/>
            </g>
            <!-- Block Reference: chair_04_top_cad-block.com / entities: 8 -->
            <g>
                <!-- Line -->
                <path d="M2187.076,3412.2145 L2701.426,3412.2145 " style="stroke:#000000;stroke-width:0.1;"/>
                <!-- Arc -->
                <path d="M2148.976,3440.8151 A50.8,50.8 0 0,0 2187.076,3490.002" style="stroke:#000000;stroke-width:0.1;"/>
                <!-- Arc -->
                <path d="M2701.426,3490.002 A50.8,50.8 0 0,0 2739.526,3440.8151" style="stroke:#000000;stroke-width:0.1;"/>
                <!-- Polyline -->
                <path d="M2739.526,3440.8151 L2739.526,2969.3276 L2701.426,2969.3276" style="stroke:#000000;stroke-width:0.1;"/>
                <!-- Polyline -->
                <path d="M2148.976,3440.8151 L2148.976,2969.3276 L2187.076,2969.3276" style="stroke:#000000;stroke-width:0.1;"/>
                <!-- Polyline -->
                <path d="M2187.076,2918.502 L2701.426,2918.502 L2701.426,3490.002 L2187.076,3490.002 Z" style="stroke:#000000;stroke-width:0.1;"/>
                <!-- Hatch -->
                <path d="M2187.076,3490.002 L2701.426,3490.002 L2701.426,3412.2145 L2187.076,3412.2145 ZM2187.076,3412.2145 L2701.426,3412.2145 L2701.426,2918.502 L2187.076,2918.502 Z" style="fill-rule:evenodd;"/>
                <!-- Hatch -->
                <path d="M2701.426,3490.002 A50.8,50.8 0 0 0 2739.526,3440.815 L2739.526,2969.3276 L2701.426,2969.3276 ZM2148.976,3440.8152 A50.8,50.8 0 0 0 2187.076,3490.002 L2187.076,2969.3276 L2148.976,2969.3276 L2148.976,3440.8152" style="fill-rule:evenodd;"/>
            </g>
            <!-- Block Reference: chair_04_top_cad-block.com / entities: 8 -->
            <g>
                <!-- Line -->
                <path d="M1487.076,3412.2145 L2001.426,3412.2145 " style="stroke:#000000;stroke-width:0.1;"/>
                <!-- Arc -->
                <path d="M1448.976,3440.8151 A50.8,50.8 0 0,0 1487.076,3490.002" style="stroke:#000000;stroke-width:0.1;"/>
                <!-- Arc -->
                <path d="M2001.426,3490.002 A50.8,50.8 0 0,0 2039.526,3440.8151" style="stroke:#000000;stroke-width:0.1;"/>
                <!-- Polyline -->
                <path d="M2039.526,3440.8151 L2039.526,2969.3276 L2001.426,2969.3276" style="stroke:#000000;stroke-width:0.1;"/>
                <!-- Polyline -->
                <path d="M1448.976,3440.8151 L1448.976,2969.3276 L1487.076,2969.3276" style="stroke:#000000;stroke-width:0.1;"/>
                <!-- Polyline -->
                <path d="M1487.076,2918.502 L2001.426,2918.502 L2001.426,3490.002 L1487.076,3490.002 Z" style="stroke:#000000;stroke-width:0.1;"/>
                <!-- Hatch -->
                <path d="M1487.076,3490.002 L2001.426,3490.002 L2001.426,3412.2145 L1487.076,3412.2145 ZM1487.076,3412.2145 L2001.426,3412.2145 L2001.426,2918.502 L1487.076,2918.502 Z" style="fill-rule:evenodd;"/>
                <!-- Hatch -->
                <path d="M2001.426,3490.002 A50.8,50.8 0 0 0 2039.526,3440.815 L2039.526,2969.3276 L2001.426,2969.3276 ZM1448.976,3440.8152 A50.8,50.8 0 0 0 1487.076,3490.002 L1487.076,2969.3276 L1448.976,2969.3276 L1448.976,3440.8152" style="fill-rule:evenodd;"/>
            </g>
            <!-- Block Reference: Table 2800x800_top_rect_cad-block.com / entities: 2 -->
            <g>
                <!-- Hatch -->
                <path d="M9.1935,2818.502 L2809.1935,2818.502 L2809.1935,2018.502 L9.1935,2018.502 Z" style="fill-rule:evenodd;"/>
                <!-- Polyline -->
                <path d="M9.1935,2818.502 L2809.1935,2818.502 L2809.1935,2018.502 L9.1935,2018.502 Z" style="stroke:#000000;stroke-width:0.1;"/>
            </g>
            <!-- Block Reference: chair_04_top_cad-block.com / entities: 8 -->
            <g>
                <!-- Line -->
                <path d="M601.426,1412.2145 L87.076,1412.2145 " style="stroke:#000000;stroke-width:0.1;"/>
                <!-- Arc -->
                <path d="M639.526,1440.8151 A50.8,50.8 0 0,1 601.426,1490.002" style="stroke:#000000;stroke-width:0.1;"/>
                <!-- Arc -->
                <path d="M87.076,1490.002 A50.8,50.8 0 0,1 48.976,1440.8151" style="stroke:#000000;stroke-width:0.1;"/>
                <!-- Polyline -->
                <path d="M48.976,1440.8151 L48.976,969.3276 L87.076,969.3276" style="stroke:#000000;stroke-width:0.1;"/>
                <!-- Polyline -->
                <path d="M639.526,1440.8151 L639.526,969.3276 L601.426,969.3276" style="stroke:#000000;stroke-width:0.1;"/>
                <!-- Polyline -->
                <path d="M601.426,918.502 L87.076,918.502 L87.076,1490.002 L601.426,1490.002 Z" style="stroke:#000000;stroke-width:0.1;"/>
                <!-- Hatch -->
                <path d="M601.426,1490.002 L87.076,1490.002 L87.076,1412.2145 L601.426,1412.2145 ZM601.426,1412.2145 L87.076,1412.2145 L87.076,918.502 L601.426,918.502 Z" style="fill-rule:evenodd;"/>
                <!-- Hatch -->
                <path d="M87.076,1490.002 A50.8,50.8 0 0 1 48.976,1440.815 L48.976,969.3276 L87.076,969.3276 ZM639.526,1440.8152 A50.8,50.8 0 0 1 601.426,1490.002 L601.426,969.3276 L639.526,969.3276 L639.526,1440.8152" style="fill-rule:evenodd;"/>
            </g>
            <!-- Block Reference: chair_04_top_cad-block.com / entities: 8 -->
            <g>
                <!-- Line -->
                <path d="M1301.426,1412.2145 L787.076,1412.2145 " style="stroke:#000000;stroke-width:0.1;"/>
                <!-- Arc -->
                <path d="M1339.526,1440.8151 A50.8,50.8 0 0,1 1301.426,1490.002" style="stroke:#000000;stroke-width:0.1;"/>
                <!-- Arc -->
                <path d="M787.076,1490.002 A50.8,50.8 0 0,1 748.976,1440.8151" style="stroke:#000000;stroke-width:0.1;"/>
                <!-- Polyline -->
                <path d="M748.976,1440.8151 L748.976,969.3276 L787.076,969.3276" style="stroke:#000000;stroke-width:0.1;"/>
                <!-- Polyline -->
                <path d="M1339.526,1440.8151 L1339.526,969.3276 L1301.426,969.3276" style="stroke:#000000;stroke-width:0.1;"/>
                <!-- Polyline -->
                <path d="M1301.426,918.502 L787.076,918.502 L787.076,1490.002 L1301.426,1490.002 Z" style="stroke:#000000;stroke-width:0.1;"/>
                <!-- Hatch -->
                <path d="M1301.426,1490.002 L787.076,1490.002 L787.076,1412.2145 L1301.426,1412.2145 ZM1301.426,1412.2145 L787.076,1412.2145 L787.076,918.502 L1301.426,918.502 Z" style="fill-rule:evenodd;"/>
                <!-- Hatch -->
                <path d="M787.076,1490.002 A50.8,50.8 0 0 1 748.976,1440.815 L748.976,969.3276 L787.076,969.3276 ZM1339.526,1440.8152 A50.8,50.8 0 0 1 1301.426,1490.002 L1301.426,969.3276 L1339.526,969.3276 L1339.526,1440.8152" style="fill-rule:evenodd;"/>
            </g>
            <!-- Block Reference: chair_04_top_cad-block.com / entities: 8 -->
            <g>
                <!-- Line -->
                <path d="M2187.076,1412.2145 L2701.426,1412.2145 " style="stroke:#000000;stroke-width:0.1;"/>
                <!-- Arc -->
                <path d="M2148.976,1440.8151 A50.8,50.8 0 0,0 2187.076,1490.002" style="stroke:#000000;stroke-width:0.1;"/>
                <!-- Arc -->
                <path d="M2701.426,1490.002 A50.8,50.8 0 0,0 2739.526,1440.8151" style="stroke:#000000;stroke-width:0.1;"/>
                <!-- Polyline -->
                <path d="M2739.526,1440.8151 L2739.526,969.3276 L2701.426,969.3276" style="stroke:#000000;stroke-width:0.1;"/>
                <!-- Polyline -->
                <path d="M2148.976,1440.8151 L2148.976,969.3276 L2187.076,969.3276" style="stroke:#000000;stroke-width:0.1;"/>
                <!-- Polyline -->
                <path d="M2187.076,918.502 L2701.426,918.502 L2701.426,1490.002 L2187.076,1490.002 Z" style="stroke:#000000;stroke-width:0.1;"/>
                <!-- Hatch -->
                <path d="M2187.076,1490.002 L2701.426,1490.002 L2701.426,1412.2145 L2187.076,1412.2145 ZM2187.076,1412.2145 L2701.426,1412.2145 L2701.426,918.502 L2187.076,918.502 Z" style="fill-rule:evenodd;"/>
                <!-- Hatch -->
                <path d="M2701.426,1490.002 A50.8,50.8 0 0 0 2739.526,1440.815 L2739.526,969.3276 L2701.426,969.3276 ZM2148.976,1440.8152 A50.8,50.8 0 0 0 2187.076,1490.002 L2187.076,969.3276 L2148.976,969.3276 L2148.976,1440.8152" style="fill-rule:evenodd;"/>
            </g>
            <!-- Block Reference: chair_04_top_cad-block.com / entities: 8 -->
            <g>
                <!-- Line -->
                <path d="M1487.076,1412.2145 L2001.426,1412.2145 " style="stroke:#000000;stroke-width:0.1;"/>
                <!-- Arc -->
                <path d="M1448.976,1440.8151 A50.8,50.8 0 0,0 1487.076,1490.002" style="stroke:#000000;stroke-width:0.1;"/>
                <!-- Arc -->
                <path d="M2001.426,1490.002 A50.8,50.8 0 0,0 2039.526,1440.8151" style="stroke:#000000;stroke-width:0.1;"/>
                <!-- Polyline -->
                <path d="M2039.526,1440.8151 L2039.526,969.3276 L2001.426,969.3276" style="stroke:#000000;stroke-width:0.1;"/>
                <!-- Polyline -->
                <path d="M1448.976,1440.8151 L1448.976,969.3276 L1487.076,969.3276" style="stroke:#000000;stroke-width:0.1;"/>
                <!-- Polyline -->
                <path d="M1487.076,918.502 L2001.426,918.502 L2001.426,1490.002 L1487.076,1490.002 Z" style="stroke:#000000;stroke-width:0.1;"/>
                <!-- Hatch -->
                <path d="M1487.076,1490.002 L2001.426,1490.002 L2001.426,1412.2145 L1487.076,1412.2145 ZM1487.076,1412.2145 L2001.426,1412.2145 L2001.426,918.502 L1487.076,918.502 Z" style="fill-rule:evenodd;"/>
                <!-- Hatch -->
                <path d="M2001.426,1490.002 A50.8,50.8 0 0 0 2039.526,1440.815 L2039.526,969.3276 L2001.426,969.3276 ZM1448.976,1440.8152 A50.8,50.8 0 0 0 1487.076,1490.002 L1487.076,969.3276 L1448.976,969.3276 L1448.976,1440.8152" style="fill-rule:evenodd;"/>
            </g>
            <!-- Block Reference: Table 2800x800_top_rect_cad-block.com / entities: 2 -->
            <g>
                <!-- Hatch -->
                <path d="M9.1935,818.502 L2809.1935,818.502 L2809.1935,18.502 L9.1935,18.502 Z" style="fill-rule:evenodd;"/>
                <!-- Polyline -->
                <path d="M9.1935,818.502 L2809.1935,818.502 L2809.1935,18.502 L9.1935,18.502 Z" style="stroke:#000000;stroke-width:0.1;"/>
            </g>
            <!-- Block Reference: chair_04_top_cad-block.com / entities: 8 -->
            <g>
                <!-- Line -->
                <path d="M601.426,5412.2145 L87.076,5412.2145 " style="stroke:#000000;stroke-width:0.1;"/>
                <!-- Arc -->
                <path d="M639.526,5440.8151 A50.8,50.8 0 0,1 601.426,5490.002" style="stroke:#000000;stroke-width:0.1;"/>
                <!-- Arc -->
                <path d="M87.076,5490.002 A50.8,50.8 0 0,1 48.976,5440.8151" style="stroke:#000000;stroke-width:0.1;"/>
                <!-- Polyline -->
                <path d="M48.976,5440.8151 L48.976,4969.3276 L87.076,4969.3276" style="stroke:#000000;stroke-width:0.1;"/>
                <!-- Polyline -->
                <path d="M639.526,5440.8151 L639.526,4969.3276 L601.426,4969.3276" style="stroke:#000000;stroke-width:0.1;"/>
                <!-- Polyline -->
                <path d="M601.426,4918.502 L87.076,4918.502 L87.076,5490.002 L601.426,5490.002 Z" style="stroke:#000000;stroke-width:0.1;"/>
                <!-- Hatch -->
                <path d="M601.426,5490.002 L87.076,5490.002 L87.076,5412.2145 L601.426,5412.2145 ZM601.426,5412.2145 L87.076,5412.2145 L87.076,4918.502 L601.426,4918.502 Z" style="fill-rule:evenodd;"/>
                <!-- Hatch -->
                <path d="M87.076,5490.002 A50.8,50.8 0 0 1 48.976,5440.815 L48.976,4969.3276 L87.076,4969.3276 ZM639.526,5440.8152 A50.8,50.8 0 0 1 601.426,5490.002 L601.426,4969.3276 L639.526,4969.3276 L639.526,5440.8152" style="fill-rule:evenodd;"/>
            </g>
            <!-- Block Reference: chair_04_top_cad-block.com / entities: 8 -->
            <g>
                <!-- Line -->
                <path d="M1301.426,5412.2145 L787.076,5412.2145 " style="stroke:#000000;stroke-width:0.1;"/>
                <!-- Arc -->
                <path d="M1339.526,5440.8151 A50.8,50.8 0 0,1 1301.426,5490.002" style="stroke:#000000;stroke-width:0.1;"/>
                <!-- Arc -->
                <path d="M787.076,5490.002 A50.8,50.8 0 0,1 748.976,5440.8151" style="stroke:#000000;stroke-width:0.1;"/>
                <!-- Polyline -->
                <path d="M748.976,5440.8151 L748.976,4969.3276 L787.076,4969.3276" style="stroke:#000000;stroke-width:0.1;"/>
                <!-- Polyline -->
                <path d="M1339.526,5440.8151 L1339.526,4969.3276 L1301.426,4969.3276" style="stroke:#000000;stroke-width:0.1;"/>
                <!-- Polyline -->
                <path d="M1301.426,4918.502 L787.076,4918.502 L787.076,5490.002 L1301.426,5490.002 Z" style="stroke:#000000;stroke-width:0.1;"/>
                <!-- Hatch -->
                <path d="M1301.426,5490.002 L787.076,5490.002 L787.076,5412.2145 L1301.426,5412.2145 ZM1301.426,5412.2145 L787.076,5412.2145 L787.076,4918.502 L1301.426,4918.502 Z" style="fill-rule:evenodd;"/>
                <!-- Hatch -->
                <path d="M787.076,5490.002 A50.8,50.8 0 0 1 748.976,5440.815 L748.976,4969.3276 L787.076,4969.3276 ZM1339.526,5440.8152 A50.8,50.8 0 0 1 1301.426,5490.002 L1301.426,4969.3276 L1339.526,4969.3276 L1339.526,5440.8152" style="fill-rule:evenodd;"/>
            </g>
            <!-- Block Reference: chair_04_top_cad-block.com / entities: 8 -->
            <g>
                <!-- Line -->
                <path d="M2187.076,5412.2145 L2701.426,5412.2145 " style="stroke:#000000;stroke-width:0.1;"/>
                <!-- Arc -->
                <path d="M2148.976,5440.8151 A50.8,50.8 0 0,0 2187.076,5490.002" style="stroke:#000000;stroke-width:0.1;"/>
                <!-- Arc -->
                <path d="M2701.426,5490.002 A50.8,50.8 0 0,0 2739.526,5440.8151" style="stroke:#000000;stroke-width:0.1;"/>
                <!-- Polyline -->
                <path d="M2739.526,5440.8151 L2739.526,4969.3276 L2701.426,4969.3276" style="stroke:#000000;stroke-width:0.1;"/>
                <!-- Polyline -->
                <path d="M2148.976,5440.8151 L2148.976,4969.3276 L2187.076,4969.3276" style="stroke:#000000;stroke-width:0.1;"/>
                <!-- Polyline -->
                <path d="M2187.076,4918.502 L2701.426,4918.502 L2701.426,5490.002 L2187.076,5490.002 Z" style="stroke:#000000;stroke-width:0.1;"/>
                <!-- Hatch -->
                <path d="M2187.076,5490.002 L2701.426,5490.002 L2701.426,5412.2145 L2187.076,5412.2145 ZM2187.076,5412.2145 L2701.426,5412.2145 L2701.426,4918.502 L2187.076,4918.502 Z" style="fill-rule:evenodd;"/>
                <!-- Hatch -->
                <path d="M2701.426,5490.002 A50.8,50.8 0 0 0 2739.526,5440.815 L2739.526,4969.3276 L2701.426,4969.3276 ZM2148.976,5440.8152 A50.8,50.8 0 0 0 2187.076,5490.002 L2187.076,4969.3276 L2148.976,4969.3276 L2148.976,5440.8152" style="fill-rule:evenodd;"/>
            </g>
            <!-- Block Reference: chair_04_top_cad-block.com / entities: 8 -->
            <g>
                <!-- Line -->
                <path d="M1487.076,5412.2145 L2001.426,5412.2145 " style="stroke:#000000;stroke-width:0.1;"/>
                <!-- Arc -->
                <path d="M1448.976,5440.8151 A50.8,50.8 0 0,0 1487.076,5490.002" style="stroke:#000000;stroke-width:0.1;"/>
                <!-- Arc -->
                <path d="M2001.426,5490.002 A50.8,50.8 0 0,0 2039.526,5440.8151" style="stroke:#000000;stroke-width:0.1;"/>
                <!-- Polyline -->
                <path d="M2039.526,5440.8151 L2039.526,4969.3276 L2001.426,4969.3276" style="stroke:#000000;stroke-width:0.1;"/>
                <!-- Polyline -->
                <path d="M1448.976,5440.8151 L1448.976,4969.3276 L1487.076,4969.3276" style="stroke:#000000;stroke-width:0.1;"/>
                <!-- Polyline -->
                <path d="M1487.076,4918.502 L2001.426,4918.502 L2001.426,5490.002 L1487.076,5490.002 Z" style="stroke:#000000;stroke-width:0.1;"/>
                <!-- Hatch -->
                <path d="M1487.076,5490.002 L2001.426,5490.002 L2001.426,5412.2145 L1487.076,5412.2145 ZM1487.076,5412.2145 L2001.426,5412.2145 L2001.426,4918.502 L1487.076,4918.502 Z" style="fill-rule:evenodd;"/>
                <!-- Hatch -->
                <path d="M2001.426,5490.002 A50.8,50.8 0 0 0 2039.526,5440.815 L2039.526,4969.3276 L2001.426,4969.3276 ZM1448.976,5440.8152 A50.8,50.8 0 0 0 1487.076,5490.002 L1487.076,4969.3276 L1448.976,4969.3276 L1448.976,5440.8152" style="fill-rule:evenodd;"/>
            </g>
            <!-- Block Reference: Table 2800x800_top_rect_cad-block.com / entities: 2 -->
            <g>
                <!-- Hatch -->
                <path d="M9.1935,4818.502 L2809.1935,4818.502 L2809.1935,4018.502 L9.1935,4018.502 Z" style="fill-rule:evenodd;"/>
                <!-- Polyline -->
                <path d="M9.1935,4818.502 L2809.1935,4818.502 L2809.1935,4018.502 L9.1935,4018.502 Z" style="stroke:#000000;stroke-width:0.1;"/>
            </g>
            <!-- Block Reference: chair_04_top_cad-block.com / entities: 8 -->
            <g>
                <!-- Line -->
                <path d="M4901.426,3412.2145 L4387.076,3412.2145 " style="stroke:#000000;stroke-width:0.1;"/>
                <!-- Arc -->
                <path d="M4939.526,3440.8151 A50.8,50.8 0 0,1 4901.426,3490.002" style="stroke:#000000;stroke-width:0.1;"/>
                <!-- Arc -->
                <path d="M4387.076,3490.002 A50.8,50.8 0 0,1 4348.976,3440.8151" style="stroke:#000000;stroke-width:0.1;"/>
                <!-- Polyline -->
                <path d="M4348.976,3440.8151 L4348.976,2969.3276 L4387.076,2969.3276" style="stroke:#000000;stroke-width:0.1;"/>
                <!-- Polyline -->
                <path d="M4939.526,3440.8151 L4939.526,2969.3276 L4901.426,2969.3276" style="stroke:#000000;stroke-width:0.1;"/>
                <!-- Polyline -->
                <path d="M4901.426,2918.502 L4387.076,2918.502 L4387.076,3490.002 L4901.426,3490.002 Z" style="stroke:#000000;stroke-width:0.1;"/>
                <!-- Hatch -->
                <path d="M4901.426,3490.002 L4387.076,3490.002 L4387.076,3412.2145 L4901.426,3412.2145 ZM4901.426,3412.2145 L4387.076,3412.2145 L4387.076,2918.502 L4901.426,2918.502 Z" style="fill-rule:evenodd;"/>
                <!-- Hatch -->
                <path d="M4387.076,3490.002 A50.8,50.8 0 0 1 4348.976,3440.815 L4348.976,2969.3276 L4387.076,2969.3276 ZM4939.526,3440.8152 A50.8,50.8 0 0 1 4901.426,3490.002 L4901.426,2969.3276 L4939.526,2969.3276 L4939.526,3440.8152" style="fill-rule:evenodd;"/>
            </g>
            <!-- Block Reference: chair_04_top_cad-block.com / entities: 8 -->
            <g>
                <!-- Line -->
                <path d="M5601.426,3412.2145 L5087.076,3412.2145 " style="stroke:#000000;stroke-width:0.1;"/>
                <!-- Arc -->
                <path d="M5639.526,3440.8151 A50.8,50.8 0 0,1 5601.426,3490.002" style="stroke:#000000;stroke-width:0.1;"/>
                <!-- Arc -->
                <path d="M5087.076,3490.002 A50.8,50.8 0 0,1 5048.976,3440.8151" style="stroke:#000000;stroke-width:0.1;"/>
                <!-- Polyline -->
                <path d="M5048.976,3440.8151 L5048.976,2969.3276 L5087.076,2969.3276" style="stroke:#000000;stroke-width:0.1;"/>
                <!-- Polyline -->
                <path d="M5639.526,3440.8151 L5639.526,2969.3276 L5601.426,2969.3276" style="stroke:#000000;stroke-width:0.1;"/>
                <!-- Polyline -->
                <path d="M5601.426,2918.502 L5087.076,2918.502 L5087.076,3490.002 L5601.426,3490.002 Z" style="stroke:#000000;stroke-width:0.1;"/>
                <!-- Hatch -->
                <path d="M5601.426,3490.002 L5087.076,3490.002 L5087.076,3412.2145 L5601.426,3412.2145 ZM5601.426,3412.2145 L5087.076,3412.2145 L5087.076,2918.502 L5601.426,2918.502 Z" style="fill-rule:evenodd;"/>
                <!-- Hatch -->
                <path d="M5087.076,3490.002 A50.8,50.8 0 0 1 5048.976,3440.815 L5048.976,2969.3276 L5087.076,2969.3276 ZM5639.526,3440.8152 A50.8,50.8 0 0 1 5601.426,3490.002 L5601.426,2969.3276 L5639.526,2969.3276 L5639.526,3440.8152" style="fill-rule:evenodd;"/>
            </g>
            <!-- Block Reference: chair_04_top_cad-block.com / entities: 8 -->
            <g>
                <!-- Line -->
                <path d="M6487.076,3412.2145 L7001.426,3412.2145 " style="stroke:#000000;stroke-width:0.1;"/>
                <!-- Arc -->
                <path d="M6448.976,3440.8151 A50.8,50.8 0 0,0 6487.076,3490.002" style="stroke:#000000;stroke-width:0.1;"/>
                <!-- Arc -->
                <path d="M7001.426,3490.002 A50.8,50.8 0 0,0 7039.526,3440.8151" style="stroke:#000000;stroke-width:0.1;"/>
                <!-- Polyline -->
                <path d="M7039.526,3440.8151 L7039.526,2969.3276 L7001.426,2969.3276" style="stroke:#000000;stroke-width:0.1;"/>
                <!-- Polyline -->
                <path d="M6448.976,3440.8151 L6448.976,2969.3276 L6487.076,2969.3276" style="stroke:#000000;stroke-width:0.1;"/>
                <!-- Polyline -->
                <path d="M6487.076,2918.502 L7001.426,2918.502 L7001.426,3490.002 L6487.076,3490.002 Z" style="stroke:#000000;stroke-width:0.1;"/>
                <!-- Hatch -->
                <path d="M6487.076,3490.002 L7001.426,3490.002 L7001.426,3412.2145 L6487.076,3412.2145 ZM6487.076,3412.2145 L7001.426,3412.2145 L7001.426,2918.502 L6487.076,2918.502 Z" style="fill-rule:evenodd;"/>
                <!-- Hatch -->
                <path d="M7001.426,3490.002 A50.8,50.8 0 0 0 7039.526,3440.815 L7039.526,2969.3276 L7001.426,2969.3276 ZM6448.976,3440.8152 A50.8,50.8 0 0 0 6487.076,3490.002 L6487.076,2969.3276 L6448.976,2969.3276 L6448.976,3440.8152" style="fill-rule:evenodd;"/>
            </g>
            <!-- Block Reference: chair_04_top_cad-block.com / entities: 8 -->
            <g>
                <!-- Line -->
                <path d="M5787.076,3412.2145 L6301.426,3412.2145 " style="stroke:#000000;stroke-width:0.1;"/>
                <!-- Arc -->
                <path d="M5748.976,3440.8151 A50.8,50.8 0 0,0 5787.076,3490.002" style="stroke:#000000;stroke-width:0.1;"/>
                <!-- Arc -->
                <path d="M6301.426,3490.002 A50.8,50.8 0 0,0 6339.526,3440.8151" style="stroke:#000000;stroke-width:0.1;"/>
                <!-- Polyline -->
                <path d="M6339.526,3440.8151 L6339.526,2969.3276 L6301.426,2969.3276" style="stroke:#000000;stroke-width:0.1;"/>
                <!-- Polyline -->
                <path d="M5748.976,3440.8151 L5748.976,2969.3276 L5787.076,2969.3276" style="stroke:#000000;stroke-width:0.1;"/>
                <!-- Polyline -->
                <path d="M5787.076,2918.502 L6301.426,2918.502 L6301.426,3490.002 L5787.076,3490.002 Z" style="stroke:#000000;stroke-width:0.1;"/>
                <!-- Hatch -->
                <path d="M5787.076,3490.002 L6301.426,3490.002 L6301.426,3412.2145 L5787.076,3412.2145 ZM5787.076,3412.2145 L6301.426,3412.2145 L6301.426,2918.502 L5787.076,2918.502 Z" style="fill-rule:evenodd;"/>
                <!-- Hatch -->
                <path d="M6301.426,3490.002 A50.8,50.8 0 0 0 6339.526,3440.815 L6339.526,2969.3276 L6301.426,2969.3276 ZM5748.976,3440.8152 A50.8,50.8 0 0 0 5787.076,3490.002 L5787.076,2969.3276 L5748.976,2969.3276 L5748.976,3440.8152" style="fill-rule:evenodd;"/>
            </g>
            <!-- Block Reference: Table 2800x800_top_rect_cad-block.com / entities: 2 -->
            <g>
                <!-- Hatch -->
                <path d="M4309.1935,2818.502 L7109.1935,2818.502 L7109.1935,2018.502 L4309.1935,2018.502 Z" style="fill-rule:evenodd;"/>
                <!-- Polyline -->
                <path d="M4309.1935,2818.502 L7109.1935,2818.502 L7109.1935,2018.502 L4309.1935,2018.502 Z" style="stroke:#000000;stroke-width:0.1;"/>
            </g>
            <!-- Block Reference: chair_04_top_cad-block.com / entities: 8 -->
            <g>
                <!-- Line -->
                <path d="M4901.426,1412.2145 L4387.076,1412.2145 " style="stroke:#000000;stroke-width:0.1;"/>
                <!-- Arc -->
                <path d="M4939.526,1440.8151 A50.8,50.8 0 0,1 4901.426,1490.002" style="stroke:#000000;stroke-width:0.1;"/>
                <!-- Arc -->
                <path d="M4387.076,1490.002 A50.8,50.8 0 0,1 4348.976,1440.8151" style="stroke:#000000;stroke-width:0.1;"/>
                <!-- Polyline -->
                <path d="M4348.976,1440.8151 L4348.976,969.3276 L4387.076,969.3276" style="stroke:#000000;stroke-width:0.1;"/>
                <!-- Polyline -->
                <path d="M4939.526,1440.8151 L4939.526,969.3276 L4901.426,969.3276" style="stroke:#000000;stroke-width:0.1;"/>
                <!-- Polyline -->
                <path d="M4901.426,918.502 L4387.076,918.502 L4387.076,1490.002 L4901.426,1490.002 Z" style="stroke:#000000;stroke-width:0.1;"/>
                <!-- Hatch -->
                <path d="M4901.426,1490.002 L4387.076,1490.002 L4387.076,1412.2145 L4901.426,1412.2145 ZM4901.426,1412.2145 L4387.076,1412.2145 L4387.076,918.502 L4901.426,918.502 Z" style="fill-rule:evenodd;"/>
                <!-- Hatch -->
                <path d="M4387.076,1490.002 A50.8,50.8 0 0 1 4348.976,1440.815 L4348.976,969.3276 L4387.076,969.3276 ZM4939.526,1440.8152 A50.8,50.8 0 0 1 4901.426,1490.002 L4901.426,969.3276 L4939.526,969.3276 L4939.526,1440.8152" style="fill-rule:evenodd;"/>
            </g>
            <!-- Block Reference: chair_04_top_cad-block.com / entities: 8 -->
            <g>
                <!-- Line -->
                <path d="M5601.426,1412.2145 L5087.076,1412.2145 " style="stroke:#000000;stroke-width:0.1;"/>
                <!-- Arc -->
                <path d="M5639.526,1440.8151 A50.8,50.8 0 0,1 5601.426,1490.002" style="stroke:#000000;stroke-width:0.1;"/>
                <!-- Arc -->
                <path d="M5087.076,1490.002 A50.8,50.8 0 0,1 5048.976,1440.8151" style="stroke:#000000;stroke-width:0.1;"/>
                <!-- Polyline -->
                <path d="M5048.976,1440.8151 L5048.976,969.3276 L5087.076,969.3276" style="stroke:#000000;stroke-width:0.1;"/>
                <!-- Polyline -->
                <path d="M5639.526,1440.8151 L5639.526,969.3276 L5601.426,969.3276" style="stroke:#000000;stroke-width:0.1;"/>
                <!-- Polyline -->
                <path d="M5601.426,918.502 L5087.076,918.502 L5087.076,1490.002 L5601.426,1490.002 Z" style="stroke:#000000;stroke-width:0.1;"/>
                <!-- Hatch -->
                <path d="M5601.426,1490.002 L5087.076,1490.002 L5087.076,1412.2145 L5601.426,1412.2145 ZM5601.426,1412.2145 L5087.076,1412.2145 L5087.076,918.502 L5601.426,918.502 Z" style="fill-rule:evenodd;"/>
                <!-- Hatch -->
                <path d="M5087.076,1490.002 A50.8,50.8 0 0 1 5048.976,1440.815 L5048.976,969.3276 L5087.076,969.3276 ZM5639.526,1440.8152 A50.8,50.8 0 0 1 5601.426,1490.002 L5601.426,969.3276 L5639.526,969.3276 L5639.526,1440.8152" style="fill-rule:evenodd;"/>
            </g>
            <!-- Block Reference: chair_04_top_cad-block.com / entities: 8 -->
            <g>
                <!-- Line -->
                <path d="M6487.076,1412.2145 L7001.426,1412.2145 " style="stroke:#000000;stroke-width:0.1;"/>
                <!-- Arc -->
                <path d="M6448.976,1440.8151 A50.8,50.8 0 0,0 6487.076,1490.002" style="stroke:#000000;stroke-width:0.1;"/>
                <!-- Arc -->
                <path d="M7001.426,1490.002 A50.8,50.8 0 0,0 7039.526,1440.8151" style="stroke:#000000;stroke-width:0.1;"/>
                <!-- Polyline -->
                <path d="M7039.526,1440.8151 L7039.526,969.3276 L7001.426,969.3276" style="stroke:#000000;stroke-width:0.1;"/>
                <!-- Polyline -->
                <path d="M6448.976,1440.8151 L6448.976,969.3276 L6487.076,969.3276" style="stroke:#000000;stroke-width:0.1;"/>
                <!-- Polyline -->
                <path d="M6487.076,918.502 L7001.426,918.502 L7001.426,1490.002 L6487.076,1490.002 Z" style="stroke:#000000;stroke-width:0.1;"/>
                <!-- Hatch -->
                <path d="M6487.076,1490.002 L7001.426,1490.002 L7001.426,1412.2145 L6487.076,1412.2145 ZM6487.076,1412.2145 L7001.426,1412.2145 L7001.426,918.502 L6487.076,918.502 Z" style="fill-rule:evenodd;"/>
                <!-- Hatch -->
                <path d="M7001.426,1490.002 A50.8,50.8 0 0 0 7039.526,1440.815 L7039.526,969.3276 L7001.426,969.3276 ZM6448.976,1440.8152 A50.8,50.8 0 0 0 6487.076,1490.002 L6487.076,969.3276 L6448.976,969.3276 L6448.976,1440.8152" style="fill-rule:evenodd;"/>
            </g>
            <!-- Block Reference: chair_04_top_cad-block.com / entities: 8 -->
            <g>
                <!-- Line -->
                <path d="M5787.076,1412.2145 L6301.426,1412.2145 " style="stroke:#000000;stroke-width:0.1;"/>
                <!-- Arc -->
                <path d="M5748.976,1440.8151 A50.8,50.8 0 0,0 5787.076,1490.002" style="stroke:#000000;stroke-width:0.1;"/>
                <!-- Arc -->
                <path d="M6301.426,1490.002 A50.8,50.8 0 0,0 6339.526,1440.8151" style="stroke:#000000;stroke-width:0.1;"/>
                <!-- Polyline -->
                <path d="M6339.526,1440.8151 L6339.526,969.3276 L6301.426,969.3276" style="stroke:#000000;stroke-width:0.1;"/>
                <!-- Polyline -->
                <path d="M5748.976,1440.8151 L5748.976,969.3276 L5787.076,969.3276" style="stroke:#000000;stroke-width:0.1;"/>
                <!-- Polyline -->
                <path d="M5787.076,918.502 L6301.426,918.502 L6301.426,1490.002 L5787.076,1490.002 Z" style="stroke:#000000;stroke-width:0.1;"/>
                <!-- Hatch -->
                <path d="M5787.076,1490.002 L6301.426,1490.002 L6301.426,1412.2145 L5787.076,1412.2145 ZM5787.076,1412.2145 L6301.426,1412.2145 L6301.426,918.502 L5787.076,918.502 Z" style="fill-rule:evenodd;"/>
                <!-- Hatch -->
                <path d="M6301.426,1490.002 A50.8,50.8 0 0 0 6339.526,1440.815 L6339.526,969.3276 L6301.426,969.3276 ZM5748.976,1440.8152 A50.8,50.8 0 0 0 5787.076,1490.002 L5787.076,969.3276 L5748.976,969.3276 L5748.976,1440.8152" style="fill-rule:evenodd;"/>
            </g>
            <!-- Block Reference: Table 2800x800_top_rect_cad-block.com / entities: 2 -->
            <g>
                <!-- Hatch -->
                <path d="M4309.1935,818.502 L7109.1935,818.502 L7109.1935,18.502 L4309.1935,18.502 Z" style="fill-rule:evenodd;"/>
                <!-- Polyline -->
                <path d="M4309.1935,818.502 L7109.1935,818.502 L7109.1935,18.502 L4309.1935,18.502 Z" style="stroke:#000000;stroke-width:0.1;"/>
            </g>
            <!-- Block Reference: chair_04_top_cad-block.com / entities: 8 -->
            <g>
                <!-- Line -->
                <path d="M4901.426,5412.2145 L4387.076,5412.2145 " style="stroke:#000000;stroke-width:0.1;"/>
                <!-- Arc -->
                <path d="M4939.526,5440.8151 A50.8,50.8 0 0,1 4901.426,5490.002" style="stroke:#000000;stroke-width:0.1;"/>
                <!-- Arc -->
                <path d="M4387.076,5490.002 A50.8,50.8 0 0,1 4348.976,5440.8151" style="stroke:#000000;stroke-width:0.1;"/>
                <!-- Polyline -->
                <path d="M4348.976,5440.8151 L4348.976,4969.3276 L4387.076,4969.3276" style="stroke:#000000;stroke-width:0.1;"/>
                <!-- Polyline -->
                <path d="M4939.526,5440.8151 L4939.526,4969.3276 L4901.426,4969.3276" style="stroke:#000000;stroke-width:0.1;"/>
                <!-- Polyline -->
                <path d="M4901.426,4918.502 L4387.076,4918.502 L4387.076,5490.002 L4901.426,5490.002 Z" style="stroke:#000000;stroke-width:0.1;"/>
                <!-- Hatch -->
                <path d="M4901.426,5490.002 L4387.076,5490.002 L4387.076,5412.2145 L4901.426,5412.2145 ZM4901.426,5412.2145 L4387.076,5412.2145 L4387.076,4918.502 L4901.426,4918.502 Z" style="fill-rule:evenodd;"/>
                <!-- Hatch -->
                <path d="M4387.076,5490.002 A50.8,50.8 0 0 1 4348.976,5440.815 L4348.976,4969.3276 L4387.076,4969.3276 ZM4939.526,5440.8152 A50.8,50.8 0 0 1 4901.426,5490.002 L4901.426,4969.3276 L4939.526,4969.3276 L4939.526,5440.8152" style="fill-rule:evenodd;"/>
            </g>
            <!-- Block Reference: chair_04_top_cad-block.com / entities: 8 -->
            <g>
                <!-- Line -->
                <path d="M5601.426,5412.2145 L5087.076,5412.2145 " style="stroke:#000000;stroke-width:0.1;"/>
                <!-- Arc -->
                <path d="M5639.526,5440.8151 A50.8,50.8 0 0,1 5601.426,5490.002" style="stroke:#000000;stroke-width:0.1;"/>
                <!-- Arc -->
                <path d="M5087.076,5490.002 A50.8,50.8 0 0,1 5048.976,5440.8151" style="stroke:#000000;stroke-width:0.1;"/>
                <!-- Polyline -->
                <path d="M5048.976,5440.8151 L5048.976,4969.3276 L5087.076,4969.3276" style="stroke:#000000;stroke-width:0.1;"/>
                <!-- Polyline -->
                <path d="M5639.526,5440.8151 L5639.526,4969.3276 L5601.426,4969.3276" style="stroke:#000000;stroke-width:0.1;"/>
                <!-- Polyline -->
                <path d="M5601.426,4918.502 L5087.076,4918.502 L5087.076,5490.002 L5601.426,5490.002 Z" style="stroke:#000000;stroke-width:0.1;"/>
                <!-- Hatch -->
                <path d="M5601.426,5490.002 L5087.076,5490.002 L5087.076,5412.2145 L5601.426,5412.2145 ZM5601.426,5412.2145 L5087.076,5412.2145 L5087.076,4918.502 L5601.426,4918.502 Z" style="fill-rule:evenodd;"/>
                <!-- Hatch -->
                <path d="M5087.076,5490.002 A50.8,50.8 0 0 1 5048.976,5440.815 L5048.976,4969.3276 L5087.076,4969.3276 ZM5639.526,5440.8152 A50.8,50.8 0 0 1 5601.426,5490.002 L5601.426,4969.3276 L5639.526,4969.3276 L5639.526,5440.8152" style="fill-rule:evenodd;"/>
            </g>
            <!-- Block Reference: chair_04_top_cad-block.com / entities: 8 -->
            <g>
                <!-- Line -->
                <path d="M6487.076,5412.2145 L7001.426,5412.2145 " style="stroke:#000000;stroke-width:0.1;"/>
                <!-- Arc -->
                <path d="M6448.976,5440.8151 A50.8,50.8 0 0,0 6487.076,5490.002" style="stroke:#000000;stroke-width:0.1;"/>
                <!-- Arc -->
                <path d="M7001.426,5490.002 A50.8,50.8 0 0,0 7039.526,5440.8151" style="stroke:#000000;stroke-width:0.1;"/>
                <!-- Polyline -->
                <path d="M7039.526,5440.8151 L7039.526,4969.3276 L7001.426,4969.3276" style="stroke:#000000;stroke-width:0.1;"/>
                <!-- Polyline -->
                <path d="M6448.976,5440.8151 L6448.976,4969.3276 L6487.076,4969.3276" style="stroke:#000000;stroke-width:0.1;"/>
                <!-- Polyline -->
                <path d="M6487.076,4918.502 L7001.426,4918.502 L7001.426,5490.002 L6487.076,5490.002 Z" style="stroke:#000000;stroke-width:0.1;"/>
                <!-- Hatch -->
                <path d="M6487.076,5490.002 L7001.426,5490.002 L7001.426,5412.2145 L6487.076,5412.2145 ZM6487.076,5412.2145 L7001.426,5412.2145 L7001.426,4918.502 L6487.076,4918.502 Z" style="fill-rule:evenodd;"/>
                <!-- Hatch -->
                <path d="M7001.426,5490.002 A50.8,50.8 0 0 0 7039.526,5440.815 L7039.526,4969.3276 L7001.426,4969.3276 ZM6448.976,5440.8152 A50.8,50.8 0 0 0 6487.076,5490.002 L6487.076,4969.3276 L6448.976,4969.3276 L6448.976,5440.8152" style="fill-rule:evenodd;"/>
            </g>
            <!-- Block Reference: chair_04_top_cad-block.com / entities: 8 -->
            <g>
                <!-- Line -->
                <path d="M5787.076,5412.2145 L6301.426,5412.2145 " style="stroke:#000000;stroke-width:0.1;"/>
                <!-- Arc -->
                <path d="M5748.976,5440.8151 A50.8,50.8 0 0,0 5787.076,5490.002" style="stroke:#000000;stroke-width:0.1;"/>
                <!-- Arc -->
                <path d="M6301.426,5490.002 A50.8,50.8 0 0,0 6339.526,5440.8151" style="stroke:#000000;stroke-width:0.1;"/>
                <!-- Polyline -->
                <path d="M6339.526,5440.8151 L6339.526,4969.3276 L6301.426,4969.3276" style="stroke:#000000;stroke-width:0.1;"/>
                <!-- Polyline -->
                <path d="M5748.976,5440.8151 L5748.976,4969.3276 L5787.076,4969.3276" style="stroke:#000000;stroke-width:0.1;"/>
                <!-- Polyline -->
                <path d="M5787.076,4918.502 L6301.426,4918.502 L6301.426,5490.002 L5787.076,5490.002 Z" style="stroke:#000000;stroke-width:0.1;"/>
                <!-- Hatch -->
                <path d="M5787.076,5490.002 L6301.426,5490.002 L6301.426,5412.2145 L5787.076,5412.2145 ZM5787.076,5412.2145 L6301.426,5412.2145 L6301.426,4918.502 L5787.076,4918.502 Z" style="fill-rule:evenodd;"/>
                <!-- Hatch -->
                <path d="M6301.426,5490.002 A50.8,50.8 0 0 0 6339.526,5440.815 L6339.526,4969.3276 L6301.426,4969.3276 ZM5748.976,5440.8152 A50.8,50.8 0 0 0 5787.076,5490.002 L5787.076,4969.3276 L5748.976,4969.3276 L5748.976,5440.8152" style="fill-rule:evenodd;"/>
            </g>
            <!-- Block Reference: Table 2800x800_top_rect_cad-block.com / entities: 2 -->
            <g>
                <!-- Hatch -->
                <path d="M4309.1935,4818.502 L7109.1935,4818.502 L7109.1935,4018.502 L4309.1935,4018.502 Z" style="fill-rule:evenodd;"/>
                <!-- Polyline -->
                <path d="M4309.1935,4818.502 L7109.1935,4818.502 L7109.1935,4018.502 L4309.1935,4018.502 Z" style="stroke:#000000;stroke-width:0.1;"/>
            </g>
        </g>
    </g>
</svg>

