<?xml version="1.0" encoding="UTF-8"?>
<!-- 2026-03-10 13:33:53 Generated by QCAD 3.32.6 SVG Exporter -->
<svg  width="10443mm" height="5971.5mm" viewBox="9.1643 -5975.6558 10443 5971.5" version="1.1" xmlns="http://www.w3.org/2000/svg" style="stroke-linecap:round;stroke-linejoin:round;">
    <g transform="scale(1,-1)">
            <!-- Auto-generated fillable area -->
            <!-- Block Reference: Crescent or Cabaret / entities: 30 -->
        <g>
            <!-- Block Reference: chair_04_top_cad-block.com / entities: 8 -->
            <g>
                <!-- Line -->
                <path d="M3886.9518,5482.8308 L3886.9518,4968.4808 " style="stroke:#000000;stroke-width:0.1;"/>
                <!-- Arc -->
                <path d="M3858.3511,5520.9309 A50.8,50.8 0 0,1 3809.1643,5482.8308" style="stroke:#000000;stroke-width:0.1;"/>
                <!-- Arc -->
                <path d="M3809.1643,4968.4808 A50.8,50.8 0 0,1 3858.3511,4930.3808" style="stroke:#000000;stroke-width:0.1;"/>
                <!-- Polyline -->
                <path d="M3858.3511,4930.3808 L4329.8386,4930.3808 L4329.8386,4968.4808" style="stroke:#000000;stroke-width:0.1;"/>
                <!-- Polyline -->
                <path d="M3858.3511,5520.9309 L4329.8386,5520.9309 L4329.8386,5482.8309" style="stroke:#000000;stroke-width:0.1;"/>
                <!-- Polyline -->
                <path d="M4380.6643,5482.8308 L4380.6643,4968.4808 L3809.1643,4968.4808 L3809.1643,5482.8308 Z" style="stroke:#000000;stroke-width:0.1;"/>
                <!-- Hatch -->
                <path d="M3809.1643,5482.8308 L3809.1643,4968.4808 L3886.9518,4968.4808 L3886.9518,5482.8308 ZM3886.9518,5482.8308 L3886.9518,4968.4808 L4380.6643,4968.4808 L4380.6643,5482.8308 Z" style="fill-rule:evenodd;"/>
                <!-- Hatch -->
                <path d="M3809.1643,4968.4808 A50.8,50.8 0 0 1 3858.3513,4930.3808 L4329.8386,4930.3808 L4329.8386,4968.4808 ZM3858.351,5520.9309 A50.8,50.8 0 0 1 3809.1643,5482.8308 L4329.8386,5482.8308 L4329.8386,5520.9309 L3858.351,5520.9309" style="fill-rule:evenodd;"/>
            </g>
            <!-- Block Reference: chair_04_top_cad-block.com / entities: 8 -->
            <g>
                <!-- Line -->
                <path d="M6574.3768,4968.4808 L6574.3768,5482.8308 " style="stroke:#000000;stroke-width:0.1;"/>
                <!-- Arc -->
                <path d="M6602.9774,4930.3808 A50.8,50.8 0 0,1 6652.1643,4968.4808" style="stroke:#000000;stroke-width:0.1;"/>
                <!-- Arc -->
                <path d="M6652.1643,5482.8308 A50.8,50.8 0 0,1 6602.9774,5520.9309" style="stroke:#000000;stroke-width:0.1;"/>
                <!-- Polyline -->
                <path d="M6602.9774,5520.9309 L6131.4899,5520.9309 L6131.4899,5482.8309" style="stroke:#000000;stroke-width:0.1;"/>
                <!-- Polyline -->
                <path d="M6602.9774,4930.3808 L6131.4899,4930.3808 L6131.4899,4968.4808" style="stroke:#000000;stroke-width:0.1;"/>
                <!-- Polyline -->
                <path d="M6080.6643,4968.4808 L6080.6643,5482.8308 L6652.1643,5482.8308 L6652.1643,4968.4808 Z" style="stroke:#000000;stroke-width:0.1;"/>
                <!-- Hatch -->
                <path d="M6652.1643,4968.4808 L6652.1643,5482.8308 L6574.3768,5482.8308 L6574.3768,4968.4808 ZM6574.3768,4968.4808 L6574.3768,5482.8308 L6080.6643,5482.8308 L6080.6643,4968.4808 Z" style="fill-rule:evenodd;"/>
                <!-- Hatch -->
                <path d="M6652.1643,5482.8308 A50.8,50.8 0 0 1 6602.9772,5520.9309 L6131.4899,5520.9309 L6131.4899,5482.8308 ZM6602.9775,4930.3808 A50.8,50.8 0 0 1 6652.1643,4968.4808 L6131.4899,4968.4808 L6131.4899,4930.3808 L6602.9775,4930.3808" style="fill-rule:evenodd;"/>
            </g>
            <!-- Block Reference: chair_04_top_cad-block.com / entities: 8 -->
            <g>
                <!-- Line -->
                <path d="M5998.9623,4093.6574 L6362.6627,4457.3578 " style="stroke:#000000;stroke-width:0.1;"/>
                <!-- Arc -->
                <path d="M5992.2452,4046.493 A50.8,50.8 0 0,1 6053.9664,4038.6534" style="stroke:#000000;stroke-width:0.1;"/>
                <!-- Arc -->
                <path d="M6417.6667,4402.3537 A50.8,50.8 0 0,1 6409.8271,4464.0749" style="stroke:#000000;stroke-width:0.1;"/>
                <!-- Polyline -->
                <path d="M6409.8271,4464.0749 L6076.4351,4797.4669 L6049.4943,4770.5261" style="stroke:#000000;stroke-width:0.1;"/>
                <!-- Polyline -->
                <path d="M5992.2452,4046.493 L5658.8532,4379.885 L5685.794,4406.8258" style="stroke:#000000;stroke-width:0.1;"/>
                <!-- Polyline -->
                <path d="M5649.8548,4442.7649 L6013.5552,4806.4653 L6417.6667,4402.3537 L6053.9664,4038.6534 Z" style="stroke:#000000;stroke-width:0.1;"/>
                <!-- Hatch -->
                <path d="M6053.9664,4038.6534 L6417.6667,4402.3537 L6362.6627,4457.3578 L5998.9623,4093.6574 ZM5998.9623,4093.6574 L6362.6627,4457.3578 L6013.5552,4806.4653 L5649.8548,4442.7649 Z" style="fill-rule:evenodd;"/>
                <!-- Hatch -->
                <path d="M6417.6667,4402.3537 A50.8,50.8 0 0 1 6409.827,4464.075 L6076.4351,4797.4669 L6049.4943,4770.5261 ZM5992.2453,4046.4929 A50.8,50.8 0 0 1 6053.9664,4038.6534 L5685.794,4406.8258 L5658.8532,4379.885 L5992.2453,4046.4929" style="fill-rule:evenodd;"/>
            </g>
            <!-- Block Reference: chair_04_top_cad-block.com / entities: 8 -->
            <g>
                <!-- Line -->
                <path d="M4973.4893,3881.9433 L5487.8393,3881.9433 " style="stroke:#000000;stroke-width:0.1;"/>
                <!-- Arc -->
                <path d="M4935.3893,3853.3427 A50.8,50.8 0 0,1 4973.4893,3804.1558" style="stroke:#000000;stroke-width:0.1;"/>
                <!-- Arc -->
                <path d="M5487.8393,3804.1558 A50.8,50.8 0 0,1 5525.9393,3853.3427" style="stroke:#000000;stroke-width:0.1;"/>
                <!-- Polyline -->
                <path d="M5525.9393,3853.3427 L5525.9393,4324.8302 L5487.8393,4324.8302" style="stroke:#000000;stroke-width:0.1;"/>
                <!-- Polyline -->
                <path d="M4935.3893,3853.3427 L4935.3893,4324.8302 L4973.4893,4324.8302" style="stroke:#000000;stroke-width:0.1;"/>
                <!-- Polyline -->
                <path d="M4973.4893,4375.6558 L5487.8393,4375.6558 L5487.8393,3804.1558 L4973.4893,3804.1558 Z" style="stroke:#000000;stroke-width:0.1;"/>
                <!-- Hatch -->
                <path d="M4973.4893,3804.1558 L5487.8393,3804.1558 L5487.8393,3881.9433 L4973.4893,3881.9433 ZM4973.4893,3881.9433 L5487.8393,3881.9433 L5487.8393,4375.6558 L4973.4893,4375.6558 Z" style="fill-rule:evenodd;"/>
                <!-- Hatch -->
                <path d="M5487.8393,3804.1558 A50.8,50.8 0 0 1 5525.9393,3853.3429 L5525.9393,4324.8302 L5487.8393,4324.8302 ZM4935.3893,3853.3426 A50.8,50.8 0 0 1 4973.4893,3804.1558 L4973.4893,4324.8302 L4935.3893,4324.8302 L4935.3893,3853.3426" style="fill-rule:evenodd;"/>
            </g>
            <!-- Block Reference: chair_04_top_cad-block.com / entities: 8 -->
            <g>
                <!-- Line -->
                <path d="M4098.6658,4457.3578 L4462.3662,4093.6574 " style="stroke:#000000;stroke-width:0.1;"/>
                <!-- Arc -->
                <path d="M4051.5014,4464.0749 A50.8,50.8 0 0,1 4043.6618,4402.3537" style="stroke:#000000;stroke-width:0.1;"/>
                <!-- Arc -->
                <path d="M4407.3622,4038.6534 A50.8,50.8 0 0,1 4469.0833,4046.493" style="stroke:#000000;stroke-width:0.1;"/>
                <!-- Polyline -->
                <path d="M4469.0833,4046.493 L4802.4753,4379.885 L4775.5345,4406.8258" style="stroke:#000000;stroke-width:0.1;"/>
                <!-- Polyline -->
                <path d="M4051.5014,4464.0749 L4384.8934,4797.4669 L4411.8342,4770.5261" style="stroke:#000000;stroke-width:0.1;"/>
                <!-- Polyline -->
                <path d="M4447.7733,4806.4653 L4811.4737,4442.7649 L4407.3622,4038.6534 L4043.6618,4402.3537 Z" style="stroke:#000000;stroke-width:0.1;"/>
                <!-- Hatch -->
                <path d="M4043.6618,4402.3537 L4407.3622,4038.6534 L4462.3662,4093.6574 L4098.6658,4457.3578 ZM4098.6658,4457.3578 L4462.3662,4093.6574 L4811.4737,4442.7649 L4447.7733,4806.4653 Z" style="fill-rule:evenodd;"/>
                <!-- Hatch -->
                <path d="M4407.3622,4038.6534 A50.8,50.8 0 0 1 4469.0834,4046.4931 L4802.4753,4379.885 L4775.5345,4406.8258 ZM4051.5013,4464.0748 A50.8,50.8 0 0 1 4043.6618,4402.3537 L4411.8342,4770.5261 L4384.8934,4797.4669 L4051.5013,4464.0748" style="fill-rule:evenodd;"/>
            </g>
            <!-- Block Reference: Table round R750_top_cad-block.com / entities: 2 -->
            <g>
                <!-- Hatch -->
                <path d="M5980.6643,5225.6558 A750,750 0 0 1 4480.6643,5225.6558 A750,750 0 0 1 5980.6643,5225.6558 Z" style="fill-rule:evenodd;"/>
                <!-- Circle -->
                <circle cx="5230.664255363692" cy="5225.655848802118" r="750" style="stroke:#000000;stroke-width:0.1;"/>
            </g>
            <!-- Block Reference: chair_04_top_cad-block.com / entities: 8 -->
            <g>
                <!-- Line -->
                <path d="M7686.9518,5482.8308 L7686.9518,4968.4808 " style="stroke:#000000;stroke-width:0.1;"/>
                <!-- Arc -->
                <path d="M7658.3511,5520.9309 A50.8,50.8 0 0,1 7609.1643,5482.8308" style="stroke:#000000;stroke-width:0.1;"/>
                <!-- Arc -->
                <path d="M7609.1643,4968.4808 A50.8,50.8 0 0,1 7658.3511,4930.3808" style="stroke:#000000;stroke-width:0.1;"/>
                <!-- Polyline -->
                <path d="M7658.3511,4930.3808 L8129.8386,4930.3808 L8129.8386,4968.4808" style="stroke:#000000;stroke-width:0.1;"/>
                <!-- Polyline -->
                <path d="M7658.3511,5520.9309 L8129.8386,5520.9309 L8129.8386,5482.8309" style="stroke:#000000;stroke-width:0.1;"/>
                <!-- Polyline -->
                <path d="M8180.6643,5482.8308 L8180.6643,4968.4808 L7609.1643,4968.4808 L7609.1643,5482.8308 Z" style="stroke:#000000;stroke-width:0.1;"/>
                <!-- Hatch -->
                <path d="M7609.1643,5482.8308 L7609.1643,4968.4808 L7686.9518,4968.4808 L7686.9518,5482.8308 ZM7686.9518,5482.8308 L7686.9518,4968.4808 L8180.6643,4968.4808 L8180.6643,5482.8308 Z" style="fill-rule:evenodd;"/>
                <!-- Hatch -->
                <path d="M7609.1643,4968.4808 A50.8,50.8 0 0 1 7658.3513,4930.3808 L8129.8386,4930.3808 L8129.8386,4968.4808 ZM7658.351,5520.9309 A50.8,50.8 0 0 1 7609.1643,5482.8308 L8129.8386,5482.8308 L8129.8386,5520.9309 L7658.351,5520.9309" style="fill-rule:evenodd;"/>
            </g>
            <!-- Block Reference: chair_04_top_cad-block.com / entities: 8 -->
            <g>
                <!-- Line -->
                <path d="M10374.3768,4968.4808 L10374.3768,5482.8308 " style="stroke:#000000;stroke-width:0.1;"/>
                <!-- Arc -->
                <path d="M10402.9774,4930.3808 A50.8,50.8 0 0,1 10452.1643,4968.4808" style="stroke:#000000;stroke-width:0.1;"/>
                <!-- Arc -->
                <path d="M10452.1643,5482.8308 A50.8,50.8 0 0,1 10402.9774,5520.9309" style="stroke:#000000;stroke-width:0.1;"/>
                <!-- Polyline -->
                <path d="M10402.9774,5520.9309 L9931.4899,5520.9309 L9931.4899,5482.8309" style="stroke:#000000;stroke-width:0.1;"/>
                <!-- Polyline -->
                <path d="M10402.9774,4930.3808 L9931.4899,4930.3808 L9931.4899,4968.4808" style="stroke:#000000;stroke-width:0.1;"/>
                <!-- Polyline -->
                <path d="M9880.6643,4968.4808 L9880.6643,5482.8308 L10452.1643,5482.8308 L10452.1643,4968.4808 Z" style="stroke:#000000;stroke-width:0.1;"/>
                <!-- Hatch -->
                <path d="M10452.1643,4968.4808 L10452.1643,5482.8308 L10374.3768,5482.8308 L10374.3768,4968.4808 ZM10374.3768,4968.4808 L10374.3768,5482.8308 L9880.6643,5482.8308 L9880.6643,4968.4808 Z" style="fill-rule:evenodd;"/>
                <!-- Hatch -->
                <path d="M10452.1643,5482.8308 A50.8,50.8 0 0 1 10402.9772,5520.9309 L9931.4899,5520.9309 L9931.4899,5482.8308 ZM10402.9775,4930.3808 A50.8,50.8 0 0 1 10452.1643,4968.4808 L9931.4899,4968.4808 L9931.4899,4930.3808 L10402.9775,4930.3808" style="fill-rule:evenodd;"/>
            </g>
            <!-- Block Reference: chair_04_top_cad-block.com / entities: 8 -->
            <g>
                <!-- Line -->
                <path d="M9798.9623,4093.6574 L10162.6627,4457.3578 " style="stroke:#000000;stroke-width:0.1;"/>
                <!-- Arc -->
                <path d="M9792.2452,4046.493 A50.8,50.8 0 0,1 9853.9664,4038.6534" style="stroke:#000000;stroke-width:0.1;"/>
                <!-- Arc -->
                <path d="M10217.6667,4402.3537 A50.8,50.8 0 0,1 10209.8271,4464.0749" style="stroke:#000000;stroke-width:0.1;"/>
                <!-- Polyline -->
                <path d="M10209.8271,4464.0749 L9876.4351,4797.4669 L9849.4943,4770.5261" style="stroke:#000000;stroke-width:0.1;"/>
                <!-- Polyline -->
                <path d="M9792.2452,4046.493 L9458.8532,4379.885 L9485.794,4406.8258" style="stroke:#000000;stroke-width:0.1;"/>
                <!-- Polyline -->
                <path d="M9449.8548,4442.7649 L9813.5552,4806.4653 L10217.6667,4402.3537 L9853.9664,4038.6534 Z" style="stroke:#000000;stroke-width:0.1;"/>
                <!-- Hatch -->
                <path d="M9853.9664,4038.6534 L10217.6667,4402.3537 L10162.6627,4457.3578 L9798.9623,4093.6574 ZM9798.9623,4093.6574 L10162.6627,4457.3578 L9813.5552,4806.4653 L9449.8548,4442.7649 Z" style="fill-rule:evenodd;"/>
                <!-- Hatch -->
                <path d="M10217.6667,4402.3537 A50.8,50.8 0 0 1 10209.827,4464.075 L9876.4351,4797.4669 L9849.4943,4770.5261 ZM9792.2453,4046.4929 A50.8,50.8 0 0 1 9853.9664,4038.6534 L9485.794,4406.8258 L9458.8532,4379.885 L9792.2453,4046.4929" style="fill-rule:evenodd;"/>
            </g>
            <!-- Block Reference: chair_04_top_cad-block.com / entities: 8 -->
            <g>
                <!-- Line -->
                <path d="M8773.4893,3881.9433 L9287.8393,3881.9433 " style="stroke:#000000;stroke-width:0.1;"/>
                <!-- Arc -->
                <path d="M8735.3893,3853.3427 A50.8,50.8 0 0,1 8773.4893,3804.1558" style="stroke:#000000;stroke-width:0.1;"/>
                <!-- Arc -->
                <path d="M9287.8393,3804.1558 A50.8,50.8 0 0,1 9325.9393,3853.3427" style="stroke:#000000;stroke-width:0.1;"/>
                <!-- Polyline -->
                <path d="M9325.9393,3853.3427 L9325.9393,4324.8302 L9287.8393,4324.8302" style="stroke:#000000;stroke-width:0.1;"/>
                <!-- Polyline -->
                <path d="M8735.3893,3853.3427 L8735.3893,4324.8302 L8773.4893,4324.8302" style="stroke:#000000;stroke-width:0.1;"/>
                <!-- Polyline -->
                <path d="M8773.4893,4375.6558 L9287.8393,4375.6558 L9287.8393,3804.1558 L8773.4893,3804.1558 Z" style="stroke:#000000;stroke-width:0.1;"/>
                <!-- Hatch -->
                <path d="M8773.4893,3804.1558 L9287.8393,3804.1558 L9287.8393,3881.9433 L8773.4893,3881.9433 ZM8773.4893,3881.9433 L9287.8393,3881.9433 L9287.8393,4375.6558 L8773.4893,4375.6558 Z" style="fill-rule:evenodd;"/>
                <!-- Hatch -->
                <path d="M9287.8393,3804.1558 A50.8,50.8 0 0 1 9325.9393,3853.3429 L9325.9393,4324.8302 L9287.8393,4324.8302 ZM8735.3893,3853.3426 A50.8,50.8 0 0 1 8773.4893,3804.1558 L8773.4893,4324.8302 L8735.3893,4324.8302 L8735.3893,3853.3426" style="fill-rule:evenodd;"/>
            </g>
            <!-- Block Reference: chair_04_top_cad-block.com / entities: 8 -->
            <g>
                <!-- Line -->
                <path d="M7898.6658,4457.3578 L8262.3662,4093.6574 " style="stroke:#000000;stroke-width:0.1;"/>
                <!-- Arc -->
                <path d="M7851.5014,4464.0749 A50.8,50.8 0 0,1 7843.6618,4402.3537" style="stroke:#000000;stroke-width:0.1;"/>
                <!-- Arc -->
                <path d="M8207.3622,4038.6534 A50.8,50.8 0 0,1 8269.0833,4046.493" style="stroke:#000000;stroke-width:0.1;"/>
                <!-- Polyline -->
                <path d="M8269.0833,4046.493 L8602.4753,4379.885 L8575.5345,4406.8258" style="stroke:#000000;stroke-width:0.1;"/>
                <!-- Polyline -->
                <path d="M7851.5014,4464.0749 L8184.8934,4797.4669 L8211.8342,4770.5261" style="stroke:#000000;stroke-width:0.1;"/>
                <!-- Polyline -->
                <path d="M8247.7733,4806.4653 L8611.4737,4442.7649 L8207.3622,4038.6534 L7843.6618,4402.3537 Z" style="stroke:#000000;stroke-width:0.1;"/>
                <!-- Hatch -->
                <path d="M7843.6618,4402.3537 L8207.3622,4038.6534 L8262.3662,4093.6574 L7898.6658,4457.3578 ZM7898.6658,4457.3578 L8262.3662,4093.6574 L8611.4737,4442.7649 L8247.7733,4806.4653 Z" style="fill-rule:evenodd;"/>
                <!-- Hatch -->
                <path d="M8207.3622,4038.6534 A50.8,50.8 0 0 1 8269.0834,4046.4931 L8602.4753,4379.885 L8575.5345,4406.8258 ZM7851.5013,4464.0748 A50.8,50.8 0 0 1 7843.6618,4402.3537 L8211.8342,4770.5261 L8184.8934,4797.4669 L7851.5013,4464.0748" style="fill-rule:evenodd;"/>
            </g>
            <!-- Block Reference: Table round R750_top_cad-block.com / entities: 2 -->
            <g>
                <!-- Hatch -->
                <path d="M9780.6643,5225.6558 A750,750 0 0 1 8280.6643,5225.6558 A750,750 0 0 1 9780.6643,5225.6558 Z" style="fill-rule:evenodd;"/>
                <!-- Circle -->
                <circle cx="9030.664255363692" cy="5225.655848802118" r="750" style="stroke:#000000;stroke-width:0.1;"/>
            </g>
            <!-- Block Reference: chair_04_top_cad-block.com / entities: 8 -->
            <g>
                <!-- Line -->
                <path d="M5786.9518,1682.8308 L5786.9518,1168.4808 " style="stroke:#000000;stroke-width:0.1;"/>
                <!-- Arc -->
                <path d="M5758.3511,1720.9309 A50.8,50.8 0 0,1 5709.1643,1682.8308" style="stroke:#000000;stroke-width:0.1;"/>
                <!-- Arc -->
                <path d="M5709.1643,1168.4808 A50.8,50.8 0 0,1 5758.3511,1130.3808" style="stroke:#000000;stroke-width:0.1;"/>
                <!-- Polyline -->
                <path d="M5758.3511,1130.3808 L6229.8386,1130.3808 L6229.8386,1168.4808" style="stroke:#000000;stroke-width:0.1;"/>
                <!-- Polyline -->
                <path d="M5758.3511,1720.9309 L6229.8386,1720.9309 L6229.8386,1682.8309" style="stroke:#000000;stroke-width:0.1;"/>
                <!-- Polyline -->
                <path d="M6280.6643,1682.8308 L6280.6643,1168.4808 L5709.1643,1168.4808 L5709.1643,1682.8308 Z" style="stroke:#000000;stroke-width:0.1;"/>
                <!-- Hatch -->
                <path d="M5709.1643,1682.8308 L5709.1643,1168.4808 L5786.9518,1168.4808 L5786.9518,1682.8308 ZM5786.9518,1682.8308 L5786.9518,1168.4808 L6280.6643,1168.4808 L6280.6643,1682.8308 Z" style="fill-rule:evenodd;"/>
                <!-- Hatch -->
                <path d="M5709.1643,1168.4808 A50.8,50.8 0 0 1 5758.3513,1130.3808 L6229.8386,1130.3808 L6229.8386,1168.4808 ZM5758.351,1720.9309 A50.8,50.8 0 0 1 5709.1643,1682.8308 L6229.8386,1682.8308 L6229.8386,1720.9309 L5758.351,1720.9309" style="fill-rule:evenodd;"/>
            </g>
            <!-- Block Reference: chair_04_top_cad-block.com / entities: 8 -->
            <g>
                <!-- Line -->
                <path d="M8474.3768,1168.4808 L8474.3768,1682.8308 " style="stroke:#000000;stroke-width:0.1;"/>
                <!-- Arc -->
                <path d="M8502.9774,1130.3808 A50.8,50.8 0 0,1 8552.1643,1168.4808" style="stroke:#000000;stroke-width:0.1;"/>
                <!-- Arc -->
                <path d="M8552.1643,1682.8308 A50.8,50.8 0 0,1 8502.9774,1720.9309" style="stroke:#000000;stroke-width:0.1;"/>
                <!-- Polyline -->
                <path d="M8502.9774,1720.9309 L8031.4899,1720.9309 L8031.4899,1682.8309" style="stroke:#000000;stroke-width:0.1;"/>
                <!-- Polyline -->
                <path d="M8502.9774,1130.3808 L8031.4899,1130.3808 L8031.4899,1168.4808" style="stroke:#000000;stroke-width:0.1;"/>
                <!-- Polyline -->
                <path d="M7980.6643,1168.4808 L7980.6643,1682.8308 L8552.1643,1682.8308 L8552.1643,1168.4808 Z" style="stroke:#000000;stroke-width:0.1;"/>
                <!-- Hatch -->
                <path d="M8552.1643,1168.4808 L8552.1643,1682.8308 L8474.3768,1682.8308 L8474.3768,1168.4808 ZM8474.3768,1168.4808 L8474.3768,1682.8308 L7980.6643,1682.8308 L7980.6643,1168.4808 Z" style="fill-rule:evenodd;"/>
                <!-- Hatch -->
                <path d="M8552.1643,1682.8308 A50.8,50.8 0 0 1 8502.9772,1720.9309 L8031.4899,1720.9309 L8031.4899,1682.8308 ZM8502.9775,1130.3808 A50.8,50.8 0 0 1 8552.1643,1168.4808 L8031.4899,1168.4808 L8031.4899,1130.3808 L8502.9775,1130.3808" style="fill-rule:evenodd;"/>
            </g>
            <!-- Block Reference: chair_04_top_cad-block.com / entities: 8 -->
            <g>
                <!-- Line -->
                <path d="M7898.9623,293.6574 L8262.6627,657.3578 " style="stroke:#000000;stroke-width:0.1;"/>
                <!-- Arc -->
                <path d="M7892.2452,246.493 A50.8,50.8 0 0,1 7953.9664,238.6534" style="stroke:#000000;stroke-width:0.1;"/>
                <!-- Arc -->
                <path d="M8317.6667,602.3537 A50.8,50.8 0 0,1 8309.8271,664.0749" style="stroke:#000000;stroke-width:0.1;"/>
                <!-- Polyline -->
                <path d="M8309.8271,664.0749 L7976.4351,997.4669 L7949.4943,970.5261" style="stroke:#000000;stroke-width:0.1;"/>
                <!-- Polyline -->
                <path d="M7892.2452,246.493 L7558.8532,579.885 L7585.794,606.8258" style="stroke:#000000;stroke-width:0.1;"/>
                <!-- Polyline -->
                <path d="M7549.8548,642.7649 L7913.5552,1006.4653 L8317.6667,602.3537 L7953.9664,238.6534 Z" style="stroke:#000000;stroke-width:0.1;"/>
                <!-- Hatch -->
                <path d="M7953.9664,238.6534 L8317.6667,602.3537 L8262.6627,657.3578 L7898.9623,293.6574 ZM7898.9623,293.6574 L8262.6627,657.3578 L7913.5552,1006.4653 L7549.8548,642.7649 Z" style="fill-rule:evenodd;"/>
                <!-- Hatch -->
                <path d="M8317.6667,602.3537 A50.8,50.8 0 0 1 8309.827,664.075 L7976.4351,997.4669 L7949.4943,970.5261 ZM7892.2453,246.4929 A50.8,50.8 0 0 1 7953.9664,238.6534 L7585.794,606.8258 L7558.8532,579.885 L7892.2453,246.4929" style="fill-rule:evenodd;"/>
            </g>
            <!-- Block Reference: chair_04_top_cad-block.com / entities: 8 -->
            <g>
                <!-- Line -->
                <path d="M5998.6658,657.3578 L6362.3662,293.6574 " style="stroke:#000000;stroke-width:0.1;"/>
                <!-- Arc -->
                <path d="M5951.5014,664.0749 A50.8,50.8 0 0,1 5943.6618,602.3537" style="stroke:#000000;stroke-width:0.1;"/>
                <!-- Arc -->
                <path d="M6307.3622,238.6534 A50.8,50.8 0 0,1 6369.0833,246.493" style="stroke:#000000;stroke-width:0.1;"/>
                <!-- Polyline -->
                <path d="M6369.0833,246.493 L6702.4753,579.885 L6675.5345,606.8258" style="stroke:#000000;stroke-width:0.1;"/>
                <!-- Polyline -->
                <path d="M5951.5014,664.0749 L6284.8934,997.4669 L6311.8342,970.5261" style="stroke:#000000;stroke-width:0.1;"/>
                <!-- Polyline -->
                <path d="M6347.7733,1006.4653 L6711.4737,642.7649 L6307.3622,238.6534 L5943.6618,602.3537 Z" style="stroke:#000000;stroke-width:0.1;"/>
                <!-- Hatch -->
                <path d="M5943.6618,602.3537 L6307.3622,238.6534 L6362.3662,293.6574 L5998.6658,657.3578 ZM5998.6658,657.3578 L6362.3662,293.6574 L6711.4737,642.7649 L6347.7733,1006.4653 Z" style="fill-rule:evenodd;"/>
                <!-- Hatch -->
                <path d="M6307.3622,238.6534 A50.8,50.8 0 0 1 6369.0834,246.4931 L6702.4753,579.885 L6675.5345,606.8258 ZM5951.5013,664.0748 A50.8,50.8 0 0 1 5943.6618,602.3537 L6311.8342,970.5261 L6284.8934,997.4669 L5951.5013,664.0748" style="fill-rule:evenodd;"/>
            </g>
            <!-- Block Reference: Table round R750_top_cad-block.com / entities: 2 -->
            <g>
                <!-- Hatch -->
                <path d="M7880.6643,1425.6558 A750,750 0 0 1 6380.6643,1425.6558 A750,750 0 0 1 7880.6643,1425.6558 Z" style="fill-rule:evenodd;"/>
                <!-- Circle -->
                <circle cx="7130.664255363692" cy="1425.6558488021183" r="750" style="stroke:#000000;stroke-width:0.1;"/>
            </g>
            <!-- Block Reference: chair_04_top_cad-block.com / entities: 8 -->
            <g>
                <!-- Line -->
                <path d="M1986.9518,1682.8308 L1986.9518,1168.4808 " style="stroke:#000000;stroke-width:0.1;"/>
                <!-- Arc -->
                <path d="M1958.3511,1720.9309 A50.8,50.8 0 0,1 1909.1643,1682.8308" style="stroke:#000000;stroke-width:0.1;"/>
                <!-- Arc -->
                <path d="M1909.1643,1168.4808 A50.8,50.8 0 0,1 1958.3511,1130.3808" style="stroke:#000000;stroke-width:0.1;"/>
                <!-- Polyline -->
                <path d="M1958.3511,1130.3808 L2429.8386,1130.3808 L2429.8386,1168.4808" style="stroke:#000000;stroke-width:0.1;"/>
                <!-- Polyline -->
                <path d="M1958.3511,1720.9309 L2429.8386,1720.9309 L2429.8386,1682.8309" style="stroke:#000000;stroke-width:0.1;"/>
                <!-- Polyline -->
                <path d="M2480.6643,1682.8308 L2480.6643,1168.4808 L1909.1643,1168.4808 L1909.1643,1682.8308 Z" style="stroke:#000000;stroke-width:0.1;"/>
                <!-- Hatch -->
                <path d="M1909.1643,1682.8308 L1909.1643,1168.4808 L1986.9518,1168.4808 L1986.9518,1682.8308 ZM1986.9518,1682.8308 L1986.9518,1168.4808 L2480.6643,1168.4808 L2480.6643,1682.8308 Z" style="fill-rule:evenodd;"/>
                <!-- Hatch -->
                <path d="M1909.1643,1168.4808 A50.8,50.8 0 0 1 1958.3513,1130.3808 L2429.8386,1130.3808 L2429.8386,1168.4808 ZM1958.351,1720.9309 A50.8,50.8 0 0 1 1909.1643,1682.8308 L2429.8386,1682.8308 L2429.8386,1720.9309 L1958.351,1720.9309" style="fill-rule:evenodd;"/>
            </g>
            <!-- Block Reference: chair_04_top_cad-block.com / entities: 8 -->
            <g>
                <!-- Line -->
                <path d="M4674.3768,1168.4808 L4674.3768,1682.8308 " style="stroke:#000000;stroke-width:0.1;"/>
                <!-- Arc -->
                <path d="M4702.9774,1130.3808 A50.8,50.8 0 0,1 4752.1643,1168.4808" style="stroke:#000000;stroke-width:0.1;"/>
                <!-- Arc -->
                <path d="M4752.1643,1682.8308 A50.8,50.8 0 0,1 4702.9774,1720.9309" style="stroke:#000000;stroke-width:0.1;"/>
                <!-- Polyline -->
                <path d="M4702.9774,1720.9309 L4231.4899,1720.9309 L4231.4899,1682.8309" style="stroke:#000000;stroke-width:0.1;"/>
                <!-- Polyline -->
                <path d="M4702.9774,1130.3808 L4231.4899,1130.3808 L4231.4899,1168.4808" style="stroke:#000000;stroke-width:0.1;"/>
                <!-- Polyline -->
                <path d="M4180.6643,1168.4808 L4180.6643,1682.8308 L4752.1643,1682.8308 L4752.1643,1168.4808 Z" style="stroke:#000000;stroke-width:0.1;"/>
                <!-- Hatch -->
                <path d="M4752.1643,1168.4808 L4752.1643,1682.8308 L4674.3768,1682.8308 L4674.3768,1168.4808 ZM4674.3768,1168.4808 L4674.3768,1682.8308 L4180.6643,1682.8308 L4180.6643,1168.4808 Z" style="fill-rule:evenodd;"/>
                <!-- Hatch -->
                <path d="M4752.1643,1682.8308 A50.8,50.8 0 0 1 4702.9772,1720.9309 L4231.4899,1720.9309 L4231.4899,1682.8308 ZM4702.9775,1130.3808 A50.8,50.8 0 0 1 4752.1643,1168.4808 L4231.4899,1168.4808 L4231.4899,1130.3808 L4702.9775,1130.3808" style="fill-rule:evenodd;"/>
            </g>
            <!-- Block Reference: chair_04_top_cad-block.com / entities: 8 -->
            <g>
                <!-- Line -->
                <path d="M4098.9623,293.6574 L4462.6627,657.3578 " style="stroke:#000000;stroke-width:0.1;"/>
                <!-- Arc -->
                <path d="M4092.2452,246.493 A50.8,50.8 0 0,1 4153.9664,238.6534" style="stroke:#000000;stroke-width:0.1;"/>
                <!-- Arc -->
                <path d="M4517.6667,602.3537 A50.8,50.8 0 0,1 4509.8271,664.0749" style="stroke:#000000;stroke-width:0.1;"/>
                <!-- Polyline -->
                <path d="M4509.8271,664.0749 L4176.4351,997.4669 L4149.4943,970.5261" style="stroke:#000000;stroke-width:0.1;"/>
                <!-- Polyline -->
                <path d="M4092.2452,246.493 L3758.8532,579.885 L3785.794,606.8258" style="stroke:#000000;stroke-width:0.1;"/>
                <!-- Polyline -->
                <path d="M3749.8548,642.7649 L4113.5552,1006.4653 L4517.6667,602.3537 L4153.9664,238.6534 Z" style="stroke:#000000;stroke-width:0.1;"/>
                <!-- Hatch -->
                <path d="M4153.9664,238.6534 L4517.6667,602.3537 L4462.6627,657.3578 L4098.9623,293.6574 ZM4098.9623,293.6574 L4462.6627,657.3578 L4113.5552,1006.4653 L3749.8548,642.7649 Z" style="fill-rule:evenodd;"/>
                <!-- Hatch -->
                <path d="M4517.6667,602.3537 A50.8,50.8 0 0 1 4509.827,664.075 L4176.4351,997.4669 L4149.4943,970.5261 ZM4092.2453,246.4929 A50.8,50.8 0 0 1 4153.9664,238.6534 L3785.794,606.8258 L3758.8532,579.885 L4092.2453,246.4929" style="fill-rule:evenodd;"/>
            </g>
            <!-- Block Reference: chair_04_top_cad-block.com / entities: 8 -->
            <g>
                <!-- Line -->
                <path d="M2198.6658,657.3578 L2562.3662,293.6574 " style="stroke:#000000;stroke-width:0.1;"/>
                <!-- Arc -->
                <path d="M2151.5014,664.0749 A50.8,50.8 0 0,1 2143.6618,602.3537" style="stroke:#000000;stroke-width:0.1;"/>
                <!-- Arc -->
                <path d="M2507.3622,238.6534 A50.8,50.8 0 0,1 2569.0833,246.493" style="stroke:#000000;stroke-width:0.1;"/>
                <!-- Polyline -->
                <path d="M2569.0833,246.493 L2902.4753,579.885 L2875.5345,606.8258" style="stroke:#000000;stroke-width:0.1;"/>
                <!-- Polyline -->
                <path d="M2151.5014,664.0749 L2484.8934,997.4669 L2511.8342,970.5261" style="stroke:#000000;stroke-width:0.1;"/>
                <!-- Polyline -->
                <path d="M2547.7733,1006.4653 L2911.4737,642.7649 L2507.3622,238.6534 L2143.6618,602.3537 Z" style="stroke:#000000;stroke-width:0.1;"/>
                <!-- Hatch -->
                <path d="M2143.6618,602.3537 L2507.3622,238.6534 L2562.3662,293.6574 L2198.6658,657.3578 ZM2198.6658,657.3578 L2562.3662,293.6574 L2911.4737,642.7649 L2547.7733,1006.4653 Z" style="fill-rule:evenodd;"/>
                <!-- Hatch -->
                <path d="M2507.3622,238.6534 A50.8,50.8 0 0 1 2569.0834,246.4931 L2902.4753,579.885 L2875.5345,606.8258 ZM2151.5013,664.0748 A50.8,50.8 0 0 1 2143.6618,602.3537 L2511.8342,970.5261 L2484.8934,997.4669 L2151.5013,664.0748" style="fill-rule:evenodd;"/>
            </g>
            <!-- Block Reference: Table round R750_top_cad-block.com / entities: 2 -->
            <g>
                <!-- Hatch -->
                <path d="M4080.6643,1425.6558 A750,750 0 0 1 2580.6643,1425.6558 A750,750 0 0 1 4080.6643,1425.6558 Z" style="fill-rule:evenodd;"/>
                <!-- Circle -->
                <circle cx="3330.664255363692" cy="1425.6558488021183" r="750" style="stroke:#000000;stroke-width:0.1;"/>
            </g>
            <!-- Block Reference: chair_04_top_cad-block.com / entities: 8 -->
            <g>
                <!-- Line -->
                <path d="M86.9518,5482.8308 L86.9518,4968.4808 " style="stroke:#000000;stroke-width:0.1;"/>
                <!-- Arc -->
                <path d="M58.3511,5520.9309 A50.8,50.8 0 0,1 9.1643,5482.8308" style="stroke:#000000;stroke-width:0.1;"/>
                <!-- Arc -->
                <path d="M9.1643,4968.4808 A50.8,50.8 0 0,1 58.3511,4930.3808" style="stroke:#000000;stroke-width:0.1;"/>
                <!-- Polyline -->
                <path d="M58.3511,4930.3808 L529.8386,4930.3808 L529.8386,4968.4808" style="stroke:#000000;stroke-width:0.1;"/>
                <!-- Polyline -->
                <path d="M58.3511,5520.9309 L529.8386,5520.9309 L529.8386,5482.8309" style="stroke:#000000;stroke-width:0.1;"/>
                <!-- Polyline -->
                <path d="M580.6643,5482.8308 L580.6643,4968.4808 L9.1643,4968.4808 L9.1643,5482.8308 Z" style="stroke:#000000;stroke-width:0.1;"/>
                <!-- Hatch -->
                <path d="M9.1643,5482.8308 L9.1643,4968.4808 L86.9518,4968.4808 L86.9518,5482.8308 ZM86.9518,5482.8308 L86.9518,4968.4808 L580.6643,4968.4808 L580.6643,5482.8308 Z" style="fill-rule:evenodd;"/>
                <!-- Hatch -->
                <path d="M9.1643,4968.4808 A50.8,50.8 0 0 1 58.3513,4930.3808 L529.8386,4930.3808 L529.8386,4968.4808 ZM58.351,5520.9309 A50.8,50.8 0 0 1 9.1643,5482.8308 L529.8386,5482.8308 L529.8386,5520.9309 L58.351,5520.9309" style="fill-rule:evenodd;"/>
            </g>
            <!-- Block Reference: chair_04_top_cad-block.com / entities: 8 -->
            <g>
                <!-- Line -->
                <path d="M2774.3768,4968.4808 L2774.3768,5482.8308 " style="stroke:#000000;stroke-width:0.1;"/>
                <!-- Arc -->
                <path d="M2802.9774,4930.3808 A50.8,50.8 0 0,1 2852.1643,4968.4808" style="stroke:#000000;stroke-width:0.1;"/>
                <!-- Arc -->
                <path d="M2852.1643,5482.8308 A50.8,50.8 0 0,1 2802.9774,5520.9309" style="stroke:#000000;stroke-width:0.1;"/>
                <!-- Polyline -->
                <path d="M2802.9774,5520.9309 L2331.4899,5520.9309 L2331.4899,5482.8309" style="stroke:#000000;stroke-width:0.1;"/>
                <!-- Polyline -->
                <path d="M2802.9774,4930.3808 L2331.4899,4930.3808 L2331.4899,4968.4808" style="stroke:#000000;stroke-width:0.1;"/>
                <!-- Polyline -->
                <path d="M2280.6643,4968.4808 L2280.6643,5482.8308 L2852.1643,5482.8308 L2852.1643,4968.4808 Z" style="stroke:#000000;stroke-width:0.1;"/>
                <!-- Hatch -->
                <path d="M2852.1643,4968.4808 L2852.1643,5482.8308 L2774.3768,5482.8308 L2774.3768,4968.4808 ZM2774.3768,4968.4808 L2774.3768,5482.8308 L2280.6643,5482.8308 L2280.6643,4968.4808 Z" style="fill-rule:evenodd;"/>
                <!-- Hatch -->
                <path d="M2852.1643,5482.8308 A50.8,50.8 0 0 1 2802.9772,5520.9309 L2331.4899,5520.9309 L2331.4899,5482.8308 ZM2802.9775,4930.3808 A50.8,50.8 0 0 1 2852.1643,4968.4808 L2331.4899,4968.4808 L2331.4899,4930.3808 L2802.9775,4930.3808" style="fill-rule:evenodd;"/>
            </g>
            <!-- Block Reference: chair_04_top_cad-block.com / entities: 8 -->
            <g>
                <!-- Line -->
                <path d="M2198.9623,4093.6574 L2562.6627,4457.3578 " style="stroke:#000000;stroke-width:0.1;"/>
                <!-- Arc -->
                <path d="M2192.2452,4046.493 A50.8,50.8 0 0,1 2253.9664,4038.6534" style="stroke:#000000;stroke-width:0.1;"/>
                <!-- Arc -->
                <path d="M2617.6667,4402.3537 A50.8,50.8 0 0,1 2609.8271,4464.0749" style="stroke:#000000;stroke-width:0.1;"/>
                <!-- Polyline -->
                <path d="M2609.8271,4464.0749 L2276.4351,4797.4669 L2249.4943,4770.5261" style="stroke:#000000;stroke-width:0.1;"/>
                <!-- Polyline -->
                <path d="M2192.2452,4046.493 L1858.8532,4379.885 L1885.794,4406.8258" style="stroke:#000000;stroke-width:0.1;"/>
                <!-- Polyline -->
                <path d="M1849.8548,4442.7649 L2213.5552,4806.4653 L2617.6667,4402.3537 L2253.9664,4038.6534 Z" style="stroke:#000000;stroke-width:0.1;"/>
                <!-- Hatch -->
                <path d="M2253.9664,4038.6534 L2617.6667,4402.3537 L2562.6627,4457.3578 L2198.9623,4093.6574 ZM2198.9623,4093.6574 L2562.6627,4457.3578 L2213.5552,4806.4653 L1849.8548,4442.7649 Z" style="fill-rule:evenodd;"/>
                <!-- Hatch -->
                <path d="M2617.6667,4402.3537 A50.8,50.8 0 0 1 2609.827,4464.075 L2276.4351,4797.4669 L2249.4943,4770.5261 ZM2192.2453,4046.4929 A50.8,50.8 0 0 1 2253.9664,4038.6534 L1885.794,4406.8258 L1858.8532,4379.885 L2192.2453,4046.4929" style="fill-rule:evenodd;"/>
            </g>
            <!-- Block Reference: chair_04_top_cad-block.com / entities: 8 -->
            <g>
                <!-- Line -->
                <path d="M1173.4893,3881.9433 L1687.8393,3881.9433 " style="stroke:#000000;stroke-width:0.1;"/>
                <!-- Arc -->
                <path d="M1135.3893,3853.3427 A50.8,50.8 0 0,1 1173.4893,3804.1558" style="stroke:#000000;stroke-width:0.1;"/>
                <!-- Arc -->
                <path d="M1687.8393,3804.1558 A50.8,50.8 0 0,1 1725.9393,3853.3427" style="stroke:#000000;stroke-width:0.1;"/>
                <!-- Polyline -->
                <path d="M1725.9393,3853.3427 L1725.9393,4324.8302 L1687.8393,4324.8302" style="stroke:#000000;stroke-width:0.1;"/>
                <!-- Polyline -->
                <path d="M1135.3893,3853.3427 L1135.3893,4324.8302 L1173.4893,4324.8302" style="stroke:#000000;stroke-width:0.1;"/>
                <!-- Polyline -->
                <path d="M1173.4893,4375.6558 L1687.8393,4375.6558 L1687.8393,3804.1558 L1173.4893,3804.1558 Z" style="stroke:#000000;stroke-width:0.1;"/>
                <!-- Hatch -->
                <path d="M1173.4893,3804.1558 L1687.8393,3804.1558 L1687.8393,3881.9433 L1173.4893,3881.9433 ZM1173.4893,3881.9433 L1687.8393,3881.9433 L1687.8393,4375.6558 L1173.4893,4375.6558 Z" style="fill-rule:evenodd;"/>
                <!-- Hatch -->
                <path d="M1687.8393,3804.1558 A50.8,50.8 0 0 1 1725.9393,3853.3429 L1725.9393,4324.8302 L1687.8393,4324.8302 ZM1135.3893,3853.3426 A50.8,50.8 0 0 1 1173.4893,3804.1558 L1173.4893,4324.8302 L1135.3893,4324.8302 L1135.3893,3853.3426" style="fill-rule:evenodd;"/>
            </g>
            <!-- Block Reference: chair_04_top_cad-block.com / entities: 8 -->
            <g>
                <!-- Line -->
                <path d="M298.6658,4457.3578 L662.3662,4093.6574 " style="stroke:#000000;stroke-width:0.1;"/>
                <!-- Arc -->
                <path d="M251.5014,4464.0749 A50.8,50.8 0 0,1 243.6618,4402.3537" style="stroke:#000000;stroke-width:0.1;"/>
                <!-- Arc -->
                <path d="M607.3622,4038.6534 A50.8,50.8 0 0,1 669.0833,4046.493" style="stroke:#000000;stroke-width:0.1;"/>
                <!-- Polyline -->
                <path d="M669.0833,4046.493 L1002.4753,4379.885 L975.5345,4406.8258" style="stroke:#000000;stroke-width:0.1;"/>
                <!-- Polyline -->
                <path d="M251.5014,4464.0749 L584.8934,4797.4669 L611.8342,4770.5261" style="stroke:#000000;stroke-width:0.1;"/>
                <!-- Polyline -->
                <path d="M647.7733,4806.4653 L1011.4737,4442.7649 L607.3622,4038.6534 L243.6618,4402.3537 Z" style="stroke:#000000;stroke-width:0.1;"/>
                <!-- Hatch -->
                <path d="M243.6618,4402.3537 L607.3622,4038.6534 L662.3662,4093.6574 L298.6658,4457.3578 ZM298.6658,4457.3578 L662.3662,4093.6574 L1011.4737,4442.7649 L647.7733,4806.4653 Z" style="fill-rule:evenodd;"/>
                <!-- Hatch -->
                <path d="M607.3622,4038.6534 A50.8,50.8 0 0 1 669.0834,4046.4931 L1002.4753,4379.885 L975.5345,4406.8258 ZM251.5013,4464.0748 A50.8,50.8 0 0 1 243.6618,4402.3537 L611.8342,4770.5261 L584.8934,4797.4669 L251.5013,4464.0748" style="fill-rule:evenodd;"/>
            </g>
            <!-- Block Reference: Table round R750_top_cad-block.com / entities: 2 -->
            <g>
                <!-- Hatch -->
                <path d="M2180.6643,5225.6558 A750,750 0 0 1 680.6643,5225.6558 A750,750 0 0 1 2180.6643,5225.6558 Z" style="fill-rule:evenodd;"/>
                <!-- Circle -->
                <circle cx="1430.6642553636918" cy="5225.655848802118" r="750" style="stroke:#000000;stroke-width:0.1;"/>
            </g>
            <!-- Block Reference: chair_04_top_cad-block.com / entities: 8 -->
            <g>
                <!-- Line -->
                <path d="M3073.4893,81.9433 L3587.8393,81.9433 " style="stroke:#000000;stroke-width:0.1;"/>
                <!-- Arc -->
                <path d="M3035.3893,53.3427 A50.8,50.8 0 0,1 3073.4893,4.1558" style="stroke:#000000;stroke-width:0.1;"/>
                <!-- Arc -->
                <path d="M3587.8393,4.1558 A50.8,50.8 0 0,1 3625.9393,53.3427" style="stroke:#000000;stroke-width:0.1;"/>
                <!-- Polyline -->
                <path d="M3625.9393,53.3427 L3625.9393,524.8302 L3587.8393,524.8302" style="stroke:#000000;stroke-width:0.1;"/>
                <!-- Polyline -->
                <path d="M3035.3893,53.3427 L3035.3893,524.8302 L3073.4893,524.8302" style="stroke:#000000;stroke-width:0.1;"/>
                <!-- Polyline -->
                <path d="M3073.4893,575.6558 L3587.8393,575.6558 L3587.8393,4.1558 L3073.4893,4.1558 Z" style="stroke:#000000;stroke-width:0.1;"/>
                <!-- Hatch -->
                <path d="M3073.4893,4.1558 L3587.8393,4.1558 L3587.8393,81.9433 L3073.4893,81.9433 ZM3073.4893,81.9433 L3587.8393,81.9433 L3587.8393,575.6558 L3073.4893,575.6558 Z" style="fill-rule:evenodd;"/>
                <!-- Hatch -->
                <path d="M3587.8393,4.1558 A50.8,50.8 0 0 1 3625.9393,53.3429 L3625.9393,524.8302 L3587.8393,524.8302 ZM3035.3893,53.3426 A50.8,50.8 0 0 1 3073.4893,4.1558 L3073.4893,524.8302 L3035.3893,524.8302 L3035.3893,53.3426" style="fill-rule:evenodd;"/>
            </g>
            <!-- Block Reference: chair_04_top_cad-block.com / entities: 8 -->
            <g>
                <!-- Line -->
                <path d="M6873.4893,81.9433 L7387.8393,81.9433 " style="stroke:#000000;stroke-width:0.1;"/>
                <!-- Arc -->
                <path d="M6835.3893,53.3427 A50.8,50.8 0 0,1 6873.4893,4.1558" style="stroke:#000000;stroke-width:0.1;"/>
                <!-- Arc -->
                <path d="M7387.8393,4.1558 A50.8,50.8 0 0,1 7425.9393,53.3427" style="stroke:#000000;stroke-width:0.1;"/>
                <!-- Polyline -->
                <path d="M7425.9393,53.3427 L7425.9393,524.8302 L7387.8393,524.8302" style="stroke:#000000;stroke-width:0.1;"/>
                <!-- Polyline -->
                <path d="M6835.3893,53.3427 L6835.3893,524.8302 L6873.4893,524.8302" style="stroke:#000000;stroke-width:0.1;"/>
                <!-- Polyline -->
                <path d="M6873.4893,575.6558 L7387.8393,575.6558 L7387.8393,4.1558 L6873.4893,4.1558 Z" style="stroke:#000000;stroke-width:0.1;"/>
                <!-- Hatch -->
                <path d="M6873.4893,4.1558 L7387.8393,4.1558 L7387.8393,81.9433 L6873.4893,81.9433 ZM6873.4893,81.9433 L7387.8393,81.9433 L7387.8393,575.6558 L6873.4893,575.6558 Z" style="fill-rule:evenodd;"/>
                <!-- Hatch -->
                <path d="M7387.8393,4.1558 A50.8,50.8 0 0 1 7425.9393,53.3429 L7425.9393,524.8302 L7387.8393,524.8302 ZM6835.3893,53.3426 A50.8,50.8 0 0 1 6873.4893,4.1558 L6873.4893,524.8302 L6835.3893,524.8302 L6835.3893,53.3426" style="fill-rule:evenodd;"/>
            </g>
        </g>
    </g>
</svg>

