<?xml version="1.0" encoding="UTF-8"?>
<!-- 2026-03-10 13:34:56 Generated by QCAD 3.32.6 SVG Exporter -->
<svg  width="8452.5832mm" height="2852.5832mm" viewBox="23.573 -2871.0886 8452.5832 2852.5832" version="1.1" xmlns="http://www.w3.org/2000/svg" style="stroke-linecap:round;stroke-linejoin:round;">
    <g transform="scale(1,-1)">
            <!-- Auto-generated fillable area -->
            <!-- Block Reference: Oval Boardroom / entities: 28 -->
        <g>
            <!-- Block Reference: chair_04_top_cad-block.com / entities: 8 -->
            <g>
                <!-- Line -->
                <path d="M3642.6896,2788.5095 L4157.0396,2788.5095 " style="stroke:#000000;stroke-width:0.1;"/>
                <!-- Arc -->
                <path d="M3604.5896,2817.1101 A50.8,50.8 0 0,0 3642.6896,2866.297" style="stroke:#000000;stroke-width:0.1;"/>
                <!-- Arc -->
                <path d="M4157.0396,2866.297 A50.8,50.8 0 0,0 4195.1396,2817.1101" style="stroke:#000000;stroke-width:0.1;"/>
                <!-- Polyline -->
                <path d="M4195.1396,2817.1101 L4195.1396,2345.6226 L4157.0396,2345.6226" style="stroke:#000000;stroke-width:0.1;"/>
                <!-- Polyline -->
                <path d="M3604.5896,2817.1101 L3604.5896,2345.6226 L3642.6896,2345.6226" style="stroke:#000000;stroke-width:0.1;"/>
                <!-- Polyline -->
                <path d="M3642.6896,2294.797 L4157.0396,2294.797 L4157.0396,2866.297 L3642.6896,2866.297 Z" style="stroke:#000000;stroke-width:0.1;"/>
                <!-- Hatch -->
                <path d="M3642.6896,2866.297 L4157.0396,2866.297 L4157.0396,2788.5095 L3642.6896,2788.5095 ZM3642.6896,2788.5095 L4157.0396,2788.5095 L4157.0396,2294.797 L3642.6896,2294.797 Z" style="fill-rule:evenodd;"/>
                <!-- Hatch -->
                <path d="M4157.0396,2866.297 A50.8,50.8 0 0 0 4195.1396,2817.1099 L4195.1396,2345.6226 L4157.0396,2345.6226 ZM3604.5896,2817.1102 A50.8,50.8 0 0 0 3642.6896,2866.297 L3642.6896,2345.6226 L3604.5896,2345.6226 L3604.5896,2817.1102" style="fill-rule:evenodd;"/>
            </g>
            <!-- Block Reference: chair_04_top_cad-block.com / entities: 8 -->
            <g>
                <!-- Line -->
                <path d="M2942.6896,2788.5095 L3457.0396,2788.5095 " style="stroke:#000000;stroke-width:0.1;"/>
                <!-- Arc -->
                <path d="M2904.5896,2817.1101 A50.8,50.8 0 0,0 2942.6896,2866.297" style="stroke:#000000;stroke-width:0.1;"/>
                <!-- Arc -->
                <path d="M3457.0396,2866.297 A50.8,50.8 0 0,0 3495.1396,2817.1101" style="stroke:#000000;stroke-width:0.1;"/>
                <!-- Polyline -->
                <path d="M3495.1396,2817.1101 L3495.1396,2345.6226 L3457.0396,2345.6226" style="stroke:#000000;stroke-width:0.1;"/>
                <!-- Polyline -->
                <path d="M2904.5896,2817.1101 L2904.5896,2345.6226 L2942.6896,2345.6226" style="stroke:#000000;stroke-width:0.1;"/>
                <!-- Polyline -->
                <path d="M2942.6896,2294.797 L3457.0396,2294.797 L3457.0396,2866.297 L2942.6896,2866.297 Z" style="stroke:#000000;stroke-width:0.1;"/>
                <!-- Hatch -->
                <path d="M2942.6896,2866.297 L3457.0396,2866.297 L3457.0396,2788.5095 L2942.6896,2788.5095 ZM2942.6896,2788.5095 L3457.0396,2788.5095 L3457.0396,2294.797 L2942.6896,2294.797 Z" style="fill-rule:evenodd;"/>
                <!-- Hatch -->
                <path d="M3457.0396,2866.297 A50.8,50.8 0 0 0 3495.1396,2817.1099 L3495.1396,2345.6226 L3457.0396,2345.6226 ZM2904.5896,2817.1102 A50.8,50.8 0 0 0 2942.6896,2866.297 L2942.6896,2345.6226 L2904.5896,2345.6226 L2904.5896,2817.1102" style="fill-rule:evenodd;"/>
            </g>
            <!-- Block Reference: chair_04_top_cad-block.com / entities: 8 -->
            <g>
                <!-- Line -->
                <path d="M2057.0396,2788.5095 L1542.6896,2788.5095 " style="stroke:#000000;stroke-width:0.1;"/>
                <!-- Arc -->
                <path d="M2095.1396,2817.1101 A50.8,50.8 0 0,1 2057.0396,2866.297" style="stroke:#000000;stroke-width:0.1;"/>
                <!-- Arc -->
                <path d="M1542.6896,2866.297 A50.8,50.8 0 0,1 1504.5896,2817.1101" style="stroke:#000000;stroke-width:0.1;"/>
                <!-- Polyline -->
                <path d="M1504.5896,2817.1101 L1504.5896,2345.6226 L1542.6896,2345.6226" style="stroke:#000000;stroke-width:0.1;"/>
                <!-- Polyline -->
                <path d="M2095.1396,2817.1101 L2095.1396,2345.6226 L2057.0396,2345.6226" style="stroke:#000000;stroke-width:0.1;"/>
                <!-- Polyline -->
                <path d="M2057.0396,2294.797 L1542.6896,2294.797 L1542.6896,2866.297 L2057.0396,2866.297 Z" style="stroke:#000000;stroke-width:0.1;"/>
                <!-- Hatch -->
                <path d="M2057.0396,2866.297 L1542.6896,2866.297 L1542.6896,2788.5095 L2057.0396,2788.5095 ZM2057.0396,2788.5095 L1542.6896,2788.5095 L1542.6896,2294.797 L2057.0396,2294.797 Z" style="fill-rule:evenodd;"/>
                <!-- Hatch -->
                <path d="M1542.6896,2866.297 A50.8,50.8 0 0 1 1504.5896,2817.1099 L1504.5896,2345.6226 L1542.6896,2345.6226 ZM2095.1396,2817.1102 A50.8,50.8 0 0 1 2057.0396,2866.297 L2057.0396,2345.6226 L2095.1396,2345.6226 L2095.1396,2817.1102" style="fill-rule:evenodd;"/>
            </g>
            <!-- Block Reference: chair_04_top_cad-block.com / entities: 8 -->
            <g>
                <!-- Line -->
                <path d="M2757.0396,2788.5095 L2242.6896,2788.5095 " style="stroke:#000000;stroke-width:0.1;"/>
                <!-- Arc -->
                <path d="M2795.1396,2817.1101 A50.8,50.8 0 0,1 2757.0396,2866.297" style="stroke:#000000;stroke-width:0.1;"/>
                <!-- Arc -->
                <path d="M2242.6896,2866.297 A50.8,50.8 0 0,1 2204.5896,2817.1101" style="stroke:#000000;stroke-width:0.1;"/>
                <!-- Polyline -->
                <path d="M2204.5896,2817.1101 L2204.5896,2345.6226 L2242.6896,2345.6226" style="stroke:#000000;stroke-width:0.1;"/>
                <!-- Polyline -->
                <path d="M2795.1396,2817.1101 L2795.1396,2345.6226 L2757.0396,2345.6226" style="stroke:#000000;stroke-width:0.1;"/>
                <!-- Polyline -->
                <path d="M2757.0396,2294.797 L2242.6896,2294.797 L2242.6896,2866.297 L2757.0396,2866.297 Z" style="stroke:#000000;stroke-width:0.1;"/>
                <!-- Hatch -->
                <path d="M2757.0396,2866.297 L2242.6896,2866.297 L2242.6896,2788.5095 L2757.0396,2788.5095 ZM2757.0396,2788.5095 L2242.6896,2788.5095 L2242.6896,2294.797 L2757.0396,2294.797 Z" style="fill-rule:evenodd;"/>
                <!-- Hatch -->
                <path d="M2242.6896,2866.297 A50.8,50.8 0 0 1 2204.5896,2817.1099 L2204.5896,2345.6226 L2242.6896,2345.6226 ZM2795.1396,2817.1102 A50.8,50.8 0 0 1 2757.0396,2866.297 L2757.0396,2345.6226 L2795.1396,2345.6226 L2795.1396,2817.1102" style="fill-rule:evenodd;"/>
            </g>
            <!-- Block Reference: chair_04_top_cad-block.com / entities: 8 -->
            <g>
                <!-- Line -->
                <path d="M3642.6896,101.0845 L4157.0396,101.0845 " style="stroke:#000000;stroke-width:0.1;"/>
                <!-- Arc -->
                <path d="M3604.5896,72.4838 A50.8,50.8 0 0,1 3642.6896,23.297" style="stroke:#000000;stroke-width:0.1;"/>
                <!-- Arc -->
                <path d="M4157.0396,23.297 A50.8,50.8 0 0,1 4195.1396,72.4838" style="stroke:#000000;stroke-width:0.1;"/>
                <!-- Polyline -->
                <path d="M4195.1396,72.4838 L4195.1396,543.9713 L4157.0396,543.9713" style="stroke:#000000;stroke-width:0.1;"/>
                <!-- Polyline -->
                <path d="M3604.5896,72.4838 L3604.5896,543.9713 L3642.6896,543.9713" style="stroke:#000000;stroke-width:0.1;"/>
                <!-- Polyline -->
                <path d="M3642.6896,594.797 L4157.0396,594.797 L4157.0396,23.297 L3642.6896,23.297 Z" style="stroke:#000000;stroke-width:0.1;"/>
                <!-- Hatch -->
                <path d="M3642.6896,23.297 L4157.0396,23.297 L4157.0396,101.0845 L3642.6896,101.0845 ZM3642.6896,101.0845 L4157.0396,101.0845 L4157.0396,594.797 L3642.6896,594.797 Z" style="fill-rule:evenodd;"/>
                <!-- Hatch -->
                <path d="M4157.0396,23.297 A50.8,50.8 0 0 1 4195.1396,72.484 L4195.1396,543.9713 L4157.0396,543.9713 ZM3604.5896,72.4837 A50.8,50.8 0 0 1 3642.6896,23.297 L3642.6896,543.9713 L3604.5896,543.9713 L3604.5896,72.4837" style="fill-rule:evenodd;"/>
            </g>
            <!-- Block Reference: chair_04_top_cad-block.com / entities: 8 -->
            <g>
                <!-- Line -->
                <path d="M2942.6896,101.0845 L3457.0396,101.0845 " style="stroke:#000000;stroke-width:0.1;"/>
                <!-- Arc -->
                <path d="M2904.5896,72.4838 A50.8,50.8 0 0,1 2942.6896,23.297" style="stroke:#000000;stroke-width:0.1;"/>
                <!-- Arc -->
                <path d="M3457.0396,23.297 A50.8,50.8 0 0,1 3495.1396,72.4838" style="stroke:#000000;stroke-width:0.1;"/>
                <!-- Polyline -->
                <path d="M3495.1396,72.4838 L3495.1396,543.9713 L3457.0396,543.9713" style="stroke:#000000;stroke-width:0.1;"/>
                <!-- Polyline -->
                <path d="M2904.5896,72.4838 L2904.5896,543.9713 L2942.6896,543.9713" style="stroke:#000000;stroke-width:0.1;"/>
                <!-- Polyline -->
                <path d="M2942.6896,594.797 L3457.0396,594.797 L3457.0396,23.297 L2942.6896,23.297 Z" style="stroke:#000000;stroke-width:0.1;"/>
                <!-- Hatch -->
                <path d="M2942.6896,23.297 L3457.0396,23.297 L3457.0396,101.0845 L2942.6896,101.0845 ZM2942.6896,101.0845 L3457.0396,101.0845 L3457.0396,594.797 L2942.6896,594.797 Z" style="fill-rule:evenodd;"/>
                <!-- Hatch -->
                <path d="M3457.0396,23.297 A50.8,50.8 0 0 1 3495.1396,72.484 L3495.1396,543.9713 L3457.0396,543.9713 ZM2904.5896,72.4837 A50.8,50.8 0 0 1 2942.6896,23.297 L2942.6896,543.9713 L2904.5896,543.9713 L2904.5896,72.4837" style="fill-rule:evenodd;"/>
            </g>
            <!-- Block Reference: chair_04_top_cad-block.com / entities: 8 -->
            <g>
                <!-- Line -->
                <path d="M2057.0396,101.0845 L1542.6896,101.0845 " style="stroke:#000000;stroke-width:0.1;"/>
                <!-- Arc -->
                <path d="M2095.1396,72.4838 A50.8,50.8 0 0,0 2057.0396,23.297" style="stroke:#000000;stroke-width:0.1;"/>
                <!-- Arc -->
                <path d="M1542.6896,23.297 A50.8,50.8 0 0,0 1504.5896,72.4838" style="stroke:#000000;stroke-width:0.1;"/>
                <!-- Polyline -->
                <path d="M1504.5896,72.4838 L1504.5896,543.9713 L1542.6896,543.9713" style="stroke:#000000;stroke-width:0.1;"/>
                <!-- Polyline -->
                <path d="M2095.1396,72.4838 L2095.1396,543.9713 L2057.0396,543.9713" style="stroke:#000000;stroke-width:0.1;"/>
                <!-- Polyline -->
                <path d="M2057.0396,594.797 L1542.6896,594.797 L1542.6896,23.297 L2057.0396,23.297 Z" style="stroke:#000000;stroke-width:0.1;"/>
                <!-- Hatch -->
                <path d="M2057.0396,23.297 L1542.6896,23.297 L1542.6896,101.0845 L2057.0396,101.0845 ZM2057.0396,101.0845 L1542.6896,101.0845 L1542.6896,594.797 L2057.0396,594.797 Z" style="fill-rule:evenodd;"/>
                <!-- Hatch -->
                <path d="M1542.6896,23.297 A50.8,50.8 0 0 0 1504.5896,72.484 L1504.5896,543.9713 L1542.6896,543.9713 ZM2095.1396,72.4837 A50.8,50.8 0 0 0 2057.0396,23.297 L2057.0396,543.9713 L2095.1396,543.9713 L2095.1396,72.4837" style="fill-rule:evenodd;"/>
            </g>
            <!-- Block Reference: chair_04_top_cad-block.com / entities: 8 -->
            <g>
                <!-- Line -->
                <path d="M2757.0396,101.0845 L2242.6896,101.0845 " style="stroke:#000000;stroke-width:0.1;"/>
                <!-- Arc -->
                <path d="M2795.1396,72.4838 A50.8,50.8 0 0,0 2757.0396,23.297" style="stroke:#000000;stroke-width:0.1;"/>
                <!-- Arc -->
                <path d="M2242.6896,23.297 A50.8,50.8 0 0,0 2204.5896,72.4838" style="stroke:#000000;stroke-width:0.1;"/>
                <!-- Polyline -->
                <path d="M2204.5896,72.4838 L2204.5896,543.9713 L2242.6896,543.9713" style="stroke:#000000;stroke-width:0.1;"/>
                <!-- Polyline -->
                <path d="M2795.1396,72.4838 L2795.1396,543.9713 L2757.0396,543.9713" style="stroke:#000000;stroke-width:0.1;"/>
                <!-- Polyline -->
                <path d="M2757.0396,594.797 L2242.6896,594.797 L2242.6896,23.297 L2757.0396,23.297 Z" style="stroke:#000000;stroke-width:0.1;"/>
                <!-- Hatch -->
                <path d="M2757.0396,23.297 L2242.6896,23.297 L2242.6896,101.0845 L2757.0396,101.0845 ZM2757.0396,101.0845 L2242.6896,101.0845 L2242.6896,594.797 L2757.0396,594.797 Z" style="fill-rule:evenodd;"/>
                <!-- Hatch -->
                <path d="M2242.6896,23.297 A50.8,50.8 0 0 0 2204.5896,72.484 L2204.5896,543.9713 L2242.6896,543.9713 ZM2795.1396,72.4837 A50.8,50.8 0 0 0 2757.0396,23.297 L2757.0396,543.9713 L2795.1396,543.9713 L2795.1396,72.4837" style="fill-rule:evenodd;"/>
            </g>
            <!-- Block Reference: table x1 / entities: 15 -->
            <g>
                <!-- Hatch -->
                <path d="M4249.8646,2194.797 L2849.8646,2194.797 L2849.8646,694.797 L4249.8646,694.797 ZM2849.8646,2194.797 L1449.8646,2194.797 L1449.8646,694.797 L2849.8646,694.797 Z" style="fill-rule:evenodd;"/>
                <!-- Line -->
                <path d="M3739.8646,1477.297 L3603.9271,1477.297 M3524.5521,1477.297 L3365.8021,1477.297 M3286.4271,1477.297 L3127.6771,1477.297 M3048.3021,1477.297 L2889.5521,1477.297 M2810.1771,1477.297 L2651.4271,1477.297 M2572.0521,1477.297 L2413.3021,1477.297 M2333.9271,1477.297 L2175.1771,1477.297 M2095.8021,1477.297 L1959.8646,1477.297 " style="stroke:#000000;stroke-width:0.1;"/>
                <!-- Line -->
                <path d="M3739.8646,1412.297 L3603.9271,1412.297 M3524.5521,1412.297 L3365.8021,1412.297 M3286.4271,1412.297 L3127.6771,1412.297 M3048.3021,1412.297 L2889.5521,1412.297 M2810.1771,1412.297 L2651.4271,1412.297 M2572.0521,1412.297 L2413.3021,1412.297 M2333.9271,1412.297 L2175.1771,1412.297 M2095.8021,1412.297 L1959.8646,1412.297 " style="stroke:#000000;stroke-width:0.1;"/>
                <!-- Polyline -->
                <path d="M1949.8646,1477.297 L2095.8021,1477.297 M2175.1771,1477.297 L2333.9271,1477.297 M2413.3021,1477.297 L2572.0521,1477.297 M2651.4271,1477.297 L2810.1771,1477.297 M2889.5521,1477.297 L3048.3021,1477.297 M3127.6771,1477.297 L3286.4271,1477.297 M3365.8021,1477.297 L3524.5521,1477.297 M3603.9271,1477.297 L3749.8646,1477.297 L3749.8646,1412.297 L3603.9271,1412.297 M3524.5521,1412.297 L3365.8021,1412.297 M3286.4271,1412.297 L3127.6771,1412.297 M3048.3021,1412.297 L2889.5521,1412.297 M2810.1771,1412.297 L2651.4271,1412.297 M2572.0521,1412.297 L2413.3021,1412.297 M2333.9271,1412.297 L2175.1771,1412.297 M2095.8021,1412.297 L1949.8646,1412.297 L1949.8646,1477.297 Z" style="stroke:#000000;stroke-width:0.1;"/>
                <!-- Polyline -->
                <path d="M1849.8646,1863.297 L1849.8646,1722.6095 M1849.8646,1643.2345 L1849.8646,1484.4845 M1849.8646,1405.1095 L1849.8646,1246.3595 M1849.8646,1166.9845 L1849.8646,1026.297 L1949.8646,1026.297 L1949.8646,1166.9845 M1949.8646,1246.3595 L1949.8646,1405.1095 M1949.8646,1484.4845 L1949.8646,1643.2345 M1949.8646,1722.6095 L1949.8646,1863.297 L1849.8646,1863.297 Z" style="stroke:#000000;stroke-width:0.1;"/>
                <!-- Line -->
                <path d="M1849.8646,1494.797 L1849.8646,1394.797 " style="stroke:#000000;stroke-width:0.1;"/>
                <!-- Polyline -->
                <path d="M3849.8646,1863.297 L3849.8646,1722.6095 M3849.8646,1643.2345 L3849.8646,1484.4845 M3849.8646,1405.1095 L3849.8646,1246.3595 M3849.8646,1166.9845 L3849.8646,1026.297 L3749.8646,1026.297 L3749.8646,1166.9845 M3749.8646,1246.3595 L3749.8646,1405.1095 M3749.8646,1484.4845 L3749.8646,1643.2345 M3749.8646,1722.6095 L3749.8646,1863.297 L3849.8646,1863.297 Z" style="stroke:#000000;stroke-width:0.1;"/>
                <!-- Polyline -->
                <path d="M3726.3646,1958.297 L3656.3646,1958.297 L3656.3646,1876.547 M3656.3646,1797.172 L3656.3646,1638.422 M3656.3646,1559.047 L3656.3646,1477.297 L3726.3646,1477.297 L3726.3646,1559.047 M3726.3646,1638.422 L3726.3646,1797.172 M3726.3646,1876.547 L3726.3646,1958.297 Z" style="stroke:#000000;stroke-width:0.1;"/>
                <!-- Polyline -->
                <path d="M3726.3646,931.297 L3656.3646,931.297 L3656.3646,1013.047 M3656.3646,1092.422 L3656.3646,1251.172 M3656.3646,1330.547 L3656.3646,1412.297 L3726.3646,1412.297 L3726.3646,1330.547 M3726.3646,1251.172 L3726.3646,1092.422 M3726.3646,1013.047 L3726.3646,931.297 Z" style="stroke:#000000;stroke-width:0.1;"/>
                <!-- Polyline -->
                <path d="M1973.3646,1958.297 L2043.3646,1958.297 L2043.3646,1876.547 M2043.3646,1797.172 L2043.3646,1638.422 M2043.3646,1559.047 L2043.3646,1477.297 L1973.3646,1477.297 L1973.3646,1559.047 M1973.3646,1638.422 L1973.3646,1797.172 M1973.3646,1876.547 L1973.3646,1958.297 Z" style="stroke:#000000;stroke-width:0.1;"/>
                <!-- Polyline -->
                <path d="M1973.3646,931.297 L2043.3646,931.297 L2043.3646,1013.047 M2043.3646,1092.422 L2043.3646,1251.172 M2043.3646,1330.547 L2043.3646,1412.297 L1973.3646,1412.297 L1973.3646,1330.547 M1973.3646,1251.172 L1973.3646,1092.422 M1973.3646,1013.047 L1973.3646,931.297 Z" style="stroke:#000000;stroke-width:0.1;"/>
                <!-- Polyline -->
                <path d="M2814.8646,1958.297 L2884.8646,1958.297 L2884.8646,1876.547 M2884.8646,1797.172 L2884.8646,1638.422 M2884.8646,1559.047 L2884.8646,1477.297 L2814.8646,1477.297 L2814.8646,1559.047 M2814.8646,1638.422 L2814.8646,1797.172 M2814.8646,1876.547 L2814.8646,1958.297 Z" style="stroke:#000000;stroke-width:0.1;"/>
                <!-- Polyline -->
                <path d="M2814.8646,931.297 L2884.8646,931.297 L2884.8646,1013.047 M2884.8646,1092.422 L2884.8646,1251.172 M2884.8646,1330.547 L2884.8646,1412.297 L2814.8646,1412.297 L2814.8646,1330.547 M2814.8646,1251.172 L2814.8646,1092.422 M2814.8646,1013.047 L2814.8646,931.297 Z" style="stroke:#000000;stroke-width:0.1;"/>
                <!-- Polyline -->
                <path d="M1449.8646,694.797 L4249.8646,694.797 L4249.8646,2194.797 L1449.8646,2194.797 Z" style="stroke:#000000;stroke-width:0.1;"/>
                <!-- Line -->
                <path d="M2849.8646,2194.797 L2849.8646,694.797 " style="stroke:#000000;stroke-width:0.1;"/>
            </g>
            <!-- Block Reference: chair_04_top_cad-block.com / entities: 8 -->
            <g>
                <!-- Line -->
                <path d="M4857.0396,2788.5095 L4342.6896,2788.5095 " style="stroke:#000000;stroke-width:0.1;"/>
                <!-- Arc -->
                <path d="M4895.1396,2817.1101 A50.8,50.8 0 0,1 4857.0396,2866.297" style="stroke:#000000;stroke-width:0.1;"/>
                <!-- Arc -->
                <path d="M4342.6896,2866.297 A50.8,50.8 0 0,1 4304.5896,2817.1101" style="stroke:#000000;stroke-width:0.1;"/>
                <!-- Polyline -->
                <path d="M4304.5896,2817.1101 L4304.5896,2345.6226 L4342.6896,2345.6226" style="stroke:#000000;stroke-width:0.1;"/>
                <!-- Polyline -->
                <path d="M4895.1396,2817.1101 L4895.1396,2345.6226 L4857.0396,2345.6226" style="stroke:#000000;stroke-width:0.1;"/>
                <!-- Polyline -->
                <path d="M4857.0396,2294.797 L4342.6896,2294.797 L4342.6896,2866.297 L4857.0396,2866.297 Z" style="stroke:#000000;stroke-width:0.1;"/>
                <!-- Hatch -->
                <path d="M4857.0396,2866.297 L4342.6896,2866.297 L4342.6896,2788.5095 L4857.0396,2788.5095 ZM4857.0396,2788.5095 L4342.6896,2788.5095 L4342.6896,2294.797 L4857.0396,2294.797 Z" style="fill-rule:evenodd;"/>
                <!-- Hatch -->
                <path d="M4342.6896,2866.297 A50.8,50.8 0 0 1 4304.5896,2817.1099 L4304.5896,2345.6226 L4342.6896,2345.6226 ZM4895.1396,2817.1102 A50.8,50.8 0 0 1 4857.0396,2866.297 L4857.0396,2345.6226 L4895.1396,2345.6226 L4895.1396,2817.1102" style="fill-rule:evenodd;"/>
            </g>
            <!-- Block Reference: chair_04_top_cad-block.com / entities: 8 -->
            <g>
                <!-- Line -->
                <path d="M5557.0396,2788.5095 L5042.6896,2788.5095 " style="stroke:#000000;stroke-width:0.1;"/>
                <!-- Arc -->
                <path d="M5595.1396,2817.1101 A50.8,50.8 0 0,1 5557.0396,2866.297" style="stroke:#000000;stroke-width:0.1;"/>
                <!-- Arc -->
                <path d="M5042.6896,2866.297 A50.8,50.8 0 0,1 5004.5896,2817.1101" style="stroke:#000000;stroke-width:0.1;"/>
                <!-- Polyline -->
                <path d="M5004.5896,2817.1101 L5004.5896,2345.6226 L5042.6896,2345.6226" style="stroke:#000000;stroke-width:0.1;"/>
                <!-- Polyline -->
                <path d="M5595.1396,2817.1101 L5595.1396,2345.6226 L5557.0396,2345.6226" style="stroke:#000000;stroke-width:0.1;"/>
                <!-- Polyline -->
                <path d="M5557.0396,2294.797 L5042.6896,2294.797 L5042.6896,2866.297 L5557.0396,2866.297 Z" style="stroke:#000000;stroke-width:0.1;"/>
                <!-- Hatch -->
                <path d="M5557.0396,2866.297 L5042.6896,2866.297 L5042.6896,2788.5095 L5557.0396,2788.5095 ZM5557.0396,2788.5095 L5042.6896,2788.5095 L5042.6896,2294.797 L5557.0396,2294.797 Z" style="fill-rule:evenodd;"/>
                <!-- Hatch -->
                <path d="M5042.6896,2866.297 A50.8,50.8 0 0 1 5004.5896,2817.1099 L5004.5896,2345.6226 L5042.6896,2345.6226 ZM5595.1396,2817.1102 A50.8,50.8 0 0 1 5557.0396,2866.297 L5557.0396,2345.6226 L5595.1396,2345.6226 L5595.1396,2817.1102" style="fill-rule:evenodd;"/>
            </g>
            <!-- Block Reference: chair_04_top_cad-block.com / entities: 8 -->
            <g>
                <!-- Line -->
                <path d="M6442.6896,2788.5095 L6957.0396,2788.5095 " style="stroke:#000000;stroke-width:0.1;"/>
                <!-- Arc -->
                <path d="M6404.5896,2817.1101 A50.8,50.8 0 0,0 6442.6896,2866.297" style="stroke:#000000;stroke-width:0.1;"/>
                <!-- Arc -->
                <path d="M6957.0396,2866.297 A50.8,50.8 0 0,0 6995.1396,2817.1101" style="stroke:#000000;stroke-width:0.1;"/>
                <!-- Polyline -->
                <path d="M6995.1396,2817.1101 L6995.1396,2345.6226 L6957.0396,2345.6226" style="stroke:#000000;stroke-width:0.1;"/>
                <!-- Polyline -->
                <path d="M6404.5896,2817.1101 L6404.5896,2345.6226 L6442.6896,2345.6226" style="stroke:#000000;stroke-width:0.1;"/>
                <!-- Polyline -->
                <path d="M6442.6896,2294.797 L6957.0396,2294.797 L6957.0396,2866.297 L6442.6896,2866.297 Z" style="stroke:#000000;stroke-width:0.1;"/>
                <!-- Hatch -->
                <path d="M6442.6896,2866.297 L6957.0396,2866.297 L6957.0396,2788.5095 L6442.6896,2788.5095 ZM6442.6896,2788.5095 L6957.0396,2788.5095 L6957.0396,2294.797 L6442.6896,2294.797 Z" style="fill-rule:evenodd;"/>
                <!-- Hatch -->
                <path d="M6957.0396,2866.297 A50.8,50.8 0 0 0 6995.1396,2817.1099 L6995.1396,2345.6226 L6957.0396,2345.6226 ZM6404.5896,2817.1102 A50.8,50.8 0 0 0 6442.6896,2866.297 L6442.6896,2345.6226 L6404.5896,2345.6226 L6404.5896,2817.1102" style="fill-rule:evenodd;"/>
            </g>
            <!-- Block Reference: chair_04_top_cad-block.com / entities: 8 -->
            <g>
                <!-- Line -->
                <path d="M5742.6896,2788.5095 L6257.0396,2788.5095 " style="stroke:#000000;stroke-width:0.1;"/>
                <!-- Arc -->
                <path d="M5704.5896,2817.1101 A50.8,50.8 0 0,0 5742.6896,2866.297" style="stroke:#000000;stroke-width:0.1;"/>
                <!-- Arc -->
                <path d="M6257.0396,2866.297 A50.8,50.8 0 0,0 6295.1396,2817.1101" style="stroke:#000000;stroke-width:0.1;"/>
                <!-- Polyline -->
                <path d="M6295.1396,2817.1101 L6295.1396,2345.6226 L6257.0396,2345.6226" style="stroke:#000000;stroke-width:0.1;"/>
                <!-- Polyline -->
                <path d="M5704.5896,2817.1101 L5704.5896,2345.6226 L5742.6896,2345.6226" style="stroke:#000000;stroke-width:0.1;"/>
                <!-- Polyline -->
                <path d="M5742.6896,2294.797 L6257.0396,2294.797 L6257.0396,2866.297 L5742.6896,2866.297 Z" style="stroke:#000000;stroke-width:0.1;"/>
                <!-- Hatch -->
                <path d="M5742.6896,2866.297 L6257.0396,2866.297 L6257.0396,2788.5095 L5742.6896,2788.5095 ZM5742.6896,2788.5095 L6257.0396,2788.5095 L6257.0396,2294.797 L5742.6896,2294.797 Z" style="fill-rule:evenodd;"/>
                <!-- Hatch -->
                <path d="M6257.0396,2866.297 A50.8,50.8 0 0 0 6295.1396,2817.1099 L6295.1396,2345.6226 L6257.0396,2345.6226 ZM5704.5896,2817.1102 A50.8,50.8 0 0 0 5742.6896,2866.297 L5742.6896,2345.6226 L5704.5896,2345.6226 L5704.5896,2817.1102" style="fill-rule:evenodd;"/>
            </g>
            <!-- Block Reference: chair_04_top_cad-block.com / entities: 8 -->
            <g>
                <!-- Line -->
                <path d="M4857.0396,101.0845 L4342.6896,101.0845 " style="stroke:#000000;stroke-width:0.1;"/>
                <!-- Arc -->
                <path d="M4895.1396,72.4838 A50.8,50.8 0 0,0 4857.0396,23.297" style="stroke:#000000;stroke-width:0.1;"/>
                <!-- Arc -->
                <path d="M4342.6896,23.297 A50.8,50.8 0 0,0 4304.5896,72.4838" style="stroke:#000000;stroke-width:0.1;"/>
                <!-- Polyline -->
                <path d="M4304.5896,72.4838 L4304.5896,543.9713 L4342.6896,543.9713" style="stroke:#000000;stroke-width:0.1;"/>
                <!-- Polyline -->
                <path d="M4895.1396,72.4838 L4895.1396,543.9713 L4857.0396,543.9713" style="stroke:#000000;stroke-width:0.1;"/>
                <!-- Polyline -->
                <path d="M4857.0396,594.797 L4342.6896,594.797 L4342.6896,23.297 L4857.0396,23.297 Z" style="stroke:#000000;stroke-width:0.1;"/>
                <!-- Hatch -->
                <path d="M4857.0396,23.297 L4342.6896,23.297 L4342.6896,101.0845 L4857.0396,101.0845 ZM4857.0396,101.0845 L4342.6896,101.0845 L4342.6896,594.797 L4857.0396,594.797 Z" style="fill-rule:evenodd;"/>
                <!-- Hatch -->
                <path d="M4342.6896,23.297 A50.8,50.8 0 0 0 4304.5896,72.484 L4304.5896,543.9713 L4342.6896,543.9713 ZM4895.1396,72.4837 A50.8,50.8 0 0 0 4857.0396,23.297 L4857.0396,543.9713 L4895.1396,543.9713 L4895.1396,72.4837" style="fill-rule:evenodd;"/>
            </g>
            <!-- Block Reference: chair_04_top_cad-block.com / entities: 8 -->
            <g>
                <!-- Line -->
                <path d="M5557.0396,101.0845 L5042.6896,101.0845 " style="stroke:#000000;stroke-width:0.1;"/>
                <!-- Arc -->
                <path d="M5595.1396,72.4838 A50.8,50.8 0 0,0 5557.0396,23.297" style="stroke:#000000;stroke-width:0.1;"/>
                <!-- Arc -->
                <path d="M5042.6896,23.297 A50.8,50.8 0 0,0 5004.5896,72.4838" style="stroke:#000000;stroke-width:0.1;"/>
                <!-- Polyline -->
                <path d="M5004.5896,72.4838 L5004.5896,543.9713 L5042.6896,543.9713" style="stroke:#000000;stroke-width:0.1;"/>
                <!-- Polyline -->
                <path d="M5595.1396,72.4838 L5595.1396,543.9713 L5557.0396,543.9713" style="stroke:#000000;stroke-width:0.1;"/>
                <!-- Polyline -->
                <path d="M5557.0396,594.797 L5042.6896,594.797 L5042.6896,23.297 L5557.0396,23.297 Z" style="stroke:#000000;stroke-width:0.1;"/>
                <!-- Hatch -->
                <path d="M5557.0396,23.297 L5042.6896,23.297 L5042.6896,101.0845 L5557.0396,101.0845 ZM5557.0396,101.0845 L5042.6896,101.0845 L5042.6896,594.797 L5557.0396,594.797 Z" style="fill-rule:evenodd;"/>
                <!-- Hatch -->
                <path d="M5042.6896,23.297 A50.8,50.8 0 0 0 5004.5896,72.484 L5004.5896,543.9713 L5042.6896,543.9713 ZM5595.1396,72.4837 A50.8,50.8 0 0 0 5557.0396,23.297 L5557.0396,543.9713 L5595.1396,543.9713 L5595.1396,72.4837" style="fill-rule:evenodd;"/>
            </g>
            <!-- Block Reference: chair_04_top_cad-block.com / entities: 8 -->
            <g>
                <!-- Line -->
                <path d="M6442.6896,101.0845 L6957.0396,101.0845 " style="stroke:#000000;stroke-width:0.1;"/>
                <!-- Arc -->
                <path d="M6404.5896,72.4838 A50.8,50.8 0 0,1 6442.6896,23.297" style="stroke:#000000;stroke-width:0.1;"/>
                <!-- Arc -->
                <path d="M6957.0396,23.297 A50.8,50.8 0 0,1 6995.1396,72.4838" style="stroke:#000000;stroke-width:0.1;"/>
                <!-- Polyline -->
                <path d="M6995.1396,72.4838 L6995.1396,543.9713 L6957.0396,543.9713" style="stroke:#000000;stroke-width:0.1;"/>
                <!-- Polyline -->
                <path d="M6404.5896,72.4838 L6404.5896,543.9713 L6442.6896,543.9713" style="stroke:#000000;stroke-width:0.1;"/>
                <!-- Polyline -->
                <path d="M6442.6896,594.797 L6957.0396,594.797 L6957.0396,23.297 L6442.6896,23.297 Z" style="stroke:#000000;stroke-width:0.1;"/>
                <!-- Hatch -->
                <path d="M6442.6896,23.297 L6957.0396,23.297 L6957.0396,101.0845 L6442.6896,101.0845 ZM6442.6896,101.0845 L6957.0396,101.0845 L6957.0396,594.797 L6442.6896,594.797 Z" style="fill-rule:evenodd;"/>
                <!-- Hatch -->
                <path d="M6957.0396,23.297 A50.8,50.8 0 0 1 6995.1396,72.484 L6995.1396,543.9713 L6957.0396,543.9713 ZM6404.5896,72.4837 A50.8,50.8 0 0 1 6442.6896,23.297 L6442.6896,543.9713 L6404.5896,543.9713 L6404.5896,72.4837" style="fill-rule:evenodd;"/>
            </g>
            <!-- Block Reference: chair_04_top_cad-block.com / entities: 8 -->
            <g>
                <!-- Line -->
                <path d="M5742.6896,101.0845 L6257.0396,101.0845 " style="stroke:#000000;stroke-width:0.1;"/>
                <!-- Arc -->
                <path d="M5704.5896,72.4838 A50.8,50.8 0 0,1 5742.6896,23.297" style="stroke:#000000;stroke-width:0.1;"/>
                <!-- Arc -->
                <path d="M6257.0396,23.297 A50.8,50.8 0 0,1 6295.1396,72.4838" style="stroke:#000000;stroke-width:0.1;"/>
                <!-- Polyline -->
                <path d="M6295.1396,72.4838 L6295.1396,543.9713 L6257.0396,543.9713" style="stroke:#000000;stroke-width:0.1;"/>
                <!-- Polyline -->
                <path d="M5704.5896,72.4838 L5704.5896,543.9713 L5742.6896,543.9713" style="stroke:#000000;stroke-width:0.1;"/>
                <!-- Polyline -->
                <path d="M5742.6896,594.797 L6257.0396,594.797 L6257.0396,23.297 L5742.6896,23.297 Z" style="stroke:#000000;stroke-width:0.1;"/>
                <!-- Hatch -->
                <path d="M5742.6896,23.297 L6257.0396,23.297 L6257.0396,101.0845 L5742.6896,101.0845 ZM5742.6896,101.0845 L6257.0396,101.0845 L6257.0396,594.797 L5742.6896,594.797 Z" style="fill-rule:evenodd;"/>
                <!-- Hatch -->
                <path d="M6257.0396,23.297 A50.8,50.8 0 0 1 6295.1396,72.484 L6295.1396,543.9713 L6257.0396,543.9713 ZM5704.5896,72.4837 A50.8,50.8 0 0 1 5742.6896,23.297 L5742.6896,543.9713 L5704.5896,543.9713 L5704.5896,72.4837" style="fill-rule:evenodd;"/>
            </g>
            <!-- Block Reference: table x1 / entities: 15 -->
            <g>
                <!-- Hatch -->
                <path d="M4249.8646,2194.797 L5649.8646,2194.797 L5649.8646,694.797 L4249.8646,694.797 ZM5649.8646,2194.797 L7049.8646,2194.797 L7049.8646,694.797 L5649.8646,694.797 Z" style="fill-rule:evenodd;"/>
                <!-- Line -->
                <path d="M4759.8646,1477.297 L4895.8021,1477.297 M4975.1771,1477.297 L5133.9271,1477.297 M5213.3021,1477.297 L5372.0521,1477.297 M5451.4271,1477.297 L5610.1771,1477.297 M5689.5521,1477.297 L5848.3021,1477.297 M5927.6771,1477.297 L6086.4271,1477.297 M6165.8021,1477.297 L6324.5521,1477.297 M6403.9271,1477.297 L6539.8646,1477.297 " style="stroke:#000000;stroke-width:0.1;"/>
                <!-- Line -->
                <path d="M4759.8646,1412.297 L4895.8021,1412.297 M4975.1771,1412.297 L5133.9271,1412.297 M5213.3021,1412.297 L5372.0521,1412.297 M5451.4271,1412.297 L5610.1771,1412.297 M5689.5521,1412.297 L5848.3021,1412.297 M5927.6771,1412.297 L6086.4271,1412.297 M6165.8021,1412.297 L6324.5521,1412.297 M6403.9271,1412.297 L6539.8646,1412.297 " style="stroke:#000000;stroke-width:0.1;"/>
                <!-- Polyline -->
                <path d="M6549.8646,1477.297 L6403.9271,1477.297 M6324.5521,1477.297 L6165.8021,1477.297 M6086.4271,1477.297 L5927.6771,1477.297 M5848.3021,1477.297 L5689.5521,1477.297 M5610.1771,1477.297 L5451.4271,1477.297 M5372.0521,1477.297 L5213.3021,1477.297 M5133.9271,1477.297 L4975.1771,1477.297 M4895.8021,1477.297 L4749.8646,1477.297 L4749.8646,1412.297 L4895.8021,1412.297 M4975.1771,1412.297 L5133.9271,1412.297 M5213.3021,1412.297 L5372.0521,1412.297 M5451.4271,1412.297 L5610.1771,1412.297 M5689.5521,1412.297 L5848.3021,1412.297 M5927.6771,1412.297 L6086.4271,1412.297 M6165.8021,1412.297 L6324.5521,1412.297 M6403.9271,1412.297 L6549.8646,1412.297 L6549.8646,1477.297 Z" style="stroke:#000000;stroke-width:0.1;"/>
                <!-- Polyline -->
                <path d="M6649.8646,1863.297 L6649.8646,1722.6095 M6649.8646,1643.2345 L6649.8646,1484.4845 M6649.8646,1405.1095 L6649.8646,1246.3595 M6649.8646,1166.9845 L6649.8646,1026.297 L6549.8646,1026.297 L6549.8646,1166.9845 M6549.8646,1246.3595 L6549.8646,1405.1095 M6549.8646,1484.4845 L6549.8646,1643.2345 M6549.8646,1722.6095 L6549.8646,1863.297 L6649.8646,1863.297 Z" style="stroke:#000000;stroke-width:0.1;"/>
                <!-- Line -->
                <path d="M6649.8646,1494.797 L6649.8646,1394.797 " style="stroke:#000000;stroke-width:0.1;"/>
                <!-- Polyline -->
                <path d="M4649.8646,1863.297 L4649.8646,1722.6095 M4649.8646,1643.2345 L4649.8646,1484.4845 M4649.8646,1405.1095 L4649.8646,1246.3595 M4649.8646,1166.9845 L4649.8646,1026.297 L4749.8646,1026.297 L4749.8646,1166.9845 M4749.8646,1246.3595 L4749.8646,1405.1095 M4749.8646,1484.4845 L4749.8646,1643.2345 M4749.8646,1722.6095 L4749.8646,1863.297 L4649.8646,1863.297 Z" style="stroke:#000000;stroke-width:0.1;"/>
                <!-- Polyline -->
                <path d="M4773.3646,1958.297 L4843.3646,1958.297 L4843.3646,1876.547 M4843.3646,1797.172 L4843.3646,1638.422 M4843.3646,1559.047 L4843.3646,1477.297 L4773.3646,1477.297 L4773.3646,1559.047 M4773.3646,1638.422 L4773.3646,1797.172 M4773.3646,1876.547 L4773.3646,1958.297 Z" style="stroke:#000000;stroke-width:0.1;"/>
                <!-- Polyline -->
                <path d="M4773.3646,931.297 L4843.3646,931.297 L4843.3646,1013.047 M4843.3646,1092.422 L4843.3646,1251.172 M4843.3646,1330.547 L4843.3646,1412.297 L4773.3646,1412.297 L4773.3646,1330.547 M4773.3646,1251.172 L4773.3646,1092.422 M4773.3646,1013.047 L4773.3646,931.297 Z" style="stroke:#000000;stroke-width:0.1;"/>
                <!-- Polyline -->
                <path d="M6526.3646,1958.297 L6456.3646,1958.297 L6456.3646,1876.547 M6456.3646,1797.172 L6456.3646,1638.422 M6456.3646,1559.047 L6456.3646,1477.297 L6526.3646,1477.297 L6526.3646,1559.047 M6526.3646,1638.422 L6526.3646,1797.172 M6526.3646,1876.547 L6526.3646,1958.297 Z" style="stroke:#000000;stroke-width:0.1;"/>
                <!-- Polyline -->
                <path d="M6526.3646,931.297 L6456.3646,931.297 L6456.3646,1013.047 M6456.3646,1092.422 L6456.3646,1251.172 M6456.3646,1330.547 L6456.3646,1412.297 L6526.3646,1412.297 L6526.3646,1330.547 M6526.3646,1251.172 L6526.3646,1092.422 M6526.3646,1013.047 L6526.3646,931.297 Z" style="stroke:#000000;stroke-width:0.1;"/>
                <!-- Polyline -->
                <path d="M5684.8646,1958.297 L5614.8646,1958.297 L5614.8646,1876.547 M5614.8646,1797.172 L5614.8646,1638.422 M5614.8646,1559.047 L5614.8646,1477.297 L5684.8646,1477.297 L5684.8646,1559.047 M5684.8646,1638.422 L5684.8646,1797.172 M5684.8646,1876.547 L5684.8646,1958.297 Z" style="stroke:#000000;stroke-width:0.1;"/>
                <!-- Polyline -->
                <path d="M5684.8646,931.297 L5614.8646,931.297 L5614.8646,1013.047 M5614.8646,1092.422 L5614.8646,1251.172 M5614.8646,1330.547 L5614.8646,1412.297 L5684.8646,1412.297 L5684.8646,1330.547 M5684.8646,1251.172 L5684.8646,1092.422 M5684.8646,1013.047 L5684.8646,931.297 Z" style="stroke:#000000;stroke-width:0.1;"/>
                <!-- Polyline -->
                <path d="M7049.8646,694.797 L4249.8646,694.797 L4249.8646,2194.797 L7049.8646,2194.797 Z" style="stroke:#000000;stroke-width:0.1;"/>
                <!-- Line -->
                <path d="M5649.8646,2194.797 L5649.8646,694.797 " style="stroke:#000000;stroke-width:0.1;"/>
            </g>
            <!-- Block Reference: 1I2 round_top / entities: 2 -->
            <g>
                <!-- Hatch -->
                <path d="M1449.8646,2194.797 L1449.8646,694.797 A750,750 0 0 0 1449.8646,2194.797 Z" style="fill-rule:evenodd;"/>
                <!-- Polyline -->
                <path d="M1449.8646,2194.797 L1449.8646,694.797 A750,750 0 0 0 1449.8646,2194.797 Z" style="stroke:#000000;stroke-width:0.1;"/>
            </g>
            <!-- Block Reference: chair_04_top_cad-block.com / entities: 8 -->
            <g>
                <!-- Line -->
                <path d="M110.0195,1168.1792 L306.8527,692.9817 " style="stroke:#000000;stroke-width:0.1;"/>
                <!-- Arc -->
                <path d="M69.0158,1192.434 A50.8,50.8 0 0,1 38.1532,1138.4112" style="stroke:#000000;stroke-width:0.1;"/>
                <!-- Arc -->
                <path d="M234.9865,663.2137 A50.8,50.8 0 0,1 295.0095,646.8369" style="stroke:#000000;stroke-width:0.1;"/>
                <!-- Polyline -->
                <path d="M295.0095,646.8369 L730.6071,827.2674 L716.0269,862.4672" style="stroke:#000000;stroke-width:0.1;"/>
                <!-- Polyline -->
                <path d="M69.0158,1192.434 L504.6134,1372.8645 L519.1937,1337.6646" style="stroke:#000000;stroke-width:0.1;"/>
                <!-- Polyline -->
                <path d="M566.1504,1357.1148 L762.9836,881.9173 L234.9865,663.2137 L38.1532,1138.4112 Z" style="stroke:#000000;stroke-width:0.1;"/>
                <!-- Hatch -->
                <path d="M38.1532,1138.4112 L234.9865,663.2137 L306.8527,692.9817 L110.0195,1168.1792 ZM110.0195,1168.1792 L306.8527,692.9817 L762.9836,881.9173 L566.1504,1357.1148 Z" style="fill-rule:evenodd;"/>
                <!-- Hatch -->
                <path d="M234.9865,663.2137 A50.8,50.8 0 0 1 295.0096,646.837 L730.6071,827.2674 L716.0269,862.4672 ZM69.0156,1192.4339 A50.8,50.8 0 0 1 38.1532,1138.4112 L519.1937,1337.6646 L504.6134,1372.8645 L69.0156,1192.4339" style="fill-rule:evenodd;"/>
            </g>
            <!-- Block Reference: chair_04_top_cad-block.com / entities: 8 -->
            <g>
                <!-- Line -->
                <path d="M698.0494,301.7851 L1173.2468,104.9519 " style="stroke:#000000;stroke-width:0.1;"/>
                <!-- Arc -->
                <path d="M651.9046,289.9418 A50.8,50.8 0 0,1 668.2814,229.9188" style="stroke:#000000;stroke-width:0.1;"/>
                <!-- Arc -->
                <path d="M1143.4788,33.0856 A50.8,50.8 0 0,1 1197.5017,63.9481" style="stroke:#000000;stroke-width:0.1;"/>
                <!-- Polyline -->
                <path d="M1197.5017,63.9481 L1377.9321,499.5458 L1342.7323,514.126" style="stroke:#000000;stroke-width:0.1;"/>
                <!-- Polyline -->
                <path d="M651.9046,289.9418 L832.335,725.5395 L867.5349,710.9592" style="stroke:#000000;stroke-width:0.1;"/>
                <!-- Polyline -->
                <path d="M886.985,757.916 L1362.1824,561.0827 L1143.4788,33.0856 L668.2814,229.9188 Z" style="stroke:#000000;stroke-width:0.1;"/>
                <!-- Hatch -->
                <path d="M668.2814,229.9188 L1143.4788,33.0856 L1173.2468,104.9519 L698.0494,301.7851 ZM698.0494,301.7851 L1173.2468,104.9519 L1362.1824,561.0827 L886.985,757.916 Z" style="fill-rule:evenodd;"/>
                <!-- Hatch -->
                <path d="M1143.4788,33.0856 A50.8,50.8 0 0 1 1197.5017,63.9482 L1377.9321,499.5458 L1342.7323,514.126 ZM651.9045,289.9417 A50.8,50.8 0 0 1 668.2814,229.9188 L867.5349,710.9592 L832.335,725.5395 L651.9045,289.9417" style="fill-rule:evenodd;"/>
            </g>
            <!-- Block Reference: chair_04_top_cad-block.com / entities: 8 -->
            <g>
                <!-- Line -->
                <path d="M1173.2468,2784.642 L698.0494,2587.8088 " style="stroke:#000000;stroke-width:0.1;"/>
                <!-- Arc -->
                <path d="M1197.5017,2825.6458 A50.8,50.8 0 0,1 1143.4788,2856.5083" style="stroke:#000000;stroke-width:0.1;"/>
                <!-- Arc -->
                <path d="M668.2814,2659.6751 A50.8,50.8 0 0,1 651.9046,2599.6521" style="stroke:#000000;stroke-width:0.1;"/>
                <!-- Polyline -->
                <path d="M651.9046,2599.6521 L832.335,2164.0545 L867.5349,2178.6347" style="stroke:#000000;stroke-width:0.1;"/>
                <!-- Polyline -->
                <path d="M1197.5017,2825.6458 L1377.9321,2390.0482 L1342.7323,2375.4679" style="stroke:#000000;stroke-width:0.1;"/>
                <!-- Polyline -->
                <path d="M1362.1824,2328.5112 L886.985,2131.6779 L668.2814,2659.6751 L1143.4788,2856.5083 Z" style="stroke:#000000;stroke-width:0.1;"/>
                <!-- Hatch -->
                <path d="M1143.4788,2856.5083 L668.2814,2659.6751 L698.0494,2587.8088 L1173.2468,2784.642 ZM1173.2468,2784.642 L698.0494,2587.8088 L886.985,2131.6779 L1362.1824,2328.5112 Z" style="fill-rule:evenodd;"/>
                <!-- Hatch -->
                <path d="M668.2814,2659.6751 A50.8,50.8 0 0 1 651.9046,2599.652 L832.335,2164.0545 L867.5349,2178.6347 ZM1197.5016,2825.6459 A50.8,50.8 0 0 1 1143.4788,2856.5083 L1342.7323,2375.4679 L1377.9321,2390.0482 L1197.5016,2825.6459" style="fill-rule:evenodd;"/>
            </g>
            <!-- Block Reference: chair_04_top_cad-block.com / entities: 8 -->
            <g>
                <!-- Line -->
                <path d="M306.8527,2196.6122 L110.0195,1721.4148 " style="stroke:#000000;stroke-width:0.1;"/>
                <!-- Arc -->
                <path d="M295.0095,2242.757 A50.8,50.8 0 0,1 234.9865,2226.3802" style="stroke:#000000;stroke-width:0.1;"/>
                <!-- Arc -->
                <path d="M38.1532,1751.1827 A50.8,50.8 0 0,1 69.0158,1697.1599" style="stroke:#000000;stroke-width:0.1;"/>
                <!-- Polyline -->
                <path d="M69.0158,1697.1599 L504.6134,1516.7295 L519.1937,1551.9293" style="stroke:#000000;stroke-width:0.1;"/>
                <!-- Polyline -->
                <path d="M295.0095,2242.757 L730.6071,2062.3265 L716.0269,2027.1267" style="stroke:#000000;stroke-width:0.1;"/>
                <!-- Polyline -->
                <path d="M762.9836,2007.6766 L566.1504,1532.4792 L38.1532,1751.1827 L234.9865,2226.3802 Z" style="stroke:#000000;stroke-width:0.1;"/>
                <!-- Hatch -->
                <path d="M234.9865,2226.3802 L38.1532,1751.1827 L110.0195,1721.4148 L306.8527,2196.6122 ZM306.8527,2196.6122 L110.0195,1721.4148 L566.1504,1532.4792 L762.9836,2007.6766 Z" style="fill-rule:evenodd;"/>
                <!-- Hatch -->
                <path d="M38.1532,1751.1827 A50.8,50.8 0 0 1 69.0159,1697.1599 L504.6134,1516.7295 L519.1937,1551.9293 ZM295.0093,2242.757 A50.8,50.8 0 0 1 234.9865,2226.3802 L716.0269,2027.1267 L730.6071,2062.3265 L295.0093,2242.757" style="fill-rule:evenodd;"/>
            </g>
            <!-- Block Reference: 1I2 round_top / entities: 2 -->
            <g>
                <!-- Hatch -->
                <path d="M7049.8646,2194.797 L7049.8646,694.797 A750,750 0 0 1 7049.8646,2194.797 Z" style="fill-rule:evenodd;"/>
                <!-- Polyline -->
                <path d="M7049.8646,2194.797 L7049.8646,694.797 A750,750 0 0 1 7049.8646,2194.797 Z" style="stroke:#000000;stroke-width:0.1;"/>
            </g>
            <!-- Block Reference: chair_04_top_cad-block.com / entities: 8 -->
            <g>
                <!-- Line -->
                <path d="M8389.7097,1168.1792 L8192.8765,692.9817 " style="stroke:#000000;stroke-width:0.1;"/>
                <!-- Arc -->
                <path d="M8430.7135,1192.434 A50.8,50.8 0 0,0 8461.576,1138.4112" style="stroke:#000000;stroke-width:0.1;"/>
                <!-- Arc -->
                <path d="M8264.7428,663.2137 A50.8,50.8 0 0,0 8204.7198,646.8369" style="stroke:#000000;stroke-width:0.1;"/>
                <!-- Polyline -->
                <path d="M8204.7198,646.8369 L7769.1221,827.2674 L7783.7023,862.4672" style="stroke:#000000;stroke-width:0.1;"/>
                <!-- Polyline -->
                <path d="M8430.7135,1192.434 L7995.1158,1372.8645 L7980.5356,1337.6646" style="stroke:#000000;stroke-width:0.1;"/>
                <!-- Polyline -->
                <path d="M7933.5788,1357.1148 L7736.7456,881.9173 L8264.7428,663.2137 L8461.576,1138.4112 Z" style="stroke:#000000;stroke-width:0.1;"/>
                <!-- Hatch -->
                <path d="M8461.576,1138.4112 L8264.7428,663.2137 L8192.8765,692.9817 L8389.7097,1168.1792 ZM8389.7097,1168.1792 L8192.8765,692.9817 L7736.7456,881.9173 L7933.5788,1357.1148 Z" style="fill-rule:evenodd;"/>
                <!-- Hatch -->
                <path d="M8264.7428,663.2137 A50.8,50.8 0 0 0 8204.7196,646.837 L7769.1221,827.2674 L7783.7023,862.4672 ZM8430.7136,1192.4339 A50.8,50.8 0 0 0 8461.576,1138.4112 L7980.5356,1337.6646 L7995.1158,1372.8645 L8430.7136,1192.4339" style="fill-rule:evenodd;"/>
            </g>
            <!-- Block Reference: chair_04_top_cad-block.com / entities: 8 -->
            <g>
                <!-- Line -->
                <path d="M7801.6798,301.7851 L7326.4824,104.9519 " style="stroke:#000000;stroke-width:0.1;"/>
                <!-- Arc -->
                <path d="M7847.8246,289.9418 A50.8,50.8 0 0,0 7831.4478,229.9188" style="stroke:#000000;stroke-width:0.1;"/>
                <!-- Arc -->
                <path d="M7356.2504,33.0856 A50.8,50.8 0 0,0 7302.2276,63.9481" style="stroke:#000000;stroke-width:0.1;"/>
                <!-- Polyline -->
                <path d="M7302.2276,63.9481 L7121.7971,499.5458 L7156.9969,514.126" style="stroke:#000000;stroke-width:0.1;"/>
                <!-- Polyline -->
                <path d="M7847.8246,289.9418 L7667.3942,725.5395 L7632.1944,710.9592" style="stroke:#000000;stroke-width:0.1;"/>
                <!-- Polyline -->
                <path d="M7612.7442,757.916 L7137.5468,561.0827 L7356.2504,33.0856 L7831.4478,229.9188 Z" style="stroke:#000000;stroke-width:0.1;"/>
                <!-- Hatch -->
                <path d="M7831.4478,229.9188 L7356.2504,33.0856 L7326.4824,104.9519 L7801.6798,301.7851 ZM7801.6798,301.7851 L7326.4824,104.9519 L7137.5468,561.0827 L7612.7442,757.916 Z" style="fill-rule:evenodd;"/>
                <!-- Hatch -->
                <path d="M7356.2504,33.0856 A50.8,50.8 0 0 0 7302.2275,63.9482 L7121.7971,499.5458 L7156.9969,514.126 ZM7847.8247,289.9417 A50.8,50.8 0 0 0 7831.4478,229.9188 L7632.1944,710.9592 L7667.3942,725.5395 L7847.8247,289.9417" style="fill-rule:evenodd;"/>
            </g>
            <!-- Block Reference: chair_04_top_cad-block.com / entities: 8 -->
            <g>
                <!-- Line -->
                <path d="M7326.4824,2784.642 L7801.6798,2587.8088 " style="stroke:#000000;stroke-width:0.1;"/>
                <!-- Arc -->
                <path d="M7302.2276,2825.6458 A50.8,50.8 0 0,0 7356.2504,2856.5083" style="stroke:#000000;stroke-width:0.1;"/>
                <!-- Arc -->
                <path d="M7831.4478,2659.6751 A50.8,50.8 0 0,0 7847.8246,2599.6521" style="stroke:#000000;stroke-width:0.1;"/>
                <!-- Polyline -->
                <path d="M7847.8246,2599.6521 L7667.3942,2164.0545 L7632.1944,2178.6347" style="stroke:#000000;stroke-width:0.1;"/>
                <!-- Polyline -->
                <path d="M7302.2276,2825.6458 L7121.7971,2390.0482 L7156.9969,2375.4679" style="stroke:#000000;stroke-width:0.1;"/>
                <!-- Polyline -->
                <path d="M7137.5468,2328.5112 L7612.7442,2131.6779 L7831.4478,2659.6751 L7356.2504,2856.5083 Z" style="stroke:#000000;stroke-width:0.1;"/>
                <!-- Hatch -->
                <path d="M7356.2504,2856.5083 L7831.4478,2659.6751 L7801.6798,2587.8088 L7326.4824,2784.642 ZM7326.4824,2784.642 L7801.6798,2587.8088 L7612.7442,2131.6779 L7137.5468,2328.5112 Z" style="fill-rule:evenodd;"/>
                <!-- Hatch -->
                <path d="M7831.4478,2659.6751 A50.8,50.8 0 0 0 7847.8246,2599.652 L7667.3942,2164.0545 L7632.1944,2178.6347 ZM7302.2276,2825.6459 A50.8,50.8 0 0 0 7356.2504,2856.5083 L7156.9969,2375.4679 L7121.7971,2390.0482 L7302.2276,2825.6459" style="fill-rule:evenodd;"/>
            </g>
            <!-- Block Reference: chair_04_top_cad-block.com / entities: 8 -->
            <g>
                <!-- Line -->
                <path d="M8192.8765,2196.6122 L8389.7097,1721.4148 " style="stroke:#000000;stroke-width:0.1;"/>
                <!-- Arc -->
                <path d="M8204.7198,2242.757 A50.8,50.8 0 0,0 8264.7428,2226.3802" style="stroke:#000000;stroke-width:0.1;"/>
                <!-- Arc -->
                <path d="M8461.576,1751.1827 A50.8,50.8 0 0,0 8430.7135,1697.1599" style="stroke:#000000;stroke-width:0.1;"/>
                <!-- Polyline -->
                <path d="M8430.7135,1697.1599 L7995.1158,1516.7295 L7980.5356,1551.9293" style="stroke:#000000;stroke-width:0.1;"/>
                <!-- Polyline -->
                <path d="M8204.7198,2242.757 L7769.1221,2062.3265 L7783.7023,2027.1267" style="stroke:#000000;stroke-width:0.1;"/>
                <!-- Polyline -->
                <path d="M7736.7456,2007.6766 L7933.5788,1532.4792 L8461.576,1751.1827 L8264.7428,2226.3802 Z" style="stroke:#000000;stroke-width:0.1;"/>
                <!-- Hatch -->
                <path d="M8264.7428,2226.3802 L8461.576,1751.1827 L8389.7097,1721.4148 L8192.8765,2196.6122 ZM8192.8765,2196.6122 L8389.7097,1721.4148 L7933.5788,1532.4792 L7736.7456,2007.6766 Z" style="fill-rule:evenodd;"/>
                <!-- Hatch -->
                <path d="M8461.576,1751.1827 A50.8,50.8 0 0 0 8430.7133,1697.1599 L7995.1158,1516.7295 L7980.5356,1551.9293 ZM8204.7199,2242.757 A50.8,50.8 0 0 0 8264.7428,2226.3802 L7783.7023,2027.1267 L7769.1221,2062.3265 L8204.7199,2242.757" style="fill-rule:evenodd;"/>
            </g>
        </g>
    </g>
</svg>

