<?xml version="1.0" encoding="UTF-8"?>
<!-- 2026-03-10 13:38:35 Generated by QCAD 3.32.6 SVG Exporter -->
<svg  width="7952.1288mm" height="4258.9071mm" viewBox="-3.268 -4319.7207 7952.1288 4258.9071" version="1.1" xmlns="http://www.w3.org/2000/svg" style="stroke-linecap:round;stroke-linejoin:round;">
    <g transform="scale(1,-1)">
            <!-- Auto-generated fillable area -->
            <!-- Block Reference: Semi Circle / entities: 16 -->
        <g>
            <!-- Block Reference: chair_04_top_cad-block.com / entities: 8 -->
            <g>
                <!-- Line -->
                <path d="M277.0585,2784.4174 L473.8917,2309.22 " style="stroke:#000000;stroke-width:0.1;"/>
                <!-- Arc -->
                <path d="M236.0547,2808.6723 A50.8,50.8 0 0,1 205.1922,2754.6495" style="stroke:#000000;stroke-width:0.1;"/>
                <!-- Arc -->
                <path d="M402.0254,2279.452 A50.8,50.8 0 0,1 462.0484,2263.0752" style="stroke:#000000;stroke-width:0.1;"/>
                <!-- Polyline -->
                <path d="M462.0484,2263.0752 L897.6461,2443.5057 L883.0658,2478.7055" style="stroke:#000000;stroke-width:0.1;"/>
                <!-- Polyline -->
                <path d="M236.0547,2808.6723 L671.6523,2989.1027 L686.2326,2953.9029" style="stroke:#000000;stroke-width:0.1;"/>
                <!-- Polyline -->
                <path d="M733.1893,2973.353 L930.0226,2498.1556 L402.0254,2279.452 L205.1922,2754.6495 Z" style="stroke:#000000;stroke-width:0.1;"/>
                <!-- Hatch -->
                <path d="M205.1922,2754.6495 L402.0254,2279.452 L473.8917,2309.22 L277.0585,2784.4174 ZM277.0585,2784.4174 L473.8917,2309.22 L930.0226,2498.1556 L733.1893,2973.353 Z" style="fill-rule:evenodd;"/>
                <!-- Hatch -->
                <path d="M402.0254,2279.452 A50.8,50.8 0 0 1 462.0485,2263.0753 L897.6461,2443.5057 L883.0658,2478.7055 ZM236.0546,2808.6722 A50.8,50.8 0 0 1 205.1922,2754.6495 L686.2326,2953.9029 L671.6523,2989.1027 L236.0546,2808.6722" style="fill-rule:evenodd;"/>
            </g>
            <!-- Block Reference: chair_04_top_cad-block.com / entities: 8 -->
            <g>
                <!-- Line -->
                <path d="M727.1483,1870.5667 L1040.2648,1462.5054 " style="stroke:#000000;stroke-width:0.1;"/>
                <!-- Arc -->
                <path d="M681.2641,1883.3825 A50.8,50.8 0 0,1 665.4353,1823.2126" style="stroke:#000000;stroke-width:0.1;"/>
                <!-- Arc -->
                <path d="M978.5518,1415.1513 A50.8,50.8 0 0,1 1040.7682,1414.8676" style="stroke:#000000;stroke-width:0.1;"/>
                <!-- Polyline -->
                <path d="M1040.7682,1414.8676 L1414.8244,1701.8911 L1391.6305,1732.1178" style="stroke:#000000;stroke-width:0.1;"/>
                <!-- Polyline -->
                <path d="M681.2641,1883.3825 L1055.3203,2170.4059 L1078.5141,2140.1791" style="stroke:#000000;stroke-width:0.1;"/>
                <!-- Polyline -->
                <path d="M1118.8368,2171.1198 L1431.9532,1763.0585 L978.5518,1415.1513 L665.4353,1823.2126 Z" style="stroke:#000000;stroke-width:0.1;"/>
                <!-- Hatch -->
                <path d="M665.4353,1823.2126 L978.5518,1415.1513 L1040.2648,1462.5054 L727.1483,1870.5667 ZM727.1483,1870.5667 L1040.2648,1462.5054 L1431.9532,1763.0585 L1118.8368,2171.1198 Z" style="fill-rule:evenodd;"/>
                <!-- Hatch -->
                <path d="M978.5518,1415.1513 A50.8,50.8 0 0 1 1040.7683,1414.8677 L1414.8244,1701.8911 L1391.6305,1732.1178 ZM681.264,1883.3824 A50.8,50.8 0 0 1 665.4353,1823.2126 L1078.5141,2140.1791 L1055.3203,2170.4059 L681.264,1883.3824" style="fill-rule:evenodd;"/>
            </g>
            <!-- Block Reference: chair_04_top_cad-block.com / entities: 8 -->
            <g>
                <!-- Line -->
                <path d="M78.827,3783.6214 L145.9632,3273.6717 " style="stroke:#000000;stroke-width:0.1;"/>
                <!-- Arc -->
                <path d="M45.4981,3817.6623 A50.8,50.8 0 0,1 1.705,3773.4681" style="stroke:#000000;stroke-width:0.1;"/>
                <!-- Arc -->
                <path d="M68.8412,3263.5184 A50.8,50.8 0 0,1 122.5803,3232.1645" style="stroke:#000000;stroke-width:0.1;"/>
                <!-- Polyline -->
                <path d="M122.5803,3232.1645 L590.0342,3293.706 L585.0611,3331.48" style="stroke:#000000;stroke-width:0.1;"/>
                <!-- Polyline -->
                <path d="M45.4981,3817.6623 L512.9519,3879.2037 L517.925,3841.4297" style="stroke:#000000;stroke-width:0.1;"/>
                <!-- Polyline -->
                <path d="M568.3158,3848.0638 L635.4519,3338.1141 L68.8412,3263.5184 L1.705,3773.4681 Z" style="stroke:#000000;stroke-width:0.1;"/>
                <!-- Hatch -->
                <path d="M1.705,3773.4681 L68.8412,3263.5184 L145.9632,3273.6717 L78.827,3783.6214 ZM78.827,3783.6214 L145.9632,3273.6717 L635.4519,3338.1141 L568.3158,3848.0638 Z" style="fill-rule:evenodd;"/>
                <!-- Hatch -->
                <path d="M68.8412,3263.5184 A50.8,50.8 0 0 1 122.5804,3232.1645 L590.0342,3293.706 L585.0611,3331.48 ZM45.4979,3817.6623 A50.8,50.8 0 0 1 1.705,3773.4681 L517.925,3841.4297 L512.9519,3879.2037 L45.4979,3817.6623" style="fill-rule:evenodd;"/>
            </g>
            <!-- Block Reference: table round seg_top / entities: 4 -->
            <g>
                <!-- Polyline -->
                <path d="M2205.0294,2269.111 L1639.344,1703.4256" style="stroke:#000000;stroke-width:0.1;"/>
                <!-- Polyline -->
                <path d="M1472.7964,4036.878 L672.7964,4036.878" style="stroke:#000000;stroke-width:0.1;"/>
                <!-- Hatch -->
                <path d="M2205.0294,2269.111 L1639.344,1703.4256 A3300,3300 0 0 0 672.7964,4036.878 L1472.7964,4036.878 A2500,2500 0 0 1 2205.0294,2269.111 Z" style="fill-rule:evenodd;"/>
                <!-- Polyline -->
                <path d="M2205.0294,2269.111 L1639.344,1703.4256 A3300,3300 0 0 0 672.7964,4036.878 L1472.7964,4036.878 A2500,2500 0 0 1 2205.0294,2269.111 Z" style="stroke:#000000;stroke-width:0.1;"/>
            </g>
            <!-- Block Reference: chair_04_top_cad-block.com / entities: 8 -->
            <g>
                <!-- Line -->
                <path d="M2245.1384,537.9733 L2720.3358,341.1401 " style="stroke:#000000;stroke-width:0.1;"/>
                <!-- Arc -->
                <path d="M2198.9936,526.13 A50.8,50.8 0 0,1 2215.3704,466.107" style="stroke:#000000;stroke-width:0.1;"/>
                <!-- Arc -->
                <path d="M2690.5678,269.2738 A50.8,50.8 0 0,1 2744.5906,300.1363" style="stroke:#000000;stroke-width:0.1;"/>
                <!-- Polyline -->
                <path d="M2744.5906,300.1363 L2925.0211,735.734 L2889.8213,750.3142" style="stroke:#000000;stroke-width:0.1;"/>
                <!-- Polyline -->
                <path d="M2198.9936,526.13 L2379.424,961.7277 L2414.6238,947.1475" style="stroke:#000000;stroke-width:0.1;"/>
                <!-- Polyline -->
                <path d="M2434.074,994.1042 L2909.2714,797.271 L2690.5678,269.2738 L2215.3704,466.107 Z" style="stroke:#000000;stroke-width:0.1;"/>
                <!-- Hatch -->
                <path d="M2215.3704,466.107 L2690.5678,269.2738 L2720.3358,341.1401 L2245.1384,537.9733 ZM2245.1384,537.9733 L2720.3358,341.1401 L2909.2714,797.271 L2434.074,994.1042 Z" style="fill-rule:evenodd;"/>
                <!-- Hatch -->
                <path d="M2690.5678,269.2738 A50.8,50.8 0 0 1 2744.5907,300.1365 L2925.0211,735.734 L2889.8213,750.3142 ZM2198.9935,526.1299 A50.8,50.8 0 0 1 2215.3704,466.107 L2414.6238,947.1475 L2379.424,961.7277 L2198.9935,526.1299" style="fill-rule:evenodd;"/>
            </g>
            <!-- Block Reference: chair_04_top_cad-block.com / entities: 8 -->
            <g>
                <!-- Line -->
                <path d="M3209.5901,210.0448 L3719.5397,142.9087 " style="stroke:#000000;stroke-width:0.1;"/>
                <!-- Arc -->
                <path d="M3168.0829,186.6619 A50.8,50.8 0 0,1 3199.4367,132.9228" style="stroke:#000000;stroke-width:0.1;"/>
                <!-- Arc -->
                <path d="M3709.3864,65.7867 A50.8,50.8 0 0,1 3753.5806,109.5797" style="stroke:#000000;stroke-width:0.1;"/>
                <!-- Polyline -->
                <path d="M3753.5806,109.5797 L3815.1221,577.0336 L3777.3481,582.0066" style="stroke:#000000;stroke-width:0.1;"/>
                <!-- Polyline -->
                <path d="M3168.0829,186.6619 L3229.6243,654.1158 L3267.3984,649.1427" style="stroke:#000000;stroke-width:0.1;"/>
                <!-- Polyline -->
                <path d="M3274.0325,699.5335 L3783.9821,632.3974 L3709.3864,65.7867 L3199.4367,132.9228 Z" style="stroke:#000000;stroke-width:0.1;"/>
                <!-- Hatch -->
                <path d="M3199.4367,132.9228 L3709.3864,65.7867 L3719.5397,142.9087 L3209.5901,210.0448 ZM3209.5901,210.0448 L3719.5397,142.9087 L3783.9821,632.3974 L3274.0325,699.5335 Z" style="fill-rule:evenodd;"/>
                <!-- Hatch -->
                <path d="M3709.3864,65.7867 A50.8,50.8 0 0 1 3753.5807,109.5798 L3815.1221,577.0336 L3777.3481,582.0066 ZM3168.0829,186.6618 A50.8,50.8 0 0 1 3199.4367,132.9228 L3267.3984,649.1427 L3229.6243,654.1158 L3168.0829,186.6618" style="fill-rule:evenodd;"/>
            </g>
            <!-- Block Reference: chair_04_top_cad-block.com / entities: 8 -->
            <g>
                <!-- Line -->
                <path d="M1398.4237,1104.3464 L1806.485,791.23 " style="stroke:#000000;stroke-width:0.1;"/>
                <!-- Arc -->
                <path d="M1350.786,1104.8498 A50.8,50.8 0 0,1 1351.0697,1042.6334" style="stroke:#000000;stroke-width:0.1;"/>
                <!-- Arc -->
                <path d="M1759.131,729.517 A50.8,50.8 0 0,1 1819.3008,745.3457" style="stroke:#000000;stroke-width:0.1;"/>
                <!-- Polyline -->
                <path d="M1819.3008,745.3458 L2106.3242,1119.4019 L2076.0975,1142.5957" style="stroke:#000000;stroke-width:0.1;"/>
                <!-- Polyline -->
                <path d="M1350.786,1104.8498 L1637.8094,1478.906 L1668.0362,1455.7122" style="stroke:#000000;stroke-width:0.1;"/>
                <!-- Polyline -->
                <path d="M1698.9768,1496.0349 L2107.0381,1182.9184 L1759.131,729.517 L1351.0697,1042.6334 Z" style="stroke:#000000;stroke-width:0.1;"/>
                <!-- Hatch -->
                <path d="M1351.0697,1042.6334 L1759.131,729.517 L1806.485,791.23 L1398.4237,1104.3464 ZM1398.4237,1104.3464 L1806.485,791.23 L2107.0381,1182.9184 L1698.9768,1496.0349 Z" style="fill-rule:evenodd;"/>
                <!-- Hatch -->
                <path d="M1759.131,729.517 A50.8,50.8 0 0 1 1819.3009,745.3459 L2106.3242,1119.4019 L2076.0975,1142.5957 ZM1350.7859,1104.8497 A50.8,50.8 0 0 1 1351.0697,1042.6334 L1668.0362,1455.7122 L1637.8094,1478.906 L1350.7859,1104.8497" style="fill-rule:evenodd;"/>
            </g>
            <!-- Block Reference: table round seg_top / entities: 4 -->
            <g>
                <!-- Polyline -->
                <path d="M3972.7964,1536.878 L3972.7964,736.878" style="stroke:#000000;stroke-width:0.1;"/>
                <!-- Polyline -->
                <path d="M2205.0294,2269.111 L1639.344,1703.4256" style="stroke:#000000;stroke-width:0.1;"/>
                <!-- Hatch -->
                <path d="M3972.7964,1536.878 L3972.7964,736.878 A3300,3300 0 0 0 1639.344,1703.4256 L2205.0294,2269.111 A2500,2500 0 0 1 3972.7964,1536.878 Z" style="fill-rule:evenodd;"/>
                <!-- Polyline -->
                <path d="M3972.7964,1536.878 L3972.7964,736.878 A3300,3300 0 0 0 1639.344,1703.4256 L2205.0294,2269.111 A2500,2500 0 0 1 3972.7964,1536.878 Z" style="stroke:#000000;stroke-width:0.1;"/>
            </g>
            <!-- Block Reference: chair_04_top_cad-block.com / entities: 8 -->
            <g>
                <!-- Line -->
                <path d="M5225.2569,341.1401 L5700.4543,537.9733 " style="stroke:#000000;stroke-width:0.1;"/>
                <!-- Arc -->
                <path d="M5201.0021,300.1363 A50.8,50.8 0 0,1 5255.0249,269.2738" style="stroke:#000000;stroke-width:0.1;"/>
                <!-- Arc -->
                <path d="M5730.2223,466.107 A50.8,50.8 0 0,1 5746.5991,526.13" style="stroke:#000000;stroke-width:0.1;"/>
                <!-- Polyline -->
                <path d="M5746.5991,526.13 L5566.1687,961.7277 L5530.9689,947.1475" style="stroke:#000000;stroke-width:0.1;"/>
                <!-- Polyline -->
                <path d="M5201.0021,300.1363 L5020.5716,735.734 L5055.7714,750.3142" style="stroke:#000000;stroke-width:0.1;"/>
                <!-- Polyline -->
                <path d="M5036.3213,797.271 L5511.5187,994.1042 L5730.2223,466.107 L5255.0249,269.2738 Z" style="stroke:#000000;stroke-width:0.1;"/>
                <!-- Hatch -->
                <path d="M5255.0249,269.2738 L5730.2223,466.107 L5700.4543,537.9733 L5225.2569,341.1401 ZM5225.2569,341.1401 L5700.4543,537.9733 L5511.5187,994.1042 L5036.3213,797.271 Z" style="fill-rule:evenodd;"/>
                <!-- Hatch -->
                <path d="M5730.2223,466.107 A50.8,50.8 0 0 1 5746.5991,526.1302 L5566.1687,961.7277 L5530.9689,947.1475 ZM5201.0021,300.1362 A50.8,50.8 0 0 1 5255.0249,269.2738 L5055.7714,750.3142 L5020.5716,735.734 L5201.0021,300.1362" style="fill-rule:evenodd;"/>
            </g>
            <!-- Block Reference: chair_04_top_cad-block.com / entities: 8 -->
            <g>
                <!-- Line -->
                <path d="M6139.1077,791.23 L6547.169,1104.3464 " style="stroke:#000000;stroke-width:0.1;"/>
                <!-- Arc -->
                <path d="M6126.2919,745.3457 A50.8,50.8 0 0,1 6186.4617,729.517" style="stroke:#000000;stroke-width:0.1;"/>
                <!-- Arc -->
                <path d="M6594.523,1042.6334 A50.8,50.8 0 0,1 6594.8067,1104.8498" style="stroke:#000000;stroke-width:0.1;"/>
                <!-- Polyline -->
                <path d="M6594.8067,1104.8498 L6307.7833,1478.906 L6277.5565,1455.7122" style="stroke:#000000;stroke-width:0.1;"/>
                <!-- Polyline -->
                <path d="M6126.2919,745.3458 L5839.2685,1119.4019 L5869.4952,1142.5957" style="stroke:#000000;stroke-width:0.1;"/>
                <!-- Polyline -->
                <path d="M5838.5546,1182.9184 L6246.6159,1496.0349 L6594.523,1042.6334 L6186.4617,729.517 Z" style="stroke:#000000;stroke-width:0.1;"/>
                <!-- Hatch -->
                <path d="M6186.4617,729.517 L6594.523,1042.6334 L6547.169,1104.3464 L6139.1077,791.23 ZM6139.1077,791.23 L6547.169,1104.3464 L6246.6159,1496.0349 L5838.5546,1182.9184 Z" style="fill-rule:evenodd;"/>
                <!-- Hatch -->
                <path d="M6594.523,1042.6334 A50.8,50.8 0 0 1 6594.8066,1104.8499 L6307.7833,1478.906 L6277.5565,1455.7122 ZM6126.292,745.3456 A50.8,50.8 0 0 1 6186.4617,729.517 L5869.4952,1142.5957 L5839.2685,1119.4019 L6126.292,745.3456" style="fill-rule:evenodd;"/>
            </g>
            <!-- Block Reference: chair_04_top_cad-block.com / entities: 8 -->
            <g>
                <!-- Line -->
                <path d="M4226.053,142.9087 L4736.0027,210.0448 " style="stroke:#000000;stroke-width:0.1;"/>
                <!-- Arc -->
                <path d="M4192.0121,109.5797 A50.8,50.8 0 0,1 4236.2063,65.7867" style="stroke:#000000;stroke-width:0.1;"/>
                <!-- Arc -->
                <path d="M4746.156,132.9228 A50.8,50.8 0 0,1 4777.5098,186.6619" style="stroke:#000000;stroke-width:0.1;"/>
                <!-- Polyline -->
                <path d="M4777.5098,186.6619 L4715.9684,654.1158 L4678.1943,649.1427" style="stroke:#000000;stroke-width:0.1;"/>
                <!-- Polyline -->
                <path d="M4192.0121,109.5797 L4130.4706,577.0336 L4168.2446,582.0066" style="stroke:#000000;stroke-width:0.1;"/>
                <!-- Polyline -->
                <path d="M4161.6106,632.3974 L4671.5602,699.5335 L4746.156,132.9228 L4236.2063,65.7867 Z" style="stroke:#000000;stroke-width:0.1;"/>
                <!-- Hatch -->
                <path d="M4236.2063,65.7867 L4746.156,132.9228 L4736.0027,210.0448 L4226.053,142.9087 ZM4226.053,142.9087 L4736.0027,210.0448 L4671.5602,699.5335 L4161.6106,632.3974 Z" style="fill-rule:evenodd;"/>
                <!-- Hatch -->
                <path d="M4746.156,132.9228 A50.8,50.8 0 0 1 4777.5098,186.6621 L4715.9684,654.1158 L4678.1943,649.1427 ZM4192.0121,109.5796 A50.8,50.8 0 0 1 4236.2063,65.7867 L4168.2446,582.0066 L4130.4706,577.0336 L4192.0121,109.5796" style="fill-rule:evenodd;"/>
            </g>
            <!-- Block Reference: table round seg_top / entities: 4 -->
            <g>
                <!-- Polyline -->
                <path d="M5740.5633,2269.111 L6306.2487,1703.4256" style="stroke:#000000;stroke-width:0.1;"/>
                <!-- Polyline -->
                <path d="M3972.7964,1536.878 L3972.7964,736.878" style="stroke:#000000;stroke-width:0.1;"/>
                <!-- Hatch -->
                <path d="M5740.5633,2269.111 L6306.2487,1703.4256 A3300,3300 0 0 0 3972.7964,736.878 L3972.7964,1536.878 A2500,2500 0 0 1 5740.5633,2269.111 Z" style="fill-rule:evenodd;"/>
                <!-- Polyline -->
                <path d="M5740.5633,2269.111 L6306.2487,1703.4256 A3300,3300 0 0 0 3972.7964,736.878 L3972.7964,1536.878 A2500,2500 0 0 1 5740.5633,2269.111 Z" style="stroke:#000000;stroke-width:0.1;"/>
            </g>
            <!-- Block Reference: chair_04_top_cad-block.com / entities: 8 -->
            <g>
                <!-- Line -->
                <path d="M7471.701,2309.22 L7668.5342,2784.4174 " style="stroke:#000000;stroke-width:0.1;"/>
                <!-- Arc -->
                <path d="M7483.5443,2263.0752 A50.8,50.8 0 0,1 7543.5673,2279.452" style="stroke:#000000;stroke-width:0.1;"/>
                <!-- Arc -->
                <path d="M7740.4005,2754.6495 A50.8,50.8 0 0,1 7709.538,2808.6723" style="stroke:#000000;stroke-width:0.1;"/>
                <!-- Polyline -->
                <path d="M7709.538,2808.6723 L7273.9404,2989.1027 L7259.3601,2953.9029" style="stroke:#000000;stroke-width:0.1;"/>
                <!-- Polyline -->
                <path d="M7483.5443,2263.0752 L7047.9467,2443.5057 L7062.5269,2478.7055" style="stroke:#000000;stroke-width:0.1;"/>
                <!-- Polyline -->
                <path d="M7015.5702,2498.1556 L7212.4034,2973.353 L7740.4005,2754.6495 L7543.5673,2279.452 Z" style="stroke:#000000;stroke-width:0.1;"/>
                <!-- Hatch -->
                <path d="M7543.5673,2279.452 L7740.4005,2754.6495 L7668.5342,2784.4174 L7471.701,2309.22 ZM7471.701,2309.22 L7668.5342,2784.4174 L7212.4034,2973.353 L7015.5702,2498.1556 Z" style="fill-rule:evenodd;"/>
                <!-- Hatch -->
                <path d="M7740.4005,2754.6495 A50.8,50.8 0 0 1 7709.5379,2808.6723 L7273.9404,2989.1027 L7259.3601,2953.9029 ZM7483.5444,2263.0752 A50.8,50.8 0 0 1 7543.5673,2279.452 L7062.5269,2478.7055 L7047.9467,2443.5057 L7483.5444,2263.0752" style="fill-rule:evenodd;"/>
            </g>
            <!-- Block Reference: chair_04_top_cad-block.com / entities: 8 -->
            <g>
                <!-- Line -->
                <path d="M7799.6295,3273.6717 L7866.7657,3783.6214 " style="stroke:#000000;stroke-width:0.1;"/>
                <!-- Arc -->
                <path d="M7823.0124,3232.1645 A50.8,50.8 0 0,1 7876.7515,3263.5184" style="stroke:#000000;stroke-width:0.1;"/>
                <!-- Arc -->
                <path d="M7943.8877,3773.4681 A50.8,50.8 0 0,1 7900.0947,3817.6623" style="stroke:#000000;stroke-width:0.1;"/>
                <!-- Polyline -->
                <path d="M7900.0947,3817.6623 L7432.6408,3879.2037 L7427.6677,3841.4297" style="stroke:#000000;stroke-width:0.1;"/>
                <!-- Polyline -->
                <path d="M7823.0124,3232.1645 L7355.5586,3293.706 L7360.5316,3331.48" style="stroke:#000000;stroke-width:0.1;"/>
                <!-- Polyline -->
                <path d="M7310.1408,3338.1141 L7377.277,3848.0638 L7943.8877,3773.4681 L7876.7515,3263.5184 Z" style="stroke:#000000;stroke-width:0.1;"/>
                <!-- Hatch -->
                <path d="M7876.7515,3263.5184 L7943.8877,3773.4681 L7866.7657,3783.6214 L7799.6295,3273.6717 ZM7799.6295,3273.6717 L7866.7657,3783.6214 L7377.277,3848.0638 L7310.1408,3338.1141 Z" style="fill-rule:evenodd;"/>
                <!-- Hatch -->
                <path d="M7943.8877,3773.4681 A50.8,50.8 0 0 1 7900.0945,3817.6623 L7432.6408,3879.2037 L7427.6677,3841.4297 ZM7823.0125,3232.1645 A50.8,50.8 0 0 1 7876.7515,3263.5184 L7360.5316,3331.48 L7355.5586,3293.706 L7823.0125,3232.1645" style="fill-rule:evenodd;"/>
            </g>
            <!-- Block Reference: chair_04_top_cad-block.com / entities: 8 -->
            <g>
                <!-- Line -->
                <path d="M6905.328,1462.5054 L7218.4444,1870.5667 " style="stroke:#000000;stroke-width:0.1;"/>
                <!-- Arc -->
                <path d="M6904.8245,1414.8676 A50.8,50.8 0 0,1 6967.0409,1415.1513" style="stroke:#000000;stroke-width:0.1;"/>
                <!-- Arc -->
                <path d="M7280.1574,1823.2126 A50.8,50.8 0 0,1 7264.3286,1883.3825" style="stroke:#000000;stroke-width:0.1;"/>
                <!-- Polyline -->
                <path d="M7264.3286,1883.3825 L6890.2724,2170.4059 L6867.0786,2140.1791" style="stroke:#000000;stroke-width:0.1;"/>
                <!-- Polyline -->
                <path d="M6904.8245,1414.8676 L6530.7683,1701.8911 L6553.9622,1732.1178" style="stroke:#000000;stroke-width:0.1;"/>
                <!-- Polyline -->
                <path d="M6513.6395,1763.0585 L6826.7559,2171.1198 L7280.1574,1823.2126 L6967.0409,1415.1513 Z" style="stroke:#000000;stroke-width:0.1;"/>
                <!-- Hatch -->
                <path d="M6967.0409,1415.1513 L7280.1574,1823.2126 L7218.4444,1870.5667 L6905.328,1462.5054 ZM6905.328,1462.5054 L7218.4444,1870.5667 L6826.7559,2171.1198 L6513.6395,1763.0585 Z" style="fill-rule:evenodd;"/>
                <!-- Hatch -->
                <path d="M7280.1574,1823.2126 A50.8,50.8 0 0 1 7264.3285,1883.3825 L6890.2724,2170.4059 L6867.0786,2140.1791 ZM6904.8246,1414.8676 A50.8,50.8 0 0 1 6967.0409,1415.1513 L6553.9622,1732.1178 L6530.7683,1701.8911 L6904.8246,1414.8676" style="fill-rule:evenodd;"/>
            </g>
            <!-- Block Reference: table round seg_top / entities: 4 -->
            <g>
                <!-- Polyline -->
                <path d="M6472.7964,4036.878 L7272.7964,4036.878" style="stroke:#000000;stroke-width:0.1;"/>
                <!-- Polyline -->
                <path d="M5740.5633,2269.111 L6306.2487,1703.4256" style="stroke:#000000;stroke-width:0.1;"/>
                <!-- Hatch -->
                <path d="M6472.7964,4036.878 L7272.7964,4036.878 A3300,3300 0 0 0 6306.2487,1703.4256 L5740.5633,2269.111 A2500,2500 0 0 1 6472.7964,4036.878 Z" style="fill-rule:evenodd;"/>
                <!-- Polyline -->
                <path d="M6472.7964,4036.878 L7272.7964,4036.878 A3300,3300 0 0 0 6306.2487,1703.4256 L5740.5633,2269.111 A2500,2500 0 0 1 6472.7964,4036.878 Z" style="stroke:#000000;stroke-width:0.1;"/>
            </g>
        </g>
    </g>
</svg>

