<?xml version="1.0" encoding="UTF-8"?>
<!-- 2026-03-10 13:32:51 Generated by QCAD 3.32.6 SVG Exporter -->
<svg  width="4790.55mm" height="6571.5mm" viewBox="20.6205 -6570.3401 4790.55 6571.5" version="1.1" xmlns="http://www.w3.org/2000/svg" style="stroke-linecap:round;stroke-linejoin:round;">
    <g transform="scale(1,-1)">
            <!-- Auto-generated fillable area -->
            <!-- Block Reference: Theatre or Auditorium / entities: 56 -->
        <g>
            <!-- Block Reference: chair_04_top_cad-block.com / entities: 8 -->
            <g>
                <!-- Line -->
                <path d="M573.0706,76.6276 L58.7206,76.6276 " style="stroke:#000000;stroke-width:0.1;"/>
                <!-- Arc -->
                <path d="M611.1706,48.027 A50.8,50.8 0 0,0 573.0706,-1.1599" style="stroke:#000000;stroke-width:0.1;"/>
                <!-- Arc -->
                <path d="M58.7206,-1.1599 A50.8,50.8 0 0,0 20.6205,48.027" style="stroke:#000000;stroke-width:0.1;"/>
                <!-- Polyline -->
                <path d="M20.6205,48.027 L20.6205,519.5145 L58.7205,519.5145" style="stroke:#000000;stroke-width:0.1;"/>
                <!-- Polyline -->
                <path d="M611.1706,48.027 L611.1706,519.5145 L573.0706,519.5145" style="stroke:#000000;stroke-width:0.1;"/>
                <!-- Polyline -->
                <path d="M573.0706,570.3401 L58.7206,570.3401 L58.7206,-1.1599 L573.0706,-1.1599 Z" style="stroke:#000000;stroke-width:0.1;"/>
                <!-- Hatch -->
                <path d="M573.0706,-1.1599 L58.7206,-1.1599 L58.7206,76.6276 L573.0706,76.6276 ZM573.0706,76.6276 L58.7206,76.6276 L58.7206,570.3401 L573.0706,570.3401 Z" style="fill-rule:evenodd;"/>
                <!-- Hatch -->
                <path d="M58.7206,-1.1599 A50.8,50.8 0 0 0 20.6205,48.0271 L20.6205,519.5145 L58.7206,519.5145 ZM611.1706,48.0268 A50.8,50.8 0 0 0 573.0706,-1.1599 L573.0706,519.5145 L611.1706,519.5145 L611.1706,48.0268" style="fill-rule:evenodd;"/>
            </g>
            <!-- Block Reference: chair_04_top_cad-block.com / entities: 8 -->
            <g>
                <!-- Line -->
                <path d="M573.0706,1076.6276 L58.7206,1076.6276 " style="stroke:#000000;stroke-width:0.1;"/>
                <!-- Arc -->
                <path d="M611.1706,1048.027 A50.8,50.8 0 0,0 573.0706,998.8401" style="stroke:#000000;stroke-width:0.1;"/>
                <!-- Arc -->
                <path d="M58.7206,998.8401 A50.8,50.8 0 0,0 20.6205,1048.027" style="stroke:#000000;stroke-width:0.1;"/>
                <!-- Polyline -->
                <path d="M20.6205,1048.027 L20.6205,1519.5145 L58.7205,1519.5145" style="stroke:#000000;stroke-width:0.1;"/>
                <!-- Polyline -->
                <path d="M611.1706,1048.027 L611.1706,1519.5145 L573.0706,1519.5145" style="stroke:#000000;stroke-width:0.1;"/>
                <!-- Polyline -->
                <path d="M573.0706,1570.3401 L58.7206,1570.3401 L58.7206,998.8401 L573.0706,998.8401 Z" style="stroke:#000000;stroke-width:0.1;"/>
                <!-- Hatch -->
                <path d="M573.0706,998.8401 L58.7206,998.8401 L58.7206,1076.6276 L573.0706,1076.6276 ZM573.0706,1076.6276 L58.7206,1076.6276 L58.7206,1570.3401 L573.0706,1570.3401 Z" style="fill-rule:evenodd;"/>
                <!-- Hatch -->
                <path d="M58.7206,998.8401 A50.8,50.8 0 0 0 20.6205,1048.0271 L20.6205,1519.5145 L58.7206,1519.5145 ZM611.1706,1048.0268 A50.8,50.8 0 0 0 573.0706,998.8401 L573.0706,1519.5145 L611.1706,1519.5145 L611.1706,1048.0268" style="fill-rule:evenodd;"/>
            </g>
            <!-- Block Reference: chair_04_top_cad-block.com / entities: 8 -->
            <g>
                <!-- Line -->
                <path d="M573.0706,2076.6276 L58.7206,2076.6276 " style="stroke:#000000;stroke-width:0.1;"/>
                <!-- Arc -->
                <path d="M611.1706,2048.027 A50.8,50.8 0 0,0 573.0706,1998.8401" style="stroke:#000000;stroke-width:0.1;"/>
                <!-- Arc -->
                <path d="M58.7206,1998.8401 A50.8,50.8 0 0,0 20.6205,2048.027" style="stroke:#000000;stroke-width:0.1;"/>
                <!-- Polyline -->
                <path d="M20.6205,2048.027 L20.6205,2519.5145 L58.7205,2519.5145" style="stroke:#000000;stroke-width:0.1;"/>
                <!-- Polyline -->
                <path d="M611.1706,2048.027 L611.1706,2519.5145 L573.0706,2519.5145" style="stroke:#000000;stroke-width:0.1;"/>
                <!-- Polyline -->
                <path d="M573.0706,2570.3401 L58.7206,2570.3401 L58.7206,1998.8401 L573.0706,1998.8401 Z" style="stroke:#000000;stroke-width:0.1;"/>
                <!-- Hatch -->
                <path d="M573.0706,1998.8401 L58.7206,1998.8401 L58.7206,2076.6276 L573.0706,2076.6276 ZM573.0706,2076.6276 L58.7206,2076.6276 L58.7206,2570.3401 L573.0706,2570.3401 Z" style="fill-rule:evenodd;"/>
                <!-- Hatch -->
                <path d="M58.7206,1998.8401 A50.8,50.8 0 0 0 20.6205,2048.0271 L20.6205,2519.5145 L58.7206,2519.5145 ZM611.1706,2048.0268 A50.8,50.8 0 0 0 573.0706,1998.8401 L573.0706,2519.5145 L611.1706,2519.5145 L611.1706,2048.0268" style="fill-rule:evenodd;"/>
            </g>
            <!-- Block Reference: chair_04_top_cad-block.com / entities: 8 -->
            <g>
                <!-- Line -->
                <path d="M573.0706,3076.6276 L58.7206,3076.6276 " style="stroke:#000000;stroke-width:0.1;"/>
                <!-- Arc -->
                <path d="M611.1706,3048.027 A50.8,50.8 0 0,0 573.0706,2998.8401" style="stroke:#000000;stroke-width:0.1;"/>
                <!-- Arc -->
                <path d="M58.7206,2998.8401 A50.8,50.8 0 0,0 20.6205,3048.027" style="stroke:#000000;stroke-width:0.1;"/>
                <!-- Polyline -->
                <path d="M20.6205,3048.027 L20.6205,3519.5145 L58.7205,3519.5145" style="stroke:#000000;stroke-width:0.1;"/>
                <!-- Polyline -->
                <path d="M611.1706,3048.027 L611.1706,3519.5145 L573.0706,3519.5145" style="stroke:#000000;stroke-width:0.1;"/>
                <!-- Polyline -->
                <path d="M573.0706,3570.3401 L58.7206,3570.3401 L58.7206,2998.8401 L573.0706,2998.8401 Z" style="stroke:#000000;stroke-width:0.1;"/>
                <!-- Hatch -->
                <path d="M573.0706,2998.8401 L58.7206,2998.8401 L58.7206,3076.6276 L573.0706,3076.6276 ZM573.0706,3076.6276 L58.7206,3076.6276 L58.7206,3570.3401 L573.0706,3570.3401 Z" style="fill-rule:evenodd;"/>
                <!-- Hatch -->
                <path d="M58.7206,2998.8401 A50.8,50.8 0 0 0 20.6205,3048.0271 L20.6205,3519.5145 L58.7206,3519.5145 ZM611.1706,3048.0268 A50.8,50.8 0 0 0 573.0706,2998.8401 L573.0706,3519.5145 L611.1706,3519.5145 L611.1706,3048.0268" style="fill-rule:evenodd;"/>
            </g>
            <!-- Block Reference: chair_04_top_cad-block.com / entities: 8 -->
            <g>
                <!-- Line -->
                <path d="M573.0706,4076.6276 L58.7206,4076.6276 " style="stroke:#000000;stroke-width:0.1;"/>
                <!-- Arc -->
                <path d="M611.1706,4048.027 A50.8,50.8 0 0,0 573.0706,3998.8401" style="stroke:#000000;stroke-width:0.1;"/>
                <!-- Arc -->
                <path d="M58.7206,3998.8401 A50.8,50.8 0 0,0 20.6205,4048.027" style="stroke:#000000;stroke-width:0.1;"/>
                <!-- Polyline -->
                <path d="M20.6205,4048.027 L20.6205,4519.5145 L58.7205,4519.5145" style="stroke:#000000;stroke-width:0.1;"/>
                <!-- Polyline -->
                <path d="M611.1706,4048.027 L611.1706,4519.5145 L573.0706,4519.5145" style="stroke:#000000;stroke-width:0.1;"/>
                <!-- Polyline -->
                <path d="M573.0706,4570.3401 L58.7206,4570.3401 L58.7206,3998.8401 L573.0706,3998.8401 Z" style="stroke:#000000;stroke-width:0.1;"/>
                <!-- Hatch -->
                <path d="M573.0706,3998.8401 L58.7206,3998.8401 L58.7206,4076.6276 L573.0706,4076.6276 ZM573.0706,4076.6276 L58.7206,4076.6276 L58.7206,4570.3401 L573.0706,4570.3401 Z" style="fill-rule:evenodd;"/>
                <!-- Hatch -->
                <path d="M58.7206,3998.8401 A50.8,50.8 0 0 0 20.6205,4048.0271 L20.6205,4519.5145 L58.7206,4519.5145 ZM611.1706,4048.0268 A50.8,50.8 0 0 0 573.0706,3998.8401 L573.0706,4519.5145 L611.1706,4519.5145 L611.1706,4048.0268" style="fill-rule:evenodd;"/>
            </g>
            <!-- Block Reference: chair_04_top_cad-block.com / entities: 8 -->
            <g>
                <!-- Line -->
                <path d="M573.0706,5076.6276 L58.7206,5076.6276 " style="stroke:#000000;stroke-width:0.1;"/>
                <!-- Arc -->
                <path d="M611.1706,5048.027 A50.8,50.8 0 0,0 573.0706,4998.8401" style="stroke:#000000;stroke-width:0.1;"/>
                <!-- Arc -->
                <path d="M58.7206,4998.8401 A50.8,50.8 0 0,0 20.6205,5048.027" style="stroke:#000000;stroke-width:0.1;"/>
                <!-- Polyline -->
                <path d="M20.6205,5048.027 L20.6205,5519.5145 L58.7205,5519.5145" style="stroke:#000000;stroke-width:0.1;"/>
                <!-- Polyline -->
                <path d="M611.1706,5048.027 L611.1706,5519.5145 L573.0706,5519.5145" style="stroke:#000000;stroke-width:0.1;"/>
                <!-- Polyline -->
                <path d="M573.0706,5570.3401 L58.7206,5570.3401 L58.7206,4998.8401 L573.0706,4998.8401 Z" style="stroke:#000000;stroke-width:0.1;"/>
                <!-- Hatch -->
                <path d="M573.0706,4998.8401 L58.7206,4998.8401 L58.7206,5076.6276 L573.0706,5076.6276 ZM573.0706,5076.6276 L58.7206,5076.6276 L58.7206,5570.3401 L573.0706,5570.3401 Z" style="fill-rule:evenodd;"/>
                <!-- Hatch -->
                <path d="M58.7206,4998.8401 A50.8,50.8 0 0 0 20.6205,5048.0271 L20.6205,5519.5145 L58.7206,5519.5145 ZM611.1706,5048.0268 A50.8,50.8 0 0 0 573.0706,4998.8401 L573.0706,5519.5145 L611.1706,5519.5145 L611.1706,5048.0268" style="fill-rule:evenodd;"/>
            </g>
            <!-- Block Reference: chair_04_top_cad-block.com / entities: 8 -->
            <g>
                <!-- Line -->
                <path d="M573.0706,6076.6276 L58.7206,6076.6276 " style="stroke:#000000;stroke-width:0.1;"/>
                <!-- Arc -->
                <path d="M611.1706,6048.027 A50.8,50.8 0 0,0 573.0706,5998.8401" style="stroke:#000000;stroke-width:0.1;"/>
                <!-- Arc -->
                <path d="M58.7206,5998.8401 A50.8,50.8 0 0,0 20.6205,6048.027" style="stroke:#000000;stroke-width:0.1;"/>
                <!-- Polyline -->
                <path d="M20.6205,6048.027 L20.6205,6519.5145 L58.7205,6519.5145" style="stroke:#000000;stroke-width:0.1;"/>
                <!-- Polyline -->
                <path d="M611.1706,6048.027 L611.1706,6519.5145 L573.0706,6519.5145" style="stroke:#000000;stroke-width:0.1;"/>
                <!-- Polyline -->
                <path d="M573.0706,6570.3401 L58.7206,6570.3401 L58.7206,5998.8401 L573.0706,5998.8401 Z" style="stroke:#000000;stroke-width:0.1;"/>
                <!-- Hatch -->
                <path d="M573.0706,5998.8401 L58.7206,5998.8401 L58.7206,6076.6276 L573.0706,6076.6276 ZM573.0706,6076.6276 L58.7206,6076.6276 L58.7206,6570.3401 L573.0706,6570.3401 Z" style="fill-rule:evenodd;"/>
                <!-- Hatch -->
                <path d="M58.7206,5998.8401 A50.8,50.8 0 0 0 20.6205,6048.0271 L20.6205,6519.5145 L58.7206,6519.5145 ZM611.1706,6048.0268 A50.8,50.8 0 0 0 573.0706,5998.8401 L573.0706,6519.5145 L611.1706,6519.5145 L611.1706,6048.0268" style="fill-rule:evenodd;"/>
            </g>
            <!-- Block Reference: chair_04_top_cad-block.com / entities: 8 -->
            <g>
                <!-- Line -->
                <path d="M1173.0706,76.6276 L658.7206,76.6276 " style="stroke:#000000;stroke-width:0.1;"/>
                <!-- Arc -->
                <path d="M1211.1706,48.027 A50.8,50.8 0 0,0 1173.0706,-1.1599" style="stroke:#000000;stroke-width:0.1;"/>
                <!-- Arc -->
                <path d="M658.7206,-1.1599 A50.8,50.8 0 0,0 620.6205,48.027" style="stroke:#000000;stroke-width:0.1;"/>
                <!-- Polyline -->
                <path d="M620.6205,48.027 L620.6205,519.5145 L658.7205,519.5145" style="stroke:#000000;stroke-width:0.1;"/>
                <!-- Polyline -->
                <path d="M1211.1706,48.027 L1211.1706,519.5145 L1173.0706,519.5145" style="stroke:#000000;stroke-width:0.1;"/>
                <!-- Polyline -->
                <path d="M1173.0706,570.3401 L658.7206,570.3401 L658.7206,-1.1599 L1173.0706,-1.1599 Z" style="stroke:#000000;stroke-width:0.1;"/>
                <!-- Hatch -->
                <path d="M1173.0706,-1.1599 L658.7206,-1.1599 L658.7206,76.6276 L1173.0706,76.6276 ZM1173.0706,76.6276 L658.7206,76.6276 L658.7206,570.3401 L1173.0706,570.3401 Z" style="fill-rule:evenodd;"/>
                <!-- Hatch -->
                <path d="M658.7206,-1.1599 A50.8,50.8 0 0 0 620.6205,48.0271 L620.6205,519.5145 L658.7206,519.5145 ZM1211.1706,48.0268 A50.8,50.8 0 0 0 1173.0706,-1.1599 L1173.0706,519.5145 L1211.1706,519.5145 L1211.1706,48.0268" style="fill-rule:evenodd;"/>
            </g>
            <!-- Block Reference: chair_04_top_cad-block.com / entities: 8 -->
            <g>
                <!-- Line -->
                <path d="M1173.0706,1076.6276 L658.7206,1076.6276 " style="stroke:#000000;stroke-width:0.1;"/>
                <!-- Arc -->
                <path d="M1211.1706,1048.027 A50.8,50.8 0 0,0 1173.0706,998.8401" style="stroke:#000000;stroke-width:0.1;"/>
                <!-- Arc -->
                <path d="M658.7206,998.8401 A50.8,50.8 0 0,0 620.6205,1048.027" style="stroke:#000000;stroke-width:0.1;"/>
                <!-- Polyline -->
                <path d="M620.6205,1048.027 L620.6205,1519.5145 L658.7205,1519.5145" style="stroke:#000000;stroke-width:0.1;"/>
                <!-- Polyline -->
                <path d="M1211.1706,1048.027 L1211.1706,1519.5145 L1173.0706,1519.5145" style="stroke:#000000;stroke-width:0.1;"/>
                <!-- Polyline -->
                <path d="M1173.0706,1570.3401 L658.7206,1570.3401 L658.7206,998.8401 L1173.0706,998.8401 Z" style="stroke:#000000;stroke-width:0.1;"/>
                <!-- Hatch -->
                <path d="M1173.0706,998.8401 L658.7206,998.8401 L658.7206,1076.6276 L1173.0706,1076.6276 ZM1173.0706,1076.6276 L658.7206,1076.6276 L658.7206,1570.3401 L1173.0706,1570.3401 Z" style="fill-rule:evenodd;"/>
                <!-- Hatch -->
                <path d="M658.7206,998.8401 A50.8,50.8 0 0 0 620.6205,1048.0271 L620.6205,1519.5145 L658.7206,1519.5145 ZM1211.1706,1048.0268 A50.8,50.8 0 0 0 1173.0706,998.8401 L1173.0706,1519.5145 L1211.1706,1519.5145 L1211.1706,1048.0268" style="fill-rule:evenodd;"/>
            </g>
            <!-- Block Reference: chair_04_top_cad-block.com / entities: 8 -->
            <g>
                <!-- Line -->
                <path d="M1173.0706,2076.6276 L658.7206,2076.6276 " style="stroke:#000000;stroke-width:0.1;"/>
                <!-- Arc -->
                <path d="M1211.1706,2048.027 A50.8,50.8 0 0,0 1173.0706,1998.8401" style="stroke:#000000;stroke-width:0.1;"/>
                <!-- Arc -->
                <path d="M658.7206,1998.8401 A50.8,50.8 0 0,0 620.6205,2048.027" style="stroke:#000000;stroke-width:0.1;"/>
                <!-- Polyline -->
                <path d="M620.6205,2048.027 L620.6205,2519.5145 L658.7205,2519.5145" style="stroke:#000000;stroke-width:0.1;"/>
                <!-- Polyline -->
                <path d="M1211.1706,2048.027 L1211.1706,2519.5145 L1173.0706,2519.5145" style="stroke:#000000;stroke-width:0.1;"/>
                <!-- Polyline -->
                <path d="M1173.0706,2570.3401 L658.7206,2570.3401 L658.7206,1998.8401 L1173.0706,1998.8401 Z" style="stroke:#000000;stroke-width:0.1;"/>
                <!-- Hatch -->
                <path d="M1173.0706,1998.8401 L658.7206,1998.8401 L658.7206,2076.6276 L1173.0706,2076.6276 ZM1173.0706,2076.6276 L658.7206,2076.6276 L658.7206,2570.3401 L1173.0706,2570.3401 Z" style="fill-rule:evenodd;"/>
                <!-- Hatch -->
                <path d="M658.7206,1998.8401 A50.8,50.8 0 0 0 620.6205,2048.0271 L620.6205,2519.5145 L658.7206,2519.5145 ZM1211.1706,2048.0268 A50.8,50.8 0 0 0 1173.0706,1998.8401 L1173.0706,2519.5145 L1211.1706,2519.5145 L1211.1706,2048.0268" style="fill-rule:evenodd;"/>
            </g>
            <!-- Block Reference: chair_04_top_cad-block.com / entities: 8 -->
            <g>
                <!-- Line -->
                <path d="M1173.0706,3076.6276 L658.7206,3076.6276 " style="stroke:#000000;stroke-width:0.1;"/>
                <!-- Arc -->
                <path d="M1211.1706,3048.027 A50.8,50.8 0 0,0 1173.0706,2998.8401" style="stroke:#000000;stroke-width:0.1;"/>
                <!-- Arc -->
                <path d="M658.7206,2998.8401 A50.8,50.8 0 0,0 620.6205,3048.027" style="stroke:#000000;stroke-width:0.1;"/>
                <!-- Polyline -->
                <path d="M620.6205,3048.027 L620.6205,3519.5145 L658.7205,3519.5145" style="stroke:#000000;stroke-width:0.1;"/>
                <!-- Polyline -->
                <path d="M1211.1706,3048.027 L1211.1706,3519.5145 L1173.0706,3519.5145" style="stroke:#000000;stroke-width:0.1;"/>
                <!-- Polyline -->
                <path d="M1173.0706,3570.3401 L658.7206,3570.3401 L658.7206,2998.8401 L1173.0706,2998.8401 Z" style="stroke:#000000;stroke-width:0.1;"/>
                <!-- Hatch -->
                <path d="M1173.0706,2998.8401 L658.7206,2998.8401 L658.7206,3076.6276 L1173.0706,3076.6276 ZM1173.0706,3076.6276 L658.7206,3076.6276 L658.7206,3570.3401 L1173.0706,3570.3401 Z" style="fill-rule:evenodd;"/>
                <!-- Hatch -->
                <path d="M658.7206,2998.8401 A50.8,50.8 0 0 0 620.6205,3048.0271 L620.6205,3519.5145 L658.7206,3519.5145 ZM1211.1706,3048.0268 A50.8,50.8 0 0 0 1173.0706,2998.8401 L1173.0706,3519.5145 L1211.1706,3519.5145 L1211.1706,3048.0268" style="fill-rule:evenodd;"/>
            </g>
            <!-- Block Reference: chair_04_top_cad-block.com / entities: 8 -->
            <g>
                <!-- Line -->
                <path d="M1173.0706,4076.6276 L658.7206,4076.6276 " style="stroke:#000000;stroke-width:0.1;"/>
                <!-- Arc -->
                <path d="M1211.1706,4048.027 A50.8,50.8 0 0,0 1173.0706,3998.8401" style="stroke:#000000;stroke-width:0.1;"/>
                <!-- Arc -->
                <path d="M658.7206,3998.8401 A50.8,50.8 0 0,0 620.6205,4048.027" style="stroke:#000000;stroke-width:0.1;"/>
                <!-- Polyline -->
                <path d="M620.6205,4048.027 L620.6205,4519.5145 L658.7205,4519.5145" style="stroke:#000000;stroke-width:0.1;"/>
                <!-- Polyline -->
                <path d="M1211.1706,4048.027 L1211.1706,4519.5145 L1173.0706,4519.5145" style="stroke:#000000;stroke-width:0.1;"/>
                <!-- Polyline -->
                <path d="M1173.0706,4570.3401 L658.7206,4570.3401 L658.7206,3998.8401 L1173.0706,3998.8401 Z" style="stroke:#000000;stroke-width:0.1;"/>
                <!-- Hatch -->
                <path d="M1173.0706,3998.8401 L658.7206,3998.8401 L658.7206,4076.6276 L1173.0706,4076.6276 ZM1173.0706,4076.6276 L658.7206,4076.6276 L658.7206,4570.3401 L1173.0706,4570.3401 Z" style="fill-rule:evenodd;"/>
                <!-- Hatch -->
                <path d="M658.7206,3998.8401 A50.8,50.8 0 0 0 620.6205,4048.0271 L620.6205,4519.5145 L658.7206,4519.5145 ZM1211.1706,4048.0268 A50.8,50.8 0 0 0 1173.0706,3998.8401 L1173.0706,4519.5145 L1211.1706,4519.5145 L1211.1706,4048.0268" style="fill-rule:evenodd;"/>
            </g>
            <!-- Block Reference: chair_04_top_cad-block.com / entities: 8 -->
            <g>
                <!-- Line -->
                <path d="M1173.0706,5076.6276 L658.7206,5076.6276 " style="stroke:#000000;stroke-width:0.1;"/>
                <!-- Arc -->
                <path d="M1211.1706,5048.027 A50.8,50.8 0 0,0 1173.0706,4998.8401" style="stroke:#000000;stroke-width:0.1;"/>
                <!-- Arc -->
                <path d="M658.7206,4998.8401 A50.8,50.8 0 0,0 620.6205,5048.027" style="stroke:#000000;stroke-width:0.1;"/>
                <!-- Polyline -->
                <path d="M620.6205,5048.027 L620.6205,5519.5145 L658.7205,5519.5145" style="stroke:#000000;stroke-width:0.1;"/>
                <!-- Polyline -->
                <path d="M1211.1706,5048.027 L1211.1706,5519.5145 L1173.0706,5519.5145" style="stroke:#000000;stroke-width:0.1;"/>
                <!-- Polyline -->
                <path d="M1173.0706,5570.3401 L658.7206,5570.3401 L658.7206,4998.8401 L1173.0706,4998.8401 Z" style="stroke:#000000;stroke-width:0.1;"/>
                <!-- Hatch -->
                <path d="M1173.0706,4998.8401 L658.7206,4998.8401 L658.7206,5076.6276 L1173.0706,5076.6276 ZM1173.0706,5076.6276 L658.7206,5076.6276 L658.7206,5570.3401 L1173.0706,5570.3401 Z" style="fill-rule:evenodd;"/>
                <!-- Hatch -->
                <path d="M658.7206,4998.8401 A50.8,50.8 0 0 0 620.6205,5048.0271 L620.6205,5519.5145 L658.7206,5519.5145 ZM1211.1706,5048.0268 A50.8,50.8 0 0 0 1173.0706,4998.8401 L1173.0706,5519.5145 L1211.1706,5519.5145 L1211.1706,5048.0268" style="fill-rule:evenodd;"/>
            </g>
            <!-- Block Reference: chair_04_top_cad-block.com / entities: 8 -->
            <g>
                <!-- Line -->
                <path d="M1173.0706,6076.6276 L658.7206,6076.6276 " style="stroke:#000000;stroke-width:0.1;"/>
                <!-- Arc -->
                <path d="M1211.1706,6048.027 A50.8,50.8 0 0,0 1173.0706,5998.8401" style="stroke:#000000;stroke-width:0.1;"/>
                <!-- Arc -->
                <path d="M658.7206,5998.8401 A50.8,50.8 0 0,0 620.6205,6048.027" style="stroke:#000000;stroke-width:0.1;"/>
                <!-- Polyline -->
                <path d="M620.6205,6048.027 L620.6205,6519.5145 L658.7205,6519.5145" style="stroke:#000000;stroke-width:0.1;"/>
                <!-- Polyline -->
                <path d="M1211.1706,6048.027 L1211.1706,6519.5145 L1173.0706,6519.5145" style="stroke:#000000;stroke-width:0.1;"/>
                <!-- Polyline -->
                <path d="M1173.0706,6570.3401 L658.7206,6570.3401 L658.7206,5998.8401 L1173.0706,5998.8401 Z" style="stroke:#000000;stroke-width:0.1;"/>
                <!-- Hatch -->
                <path d="M1173.0706,5998.8401 L658.7206,5998.8401 L658.7206,6076.6276 L1173.0706,6076.6276 ZM1173.0706,6076.6276 L658.7206,6076.6276 L658.7206,6570.3401 L1173.0706,6570.3401 Z" style="fill-rule:evenodd;"/>
                <!-- Hatch -->
                <path d="M658.7206,5998.8401 A50.8,50.8 0 0 0 620.6205,6048.0271 L620.6205,6519.5145 L658.7206,6519.5145 ZM1211.1706,6048.0268 A50.8,50.8 0 0 0 1173.0706,5998.8401 L1173.0706,6519.5145 L1211.1706,6519.5145 L1211.1706,6048.0268" style="fill-rule:evenodd;"/>
            </g>
            <!-- Block Reference: chair_04_top_cad-block.com / entities: 8 -->
            <g>
                <!-- Line -->
                <path d="M1773.0706,76.6276 L1258.7206,76.6276 " style="stroke:#000000;stroke-width:0.1;"/>
                <!-- Arc -->
                <path d="M1811.1706,48.027 A50.8,50.8 0 0,0 1773.0706,-1.1599" style="stroke:#000000;stroke-width:0.1;"/>
                <!-- Arc -->
                <path d="M1258.7206,-1.1599 A50.8,50.8 0 0,0 1220.6205,48.027" style="stroke:#000000;stroke-width:0.1;"/>
                <!-- Polyline -->
                <path d="M1220.6205,48.027 L1220.6205,519.5145 L1258.7205,519.5145" style="stroke:#000000;stroke-width:0.1;"/>
                <!-- Polyline -->
                <path d="M1811.1706,48.027 L1811.1706,519.5145 L1773.0706,519.5145" style="stroke:#000000;stroke-width:0.1;"/>
                <!-- Polyline -->
                <path d="M1773.0706,570.3401 L1258.7206,570.3401 L1258.7206,-1.1599 L1773.0706,-1.1599 Z" style="stroke:#000000;stroke-width:0.1;"/>
                <!-- Hatch -->
                <path d="M1773.0706,-1.1599 L1258.7206,-1.1599 L1258.7206,76.6276 L1773.0706,76.6276 ZM1773.0706,76.6276 L1258.7206,76.6276 L1258.7206,570.3401 L1773.0706,570.3401 Z" style="fill-rule:evenodd;"/>
                <!-- Hatch -->
                <path d="M1258.7206,-1.1599 A50.8,50.8 0 0 0 1220.6205,48.0271 L1220.6205,519.5145 L1258.7206,519.5145 ZM1811.1706,48.0268 A50.8,50.8 0 0 0 1773.0706,-1.1599 L1773.0706,519.5145 L1811.1706,519.5145 L1811.1706,48.0268" style="fill-rule:evenodd;"/>
            </g>
            <!-- Block Reference: chair_04_top_cad-block.com / entities: 8 -->
            <g>
                <!-- Line -->
                <path d="M1773.0706,1076.6276 L1258.7206,1076.6276 " style="stroke:#000000;stroke-width:0.1;"/>
                <!-- Arc -->
                <path d="M1811.1706,1048.027 A50.8,50.8 0 0,0 1773.0706,998.8401" style="stroke:#000000;stroke-width:0.1;"/>
                <!-- Arc -->
                <path d="M1258.7206,998.8401 A50.8,50.8 0 0,0 1220.6205,1048.027" style="stroke:#000000;stroke-width:0.1;"/>
                <!-- Polyline -->
                <path d="M1220.6205,1048.027 L1220.6205,1519.5145 L1258.7205,1519.5145" style="stroke:#000000;stroke-width:0.1;"/>
                <!-- Polyline -->
                <path d="M1811.1706,1048.027 L1811.1706,1519.5145 L1773.0706,1519.5145" style="stroke:#000000;stroke-width:0.1;"/>
                <!-- Polyline -->
                <path d="M1773.0706,1570.3401 L1258.7206,1570.3401 L1258.7206,998.8401 L1773.0706,998.8401 Z" style="stroke:#000000;stroke-width:0.1;"/>
                <!-- Hatch -->
                <path d="M1773.0706,998.8401 L1258.7206,998.8401 L1258.7206,1076.6276 L1773.0706,1076.6276 ZM1773.0706,1076.6276 L1258.7206,1076.6276 L1258.7206,1570.3401 L1773.0706,1570.3401 Z" style="fill-rule:evenodd;"/>
                <!-- Hatch -->
                <path d="M1258.7206,998.8401 A50.8,50.8 0 0 0 1220.6205,1048.0271 L1220.6205,1519.5145 L1258.7206,1519.5145 ZM1811.1706,1048.0268 A50.8,50.8 0 0 0 1773.0706,998.8401 L1773.0706,1519.5145 L1811.1706,1519.5145 L1811.1706,1048.0268" style="fill-rule:evenodd;"/>
            </g>
            <!-- Block Reference: chair_04_top_cad-block.com / entities: 8 -->
            <g>
                <!-- Line -->
                <path d="M1773.0706,2076.6276 L1258.7206,2076.6276 " style="stroke:#000000;stroke-width:0.1;"/>
                <!-- Arc -->
                <path d="M1811.1706,2048.027 A50.8,50.8 0 0,0 1773.0706,1998.8401" style="stroke:#000000;stroke-width:0.1;"/>
                <!-- Arc -->
                <path d="M1258.7206,1998.8401 A50.8,50.8 0 0,0 1220.6205,2048.027" style="stroke:#000000;stroke-width:0.1;"/>
                <!-- Polyline -->
                <path d="M1220.6205,2048.027 L1220.6205,2519.5145 L1258.7205,2519.5145" style="stroke:#000000;stroke-width:0.1;"/>
                <!-- Polyline -->
                <path d="M1811.1706,2048.027 L1811.1706,2519.5145 L1773.0706,2519.5145" style="stroke:#000000;stroke-width:0.1;"/>
                <!-- Polyline -->
                <path d="M1773.0706,2570.3401 L1258.7206,2570.3401 L1258.7206,1998.8401 L1773.0706,1998.8401 Z" style="stroke:#000000;stroke-width:0.1;"/>
                <!-- Hatch -->
                <path d="M1773.0706,1998.8401 L1258.7206,1998.8401 L1258.7206,2076.6276 L1773.0706,2076.6276 ZM1773.0706,2076.6276 L1258.7206,2076.6276 L1258.7206,2570.3401 L1773.0706,2570.3401 Z" style="fill-rule:evenodd;"/>
                <!-- Hatch -->
                <path d="M1258.7206,1998.8401 A50.8,50.8 0 0 0 1220.6205,2048.0271 L1220.6205,2519.5145 L1258.7206,2519.5145 ZM1811.1706,2048.0268 A50.8,50.8 0 0 0 1773.0706,1998.8401 L1773.0706,2519.5145 L1811.1706,2519.5145 L1811.1706,2048.0268" style="fill-rule:evenodd;"/>
            </g>
            <!-- Block Reference: chair_04_top_cad-block.com / entities: 8 -->
            <g>
                <!-- Line -->
                <path d="M1773.0706,3076.6276 L1258.7206,3076.6276 " style="stroke:#000000;stroke-width:0.1;"/>
                <!-- Arc -->
                <path d="M1811.1706,3048.027 A50.8,50.8 0 0,0 1773.0706,2998.8401" style="stroke:#000000;stroke-width:0.1;"/>
                <!-- Arc -->
                <path d="M1258.7206,2998.8401 A50.8,50.8 0 0,0 1220.6205,3048.027" style="stroke:#000000;stroke-width:0.1;"/>
                <!-- Polyline -->
                <path d="M1220.6205,3048.027 L1220.6205,3519.5145 L1258.7205,3519.5145" style="stroke:#000000;stroke-width:0.1;"/>
                <!-- Polyline -->
                <path d="M1811.1706,3048.027 L1811.1706,3519.5145 L1773.0706,3519.5145" style="stroke:#000000;stroke-width:0.1;"/>
                <!-- Polyline -->
                <path d="M1773.0706,3570.3401 L1258.7206,3570.3401 L1258.7206,2998.8401 L1773.0706,2998.8401 Z" style="stroke:#000000;stroke-width:0.1;"/>
                <!-- Hatch -->
                <path d="M1773.0706,2998.8401 L1258.7206,2998.8401 L1258.7206,3076.6276 L1773.0706,3076.6276 ZM1773.0706,3076.6276 L1258.7206,3076.6276 L1258.7206,3570.3401 L1773.0706,3570.3401 Z" style="fill-rule:evenodd;"/>
                <!-- Hatch -->
                <path d="M1258.7206,2998.8401 A50.8,50.8 0 0 0 1220.6205,3048.0271 L1220.6205,3519.5145 L1258.7206,3519.5145 ZM1811.1706,3048.0268 A50.8,50.8 0 0 0 1773.0706,2998.8401 L1773.0706,3519.5145 L1811.1706,3519.5145 L1811.1706,3048.0268" style="fill-rule:evenodd;"/>
            </g>
            <!-- Block Reference: chair_04_top_cad-block.com / entities: 8 -->
            <g>
                <!-- Line -->
                <path d="M1773.0706,4076.6276 L1258.7206,4076.6276 " style="stroke:#000000;stroke-width:0.1;"/>
                <!-- Arc -->
                <path d="M1811.1706,4048.027 A50.8,50.8 0 0,0 1773.0706,3998.8401" style="stroke:#000000;stroke-width:0.1;"/>
                <!-- Arc -->
                <path d="M1258.7206,3998.8401 A50.8,50.8 0 0,0 1220.6205,4048.027" style="stroke:#000000;stroke-width:0.1;"/>
                <!-- Polyline -->
                <path d="M1220.6205,4048.027 L1220.6205,4519.5145 L1258.7205,4519.5145" style="stroke:#000000;stroke-width:0.1;"/>
                <!-- Polyline -->
                <path d="M1811.1706,4048.027 L1811.1706,4519.5145 L1773.0706,4519.5145" style="stroke:#000000;stroke-width:0.1;"/>
                <!-- Polyline -->
                <path d="M1773.0706,4570.3401 L1258.7206,4570.3401 L1258.7206,3998.8401 L1773.0706,3998.8401 Z" style="stroke:#000000;stroke-width:0.1;"/>
                <!-- Hatch -->
                <path d="M1773.0706,3998.8401 L1258.7206,3998.8401 L1258.7206,4076.6276 L1773.0706,4076.6276 ZM1773.0706,4076.6276 L1258.7206,4076.6276 L1258.7206,4570.3401 L1773.0706,4570.3401 Z" style="fill-rule:evenodd;"/>
                <!-- Hatch -->
                <path d="M1258.7206,3998.8401 A50.8,50.8 0 0 0 1220.6205,4048.0271 L1220.6205,4519.5145 L1258.7206,4519.5145 ZM1811.1706,4048.0268 A50.8,50.8 0 0 0 1773.0706,3998.8401 L1773.0706,4519.5145 L1811.1706,4519.5145 L1811.1706,4048.0268" style="fill-rule:evenodd;"/>
            </g>
            <!-- Block Reference: chair_04_top_cad-block.com / entities: 8 -->
            <g>
                <!-- Line -->
                <path d="M1773.0706,5076.6276 L1258.7206,5076.6276 " style="stroke:#000000;stroke-width:0.1;"/>
                <!-- Arc -->
                <path d="M1811.1706,5048.027 A50.8,50.8 0 0,0 1773.0706,4998.8401" style="stroke:#000000;stroke-width:0.1;"/>
                <!-- Arc -->
                <path d="M1258.7206,4998.8401 A50.8,50.8 0 0,0 1220.6205,5048.027" style="stroke:#000000;stroke-width:0.1;"/>
                <!-- Polyline -->
                <path d="M1220.6205,5048.027 L1220.6205,5519.5145 L1258.7205,5519.5145" style="stroke:#000000;stroke-width:0.1;"/>
                <!-- Polyline -->
                <path d="M1811.1706,5048.027 L1811.1706,5519.5145 L1773.0706,5519.5145" style="stroke:#000000;stroke-width:0.1;"/>
                <!-- Polyline -->
                <path d="M1773.0706,5570.3401 L1258.7206,5570.3401 L1258.7206,4998.8401 L1773.0706,4998.8401 Z" style="stroke:#000000;stroke-width:0.1;"/>
                <!-- Hatch -->
                <path d="M1773.0706,4998.8401 L1258.7206,4998.8401 L1258.7206,5076.6276 L1773.0706,5076.6276 ZM1773.0706,5076.6276 L1258.7206,5076.6276 L1258.7206,5570.3401 L1773.0706,5570.3401 Z" style="fill-rule:evenodd;"/>
                <!-- Hatch -->
                <path d="M1258.7206,4998.8401 A50.8,50.8 0 0 0 1220.6205,5048.0271 L1220.6205,5519.5145 L1258.7206,5519.5145 ZM1811.1706,5048.0268 A50.8,50.8 0 0 0 1773.0706,4998.8401 L1773.0706,5519.5145 L1811.1706,5519.5145 L1811.1706,5048.0268" style="fill-rule:evenodd;"/>
            </g>
            <!-- Block Reference: chair_04_top_cad-block.com / entities: 8 -->
            <g>
                <!-- Line -->
                <path d="M1773.0706,6076.6276 L1258.7206,6076.6276 " style="stroke:#000000;stroke-width:0.1;"/>
                <!-- Arc -->
                <path d="M1811.1706,6048.027 A50.8,50.8 0 0,0 1773.0706,5998.8401" style="stroke:#000000;stroke-width:0.1;"/>
                <!-- Arc -->
                <path d="M1258.7206,5998.8401 A50.8,50.8 0 0,0 1220.6205,6048.027" style="stroke:#000000;stroke-width:0.1;"/>
                <!-- Polyline -->
                <path d="M1220.6205,6048.027 L1220.6205,6519.5145 L1258.7205,6519.5145" style="stroke:#000000;stroke-width:0.1;"/>
                <!-- Polyline -->
                <path d="M1811.1706,6048.027 L1811.1706,6519.5145 L1773.0706,6519.5145" style="stroke:#000000;stroke-width:0.1;"/>
                <!-- Polyline -->
                <path d="M1773.0706,6570.3401 L1258.7206,6570.3401 L1258.7206,5998.8401 L1773.0706,5998.8401 Z" style="stroke:#000000;stroke-width:0.1;"/>
                <!-- Hatch -->
                <path d="M1773.0706,5998.8401 L1258.7206,5998.8401 L1258.7206,6076.6276 L1773.0706,6076.6276 ZM1773.0706,6076.6276 L1258.7206,6076.6276 L1258.7206,6570.3401 L1773.0706,6570.3401 Z" style="fill-rule:evenodd;"/>
                <!-- Hatch -->
                <path d="M1258.7206,5998.8401 A50.8,50.8 0 0 0 1220.6205,6048.0271 L1220.6205,6519.5145 L1258.7206,6519.5145 ZM1811.1706,6048.0268 A50.8,50.8 0 0 0 1773.0706,5998.8401 L1773.0706,6519.5145 L1811.1706,6519.5145 L1811.1706,6048.0268" style="fill-rule:evenodd;"/>
            </g>
            <!-- Block Reference: chair_04_top_cad-block.com / entities: 8 -->
            <g>
                <!-- Line -->
                <path d="M2373.0706,76.6276 L1858.7206,76.6276 " style="stroke:#000000;stroke-width:0.1;"/>
                <!-- Arc -->
                <path d="M2411.1706,48.027 A50.8,50.8 0 0,0 2373.0706,-1.1599" style="stroke:#000000;stroke-width:0.1;"/>
                <!-- Arc -->
                <path d="M1858.7206,-1.1599 A50.8,50.8 0 0,0 1820.6205,48.027" style="stroke:#000000;stroke-width:0.1;"/>
                <!-- Polyline -->
                <path d="M1820.6205,48.027 L1820.6205,519.5145 L1858.7205,519.5145" style="stroke:#000000;stroke-width:0.1;"/>
                <!-- Polyline -->
                <path d="M2411.1706,48.027 L2411.1706,519.5145 L2373.0706,519.5145" style="stroke:#000000;stroke-width:0.1;"/>
                <!-- Polyline -->
                <path d="M2373.0706,570.3401 L1858.7206,570.3401 L1858.7206,-1.1599 L2373.0706,-1.1599 Z" style="stroke:#000000;stroke-width:0.1;"/>
                <!-- Hatch -->
                <path d="M2373.0706,-1.1599 L1858.7206,-1.1599 L1858.7206,76.6276 L2373.0706,76.6276 ZM2373.0706,76.6276 L1858.7206,76.6276 L1858.7206,570.3401 L2373.0706,570.3401 Z" style="fill-rule:evenodd;"/>
                <!-- Hatch -->
                <path d="M1858.7206,-1.1599 A50.8,50.8 0 0 0 1820.6205,48.0271 L1820.6205,519.5145 L1858.7206,519.5145 ZM2411.1706,48.0268 A50.8,50.8 0 0 0 2373.0706,-1.1599 L2373.0706,519.5145 L2411.1706,519.5145 L2411.1706,48.0268" style="fill-rule:evenodd;"/>
            </g>
            <!-- Block Reference: chair_04_top_cad-block.com / entities: 8 -->
            <g>
                <!-- Line -->
                <path d="M2373.0706,1076.6276 L1858.7206,1076.6276 " style="stroke:#000000;stroke-width:0.1;"/>
                <!-- Arc -->
                <path d="M2411.1706,1048.027 A50.8,50.8 0 0,0 2373.0706,998.8401" style="stroke:#000000;stroke-width:0.1;"/>
                <!-- Arc -->
                <path d="M1858.7206,998.8401 A50.8,50.8 0 0,0 1820.6205,1048.027" style="stroke:#000000;stroke-width:0.1;"/>
                <!-- Polyline -->
                <path d="M1820.6205,1048.027 L1820.6205,1519.5145 L1858.7205,1519.5145" style="stroke:#000000;stroke-width:0.1;"/>
                <!-- Polyline -->
                <path d="M2411.1706,1048.027 L2411.1706,1519.5145 L2373.0706,1519.5145" style="stroke:#000000;stroke-width:0.1;"/>
                <!-- Polyline -->
                <path d="M2373.0706,1570.3401 L1858.7206,1570.3401 L1858.7206,998.8401 L2373.0706,998.8401 Z" style="stroke:#000000;stroke-width:0.1;"/>
                <!-- Hatch -->
                <path d="M2373.0706,998.8401 L1858.7206,998.8401 L1858.7206,1076.6276 L2373.0706,1076.6276 ZM2373.0706,1076.6276 L1858.7206,1076.6276 L1858.7206,1570.3401 L2373.0706,1570.3401 Z" style="fill-rule:evenodd;"/>
                <!-- Hatch -->
                <path d="M1858.7206,998.8401 A50.8,50.8 0 0 0 1820.6205,1048.0271 L1820.6205,1519.5145 L1858.7206,1519.5145 ZM2411.1706,1048.0268 A50.8,50.8 0 0 0 2373.0706,998.8401 L2373.0706,1519.5145 L2411.1706,1519.5145 L2411.1706,1048.0268" style="fill-rule:evenodd;"/>
            </g>
            <!-- Block Reference: chair_04_top_cad-block.com / entities: 8 -->
            <g>
                <!-- Line -->
                <path d="M2373.0706,2076.6276 L1858.7206,2076.6276 " style="stroke:#000000;stroke-width:0.1;"/>
                <!-- Arc -->
                <path d="M2411.1706,2048.027 A50.8,50.8 0 0,0 2373.0706,1998.8401" style="stroke:#000000;stroke-width:0.1;"/>
                <!-- Arc -->
                <path d="M1858.7206,1998.8401 A50.8,50.8 0 0,0 1820.6205,2048.027" style="stroke:#000000;stroke-width:0.1;"/>
                <!-- Polyline -->
                <path d="M1820.6205,2048.027 L1820.6205,2519.5145 L1858.7205,2519.5145" style="stroke:#000000;stroke-width:0.1;"/>
                <!-- Polyline -->
                <path d="M2411.1706,2048.027 L2411.1706,2519.5145 L2373.0706,2519.5145" style="stroke:#000000;stroke-width:0.1;"/>
                <!-- Polyline -->
                <path d="M2373.0706,2570.3401 L1858.7206,2570.3401 L1858.7206,1998.8401 L2373.0706,1998.8401 Z" style="stroke:#000000;stroke-width:0.1;"/>
                <!-- Hatch -->
                <path d="M2373.0706,1998.8401 L1858.7206,1998.8401 L1858.7206,2076.6276 L2373.0706,2076.6276 ZM2373.0706,2076.6276 L1858.7206,2076.6276 L1858.7206,2570.3401 L2373.0706,2570.3401 Z" style="fill-rule:evenodd;"/>
                <!-- Hatch -->
                <path d="M1858.7206,1998.8401 A50.8,50.8 0 0 0 1820.6205,2048.0271 L1820.6205,2519.5145 L1858.7206,2519.5145 ZM2411.1706,2048.0268 A50.8,50.8 0 0 0 2373.0706,1998.8401 L2373.0706,2519.5145 L2411.1706,2519.5145 L2411.1706,2048.0268" style="fill-rule:evenodd;"/>
            </g>
            <!-- Block Reference: chair_04_top_cad-block.com / entities: 8 -->
            <g>
                <!-- Line -->
                <path d="M2373.0706,3076.6276 L1858.7206,3076.6276 " style="stroke:#000000;stroke-width:0.1;"/>
                <!-- Arc -->
                <path d="M2411.1706,3048.027 A50.8,50.8 0 0,0 2373.0706,2998.8401" style="stroke:#000000;stroke-width:0.1;"/>
                <!-- Arc -->
                <path d="M1858.7206,2998.8401 A50.8,50.8 0 0,0 1820.6205,3048.027" style="stroke:#000000;stroke-width:0.1;"/>
                <!-- Polyline -->
                <path d="M1820.6205,3048.027 L1820.6205,3519.5145 L1858.7205,3519.5145" style="stroke:#000000;stroke-width:0.1;"/>
                <!-- Polyline -->
                <path d="M2411.1706,3048.027 L2411.1706,3519.5145 L2373.0706,3519.5145" style="stroke:#000000;stroke-width:0.1;"/>
                <!-- Polyline -->
                <path d="M2373.0706,3570.3401 L1858.7206,3570.3401 L1858.7206,2998.8401 L2373.0706,2998.8401 Z" style="stroke:#000000;stroke-width:0.1;"/>
                <!-- Hatch -->
                <path d="M2373.0706,2998.8401 L1858.7206,2998.8401 L1858.7206,3076.6276 L2373.0706,3076.6276 ZM2373.0706,3076.6276 L1858.7206,3076.6276 L1858.7206,3570.3401 L2373.0706,3570.3401 Z" style="fill-rule:evenodd;"/>
                <!-- Hatch -->
                <path d="M1858.7206,2998.8401 A50.8,50.8 0 0 0 1820.6205,3048.0271 L1820.6205,3519.5145 L1858.7206,3519.5145 ZM2411.1706,3048.0268 A50.8,50.8 0 0 0 2373.0706,2998.8401 L2373.0706,3519.5145 L2411.1706,3519.5145 L2411.1706,3048.0268" style="fill-rule:evenodd;"/>
            </g>
            <!-- Block Reference: chair_04_top_cad-block.com / entities: 8 -->
            <g>
                <!-- Line -->
                <path d="M2373.0706,4076.6276 L1858.7206,4076.6276 " style="stroke:#000000;stroke-width:0.1;"/>
                <!-- Arc -->
                <path d="M2411.1706,4048.027 A50.8,50.8 0 0,0 2373.0706,3998.8401" style="stroke:#000000;stroke-width:0.1;"/>
                <!-- Arc -->
                <path d="M1858.7206,3998.8401 A50.8,50.8 0 0,0 1820.6205,4048.027" style="stroke:#000000;stroke-width:0.1;"/>
                <!-- Polyline -->
                <path d="M1820.6205,4048.027 L1820.6205,4519.5145 L1858.7205,4519.5145" style="stroke:#000000;stroke-width:0.1;"/>
                <!-- Polyline -->
                <path d="M2411.1706,4048.027 L2411.1706,4519.5145 L2373.0706,4519.5145" style="stroke:#000000;stroke-width:0.1;"/>
                <!-- Polyline -->
                <path d="M2373.0706,4570.3401 L1858.7206,4570.3401 L1858.7206,3998.8401 L2373.0706,3998.8401 Z" style="stroke:#000000;stroke-width:0.1;"/>
                <!-- Hatch -->
                <path d="M2373.0706,3998.8401 L1858.7206,3998.8401 L1858.7206,4076.6276 L2373.0706,4076.6276 ZM2373.0706,4076.6276 L1858.7206,4076.6276 L1858.7206,4570.3401 L2373.0706,4570.3401 Z" style="fill-rule:evenodd;"/>
                <!-- Hatch -->
                <path d="M1858.7206,3998.8401 A50.8,50.8 0 0 0 1820.6205,4048.0271 L1820.6205,4519.5145 L1858.7206,4519.5145 ZM2411.1706,4048.0268 A50.8,50.8 0 0 0 2373.0706,3998.8401 L2373.0706,4519.5145 L2411.1706,4519.5145 L2411.1706,4048.0268" style="fill-rule:evenodd;"/>
            </g>
            <!-- Block Reference: chair_04_top_cad-block.com / entities: 8 -->
            <g>
                <!-- Line -->
                <path d="M2373.0706,5076.6276 L1858.7206,5076.6276 " style="stroke:#000000;stroke-width:0.1;"/>
                <!-- Arc -->
                <path d="M2411.1706,5048.027 A50.8,50.8 0 0,0 2373.0706,4998.8401" style="stroke:#000000;stroke-width:0.1;"/>
                <!-- Arc -->
                <path d="M1858.7206,4998.8401 A50.8,50.8 0 0,0 1820.6205,5048.027" style="stroke:#000000;stroke-width:0.1;"/>
                <!-- Polyline -->
                <path d="M1820.6205,5048.027 L1820.6205,5519.5145 L1858.7205,5519.5145" style="stroke:#000000;stroke-width:0.1;"/>
                <!-- Polyline -->
                <path d="M2411.1706,5048.027 L2411.1706,5519.5145 L2373.0706,5519.5145" style="stroke:#000000;stroke-width:0.1;"/>
                <!-- Polyline -->
                <path d="M2373.0706,5570.3401 L1858.7206,5570.3401 L1858.7206,4998.8401 L2373.0706,4998.8401 Z" style="stroke:#000000;stroke-width:0.1;"/>
                <!-- Hatch -->
                <path d="M2373.0706,4998.8401 L1858.7206,4998.8401 L1858.7206,5076.6276 L2373.0706,5076.6276 ZM2373.0706,5076.6276 L1858.7206,5076.6276 L1858.7206,5570.3401 L2373.0706,5570.3401 Z" style="fill-rule:evenodd;"/>
                <!-- Hatch -->
                <path d="M1858.7206,4998.8401 A50.8,50.8 0 0 0 1820.6205,5048.0271 L1820.6205,5519.5145 L1858.7206,5519.5145 ZM2411.1706,5048.0268 A50.8,50.8 0 0 0 2373.0706,4998.8401 L2373.0706,5519.5145 L2411.1706,5519.5145 L2411.1706,5048.0268" style="fill-rule:evenodd;"/>
            </g>
            <!-- Block Reference: chair_04_top_cad-block.com / entities: 8 -->
            <g>
                <!-- Line -->
                <path d="M2373.0706,6076.6276 L1858.7206,6076.6276 " style="stroke:#000000;stroke-width:0.1;"/>
                <!-- Arc -->
                <path d="M2411.1706,6048.027 A50.8,50.8 0 0,0 2373.0706,5998.8401" style="stroke:#000000;stroke-width:0.1;"/>
                <!-- Arc -->
                <path d="M1858.7206,5998.8401 A50.8,50.8 0 0,0 1820.6205,6048.027" style="stroke:#000000;stroke-width:0.1;"/>
                <!-- Polyline -->
                <path d="M1820.6205,6048.027 L1820.6205,6519.5145 L1858.7205,6519.5145" style="stroke:#000000;stroke-width:0.1;"/>
                <!-- Polyline -->
                <path d="M2411.1706,6048.027 L2411.1706,6519.5145 L2373.0706,6519.5145" style="stroke:#000000;stroke-width:0.1;"/>
                <!-- Polyline -->
                <path d="M2373.0706,6570.3401 L1858.7206,6570.3401 L1858.7206,5998.8401 L2373.0706,5998.8401 Z" style="stroke:#000000;stroke-width:0.1;"/>
                <!-- Hatch -->
                <path d="M2373.0706,5998.8401 L1858.7206,5998.8401 L1858.7206,6076.6276 L2373.0706,6076.6276 ZM2373.0706,6076.6276 L1858.7206,6076.6276 L1858.7206,6570.3401 L2373.0706,6570.3401 Z" style="fill-rule:evenodd;"/>
                <!-- Hatch -->
                <path d="M1858.7206,5998.8401 A50.8,50.8 0 0 0 1820.6205,6048.0271 L1820.6205,6519.5145 L1858.7206,6519.5145 ZM2411.1706,6048.0268 A50.8,50.8 0 0 0 2373.0706,5998.8401 L2373.0706,6519.5145 L2411.1706,6519.5145 L2411.1706,6048.0268" style="fill-rule:evenodd;"/>
            </g>
            <!-- Block Reference: chair_04_top_cad-block.com / entities: 8 -->
            <g>
                <!-- Line -->
                <path d="M2973.0706,76.6276 L2458.7206,76.6276 " style="stroke:#000000;stroke-width:0.1;"/>
                <!-- Arc -->
                <path d="M3011.1706,48.027 A50.8,50.8 0 0,0 2973.0706,-1.1599" style="stroke:#000000;stroke-width:0.1;"/>
                <!-- Arc -->
                <path d="M2458.7206,-1.1599 A50.8,50.8 0 0,0 2420.6205,48.027" style="stroke:#000000;stroke-width:0.1;"/>
                <!-- Polyline -->
                <path d="M2420.6205,48.027 L2420.6205,519.5145 L2458.7205,519.5145" style="stroke:#000000;stroke-width:0.1;"/>
                <!-- Polyline -->
                <path d="M3011.1706,48.027 L3011.1706,519.5145 L2973.0706,519.5145" style="stroke:#000000;stroke-width:0.1;"/>
                <!-- Polyline -->
                <path d="M2973.0706,570.3401 L2458.7206,570.3401 L2458.7206,-1.1599 L2973.0706,-1.1599 Z" style="stroke:#000000;stroke-width:0.1;"/>
                <!-- Hatch -->
                <path d="M2973.0706,-1.1599 L2458.7206,-1.1599 L2458.7206,76.6276 L2973.0706,76.6276 ZM2973.0706,76.6276 L2458.7206,76.6276 L2458.7206,570.3401 L2973.0706,570.3401 Z" style="fill-rule:evenodd;"/>
                <!-- Hatch -->
                <path d="M2458.7206,-1.1599 A50.8,50.8 0 0 0 2420.6205,48.0271 L2420.6205,519.5145 L2458.7206,519.5145 ZM3011.1706,48.0268 A50.8,50.8 0 0 0 2973.0706,-1.1599 L2973.0706,519.5145 L3011.1706,519.5145 L3011.1706,48.0268" style="fill-rule:evenodd;"/>
            </g>
            <!-- Block Reference: chair_04_top_cad-block.com / entities: 8 -->
            <g>
                <!-- Line -->
                <path d="M2973.0706,1076.6276 L2458.7206,1076.6276 " style="stroke:#000000;stroke-width:0.1;"/>
                <!-- Arc -->
                <path d="M3011.1706,1048.027 A50.8,50.8 0 0,0 2973.0706,998.8401" style="stroke:#000000;stroke-width:0.1;"/>
                <!-- Arc -->
                <path d="M2458.7206,998.8401 A50.8,50.8 0 0,0 2420.6205,1048.027" style="stroke:#000000;stroke-width:0.1;"/>
                <!-- Polyline -->
                <path d="M2420.6205,1048.027 L2420.6205,1519.5145 L2458.7205,1519.5145" style="stroke:#000000;stroke-width:0.1;"/>
                <!-- Polyline -->
                <path d="M3011.1706,1048.027 L3011.1706,1519.5145 L2973.0706,1519.5145" style="stroke:#000000;stroke-width:0.1;"/>
                <!-- Polyline -->
                <path d="M2973.0706,1570.3401 L2458.7206,1570.3401 L2458.7206,998.8401 L2973.0706,998.8401 Z" style="stroke:#000000;stroke-width:0.1;"/>
                <!-- Hatch -->
                <path d="M2973.0706,998.8401 L2458.7206,998.8401 L2458.7206,1076.6276 L2973.0706,1076.6276 ZM2973.0706,1076.6276 L2458.7206,1076.6276 L2458.7206,1570.3401 L2973.0706,1570.3401 Z" style="fill-rule:evenodd;"/>
                <!-- Hatch -->
                <path d="M2458.7206,998.8401 A50.8,50.8 0 0 0 2420.6205,1048.0271 L2420.6205,1519.5145 L2458.7206,1519.5145 ZM3011.1706,1048.0268 A50.8,50.8 0 0 0 2973.0706,998.8401 L2973.0706,1519.5145 L3011.1706,1519.5145 L3011.1706,1048.0268" style="fill-rule:evenodd;"/>
            </g>
            <!-- Block Reference: chair_04_top_cad-block.com / entities: 8 -->
            <g>
                <!-- Line -->
                <path d="M2973.0706,2076.6276 L2458.7206,2076.6276 " style="stroke:#000000;stroke-width:0.1;"/>
                <!-- Arc -->
                <path d="M3011.1706,2048.027 A50.8,50.8 0 0,0 2973.0706,1998.8401" style="stroke:#000000;stroke-width:0.1;"/>
                <!-- Arc -->
                <path d="M2458.7206,1998.8401 A50.8,50.8 0 0,0 2420.6205,2048.027" style="stroke:#000000;stroke-width:0.1;"/>
                <!-- Polyline -->
                <path d="M2420.6205,2048.027 L2420.6205,2519.5145 L2458.7205,2519.5145" style="stroke:#000000;stroke-width:0.1;"/>
                <!-- Polyline -->
                <path d="M3011.1706,2048.027 L3011.1706,2519.5145 L2973.0706,2519.5145" style="stroke:#000000;stroke-width:0.1;"/>
                <!-- Polyline -->
                <path d="M2973.0706,2570.3401 L2458.7206,2570.3401 L2458.7206,1998.8401 L2973.0706,1998.8401 Z" style="stroke:#000000;stroke-width:0.1;"/>
                <!-- Hatch -->
                <path d="M2973.0706,1998.8401 L2458.7206,1998.8401 L2458.7206,2076.6276 L2973.0706,2076.6276 ZM2973.0706,2076.6276 L2458.7206,2076.6276 L2458.7206,2570.3401 L2973.0706,2570.3401 Z" style="fill-rule:evenodd;"/>
                <!-- Hatch -->
                <path d="M2458.7206,1998.8401 A50.8,50.8 0 0 0 2420.6205,2048.0271 L2420.6205,2519.5145 L2458.7206,2519.5145 ZM3011.1706,2048.0268 A50.8,50.8 0 0 0 2973.0706,1998.8401 L2973.0706,2519.5145 L3011.1706,2519.5145 L3011.1706,2048.0268" style="fill-rule:evenodd;"/>
            </g>
            <!-- Block Reference: chair_04_top_cad-block.com / entities: 8 -->
            <g>
                <!-- Line -->
                <path d="M2973.0706,3076.6276 L2458.7206,3076.6276 " style="stroke:#000000;stroke-width:0.1;"/>
                <!-- Arc -->
                <path d="M3011.1706,3048.027 A50.8,50.8 0 0,0 2973.0706,2998.8401" style="stroke:#000000;stroke-width:0.1;"/>
                <!-- Arc -->
                <path d="M2458.7206,2998.8401 A50.8,50.8 0 0,0 2420.6205,3048.027" style="stroke:#000000;stroke-width:0.1;"/>
                <!-- Polyline -->
                <path d="M2420.6205,3048.027 L2420.6205,3519.5145 L2458.7205,3519.5145" style="stroke:#000000;stroke-width:0.1;"/>
                <!-- Polyline -->
                <path d="M3011.1706,3048.027 L3011.1706,3519.5145 L2973.0706,3519.5145" style="stroke:#000000;stroke-width:0.1;"/>
                <!-- Polyline -->
                <path d="M2973.0706,3570.3401 L2458.7206,3570.3401 L2458.7206,2998.8401 L2973.0706,2998.8401 Z" style="stroke:#000000;stroke-width:0.1;"/>
                <!-- Hatch -->
                <path d="M2973.0706,2998.8401 L2458.7206,2998.8401 L2458.7206,3076.6276 L2973.0706,3076.6276 ZM2973.0706,3076.6276 L2458.7206,3076.6276 L2458.7206,3570.3401 L2973.0706,3570.3401 Z" style="fill-rule:evenodd;"/>
                <!-- Hatch -->
                <path d="M2458.7206,2998.8401 A50.8,50.8 0 0 0 2420.6205,3048.0271 L2420.6205,3519.5145 L2458.7206,3519.5145 ZM3011.1706,3048.0268 A50.8,50.8 0 0 0 2973.0706,2998.8401 L2973.0706,3519.5145 L3011.1706,3519.5145 L3011.1706,3048.0268" style="fill-rule:evenodd;"/>
            </g>
            <!-- Block Reference: chair_04_top_cad-block.com / entities: 8 -->
            <g>
                <!-- Line -->
                <path d="M2973.0706,4076.6276 L2458.7206,4076.6276 " style="stroke:#000000;stroke-width:0.1;"/>
                <!-- Arc -->
                <path d="M3011.1706,4048.027 A50.8,50.8 0 0,0 2973.0706,3998.8401" style="stroke:#000000;stroke-width:0.1;"/>
                <!-- Arc -->
                <path d="M2458.7206,3998.8401 A50.8,50.8 0 0,0 2420.6205,4048.027" style="stroke:#000000;stroke-width:0.1;"/>
                <!-- Polyline -->
                <path d="M2420.6205,4048.027 L2420.6205,4519.5145 L2458.7205,4519.5145" style="stroke:#000000;stroke-width:0.1;"/>
                <!-- Polyline -->
                <path d="M3011.1706,4048.027 L3011.1706,4519.5145 L2973.0706,4519.5145" style="stroke:#000000;stroke-width:0.1;"/>
                <!-- Polyline -->
                <path d="M2973.0706,4570.3401 L2458.7206,4570.3401 L2458.7206,3998.8401 L2973.0706,3998.8401 Z" style="stroke:#000000;stroke-width:0.1;"/>
                <!-- Hatch -->
                <path d="M2973.0706,3998.8401 L2458.7206,3998.8401 L2458.7206,4076.6276 L2973.0706,4076.6276 ZM2973.0706,4076.6276 L2458.7206,4076.6276 L2458.7206,4570.3401 L2973.0706,4570.3401 Z" style="fill-rule:evenodd;"/>
                <!-- Hatch -->
                <path d="M2458.7206,3998.8401 A50.8,50.8 0 0 0 2420.6205,4048.0271 L2420.6205,4519.5145 L2458.7206,4519.5145 ZM3011.1706,4048.0268 A50.8,50.8 0 0 0 2973.0706,3998.8401 L2973.0706,4519.5145 L3011.1706,4519.5145 L3011.1706,4048.0268" style="fill-rule:evenodd;"/>
            </g>
            <!-- Block Reference: chair_04_top_cad-block.com / entities: 8 -->
            <g>
                <!-- Line -->
                <path d="M2973.0706,5076.6276 L2458.7206,5076.6276 " style="stroke:#000000;stroke-width:0.1;"/>
                <!-- Arc -->
                <path d="M3011.1706,5048.027 A50.8,50.8 0 0,0 2973.0706,4998.8401" style="stroke:#000000;stroke-width:0.1;"/>
                <!-- Arc -->
                <path d="M2458.7206,4998.8401 A50.8,50.8 0 0,0 2420.6205,5048.027" style="stroke:#000000;stroke-width:0.1;"/>
                <!-- Polyline -->
                <path d="M2420.6205,5048.027 L2420.6205,5519.5145 L2458.7205,5519.5145" style="stroke:#000000;stroke-width:0.1;"/>
                <!-- Polyline -->
                <path d="M3011.1706,5048.027 L3011.1706,5519.5145 L2973.0706,5519.5145" style="stroke:#000000;stroke-width:0.1;"/>
                <!-- Polyline -->
                <path d="M2973.0706,5570.3401 L2458.7206,5570.3401 L2458.7206,4998.8401 L2973.0706,4998.8401 Z" style="stroke:#000000;stroke-width:0.1;"/>
                <!-- Hatch -->
                <path d="M2973.0706,4998.8401 L2458.7206,4998.8401 L2458.7206,5076.6276 L2973.0706,5076.6276 ZM2973.0706,5076.6276 L2458.7206,5076.6276 L2458.7206,5570.3401 L2973.0706,5570.3401 Z" style="fill-rule:evenodd;"/>
                <!-- Hatch -->
                <path d="M2458.7206,4998.8401 A50.8,50.8 0 0 0 2420.6205,5048.0271 L2420.6205,5519.5145 L2458.7206,5519.5145 ZM3011.1706,5048.0268 A50.8,50.8 0 0 0 2973.0706,4998.8401 L2973.0706,5519.5145 L3011.1706,5519.5145 L3011.1706,5048.0268" style="fill-rule:evenodd;"/>
            </g>
            <!-- Block Reference: chair_04_top_cad-block.com / entities: 8 -->
            <g>
                <!-- Line -->
                <path d="M2973.0706,6076.6276 L2458.7206,6076.6276 " style="stroke:#000000;stroke-width:0.1;"/>
                <!-- Arc -->
                <path d="M3011.1706,6048.027 A50.8,50.8 0 0,0 2973.0706,5998.8401" style="stroke:#000000;stroke-width:0.1;"/>
                <!-- Arc -->
                <path d="M2458.7206,5998.8401 A50.8,50.8 0 0,0 2420.6205,6048.027" style="stroke:#000000;stroke-width:0.1;"/>
                <!-- Polyline -->
                <path d="M2420.6205,6048.027 L2420.6205,6519.5145 L2458.7205,6519.5145" style="stroke:#000000;stroke-width:0.1;"/>
                <!-- Polyline -->
                <path d="M3011.1706,6048.027 L3011.1706,6519.5145 L2973.0706,6519.5145" style="stroke:#000000;stroke-width:0.1;"/>
                <!-- Polyline -->
                <path d="M2973.0706,6570.3401 L2458.7206,6570.3401 L2458.7206,5998.8401 L2973.0706,5998.8401 Z" style="stroke:#000000;stroke-width:0.1;"/>
                <!-- Hatch -->
                <path d="M2973.0706,5998.8401 L2458.7206,5998.8401 L2458.7206,6076.6276 L2973.0706,6076.6276 ZM2973.0706,6076.6276 L2458.7206,6076.6276 L2458.7206,6570.3401 L2973.0706,6570.3401 Z" style="fill-rule:evenodd;"/>
                <!-- Hatch -->
                <path d="M2458.7206,5998.8401 A50.8,50.8 0 0 0 2420.6205,6048.0271 L2420.6205,6519.5145 L2458.7206,6519.5145 ZM3011.1706,6048.0268 A50.8,50.8 0 0 0 2973.0706,5998.8401 L2973.0706,6519.5145 L3011.1706,6519.5145 L3011.1706,6048.0268" style="fill-rule:evenodd;"/>
            </g>
            <!-- Block Reference: chair_04_top_cad-block.com / entities: 8 -->
            <g>
                <!-- Line -->
                <path d="M3573.0706,76.6276 L3058.7206,76.6276 " style="stroke:#000000;stroke-width:0.1;"/>
                <!-- Arc -->
                <path d="M3611.1706,48.027 A50.8,50.8 0 0,0 3573.0706,-1.1599" style="stroke:#000000;stroke-width:0.1;"/>
                <!-- Arc -->
                <path d="M3058.7206,-1.1599 A50.8,50.8 0 0,0 3020.6205,48.027" style="stroke:#000000;stroke-width:0.1;"/>
                <!-- Polyline -->
                <path d="M3020.6205,48.027 L3020.6205,519.5145 L3058.7205,519.5145" style="stroke:#000000;stroke-width:0.1;"/>
                <!-- Polyline -->
                <path d="M3611.1706,48.027 L3611.1706,519.5145 L3573.0706,519.5145" style="stroke:#000000;stroke-width:0.1;"/>
                <!-- Polyline -->
                <path d="M3573.0706,570.3401 L3058.7206,570.3401 L3058.7206,-1.1599 L3573.0706,-1.1599 Z" style="stroke:#000000;stroke-width:0.1;"/>
                <!-- Hatch -->
                <path d="M3573.0706,-1.1599 L3058.7206,-1.1599 L3058.7206,76.6276 L3573.0706,76.6276 ZM3573.0706,76.6276 L3058.7206,76.6276 L3058.7206,570.3401 L3573.0706,570.3401 Z" style="fill-rule:evenodd;"/>
                <!-- Hatch -->
                <path d="M3058.7206,-1.1599 A50.8,50.8 0 0 0 3020.6205,48.0271 L3020.6205,519.5145 L3058.7206,519.5145 ZM3611.1706,48.0268 A50.8,50.8 0 0 0 3573.0706,-1.1599 L3573.0706,519.5145 L3611.1706,519.5145 L3611.1706,48.0268" style="fill-rule:evenodd;"/>
            </g>
            <!-- Block Reference: chair_04_top_cad-block.com / entities: 8 -->
            <g>
                <!-- Line -->
                <path d="M3573.0706,1076.6276 L3058.7206,1076.6276 " style="stroke:#000000;stroke-width:0.1;"/>
                <!-- Arc -->
                <path d="M3611.1706,1048.027 A50.8,50.8 0 0,0 3573.0706,998.8401" style="stroke:#000000;stroke-width:0.1;"/>
                <!-- Arc -->
                <path d="M3058.7206,998.8401 A50.8,50.8 0 0,0 3020.6205,1048.027" style="stroke:#000000;stroke-width:0.1;"/>
                <!-- Polyline -->
                <path d="M3020.6205,1048.027 L3020.6205,1519.5145 L3058.7205,1519.5145" style="stroke:#000000;stroke-width:0.1;"/>
                <!-- Polyline -->
                <path d="M3611.1706,1048.027 L3611.1706,1519.5145 L3573.0706,1519.5145" style="stroke:#000000;stroke-width:0.1;"/>
                <!-- Polyline -->
                <path d="M3573.0706,1570.3401 L3058.7206,1570.3401 L3058.7206,998.8401 L3573.0706,998.8401 Z" style="stroke:#000000;stroke-width:0.1;"/>
                <!-- Hatch -->
                <path d="M3573.0706,998.8401 L3058.7206,998.8401 L3058.7206,1076.6276 L3573.0706,1076.6276 ZM3573.0706,1076.6276 L3058.7206,1076.6276 L3058.7206,1570.3401 L3573.0706,1570.3401 Z" style="fill-rule:evenodd;"/>
                <!-- Hatch -->
                <path d="M3058.7206,998.8401 A50.8,50.8 0 0 0 3020.6205,1048.0271 L3020.6205,1519.5145 L3058.7206,1519.5145 ZM3611.1706,1048.0268 A50.8,50.8 0 0 0 3573.0706,998.8401 L3573.0706,1519.5145 L3611.1706,1519.5145 L3611.1706,1048.0268" style="fill-rule:evenodd;"/>
            </g>
            <!-- Block Reference: chair_04_top_cad-block.com / entities: 8 -->
            <g>
                <!-- Line -->
                <path d="M3573.0706,2076.6276 L3058.7206,2076.6276 " style="stroke:#000000;stroke-width:0.1;"/>
                <!-- Arc -->
                <path d="M3611.1706,2048.027 A50.8,50.8 0 0,0 3573.0706,1998.8401" style="stroke:#000000;stroke-width:0.1;"/>
                <!-- Arc -->
                <path d="M3058.7206,1998.8401 A50.8,50.8 0 0,0 3020.6205,2048.027" style="stroke:#000000;stroke-width:0.1;"/>
                <!-- Polyline -->
                <path d="M3020.6205,2048.027 L3020.6205,2519.5145 L3058.7205,2519.5145" style="stroke:#000000;stroke-width:0.1;"/>
                <!-- Polyline -->
                <path d="M3611.1706,2048.027 L3611.1706,2519.5145 L3573.0706,2519.5145" style="stroke:#000000;stroke-width:0.1;"/>
                <!-- Polyline -->
                <path d="M3573.0706,2570.3401 L3058.7206,2570.3401 L3058.7206,1998.8401 L3573.0706,1998.8401 Z" style="stroke:#000000;stroke-width:0.1;"/>
                <!-- Hatch -->
                <path d="M3573.0706,1998.8401 L3058.7206,1998.8401 L3058.7206,2076.6276 L3573.0706,2076.6276 ZM3573.0706,2076.6276 L3058.7206,2076.6276 L3058.7206,2570.3401 L3573.0706,2570.3401 Z" style="fill-rule:evenodd;"/>
                <!-- Hatch -->
                <path d="M3058.7206,1998.8401 A50.8,50.8 0 0 0 3020.6205,2048.0271 L3020.6205,2519.5145 L3058.7206,2519.5145 ZM3611.1706,2048.0268 A50.8,50.8 0 0 0 3573.0706,1998.8401 L3573.0706,2519.5145 L3611.1706,2519.5145 L3611.1706,2048.0268" style="fill-rule:evenodd;"/>
            </g>
            <!-- Block Reference: chair_04_top_cad-block.com / entities: 8 -->
            <g>
                <!-- Line -->
                <path d="M3573.0706,3076.6276 L3058.7206,3076.6276 " style="stroke:#000000;stroke-width:0.1;"/>
                <!-- Arc -->
                <path d="M3611.1706,3048.027 A50.8,50.8 0 0,0 3573.0706,2998.8401" style="stroke:#000000;stroke-width:0.1;"/>
                <!-- Arc -->
                <path d="M3058.7206,2998.8401 A50.8,50.8 0 0,0 3020.6205,3048.027" style="stroke:#000000;stroke-width:0.1;"/>
                <!-- Polyline -->
                <path d="M3020.6205,3048.027 L3020.6205,3519.5145 L3058.7205,3519.5145" style="stroke:#000000;stroke-width:0.1;"/>
                <!-- Polyline -->
                <path d="M3611.1706,3048.027 L3611.1706,3519.5145 L3573.0706,3519.5145" style="stroke:#000000;stroke-width:0.1;"/>
                <!-- Polyline -->
                <path d="M3573.0706,3570.3401 L3058.7206,3570.3401 L3058.7206,2998.8401 L3573.0706,2998.8401 Z" style="stroke:#000000;stroke-width:0.1;"/>
                <!-- Hatch -->
                <path d="M3573.0706,2998.8401 L3058.7206,2998.8401 L3058.7206,3076.6276 L3573.0706,3076.6276 ZM3573.0706,3076.6276 L3058.7206,3076.6276 L3058.7206,3570.3401 L3573.0706,3570.3401 Z" style="fill-rule:evenodd;"/>
                <!-- Hatch -->
                <path d="M3058.7206,2998.8401 A50.8,50.8 0 0 0 3020.6205,3048.0271 L3020.6205,3519.5145 L3058.7206,3519.5145 ZM3611.1706,3048.0268 A50.8,50.8 0 0 0 3573.0706,2998.8401 L3573.0706,3519.5145 L3611.1706,3519.5145 L3611.1706,3048.0268" style="fill-rule:evenodd;"/>
            </g>
            <!-- Block Reference: chair_04_top_cad-block.com / entities: 8 -->
            <g>
                <!-- Line -->
                <path d="M3573.0706,4076.6276 L3058.7206,4076.6276 " style="stroke:#000000;stroke-width:0.1;"/>
                <!-- Arc -->
                <path d="M3611.1706,4048.027 A50.8,50.8 0 0,0 3573.0706,3998.8401" style="stroke:#000000;stroke-width:0.1;"/>
                <!-- Arc -->
                <path d="M3058.7206,3998.8401 A50.8,50.8 0 0,0 3020.6205,4048.027" style="stroke:#000000;stroke-width:0.1;"/>
                <!-- Polyline -->
                <path d="M3020.6205,4048.027 L3020.6205,4519.5145 L3058.7205,4519.5145" style="stroke:#000000;stroke-width:0.1;"/>
                <!-- Polyline -->
                <path d="M3611.1706,4048.027 L3611.1706,4519.5145 L3573.0706,4519.5145" style="stroke:#000000;stroke-width:0.1;"/>
                <!-- Polyline -->
                <path d="M3573.0706,4570.3401 L3058.7206,4570.3401 L3058.7206,3998.8401 L3573.0706,3998.8401 Z" style="stroke:#000000;stroke-width:0.1;"/>
                <!-- Hatch -->
                <path d="M3573.0706,3998.8401 L3058.7206,3998.8401 L3058.7206,4076.6276 L3573.0706,4076.6276 ZM3573.0706,4076.6276 L3058.7206,4076.6276 L3058.7206,4570.3401 L3573.0706,4570.3401 Z" style="fill-rule:evenodd;"/>
                <!-- Hatch -->
                <path d="M3058.7206,3998.8401 A50.8,50.8 0 0 0 3020.6205,4048.0271 L3020.6205,4519.5145 L3058.7206,4519.5145 ZM3611.1706,4048.0268 A50.8,50.8 0 0 0 3573.0706,3998.8401 L3573.0706,4519.5145 L3611.1706,4519.5145 L3611.1706,4048.0268" style="fill-rule:evenodd;"/>
            </g>
            <!-- Block Reference: chair_04_top_cad-block.com / entities: 8 -->
            <g>
                <!-- Line -->
                <path d="M3573.0706,5076.6276 L3058.7206,5076.6276 " style="stroke:#000000;stroke-width:0.1;"/>
                <!-- Arc -->
                <path d="M3611.1706,5048.027 A50.8,50.8 0 0,0 3573.0706,4998.8401" style="stroke:#000000;stroke-width:0.1;"/>
                <!-- Arc -->
                <path d="M3058.7206,4998.8401 A50.8,50.8 0 0,0 3020.6205,5048.027" style="stroke:#000000;stroke-width:0.1;"/>
                <!-- Polyline -->
                <path d="M3020.6205,5048.027 L3020.6205,5519.5145 L3058.7205,5519.5145" style="stroke:#000000;stroke-width:0.1;"/>
                <!-- Polyline -->
                <path d="M3611.1706,5048.027 L3611.1706,5519.5145 L3573.0706,5519.5145" style="stroke:#000000;stroke-width:0.1;"/>
                <!-- Polyline -->
                <path d="M3573.0706,5570.3401 L3058.7206,5570.3401 L3058.7206,4998.8401 L3573.0706,4998.8401 Z" style="stroke:#000000;stroke-width:0.1;"/>
                <!-- Hatch -->
                <path d="M3573.0706,4998.8401 L3058.7206,4998.8401 L3058.7206,5076.6276 L3573.0706,5076.6276 ZM3573.0706,5076.6276 L3058.7206,5076.6276 L3058.7206,5570.3401 L3573.0706,5570.3401 Z" style="fill-rule:evenodd;"/>
                <!-- Hatch -->
                <path d="M3058.7206,4998.8401 A50.8,50.8 0 0 0 3020.6205,5048.0271 L3020.6205,5519.5145 L3058.7206,5519.5145 ZM3611.1706,5048.0268 A50.8,50.8 0 0 0 3573.0706,4998.8401 L3573.0706,5519.5145 L3611.1706,5519.5145 L3611.1706,5048.0268" style="fill-rule:evenodd;"/>
            </g>
            <!-- Block Reference: chair_04_top_cad-block.com / entities: 8 -->
            <g>
                <!-- Line -->
                <path d="M3573.0706,6076.6276 L3058.7206,6076.6276 " style="stroke:#000000;stroke-width:0.1;"/>
                <!-- Arc -->
                <path d="M3611.1706,6048.027 A50.8,50.8 0 0,0 3573.0706,5998.8401" style="stroke:#000000;stroke-width:0.1;"/>
                <!-- Arc -->
                <path d="M3058.7206,5998.8401 A50.8,50.8 0 0,0 3020.6205,6048.027" style="stroke:#000000;stroke-width:0.1;"/>
                <!-- Polyline -->
                <path d="M3020.6205,6048.027 L3020.6205,6519.5145 L3058.7205,6519.5145" style="stroke:#000000;stroke-width:0.1;"/>
                <!-- Polyline -->
                <path d="M3611.1706,6048.027 L3611.1706,6519.5145 L3573.0706,6519.5145" style="stroke:#000000;stroke-width:0.1;"/>
                <!-- Polyline -->
                <path d="M3573.0706,6570.3401 L3058.7206,6570.3401 L3058.7206,5998.8401 L3573.0706,5998.8401 Z" style="stroke:#000000;stroke-width:0.1;"/>
                <!-- Hatch -->
                <path d="M3573.0706,5998.8401 L3058.7206,5998.8401 L3058.7206,6076.6276 L3573.0706,6076.6276 ZM3573.0706,6076.6276 L3058.7206,6076.6276 L3058.7206,6570.3401 L3573.0706,6570.3401 Z" style="fill-rule:evenodd;"/>
                <!-- Hatch -->
                <path d="M3058.7206,5998.8401 A50.8,50.8 0 0 0 3020.6205,6048.0271 L3020.6205,6519.5145 L3058.7206,6519.5145 ZM3611.1706,6048.0268 A50.8,50.8 0 0 0 3573.0706,5998.8401 L3573.0706,6519.5145 L3611.1706,6519.5145 L3611.1706,6048.0268" style="fill-rule:evenodd;"/>
            </g>
            <!-- Block Reference: chair_04_top_cad-block.com / entities: 8 -->
            <g>
                <!-- Line -->
                <path d="M4173.0706,76.6276 L3658.7206,76.6276 " style="stroke:#000000;stroke-width:0.1;"/>
                <!-- Arc -->
                <path d="M4211.1706,48.027 A50.8,50.8 0 0,0 4173.0706,-1.1599" style="stroke:#000000;stroke-width:0.1;"/>
                <!-- Arc -->
                <path d="M3658.7206,-1.1599 A50.8,50.8 0 0,0 3620.6205,48.027" style="stroke:#000000;stroke-width:0.1;"/>
                <!-- Polyline -->
                <path d="M3620.6205,48.027 L3620.6205,519.5145 L3658.7205,519.5145" style="stroke:#000000;stroke-width:0.1;"/>
                <!-- Polyline -->
                <path d="M4211.1706,48.027 L4211.1706,519.5145 L4173.0706,519.5145" style="stroke:#000000;stroke-width:0.1;"/>
                <!-- Polyline -->
                <path d="M4173.0706,570.3401 L3658.7206,570.3401 L3658.7206,-1.1599 L4173.0706,-1.1599 Z" style="stroke:#000000;stroke-width:0.1;"/>
                <!-- Hatch -->
                <path d="M4173.0706,-1.1599 L3658.7206,-1.1599 L3658.7206,76.6276 L4173.0706,76.6276 ZM4173.0706,76.6276 L3658.7206,76.6276 L3658.7206,570.3401 L4173.0706,570.3401 Z" style="fill-rule:evenodd;"/>
                <!-- Hatch -->
                <path d="M3658.7206,-1.1599 A50.8,50.8 0 0 0 3620.6205,48.0271 L3620.6205,519.5145 L3658.7206,519.5145 ZM4211.1706,48.0268 A50.8,50.8 0 0 0 4173.0706,-1.1599 L4173.0706,519.5145 L4211.1706,519.5145 L4211.1706,48.0268" style="fill-rule:evenodd;"/>
            </g>
            <!-- Block Reference: chair_04_top_cad-block.com / entities: 8 -->
            <g>
                <!-- Line -->
                <path d="M4173.0706,1076.6276 L3658.7206,1076.6276 " style="stroke:#000000;stroke-width:0.1;"/>
                <!-- Arc -->
                <path d="M4211.1706,1048.027 A50.8,50.8 0 0,0 4173.0706,998.8401" style="stroke:#000000;stroke-width:0.1;"/>
                <!-- Arc -->
                <path d="M3658.7206,998.8401 A50.8,50.8 0 0,0 3620.6205,1048.027" style="stroke:#000000;stroke-width:0.1;"/>
                <!-- Polyline -->
                <path d="M3620.6205,1048.027 L3620.6205,1519.5145 L3658.7205,1519.5145" style="stroke:#000000;stroke-width:0.1;"/>
                <!-- Polyline -->
                <path d="M4211.1706,1048.027 L4211.1706,1519.5145 L4173.0706,1519.5145" style="stroke:#000000;stroke-width:0.1;"/>
                <!-- Polyline -->
                <path d="M4173.0706,1570.3401 L3658.7206,1570.3401 L3658.7206,998.8401 L4173.0706,998.8401 Z" style="stroke:#000000;stroke-width:0.1;"/>
                <!-- Hatch -->
                <path d="M4173.0706,998.8401 L3658.7206,998.8401 L3658.7206,1076.6276 L4173.0706,1076.6276 ZM4173.0706,1076.6276 L3658.7206,1076.6276 L3658.7206,1570.3401 L4173.0706,1570.3401 Z" style="fill-rule:evenodd;"/>
                <!-- Hatch -->
                <path d="M3658.7206,998.8401 A50.8,50.8 0 0 0 3620.6205,1048.0271 L3620.6205,1519.5145 L3658.7206,1519.5145 ZM4211.1706,1048.0268 A50.8,50.8 0 0 0 4173.0706,998.8401 L4173.0706,1519.5145 L4211.1706,1519.5145 L4211.1706,1048.0268" style="fill-rule:evenodd;"/>
            </g>
            <!-- Block Reference: chair_04_top_cad-block.com / entities: 8 -->
            <g>
                <!-- Line -->
                <path d="M4173.0706,2076.6276 L3658.7206,2076.6276 " style="stroke:#000000;stroke-width:0.1;"/>
                <!-- Arc -->
                <path d="M4211.1706,2048.027 A50.8,50.8 0 0,0 4173.0706,1998.8401" style="stroke:#000000;stroke-width:0.1;"/>
                <!-- Arc -->
                <path d="M3658.7206,1998.8401 A50.8,50.8 0 0,0 3620.6205,2048.027" style="stroke:#000000;stroke-width:0.1;"/>
                <!-- Polyline -->
                <path d="M3620.6205,2048.027 L3620.6205,2519.5145 L3658.7205,2519.5145" style="stroke:#000000;stroke-width:0.1;"/>
                <!-- Polyline -->
                <path d="M4211.1706,2048.027 L4211.1706,2519.5145 L4173.0706,2519.5145" style="stroke:#000000;stroke-width:0.1;"/>
                <!-- Polyline -->
                <path d="M4173.0706,2570.3401 L3658.7206,2570.3401 L3658.7206,1998.8401 L4173.0706,1998.8401 Z" style="stroke:#000000;stroke-width:0.1;"/>
                <!-- Hatch -->
                <path d="M4173.0706,1998.8401 L3658.7206,1998.8401 L3658.7206,2076.6276 L4173.0706,2076.6276 ZM4173.0706,2076.6276 L3658.7206,2076.6276 L3658.7206,2570.3401 L4173.0706,2570.3401 Z" style="fill-rule:evenodd;"/>
                <!-- Hatch -->
                <path d="M3658.7206,1998.8401 A50.8,50.8 0 0 0 3620.6205,2048.0271 L3620.6205,2519.5145 L3658.7206,2519.5145 ZM4211.1706,2048.0268 A50.8,50.8 0 0 0 4173.0706,1998.8401 L4173.0706,2519.5145 L4211.1706,2519.5145 L4211.1706,2048.0268" style="fill-rule:evenodd;"/>
            </g>
            <!-- Block Reference: chair_04_top_cad-block.com / entities: 8 -->
            <g>
                <!-- Line -->
                <path d="M4173.0706,3076.6276 L3658.7206,3076.6276 " style="stroke:#000000;stroke-width:0.1;"/>
                <!-- Arc -->
                <path d="M4211.1706,3048.027 A50.8,50.8 0 0,0 4173.0706,2998.8401" style="stroke:#000000;stroke-width:0.1;"/>
                <!-- Arc -->
                <path d="M3658.7206,2998.8401 A50.8,50.8 0 0,0 3620.6205,3048.027" style="stroke:#000000;stroke-width:0.1;"/>
                <!-- Polyline -->
                <path d="M3620.6205,3048.027 L3620.6205,3519.5145 L3658.7205,3519.5145" style="stroke:#000000;stroke-width:0.1;"/>
                <!-- Polyline -->
                <path d="M4211.1706,3048.027 L4211.1706,3519.5145 L4173.0706,3519.5145" style="stroke:#000000;stroke-width:0.1;"/>
                <!-- Polyline -->
                <path d="M4173.0706,3570.3401 L3658.7206,3570.3401 L3658.7206,2998.8401 L4173.0706,2998.8401 Z" style="stroke:#000000;stroke-width:0.1;"/>
                <!-- Hatch -->
                <path d="M4173.0706,2998.8401 L3658.7206,2998.8401 L3658.7206,3076.6276 L4173.0706,3076.6276 ZM4173.0706,3076.6276 L3658.7206,3076.6276 L3658.7206,3570.3401 L4173.0706,3570.3401 Z" style="fill-rule:evenodd;"/>
                <!-- Hatch -->
                <path d="M3658.7206,2998.8401 A50.8,50.8 0 0 0 3620.6205,3048.0271 L3620.6205,3519.5145 L3658.7206,3519.5145 ZM4211.1706,3048.0268 A50.8,50.8 0 0 0 4173.0706,2998.8401 L4173.0706,3519.5145 L4211.1706,3519.5145 L4211.1706,3048.0268" style="fill-rule:evenodd;"/>
            </g>
            <!-- Block Reference: chair_04_top_cad-block.com / entities: 8 -->
            <g>
                <!-- Line -->
                <path d="M4173.0706,4076.6276 L3658.7206,4076.6276 " style="stroke:#000000;stroke-width:0.1;"/>
                <!-- Arc -->
                <path d="M4211.1706,4048.027 A50.8,50.8 0 0,0 4173.0706,3998.8401" style="stroke:#000000;stroke-width:0.1;"/>
                <!-- Arc -->
                <path d="M3658.7206,3998.8401 A50.8,50.8 0 0,0 3620.6205,4048.027" style="stroke:#000000;stroke-width:0.1;"/>
                <!-- Polyline -->
                <path d="M3620.6205,4048.027 L3620.6205,4519.5145 L3658.7205,4519.5145" style="stroke:#000000;stroke-width:0.1;"/>
                <!-- Polyline -->
                <path d="M4211.1706,4048.027 L4211.1706,4519.5145 L4173.0706,4519.5145" style="stroke:#000000;stroke-width:0.1;"/>
                <!-- Polyline -->
                <path d="M4173.0706,4570.3401 L3658.7206,4570.3401 L3658.7206,3998.8401 L4173.0706,3998.8401 Z" style="stroke:#000000;stroke-width:0.1;"/>
                <!-- Hatch -->
                <path d="M4173.0706,3998.8401 L3658.7206,3998.8401 L3658.7206,4076.6276 L4173.0706,4076.6276 ZM4173.0706,4076.6276 L3658.7206,4076.6276 L3658.7206,4570.3401 L4173.0706,4570.3401 Z" style="fill-rule:evenodd;"/>
                <!-- Hatch -->
                <path d="M3658.7206,3998.8401 A50.8,50.8 0 0 0 3620.6205,4048.0271 L3620.6205,4519.5145 L3658.7206,4519.5145 ZM4211.1706,4048.0268 A50.8,50.8 0 0 0 4173.0706,3998.8401 L4173.0706,4519.5145 L4211.1706,4519.5145 L4211.1706,4048.0268" style="fill-rule:evenodd;"/>
            </g>
            <!-- Block Reference: chair_04_top_cad-block.com / entities: 8 -->
            <g>
                <!-- Line -->
                <path d="M4173.0706,5076.6276 L3658.7206,5076.6276 " style="stroke:#000000;stroke-width:0.1;"/>
                <!-- Arc -->
                <path d="M4211.1706,5048.027 A50.8,50.8 0 0,0 4173.0706,4998.8401" style="stroke:#000000;stroke-width:0.1;"/>
                <!-- Arc -->
                <path d="M3658.7206,4998.8401 A50.8,50.8 0 0,0 3620.6205,5048.027" style="stroke:#000000;stroke-width:0.1;"/>
                <!-- Polyline -->
                <path d="M3620.6205,5048.027 L3620.6205,5519.5145 L3658.7205,5519.5145" style="stroke:#000000;stroke-width:0.1;"/>
                <!-- Polyline -->
                <path d="M4211.1706,5048.027 L4211.1706,5519.5145 L4173.0706,5519.5145" style="stroke:#000000;stroke-width:0.1;"/>
                <!-- Polyline -->
                <path d="M4173.0706,5570.3401 L3658.7206,5570.3401 L3658.7206,4998.8401 L4173.0706,4998.8401 Z" style="stroke:#000000;stroke-width:0.1;"/>
                <!-- Hatch -->
                <path d="M4173.0706,4998.8401 L3658.7206,4998.8401 L3658.7206,5076.6276 L4173.0706,5076.6276 ZM4173.0706,5076.6276 L3658.7206,5076.6276 L3658.7206,5570.3401 L4173.0706,5570.3401 Z" style="fill-rule:evenodd;"/>
                <!-- Hatch -->
                <path d="M3658.7206,4998.8401 A50.8,50.8 0 0 0 3620.6205,5048.0271 L3620.6205,5519.5145 L3658.7206,5519.5145 ZM4211.1706,5048.0268 A50.8,50.8 0 0 0 4173.0706,4998.8401 L4173.0706,5519.5145 L4211.1706,5519.5145 L4211.1706,5048.0268" style="fill-rule:evenodd;"/>
            </g>
            <!-- Block Reference: chair_04_top_cad-block.com / entities: 8 -->
            <g>
                <!-- Line -->
                <path d="M4173.0706,6076.6276 L3658.7206,6076.6276 " style="stroke:#000000;stroke-width:0.1;"/>
                <!-- Arc -->
                <path d="M4211.1706,6048.027 A50.8,50.8 0 0,0 4173.0706,5998.8401" style="stroke:#000000;stroke-width:0.1;"/>
                <!-- Arc -->
                <path d="M3658.7206,5998.8401 A50.8,50.8 0 0,0 3620.6205,6048.027" style="stroke:#000000;stroke-width:0.1;"/>
                <!-- Polyline -->
                <path d="M3620.6205,6048.027 L3620.6205,6519.5145 L3658.7205,6519.5145" style="stroke:#000000;stroke-width:0.1;"/>
                <!-- Polyline -->
                <path d="M4211.1706,6048.027 L4211.1706,6519.5145 L4173.0706,6519.5145" style="stroke:#000000;stroke-width:0.1;"/>
                <!-- Polyline -->
                <path d="M4173.0706,6570.3401 L3658.7206,6570.3401 L3658.7206,5998.8401 L4173.0706,5998.8401 Z" style="stroke:#000000;stroke-width:0.1;"/>
                <!-- Hatch -->
                <path d="M4173.0706,5998.8401 L3658.7206,5998.8401 L3658.7206,6076.6276 L4173.0706,6076.6276 ZM4173.0706,6076.6276 L3658.7206,6076.6276 L3658.7206,6570.3401 L4173.0706,6570.3401 Z" style="fill-rule:evenodd;"/>
                <!-- Hatch -->
                <path d="M3658.7206,5998.8401 A50.8,50.8 0 0 0 3620.6205,6048.0271 L3620.6205,6519.5145 L3658.7206,6519.5145 ZM4211.1706,6048.0268 A50.8,50.8 0 0 0 4173.0706,5998.8401 L4173.0706,6519.5145 L4211.1706,6519.5145 L4211.1706,6048.0268" style="fill-rule:evenodd;"/>
            </g>
            <!-- Block Reference: chair_04_top_cad-block.com / entities: 8 -->
            <g>
                <!-- Line -->
                <path d="M4773.0706,76.6276 L4258.7206,76.6276 " style="stroke:#000000;stroke-width:0.1;"/>
                <!-- Arc -->
                <path d="M4811.1706,48.027 A50.8,50.8 0 0,0 4773.0706,-1.1599" style="stroke:#000000;stroke-width:0.1;"/>
                <!-- Arc -->
                <path d="M4258.7206,-1.1599 A50.8,50.8 0 0,0 4220.6205,48.027" style="stroke:#000000;stroke-width:0.1;"/>
                <!-- Polyline -->
                <path d="M4220.6205,48.027 L4220.6205,519.5145 L4258.7205,519.5145" style="stroke:#000000;stroke-width:0.1;"/>
                <!-- Polyline -->
                <path d="M4811.1706,48.027 L4811.1706,519.5145 L4773.0706,519.5145" style="stroke:#000000;stroke-width:0.1;"/>
                <!-- Polyline -->
                <path d="M4773.0706,570.3401 L4258.7206,570.3401 L4258.7206,-1.1599 L4773.0706,-1.1599 Z" style="stroke:#000000;stroke-width:0.1;"/>
                <!-- Hatch -->
                <path d="M4773.0706,-1.1599 L4258.7206,-1.1599 L4258.7206,76.6276 L4773.0706,76.6276 ZM4773.0706,76.6276 L4258.7206,76.6276 L4258.7206,570.3401 L4773.0706,570.3401 Z" style="fill-rule:evenodd;"/>
                <!-- Hatch -->
                <path d="M4258.7206,-1.1599 A50.8,50.8 0 0 0 4220.6205,48.0271 L4220.6205,519.5145 L4258.7206,519.5145 ZM4811.1706,48.0268 A50.8,50.8 0 0 0 4773.0706,-1.1599 L4773.0706,519.5145 L4811.1706,519.5145 L4811.1706,48.0268" style="fill-rule:evenodd;"/>
            </g>
            <!-- Block Reference: chair_04_top_cad-block.com / entities: 8 -->
            <g>
                <!-- Line -->
                <path d="M4773.0706,1076.6276 L4258.7206,1076.6276 " style="stroke:#000000;stroke-width:0.1;"/>
                <!-- Arc -->
                <path d="M4811.1706,1048.027 A50.8,50.8 0 0,0 4773.0706,998.8401" style="stroke:#000000;stroke-width:0.1;"/>
                <!-- Arc -->
                <path d="M4258.7206,998.8401 A50.8,50.8 0 0,0 4220.6205,1048.027" style="stroke:#000000;stroke-width:0.1;"/>
                <!-- Polyline -->
                <path d="M4220.6205,1048.027 L4220.6205,1519.5145 L4258.7205,1519.5145" style="stroke:#000000;stroke-width:0.1;"/>
                <!-- Polyline -->
                <path d="M4811.1706,1048.027 L4811.1706,1519.5145 L4773.0706,1519.5145" style="stroke:#000000;stroke-width:0.1;"/>
                <!-- Polyline -->
                <path d="M4773.0706,1570.3401 L4258.7206,1570.3401 L4258.7206,998.8401 L4773.0706,998.8401 Z" style="stroke:#000000;stroke-width:0.1;"/>
                <!-- Hatch -->
                <path d="M4773.0706,998.8401 L4258.7206,998.8401 L4258.7206,1076.6276 L4773.0706,1076.6276 ZM4773.0706,1076.6276 L4258.7206,1076.6276 L4258.7206,1570.3401 L4773.0706,1570.3401 Z" style="fill-rule:evenodd;"/>
                <!-- Hatch -->
                <path d="M4258.7206,998.8401 A50.8,50.8 0 0 0 4220.6205,1048.0271 L4220.6205,1519.5145 L4258.7206,1519.5145 ZM4811.1706,1048.0268 A50.8,50.8 0 0 0 4773.0706,998.8401 L4773.0706,1519.5145 L4811.1706,1519.5145 L4811.1706,1048.0268" style="fill-rule:evenodd;"/>
            </g>
            <!-- Block Reference: chair_04_top_cad-block.com / entities: 8 -->
            <g>
                <!-- Line -->
                <path d="M4773.0706,2076.6276 L4258.7206,2076.6276 " style="stroke:#000000;stroke-width:0.1;"/>
                <!-- Arc -->
                <path d="M4811.1706,2048.027 A50.8,50.8 0 0,0 4773.0706,1998.8401" style="stroke:#000000;stroke-width:0.1;"/>
                <!-- Arc -->
                <path d="M4258.7206,1998.8401 A50.8,50.8 0 0,0 4220.6205,2048.027" style="stroke:#000000;stroke-width:0.1;"/>
                <!-- Polyline -->
                <path d="M4220.6205,2048.027 L4220.6205,2519.5145 L4258.7205,2519.5145" style="stroke:#000000;stroke-width:0.1;"/>
                <!-- Polyline -->
                <path d="M4811.1706,2048.027 L4811.1706,2519.5145 L4773.0706,2519.5145" style="stroke:#000000;stroke-width:0.1;"/>
                <!-- Polyline -->
                <path d="M4773.0706,2570.3401 L4258.7206,2570.3401 L4258.7206,1998.8401 L4773.0706,1998.8401 Z" style="stroke:#000000;stroke-width:0.1;"/>
                <!-- Hatch -->
                <path d="M4773.0706,1998.8401 L4258.7206,1998.8401 L4258.7206,2076.6276 L4773.0706,2076.6276 ZM4773.0706,2076.6276 L4258.7206,2076.6276 L4258.7206,2570.3401 L4773.0706,2570.3401 Z" style="fill-rule:evenodd;"/>
                <!-- Hatch -->
                <path d="M4258.7206,1998.8401 A50.8,50.8 0 0 0 4220.6205,2048.0271 L4220.6205,2519.5145 L4258.7206,2519.5145 ZM4811.1706,2048.0268 A50.8,50.8 0 0 0 4773.0706,1998.8401 L4773.0706,2519.5145 L4811.1706,2519.5145 L4811.1706,2048.0268" style="fill-rule:evenodd;"/>
            </g>
            <!-- Block Reference: chair_04_top_cad-block.com / entities: 8 -->
            <g>
                <!-- Line -->
                <path d="M4773.0706,3076.6276 L4258.7206,3076.6276 " style="stroke:#000000;stroke-width:0.1;"/>
                <!-- Arc -->
                <path d="M4811.1706,3048.027 A50.8,50.8 0 0,0 4773.0706,2998.8401" style="stroke:#000000;stroke-width:0.1;"/>
                <!-- Arc -->
                <path d="M4258.7206,2998.8401 A50.8,50.8 0 0,0 4220.6205,3048.027" style="stroke:#000000;stroke-width:0.1;"/>
                <!-- Polyline -->
                <path d="M4220.6205,3048.027 L4220.6205,3519.5145 L4258.7205,3519.5145" style="stroke:#000000;stroke-width:0.1;"/>
                <!-- Polyline -->
                <path d="M4811.1706,3048.027 L4811.1706,3519.5145 L4773.0706,3519.5145" style="stroke:#000000;stroke-width:0.1;"/>
                <!-- Polyline -->
                <path d="M4773.0706,3570.3401 L4258.7206,3570.3401 L4258.7206,2998.8401 L4773.0706,2998.8401 Z" style="stroke:#000000;stroke-width:0.1;"/>
                <!-- Hatch -->
                <path d="M4773.0706,2998.8401 L4258.7206,2998.8401 L4258.7206,3076.6276 L4773.0706,3076.6276 ZM4773.0706,3076.6276 L4258.7206,3076.6276 L4258.7206,3570.3401 L4773.0706,3570.3401 Z" style="fill-rule:evenodd;"/>
                <!-- Hatch -->
                <path d="M4258.7206,2998.8401 A50.8,50.8 0 0 0 4220.6205,3048.0271 L4220.6205,3519.5145 L4258.7206,3519.5145 ZM4811.1706,3048.0268 A50.8,50.8 0 0 0 4773.0706,2998.8401 L4773.0706,3519.5145 L4811.1706,3519.5145 L4811.1706,3048.0268" style="fill-rule:evenodd;"/>
            </g>
            <!-- Block Reference: chair_04_top_cad-block.com / entities: 8 -->
            <g>
                <!-- Line -->
                <path d="M4773.0706,4076.6276 L4258.7206,4076.6276 " style="stroke:#000000;stroke-width:0.1;"/>
                <!-- Arc -->
                <path d="M4811.1706,4048.027 A50.8,50.8 0 0,0 4773.0706,3998.8401" style="stroke:#000000;stroke-width:0.1;"/>
                <!-- Arc -->
                <path d="M4258.7206,3998.8401 A50.8,50.8 0 0,0 4220.6205,4048.027" style="stroke:#000000;stroke-width:0.1;"/>
                <!-- Polyline -->
                <path d="M4220.6205,4048.027 L4220.6205,4519.5145 L4258.7205,4519.5145" style="stroke:#000000;stroke-width:0.1;"/>
                <!-- Polyline -->
                <path d="M4811.1706,4048.027 L4811.1706,4519.5145 L4773.0706,4519.5145" style="stroke:#000000;stroke-width:0.1;"/>
                <!-- Polyline -->
                <path d="M4773.0706,4570.3401 L4258.7206,4570.3401 L4258.7206,3998.8401 L4773.0706,3998.8401 Z" style="stroke:#000000;stroke-width:0.1;"/>
                <!-- Hatch -->
                <path d="M4773.0706,3998.8401 L4258.7206,3998.8401 L4258.7206,4076.6276 L4773.0706,4076.6276 ZM4773.0706,4076.6276 L4258.7206,4076.6276 L4258.7206,4570.3401 L4773.0706,4570.3401 Z" style="fill-rule:evenodd;"/>
                <!-- Hatch -->
                <path d="M4258.7206,3998.8401 A50.8,50.8 0 0 0 4220.6205,4048.0271 L4220.6205,4519.5145 L4258.7206,4519.5145 ZM4811.1706,4048.0268 A50.8,50.8 0 0 0 4773.0706,3998.8401 L4773.0706,4519.5145 L4811.1706,4519.5145 L4811.1706,4048.0268" style="fill-rule:evenodd;"/>
            </g>
            <!-- Block Reference: chair_04_top_cad-block.com / entities: 8 -->
            <g>
                <!-- Line -->
                <path d="M4773.0706,5076.6276 L4258.7206,5076.6276 " style="stroke:#000000;stroke-width:0.1;"/>
                <!-- Arc -->
                <path d="M4811.1706,5048.027 A50.8,50.8 0 0,0 4773.0706,4998.8401" style="stroke:#000000;stroke-width:0.1;"/>
                <!-- Arc -->
                <path d="M4258.7206,4998.8401 A50.8,50.8 0 0,0 4220.6205,5048.027" style="stroke:#000000;stroke-width:0.1;"/>
                <!-- Polyline -->
                <path d="M4220.6205,5048.027 L4220.6205,5519.5145 L4258.7205,5519.5145" style="stroke:#000000;stroke-width:0.1;"/>
                <!-- Polyline -->
                <path d="M4811.1706,5048.027 L4811.1706,5519.5145 L4773.0706,5519.5145" style="stroke:#000000;stroke-width:0.1;"/>
                <!-- Polyline -->
                <path d="M4773.0706,5570.3401 L4258.7206,5570.3401 L4258.7206,4998.8401 L4773.0706,4998.8401 Z" style="stroke:#000000;stroke-width:0.1;"/>
                <!-- Hatch -->
                <path d="M4773.0706,4998.8401 L4258.7206,4998.8401 L4258.7206,5076.6276 L4773.0706,5076.6276 ZM4773.0706,5076.6276 L4258.7206,5076.6276 L4258.7206,5570.3401 L4773.0706,5570.3401 Z" style="fill-rule:evenodd;"/>
                <!-- Hatch -->
                <path d="M4258.7206,4998.8401 A50.8,50.8 0 0 0 4220.6205,5048.0271 L4220.6205,5519.5145 L4258.7206,5519.5145 ZM4811.1706,5048.0268 A50.8,50.8 0 0 0 4773.0706,4998.8401 L4773.0706,5519.5145 L4811.1706,5519.5145 L4811.1706,5048.0268" style="fill-rule:evenodd;"/>
            </g>
            <!-- Block Reference: chair_04_top_cad-block.com / entities: 8 -->
            <g>
                <!-- Line -->
                <path d="M4773.0706,6076.6276 L4258.7206,6076.6276 " style="stroke:#000000;stroke-width:0.1;"/>
                <!-- Arc -->
                <path d="M4811.1706,6048.027 A50.8,50.8 0 0,0 4773.0706,5998.8401" style="stroke:#000000;stroke-width:0.1;"/>
                <!-- Arc -->
                <path d="M4258.7206,5998.8401 A50.8,50.8 0 0,0 4220.6205,6048.027" style="stroke:#000000;stroke-width:0.1;"/>
                <!-- Polyline -->
                <path d="M4220.6205,6048.027 L4220.6205,6519.5145 L4258.7205,6519.5145" style="stroke:#000000;stroke-width:0.1;"/>
                <!-- Polyline -->
                <path d="M4811.1706,6048.027 L4811.1706,6519.5145 L4773.0706,6519.5145" style="stroke:#000000;stroke-width:0.1;"/>
                <!-- Polyline -->
                <path d="M4773.0706,6570.3401 L4258.7206,6570.3401 L4258.7206,5998.8401 L4773.0706,5998.8401 Z" style="stroke:#000000;stroke-width:0.1;"/>
                <!-- Hatch -->
                <path d="M4773.0706,5998.8401 L4258.7206,5998.8401 L4258.7206,6076.6276 L4773.0706,6076.6276 ZM4773.0706,6076.6276 L4258.7206,6076.6276 L4258.7206,6570.3401 L4773.0706,6570.3401 Z" style="fill-rule:evenodd;"/>
                <!-- Hatch -->
                <path d="M4258.7206,5998.8401 A50.8,50.8 0 0 0 4220.6205,6048.0271 L4220.6205,6519.5145 L4258.7206,6519.5145 ZM4811.1706,6048.0268 A50.8,50.8 0 0 0 4773.0706,5998.8401 L4773.0706,6519.5145 L4811.1706,6519.5145 L4811.1706,6048.0268" style="fill-rule:evenodd;"/>
            </g>
        </g>
    </g>
</svg>

