<?xml version="1.0" encoding="UTF-8"?>
<!-- 2026-03-10 13:33:23 Generated by QCAD 3.32.6 SVG Exporter -->
<svg  width="5743mm" height="6271.5mm" viewBox="-5.2154 -6261.3097 5743 6271.5" version="1.1" xmlns="http://www.w3.org/2000/svg" style="stroke-linecap:round;stroke-linejoin:round;">
    <g transform="scale(1,-1)">
            <!-- Auto-generated fillable area -->
            <!-- Block Reference: U-Shape / entities: 25 -->
        <g>
            <!-- Block Reference: chair_04_top_cad-block.com / entities: 8 -->
            <g>
                <!-- Line -->
                <path d="M72.5721,582.0422 L72.5721,67.6922 " style="stroke:#000000;stroke-width:0.1;"/>
                <!-- Arc -->
                <path d="M43.9715,620.1422 A50.8,50.8 0 0,1 -5.2154,582.0422" style="stroke:#000000;stroke-width:0.1;"/>
                <!-- Arc -->
                <path d="M-5.2154,67.6922 A50.8,50.8 0 0,1 43.9715,29.5922" style="stroke:#000000;stroke-width:0.1;"/>
                <!-- Polyline -->
                <path d="M43.9715,29.5922 L515.459,29.5922 L515.459,67.6922" style="stroke:#000000;stroke-width:0.1;"/>
                <!-- Polyline -->
                <path d="M43.9715,620.1422 L515.459,620.1422 L515.459,582.0422" style="stroke:#000000;stroke-width:0.1;"/>
                <!-- Polyline -->
                <path d="M566.2846,582.0422 L566.2846,67.6922 L-5.2154,67.6922 L-5.2154,582.0422 Z" style="stroke:#000000;stroke-width:0.1;"/>
                <!-- Hatch -->
                <path d="M-5.2154,582.0422 L-5.2154,67.6922 L72.5721,67.6922 L72.5721,582.0422 ZM72.5721,582.0422 L72.5721,67.6922 L566.2846,67.6922 L566.2846,582.0422 Z" style="fill-rule:evenodd;"/>
                <!-- Hatch -->
                <path d="M-5.2154,67.6922 A50.8,50.8 0 0 1 43.9716,29.5922 L515.459,29.5922 L515.459,67.6922 ZM43.9714,620.1422 A50.8,50.8 0 0 1 -5.2154,582.0422 L515.459,582.0422 L515.459,620.1422 L43.9714,620.1422" style="fill-rule:evenodd;"/>
            </g>
            <!-- Block Reference: chair_04_top_cad-block.com / entities: 8 -->
            <g>
                <!-- Line -->
                <path d="M72.5721,1282.0422 L72.5721,767.6922 " style="stroke:#000000;stroke-width:0.1;"/>
                <!-- Arc -->
                <path d="M43.9715,1320.1422 A50.8,50.8 0 0,1 -5.2154,1282.0422" style="stroke:#000000;stroke-width:0.1;"/>
                <!-- Arc -->
                <path d="M-5.2154,767.6922 A50.8,50.8 0 0,1 43.9715,729.5922" style="stroke:#000000;stroke-width:0.1;"/>
                <!-- Polyline -->
                <path d="M43.9715,729.5922 L515.459,729.5922 L515.459,767.6922" style="stroke:#000000;stroke-width:0.1;"/>
                <!-- Polyline -->
                <path d="M43.9715,1320.1422 L515.459,1320.1422 L515.459,1282.0422" style="stroke:#000000;stroke-width:0.1;"/>
                <!-- Polyline -->
                <path d="M566.2846,1282.0422 L566.2846,767.6922 L-5.2154,767.6922 L-5.2154,1282.0422 Z" style="stroke:#000000;stroke-width:0.1;"/>
                <!-- Hatch -->
                <path d="M-5.2154,1282.0422 L-5.2154,767.6922 L72.5721,767.6922 L72.5721,1282.0422 ZM72.5721,1282.0422 L72.5721,767.6922 L566.2846,767.6922 L566.2846,1282.0422 Z" style="fill-rule:evenodd;"/>
                <!-- Hatch -->
                <path d="M-5.2154,767.6922 A50.8,50.8 0 0 1 43.9716,729.5922 L515.459,729.5922 L515.459,767.6922 ZM43.9714,1320.1422 A50.8,50.8 0 0 1 -5.2154,1282.0422 L515.459,1282.0422 L515.459,1320.1422 L43.9714,1320.1422" style="fill-rule:evenodd;"/>
            </g>
            <!-- Block Reference: chair_04_top_cad-block.com / entities: 8 -->
            <g>
                <!-- Line -->
                <path d="M72.5721,2167.6922 L72.5721,2682.0422 " style="stroke:#000000;stroke-width:0.1;"/>
                <!-- Arc -->
                <path d="M43.9715,2129.5922 A50.8,50.8 0 0,0 -5.2154,2167.6922" style="stroke:#000000;stroke-width:0.1;"/>
                <!-- Arc -->
                <path d="M-5.2154,2682.0422 A50.8,50.8 0 0,0 43.9715,2720.1422" style="stroke:#000000;stroke-width:0.1;"/>
                <!-- Polyline -->
                <path d="M43.9715,2720.1422 L515.459,2720.1422 L515.459,2682.0422" style="stroke:#000000;stroke-width:0.1;"/>
                <!-- Polyline -->
                <path d="M43.9715,2129.5922 L515.459,2129.5922 L515.459,2167.6922" style="stroke:#000000;stroke-width:0.1;"/>
                <!-- Polyline -->
                <path d="M566.2846,2167.6922 L566.2846,2682.0422 L-5.2154,2682.0422 L-5.2154,2167.6922 Z" style="stroke:#000000;stroke-width:0.1;"/>
                <!-- Hatch -->
                <path d="M-5.2154,2167.6922 L-5.2154,2682.0422 L72.5721,2682.0422 L72.5721,2167.6922 ZM72.5721,2167.6922 L72.5721,2682.0422 L566.2846,2682.0422 L566.2846,2167.6922 Z" style="fill-rule:evenodd;"/>
                <!-- Hatch -->
                <path d="M-5.2154,2682.0422 A50.8,50.8 0 0 0 43.9716,2720.1422 L515.459,2720.1422 L515.459,2682.0422 ZM43.9714,2129.5922 A50.8,50.8 0 0 0 -5.2154,2167.6922 L515.459,2167.6922 L515.459,2129.5922 L43.9714,2129.5922" style="fill-rule:evenodd;"/>
            </g>
            <!-- Block Reference: chair_04_top_cad-block.com / entities: 8 -->
            <g>
                <!-- Line -->
                <path d="M72.5721,1467.6922 L72.5721,1982.0422 " style="stroke:#000000;stroke-width:0.1;"/>
                <!-- Arc -->
                <path d="M43.9715,1429.5922 A50.8,50.8 0 0,0 -5.2154,1467.6922" style="stroke:#000000;stroke-width:0.1;"/>
                <!-- Arc -->
                <path d="M-5.2154,1982.0422 A50.8,50.8 0 0,0 43.9715,2020.1422" style="stroke:#000000;stroke-width:0.1;"/>
                <!-- Polyline -->
                <path d="M43.9715,2020.1422 L515.459,2020.1422 L515.459,1982.0422" style="stroke:#000000;stroke-width:0.1;"/>
                <!-- Polyline -->
                <path d="M43.9715,1429.5922 L515.459,1429.5922 L515.459,1467.6922" style="stroke:#000000;stroke-width:0.1;"/>
                <!-- Polyline -->
                <path d="M566.2846,1467.6922 L566.2846,1982.0422 L-5.2154,1982.0422 L-5.2154,1467.6922 Z" style="stroke:#000000;stroke-width:0.1;"/>
                <!-- Hatch -->
                <path d="M-5.2154,1467.6922 L-5.2154,1982.0422 L72.5721,1982.0422 L72.5721,1467.6922 ZM72.5721,1467.6922 L72.5721,1982.0422 L566.2846,1982.0422 L566.2846,1467.6922 Z" style="fill-rule:evenodd;"/>
                <!-- Hatch -->
                <path d="M-5.2154,1982.0422 A50.8,50.8 0 0 0 43.9716,2020.1422 L515.459,2020.1422 L515.459,1982.0422 ZM43.9714,1429.5922 A50.8,50.8 0 0 0 -5.2154,1467.6922 L515.459,1467.6922 L515.459,1429.5922 L43.9714,1429.5922" style="fill-rule:evenodd;"/>
            </g>
            <!-- Block Reference: Table 2800x800_top_rect_cad-block.com / entities: 2 -->
            <g>
                <!-- Hatch -->
                <path d="M666.2846,-10.1903 L666.2846,2789.8097 L1466.2846,2789.8097 L1466.2846,-10.1903 Z" style="fill-rule:evenodd;"/>
                <!-- Polyline -->
                <path d="M666.2846,-10.1903 L666.2846,2789.8097 L1466.2846,2789.8097 L1466.2846,-10.1903 Z" style="stroke:#000000;stroke-width:0.1;"/>
            </g>
            <!-- Block Reference: chair_04_top_cad-block.com / entities: 8 -->
            <g>
                <!-- Line -->
                <path d="M72.5721,3382.0422 L72.5721,2867.6922 " style="stroke:#000000;stroke-width:0.1;"/>
                <!-- Arc -->
                <path d="M43.9715,3420.1422 A50.8,50.8 0 0,1 -5.2154,3382.0422" style="stroke:#000000;stroke-width:0.1;"/>
                <!-- Arc -->
                <path d="M-5.2154,2867.6922 A50.8,50.8 0 0,1 43.9715,2829.5922" style="stroke:#000000;stroke-width:0.1;"/>
                <!-- Polyline -->
                <path d="M43.9715,2829.5922 L515.459,2829.5922 L515.459,2867.6922" style="stroke:#000000;stroke-width:0.1;"/>
                <!-- Polyline -->
                <path d="M43.9715,3420.1422 L515.459,3420.1422 L515.459,3382.0422" style="stroke:#000000;stroke-width:0.1;"/>
                <!-- Polyline -->
                <path d="M566.2846,3382.0422 L566.2846,2867.6922 L-5.2154,2867.6922 L-5.2154,3382.0422 Z" style="stroke:#000000;stroke-width:0.1;"/>
                <!-- Hatch -->
                <path d="M-5.2154,3382.0422 L-5.2154,2867.6922 L72.5721,2867.6922 L72.5721,3382.0422 ZM72.5721,3382.0422 L72.5721,2867.6922 L566.2846,2867.6922 L566.2846,3382.0422 Z" style="fill-rule:evenodd;"/>
                <!-- Hatch -->
                <path d="M-5.2154,2867.6922 A50.8,50.8 0 0 1 43.9716,2829.5922 L515.459,2829.5922 L515.459,2867.6922 ZM43.9714,3420.1422 A50.8,50.8 0 0 1 -5.2154,3382.0422 L515.459,3382.0422 L515.459,3420.1422 L43.9714,3420.1422" style="fill-rule:evenodd;"/>
            </g>
            <!-- Block Reference: chair_04_top_cad-block.com / entities: 8 -->
            <g>
                <!-- Line -->
                <path d="M72.5721,4082.0422 L72.5721,3567.6922 " style="stroke:#000000;stroke-width:0.1;"/>
                <!-- Arc -->
                <path d="M43.9715,4120.1422 A50.8,50.8 0 0,1 -5.2154,4082.0422" style="stroke:#000000;stroke-width:0.1;"/>
                <!-- Arc -->
                <path d="M-5.2154,3567.6922 A50.8,50.8 0 0,1 43.9715,3529.5922" style="stroke:#000000;stroke-width:0.1;"/>
                <!-- Polyline -->
                <path d="M43.9715,3529.5922 L515.459,3529.5922 L515.459,3567.6922" style="stroke:#000000;stroke-width:0.1;"/>
                <!-- Polyline -->
                <path d="M43.9715,4120.1422 L515.459,4120.1422 L515.459,4082.0422" style="stroke:#000000;stroke-width:0.1;"/>
                <!-- Polyline -->
                <path d="M566.2846,4082.0422 L566.2846,3567.6922 L-5.2154,3567.6922 L-5.2154,4082.0422 Z" style="stroke:#000000;stroke-width:0.1;"/>
                <!-- Hatch -->
                <path d="M-5.2154,4082.0422 L-5.2154,3567.6922 L72.5721,3567.6922 L72.5721,4082.0422 ZM72.5721,4082.0422 L72.5721,3567.6922 L566.2846,3567.6922 L566.2846,4082.0422 Z" style="fill-rule:evenodd;"/>
                <!-- Hatch -->
                <path d="M-5.2154,3567.6922 A50.8,50.8 0 0 1 43.9716,3529.5922 L515.459,3529.5922 L515.459,3567.6922 ZM43.9714,4120.1422 A50.8,50.8 0 0 1 -5.2154,4082.0422 L515.459,4082.0422 L515.459,4120.1422 L43.9714,4120.1422" style="fill-rule:evenodd;"/>
            </g>
            <!-- Block Reference: chair_04_top_cad-block.com / entities: 8 -->
            <g>
                <!-- Line -->
                <path d="M72.5721,4967.6922 L72.5721,5482.0422 " style="stroke:#000000;stroke-width:0.1;"/>
                <!-- Arc -->
                <path d="M43.9715,4929.5922 A50.8,50.8 0 0,0 -5.2154,4967.6922" style="stroke:#000000;stroke-width:0.1;"/>
                <!-- Arc -->
                <path d="M-5.2154,5482.0422 A50.8,50.8 0 0,0 43.9715,5520.1422" style="stroke:#000000;stroke-width:0.1;"/>
                <!-- Polyline -->
                <path d="M43.9715,5520.1422 L515.459,5520.1422 L515.459,5482.0422" style="stroke:#000000;stroke-width:0.1;"/>
                <!-- Polyline -->
                <path d="M43.9715,4929.5922 L515.459,4929.5922 L515.459,4967.6922" style="stroke:#000000;stroke-width:0.1;"/>
                <!-- Polyline -->
                <path d="M566.2846,4967.6922 L566.2846,5482.0422 L-5.2154,5482.0422 L-5.2154,4967.6922 Z" style="stroke:#000000;stroke-width:0.1;"/>
                <!-- Hatch -->
                <path d="M-5.2154,4967.6922 L-5.2154,5482.0422 L72.5721,5482.0422 L72.5721,4967.6922 ZM72.5721,4967.6922 L72.5721,5482.0422 L566.2846,5482.0422 L566.2846,4967.6922 Z" style="fill-rule:evenodd;"/>
                <!-- Hatch -->
                <path d="M-5.2154,5482.0422 A50.8,50.8 0 0 0 43.9716,5520.1422 L515.459,5520.1422 L515.459,5482.0422 ZM43.9714,4929.5922 A50.8,50.8 0 0 0 -5.2154,4967.6922 L515.459,4967.6922 L515.459,4929.5922 L43.9714,4929.5922" style="fill-rule:evenodd;"/>
            </g>
            <!-- Block Reference: chair_04_top_cad-block.com / entities: 8 -->
            <g>
                <!-- Line -->
                <path d="M72.5721,4267.6922 L72.5721,4782.0422 " style="stroke:#000000;stroke-width:0.1;"/>
                <!-- Arc -->
                <path d="M43.9715,4229.5922 A50.8,50.8 0 0,0 -5.2154,4267.6922" style="stroke:#000000;stroke-width:0.1;"/>
                <!-- Arc -->
                <path d="M-5.2154,4782.0422 A50.8,50.8 0 0,0 43.9715,4820.1422" style="stroke:#000000;stroke-width:0.1;"/>
                <!-- Polyline -->
                <path d="M43.9715,4820.1422 L515.459,4820.1422 L515.459,4782.0422" style="stroke:#000000;stroke-width:0.1;"/>
                <!-- Polyline -->
                <path d="M43.9715,4229.5922 L515.459,4229.5922 L515.459,4267.6922" style="stroke:#000000;stroke-width:0.1;"/>
                <!-- Polyline -->
                <path d="M566.2846,4267.6922 L566.2846,4782.0422 L-5.2154,4782.0422 L-5.2154,4267.6922 Z" style="stroke:#000000;stroke-width:0.1;"/>
                <!-- Hatch -->
                <path d="M-5.2154,4267.6922 L-5.2154,4782.0422 L72.5721,4782.0422 L72.5721,4267.6922 ZM72.5721,4267.6922 L72.5721,4782.0422 L566.2846,4782.0422 L566.2846,4267.6922 Z" style="fill-rule:evenodd;"/>
                <!-- Hatch -->
                <path d="M-5.2154,4782.0422 A50.8,50.8 0 0 0 43.9716,4820.1422 L515.459,4820.1422 L515.459,4782.0422 ZM43.9714,4229.5922 A50.8,50.8 0 0 0 -5.2154,4267.6922 L515.459,4267.6922 L515.459,4229.5922 L43.9714,4229.5922" style="fill-rule:evenodd;"/>
            </g>
            <!-- Block Reference: Table 2800x800_top_rect_cad-block.com / entities: 2 -->
            <g>
                <!-- Hatch -->
                <path d="M666.2846,2789.8097 L666.2846,5589.8097 L1466.2846,5589.8097 L1466.2846,2789.8097 Z" style="fill-rule:evenodd;"/>
                <!-- Polyline -->
                <path d="M666.2846,2789.8097 L666.2846,5589.8097 L1466.2846,5589.8097 L1466.2846,2789.8097 Z" style="stroke:#000000;stroke-width:0.1;"/>
            </g>
            <!-- Block Reference: chair_04_top_cad-block.com / entities: 8 -->
            <g>
                <!-- Line -->
                <path d="M2058.5172,6183.5222 L1544.1672,6183.5222 " style="stroke:#000000;stroke-width:0.1;"/>
                <!-- Arc -->
                <path d="M2096.6172,6212.1228 A50.8,50.8 0 0,1 2058.5172,6261.3097" style="stroke:#000000;stroke-width:0.1;"/>
                <!-- Arc -->
                <path d="M1544.1672,6261.3097 A50.8,50.8 0 0,1 1506.0672,6212.1228" style="stroke:#000000;stroke-width:0.1;"/>
                <!-- Polyline -->
                <path d="M1506.0672,6212.1228 L1506.0672,5740.6353 L1544.1672,5740.6353" style="stroke:#000000;stroke-width:0.1;"/>
                <!-- Polyline -->
                <path d="M2096.6172,6212.1228 L2096.6172,5740.6353 L2058.5172,5740.6353" style="stroke:#000000;stroke-width:0.1;"/>
                <!-- Polyline -->
                <path d="M2058.5172,5689.8097 L1544.1672,5689.8097 L1544.1672,6261.3097 L2058.5172,6261.3097 Z" style="stroke:#000000;stroke-width:0.1;"/>
                <!-- Hatch -->
                <path d="M2058.5172,6261.3097 L1544.1672,6261.3097 L1544.1672,6183.5222 L2058.5172,6183.5222 ZM2058.5172,6183.5222 L1544.1672,6183.5222 L1544.1672,5689.8097 L2058.5172,5689.8097 Z" style="fill-rule:evenodd;"/>
                <!-- Hatch -->
                <path d="M1544.1672,6261.3097 A50.8,50.8 0 0 1 1506.0672,6212.1226 L1506.0672,5740.6353 L1544.1672,5740.6353 ZM2096.6172,6212.1229 A50.8,50.8 0 0 1 2058.5172,6261.3097 L2058.5172,5740.6353 L2096.6172,5740.6353 L2096.6172,6212.1229" style="fill-rule:evenodd;"/>
            </g>
            <!-- Block Reference: chair_04_top_cad-block.com / entities: 8 -->
            <g>
                <!-- Line -->
                <path d="M2758.5172,6183.5222 L2244.1672,6183.5222 " style="stroke:#000000;stroke-width:0.1;"/>
                <!-- Arc -->
                <path d="M2796.6172,6212.1228 A50.8,50.8 0 0,1 2758.5172,6261.3097" style="stroke:#000000;stroke-width:0.1;"/>
                <!-- Arc -->
                <path d="M2244.1672,6261.3097 A50.8,50.8 0 0,1 2206.0672,6212.1228" style="stroke:#000000;stroke-width:0.1;"/>
                <!-- Polyline -->
                <path d="M2206.0672,6212.1228 L2206.0672,5740.6353 L2244.1672,5740.6353" style="stroke:#000000;stroke-width:0.1;"/>
                <!-- Polyline -->
                <path d="M2796.6172,6212.1228 L2796.6172,5740.6353 L2758.5172,5740.6353" style="stroke:#000000;stroke-width:0.1;"/>
                <!-- Polyline -->
                <path d="M2758.5172,5689.8097 L2244.1672,5689.8097 L2244.1672,6261.3097 L2758.5172,6261.3097 Z" style="stroke:#000000;stroke-width:0.1;"/>
                <!-- Hatch -->
                <path d="M2758.5172,6261.3097 L2244.1672,6261.3097 L2244.1672,6183.5222 L2758.5172,6183.5222 ZM2758.5172,6183.5222 L2244.1672,6183.5222 L2244.1672,5689.8097 L2758.5172,5689.8097 Z" style="fill-rule:evenodd;"/>
                <!-- Hatch -->
                <path d="M2244.1672,6261.3097 A50.8,50.8 0 0 1 2206.0672,6212.1226 L2206.0672,5740.6353 L2244.1672,5740.6353 ZM2796.6172,6212.1229 A50.8,50.8 0 0 1 2758.5172,6261.3097 L2758.5172,5740.6353 L2796.6172,5740.6353 L2796.6172,6212.1229" style="fill-rule:evenodd;"/>
            </g>
            <!-- Block Reference: chair_04_top_cad-block.com / entities: 8 -->
            <g>
                <!-- Line -->
                <path d="M3644.1672,6183.5222 L4158.5172,6183.5222 " style="stroke:#000000;stroke-width:0.1;"/>
                <!-- Arc -->
                <path d="M3606.0672,6212.1228 A50.8,50.8 0 0,0 3644.1672,6261.3097" style="stroke:#000000;stroke-width:0.1;"/>
                <!-- Arc -->
                <path d="M4158.5172,6261.3097 A50.8,50.8 0 0,0 4196.6172,6212.1228" style="stroke:#000000;stroke-width:0.1;"/>
                <!-- Polyline -->
                <path d="M4196.6172,6212.1228 L4196.6172,5740.6353 L4158.5172,5740.6353" style="stroke:#000000;stroke-width:0.1;"/>
                <!-- Polyline -->
                <path d="M3606.0672,6212.1228 L3606.0672,5740.6353 L3644.1672,5740.6353" style="stroke:#000000;stroke-width:0.1;"/>
                <!-- Polyline -->
                <path d="M3644.1672,5689.8097 L4158.5172,5689.8097 L4158.5172,6261.3097 L3644.1672,6261.3097 Z" style="stroke:#000000;stroke-width:0.1;"/>
                <!-- Hatch -->
                <path d="M3644.1672,6261.3097 L4158.5172,6261.3097 L4158.5172,6183.5222 L3644.1672,6183.5222 ZM3644.1672,6183.5222 L4158.5172,6183.5222 L4158.5172,5689.8097 L3644.1672,5689.8097 Z" style="fill-rule:evenodd;"/>
                <!-- Hatch -->
                <path d="M4158.5172,6261.3097 A50.8,50.8 0 0 0 4196.6172,6212.1226 L4196.6172,5740.6353 L4158.5172,5740.6353 ZM3606.0672,6212.1229 A50.8,50.8 0 0 0 3644.1672,6261.3097 L3644.1672,5740.6353 L3606.0672,5740.6353 L3606.0672,6212.1229" style="fill-rule:evenodd;"/>
            </g>
            <!-- Block Reference: chair_04_top_cad-block.com / entities: 8 -->
            <g>
                <!-- Line -->
                <path d="M2944.1672,6183.5222 L3458.5172,6183.5222 " style="stroke:#000000;stroke-width:0.1;"/>
                <!-- Arc -->
                <path d="M2906.0672,6212.1228 A50.8,50.8 0 0,0 2944.1672,6261.3097" style="stroke:#000000;stroke-width:0.1;"/>
                <!-- Arc -->
                <path d="M3458.5172,6261.3097 A50.8,50.8 0 0,0 3496.6172,6212.1228" style="stroke:#000000;stroke-width:0.1;"/>
                <!-- Polyline -->
                <path d="M3496.6172,6212.1228 L3496.6172,5740.6353 L3458.5172,5740.6353" style="stroke:#000000;stroke-width:0.1;"/>
                <!-- Polyline -->
                <path d="M2906.0672,6212.1228 L2906.0672,5740.6353 L2944.1672,5740.6353" style="stroke:#000000;stroke-width:0.1;"/>
                <!-- Polyline -->
                <path d="M2944.1672,5689.8097 L3458.5172,5689.8097 L3458.5172,6261.3097 L2944.1672,6261.3097 Z" style="stroke:#000000;stroke-width:0.1;"/>
                <!-- Hatch -->
                <path d="M2944.1672,6261.3097 L3458.5172,6261.3097 L3458.5172,6183.5222 L2944.1672,6183.5222 ZM2944.1672,6183.5222 L3458.5172,6183.5222 L3458.5172,5689.8097 L2944.1672,5689.8097 Z" style="fill-rule:evenodd;"/>
                <!-- Hatch -->
                <path d="M3458.5172,6261.3097 A50.8,50.8 0 0 0 3496.6172,6212.1226 L3496.6172,5740.6353 L3458.5172,5740.6353 ZM2906.0672,6212.1229 A50.8,50.8 0 0 0 2944.1672,6261.3097 L2944.1672,5740.6353 L2906.0672,5740.6353 L2906.0672,6212.1229" style="fill-rule:evenodd;"/>
            </g>
            <!-- Block Reference: Table 2800x800_top_rect_cad-block.com / entities: 2 -->
            <g>
                <!-- Hatch -->
                <path d="M1466.2846,5589.8097 L4266.2846,5589.8097 L4266.2846,4789.8097 L1466.2846,4789.8097 Z" style="fill-rule:evenodd;"/>
                <!-- Polyline -->
                <path d="M1466.2846,5589.8097 L4266.2846,5589.8097 L4266.2846,4789.8097 L1466.2846,4789.8097 Z" style="stroke:#000000;stroke-width:0.1;"/>
            </g>
            <!-- Block Reference: chair_04_top_cad-block.com / entities: 8 -->
            <g>
                <!-- Line -->
                <path d="M5659.9971,582.0422 L5659.9971,67.6922 " style="stroke:#000000;stroke-width:0.1;"/>
                <!-- Arc -->
                <path d="M5688.5977,620.1422 A50.8,50.8 0 0,0 5737.7846,582.0422" style="stroke:#000000;stroke-width:0.1;"/>
                <!-- Arc -->
                <path d="M5737.7846,67.6922 A50.8,50.8 0 0,0 5688.5977,29.5922" style="stroke:#000000;stroke-width:0.1;"/>
                <!-- Polyline -->
                <path d="M5688.5977,29.5922 L5217.1102,29.5922 L5217.1102,67.6922" style="stroke:#000000;stroke-width:0.1;"/>
                <!-- Polyline -->
                <path d="M5688.5977,620.1422 L5217.1102,620.1422 L5217.1102,582.0422" style="stroke:#000000;stroke-width:0.1;"/>
                <!-- Polyline -->
                <path d="M5166.2846,582.0422 L5166.2846,67.6922 L5737.7846,67.6922 L5737.7846,582.0422 Z" style="stroke:#000000;stroke-width:0.1;"/>
                <!-- Hatch -->
                <path d="M5737.7846,582.0422 L5737.7846,67.6922 L5659.9971,67.6922 L5659.9971,582.0422 ZM5659.9971,582.0422 L5659.9971,67.6922 L5166.2846,67.6922 L5166.2846,582.0422 Z" style="fill-rule:evenodd;"/>
                <!-- Hatch -->
                <path d="M5737.7846,67.6922 A50.8,50.8 0 0 0 5688.5976,29.5922 L5217.1102,29.5922 L5217.1102,67.6922 ZM5688.5979,620.1422 A50.8,50.8 0 0 0 5737.7846,582.0422 L5217.1102,582.0422 L5217.1102,620.1422 L5688.5979,620.1422" style="fill-rule:evenodd;"/>
            </g>
            <!-- Block Reference: chair_04_top_cad-block.com / entities: 8 -->
            <g>
                <!-- Line -->
                <path d="M5659.9971,1282.0422 L5659.9971,767.6922 " style="stroke:#000000;stroke-width:0.1;"/>
                <!-- Arc -->
                <path d="M5688.5977,1320.1422 A50.8,50.8 0 0,0 5737.7846,1282.0422" style="stroke:#000000;stroke-width:0.1;"/>
                <!-- Arc -->
                <path d="M5737.7846,767.6922 A50.8,50.8 0 0,0 5688.5977,729.5922" style="stroke:#000000;stroke-width:0.1;"/>
                <!-- Polyline -->
                <path d="M5688.5977,729.5922 L5217.1102,729.5922 L5217.1102,767.6922" style="stroke:#000000;stroke-width:0.1;"/>
                <!-- Polyline -->
                <path d="M5688.5977,1320.1422 L5217.1102,1320.1422 L5217.1102,1282.0422" style="stroke:#000000;stroke-width:0.1;"/>
                <!-- Polyline -->
                <path d="M5166.2846,1282.0422 L5166.2846,767.6922 L5737.7846,767.6922 L5737.7846,1282.0422 Z" style="stroke:#000000;stroke-width:0.1;"/>
                <!-- Hatch -->
                <path d="M5737.7846,1282.0422 L5737.7846,767.6922 L5659.9971,767.6922 L5659.9971,1282.0422 ZM5659.9971,1282.0422 L5659.9971,767.6922 L5166.2846,767.6922 L5166.2846,1282.0422 Z" style="fill-rule:evenodd;"/>
                <!-- Hatch -->
                <path d="M5737.7846,767.6922 A50.8,50.8 0 0 0 5688.5976,729.5922 L5217.1102,729.5922 L5217.1102,767.6922 ZM5688.5979,1320.1422 A50.8,50.8 0 0 0 5737.7846,1282.0422 L5217.1102,1282.0422 L5217.1102,1320.1422 L5688.5979,1320.1422" style="fill-rule:evenodd;"/>
            </g>
            <!-- Block Reference: chair_04_top_cad-block.com / entities: 8 -->
            <g>
                <!-- Line -->
                <path d="M5659.9971,2167.6922 L5659.9971,2682.0422 " style="stroke:#000000;stroke-width:0.1;"/>
                <!-- Arc -->
                <path d="M5688.5977,2129.5922 A50.8,50.8 0 0,1 5737.7846,2167.6922" style="stroke:#000000;stroke-width:0.1;"/>
                <!-- Arc -->
                <path d="M5737.7846,2682.0422 A50.8,50.8 0 0,1 5688.5977,2720.1422" style="stroke:#000000;stroke-width:0.1;"/>
                <!-- Polyline -->
                <path d="M5688.5977,2720.1422 L5217.1102,2720.1422 L5217.1102,2682.0422" style="stroke:#000000;stroke-width:0.1;"/>
                <!-- Polyline -->
                <path d="M5688.5977,2129.5922 L5217.1102,2129.5922 L5217.1102,2167.6922" style="stroke:#000000;stroke-width:0.1;"/>
                <!-- Polyline -->
                <path d="M5166.2846,2167.6922 L5166.2846,2682.0422 L5737.7846,2682.0422 L5737.7846,2167.6922 Z" style="stroke:#000000;stroke-width:0.1;"/>
                <!-- Hatch -->
                <path d="M5737.7846,2167.6922 L5737.7846,2682.0422 L5659.9971,2682.0422 L5659.9971,2167.6922 ZM5659.9971,2167.6922 L5659.9971,2682.0422 L5166.2846,2682.0422 L5166.2846,2167.6922 Z" style="fill-rule:evenodd;"/>
                <!-- Hatch -->
                <path d="M5737.7846,2682.0422 A50.8,50.8 0 0 1 5688.5976,2720.1422 L5217.1102,2720.1422 L5217.1102,2682.0422 ZM5688.5979,2129.5922 A50.8,50.8 0 0 1 5737.7846,2167.6922 L5217.1102,2167.6922 L5217.1102,2129.5922 L5688.5979,2129.5922" style="fill-rule:evenodd;"/>
            </g>
            <!-- Block Reference: chair_04_top_cad-block.com / entities: 8 -->
            <g>
                <!-- Line -->
                <path d="M5659.9971,1467.6922 L5659.9971,1982.0422 " style="stroke:#000000;stroke-width:0.1;"/>
                <!-- Arc -->
                <path d="M5688.5977,1429.5922 A50.8,50.8 0 0,1 5737.7846,1467.6922" style="stroke:#000000;stroke-width:0.1;"/>
                <!-- Arc -->
                <path d="M5737.7846,1982.0422 A50.8,50.8 0 0,1 5688.5977,2020.1422" style="stroke:#000000;stroke-width:0.1;"/>
                <!-- Polyline -->
                <path d="M5688.5977,2020.1422 L5217.1102,2020.1422 L5217.1102,1982.0422" style="stroke:#000000;stroke-width:0.1;"/>
                <!-- Polyline -->
                <path d="M5688.5977,1429.5922 L5217.1102,1429.5922 L5217.1102,1467.6922" style="stroke:#000000;stroke-width:0.1;"/>
                <!-- Polyline -->
                <path d="M5166.2846,1467.6922 L5166.2846,1982.0422 L5737.7846,1982.0422 L5737.7846,1467.6922 Z" style="stroke:#000000;stroke-width:0.1;"/>
                <!-- Hatch -->
                <path d="M5737.7846,1467.6922 L5737.7846,1982.0422 L5659.9971,1982.0422 L5659.9971,1467.6922 ZM5659.9971,1467.6922 L5659.9971,1982.0422 L5166.2846,1982.0422 L5166.2846,1467.6922 Z" style="fill-rule:evenodd;"/>
                <!-- Hatch -->
                <path d="M5737.7846,1982.0422 A50.8,50.8 0 0 1 5688.5976,2020.1422 L5217.1102,2020.1422 L5217.1102,1982.0422 ZM5688.5979,1429.5922 A50.8,50.8 0 0 1 5737.7846,1467.6922 L5217.1102,1467.6922 L5217.1102,1429.5922 L5688.5979,1429.5922" style="fill-rule:evenodd;"/>
            </g>
            <!-- Block Reference: Table 2800x800_top_rect_cad-block.com / entities: 2 -->
            <g>
                <!-- Hatch -->
                <path d="M5066.2846,-10.1903 L5066.2846,2789.8097 L4266.2846,2789.8097 L4266.2846,-10.1903 Z" style="fill-rule:evenodd;"/>
                <!-- Polyline -->
                <path d="M5066.2846,-10.1903 L5066.2846,2789.8097 L4266.2846,2789.8097 L4266.2846,-10.1903 Z" style="stroke:#000000;stroke-width:0.1;"/>
            </g>
            <!-- Block Reference: chair_04_top_cad-block.com / entities: 8 -->
            <g>
                <!-- Line -->
                <path d="M5659.9971,3382.0422 L5659.9971,2867.6922 " style="stroke:#000000;stroke-width:0.1;"/>
                <!-- Arc -->
                <path d="M5688.5977,3420.1422 A50.8,50.8 0 0,0 5737.7846,3382.0422" style="stroke:#000000;stroke-width:0.1;"/>
                <!-- Arc -->
                <path d="M5737.7846,2867.6922 A50.8,50.8 0 0,0 5688.5977,2829.5922" style="stroke:#000000;stroke-width:0.1;"/>
                <!-- Polyline -->
                <path d="M5688.5977,2829.5922 L5217.1102,2829.5922 L5217.1102,2867.6922" style="stroke:#000000;stroke-width:0.1;"/>
                <!-- Polyline -->
                <path d="M5688.5977,3420.1422 L5217.1102,3420.1422 L5217.1102,3382.0422" style="stroke:#000000;stroke-width:0.1;"/>
                <!-- Polyline -->
                <path d="M5166.2846,3382.0422 L5166.2846,2867.6922 L5737.7846,2867.6922 L5737.7846,3382.0422 Z" style="stroke:#000000;stroke-width:0.1;"/>
                <!-- Hatch -->
                <path d="M5737.7846,3382.0422 L5737.7846,2867.6922 L5659.9971,2867.6922 L5659.9971,3382.0422 ZM5659.9971,3382.0422 L5659.9971,2867.6922 L5166.2846,2867.6922 L5166.2846,3382.0422 Z" style="fill-rule:evenodd;"/>
                <!-- Hatch -->
                <path d="M5737.7846,2867.6922 A50.8,50.8 0 0 0 5688.5976,2829.5922 L5217.1102,2829.5922 L5217.1102,2867.6922 ZM5688.5979,3420.1422 A50.8,50.8 0 0 0 5737.7846,3382.0422 L5217.1102,3382.0422 L5217.1102,3420.1422 L5688.5979,3420.1422" style="fill-rule:evenodd;"/>
            </g>
            <!-- Block Reference: chair_04_top_cad-block.com / entities: 8 -->
            <g>
                <!-- Line -->
                <path d="M5659.9971,4082.0422 L5659.9971,3567.6922 " style="stroke:#000000;stroke-width:0.1;"/>
                <!-- Arc -->
                <path d="M5688.5977,4120.1422 A50.8,50.8 0 0,0 5737.7846,4082.0422" style="stroke:#000000;stroke-width:0.1;"/>
                <!-- Arc -->
                <path d="M5737.7846,3567.6922 A50.8,50.8 0 0,0 5688.5977,3529.5922" style="stroke:#000000;stroke-width:0.1;"/>
                <!-- Polyline -->
                <path d="M5688.5977,3529.5922 L5217.1102,3529.5922 L5217.1102,3567.6922" style="stroke:#000000;stroke-width:0.1;"/>
                <!-- Polyline -->
                <path d="M5688.5977,4120.1422 L5217.1102,4120.1422 L5217.1102,4082.0422" style="stroke:#000000;stroke-width:0.1;"/>
                <!-- Polyline -->
                <path d="M5166.2846,4082.0422 L5166.2846,3567.6922 L5737.7846,3567.6922 L5737.7846,4082.0422 Z" style="stroke:#000000;stroke-width:0.1;"/>
                <!-- Hatch -->
                <path d="M5737.7846,4082.0422 L5737.7846,3567.6922 L5659.9971,3567.6922 L5659.9971,4082.0422 ZM5659.9971,4082.0422 L5659.9971,3567.6922 L5166.2846,3567.6922 L5166.2846,4082.0422 Z" style="fill-rule:evenodd;"/>
                <!-- Hatch -->
                <path d="M5737.7846,3567.6922 A50.8,50.8 0 0 0 5688.5976,3529.5922 L5217.1102,3529.5922 L5217.1102,3567.6922 ZM5688.5979,4120.1422 A50.8,50.8 0 0 0 5737.7846,4082.0422 L5217.1102,4082.0422 L5217.1102,4120.1422 L5688.5979,4120.1422" style="fill-rule:evenodd;"/>
            </g>
            <!-- Block Reference: chair_04_top_cad-block.com / entities: 8 -->
            <g>
                <!-- Line -->
                <path d="M5659.9971,4967.6922 L5659.9971,5482.0422 " style="stroke:#000000;stroke-width:0.1;"/>
                <!-- Arc -->
                <path d="M5688.5977,4929.5922 A50.8,50.8 0 0,1 5737.7846,4967.6922" style="stroke:#000000;stroke-width:0.1;"/>
                <!-- Arc -->
                <path d="M5737.7846,5482.0422 A50.8,50.8 0 0,1 5688.5977,5520.1422" style="stroke:#000000;stroke-width:0.1;"/>
                <!-- Polyline -->
                <path d="M5688.5977,5520.1422 L5217.1102,5520.1422 L5217.1102,5482.0422" style="stroke:#000000;stroke-width:0.1;"/>
                <!-- Polyline -->
                <path d="M5688.5977,4929.5922 L5217.1102,4929.5922 L5217.1102,4967.6922" style="stroke:#000000;stroke-width:0.1;"/>
                <!-- Polyline -->
                <path d="M5166.2846,4967.6922 L5166.2846,5482.0422 L5737.7846,5482.0422 L5737.7846,4967.6922 Z" style="stroke:#000000;stroke-width:0.1;"/>
                <!-- Hatch -->
                <path d="M5737.7846,4967.6922 L5737.7846,5482.0422 L5659.9971,5482.0422 L5659.9971,4967.6922 ZM5659.9971,4967.6922 L5659.9971,5482.0422 L5166.2846,5482.0422 L5166.2846,4967.6922 Z" style="fill-rule:evenodd;"/>
                <!-- Hatch -->
                <path d="M5737.7846,5482.0422 A50.8,50.8 0 0 1 5688.5976,5520.1422 L5217.1102,5520.1422 L5217.1102,5482.0422 ZM5688.5979,4929.5922 A50.8,50.8 0 0 1 5737.7846,4967.6922 L5217.1102,4967.6922 L5217.1102,4929.5922 L5688.5979,4929.5922" style="fill-rule:evenodd;"/>
            </g>
            <!-- Block Reference: chair_04_top_cad-block.com / entities: 8 -->
            <g>
                <!-- Line -->
                <path d="M5659.9971,4267.6922 L5659.9971,4782.0422 " style="stroke:#000000;stroke-width:0.1;"/>
                <!-- Arc -->
                <path d="M5688.5977,4229.5922 A50.8,50.8 0 0,1 5737.7846,4267.6922" style="stroke:#000000;stroke-width:0.1;"/>
                <!-- Arc -->
                <path d="M5737.7846,4782.0422 A50.8,50.8 0 0,1 5688.5977,4820.1422" style="stroke:#000000;stroke-width:0.1;"/>
                <!-- Polyline -->
                <path d="M5688.5977,4820.1422 L5217.1102,4820.1422 L5217.1102,4782.0422" style="stroke:#000000;stroke-width:0.1;"/>
                <!-- Polyline -->
                <path d="M5688.5977,4229.5922 L5217.1102,4229.5922 L5217.1102,4267.6922" style="stroke:#000000;stroke-width:0.1;"/>
                <!-- Polyline -->
                <path d="M5166.2846,4267.6922 L5166.2846,4782.0422 L5737.7846,4782.0422 L5737.7846,4267.6922 Z" style="stroke:#000000;stroke-width:0.1;"/>
                <!-- Hatch -->
                <path d="M5737.7846,4267.6922 L5737.7846,4782.0422 L5659.9971,4782.0422 L5659.9971,4267.6922 ZM5659.9971,4267.6922 L5659.9971,4782.0422 L5166.2846,4782.0422 L5166.2846,4267.6922 Z" style="fill-rule:evenodd;"/>
                <!-- Hatch -->
                <path d="M5737.7846,4782.0422 A50.8,50.8 0 0 1 5688.5976,4820.1422 L5217.1102,4820.1422 L5217.1102,4782.0422 ZM5688.5979,4229.5922 A50.8,50.8 0 0 1 5737.7846,4267.6922 L5217.1102,4267.6922 L5217.1102,4229.5922 L5688.5979,4229.5922" style="fill-rule:evenodd;"/>
            </g>
            <!-- Block Reference: Table 2800x800_top_rect_cad-block.com / entities: 2 -->
            <g>
                <!-- Hatch -->
                <path d="M5066.2846,2789.8097 L5066.2846,5589.8097 L4266.2846,5589.8097 L4266.2846,2789.8097 Z" style="fill-rule:evenodd;"/>
                <!-- Polyline -->
                <path d="M5066.2846,2789.8097 L5066.2846,5589.8097 L4266.2846,5589.8097 L4266.2846,2789.8097 Z" style="stroke:#000000;stroke-width:0.1;"/>
            </g>
        </g>
    </g>
</svg>

