<?xml version="1.0" encoding="UTF-8"?>
<!-- 2026-03-18 12:29:06 Generated by QCAD 3.32.6 SVG Exporter -->
<svg width="10150mm" height="10150mm" viewBox="-37.1019 -10077.3208 10150 10150" version="1.1" xmlns="http://www.w3.org/2000/svg" style="stroke-linecap:round;stroke-linejoin:round;fill:none">
    <g transform="scale(1,-1)">
        <!-- Line -->
        <path d="M-37.1019,10077.3208 L112.8981,10077.3208 " style="stroke:#000000;stroke-width:0.3;"/>
        <!-- Line -->
        <path d="M112.8981,10077.3208 L112.8981,9927.3208 " style="stroke:#000000;stroke-width:0.3;"/>
        <!-- Line -->
        <path d="M112.8981,9927.3208 L-37.1019,9927.3208 " style="stroke:#000000;stroke-width:0.3;"/>
        <!-- Line -->
        <path d="M-37.1019,9927.3208 L-37.1019,10077.3208 " style="stroke:#000000;stroke-width:0.3;"/>
        <!-- Polyline -->
        <path d="M-37.1019,10077.3208 L112.8981,10077.3208 L112.8981,9927.3208 L-37.1019,9927.3208 Z" style="stroke:#000000;stroke-width:0.3;"/>
        <!-- Line -->
        <path d="M-37.1019,77.3208 L112.8981,77.3208 " style="stroke:#000000;stroke-width:0.3;"/>
        <!-- Line -->
        <path d="M112.8981,77.3208 L112.8981,-72.6792 " style="stroke:#000000;stroke-width:0.3;"/>
        <!-- Line -->
        <path d="M112.8981,-72.6792 L-37.1019,-72.6792 " style="stroke:#000000;stroke-width:0.3;"/>
        <!-- Line -->
        <path d="M-37.1019,-72.6792 L-37.1019,77.3208 " style="stroke:#000000;stroke-width:0.3;"/>
        <!-- Polyline -->
        <path d="M-37.1019,77.3208 L112.8981,77.3208 L112.8981,-72.6792 L-37.1019,-72.6792 Z" style="stroke:#000000;stroke-width:0.3;"/>
        <!-- Line -->
        <path d="M-37.1019,5014.8208 L112.8981,5014.8208 " style="stroke:#000000;stroke-width:0.3;"/>
        <!-- Line -->
        <path d="M112.8981,5014.8208 L112.8981,4914.8208 " style="stroke:#000000;stroke-width:0.3;"/>
        <!-- Line -->
        <path d="M112.8981,4914.8208 L-37.1019,4914.8208 " style="stroke:#000000;stroke-width:0.3;"/>
        <!-- Line -->
        <path d="M-37.1019,4914.8208 L-37.1019,5014.8208 " style="stroke:#000000;stroke-width:0.3;"/>
        <!-- Polyline -->
        <path d="M-37.1019,5014.8208 L112.8981,5014.8208 L112.8981,4914.8208 L-37.1019,4914.8208 Z" style="stroke:#000000;stroke-width:0.3;"/>
        <!-- Line -->
        <path d="M4987.8981,10077.3208 L5087.8981,10077.3208 " style="stroke:#000000;stroke-width:0.3;"/>
        <!-- Line -->
        <path d="M5087.8981,10077.3208 L5087.8981,9927.3208 " style="stroke:#000000;stroke-width:0.3;"/>
        <!-- Line -->
        <path d="M5087.8981,9927.3208 L4987.8981,9927.3208 " style="stroke:#000000;stroke-width:0.3;"/>
        <!-- Line -->
        <path d="M4987.8981,9927.3208 L4987.8981,10077.3208 " style="stroke:#000000;stroke-width:0.3;"/>
        <!-- Polyline -->
        <path d="M4987.8981,10077.3208 L5087.8981,10077.3208 L5087.8981,9927.3208 L4987.8981,9927.3208 Z" style="stroke:#000000;stroke-width:0.3;"/>
        <!-- Line -->
        <path d="M4987.8981,77.3208 L5087.8981,77.3208 " style="stroke:#000000;stroke-width:0.3;"/>
        <!-- Line -->
        <path d="M5087.8981,77.3208 L5087.8981,-72.6792 " style="stroke:#000000;stroke-width:0.3;"/>
        <!-- Line -->
        <path d="M5087.8981,-72.6792 L4987.8981,-72.6792 " style="stroke:#000000;stroke-width:0.3;"/>
        <!-- Line -->
        <path d="M4987.8981,-72.6792 L4987.8981,77.3208 " style="stroke:#000000;stroke-width:0.3;"/>
        <!-- Polyline -->
        <path d="M4987.8981,77.3208 L5087.8981,77.3208 L5087.8981,-72.6792 L4987.8981,-72.6792 Z" style="stroke:#000000;stroke-width:0.3;"/>
        <!-- Line -->
        <path d="M9987.8981,10077.3208 L10087.8981,10077.3208 " style="stroke:#000000;stroke-width:0.3;"/>
        <!-- Line -->
        <path d="M10087.8981,10077.3208 L10087.8981,9927.3208 " style="stroke:#000000;stroke-width:0.3;"/>
        <!-- Line -->
        <path d="M10087.8981,9927.3208 L9987.8981,9927.3208 " style="stroke:#000000;stroke-width:0.3;"/>
        <!-- Line -->
        <path d="M9987.8981,9927.3208 L9987.8981,10077.3208 " style="stroke:#000000;stroke-width:0.3;"/>
        <!-- Polyline -->
        <path d="M9987.8981,10077.3208 L10087.8981,10077.3208 L10087.8981,9927.3208 L9987.8981,9927.3208 Z" style="stroke:#000000;stroke-width:0.3;"/>
        <!-- Line -->
        <path d="M9987.8981,77.3208 L10087.8981,77.3208 " style="stroke:#000000;stroke-width:0.3;"/>
        <!-- Line -->
        <path d="M10087.8981,77.3208 L10087.8981,-72.6792 " style="stroke:#000000;stroke-width:0.3;"/>
        <!-- Line -->
        <path d="M10087.8981,-72.6792 L9987.8981,-72.6792 " style="stroke:#000000;stroke-width:0.3;"/>
        <!-- Line -->
        <path d="M9987.8981,-72.6792 L9987.8981,77.3208 " style="stroke:#000000;stroke-width:0.3;"/>
        <!-- Polyline -->
        <path d="M9987.8981,77.3208 L10087.8981,77.3208 L10087.8981,-72.6792 L9987.8981,-72.6792 Z" style="stroke:#000000;stroke-width:0.3;"/>
        <!-- Line -->
        <path d="M9987.8981,10077.3208 L10087.8981,10077.3208 " style="stroke:#000000;stroke-width:0.3;"/>
        <!-- Line -->
        <path d="M10087.8981,10077.3208 L10087.8981,9927.3208 " style="stroke:#000000;stroke-width:0.3;"/>
        <!-- Line -->
        <path d="M10087.8981,9927.3208 L9987.8981,9927.3208 " style="stroke:#000000;stroke-width:0.3;"/>
        <!-- Line -->
        <path d="M9987.8981,9927.3208 L9987.8981,10077.3208 " style="stroke:#000000;stroke-width:0.3;"/>
        <!-- Line -->
        <path d="M9987.8981,77.3208 L10087.8981,77.3208 " style="stroke:#000000;stroke-width:0.3;"/>
        <!-- Line -->
        <path d="M10087.8981,77.3208 L10087.8981,-72.6792 " style="stroke:#000000;stroke-width:0.3;"/>
        <!-- Line -->
        <path d="M10087.8981,-72.6792 L9987.8981,-72.6792 " style="stroke:#000000;stroke-width:0.3;"/>
        <!-- Line -->
        <path d="M9987.8981,-72.6792 L9987.8981,77.3208 " style="stroke:#000000;stroke-width:0.3;"/>
        <!-- Line -->
        <path d="M10112.8981,10077.3208 L9962.8981,10077.3208 " style="stroke:#000000;stroke-width:0.3;"/>
        <!-- Line -->
        <path d="M9962.8981,10077.3208 L9962.8981,9927.3208 " style="stroke:#000000;stroke-width:0.3;"/>
        <!-- Line -->
        <path d="M9962.8981,9927.3208 L10112.8981,9927.3208 " style="stroke:#000000;stroke-width:0.3;"/>
        <!-- Line -->
        <path d="M10112.8981,9927.3208 L10112.8981,10077.3208 " style="stroke:#000000;stroke-width:0.3;"/>
        <!-- Polyline -->
        <path d="M10112.8981,10077.3208 L9962.8981,10077.3208 L9962.8981,9927.3208 L10112.8981,9927.3208 Z" style="stroke:#000000;stroke-width:0.3;"/>
        <!-- Line -->
        <path d="M10112.8981,77.3208 L9962.8981,77.3208 " style="stroke:#000000;stroke-width:0.3;"/>
        <!-- Line -->
        <path d="M9962.8981,77.3208 L9962.8981,-72.6792 " style="stroke:#000000;stroke-width:0.3;"/>
        <!-- Line -->
        <path d="M9962.8981,-72.6792 L10112.8981,-72.6792 " style="stroke:#000000;stroke-width:0.3;"/>
        <!-- Line -->
        <path d="M10112.8981,-72.6792 L10112.8981,77.3208 " style="stroke:#000000;stroke-width:0.3;"/>
        <!-- Polyline -->
        <path d="M10112.8981,77.3208 L9962.8981,77.3208 L9962.8981,-72.6792 L10112.8981,-72.6792 Z" style="stroke:#000000;stroke-width:0.3;"/>
        <!-- Line -->
        <path d="M10112.8981,5014.8208 L9962.8981,5014.8208 " style="stroke:#000000;stroke-width:0.3;"/>
        <!-- Line -->
        <path d="M9962.8981,5014.8208 L9962.8981,4914.8208 " style="stroke:#000000;stroke-width:0.3;"/>
        <!-- Line -->
        <path d="M9962.8981,4914.8208 L10112.8981,4914.8208 " style="stroke:#000000;stroke-width:0.3;"/>
        <!-- Line -->
        <path d="M10112.8981,4914.8208 L10112.8981,5014.8208 " style="stroke:#000000;stroke-width:0.3;"/>
        <!-- Polyline -->
        <path d="M10112.8981,5014.8208 L9962.8981,5014.8208 L9962.8981,4914.8208 L10112.8981,4914.8208 Z" style="stroke:#000000;stroke-width:0.3;"/>
        <!-- Polyline -->
        <path d="M-37.1019,10077.3208 L10112.8981,10077.3208 L10112.8981,-72.6792 L-37.1019,-72.6792 Z" style="stroke:#000000;stroke-width:0.2;"/>
        <!-- Polyline -->
        <path d="M9962.8981,77.3208 L112.8981,77.3208 L112.8981,9927.3208 L9962.8981,9927.3208 Z" style="stroke:#000000;stroke-width:0.2;"/>
    </g>
</svg>
