<?xml version="1.0" encoding="UTF-8"?>
<!-- 2026-03-18 12:30:46 Generated by QCAD 3.32.6 SVG Exporter -->
<svg width="12000mm" height="12000mm" viewBox="-37.1019 -6077.3208 12000 12000" version="1.1" xmlns="http://www.w3.org/2000/svg" style="stroke-linecap:round;stroke-linejoin:round;fill:none">
    <g transform="scale(1,-1)">
        <!-- Line -->
        <path d="M-37.1019,6077.3208 L37.8981,6077.3208 " style="stroke:#000000;stroke-width:0.3;"/>
        <!-- Line -->
        <path d="M37.8981,6077.3208 L37.8981,6002.3208 " style="stroke:#000000;stroke-width:0.3;"/>
        <!-- Line -->
        <path d="M37.8981,6002.3208 L-37.1019,6002.3208 " style="stroke:#000000;stroke-width:0.3;"/>
        <!-- Line -->
        <path d="M-37.1019,6002.3208 L-37.1019,6077.3208 " style="stroke:#000000;stroke-width:0.3;"/>
        <!-- Polyline -->
        <path d="M-37.1019,6077.3208 L37.8981,6077.3208 L37.8981,6002.3208 L-37.1019,6002.3208 Z" style="stroke:#000000;stroke-width:0.3;"/>
        <!-- Line -->
        <path d="M-37.1019,152.3208 L37.8981,152.3208 " style="stroke:#000000;stroke-width:0.3;"/>
        <!-- Line -->
        <path d="M37.8981,152.3208 L37.8981,77.3208 " style="stroke:#000000;stroke-width:0.3;"/>
        <!-- Line -->
        <path d="M37.8981,77.3208 L-37.1019,77.3208 " style="stroke:#000000;stroke-width:0.3;"/>
        <!-- Line -->
        <path d="M-37.1019,77.3208 L-37.1019,152.3208 " style="stroke:#000000;stroke-width:0.3;"/>
        <!-- Polyline -->
        <path d="M-37.1019,152.3208 L37.8981,152.3208 L37.8981,77.3208 L-37.1019,77.3208 Z" style="stroke:#000000;stroke-width:0.3;"/>
        <!-- Line -->
        <path d="M5962.8981,6077.3208 L5887.8981,6077.3208 " style="stroke:#000000;stroke-width:0.3;"/>
        <!-- Line -->
        <path d="M5887.8981,6077.3208 L5887.8981,6002.3208 " style="stroke:#000000;stroke-width:0.3;"/>
        <!-- Line -->
        <path d="M5887.8981,6002.3208 L5962.8981,6002.3208 " style="stroke:#000000;stroke-width:0.3;"/>
        <!-- Line -->
        <path d="M5962.8981,6002.3208 L5962.8981,6077.3208 " style="stroke:#000000;stroke-width:0.3;"/>
        <!-- Polyline -->
        <path d="M5962.8981,6077.3208 L5887.8981,6077.3208 L5887.8981,6002.3208 L5962.8981,6002.3208 Z" style="stroke:#000000;stroke-width:0.3;"/>
        <!-- Line -->
        <path d="M11962.8981,6077.3208 L11887.8981,6077.3208 " style="stroke:#000000;stroke-width:0.3;"/>
        <!-- Line -->
        <path d="M11887.8981,6077.3208 L11887.8981,6002.3208 " style="stroke:#000000;stroke-width:0.3;"/>
        <!-- Line -->
        <path d="M11887.8981,6002.3208 L11962.8981,6002.3208 " style="stroke:#000000;stroke-width:0.3;"/>
        <!-- Line -->
        <path d="M11962.8981,6002.3208 L11962.8981,6077.3208 " style="stroke:#000000;stroke-width:0.3;"/>
        <!-- Polyline -->
        <path d="M11962.8981,6077.3208 L11887.8981,6077.3208 L11887.8981,6002.3208 L11962.8981,6002.3208 Z" style="stroke:#000000;stroke-width:0.3;"/>
        <!-- Line -->
        <path d="M11962.8981,152.3208 L11887.8981,152.3208 " style="stroke:#000000;stroke-width:0.3;"/>
        <!-- Line -->
        <path d="M11887.8981,152.3208 L11887.8981,77.3208 " style="stroke:#000000;stroke-width:0.3;"/>
        <!-- Line -->
        <path d="M11887.8981,77.3208 L11962.8981,77.3208 " style="stroke:#000000;stroke-width:0.3;"/>
        <!-- Line -->
        <path d="M11962.8981,77.3208 L11962.8981,152.3208 " style="stroke:#000000;stroke-width:0.3;"/>
        <!-- Polyline -->
        <path d="M11962.8981,152.3208 L11887.8981,152.3208 L11887.8981,77.3208 L11962.8981,77.3208 Z" style="stroke:#000000;stroke-width:0.3;"/>
        <!-- Line -->
        <path d="M-37.1019,3152.3208 L37.8981,3152.3208 " style="stroke:#000000;stroke-width:0.3;"/>
        <!-- Line -->
        <path d="M37.8981,3152.3208 L37.8981,3077.3208 " style="stroke:#000000;stroke-width:0.3;"/>
        <!-- Line -->
        <path d="M37.8981,3077.3208 L-37.1019,3077.3208 " style="stroke:#000000;stroke-width:0.3;"/>
        <!-- Line -->
        <path d="M-37.1019,3077.3208 L-37.1019,3152.3208 " style="stroke:#000000;stroke-width:0.3;"/>
        <!-- Polyline -->
        <path d="M-37.1019,3152.3208 L37.8981,3152.3208 L37.8981,3077.3208 L-37.1019,3077.3208 Z" style="stroke:#000000;stroke-width:0.3;"/>
        <!-- Line -->
        <path d="M11962.8981,3152.3208 L11887.8981,3152.3208 " style="stroke:#000000;stroke-width:0.3;"/>
        <!-- Line -->
        <path d="M11887.8981,3152.3208 L11887.8981,3077.3208 " style="stroke:#000000;stroke-width:0.3;"/>
        <!-- Line -->
        <path d="M11887.8981,3077.3208 L11962.8981,3077.3208 " style="stroke:#000000;stroke-width:0.3;"/>
        <!-- Line -->
        <path d="M11962.8981,3077.3208 L11962.8981,3152.3208 " style="stroke:#000000;stroke-width:0.3;"/>
        <!-- Polyline -->
        <path d="M11962.8981,3152.3208 L11887.8981,3152.3208 L11887.8981,3077.3208 L11962.8981,3077.3208 Z" style="stroke:#000000;stroke-width:0.3;"/>
        <!-- Line -->
        <path d="M2962.8981,6077.3208 L2887.8981,6077.3208 " style="stroke:#000000;stroke-width:0.3;"/>
        <!-- Line -->
        <path d="M2887.8981,6077.3208 L2887.8981,6002.3208 " style="stroke:#000000;stroke-width:0.3;"/>
        <!-- Line -->
        <path d="M2887.8981,6002.3208 L2962.8981,6002.3208 " style="stroke:#000000;stroke-width:0.3;"/>
        <!-- Line -->
        <path d="M2962.8981,6002.3208 L2962.8981,6077.3208 " style="stroke:#000000;stroke-width:0.3;"/>
        <!-- Polyline -->
        <path d="M2962.8981,6077.3208 L2887.8981,6077.3208 L2887.8981,6002.3208 L2962.8981,6002.3208 Z" style="stroke:#000000;stroke-width:0.3;"/>
        <!-- Line -->
        <path d="M8962.8981,6077.3208 L8887.8981,6077.3208 " style="stroke:#000000;stroke-width:0.3;"/>
        <!-- Line -->
        <path d="M8887.8981,6077.3208 L8887.8981,6002.3208 " style="stroke:#000000;stroke-width:0.3;"/>
        <!-- Line -->
        <path d="M8887.8981,6002.3208 L8962.8981,6002.3208 " style="stroke:#000000;stroke-width:0.3;"/>
        <!-- Line -->
        <path d="M8962.8981,6002.3208 L8962.8981,6077.3208 " style="stroke:#000000;stroke-width:0.3;"/>
        <!-- Polyline -->
        <path d="M8962.8981,6077.3208 L8887.8981,6077.3208 L8887.8981,6002.3208 L8962.8981,6002.3208 Z" style="stroke:#000000;stroke-width:0.3;"/>
        <!-- Line -->
        <path d="M-37.1019,-5847.6792 L37.8981,-5847.6792 " style="stroke:#000000;stroke-width:0.3;"/>
        <!-- Line -->
        <path d="M37.8981,-5847.6792 L37.8981,-5922.6792 " style="stroke:#000000;stroke-width:0.3;"/>
        <!-- Line -->
        <path d="M37.8981,-5922.6792 L-37.1019,-5922.6792 " style="stroke:#000000;stroke-width:0.3;"/>
        <!-- Line -->
        <path d="M-37.1019,-5922.6792 L-37.1019,-5847.6792 " style="stroke:#000000;stroke-width:0.3;"/>
        <!-- Polyline -->
        <path d="M-37.1019,-5847.6792 L37.8981,-5847.6792 L37.8981,-5922.6792 L-37.1019,-5922.6792 Z" style="stroke:#000000;stroke-width:0.3;"/>
        <!-- Line -->
        <path d="M5962.8981,-5847.6792 L5887.8981,-5847.6792 " style="stroke:#000000;stroke-width:0.3;"/>
        <!-- Line -->
        <path d="M5887.8981,-5847.6792 L5887.8981,-5922.6792 " style="stroke:#000000;stroke-width:0.3;"/>
        <!-- Line -->
        <path d="M5887.8981,-5922.6792 L5962.8981,-5922.6792 " style="stroke:#000000;stroke-width:0.3;"/>
        <!-- Line -->
        <path d="M5962.8981,-5922.6792 L5962.8981,-5847.6792 " style="stroke:#000000;stroke-width:0.3;"/>
        <!-- Polyline -->
        <path d="M5962.8981,-5847.6792 L5887.8981,-5847.6792 L5887.8981,-5922.6792 L5962.8981,-5922.6792 Z" style="stroke:#000000;stroke-width:0.3;"/>
        <!-- Line -->
        <path d="M11962.8981,-5847.6792 L11887.8981,-5847.6792 " style="stroke:#000000;stroke-width:0.3;"/>
        <!-- Line -->
        <path d="M11887.8981,-5847.6792 L11887.8981,-5922.6792 " style="stroke:#000000;stroke-width:0.3;"/>
        <!-- Line -->
        <path d="M11887.8981,-5922.6792 L11962.8981,-5922.6792 " style="stroke:#000000;stroke-width:0.3;"/>
        <!-- Line -->
        <path d="M11962.8981,-5922.6792 L11962.8981,-5847.6792 " style="stroke:#000000;stroke-width:0.3;"/>
        <!-- Polyline -->
        <path d="M11962.8981,-5847.6792 L11887.8981,-5847.6792 L11887.8981,-5922.6792 L11962.8981,-5922.6792 Z" style="stroke:#000000;stroke-width:0.3;"/>
        <!-- Line -->
        <path d="M-37.1019,-2847.6792 L37.8981,-2847.6792 " style="stroke:#000000;stroke-width:0.3;"/>
        <!-- Line -->
        <path d="M37.8981,-2847.6792 L37.8981,-2922.6792 " style="stroke:#000000;stroke-width:0.3;"/>
        <!-- Line -->
        <path d="M37.8981,-2922.6792 L-37.1019,-2922.6792 " style="stroke:#000000;stroke-width:0.3;"/>
        <!-- Line -->
        <path d="M-37.1019,-2922.6792 L-37.1019,-2847.6792 " style="stroke:#000000;stroke-width:0.3;"/>
        <!-- Polyline -->
        <path d="M-37.1019,-2847.6792 L37.8981,-2847.6792 L37.8981,-2922.6792 L-37.1019,-2922.6792 Z" style="stroke:#000000;stroke-width:0.3;"/>
        <!-- Line -->
        <path d="M11962.8981,-2847.6792 L11887.8981,-2847.6792 " style="stroke:#000000;stroke-width:0.3;"/>
        <!-- Line -->
        <path d="M11887.8981,-2847.6792 L11887.8981,-2922.6792 " style="stroke:#000000;stroke-width:0.3;"/>
        <!-- Line -->
        <path d="M11887.8981,-2922.6792 L11962.8981,-2922.6792 " style="stroke:#000000;stroke-width:0.3;"/>
        <!-- Line -->
        <path d="M11962.8981,-2922.6792 L11962.8981,-2847.6792 " style="stroke:#000000;stroke-width:0.3;"/>
        <!-- Polyline -->
        <path d="M11962.8981,-2847.6792 L11887.8981,-2847.6792 L11887.8981,-2922.6792 L11962.8981,-2922.6792 Z" style="stroke:#000000;stroke-width:0.3;"/>
        <!-- Line -->
        <path d="M2962.8981,-5847.6792 L2887.8981,-5847.6792 " style="stroke:#000000;stroke-width:0.3;"/>
        <!-- Line -->
        <path d="M2887.8981,-5847.6792 L2887.8981,-5922.6792 " style="stroke:#000000;stroke-width:0.3;"/>
        <!-- Line -->
        <path d="M2887.8981,-5922.6792 L2962.8981,-5922.6792 " style="stroke:#000000;stroke-width:0.3;"/>
        <!-- Line -->
        <path d="M2962.8981,-5922.6792 L2962.8981,-5847.6792 " style="stroke:#000000;stroke-width:0.3;"/>
        <!-- Polyline -->
        <path d="M2962.8981,-5847.6792 L2887.8981,-5847.6792 L2887.8981,-5922.6792 L2962.8981,-5922.6792 Z" style="stroke:#000000;stroke-width:0.3;"/>
        <!-- Line -->
        <path d="M8962.8981,-5847.6792 L8887.8981,-5847.6792 " style="stroke:#000000;stroke-width:0.3;"/>
        <!-- Line -->
        <path d="M8887.8981,-5847.6792 L8887.8981,-5922.6792 " style="stroke:#000000;stroke-width:0.3;"/>
        <!-- Line -->
        <path d="M8887.8981,-5922.6792 L8962.8981,-5922.6792 " style="stroke:#000000;stroke-width:0.3;"/>
        <!-- Line -->
        <path d="M8962.8981,-5922.6792 L8962.8981,-5847.6792 " style="stroke:#000000;stroke-width:0.3;"/>
        <!-- Polyline -->
        <path d="M8962.8981,-5847.6792 L8887.8981,-5847.6792 L8887.8981,-5922.6792 L8962.8981,-5922.6792 Z" style="stroke:#000000;stroke-width:0.3;"/>
        <!-- Polyline -->
        <path d="M-37.1019,6077.3208 L11962.8981,6077.3208 L11962.8981,-5922.6792 L-37.1019,-5922.6792 Z" style="stroke:#000000;stroke-width:0.2;"/>
        <!-- Polyline -->
        <path d="M11887.8981,-5847.6792 L11857.8981,-5847.6792 M11767.8981,-5847.6792 L11707.8981,-5847.6792 M11617.8981,-5847.6792 L11557.8981,-5847.6792 M11467.8981,-5847.6792 L11407.8981,-5847.6792 M11317.8981,-5847.6792 L11257.8981,-5847.6792 M11167.8981,-5847.6792 L11107.8981,-5847.6792 M11017.8981,-5847.6792 L10957.8981,-5847.6792 M10867.8981,-5847.6792 L10807.8981,-5847.6792 M10717.8981,-5847.6792 L10657.8981,-5847.6792 M10567.8981,-5847.6792 L10507.8981,-5847.6792 M10417.8981,-5847.6792 L10357.8981,-5847.6792 M10267.8981,-5847.6792 L10207.8981,-5847.6792 M10117.8981,-5847.6792 L10057.8981,-5847.6792 M9967.8981,-5847.6792 L9907.8981,-5847.6792 M9817.8981,-5847.6792 L9757.8981,-5847.6792 M9667.8981,-5847.6792 L9607.8981,-5847.6792 M9517.8981,-5847.6792 L9457.8981,-5847.6792 M9367.8981,-5847.6792 L9307.8981,-5847.6792 M9217.8981,-5847.6792 L9157.8981,-5847.6792 M9067.8981,-5847.6792 L9007.8981,-5847.6792 M8917.8981,-5847.6792 L8857.8981,-5847.6792 M8767.8981,-5847.6792 L8707.8981,-5847.6792 M8617.8981,-5847.6792 L8557.8981,-5847.6792 M8467.8981,-5847.6792 L8407.8981,-5847.6792 M8317.8981,-5847.6792 L8257.8981,-5847.6792 M8167.8981,-5847.6792 L8107.8981,-5847.6792 M8017.8981,-5847.6792 L7957.8981,-5847.6792 M7867.8981,-5847.6792 L7807.8981,-5847.6792 M7717.8981,-5847.6792 L7657.8981,-5847.6792 M7567.8981,-5847.6792 L7507.8981,-5847.6792 M7417.8981,-5847.6792 L7357.8981,-5847.6792 M7267.8981,-5847.6792 L7207.8981,-5847.6792 M7117.8981,-5847.6792 L7057.8981,-5847.6792 M6967.8981,-5847.6792 L6907.8981,-5847.6792 M6817.8981,-5847.6792 L6757.8981,-5847.6792 M6667.8981,-5847.6792 L6607.8981,-5847.6792 M6517.8981,-5847.6792 L6457.8981,-5847.6792 M6367.8981,-5847.6792 L6307.8981,-5847.6792 M6217.8981,-5847.6792 L6157.8981,-5847.6792 M6067.8981,-5847.6792 L6007.8981,-5847.6792 M5917.8981,-5847.6792 L5857.8981,-5847.6792 M5767.8981,-5847.6792 L5707.8981,-5847.6792 M5617.8981,-5847.6792 L5557.8981,-5847.6792 M5467.8981,-5847.6792 L5407.8981,-5847.6792 M5317.8981,-5847.6792 L5257.8981,-5847.6792 M5167.8981,-5847.6792 L5107.8981,-5847.6792 M5017.8981,-5847.6792 L4957.8981,-5847.6792 M4867.8981,-5847.6792 L4807.8981,-5847.6792 M4717.8981,-5847.6792 L4657.8981,-5847.6792 M4567.8981,-5847.6792 L4507.8981,-5847.6792 M4417.8981,-5847.6792 L4357.8981,-5847.6792 M4267.8981,-5847.6792 L4207.8981,-5847.6792 M4117.8981,-5847.6792 L4057.8981,-5847.6792 M3967.8981,-5847.6792 L3907.8981,-5847.6792 M3817.8981,-5847.6792 L3757.8981,-5847.6792 M3667.8981,-5847.6792 L3607.8981,-5847.6792 M3517.8981,-5847.6792 L3457.8981,-5847.6792 M3367.8981,-5847.6792 L3307.8981,-5847.6792 M3217.8981,-5847.6792 L3157.8981,-5847.6792 M3067.8981,-5847.6792 L3007.8981,-5847.6792 M2917.8981,-5847.6792 L2857.8981,-5847.6792 M2767.8981,-5847.6792 L2707.8981,-5847.6792 M2617.8981,-5847.6792 L2557.8981,-5847.6792 M2467.8981,-5847.6792 L2407.8981,-5847.6792 M2317.8981,-5847.6792 L2257.8981,-5847.6792 M2167.8981,-5847.6792 L2107.8981,-5847.6792 M2017.8981,-5847.6792 L1957.8981,-5847.6792 M1867.8981,-5847.6792 L1807.8981,-5847.6792 M1717.8981,-5847.6792 L1657.8981,-5847.6792 M1567.8981,-5847.6792 L1507.8981,-5847.6792 M1417.8981,-5847.6792 L1357.8981,-5847.6792 M1267.8981,-5847.6792 L1207.8981,-5847.6792 M1117.8981,-5847.6792 L1057.8981,-5847.6792 M967.8981,-5847.6792 L907.8981,-5847.6792 M817.8981,-5847.6792 L757.8981,-5847.6792 M667.8981,-5847.6792 L607.8981,-5847.6792 M517.8981,-5847.6792 L457.8981,-5847.6792 M367.8981,-5847.6792 L307.8981,-5847.6792 M217.8981,-5847.6792 L157.8981,-5847.6792 M67.8981,-5847.6792 L37.8981,-5847.6792 L37.8981,-5817.6792 M37.8981,-5727.6792 L37.8981,-5667.6792 M37.8981,-5577.6792 L37.8981,-5517.6792 M37.8981,-5427.6792 L37.8981,-5367.6792 M37.8981,-5277.6792 L37.8981,-5217.6792 M37.8981,-5127.6792 L37.8981,-5067.6792 M37.8981,-4977.6792 L37.8981,-4917.6792 M37.8981,-4827.6792 L37.8981,-4767.6792 M37.8981,-4677.6792 L37.8981,-4617.6792 M37.8981,-4527.6792 L37.8981,-4467.6792 M37.8981,-4377.6792 L37.8981,-4317.6792 M37.8981,-4227.6792 L37.8981,-4167.6792 M37.8981,-4077.6792 L37.8981,-4017.6792 M37.8981,-3927.6792 L37.8981,-3867.6792 M37.8981,-3777.6792 L37.8981,-3717.6792 M37.8981,-3627.6792 L37.8981,-3567.6792 M37.8981,-3477.6792 L37.8981,-3417.6792 M37.8981,-3327.6792 L37.8981,-3267.6792 M37.8981,-3177.6792 L37.8981,-3117.6792 M37.8981,-3027.6792 L37.8981,-2967.6792 M37.8981,-2877.6792 L37.8981,-2817.6792 M37.8981,-2727.6792 L37.8981,-2667.6792 M37.8981,-2577.6792 L37.8981,-2517.6792 M37.8981,-2427.6792 L37.8981,-2367.6792 M37.8981,-2277.6792 L37.8981,-2217.6792 M37.8981,-2127.6792 L37.8981,-2067.6792 M37.8981,-1977.6792 L37.8981,-1917.6792 M37.8981,-1827.6792 L37.8981,-1767.6792 M37.8981,-1677.6792 L37.8981,-1617.6792 M37.8981,-1527.6792 L37.8981,-1467.6792 M37.8981,-1377.6792 L37.8981,-1317.6792 M37.8981,-1227.6792 L37.8981,-1167.6792 M37.8981,-1077.6792 L37.8981,-1017.6792 M37.8981,-927.6792 L37.8981,-867.6792 M37.8981,-777.6792 L37.8981,-717.6792 M37.8981,-627.6792 L37.8981,-567.6792 M37.8981,-477.6792 L37.8981,-417.6792 M37.8981,-327.6792 L37.8981,-267.6792 M37.8981,-177.6792 L37.8981,-117.6792 M37.8981,-27.6792 L37.8981,32.3208 M37.8981,122.3208 L37.8981,182.3208 M37.8981,272.3208 L37.8981,332.3208 M37.8981,422.3208 L37.8981,482.3208 M37.8981,572.3208 L37.8981,632.3208 M37.8981,722.3208 L37.8981,782.3208 M37.8981,872.3208 L37.8981,932.3208 M37.8981,1022.3208 L37.8981,1082.3208 M37.8981,1172.3208 L37.8981,1232.3208 M37.8981,1322.3208 L37.8981,1382.3208 M37.8981,1472.3208 L37.8981,1532.3208 M37.8981,1622.3208 L37.8981,1682.3208 M37.8981,1772.3208 L37.8981,1832.3208 M37.8981,1922.3208 L37.8981,1982.3208 M37.8981,2072.3208 L37.8981,2132.3208 M37.8981,2222.3208 L37.8981,2282.3208 M37.8981,2372.3208 L37.8981,2432.3208 M37.8981,2522.3208 L37.8981,2582.3208 M37.8981,2672.3208 L37.8981,2732.3208 M37.8981,2822.3208 L37.8981,2882.3208 M37.8981,2972.3208 L37.8981,3032.3208 M37.8981,3122.3208 L37.8981,3182.3208 M37.8981,3272.3208 L37.8981,3332.3208 M37.8981,3422.3208 L37.8981,3482.3208 M37.8981,3572.3208 L37.8981,3632.3208 M37.8981,3722.3208 L37.8981,3782.3208 M37.8981,3872.3208 L37.8981,3932.3208 M37.8981,4022.3208 L37.8981,4082.3208 M37.8981,4172.3208 L37.8981,4232.3208 M37.8981,4322.3208 L37.8981,4382.3208 M37.8981,4472.3208 L37.8981,4532.3208 M37.8981,4622.3208 L37.8981,4682.3208 M37.8981,4772.3208 L37.8981,4832.3208 M37.8981,4922.3208 L37.8981,4982.3208 M37.8981,5072.3208 L37.8981,5132.3208 M37.8981,5222.3208 L37.8981,5282.3208 M37.8981,5372.3208 L37.8981,5432.3208 M37.8981,5522.3208 L37.8981,5582.3208 M37.8981,5672.3208 L37.8981,5732.3208 M37.8981,5822.3208 L37.8981,5882.3208 M37.8981,5972.3208 L37.8981,6002.3208 L67.8981,6002.3208 M157.8981,6002.3208 L217.8981,6002.3208 M307.8981,6002.3208 L367.8981,6002.3208 M457.8981,6002.3208 L517.8981,6002.3208 M607.8981,6002.3208 L667.8981,6002.3208 M757.8981,6002.3208 L817.8981,6002.3208 M907.8981,6002.3208 L967.8981,6002.3208 M1057.8981,6002.3208 L1117.8981,6002.3208 M1207.8981,6002.3208 L1267.8981,6002.3208 M1357.8981,6002.3208 L1417.8981,6002.3208 M1507.8981,6002.3208 L1567.8981,6002.3208 M1657.8981,6002.3208 L1717.8981,6002.3208 M1807.8981,6002.3208 L1867.8981,6002.3208 M1957.8981,6002.3208 L2017.8981,6002.3208 M2107.8981,6002.3208 L2167.8981,6002.3208 M2257.8981,6002.3208 L2317.8981,6002.3208 M2407.8981,6002.3208 L2467.8981,6002.3208 M2557.8981,6002.3208 L2617.8981,6002.3208 M2707.8981,6002.3208 L2767.8981,6002.3208 M2857.8981,6002.3208 L2917.8981,6002.3208 M3007.8981,6002.3208 L3067.8981,6002.3208 M3157.8981,6002.3208 L3217.8981,6002.3208 M3307.8981,6002.3208 L3367.8981,6002.3208 M3457.8981,6002.3208 L3517.8981,6002.3208 M3607.8981,6002.3208 L3667.8981,6002.3208 M3757.8981,6002.3208 L3817.8981,6002.3208 M3907.8981,6002.3208 L3967.8981,6002.3208 M4057.8981,6002.3208 L4117.8981,6002.3208 M4207.8981,6002.3208 L4267.8981,6002.3208 M4357.8981,6002.3208 L4417.8981,6002.3208 M4507.8981,6002.3208 L4567.8981,6002.3208 M4657.8981,6002.3208 L4717.8981,6002.3208 M4807.8981,6002.3208 L4867.8981,6002.3208 M4957.8981,6002.3208 L5017.8981,6002.3208 M5107.8981,6002.3208 L5167.8981,6002.3208 M5257.8981,6002.3208 L5317.8981,6002.3208 M5407.8981,6002.3208 L5467.8981,6002.3208 M5557.8981,6002.3208 L5617.8981,6002.3208 M5707.8981,6002.3208 L5767.8981,6002.3208 M5857.8981,6002.3208 L5917.8981,6002.3208 M6007.8981,6002.3208 L6067.8981,6002.3208 M6157.8981,6002.3208 L6217.8981,6002.3208 M6307.8981,6002.3208 L6367.8981,6002.3208 M6457.8981,6002.3208 L6517.8981,6002.3208 M6607.8981,6002.3208 L6667.8981,6002.3208 M6757.8981,6002.3208 L6817.8981,6002.3208 M6907.8981,6002.3208 L6967.8981,6002.3208 M7057.8981,6002.3208 L7117.8981,6002.3208 M7207.8981,6002.3208 L7267.8981,6002.3208 M7357.8981,6002.3208 L7417.8981,6002.3208 M7507.8981,6002.3208 L7567.8981,6002.3208 M7657.8981,6002.3208 L7717.8981,6002.3208 M7807.8981,6002.3208 L7867.8981,6002.3208 M7957.8981,6002.3208 L8017.8981,6002.3208 M8107.8981,6002.3208 L8167.8981,6002.3208 M8257.8981,6002.3208 L8317.8981,6002.3208 M8407.8981,6002.3208 L8467.8981,6002.3208 M8557.8981,6002.3208 L8617.8981,6002.3208 M8707.8981,6002.3208 L8767.8981,6002.3208 M8857.8981,6002.3208 L8917.8981,6002.3208 M9007.8981,6002.3208 L9067.8981,6002.3208 M9157.8981,6002.3208 L9217.8981,6002.3208 M9307.8981,6002.3208 L9367.8981,6002.3208 M9457.8981,6002.3208 L9517.8981,6002.3208 M9607.8981,6002.3208 L9667.8981,6002.3208 M9757.8981,6002.3208 L9817.8981,6002.3208 M9907.8981,6002.3208 L9967.8981,6002.3208 M10057.8981,6002.3208 L10117.8981,6002.3208 M10207.8981,6002.3208 L10267.8981,6002.3208 M10357.8981,6002.3208 L10417.8981,6002.3208 M10507.8981,6002.3208 L10567.8981,6002.3208 M10657.8981,6002.3208 L10717.8981,6002.3208 M10807.8981,6002.3208 L10867.8981,6002.3208 M10957.8981,6002.3208 L11017.8981,6002.3208 M11107.8981,6002.3208 L11167.8981,6002.3208 M11257.8981,6002.3208 L11317.8981,6002.3208 M11407.8981,6002.3208 L11467.8981,6002.3208 M11557.8981,6002.3208 L11617.8981,6002.3208 M11707.8981,6002.3208 L11767.8981,6002.3208 M11857.8981,6002.3208 L11887.8981,6002.3208 L11887.8981,5972.3208 M11887.8981,5882.3208 L11887.8981,5822.3208 M11887.8981,5732.3208 L11887.8981,5672.3208 M11887.8981,5582.3208 L11887.8981,5522.3208 M11887.8981,5432.3208 L11887.8981,5372.3208 M11887.8981,5282.3208 L11887.8981,5222.3208 M11887.8981,5132.3208 L11887.8981,5072.3208 M11887.8981,4982.3208 L11887.8981,4922.3208 M11887.8981,4832.3208 L11887.8981,4772.3208 M11887.8981,4682.3208 L11887.8981,4622.3208 M11887.8981,4532.3208 L11887.8981,4472.3208 M11887.8981,4382.3208 L11887.8981,4322.3208 M11887.8981,4232.3208 L11887.8981,4172.3208 M11887.8981,4082.3208 L11887.8981,4022.3208 M11887.8981,3932.3208 L11887.8981,3872.3208 M11887.8981,3782.3208 L11887.8981,3722.3208 M11887.8981,3632.3208 L11887.8981,3572.3208 M11887.8981,3482.3208 L11887.8981,3422.3208 M11887.8981,3332.3208 L11887.8981,3272.3208 M11887.8981,3182.3208 L11887.8981,3122.3208 M11887.8981,3032.3208 L11887.8981,2972.3208 M11887.8981,2882.3208 L11887.8981,2822.3208 M11887.8981,2732.3208 L11887.8981,2672.3208 M11887.8981,2582.3208 L11887.8981,2522.3208 M11887.8981,2432.3208 L11887.8981,2372.3208 M11887.8981,2282.3208 L11887.8981,2222.3208 M11887.8981,2132.3208 L11887.8981,2072.3208 M11887.8981,1982.3208 L11887.8981,1922.3208 M11887.8981,1832.3208 L11887.8981,1772.3208 M11887.8981,1682.3208 L11887.8981,1622.3208 M11887.8981,1532.3208 L11887.8981,1472.3208 M11887.8981,1382.3208 L11887.8981,1322.3208 M11887.8981,1232.3208 L11887.8981,1172.3208 M11887.8981,1082.3208 L11887.8981,1022.3208 M11887.8981,932.3208 L11887.8981,872.3208 M11887.8981,782.3208 L11887.8981,722.3208 M11887.8981,632.3208 L11887.8981,572.3208 M11887.8981,482.3208 L11887.8981,422.3208 M11887.8981,332.3208 L11887.8981,272.3208 M11887.8981,182.3208 L11887.8981,122.3208 M11887.8981,32.3208 L11887.8981,-27.6792 M11887.8981,-117.6792 L11887.8981,-177.6792 M11887.8981,-267.6792 L11887.8981,-327.6792 M11887.8981,-417.6792 L11887.8981,-477.6792 M11887.8981,-567.6792 L11887.8981,-627.6792 M11887.8981,-717.6792 L11887.8981,-777.6792 M11887.8981,-867.6792 L11887.8981,-927.6792 M11887.8981,-1017.6792 L11887.8981,-1077.6792 M11887.8981,-1167.6792 L11887.8981,-1227.6792 M11887.8981,-1317.6792 L11887.8981,-1377.6792 M11887.8981,-1467.6792 L11887.8981,-1527.6792 M11887.8981,-1617.6792 L11887.8981,-1677.6792 M11887.8981,-1767.6792 L11887.8981,-1827.6792 M11887.8981,-1917.6792 L11887.8981,-1977.6792 M11887.8981,-2067.6792 L11887.8981,-2127.6792 M11887.8981,-2217.6792 L11887.8981,-2277.6792 M11887.8981,-2367.6792 L11887.8981,-2427.6792 M11887.8981,-2517.6792 L11887.8981,-2577.6792 M11887.8981,-2667.6792 L11887.8981,-2727.6792 M11887.8981,-2817.6792 L11887.8981,-2877.6792 M11887.8981,-2967.6792 L11887.8981,-3027.6792 M11887.8981,-3117.6792 L11887.8981,-3177.6792 M11887.8981,-3267.6792 L11887.8981,-3327.6792 M11887.8981,-3417.6792 L11887.8981,-3477.6792 M11887.8981,-3567.6792 L11887.8981,-3627.6792 M11887.8981,-3717.6792 L11887.8981,-3777.6792 M11887.8981,-3867.6792 L11887.8981,-3927.6792 M11887.8981,-4017.6792 L11887.8981,-4077.6792 M11887.8981,-4167.6792 L11887.8981,-4227.6792 M11887.8981,-4317.6792 L11887.8981,-4377.6792 M11887.8981,-4467.6792 L11887.8981,-4527.6792 M11887.8981,-4617.6792 L11887.8981,-4677.6792 M11887.8981,-4767.6792 L11887.8981,-4827.6792 M11887.8981,-4917.6792 L11887.8981,-4977.6792 M11887.8981,-5067.6792 L11887.8981,-5127.6792 M11887.8981,-5217.6792 L11887.8981,-5277.6792 M11887.8981,-5367.6792 L11887.8981,-5427.6792 M11887.8981,-5517.6792 L11887.8981,-5577.6792 M11887.8981,-5667.6792 L11887.8981,-5727.6792 M11887.8981,-5817.6792 L11887.8981,-5847.6792 " style="stroke:#000000;stroke-width:0.2;"/>
    </g>
</svg>
