<?xml version="1.0" encoding="UTF-8"?>
<!-- 2026-03-18 12:23:32 Generated by QCAD 3.32.6 SVG Exporter -->
<svg width="3000mm" height="3000mm" viewBox="-37.1019 -3077.3208 3000 3000" version="1.1" xmlns="http://www.w3.org/2000/svg" style="stroke-linecap:round;stroke-linejoin:round;fill:none">
    <g transform="scale(1,-1)">
        <!-- Line -->
        <path d="M-37.1019,3077.3208 L12.8981,3077.3208 " style="stroke:#000000;stroke-width:0.3;"/>
        <!-- Line -->
        <path d="M12.8981,3077.3208 L12.8981,3027.3208 " style="stroke:#000000;stroke-width:0.3;"/>
        <!-- Line -->
        <path d="M12.8981,3027.3208 L-37.1019,3027.3208 " style="stroke:#000000;stroke-width:0.3;"/>
        <!-- Line -->
        <path d="M-37.1019,3027.3208 L-37.1019,3077.3208 " style="stroke:#000000;stroke-width:0.3;"/>
        <!-- Polyline -->
        <path d="M-37.1019,3077.3208 L12.8981,3077.3208 L12.8981,3027.3208 L-37.1019,3027.3208 Z" style="stroke:#000000;stroke-width:0.3;"/>
        <!-- Line -->
        <path d="M-37.1019,127.3208 L12.8981,127.3208 " style="stroke:#000000;stroke-width:0.3;"/>
        <!-- Line -->
        <path d="M12.8981,127.3208 L12.8981,77.3208 " style="stroke:#000000;stroke-width:0.3;"/>
        <!-- Line -->
        <path d="M12.8981,77.3208 L-37.1019,77.3208 " style="stroke:#000000;stroke-width:0.3;"/>
        <!-- Line -->
        <path d="M-37.1019,77.3208 L-37.1019,127.3208 " style="stroke:#000000;stroke-width:0.3;"/>
        <!-- Polyline -->
        <path d="M-37.1019,127.3208 L12.8981,127.3208 L12.8981,77.3208 L-37.1019,77.3208 Z" style="stroke:#000000;stroke-width:0.3;"/>
        <!-- Line -->
        <path d="M2912.8981,3077.3208 L2962.8981,3077.3208 " style="stroke:#000000;stroke-width:0.3;"/>
        <!-- Line -->
        <path d="M2962.8981,3077.3208 L2962.8981,3027.3208 " style="stroke:#000000;stroke-width:0.3;"/>
        <!-- Line -->
        <path d="M2962.8981,3027.3208 L2912.8981,3027.3208 " style="stroke:#000000;stroke-width:0.3;"/>
        <!-- Line -->
        <path d="M2912.8981,3027.3208 L2912.8981,3077.3208 " style="stroke:#000000;stroke-width:0.3;"/>
        <!-- Polyline -->
        <path d="M2912.8981,3077.3208 L2962.8981,3077.3208 L2962.8981,3027.3208 L2912.8981,3027.3208 Z" style="stroke:#000000;stroke-width:0.3;"/>
        <!-- Line -->
        <path d="M2912.8981,127.3208 L2962.8981,127.3208 " style="stroke:#000000;stroke-width:0.3;"/>
        <!-- Line -->
        <path d="M2962.8981,127.3208 L2962.8981,77.3208 " style="stroke:#000000;stroke-width:0.3;"/>
        <!-- Line -->
        <path d="M2962.8981,77.3208 L2912.8981,77.3208 " style="stroke:#000000;stroke-width:0.3;"/>
        <!-- Line -->
        <path d="M2912.8981,77.3208 L2912.8981,127.3208 " style="stroke:#000000;stroke-width:0.3;"/>
        <!-- Polyline -->
        <path d="M2912.8981,127.3208 L2962.8981,127.3208 L2962.8981,77.3208 L2912.8981,77.3208 Z" style="stroke:#000000;stroke-width:0.3;"/>
        <!-- Polyline -->
        <path d="M12.8981,3027.3208 L67.8981,3027.3208 M157.8981,3027.3208 L217.8981,3027.3208 M307.8981,3027.3208 L367.8981,3027.3208 M457.8981,3027.3208 L517.8981,3027.3208 M607.8981,3027.3208 L667.8981,3027.3208 M757.8981,3027.3208 L817.8981,3027.3208 M907.8981,3027.3208 L967.8981,3027.3208 M1057.8981,3027.3208 L1117.8981,3027.3208 M1207.8981,3027.3208 L1267.8981,3027.3208 M1357.8981,3027.3208 L1417.8981,3027.3208 M1507.8981,3027.3208 L1567.8981,3027.3208 M1657.8981,3027.3208 L1717.8981,3027.3208 M1807.8981,3027.3208 L1867.8981,3027.3208 M1957.8981,3027.3208 L2017.8981,3027.3208 M2107.8981,3027.3208 L2167.8981,3027.3208 M2257.8981,3027.3208 L2317.8981,3027.3208 M2407.8981,3027.3208 L2467.8981,3027.3208 M2557.8981,3027.3208 L2617.8981,3027.3208 M2707.8981,3027.3208 L2767.8981,3027.3208 M2857.8981,3027.3208 L2912.8981,3027.3208 L2912.8981,2972.3208 M2912.8981,2882.3208 L2912.8981,2822.3208 M2912.8981,2732.3208 L2912.8981,2672.3208 M2912.8981,2582.3208 L2912.8981,2522.3208 M2912.8981,2432.3208 L2912.8981,2372.3208 M2912.8981,2282.3208 L2912.8981,2222.3208 M2912.8981,2132.3208 L2912.8981,2072.3208 M2912.8981,1982.3208 L2912.8981,1922.3208 M2912.8981,1832.3208 L2912.8981,1772.3208 M2912.8981,1682.3208 L2912.8981,1622.3208 M2912.8981,1532.3208 L2912.8981,1472.3208 M2912.8981,1382.3208 L2912.8981,1322.3208 M2912.8981,1232.3208 L2912.8981,1172.3208 M2912.8981,1082.3208 L2912.8981,1022.3208 M2912.8981,932.3208 L2912.8981,872.3208 M2912.8981,782.3208 L2912.8981,722.3208 M2912.8981,632.3208 L2912.8981,572.3208 M2912.8981,482.3208 L2912.8981,422.3208 M2912.8981,332.3208 L2912.8981,272.3208 M2912.8981,182.3208 L2912.8981,127.3208 L2857.8981,127.3208 M2767.8981,127.3208 L2707.8981,127.3208 M2617.8981,127.3208 L2557.8981,127.3208 M2467.8981,127.3208 L2407.8981,127.3208 M2317.8981,127.3208 L2257.8981,127.3208 M2167.8981,127.3208 L2107.8981,127.3208 M2017.8981,127.3208 L1957.8981,127.3208 M1867.8981,127.3208 L1807.8981,127.3208 M1717.8981,127.3208 L1657.8981,127.3208 M1567.8981,127.3208 L1507.8981,127.3208 M1417.8981,127.3208 L1357.8981,127.3208 M1267.8981,127.3208 L1207.8981,127.3208 M1117.8981,127.3208 L1057.8981,127.3208 M967.8981,127.3208 L907.8981,127.3208 M817.8981,127.3208 L757.8981,127.3208 M667.8981,127.3208 L607.8981,127.3208 M517.8981,127.3208 L457.8981,127.3208 M367.8981,127.3208 L307.8981,127.3208 M217.8981,127.3208 L157.8981,127.3208 M67.8981,127.3208 L12.8981,127.3208 L12.8981,182.3208 M12.8981,272.3208 L12.8981,332.3208 M12.8981,422.3208 L12.8981,482.3208 M12.8981,572.3208 L12.8981,632.3208 M12.8981,722.3208 L12.8981,782.3208 M12.8981,872.3208 L12.8981,932.3208 M12.8981,1022.3208 L12.8981,1082.3208 M12.8981,1172.3208 L12.8981,1232.3208 M12.8981,1322.3208 L12.8981,1382.3208 M12.8981,1472.3208 L12.8981,1532.3208 M12.8981,1622.3208 L12.8981,1682.3208 M12.8981,1772.3208 L12.8981,1832.3208 M12.8981,1922.3208 L12.8981,1982.3208 M12.8981,2072.3208 L12.8981,2132.3208 M12.8981,2222.3208 L12.8981,2282.3208 M12.8981,2372.3208 L12.8981,2432.3208 M12.8981,2522.3208 L12.8981,2582.3208 M12.8981,2672.3208 L12.8981,2732.3208 M12.8981,2822.3208 L12.8981,2882.3208 M12.8981,2972.3208 L12.8981,3027.3208 " style="stroke:#000000;stroke-width:0.2;"/>
        <!-- Polyline -->
        <path d="M2962.8981,77.3208 L-37.1019,77.3208 L-37.1019,3077.3208 L2962.8981,3077.3208 Z" style="stroke:#000000;stroke-width:0.2;"/>
    </g>
</svg>
