<?xml version="1.0" encoding="UTF-8"?>
<!-- 2026-03-18 12:24:31 Generated by QCAD 3.32.6 SVG Exporter -->
<svg width="9000mm" height="3000mm" viewBox="-37.1019 -3077.3208 9000 3000" version="1.1" xmlns="http://www.w3.org/2000/svg" style="stroke-linecap:round;stroke-linejoin:round;fill:none">
    <g transform="scale(1,-1)">
        <!-- Line -->
        <path d="M-37.1019,3077.3208 L12.8981,3077.3208 " style="stroke:#000000;stroke-width:0.3;"/>
        <!-- Line -->
        <path d="M12.8981,3077.3208 L12.8981,3027.3208 " style="stroke:#000000;stroke-width:0.3;"/>
        <!-- Line -->
        <path d="M12.8981,3027.3208 L-37.1019,3027.3208 " style="stroke:#000000;stroke-width:0.3;"/>
        <!-- Line -->
        <path d="M-37.1019,3027.3208 L-37.1019,3077.3208 " style="stroke:#000000;stroke-width:0.3;"/>
        <!-- Polyline -->
        <path d="M-37.1019,3077.3208 L12.8981,3077.3208 L12.8981,3027.3208 L-37.1019,3027.3208 Z" style="stroke:#000000;stroke-width:0.3;"/>
        <!-- Line -->
        <path d="M2912.8981,3077.3208 L2962.8981,3077.3208 " style="stroke:#000000;stroke-width:0.3;"/>
        <!-- Line -->
        <path d="M2962.8981,3077.3208 L2962.8981,3027.3208 " style="stroke:#000000;stroke-width:0.3;"/>
        <!-- Line -->
        <path d="M2962.8981,3027.3208 L2912.8981,3027.3208 " style="stroke:#000000;stroke-width:0.3;"/>
        <!-- Line -->
        <path d="M2912.8981,3027.3208 L2912.8981,3077.3208 " style="stroke:#000000;stroke-width:0.3;"/>
        <!-- Polyline -->
        <path d="M2912.8981,3077.3208 L2962.8981,3077.3208 L2962.8981,3027.3208 L2912.8981,3027.3208 Z" style="stroke:#000000;stroke-width:0.3;"/>
        <!-- Line -->
        <path d="M-37.1019,127.3208 L12.8981,127.3208 " style="stroke:#000000;stroke-width:0.3;"/>
        <!-- Line -->
        <path d="M12.8981,127.3208 L12.8981,77.3208 " style="stroke:#000000;stroke-width:0.3;"/>
        <!-- Line -->
        <path d="M12.8981,77.3208 L-37.1019,77.3208 " style="stroke:#000000;stroke-width:0.3;"/>
        <!-- Line -->
        <path d="M-37.1019,77.3208 L-37.1019,127.3208 " style="stroke:#000000;stroke-width:0.3;"/>
        <!-- Polyline -->
        <path d="M-37.1019,127.3208 L12.8981,127.3208 L12.8981,77.3208 L-37.1019,77.3208 Z" style="stroke:#000000;stroke-width:0.3;"/>
        <!-- Line -->
        <path d="M2912.8981,127.3208 L2962.8981,127.3208 " style="stroke:#000000;stroke-width:0.3;"/>
        <!-- Line -->
        <path d="M2962.8981,127.3208 L2962.8981,77.3208 " style="stroke:#000000;stroke-width:0.3;"/>
        <!-- Line -->
        <path d="M2962.8981,77.3208 L2912.8981,77.3208 " style="stroke:#000000;stroke-width:0.3;"/>
        <!-- Line -->
        <path d="M2912.8981,77.3208 L2912.8981,127.3208 " style="stroke:#000000;stroke-width:0.3;"/>
        <!-- Polyline -->
        <path d="M2912.8981,127.3208 L2962.8981,127.3208 L2962.8981,77.3208 L2912.8981,77.3208 Z" style="stroke:#000000;stroke-width:0.3;"/>
        <!-- Line -->
        <path d="M5912.8981,3077.3208 L5962.8981,3077.3208 " style="stroke:#000000;stroke-width:0.3;"/>
        <!-- Line -->
        <path d="M5962.8981,3077.3208 L5962.8981,3027.3208 " style="stroke:#000000;stroke-width:0.3;"/>
        <!-- Line -->
        <path d="M5962.8981,3027.3208 L5912.8981,3027.3208 " style="stroke:#000000;stroke-width:0.3;"/>
        <!-- Line -->
        <path d="M5912.8981,3027.3208 L5912.8981,3077.3208 " style="stroke:#000000;stroke-width:0.3;"/>
        <!-- Polyline -->
        <path d="M5912.8981,3077.3208 L5962.8981,3077.3208 L5962.8981,3027.3208 L5912.8981,3027.3208 Z" style="stroke:#000000;stroke-width:0.3;"/>
        <!-- Line -->
        <path d="M5912.8981,127.3208 L5962.8981,127.3208 " style="stroke:#000000;stroke-width:0.3;"/>
        <!-- Line -->
        <path d="M5962.8981,127.3208 L5962.8981,77.3208 " style="stroke:#000000;stroke-width:0.3;"/>
        <!-- Line -->
        <path d="M5962.8981,77.3208 L5912.8981,77.3208 " style="stroke:#000000;stroke-width:0.3;"/>
        <!-- Line -->
        <path d="M5912.8981,77.3208 L5912.8981,127.3208 " style="stroke:#000000;stroke-width:0.3;"/>
        <!-- Polyline -->
        <path d="M5912.8981,127.3208 L5962.8981,127.3208 L5962.8981,77.3208 L5912.8981,77.3208 Z" style="stroke:#000000;stroke-width:0.3;"/>
        <!-- Line -->
        <path d="M8912.8981,3077.3208 L8962.8981,3077.3208 " style="stroke:#000000;stroke-width:0.3;"/>
        <!-- Line -->
        <path d="M8962.8981,3077.3208 L8962.8981,3027.3208 " style="stroke:#000000;stroke-width:0.3;"/>
        <!-- Line -->
        <path d="M8962.8981,3027.3208 L8912.8981,3027.3208 " style="stroke:#000000;stroke-width:0.3;"/>
        <!-- Line -->
        <path d="M8912.8981,3027.3208 L8912.8981,3077.3208 " style="stroke:#000000;stroke-width:0.3;"/>
        <!-- Polyline -->
        <path d="M8912.8981,3077.3208 L8962.8981,3077.3208 L8962.8981,3027.3208 L8912.8981,3027.3208 Z" style="stroke:#000000;stroke-width:0.3;"/>
        <!-- Line -->
        <path d="M8912.8981,127.3208 L8962.8981,127.3208 " style="stroke:#000000;stroke-width:0.3;"/>
        <!-- Line -->
        <path d="M8962.8981,127.3208 L8962.8981,77.3208 " style="stroke:#000000;stroke-width:0.3;"/>
        <!-- Line -->
        <path d="M8962.8981,77.3208 L8912.8981,77.3208 " style="stroke:#000000;stroke-width:0.3;"/>
        <!-- Line -->
        <path d="M8912.8981,77.3208 L8912.8981,127.3208 " style="stroke:#000000;stroke-width:0.3;"/>
        <!-- Polyline -->
        <path d="M8912.8981,127.3208 L8962.8981,127.3208 L8962.8981,77.3208 L8912.8981,77.3208 Z" style="stroke:#000000;stroke-width:0.3;"/>
        <!-- Polyline -->
        <path d="M-37.1019,3077.3208 L8962.8981,3077.3208 L8962.8981,77.3208 L-37.1019,77.3208 Z" style="stroke:#000000;stroke-width:0.2;"/>
        <!-- Polyline -->
        <path d="M12.8981,3027.3208 L67.8981,3027.3208 M157.8981,3027.3208 L217.8981,3027.3208 M307.8981,3027.3208 L367.8981,3027.3208 M457.8981,3027.3208 L517.8981,3027.3208 M607.8981,3027.3208 L667.8981,3027.3208 M757.8981,3027.3208 L817.8981,3027.3208 M907.8981,3027.3208 L967.8981,3027.3208 M1057.8981,3027.3208 L1117.8981,3027.3208 M1207.8981,3027.3208 L1267.8981,3027.3208 M1357.8981,3027.3208 L1417.8981,3027.3208 M1507.8981,3027.3208 L1567.8981,3027.3208 M1657.8981,3027.3208 L1717.8981,3027.3208 M1807.8981,3027.3208 L1867.8981,3027.3208 M1957.8981,3027.3208 L2017.8981,3027.3208 M2107.8981,3027.3208 L2167.8981,3027.3208 M2257.8981,3027.3208 L2317.8981,3027.3208 M2407.8981,3027.3208 L2467.8981,3027.3208 M2557.8981,3027.3208 L2617.8981,3027.3208 M2707.8981,3027.3208 L2767.8981,3027.3208 M2857.8981,3027.3208 L2917.8981,3027.3208 M3007.8981,3027.3208 L3067.8981,3027.3208 M3157.8981,3027.3208 L3217.8981,3027.3208 M3307.8981,3027.3208 L3367.8981,3027.3208 M3457.8981,3027.3208 L3517.8981,3027.3208 M3607.8981,3027.3208 L3667.8981,3027.3208 M3757.8981,3027.3208 L3817.8981,3027.3208 M3907.8981,3027.3208 L3967.8981,3027.3208 M4057.8981,3027.3208 L4117.8981,3027.3208 M4207.8981,3027.3208 L4267.8981,3027.3208 M4357.8981,3027.3208 L4417.8981,3027.3208 M4507.8981,3027.3208 L4567.8981,3027.3208 M4657.8981,3027.3208 L4717.8981,3027.3208 M4807.8981,3027.3208 L4867.8981,3027.3208 M4957.8981,3027.3208 L5017.8981,3027.3208 M5107.8981,3027.3208 L5167.8981,3027.3208 M5257.8981,3027.3208 L5317.8981,3027.3208 M5407.8981,3027.3208 L5467.8981,3027.3208 M5557.8981,3027.3208 L5617.8981,3027.3208 M5707.8981,3027.3208 L5767.8981,3027.3208 M5857.8981,3027.3208 L5917.8981,3027.3208 M6007.8981,3027.3208 L6067.8981,3027.3208 M6157.8981,3027.3208 L6217.8981,3027.3208 M6307.8981,3027.3208 L6367.8981,3027.3208 M6457.8981,3027.3208 L6517.8981,3027.3208 M6607.8981,3027.3208 L6667.8981,3027.3208 M6757.8981,3027.3208 L6817.8981,3027.3208 M6907.8981,3027.3208 L6967.8981,3027.3208 M7057.8981,3027.3208 L7117.8981,3027.3208 M7207.8981,3027.3208 L7267.8981,3027.3208 M7357.8981,3027.3208 L7417.8981,3027.3208 M7507.8981,3027.3208 L7567.8981,3027.3208 M7657.8981,3027.3208 L7717.8981,3027.3208 M7807.8981,3027.3208 L7867.8981,3027.3208 M7957.8981,3027.3208 L8017.8981,3027.3208 M8107.8981,3027.3208 L8167.8981,3027.3208 M8257.8981,3027.3208 L8317.8981,3027.3208 M8407.8981,3027.3208 L8467.8981,3027.3208 M8557.8981,3027.3208 L8617.8981,3027.3208 M8707.8981,3027.3208 L8767.8981,3027.3208 M8857.8981,3027.3208 L8912.8981,3027.3208 L8912.8981,2972.3208 M8912.8981,2882.3208 L8912.8981,2822.3208 M8912.8981,2732.3208 L8912.8981,2672.3208 M8912.8981,2582.3208 L8912.8981,2522.3208 M8912.8981,2432.3208 L8912.8981,2372.3208 M8912.8981,2282.3208 L8912.8981,2222.3208 M8912.8981,2132.3208 L8912.8981,2072.3208 M8912.8981,1982.3208 L8912.8981,1922.3208 M8912.8981,1832.3208 L8912.8981,1772.3208 M8912.8981,1682.3208 L8912.8981,1622.3208 M8912.8981,1532.3208 L8912.8981,1472.3208 M8912.8981,1382.3208 L8912.8981,1322.3208 M8912.8981,1232.3208 L8912.8981,1172.3208 M8912.8981,1082.3208 L8912.8981,1022.3208 M8912.8981,932.3208 L8912.8981,872.3208 M8912.8981,782.3208 L8912.8981,722.3208 M8912.8981,632.3208 L8912.8981,572.3208 M8912.8981,482.3208 L8912.8981,422.3208 M8912.8981,332.3208 L8912.8981,272.3208 M8912.8981,182.3208 L8912.8981,127.3208 L8857.8981,127.3208 M8767.8981,127.3208 L8707.8981,127.3208 M8617.8981,127.3208 L8557.8981,127.3208 M8467.8981,127.3208 L8407.8981,127.3208 M8317.8981,127.3208 L8257.8981,127.3208 M8167.8981,127.3208 L8107.8981,127.3208 M8017.8981,127.3208 L7957.8981,127.3208 M7867.8981,127.3208 L7807.8981,127.3208 M7717.8981,127.3208 L7657.8981,127.3208 M7567.8981,127.3208 L7507.8981,127.3208 M7417.8981,127.3208 L7357.8981,127.3208 M7267.8981,127.3208 L7207.8981,127.3208 M7117.8981,127.3208 L7057.8981,127.3208 M6967.8981,127.3208 L6907.8981,127.3208 M6817.8981,127.3208 L6757.8981,127.3208 M6667.8981,127.3208 L6607.8981,127.3208 M6517.8981,127.3208 L6457.8981,127.3208 M6367.8981,127.3208 L6307.8981,127.3208 M6217.8981,127.3208 L6157.8981,127.3208 M6067.8981,127.3208 L6007.8981,127.3208 M5917.8981,127.3208 L5857.8981,127.3208 M5767.8981,127.3208 L5707.8981,127.3208 M5617.8981,127.3208 L5557.8981,127.3208 M5467.8981,127.3208 L5407.8981,127.3208 M5317.8981,127.3208 L5257.8981,127.3208 M5167.8981,127.3208 L5107.8981,127.3208 M5017.8981,127.3208 L4957.8981,127.3208 M4867.8981,127.3208 L4807.8981,127.3208 M4717.8981,127.3208 L4657.8981,127.3208 M4567.8981,127.3208 L4507.8981,127.3208 M4417.8981,127.3208 L4357.8981,127.3208 M4267.8981,127.3208 L4207.8981,127.3208 M4117.8981,127.3208 L4057.8981,127.3208 M3967.8981,127.3208 L3907.8981,127.3208 M3817.8981,127.3208 L3757.8981,127.3208 M3667.8981,127.3208 L3607.8981,127.3208 M3517.8981,127.3208 L3457.8981,127.3208 M3367.8981,127.3208 L3307.8981,127.3208 M3217.8981,127.3208 L3157.8981,127.3208 M3067.8981,127.3208 L3007.8981,127.3208 M2917.8981,127.3208 L2857.8981,127.3208 M2767.8981,127.3208 L2707.8981,127.3208 M2617.8981,127.3208 L2557.8981,127.3208 M2467.8981,127.3208 L2407.8981,127.3208 M2317.8981,127.3208 L2257.8981,127.3208 M2167.8981,127.3208 L2107.8981,127.3208 M2017.8981,127.3208 L1957.8981,127.3208 M1867.8981,127.3208 L1807.8981,127.3208 M1717.8981,127.3208 L1657.8981,127.3208 M1567.8981,127.3208 L1507.8981,127.3208 M1417.8981,127.3208 L1357.8981,127.3208 M1267.8981,127.3208 L1207.8981,127.3208 M1117.8981,127.3208 L1057.8981,127.3208 M967.8981,127.3208 L907.8981,127.3208 M817.8981,127.3208 L757.8981,127.3208 M667.8981,127.3208 L607.8981,127.3208 M517.8981,127.3208 L457.8981,127.3208 M367.8981,127.3208 L307.8981,127.3208 M217.8981,127.3208 L157.8981,127.3208 M67.8981,127.3208 L12.8981,127.3208 L12.8981,182.3208 M12.8981,272.3208 L12.8981,332.3208 M12.8981,422.3208 L12.8981,482.3208 M12.8981,572.3208 L12.8981,632.3208 M12.8981,722.3208 L12.8981,782.3208 M12.8981,872.3208 L12.8981,932.3208 M12.8981,1022.3208 L12.8981,1082.3208 M12.8981,1172.3208 L12.8981,1232.3208 M12.8981,1322.3208 L12.8981,1382.3208 M12.8981,1472.3208 L12.8981,1532.3208 M12.8981,1622.3208 L12.8981,1682.3208 M12.8981,1772.3208 L12.8981,1832.3208 M12.8981,1922.3208 L12.8981,1982.3208 M12.8981,2072.3208 L12.8981,2132.3208 M12.8981,2222.3208 L12.8981,2282.3208 M12.8981,2372.3208 L12.8981,2432.3208 M12.8981,2522.3208 L12.8981,2582.3208 M12.8981,2672.3208 L12.8981,2732.3208 M12.8981,2822.3208 L12.8981,2882.3208 M12.8981,2972.3208 L12.8981,3027.3208 " style="stroke:#000000;stroke-width:0.2;"/>
    </g>
</svg>
