<?xml version="1.0" encoding="UTF-8"?>
<!-- 2026-03-18 12:25:21 Generated by QCAD 3.32.6 SVG Exporter -->
<svg width="10000mm" height="5000mm" viewBox="-37.1019 -5077.3208 10000 5000" version="1.1" xmlns="http://www.w3.org/2000/svg" style="stroke-linecap:round;stroke-linejoin:round;fill:none">
    <g transform="scale(1,-1)">
        <!-- Line -->
        <path d="M-37.1019,5077.3208 L12.8981,5077.3208 " style="stroke:#000000;stroke-width:0.3;"/>
        <!-- Line -->
        <path d="M12.8981,5077.3208 L12.8981,5027.3208 " style="stroke:#000000;stroke-width:0.3;"/>
        <!-- Line -->
        <path d="M12.8981,5027.3208 L-37.1019,5027.3208 " style="stroke:#000000;stroke-width:0.3;"/>
        <!-- Line -->
        <path d="M-37.1019,5027.3208 L-37.1019,5077.3208 " style="stroke:#000000;stroke-width:0.3;"/>
        <!-- Polyline -->
        <path d="M-37.1019,5077.3208 L12.8981,5077.3208 L12.8981,5027.3208 L-37.1019,5027.3208 Z" style="stroke:#000000;stroke-width:0.3;"/>
        <!-- Line -->
        <path d="M-37.1019,127.3208 L12.8981,127.3208 " style="stroke:#000000;stroke-width:0.3;"/>
        <!-- Line -->
        <path d="M12.8981,127.3208 L12.8981,77.3208 " style="stroke:#000000;stroke-width:0.3;"/>
        <!-- Line -->
        <path d="M12.8981,77.3208 L-37.1019,77.3208 " style="stroke:#000000;stroke-width:0.3;"/>
        <!-- Line -->
        <path d="M-37.1019,77.3208 L-37.1019,127.3208 " style="stroke:#000000;stroke-width:0.3;"/>
        <!-- Polyline -->
        <path d="M-37.1019,127.3208 L12.8981,127.3208 L12.8981,77.3208 L-37.1019,77.3208 Z" style="stroke:#000000;stroke-width:0.3;"/>
        <!-- Line -->
        <path d="M4912.8981,5077.3208 L4962.8981,5077.3208 " style="stroke:#000000;stroke-width:0.3;"/>
        <!-- Line -->
        <path d="M4962.8981,5077.3208 L4962.8981,5027.3208 " style="stroke:#000000;stroke-width:0.3;"/>
        <!-- Line -->
        <path d="M4962.8981,5027.3208 L4912.8981,5027.3208 " style="stroke:#000000;stroke-width:0.3;"/>
        <!-- Line -->
        <path d="M4912.8981,5027.3208 L4912.8981,5077.3208 " style="stroke:#000000;stroke-width:0.3;"/>
        <!-- Polyline -->
        <path d="M4912.8981,5077.3208 L4962.8981,5077.3208 L4962.8981,5027.3208 L4912.8981,5027.3208 Z" style="stroke:#000000;stroke-width:0.3;"/>
        <!-- Line -->
        <path d="M4912.8981,127.3208 L4962.8981,127.3208 " style="stroke:#000000;stroke-width:0.3;"/>
        <!-- Line -->
        <path d="M4962.8981,127.3208 L4962.8981,77.3208 " style="stroke:#000000;stroke-width:0.3;"/>
        <!-- Line -->
        <path d="M4962.8981,77.3208 L4912.8981,77.3208 " style="stroke:#000000;stroke-width:0.3;"/>
        <!-- Line -->
        <path d="M4912.8981,77.3208 L4912.8981,127.3208 " style="stroke:#000000;stroke-width:0.3;"/>
        <!-- Polyline -->
        <path d="M4912.8981,127.3208 L4962.8981,127.3208 L4962.8981,77.3208 L4912.8981,77.3208 Z" style="stroke:#000000;stroke-width:0.3;"/>
        <!-- Line -->
        <path d="M9912.8981,5077.3208 L9962.8981,5077.3208 " style="stroke:#000000;stroke-width:0.3;"/>
        <!-- Line -->
        <path d="M9962.8981,5077.3208 L9962.8981,5027.3208 " style="stroke:#000000;stroke-width:0.3;"/>
        <!-- Line -->
        <path d="M9962.8981,5027.3208 L9912.8981,5027.3208 " style="stroke:#000000;stroke-width:0.3;"/>
        <!-- Line -->
        <path d="M9912.8981,5027.3208 L9912.8981,5077.3208 " style="stroke:#000000;stroke-width:0.3;"/>
        <!-- Polyline -->
        <path d="M9912.8981,5077.3208 L9962.8981,5077.3208 L9962.8981,5027.3208 L9912.8981,5027.3208 Z" style="stroke:#000000;stroke-width:0.3;"/>
        <!-- Line -->
        <path d="M9912.8981,127.3208 L9962.8981,127.3208 " style="stroke:#000000;stroke-width:0.3;"/>
        <!-- Line -->
        <path d="M9962.8981,127.3208 L9962.8981,77.3208 " style="stroke:#000000;stroke-width:0.3;"/>
        <!-- Line -->
        <path d="M9962.8981,77.3208 L9912.8981,77.3208 " style="stroke:#000000;stroke-width:0.3;"/>
        <!-- Line -->
        <path d="M9912.8981,77.3208 L9912.8981,127.3208 " style="stroke:#000000;stroke-width:0.3;"/>
        <!-- Polyline -->
        <path d="M9912.8981,127.3208 L9962.8981,127.3208 L9962.8981,77.3208 L9912.8981,77.3208 Z" style="stroke:#000000;stroke-width:0.3;"/>
        <!-- Line -->
        <path d="M-37.1019,2577.3208 L12.8981,2577.3208 " style="stroke:#000000;stroke-width:0.3;"/>
        <!-- Line -->
        <path d="M12.8981,2577.3208 L12.8981,2527.3208 " style="stroke:#000000;stroke-width:0.3;"/>
        <!-- Line -->
        <path d="M12.8981,2527.3208 L-37.1019,2527.3208 " style="stroke:#000000;stroke-width:0.3;"/>
        <!-- Line -->
        <path d="M-37.1019,2527.3208 L-37.1019,2577.3208 " style="stroke:#000000;stroke-width:0.3;"/>
        <!-- Polyline -->
        <path d="M-37.1019,2577.3208 L12.8981,2577.3208 L12.8981,2527.3208 L-37.1019,2527.3208 Z" style="stroke:#000000;stroke-width:0.3;"/>
        <!-- Line -->
        <path d="M9912.8981,2577.3208 L9962.8981,2577.3208 " style="stroke:#000000;stroke-width:0.3;"/>
        <!-- Line -->
        <path d="M9962.8981,2577.3208 L9962.8981,2527.3208 " style="stroke:#000000;stroke-width:0.3;"/>
        <!-- Line -->
        <path d="M9962.8981,2527.3208 L9912.8981,2527.3208 " style="stroke:#000000;stroke-width:0.3;"/>
        <!-- Line -->
        <path d="M9912.8981,2527.3208 L9912.8981,2577.3208 " style="stroke:#000000;stroke-width:0.3;"/>
        <!-- Polyline -->
        <path d="M9912.8981,2577.3208 L9962.8981,2577.3208 L9962.8981,2527.3208 L9912.8981,2527.3208 Z" style="stroke:#000000;stroke-width:0.3;"/>
        <!-- Line -->
        <path d="M2412.8981,5077.3208 L2462.8981,5077.3208 " style="stroke:#000000;stroke-width:0.3;"/>
        <!-- Line -->
        <path d="M2462.8981,5077.3208 L2462.8981,5027.3208 " style="stroke:#000000;stroke-width:0.3;"/>
        <!-- Line -->
        <path d="M2462.8981,5027.3208 L2412.8981,5027.3208 " style="stroke:#000000;stroke-width:0.3;"/>
        <!-- Line -->
        <path d="M2412.8981,5027.3208 L2412.8981,5077.3208 " style="stroke:#000000;stroke-width:0.3;"/>
        <!-- Polyline -->
        <path d="M2412.8981,5077.3208 L2462.8981,5077.3208 L2462.8981,5027.3208 L2412.8981,5027.3208 Z" style="stroke:#000000;stroke-width:0.3;"/>
        <!-- Line -->
        <path d="M2412.8981,127.3208 L2462.8981,127.3208 " style="stroke:#000000;stroke-width:0.3;"/>
        <!-- Line -->
        <path d="M2462.8981,127.3208 L2462.8981,77.3208 " style="stroke:#000000;stroke-width:0.3;"/>
        <!-- Line -->
        <path d="M2462.8981,77.3208 L2412.8981,77.3208 " style="stroke:#000000;stroke-width:0.3;"/>
        <!-- Line -->
        <path d="M2412.8981,77.3208 L2412.8981,127.3208 " style="stroke:#000000;stroke-width:0.3;"/>
        <!-- Polyline -->
        <path d="M2412.8981,127.3208 L2462.8981,127.3208 L2462.8981,77.3208 L2412.8981,77.3208 Z" style="stroke:#000000;stroke-width:0.3;"/>
        <!-- Line -->
        <path d="M7412.8981,5077.3208 L7462.8981,5077.3208 " style="stroke:#000000;stroke-width:0.3;"/>
        <!-- Line -->
        <path d="M7462.8981,5077.3208 L7462.8981,5027.3208 " style="stroke:#000000;stroke-width:0.3;"/>
        <!-- Line -->
        <path d="M7462.8981,5027.3208 L7412.8981,5027.3208 " style="stroke:#000000;stroke-width:0.3;"/>
        <!-- Line -->
        <path d="M7412.8981,5027.3208 L7412.8981,5077.3208 " style="stroke:#000000;stroke-width:0.3;"/>
        <!-- Polyline -->
        <path d="M7412.8981,5077.3208 L7462.8981,5077.3208 L7462.8981,5027.3208 L7412.8981,5027.3208 Z" style="stroke:#000000;stroke-width:0.3;"/>
        <!-- Line -->
        <path d="M7412.8981,127.3208 L7462.8981,127.3208 " style="stroke:#000000;stroke-width:0.3;"/>
        <!-- Line -->
        <path d="M7462.8981,127.3208 L7462.8981,77.3208 " style="stroke:#000000;stroke-width:0.3;"/>
        <!-- Line -->
        <path d="M7462.8981,77.3208 L7412.8981,77.3208 " style="stroke:#000000;stroke-width:0.3;"/>
        <!-- Line -->
        <path d="M7412.8981,77.3208 L7412.8981,127.3208 " style="stroke:#000000;stroke-width:0.3;"/>
        <!-- Polyline -->
        <path d="M7412.8981,127.3208 L7462.8981,127.3208 L7462.8981,77.3208 L7412.8981,77.3208 Z" style="stroke:#000000;stroke-width:0.3;"/>
        <!-- Polyline -->
        <path d="M-37.1019,5077.3208 L9962.8981,5077.3208 L9962.8981,77.3208 L-37.1019,77.3208 Z" style="stroke:#000000;stroke-width:0.2;"/>
        <!-- Polyline -->
        <path d="M12.8981,5027.3208 L42.8981,5027.3208 M132.8981,5027.3208 L192.8981,5027.3208 M282.8981,5027.3208 L342.8981,5027.3208 M432.8981,5027.3208 L492.8981,5027.3208 M582.8981,5027.3208 L642.8981,5027.3208 M732.8981,5027.3208 L792.8981,5027.3208 M882.8981,5027.3208 L942.8981,5027.3208 M1032.8981,5027.3208 L1092.8981,5027.3208 M1182.8981,5027.3208 L1242.8981,5027.3208 M1332.8981,5027.3208 L1392.8981,5027.3208 M1482.8981,5027.3208 L1542.8981,5027.3208 M1632.8981,5027.3208 L1692.8981,5027.3208 M1782.8981,5027.3208 L1842.8981,5027.3208 M1932.8981,5027.3208 L1992.8981,5027.3208 M2082.8981,5027.3208 L2142.8981,5027.3208 M2232.8981,5027.3208 L2292.8981,5027.3208 M2382.8981,5027.3208 L2442.8981,5027.3208 M2532.8981,5027.3208 L2592.8981,5027.3208 M2682.8981,5027.3208 L2742.8981,5027.3208 M2832.8981,5027.3208 L2892.8981,5027.3208 M2982.8981,5027.3208 L3042.8981,5027.3208 M3132.8981,5027.3208 L3192.8981,5027.3208 M3282.8981,5027.3208 L3342.8981,5027.3208 M3432.8981,5027.3208 L3492.8981,5027.3208 M3582.8981,5027.3208 L3642.8981,5027.3208 M3732.8981,5027.3208 L3792.8981,5027.3208 M3882.8981,5027.3208 L3942.8981,5027.3208 M4032.8981,5027.3208 L4092.8981,5027.3208 M4182.8981,5027.3208 L4242.8981,5027.3208 M4332.8981,5027.3208 L4392.8981,5027.3208 M4482.8981,5027.3208 L4542.8981,5027.3208 M4632.8981,5027.3208 L4692.8981,5027.3208 M4782.8981,5027.3208 L4842.8981,5027.3208 M4932.8981,5027.3208 L4992.8981,5027.3208 M5082.8981,5027.3208 L5142.8981,5027.3208 M5232.8981,5027.3208 L5292.8981,5027.3208 M5382.8981,5027.3208 L5442.8981,5027.3208 M5532.8981,5027.3208 L5592.8981,5027.3208 M5682.8981,5027.3208 L5742.8981,5027.3208 M5832.8981,5027.3208 L5892.8981,5027.3208 M5982.8981,5027.3208 L6042.8981,5027.3208 M6132.8981,5027.3208 L6192.8981,5027.3208 M6282.8981,5027.3208 L6342.8981,5027.3208 M6432.8981,5027.3208 L6492.8981,5027.3208 M6582.8981,5027.3208 L6642.8981,5027.3208 M6732.8981,5027.3208 L6792.8981,5027.3208 M6882.8981,5027.3208 L6942.8981,5027.3208 M7032.8981,5027.3208 L7092.8981,5027.3208 M7182.8981,5027.3208 L7242.8981,5027.3208 M7332.8981,5027.3208 L7392.8981,5027.3208 M7482.8981,5027.3208 L7542.8981,5027.3208 M7632.8981,5027.3208 L7692.8981,5027.3208 M7782.8981,5027.3208 L7842.8981,5027.3208 M7932.8981,5027.3208 L7992.8981,5027.3208 M8082.8981,5027.3208 L8142.8981,5027.3208 M8232.8981,5027.3208 L8292.8981,5027.3208 M8382.8981,5027.3208 L8442.8981,5027.3208 M8532.8981,5027.3208 L8592.8981,5027.3208 M8682.8981,5027.3208 L8742.8981,5027.3208 M8832.8981,5027.3208 L8892.8981,5027.3208 M8982.8981,5027.3208 L9042.8981,5027.3208 M9132.8981,5027.3208 L9192.8981,5027.3208 M9282.8981,5027.3208 L9342.8981,5027.3208 M9432.8981,5027.3208 L9492.8981,5027.3208 M9582.8981,5027.3208 L9642.8981,5027.3208 M9732.8981,5027.3208 L9792.8981,5027.3208 M9882.8981,5027.3208 L9912.8981,5027.3208 L9912.8981,5022.3208 M9912.8981,4932.3208 L9912.8981,4872.3208 M9912.8981,4782.3208 L9912.8981,4722.3208 M9912.8981,4632.3208 L9912.8981,4572.3208 M9912.8981,4482.3208 L9912.8981,4422.3208 M9912.8981,4332.3208 L9912.8981,4272.3208 M9912.8981,4182.3208 L9912.8981,4122.3208 M9912.8981,4032.3208 L9912.8981,3972.3208 M9912.8981,3882.3208 L9912.8981,3822.3208 M9912.8981,3732.3208 L9912.8981,3672.3208 M9912.8981,3582.3208 L9912.8981,3522.3208 M9912.8981,3432.3208 L9912.8981,3372.3208 M9912.8981,3282.3208 L9912.8981,3222.3208 M9912.8981,3132.3208 L9912.8981,3072.3208 M9912.8981,2982.3208 L9912.8981,2922.3208 M9912.8981,2832.3208 L9912.8981,2772.3208 M9912.8981,2682.3208 L9912.8981,2622.3208 M9912.8981,2532.3208 L9912.8981,2472.3208 M9912.8981,2382.3208 L9912.8981,2322.3208 M9912.8981,2232.3208 L9912.8981,2172.3208 M9912.8981,2082.3208 L9912.8981,2022.3208 M9912.8981,1932.3208 L9912.8981,1872.3208 M9912.8981,1782.3208 L9912.8981,1722.3208 M9912.8981,1632.3208 L9912.8981,1572.3208 M9912.8981,1482.3208 L9912.8981,1422.3208 M9912.8981,1332.3208 L9912.8981,1272.3208 M9912.8981,1182.3208 L9912.8981,1122.3208 M9912.8981,1032.3208 L9912.8981,972.3208 M9912.8981,882.3208 L9912.8981,822.3208 M9912.8981,732.3208 L9912.8981,672.3208 M9912.8981,582.3208 L9912.8981,522.3208 M9912.8981,432.3208 L9912.8981,372.3208 M9912.8981,282.3208 L9912.8981,222.3208 M9912.8981,132.3208 L9912.8981,127.3208 L9882.8981,127.3208 M9792.8981,127.3208 L9732.8981,127.3208 M9642.8981,127.3208 L9582.8981,127.3208 M9492.8981,127.3208 L9432.8981,127.3208 M9342.8981,127.3208 L9282.8981,127.3208 M9192.8981,127.3208 L9132.8981,127.3208 M9042.8981,127.3208 L8982.8981,127.3208 M8892.8981,127.3208 L8832.8981,127.3208 M8742.8981,127.3208 L8682.8981,127.3208 M8592.8981,127.3208 L8532.8981,127.3208 M8442.8981,127.3208 L8382.8981,127.3208 M8292.8981,127.3208 L8232.8981,127.3208 M8142.8981,127.3208 L8082.8981,127.3208 M7992.8981,127.3208 L7932.8981,127.3208 M7842.8981,127.3208 L7782.8981,127.3208 M7692.8981,127.3208 L7632.8981,127.3208 M7542.8981,127.3208 L7482.8981,127.3208 M7392.8981,127.3208 L7332.8981,127.3208 M7242.8981,127.3208 L7182.8981,127.3208 M7092.8981,127.3208 L7032.8981,127.3208 M6942.8981,127.3208 L6882.8981,127.3208 M6792.8981,127.3208 L6732.8981,127.3208 M6642.8981,127.3208 L6582.8981,127.3208 M6492.8981,127.3208 L6432.8981,127.3208 M6342.8981,127.3208 L6282.8981,127.3208 M6192.8981,127.3208 L6132.8981,127.3208 M6042.8981,127.3208 L5982.8981,127.3208 M5892.8981,127.3208 L5832.8981,127.3208 M5742.8981,127.3208 L5682.8981,127.3208 M5592.8981,127.3208 L5532.8981,127.3208 M5442.8981,127.3208 L5382.8981,127.3208 M5292.8981,127.3208 L5232.8981,127.3208 M5142.8981,127.3208 L5082.8981,127.3208 M4992.8981,127.3208 L4932.8981,127.3208 M4842.8981,127.3208 L4782.8981,127.3208 M4692.8981,127.3208 L4632.8981,127.3208 M4542.8981,127.3208 L4482.8981,127.3208 M4392.8981,127.3208 L4332.8981,127.3208 M4242.8981,127.3208 L4182.8981,127.3208 M4092.8981,127.3208 L4032.8981,127.3208 M3942.8981,127.3208 L3882.8981,127.3208 M3792.8981,127.3208 L3732.8981,127.3208 M3642.8981,127.3208 L3582.8981,127.3208 M3492.8981,127.3208 L3432.8981,127.3208 M3342.8981,127.3208 L3282.8981,127.3208 M3192.8981,127.3208 L3132.8981,127.3208 M3042.8981,127.3208 L2982.8981,127.3208 M2892.8981,127.3208 L2832.8981,127.3208 M2742.8981,127.3208 L2682.8981,127.3208 M2592.8981,127.3208 L2532.8981,127.3208 M2442.8981,127.3208 L2382.8981,127.3208 M2292.8981,127.3208 L2232.8981,127.3208 M2142.8981,127.3208 L2082.8981,127.3208 M1992.8981,127.3208 L1932.8981,127.3208 M1842.8981,127.3208 L1782.8981,127.3208 M1692.8981,127.3208 L1632.8981,127.3208 M1542.8981,127.3208 L1482.8981,127.3208 M1392.8981,127.3208 L1332.8981,127.3208 M1242.8981,127.3208 L1182.8981,127.3208 M1092.8981,127.3208 L1032.8981,127.3208 M942.8981,127.3208 L882.8981,127.3208 M792.8981,127.3208 L732.8981,127.3208 M642.8981,127.3208 L582.8981,127.3208 M492.8981,127.3208 L432.8981,127.3208 M342.8981,127.3208 L282.8981,127.3208 M192.8981,127.3208 L132.8981,127.3208 M42.8981,127.3208 L12.8981,127.3208 L12.8981,132.3208 M12.8981,222.3208 L12.8981,282.3208 M12.8981,372.3208 L12.8981,432.3208 M12.8981,522.3208 L12.8981,582.3208 M12.8981,672.3208 L12.8981,732.3208 M12.8981,822.3208 L12.8981,882.3208 M12.8981,972.3208 L12.8981,1032.3208 M12.8981,1122.3208 L12.8981,1182.3208 M12.8981,1272.3208 L12.8981,1332.3208 M12.8981,1422.3208 L12.8981,1482.3208 M12.8981,1572.3208 L12.8981,1632.3208 M12.8981,1722.3208 L12.8981,1782.3208 M12.8981,1872.3208 L12.8981,1932.3208 M12.8981,2022.3208 L12.8981,2082.3208 M12.8981,2172.3208 L12.8981,2232.3208 M12.8981,2322.3208 L12.8981,2382.3208 M12.8981,2472.3208 L12.8981,2532.3208 M12.8981,2622.3208 L12.8981,2682.3208 M12.8981,2772.3208 L12.8981,2832.3208 M12.8981,2922.3208 L12.8981,2982.3208 M12.8981,3072.3208 L12.8981,3132.3208 M12.8981,3222.3208 L12.8981,3282.3208 M12.8981,3372.3208 L12.8981,3432.3208 M12.8981,3522.3208 L12.8981,3582.3208 M12.8981,3672.3208 L12.8981,3732.3208 M12.8981,3822.3208 L12.8981,3882.3208 M12.8981,3972.3208 L12.8981,4032.3208 M12.8981,4122.3208 L12.8981,4182.3208 M12.8981,4272.3208 L12.8981,4332.3208 M12.8981,4422.3208 L12.8981,4482.3208 M12.8981,4572.3208 L12.8981,4632.3208 M12.8981,4722.3208 L12.8981,4782.3208 M12.8981,4872.3208 L12.8981,4932.3208 M12.8981,5022.3208 L12.8981,5027.3208 " style="stroke:#000000;stroke-width:0.2;"/>
    </g>
</svg>
