<?xml version="1.0" encoding="UTF-8"?>
<!-- 2026-03-18 12:24:57 Generated by QCAD 3.32.6 SVG Exporter -->
<svg width="5000mm" height="5000mm" viewBox="-37.1019 -5077.3208 5000 5000" version="1.1" xmlns="http://www.w3.org/2000/svg" style="stroke-linecap:round;stroke-linejoin:round;fill:none">
    <g transform="scale(1,-1)">
        <!-- Line -->
        <path d="M-37.1019,5077.3208 L12.8981,5077.3208 " style="stroke:#000000;stroke-width:0.3;"/>
        <!-- Line -->
        <path d="M12.8981,5077.3208 L12.8981,5027.3208 " style="stroke:#000000;stroke-width:0.3;"/>
        <!-- Line -->
        <path d="M12.8981,5027.3208 L-37.1019,5027.3208 " style="stroke:#000000;stroke-width:0.3;"/>
        <!-- Line -->
        <path d="M-37.1019,5027.3208 L-37.1019,5077.3208 " style="stroke:#000000;stroke-width:0.3;"/>
        <!-- Polyline -->
        <path d="M-37.1019,5077.3208 L12.8981,5077.3208 L12.8981,5027.3208 L-37.1019,5027.3208 Z" style="stroke:#000000;stroke-width:0.3;"/>
        <!-- Line -->
        <path d="M-37.1019,127.3208 L12.8981,127.3208 " style="stroke:#000000;stroke-width:0.3;"/>
        <!-- Line -->
        <path d="M12.8981,127.3208 L12.8981,77.3208 " style="stroke:#000000;stroke-width:0.3;"/>
        <!-- Line -->
        <path d="M12.8981,77.3208 L-37.1019,77.3208 " style="stroke:#000000;stroke-width:0.3;"/>
        <!-- Line -->
        <path d="M-37.1019,77.3208 L-37.1019,127.3208 " style="stroke:#000000;stroke-width:0.3;"/>
        <!-- Polyline -->
        <path d="M-37.1019,127.3208 L12.8981,127.3208 L12.8981,77.3208 L-37.1019,77.3208 Z" style="stroke:#000000;stroke-width:0.3;"/>
        <!-- Line -->
        <path d="M4912.8981,5077.3208 L4962.8981,5077.3208 " style="stroke:#000000;stroke-width:0.3;"/>
        <!-- Line -->
        <path d="M4962.8981,5077.3208 L4962.8981,5027.3208 " style="stroke:#000000;stroke-width:0.3;"/>
        <!-- Line -->
        <path d="M4962.8981,5027.3208 L4912.8981,5027.3208 " style="stroke:#000000;stroke-width:0.3;"/>
        <!-- Line -->
        <path d="M4912.8981,5027.3208 L4912.8981,5077.3208 " style="stroke:#000000;stroke-width:0.3;"/>
        <!-- Polyline -->
        <path d="M4912.8981,5077.3208 L4962.8981,5077.3208 L4962.8981,5027.3208 L4912.8981,5027.3208 Z" style="stroke:#000000;stroke-width:0.3;"/>
        <!-- Line -->
        <path d="M4912.8981,127.3208 L4962.8981,127.3208 " style="stroke:#000000;stroke-width:0.3;"/>
        <!-- Line -->
        <path d="M4962.8981,127.3208 L4962.8981,77.3208 " style="stroke:#000000;stroke-width:0.3;"/>
        <!-- Line -->
        <path d="M4962.8981,77.3208 L4912.8981,77.3208 " style="stroke:#000000;stroke-width:0.3;"/>
        <!-- Line -->
        <path d="M4912.8981,77.3208 L4912.8981,127.3208 " style="stroke:#000000;stroke-width:0.3;"/>
        <!-- Polyline -->
        <path d="M4912.8981,127.3208 L4962.8981,127.3208 L4962.8981,77.3208 L4912.8981,77.3208 Z" style="stroke:#000000;stroke-width:0.3;"/>
        <!-- Line -->
        <path d="M2462.8981,5077.3208 L2512.8981,5077.3208 " style="stroke:#000000;stroke-width:0.3;"/>
        <!-- Line -->
        <path d="M2512.8981,5077.3208 L2512.8981,5027.3208 " style="stroke:#000000;stroke-width:0.3;"/>
        <!-- Line -->
        <path d="M2512.8981,5027.3208 L2462.8981,5027.3208 " style="stroke:#000000;stroke-width:0.3;"/>
        <!-- Line -->
        <path d="M2462.8981,5027.3208 L2462.8981,5077.3208 " style="stroke:#000000;stroke-width:0.3;"/>
        <!-- Polyline -->
        <path d="M2462.8981,5077.3208 L2512.8981,5077.3208 L2512.8981,5027.3208 L2462.8981,5027.3208 Z" style="stroke:#000000;stroke-width:0.3;"/>
        <!-- Line -->
        <path d="M2462.8981,127.3208 L2512.8981,127.3208 " style="stroke:#000000;stroke-width:0.3;"/>
        <!-- Line -->
        <path d="M2512.8981,127.3208 L2512.8981,77.3208 " style="stroke:#000000;stroke-width:0.3;"/>
        <!-- Line -->
        <path d="M2512.8981,77.3208 L2462.8981,77.3208 " style="stroke:#000000;stroke-width:0.3;"/>
        <!-- Line -->
        <path d="M2462.8981,77.3208 L2462.8981,127.3208 " style="stroke:#000000;stroke-width:0.3;"/>
        <!-- Polyline -->
        <path d="M2462.8981,127.3208 L2512.8981,127.3208 L2512.8981,77.3208 L2462.8981,77.3208 Z" style="stroke:#000000;stroke-width:0.3;"/>
        <!-- Line -->
        <path d="M-37.1019,2577.3208 L12.8981,2577.3208 " style="stroke:#000000;stroke-width:0.3;"/>
        <!-- Line -->
        <path d="M12.8981,2577.3208 L12.8981,2527.3208 " style="stroke:#000000;stroke-width:0.3;"/>
        <!-- Line -->
        <path d="M12.8981,2527.3208 L-37.1019,2527.3208 " style="stroke:#000000;stroke-width:0.3;"/>
        <!-- Line -->
        <path d="M-37.1019,2527.3208 L-37.1019,2577.3208 " style="stroke:#000000;stroke-width:0.3;"/>
        <!-- Polyline -->
        <path d="M-37.1019,2577.3208 L12.8981,2577.3208 L12.8981,2527.3208 L-37.1019,2527.3208 Z" style="stroke:#000000;stroke-width:0.3;"/>
        <!-- Line -->
        <path d="M4912.8981,2577.3208 L4962.8981,2577.3208 " style="stroke:#000000;stroke-width:0.3;"/>
        <!-- Line -->
        <path d="M4962.8981,2577.3208 L4962.8981,2527.3208 " style="stroke:#000000;stroke-width:0.3;"/>
        <!-- Line -->
        <path d="M4962.8981,2527.3208 L4912.8981,2527.3208 " style="stroke:#000000;stroke-width:0.3;"/>
        <!-- Line -->
        <path d="M4912.8981,2527.3208 L4912.8981,2577.3208 " style="stroke:#000000;stroke-width:0.3;"/>
        <!-- Polyline -->
        <path d="M4912.8981,2577.3208 L4962.8981,2577.3208 L4962.8981,2527.3208 L4912.8981,2527.3208 Z" style="stroke:#000000;stroke-width:0.3;"/>
        <!-- Polyline -->
        <path d="M-37.1019,5077.3208 L4962.8981,5077.3208 L4962.8981,77.3208 L-37.1019,77.3208 Z" style="stroke:#000000;stroke-width:0.2;"/>
        <!-- Polyline -->
        <path d="M12.8981,5027.3208 L17.8981,5027.3208 M107.8981,5027.3208 L167.8981,5027.3208 M257.8981,5027.3208 L317.8981,5027.3208 M407.8981,5027.3208 L467.8981,5027.3208 M557.8981,5027.3208 L617.8981,5027.3208 M707.8981,5027.3208 L767.8981,5027.3208 M857.8981,5027.3208 L917.8981,5027.3208 M1007.8981,5027.3208 L1067.8981,5027.3208 M1157.8981,5027.3208 L1217.8981,5027.3208 M1307.8981,5027.3208 L1367.8981,5027.3208 M1457.8981,5027.3208 L1517.8981,5027.3208 M1607.8981,5027.3208 L1667.8981,5027.3208 M1757.8981,5027.3208 L1817.8981,5027.3208 M1907.8981,5027.3208 L1967.8981,5027.3208 M2057.8981,5027.3208 L2117.8981,5027.3208 M2207.8981,5027.3208 L2267.8981,5027.3208 M2357.8981,5027.3208 L2417.8981,5027.3208 M2507.8981,5027.3208 L2567.8981,5027.3208 M2657.8981,5027.3208 L2717.8981,5027.3208 M2807.8981,5027.3208 L2867.8981,5027.3208 M2957.8981,5027.3208 L3017.8981,5027.3208 M3107.8981,5027.3208 L3167.8981,5027.3208 M3257.8981,5027.3208 L3317.8981,5027.3208 M3407.8981,5027.3208 L3467.8981,5027.3208 M3557.8981,5027.3208 L3617.8981,5027.3208 M3707.8981,5027.3208 L3767.8981,5027.3208 M3857.8981,5027.3208 L3917.8981,5027.3208 M4007.8981,5027.3208 L4067.8981,5027.3208 M4157.8981,5027.3208 L4217.8981,5027.3208 M4307.8981,5027.3208 L4367.8981,5027.3208 M4457.8981,5027.3208 L4517.8981,5027.3208 M4607.8981,5027.3208 L4667.8981,5027.3208 M4757.8981,5027.3208 L4817.8981,5027.3208 M4907.8981,5027.3208 L4912.8981,5027.3208 L4912.8981,5022.3208 M4912.8981,4932.3208 L4912.8981,4872.3208 M4912.8981,4782.3208 L4912.8981,4722.3208 M4912.8981,4632.3208 L4912.8981,4572.3208 M4912.8981,4482.3208 L4912.8981,4422.3208 M4912.8981,4332.3208 L4912.8981,4272.3208 M4912.8981,4182.3208 L4912.8981,4122.3208 M4912.8981,4032.3208 L4912.8981,3972.3208 M4912.8981,3882.3208 L4912.8981,3822.3208 M4912.8981,3732.3208 L4912.8981,3672.3208 M4912.8981,3582.3208 L4912.8981,3522.3208 M4912.8981,3432.3208 L4912.8981,3372.3208 M4912.8981,3282.3208 L4912.8981,3222.3208 M4912.8981,3132.3208 L4912.8981,3072.3208 M4912.8981,2982.3208 L4912.8981,2922.3208 M4912.8981,2832.3208 L4912.8981,2772.3208 M4912.8981,2682.3208 L4912.8981,2622.3208 M4912.8981,2532.3208 L4912.8981,2472.3208 M4912.8981,2382.3208 L4912.8981,2322.3208 M4912.8981,2232.3208 L4912.8981,2172.3208 M4912.8981,2082.3208 L4912.8981,2022.3208 M4912.8981,1932.3208 L4912.8981,1872.3208 M4912.8981,1782.3208 L4912.8981,1722.3208 M4912.8981,1632.3208 L4912.8981,1572.3208 M4912.8981,1482.3208 L4912.8981,1422.3208 M4912.8981,1332.3208 L4912.8981,1272.3208 M4912.8981,1182.3208 L4912.8981,1122.3208 M4912.8981,1032.3208 L4912.8981,972.3208 M4912.8981,882.3208 L4912.8981,822.3208 M4912.8981,732.3208 L4912.8981,672.3208 M4912.8981,582.3208 L4912.8981,522.3208 M4912.8981,432.3208 L4912.8981,372.3208 M4912.8981,282.3208 L4912.8981,222.3208 M4912.8981,132.3208 L4912.8981,127.3208 L4907.8981,127.3208 M4817.8981,127.3208 L4757.8981,127.3208 M4667.8981,127.3208 L4607.8981,127.3208 M4517.8981,127.3208 L4457.8981,127.3208 M4367.8981,127.3208 L4307.8981,127.3208 M4217.8981,127.3208 L4157.8981,127.3208 M4067.8981,127.3208 L4007.8981,127.3208 M3917.8981,127.3208 L3857.8981,127.3208 M3767.8981,127.3208 L3707.8981,127.3208 M3617.8981,127.3208 L3557.8981,127.3208 M3467.8981,127.3208 L3407.8981,127.3208 M3317.8981,127.3208 L3257.8981,127.3208 M3167.8981,127.3208 L3107.8981,127.3208 M3017.8981,127.3208 L2957.8981,127.3208 M2867.8981,127.3208 L2807.8981,127.3208 M2717.8981,127.3208 L2657.8981,127.3208 M2567.8981,127.3208 L2507.8981,127.3208 M2417.8981,127.3208 L2357.8981,127.3208 M2267.8981,127.3208 L2207.8981,127.3208 M2117.8981,127.3208 L2057.8981,127.3208 M1967.8981,127.3208 L1907.8981,127.3208 M1817.8981,127.3208 L1757.8981,127.3208 M1667.8981,127.3208 L1607.8981,127.3208 M1517.8981,127.3208 L1457.8981,127.3208 M1367.8981,127.3208 L1307.8981,127.3208 M1217.8981,127.3208 L1157.8981,127.3208 M1067.8981,127.3208 L1007.8981,127.3208 M917.8981,127.3208 L857.8981,127.3208 M767.8981,127.3208 L707.8981,127.3208 M617.8981,127.3208 L557.8981,127.3208 M467.8981,127.3208 L407.8981,127.3208 M317.8981,127.3208 L257.8981,127.3208 M167.8981,127.3208 L107.8981,127.3208 M17.8981,127.3208 L12.8981,127.3208 L12.8981,132.3208 M12.8981,222.3208 L12.8981,282.3208 M12.8981,372.3208 L12.8981,432.3208 M12.8981,522.3208 L12.8981,582.3208 M12.8981,672.3208 L12.8981,732.3208 M12.8981,822.3208 L12.8981,882.3208 M12.8981,972.3208 L12.8981,1032.3208 M12.8981,1122.3208 L12.8981,1182.3208 M12.8981,1272.3208 L12.8981,1332.3208 M12.8981,1422.3208 L12.8981,1482.3208 M12.8981,1572.3208 L12.8981,1632.3208 M12.8981,1722.3208 L12.8981,1782.3208 M12.8981,1872.3208 L12.8981,1932.3208 M12.8981,2022.3208 L12.8981,2082.3208 M12.8981,2172.3208 L12.8981,2232.3208 M12.8981,2322.3208 L12.8981,2382.3208 M12.8981,2472.3208 L12.8981,2532.3208 M12.8981,2622.3208 L12.8981,2682.3208 M12.8981,2772.3208 L12.8981,2832.3208 M12.8981,2922.3208 L12.8981,2982.3208 M12.8981,3072.3208 L12.8981,3132.3208 M12.8981,3222.3208 L12.8981,3282.3208 M12.8981,3372.3208 L12.8981,3432.3208 M12.8981,3522.3208 L12.8981,3582.3208 M12.8981,3672.3208 L12.8981,3732.3208 M12.8981,3822.3208 L12.8981,3882.3208 M12.8981,3972.3208 L12.8981,4032.3208 M12.8981,4122.3208 L12.8981,4182.3208 M12.8981,4272.3208 L12.8981,4332.3208 M12.8981,4422.3208 L12.8981,4482.3208 M12.8981,4572.3208 L12.8981,4632.3208 M12.8981,4722.3208 L12.8981,4782.3208 M12.8981,4872.3208 L12.8981,4932.3208 M12.8981,5022.3208 L12.8981,5027.3208 " style="stroke:#000000;stroke-width:0.2;"/>
    </g>
</svg>
