<?xml version="1.0" encoding="UTF-8"?>
<!-- 2026-03-18 12:25:47 Generated by QCAD 3.32.6 SVG Exporter -->
<svg width="6000mm" height="6000mm" viewBox="-37.1019 -6077.3208 6000 6000" version="1.1" xmlns="http://www.w3.org/2000/svg" style="stroke-linecap:round;stroke-linejoin:round;fill:none">
    <g transform="scale(1,-1)">
        <!-- Line -->
        <path d="M-37.1019,6077.3208 L37.8981,6077.3208 " style="stroke:#000000;stroke-width:0.3;"/>
        <!-- Line -->
        <path d="M37.8981,6077.3208 L37.8981,6002.3208 " style="stroke:#000000;stroke-width:0.3;"/>
        <!-- Line -->
        <path d="M37.8981,6002.3208 L-37.1019,6002.3208 " style="stroke:#000000;stroke-width:0.3;"/>
        <!-- Line -->
        <path d="M-37.1019,6002.3208 L-37.1019,6077.3208 " style="stroke:#000000;stroke-width:0.3;"/>
        <!-- Polyline -->
        <path d="M-37.1019,6077.3208 L37.8981,6077.3208 L37.8981,6002.3208 L-37.1019,6002.3208 Z" style="stroke:#000000;stroke-width:0.3;"/>
        <!-- Line -->
        <path d="M-37.1019,152.3208 L37.8981,152.3208 " style="stroke:#000000;stroke-width:0.3;"/>
        <!-- Line -->
        <path d="M37.8981,152.3208 L37.8981,77.3208 " style="stroke:#000000;stroke-width:0.3;"/>
        <!-- Line -->
        <path d="M37.8981,77.3208 L-37.1019,77.3208 " style="stroke:#000000;stroke-width:0.3;"/>
        <!-- Line -->
        <path d="M-37.1019,77.3208 L-37.1019,152.3208 " style="stroke:#000000;stroke-width:0.3;"/>
        <!-- Polyline -->
        <path d="M-37.1019,152.3208 L37.8981,152.3208 L37.8981,77.3208 L-37.1019,77.3208 Z" style="stroke:#000000;stroke-width:0.3;"/>
        <!-- Line -->
        <path d="M5962.8981,6077.3208 L5887.8981,6077.3208 " style="stroke:#000000;stroke-width:0.3;"/>
        <!-- Line -->
        <path d="M5887.8981,6077.3208 L5887.8981,6002.3208 " style="stroke:#000000;stroke-width:0.3;"/>
        <!-- Line -->
        <path d="M5887.8981,6002.3208 L5962.8981,6002.3208 " style="stroke:#000000;stroke-width:0.3;"/>
        <!-- Line -->
        <path d="M5962.8981,6002.3208 L5962.8981,6077.3208 " style="stroke:#000000;stroke-width:0.3;"/>
        <!-- Polyline -->
        <path d="M5962.8981,6077.3208 L5887.8981,6077.3208 L5887.8981,6002.3208 L5962.8981,6002.3208 Z" style="stroke:#000000;stroke-width:0.3;"/>
        <!-- Line -->
        <path d="M5962.8981,152.3208 L5887.8981,152.3208 " style="stroke:#000000;stroke-width:0.3;"/>
        <!-- Line -->
        <path d="M5887.8981,152.3208 L5887.8981,77.3208 " style="stroke:#000000;stroke-width:0.3;"/>
        <!-- Line -->
        <path d="M5887.8981,77.3208 L5962.8981,77.3208 " style="stroke:#000000;stroke-width:0.3;"/>
        <!-- Line -->
        <path d="M5962.8981,77.3208 L5962.8981,152.3208 " style="stroke:#000000;stroke-width:0.3;"/>
        <!-- Polyline -->
        <path d="M5962.8981,152.3208 L5887.8981,152.3208 L5887.8981,77.3208 L5962.8981,77.3208 Z" style="stroke:#000000;stroke-width:0.3;"/>
        <!-- Line -->
        <path d="M2962.8981,6077.3208 L2887.8981,6077.3208 " style="stroke:#000000;stroke-width:0.3;"/>
        <!-- Line -->
        <path d="M2887.8981,6077.3208 L2887.8981,6002.3208 " style="stroke:#000000;stroke-width:0.3;"/>
        <!-- Line -->
        <path d="M2887.8981,6002.3208 L2962.8981,6002.3208 " style="stroke:#000000;stroke-width:0.3;"/>
        <!-- Line -->
        <path d="M2962.8981,6002.3208 L2962.8981,6077.3208 " style="stroke:#000000;stroke-width:0.3;"/>
        <!-- Polyline -->
        <path d="M2962.8981,6077.3208 L2887.8981,6077.3208 L2887.8981,6002.3208 L2962.8981,6002.3208 Z" style="stroke:#000000;stroke-width:0.3;"/>
        <!-- Line -->
        <path d="M2962.8981,152.3208 L2887.8981,152.3208 " style="stroke:#000000;stroke-width:0.3;"/>
        <!-- Line -->
        <path d="M2887.8981,152.3208 L2887.8981,77.3208 " style="stroke:#000000;stroke-width:0.3;"/>
        <!-- Line -->
        <path d="M2887.8981,77.3208 L2962.8981,77.3208 " style="stroke:#000000;stroke-width:0.3;"/>
        <!-- Line -->
        <path d="M2962.8981,77.3208 L2962.8981,152.3208 " style="stroke:#000000;stroke-width:0.3;"/>
        <!-- Polyline -->
        <path d="M2962.8981,152.3208 L2887.8981,152.3208 L2887.8981,77.3208 L2962.8981,77.3208 Z" style="stroke:#000000;stroke-width:0.3;"/>
        <!-- Line -->
        <path d="M-37.1019,3152.3208 L37.8981,3152.3208 " style="stroke:#000000;stroke-width:0.3;"/>
        <!-- Line -->
        <path d="M37.8981,3152.3208 L37.8981,3077.3208 " style="stroke:#000000;stroke-width:0.3;"/>
        <!-- Line -->
        <path d="M37.8981,3077.3208 L-37.1019,3077.3208 " style="stroke:#000000;stroke-width:0.3;"/>
        <!-- Line -->
        <path d="M-37.1019,3077.3208 L-37.1019,3152.3208 " style="stroke:#000000;stroke-width:0.3;"/>
        <!-- Polyline -->
        <path d="M-37.1019,3152.3208 L37.8981,3152.3208 L37.8981,3077.3208 L-37.1019,3077.3208 Z" style="stroke:#000000;stroke-width:0.3;"/>
        <!-- Line -->
        <path d="M5962.8981,3152.3208 L5887.8981,3152.3208 " style="stroke:#000000;stroke-width:0.3;"/>
        <!-- Line -->
        <path d="M5887.8981,3152.3208 L5887.8981,3077.3208 " style="stroke:#000000;stroke-width:0.3;"/>
        <!-- Line -->
        <path d="M5887.8981,3077.3208 L5962.8981,3077.3208 " style="stroke:#000000;stroke-width:0.3;"/>
        <!-- Line -->
        <path d="M5962.8981,3077.3208 L5962.8981,3152.3208 " style="stroke:#000000;stroke-width:0.3;"/>
        <!-- Polyline -->
        <path d="M5962.8981,3152.3208 L5887.8981,3152.3208 L5887.8981,3077.3208 L5962.8981,3077.3208 Z" style="stroke:#000000;stroke-width:0.3;"/>
        <!-- Polyline -->
        <path d="M-37.1019,6077.3208 L5962.8981,6077.3208 L5962.8981,77.3208 L-37.1019,77.3208 Z" style="stroke:#000000;stroke-width:0.2;"/>
        <!-- Polyline -->
        <path d="M5887.8981,152.3208 L5857.8981,152.3208 M5767.8981,152.3208 L5707.8981,152.3208 M5617.8981,152.3208 L5557.8981,152.3208 M5467.8981,152.3208 L5407.8981,152.3208 M5317.8981,152.3208 L5257.8981,152.3208 M5167.8981,152.3208 L5107.8981,152.3208 M5017.8981,152.3208 L4957.8981,152.3208 M4867.8981,152.3208 L4807.8981,152.3208 M4717.8981,152.3208 L4657.8981,152.3208 M4567.8981,152.3208 L4507.8981,152.3208 M4417.8981,152.3208 L4357.8981,152.3208 M4267.8981,152.3208 L4207.8981,152.3208 M4117.8981,152.3208 L4057.8981,152.3208 M3967.8981,152.3208 L3907.8981,152.3208 M3817.8981,152.3208 L3757.8981,152.3208 M3667.8981,152.3208 L3607.8981,152.3208 M3517.8981,152.3208 L3457.8981,152.3208 M3367.8981,152.3208 L3307.8981,152.3208 M3217.8981,152.3208 L3157.8981,152.3208 M3067.8981,152.3208 L3007.8981,152.3208 M2917.8981,152.3208 L2857.8981,152.3208 M2767.8981,152.3208 L2707.8981,152.3208 M2617.8981,152.3208 L2557.8981,152.3208 M2467.8981,152.3208 L2407.8981,152.3208 M2317.8981,152.3208 L2257.8981,152.3208 M2167.8981,152.3208 L2107.8981,152.3208 M2017.8981,152.3208 L1957.8981,152.3208 M1867.8981,152.3208 L1807.8981,152.3208 M1717.8981,152.3208 L1657.8981,152.3208 M1567.8981,152.3208 L1507.8981,152.3208 M1417.8981,152.3208 L1357.8981,152.3208 M1267.8981,152.3208 L1207.8981,152.3208 M1117.8981,152.3208 L1057.8981,152.3208 M967.8981,152.3208 L907.8981,152.3208 M817.8981,152.3208 L757.8981,152.3208 M667.8981,152.3208 L607.8981,152.3208 M517.8981,152.3208 L457.8981,152.3208 M367.8981,152.3208 L307.8981,152.3208 M217.8981,152.3208 L157.8981,152.3208 M67.8981,152.3208 L37.8981,152.3208 L37.8981,182.3208 M37.8981,272.3208 L37.8981,332.3208 M37.8981,422.3208 L37.8981,482.3208 M37.8981,572.3208 L37.8981,632.3208 M37.8981,722.3208 L37.8981,782.3208 M37.8981,872.3208 L37.8981,932.3208 M37.8981,1022.3208 L37.8981,1082.3208 M37.8981,1172.3208 L37.8981,1232.3208 M37.8981,1322.3208 L37.8981,1382.3208 M37.8981,1472.3208 L37.8981,1532.3208 M37.8981,1622.3208 L37.8981,1682.3208 M37.8981,1772.3208 L37.8981,1832.3208 M37.8981,1922.3208 L37.8981,1982.3208 M37.8981,2072.3208 L37.8981,2132.3208 M37.8981,2222.3208 L37.8981,2282.3208 M37.8981,2372.3208 L37.8981,2432.3208 M37.8981,2522.3208 L37.8981,2582.3208 M37.8981,2672.3208 L37.8981,2732.3208 M37.8981,2822.3208 L37.8981,2882.3208 M37.8981,2972.3208 L37.8981,3032.3208 M37.8981,3122.3208 L37.8981,3182.3208 M37.8981,3272.3208 L37.8981,3332.3208 M37.8981,3422.3208 L37.8981,3482.3208 M37.8981,3572.3208 L37.8981,3632.3208 M37.8981,3722.3208 L37.8981,3782.3208 M37.8981,3872.3208 L37.8981,3932.3208 M37.8981,4022.3208 L37.8981,4082.3208 M37.8981,4172.3208 L37.8981,4232.3208 M37.8981,4322.3208 L37.8981,4382.3208 M37.8981,4472.3208 L37.8981,4532.3208 M37.8981,4622.3208 L37.8981,4682.3208 M37.8981,4772.3208 L37.8981,4832.3208 M37.8981,4922.3208 L37.8981,4982.3208 M37.8981,5072.3208 L37.8981,5132.3208 M37.8981,5222.3208 L37.8981,5282.3208 M37.8981,5372.3208 L37.8981,5432.3208 M37.8981,5522.3208 L37.8981,5582.3208 M37.8981,5672.3208 L37.8981,5732.3208 M37.8981,5822.3208 L37.8981,5882.3208 M37.8981,5972.3208 L37.8981,6002.3208 L67.8981,6002.3208 M157.8981,6002.3208 L217.8981,6002.3208 M307.8981,6002.3208 L367.8981,6002.3208 M457.8981,6002.3208 L517.8981,6002.3208 M607.8981,6002.3208 L667.8981,6002.3208 M757.8981,6002.3208 L817.8981,6002.3208 M907.8981,6002.3208 L967.8981,6002.3208 M1057.8981,6002.3208 L1117.8981,6002.3208 M1207.8981,6002.3208 L1267.8981,6002.3208 M1357.8981,6002.3208 L1417.8981,6002.3208 M1507.8981,6002.3208 L1567.8981,6002.3208 M1657.8981,6002.3208 L1717.8981,6002.3208 M1807.8981,6002.3208 L1867.8981,6002.3208 M1957.8981,6002.3208 L2017.8981,6002.3208 M2107.8981,6002.3208 L2167.8981,6002.3208 M2257.8981,6002.3208 L2317.8981,6002.3208 M2407.8981,6002.3208 L2467.8981,6002.3208 M2557.8981,6002.3208 L2617.8981,6002.3208 M2707.8981,6002.3208 L2767.8981,6002.3208 M2857.8981,6002.3208 L2917.8981,6002.3208 M3007.8981,6002.3208 L3067.8981,6002.3208 M3157.8981,6002.3208 L3217.8981,6002.3208 M3307.8981,6002.3208 L3367.8981,6002.3208 M3457.8981,6002.3208 L3517.8981,6002.3208 M3607.8981,6002.3208 L3667.8981,6002.3208 M3757.8981,6002.3208 L3817.8981,6002.3208 M3907.8981,6002.3208 L3967.8981,6002.3208 M4057.8981,6002.3208 L4117.8981,6002.3208 M4207.8981,6002.3208 L4267.8981,6002.3208 M4357.8981,6002.3208 L4417.8981,6002.3208 M4507.8981,6002.3208 L4567.8981,6002.3208 M4657.8981,6002.3208 L4717.8981,6002.3208 M4807.8981,6002.3208 L4867.8981,6002.3208 M4957.8981,6002.3208 L5017.8981,6002.3208 M5107.8981,6002.3208 L5167.8981,6002.3208 M5257.8981,6002.3208 L5317.8981,6002.3208 M5407.8981,6002.3208 L5467.8981,6002.3208 M5557.8981,6002.3208 L5617.8981,6002.3208 M5707.8981,6002.3208 L5767.8981,6002.3208 M5857.8981,6002.3208 L5887.8981,6002.3208 L5887.8981,5972.3208 M5887.8981,5882.3208 L5887.8981,5822.3208 M5887.8981,5732.3208 L5887.8981,5672.3208 M5887.8981,5582.3208 L5887.8981,5522.3208 M5887.8981,5432.3208 L5887.8981,5372.3208 M5887.8981,5282.3208 L5887.8981,5222.3208 M5887.8981,5132.3208 L5887.8981,5072.3208 M5887.8981,4982.3208 L5887.8981,4922.3208 M5887.8981,4832.3208 L5887.8981,4772.3208 M5887.8981,4682.3208 L5887.8981,4622.3208 M5887.8981,4532.3208 L5887.8981,4472.3208 M5887.8981,4382.3208 L5887.8981,4322.3208 M5887.8981,4232.3208 L5887.8981,4172.3208 M5887.8981,4082.3208 L5887.8981,4022.3208 M5887.8981,3932.3208 L5887.8981,3872.3208 M5887.8981,3782.3208 L5887.8981,3722.3208 M5887.8981,3632.3208 L5887.8981,3572.3208 M5887.8981,3482.3208 L5887.8981,3422.3208 M5887.8981,3332.3208 L5887.8981,3272.3208 M5887.8981,3182.3208 L5887.8981,3122.3208 M5887.8981,3032.3208 L5887.8981,2972.3208 M5887.8981,2882.3208 L5887.8981,2822.3208 M5887.8981,2732.3208 L5887.8981,2672.3208 M5887.8981,2582.3208 L5887.8981,2522.3208 M5887.8981,2432.3208 L5887.8981,2372.3208 M5887.8981,2282.3208 L5887.8981,2222.3208 M5887.8981,2132.3208 L5887.8981,2072.3208 M5887.8981,1982.3208 L5887.8981,1922.3208 M5887.8981,1832.3208 L5887.8981,1772.3208 M5887.8981,1682.3208 L5887.8981,1622.3208 M5887.8981,1532.3208 L5887.8981,1472.3208 M5887.8981,1382.3208 L5887.8981,1322.3208 M5887.8981,1232.3208 L5887.8981,1172.3208 M5887.8981,1082.3208 L5887.8981,1022.3208 M5887.8981,932.3208 L5887.8981,872.3208 M5887.8981,782.3208 L5887.8981,722.3208 M5887.8981,632.3208 L5887.8981,572.3208 M5887.8981,482.3208 L5887.8981,422.3208 M5887.8981,332.3208 L5887.8981,272.3208 M5887.8981,182.3208 L5887.8981,152.3208 " style="stroke:#000000;stroke-width:0.2;"/>
    </g>
</svg>
