<?xml version="1.0" encoding="UTF-8"?>
<!-- 2026-03-18 12:28:42 Generated by QCAD 3.32.6 SVG Exporter -->
<svg width="9150mm" height="9150mm" viewBox="-37.1019 -9077.3208 9150 9150" version="1.1" xmlns="http://www.w3.org/2000/svg" style="stroke-linecap:round;stroke-linejoin:round;fill:none">
    <g transform="scale(1,-1)">
        <!-- Line -->
        <path d="M-37.1019,9077.3208 L112.8981,9077.3208 " style="stroke:#000000;stroke-width:0.3;"/>
        <!-- Line -->
        <path d="M112.8981,9077.3208 L112.8981,8927.3208 " style="stroke:#000000;stroke-width:0.3;"/>
        <!-- Line -->
        <path d="M112.8981,8927.3208 L-37.1019,8927.3208 " style="stroke:#000000;stroke-width:0.3;"/>
        <!-- Line -->
        <path d="M-37.1019,8927.3208 L-37.1019,9077.3208 " style="stroke:#000000;stroke-width:0.3;"/>
        <!-- Polyline -->
        <path d="M-37.1019,9077.3208 L112.8981,9077.3208 L112.8981,8927.3208 L-37.1019,8927.3208 Z" style="stroke:#000000;stroke-width:0.3;"/>
        <!-- Line -->
        <path d="M-37.1019,77.3208 L112.8981,77.3208 " style="stroke:#000000;stroke-width:0.3;"/>
        <!-- Line -->
        <path d="M112.8981,77.3208 L112.8981,-72.6792 " style="stroke:#000000;stroke-width:0.3;"/>
        <!-- Line -->
        <path d="M112.8981,-72.6792 L-37.1019,-72.6792 " style="stroke:#000000;stroke-width:0.3;"/>
        <!-- Line -->
        <path d="M-37.1019,-72.6792 L-37.1019,77.3208 " style="stroke:#000000;stroke-width:0.3;"/>
        <!-- Polyline -->
        <path d="M-37.1019,77.3208 L112.8981,77.3208 L112.8981,-72.6792 L-37.1019,-72.6792 Z" style="stroke:#000000;stroke-width:0.3;"/>
        <!-- Line -->
        <path d="M-37.1019,4514.8208 L112.8981,4514.8208 " style="stroke:#000000;stroke-width:0.3;"/>
        <!-- Line -->
        <path d="M112.8981,4514.8208 L112.8981,4414.8208 " style="stroke:#000000;stroke-width:0.3;"/>
        <!-- Line -->
        <path d="M112.8981,4414.8208 L-37.1019,4414.8208 " style="stroke:#000000;stroke-width:0.3;"/>
        <!-- Line -->
        <path d="M-37.1019,4414.8208 L-37.1019,4514.8208 " style="stroke:#000000;stroke-width:0.3;"/>
        <!-- Polyline -->
        <path d="M-37.1019,4514.8208 L112.8981,4514.8208 L112.8981,4414.8208 L-37.1019,4414.8208 Z" style="stroke:#000000;stroke-width:0.3;"/>
        <!-- Line -->
        <path d="M4487.8981,9077.3208 L4587.8981,9077.3208 " style="stroke:#000000;stroke-width:0.3;"/>
        <!-- Line -->
        <path d="M4587.8981,9077.3208 L4587.8981,8927.3208 " style="stroke:#000000;stroke-width:0.3;"/>
        <!-- Line -->
        <path d="M4587.8981,8927.3208 L4487.8981,8927.3208 " style="stroke:#000000;stroke-width:0.3;"/>
        <!-- Line -->
        <path d="M4487.8981,8927.3208 L4487.8981,9077.3208 " style="stroke:#000000;stroke-width:0.3;"/>
        <!-- Polyline -->
        <path d="M4487.8981,9077.3208 L4587.8981,9077.3208 L4587.8981,8927.3208 L4487.8981,8927.3208 Z" style="stroke:#000000;stroke-width:0.3;"/>
        <!-- Line -->
        <path d="M4487.8981,77.3208 L4587.8981,77.3208 " style="stroke:#000000;stroke-width:0.3;"/>
        <!-- Line -->
        <path d="M4587.8981,77.3208 L4587.8981,-72.6792 " style="stroke:#000000;stroke-width:0.3;"/>
        <!-- Line -->
        <path d="M4587.8981,-72.6792 L4487.8981,-72.6792 " style="stroke:#000000;stroke-width:0.3;"/>
        <!-- Line -->
        <path d="M4487.8981,-72.6792 L4487.8981,77.3208 " style="stroke:#000000;stroke-width:0.3;"/>
        <!-- Polyline -->
        <path d="M4487.8981,77.3208 L4587.8981,77.3208 L4587.8981,-72.6792 L4487.8981,-72.6792 Z" style="stroke:#000000;stroke-width:0.3;"/>
        <!-- Line -->
        <path d="M8987.8981,9077.3208 L9087.8981,9077.3208 " style="stroke:#000000;stroke-width:0.3;"/>
        <!-- Line -->
        <path d="M9087.8981,9077.3208 L9087.8981,8927.3208 " style="stroke:#000000;stroke-width:0.3;"/>
        <!-- Line -->
        <path d="M9087.8981,8927.3208 L8987.8981,8927.3208 " style="stroke:#000000;stroke-width:0.3;"/>
        <!-- Line -->
        <path d="M8987.8981,8927.3208 L8987.8981,9077.3208 " style="stroke:#000000;stroke-width:0.3;"/>
        <!-- Polyline -->
        <path d="M8987.8981,9077.3208 L9087.8981,9077.3208 L9087.8981,8927.3208 L8987.8981,8927.3208 Z" style="stroke:#000000;stroke-width:0.3;"/>
        <!-- Line -->
        <path d="M8987.8981,77.3208 L9087.8981,77.3208 " style="stroke:#000000;stroke-width:0.3;"/>
        <!-- Line -->
        <path d="M9087.8981,77.3208 L9087.8981,-72.6792 " style="stroke:#000000;stroke-width:0.3;"/>
        <!-- Line -->
        <path d="M9087.8981,-72.6792 L8987.8981,-72.6792 " style="stroke:#000000;stroke-width:0.3;"/>
        <!-- Line -->
        <path d="M8987.8981,-72.6792 L8987.8981,77.3208 " style="stroke:#000000;stroke-width:0.3;"/>
        <!-- Polyline -->
        <path d="M8987.8981,77.3208 L9087.8981,77.3208 L9087.8981,-72.6792 L8987.8981,-72.6792 Z" style="stroke:#000000;stroke-width:0.3;"/>
        <!-- Line -->
        <path d="M8987.8981,9077.3208 L9087.8981,9077.3208 " style="stroke:#000000;stroke-width:0.3;"/>
        <!-- Line -->
        <path d="M9087.8981,9077.3208 L9087.8981,8927.3208 " style="stroke:#000000;stroke-width:0.3;"/>
        <!-- Line -->
        <path d="M9087.8981,8927.3208 L8987.8981,8927.3208 " style="stroke:#000000;stroke-width:0.3;"/>
        <!-- Line -->
        <path d="M8987.8981,8927.3208 L8987.8981,9077.3208 " style="stroke:#000000;stroke-width:0.3;"/>
        <!-- Line -->
        <path d="M8987.8981,77.3208 L9087.8981,77.3208 " style="stroke:#000000;stroke-width:0.3;"/>
        <!-- Line -->
        <path d="M9087.8981,77.3208 L9087.8981,-72.6792 " style="stroke:#000000;stroke-width:0.3;"/>
        <!-- Line -->
        <path d="M9087.8981,-72.6792 L8987.8981,-72.6792 " style="stroke:#000000;stroke-width:0.3;"/>
        <!-- Line -->
        <path d="M8987.8981,-72.6792 L8987.8981,77.3208 " style="stroke:#000000;stroke-width:0.3;"/>
        <!-- Line -->
        <path d="M9112.8981,9077.3208 L8962.8981,9077.3208 " style="stroke:#000000;stroke-width:0.3;"/>
        <!-- Line -->
        <path d="M8962.8981,9077.3208 L8962.8981,8927.3208 " style="stroke:#000000;stroke-width:0.3;"/>
        <!-- Line -->
        <path d="M8962.8981,8927.3208 L9112.8981,8927.3208 " style="stroke:#000000;stroke-width:0.3;"/>
        <!-- Line -->
        <path d="M9112.8981,8927.3208 L9112.8981,9077.3208 " style="stroke:#000000;stroke-width:0.3;"/>
        <!-- Polyline -->
        <path d="M9112.8981,9077.3208 L8962.8981,9077.3208 L8962.8981,8927.3208 L9112.8981,8927.3208 Z" style="stroke:#000000;stroke-width:0.3;"/>
        <!-- Line -->
        <path d="M9112.8981,77.3208 L8962.8981,77.3208 " style="stroke:#000000;stroke-width:0.3;"/>
        <!-- Line -->
        <path d="M8962.8981,77.3208 L8962.8981,-72.6792 " style="stroke:#000000;stroke-width:0.3;"/>
        <!-- Line -->
        <path d="M8962.8981,-72.6792 L9112.8981,-72.6792 " style="stroke:#000000;stroke-width:0.3;"/>
        <!-- Line -->
        <path d="M9112.8981,-72.6792 L9112.8981,77.3208 " style="stroke:#000000;stroke-width:0.3;"/>
        <!-- Polyline -->
        <path d="M9112.8981,77.3208 L8962.8981,77.3208 L8962.8981,-72.6792 L9112.8981,-72.6792 Z" style="stroke:#000000;stroke-width:0.3;"/>
        <!-- Line -->
        <path d="M9112.8981,4514.8208 L8962.8981,4514.8208 " style="stroke:#000000;stroke-width:0.3;"/>
        <!-- Line -->
        <path d="M8962.8981,4514.8208 L8962.8981,4414.8208 " style="stroke:#000000;stroke-width:0.3;"/>
        <!-- Line -->
        <path d="M8962.8981,4414.8208 L9112.8981,4414.8208 " style="stroke:#000000;stroke-width:0.3;"/>
        <!-- Line -->
        <path d="M9112.8981,4414.8208 L9112.8981,4514.8208 " style="stroke:#000000;stroke-width:0.3;"/>
        <!-- Polyline -->
        <path d="M9112.8981,4514.8208 L8962.8981,4514.8208 L8962.8981,4414.8208 L9112.8981,4414.8208 Z" style="stroke:#000000;stroke-width:0.3;"/>
        <!-- Polyline -->
        <path d="M112.8981,8927.3208 L8962.8981,8927.3208 L8962.8981,77.3208 L112.8981,77.3208 Z" style="stroke:#000000;stroke-width:0.2;"/>
        <!-- Polyline -->
        <path d="M9112.8981,-72.6792 L-37.1019,-72.6792 L-37.1019,9077.3208 L9112.8981,9077.3208 Z" style="stroke:#000000;stroke-width:0.2;"/>
    </g>
</svg>
