<svg width="32" height="32" viewBox="0 0 32 32" fill="none" xmlns="http://www.w3.org/2000/svg">
<g clip-path="url(#clip0_66_170)">
<path d="M23.7498 16C23.751 17.8238 23.1085 19.5895 21.9356 20.986C20.7626 22.3826 19.1344 23.3204 17.3378 23.6342C15.5413 23.9481 13.6916 23.6178 12.1146 22.7016C10.5377 21.7854 9.33463 20.3421 8.71747 18.6259L4.28467 22.1721C5.66302 24.7923 7.87954 26.875 10.5803 28.0878C13.2811 29.3007 16.3103 29.5736 19.1844 28.863C22.0584 28.1525 24.6115 26.4994 26.436 24.1678C28.2605 21.8363 29.2511 18.9606 29.2498 16" fill="#00AC47"/>
<path d="M23.7501 16C23.7491 17.233 23.4535 18.4479 22.8879 19.5435C22.3223 20.6392 21.5031 21.5838 20.4985 22.2987L24.8809 25.8046C26.2551 24.5674 27.3541 23.0553 28.1068 21.3663C28.8594 19.6773 29.249 17.8491 29.2501 16" fill="#4285F4"/>
<path d="M8.25 16.0002C8.25192 15.1044 8.41019 14.2157 8.7177 13.3743L4.2849 9.82812C3.27698 11.7293 2.75 13.8484 2.75 16.0002C2.75 18.1521 3.27698 20.2711 4.2849 22.1723L8.7177 18.6261C8.41019 17.7847 8.25192 16.8961 8.25 16.0002Z" fill="#FFBA00"/>
<path d="M15.9998 8.25001C17.6396 8.25047 19.2365 8.77451 20.5578 9.74581L24.6178 5.95651C23.1106 4.65707 21.3295 3.71477 19.4073 3.19993C17.4851 2.6851 15.4714 2.61101 13.5166 2.98322C11.5617 3.35542 9.71614 4.16429 8.11761 5.34948C6.51907 6.53466 5.20883 8.06555 4.28467 9.82791L8.71747 13.3741C9.25808 11.8755 10.2471 10.5797 11.55 9.66289C12.853 8.7461 14.4066 8.25278 15.9998 8.25001Z" fill="#EA4435"/>
<path d="M29.25 15V16L27 19.5H16.5V14H28.25C28.5152 14 28.7696 14.1054 28.9571 14.2929C29.1446 14.4804 29.25 14.7348 29.25 15Z" fill="#4285F4"/>
</g>
<defs>
<clipPath id="clip0_66_170">
<rect width="32" height="32" fill="white"/>
</clipPath>
</defs>
</svg>
