<svg width="384" height="192" viewBox="0 0 384 192" fill="none" xmlns="http://www.w3.org/2000/svg">
<path d="M8.10563 147V32.6H94.8256V55.96H36.4256V76.44H86.5056V98.52H36.4256V123H95.7856V147H8.10563Z" fill="white"/>
<g filter="url(#filter0_ddiii_599_141)">
<rect x="51" y="60" width="60" height="60" rx="30" fill="#0933BB"/>
<path d="M97.4686 80.5331C96.3928 78.6782 93.5536 78.2606 89.242 79.3153C87.2459 77.7718 84.8569 76.8191 82.3465 76.5654C79.8361 76.3117 77.3048 76.7672 75.0403 77.8801C72.7757 78.9929 70.8687 80.7186 69.5358 82.861C68.2029 85.0034 67.4976 87.4767 67.5 90C67.5001 90.5787 67.5368 91.1569 67.6097 91.7311C63.7158 95.7656 63.772 98.1562 64.5328 99.4668C65.25 100.71 66.7462 101.25 68.715 101.25C70.0819 101.222 71.4407 101.033 72.7636 100.687C74.7599 102.229 77.1486 103.181 79.6583 103.433C82.1681 103.686 84.6985 103.23 86.9622 102.117C89.2258 101.004 91.132 99.2787 92.4645 97.1368C93.7969 94.995 94.5021 92.5224 94.5 90C94.5002 89.424 94.4641 88.8487 94.3917 88.2773C96.1495 86.4492 97.3195 84.7125 97.7175 83.2261C97.9917 82.1967 97.9087 81.2911 97.4686 80.5331ZM81 78.75C83.548 78.7526 86.0199 79.6189 88.0121 81.2076C90.0043 82.7962 91.3991 85.0133 91.9687 87.4968C89.5697 89.7553 86.3226 92.0714 83.2401 93.8432C79.3659 96.0665 76.005 97.4531 73.3247 98.2125C71.6738 96.6728 70.5248 94.6718 70.0271 92.4699C69.5294 90.2681 69.7062 87.9674 70.5343 85.8674C71.3625 83.7674 72.8037 81.9653 74.6703 80.6959C76.537 79.4264 78.7426 78.7484 81 78.75ZM66.479 98.3376C66.2737 97.9846 66.3876 97.3195 66.7912 96.5095C67.1903 95.7506 67.6759 95.0404 68.2383 94.3931C68.7957 96.0082 69.6546 97.5027 70.7695 98.7975C68.3437 99.2053 66.8306 98.9451 66.479 98.3376ZM81 101.25C79.1031 101.252 77.237 100.771 75.5775 99.8521C78.6235 98.7748 81.5626 97.4162 84.3567 95.7937C87.3914 94.0514 90.0773 92.1628 92.2415 90.2981C92.1614 93.2275 90.9423 96.0103 88.8432 98.0553C86.7441 100.1 83.9305 101.246 81 101.25ZM95.5434 82.6439C95.3043 83.5312 94.6729 84.5465 93.7673 85.6153C93.2113 83.9983 92.3523 82.502 91.2361 81.2067C93.2343 80.8762 95.085 80.9015 95.5251 81.6623C95.6517 81.8831 95.6587 82.2136 95.5434 82.6439Z" fill="#FDFDFF" stroke="#FDFDFF"/>
</g>
<path d="M140.528 100V31.36H192.56V45.376H157.52V57.664H187.568V70.912H157.52V85.6H193.136V100H140.528ZM207.983 100L190.991 50.848H207.119L213.839 73.024C215.279 77.92 216.527 82.912 216.527 82.912H216.719C216.719 82.912 217.967 77.92 219.407 73.024L226.223 50.848H241.871L224.879 100H207.983ZM265.572 101.44C249.348 101.44 239.364 90.208 239.364 75.328C239.364 60.64 249.636 49.408 264.612 49.408C271.62 49.408 277.188 51.712 281.412 55.552C287.268 60.928 290.148 69.472 290.052 79.456H254.724C255.684 86.08 259.332 90.208 265.764 90.208C269.892 90.208 272.58 88.384 273.924 85.312H289.188C288.132 89.728 285.252 93.952 280.932 96.928C276.804 99.808 271.812 101.44 265.572 101.44ZM254.82 70.144H274.212C273.636 64.288 269.988 60.544 264.9 60.544C258.948 60.544 255.876 64.288 254.82 70.144ZM293.371 100V50.848H308.443V57.568H308.731C312.379 52.288 317.083 49.408 323.899 49.408C334.651 49.408 340.987 57.088 340.987 68.032V100H325.339V71.2C325.339 66.016 322.747 62.464 317.659 62.464C312.475 62.464 309.019 66.784 309.019 72.832V100H293.371ZM364.751 100.576C355.631 100.576 349.103 97.6 349.103 87.04V60.64H342.575V50.848H349.103V35.296H364.367V50.848H373.295V60.64H364.367V83.68C364.367 87.52 366.479 88.48 369.839 88.48C371.183 88.48 372.719 88.384 373.295 88.384V99.808C371.951 100.192 368.975 100.576 364.751 100.576Z" fill="white"/>
<path d="M154.62 158.884C144.74 158.884 138.24 154.516 138.032 146.3H147.288C147.704 150.044 150.148 151.604 154.568 151.604C157.584 151.604 160.548 150.512 160.548 147.704C160.548 144.74 157.532 144.116 152.436 142.868C145.988 141.36 139.176 139.384 139.176 131.584C139.176 123.628 145.624 120.144 153.944 120.144C162.004 120.144 168.244 123.784 168.608 131.584H159.612C159.248 128.724 157.064 127.112 153.632 127.112C150.408 127.112 148.276 128.516 148.276 130.596C148.276 133.196 151.136 133.82 156.7 135.068C163.616 136.68 169.856 138.812 169.856 146.768C169.856 154.568 163.2 158.884 154.62 158.884ZM172.06 166.788V131.376H180.172V134.6H180.328C182.148 132.208 184.748 130.596 188.388 130.596C195.46 130.596 199.776 136.68 199.776 144.688C199.776 153.32 195.148 158.832 188.18 158.832C184.748 158.832 182.304 157.48 180.64 155.244H180.536V166.788H172.06ZM185.996 152.28C189.22 152.28 191.196 149.524 191.196 145C191.196 140.424 189.48 137.408 185.84 137.408C182.148 137.408 180.276 140.684 180.276 145C180.276 149.316 182.356 152.28 185.996 152.28ZM209.442 158.676C204.138 158.676 200.342 155.816 200.342 150.564C200.342 144.688 205.022 142.92 210.534 142.192C215.526 141.568 217.294 141.048 217.294 139.228C217.294 137.512 216.202 136.368 213.654 136.368C210.95 136.368 209.598 137.564 209.338 139.8H201.538C201.746 134.86 205.542 130.648 213.602 130.648C217.606 130.648 220.31 131.376 222.234 132.832C224.522 134.496 225.614 137.096 225.614 140.424V153.84C225.614 155.972 225.822 157.168 226.55 157.636V158H218.334C217.918 157.428 217.658 156.388 217.45 155.036H217.346C215.786 157.272 213.446 158.676 209.442 158.676ZM212.146 153.268C215.318 153.268 217.502 151.344 217.502 148.484V145.312C216.41 145.884 214.85 146.3 213.134 146.716C209.858 147.444 208.506 148.276 208.506 150.304C208.506 152.436 210.066 153.268 212.146 153.268ZM241.631 158.832C233.051 158.832 227.487 152.748 227.487 144.74C227.487 136.732 232.999 130.648 241.423 130.648C248.651 130.648 253.279 134.86 254.059 140.84H245.895C245.375 138.448 243.919 136.888 241.527 136.888C237.887 136.888 236.067 139.904 236.067 144.74C236.067 149.472 237.887 152.488 241.527 152.488C244.179 152.488 245.791 150.928 246.155 147.912H254.267C254.059 154.048 249.171 158.832 241.631 158.832ZM268.928 158.78C260.14 158.78 254.732 152.696 254.732 144.636C254.732 136.68 260.296 130.596 268.408 130.596C272.204 130.596 275.22 131.844 277.508 133.924C280.68 136.836 282.24 141.464 282.188 146.872H263.052C263.572 150.46 265.548 152.696 269.032 152.696C271.268 152.696 272.724 151.708 273.452 150.044H281.72C281.148 152.436 279.588 154.724 277.248 156.336C275.012 157.896 272.308 158.78 268.928 158.78ZM263.104 141.828H273.608C273.296 138.656 271.32 136.628 268.564 136.628C265.34 136.628 263.676 138.656 263.104 141.828ZM284.506 158V120.82H301.25C305.774 120.82 309.102 122.068 311.39 124.252C313.782 126.488 315.134 129.66 315.134 133.404C315.134 140.528 310.194 145.572 302.55 145.572H293.866V158H284.506ZM293.866 138.292H300.678C304.006 138.292 305.878 136.316 305.878 133.352C305.878 130.388 303.954 128.568 300.678 128.568H293.866V138.292ZM316.868 158V131.376H324.98V135.536H325.136C327.008 132.364 329.192 130.96 332.416 130.96C333.196 130.96 333.716 131.012 334.08 131.168V138.448H333.872C328.672 137.72 325.344 140.268 325.344 146.04V158H316.868ZM348.226 152.8C351.918 152.8 353.894 149.576 353.894 144.74C353.894 139.904 351.918 136.628 348.226 136.628C344.534 136.628 342.61 139.904 342.61 144.74C342.61 149.576 344.534 152.8 348.226 152.8ZM348.278 158.832C339.75 158.832 334.03 152.748 334.03 144.74C334.03 136.732 339.75 130.648 348.278 130.648C356.858 130.648 362.474 136.732 362.474 144.74C362.474 152.748 356.858 158.832 348.278 158.832ZM363.174 158V149.264H372.066V158H363.174Z" fill="#0933BB"/>
<defs>
<filter id="filter0_ddiii_599_141" x="47.25" y="56.25" width="67.5" height="71.25" filterUnits="userSpaceOnUse" color-interpolation-filters="sRGB">
<feFlood flood-opacity="0" result="BackgroundImageFix"/>
<feColorMatrix in="SourceAlpha" type="matrix" values="0 0 0 0 0 0 0 0 0 0 0 0 0 0 0 0 0 0 127 0" result="hardAlpha"/>
<feMorphology radius="1.25" operator="erode" in="SourceAlpha" result="effect1_dropShadow_599_141"/>
<feOffset dy="3.75"/>
<feGaussianBlur stdDeviation="2.5"/>
<feComposite in2="hardAlpha" operator="out"/>
<feColorMatrix type="matrix" values="0 0 0 0 1 0 0 0 0 1 0 0 0 0 1 0 0 0 0.141176 0"/>
<feBlend mode="normal" in2="BackgroundImageFix" result="effect1_dropShadow_599_141"/>
<feColorMatrix in="SourceAlpha" type="matrix" values="0 0 0 0 0 0 0 0 0 0 0 0 0 0 0 0 0 0 127 0" result="hardAlpha"/>
<feOffset dy="1.25"/>
<feGaussianBlur stdDeviation="0.625"/>
<feComposite in2="hardAlpha" operator="out"/>
<feColorMatrix type="matrix" values="0 0 0 0 1 0 0 0 0 1 0 0 0 0 1 0 0 0 0.0784314 0"/>
<feBlend mode="normal" in2="effect1_dropShadow_599_141" result="effect2_dropShadow_599_141"/>
<feBlend mode="normal" in="SourceGraphic" in2="effect2_dropShadow_599_141" result="shape"/>
<feColorMatrix in="SourceAlpha" type="matrix" values="0 0 0 0 0 0 0 0 0 0 0 0 0 0 0 0 0 0 127 0" result="hardAlpha"/>
<feOffset dy="-3.75"/>
<feGaussianBlur stdDeviation="1.875"/>
<feComposite in2="hardAlpha" operator="arithmetic" k2="-1" k3="1"/>
<feColorMatrix type="matrix" values="0 0 0 0 1 0 0 0 0 1 0 0 0 0 1 0 0 0 0.1 0"/>
<feBlend mode="normal" in2="shape" result="effect3_innerShadow_599_141"/>
<feColorMatrix in="SourceAlpha" type="matrix" values="0 0 0 0 0 0 0 0 0 0 0 0 0 0 0 0 0 0 127 0" result="hardAlpha"/>
<feOffset dy="3.75"/>
<feGaussianBlur stdDeviation="1.875"/>
<feComposite in2="hardAlpha" operator="arithmetic" k2="-1" k3="1"/>
<feColorMatrix type="matrix" values="0 0 0 0 1 0 0 0 0 1 0 0 0 0 1 0 0 0 0.1 0"/>
<feBlend mode="normal" in2="effect3_innerShadow_599_141" result="effect4_innerShadow_599_141"/>
<feColorMatrix in="SourceAlpha" type="matrix" values="0 0 0 0 0 0 0 0 0 0 0 0 0 0 0 0 0 0 127 0" result="hardAlpha"/>
<feMorphology radius="1.25" operator="erode" in="SourceAlpha" result="effect5_innerShadow_599_141"/>
<feOffset/>
<feComposite in2="hardAlpha" operator="arithmetic" k2="-1" k3="1"/>
<feColorMatrix type="matrix" values="0 0 0 0 1 0 0 0 0 1 0 0 0 0 1 0 0 0 0.2 0"/>
<feBlend mode="normal" in2="effect4_innerShadow_599_141" result="effect5_innerShadow_599_141"/>
</filter>
</defs>
</svg>
