<svg width="304" height="54" viewBox="0 0 304 54" fill="none" xmlns="http://www.w3.org/2000/svg">
<path d="M46.4581 14.3774C45.0237 11.9043 41.2381 11.3474 35.4893 12.7537C32.8279 10.6958 29.6426 9.42553 26.2954 9.08726C22.9481 8.74899 19.5731 9.35625 16.5537 10.8401C13.5343 12.3239 10.9916 14.6248 9.21441 17.4813C7.43722 20.3379 6.49679 23.6357 6.49996 26.9999C6.5002 27.7716 6.54904 28.5425 6.64621 29.3081C1.45434 34.6874 1.52934 37.8749 2.54371 39.6224C3.49996 41.2799 5.49496 41.9999 8.11996 41.9999C9.9425 41.9622 11.7543 41.7105 13.5181 41.2499C16.1799 43.3059 19.3647 44.5743 22.7111 44.9113C26.0575 45.2482 29.4313 44.6401 32.4495 43.1561C35.4677 41.6721 38.0094 39.3716 39.7859 36.5158C41.5625 33.66 42.5028 30.3633 42.5 26.9999C42.5003 26.232 42.4521 25.4649 42.3556 24.7031C44.6993 22.2656 46.2593 19.9499 46.79 17.9681C47.1556 16.5956 47.045 15.3881 46.4581 14.3774ZM24.5 11.9999C27.8974 12.0034 31.1932 13.1586 33.8495 15.2768C36.5057 17.3949 38.3654 20.351 39.125 23.6624C35.9262 26.6737 31.5968 29.7618 27.4868 32.1243C22.3212 35.0887 17.84 36.9374 14.2662 37.9499C12.0651 35.897 10.533 33.229 9.86945 30.2932C9.20588 27.3574 9.44154 24.2898 10.5458 21.4898C11.65 18.6898 13.5716 16.2871 16.0605 14.5945C18.5493 12.9019 21.4901 11.9978 24.5 11.9999ZM5.13871 38.1168C4.86496 37.6462 5.01684 36.7593 5.55496 35.6793C6.0871 34.6674 6.73453 33.7205 7.48434 32.8574C8.22759 35.0109 9.37286 37.0037 10.8593 38.7299C7.62496 39.2737 5.60746 38.9268 5.13871 38.1168ZM24.5 41.9999C21.9708 42.0025 19.4827 41.3611 17.27 40.1362C21.3314 38.6998 25.2502 36.8882 28.9756 34.7249C33.0218 32.4018 36.6031 29.8837 39.4887 27.3974C39.3818 31.3034 37.7564 35.0137 34.9576 37.7404C32.1589 40.467 28.4073 41.9951 24.5 41.9999ZM43.8912 17.1918C43.5725 18.3749 42.7306 19.7287 41.5231 21.1537C40.7818 18.9977 39.6363 17.0027 38.1481 15.2756C40.8125 14.8349 43.28 14.8687 43.8668 15.8831C44.0356 16.1774 44.045 16.6181 43.8912 17.1918Z" fill="#FDFDFF" stroke="#FDFDFF" stroke-width="2"/>
<path d="M56.7215 38V12.26H76.2335V17.516H63.0935V22.124H74.3615V27.092H63.0935V32.6H76.4495V38H56.7215ZM81.6571 38L75.2851 19.568H81.3331L83.8531 27.884C84.3931 29.72 84.8611 31.592 84.8611 31.592H84.9331C84.9331 31.592 85.4011 29.72 85.9411 27.884L88.4971 19.568H94.3651L87.9931 38H81.6571ZM102.893 38.54C96.8089 38.54 93.0649 34.328 93.0649 28.748C93.0649 23.24 96.9169 19.028 102.533 19.028C105.161 19.028 107.249 19.892 108.833 21.332C111.029 23.348 112.109 26.552 112.073 30.296H98.8249C99.1849 32.78 100.553 34.328 102.965 34.328C104.513 34.328 105.521 33.644 106.025 32.492H111.749C111.353 34.148 110.273 35.732 108.653 36.848C107.105 37.928 105.233 38.54 102.893 38.54ZM98.8609 26.804H106.133C105.917 24.608 104.549 23.204 102.641 23.204C100.409 23.204 99.2569 24.608 98.8609 26.804ZM112.957 38V19.568H118.609V22.088H118.717C120.085 20.108 121.849 19.028 124.405 19.028C128.437 19.028 130.813 21.908 130.813 26.012V38H124.945V27.2C124.945 25.256 123.973 23.924 122.065 23.924C120.121 23.924 118.825 25.544 118.825 27.812V38H112.957ZM139.365 38.216C135.945 38.216 133.497 37.1 133.497 33.14V23.24H131.049V19.568H133.497V13.736H139.221V19.568H142.569V23.24H139.221V31.88C139.221 33.32 140.013 33.68 141.273 33.68C141.777 33.68 142.353 33.644 142.569 33.644V37.928C142.065 38.072 140.949 38.216 139.365 38.216ZM154.218 38.612C147.378 38.612 142.878 35.588 142.734 29.9H149.142C149.43 32.492 151.122 33.572 154.182 33.572C156.27 33.572 158.322 32.816 158.322 30.872C158.322 28.82 156.234 28.388 152.706 27.524C148.242 26.48 143.526 25.112 143.526 19.712C143.526 14.204 147.99 11.792 153.75 11.792C159.33 11.792 163.65 14.312 163.902 19.712H157.674C157.422 17.732 155.91 16.616 153.534 16.616C151.302 16.616 149.826 17.588 149.826 19.028C149.826 20.828 151.806 21.26 155.658 22.124C160.446 23.24 164.766 24.716 164.766 30.224C164.766 35.624 160.158 38.612 154.218 38.612ZM165.932 44.084V19.568H171.548V21.8H171.656C172.916 20.144 174.716 19.028 177.236 19.028C182.132 19.028 185.12 23.24 185.12 28.784C185.12 34.76 181.916 38.576 177.092 38.576C174.716 38.576 173.024 37.64 171.872 36.092H171.8V44.084H165.932ZM175.58 34.04C177.812 34.04 179.18 32.132 179.18 29C179.18 25.832 177.992 23.744 175.472 23.744C172.916 23.744 171.62 26.012 171.62 29C171.62 31.988 173.06 34.04 175.58 34.04ZM191.452 38.468C187.78 38.468 185.152 36.488 185.152 32.852C185.152 28.784 188.392 27.56 192.208 27.056C195.664 26.624 196.888 26.264 196.888 25.004C196.888 23.816 196.132 23.024 194.368 23.024C192.496 23.024 191.56 23.852 191.38 25.4H185.98C186.124 21.98 188.752 19.064 194.332 19.064C197.104 19.064 198.976 19.568 200.308 20.576C201.892 21.728 202.648 23.528 202.648 25.832V35.12C202.648 36.596 202.792 37.424 203.296 37.748V38H197.608C197.32 37.604 197.14 36.884 196.996 35.948H196.924C195.844 37.496 194.224 38.468 191.452 38.468ZM193.324 34.724C195.52 34.724 197.032 33.392 197.032 31.412V29.216C196.276 29.612 195.196 29.9 194.008 30.188C191.74 30.692 190.804 31.268 190.804 32.672C190.804 34.148 191.884 34.724 193.324 34.724ZM213.377 38.576C207.437 38.576 203.585 34.364 203.585 28.82C203.585 23.276 207.401 19.064 213.233 19.064C218.237 19.064 221.441 21.98 221.981 26.12H216.329C215.969 24.464 214.961 23.384 213.305 23.384C210.785 23.384 209.525 25.472 209.525 28.82C209.525 32.096 210.785 34.184 213.305 34.184C215.141 34.184 216.257 33.104 216.509 31.016H222.125C221.981 35.264 218.597 38.576 213.377 38.576ZM231.915 38.54C225.831 38.54 222.087 34.328 222.087 28.748C222.087 23.24 225.939 19.028 231.555 19.028C234.183 19.028 236.271 19.892 237.855 21.332C240.051 23.348 241.131 26.552 241.095 30.296H227.847C228.207 32.78 229.575 34.328 231.987 34.328C233.535 34.328 234.543 33.644 235.047 32.492H240.771C240.375 34.148 239.295 35.732 237.675 36.848C236.127 37.928 234.255 38.54 231.915 38.54ZM227.883 26.804H235.155C234.939 24.608 233.571 23.204 231.663 23.204C229.431 23.204 228.279 24.608 227.883 26.804ZM242.339 38V12.26H253.931C257.063 12.26 259.367 13.124 260.951 14.636C262.607 16.184 263.543 18.38 263.543 20.972C263.543 25.904 260.123 29.396 254.831 29.396H248.819V38H242.339ZM248.819 24.356H253.535C255.839 24.356 257.135 22.988 257.135 20.936C257.135 18.884 255.803 17.624 253.535 17.624H248.819V24.356ZM264.384 38V19.568H270V22.448H270.108C271.404 20.252 272.916 19.28 275.148 19.28C275.688 19.28 276.048 19.316 276.3 19.424V24.464H276.156C272.556 23.96 270.252 25.724 270.252 29.72V38H264.384ZM285.734 34.4C288.29 34.4 289.658 32.168 289.658 28.82C289.658 25.472 288.29 23.204 285.734 23.204C283.178 23.204 281.846 25.472 281.846 28.82C281.846 32.168 283.178 34.4 285.734 34.4ZM285.77 38.576C279.866 38.576 275.906 34.364 275.906 28.82C275.906 23.276 279.866 19.064 285.77 19.064C291.71 19.064 295.598 23.276 295.598 28.82C295.598 34.364 291.71 38.576 285.77 38.576ZM295.722 38V31.952H301.878V38H295.722Z" fill="#FDFDFF"/>
</svg>
