<svg width="794" height="1123" viewBox="0 0 794 1123" fill="none" xmlns="http://www.w3.org/2000/svg">
<g clip-path="url(#clip0_3150_398)">
<path d="M294.727 706.123V745.215" stroke="black" stroke-width="0.5"/>
<path d="M292.551 703.227C291.695 703.227 290.863 703.512 290.187 704.036C289.51 704.56 289.026 705.294 288.812 706.123" stroke="black" stroke-width="0.5"/>
<path d="M288.812 745.215C289.026 746.044 289.51 746.778 290.187 747.302C290.863 747.826 291.695 748.111 292.551 748.111" stroke="black" stroke-width="0.5"/>
<path d="M292.551 748.111H328.385V745.215" stroke="black" stroke-width="0.5"/>
<path d="M292.551 703.227H328.385V706.123" stroke="black" stroke-width="0.5"/>
<path d="M332.248 706.123V745.215H288.812V706.123H332.248Z" stroke="black" stroke-width="0.5"/>
<path d="M288.812 706.123V745.215H294.725V706.123H288.812ZM294.725 706.123V745.215H332.248V706.123H294.725Z" fill="#D6D6D6"/>
<path d="M288.812 745.215L292.551 748.111H328.385V745.215H288.812ZM292.551 703.227L288.812 706.123H328.385V703.227H292.551Z" fill="#848484"/>
<path d="M338.459 639.637L310.816 667.279" stroke="black" stroke-width="0.5"/>
<path d="M338.968 636.049C338.363 635.444 337.574 635.057 336.725 634.949C335.876 634.842 335.015 635.019 334.277 635.454" stroke="black" stroke-width="0.5"/>
<path d="M306.634 663.096C306.199 663.834 306.021 664.695 306.129 665.544C306.237 666.393 306.624 667.182 307.229 667.787" stroke="black" stroke-width="0.5"/>
<path d="M307.23 667.787L332.569 693.126L334.617 691.078" stroke="black" stroke-width="0.5"/>
<path d="M338.966 636.05L364.304 661.388L362.257 663.436" stroke="black" stroke-width="0.5"/>
<path d="M364.989 666.168L337.347 693.81L306.633 663.096L334.275 635.454L364.989 666.168Z" stroke="black" stroke-width="0.5"/>
<path d="M334.275 635.454L306.633 663.096L310.813 667.277L338.456 639.634L334.275 635.454ZM338.456 639.634L310.813 667.277L337.347 693.81L364.989 666.168L338.456 639.634Z" fill="#D6D6D6"/>
<path d="M306.634 663.096L307.229 667.787L332.568 693.126L334.616 691.079L306.634 663.096ZM338.967 636.05L334.276 635.454L362.258 663.436L364.306 661.389L338.967 636.05Z" fill="#848484"/>
<path d="M416.393 623.547H377.301" stroke="black" stroke-width="0.5"/>
<path d="M419.29 621.37C419.29 620.514 419.006 619.682 418.482 619.005C417.957 618.329 417.223 617.845 416.395 617.631" stroke="black" stroke-width="0.5"/>
<path d="M377.302 617.631C376.473 617.845 375.739 618.329 375.215 619.005C374.691 619.682 374.406 620.514 374.406 621.37" stroke="black" stroke-width="0.5"/>
<path d="M374.406 621.37V657.204H377.302" stroke="black" stroke-width="0.5"/>
<path d="M419.29 621.37V657.204H416.395" stroke="black" stroke-width="0.5"/>
<path d="M416.393 661.067H377.301V617.631H416.393V661.067Z" stroke="black" stroke-width="0.5"/>
<path d="M416.393 617.631H377.301V623.543H416.393V617.631ZM416.393 623.543H377.301V661.067H416.393V623.543Z" fill="#D6D6D6"/>
<path d="M377.302 617.631L374.406 621.37V657.204H377.302V617.631ZM419.29 621.37L416.394 617.631V657.204H419.29V621.37Z" fill="#848484"/>
<path d="M482.881 667.279L455.238 639.636" stroke="black" stroke-width="0.5"/>
<path d="M486.471 667.787C487.076 667.181 487.463 666.392 487.571 665.543C487.678 664.694 487.501 663.833 487.066 663.096" stroke="black" stroke-width="0.5"/>
<path d="M459.423 635.453C458.685 635.019 457.824 634.841 456.975 634.949C456.126 635.057 455.337 635.444 454.732 636.049" stroke="black" stroke-width="0.5"/>
<path d="M454.73 636.049L429.392 661.388L431.439 663.435" stroke="black" stroke-width="0.5"/>
<path d="M486.469 667.786L461.131 693.125L459.083 691.078" stroke="black" stroke-width="0.5"/>
<path d="M456.351 693.809L428.708 666.167L459.422 635.453L487.064 663.096L456.351 693.809Z" stroke="black" stroke-width="0.5"/>
<path d="M487.064 663.096L459.422 635.453L455.241 639.634L482.884 667.276L487.064 663.096ZM482.884 667.276L455.241 639.634L428.708 666.167L456.351 693.809L482.884 667.276Z" fill="#D6D6D6"/>
<path d="M459.423 635.453L454.732 636.049L429.393 661.388L431.44 663.436L459.423 635.453ZM486.469 667.787L487.065 663.096L459.083 691.078L461.13 693.126L486.469 667.787Z" fill="#848484"/>
<path d="M498.973 745.215V706.123" stroke="black" stroke-width="0.5"/>
<path d="M501.148 748.111C502.004 748.111 502.836 747.827 503.513 747.302C504.189 746.778 504.673 746.044 504.887 745.215" stroke="black" stroke-width="0.5"/>
<path d="M504.887 706.123C504.673 705.294 504.189 704.56 503.513 704.036C502.836 703.512 502.004 703.228 501.148 703.228" stroke="black" stroke-width="0.5"/>
<path d="M501.148 703.228H465.314V706.123" stroke="black" stroke-width="0.5"/>
<path d="M501.148 748.111H465.314V745.215" stroke="black" stroke-width="0.5"/>
<path d="M461.451 745.215V706.123H504.887V745.215H461.451Z" stroke="black" stroke-width="0.5"/>
<path d="M504.887 745.215V706.123H498.975V745.215H504.887ZM498.975 745.215V706.123H461.451V745.215H498.975Z" fill="#D6D6D6"/>
<path d="M504.887 706.123L501.148 703.228H465.314V706.123H504.887ZM501.148 748.111L504.887 745.215H465.314V748.111H501.148Z" fill="#848484"/>
<path d="M455.24 811.702L482.883 784.06" stroke="black" stroke-width="0.5"/>
<path d="M454.731 815.29C455.336 815.895 456.125 816.282 456.974 816.39C457.824 816.498 458.685 816.32 459.422 815.886" stroke="black" stroke-width="0.5"/>
<path d="M487.066 788.243C487.5 787.506 487.678 786.645 487.57 785.795C487.462 784.946 487.075 784.157 486.47 783.552" stroke="black" stroke-width="0.5"/>
<path d="M486.469 783.552L461.13 758.213L459.082 760.261" stroke="black" stroke-width="0.5"/>
<path d="M454.734 815.29L429.395 789.951L431.442 787.903" stroke="black" stroke-width="0.5"/>
<path d="M428.71 785.172L456.353 757.529L487.066 788.243L459.424 815.886L428.71 785.172Z" stroke="black" stroke-width="0.5"/>
<path d="M459.424 815.886L487.066 788.243L482.886 784.063L455.244 811.705L459.424 815.886ZM455.244 811.705L482.886 784.063L456.353 757.529L428.71 785.172L455.244 811.705Z" fill="#D6D6D6"/>
<path d="M487.066 788.243L486.47 783.552L461.131 758.213L459.083 760.261L487.066 788.243ZM454.732 815.289L459.423 815.885L431.441 787.903L429.393 789.951L454.732 815.289Z" fill="#848484"/>
<path d="M377.306 827.79H416.398" stroke="black" stroke-width="0.5"/>
<path d="M374.409 829.968C374.409 830.824 374.693 831.655 375.218 832.332C375.742 833.009 376.476 833.492 377.305 833.706" stroke="black" stroke-width="0.5"/>
<path d="M416.397 833.706C417.226 833.492 417.96 833.009 418.484 832.332C419.009 831.655 419.293 830.824 419.293 829.968" stroke="black" stroke-width="0.5"/>
<path d="M419.293 829.968V794.133H416.397" stroke="black" stroke-width="0.5"/>
<path d="M374.409 829.968V794.133H377.305" stroke="black" stroke-width="0.5"/>
<path d="M377.306 790.27H416.398V833.706H377.306V790.27Z" stroke="black" stroke-width="0.5"/>
<path d="M377.306 833.706H416.398V827.794H377.306V833.706ZM377.306 827.794H416.398V790.27H377.306V827.794Z" fill="#D6D6D6"/>
<path d="M416.397 833.706L419.293 829.968V794.133H416.397V833.706ZM374.409 829.968L377.305 833.706V794.133H374.409V829.968Z" fill="#848484"/>
<path d="M310.818 784.06L338.461 811.702" stroke="black" stroke-width="0.5"/>
<path d="M307.229 783.552C306.623 784.157 306.236 784.946 306.129 785.795C306.021 786.644 306.198 787.505 306.633 788.243" stroke="black" stroke-width="0.5"/>
<path d="M334.277 815.885C335.014 816.32 335.875 816.497 336.724 816.389C337.573 816.281 338.362 815.894 338.968 815.289" stroke="black" stroke-width="0.5"/>
<path d="M338.969 815.29L364.308 789.951L362.26 787.903" stroke="black" stroke-width="0.5"/>
<path d="M307.23 783.552L332.569 758.213L334.616 760.261" stroke="black" stroke-width="0.5"/>
<path d="M337.349 757.529L364.991 785.172L334.277 815.885L306.635 788.243L337.349 757.529Z" stroke="black" stroke-width="0.5"/>
<path d="M306.635 788.243L334.277 815.885L338.458 811.705L310.815 784.062L306.635 788.243ZM310.815 784.062L338.458 811.705L364.991 785.172L337.349 757.529L310.815 784.062Z" fill="#D6D6D6"/>
<path d="M334.277 815.885L338.968 815.289L364.306 789.95L362.259 787.903L334.277 815.885ZM307.23 783.552L306.634 788.243L334.617 760.26L332.569 758.213L307.23 783.552Z" fill="#848484"/>
<path d="M453.852 725.669C453.85 740.786 447.844 755.283 437.154 765.971C426.464 776.659 411.967 782.664 396.85 782.664C381.733 782.664 367.236 776.659 356.546 765.971C345.856 755.283 339.85 740.786 339.848 725.669C339.85 710.552 345.856 696.056 356.546 685.367C367.236 674.679 381.733 668.674 396.85 668.674C411.967 668.674 426.464 674.679 437.154 685.367C447.844 696.056 453.85 710.552 453.852 725.669Z" fill="#D6D6D6"/>
<path d="M453.852 725.669C453.85 710.552 447.844 696.056 437.154 685.367C426.464 674.679 411.967 668.674 396.85 668.674C381.733 668.674 367.236 674.679 356.546 685.367C345.856 696.056 339.85 710.552 339.848 725.669C339.85 740.786 345.856 755.283 356.546 765.971C367.236 776.659 381.733 782.664 396.85 782.664C411.967 782.664 426.464 776.659 437.154 765.971C447.844 755.283 453.85 740.786 453.852 725.669Z" stroke="black" stroke-width="0.5"/>
<path d="M583.539 706.123V745.215" stroke="black" stroke-width="0.5"/>
<path d="M581.363 703.227C580.507 703.227 579.676 703.512 578.999 704.036C578.322 704.56 577.839 705.294 577.625 706.123" stroke="black" stroke-width="0.5"/>
<path d="M577.625 745.215C577.839 746.044 578.322 746.778 578.999 747.302C579.676 747.826 580.507 748.111 581.363 748.111" stroke="black" stroke-width="0.5"/>
<path d="M581.363 748.111H617.198V745.215" stroke="black" stroke-width="0.5"/>
<path d="M581.363 703.227H617.198V706.123" stroke="black" stroke-width="0.5"/>
<path d="M621.061 706.123V745.215H577.625V706.123H621.061Z" stroke="black" stroke-width="0.5"/>
<path d="M577.625 706.123V745.215H583.537V706.123H577.625ZM583.537 706.123V745.215H621.061V706.123H583.537Z" fill="#D6D6D6"/>
<path d="M577.625 745.215L581.363 748.111H617.198V745.215H577.625ZM581.363 703.227L577.625 706.123H617.198V703.227H581.363Z" fill="#848484"/>
<path d="M627.271 639.637L599.629 667.279" stroke="black" stroke-width="0.5"/>
<path d="M627.781 636.049C627.176 635.444 626.386 635.057 625.537 634.949C624.688 634.842 623.827 635.019 623.09 635.454" stroke="black" stroke-width="0.5"/>
<path d="M595.446 663.096C595.011 663.833 594.834 664.694 594.942 665.543C595.05 666.393 595.437 667.182 596.042 667.787" stroke="black" stroke-width="0.5"/>
<path d="M596.043 667.787L621.382 693.126L623.429 691.078" stroke="black" stroke-width="0.5"/>
<path d="M627.778 636.05L653.117 661.388L651.069 663.436" stroke="black" stroke-width="0.5"/>
<path d="M653.801 666.168L626.159 693.81L595.445 663.096L623.088 635.454L653.801 666.168Z" stroke="black" stroke-width="0.5"/>
<path d="M623.088 635.454L595.445 663.096L599.626 667.277L627.268 639.634L623.088 635.454ZM627.268 639.634L599.626 667.277L626.159 693.81L653.801 666.168L627.268 639.634Z" fill="#D6D6D6"/>
<path d="M595.446 663.096L596.042 667.787L621.381 693.126L623.428 691.078L595.446 663.096ZM627.779 636.049L623.088 635.454L651.071 663.436L653.118 661.388L627.779 636.049Z" fill="#848484"/>
<path d="M705.206 623.547H666.113" stroke="black" stroke-width="0.5"/>
<path d="M708.103 621.37C708.103 620.514 707.818 619.682 707.294 619.005C706.77 618.329 706.036 617.845 705.207 617.631" stroke="black" stroke-width="0.5"/>
<path d="M666.114 617.631C665.286 617.845 664.552 618.329 664.027 619.005C663.503 619.682 663.219 620.514 663.219 621.37" stroke="black" stroke-width="0.5"/>
<path d="M663.219 621.37V657.204H666.114" stroke="black" stroke-width="0.5"/>
<path d="M708.103 621.37V657.204H705.207" stroke="black" stroke-width="0.5"/>
<path d="M705.205 661.067H666.113V617.631H705.205V661.067Z" stroke="black" stroke-width="0.5"/>
<path d="M705.205 617.631H666.113V623.543H705.205V617.631ZM705.205 623.543H666.113V661.067H705.205V623.543Z" fill="#D6D6D6"/>
<path d="M666.114 617.631L663.219 621.37V657.204H666.114V617.631ZM708.102 621.37L705.207 617.631V657.204H708.102V621.37Z" fill="#848484"/>
<path d="M771.689 667.279L744.047 639.636" stroke="black" stroke-width="0.5"/>
<path d="M775.279 667.787C775.884 667.181 776.271 666.392 776.379 665.543C776.487 664.694 776.31 663.833 775.875 663.096" stroke="black" stroke-width="0.5"/>
<path d="M748.231 635.453C747.494 635.019 746.633 634.841 745.784 634.949C744.935 635.057 744.145 635.444 743.54 636.049" stroke="black" stroke-width="0.5"/>
<path d="M743.539 636.049L718.2 661.388L720.248 663.435" stroke="black" stroke-width="0.5"/>
<path d="M775.278 667.786L749.939 693.125L747.892 691.078" stroke="black" stroke-width="0.5"/>
<path d="M745.159 693.809L717.517 666.167L748.23 635.453L775.873 663.096L745.159 693.809Z" stroke="black" stroke-width="0.5"/>
<path d="M775.873 663.096L748.23 635.453L744.05 639.634L771.692 667.276L775.873 663.096ZM771.692 667.276L744.05 639.634L717.517 666.167L745.159 693.809L771.692 667.276Z" fill="#D6D6D6"/>
<path d="M748.231 635.453L743.54 636.049L718.201 661.388L720.249 663.436L748.231 635.453ZM775.278 667.787L775.874 663.096L747.891 691.078L749.939 693.126L775.278 667.787Z" fill="#848484"/>
<path d="M787.793 745.215V706.123" stroke="black" stroke-width="0.5"/>
<path d="M789.969 748.111C790.825 748.111 791.656 747.827 792.333 747.302C793.01 746.778 793.493 746.044 793.707 745.215" stroke="black" stroke-width="0.5"/>
<path d="M793.707 706.123C793.493 705.294 793.01 704.56 792.333 704.036C791.656 703.512 790.825 703.228 789.969 703.228" stroke="black" stroke-width="0.5"/>
<path d="M789.969 703.228H754.134V706.123" stroke="black" stroke-width="0.5"/>
<path d="M789.969 748.111H754.134V745.215" stroke="black" stroke-width="0.5"/>
<path d="M750.271 745.215V706.123H793.707V745.215H750.271Z" stroke="black" stroke-width="0.5"/>
<path d="M793.707 745.215V706.123H787.795V745.215H793.707ZM787.795 745.215V706.123H750.271V745.215H787.795Z" fill="#D6D6D6"/>
<path d="M793.707 706.123L789.969 703.228H754.134V706.123H793.707ZM789.969 748.111L793.707 745.215H754.134V748.111H789.969Z" fill="#848484"/>
<path d="M744.049 811.702L771.691 784.06" stroke="black" stroke-width="0.5"/>
<path d="M743.539 815.29C744.145 815.895 744.934 816.282 745.783 816.39C746.632 816.498 747.493 816.32 748.23 815.886" stroke="black" stroke-width="0.5"/>
<path d="M775.874 788.243C776.309 787.506 776.486 786.645 776.379 785.795C776.271 784.946 775.884 784.157 775.278 783.552" stroke="black" stroke-width="0.5"/>
<path d="M775.277 783.552L749.939 758.213L747.891 760.261" stroke="black" stroke-width="0.5"/>
<path d="M743.542 815.29L718.203 789.951L720.251 787.903" stroke="black" stroke-width="0.5"/>
<path d="M717.519 785.172L745.161 757.529L775.875 788.243L748.233 815.886L717.519 785.172Z" stroke="black" stroke-width="0.5"/>
<path d="M748.233 815.886L775.875 788.243L771.695 784.063L744.052 811.705L748.233 815.886ZM744.052 811.705L771.695 784.063L745.161 757.529L717.519 785.172L744.052 811.705Z" fill="#D6D6D6"/>
<path d="M775.874 788.243L775.278 783.552L749.94 758.213L747.892 760.261L775.874 788.243ZM743.541 815.289L748.232 815.885L720.25 787.903L718.202 789.951L743.541 815.289Z" fill="#848484"/>
<path d="M666.115 827.79H705.207" stroke="black" stroke-width="0.5"/>
<path d="M663.218 829.968C663.218 830.824 663.502 831.655 664.026 832.332C664.55 833.009 665.285 833.492 666.113 833.706" stroke="black" stroke-width="0.5"/>
<path d="M705.206 833.706C706.035 833.492 706.769 833.009 707.293 832.332C707.817 831.655 708.102 830.824 708.102 829.968" stroke="black" stroke-width="0.5"/>
<path d="M708.102 829.968V794.133H705.206" stroke="black" stroke-width="0.5"/>
<path d="M663.218 829.968V794.133H666.113" stroke="black" stroke-width="0.5"/>
<path d="M666.115 790.27H705.207V833.706H666.115V790.27Z" stroke="black" stroke-width="0.5"/>
<path d="M666.115 833.706H705.207V827.794H666.115V833.706ZM666.115 827.794H705.207V790.27H666.115V827.794Z" fill="#D6D6D6"/>
<path d="M705.206 833.706L708.102 829.968V794.133H705.206V833.706ZM663.218 829.968L666.114 833.706V794.133H663.218V829.968Z" fill="#848484"/>
<path d="M599.631 784.06L627.273 811.702" stroke="black" stroke-width="0.5"/>
<path d="M596.041 783.552C595.436 784.157 595.049 784.946 594.941 785.795C594.833 786.644 595.011 787.505 595.445 788.243" stroke="black" stroke-width="0.5"/>
<path d="M623.089 815.885C623.826 816.32 624.687 816.497 625.537 816.389C626.386 816.281 627.175 815.894 627.78 815.289" stroke="black" stroke-width="0.5"/>
<path d="M627.781 815.29L653.12 789.951L651.072 787.903" stroke="black" stroke-width="0.5"/>
<path d="M596.042 783.552L621.381 758.213L623.429 760.261" stroke="black" stroke-width="0.5"/>
<path d="M626.161 757.529L653.804 785.172L623.09 815.885L595.447 788.243L626.161 757.529Z" stroke="black" stroke-width="0.5"/>
<path d="M595.447 788.243L623.09 815.885L627.27 811.705L599.628 784.062L595.447 788.243ZM599.628 784.062L627.27 811.705L653.804 785.172L626.161 757.529L599.628 784.062Z" fill="#D6D6D6"/>
<path d="M623.089 815.885L627.78 815.289L653.119 789.95L651.071 787.903L623.089 815.885ZM596.043 783.552L595.447 788.243L623.429 760.26L621.381 758.213L596.043 783.552Z" fill="#848484"/>
<path d="M742.665 725.669C742.663 740.786 736.656 755.283 725.967 765.971C715.277 776.659 700.779 782.664 685.663 782.664C670.546 782.664 656.048 776.659 645.358 765.971C634.669 755.283 628.662 740.786 628.66 725.669C628.662 710.552 634.669 696.056 645.358 685.367C656.048 674.679 670.546 668.674 685.663 668.674C700.779 668.674 715.277 674.679 725.967 685.367C736.656 696.056 742.663 710.552 742.665 725.669Z" fill="#D6D6D6"/>
<path d="M742.665 725.669C742.663 710.552 736.656 696.056 725.967 685.367C715.277 674.679 700.779 668.674 685.663 668.674C670.546 668.674 656.048 674.679 645.358 685.367C634.669 696.056 628.662 710.552 628.66 725.669C628.662 740.786 634.669 755.283 645.358 765.971C656.048 776.659 670.546 782.664 685.663 782.664C700.779 782.664 715.277 776.659 725.967 765.971C736.656 755.283 742.663 740.786 742.665 725.669Z" stroke="black" stroke-width="0.5"/>
<path d="M439.133 994.931V1034.02" stroke="black" stroke-width="0.5"/>
<path d="M436.957 992.035C436.101 992.035 435.269 992.32 434.593 992.844C433.916 993.368 433.433 994.102 433.219 994.931" stroke="black" stroke-width="0.5"/>
<path d="M433.219 1034.02C433.433 1034.85 433.916 1035.59 434.593 1036.11C435.269 1036.63 436.101 1036.92 436.957 1036.92" stroke="black" stroke-width="0.5"/>
<path d="M436.957 1036.92H472.792V1034.02" stroke="black" stroke-width="0.5"/>
<path d="M436.957 992.035H472.792V994.931" stroke="black" stroke-width="0.5"/>
<path d="M476.655 994.931V1034.02H433.219V994.931H476.655Z" stroke="black" stroke-width="0.5"/>
<path d="M433.219 994.931V1034.02H439.131V994.931H433.219ZM439.131 994.931V1034.02H476.655V994.931H439.131Z" fill="#D6D6D6"/>
<path d="M433.219 1034.02L436.957 1036.92H472.792V1034.02H433.219ZM436.957 992.035L433.219 994.931H472.792V992.035H436.957Z" fill="#848484"/>
<path d="M482.865 928.449L455.223 956.091" stroke="black" stroke-width="0.5"/>
<path d="M483.375 924.861C482.769 924.256 481.98 923.869 481.131 923.761C480.282 923.654 479.421 923.831 478.684 924.266" stroke="black" stroke-width="0.5"/>
<path d="M451.04 951.908C450.605 952.645 450.428 953.506 450.536 954.355C450.643 955.205 451.03 955.994 451.636 956.599" stroke="black" stroke-width="0.5"/>
<path d="M451.637 956.599L476.976 981.938L479.023 979.89" stroke="black" stroke-width="0.5"/>
<path d="M483.372 924.862L508.711 950.2L506.663 952.248" stroke="black" stroke-width="0.5"/>
<path d="M509.395 954.98L481.753 982.622L451.039 951.908L478.681 924.266L509.395 954.98Z" stroke="black" stroke-width="0.5"/>
<path d="M478.681 924.266L451.039 951.908L455.22 956.089L482.862 928.446L478.681 924.266ZM482.862 928.446L455.22 956.089L481.753 982.622L509.395 954.98L482.862 928.446Z" fill="#D6D6D6"/>
<path d="M451.04 951.908L451.636 956.599L476.974 981.938L479.022 979.89L451.04 951.908ZM483.373 924.861L478.682 924.266L506.664 952.248L508.712 950.2L483.373 924.861Z" fill="#848484"/>
<path d="M560.799 912.359H521.707" stroke="black" stroke-width="0.5"/>
<path d="M563.697 910.182C563.697 909.326 563.412 908.494 562.888 907.817C562.364 907.141 561.63 906.657 560.801 906.443" stroke="black" stroke-width="0.5"/>
<path d="M521.708 906.443C520.879 906.657 520.145 907.141 519.621 907.817C519.097 908.494 518.812 909.326 518.812 910.182" stroke="black" stroke-width="0.5"/>
<path d="M518.812 910.182V946.016H521.708" stroke="black" stroke-width="0.5"/>
<path d="M563.697 910.182V946.016H560.801" stroke="black" stroke-width="0.5"/>
<path d="M560.799 949.879H521.707V906.443H560.799V949.879Z" stroke="black" stroke-width="0.5"/>
<path d="M560.799 906.443H521.707V912.355H560.799V906.443ZM560.799 912.355H521.707V949.879H560.799V912.355Z" fill="#D6D6D6"/>
<path d="M521.708 906.443L518.812 910.182V946.016H521.708V906.443ZM563.696 910.182L560.8 906.443V946.016H563.696V910.182Z" fill="#848484"/>
<path d="M627.291 956.091L599.648 928.448" stroke="black" stroke-width="0.5"/>
<path d="M630.881 956.599C631.486 955.993 631.873 955.204 631.981 954.355C632.089 953.506 631.911 952.645 631.477 951.908" stroke="black" stroke-width="0.5"/>
<path d="M603.833 924.265C603.095 923.831 602.234 923.653 601.385 923.761C600.536 923.869 599.747 924.256 599.142 924.861" stroke="black" stroke-width="0.5"/>
<path d="M599.141 924.861L573.802 950.2L575.849 952.247" stroke="black" stroke-width="0.5"/>
<path d="M630.88 956.598L605.541 981.937L603.493 979.89" stroke="black" stroke-width="0.5"/>
<path d="M600.761 982.621L573.118 954.979L603.832 924.265L631.474 951.908L600.761 982.621Z" stroke="black" stroke-width="0.5"/>
<path d="M631.474 951.908L603.832 924.265L599.652 928.446L627.294 956.088L631.474 951.908ZM627.294 956.088L599.652 928.446L573.118 954.979L600.761 982.621L627.294 956.088Z" fill="#D6D6D6"/>
<path d="M603.833 924.265L599.142 924.861L573.803 950.2L575.85 952.248L603.833 924.265ZM630.879 956.599L631.475 951.908L603.493 979.89L605.54 981.938L630.879 956.599Z" fill="#848484"/>
<path d="M643.383 1034.03V994.937" stroke="black" stroke-width="0.5"/>
<path d="M645.558 1036.93C646.414 1036.93 647.246 1036.64 647.923 1036.12C648.6 1035.59 649.083 1034.86 649.297 1034.03" stroke="black" stroke-width="0.5"/>
<path d="M649.297 994.937C649.083 994.108 648.6 993.374 647.923 992.85C647.246 992.326 646.414 992.042 645.558 992.042" stroke="black" stroke-width="0.5"/>
<path d="M645.559 992.042H609.724V994.937" stroke="black" stroke-width="0.5"/>
<path d="M645.559 1036.93H609.724V1034.03" stroke="black" stroke-width="0.5"/>
<path d="M605.861 1034.03V994.937H649.297V1034.03H605.861Z" stroke="black" stroke-width="0.5"/>
<path d="M649.297 1034.03V994.937H643.385V1034.03H649.297ZM643.385 1034.03V994.937H605.861V1034.03H643.385Z" fill="#D6D6D6"/>
<path d="M649.297 994.937L645.558 992.042H609.724V994.937H649.297ZM645.558 1036.93L649.297 1034.03H609.724V1036.93H645.558Z" fill="#848484"/>
<path d="M599.651 1100.51L627.293 1072.87" stroke="black" stroke-width="0.5"/>
<path d="M599.141 1104.1C599.746 1104.71 600.535 1105.09 601.385 1105.2C602.234 1105.31 603.095 1105.13 603.832 1104.7" stroke="black" stroke-width="0.5"/>
<path d="M631.476 1077.05C631.911 1076.32 632.088 1075.45 631.98 1074.61C631.872 1073.76 631.485 1072.97 630.88 1072.36" stroke="black" stroke-width="0.5"/>
<path d="M630.879 1072.36L605.54 1047.02L603.493 1049.07" stroke="black" stroke-width="0.5"/>
<path d="M599.144 1104.1L573.805 1078.76L575.853 1076.71" stroke="black" stroke-width="0.5"/>
<path d="M573.12 1073.98L600.763 1046.34L631.477 1077.05L603.834 1104.7L573.12 1073.98Z" stroke="black" stroke-width="0.5"/>
<path d="M603.834 1104.7L631.477 1077.05L627.296 1072.87L599.654 1100.52L603.834 1104.7ZM599.654 1100.52L627.296 1072.87L600.763 1046.34L573.12 1073.98L599.654 1100.52Z" fill="#D6D6D6"/>
<path d="M631.476 1077.05L630.88 1072.36L605.541 1047.02L603.494 1049.07L631.476 1077.05ZM599.142 1104.1L603.833 1104.7L575.851 1076.71L573.804 1078.76L599.142 1104.1Z" fill="#848484"/>
<path d="M521.712 1116.6H560.805" stroke="black" stroke-width="0.5"/>
<path d="M518.815 1118.78C518.815 1119.63 519.1 1120.47 519.624 1121.14C520.148 1121.82 520.882 1122.3 521.711 1122.52" stroke="black" stroke-width="0.5"/>
<path d="M560.803 1122.52C561.632 1122.3 562.366 1121.82 562.891 1121.14C563.415 1120.47 563.699 1119.63 563.699 1118.78" stroke="black" stroke-width="0.5"/>
<path d="M563.699 1118.78V1082.94H560.803" stroke="black" stroke-width="0.5"/>
<path d="M518.815 1118.78V1082.94H521.711" stroke="black" stroke-width="0.5"/>
<path d="M521.712 1079.08H560.805V1122.52H521.712V1079.08Z" stroke="black" stroke-width="0.5"/>
<path d="M521.712 1122.52H560.805V1116.6H521.712V1122.52ZM521.712 1116.6H560.805V1079.08H521.712V1116.6Z" fill="#D6D6D6"/>
<path d="M560.803 1122.52L563.699 1118.78V1082.94H560.803V1122.52ZM518.816 1118.78L521.711 1122.52V1082.94H518.816V1118.78Z" fill="#848484"/>
<path d="M455.225 1072.87L482.867 1100.51" stroke="black" stroke-width="0.5"/>
<path d="M451.635 1072.36C451.03 1072.97 450.643 1073.76 450.535 1074.61C450.427 1075.45 450.604 1076.32 451.039 1077.05" stroke="black" stroke-width="0.5"/>
<path d="M478.683 1104.7C479.42 1105.13 480.281 1105.31 481.13 1105.2C481.979 1105.09 482.769 1104.7 483.374 1104.1" stroke="black" stroke-width="0.5"/>
<path d="M483.375 1104.1L508.714 1078.76L506.666 1076.71" stroke="black" stroke-width="0.5"/>
<path d="M451.636 1072.36L476.975 1047.02L479.022 1049.07" stroke="black" stroke-width="0.5"/>
<path d="M481.755 1046.34L509.397 1073.98L478.684 1104.7L451.041 1077.05L481.755 1046.34Z" stroke="black" stroke-width="0.5"/>
<path d="M451.041 1077.05L478.684 1104.7L482.864 1100.51L455.222 1072.87L451.041 1077.05ZM455.222 1072.87L482.864 1100.51L509.397 1073.98L481.755 1046.34L455.222 1072.87Z" fill="#D6D6D6"/>
<path d="M478.683 1104.7L483.374 1104.1L508.713 1078.76L506.665 1076.71L478.683 1104.7ZM451.636 1072.36L451.041 1077.05L479.023 1049.07L476.975 1047.02L451.636 1072.36Z" fill="#848484"/>
<path d="M598.259 1014.48C598.257 1029.6 592.25 1044.09 581.56 1054.78C570.871 1065.47 556.373 1071.48 541.256 1071.48C526.14 1071.48 511.642 1065.47 500.952 1054.78C490.262 1044.09 484.256 1029.6 484.254 1014.48C484.256 999.364 490.262 984.868 500.952 974.179C511.642 963.491 526.14 957.486 541.256 957.486C556.373 957.486 570.871 963.491 581.56 974.179C592.25 984.868 598.257 999.364 598.259 1014.48Z" fill="#D6D6D6"/>
<path d="M598.259 1014.48C598.257 999.364 592.25 984.868 581.56 974.179C570.871 963.491 556.373 957.486 541.256 957.486C526.14 957.486 511.642 963.491 500.952 974.179C490.262 984.868 484.256 999.364 484.254 1014.48C484.256 1029.6 490.262 1044.09 500.952 1054.78C511.642 1065.47 526.14 1071.48 541.256 1071.48C556.373 1071.48 570.871 1065.47 581.56 1054.78C592.25 1044.09 598.257 1029.6 598.259 1014.48Z" stroke="black" stroke-width="0.5"/>
<path d="M150.32 994.931V1034.02" stroke="black" stroke-width="0.5"/>
<path d="M148.145 992.035C147.289 992.035 146.457 992.32 145.78 992.844C145.104 993.368 144.62 994.102 144.406 994.931" stroke="black" stroke-width="0.5"/>
<path d="M144.406 1034.02C144.62 1034.85 145.104 1035.59 145.78 1036.11C146.457 1036.63 147.289 1036.92 148.145 1036.92" stroke="black" stroke-width="0.5"/>
<path d="M148.145 1036.92H183.979V1034.02" stroke="black" stroke-width="0.5"/>
<path d="M148.145 992.035H183.979V994.931" stroke="black" stroke-width="0.5"/>
<path d="M187.842 994.931V1034.02H144.406V994.931H187.842Z" stroke="black" stroke-width="0.5"/>
<path d="M144.406 994.931V1034.02H150.318V994.931H144.406ZM150.318 994.931V1034.02H187.842V994.931H150.318Z" fill="#D6D6D6"/>
<path d="M144.406 1034.02L148.145 1036.92H183.979V1034.02H144.406ZM148.145 992.035L144.406 994.931H183.979V992.035H148.145Z" fill="#848484"/>
<path d="M194.053 928.449L166.41 956.091" stroke="black" stroke-width="0.5"/>
<path d="M194.562 924.861C193.957 924.256 193.168 923.869 192.318 923.761C191.469 923.654 190.608 923.831 189.871 924.266" stroke="black" stroke-width="0.5"/>
<path d="M162.227 951.908C161.793 952.645 161.615 953.506 161.723 954.355C161.831 955.205 162.218 955.994 162.823 956.599" stroke="black" stroke-width="0.5"/>
<path d="M162.824 956.599L188.163 981.938L190.211 979.89" stroke="black" stroke-width="0.5"/>
<path d="M194.559 924.862L219.898 950.2L217.851 952.248" stroke="black" stroke-width="0.5"/>
<path d="M220.583 954.98L192.94 982.622L162.227 951.908L189.869 924.266L220.583 954.98Z" stroke="black" stroke-width="0.5"/>
<path d="M189.869 924.266L162.227 951.908L166.407 956.089L194.049 928.446L189.869 924.266ZM194.049 928.446L166.407 956.089L192.94 982.622L220.583 954.98L194.049 928.446Z" fill="#D6D6D6"/>
<path d="M162.227 951.908L162.823 956.599L188.162 981.938L190.21 979.89L162.227 951.908ZM194.561 924.861L189.87 924.266L217.852 952.248L219.899 950.2L194.561 924.861Z" fill="#848484"/>
<path d="M271.991 912.359H232.898" stroke="black" stroke-width="0.5"/>
<path d="M274.888 910.182C274.888 909.326 274.603 908.494 274.079 907.817C273.555 907.141 272.821 906.657 271.992 906.443" stroke="black" stroke-width="0.5"/>
<path d="M232.9 906.443C232.071 906.657 231.337 907.141 230.813 907.817C230.288 908.494 230.004 909.326 230.004 910.182" stroke="black" stroke-width="0.5"/>
<path d="M230.004 910.182V946.016H232.9" stroke="black" stroke-width="0.5"/>
<path d="M274.888 910.182V946.016H271.992" stroke="black" stroke-width="0.5"/>
<path d="M271.991 949.879H232.898V906.443H271.991V949.879Z" stroke="black" stroke-width="0.5"/>
<path d="M271.991 906.443H232.898V912.355H271.991V906.443ZM271.991 912.355H232.898V949.879H271.991V912.355Z" fill="#D6D6D6"/>
<path d="M232.9 906.443L230.004 910.182V946.016H232.9V906.443ZM274.888 910.182L271.992 906.443V946.016H274.888V910.182Z" fill="#848484"/>
<path d="M338.471 956.091L310.828 928.448" stroke="black" stroke-width="0.5"/>
<path d="M342.06 956.599C342.666 955.993 343.053 955.204 343.16 954.355C343.268 953.506 343.091 952.645 342.656 951.908" stroke="black" stroke-width="0.5"/>
<path d="M315.012 924.265C314.275 923.831 313.414 923.653 312.565 923.761C311.716 923.869 310.927 924.256 310.321 924.861" stroke="black" stroke-width="0.5"/>
<path d="M310.32 924.861L284.982 950.2L287.029 952.247" stroke="black" stroke-width="0.5"/>
<path d="M342.059 956.598L316.72 981.937L314.673 979.89" stroke="black" stroke-width="0.5"/>
<path d="M311.94 982.621L284.298 954.979L315.012 924.265L342.654 951.908L311.94 982.621Z" stroke="black" stroke-width="0.5"/>
<path d="M342.654 951.908L315.012 924.265L310.831 928.446L338.474 956.088L342.654 951.908ZM338.474 956.088L310.831 928.446L284.298 954.979L311.94 982.621L338.474 956.088Z" fill="#D6D6D6"/>
<path d="M315.012 924.265L310.321 924.861L284.983 950.2L287.03 952.248L315.012 924.265ZM342.059 956.599L342.655 951.908L314.673 979.89L316.72 981.938L342.059 956.599Z" fill="#848484"/>
<path d="M354.57 1034.03V994.937" stroke="black" stroke-width="0.5"/>
<path d="M356.746 1036.93C357.602 1036.93 358.434 1036.64 359.11 1036.12C359.787 1035.59 360.27 1034.86 360.484 1034.03" stroke="black" stroke-width="0.5"/>
<path d="M360.484 994.937C360.27 994.108 359.787 993.374 359.11 992.85C358.434 992.326 357.602 992.042 356.746 992.042" stroke="black" stroke-width="0.5"/>
<path d="M356.746 992.042H320.912V994.937" stroke="black" stroke-width="0.5"/>
<path d="M356.746 1036.93H320.912V1034.03" stroke="black" stroke-width="0.5"/>
<path d="M317.049 1034.03V994.937H360.484V1034.03H317.049Z" stroke="black" stroke-width="0.5"/>
<path d="M360.484 1034.03V994.937H354.572V1034.03H360.484ZM354.572 1034.03V994.937H317.049V1034.03H354.572Z" fill="#D6D6D6"/>
<path d="M360.484 994.937L356.746 992.042H320.911V994.937H360.484ZM356.746 1036.93L360.484 1034.03H320.911V1036.93H356.746Z" fill="#848484"/>
<path d="M310.83 1100.51L338.473 1072.87" stroke="black" stroke-width="0.5"/>
<path d="M310.321 1104.1C310.926 1104.71 311.715 1105.09 312.564 1105.2C313.413 1105.31 314.274 1105.13 315.012 1104.7" stroke="black" stroke-width="0.5"/>
<path d="M342.656 1077.05C343.09 1076.32 343.268 1075.45 343.16 1074.61C343.052 1073.76 342.665 1072.97 342.06 1072.36" stroke="black" stroke-width="0.5"/>
<path d="M342.059 1072.36L316.72 1047.02L314.672 1049.07" stroke="black" stroke-width="0.5"/>
<path d="M310.324 1104.1L284.985 1078.76L287.032 1076.71" stroke="black" stroke-width="0.5"/>
<path d="M284.3 1073.98L311.942 1046.34L342.656 1077.05L315.014 1104.7L284.3 1073.98Z" stroke="black" stroke-width="0.5"/>
<path d="M315.014 1104.7L342.656 1077.05L338.476 1072.87L310.833 1100.52L315.014 1104.7ZM310.833 1100.52L338.476 1072.87L311.942 1046.34L284.3 1073.98L310.833 1100.52Z" fill="#D6D6D6"/>
<path d="M342.656 1077.05L342.06 1072.36L316.721 1047.02L314.673 1049.07L342.656 1077.05ZM310.322 1104.1L315.013 1104.7L287.031 1076.71L284.983 1078.76L310.322 1104.1Z" fill="#848484"/>
<path d="M232.9 1116.6H271.992" stroke="black" stroke-width="0.5"/>
<path d="M230.003 1118.78C230.003 1119.63 230.287 1120.47 230.811 1121.14C231.335 1121.82 232.07 1122.3 232.898 1122.52" stroke="black" stroke-width="0.5"/>
<path d="M271.991 1122.52C272.82 1122.3 273.554 1121.82 274.078 1121.14C274.602 1120.47 274.887 1119.63 274.887 1118.78" stroke="black" stroke-width="0.5"/>
<path d="M274.887 1118.78V1082.94H271.991" stroke="black" stroke-width="0.5"/>
<path d="M230.003 1118.78V1082.94H232.898" stroke="black" stroke-width="0.5"/>
<path d="M232.9 1079.08H271.992V1122.52H232.9V1079.08Z" stroke="black" stroke-width="0.5"/>
<path d="M232.9 1122.52H271.992V1116.6H232.9V1122.52ZM232.9 1116.6H271.992V1079.08H232.9V1116.6Z" fill="#D6D6D6"/>
<path d="M271.991 1122.52L274.887 1118.78V1082.94H271.991V1122.52ZM230.003 1118.78L232.899 1122.52V1082.94H230.003V1118.78Z" fill="#848484"/>
<path d="M166.412 1072.87L194.055 1100.51" stroke="black" stroke-width="0.5"/>
<path d="M162.822 1072.36C162.217 1072.97 161.83 1073.76 161.722 1074.61C161.614 1075.45 161.792 1076.32 162.227 1077.05" stroke="black" stroke-width="0.5"/>
<path d="M189.87 1104.7C190.608 1105.13 191.469 1105.31 192.318 1105.2C193.167 1105.09 193.956 1104.7 194.561 1104.1" stroke="black" stroke-width="0.5"/>
<path d="M194.562 1104.1L219.901 1078.76L217.854 1076.71" stroke="black" stroke-width="0.5"/>
<path d="M162.824 1072.36L188.162 1047.02L190.21 1049.07" stroke="black" stroke-width="0.5"/>
<path d="M192.942 1046.34L220.585 1073.98L189.871 1104.7L162.229 1077.05L192.942 1046.34Z" stroke="black" stroke-width="0.5"/>
<path d="M162.229 1077.05L189.871 1104.7L194.052 1100.51L166.409 1072.87L162.229 1077.05ZM166.409 1072.87L194.052 1100.51L220.585 1073.98L192.942 1046.34L166.409 1072.87Z" fill="#D6D6D6"/>
<path d="M189.87 1104.7L194.561 1104.1L219.9 1078.76L217.853 1076.71L189.87 1104.7ZM162.824 1072.36L162.228 1077.05L190.21 1049.07L188.163 1047.02L162.824 1072.36Z" fill="#848484"/>
<path d="M309.446 1014.48C309.444 1029.6 303.438 1044.09 292.748 1054.78C282.058 1065.47 267.56 1071.48 252.444 1071.48C237.327 1071.48 222.829 1065.47 212.14 1054.78C201.45 1044.09 195.443 1029.6 195.441 1014.48C195.443 999.364 201.45 984.868 212.14 974.179C222.829 963.491 237.327 957.486 252.444 957.486C267.56 957.486 282.058 963.491 292.748 974.179C303.438 984.868 309.444 999.364 309.446 1014.48Z" fill="#D6D6D6"/>
<path d="M309.446 1014.48C309.444 999.364 303.438 984.868 292.748 974.179C282.058 963.491 267.56 957.486 252.444 957.486C237.327 957.486 222.829 963.491 212.14 974.179C201.45 984.868 195.443 999.364 195.441 1014.48C195.443 1029.6 201.45 1044.09 212.14 1054.78C222.829 1065.47 237.327 1071.48 252.444 1071.48C267.56 1071.48 282.058 1065.47 292.748 1054.78C303.438 1044.09 309.444 1029.6 309.446 1014.48Z" stroke="black" stroke-width="0.5"/>
<path d="M5.91797 706.123L5.91797 745.215" stroke="black" stroke-width="0.5"/>
<path d="M3.74231 703.227C2.88635 703.227 2.05462 703.512 1.37793 704.036C0.701235 704.56 0.217896 705.294 0.00390625 706.123" stroke="black" stroke-width="0.5"/>
<path d="M0.00390625 745.215C0.217896 746.044 0.701235 746.778 1.37793 747.302C2.05462 747.826 2.88635 748.111 3.74231 748.111" stroke="black" stroke-width="0.5"/>
<path d="M3.74219 748.111H39.5767V745.215" stroke="black" stroke-width="0.5"/>
<path d="M3.74219 703.227H39.5767V706.123" stroke="black" stroke-width="0.5"/>
<path d="M43.4397 706.123L43.4397 745.215H0.00390625L0.00390625 706.123H43.4397Z" stroke="black" stroke-width="0.5"/>
<path d="M0.00390625 706.123L0.00390625 745.215H5.91602L5.91602 706.123H0.00390625ZM5.91602 706.123L5.91602 745.215H43.4397L43.4397 706.123H5.91602Z" fill="#D6D6D6"/>
<path d="M0.00390625 745.215L3.74231 748.111H39.5768V745.215H0.00390625ZM3.74231 703.227L0.00390625 706.123H39.5768V703.227H3.74231Z" fill="#848484"/>
<path d="M49.6463 639.637L22.0039 667.279" stroke="black" stroke-width="0.5"/>
<path d="M50.1559 636.049C49.5506 635.444 48.7614 635.057 47.9122 634.949C47.0631 634.842 46.2022 635.019 45.4648 635.454" stroke="black" stroke-width="0.5"/>
<path d="M17.821 663.096C17.3863 663.834 17.2089 664.695 17.3168 665.544C17.4246 666.393 17.8116 667.182 18.4169 667.787" stroke="black" stroke-width="0.5"/>
<path d="M18.418 667.787L43.7568 693.126L45.8044 691.078" stroke="black" stroke-width="0.5"/>
<path d="M50.1531 636.05L75.4919 661.388L73.4443 663.436" stroke="black" stroke-width="0.5"/>
<path d="M76.1764 666.168L48.5341 693.81L17.8203 663.096L45.4627 635.454L76.1764 666.168Z" stroke="black" stroke-width="0.5"/>
<path d="M45.4627 635.454L17.8203 663.096L22.0008 667.277L49.6432 639.634L45.4627 635.454ZM49.6432 639.634L22.0008 667.277L48.5341 693.81L76.1764 666.168L49.6432 639.634Z" fill="#D6D6D6"/>
<path d="M17.821 663.096L18.4169 667.787L43.7557 693.126L45.8033 691.079L17.821 663.096ZM50.1544 636.05L45.4634 635.454L73.4457 663.436L75.4932 661.389L50.1544 636.05Z" fill="#848484"/>
<path d="M127.584 623.547H88.4922" stroke="black" stroke-width="0.5"/>
<path d="M130.482 621.37C130.482 620.514 130.197 619.682 129.673 619.005C129.149 618.329 128.415 617.845 127.586 617.631" stroke="black" stroke-width="0.5"/>
<path d="M88.4934 617.631C87.6646 617.845 86.9304 618.329 86.4063 619.005C85.8821 619.682 85.5977 620.514 85.5977 621.37" stroke="black" stroke-width="0.5"/>
<path d="M85.5977 621.37V657.204H88.4934" stroke="black" stroke-width="0.5"/>
<path d="M130.482 621.37V657.204H127.586" stroke="black" stroke-width="0.5"/>
<path d="M127.584 661.067H88.4922V617.631H127.584V661.067Z" stroke="black" stroke-width="0.5"/>
<path d="M127.584 617.631H88.4922V623.543H127.584V617.631ZM127.584 623.543H88.4922V661.067H127.584V623.543Z" fill="#D6D6D6"/>
<path d="M88.4934 617.631L85.5977 621.37V657.204H88.4934V617.631ZM130.481 621.37L127.586 617.631V657.204H130.481V621.37Z" fill="#848484"/>
<path d="M194.068 667.279L166.426 639.636" stroke="black" stroke-width="0.5"/>
<path d="M197.658 667.787C198.263 667.181 198.65 666.392 198.758 665.543C198.866 664.694 198.689 663.833 198.254 663.096" stroke="black" stroke-width="0.5"/>
<path d="M170.61 635.453C169.873 635.019 169.012 634.841 168.163 634.949C167.314 635.057 166.524 635.444 165.919 636.049" stroke="black" stroke-width="0.5"/>
<path d="M165.918 636.049L140.579 661.388L142.627 663.435" stroke="black" stroke-width="0.5"/>
<path d="M197.657 667.786L172.318 693.125L170.271 691.078" stroke="black" stroke-width="0.5"/>
<path d="M167.538 693.809L139.896 666.167L170.609 635.453L198.252 663.096L167.538 693.809Z" stroke="black" stroke-width="0.5"/>
<path d="M198.252 663.096L170.609 635.453L166.429 639.634L194.071 667.276L198.252 663.096ZM194.071 667.276L166.429 639.634L139.896 666.167L167.538 693.809L194.071 667.276Z" fill="#D6D6D6"/>
<path d="M170.61 635.453L165.919 636.049L140.58 661.388L142.628 663.436L170.61 635.453ZM197.657 667.787L198.252 663.096L170.27 691.078L172.318 693.126L197.657 667.787Z" fill="#848484"/>
<path d="M210.16 745.215V706.123" stroke="black" stroke-width="0.5"/>
<path d="M212.336 748.111C213.192 748.111 214.024 747.827 214.7 747.302C215.377 746.778 215.86 746.044 216.074 745.215" stroke="black" stroke-width="0.5"/>
<path d="M216.074 706.123C215.86 705.294 215.377 704.56 214.7 704.036C214.024 703.512 213.192 703.228 212.336 703.228" stroke="black" stroke-width="0.5"/>
<path d="M212.336 703.228H176.501V706.123" stroke="black" stroke-width="0.5"/>
<path d="M212.336 748.111H176.501V745.215" stroke="black" stroke-width="0.5"/>
<path d="M172.638 745.215V706.123H216.074V745.215H172.638Z" stroke="black" stroke-width="0.5"/>
<path d="M216.074 745.215V706.123H210.162V745.215H216.074ZM210.162 745.215V706.123H172.638V745.215H210.162Z" fill="#D6D6D6"/>
<path d="M216.074 706.123L212.336 703.228H176.501V706.123H216.074ZM212.336 748.111L216.074 745.215H176.501V748.111H212.336Z" fill="#848484"/>
<path d="M166.428 811.702L194.07 784.06" stroke="black" stroke-width="0.5"/>
<path d="M165.918 815.29C166.524 815.895 167.313 816.282 168.162 816.39C169.011 816.498 169.872 816.32 170.609 815.886" stroke="black" stroke-width="0.5"/>
<path d="M198.253 788.243C198.688 787.506 198.865 786.645 198.757 785.795C198.65 784.946 198.263 784.157 197.657 783.552" stroke="black" stroke-width="0.5"/>
<path d="M197.656 783.552L172.317 758.213L170.27 760.261" stroke="black" stroke-width="0.5"/>
<path d="M165.921 815.29L140.582 789.951L142.63 787.903" stroke="black" stroke-width="0.5"/>
<path d="M139.898 785.172L167.54 757.529L198.254 788.243L170.612 815.886L139.898 785.172Z" stroke="black" stroke-width="0.5"/>
<path d="M170.612 815.886L198.254 788.243L194.073 784.063L166.431 811.705L170.612 815.886ZM166.431 811.705L194.073 784.063L167.54 757.529L139.898 785.172L166.431 811.705Z" fill="#D6D6D6"/>
<path d="M198.253 788.243L197.657 783.552L172.319 758.213L170.271 760.261L198.253 788.243ZM165.92 815.289L170.611 815.885L142.629 787.903L140.581 789.951L165.92 815.289Z" fill="#848484"/>
<path d="M88.4936 827.79H127.586" stroke="black" stroke-width="0.5"/>
<path d="M85.5965 829.968C85.5965 830.824 85.8809 831.655 86.4051 832.332C86.9292 833.009 87.6634 833.492 88.4922 833.706" stroke="black" stroke-width="0.5"/>
<path d="M127.585 833.706C128.414 833.492 129.148 833.009 129.672 832.332C130.196 831.655 130.48 830.824 130.48 829.968" stroke="black" stroke-width="0.5"/>
<path d="M130.48 829.968V794.133H127.585" stroke="black" stroke-width="0.5"/>
<path d="M85.5965 829.968V794.133H88.4922" stroke="black" stroke-width="0.5"/>
<path d="M88.4937 790.27H127.586V833.706H88.4937V790.27Z" stroke="black" stroke-width="0.5"/>
<path d="M88.4937 833.706H127.586V827.794H88.4937V833.706ZM88.4937 827.794H127.586V790.27H88.4937V827.794Z" fill="#D6D6D6"/>
<path d="M127.585 833.706L130.48 829.968V794.133H127.585V833.706ZM85.5968 829.968L88.4925 833.706V794.133H85.5968V829.968Z" fill="#848484"/>
<path d="M22.006 784.06L49.6484 811.702" stroke="black" stroke-width="0.5"/>
<path d="M18.4162 783.552C17.8109 784.157 17.4239 784.946 17.3161 785.795C17.2082 786.644 17.3856 787.505 17.8203 788.243" stroke="black" stroke-width="0.5"/>
<path d="M45.4641 815.885C46.2015 816.32 47.0624 816.497 47.9115 816.389C48.7607 816.281 49.5499 815.894 50.1552 815.289" stroke="black" stroke-width="0.5"/>
<path d="M50.1562 815.29L75.4951 789.951L73.4475 787.903" stroke="black" stroke-width="0.5"/>
<path d="M18.4173 783.552L43.7561 758.213L45.8037 760.261" stroke="black" stroke-width="0.5"/>
<path d="M48.5362 757.529L76.1786 785.172L45.4648 815.885L17.8225 788.243L48.5362 757.529Z" stroke="black" stroke-width="0.5"/>
<path d="M17.8225 788.243L45.4648 815.885L49.6453 811.705L22.003 784.062L17.8225 788.243ZM22.003 784.062L49.6453 811.705L76.1786 785.172L48.5362 757.529L22.003 784.062Z" fill="#D6D6D6"/>
<path d="M45.4641 815.885L50.1552 815.289L75.494 789.95L73.4464 787.903L45.4641 815.885ZM18.4176 783.552L17.8218 788.243L45.804 760.26L43.7564 758.213L18.4176 783.552Z" fill="#848484"/>
<path d="M165.04 725.669C165.038 740.786 159.031 755.283 148.342 765.971C137.652 776.659 123.154 782.664 108.038 782.664C92.9209 782.664 78.4232 776.659 67.7334 765.971C57.0436 755.283 51.0372 740.786 51.0352 725.669C51.0372 710.552 57.0436 696.056 67.7334 685.367C78.4232 674.679 92.9209 668.674 108.038 668.674C123.154 668.674 137.652 674.679 148.342 685.367C159.031 696.056 165.038 710.552 165.04 725.669Z" fill="#D6D6D6"/>
<path d="M165.04 725.669C165.038 710.552 159.031 696.056 148.342 685.367C137.652 674.679 123.154 668.674 108.038 668.674C92.9209 668.674 78.4232 674.679 67.7334 685.367C57.0436 696.056 51.0372 710.552 51.0352 725.669C51.0372 740.786 57.0436 755.283 67.7334 765.971C78.4232 776.659 92.9209 782.664 108.038 782.664C123.154 782.664 137.652 776.659 148.342 765.971C159.031 755.283 165.038 740.786 165.04 725.669Z" stroke="black" stroke-width="0.5"/>
<path d="M439.133 417.311V456.403" stroke="black" stroke-width="0.5"/>
<path d="M436.957 414.415C436.101 414.415 435.269 414.7 434.593 415.224C433.916 415.748 433.433 416.482 433.219 417.311" stroke="black" stroke-width="0.5"/>
<path d="M433.219 456.403C433.433 457.232 433.916 457.966 434.593 458.49C435.269 459.014 436.101 459.299 436.957 459.299" stroke="black" stroke-width="0.5"/>
<path d="M436.957 459.299H472.792V456.403" stroke="black" stroke-width="0.5"/>
<path d="M436.957 414.415H472.792V417.311" stroke="black" stroke-width="0.5"/>
<path d="M476.655 417.311V456.403H433.219V417.311H476.655Z" stroke="black" stroke-width="0.5"/>
<path d="M433.219 417.311V456.403H439.131V417.311H433.219ZM439.131 417.311V456.403H476.655V417.311H439.131Z" fill="#D6D6D6"/>
<path d="M433.219 456.403L436.957 459.299H472.792V456.403H433.219ZM436.957 414.415L433.219 417.311H472.792V414.415H436.957Z" fill="#848484"/>
<path d="M455.225 495.25L482.867 522.892" stroke="black" stroke-width="0.5"/>
<path d="M451.635 494.742C451.03 495.347 450.643 496.136 450.535 496.985C450.427 497.834 450.604 498.695 451.039 499.433" stroke="black" stroke-width="0.5"/>
<path d="M478.683 527.075C479.42 527.51 480.281 527.687 481.13 527.579C481.979 527.471 482.769 527.084 483.374 526.479" stroke="black" stroke-width="0.5"/>
<path d="M483.375 526.479L508.714 501.141L506.666 499.093" stroke="black" stroke-width="0.5"/>
<path d="M451.636 494.742L476.975 469.403L479.022 471.451" stroke="black" stroke-width="0.5"/>
<path d="M481.755 468.719L509.397 496.361L478.684 527.075L451.041 499.433L481.755 468.719Z" stroke="black" stroke-width="0.5"/>
<path d="M451.041 499.433L478.684 527.075L482.864 522.895L455.222 495.252L451.041 499.433ZM455.222 495.252L482.864 522.895L509.397 496.361L481.755 468.719L455.222 495.252Z" fill="#D6D6D6"/>
<path d="M478.683 527.075L483.374 526.479L508.713 501.14L506.665 499.093L478.683 527.075ZM451.636 494.742L451.041 499.433L479.023 471.45L476.975 469.403L451.636 494.742Z" fill="#848484"/>
<path d="M521.712 538.98H560.805" stroke="black" stroke-width="0.5"/>
<path d="M518.815 541.158C518.815 542.014 519.1 542.845 519.624 543.522C520.148 544.199 520.882 544.682 521.711 544.896" stroke="black" stroke-width="0.5"/>
<path d="M560.803 544.896C561.632 544.682 562.366 544.199 562.891 543.522C563.415 542.845 563.699 542.014 563.699 541.158" stroke="black" stroke-width="0.5"/>
<path d="M563.699 541.158V505.323H560.803" stroke="black" stroke-width="0.5"/>
<path d="M518.815 541.158V505.323H521.711" stroke="black" stroke-width="0.5"/>
<path d="M521.712 501.46H560.805V544.896H521.712V501.46Z" stroke="black" stroke-width="0.5"/>
<path d="M521.712 544.896H560.805V538.984H521.712V544.896ZM521.712 538.984H560.805V501.46H521.712V538.984Z" fill="#D6D6D6"/>
<path d="M560.803 544.896L563.699 541.158V505.323H560.803V544.896ZM518.816 541.158L521.711 544.896V505.323H518.816V541.158Z" fill="#848484"/>
<path d="M599.651 522.892L627.293 495.25" stroke="black" stroke-width="0.5"/>
<path d="M599.141 526.48C599.746 527.085 600.535 527.472 601.385 527.58C602.234 527.688 603.095 527.51 603.832 527.076" stroke="black" stroke-width="0.5"/>
<path d="M631.476 499.433C631.911 498.695 632.088 497.835 631.98 496.985C631.872 496.136 631.485 495.347 630.88 494.742" stroke="black" stroke-width="0.5"/>
<path d="M630.879 494.742L605.54 469.403L603.493 471.451" stroke="black" stroke-width="0.5"/>
<path d="M599.144 526.48L573.805 501.141L575.853 499.093" stroke="black" stroke-width="0.5"/>
<path d="M573.12 496.362L600.763 468.719L631.477 499.433L603.834 527.075L573.12 496.362Z" stroke="black" stroke-width="0.5"/>
<path d="M603.834 527.075L631.477 499.433L627.296 495.253L599.654 522.895L603.834 527.075ZM599.654 522.895L627.296 495.253L600.763 468.719L573.12 496.362L599.654 522.895Z" fill="#D6D6D6"/>
<path d="M631.476 499.433L630.88 494.742L605.541 469.403L603.494 471.451L631.476 499.433ZM599.142 526.479L603.833 527.075L575.851 499.093L573.804 501.141L599.142 526.479Z" fill="#848484"/>
<path d="M643.383 456.403V417.311" stroke="black" stroke-width="0.5"/>
<path d="M645.558 459.299C646.414 459.299 647.246 459.015 647.923 458.49C648.6 457.966 649.083 457.232 649.297 456.403" stroke="black" stroke-width="0.5"/>
<path d="M649.297 417.311C649.083 416.482 648.6 415.748 647.923 415.224C647.246 414.7 646.414 414.416 645.558 414.416" stroke="black" stroke-width="0.5"/>
<path d="M645.559 414.416H609.724V417.311" stroke="black" stroke-width="0.5"/>
<path d="M645.559 459.299H609.724V456.403" stroke="black" stroke-width="0.5"/>
<path d="M605.861 456.403V417.311H649.297V456.403H605.861Z" stroke="black" stroke-width="0.5"/>
<path d="M649.297 456.403V417.311H643.385V456.403H649.297ZM643.385 456.403V417.311H605.861V456.403H643.385Z" fill="#D6D6D6"/>
<path d="M649.297 417.311L645.558 414.416H609.724V417.311H649.297ZM645.558 459.299L649.297 456.403H609.724V459.299H645.558Z" fill="#848484"/>
<path d="M627.291 378.467L599.648 350.824" stroke="black" stroke-width="0.5"/>
<path d="M630.881 378.975C631.486 378.369 631.873 377.58 631.981 376.731C632.089 375.882 631.911 375.021 631.477 374.284" stroke="black" stroke-width="0.5"/>
<path d="M603.833 346.641C603.095 346.207 602.234 346.029 601.385 346.137C600.536 346.245 599.747 346.632 599.142 347.237" stroke="black" stroke-width="0.5"/>
<path d="M599.141 347.237L573.802 372.576L575.849 374.623" stroke="black" stroke-width="0.5"/>
<path d="M630.88 378.974L605.541 404.313L603.493 402.266" stroke="black" stroke-width="0.5"/>
<path d="M600.761 404.997L573.118 377.355L603.832 346.641L631.474 374.283L600.761 404.997Z" stroke="black" stroke-width="0.5"/>
<path d="M631.474 374.283L603.832 346.641L599.652 350.822L627.294 378.464L631.474 374.283ZM627.294 378.464L599.652 350.822L573.118 377.355L600.761 404.997L627.294 378.464Z" fill="#D6D6D6"/>
<path d="M603.833 346.641L599.142 347.237L573.803 372.576L575.85 374.624L603.833 346.641ZM630.879 378.975L631.475 374.284L603.493 402.266L605.54 404.314L630.879 378.975Z" fill="#848484"/>
<path d="M560.799 334.735H521.707" stroke="black" stroke-width="0.5"/>
<path d="M563.697 332.558C563.697 331.702 563.412 330.87 562.888 330.193C562.364 329.517 561.63 329.033 560.801 328.819" stroke="black" stroke-width="0.5"/>
<path d="M521.708 328.819C520.879 329.033 520.145 329.517 519.621 330.193C519.097 330.87 518.812 331.702 518.812 332.558" stroke="black" stroke-width="0.5"/>
<path d="M518.812 332.558V368.392H521.708" stroke="black" stroke-width="0.5"/>
<path d="M563.697 332.558V368.392H560.801" stroke="black" stroke-width="0.5"/>
<path d="M560.799 372.255H521.707V328.819H560.799V372.255Z" stroke="black" stroke-width="0.5"/>
<path d="M560.799 328.819H521.707V334.731H560.799V328.819ZM560.799 334.731H521.707V372.255H560.799V334.731Z" fill="#D6D6D6"/>
<path d="M521.708 328.819L518.812 332.558V368.392H521.708V328.819ZM563.696 332.558L560.8 328.819V368.392H563.696V332.558Z" fill="#848484"/>
<path d="M482.865 350.825L455.223 378.467" stroke="black" stroke-width="0.5"/>
<path d="M483.375 347.237C482.769 346.632 481.98 346.245 481.131 346.137C480.282 346.03 479.421 346.207 478.684 346.642" stroke="black" stroke-width="0.5"/>
<path d="M451.04 374.284C450.605 375.022 450.428 375.883 450.536 376.732C450.643 377.581 451.03 378.37 451.636 378.975" stroke="black" stroke-width="0.5"/>
<path d="M451.637 378.975L476.976 404.314L479.023 402.266" stroke="black" stroke-width="0.5"/>
<path d="M483.372 347.238L508.711 372.576L506.663 374.624" stroke="black" stroke-width="0.5"/>
<path d="M509.395 377.356L481.753 404.998L451.039 374.284L478.681 346.642L509.395 377.356Z" stroke="black" stroke-width="0.5"/>
<path d="M478.681 346.642L451.039 374.284L455.22 378.465L482.862 350.822L478.681 346.642ZM482.862 350.822L455.22 378.465L481.753 404.998L509.395 377.356L482.862 350.822Z" fill="#D6D6D6"/>
<path d="M451.04 374.284L451.636 378.975L476.974 404.314L479.022 402.267L451.04 374.284ZM483.373 347.238L478.682 346.642L506.664 374.624L508.712 372.577L483.373 347.238Z" fill="#848484"/>
<path d="M484.253 436.86C484.255 421.744 490.262 407.247 500.951 396.558C511.641 385.87 526.139 379.865 541.255 379.865C556.372 379.865 570.87 385.87 581.56 396.558C592.249 407.247 598.256 421.744 598.258 436.86C598.256 451.977 592.249 466.474 581.56 477.162C570.87 487.85 556.372 493.855 541.255 493.855C526.139 493.855 511.641 487.85 500.951 477.162C490.262 466.474 484.255 451.977 484.253 436.86Z" fill="#D6D6D6"/>
<path d="M484.253 436.86C484.255 451.977 490.262 466.474 500.951 477.162C511.641 487.85 526.139 493.855 541.255 493.855C556.372 493.855 570.87 487.85 581.56 477.162C592.249 466.474 598.256 451.977 598.258 436.86C598.256 421.744 592.249 407.247 581.56 396.558C570.87 385.87 556.372 379.865 541.255 379.865C526.139 379.865 511.641 385.87 500.951 396.558C490.262 407.247 484.255 421.744 484.253 436.86Z" stroke="black" stroke-width="0.5"/>
<path d="M150.32 417.311V456.403" stroke="black" stroke-width="0.5"/>
<path d="M148.145 414.415C147.289 414.415 146.457 414.7 145.78 415.224C145.104 415.748 144.62 416.482 144.406 417.311" stroke="black" stroke-width="0.5"/>
<path d="M144.406 456.403C144.62 457.232 145.104 457.966 145.78 458.49C146.457 459.014 147.289 459.299 148.145 459.299" stroke="black" stroke-width="0.5"/>
<path d="M148.145 459.299H183.979V456.403" stroke="black" stroke-width="0.5"/>
<path d="M148.145 414.415H183.979V417.311" stroke="black" stroke-width="0.5"/>
<path d="M187.842 417.311V456.403H144.406V417.311H187.842Z" stroke="black" stroke-width="0.5"/>
<path d="M144.406 417.311V456.403H150.318V417.311H144.406ZM150.318 417.311V456.403H187.842V417.311H150.318Z" fill="#D6D6D6"/>
<path d="M144.406 456.403L148.145 459.299H183.979V456.403H144.406ZM148.145 414.415L144.406 417.311H183.979V414.415H148.145Z" fill="#848484"/>
<path d="M166.412 495.25L194.055 522.892" stroke="black" stroke-width="0.5"/>
<path d="M162.822 494.742C162.217 495.347 161.83 496.136 161.722 496.985C161.614 497.834 161.792 498.695 162.227 499.433" stroke="black" stroke-width="0.5"/>
<path d="M189.87 527.075C190.608 527.51 191.469 527.688 192.318 527.58C193.167 527.472 193.956 527.085 194.561 526.48" stroke="black" stroke-width="0.5"/>
<path d="M194.562 526.479L219.901 501.141L217.854 499.093" stroke="black" stroke-width="0.5"/>
<path d="M162.824 494.742L188.162 469.403L190.21 471.451" stroke="black" stroke-width="0.5"/>
<path d="M192.942 468.719L220.585 496.361L189.871 527.075L162.229 499.433L192.942 468.719Z" stroke="black" stroke-width="0.5"/>
<path d="M162.229 499.433L189.871 527.075L194.052 522.895L166.409 495.252L162.229 499.433ZM166.409 495.252L194.052 522.895L220.585 496.361L192.942 468.719L166.409 495.252Z" fill="#D6D6D6"/>
<path d="M189.87 527.075L194.561 526.48L219.9 501.141L217.853 499.093L189.87 527.075ZM162.824 494.742L162.228 499.433L190.21 471.451L188.163 469.403L162.824 494.742Z" fill="#848484"/>
<path d="M232.9 538.98H271.992" stroke="black" stroke-width="0.5"/>
<path d="M230.003 541.158C230.003 542.014 230.287 542.845 230.811 543.522C231.335 544.199 232.07 544.682 232.898 544.896" stroke="black" stroke-width="0.5"/>
<path d="M271.991 544.896C272.82 544.682 273.554 544.199 274.078 543.522C274.602 542.845 274.887 542.014 274.887 541.158" stroke="black" stroke-width="0.5"/>
<path d="M274.887 541.158V505.323H271.991" stroke="black" stroke-width="0.5"/>
<path d="M230.003 541.158V505.323H232.898" stroke="black" stroke-width="0.5"/>
<path d="M232.9 501.46H271.992V544.896H232.9V501.46Z" stroke="black" stroke-width="0.5"/>
<path d="M232.9 544.896H271.992V538.984H232.9V544.896ZM232.9 538.984H271.992V501.46H232.9V538.984Z" fill="#D6D6D6"/>
<path d="M271.991 544.896L274.887 541.158V505.323H271.991V544.896ZM230.003 541.158L232.899 544.896V505.323H230.003V541.158Z" fill="#848484"/>
<path d="M310.83 522.892L338.473 495.25" stroke="black" stroke-width="0.5"/>
<path d="M310.321 526.48C310.926 527.085 311.715 527.472 312.564 527.58C313.413 527.688 314.274 527.51 315.012 527.076" stroke="black" stroke-width="0.5"/>
<path d="M342.656 499.433C343.09 498.695 343.268 497.835 343.16 496.985C343.052 496.136 342.665 495.347 342.06 494.742" stroke="black" stroke-width="0.5"/>
<path d="M342.059 494.742L316.72 469.403L314.672 471.451" stroke="black" stroke-width="0.5"/>
<path d="M310.324 526.48L284.985 501.141L287.032 499.093" stroke="black" stroke-width="0.5"/>
<path d="M284.3 496.362L311.942 468.719L342.656 499.433L315.014 527.075L284.3 496.362Z" stroke="black" stroke-width="0.5"/>
<path d="M315.014 527.075L342.656 499.433L338.476 495.253L310.833 522.895L315.014 527.075ZM310.833 522.895L338.476 495.253L311.942 468.719L284.3 496.362L310.833 522.895Z" fill="#D6D6D6"/>
<path d="M342.656 499.433L342.06 494.742L316.721 469.403L314.673 471.451L342.656 499.433ZM310.322 526.479L315.013 527.075L287.031 499.093L284.983 501.141L310.322 526.479Z" fill="#848484"/>
<path d="M354.57 456.403V417.311" stroke="black" stroke-width="0.5"/>
<path d="M356.746 459.299C357.602 459.299 358.434 459.015 359.11 458.49C359.787 457.966 360.27 457.232 360.484 456.403" stroke="black" stroke-width="0.5"/>
<path d="M360.484 417.311C360.27 416.482 359.787 415.748 359.11 415.224C358.434 414.7 357.602 414.416 356.746 414.416" stroke="black" stroke-width="0.5"/>
<path d="M356.746 414.416H320.912V417.311" stroke="black" stroke-width="0.5"/>
<path d="M356.746 459.299H320.912V456.403" stroke="black" stroke-width="0.5"/>
<path d="M317.049 456.403V417.311H360.484V456.403H317.049Z" stroke="black" stroke-width="0.5"/>
<path d="M360.484 456.403V417.311H354.572V456.403H360.484ZM354.572 456.403V417.311H317.049V456.403H354.572Z" fill="#D6D6D6"/>
<path d="M360.484 417.311L356.746 414.416H320.911V417.311H360.484ZM356.746 459.299L360.484 456.403H320.911V459.299H356.746Z" fill="#848484"/>
<path d="M338.471 378.467L310.828 350.824" stroke="black" stroke-width="0.5"/>
<path d="M342.06 378.975C342.666 378.369 343.053 377.58 343.16 376.731C343.268 375.882 343.091 375.021 342.656 374.284" stroke="black" stroke-width="0.5"/>
<path d="M315.012 346.641C314.275 346.207 313.414 346.029 312.565 346.137C311.716 346.245 310.927 346.632 310.321 347.237" stroke="black" stroke-width="0.5"/>
<path d="M310.32 347.237L284.982 372.576L287.029 374.623" stroke="black" stroke-width="0.5"/>
<path d="M342.059 378.974L316.72 404.313L314.673 402.266" stroke="black" stroke-width="0.5"/>
<path d="M311.94 404.997L284.298 377.355L315.012 346.641L342.654 374.283L311.94 404.997Z" stroke="black" stroke-width="0.5"/>
<path d="M342.654 374.283L315.012 346.641L310.831 350.822L338.474 378.464L342.654 374.283ZM338.474 378.464L310.831 350.822L284.298 377.355L311.94 404.997L338.474 378.464Z" fill="#D6D6D6"/>
<path d="M315.012 346.641L310.321 347.237L284.983 372.576L287.03 374.624L315.012 346.641ZM342.059 378.975L342.655 374.284L314.673 402.266L316.72 404.314L342.059 378.975Z" fill="#848484"/>
<path d="M271.991 334.735H232.898" stroke="black" stroke-width="0.5"/>
<path d="M274.888 332.558C274.888 331.702 274.603 330.87 274.079 330.193C273.555 329.517 272.821 329.033 271.992 328.819" stroke="black" stroke-width="0.5"/>
<path d="M232.9 328.819C232.071 329.033 231.337 329.517 230.813 330.193C230.288 330.87 230.004 331.702 230.004 332.558" stroke="black" stroke-width="0.5"/>
<path d="M230.004 332.558V368.392H232.9" stroke="black" stroke-width="0.5"/>
<path d="M274.888 332.558V368.392H271.992" stroke="black" stroke-width="0.5"/>
<path d="M271.991 372.255H232.898V328.819H271.991V372.255Z" stroke="black" stroke-width="0.5"/>
<path d="M271.991 328.819H232.898V334.731H271.991V328.819ZM271.991 334.731H232.898V372.255H271.991V334.731Z" fill="#D6D6D6"/>
<path d="M232.9 328.819L230.004 332.558V368.392H232.9V328.819ZM274.888 332.558L271.992 328.819V368.392H274.888V332.558Z" fill="#848484"/>
<path d="M194.053 350.825L166.41 378.467" stroke="black" stroke-width="0.5"/>
<path d="M194.562 347.237C193.957 346.632 193.168 346.245 192.318 346.137C191.469 346.03 190.608 346.207 189.871 346.642" stroke="black" stroke-width="0.5"/>
<path d="M162.227 374.284C161.793 375.021 161.615 375.882 161.723 376.731C161.831 377.58 162.218 378.37 162.823 378.975" stroke="black" stroke-width="0.5"/>
<path d="M162.824 378.975L188.163 404.314L190.211 402.266" stroke="black" stroke-width="0.5"/>
<path d="M194.559 347.238L219.898 372.576L217.851 374.624" stroke="black" stroke-width="0.5"/>
<path d="M220.583 377.356L192.94 404.998L162.227 374.284L189.869 346.642L220.583 377.356Z" stroke="black" stroke-width="0.5"/>
<path d="M189.869 346.642L162.227 374.284L166.407 378.465L194.049 350.822L189.869 346.642ZM194.049 350.822L166.407 378.465L192.94 404.998L220.583 377.356L194.049 350.822Z" fill="#D6D6D6"/>
<path d="M162.227 374.284L162.823 378.975L188.162 404.314L190.21 402.266L162.227 374.284ZM194.561 347.237L189.87 346.642L217.852 374.624L219.899 372.576L194.561 347.237Z" fill="#848484"/>
<path d="M195.441 436.86C195.443 421.744 201.449 407.247 212.139 396.558C222.829 385.87 237.326 379.865 252.443 379.865C267.56 379.865 282.057 385.87 292.747 396.558C303.437 407.247 309.443 421.744 309.445 436.86C309.443 451.977 303.437 466.474 292.747 477.162C282.057 487.85 267.56 493.855 252.443 493.855C237.326 493.855 222.829 487.85 212.139 477.162C201.449 466.474 195.443 451.977 195.441 436.86Z" fill="#D6D6D6"/>
<path d="M195.441 436.86C195.443 451.977 201.449 466.474 212.139 477.162C222.829 487.85 237.326 493.855 252.443 493.855C267.56 493.855 282.057 487.85 292.747 477.162C303.437 466.474 309.443 451.977 309.445 436.86C309.443 421.744 303.437 407.247 292.747 396.558C282.057 385.87 267.56 379.865 252.443 379.865C237.326 379.865 222.829 385.87 212.139 396.558C201.449 407.247 195.443 421.744 195.441 436.86Z" stroke="black" stroke-width="0.5"/>
</g>
<defs>
<clipPath id="clip0_3150_398">
<rect width="793.701" height="1122.52" fill="white"/>
</clipPath>
</defs>
</svg>
