<svg width="794" height="1123" viewBox="0 0 794 1123" fill="none" xmlns="http://www.w3.org/2000/svg">
<g clip-path="url(#clip0_3150_6503)">
<path d="M5.89062 993.766L5.89062 1032.72" stroke="black" stroke-width="0.5"/>
<path d="M3.72522 990.881C2.87225 990.881 2.04347 991.164 1.36914 991.686C0.694812 992.209 0.213242 992.94 0 993.766" stroke="black" stroke-width="0.5"/>
<path d="M0 1032.72C0.213242 1033.55 0.694812 1034.28 1.36914 1034.8C2.04347 1035.32 2.87225 1035.61 3.72522 1035.61" stroke="black" stroke-width="0.5"/>
<path d="M3.72656 1035.61H39.4358V1032.72" stroke="black" stroke-width="0.5"/>
<path d="M3.72656 990.881H39.4358V993.766" stroke="black" stroke-width="0.5"/>
<path d="M43.2839 993.766L43.2839 1032.72H0L0 993.766H43.2839Z" stroke="black" stroke-width="0.5"/>
<path d="M0 993.766L0 1032.72H5.89136L5.89136 993.766H0ZM5.89136 993.766L5.89136 1032.72H43.2839L43.2839 993.766H5.89136Z" fill="#D6D6D6"/>
<path d="M0 1032.72L3.72522 1035.61H39.4344V1032.72H0ZM3.72522 990.88L0 993.766H39.4344V990.88H3.72522Z" fill="#848484"/>
<path d="M255.893 911.478H216.938" stroke="black" stroke-width="0.5"/>
<path d="M258.776 909.312C258.776 908.459 258.493 907.631 257.97 906.956C257.448 906.282 256.717 905.8 255.891 905.587" stroke="black" stroke-width="0.5"/>
<path d="M216.936 905.587C216.11 905.8 215.379 906.282 214.857 906.956C214.334 907.631 214.051 908.459 214.051 909.312" stroke="black" stroke-width="0.5"/>
<path d="M214.051 909.312V945.022H216.936" stroke="black" stroke-width="0.5"/>
<path d="M258.776 909.312V945.022H255.891" stroke="black" stroke-width="0.5"/>
<path d="M255.893 948.871H216.938V905.587H255.893V948.871Z" stroke="black" stroke-width="0.5"/>
<path d="M255.893 905.587H216.938V911.479H255.893V905.587ZM255.893 911.479H216.938V948.871H255.893V911.479Z" fill="#D6D6D6"/>
<path d="M216.936 905.587L214.051 909.312V945.022H216.936V905.587ZM258.778 909.312L255.892 905.587V945.022H258.778V909.312Z" fill="#848484"/>
<path d="M202.877 911.478H163.922" stroke="black" stroke-width="0.5"/>
<path d="M205.761 909.312C205.761 908.459 205.477 907.631 204.955 906.956C204.432 906.282 203.701 905.8 202.875 905.587" stroke="black" stroke-width="0.5"/>
<path d="M163.921 905.587C163.095 905.8 162.363 906.282 161.841 906.956C161.319 907.631 161.035 908.459 161.035 909.312" stroke="black" stroke-width="0.5"/>
<path d="M161.035 909.312V945.022H163.921" stroke="black" stroke-width="0.5"/>
<path d="M205.761 909.312V945.022H202.875" stroke="black" stroke-width="0.5"/>
<path d="M202.877 948.871H163.922V905.587H202.877V948.871Z" stroke="black" stroke-width="0.5"/>
<path d="M202.877 905.587H163.922V911.479H202.877V905.587ZM202.877 911.479H163.922V948.871H202.877V911.479Z" fill="#D6D6D6"/>
<path d="M163.921 905.587L161.035 909.312V945.022H163.921V905.587ZM205.762 909.312L202.876 905.587V945.022H205.762V909.312Z" fill="#848484"/>
<path d="M96.8462 911.478H57.8906" stroke="black" stroke-width="0.5"/>
<path d="M99.7293 909.312C99.7293 908.459 99.4459 907.631 98.9236 906.956C98.4012 906.282 97.6696 905.8 96.8438 905.587" stroke="black" stroke-width="0.5"/>
<path d="M57.8895 905.587C57.0636 905.8 56.332 906.282 55.8097 906.956C55.2873 907.631 55.0039 908.459 55.0039 909.312" stroke="black" stroke-width="0.5"/>
<path d="M55.0039 909.312V945.022H57.8895" stroke="black" stroke-width="0.5"/>
<path d="M99.7293 909.312V945.022H96.8438" stroke="black" stroke-width="0.5"/>
<path d="M96.8462 948.871H57.8906V905.587H96.8462V948.871Z" stroke="black" stroke-width="0.5"/>
<path d="M96.8462 905.587H57.8906V911.479H96.8462V905.587ZM96.8462 911.479H57.8906V948.871H96.8462V911.479Z" fill="#D6D6D6"/>
<path d="M57.8895 905.587L55.0039 909.312V945.022H57.8895V905.587ZM99.7307 909.312L96.8451 905.587V945.022H99.7307V909.312Z" fill="#848484"/>
<path d="M149.862 911.478H110.906" stroke="black" stroke-width="0.5"/>
<path d="M152.745 909.312C152.745 908.459 152.462 907.631 151.939 906.956C151.417 906.282 150.685 905.8 149.859 905.587" stroke="black" stroke-width="0.5"/>
<path d="M110.905 905.587C110.079 905.8 109.348 906.282 108.825 906.956C108.303 907.631 108.02 908.459 108.02 909.312" stroke="black" stroke-width="0.5"/>
<path d="M108.02 909.312V945.022H110.905" stroke="black" stroke-width="0.5"/>
<path d="M152.745 909.312V945.022H149.859" stroke="black" stroke-width="0.5"/>
<path d="M149.862 948.871H110.906V905.587H149.862V948.871Z" stroke="black" stroke-width="0.5"/>
<path d="M149.862 905.587H110.906V911.479H149.862V905.587ZM149.862 911.479H110.906V948.871H149.862V911.479Z" fill="#D6D6D6"/>
<path d="M110.905 905.587L108.02 909.312V945.022H110.905V905.587ZM152.746 909.312L149.861 905.587V945.022H152.746V909.312Z" fill="#848484"/>
<path d="M216.935 1115.02H255.891" stroke="black" stroke-width="0.5"/>
<path d="M214.052 1117.19C214.052 1118.04 214.335 1118.87 214.858 1119.54C215.38 1120.22 216.112 1120.7 216.938 1120.91" stroke="black" stroke-width="0.5"/>
<path d="M255.892 1120.91C256.718 1120.7 257.449 1120.22 257.972 1119.54C258.494 1118.87 258.777 1118.04 258.777 1117.19" stroke="black" stroke-width="0.5"/>
<path d="M258.777 1117.19V1081.48H255.892" stroke="black" stroke-width="0.5"/>
<path d="M214.052 1117.19V1081.48H216.938" stroke="black" stroke-width="0.5"/>
<path d="M216.935 1077.63H255.891V1120.91H216.935V1077.63Z" stroke="black" stroke-width="0.5"/>
<path d="M216.935 1120.91H255.891V1115.02H216.935V1120.91ZM216.935 1115.02H255.891V1077.63H216.935V1115.02Z" fill="#D6D6D6"/>
<path d="M255.892 1120.91L258.777 1117.19V1081.48H255.892V1120.91ZM214.051 1117.19L216.936 1120.91V1081.48H214.051V1117.19Z" fill="#848484"/>
<path d="M163.919 1115.02H202.875" stroke="black" stroke-width="0.5"/>
<path d="M161.036 1117.19C161.036 1118.04 161.32 1118.87 161.842 1119.54C162.364 1120.22 163.096 1120.7 163.922 1120.91" stroke="black" stroke-width="0.5"/>
<path d="M202.876 1120.91C203.702 1120.7 204.434 1120.22 204.956 1119.54C205.478 1118.87 205.762 1118.04 205.762 1117.19" stroke="black" stroke-width="0.5"/>
<path d="M205.762 1117.19V1081.48H202.876" stroke="black" stroke-width="0.5"/>
<path d="M161.036 1117.19V1081.48H163.922" stroke="black" stroke-width="0.5"/>
<path d="M163.919 1077.63H202.875V1120.91H163.919V1077.63Z" stroke="black" stroke-width="0.5"/>
<path d="M163.919 1120.91H202.875V1115.02H163.919V1120.91ZM163.919 1115.02H202.875V1077.63H163.919V1115.02Z" fill="#D6D6D6"/>
<path d="M202.876 1120.91L205.762 1117.19V1081.48H202.876V1120.91ZM161.035 1117.19L163.921 1120.91V1081.48H161.035V1117.19Z" fill="#848484"/>
<path d="M57.8882 1115.02H96.8438" stroke="black" stroke-width="0.5"/>
<path d="M55.005 1117.19C55.005 1118.04 55.2885 1118.87 55.8108 1119.54C56.3331 1120.22 57.0647 1120.7 57.8906 1120.91" stroke="black" stroke-width="0.5"/>
<path d="M96.8449 1120.91C97.6708 1120.7 98.4024 1120.22 98.9247 1119.54C99.447 1118.87 99.7305 1118.04 99.7305 1117.19" stroke="black" stroke-width="0.5"/>
<path d="M99.7305 1117.19V1081.48H96.8449" stroke="black" stroke-width="0.5"/>
<path d="M55.005 1117.19L55.005 1081.48H57.8906" stroke="black" stroke-width="0.5"/>
<path d="M57.8882 1077.63H96.8438V1120.91H57.8882L57.8882 1077.63Z" stroke="black" stroke-width="0.5"/>
<path d="M57.8882 1120.91H96.8438V1115.02H57.8882V1120.91ZM57.8882 1115.02H96.8438V1077.63H57.8882L57.8882 1115.02Z" fill="#D6D6D6"/>
<path d="M96.8449 1120.91L99.7305 1117.19V1081.48H96.8449V1120.91ZM55.0037 1117.19L57.8893 1120.91L57.8893 1081.48H55.0037L55.0037 1117.19Z" fill="#848484"/>
<path d="M110.904 1115.02H149.859" stroke="black" stroke-width="0.5"/>
<path d="M108.021 1117.19C108.021 1118.04 108.304 1118.87 108.826 1119.54C109.349 1120.22 110.08 1120.7 110.906 1120.91" stroke="black" stroke-width="0.5"/>
<path d="M149.86 1120.91C150.686 1120.7 151.418 1120.22 151.94 1119.54C152.463 1118.87 152.746 1118.04 152.746 1117.19" stroke="black" stroke-width="0.5"/>
<path d="M152.746 1117.19V1081.48H149.86" stroke="black" stroke-width="0.5"/>
<path d="M108.021 1117.19V1081.48H110.906" stroke="black" stroke-width="0.5"/>
<path d="M110.904 1077.63H149.859V1120.91H110.904V1077.63Z" stroke="black" stroke-width="0.5"/>
<path d="M110.904 1120.91H149.859V1115.02H110.904V1120.91ZM110.904 1115.02H149.859V1077.63H110.904V1115.02Z" fill="#D6D6D6"/>
<path d="M149.86 1120.91L152.746 1117.19V1081.48H149.86V1120.91ZM108.019 1117.19L110.905 1120.91V1081.48H108.019V1117.19Z" fill="#848484"/>
<path d="M262.924 956.445H156.892V1070.05H262.924V956.445ZM156.892 956.445H50.8594V1070.05H156.892V956.445Z" fill="#D6D6D6"/>
<path d="M224.297 1010.78H89.4844" stroke="black" stroke-width="0.5" stroke-dasharray="0.24 0.12"/>
<path d="M224.297 1015.7H89.4844" stroke="black" stroke-width="0.5" stroke-dasharray="0.24 0.12"/>
<path d="M88.7266 1010.79H225.054V1015.71H88.7266V1010.79Z" stroke="black" stroke-width="0.5" stroke-dasharray="0.24 0.12"/>
<path d="M81.1562 981.552V1044.94H88.73V981.552H81.1562Z" stroke="black" stroke-width="0.5" stroke-dasharray="0.24 0.12"/>
<path d="M81.1523 1009.46V1017.03" stroke="black" stroke-width="0.5" stroke-dasharray="0.24 0.12"/>
<path d="M232.628 981.552V1044.94H225.055V981.552H232.628Z" stroke="black" stroke-width="0.5" stroke-dasharray="0.24 0.12"/>
<path d="M223.274 974.357H217.973V1010.79H223.274V974.357Z" stroke="black" stroke-width="0.5" stroke-dasharray="0.24 0.12"/>
<path d="M223.274 1052.14H217.973V1015.71H223.274V1052.14Z" stroke="black" stroke-width="0.5" stroke-dasharray="0.24 0.12"/>
<path d="M90.5078 974.357H95.8094V1010.79H90.5078V974.357Z" stroke="black" stroke-width="0.5" stroke-dasharray="0.24 0.12"/>
<path d="M90.5078 1052.14H95.8094V1015.71H90.5078V1052.14Z" stroke="black" stroke-width="0.5" stroke-dasharray="0.24 0.12"/>
<path d="M154.242 974.357H159.544V1010.79H154.242V974.357Z" stroke="black" stroke-width="0.5" stroke-dasharray="0.24 0.12"/>
<path d="M154.242 1052.14H159.544V1015.71H154.242V1052.14Z" stroke="black" stroke-width="0.5" stroke-dasharray="0.24 0.12"/>
<path d="M50.8594 1070.05H262.924V956.445H50.8594V1070.05Z" stroke="black" stroke-width="0.5" stroke-linecap="round"/>
<path d="M156.891 956.445V1070.06" stroke="black" stroke-width="0.5" stroke-linecap="round"/>
<path d="M519.949 1032.72V993.768" stroke="black" stroke-width="0.5"/>
<path d="M522.115 1035.61C522.968 1035.61 523.796 1035.33 524.471 1034.8C525.145 1034.28 525.627 1033.55 525.84 1032.72" stroke="black" stroke-width="0.5"/>
<path d="M525.84 993.768C525.627 992.942 525.145 992.211 524.471 991.688C523.796 991.166 522.968 990.883 522.115 990.883" stroke="black" stroke-width="0.5"/>
<path d="M522.113 990.883H486.404V993.768" stroke="black" stroke-width="0.5"/>
<path d="M522.113 1035.61H486.404V1032.72" stroke="black" stroke-width="0.5"/>
<path d="M482.556 1032.72V993.768H525.84V1032.72H482.556Z" stroke="black" stroke-width="0.5"/>
<path d="M525.84 1032.72V993.768H519.948V1032.72H525.84ZM519.948 1032.72V993.768H482.556V1032.72H519.948Z" fill="#D6D6D6"/>
<path d="M525.84 993.768L522.115 990.883H486.405V993.768H525.84ZM522.115 1035.61L525.84 1032.72H486.405V1035.61H522.115Z" fill="#848484"/>
<path d="M308.913 911.478H269.957" stroke="black" stroke-width="0.5"/>
<path d="M311.796 909.312C311.796 908.459 311.512 907.631 310.99 906.956C310.468 906.282 309.736 905.8 308.91 905.587" stroke="black" stroke-width="0.5"/>
<path d="M269.956 905.587C269.13 905.8 268.398 906.282 267.876 906.956C267.354 907.631 267.07 908.459 267.07 909.312" stroke="black" stroke-width="0.5"/>
<path d="M267.07 909.312V945.022H269.956" stroke="black" stroke-width="0.5"/>
<path d="M311.796 909.312V945.022H308.91" stroke="black" stroke-width="0.5"/>
<path d="M308.913 948.871H269.957V905.587H308.913V948.871Z" stroke="black" stroke-width="0.5"/>
<path d="M308.913 905.587H269.957V911.479H308.913V905.587ZM308.913 911.479H269.957V948.871H308.913V911.479Z" fill="#D6D6D6"/>
<path d="M269.956 905.587L267.07 909.312V945.022H269.956V905.587ZM311.797 909.312L308.911 905.587V945.022H311.797V909.312Z" fill="#848484"/>
<path d="M361.928 911.478H322.973" stroke="black" stroke-width="0.5"/>
<path d="M364.811 909.312C364.811 908.459 364.528 907.631 364.006 906.956C363.483 906.282 362.752 905.8 361.926 905.587" stroke="black" stroke-width="0.5"/>
<path d="M322.972 905.587C322.146 905.8 321.414 906.282 320.892 906.956C320.369 907.631 320.086 908.459 320.086 909.312" stroke="black" stroke-width="0.5"/>
<path d="M320.086 909.312V945.022H322.972" stroke="black" stroke-width="0.5"/>
<path d="M364.811 909.312V945.022H361.926" stroke="black" stroke-width="0.5"/>
<path d="M361.928 948.871H322.973V905.587H361.928V948.871Z" stroke="black" stroke-width="0.5"/>
<path d="M361.928 905.587H322.973V911.479H361.928V905.587ZM361.928 911.479H322.973V948.871H361.928V911.479Z" fill="#D6D6D6"/>
<path d="M322.972 905.587L320.086 909.312V945.022H322.972V905.587ZM364.813 909.312L361.927 905.587V945.022H364.813V909.312Z" fill="#848484"/>
<path d="M467.96 911.478H429.004" stroke="black" stroke-width="0.5"/>
<path d="M470.843 909.312C470.843 908.459 470.559 907.631 470.037 906.956C469.515 906.282 468.783 905.8 467.957 905.587" stroke="black" stroke-width="0.5"/>
<path d="M429.003 905.587C428.177 905.8 427.445 906.282 426.923 906.956C426.401 907.631 426.117 908.459 426.117 909.312" stroke="black" stroke-width="0.5"/>
<path d="M426.117 909.312V945.022H429.003" stroke="black" stroke-width="0.5"/>
<path d="M470.843 909.312V945.022H467.957" stroke="black" stroke-width="0.5"/>
<path d="M467.959 948.871H429.004V905.587H467.959V948.871Z" stroke="black" stroke-width="0.5"/>
<path d="M467.959 905.587H429.004V911.479H467.959V905.587ZM467.959 911.479H429.004V948.871H467.959V911.479Z" fill="#D6D6D6"/>
<path d="M429.003 905.587L426.117 909.312V945.022H429.003V905.587ZM470.844 909.312L467.958 905.587V945.022H470.844V909.312Z" fill="#848484"/>
<path d="M414.944 911.478H375.988" stroke="black" stroke-width="0.5"/>
<path d="M417.827 909.312C417.827 908.459 417.544 907.631 417.021 906.956C416.499 906.282 415.767 905.8 414.941 905.587" stroke="black" stroke-width="0.5"/>
<path d="M375.987 905.587C375.161 905.8 374.43 906.282 373.907 906.956C373.385 907.631 373.102 908.459 373.102 909.312" stroke="black" stroke-width="0.5"/>
<path d="M373.102 909.312V945.022H375.987" stroke="black" stroke-width="0.5"/>
<path d="M417.827 909.312V945.022H414.941" stroke="black" stroke-width="0.5"/>
<path d="M414.944 948.871H375.988V905.587H414.944V948.871Z" stroke="black" stroke-width="0.5"/>
<path d="M414.944 905.587H375.988V911.479H414.944V905.587ZM414.944 911.479H375.988V948.871H414.944V911.479Z" fill="#D6D6D6"/>
<path d="M375.987 905.587L373.102 909.312V945.022H375.987V905.587ZM417.828 909.312L414.943 905.587V945.022H417.828V909.312Z" fill="#848484"/>
<path d="M269.955 1115.02H308.91" stroke="black" stroke-width="0.5"/>
<path d="M267.071 1117.19C267.071 1118.04 267.355 1118.87 267.877 1119.54C268.4 1120.22 269.131 1120.7 269.957 1120.91" stroke="black" stroke-width="0.5"/>
<path d="M308.911 1120.91C309.737 1120.7 310.469 1120.22 310.991 1119.54C311.513 1118.87 311.797 1118.04 311.797 1117.19" stroke="black" stroke-width="0.5"/>
<path d="M311.797 1117.19V1081.48H308.911" stroke="black" stroke-width="0.5"/>
<path d="M267.071 1117.19V1081.48H269.957" stroke="black" stroke-width="0.5"/>
<path d="M269.955 1077.63H308.91V1120.91H269.955V1077.63Z" stroke="black" stroke-width="0.5"/>
<path d="M269.955 1120.91H308.91V1115.02H269.955V1120.91ZM269.955 1115.02H308.91V1077.63H269.955V1115.02Z" fill="#D6D6D6"/>
<path d="M308.911 1120.91L311.797 1117.19V1081.48H308.911V1120.91ZM267.07 1117.19L269.956 1120.91V1081.48H267.07V1117.19Z" fill="#848484"/>
<path d="M322.97 1115.02H361.926" stroke="black" stroke-width="0.5"/>
<path d="M320.087 1117.19C320.087 1118.04 320.371 1118.87 320.893 1119.54C321.415 1120.22 322.147 1120.7 322.973 1120.91" stroke="black" stroke-width="0.5"/>
<path d="M361.927 1120.91C362.753 1120.7 363.484 1120.22 364.007 1119.54C364.529 1118.87 364.812 1118.04 364.812 1117.19" stroke="black" stroke-width="0.5"/>
<path d="M364.812 1117.19V1081.48H361.927" stroke="black" stroke-width="0.5"/>
<path d="M320.087 1117.19V1081.48H322.973" stroke="black" stroke-width="0.5"/>
<path d="M322.97 1077.63H361.926V1120.91H322.97V1077.63Z" stroke="black" stroke-width="0.5"/>
<path d="M322.97 1120.91H361.926V1115.02H322.97V1120.91ZM322.97 1115.02H361.926V1077.63H322.97V1115.02Z" fill="#D6D6D6"/>
<path d="M361.927 1120.91L364.812 1117.19V1081.48H361.927V1120.91ZM320.086 1117.19L322.971 1120.91V1081.48H320.086V1117.19Z" fill="#848484"/>
<path d="M429.001 1115.02H467.957" stroke="black" stroke-width="0.5"/>
<path d="M426.118 1117.19C426.118 1118.04 426.402 1118.87 426.924 1119.54C427.446 1120.22 428.178 1120.7 429.004 1120.91" stroke="black" stroke-width="0.5"/>
<path d="M467.958 1120.91C468.784 1120.7 469.516 1120.22 470.038 1119.54C470.56 1118.87 470.844 1118.04 470.844 1117.19" stroke="black" stroke-width="0.5"/>
<path d="M470.844 1117.19V1081.48H467.958" stroke="black" stroke-width="0.5"/>
<path d="M426.118 1117.19V1081.48H429.004" stroke="black" stroke-width="0.5"/>
<path d="M429.001 1077.63H467.957V1120.91H429.001V1077.63Z" stroke="black" stroke-width="0.5"/>
<path d="M429.001 1120.91H467.957V1115.02H429.001V1120.91ZM429.001 1115.02H467.957V1077.63H429.001V1115.02Z" fill="#D6D6D6"/>
<path d="M467.958 1120.91L470.844 1117.19V1081.48H467.958V1120.91ZM426.117 1117.19L429.003 1120.91V1081.48H426.117V1117.19Z" fill="#848484"/>
<path d="M375.986 1115.02H414.941" stroke="black" stroke-width="0.5"/>
<path d="M373.103 1117.19C373.103 1118.04 373.386 1118.87 373.908 1119.54C374.431 1120.22 375.162 1120.7 375.988 1120.91" stroke="black" stroke-width="0.5"/>
<path d="M414.943 1120.91C415.768 1120.7 416.5 1120.22 417.022 1119.54C417.545 1118.87 417.828 1118.04 417.828 1117.19" stroke="black" stroke-width="0.5"/>
<path d="M417.828 1117.19V1081.48H414.943" stroke="black" stroke-width="0.5"/>
<path d="M373.103 1117.19V1081.48H375.988" stroke="black" stroke-width="0.5"/>
<path d="M375.986 1077.63H414.941V1120.91H375.986V1077.63Z" stroke="black" stroke-width="0.5"/>
<path d="M375.986 1120.91H414.941V1115.02H375.986V1120.91ZM375.986 1115.02H414.941V1077.63H375.986V1115.02Z" fill="#D6D6D6"/>
<path d="M414.943 1120.91L417.828 1117.19V1081.48H414.943V1120.91ZM373.101 1117.19L375.987 1120.91V1081.48H373.101V1117.19Z" fill="#848484"/>
<path d="M262.924 956.445H156.892V1070.05H262.924V956.445ZM156.892 956.445H50.8594V1070.05H156.892V956.445Z" fill="#D6D6D6"/>
<path d="M224.297 1010.78H89.4844" stroke="black" stroke-width="0.5" stroke-dasharray="0.24 0.12"/>
<path d="M224.297 1015.7H89.4844" stroke="black" stroke-width="0.5" stroke-dasharray="0.24 0.12"/>
<path d="M88.7266 1010.79H225.054V1015.71H88.7266V1010.79Z" stroke="black" stroke-width="0.5" stroke-dasharray="0.24 0.12"/>
<path d="M81.1562 981.552V1044.94H88.73V981.552H81.1562Z" stroke="black" stroke-width="0.5" stroke-dasharray="0.24 0.12"/>
<path d="M81.1523 1009.46V1017.03" stroke="black" stroke-width="0.5" stroke-dasharray="0.24 0.12"/>
<path d="M232.628 981.552V1044.94H225.055V981.552H232.628Z" stroke="black" stroke-width="0.5" stroke-dasharray="0.24 0.12"/>
<path d="M223.274 974.357H217.973V1010.79H223.274V974.357Z" stroke="black" stroke-width="0.5" stroke-dasharray="0.24 0.12"/>
<path d="M223.274 1052.14H217.973V1015.71H223.274V1052.14Z" stroke="black" stroke-width="0.5" stroke-dasharray="0.24 0.12"/>
<path d="M90.5078 974.357H95.8094V1010.79H90.5078V974.357Z" stroke="black" stroke-width="0.5" stroke-dasharray="0.24 0.12"/>
<path d="M90.5078 1052.14H95.8094V1015.71H90.5078V1052.14Z" stroke="black" stroke-width="0.5" stroke-dasharray="0.24 0.12"/>
<path d="M154.242 974.357H159.544V1010.79H154.242V974.357Z" stroke="black" stroke-width="0.5" stroke-dasharray="0.24 0.12"/>
<path d="M154.242 1052.14H159.544V1015.71H154.242V1052.14Z" stroke="black" stroke-width="0.5" stroke-dasharray="0.24 0.12"/>
<path d="M50.8594 1070.05H262.924V956.445H50.8594V1070.05Z" stroke="black" stroke-width="0.5" stroke-linecap="round"/>
<path d="M156.891 956.445V1070.06" stroke="black" stroke-width="0.5" stroke-linecap="round"/>
</g>
<defs>
<clipPath id="clip0_3150_6503">
<rect width="793.701" height="1122.52" fill="white"/>
</clipPath>
</defs>
</svg>
