<svg width="794" height="1123" viewBox="0 0 794 1123" fill="none" xmlns="http://www.w3.org/2000/svg">
<path d="M248.412 619.802L292.73 645.39" stroke="black" stroke-width="0.5"/>
<path d="M243.707 620.372C243.147 621.342 242.925 622.471 243.076 623.582C243.227 624.692 243.743 625.72 244.543 626.505" stroke="black" stroke-width="0.5"/>
<path d="M288.862 652.092C289.941 652.392 291.09 652.325 292.127 651.901C293.164 651.477 294.031 650.72 294.591 649.75" stroke="black" stroke-width="0.5"/>
<path d="M294.59 649.75L318.045 609.125L314.762 607.23" stroke="black" stroke-width="0.5"/>
<path d="M243.709 620.372L267.164 579.747L270.447 581.643" stroke="black" stroke-width="0.5"/>
<path d="M272.975 577.263L317.293 602.85L288.863 652.093L244.545 626.506L272.975 577.263Z" stroke="black" stroke-width="0.5"/>
<path d="M244.545 626.506L288.863 652.093L292.733 645.39L248.415 619.803L244.545 626.506ZM248.415 619.803L292.733 645.39L317.293 602.85L272.975 577.263L248.415 619.803Z" fill="#D6D6D6"/>
<path d="M288.862 652.092L294.591 649.75L318.046 609.125L314.763 607.229L288.862 652.092ZM243.707 620.372L244.543 626.505L270.445 581.642L267.162 579.747L243.707 620.372Z" fill="#848484"/>
<path d="M188.096 584.982L232.414 610.569" stroke="black" stroke-width="0.5"/>
<path d="M183.391 585.552C182.83 586.522 182.608 587.651 182.76 588.761C182.911 589.872 183.427 590.9 184.227 591.685" stroke="black" stroke-width="0.5"/>
<path d="M228.545 617.272C229.625 617.572 230.774 617.505 231.811 617.081C232.848 616.657 233.715 615.9 234.275 614.929" stroke="black" stroke-width="0.5"/>
<path d="M234.273 614.93L257.728 574.305L254.446 572.409" stroke="black" stroke-width="0.5"/>
<path d="M183.393 585.552L206.848 544.927L210.131 546.822" stroke="black" stroke-width="0.5"/>
<path d="M212.659 542.443L256.977 568.03L228.547 617.272L184.229 591.685L212.659 542.443Z" stroke="black" stroke-width="0.5"/>
<path d="M184.229 591.685L228.547 617.272L232.417 610.57L188.098 584.983L184.229 591.685ZM188.098 584.983L232.417 610.57L256.977 568.03L212.659 542.443L188.098 584.983Z" fill="#D6D6D6"/>
<path d="M228.545 617.272L234.275 614.929L257.73 574.304L254.447 572.409L228.545 617.272ZM183.391 585.552L184.227 591.685L210.129 546.822L206.846 544.927L183.391 585.552Z" fill="#848484"/>
<path d="M67.4669 515.332L111.785 540.919" stroke="black" stroke-width="0.5"/>
<path d="M62.7617 515.902C62.2014 516.872 61.9795 518.001 62.1308 519.111C62.2821 520.222 62.7981 521.25 63.5977 522.035" stroke="black" stroke-width="0.5"/>
<path d="M107.916 547.622C108.996 547.922 110.145 547.855 111.182 547.431C112.219 547.007 113.086 546.25 113.646 545.28" stroke="black" stroke-width="0.5"/>
<path d="M113.645 545.28L137.099 504.655L133.817 502.759" stroke="black" stroke-width="0.5"/>
<path d="M62.764 515.902L86.2189 475.277L89.5018 477.172" stroke="black" stroke-width="0.5"/>
<path d="M92.0299 472.793L136.348 498.38L107.918 547.623L63.5997 522.035L92.0299 472.793Z" stroke="black" stroke-width="0.5"/>
<path d="M63.5997 522.035L107.918 547.623L111.788 540.92L67.4694 515.333L63.5997 522.035ZM67.4694 515.333L111.788 540.92L136.348 498.38L92.0299 472.793L67.4694 515.333Z" fill="#D6D6D6"/>
<path d="M107.916 547.622L113.646 545.28L137.101 504.654L133.818 502.759L107.916 547.622ZM62.7622 515.902L63.5982 522.035L89.4999 477.172L86.2171 475.277L62.7622 515.902Z" fill="#848484"/>
<path d="M127.783 550.152L172.102 575.739" stroke="black" stroke-width="0.5"/>
<path d="M123.078 550.722C122.518 551.692 122.296 552.821 122.447 553.931C122.599 555.042 123.115 556.07 123.914 556.855" stroke="black" stroke-width="0.5"/>
<path d="M168.233 582.442C169.312 582.742 170.461 582.675 171.498 582.251C172.535 581.826 173.402 581.07 173.962 580.099" stroke="black" stroke-width="0.5"/>
<path d="M173.961 580.1L197.416 539.475L194.133 537.579" stroke="black" stroke-width="0.5"/>
<path d="M123.08 550.722L146.535 510.097L149.818 511.992" stroke="black" stroke-width="0.5"/>
<path d="M152.346 507.613L196.665 533.2L168.234 582.442L123.916 556.855L152.346 507.613Z" stroke="black" stroke-width="0.5"/>
<path d="M123.916 556.855L168.234 582.442L172.104 575.74L127.786 550.153L123.916 556.855ZM127.786 550.153L172.104 575.74L196.665 533.2L152.346 507.613L127.786 550.153Z" fill="#D6D6D6"/>
<path d="M168.233 582.442L173.962 580.099L197.417 539.474L194.135 537.579L168.233 582.442ZM123.079 550.722L123.915 556.855L149.816 511.992L146.533 510.096L123.079 550.722Z" fill="#848484"/>
<path d="M248.412 759.093L292.73 784.68" stroke="black" stroke-width="0.5"/>
<path d="M243.707 759.662C243.147 760.632 242.925 761.761 243.076 762.872C243.227 763.982 243.743 765.01 244.543 765.795" stroke="black" stroke-width="0.5"/>
<path d="M288.862 791.382C289.941 791.682 291.09 791.615 292.127 791.191C293.164 790.767 294.031 790.01 294.591 789.04" stroke="black" stroke-width="0.5"/>
<path d="M294.59 789.04L318.045 748.415L314.762 746.52" stroke="black" stroke-width="0.5"/>
<path d="M243.709 759.662L267.164 719.037L270.447 720.933" stroke="black" stroke-width="0.5"/>
<path d="M272.975 716.553L317.293 742.14L288.863 791.383L244.545 765.796L272.975 716.553Z" stroke="black" stroke-width="0.5"/>
<path d="M244.545 765.796L288.863 791.383L292.733 784.68L248.415 759.093L244.545 765.796ZM248.415 759.093L292.733 784.68L317.293 742.14L272.975 716.553L248.415 759.093Z" fill="#D6D6D6"/>
<path d="M288.862 791.382L294.591 789.04L318.046 748.415L314.763 746.519L288.862 791.382ZM243.707 759.662L244.543 765.795L270.445 720.932L267.162 719.037L243.707 759.662Z" fill="#848484"/>
<path d="M188.096 724.272L232.414 749.859" stroke="black" stroke-width="0.5"/>
<path d="M183.391 724.842C182.83 725.812 182.608 726.941 182.76 728.051C182.911 729.162 183.427 730.19 184.227 730.975" stroke="black" stroke-width="0.5"/>
<path d="M228.545 756.562C229.625 756.862 230.774 756.795 231.811 756.371C232.848 755.947 233.715 755.19 234.275 754.219" stroke="black" stroke-width="0.5"/>
<path d="M234.273 754.22L257.728 713.595L254.446 711.699" stroke="black" stroke-width="0.5"/>
<path d="M183.393 724.842L206.848 684.217L210.131 686.112" stroke="black" stroke-width="0.5"/>
<path d="M212.659 681.733L256.977 707.32L228.547 756.562L184.229 730.975L212.659 681.733Z" stroke="black" stroke-width="0.5"/>
<path d="M184.229 730.975L228.547 756.562L232.417 749.86L188.098 724.273L184.229 730.975ZM188.098 724.273L232.417 749.86L256.977 707.32L212.659 681.733L188.098 724.273Z" fill="#D6D6D6"/>
<path d="M228.545 756.562L234.275 754.219L257.73 713.594L254.447 711.699L228.545 756.562ZM183.391 724.842L184.227 730.975L210.129 686.112L206.846 684.217L183.391 724.842Z" fill="#848484"/>
<path d="M67.4669 654.622L111.785 680.209" stroke="black" stroke-width="0.5"/>
<path d="M62.7617 655.192C62.2014 656.162 61.9795 657.291 62.1308 658.401C62.2821 659.512 62.7981 660.54 63.5977 661.325" stroke="black" stroke-width="0.5"/>
<path d="M107.916 686.912C108.996 687.212 110.145 687.145 111.182 686.721C112.219 686.297 113.086 685.54 113.646 684.57" stroke="black" stroke-width="0.5"/>
<path d="M113.645 684.57L137.099 643.945L133.817 642.049" stroke="black" stroke-width="0.5"/>
<path d="M62.764 655.192L86.2189 614.567L89.5018 616.462" stroke="black" stroke-width="0.5"/>
<path d="M92.0299 612.083L136.348 637.67L107.918 686.913L63.5997 661.325L92.0299 612.083Z" stroke="black" stroke-width="0.5"/>
<path d="M63.5997 661.325L107.918 686.913L111.788 680.21L67.4694 654.623L63.5997 661.325ZM67.4694 654.623L111.788 680.21L136.348 637.67L92.0299 612.083L67.4694 654.623Z" fill="#D6D6D6"/>
<path d="M107.916 686.912L113.646 684.57L137.101 643.945L133.818 642.049L107.916 686.912ZM62.7622 655.192L63.5982 661.325L89.4999 616.462L86.2171 614.567L62.7622 655.192Z" fill="#848484"/>
<path d="M127.783 689.442L172.102 715.029" stroke="black" stroke-width="0.5"/>
<path d="M123.078 690.012C122.518 690.982 122.296 692.111 122.447 693.221C122.599 694.332 123.115 695.36 123.914 696.145" stroke="black" stroke-width="0.5"/>
<path d="M168.233 721.732C169.312 722.032 170.461 721.965 171.498 721.541C172.535 721.116 173.402 720.36 173.962 719.389" stroke="black" stroke-width="0.5"/>
<path d="M173.961 719.39L197.416 678.765L194.133 676.869" stroke="black" stroke-width="0.5"/>
<path d="M123.08 690.012L146.535 649.387L149.818 651.282" stroke="black" stroke-width="0.5"/>
<path d="M152.346 646.903L196.665 672.49L168.234 721.732L123.916 696.145L152.346 646.903Z" stroke="black" stroke-width="0.5"/>
<path d="M123.916 696.145L168.234 721.732L172.104 715.03L127.786 689.443L123.916 696.145ZM127.786 689.443L172.104 715.03L196.665 672.49L152.346 646.903L127.786 689.443Z" fill="#D6D6D6"/>
<path d="M168.233 721.732L173.962 719.389L197.417 678.764L194.135 676.869L168.233 721.732ZM123.079 690.012L123.915 696.145L149.816 651.282L146.533 649.386L123.079 690.012Z" fill="#848484"/>
<path d="M7.15443 619.802L51.4727 645.39" stroke="black" stroke-width="0.5"/>
<path d="M2.44916 620.372C1.88891 621.342 1.667 622.471 1.81832 623.582C1.96963 624.692 2.48565 625.72 3.28516 626.505" stroke="black" stroke-width="0.5"/>
<path d="M47.6039 652.092C48.6835 652.392 49.8322 652.325 50.8693 651.901C51.9065 651.477 52.7733 650.72 53.3336 649.75" stroke="black" stroke-width="0.5"/>
<path d="M53.332 649.75L76.7869 609.125L73.5041 607.23" stroke="black" stroke-width="0.5"/>
<path d="M2.45154 620.372L25.9064 579.747L29.1893 581.643" stroke="black" stroke-width="0.5"/>
<path d="M31.7174 577.263L76.0356 602.85L47.6055 652.093L3.28724 626.506L31.7174 577.263Z" stroke="black" stroke-width="0.5"/>
<path d="M3.28724 626.506L47.6055 652.093L51.4751 645.39L7.15687 619.803L3.28724 626.506ZM7.15687 619.803L51.4751 645.39L76.0356 602.85L31.7174 577.263L7.15687 619.803Z" fill="#D6D6D6"/>
<path d="M47.6039 652.092L53.3336 649.75L76.7885 609.125L73.5056 607.229L47.6039 652.092ZM2.44966 620.372L3.28565 626.505L29.1874 581.642L25.9046 579.747L2.44966 620.372Z" fill="#848484"/>
<path d="M248.412 898.383L292.73 923.97" stroke="black" stroke-width="0.5"/>
<path d="M243.707 898.952C243.147 899.922 242.925 901.052 243.076 902.162C243.227 903.272 243.743 904.3 244.543 905.085" stroke="black" stroke-width="0.5"/>
<path d="M288.862 930.673C289.941 930.972 291.09 930.905 292.127 930.481C293.164 930.057 294.031 929.3 294.591 928.33" stroke="black" stroke-width="0.5"/>
<path d="M294.59 928.33L318.045 887.705L314.762 885.81" stroke="black" stroke-width="0.5"/>
<path d="M243.709 898.952L267.164 858.327L270.447 860.223" stroke="black" stroke-width="0.5"/>
<path d="M272.975 855.843L317.293 881.43L288.863 930.673L244.545 905.086L272.975 855.843Z" stroke="black" stroke-width="0.5"/>
<path d="M244.545 905.086L288.863 930.673L292.733 923.97L248.415 898.383L244.545 905.086ZM248.415 898.383L292.733 923.97L317.293 881.43L272.975 855.843L248.415 898.383Z" fill="#D6D6D6"/>
<path d="M288.862 930.673L294.591 928.33L318.046 887.705L314.763 885.809L288.862 930.673ZM243.707 898.952L244.543 905.085L270.445 860.222L267.162 858.327L243.707 898.952Z" fill="#848484"/>
<path d="M188.096 863.562L232.414 889.149" stroke="black" stroke-width="0.5"/>
<path d="M183.391 864.132C182.83 865.102 182.608 866.231 182.76 867.341C182.911 868.452 183.427 869.48 184.227 870.265" stroke="black" stroke-width="0.5"/>
<path d="M228.545 895.852C229.625 896.152 230.774 896.085 231.811 895.661C232.848 895.237 233.715 894.48 234.275 893.51" stroke="black" stroke-width="0.5"/>
<path d="M234.273 893.51L257.728 852.885L254.446 850.989" stroke="black" stroke-width="0.5"/>
<path d="M183.393 864.132L206.848 823.507L210.131 825.402" stroke="black" stroke-width="0.5"/>
<path d="M212.659 821.023L256.977 846.61L228.547 895.853L184.229 870.265L212.659 821.023Z" stroke="black" stroke-width="0.5"/>
<path d="M184.229 870.265L228.547 895.853L232.417 889.15L188.098 863.563L184.229 870.265ZM188.098 863.563L232.417 889.15L256.977 846.61L212.659 821.023L188.098 863.563Z" fill="#D6D6D6"/>
<path d="M228.545 895.852L234.275 893.51L257.73 852.884L254.447 850.989L228.545 895.852ZM183.391 864.132L184.227 870.265L210.129 825.402L206.846 823.507L183.391 864.132Z" fill="#848484"/>
<path d="M67.4669 793.912L111.785 819.5" stroke="black" stroke-width="0.5"/>
<path d="M62.7617 794.482C62.2014 795.452 61.9795 796.581 62.1308 797.692C62.2821 798.802 62.7981 799.83 63.5977 800.615" stroke="black" stroke-width="0.5"/>
<path d="M107.916 826.202C108.996 826.502 110.145 826.435 111.182 826.011C112.219 825.587 113.086 824.83 113.646 823.86" stroke="black" stroke-width="0.5"/>
<path d="M113.645 823.86L137.099 783.235L133.817 781.339" stroke="black" stroke-width="0.5"/>
<path d="M62.764 794.482L86.2189 753.857L89.5018 755.752" stroke="black" stroke-width="0.5"/>
<path d="M92.0299 751.373L136.348 776.96L107.918 826.203L63.5997 800.615L92.0299 751.373Z" stroke="black" stroke-width="0.5"/>
<path d="M63.5997 800.615L107.918 826.203L111.788 819.5L67.4694 793.913L63.5997 800.615ZM67.4694 793.913L111.788 819.5L136.348 776.96L92.0299 751.373L67.4694 793.913Z" fill="#D6D6D6"/>
<path d="M107.916 826.202L113.646 823.86L137.101 783.235L133.818 781.339L107.916 826.202ZM62.7622 794.482L63.5982 800.615L89.4999 755.752L86.2171 753.857L62.7622 794.482Z" fill="#848484"/>
<path d="M127.783 828.732L172.102 854.319" stroke="black" stroke-width="0.5"/>
<path d="M123.078 829.302C122.518 830.272 122.296 831.401 122.447 832.511C122.599 833.622 123.115 834.65 123.914 835.435" stroke="black" stroke-width="0.5"/>
<path d="M168.233 861.022C169.312 861.322 170.461 861.255 171.498 860.831C172.535 860.407 173.402 859.65 173.962 858.679" stroke="black" stroke-width="0.5"/>
<path d="M173.961 858.68L197.416 818.055L194.133 816.159" stroke="black" stroke-width="0.5"/>
<path d="M123.08 829.302L146.535 788.677L149.818 790.572" stroke="black" stroke-width="0.5"/>
<path d="M152.346 786.193L196.665 811.78L168.234 861.022L123.916 835.435L152.346 786.193Z" stroke="black" stroke-width="0.5"/>
<path d="M123.916 835.435L168.234 861.022L172.104 854.32L127.786 828.733L123.916 835.435ZM127.786 828.733L172.104 854.32L196.665 811.78L152.346 786.193L127.786 828.733Z" fill="#D6D6D6"/>
<path d="M168.233 861.022L173.962 858.679L197.417 818.054L194.135 816.159L168.233 861.022ZM123.079 829.302L123.915 835.435L149.816 790.572L146.533 788.677L123.079 829.302Z" fill="#848484"/>
<path d="M7.15443 759.093L51.4727 784.68" stroke="black" stroke-width="0.5"/>
<path d="M2.44916 759.662C1.88891 760.632 1.667 761.761 1.81832 762.872C1.96963 763.982 2.48565 765.01 3.28516 765.795" stroke="black" stroke-width="0.5"/>
<path d="M47.6039 791.382C48.6835 791.682 49.8322 791.615 50.8693 791.191C51.9065 790.767 52.7733 790.01 53.3336 789.04" stroke="black" stroke-width="0.5"/>
<path d="M53.332 789.04L76.7869 748.415L73.5041 746.52" stroke="black" stroke-width="0.5"/>
<path d="M2.45154 759.662L25.9064 719.037L29.1893 720.933" stroke="black" stroke-width="0.5"/>
<path d="M31.7174 716.553L76.0356 742.14L47.6055 791.383L3.28724 765.796L31.7174 716.553Z" stroke="black" stroke-width="0.5"/>
<path d="M3.28724 765.796L47.6055 791.383L51.4751 784.68L7.15687 759.093L3.28724 765.796ZM7.15687 759.093L51.4751 784.68L76.0356 742.14L31.7174 716.553L7.15687 759.093Z" fill="#D6D6D6"/>
<path d="M47.6039 791.382L53.3336 789.04L76.7885 748.415L73.5056 746.519L47.6039 791.382ZM2.44966 759.662L3.28565 765.795L29.1874 720.932L25.9046 719.037L2.44966 759.662Z" fill="#848484"/>
<path d="M248.412 1037.67L292.73 1063.26" stroke="black" stroke-width="0.5"/>
<path d="M243.707 1038.24C243.147 1039.21 242.925 1040.34 243.076 1041.45C243.227 1042.56 243.743 1043.59 244.543 1044.38" stroke="black" stroke-width="0.5"/>
<path d="M288.862 1069.96C289.941 1070.26 291.09 1070.2 292.127 1069.77C293.164 1069.35 294.031 1068.59 294.591 1067.62" stroke="black" stroke-width="0.5"/>
<path d="M294.59 1067.62L318.045 1027L314.762 1025.1" stroke="black" stroke-width="0.5"/>
<path d="M243.709 1038.24L267.164 997.617L270.447 999.513" stroke="black" stroke-width="0.5"/>
<path d="M272.975 995.133L317.293 1020.72L288.863 1069.96L244.545 1044.38L272.975 995.133Z" stroke="black" stroke-width="0.5"/>
<path d="M244.545 1044.38L288.863 1069.96L292.733 1063.26L248.415 1037.67L244.545 1044.38ZM248.415 1037.67L292.733 1063.26L317.293 1020.72L272.975 995.133L248.415 1037.67Z" fill="#D6D6D6"/>
<path d="M288.862 1069.96L294.591 1067.62L318.046 1026.99L314.763 1025.1L288.862 1069.96ZM243.707 1038.24L244.543 1044.38L270.445 999.512L267.162 997.617L243.707 1038.24Z" fill="#848484"/>
<path d="M188.096 1002.85L232.414 1028.44" stroke="black" stroke-width="0.5"/>
<path d="M183.391 1003.42C182.83 1004.39 182.608 1005.52 182.76 1006.63C182.911 1007.74 183.427 1008.77 184.227 1009.56" stroke="black" stroke-width="0.5"/>
<path d="M228.545 1035.14C229.625 1035.44 230.774 1035.37 231.811 1034.95C232.848 1034.53 233.715 1033.77 234.275 1032.8" stroke="black" stroke-width="0.5"/>
<path d="M234.273 1032.8L257.728 992.175L254.446 990.279" stroke="black" stroke-width="0.5"/>
<path d="M183.393 1003.42L206.848 962.797L210.131 964.692" stroke="black" stroke-width="0.5"/>
<path d="M212.659 960.313L256.977 985.9L228.547 1035.14L184.229 1009.56L212.659 960.313Z" stroke="black" stroke-width="0.5"/>
<path d="M184.229 1009.56L228.547 1035.14L232.417 1028.44L188.098 1002.85L184.229 1009.56ZM188.098 1002.85L232.417 1028.44L256.977 985.9L212.659 960.313L188.098 1002.85Z" fill="#D6D6D6"/>
<path d="M228.545 1035.14L234.275 1032.8L257.73 992.175L254.447 990.279L228.545 1035.14ZM183.391 1003.42L184.227 1009.56L210.129 964.692L206.846 962.797L183.391 1003.42Z" fill="#848484"/>
<path d="M67.4669 933.202L111.785 958.79" stroke="black" stroke-width="0.5"/>
<path d="M62.7617 933.772C62.2014 934.742 61.9795 935.871 62.1308 936.982C62.2821 938.092 62.7981 939.12 63.5977 939.905" stroke="black" stroke-width="0.5"/>
<path d="M107.916 965.492C108.996 965.792 110.145 965.725 111.182 965.301C112.219 964.877 113.086 964.12 113.646 963.15" stroke="black" stroke-width="0.5"/>
<path d="M113.645 963.15L137.099 922.525L133.817 920.63" stroke="black" stroke-width="0.5"/>
<path d="M62.764 933.772L86.2189 893.147L89.5018 895.042" stroke="black" stroke-width="0.5"/>
<path d="M92.0299 890.663L136.348 916.25L107.918 965.493L63.5997 939.906L92.0299 890.663Z" stroke="black" stroke-width="0.5"/>
<path d="M63.5997 939.906L107.918 965.493L111.788 958.79L67.4694 933.203L63.5997 939.906ZM67.4694 933.203L111.788 958.79L136.348 916.25L92.0299 890.663L67.4694 933.203Z" fill="#D6D6D6"/>
<path d="M107.916 965.492L113.646 963.15L137.101 922.525L133.818 920.629L107.916 965.492ZM62.7622 933.772L63.5982 939.905L89.4999 895.042L86.2171 893.147L62.7622 933.772Z" fill="#848484"/>
<path d="M127.783 968.022L172.102 993.609" stroke="black" stroke-width="0.5"/>
<path d="M123.078 968.592C122.518 969.562 122.296 970.691 122.447 971.801C122.599 972.912 123.115 973.94 123.914 974.725" stroke="black" stroke-width="0.5"/>
<path d="M168.233 1000.31C169.312 1000.61 170.461 1000.54 171.498 1000.12C172.535 999.697 173.402 998.94 173.962 997.969" stroke="black" stroke-width="0.5"/>
<path d="M173.961 997.97L197.416 957.345L194.133 955.449" stroke="black" stroke-width="0.5"/>
<path d="M123.08 968.592L146.535 927.967L149.818 929.862" stroke="black" stroke-width="0.5"/>
<path d="M152.346 925.483L196.665 951.07L168.234 1000.31L123.916 974.725L152.346 925.483Z" stroke="black" stroke-width="0.5"/>
<path d="M123.916 974.725L168.234 1000.31L172.104 993.61L127.786 968.023L123.916 974.725ZM127.786 968.023L172.104 993.61L196.665 951.07L152.346 925.483L127.786 968.023Z" fill="#D6D6D6"/>
<path d="M168.233 1000.31L173.962 997.969L197.417 957.344L194.135 955.449L168.233 1000.31ZM123.079 968.592L123.915 974.725L149.816 929.862L146.533 927.967L123.079 968.592Z" fill="#848484"/>
<path d="M7.15443 898.383L51.4727 923.97" stroke="black" stroke-width="0.5"/>
<path d="M2.44916 898.952C1.88891 899.922 1.667 901.052 1.81832 902.162C1.96963 903.272 2.48565 904.3 3.28516 905.085" stroke="black" stroke-width="0.5"/>
<path d="M47.6039 930.673C48.6835 930.972 49.8322 930.905 50.8693 930.481C51.9065 930.057 52.7733 929.3 53.3336 928.33" stroke="black" stroke-width="0.5"/>
<path d="M53.332 928.33L76.7869 887.705L73.5041 885.81" stroke="black" stroke-width="0.5"/>
<path d="M2.45154 898.952L25.9064 858.327L29.1893 860.223" stroke="black" stroke-width="0.5"/>
<path d="M31.7174 855.843L76.0356 881.43L47.6055 930.673L3.28724 905.086L31.7174 855.843Z" stroke="black" stroke-width="0.5"/>
<path d="M3.28724 905.086L47.6055 930.673L51.4751 923.97L7.15687 898.383L3.28724 905.086ZM7.15687 898.383L51.4751 923.97L76.0356 881.43L31.7174 855.843L7.15687 898.383Z" fill="#D6D6D6"/>
<path d="M47.6039 930.673L53.3336 928.33L76.7885 887.705L73.5056 885.809L47.6039 930.673ZM2.44966 898.952L3.28565 905.085L29.1874 860.222L25.9046 858.327L2.44966 898.952Z" fill="#848484"/>
<path d="M461.236 784.677L505.555 759.09" stroke="black" stroke-width="0.5"/>
<path d="M459.38 789.038C459.94 790.008 460.807 790.765 461.844 791.189C462.881 791.613 464.03 791.68 465.109 791.38" stroke="black" stroke-width="0.5"/>
<path d="M509.428 765.793C510.228 765.008 510.744 763.98 510.895 762.87C511.046 761.759 510.824 760.63 510.264 759.66" stroke="black" stroke-width="0.5"/>
<path d="M510.262 759.66L486.807 719.035L483.524 720.93" stroke="black" stroke-width="0.5"/>
<path d="M459.377 789.037L435.922 748.412L439.205 746.517" stroke="black" stroke-width="0.5"/>
<path d="M436.677 742.138L480.996 716.55L509.426 765.793L465.108 791.38L436.677 742.138Z" stroke="black" stroke-width="0.5"/>
<path d="M465.108 791.38L509.426 765.793L505.556 759.091L461.238 784.678L465.108 791.38ZM461.238 784.678L505.556 759.091L480.996 716.55L436.677 742.138L461.238 784.678Z" fill="#D6D6D6"/>
<path d="M509.428 765.793L510.264 759.66L486.809 719.035L483.526 720.93L509.428 765.793ZM459.38 789.038L465.11 791.38L439.208 746.517L435.925 748.413L459.38 789.038Z" fill="#848484"/>
<path d="M521.557 749.858L565.875 724.271" stroke="black" stroke-width="0.5"/>
<path d="M519.7 754.218C520.26 755.188 521.127 755.945 522.164 756.369C523.201 756.793 524.35 756.86 525.43 756.561" stroke="black" stroke-width="0.5"/>
<path d="M569.748 730.973C570.548 730.188 571.064 729.16 571.215 728.05C571.367 726.94 571.145 725.81 570.584 724.84" stroke="black" stroke-width="0.5"/>
<path d="M570.582 724.84L547.127 684.215L543.844 686.11" stroke="black" stroke-width="0.5"/>
<path d="M519.698 754.218L496.243 713.593L499.526 711.697" stroke="black" stroke-width="0.5"/>
<path d="M496.998 707.318L541.316 681.731L569.746 730.973L525.428 756.56L496.998 707.318Z" stroke="black" stroke-width="0.5"/>
<path d="M525.428 756.56L569.746 730.973L565.876 724.271L521.558 749.858L525.428 756.56ZM521.558 749.858L565.876 724.271L541.316 681.731L496.998 707.318L521.558 749.858Z" fill="#D6D6D6"/>
<path d="M569.748 730.973L570.584 724.84L547.13 684.215L543.847 686.11L569.748 730.973ZM519.701 754.218L525.43 756.561L499.528 711.698L496.246 713.593L519.701 754.218Z" fill="#848484"/>
<path d="M642.186 680.208L686.504 654.621" stroke="black" stroke-width="0.5"/>
<path d="M640.329 684.568C640.889 685.538 641.756 686.295 642.793 686.719C643.83 687.143 644.979 687.211 646.059 686.911" stroke="black" stroke-width="0.5"/>
<path d="M690.377 661.324C691.177 660.539 691.693 659.51 691.844 658.4C691.995 657.29 691.774 656.161 691.213 655.19" stroke="black" stroke-width="0.5"/>
<path d="M691.211 655.19L667.756 614.565L664.473 616.46" stroke="black" stroke-width="0.5"/>
<path d="M640.327 684.568L616.872 643.943L620.154 642.047" stroke="black" stroke-width="0.5"/>
<path d="M617.627 637.668L661.945 612.081L690.375 661.323L646.057 686.91L617.627 637.668Z" stroke="black" stroke-width="0.5"/>
<path d="M646.057 686.91L690.375 661.323L686.505 654.621L642.187 680.208L646.057 686.91ZM642.187 680.208L686.505 654.621L661.945 612.081L617.627 637.668L642.187 680.208Z" fill="#D6D6D6"/>
<path d="M690.377 661.324L691.213 655.19L667.758 614.565L664.476 616.46L690.377 661.324ZM640.329 684.568L646.059 686.911L620.157 642.048L616.875 643.943L640.329 684.568Z" fill="#848484"/>
<path d="M581.865 715.028L626.184 689.44" stroke="black" stroke-width="0.5"/>
<path d="M580.009 719.388C580.569 720.358 581.436 721.115 582.473 721.539C583.51 721.963 584.659 722.03 585.738 721.73" stroke="black" stroke-width="0.5"/>
<path d="M630.057 696.143C630.857 695.358 631.373 694.33 631.524 693.22C631.675 692.109 631.453 690.98 630.893 690.01" stroke="black" stroke-width="0.5"/>
<path d="M630.891 690.01L607.436 649.385L604.153 651.28" stroke="black" stroke-width="0.5"/>
<path d="M580.006 719.388L556.551 678.762L559.834 676.867" stroke="black" stroke-width="0.5"/>
<path d="M557.306 672.488L601.625 646.901L630.055 696.143L585.736 721.73L557.306 672.488Z" stroke="black" stroke-width="0.5"/>
<path d="M585.736 721.73L630.055 696.143L626.185 689.441L581.867 715.028L585.736 721.73ZM581.867 715.028L626.185 689.441L601.625 646.901L557.306 672.488L581.867 715.028Z" fill="#D6D6D6"/>
<path d="M630.057 696.143L630.893 690.01L607.438 649.385L604.155 651.28L630.057 696.143ZM580.009 719.388L585.739 721.731L559.837 676.867L556.554 678.763L580.009 719.388Z" fill="#848484"/>
<path d="M702.498 645.387L746.816 619.8" stroke="black" stroke-width="0.5"/>
<path d="M700.641 649.748C701.202 650.718 702.069 651.475 703.106 651.899C704.143 652.323 705.291 652.39 706.371 652.09" stroke="black" stroke-width="0.5"/>
<path d="M750.69 626.503C751.489 625.718 752.005 624.69 752.157 623.58C752.308 622.469 752.086 621.34 751.526 620.37" stroke="black" stroke-width="0.5"/>
<path d="M751.523 620.37L728.069 579.745L724.786 581.64" stroke="black" stroke-width="0.5"/>
<path d="M700.639 649.747L677.184 609.122L680.467 607.227" stroke="black" stroke-width="0.5"/>
<path d="M677.939 602.848L722.257 577.26L750.688 626.503L706.369 652.09L677.939 602.848Z" stroke="black" stroke-width="0.5"/>
<path d="M706.369 652.09L750.688 626.503L746.818 619.801L702.5 645.388L706.369 652.09ZM702.5 645.388L746.818 619.801L722.257 577.26L677.939 602.848L702.5 645.388Z" fill="#D6D6D6"/>
<path d="M750.69 626.503L751.526 620.37L728.071 579.745L724.788 581.64L750.69 626.503ZM700.642 649.748L706.372 652.09L680.47 607.227L677.187 609.123L700.642 649.748Z" fill="#848484"/>
<path d="M461.236 923.968L505.555 898.38" stroke="black" stroke-width="0.5"/>
<path d="M459.38 928.328C459.94 929.298 460.807 930.055 461.844 930.479C462.881 930.903 464.03 930.97 465.109 930.67" stroke="black" stroke-width="0.5"/>
<path d="M509.428 905.083C510.228 904.298 510.744 903.27 510.895 902.16C511.046 901.049 510.824 899.92 510.264 898.95" stroke="black" stroke-width="0.5"/>
<path d="M510.262 898.95L486.807 858.325L483.524 860.22" stroke="black" stroke-width="0.5"/>
<path d="M459.377 928.327L435.922 887.702L439.205 885.807" stroke="black" stroke-width="0.5"/>
<path d="M436.677 881.428L480.996 855.841L509.426 905.083L465.108 930.67L436.677 881.428Z" stroke="black" stroke-width="0.5"/>
<path d="M465.108 930.67L509.426 905.083L505.556 898.381L461.238 923.968L465.108 930.67ZM461.238 923.968L505.556 898.381L480.996 855.841L436.677 881.428L461.238 923.968Z" fill="#D6D6D6"/>
<path d="M509.428 905.083L510.264 898.95L486.809 858.325L483.526 860.22L509.428 905.083ZM459.38 928.328L465.11 930.67L439.208 885.807L435.925 887.703L459.38 928.328Z" fill="#848484"/>
<path d="M521.557 889.148L565.875 863.561" stroke="black" stroke-width="0.5"/>
<path d="M519.7 893.508C520.26 894.478 521.127 895.235 522.164 895.659C523.201 896.083 524.35 896.15 525.43 895.851" stroke="black" stroke-width="0.5"/>
<path d="M569.748 870.264C570.548 869.478 571.064 868.45 571.215 867.34C571.367 866.23 571.145 865.101 570.584 864.13" stroke="black" stroke-width="0.5"/>
<path d="M570.582 864.13L547.127 823.505L543.844 825.4" stroke="black" stroke-width="0.5"/>
<path d="M519.698 893.508L496.243 852.883L499.526 850.987" stroke="black" stroke-width="0.5"/>
<path d="M496.998 846.608L541.316 821.021L569.746 870.263L525.428 895.85L496.998 846.608Z" stroke="black" stroke-width="0.5"/>
<path d="M525.428 895.85L569.746 870.263L565.876 863.561L521.558 889.148L525.428 895.85ZM521.558 889.148L565.876 863.561L541.316 821.021L496.998 846.608L521.558 889.148Z" fill="#D6D6D6"/>
<path d="M569.748 870.264L570.584 864.13L547.13 823.505L543.847 825.4L569.748 870.264ZM519.701 893.508L525.43 895.851L499.528 850.988L496.246 852.883L519.701 893.508Z" fill="#848484"/>
<path d="M642.186 819.497L686.504 793.91" stroke="black" stroke-width="0.5"/>
<path d="M640.329 823.857C640.889 824.828 641.756 825.585 642.793 826.009C643.83 826.433 644.979 826.5 646.059 826.2" stroke="black" stroke-width="0.5"/>
<path d="M690.377 800.613C691.177 799.828 691.693 798.8 691.844 797.689C691.995 796.579 691.774 795.45 691.213 794.48" stroke="black" stroke-width="0.5"/>
<path d="M691.211 794.479L667.756 753.854L664.473 755.75" stroke="black" stroke-width="0.5"/>
<path d="M640.327 823.857L616.872 783.232L620.154 781.337" stroke="black" stroke-width="0.5"/>
<path d="M617.627 776.957L661.945 751.37L690.375 800.613L646.057 826.2L617.627 776.957Z" stroke="black" stroke-width="0.5"/>
<path d="M646.057 826.2L690.375 800.613L686.505 793.91L642.187 819.498L646.057 826.2ZM642.187 819.498L686.505 793.91L661.945 751.37L617.627 776.957L642.187 819.498Z" fill="#D6D6D6"/>
<path d="M690.377 800.613L691.213 794.48L667.758 753.855L664.476 755.75L690.377 800.613ZM640.329 823.858L646.059 826.2L620.157 781.337L616.875 783.233L640.329 823.858Z" fill="#848484"/>
<path d="M581.865 854.327L626.184 828.74" stroke="black" stroke-width="0.5"/>
<path d="M580.009 858.688C580.569 859.658 581.436 860.415 582.473 860.839C583.51 861.263 584.659 861.33 585.738 861.03" stroke="black" stroke-width="0.5"/>
<path d="M630.057 835.443C630.857 834.658 631.373 833.63 631.524 832.519C631.675 831.409 631.453 830.28 630.893 829.31" stroke="black" stroke-width="0.5"/>
<path d="M630.891 829.31L607.436 788.685L604.153 790.58" stroke="black" stroke-width="0.5"/>
<path d="M580.006 858.687L556.551 818.062L559.834 816.167" stroke="black" stroke-width="0.5"/>
<path d="M557.306 811.788L601.625 786.2L630.055 835.443L585.736 861.03L557.306 811.788Z" stroke="black" stroke-width="0.5"/>
<path d="M585.736 861.03L630.055 835.443L626.185 828.74L581.867 854.328L585.736 861.03ZM581.867 854.328L626.185 828.74L601.625 786.2L557.306 811.788L581.867 854.328Z" fill="#D6D6D6"/>
<path d="M630.057 835.443L630.893 829.31L607.438 788.685L604.155 790.58L630.057 835.443ZM580.009 858.688L585.739 861.03L559.837 816.167L556.554 818.063L580.009 858.688Z" fill="#848484"/>
<path d="M702.498 784.677L746.816 759.09" stroke="black" stroke-width="0.5"/>
<path d="M700.641 789.038C701.202 790.008 702.069 790.765 703.106 791.189C704.143 791.613 705.291 791.68 706.371 791.38" stroke="black" stroke-width="0.5"/>
<path d="M750.69 765.793C751.489 765.008 752.005 763.98 752.157 762.87C752.308 761.759 752.086 760.63 751.526 759.66" stroke="black" stroke-width="0.5"/>
<path d="M751.523 759.66L728.069 719.035L724.786 720.93" stroke="black" stroke-width="0.5"/>
<path d="M700.639 789.037L677.184 748.412L680.467 746.517" stroke="black" stroke-width="0.5"/>
<path d="M677.939 742.138L722.257 716.55L750.688 765.793L706.369 791.38L677.939 742.138Z" stroke="black" stroke-width="0.5"/>
<path d="M706.369 791.38L750.688 765.793L746.818 759.091L702.5 784.678L706.369 791.38ZM702.5 784.678L746.818 759.091L722.257 716.55L677.939 742.138L702.5 784.678Z" fill="#D6D6D6"/>
<path d="M750.69 765.793L751.526 759.66L728.071 719.035L724.788 720.93L750.69 765.793ZM700.642 789.038L706.372 791.38L680.47 746.517L677.187 748.413L700.642 789.038Z" fill="#848484"/>
<path d="M461.236 1063.26L505.555 1037.67" stroke="black" stroke-width="0.5"/>
<path d="M459.38 1067.62C459.94 1068.59 460.807 1069.34 461.844 1069.77C462.881 1070.19 464.03 1070.26 465.109 1069.96" stroke="black" stroke-width="0.5"/>
<path d="M509.428 1044.37C510.228 1043.59 510.744 1042.56 510.895 1041.45C511.046 1040.34 510.824 1039.21 510.264 1038.24" stroke="black" stroke-width="0.5"/>
<path d="M510.262 1038.24L486.807 997.615L483.524 999.51" stroke="black" stroke-width="0.5"/>
<path d="M459.377 1067.62L435.922 1026.99L439.205 1025.1" stroke="black" stroke-width="0.5"/>
<path d="M436.677 1020.72L480.996 995.131L509.426 1044.37L465.108 1069.96L436.677 1020.72Z" stroke="black" stroke-width="0.5"/>
<path d="M465.108 1069.96L509.426 1044.37L505.556 1037.67L461.238 1063.26L465.108 1069.96ZM461.238 1063.26L505.556 1037.67L480.996 995.131L436.677 1020.72L461.238 1063.26Z" fill="#D6D6D6"/>
<path d="M509.428 1044.37L510.264 1038.24L486.809 997.615L483.526 999.51L509.428 1044.37ZM459.38 1067.62L465.11 1069.96L439.208 1025.1L435.925 1026.99L459.38 1067.62Z" fill="#848484"/>
<path d="M521.557 1028.44L565.875 1002.85" stroke="black" stroke-width="0.5"/>
<path d="M519.7 1032.8C520.26 1033.77 521.127 1034.53 522.164 1034.95C523.201 1035.37 524.35 1035.44 525.43 1035.14" stroke="black" stroke-width="0.5"/>
<path d="M569.748 1009.55C570.548 1008.77 571.064 1007.74 571.215 1006.63C571.367 1005.52 571.145 1004.39 570.584 1003.42" stroke="black" stroke-width="0.5"/>
<path d="M570.582 1003.42L547.127 962.795L543.844 964.69" stroke="black" stroke-width="0.5"/>
<path d="M519.698 1032.8L496.243 992.173L499.526 990.277" stroke="black" stroke-width="0.5"/>
<path d="M496.998 985.898L541.316 960.311L569.746 1009.55L525.428 1035.14L496.998 985.898Z" stroke="black" stroke-width="0.5"/>
<path d="M525.428 1035.14L569.746 1009.55L565.876 1002.85L521.558 1028.44L525.428 1035.14ZM521.558 1028.44L565.876 1002.85L541.316 960.311L496.998 985.898L521.558 1028.44Z" fill="#D6D6D6"/>
<path d="M569.748 1009.55L570.584 1003.42L547.13 962.795L543.847 964.69L569.748 1009.55ZM519.701 1032.8L525.43 1035.14L499.528 990.278L496.246 992.173L519.701 1032.8Z" fill="#848484"/>
<path d="M642.186 958.787L686.504 933.2" stroke="black" stroke-width="0.5"/>
<path d="M640.329 963.148C640.889 964.118 641.756 964.875 642.793 965.299C643.83 965.723 644.979 965.79 646.059 965.49" stroke="black" stroke-width="0.5"/>
<path d="M690.377 939.903C691.177 939.118 691.693 938.09 691.844 936.979C691.995 935.869 691.774 934.74 691.213 933.77" stroke="black" stroke-width="0.5"/>
<path d="M691.211 933.77L667.756 893.144L664.473 895.04" stroke="black" stroke-width="0.5"/>
<path d="M640.327 963.147L616.872 922.522L620.154 920.627" stroke="black" stroke-width="0.5"/>
<path d="M617.627 916.248L661.945 890.66L690.375 939.903L646.057 965.49L617.627 916.248Z" stroke="black" stroke-width="0.5"/>
<path d="M646.057 965.49L690.375 939.903L686.505 933.2L642.187 958.788L646.057 965.49ZM642.187 958.788L686.505 933.2L661.945 890.66L617.627 916.248L642.187 958.788Z" fill="#D6D6D6"/>
<path d="M690.377 939.903L691.213 933.77L667.758 893.145L664.476 895.04L690.377 939.903ZM640.329 963.148L646.059 965.49L620.157 920.627L616.875 922.523L640.329 963.148Z" fill="#848484"/>
<path d="M581.865 993.617L626.184 968.03" stroke="black" stroke-width="0.5"/>
<path d="M580.009 997.978C580.569 998.948 581.436 999.705 582.473 1000.13C583.51 1000.55 584.659 1000.62 585.738 1000.32" stroke="black" stroke-width="0.5"/>
<path d="M630.057 974.733C630.857 973.948 631.373 972.92 631.524 971.81C631.675 970.699 631.453 969.57 630.893 968.6" stroke="black" stroke-width="0.5"/>
<path d="M630.891 968.6L607.436 927.975L604.153 929.87" stroke="black" stroke-width="0.5"/>
<path d="M580.006 997.977L556.551 957.352L559.834 955.457" stroke="black" stroke-width="0.5"/>
<path d="M557.306 951.078L601.625 925.49L630.055 974.733L585.736 1000.32L557.306 951.078Z" stroke="black" stroke-width="0.5"/>
<path d="M585.736 1000.32L630.055 974.733L626.185 968.031L581.867 993.618L585.736 1000.32ZM581.867 993.618L626.185 968.031L601.625 925.49L557.306 951.078L581.867 993.618Z" fill="#D6D6D6"/>
<path d="M630.057 974.733L630.893 968.6L607.438 927.975L604.155 929.87L630.057 974.733ZM580.009 997.978L585.739 1000.32L559.837 955.457L556.554 957.353L580.009 997.978Z" fill="#848484"/>
<path d="M702.498 923.968L746.816 898.38" stroke="black" stroke-width="0.5"/>
<path d="M700.641 928.328C701.202 929.298 702.069 930.055 703.106 930.479C704.143 930.903 705.291 930.97 706.371 930.67" stroke="black" stroke-width="0.5"/>
<path d="M750.69 905.083C751.489 904.298 752.005 903.27 752.157 902.16C752.308 901.049 752.086 899.92 751.526 898.95" stroke="black" stroke-width="0.5"/>
<path d="M751.523 898.95L728.069 858.325L724.786 860.22" stroke="black" stroke-width="0.5"/>
<path d="M700.639 928.327L677.184 887.702L680.467 885.807" stroke="black" stroke-width="0.5"/>
<path d="M677.939 881.428L722.257 855.841L750.688 905.083L706.369 930.67L677.939 881.428Z" stroke="black" stroke-width="0.5"/>
<path d="M706.369 930.67L750.688 905.083L746.818 898.381L702.5 923.968L706.369 930.67ZM702.5 923.968L746.818 898.381L722.257 855.841L677.939 881.428L702.5 923.968Z" fill="#D6D6D6"/>
<path d="M750.69 905.083L751.526 898.95L728.071 858.325L724.788 860.22L750.69 905.083ZM700.642 928.328L706.372 930.67L680.47 885.807L677.187 887.703L700.642 928.328Z" fill="#848484"/>
<path d="M67.4669 1072.49L111.785 1098.08" stroke="black" stroke-width="0.5"/>
<path d="M62.7617 1073.06C62.2014 1074.03 61.9795 1075.16 62.1308 1076.27C62.2821 1077.38 62.7981 1078.41 63.5977 1079.2" stroke="black" stroke-width="0.5"/>
<path d="M107.916 1104.78C108.996 1105.08 110.145 1105.01 111.182 1104.59C112.219 1104.17 113.086 1103.41 113.646 1102.44" stroke="black" stroke-width="0.5"/>
<path d="M113.645 1102.44L137.099 1061.81L133.817 1059.92" stroke="black" stroke-width="0.5"/>
<path d="M62.764 1073.06L86.2189 1032.44L89.5018 1034.33" stroke="black" stroke-width="0.5"/>
<path d="M92.0299 1029.95L136.348 1055.54L107.918 1104.78L63.5997 1079.2L92.0299 1029.95Z" stroke="black" stroke-width="0.5"/>
<path d="M63.5997 1079.2L107.918 1104.78L111.788 1098.08L67.4694 1072.49L63.5997 1079.2ZM67.4694 1072.49L111.788 1098.08L136.348 1055.54L92.0299 1029.95L67.4694 1072.49Z" fill="#D6D6D6"/>
<path d="M107.916 1104.78L113.646 1102.44L137.101 1061.81L133.818 1059.92L107.916 1104.78ZM62.7622 1073.06L63.5982 1079.2L89.4999 1034.33L86.2171 1032.44L62.7622 1073.06Z" fill="#848484"/>
<path d="M7.15443 1037.67L51.4727 1063.26" stroke="black" stroke-width="0.5"/>
<path d="M2.44916 1038.24C1.88891 1039.21 1.667 1040.34 1.81832 1041.45C1.96963 1042.56 2.48565 1043.59 3.28516 1044.38" stroke="black" stroke-width="0.5"/>
<path d="M47.6039 1069.96C48.6835 1070.26 49.8322 1070.2 50.8693 1069.77C51.9065 1069.35 52.7733 1068.59 53.3336 1067.62" stroke="black" stroke-width="0.5"/>
<path d="M53.332 1067.62L76.7869 1027L73.5041 1025.1" stroke="black" stroke-width="0.5"/>
<path d="M2.45154 1038.24L25.9064 997.617L29.1893 999.513" stroke="black" stroke-width="0.5"/>
<path d="M31.7174 995.133L76.0356 1020.72L47.6055 1069.96L3.28724 1044.38L31.7174 995.133Z" stroke="black" stroke-width="0.5"/>
<path d="M3.28724 1044.38L47.6055 1069.96L51.4751 1063.26L7.15687 1037.67L3.28724 1044.38ZM7.15687 1037.67L51.4751 1063.26L76.0356 1020.72L31.7174 995.133L7.15687 1037.67Z" fill="#D6D6D6"/>
<path d="M47.6039 1069.96L53.3336 1067.62L76.7885 1026.99L73.5056 1025.1L47.6039 1069.96ZM2.44966 1038.24L3.28565 1044.38L29.1874 999.512L25.9046 997.617L2.44966 1038.24Z" fill="#848484"/>
<path d="M642.186 1098.08L686.504 1072.49" stroke="black" stroke-width="0.5"/>
<path d="M640.329 1102.44C640.889 1103.41 641.756 1104.16 642.793 1104.59C643.83 1105.01 644.979 1105.08 646.059 1104.78" stroke="black" stroke-width="0.5"/>
<path d="M690.377 1079.19C691.177 1078.41 691.693 1077.38 691.844 1076.27C691.995 1075.16 691.774 1074.03 691.213 1073.06" stroke="black" stroke-width="0.5"/>
<path d="M691.211 1073.06L667.756 1032.43L664.473 1034.33" stroke="black" stroke-width="0.5"/>
<path d="M640.327 1102.44L616.872 1061.81L620.154 1059.92" stroke="black" stroke-width="0.5"/>
<path d="M617.627 1055.54L661.945 1029.95L690.375 1079.19L646.057 1104.78L617.627 1055.54Z" stroke="black" stroke-width="0.5"/>
<path d="M646.057 1104.78L690.375 1079.19L686.505 1072.49L642.187 1098.08L646.057 1104.78ZM642.187 1098.08L686.505 1072.49L661.945 1029.95L617.627 1055.54L642.187 1098.08Z" fill="#D6D6D6"/>
<path d="M690.377 1079.19L691.213 1073.06L667.758 1032.43L664.476 1034.33L690.377 1079.19ZM640.329 1102.44L646.059 1104.78L620.157 1059.92L616.875 1061.81L640.329 1102.44Z" fill="#848484"/>
<path d="M702.498 1063.26L746.816 1037.67" stroke="black" stroke-width="0.5"/>
<path d="M700.641 1067.62C701.202 1068.59 702.069 1069.34 703.106 1069.77C704.143 1070.19 705.291 1070.26 706.371 1069.96" stroke="black" stroke-width="0.5"/>
<path d="M750.69 1044.37C751.489 1043.59 752.005 1042.56 752.157 1041.45C752.308 1040.34 752.086 1039.21 751.526 1038.24" stroke="black" stroke-width="0.5"/>
<path d="M751.523 1038.24L728.069 997.615L724.786 999.51" stroke="black" stroke-width="0.5"/>
<path d="M700.639 1067.62L677.184 1026.99L680.467 1025.1" stroke="black" stroke-width="0.5"/>
<path d="M677.939 1020.72L722.257 995.131L750.688 1044.37L706.369 1069.96L677.939 1020.72Z" stroke="black" stroke-width="0.5"/>
<path d="M706.369 1069.96L750.688 1044.37L746.818 1037.67L702.5 1063.26L706.369 1069.96ZM702.5 1063.26L746.818 1037.67L722.257 995.131L677.939 1020.72L702.5 1063.26Z" fill="#D6D6D6"/>
<path d="M750.69 1044.37L751.526 1038.24L728.071 997.615L724.788 999.51L750.69 1044.37ZM700.642 1067.62L706.372 1069.96L680.47 1025.1L677.187 1026.99L700.642 1067.62Z" fill="#848484"/>
<path d="M634.284 298.794H583.109" stroke="black" stroke-width="0.5"/>
<path d="M638.076 295.948C638.076 294.827 637.703 293.739 637.017 292.853C636.331 291.967 635.37 291.334 634.285 291.054" stroke="black" stroke-width="0.5"/>
<path d="M583.111 291.054C582.026 291.334 581.065 291.967 580.379 292.853C579.693 293.739 579.32 294.827 579.32 295.948" stroke="black" stroke-width="0.5"/>
<path d="M579.32 295.948V342.858H583.111" stroke="black" stroke-width="0.5"/>
<path d="M638.076 295.948V342.858H634.285" stroke="black" stroke-width="0.5"/>
<path d="M634.284 347.915H583.109V291.054H634.284V347.915Z" stroke="black" stroke-width="0.5"/>
<path d="M634.284 291.054H583.109V298.793H634.284V291.054ZM634.284 298.793H583.109V347.915H634.284V298.793Z" fill="#D6D6D6"/>
<path d="M583.111 291.054L579.32 295.948V342.858H583.111V291.054ZM638.076 295.948L634.285 291.054V342.858H638.076V295.948Z" fill="#848484"/>
<path d="M376.986 259.239H227.746V254.265H376.986H526.226V259.239H376.986Z" fill="#D6D6D6"/>
<path d="M376.986 254.265H227.746V259.239H376.986H526.226V254.265H376.986Z" stroke="black" stroke-width="0.5"/>
<path d="M658.446 357.863H558.953V417.559H658.446V357.863Z" fill="#D6D6D6"/>
<path d="M658.446 357.863H558.953V417.559H658.446V357.863Z" stroke="black" stroke-width="0.5"/>
<path d="M461.236 645.387L505.555 619.8" stroke="black" stroke-width="0.5"/>
<path d="M459.38 649.748C459.94 650.718 460.807 651.475 461.844 651.899C462.881 652.323 464.03 652.39 465.109 652.09" stroke="black" stroke-width="0.5"/>
<path d="M509.428 626.503C510.228 625.718 510.744 624.69 510.895 623.58C511.046 622.469 510.824 621.34 510.264 620.37" stroke="black" stroke-width="0.5"/>
<path d="M510.262 620.37L486.807 579.745L483.524 581.64" stroke="black" stroke-width="0.5"/>
<path d="M459.377 649.747L435.922 609.122L439.205 607.227" stroke="black" stroke-width="0.5"/>
<path d="M436.677 602.848L480.996 577.26L509.426 626.503L465.108 652.09L436.677 602.848Z" stroke="black" stroke-width="0.5"/>
<path d="M465.108 652.09L509.426 626.503L505.556 619.801L461.238 645.388L465.108 652.09ZM461.238 645.388L505.556 619.801L480.996 577.26L436.677 602.848L461.238 645.388Z" fill="#D6D6D6"/>
<path d="M509.428 626.503L510.264 620.37L486.809 579.745L483.526 581.64L509.428 626.503ZM459.38 649.748L465.11 652.09L439.208 607.227L435.925 609.123L459.38 649.748Z" fill="#848484"/>
<path d="M521.557 610.568L565.875 584.98" stroke="black" stroke-width="0.5"/>
<path d="M519.7 614.928C520.26 615.898 521.127 616.655 522.164 617.079C523.201 617.503 524.35 617.57 525.43 617.271" stroke="black" stroke-width="0.5"/>
<path d="M569.748 591.683C570.548 590.898 571.064 589.87 571.215 588.76C571.367 587.649 571.145 586.52 570.584 585.55" stroke="black" stroke-width="0.5"/>
<path d="M570.582 585.55L547.127 544.925L543.844 546.82" stroke="black" stroke-width="0.5"/>
<path d="M519.698 614.928L496.243 574.303L499.526 572.407" stroke="black" stroke-width="0.5"/>
<path d="M496.998 568.028L541.316 542.441L569.746 591.683L525.428 617.27L496.998 568.028Z" stroke="black" stroke-width="0.5"/>
<path d="M525.428 617.27L569.746 591.683L565.876 584.981L521.558 610.568L525.428 617.27ZM521.558 610.568L565.876 584.981L541.316 542.441L496.998 568.028L521.558 610.568Z" fill="#D6D6D6"/>
<path d="M569.748 591.683L570.584 585.55L547.13 544.925L543.847 546.82L569.748 591.683ZM519.701 614.928L525.43 617.271L499.528 572.407L496.246 574.303L519.701 614.928Z" fill="#848484"/>
<path d="M642.186 540.918L686.504 515.331" stroke="black" stroke-width="0.5"/>
<path d="M640.329 545.278C640.889 546.248 641.756 547.005 642.793 547.429C643.83 547.853 644.979 547.92 646.059 547.621" stroke="black" stroke-width="0.5"/>
<path d="M690.377 522.034C691.177 521.248 691.693 520.22 691.844 519.11C691.995 518 691.774 516.871 691.213 515.9" stroke="black" stroke-width="0.5"/>
<path d="M691.211 515.9L667.756 475.275L664.473 477.17" stroke="black" stroke-width="0.5"/>
<path d="M640.327 545.278L616.872 504.653L620.154 502.757" stroke="black" stroke-width="0.5"/>
<path d="M617.627 498.378L661.945 472.791L690.375 522.033L646.057 547.62L617.627 498.378Z" stroke="black" stroke-width="0.5"/>
<path d="M646.057 547.62L690.375 522.033L686.505 515.331L642.187 540.918L646.057 547.62ZM642.187 540.918L686.505 515.331L661.945 472.791L617.627 498.378L642.187 540.918Z" fill="#D6D6D6"/>
<path d="M690.377 522.034L691.213 515.9L667.758 475.275L664.476 477.17L690.377 522.034ZM640.329 545.278L646.059 547.621L620.157 502.758L616.875 504.653L640.329 545.278Z" fill="#848484"/>
<path d="M581.865 575.738L626.184 550.15" stroke="black" stroke-width="0.5"/>
<path d="M580.009 580.098C580.569 581.068 581.436 581.825 582.473 582.249C583.51 582.673 584.659 582.74 585.738 582.44" stroke="black" stroke-width="0.5"/>
<path d="M630.057 556.853C630.857 556.068 631.373 555.04 631.524 553.93C631.675 552.819 631.453 551.69 630.893 550.72" stroke="black" stroke-width="0.5"/>
<path d="M630.891 550.72L607.436 510.095L604.153 511.99" stroke="black" stroke-width="0.5"/>
<path d="M580.006 580.097L556.551 539.472L559.834 537.577" stroke="black" stroke-width="0.5"/>
<path d="M557.306 533.198L601.625 507.611L630.055 556.853L585.736 582.44L557.306 533.198Z" stroke="black" stroke-width="0.5"/>
<path d="M585.736 582.44L630.055 556.853L626.185 550.151L581.867 575.738L585.736 582.44ZM581.867 575.738L626.185 550.151L601.625 507.611L557.306 533.198L581.867 575.738Z" fill="#D6D6D6"/>
<path d="M630.057 556.853L630.893 550.72L607.438 510.095L604.155 511.99L630.057 556.853ZM580.009 580.098L585.739 582.441L559.837 537.577L556.554 539.473L580.009 580.098Z" fill="#848484"/>
</svg>
