<svg width="794" height="1123" viewBox="0 0 794 1123" fill="none" xmlns="http://www.w3.org/2000/svg">
<g clip-path="url(#clip0_3150_2)">
<path d="M47.6263 553.237L27.9805 600.667" stroke="black" stroke-width="0.5"/>
<path d="M46.444 548.632C45.4055 548.201 44.2535 548.129 43.1691 548.424C42.0847 548.72 41.1293 549.368 40.4531 550.266" stroke="black" stroke-width="0.5"/>
<path d="M20.8068 597.695C20.6499 598.808 20.8674 599.942 21.425 600.918C21.9826 601.894 22.8487 602.657 23.8872 603.087" stroke="black" stroke-width="0.5"/>
<path d="M23.8867 603.087L67.3638 621.096L68.819 617.583" stroke="black" stroke-width="0.5"/>
<path d="M46.4435 548.631L89.9206 566.64L88.4653 570.153" stroke="black" stroke-width="0.5"/>
<path d="M93.1539 572.095L73.508 619.524L20.8086 597.695L40.4545 550.266L93.1539 572.095Z" stroke="black" stroke-width="0.5"/>
<path d="M40.4545 550.266L20.8086 597.695L27.9816 600.666L47.6275 553.237L40.4545 550.266ZM47.6275 553.237L27.9816 600.666L73.508 619.524L93.1539 572.095L47.6275 553.237Z" fill="#D6D6D6"/>
<path d="M20.8068 597.695L23.8873 603.087L67.3642 621.096L68.8195 617.583L20.8068 597.695ZM46.4435 548.631L40.4527 550.266L88.4653 570.153L89.9206 566.64L46.4435 548.631Z" fill="#848484"/>
<path d="M14.8962 649.496L8.19531 700.394" stroke="black" stroke-width="0.5"/>
<path d="M12.5629 645.353C11.4484 645.206 10.3169 645.434 9.34598 646.001C8.37508 646.567 7.61989 647.44 7.19922 648.482" stroke="black" stroke-width="0.5"/>
<path d="M0.496359 699.38C0.632911 700.496 1.1364 701.535 1.92761 702.333C2.71882 703.132 3.75285 703.644 4.8673 703.791" stroke="black" stroke-width="0.5"/>
<path d="M4.87109 703.792L51.5277 709.934L52.0241 706.164" stroke="black" stroke-width="0.5"/>
<path d="M12.5628 645.353L59.2194 651.495L58.723 655.265" stroke="black" stroke-width="0.5"/>
<path d="M63.7542 655.928L57.0534 706.826L0.5 699.38L7.20084 648.482L63.7542 655.928Z" stroke="black" stroke-width="0.5"/>
<path d="M7.20084 648.482L0.5 699.38L8.19762 700.394L14.8985 649.496L7.20084 648.482ZM14.8985 649.496L8.19762 700.394L57.0534 706.826L63.7542 655.928L14.8985 649.496Z" fill="#D6D6D6"/>
<path d="M0.496359 699.38L4.86742 703.791L51.5239 709.934L52.0203 706.163L0.496359 699.38ZM12.5609 645.353L7.1972 648.482L58.7211 655.265L59.2175 651.495L12.5609 645.353Z" fill="#848484"/>
<path d="M104.158 468.729L72.9062 509.457" stroke="black" stroke-width="0.5"/>
<path d="M104.206 463.974C103.314 463.289 102.22 462.921 101.096 462.926C99.9721 462.931 98.8816 463.31 97.9961 464.002" stroke="black" stroke-width="0.5"/>
<path d="M66.7447 504.73C66.305 505.765 66.2217 506.916 66.5077 508.003C66.7937 509.09 67.4327 510.051 68.3245 510.736" stroke="black" stroke-width="0.5"/>
<path d="M68.3242 510.736L105.659 539.384L107.974 536.367" stroke="black" stroke-width="0.5"/>
<path d="M104.206 463.973L141.54 492.621L139.225 495.638" stroke="black" stroke-width="0.5"/>
<path d="M143.252 498.727L112 539.455L66.7461 504.73L97.9982 464.002L143.252 498.727Z" stroke="black" stroke-width="0.5"/>
<path d="M97.9982 464.002L66.7461 504.73L72.9057 509.457L104.158 468.728L97.9982 464.002ZM104.158 468.728L72.9057 509.457L112 539.455L143.252 498.727L104.158 468.728Z" fill="#D6D6D6"/>
<path d="M66.7447 504.73L68.3246 510.736L105.659 539.383L107.974 536.367L66.7447 504.73ZM104.207 463.973L97.9967 464.002L139.226 495.638L141.541 492.621L104.207 463.973Z" fill="#848484"/>
<path d="M147.328 725.668L67.4805 725.668" stroke="black" stroke-width="0.5"/>
<path d="M220.412 549.228L163.951 492.767" stroke="black" stroke-width="0.5"/>
<path d="M147.327 725.668L67.4794 725.668C67.4794 682.415 75.9988 639.584 92.5513 599.623C109.104 559.662 133.365 523.352 163.95 492.767L220.411 549.228C197.241 572.398 178.861 599.906 166.321 630.179C153.781 660.453 147.327 692.9 147.327 725.668C147.327 791.846 173.616 855.314 220.411 902.109C267.206 948.904 330.674 975.193 396.852 975.193C463.03 975.193 526.498 948.904 573.293 902.109L147.327 725.668Z" fill="#D6D6D6"/>
<path d="M147.328 725.668L67.4799 725.668C67.4799 682.415 75.9993 639.584 92.5518 599.623C109.104 559.662 133.366 523.352 163.951 492.767L220.412 549.228C197.241 572.398 178.861 599.906 166.322 630.179C153.782 660.453 147.328 692.9 147.328 725.668Z" stroke="black" stroke-width="0.5"/>
<path d="M27.9791 850.679L47.625 898.109" stroke="black" stroke-width="0.5"/>
<path d="M23.8889 848.259C22.8504 848.689 21.9844 849.452 21.4268 850.428C20.8692 851.404 20.6517 852.538 20.8086 853.651" stroke="black" stroke-width="0.5"/>
<path d="M40.451 901.08C41.1271 901.978 42.0825 902.626 43.167 902.922C44.2514 903.218 45.4033 903.145 46.4419 902.715" stroke="black" stroke-width="0.5"/>
<path d="M46.4453 902.715L89.9224 884.706L88.4671 881.193" stroke="black" stroke-width="0.5"/>
<path d="M23.8885 848.259L67.3656 830.25L68.8208 833.763" stroke="black" stroke-width="0.5"/>
<path d="M73.5066 831.822L93.1525 879.251L40.4531 901.08L20.8073 853.651L73.5066 831.822Z" stroke="black" stroke-width="0.5"/>
<path d="M20.8073 853.651L40.4531 901.08L47.6262 898.109L27.9803 850.68L20.8073 853.651ZM27.9803 850.68L47.6262 898.109L93.1525 879.251L73.5066 831.822L27.9803 850.68Z" fill="#D6D6D6"/>
<path d="M40.451 901.08L46.442 902.715L89.9189 884.706L88.4637 881.193L40.451 901.08ZM23.8855 848.259L20.8051 853.651L68.8178 833.764L67.3625 830.25L23.8855 848.259Z" fill="#848484"/>
<path d="M72.9042 941.891L104.156 982.62" stroke="black" stroke-width="0.5"/>
<path d="M68.322 940.612C67.4302 941.296 66.7912 942.258 66.5052 943.345C66.2192 944.432 66.3026 945.583 66.7422 946.618" stroke="black" stroke-width="0.5"/>
<path d="M97.9936 987.346C98.8791 988.039 99.9697 988.417 101.094 988.422C102.218 988.427 103.312 988.059 104.203 987.375" stroke="black" stroke-width="0.5"/>
<path d="M104.203 987.375L141.538 958.727L139.223 955.71" stroke="black" stroke-width="0.5"/>
<path d="M68.3217 940.612L105.656 911.964L107.971 914.981" stroke="black" stroke-width="0.5"/>
<path d="M111.998 911.893L143.25 952.622L97.9961 987.346L66.744 946.618L111.998 911.893Z" stroke="black" stroke-width="0.5"/>
<path d="M66.744 946.618L97.9961 987.346L104.156 982.62L72.9036 941.891L66.744 946.618ZM72.9036 941.891L104.156 982.62L143.25 952.622L111.998 911.893L72.9036 941.891Z" fill="#D6D6D6"/>
<path d="M97.9936 987.346L104.203 987.375L141.538 958.727L139.223 955.71L97.9936 987.346ZM68.3214 940.612L66.7415 946.618L107.971 914.981L105.656 911.965L68.3214 940.612Z" fill="#848484"/>
<path d="M8.1976 750.946L14.8984 801.844" stroke="black" stroke-width="0.5"/>
<path d="M4.87094 747.548C3.75649 747.695 2.72246 748.208 1.93125 749.006C1.14004 749.804 0.636552 750.843 0.5 751.959" stroke="black" stroke-width="0.5"/>
<path d="M7.19895 802.857C7.61963 803.9 8.37481 804.773 9.34572 805.339C10.3166 805.906 11.4482 806.133 12.5626 805.987" stroke="black" stroke-width="0.5"/>
<path d="M12.5625 805.987L59.2191 799.844L58.7228 796.074" stroke="black" stroke-width="0.5"/>
<path d="M4.87083 747.548L51.5274 741.406L52.0238 745.176" stroke="black" stroke-width="0.5"/>
<path d="M57.0518 744.514L63.7526 795.412L7.19922 802.857L0.49838 751.959L57.0518 744.514Z" stroke="black" stroke-width="0.5"/>
<path d="M0.49838 751.959L7.19922 802.857L14.8968 801.844L8.196 750.946L0.49838 751.959ZM8.196 750.946L14.8968 801.844L63.7526 795.412L57.0518 744.514L8.196 750.946Z" fill="#D6D6D6"/>
<path d="M7.19895 802.857L12.5627 805.987L59.2192 799.844L58.7229 796.074L7.19895 802.857ZM4.86906 747.548L0.498115 751.959L52.022 745.176L51.5257 741.406L4.86906 747.548Z" fill="#848484"/>
<path d="M220.41 902.109L163.949 958.57" stroke="black" stroke-width="0.5"/>
<path d="M147.326 725.668L67.4784 725.668" stroke="black" stroke-width="0.5"/>
<path d="M220.41 902.109L163.949 958.57C133.364 927.985 109.103 891.675 92.5502 851.714C75.9977 811.752 67.4783 768.922 67.4783 725.668L147.326 725.668C147.326 758.436 153.78 790.884 166.32 821.157C178.86 851.431 197.24 878.939 220.41 902.109C267.205 948.904 330.673 975.193 396.851 975.193C463.029 975.193 526.496 948.904 573.291 902.109C620.086 855.314 646.376 791.847 646.376 725.669L220.41 902.109Z" fill="#D6D6D6"/>
<path d="M220.41 902.109L163.949 958.57C133.364 927.985 109.102 891.675 92.5497 851.714C75.9972 811.752 67.4778 768.922 67.4778 725.668L147.326 725.668C147.326 758.436 153.78 790.884 166.32 821.157C178.859 851.431 197.239 878.938 220.41 902.109Z" stroke="black" stroke-width="0.5"/>
<path d="M224.414 1074.89L271.844 1094.53" stroke="black" stroke-width="0.5"/>
<path d="M219.811 1076.07C219.381 1077.11 219.308 1078.26 219.604 1079.35C219.899 1080.43 220.547 1081.39 221.445 1082.06" stroke="black" stroke-width="0.5"/>
<path d="M268.873 1101.71C269.987 1101.87 271.12 1101.65 272.096 1101.09C273.072 1100.53 273.835 1099.67 274.265 1098.63" stroke="black" stroke-width="0.5"/>
<path d="M274.266 1098.63L292.274 1055.15L288.761 1053.7" stroke="black" stroke-width="0.5"/>
<path d="M219.811 1076.07L237.82 1032.59L241.333 1034.05" stroke="black" stroke-width="0.5"/>
<path d="M243.274 1029.36L290.704 1049.01L268.875 1101.71L221.446 1082.06L243.274 1029.36Z" stroke="black" stroke-width="0.5"/>
<path d="M221.446 1082.06L268.875 1101.71L271.846 1094.54L224.417 1074.89L221.446 1082.06ZM224.417 1074.89L271.846 1094.54L290.704 1049.01L243.274 1029.36L224.417 1074.89Z" fill="#D6D6D6"/>
<path d="M268.873 1101.71L274.265 1098.63L292.274 1055.15L288.761 1053.7L268.873 1101.71ZM219.809 1076.07L221.444 1082.06L241.331 1034.05L237.818 1032.59L219.809 1076.07Z" fill="#848484"/>
<path d="M320.676 1107.62L371.574 1114.32" stroke="black" stroke-width="0.5"/>
<path d="M316.535 1109.96C316.388 1111.07 316.616 1112.2 317.182 1113.17C317.749 1114.14 318.622 1114.9 319.664 1115.32" stroke="black" stroke-width="0.5"/>
<path d="M370.562 1122.02C371.678 1121.88 372.716 1121.38 373.515 1120.59C374.313 1119.8 374.826 1118.76 374.973 1117.65" stroke="black" stroke-width="0.5"/>
<path d="M374.973 1117.65L381.115 1070.99L377.345 1070.5" stroke="black" stroke-width="0.5"/>
<path d="M316.534 1109.96L322.677 1063.3L326.447 1063.8" stroke="black" stroke-width="0.5"/>
<path d="M327.11 1058.77L378.008 1065.47L370.562 1122.02L319.664 1115.32L327.11 1058.77Z" stroke="black" stroke-width="0.5"/>
<path d="M319.664 1115.32L370.562 1122.02L371.576 1114.32L320.678 1107.62L319.664 1115.32ZM320.678 1107.62L371.576 1114.32L378.008 1065.47L327.11 1058.77L320.678 1107.62Z" fill="#D6D6D6"/>
<path d="M370.562 1122.02L374.973 1117.65L381.115 1070.99L377.345 1070.5L370.562 1122.02ZM316.534 1109.96L319.664 1115.32L326.447 1063.8L322.677 1063.3L316.534 1109.96Z" fill="#848484"/>
<path d="M139.904 1018.37L180.633 1049.62" stroke="black" stroke-width="0.5"/>
<path d="M135.147 1018.32C134.463 1019.21 134.095 1020.3 134.1 1021.43C134.105 1022.55 134.483 1023.64 135.176 1024.53" stroke="black" stroke-width="0.5"/>
<path d="M175.905 1055.78C176.939 1056.22 178.091 1056.3 179.178 1056.01C180.265 1055.73 181.226 1055.09 181.91 1054.2" stroke="black" stroke-width="0.5"/>
<path d="M181.91 1054.2L210.558 1016.86L207.541 1014.55" stroke="black" stroke-width="0.5"/>
<path d="M135.147 1018.32L163.795 980.981L166.812 983.296" stroke="black" stroke-width="0.5"/>
<path d="M169.902 979.271L210.631 1010.52L175.906 1055.78L135.178 1024.53L169.902 979.271Z" stroke="black" stroke-width="0.5"/>
<path d="M135.178 1024.53L175.906 1055.78L180.633 1049.62L139.904 1018.37L135.178 1024.53ZM139.904 1018.37L180.633 1049.62L210.631 1010.52L169.902 979.271L139.904 1018.37Z" fill="#D6D6D6"/>
<path d="M175.905 1055.78L181.911 1054.2L210.558 1016.86L207.541 1014.55L175.905 1055.78ZM135.148 1018.32L135.176 1024.53L166.813 983.296L163.796 980.981L135.148 1018.32Z" fill="#848484"/>
<path d="M396.851 975.19L396.852 1055.04" stroke="black" stroke-width="0.5"/>
<path d="M220.41 902.106L163.949 958.567" stroke="black" stroke-width="0.5"/>
<path d="M396.851 975.19L396.851 1055.04C353.597 1055.04 310.766 1046.52 270.805 1029.97C230.844 1013.41 194.534 989.152 163.949 958.567L220.41 902.106C243.58 925.276 271.088 943.656 301.362 956.196C331.635 968.736 364.082 975.19 396.851 975.19C463.029 975.19 526.496 948.901 573.291 902.106C620.086 855.311 646.375 791.843 646.375 725.665C646.375 659.487 620.086 596.019 573.291 549.224L396.851 975.19Z" fill="#D6D6D6"/>
<path d="M396.852 975.19L396.852 1055.04C353.599 1055.04 310.768 1046.52 270.807 1029.97C230.846 1013.41 194.536 989.152 163.951 958.567L220.412 902.106C243.582 925.276 271.09 943.656 301.363 956.196C331.637 968.736 364.084 975.19 396.852 975.19Z" stroke="black" stroke-width="0.5"/>
<path d="M521.856 1094.53L569.285 1074.89" stroke="black" stroke-width="0.5"/>
<path d="M519.436 1098.63C519.866 1099.67 520.629 1100.53 521.605 1101.09C522.581 1101.65 523.715 1101.86 524.828 1101.71" stroke="black" stroke-width="0.5"/>
<path d="M572.256 1082.06C573.154 1081.39 573.802 1080.43 574.098 1079.35C574.394 1078.26 574.321 1077.11 573.891 1076.07" stroke="black" stroke-width="0.5"/>
<path d="M573.891 1076.07L555.882 1032.59L552.369 1034.05" stroke="black" stroke-width="0.5"/>
<path d="M519.436 1098.63L501.427 1055.15L504.94 1053.7" stroke="black" stroke-width="0.5"/>
<path d="M503 1049.01L550.429 1029.36L572.258 1082.06L524.828 1101.71L503 1049.01Z" stroke="black" stroke-width="0.5"/>
<path d="M524.828 1101.71L572.258 1082.06L569.287 1074.89L521.857 1094.53L524.828 1101.71ZM521.857 1094.53L569.287 1074.89L550.429 1029.36L503 1049.01L521.857 1094.53Z" fill="#D6D6D6"/>
<path d="M572.256 1082.06L573.891 1076.07L555.882 1032.59L552.369 1034.05L572.256 1082.06ZM519.435 1098.63L524.827 1101.71L504.939 1053.7L501.426 1055.15L519.435 1098.63Z" fill="#848484"/>
<path d="M613.072 1049.62L653.801 1018.36" stroke="black" stroke-width="0.5"/>
<path d="M611.795 1054.2C612.48 1055.09 613.441 1055.73 614.528 1056.01C615.615 1056.3 616.766 1056.22 617.801 1055.78" stroke="black" stroke-width="0.5"/>
<path d="M658.53 1024.52C659.222 1023.64 659.601 1022.55 659.606 1021.42C659.611 1020.3 659.243 1019.21 658.558 1018.31" stroke="black" stroke-width="0.5"/>
<path d="M658.559 1018.31L629.911 980.98L626.894 983.295" stroke="black" stroke-width="0.5"/>
<path d="M611.796 1054.2L583.148 1016.86L586.165 1014.55" stroke="black" stroke-width="0.5"/>
<path d="M583.074 1010.52L623.803 979.27L658.527 1024.52L617.799 1055.78L583.074 1010.52Z" stroke="black" stroke-width="0.5"/>
<path d="M617.799 1055.78L658.527 1024.52L653.801 1018.36L613.072 1049.62L617.799 1055.78ZM613.072 1049.62L653.801 1018.36L623.803 979.27L583.074 1010.52L613.072 1049.62Z" fill="#D6D6D6"/>
<path d="M658.53 1024.52L658.558 1018.31L629.91 980.98L626.894 983.295L658.53 1024.52ZM611.796 1054.2L617.801 1055.78L586.165 1014.55L583.148 1016.86L611.796 1054.2Z" fill="#848484"/>
<path d="M422.129 1114.32L473.027 1107.62" stroke="black" stroke-width="0.5"/>
<path d="M418.734 1117.65C418.88 1118.76 419.393 1119.8 420.192 1120.59C420.99 1121.38 422.029 1121.88 423.145 1122.02" stroke="black" stroke-width="0.5"/>
<path d="M474.042 1115.32C475.085 1114.9 475.958 1114.14 476.524 1113.17C477.091 1112.2 477.318 1111.07 477.172 1109.96" stroke="black" stroke-width="0.5"/>
<path d="M477.172 1109.96L471.029 1063.3L467.259 1063.8" stroke="black" stroke-width="0.5"/>
<path d="M418.734 1117.65L412.591 1070.99L416.361 1070.5" stroke="black" stroke-width="0.5"/>
<path d="M415.7 1065.47L466.598 1058.77L474.043 1115.32L423.145 1122.02L415.7 1065.47Z" stroke="black" stroke-width="0.5"/>
<path d="M423.145 1122.02L474.043 1115.32L473.03 1107.62L422.132 1114.32L423.145 1122.02ZM422.132 1114.32L473.03 1107.62L466.598 1058.77L415.7 1065.47L422.132 1114.32Z" fill="#D6D6D6"/>
<path d="M474.042 1115.32L477.172 1109.96L471.029 1063.3L467.259 1063.8L474.042 1115.32ZM418.733 1117.65L423.144 1122.02L416.361 1070.5L412.591 1070.99L418.733 1117.65Z" fill="#848484"/>
<path d="M573.293 902.106L629.754 958.567" stroke="black" stroke-width="0.5"/>
<path d="M396.852 975.19L396.852 1055.04" stroke="black" stroke-width="0.5"/>
<path d="M573.294 902.106L629.755 958.567C599.17 989.152 562.86 1013.41 522.899 1029.97C482.938 1046.52 440.107 1055.04 396.853 1055.04L396.853 975.19C429.622 975.19 462.069 968.736 492.342 956.196C522.616 943.656 550.124 925.276 573.294 902.106C620.089 855.311 646.378 791.843 646.378 725.665C646.378 659.487 620.089 596.02 573.294 549.225C526.499 502.43 463.032 476.141 396.854 476.141L573.294 902.106Z" fill="#D6D6D6"/>
<path d="M573.292 902.106L629.753 958.567C599.168 989.152 562.858 1013.41 522.897 1029.97C482.935 1046.52 440.105 1055.04 396.851 1055.04L396.851 975.19C429.619 975.19 462.067 968.736 492.34 956.196C522.614 943.656 550.122 925.276 573.292 902.106Z" stroke="black" stroke-width="0.5"/>
<path d="M746.073 898.11L765.719 850.681" stroke="black" stroke-width="0.5"/>
<path d="M747.255 902.716C748.294 903.146 749.446 903.219 750.53 902.923C751.615 902.627 752.57 901.979 753.246 901.081" stroke="black" stroke-width="0.5"/>
<path d="M772.892 853.652C773.049 852.539 772.832 851.405 772.274 850.429C771.717 849.453 770.851 848.69 769.812 848.26" stroke="black" stroke-width="0.5"/>
<path d="M769.812 848.26L726.335 830.251L724.88 833.764" stroke="black" stroke-width="0.5"/>
<path d="M747.256 902.716L703.779 884.707L705.234 881.194" stroke="black" stroke-width="0.5"/>
<path d="M700.545 879.252L720.191 831.823L772.891 853.652L753.245 901.081L700.545 879.252Z" stroke="black" stroke-width="0.5"/>
<path d="M753.245 901.081L772.891 853.652L765.718 850.681L746.072 898.11L753.245 901.081ZM746.072 898.11L765.718 850.681L720.191 831.823L700.545 879.252L746.072 898.11Z" fill="#D6D6D6"/>
<path d="M772.892 853.652L769.812 848.26L726.335 830.251L724.88 833.764L772.892 853.652ZM747.256 902.716L753.247 901.081L705.234 881.194L703.779 884.707L747.256 902.716Z" fill="#848484"/>
<path d="M778.807 801.844L785.508 750.946" stroke="black" stroke-width="0.5"/>
<path d="M781.14 805.987C782.255 806.134 783.386 805.906 784.357 805.339C785.328 804.773 786.083 803.9 786.504 802.857" stroke="black" stroke-width="0.5"/>
<path d="M793.207 751.96C793.07 750.844 792.567 749.805 791.776 749.007C790.984 748.208 789.95 747.695 788.836 747.549" stroke="black" stroke-width="0.5"/>
<path d="M788.832 747.548L742.175 741.406L741.679 745.176" stroke="black" stroke-width="0.5"/>
<path d="M781.14 805.987L734.484 799.845L734.98 796.074" stroke="black" stroke-width="0.5"/>
<path d="M729.949 795.412L736.65 744.514L793.203 751.959L786.502 802.857L729.949 795.412Z" stroke="black" stroke-width="0.5"/>
<path d="M786.502 802.857L793.203 751.959L785.506 750.946L778.805 801.844L786.502 802.857ZM778.805 801.844L785.506 750.946L736.65 744.514L729.949 795.412L778.805 801.844Z" fill="#D6D6D6"/>
<path d="M793.207 751.96L788.836 747.549L742.179 741.406L741.683 745.176L793.207 751.96ZM781.142 805.987L786.506 802.858L734.982 796.074L734.486 799.845L781.142 805.987Z" fill="#848484"/>
<path d="M689.549 982.619L720.801 941.891" stroke="black" stroke-width="0.5"/>
<path d="M689.501 987.374C690.393 988.058 691.487 988.427 692.611 988.422C693.735 988.417 694.825 988.038 695.711 987.346" stroke="black" stroke-width="0.5"/>
<path d="M726.962 946.618C727.402 945.583 727.485 944.432 727.199 943.345C726.913 942.257 726.274 941.296 725.383 940.612" stroke="black" stroke-width="0.5"/>
<path d="M725.383 940.612L688.048 911.964L685.733 914.981" stroke="black" stroke-width="0.5"/>
<path d="M689.501 987.374L652.167 958.727L654.482 955.71" stroke="black" stroke-width="0.5"/>
<path d="M650.455 952.621L681.707 911.893L726.961 946.617L695.709 987.346L650.455 952.621Z" stroke="black" stroke-width="0.5"/>
<path d="M695.709 987.346L726.961 946.617L720.801 941.891L689.549 982.619L695.709 987.346ZM689.549 982.619L720.801 941.891L681.707 911.893L650.455 952.621L689.549 982.619Z" fill="#D6D6D6"/>
<path d="M726.962 946.618L725.382 940.612L688.048 911.964L685.733 914.981L726.962 946.618ZM689.501 987.374L695.71 987.346L654.481 955.71L652.166 958.727L689.501 987.374Z" fill="#848484"/>
<path d="M646.375 725.669L726.223 725.668" stroke="black" stroke-width="0.5"/>
<path d="M573.291 902.109L629.752 958.57" stroke="black" stroke-width="0.5"/>
<path d="M646.376 725.669L726.224 725.668C726.224 768.922 717.704 811.753 701.152 851.714C684.599 891.675 660.338 927.985 629.753 958.57L573.292 902.109C596.462 878.939 614.842 851.431 627.382 821.157C639.922 790.884 646.376 758.437 646.376 725.669C646.376 659.49 620.087 596.023 573.292 549.228C526.497 502.433 463.029 476.144 396.851 476.144C330.673 476.144 267.205 502.433 220.41 549.228L646.376 725.669Z" fill="#D6D6D6"/>
<path d="M646.375 725.669L726.223 725.669C726.223 768.922 717.704 811.753 701.151 851.714C684.599 891.675 660.337 927.985 629.752 958.57L573.291 902.109C596.462 878.939 614.842 851.431 627.381 821.158C639.921 790.884 646.375 758.437 646.375 725.669Z" stroke="black" stroke-width="0.5"/>
<path d="M765.724 600.664L746.078 553.235" stroke="black" stroke-width="0.5"/>
<path d="M769.814 603.085C770.853 602.655 771.719 601.892 772.276 600.916C772.834 599.94 773.051 598.806 772.895 597.693" stroke="black" stroke-width="0.5"/>
<path d="M753.252 550.263C752.576 549.365 751.621 548.717 750.536 548.422C749.452 548.126 748.3 548.199 747.261 548.629" stroke="black" stroke-width="0.5"/>
<path d="M747.258 548.629L703.781 566.638L705.236 570.151" stroke="black" stroke-width="0.5"/>
<path d="M769.815 603.085L726.338 621.094L724.882 617.581" stroke="black" stroke-width="0.5"/>
<path d="M720.196 619.522L700.551 572.092L753.25 550.264L772.896 597.693L720.196 619.522Z" stroke="black" stroke-width="0.5"/>
<path d="M772.896 597.693L753.25 550.264L746.077 553.235L765.723 600.664L772.896 597.693ZM765.723 600.664L746.077 553.235L700.551 572.092L720.196 619.522L765.723 600.664Z" fill="#D6D6D6"/>
<path d="M753.252 550.263L747.261 548.629L703.784 566.637L705.239 570.151L753.252 550.263ZM769.818 603.085L772.898 597.693L724.885 617.58L726.341 621.093L769.818 603.085Z" fill="#848484"/>
<path d="M720.799 509.457L689.547 468.728" stroke="black" stroke-width="0.5"/>
<path d="M725.381 510.735C726.273 510.051 726.912 509.09 727.198 508.003C727.484 506.916 727.401 505.765 726.961 504.73" stroke="black" stroke-width="0.5"/>
<path d="M695.71 464.001C694.824 463.309 693.733 462.93 692.609 462.925C691.485 462.92 690.392 463.289 689.5 463.973" stroke="black" stroke-width="0.5"/>
<path d="M689.5 463.973L652.165 492.621L654.48 495.638" stroke="black" stroke-width="0.5"/>
<path d="M725.381 510.736L688.047 539.383L685.732 536.367" stroke="black" stroke-width="0.5"/>
<path d="M681.705 539.455L650.453 498.726L695.707 464.001L726.959 504.73L681.705 539.455Z" stroke="black" stroke-width="0.5"/>
<path d="M726.959 504.73L695.707 464.001L689.547 468.728L720.799 509.456L726.959 504.73ZM720.799 509.456L689.547 468.728L650.453 498.726L681.705 539.455L720.799 509.456Z" fill="#D6D6D6"/>
<path d="M695.71 464.001L689.5 463.973L652.165 492.621L654.48 495.638L695.71 464.001ZM725.382 510.735L726.962 504.73L685.732 536.366L688.047 539.383L725.382 510.735Z" fill="#848484"/>
<path d="M785.502 700.394L778.801 649.496" stroke="black" stroke-width="0.5"/>
<path d="M788.828 703.792C789.943 703.645 790.977 703.132 791.768 702.334C792.559 701.535 793.063 700.497 793.199 699.381" stroke="black" stroke-width="0.5"/>
<path d="M786.5 648.483C786.08 647.44 785.324 646.567 784.354 646.001C783.383 645.434 782.251 645.206 781.137 645.353" stroke="black" stroke-width="0.5"/>
<path d="M781.137 645.353L734.48 651.495L734.976 655.266" stroke="black" stroke-width="0.5"/>
<path d="M788.828 703.792L742.172 709.934L741.675 706.164" stroke="black" stroke-width="0.5"/>
<path d="M736.647 706.826L729.947 655.928L786.5 648.482L793.201 699.38L736.647 706.826Z" stroke="black" stroke-width="0.5"/>
<path d="M793.201 699.38L786.5 648.482L778.802 649.496L785.503 700.394L793.201 699.38ZM785.503 700.394L778.802 649.496L729.947 655.928L736.647 706.826L785.503 700.394Z" fill="#D6D6D6"/>
<path d="M786.5 648.483L781.136 645.353L734.48 651.496L734.976 655.266L786.5 648.483ZM788.83 703.792L793.201 699.381L741.677 706.164L742.174 709.934L788.83 703.792Z" fill="#848484"/>
<path d="M573.297 549.225L629.758 492.764" stroke="black" stroke-width="0.5"/>
<path d="M646.381 725.665L726.229 725.666" stroke="black" stroke-width="0.5"/>
<path d="M573.297 549.225L629.758 492.764C660.343 523.349 684.604 559.659 701.157 599.62C717.709 639.581 726.229 682.412 726.229 725.666L646.381 725.666C646.381 692.897 639.927 660.45 627.387 630.177C614.847 599.903 596.467 572.395 573.297 549.225C526.502 502.43 463.034 476.141 396.856 476.141C330.678 476.141 267.211 502.43 220.416 549.225C173.621 596.02 147.331 659.487 147.331 725.665L573.297 549.225Z" fill="#D6D6D6"/>
<path d="M573.297 549.225L629.758 492.764C660.343 523.349 684.605 559.659 701.157 599.62C717.71 639.582 726.229 682.412 726.229 725.666L646.381 725.666C646.381 692.898 639.927 660.45 627.387 630.177C614.848 599.903 596.468 572.396 573.297 549.225Z" stroke="black" stroke-width="0.5"/>
<path d="M569.293 376.446L521.863 356.8" stroke="black" stroke-width="0.5"/>
<path d="M573.896 375.263C574.326 374.225 574.399 373.073 574.103 371.988C573.808 370.904 573.16 369.949 572.262 369.272" stroke="black" stroke-width="0.5"/>
<path d="M524.834 349.627C523.721 349.47 522.587 349.687 521.611 350.245C520.635 350.802 519.872 351.668 519.442 352.707" stroke="black" stroke-width="0.5"/>
<path d="M519.441 352.707L501.433 396.184L504.946 397.639" stroke="black" stroke-width="0.5"/>
<path d="M573.896 375.263L555.887 418.74L552.374 417.285" stroke="black" stroke-width="0.5"/>
<path d="M550.433 421.972L503.003 402.326L524.832 349.626L572.261 369.272L550.433 421.972Z" stroke="black" stroke-width="0.5"/>
<path d="M572.261 369.272L524.832 349.626L521.861 356.8L569.29 376.445L572.261 369.272ZM569.29 376.445L521.861 356.8L503.003 402.326L550.433 421.972L569.29 376.445Z" fill="#D6D6D6"/>
<path d="M524.834 349.627L519.442 352.707L501.433 396.184L504.946 397.639L524.834 349.627ZM573.898 375.263L572.263 369.273L552.376 417.285L555.889 418.74L573.898 375.263Z" fill="#848484"/>
<path d="M473.027 343.714L422.129 337.013" stroke="black" stroke-width="0.5"/>
<path d="M477.168 341.379C477.315 340.265 477.087 339.133 476.521 338.162C475.954 337.191 475.081 336.436 474.039 336.016" stroke="black" stroke-width="0.5"/>
<path d="M423.141 329.315C422.026 329.451 420.987 329.955 420.188 330.746C419.39 331.537 418.877 332.571 418.73 333.686" stroke="black" stroke-width="0.5"/>
<path d="M418.73 333.686L412.588 380.342L416.358 380.839" stroke="black" stroke-width="0.5"/>
<path d="M477.169 341.379L471.026 388.036L467.256 387.539" stroke="black" stroke-width="0.5"/>
<path d="M466.593 392.569L415.695 385.868L423.141 329.315L474.039 336.016L466.593 392.569Z" stroke="black" stroke-width="0.5"/>
<path d="M474.039 336.016L423.141 329.315L422.127 337.013L473.025 343.713L474.039 336.016ZM473.025 343.713L422.127 337.013L415.695 385.868L466.593 392.569L473.025 343.713Z" fill="#D6D6D6"/>
<path d="M423.141 329.315L418.73 333.686L412.588 380.342L416.358 380.839L423.141 329.315ZM477.169 341.379L474.039 336.016L467.256 387.539L471.026 388.036L477.169 341.379Z" fill="#848484"/>
<path d="M653.799 432.969L613.07 401.717" stroke="black" stroke-width="0.5"/>
<path d="M658.556 433.019C659.24 432.127 659.608 431.033 659.603 429.909C659.598 428.785 659.22 427.695 658.527 426.809" stroke="black" stroke-width="0.5"/>
<path d="M617.798 395.557C616.764 395.118 615.612 395.034 614.525 395.32C613.438 395.606 612.477 396.245 611.793 397.137" stroke="black" stroke-width="0.5"/>
<path d="M611.793 397.137L583.145 434.471L586.162 436.786" stroke="black" stroke-width="0.5"/>
<path d="M658.556 433.019L629.908 470.354L626.891 468.039" stroke="black" stroke-width="0.5"/>
<path d="M623.801 472.063L583.072 440.811L617.797 395.557L658.525 426.809L623.801 472.063Z" stroke="black" stroke-width="0.5"/>
<path d="M658.525 426.809L617.797 395.557L613.07 401.717L653.799 432.969L658.525 426.809ZM653.799 432.969L613.07 401.717L583.072 440.811L623.801 472.063L653.799 432.969Z" fill="#D6D6D6"/>
<path d="M617.798 395.557L611.793 397.137L583.145 434.472L586.162 436.787L617.798 395.557ZM658.555 433.019L658.527 426.809L626.89 468.039L629.907 470.354L658.555 433.019Z" fill="#848484"/>
<path d="M396.852 476.145L396.852 396.297" stroke="black" stroke-width="0.5"/>
<path d="M573.293 549.229L629.754 492.768" stroke="black" stroke-width="0.5"/>
<path d="M396.853 476.145L396.853 396.297C440.106 396.297 482.937 404.817 522.898 421.369C562.859 437.922 599.169 462.183 629.754 492.768L573.293 549.229C550.123 526.059 522.615 507.679 492.342 495.139C462.068 482.599 429.621 476.145 396.853 476.145C330.675 476.145 267.207 502.434 220.412 549.229C173.617 596.024 147.328 659.492 147.328 725.67C147.328 791.848 173.617 855.316 220.412 902.111L396.853 476.145Z" fill="#D6D6D6"/>
<path d="M396.851 476.145L396.851 396.297C440.105 396.297 482.935 404.817 522.896 421.369C562.857 437.922 599.167 462.183 629.752 492.768L573.291 549.229C550.121 526.059 522.613 507.679 492.34 495.139C462.066 482.599 429.619 476.145 396.851 476.145Z" stroke="black" stroke-width="0.5"/>
<path d="M271.843 356.797L224.414 376.442" stroke="black" stroke-width="0.5"/>
<path d="M274.263 352.703C273.833 351.665 273.07 350.799 272.094 350.241C271.118 349.684 269.984 349.466 268.871 349.623" stroke="black" stroke-width="0.5"/>
<path d="M221.443 369.269C220.545 369.945 219.897 370.9 219.601 371.985C219.305 373.069 219.378 374.221 219.808 375.26" stroke="black" stroke-width="0.5"/>
<path d="M219.809 375.26L237.817 418.737L241.331 417.282" stroke="black" stroke-width="0.5"/>
<path d="M274.263 352.703L292.272 396.18L288.759 397.636" stroke="black" stroke-width="0.5"/>
<path d="M290.7 402.322L243.27 421.968L221.441 369.269L268.871 349.623L290.7 402.322Z" stroke="black" stroke-width="0.5"/>
<path d="M268.871 349.623L221.441 369.269L224.413 376.442L271.842 356.796L268.871 349.623ZM271.842 356.796L224.413 376.442L243.27 421.968L290.7 402.322L271.842 356.796Z" fill="#D6D6D6"/>
<path d="M221.443 369.269L219.808 375.26L237.817 418.737L241.33 417.282L221.443 369.269ZM274.264 352.703L268.872 349.623L288.76 397.636L292.273 396.18L274.264 352.703Z" fill="#848484"/>
<path d="M180.635 401.721L139.906 432.973" stroke="black" stroke-width="0.5"/>
<path d="M181.912 397.14C181.227 396.249 180.266 395.61 179.179 395.324C178.092 395.038 176.941 395.121 175.906 395.561" stroke="black" stroke-width="0.5"/>
<path d="M135.177 426.813C134.485 427.698 134.106 428.789 134.101 429.913C134.096 431.037 134.464 432.131 135.149 433.023" stroke="black" stroke-width="0.5"/>
<path d="M135.148 433.022L163.796 470.357L166.813 468.042" stroke="black" stroke-width="0.5"/>
<path d="M181.911 397.141L210.559 434.475L207.542 436.79" stroke="black" stroke-width="0.5"/>
<path d="M210.633 440.815L169.904 472.067L135.18 426.813L175.908 395.561L210.633 440.815Z" stroke="black" stroke-width="0.5"/>
<path d="M175.908 395.561L135.18 426.813L139.906 432.973L180.635 401.721L175.908 395.561ZM180.635 401.721L139.906 432.973L169.904 472.067L210.633 440.815L180.635 401.721Z" fill="#D6D6D6"/>
<path d="M135.177 426.813L135.149 433.023L163.797 470.357L166.813 468.042L135.177 426.813ZM181.911 397.141L175.906 395.561L207.542 436.79L210.559 434.475L181.911 397.141Z" fill="#848484"/>
<path d="M371.574 337.015L320.676 343.716" stroke="black" stroke-width="0.5"/>
<path d="M374.97 333.688C374.823 332.574 374.31 331.54 373.512 330.749C372.713 329.957 371.674 329.454 370.559 329.317" stroke="black" stroke-width="0.5"/>
<path d="M319.661 336.018C318.618 336.439 317.745 337.194 317.179 338.165C316.612 339.136 316.385 340.267 316.531 341.382" stroke="black" stroke-width="0.5"/>
<path d="M316.531 341.382L322.674 388.038L326.444 387.542" stroke="black" stroke-width="0.5"/>
<path d="M374.969 333.688L381.112 380.345L377.342 380.841" stroke="black" stroke-width="0.5"/>
<path d="M378.004 385.871L327.106 392.571L319.66 336.018L370.558 329.317L378.004 385.871Z" stroke="black" stroke-width="0.5"/>
<path d="M370.558 329.317L319.66 336.018L320.674 343.716L371.572 337.015L370.558 329.317ZM371.572 337.015L320.674 343.716L327.106 392.571L378.004 385.871L371.572 337.015Z" fill="#D6D6D6"/>
<path d="M319.661 336.018L316.531 341.382L322.674 388.039L326.444 387.542L319.661 336.018ZM374.97 333.688L370.559 329.317L377.342 380.841L381.112 380.345L374.97 333.688Z" fill="#848484"/>
<path d="M220.41 549.225L163.949 492.764" stroke="black" stroke-width="0.5"/>
<path d="M396.852 476.141L396.852 396.293" stroke="black" stroke-width="0.5"/>
<path d="M220.409 549.225L163.948 492.764C194.533 462.179 230.843 437.918 270.804 421.365C310.766 404.813 353.596 396.293 396.85 396.293L396.85 476.141C364.082 476.141 331.634 482.595 301.361 495.135C271.087 507.675 243.58 526.055 220.409 549.225C173.614 596.02 147.325 659.488 147.325 725.666C147.325 791.844 173.614 855.311 220.409 902.106C267.204 948.901 330.671 975.19 396.849 975.191L220.409 549.225Z" fill="#D6D6D6"/>
<path d="M220.411 549.225L163.95 492.764C194.535 462.179 230.845 437.918 270.806 421.365C310.768 404.813 353.598 396.293 396.852 396.293L396.852 476.141C364.084 476.141 331.636 482.595 301.363 495.135C271.089 507.675 243.582 526.055 220.411 549.225Z" stroke="black" stroke-width="0.5"/>
</g>
<defs>
<clipPath id="clip0_3150_2">
<rect width="793.701" height="1122.52" fill="white"/>
</clipPath>
</defs>
</svg>
