<svg width="794" height="1123" viewBox="0 0 794 1123" fill="none" xmlns="http://www.w3.org/2000/svg">
<g clip-path="url(#clip0_3150_7410)">
<path d="M45.9361 865.49H6.98047" stroke="black" stroke-width="0.5"/>
<path d="M48.8192 863.322C48.8192 862.469 48.5357 861.641 48.0134 860.966C47.4911 860.292 46.7595 859.81 45.9336 859.597" stroke="black" stroke-width="0.5"/>
<path d="M6.97935 859.597C6.15347 859.81 5.42186 860.292 4.89953 860.966C4.37719 861.641 4.09375 862.469 4.09375 863.322" stroke="black" stroke-width="0.5"/>
<path d="M4.09375 863.322V899.031H6.97935" stroke="black" stroke-width="0.5"/>
<path d="M48.8192 863.322V899.031H45.9336" stroke="black" stroke-width="0.5"/>
<path d="M45.936 902.881H6.98047V859.597H45.936V902.881Z" stroke="black" stroke-width="0.5"/>
<path d="M45.936 859.597H6.98047V865.489H45.936V859.597ZM45.936 865.489H6.98047V902.881H45.936V865.489Z" fill="#D6D6D6"/>
<path d="M6.97935 859.597L4.09375 863.322V899.032H6.97935V859.597ZM48.8205 863.322L45.9349 859.597V899.032H48.8205V863.322Z" fill="#848484"/>
<path d="M98.9556 865.49H60" stroke="black" stroke-width="0.5"/>
<path d="M101.839 863.322C101.839 862.469 101.555 861.641 101.033 860.966C100.511 860.292 99.779 859.81 98.9531 859.597" stroke="black" stroke-width="0.5"/>
<path d="M59.9989 859.597C59.173 859.81 58.4414 860.292 57.9191 860.966C57.3967 861.641 57.1133 862.469 57.1133 863.322" stroke="black" stroke-width="0.5"/>
<path d="M57.1133 863.322V899.031H59.9989" stroke="black" stroke-width="0.5"/>
<path d="M101.839 863.322V899.031H98.9531" stroke="black" stroke-width="0.5"/>
<path d="M98.9556 902.881H60V859.597H98.9556V902.881Z" stroke="black" stroke-width="0.5"/>
<path d="M98.9556 859.597H60V865.489H98.9556V859.597ZM98.9556 865.489H60V902.881H98.9556V865.489Z" fill="#D6D6D6"/>
<path d="M59.9989 859.597L57.1133 863.322V899.032H59.9989V859.597ZM101.84 863.322L98.9544 859.597V899.032H101.84V863.322Z" fill="#848484"/>
<path d="M204.987 865.49H166.031" stroke="black" stroke-width="0.5"/>
<path d="M207.87 863.322C207.87 862.469 207.587 861.641 207.064 860.966C206.542 860.292 205.81 859.81 204.984 859.597" stroke="black" stroke-width="0.5"/>
<path d="M166.03 859.597C165.204 859.81 164.473 860.292 163.95 860.966C163.428 861.641 163.145 862.469 163.145 863.322" stroke="black" stroke-width="0.5"/>
<path d="M163.145 863.322V899.031H166.03" stroke="black" stroke-width="0.5"/>
<path d="M207.87 863.322V899.031H204.984" stroke="black" stroke-width="0.5"/>
<path d="M204.987 902.881H166.031V859.597H204.987V902.881Z" stroke="black" stroke-width="0.5"/>
<path d="M204.987 859.597H166.031V865.489H204.987V859.597ZM204.987 865.489H166.031V902.881H204.987V865.489Z" fill="#D6D6D6"/>
<path d="M166.03 859.597L163.145 863.322V899.032H166.03V859.597ZM207.871 863.322L204.986 859.597V899.032H207.871V863.322Z" fill="#848484"/>
<path d="M151.971 865.49H113.016" stroke="black" stroke-width="0.5"/>
<path d="M154.854 863.322C154.854 862.469 154.571 861.641 154.049 860.966C153.526 860.292 152.795 859.81 151.969 859.597" stroke="black" stroke-width="0.5"/>
<path d="M113.015 859.597C112.189 859.81 111.457 860.292 110.935 860.966C110.412 861.641 110.129 862.469 110.129 863.322" stroke="black" stroke-width="0.5"/>
<path d="M110.129 863.322V899.031H113.015" stroke="black" stroke-width="0.5"/>
<path d="M154.854 863.322V899.031H151.969" stroke="black" stroke-width="0.5"/>
<path d="M151.971 902.881H113.016V859.597H151.971V902.881Z" stroke="black" stroke-width="0.5"/>
<path d="M151.971 859.597H113.016V865.489H151.971V859.597ZM151.971 865.489H113.016V902.881H151.971V865.489Z" fill="#D6D6D6"/>
<path d="M113.015 859.597L110.129 863.322V899.032H113.015V859.597ZM154.856 863.322L151.97 859.597V899.032H154.856V863.322Z" fill="#848484"/>
<path d="M1.08362 910.455H213.148V971.045H1.08362V910.455Z" fill="#D6D6D6"/>
<path d="M1.08362 910.455H213.148V971.045H1.08362V910.455Z" stroke="black" stroke-width="0.5"/>
<path d="M45.9361 1016.97H6.98047" stroke="black" stroke-width="0.5"/>
<path d="M48.8192 1014.8C48.8192 1013.94 48.5357 1013.12 48.0134 1012.44C47.4911 1011.77 46.7595 1011.29 45.9336 1011.07" stroke="black" stroke-width="0.5"/>
<path d="M6.97935 1011.07C6.15347 1011.29 5.42186 1011.77 4.89953 1012.44C4.37719 1013.12 4.09375 1013.94 4.09375 1014.8" stroke="black" stroke-width="0.5"/>
<path d="M4.09375 1014.8V1050.51H6.97935" stroke="black" stroke-width="0.5"/>
<path d="M48.8192 1014.8V1050.51H45.9336" stroke="black" stroke-width="0.5"/>
<path d="M45.936 1054.36H6.98047V1011.07H45.936V1054.36Z" stroke="black" stroke-width="0.5"/>
<path d="M45.936 1011.07H6.98047V1016.96H45.936V1011.07ZM45.936 1016.96H6.98047V1054.36H45.936V1016.96Z" fill="#D6D6D6"/>
<path d="M6.97935 1011.07L4.09375 1014.8V1050.51H6.97935V1011.07ZM48.8205 1014.8L45.9349 1011.07V1050.51H48.8205V1014.8Z" fill="#848484"/>
<path d="M98.9556 1016.97H60" stroke="black" stroke-width="0.5"/>
<path d="M101.839 1014.8C101.839 1013.94 101.555 1013.12 101.033 1012.44C100.511 1011.77 99.779 1011.29 98.9531 1011.07" stroke="black" stroke-width="0.5"/>
<path d="M59.9989 1011.07C59.173 1011.29 58.4414 1011.77 57.9191 1012.44C57.3967 1013.12 57.1133 1013.94 57.1133 1014.8" stroke="black" stroke-width="0.5"/>
<path d="M57.1133 1014.8V1050.51H59.9989" stroke="black" stroke-width="0.5"/>
<path d="M101.839 1014.8V1050.51H98.9531" stroke="black" stroke-width="0.5"/>
<path d="M98.9556 1054.36H60V1011.07H98.9556V1054.36Z" stroke="black" stroke-width="0.5"/>
<path d="M98.9556 1011.07H60V1016.96H98.9556V1011.07ZM98.9556 1016.96H60V1054.36H98.9556V1016.96Z" fill="#D6D6D6"/>
<path d="M59.9989 1011.07L57.1133 1014.8V1050.51H59.9989V1011.07ZM101.84 1014.8L98.9544 1011.07V1050.51H101.84V1014.8Z" fill="#848484"/>
<path d="M204.987 1016.97H166.031" stroke="black" stroke-width="0.5"/>
<path d="M207.87 1014.8C207.87 1013.94 207.587 1013.12 207.064 1012.44C206.542 1011.77 205.81 1011.29 204.984 1011.07" stroke="black" stroke-width="0.5"/>
<path d="M166.03 1011.07C165.204 1011.29 164.473 1011.77 163.95 1012.44C163.428 1013.12 163.145 1013.94 163.145 1014.8" stroke="black" stroke-width="0.5"/>
<path d="M163.145 1014.8V1050.51H166.03" stroke="black" stroke-width="0.5"/>
<path d="M207.87 1014.8V1050.51H204.984" stroke="black" stroke-width="0.5"/>
<path d="M204.987 1054.36H166.031V1011.07H204.987V1054.36Z" stroke="black" stroke-width="0.5"/>
<path d="M204.987 1011.07H166.031V1016.96H204.987V1011.07ZM204.987 1016.96H166.031V1054.36H204.987V1016.96Z" fill="#D6D6D6"/>
<path d="M166.03 1011.07L163.145 1014.8V1050.51H166.03V1011.07ZM207.871 1014.8L204.986 1011.07V1050.51H207.871V1014.8Z" fill="#848484"/>
<path d="M151.971 1016.97H113.016" stroke="black" stroke-width="0.5"/>
<path d="M154.854 1014.8C154.854 1013.94 154.571 1013.12 154.049 1012.44C153.526 1011.77 152.795 1011.29 151.969 1011.07" stroke="black" stroke-width="0.5"/>
<path d="M113.015 1011.07C112.189 1011.29 111.457 1011.77 110.935 1012.44C110.412 1013.12 110.129 1013.94 110.129 1014.8" stroke="black" stroke-width="0.5"/>
<path d="M110.129 1014.8V1050.51H113.015" stroke="black" stroke-width="0.5"/>
<path d="M154.854 1014.8V1050.51H151.969" stroke="black" stroke-width="0.5"/>
<path d="M151.971 1054.36H113.016V1011.07H151.971V1054.36Z" stroke="black" stroke-width="0.5"/>
<path d="M151.971 1011.07H113.016V1016.96H151.971V1011.07ZM151.971 1016.96H113.016V1054.36H151.971V1016.96Z" fill="#D6D6D6"/>
<path d="M113.015 1011.07L110.129 1014.8V1050.51H113.015V1011.07ZM154.856 1014.8L151.97 1011.07V1050.51H154.856V1014.8Z" fill="#848484"/>
<path d="M1.08362 1061.93H213.148V1122.52H1.08362V1061.93Z" fill="#D6D6D6"/>
<path d="M1.08362 1061.93H213.148V1122.52H1.08362V1061.93Z" stroke="black" stroke-width="0.5"/>
<path d="M45.9361 714.015H6.98047" stroke="black" stroke-width="0.5"/>
<path d="M48.8192 711.847C48.8192 710.994 48.5357 710.166 48.0134 709.491C47.4911 708.817 46.7595 708.335 45.9336 708.122" stroke="black" stroke-width="0.5"/>
<path d="M6.97935 708.122C6.15347 708.335 5.42186 708.817 4.89953 709.491C4.37719 710.166 4.09375 710.994 4.09375 711.847" stroke="black" stroke-width="0.5"/>
<path d="M4.09375 711.847V747.556H6.97935" stroke="black" stroke-width="0.5"/>
<path d="M48.8192 711.847V747.556H45.9336" stroke="black" stroke-width="0.5"/>
<path d="M45.936 751.406H6.98047V708.122H45.936V751.406Z" stroke="black" stroke-width="0.5"/>
<path d="M45.936 708.122H6.98047V714.013H45.936V708.122ZM45.936 714.013H6.98047V751.406H45.936V714.013Z" fill="#D6D6D6"/>
<path d="M6.97935 708.122L4.09375 711.847V747.557H6.97935V708.122ZM48.8205 711.847L45.9349 708.122V747.557H48.8205V711.847Z" fill="#848484"/>
<path d="M98.9556 714.015H60" stroke="black" stroke-width="0.5"/>
<path d="M101.839 711.847C101.839 710.994 101.555 710.166 101.033 709.491C100.511 708.817 99.779 708.335 98.9531 708.122" stroke="black" stroke-width="0.5"/>
<path d="M59.9989 708.122C59.173 708.335 58.4414 708.817 57.9191 709.491C57.3967 710.166 57.1133 710.994 57.1133 711.847" stroke="black" stroke-width="0.5"/>
<path d="M57.1133 711.847V747.556H59.9989" stroke="black" stroke-width="0.5"/>
<path d="M101.839 711.847V747.556H98.9531" stroke="black" stroke-width="0.5"/>
<path d="M98.9556 751.406H60V708.122H98.9556V751.406Z" stroke="black" stroke-width="0.5"/>
<path d="M98.9556 708.122H60V714.013H98.9556V708.122ZM98.9556 714.013H60V751.406H98.9556V714.013Z" fill="#D6D6D6"/>
<path d="M59.9989 708.122L57.1133 711.847V747.557H59.9989V708.122ZM101.84 711.847L98.9544 708.122V747.557H101.84V711.847Z" fill="#848484"/>
<path d="M204.987 714.015H166.031" stroke="black" stroke-width="0.5"/>
<path d="M207.87 711.847C207.87 710.994 207.587 710.166 207.064 709.491C206.542 708.817 205.81 708.335 204.984 708.122" stroke="black" stroke-width="0.5"/>
<path d="M166.03 708.122C165.204 708.335 164.473 708.817 163.95 709.491C163.428 710.166 163.145 710.994 163.145 711.847" stroke="black" stroke-width="0.5"/>
<path d="M163.145 711.847V747.556H166.03" stroke="black" stroke-width="0.5"/>
<path d="M207.87 711.847V747.556H204.984" stroke="black" stroke-width="0.5"/>
<path d="M204.987 751.406H166.031V708.122H204.987V751.406Z" stroke="black" stroke-width="0.5"/>
<path d="M204.987 708.122H166.031V714.013H204.987V708.122ZM204.987 714.013H166.031V751.406H204.987V714.013Z" fill="#D6D6D6"/>
<path d="M166.03 708.122L163.145 711.847V747.557H166.03V708.122ZM207.871 711.847L204.986 708.122V747.557H207.871V711.847Z" fill="#848484"/>
<path d="M151.971 714.015H113.016" stroke="black" stroke-width="0.5"/>
<path d="M154.854 711.847C154.854 710.994 154.571 710.166 154.049 709.491C153.526 708.817 152.795 708.335 151.969 708.122" stroke="black" stroke-width="0.5"/>
<path d="M113.015 708.122C112.189 708.335 111.457 708.817 110.935 709.491C110.412 710.166 110.129 710.994 110.129 711.847" stroke="black" stroke-width="0.5"/>
<path d="M110.129 711.847V747.556H113.015" stroke="black" stroke-width="0.5"/>
<path d="M154.854 711.847V747.556H151.969" stroke="black" stroke-width="0.5"/>
<path d="M151.971 751.406H113.016V708.122H151.971V751.406Z" stroke="black" stroke-width="0.5"/>
<path d="M151.971 708.122H113.016V714.013H151.971V708.122ZM151.971 714.013H113.016V751.406H151.971V714.013Z" fill="#D6D6D6"/>
<path d="M113.015 708.122L110.129 711.847V747.557H113.015V708.122ZM154.856 711.847L151.97 708.122V747.557H154.856V711.847Z" fill="#848484"/>
<path d="M1.08362 758.98H213.148V819.57H1.08362V758.98Z" fill="#D6D6D6"/>
<path d="M1.08362 758.98H213.148V819.57H1.08362V758.98Z" stroke="black" stroke-width="0.5"/>
<path d="M371.608 865.49H332.652" stroke="black" stroke-width="0.5"/>
<path d="M374.491 863.322C374.491 862.469 374.208 861.641 373.685 860.966C373.163 860.292 372.431 859.81 371.605 859.597" stroke="black" stroke-width="0.5"/>
<path d="M332.651 859.597C331.825 859.81 331.094 860.292 330.571 860.966C330.049 861.641 329.766 862.469 329.766 863.322" stroke="black" stroke-width="0.5"/>
<path d="M329.766 863.322V899.031H332.651" stroke="black" stroke-width="0.5"/>
<path d="M374.491 863.322V899.031H371.605" stroke="black" stroke-width="0.5"/>
<path d="M371.608 902.881H332.652V859.597H371.608V902.881Z" stroke="black" stroke-width="0.5"/>
<path d="M371.608 859.597H332.652V865.489H371.608V859.597ZM371.608 865.489H332.652V902.881H371.608V865.489Z" fill="#D6D6D6"/>
<path d="M332.651 859.597L329.766 863.322V899.032H332.651V859.597ZM374.492 863.322L371.607 859.597V899.032H374.492V863.322Z" fill="#848484"/>
<path d="M424.624 865.49H385.668" stroke="black" stroke-width="0.5"/>
<path d="M427.507 863.322C427.507 862.469 427.223 861.641 426.701 860.966C426.179 860.292 425.447 859.81 424.621 859.597" stroke="black" stroke-width="0.5"/>
<path d="M385.667 859.597C384.841 859.81 384.109 860.292 383.587 860.966C383.065 861.641 382.781 862.469 382.781 863.322" stroke="black" stroke-width="0.5"/>
<path d="M382.781 863.322V899.031H385.667" stroke="black" stroke-width="0.5"/>
<path d="M427.507 863.322V899.031H424.621" stroke="black" stroke-width="0.5"/>
<path d="M424.624 902.881H385.668V859.597H424.624V902.881Z" stroke="black" stroke-width="0.5"/>
<path d="M424.624 859.597H385.668V865.489H424.624V859.597ZM424.624 865.489H385.668V902.881H424.624V865.489Z" fill="#D6D6D6"/>
<path d="M385.667 859.597L382.781 863.322V899.032H385.667V859.597ZM427.508 863.322L424.622 859.597V899.032H427.508V863.322Z" fill="#848484"/>
<path d="M530.659 865.49H491.703" stroke="black" stroke-width="0.5"/>
<path d="M533.542 863.322C533.542 862.469 533.258 861.641 532.736 860.966C532.214 860.292 531.482 859.81 530.656 859.597" stroke="black" stroke-width="0.5"/>
<path d="M491.702 859.597C490.876 859.81 490.145 860.292 489.622 860.966C489.1 861.641 488.816 862.469 488.816 863.322" stroke="black" stroke-width="0.5"/>
<path d="M488.816 863.322V899.031H491.702" stroke="black" stroke-width="0.5"/>
<path d="M533.542 863.322V899.031H530.656" stroke="black" stroke-width="0.5"/>
<path d="M530.659 902.881H491.703V859.597H530.659V902.881Z" stroke="black" stroke-width="0.5"/>
<path d="M530.659 859.597H491.703V865.489H530.659V859.597ZM530.659 865.489H491.703V902.881H530.659V865.489Z" fill="#D6D6D6"/>
<path d="M491.702 859.597L488.816 863.322V899.032H491.702V859.597ZM533.543 863.322L530.658 859.597V899.032H533.543V863.322Z" fill="#848484"/>
<path d="M477.643 865.49H438.688" stroke="black" stroke-width="0.5"/>
<path d="M480.526 863.322C480.526 862.469 480.243 861.641 479.72 860.966C479.198 860.292 478.467 859.81 477.641 859.597" stroke="black" stroke-width="0.5"/>
<path d="M438.686 859.597C437.86 859.81 437.129 860.292 436.607 860.966C436.084 861.641 435.801 862.469 435.801 863.322" stroke="black" stroke-width="0.5"/>
<path d="M435.801 863.322V899.031H438.686" stroke="black" stroke-width="0.5"/>
<path d="M480.526 863.322V899.031H477.641" stroke="black" stroke-width="0.5"/>
<path d="M477.643 902.881H438.688V859.597H477.643V902.881Z" stroke="black" stroke-width="0.5"/>
<path d="M477.643 859.597H438.688V865.489H477.643V859.597ZM477.643 865.489H438.688V902.881H477.643V865.489Z" fill="#D6D6D6"/>
<path d="M438.686 859.597L435.801 863.322V899.032H438.686V859.597ZM480.528 863.322L477.642 859.597V899.032H480.528V863.322Z" fill="#848484"/>
<path d="M326.755 910.455H538.82V971.045H326.755V910.455Z" fill="#D6D6D6"/>
<path d="M326.755 910.455H538.82V971.045H326.755V910.455Z" stroke="black" stroke-width="0.5"/>
<path d="M371.608 1016.97H332.652" stroke="black" stroke-width="0.5"/>
<path d="M374.491 1014.8C374.491 1013.94 374.208 1013.12 373.685 1012.44C373.163 1011.77 372.431 1011.29 371.605 1011.07" stroke="black" stroke-width="0.5"/>
<path d="M332.651 1011.07C331.825 1011.29 331.094 1011.77 330.571 1012.44C330.049 1013.12 329.766 1013.94 329.766 1014.8" stroke="black" stroke-width="0.5"/>
<path d="M329.766 1014.8V1050.51H332.651" stroke="black" stroke-width="0.5"/>
<path d="M374.491 1014.8V1050.51H371.605" stroke="black" stroke-width="0.5"/>
<path d="M371.608 1054.36H332.652V1011.07H371.608V1054.36Z" stroke="black" stroke-width="0.5"/>
<path d="M371.608 1011.07H332.652V1016.96H371.608V1011.07ZM371.608 1016.96H332.652V1054.36H371.608V1016.96Z" fill="#D6D6D6"/>
<path d="M332.651 1011.07L329.766 1014.8V1050.51H332.651V1011.07ZM374.492 1014.8L371.607 1011.07V1050.51H374.492V1014.8Z" fill="#848484"/>
<path d="M424.624 1016.97H385.668" stroke="black" stroke-width="0.5"/>
<path d="M427.507 1014.8C427.507 1013.94 427.223 1013.12 426.701 1012.44C426.179 1011.77 425.447 1011.29 424.621 1011.07" stroke="black" stroke-width="0.5"/>
<path d="M385.667 1011.07C384.841 1011.29 384.109 1011.77 383.587 1012.44C383.065 1013.12 382.781 1013.94 382.781 1014.8" stroke="black" stroke-width="0.5"/>
<path d="M382.781 1014.8V1050.51H385.667" stroke="black" stroke-width="0.5"/>
<path d="M427.507 1014.8V1050.51H424.621" stroke="black" stroke-width="0.5"/>
<path d="M424.624 1054.36H385.668V1011.07H424.624V1054.36Z" stroke="black" stroke-width="0.5"/>
<path d="M424.624 1011.07H385.668V1016.96H424.624V1011.07ZM424.624 1016.96H385.668V1054.36H424.624V1016.96Z" fill="#D6D6D6"/>
<path d="M385.667 1011.07L382.781 1014.8V1050.51H385.667V1011.07ZM427.508 1014.8L424.622 1011.07V1050.51H427.508V1014.8Z" fill="#848484"/>
<path d="M530.659 1016.97H491.703" stroke="black" stroke-width="0.5"/>
<path d="M533.542 1014.8C533.542 1013.94 533.258 1013.12 532.736 1012.44C532.214 1011.77 531.482 1011.29 530.656 1011.07" stroke="black" stroke-width="0.5"/>
<path d="M491.702 1011.07C490.876 1011.29 490.145 1011.77 489.622 1012.44C489.1 1013.12 488.816 1013.94 488.816 1014.8" stroke="black" stroke-width="0.5"/>
<path d="M488.816 1014.8V1050.51H491.702" stroke="black" stroke-width="0.5"/>
<path d="M533.542 1014.8V1050.51H530.656" stroke="black" stroke-width="0.5"/>
<path d="M530.659 1054.36H491.703V1011.07H530.659V1054.36Z" stroke="black" stroke-width="0.5"/>
<path d="M530.659 1011.07H491.703V1016.96H530.659V1011.07ZM530.659 1016.96H491.703V1054.36H530.659V1016.96Z" fill="#D6D6D6"/>
<path d="M491.702 1011.07L488.816 1014.8V1050.51H491.702V1011.07ZM533.543 1014.8L530.658 1011.07V1050.51H533.543V1014.8Z" fill="#848484"/>
<path d="M477.643 1016.97H438.688" stroke="black" stroke-width="0.5"/>
<path d="M480.526 1014.8C480.526 1013.94 480.243 1013.12 479.72 1012.44C479.198 1011.77 478.467 1011.29 477.641 1011.07" stroke="black" stroke-width="0.5"/>
<path d="M438.686 1011.07C437.86 1011.29 437.129 1011.77 436.607 1012.44C436.084 1013.12 435.801 1013.94 435.801 1014.8" stroke="black" stroke-width="0.5"/>
<path d="M435.801 1014.8V1050.51H438.686" stroke="black" stroke-width="0.5"/>
<path d="M480.526 1014.8V1050.51H477.641" stroke="black" stroke-width="0.5"/>
<path d="M477.643 1054.36H438.688V1011.07H477.643V1054.36Z" stroke="black" stroke-width="0.5"/>
<path d="M477.643 1011.07H438.688V1016.96H477.643V1011.07ZM477.643 1016.96H438.688V1054.36H477.643V1016.96Z" fill="#D6D6D6"/>
<path d="M438.686 1011.07L435.801 1014.8V1050.51H438.686V1011.07ZM480.528 1014.8L477.642 1011.07V1050.51H480.528V1014.8Z" fill="#848484"/>
<path d="M326.755 1061.93H538.82V1122.52H326.755V1061.93Z" fill="#D6D6D6"/>
<path d="M326.755 1061.93H538.82V1122.52H326.755V1061.93Z" stroke="black" stroke-width="0.5"/>
<path d="M371.608 714.015H332.652" stroke="black" stroke-width="0.5"/>
<path d="M374.491 711.847C374.491 710.994 374.208 710.166 373.685 709.491C373.163 708.817 372.431 708.335 371.605 708.122" stroke="black" stroke-width="0.5"/>
<path d="M332.651 708.122C331.825 708.335 331.094 708.817 330.571 709.491C330.049 710.166 329.766 710.994 329.766 711.847" stroke="black" stroke-width="0.5"/>
<path d="M329.766 711.847V747.556H332.651" stroke="black" stroke-width="0.5"/>
<path d="M374.491 711.847V747.556H371.605" stroke="black" stroke-width="0.5"/>
<path d="M371.608 751.406H332.652V708.122H371.608V751.406Z" stroke="black" stroke-width="0.5"/>
<path d="M371.608 708.122H332.652V714.013H371.608V708.122ZM371.608 714.013H332.652V751.406H371.608V714.013Z" fill="#D6D6D6"/>
<path d="M332.651 708.122L329.766 711.847V747.557H332.651V708.122ZM374.492 711.847L371.607 708.122V747.557H374.492V711.847Z" fill="#848484"/>
<path d="M424.624 714.015H385.668" stroke="black" stroke-width="0.5"/>
<path d="M427.507 711.847C427.507 710.994 427.223 710.166 426.701 709.491C426.179 708.817 425.447 708.335 424.621 708.122" stroke="black" stroke-width="0.5"/>
<path d="M385.667 708.122C384.841 708.335 384.109 708.817 383.587 709.491C383.065 710.166 382.781 710.994 382.781 711.847" stroke="black" stroke-width="0.5"/>
<path d="M382.781 711.847V747.556H385.667" stroke="black" stroke-width="0.5"/>
<path d="M427.507 711.847V747.556H424.621" stroke="black" stroke-width="0.5"/>
<path d="M424.624 751.406H385.668V708.122H424.624V751.406Z" stroke="black" stroke-width="0.5"/>
<path d="M424.624 708.122H385.668V714.013H424.624V708.122ZM424.624 714.013H385.668V751.406H424.624V714.013Z" fill="#D6D6D6"/>
<path d="M385.667 708.122L382.781 711.847V747.557H385.667V708.122ZM427.508 711.847L424.622 708.122V747.557H427.508V711.847Z" fill="#848484"/>
<path d="M530.659 714.015H491.703" stroke="black" stroke-width="0.5"/>
<path d="M533.542 711.847C533.542 710.994 533.258 710.166 532.736 709.491C532.214 708.817 531.482 708.335 530.656 708.122" stroke="black" stroke-width="0.5"/>
<path d="M491.702 708.122C490.876 708.335 490.145 708.817 489.622 709.491C489.1 710.166 488.816 710.994 488.816 711.847" stroke="black" stroke-width="0.5"/>
<path d="M488.816 711.847V747.556H491.702" stroke="black" stroke-width="0.5"/>
<path d="M533.542 711.847V747.556H530.656" stroke="black" stroke-width="0.5"/>
<path d="M530.659 751.406H491.703V708.122H530.659V751.406Z" stroke="black" stroke-width="0.5"/>
<path d="M530.659 708.122H491.703V714.013H530.659V708.122ZM530.659 714.013H491.703V751.406H530.659V714.013Z" fill="#D6D6D6"/>
<path d="M491.702 708.122L488.816 711.847V747.557H491.702V708.122ZM533.543 711.847L530.658 708.122V747.557H533.543V711.847Z" fill="#848484"/>
<path d="M477.643 714.015H438.688" stroke="black" stroke-width="0.5"/>
<path d="M480.526 711.847C480.526 710.994 480.243 710.166 479.72 709.491C479.198 708.817 478.467 708.335 477.641 708.122" stroke="black" stroke-width="0.5"/>
<path d="M438.686 708.122C437.86 708.335 437.129 708.817 436.607 709.491C436.084 710.166 435.801 710.994 435.801 711.847" stroke="black" stroke-width="0.5"/>
<path d="M435.801 711.847V747.556H438.686" stroke="black" stroke-width="0.5"/>
<path d="M480.526 711.847V747.556H477.641" stroke="black" stroke-width="0.5"/>
<path d="M477.643 751.406H438.688V708.122H477.643V751.406Z" stroke="black" stroke-width="0.5"/>
<path d="M477.643 708.122H438.688V714.013H477.643V708.122ZM477.643 714.013H438.688V751.406H477.643V714.013Z" fill="#D6D6D6"/>
<path d="M438.686 708.122L435.801 711.847V747.557H438.686V708.122ZM480.528 711.847L477.642 708.122V747.557H480.528V711.847Z" fill="#848484"/>
<path d="M326.755 758.98H538.82V819.57H326.755V758.98Z" fill="#D6D6D6"/>
<path d="M326.755 758.98H538.82V819.57H326.755V758.98Z" stroke="black" stroke-width="0.5"/>
</g>
<defs>
<clipPath id="clip0_3150_7410">
<rect width="793.701" height="1122.52" fill="white"/>
</clipPath>
</defs>
</svg>
