<svg width="794" height="1123" viewBox="0 0 794 1123" fill="none" xmlns="http://www.w3.org/2000/svg">
<g clip-path="url(#clip0_3150_7164)">
<path d="M294.773 707.579V746.535" stroke="black" stroke-width="0.5"/>
<path d="M292.608 704.694C291.755 704.694 290.926 704.977 290.252 705.499C289.578 706.022 289.096 706.753 288.883 707.579" stroke="black" stroke-width="0.5"/>
<path d="M288.883 746.535C289.096 747.361 289.578 748.092 290.252 748.615C290.926 749.137 291.755 749.42 292.608 749.42" stroke="black" stroke-width="0.5"/>
<path d="M292.609 749.42H328.319V746.535" stroke="black" stroke-width="0.5"/>
<path d="M292.609 704.694H328.319V707.579" stroke="black" stroke-width="0.5"/>
<path d="M332.167 707.579V746.535H288.883V707.579H332.167Z" stroke="black" stroke-width="0.5"/>
<path d="M288.883 707.579V746.535H294.774V707.579H288.883ZM294.774 707.579V746.535H332.167V707.579H294.774Z" fill="#D6D6D6"/>
<path d="M288.883 746.535L292.608 749.42H328.317V746.535H288.883ZM292.608 704.694L288.883 707.579H328.317V704.694H292.608Z" fill="#848484"/>
<path d="M498.309 746.534V707.579" stroke="black" stroke-width="0.5"/>
<path d="M500.474 749.42C501.327 749.42 502.156 749.136 502.83 748.614C503.504 748.092 503.986 747.36 504.199 746.534" stroke="black" stroke-width="0.5"/>
<path d="M504.199 707.578C503.986 706.753 503.504 706.021 502.83 705.499C502.156 704.976 501.327 704.693 500.474 704.693" stroke="black" stroke-width="0.5"/>
<path d="M500.473 704.693H464.763V707.578" stroke="black" stroke-width="0.5"/>
<path d="M500.473 749.42H464.763V746.534" stroke="black" stroke-width="0.5"/>
<path d="M460.915 746.534V707.579H504.199V746.534H460.915Z" stroke="black" stroke-width="0.5"/>
<path d="M504.199 746.534V707.579H498.308V746.534H504.199ZM498.308 746.534V707.579H460.915V746.534H498.308Z" fill="#D6D6D6"/>
<path d="M504.199 707.578L500.474 704.693H464.765V707.578H504.199ZM500.474 749.42L504.199 746.534H464.765V749.42H500.474Z" fill="#848484"/>
<path d="M454.732 812.794L482.277 785.248" stroke="black" stroke-width="0.5"/>
<path d="M454.224 816.364C454.827 816.967 455.613 817.353 456.46 817.461C457.306 817.568 458.164 817.391 458.898 816.958" stroke="black" stroke-width="0.5"/>
<path d="M486.444 789.412C486.877 788.678 487.054 787.82 486.946 786.974C486.839 786.128 486.453 785.341 485.85 784.738" stroke="black" stroke-width="0.5"/>
<path d="M485.848 784.738L460.597 759.488L458.557 761.528" stroke="black" stroke-width="0.5"/>
<path d="M454.221 816.365L428.971 791.114L431.011 789.074" stroke="black" stroke-width="0.5"/>
<path d="M428.289 786.352L455.835 758.806L486.441 789.413L458.896 816.958L428.289 786.352Z" stroke="black" stroke-width="0.5"/>
<path d="M458.896 816.958L486.441 789.413L482.276 785.247L454.73 812.793L458.896 816.958ZM454.73 812.793L482.276 785.247L455.835 758.806L428.289 786.352L454.73 812.793Z" fill="#D6D6D6"/>
<path d="M486.444 789.412L485.85 784.738L460.6 759.488L458.56 761.528L486.444 789.412ZM454.224 816.365L458.898 816.958L431.014 789.074L428.973 791.114L454.224 816.365Z" fill="#848484"/>
<path d="M377.064 828.83H416.02" stroke="black" stroke-width="0.5"/>
<path d="M374.181 830.995C374.181 831.847 374.464 832.676 374.987 833.351C375.509 834.025 376.241 834.506 377.066 834.72" stroke="black" stroke-width="0.5"/>
<path d="M416.021 834.72C416.847 834.506 417.578 834.025 418.1 833.351C418.623 832.676 418.906 831.847 418.906 830.995" stroke="black" stroke-width="0.5"/>
<path d="M418.906 830.995V795.285H416.021" stroke="black" stroke-width="0.5"/>
<path d="M374.181 830.995V795.285H377.066" stroke="black" stroke-width="0.5"/>
<path d="M377.064 791.436H416.02V834.72H377.064V791.436Z" stroke="black" stroke-width="0.5"/>
<path d="M377.064 834.72H416.02V828.828H377.064V834.72ZM377.064 828.828H416.02V791.436H377.064V828.828Z" fill="#D6D6D6"/>
<path d="M416.021 834.72L418.906 830.995V795.285H416.021V834.72ZM374.179 830.995L377.065 834.72V795.285H374.179V830.995Z" fill="#848484"/>
<path d="M310.81 785.242L338.355 812.788" stroke="black" stroke-width="0.5"/>
<path d="M307.238 784.732C306.635 785.335 306.249 786.121 306.142 786.967C306.035 787.814 306.211 788.671 306.645 789.406" stroke="black" stroke-width="0.5"/>
<path d="M334.19 816.952C334.925 817.385 335.783 817.562 336.629 817.455C337.475 817.347 338.261 816.962 338.865 816.359" stroke="black" stroke-width="0.5"/>
<path d="M338.863 816.358L364.114 791.108L362.073 789.068" stroke="black" stroke-width="0.5"/>
<path d="M307.237 784.732L332.487 759.482L334.528 761.522" stroke="black" stroke-width="0.5"/>
<path d="M337.252 758.8L364.798 786.346L334.191 816.952L306.646 789.406L337.252 758.8Z" stroke="black" stroke-width="0.5"/>
<path d="M306.646 789.406L334.191 816.952L338.357 812.786L310.811 785.241L306.646 789.406ZM310.811 785.241L338.357 812.786L364.798 786.346L337.252 758.8L310.811 785.241Z" fill="#D6D6D6"/>
<path d="M334.19 816.952L338.865 816.359L364.115 791.108L362.074 789.068L334.19 816.952ZM307.238 784.732L306.644 789.407L334.529 761.522L332.488 759.482L307.238 784.732Z" fill="#848484"/>
<path d="M453.348 727.057C453.348 742.122 447.364 756.57 436.711 767.222C426.058 777.875 411.61 783.86 396.545 783.86C381.48 783.86 367.032 777.875 356.379 767.222C345.727 756.57 339.742 742.122 339.742 727.057C339.742 711.991 345.727 697.543 356.379 686.891C367.032 676.238 381.48 670.253 396.545 670.253C411.61 670.253 426.058 676.238 436.711 686.891C447.364 697.543 453.348 711.991 453.348 727.057Z" fill="#D6D6D6"/>
<path d="M453.348 727.057C453.348 711.991 447.364 697.543 436.711 686.891C426.058 676.238 411.61 670.253 396.545 670.253C381.48 670.253 367.032 676.238 356.379 686.891C345.727 697.543 339.742 711.991 339.742 727.057C339.742 742.122 345.727 756.57 356.379 767.222C367.032 777.875 381.48 783.86 396.545 783.86C411.61 783.86 426.058 777.875 436.711 767.222C447.364 756.57 453.348 742.122 453.348 727.057Z" stroke="black" stroke-width="0.5"/>
<path d="M582.578 707.579V746.535" stroke="black" stroke-width="0.5"/>
<path d="M580.413 704.694C579.56 704.694 578.731 704.977 578.057 705.499C577.382 706.022 576.901 706.753 576.688 707.579" stroke="black" stroke-width="0.5"/>
<path d="M576.688 746.535C576.901 747.361 577.382 748.092 578.057 748.615C578.731 749.137 579.56 749.42 580.413 749.42" stroke="black" stroke-width="0.5"/>
<path d="M580.414 749.42H616.123V746.535" stroke="black" stroke-width="0.5"/>
<path d="M580.414 704.694H616.123V707.579" stroke="black" stroke-width="0.5"/>
<path d="M619.971 707.579V746.535H576.688V707.579H619.971Z" stroke="black" stroke-width="0.5"/>
<path d="M576.688 707.579V746.535H582.579V707.579H576.688ZM582.579 707.579V746.535H619.971V707.579H582.579Z" fill="#D6D6D6"/>
<path d="M576.688 746.535L580.413 749.42H616.122V746.535H576.688ZM580.413 704.694L576.688 707.579H616.122V704.694H580.413Z" fill="#848484"/>
<path d="M786.121 746.534V707.579" stroke="black" stroke-width="0.5"/>
<path d="M788.286 749.42C789.139 749.42 789.968 749.136 790.643 748.614C791.317 748.092 791.798 747.36 792.012 746.534" stroke="black" stroke-width="0.5"/>
<path d="M792.012 707.578C791.798 706.753 791.317 706.021 790.643 705.499C789.968 704.976 789.139 704.693 788.286 704.693" stroke="black" stroke-width="0.5"/>
<path d="M788.285 704.693H752.576V707.578" stroke="black" stroke-width="0.5"/>
<path d="M788.285 749.42H752.576V746.534" stroke="black" stroke-width="0.5"/>
<path d="M748.728 746.534V707.579H792.012V746.534H748.728Z" stroke="black" stroke-width="0.5"/>
<path d="M792.012 746.534V707.579H786.12V746.534H792.012ZM786.12 746.534V707.579H748.728V746.534H786.12Z" fill="#D6D6D6"/>
<path d="M792.012 707.578L788.286 704.693H752.577V707.578H792.012ZM788.286 749.42L792.012 746.534H752.577V749.42H788.286Z" fill="#848484"/>
<path d="M742.532 812.794L770.078 785.248" stroke="black" stroke-width="0.5"/>
<path d="M742.025 816.364C742.628 816.967 743.414 817.353 744.26 817.461C745.107 817.568 745.964 817.391 746.699 816.958" stroke="black" stroke-width="0.5"/>
<path d="M774.245 789.412C774.678 788.678 774.855 787.82 774.747 786.974C774.64 786.128 774.254 785.341 773.651 784.738" stroke="black" stroke-width="0.5"/>
<path d="M773.648 784.738L748.398 759.488L746.358 761.528" stroke="black" stroke-width="0.5"/>
<path d="M742.022 816.365L716.772 791.114L718.812 789.074" stroke="black" stroke-width="0.5"/>
<path d="M716.09 786.352L743.636 758.806L774.242 789.413L746.696 816.958L716.09 786.352Z" stroke="black" stroke-width="0.5"/>
<path d="M746.696 816.958L774.242 789.413L770.076 785.247L742.531 812.793L746.696 816.958ZM742.531 812.793L770.076 785.247L743.636 758.806L716.09 786.352L742.531 812.793Z" fill="#D6D6D6"/>
<path d="M774.245 789.412L773.651 784.738L748.401 759.488L746.36 761.528L774.245 789.412ZM742.024 816.365L746.699 816.958L718.815 789.074L716.774 791.114L742.024 816.365Z" fill="#848484"/>
<path d="M664.869 828.83H703.824" stroke="black" stroke-width="0.5"/>
<path d="M661.985 830.995C661.985 831.847 662.269 832.676 662.791 833.351C663.314 834.025 664.045 834.506 664.871 834.72" stroke="black" stroke-width="0.5"/>
<path d="M703.825 834.72C704.651 834.506 705.383 834.025 705.905 833.351C706.427 832.676 706.711 831.847 706.711 830.995" stroke="black" stroke-width="0.5"/>
<path d="M706.711 830.995V795.285H703.825" stroke="black" stroke-width="0.5"/>
<path d="M661.985 830.995V795.285H664.871" stroke="black" stroke-width="0.5"/>
<path d="M664.869 791.436H703.824V834.72H664.869V791.436Z" stroke="black" stroke-width="0.5"/>
<path d="M664.869 834.72H703.824V828.828H664.869V834.72ZM664.869 828.828H703.824V791.436H664.869V828.828Z" fill="#D6D6D6"/>
<path d="M703.825 834.72L706.711 830.995V795.285H703.825V834.72ZM661.984 830.995L664.87 834.72V795.285H661.984V830.995Z" fill="#848484"/>
<path d="M598.61 785.242L626.156 812.788" stroke="black" stroke-width="0.5"/>
<path d="M595.039 784.732C594.436 785.335 594.05 786.121 593.943 786.967C593.835 787.814 594.012 788.671 594.445 789.406" stroke="black" stroke-width="0.5"/>
<path d="M621.991 816.952C622.726 817.385 623.583 817.562 624.43 817.455C625.276 817.347 626.062 816.962 626.665 816.359" stroke="black" stroke-width="0.5"/>
<path d="M626.664 816.358L651.914 791.108L649.874 789.068" stroke="black" stroke-width="0.5"/>
<path d="M595.038 784.732L620.288 759.482L622.328 761.522" stroke="black" stroke-width="0.5"/>
<path d="M625.053 758.8L652.599 786.346L621.992 816.952L594.446 789.406L625.053 758.8Z" stroke="black" stroke-width="0.5"/>
<path d="M594.446 789.406L621.992 816.952L626.158 812.786L598.612 785.241L594.446 789.406ZM598.612 785.241L626.158 812.786L652.599 786.346L625.053 758.8L598.612 785.241Z" fill="#D6D6D6"/>
<path d="M621.991 816.952L626.665 816.359L651.916 791.108L649.875 789.068L621.991 816.952ZM595.039 784.732L594.445 789.407L622.329 761.522L620.289 759.482L595.039 784.732Z" fill="#848484"/>
<path d="M741.149 727.057C741.149 742.122 735.165 756.57 724.512 767.222C713.859 777.875 699.411 783.86 684.346 783.86C669.281 783.86 654.833 777.875 644.18 767.222C633.528 756.57 627.543 742.122 627.543 727.057C627.543 711.991 633.528 697.543 644.18 686.891C654.833 676.238 669.281 670.253 684.346 670.253C699.411 670.253 713.859 676.238 724.512 686.891C735.165 697.543 741.149 711.991 741.149 727.057Z" fill="#D6D6D6"/>
<path d="M741.149 727.057C741.149 711.991 735.165 697.543 724.512 686.891C713.859 676.238 699.411 670.253 684.346 670.253C669.281 670.253 654.833 676.238 644.18 686.891C633.528 697.543 627.543 711.991 627.543 727.057C627.543 742.122 633.528 756.57 644.18 767.222C654.833 777.875 669.281 783.86 684.346 783.86C699.411 783.86 713.859 777.875 724.512 767.222C735.165 756.57 741.149 742.122 741.149 727.057Z" stroke="black" stroke-width="0.5"/>
<path d="M438.676 995.376V1034.33" stroke="black" stroke-width="0.5"/>
<path d="M436.51 992.49C435.657 992.49 434.829 992.774 434.154 993.296C433.48 993.818 432.998 994.55 432.785 995.376" stroke="black" stroke-width="0.5"/>
<path d="M432.785 1034.33C432.998 1035.16 433.48 1035.89 434.154 1036.41C434.829 1036.93 435.657 1037.22 436.51 1037.22" stroke="black" stroke-width="0.5"/>
<path d="M436.512 1037.22H472.221V1034.33" stroke="black" stroke-width="0.5"/>
<path d="M436.512 992.49H472.221V995.376" stroke="black" stroke-width="0.5"/>
<path d="M476.069 995.376V1034.33H432.785V995.376H476.069Z" stroke="black" stroke-width="0.5"/>
<path d="M432.785 995.376V1034.33H438.677V995.376H432.785ZM438.677 995.376V1034.33H476.069V995.376H438.677Z" fill="#D6D6D6"/>
<path d="M432.785 1034.33L436.51 1037.22H472.22V1034.33H432.785ZM436.51 992.491L432.785 995.376H472.22V992.491H436.51Z" fill="#848484"/>
<path d="M642.219 1034.33V995.378" stroke="black" stroke-width="0.5"/>
<path d="M644.384 1037.22C645.237 1037.22 646.066 1036.94 646.74 1036.41C647.415 1035.89 647.896 1035.16 648.109 1034.33" stroke="black" stroke-width="0.5"/>
<path d="M648.109 995.378C647.896 994.552 647.415 993.821 646.74 993.298C646.066 992.776 645.237 992.493 644.384 992.493" stroke="black" stroke-width="0.5"/>
<path d="M644.383 992.493H608.674V995.378" stroke="black" stroke-width="0.5"/>
<path d="M644.383 1037.22H608.674V1034.33" stroke="black" stroke-width="0.5"/>
<path d="M604.825 1034.33V995.378H648.109V1034.33H604.825Z" stroke="black" stroke-width="0.5"/>
<path d="M648.109 1034.33V995.378H642.218V1034.33H648.109ZM642.218 1034.33V995.378H604.825V1034.33H642.218Z" fill="#D6D6D6"/>
<path d="M648.109 995.378L644.384 992.493H608.675V995.378H648.109ZM644.384 1037.22L648.109 1034.33H608.675V1037.22H644.384Z" fill="#848484"/>
<path d="M598.634 1100.59L626.18 1073.05" stroke="black" stroke-width="0.5"/>
<path d="M598.126 1104.16C598.729 1104.77 599.516 1105.15 600.362 1105.26C601.208 1105.37 602.066 1105.19 602.801 1104.76" stroke="black" stroke-width="0.5"/>
<path d="M630.346 1077.21C630.779 1076.48 630.956 1075.62 630.849 1074.77C630.741 1073.93 630.356 1073.14 629.753 1072.54" stroke="black" stroke-width="0.5"/>
<path d="M629.75 1072.54L604.5 1047.29L602.459 1049.33" stroke="black" stroke-width="0.5"/>
<path d="M598.124 1104.16L572.873 1078.91L574.914 1076.87" stroke="black" stroke-width="0.5"/>
<path d="M572.192 1074.15L599.737 1046.61L630.344 1077.21L602.798 1104.76L572.192 1074.15Z" stroke="black" stroke-width="0.5"/>
<path d="M602.798 1104.76L630.344 1077.21L626.178 1073.05L598.632 1100.59L602.798 1104.76ZM598.632 1100.59L626.178 1073.05L599.737 1046.61L572.192 1074.15L598.632 1100.59Z" fill="#D6D6D6"/>
<path d="M630.346 1077.21L629.753 1072.54L604.502 1047.29L602.462 1049.33L630.346 1077.21ZM598.126 1104.16L602.801 1104.76L574.916 1076.87L572.876 1078.91L598.126 1104.16Z" fill="#848484"/>
<path d="M454.712 1073.05L482.258 1100.6" stroke="black" stroke-width="0.5"/>
<path d="M451.141 1072.54C450.537 1073.15 450.152 1073.93 450.044 1074.78C449.937 1075.62 450.114 1076.48 450.547 1077.22" stroke="black" stroke-width="0.5"/>
<path d="M478.092 1104.76C478.827 1105.2 479.685 1105.37 480.531 1105.26C481.377 1105.16 482.164 1104.77 482.767 1104.17" stroke="black" stroke-width="0.5"/>
<path d="M482.766 1104.17L508.016 1078.92L505.975 1076.88" stroke="black" stroke-width="0.5"/>
<path d="M451.139 1072.54L476.39 1047.29L478.43 1049.33" stroke="black" stroke-width="0.5"/>
<path d="M481.154 1046.61L508.7 1074.16L478.094 1104.76L450.548 1077.22L481.154 1046.61Z" stroke="black" stroke-width="0.5"/>
<path d="M450.548 1077.22L478.094 1104.76L482.26 1100.6L454.714 1073.05L450.548 1077.22ZM454.714 1073.05L482.26 1100.6L508.7 1074.16L481.154 1046.61L454.714 1073.05Z" fill="#D6D6D6"/>
<path d="M478.092 1104.76L482.767 1104.17L508.017 1078.92L505.977 1076.88L478.092 1104.76ZM451.14 1072.54L450.547 1077.22L478.431 1049.33L476.391 1047.29L451.14 1072.54Z" fill="#848484"/>
<path d="M597.247 1014.86C597.247 1029.92 591.262 1044.37 580.61 1055.02C569.957 1065.68 555.509 1071.66 540.444 1071.66C525.379 1071.66 510.931 1065.68 500.278 1055.02C489.625 1044.37 483.641 1029.92 483.641 1014.86C483.641 999.794 489.625 985.346 500.278 974.693C510.931 964.04 525.379 958.056 540.444 958.056C555.509 958.056 569.957 964.04 580.61 974.693C591.262 985.346 597.247 999.794 597.247 1014.86Z" fill="#D6D6D6"/>
<path d="M597.247 1014.86C597.247 999.794 591.262 985.346 580.61 974.693C569.957 964.04 555.509 958.056 540.444 958.056C525.379 958.056 510.931 964.04 500.278 974.693C489.625 985.346 483.641 999.794 483.641 1014.86C483.641 1029.92 489.625 1044.37 500.278 1055.02C510.931 1065.68 525.379 1071.66 540.444 1071.66C555.509 1071.66 569.957 1065.68 580.61 1055.02C591.262 1044.37 597.247 1029.92 597.247 1014.86Z" stroke="black" stroke-width="0.5"/>
<path d="M150.875 995.376V1034.33" stroke="black" stroke-width="0.5"/>
<path d="M148.71 992.49C147.857 992.49 147.028 992.774 146.354 993.296C145.679 993.818 145.198 994.55 144.984 995.376" stroke="black" stroke-width="0.5"/>
<path d="M144.984 1034.33C145.198 1035.16 145.679 1035.89 146.354 1036.41C147.028 1036.93 147.857 1037.22 148.71 1037.22" stroke="black" stroke-width="0.5"/>
<path d="M148.711 1037.22H184.42V1034.33" stroke="black" stroke-width="0.5"/>
<path d="M148.711 992.49H184.42V995.376" stroke="black" stroke-width="0.5"/>
<path d="M188.268 995.376V1034.33H144.984V995.376H188.268Z" stroke="black" stroke-width="0.5"/>
<path d="M144.984 995.376V1034.33H150.876V995.376H144.984ZM150.876 995.376V1034.33H188.268V995.376H150.876Z" fill="#D6D6D6"/>
<path d="M144.984 1034.33L148.71 1037.22H184.419V1034.33H144.984ZM148.71 992.491L144.984 995.376H184.419V992.491H148.71Z" fill="#848484"/>
<path d="M354.41 1034.33V995.378" stroke="black" stroke-width="0.5"/>
<path d="M356.576 1037.22C357.429 1037.22 358.257 1036.94 358.932 1036.41C359.606 1035.89 360.088 1035.16 360.301 1034.33" stroke="black" stroke-width="0.5"/>
<path d="M360.301 995.378C360.088 994.552 359.606 993.821 358.932 993.298C358.257 992.776 357.429 992.493 356.576 992.493" stroke="black" stroke-width="0.5"/>
<path d="M356.574 992.493H320.865V995.378" stroke="black" stroke-width="0.5"/>
<path d="M356.574 1037.22H320.865V1034.33" stroke="black" stroke-width="0.5"/>
<path d="M317.017 1034.33V995.378H360.301V1034.33H317.017Z" stroke="black" stroke-width="0.5"/>
<path d="M360.301 1034.33V995.378H354.409V1034.33H360.301ZM354.409 1034.33V995.378H317.017V1034.33H354.409Z" fill="#D6D6D6"/>
<path d="M360.301 995.378L356.576 992.493H320.866V995.378H360.301ZM356.576 1037.22L360.301 1034.33H320.866V1037.22H356.576Z" fill="#848484"/>
<path d="M310.833 1100.59L338.379 1073.05" stroke="black" stroke-width="0.5"/>
<path d="M310.325 1104.16C310.929 1104.77 311.715 1105.15 312.561 1105.26C313.407 1105.37 314.265 1105.19 315 1104.76" stroke="black" stroke-width="0.5"/>
<path d="M342.546 1077.21C342.979 1076.48 343.156 1075.62 343.048 1074.77C342.941 1073.93 342.555 1073.14 341.952 1072.54" stroke="black" stroke-width="0.5"/>
<path d="M341.949 1072.54L316.699 1047.29L314.659 1049.33" stroke="black" stroke-width="0.5"/>
<path d="M310.323 1104.16L285.073 1078.91L287.113 1076.87" stroke="black" stroke-width="0.5"/>
<path d="M284.391 1074.15L311.937 1046.61L342.543 1077.21L314.997 1104.76L284.391 1074.15Z" stroke="black" stroke-width="0.5"/>
<path d="M314.997 1104.76L342.543 1077.21L338.377 1073.05L310.831 1100.59L314.997 1104.76ZM310.831 1100.59L338.377 1073.05L311.937 1046.61L284.391 1074.15L310.831 1100.59Z" fill="#D6D6D6"/>
<path d="M342.546 1077.21L341.952 1072.54L316.702 1047.29L314.661 1049.33L342.546 1077.21ZM310.325 1104.16L315 1104.76L287.115 1076.87L285.075 1078.91L310.325 1104.16Z" fill="#848484"/>
<path d="M166.907 1073.05L194.453 1100.6" stroke="black" stroke-width="0.5"/>
<path d="M163.336 1072.54C162.733 1073.15 162.347 1073.93 162.24 1074.78C162.132 1075.62 162.309 1076.48 162.742 1077.22" stroke="black" stroke-width="0.5"/>
<path d="M190.288 1104.76C191.022 1105.2 191.88 1105.37 192.726 1105.26C193.573 1105.16 194.359 1104.77 194.962 1104.17" stroke="black" stroke-width="0.5"/>
<path d="M194.961 1104.17L220.211 1078.92L218.171 1076.88" stroke="black" stroke-width="0.5"/>
<path d="M163.335 1072.54L188.585 1047.29L190.625 1049.33" stroke="black" stroke-width="0.5"/>
<path d="M193.35 1046.61L220.895 1074.16L190.289 1104.76L162.743 1077.22L193.35 1046.61Z" stroke="black" stroke-width="0.5"/>
<path d="M162.743 1077.22L190.289 1104.76L194.455 1100.6L166.909 1073.05L162.743 1077.22ZM166.909 1073.05L194.455 1100.6L220.895 1074.16L193.35 1046.61L166.909 1073.05Z" fill="#D6D6D6"/>
<path d="M190.288 1104.76L194.962 1104.17L220.212 1078.92L218.172 1076.88L190.288 1104.76ZM163.336 1072.54L162.742 1077.22L190.626 1049.33L188.586 1047.29L163.336 1072.54Z" fill="#848484"/>
<path d="M309.446 1014.86C309.446 1029.92 303.461 1044.37 292.809 1055.02C282.156 1065.68 267.708 1071.66 252.643 1071.66C237.578 1071.66 223.13 1065.68 212.477 1055.02C201.824 1044.37 195.84 1029.92 195.84 1014.86C195.84 999.794 201.824 985.346 212.477 974.693C223.13 964.04 237.578 958.056 252.643 958.056C267.708 958.056 282.156 964.04 292.809 974.693C303.461 985.346 309.446 999.794 309.446 1014.86Z" fill="#D6D6D6"/>
<path d="M309.446 1014.86C309.446 999.794 303.461 985.346 292.809 974.693C282.156 964.04 267.708 958.056 252.643 958.056C237.578 958.056 223.13 964.04 212.477 974.693C201.824 985.346 195.84 999.794 195.84 1014.86C195.84 1029.92 201.824 1044.37 212.477 1055.02C223.13 1065.68 237.578 1071.66 252.643 1071.66C267.708 1071.66 282.156 1065.68 292.809 1055.02C303.461 1044.37 309.446 1029.92 309.446 1014.86Z" stroke="black" stroke-width="0.5"/>
<path d="M6.97266 707.579L6.97266 746.535" stroke="black" stroke-width="0.5"/>
<path d="M4.80725 704.694C3.95428 704.694 3.1255 704.977 2.45117 705.499C1.77684 706.022 1.29527 706.753 1.08203 707.579" stroke="black" stroke-width="0.5"/>
<path d="M1.08203 746.535C1.29527 747.361 1.77684 748.092 2.45117 748.615C3.1255 749.137 3.95428 749.42 4.80725 749.42" stroke="black" stroke-width="0.5"/>
<path d="M4.80859 749.42H40.5178V746.535" stroke="black" stroke-width="0.5"/>
<path d="M4.80859 704.694H40.5178V707.579" stroke="black" stroke-width="0.5"/>
<path d="M44.366 707.579L44.366 746.535H1.08203L1.08203 707.579H44.366Z" stroke="black" stroke-width="0.5"/>
<path d="M1.08203 707.579L1.08203 746.535H6.97339L6.97339 707.579H1.08203ZM6.97339 707.579L6.97339 746.535H44.366L44.366 707.579H6.97339Z" fill="#D6D6D6"/>
<path d="M1.08203 746.535L4.80725 749.42H40.5165V746.535H1.08203ZM4.80725 704.694L1.08203 707.579H40.5165V704.694H4.80725Z" fill="#848484"/>
<path d="M210.512 746.534V707.579" stroke="black" stroke-width="0.5"/>
<path d="M212.677 749.42C213.53 749.42 214.359 749.136 215.033 748.614C215.708 748.092 216.189 747.36 216.402 746.534" stroke="black" stroke-width="0.5"/>
<path d="M216.402 707.578C216.189 706.753 215.708 706.021 215.033 705.499C214.359 704.976 213.53 704.693 212.677 704.693" stroke="black" stroke-width="0.5"/>
<path d="M212.676 704.693H176.967V707.578" stroke="black" stroke-width="0.5"/>
<path d="M212.676 749.42H176.967V746.534" stroke="black" stroke-width="0.5"/>
<path d="M173.118 746.534V707.579H216.402V746.534H173.118Z" stroke="black" stroke-width="0.5"/>
<path d="M216.402 746.534V707.579H210.511V746.534H216.402ZM210.511 746.534V707.579H173.118V746.534H210.511Z" fill="#D6D6D6"/>
<path d="M216.402 707.578L212.677 704.693H176.968V707.578H216.402ZM212.677 749.42L216.402 746.534H176.968V749.42H212.677Z" fill="#848484"/>
<path d="M166.931 812.794L194.477 785.248" stroke="black" stroke-width="0.5"/>
<path d="M166.423 816.364C167.026 816.967 167.813 817.353 168.659 817.461C169.505 817.568 170.363 817.391 171.098 816.958" stroke="black" stroke-width="0.5"/>
<path d="M198.643 789.412C199.076 788.678 199.253 787.82 199.146 786.974C199.038 786.128 198.653 785.341 198.049 784.738" stroke="black" stroke-width="0.5"/>
<path d="M198.047 784.738L172.797 759.488L170.756 761.528" stroke="black" stroke-width="0.5"/>
<path d="M166.421 816.365L141.17 791.114L143.211 789.074" stroke="black" stroke-width="0.5"/>
<path d="M140.489 786.352L168.034 758.806L198.641 789.413L171.095 816.958L140.489 786.352Z" stroke="black" stroke-width="0.5"/>
<path d="M171.095 816.958L198.641 789.413L194.475 785.247L166.929 812.793L171.095 816.958ZM166.929 812.793L194.475 785.247L168.034 758.806L140.489 786.352L166.929 812.793Z" fill="#D6D6D6"/>
<path d="M198.643 789.412L198.049 784.738L172.799 759.488L170.759 761.528L198.643 789.412ZM166.423 816.365L171.097 816.958L143.213 789.074L141.173 791.114L166.423 816.365Z" fill="#848484"/>
<path d="M89.2632 828.83H128.219" stroke="black" stroke-width="0.5"/>
<path d="M86.38 830.995C86.38 831.847 86.6635 832.676 87.1858 833.351C87.7081 834.025 88.4397 834.506 89.2656 834.72" stroke="black" stroke-width="0.5"/>
<path d="M128.22 834.72C129.046 834.506 129.777 834.025 130.3 833.351C130.822 832.676 131.105 831.847 131.105 830.995" stroke="black" stroke-width="0.5"/>
<path d="M131.105 830.995V795.285H128.22" stroke="black" stroke-width="0.5"/>
<path d="M86.38 830.995V795.285H89.2656" stroke="black" stroke-width="0.5"/>
<path d="M89.2632 791.436H128.219V834.72H89.2632V791.436Z" stroke="black" stroke-width="0.5"/>
<path d="M89.2632 834.72H128.219V828.828H89.2632V834.72ZM89.2632 828.828H128.219V791.436H89.2632V828.828Z" fill="#D6D6D6"/>
<path d="M128.22 834.72L131.105 830.995V795.285H128.22V834.72ZM86.3787 830.995L89.2643 834.72V795.285H86.3787V830.995Z" fill="#848484"/>
<path d="M23.0089 785.242L50.5547 812.788" stroke="black" stroke-width="0.5"/>
<path d="M19.4375 784.732C18.8343 785.335 18.4487 786.121 18.3412 786.967C18.2337 787.814 18.4105 788.671 18.8438 789.406" stroke="black" stroke-width="0.5"/>
<path d="M46.3893 816.952C47.124 817.385 47.9819 817.562 48.828 817.455C49.6742 817.347 50.4607 816.962 51.0638 816.359" stroke="black" stroke-width="0.5"/>
<path d="M51.0625 816.358L76.3127 791.108L74.2723 789.068" stroke="black" stroke-width="0.5"/>
<path d="M19.4361 784.732L44.6864 759.482L46.7268 761.522" stroke="black" stroke-width="0.5"/>
<path d="M49.4513 758.8L76.997 786.346L46.3906 816.952L18.8449 789.406L49.4513 758.8Z" stroke="black" stroke-width="0.5"/>
<path d="M18.8449 789.406L46.3906 816.952L50.5564 812.786L23.0107 785.241L18.8449 789.406ZM23.0107 785.241L50.5564 812.786L76.997 786.346L49.4513 758.8L23.0107 785.241Z" fill="#D6D6D6"/>
<path d="M46.3893 816.952L51.0638 816.359L76.3141 791.108L74.2736 789.068L46.3893 816.952ZM19.4372 784.732L18.8435 789.407L46.7279 761.522L44.6875 759.482L19.4372 784.732Z" fill="#848484"/>
<path d="M165.548 727.057C165.548 742.122 159.563 756.57 148.91 767.222C138.258 777.875 123.81 783.86 108.744 783.86C93.6794 783.86 79.2313 777.875 68.5786 767.222C57.926 756.57 51.9414 742.122 51.9414 727.057C51.9414 711.991 57.926 697.543 68.5786 686.891C79.2313 676.238 93.6794 670.253 108.744 670.253C123.81 670.253 138.258 676.238 148.91 686.891C159.563 697.543 165.548 711.991 165.548 727.057Z" fill="#D6D6D6"/>
<path d="M165.548 727.057C165.548 711.991 159.563 697.543 148.91 686.891C138.258 676.238 123.81 670.253 108.744 670.253C93.6794 670.253 79.2313 676.238 68.5786 686.891C57.926 697.543 51.9414 711.991 51.9414 727.057C51.9414 742.122 57.926 756.57 68.5786 767.222C79.2313 777.875 93.6794 783.86 108.744 783.86C123.81 783.86 138.258 777.875 148.91 767.222C159.563 756.57 165.548 742.122 165.548 727.057Z" stroke="black" stroke-width="0.5"/>
<path d="M233.165 1116.63H272.121" stroke="black" stroke-width="0.5"/>
<path d="M230.282 1118.79C230.282 1119.65 230.566 1120.48 231.088 1121.15C231.61 1121.82 232.342 1122.31 233.168 1122.52" stroke="black" stroke-width="0.5"/>
<path d="M272.122 1122.52C272.948 1122.31 273.68 1121.82 274.202 1121.15C274.724 1120.48 275.008 1119.65 275.008 1118.79" stroke="black" stroke-width="0.5"/>
<path d="M275.008 1118.79V1083.09H272.122" stroke="black" stroke-width="0.5"/>
<path d="M230.282 1118.79V1083.09H233.168" stroke="black" stroke-width="0.5"/>
<path d="M233.166 1079.24H272.121V1122.52H233.166V1079.24Z" stroke="black" stroke-width="0.5"/>
<path d="M233.166 1122.52H272.121V1116.63H233.166V1122.52ZM233.166 1116.63H272.121V1079.24H233.166V1116.63Z" fill="#D6D6D6"/>
<path d="M272.122 1122.52L275.008 1118.79V1083.09H272.122V1122.52ZM230.281 1118.79L233.167 1122.52V1083.09H230.281V1118.79Z" fill="#848484"/>
<path d="M520.966 1116.63H559.922" stroke="black" stroke-width="0.5"/>
<path d="M518.083 1118.79C518.083 1119.65 518.367 1120.48 518.889 1121.15C519.411 1121.82 520.143 1122.31 520.969 1122.52" stroke="black" stroke-width="0.5"/>
<path d="M559.923 1122.52C560.749 1122.31 561.48 1121.82 562.003 1121.15C562.525 1120.48 562.809 1119.65 562.809 1118.79" stroke="black" stroke-width="0.5"/>
<path d="M562.809 1118.79V1083.09H559.923" stroke="black" stroke-width="0.5"/>
<path d="M518.083 1118.79V1083.09H520.969" stroke="black" stroke-width="0.5"/>
<path d="M520.966 1079.24H559.922V1122.52H520.966V1079.24Z" stroke="black" stroke-width="0.5"/>
<path d="M520.966 1122.52H559.922V1116.63H520.966V1122.52ZM520.966 1116.63H559.922V1079.24H520.966V1116.63Z" fill="#D6D6D6"/>
<path d="M559.923 1122.52L562.809 1118.79V1083.09H559.923V1122.52ZM518.082 1118.79L520.967 1122.52V1083.09H518.082V1118.79Z" fill="#848484"/>
</g>
<defs>
<clipPath id="clip0_3150_7164">
<rect width="793.701" height="1122.52" fill="white"/>
</clipPath>
</defs>
</svg>
