<svg width="794" height="1123" viewBox="0 0 794 1123" fill="none" xmlns="http://www.w3.org/2000/svg">
<path d="M521.898 901.244V862.288" stroke="black" stroke-width="0.5"/>
<path d="M524.068 904.129C524.921 904.129 525.75 903.846 526.424 903.323C527.098 902.801 527.58 902.07 527.793 901.244" stroke="black" stroke-width="0.5"/>
<path d="M527.793 862.288C527.58 861.463 527.098 860.731 526.424 860.209C525.75 859.686 524.921 859.403 524.068 859.403" stroke="black" stroke-width="0.5"/>
<path d="M524.066 859.403H488.358V862.288" stroke="black" stroke-width="0.5"/>
<path d="M524.066 904.129H488.358V901.244" stroke="black" stroke-width="0.5"/>
<path d="M484.51 901.243V862.288H527.793V901.243H484.51Z" stroke="black" stroke-width="0.5"/>
<path d="M527.793 901.243V862.288H521.902V901.243H527.793ZM521.902 901.243V862.288H484.51V901.243H521.902Z" fill="#D6D6D6"/>
<path d="M527.793 862.288L524.068 859.403H488.359V862.288H527.793ZM524.068 904.129L527.793 901.244H488.359V904.129H524.068Z" fill="#848484"/>
<path d="M521.898 848.227V809.272" stroke="black" stroke-width="0.5"/>
<path d="M524.068 851.113C524.921 851.113 525.75 850.83 526.424 850.307C527.098 849.785 527.58 849.053 527.793 848.228" stroke="black" stroke-width="0.5"/>
<path d="M527.793 809.272C527.58 808.446 527.098 807.715 526.424 807.192C525.75 806.67 524.921 806.387 524.068 806.387" stroke="black" stroke-width="0.5"/>
<path d="M524.066 806.387H488.358V809.272" stroke="black" stroke-width="0.5"/>
<path d="M524.066 851.113H488.358V848.228" stroke="black" stroke-width="0.5"/>
<path d="M484.51 848.227V809.272H527.793V848.227H484.51Z" stroke="black" stroke-width="0.5"/>
<path d="M527.793 848.227V809.272H521.902V848.227H527.793ZM521.902 848.227V809.272H484.51V848.227H521.902Z" fill="#D6D6D6"/>
<path d="M527.793 809.272L524.068 806.387H488.359V809.272H527.793ZM524.068 851.113L527.793 848.227H488.359V851.113H524.068Z" fill="#848484"/>
<path d="M521.898 742.197V703.241" stroke="black" stroke-width="0.5"/>
<path d="M524.068 745.082C524.921 745.082 525.75 744.799 526.424 744.277C527.098 743.754 527.58 743.023 527.793 742.197" stroke="black" stroke-width="0.5"/>
<path d="M527.793 703.242C527.58 702.416 527.098 701.684 526.424 701.162C525.75 700.639 524.921 700.356 524.068 700.356" stroke="black" stroke-width="0.5"/>
<path d="M524.066 700.356H488.358V703.242" stroke="black" stroke-width="0.5"/>
<path d="M524.066 745.082H488.358V742.197" stroke="black" stroke-width="0.5"/>
<path d="M484.51 742.197V703.241H527.793V742.197H484.51Z" stroke="black" stroke-width="0.5"/>
<path d="M527.793 742.197V703.241H521.902V742.197H527.793ZM521.902 742.197V703.241H484.51V742.197H521.902Z" fill="#D6D6D6"/>
<path d="M527.793 703.242L524.068 700.356H488.359V703.242H527.793ZM524.068 745.082L527.793 742.197H488.359V745.082H524.068Z" fill="#848484"/>
<path d="M521.898 795.213V756.257" stroke="black" stroke-width="0.5"/>
<path d="M524.068 798.098C524.921 798.098 525.75 797.815 526.424 797.292C527.098 796.77 527.58 796.038 527.793 795.212" stroke="black" stroke-width="0.5"/>
<path d="M527.793 756.257C527.58 755.432 527.098 754.7 526.424 754.178C525.75 753.655 524.921 753.372 524.068 753.372" stroke="black" stroke-width="0.5"/>
<path d="M524.066 753.372H488.358V756.257" stroke="black" stroke-width="0.5"/>
<path d="M524.066 798.098H488.358V795.212" stroke="black" stroke-width="0.5"/>
<path d="M484.51 795.212V756.257H527.793V795.212H484.51Z" stroke="black" stroke-width="0.5"/>
<path d="M527.793 795.212V756.257H521.902V795.212H527.793ZM521.902 795.212V756.257H484.51V795.212H521.902Z" fill="#D6D6D6"/>
<path d="M527.793 756.257L524.068 753.372H488.359V756.257H527.793ZM524.068 798.098L527.793 795.213H488.359V798.098H524.068Z" fill="#848484"/>
<path d="M318.371 862.288V901.244" stroke="black" stroke-width="0.5"/>
<path d="M316.202 859.403C315.349 859.403 314.52 859.686 313.846 860.209C313.171 860.731 312.69 861.463 312.477 862.289" stroke="black" stroke-width="0.5"/>
<path d="M312.477 901.244C312.69 902.069 313.171 902.801 313.846 903.323C314.52 903.846 315.349 904.129 316.202 904.129" stroke="black" stroke-width="0.5"/>
<path d="M316.203 904.129H351.912V901.244" stroke="black" stroke-width="0.5"/>
<path d="M316.203 859.403H351.912V862.289" stroke="black" stroke-width="0.5"/>
<path d="M355.76 862.289V901.244H312.477V862.289H355.76Z" stroke="black" stroke-width="0.5"/>
<path d="M312.477 862.289V901.244H318.368V862.289H312.477ZM318.368 862.289V901.244H355.76V862.289H318.368Z" fill="#D6D6D6"/>
<path d="M312.477 901.244L316.202 904.129H351.911V901.244H312.477ZM316.202 859.403L312.477 862.288H351.911V859.403H316.202Z" fill="#848484"/>
<path d="M318.371 809.273V848.228" stroke="black" stroke-width="0.5"/>
<path d="M316.202 806.387C315.349 806.387 314.52 806.67 313.846 807.193C313.171 807.715 312.69 808.447 312.477 809.272" stroke="black" stroke-width="0.5"/>
<path d="M312.477 848.228C312.69 849.054 313.171 849.785 313.846 850.308C314.52 850.83 315.349 851.113 316.202 851.113" stroke="black" stroke-width="0.5"/>
<path d="M316.203 851.113H351.912V848.228" stroke="black" stroke-width="0.5"/>
<path d="M316.203 806.387H351.912V809.272" stroke="black" stroke-width="0.5"/>
<path d="M355.76 809.273V848.228H312.477V809.273H355.76Z" stroke="black" stroke-width="0.5"/>
<path d="M312.477 809.273V848.228H318.368V809.273H312.477ZM318.368 809.273V848.228H355.76V809.273H318.368Z" fill="#D6D6D6"/>
<path d="M312.477 848.228L316.202 851.113H351.911V848.228H312.477ZM316.202 806.387L312.477 809.273H351.911V806.387H316.202Z" fill="#848484"/>
<path d="M318.371 703.241V742.197" stroke="black" stroke-width="0.5"/>
<path d="M316.202 700.356C315.349 700.356 314.52 700.639 313.846 701.161C313.171 701.684 312.69 702.415 312.477 703.241" stroke="black" stroke-width="0.5"/>
<path d="M312.477 742.196C312.69 743.022 313.171 743.754 313.846 744.276C314.52 744.799 315.349 745.082 316.202 745.082" stroke="black" stroke-width="0.5"/>
<path d="M316.203 745.082H351.912V742.196" stroke="black" stroke-width="0.5"/>
<path d="M316.203 700.356H351.912V703.241" stroke="black" stroke-width="0.5"/>
<path d="M355.76 703.241V742.197H312.477V703.241H355.76Z" stroke="black" stroke-width="0.5"/>
<path d="M312.477 703.241V742.197H318.368V703.241H312.477ZM318.368 703.241V742.197H355.76V703.241H318.368Z" fill="#D6D6D6"/>
<path d="M312.477 742.196L316.202 745.082H351.911V742.196H312.477ZM316.202 700.356L312.477 703.241H351.911V700.356H316.202Z" fill="#848484"/>
<path d="M318.371 756.257V795.213" stroke="black" stroke-width="0.5"/>
<path d="M316.202 753.372C315.349 753.372 314.52 753.655 313.846 754.178C313.171 754.7 312.69 755.431 312.477 756.257" stroke="black" stroke-width="0.5"/>
<path d="M312.477 795.213C312.69 796.038 313.171 796.77 313.846 797.292C314.52 797.815 315.349 798.098 316.202 798.098" stroke="black" stroke-width="0.5"/>
<path d="M316.203 798.098H351.912V795.213" stroke="black" stroke-width="0.5"/>
<path d="M316.203 753.372H351.912V756.257" stroke="black" stroke-width="0.5"/>
<path d="M355.76 756.258V795.213H312.477V756.258H355.76Z" stroke="black" stroke-width="0.5"/>
<path d="M312.477 756.258V795.213H318.368V756.258H312.477ZM318.368 756.258V795.213H355.76V756.258H318.368Z" fill="#D6D6D6"/>
<path d="M312.477 795.213L316.202 798.098H351.911V795.213H312.477ZM316.202 753.372L312.477 756.257H351.911V753.372H316.202Z" fill="#848484"/>
<path d="M476.934 908.274V802.243H363.329V908.274H476.934ZM476.934 802.243V696.211H363.329V802.243H476.934Z" fill="#D6D6D6"/>
<path d="M422.59 869.648V734.837" stroke="black" stroke-width="0.5" stroke-dasharray="0.24 0.12"/>
<path d="M417.672 869.648V734.837" stroke="black" stroke-width="0.5" stroke-dasharray="0.24 0.12"/>
<path d="M422.594 734.08V870.405H417.671V734.08H422.594Z" stroke="black" stroke-width="0.5" stroke-dasharray="0.24 0.12"/>
<path d="M451.828 726.506H388.437V734.08H451.828V726.506Z" stroke="black" stroke-width="0.5" stroke-dasharray="0.24 0.12"/>
<path d="M423.922 726.506H416.342" stroke="black" stroke-width="0.5" stroke-dasharray="0.24 0.12"/>
<path d="M451.828 877.979H388.437V870.406H451.828V877.979Z" stroke="black" stroke-width="0.5" stroke-dasharray="0.24 0.12"/>
<path d="M459.023 868.626V863.324H422.594V868.626H459.023Z" stroke="black" stroke-width="0.5" stroke-dasharray="0.24 0.12"/>
<path d="M381.239 868.626V863.324H417.668V868.626H381.239Z" stroke="black" stroke-width="0.5" stroke-dasharray="0.24 0.12"/>
<path d="M459.023 735.86V741.161H422.594V735.86H459.023Z" stroke="black" stroke-width="0.5" stroke-dasharray="0.24 0.12"/>
<path d="M381.239 735.86V741.161H417.668V735.86H381.239Z" stroke="black" stroke-width="0.5" stroke-dasharray="0.24 0.12"/>
<path d="M459.023 799.592V804.893H422.594V799.592H459.023Z" stroke="black" stroke-width="0.5" stroke-dasharray="0.24 0.12"/>
<path d="M381.239 799.592V804.893H417.668V799.592H381.239Z" stroke="black" stroke-width="0.5" stroke-dasharray="0.24 0.12"/>
<path d="M363.329 696.211V908.274H476.934V696.211H363.329Z" stroke="black" stroke-width="0.5" stroke-linecap="round"/>
<path d="M476.93 802.243H363.33" stroke="black" stroke-width="0.5" stroke-linecap="round"/>
<path d="M521.898 954.26V915.304" stroke="black" stroke-width="0.5"/>
<path d="M524.068 957.145C524.921 957.145 525.75 956.862 526.424 956.34C527.098 955.817 527.58 955.086 527.793 954.26" stroke="black" stroke-width="0.5"/>
<path d="M527.793 915.305C527.58 914.479 527.098 913.747 526.424 913.225C525.75 912.702 524.921 912.419 524.068 912.419" stroke="black" stroke-width="0.5"/>
<path d="M524.066 912.419H488.358V915.305" stroke="black" stroke-width="0.5"/>
<path d="M524.066 957.145H488.358V954.26" stroke="black" stroke-width="0.5"/>
<path d="M484.51 954.26V915.304H527.793V954.26H484.51Z" stroke="black" stroke-width="0.5"/>
<path d="M527.793 954.26V915.304H521.902V954.26H527.793ZM521.902 954.26V915.304H484.51V954.26H521.902Z" fill="#D6D6D6"/>
<path d="M527.793 915.305L524.068 912.419H488.359V915.305H527.793ZM524.068 957.145L527.793 954.26H488.359V957.145H524.068Z" fill="#848484"/>
<path d="M521.898 1007.27V968.319" stroke="black" stroke-width="0.5"/>
<path d="M524.068 1010.16C524.921 1010.16 525.75 1009.88 526.424 1009.35C527.098 1008.83 527.58 1008.1 527.793 1007.27" stroke="black" stroke-width="0.5"/>
<path d="M527.793 968.319C527.58 967.494 527.098 966.762 526.424 966.24C525.75 965.717 524.921 965.434 524.068 965.434" stroke="black" stroke-width="0.5"/>
<path d="M524.066 965.434H488.358V968.319" stroke="black" stroke-width="0.5"/>
<path d="M524.066 1010.16H488.358V1007.27" stroke="black" stroke-width="0.5"/>
<path d="M484.51 1007.27V968.319H527.793V1007.27H484.51Z" stroke="black" stroke-width="0.5"/>
<path d="M527.793 1007.27V968.319H521.902V1007.27H527.793ZM521.902 1007.27V968.319H484.51V1007.27H521.902Z" fill="#D6D6D6"/>
<path d="M527.793 968.319L524.068 965.434H488.359V968.319H527.793ZM524.068 1010.16L527.793 1007.27H488.359V1010.16H524.068Z" fill="#848484"/>
<path d="M521.898 1113.3V1074.35" stroke="black" stroke-width="0.5"/>
<path d="M524.068 1116.19C524.921 1116.19 525.75 1115.9 526.424 1115.38C527.098 1114.86 527.58 1114.13 527.793 1113.3" stroke="black" stroke-width="0.5"/>
<path d="M527.793 1074.35C527.58 1073.52 527.098 1072.79 526.424 1072.27C525.75 1071.75 524.921 1071.46 524.068 1071.46" stroke="black" stroke-width="0.5"/>
<path d="M524.066 1071.46H488.358V1074.35" stroke="black" stroke-width="0.5"/>
<path d="M524.066 1116.19H488.358V1113.3" stroke="black" stroke-width="0.5"/>
<path d="M484.51 1113.3V1074.35H527.793V1113.3H484.51Z" stroke="black" stroke-width="0.5"/>
<path d="M527.793 1113.3V1074.35H521.902V1113.3H527.793ZM521.902 1113.3V1074.35H484.51V1113.3H521.902Z" fill="#D6D6D6"/>
<path d="M527.793 1074.35L524.068 1071.46H488.359V1074.35H527.793ZM524.068 1116.19L527.793 1113.3H488.359V1116.19H524.068Z" fill="#848484"/>
<path d="M521.898 1060.29V1021.34" stroke="black" stroke-width="0.5"/>
<path d="M524.068 1063.18C524.921 1063.18 525.75 1062.89 526.424 1062.37C527.098 1061.85 527.58 1061.12 527.793 1060.29" stroke="black" stroke-width="0.5"/>
<path d="M527.793 1021.34C527.58 1020.51 527.098 1019.78 526.424 1019.26C525.75 1018.74 524.921 1018.45 524.068 1018.45" stroke="black" stroke-width="0.5"/>
<path d="M524.066 1018.45H488.358V1021.34" stroke="black" stroke-width="0.5"/>
<path d="M524.066 1063.18H488.358V1060.29" stroke="black" stroke-width="0.5"/>
<path d="M484.51 1060.29V1021.34H527.793V1060.29H484.51Z" stroke="black" stroke-width="0.5"/>
<path d="M527.793 1060.29V1021.34H521.902V1060.29H527.793ZM521.902 1060.29V1021.34H484.51V1060.29H521.902Z" fill="#D6D6D6"/>
<path d="M527.793 1021.34L524.068 1018.45H488.359V1021.34H527.793ZM524.068 1063.18L527.793 1060.29H488.359V1063.18H524.068Z" fill="#848484"/>
<path d="M318.371 915.304V954.26" stroke="black" stroke-width="0.5"/>
<path d="M316.202 912.419C315.349 912.419 314.52 912.702 313.846 913.224C313.171 913.747 312.69 914.478 312.477 915.304" stroke="black" stroke-width="0.5"/>
<path d="M312.477 954.259C312.69 955.085 313.171 955.817 313.846 956.339C314.52 956.862 315.349 957.145 316.202 957.145" stroke="black" stroke-width="0.5"/>
<path d="M316.203 957.145H351.912V954.259" stroke="black" stroke-width="0.5"/>
<path d="M316.203 912.419H351.912V915.304" stroke="black" stroke-width="0.5"/>
<path d="M355.76 915.304V954.26H312.477V915.304H355.76Z" stroke="black" stroke-width="0.5"/>
<path d="M312.477 915.304V954.26H318.368V915.304H312.477ZM318.368 915.304V954.26H355.76V915.304H318.368Z" fill="#D6D6D6"/>
<path d="M312.477 954.259L316.202 957.145H351.911V954.259H312.477ZM316.202 912.419L312.477 915.304H351.911V912.419H316.202Z" fill="#848484"/>
<path d="M318.371 968.319V1007.27" stroke="black" stroke-width="0.5"/>
<path d="M316.202 965.434C315.349 965.434 314.52 965.717 313.846 966.24C313.171 966.762 312.69 967.493 312.477 968.319" stroke="black" stroke-width="0.5"/>
<path d="M312.477 1007.27C312.69 1008.1 313.171 1008.83 313.846 1009.35C314.52 1009.88 315.349 1010.16 316.202 1010.16" stroke="black" stroke-width="0.5"/>
<path d="M316.203 1010.16H351.912V1007.27" stroke="black" stroke-width="0.5"/>
<path d="M316.203 965.434H351.912V968.319" stroke="black" stroke-width="0.5"/>
<path d="M355.76 968.32V1007.27H312.477V968.32H355.76Z" stroke="black" stroke-width="0.5"/>
<path d="M312.477 968.32V1007.27H318.368V968.32H312.477ZM318.368 968.32V1007.27H355.76V968.32H318.368Z" fill="#D6D6D6"/>
<path d="M312.477 1007.27L316.202 1010.16H351.911V1007.27H312.477ZM316.202 965.434L312.477 968.319H351.911V965.434H316.202Z" fill="#848484"/>
<path d="M318.371 1074.35V1113.3" stroke="black" stroke-width="0.5"/>
<path d="M316.202 1071.46C315.349 1071.46 314.52 1071.75 313.846 1072.27C313.171 1072.79 312.69 1073.52 312.477 1074.35" stroke="black" stroke-width="0.5"/>
<path d="M312.477 1113.3C312.69 1114.13 313.171 1114.86 313.846 1115.38C314.52 1115.9 315.349 1116.19 316.202 1116.19" stroke="black" stroke-width="0.5"/>
<path d="M316.203 1116.19H351.912V1113.3" stroke="black" stroke-width="0.5"/>
<path d="M316.203 1071.46H351.912V1074.35" stroke="black" stroke-width="0.5"/>
<path d="M355.76 1074.35V1113.3H312.477V1074.35H355.76Z" stroke="black" stroke-width="0.5"/>
<path d="M312.477 1074.35V1113.3H318.368V1074.35H312.477ZM318.368 1074.35V1113.3H355.76V1074.35H318.368Z" fill="#D6D6D6"/>
<path d="M312.477 1113.3L316.202 1116.19H351.911V1113.3H312.477ZM316.202 1071.46L312.477 1074.35H351.911V1071.46H316.202Z" fill="#848484"/>
<path d="M318.371 1021.34V1060.29" stroke="black" stroke-width="0.5"/>
<path d="M316.202 1018.45C315.349 1018.45 314.52 1018.74 313.846 1019.26C313.171 1019.78 312.69 1020.51 312.477 1021.34" stroke="black" stroke-width="0.5"/>
<path d="M312.477 1060.29C312.69 1061.12 313.171 1061.85 313.846 1062.37C314.52 1062.89 315.349 1063.18 316.202 1063.18" stroke="black" stroke-width="0.5"/>
<path d="M316.203 1063.18H351.912V1060.29" stroke="black" stroke-width="0.5"/>
<path d="M316.203 1018.45H351.912V1021.34" stroke="black" stroke-width="0.5"/>
<path d="M355.76 1021.34V1060.29H312.477V1021.34H355.76Z" stroke="black" stroke-width="0.5"/>
<path d="M312.477 1021.34V1060.29H318.368V1021.34H312.477ZM318.368 1021.34V1060.29H355.76V1021.34H318.368Z" fill="#D6D6D6"/>
<path d="M312.477 1060.29L316.202 1063.18H351.911V1060.29H312.477ZM316.202 1018.45L312.477 1021.34H351.911V1018.45H316.202Z" fill="#848484"/>
<path d="M476.934 908.274V802.243H363.329V908.274H476.934ZM476.934 802.243V696.211H363.329V802.243H476.934Z" fill="#D6D6D6"/>
<path d="M422.59 869.648V734.837" stroke="black" stroke-width="0.5" stroke-dasharray="0.24 0.12"/>
<path d="M417.672 869.648V734.837" stroke="black" stroke-width="0.5" stroke-dasharray="0.24 0.12"/>
<path d="M422.594 734.08V870.405H417.671V734.08H422.594Z" stroke="black" stroke-width="0.5" stroke-dasharray="0.24 0.12"/>
<path d="M451.828 726.506H388.437V734.08H451.828V726.506Z" stroke="black" stroke-width="0.5" stroke-dasharray="0.24 0.12"/>
<path d="M423.922 726.506H416.342" stroke="black" stroke-width="0.5" stroke-dasharray="0.24 0.12"/>
<path d="M451.828 877.979H388.437V870.406H451.828V877.979Z" stroke="black" stroke-width="0.5" stroke-dasharray="0.24 0.12"/>
<path d="M459.023 868.626V863.324H422.594V868.626H459.023Z" stroke="black" stroke-width="0.5" stroke-dasharray="0.24 0.12"/>
<path d="M381.239 868.626V863.324H417.668V868.626H381.239Z" stroke="black" stroke-width="0.5" stroke-dasharray="0.24 0.12"/>
<path d="M459.023 735.86V741.161H422.594V735.86H459.023Z" stroke="black" stroke-width="0.5" stroke-dasharray="0.24 0.12"/>
<path d="M381.239 735.86V741.161H417.668V735.86H381.239Z" stroke="black" stroke-width="0.5" stroke-dasharray="0.24 0.12"/>
<path d="M459.023 799.592V804.893H422.594V799.592H459.023Z" stroke="black" stroke-width="0.5" stroke-dasharray="0.24 0.12"/>
<path d="M381.239 799.592V804.893H417.668V799.592H381.239Z" stroke="black" stroke-width="0.5" stroke-dasharray="0.24 0.12"/>
<path d="M363.329 696.211V908.274H476.934V696.211H363.329Z" stroke="black" stroke-width="0.5" stroke-linecap="round"/>
<path d="M476.93 802.243H363.33" stroke="black" stroke-width="0.5" stroke-linecap="round"/>
<path d="M310.861 537.643H271.906" stroke="black" stroke-width="0.5"/>
<path d="M313.745 535.475C313.745 534.622 313.462 533.793 312.939 533.119C312.417 532.445 311.685 531.963 310.859 531.75" stroke="black" stroke-width="0.5"/>
<path d="M271.905 531.75C271.079 531.963 270.348 532.445 269.825 533.119C269.303 533.793 269.02 534.622 269.02 535.475" stroke="black" stroke-width="0.5"/>
<path d="M269.02 535.475V571.184H271.905" stroke="black" stroke-width="0.5"/>
<path d="M313.745 535.475V571.184H310.859" stroke="black" stroke-width="0.5"/>
<path d="M310.861 575.033H271.906V531.75H310.861V575.033Z" stroke="black" stroke-width="0.5"/>
<path d="M310.861 531.75H271.906V537.641H310.861V531.75ZM310.861 537.641H271.906V575.033H310.861V537.641Z" fill="#D6D6D6"/>
<path d="M271.905 531.75L269.02 535.475V571.184H271.905V531.75ZM313.746 535.475L310.86 531.75V571.184H313.746V535.475Z" fill="#848484"/>
<path d="M363.877 537.643H324.922" stroke="black" stroke-width="0.5"/>
<path d="M366.761 535.475C366.761 534.622 366.477 533.793 365.955 533.119C365.432 532.445 364.701 531.963 363.875 531.75" stroke="black" stroke-width="0.5"/>
<path d="M324.921 531.75C324.095 531.963 323.363 532.445 322.841 533.119C322.319 533.793 322.035 534.622 322.035 535.475" stroke="black" stroke-width="0.5"/>
<path d="M322.035 535.475V571.184H324.921" stroke="black" stroke-width="0.5"/>
<path d="M366.761 535.475V571.184H363.875" stroke="black" stroke-width="0.5"/>
<path d="M363.877 575.033H324.922V531.75H363.877V575.033Z" stroke="black" stroke-width="0.5"/>
<path d="M363.877 531.75H324.922V537.641H363.877V531.75ZM363.877 537.641H324.922V575.033H363.877V537.641Z" fill="#D6D6D6"/>
<path d="M324.921 531.75L322.035 535.475V571.184H324.921V531.75ZM366.761 535.475L363.876 531.75V571.184H366.761V535.475Z" fill="#848484"/>
<path d="M469.908 537.643H430.953" stroke="black" stroke-width="0.5"/>
<path d="M472.792 535.475C472.792 534.622 472.508 533.793 471.986 533.119C471.464 532.445 470.732 531.963 469.906 531.75" stroke="black" stroke-width="0.5"/>
<path d="M430.952 531.75C430.126 531.963 429.395 532.445 428.872 533.119C428.35 533.793 428.066 534.622 428.066 535.475" stroke="black" stroke-width="0.5"/>
<path d="M428.066 535.475V571.184H430.952" stroke="black" stroke-width="0.5"/>
<path d="M472.792 535.475V571.184H469.906" stroke="black" stroke-width="0.5"/>
<path d="M469.908 575.033H430.953V531.75H469.908V575.033Z" stroke="black" stroke-width="0.5"/>
<path d="M469.908 531.75H430.953V537.641H469.908V531.75ZM469.908 537.641H430.953V575.033H469.908V537.641Z" fill="#D6D6D6"/>
<path d="M430.952 531.75L428.066 535.475V571.184H430.952V531.75ZM472.793 535.475L469.907 531.75V571.184H472.793V535.475Z" fill="#848484"/>
<path d="M416.893 537.643H377.938" stroke="black" stroke-width="0.5"/>
<path d="M419.776 535.475C419.776 534.622 419.493 533.793 418.97 533.119C418.448 532.445 417.716 531.963 416.891 531.75" stroke="black" stroke-width="0.5"/>
<path d="M377.936 531.75C377.11 531.963 376.379 532.445 375.857 533.119C375.334 533.793 375.051 534.622 375.051 535.475" stroke="black" stroke-width="0.5"/>
<path d="M375.051 535.475V571.184H377.936" stroke="black" stroke-width="0.5"/>
<path d="M419.776 535.475V571.184H416.891" stroke="black" stroke-width="0.5"/>
<path d="M416.893 575.033H377.938V531.75H416.893V575.033Z" stroke="black" stroke-width="0.5"/>
<path d="M416.893 531.75H377.938V537.641H416.893V531.75ZM416.893 537.641H377.938V575.033H416.893V537.641Z" fill="#D6D6D6"/>
<path d="M377.936 531.75L375.051 535.475V571.184H377.936V531.75ZM419.777 535.475L416.891 531.75V571.184H419.777V535.475Z" fill="#848484"/>
<path d="M264.875 696.212H370.906V582.607H264.875V696.212ZM370.906 696.212H476.938V582.607H370.906V696.212Z" fill="#D6D6D6"/>
<path d="M303.501 641.87H438.312" stroke="black" stroke-width="0.5" stroke-dasharray="0.24 0.12"/>
<path d="M303.501 636.95H438.312" stroke="black" stroke-width="0.5" stroke-dasharray="0.24 0.12"/>
<path d="M439.07 641.871H302.744V636.948H439.07V641.871Z" stroke="black" stroke-width="0.5" stroke-dasharray="0.24 0.12"/>
<path d="M446.645 671.106V607.714H439.071V671.106H446.645Z" stroke="black" stroke-width="0.5" stroke-dasharray="0.24 0.12"/>
<path d="M446.645 643.2V635.62" stroke="black" stroke-width="0.5" stroke-dasharray="0.24 0.12"/>
<path d="M295.169 671.106V607.714H302.742V671.106H295.169Z" stroke="black" stroke-width="0.5" stroke-dasharray="0.24 0.12"/>
<path d="M304.523 678.301H309.824V641.871H304.523V678.301Z" stroke="black" stroke-width="0.5" stroke-dasharray="0.24 0.12"/>
<path d="M304.523 600.519H309.824V636.948H304.523V600.519Z" stroke="black" stroke-width="0.5" stroke-dasharray="0.24 0.12"/>
<path d="M437.289 678.301H431.988V641.871H437.289V678.301Z" stroke="black" stroke-width="0.5" stroke-dasharray="0.24 0.12"/>
<path d="M437.289 600.519H431.988V636.948H437.289V600.519Z" stroke="black" stroke-width="0.5" stroke-dasharray="0.24 0.12"/>
<path d="M373.559 678.301H368.257V641.871H373.559V678.301Z" stroke="black" stroke-width="0.5" stroke-dasharray="0.24 0.12"/>
<path d="M373.559 600.519H368.257V636.948H373.559V600.519Z" stroke="black" stroke-width="0.5" stroke-dasharray="0.24 0.12"/>
<path d="M476.938 582.607H264.875V696.212H476.938V582.607Z" stroke="black" stroke-width="0.5" stroke-linecap="round"/>
<path d="M370.906 696.21V582.61" stroke="black" stroke-width="0.5" stroke-linecap="round"/>
<path d="M98.799 537.643H59.8438" stroke="black" stroke-width="0.5"/>
<path d="M101.682 535.475C101.682 534.622 101.399 533.793 100.877 533.119C100.354 532.445 99.6227 531.963 98.7969 531.75" stroke="black" stroke-width="0.5"/>
<path d="M59.8426 531.75C59.0167 531.963 58.2851 532.445 57.7628 533.119C57.2405 533.793 56.957 534.622 56.957 535.475" stroke="black" stroke-width="0.5"/>
<path d="M56.957 535.475V571.184H59.8426" stroke="black" stroke-width="0.5"/>
<path d="M101.682 535.475V571.184H98.7969" stroke="black" stroke-width="0.5"/>
<path d="M98.7989 575.033H59.8438V531.75H98.7989V575.033Z" stroke="black" stroke-width="0.5"/>
<path d="M98.7989 531.75H59.8438V537.641H98.7989V531.75ZM98.7989 537.641H59.8438V575.033H98.7989V537.641Z" fill="#D6D6D6"/>
<path d="M59.8426 531.75L56.957 535.475V571.184H59.8426V531.75ZM101.683 535.475L98.7977 531.75V571.184H101.683V535.475Z" fill="#848484"/>
<path d="M151.815 537.643H112.859" stroke="black" stroke-width="0.5"/>
<path d="M154.698 535.475C154.698 534.622 154.415 533.793 153.892 533.119C153.37 532.445 152.638 531.963 151.812 531.75" stroke="black" stroke-width="0.5"/>
<path d="M112.858 531.75C112.032 531.963 111.301 532.445 110.778 533.119C110.256 533.793 109.973 534.622 109.973 535.475" stroke="black" stroke-width="0.5"/>
<path d="M109.973 535.475V571.184H112.858" stroke="black" stroke-width="0.5"/>
<path d="M154.698 535.475V571.184H151.812" stroke="black" stroke-width="0.5"/>
<path d="M151.814 575.033H112.859V531.75H151.814V575.033Z" stroke="black" stroke-width="0.5"/>
<path d="M151.814 531.75H112.859V537.641H151.814V531.75ZM151.814 537.641H112.859V575.033H151.814V537.641Z" fill="#D6D6D6"/>
<path d="M112.858 531.75L109.973 535.475V571.184H112.858V531.75ZM154.699 535.475L151.813 531.75V571.184H154.699V535.475Z" fill="#848484"/>
<path d="M257.846 537.643H218.891" stroke="black" stroke-width="0.5"/>
<path d="M260.729 535.475C260.729 534.622 260.446 533.793 259.924 533.119C259.401 532.445 258.67 531.963 257.844 531.75" stroke="black" stroke-width="0.5"/>
<path d="M218.889 531.75C218.064 531.963 217.332 532.445 216.81 533.119C216.287 533.793 216.004 534.622 216.004 535.475" stroke="black" stroke-width="0.5"/>
<path d="M216.004 535.475V571.184H218.889" stroke="black" stroke-width="0.5"/>
<path d="M260.729 535.475V571.184H257.844" stroke="black" stroke-width="0.5"/>
<path d="M257.846 575.033H218.891V531.75H257.846V575.033Z" stroke="black" stroke-width="0.5"/>
<path d="M257.846 531.75H218.891V537.641H257.846V531.75ZM257.846 537.641H218.891V575.033H257.846V537.641Z" fill="#D6D6D6"/>
<path d="M218.889 531.75L216.004 535.475V571.184H218.889V531.75ZM260.73 535.475L257.845 531.75V571.184H260.73V535.475Z" fill="#848484"/>
<path d="M204.83 537.643H165.875" stroke="black" stroke-width="0.5"/>
<path d="M207.714 535.475C207.714 534.622 207.43 533.793 206.908 533.119C206.386 532.445 205.654 531.963 204.828 531.75" stroke="black" stroke-width="0.5"/>
<path d="M165.874 531.75C165.048 531.963 164.316 532.445 163.794 533.119C163.272 533.793 162.988 534.622 162.988 535.475" stroke="black" stroke-width="0.5"/>
<path d="M162.988 535.475V571.184H165.874" stroke="black" stroke-width="0.5"/>
<path d="M207.714 535.475V571.184H204.828" stroke="black" stroke-width="0.5"/>
<path d="M204.83 575.033H165.875V531.75H204.83V575.033Z" stroke="black" stroke-width="0.5"/>
<path d="M204.83 531.75H165.875V537.641H204.83V531.75ZM204.83 537.641H165.875V575.033H204.83V537.641Z" fill="#D6D6D6"/>
<path d="M165.874 531.75L162.988 535.475V571.184H165.874V531.75ZM207.715 535.475L204.829 531.75V571.184H207.715V535.475Z" fill="#848484"/>
<path d="M52.8125 696.212H158.844V582.607H52.8125V696.212ZM158.844 696.212H264.875V582.607H158.844V696.212Z" fill="#D6D6D6"/>
<path d="M91.4387 641.87H226.25" stroke="black" stroke-width="0.5" stroke-dasharray="0.24 0.12"/>
<path d="M91.4387 636.95H226.25" stroke="black" stroke-width="0.5" stroke-dasharray="0.24 0.12"/>
<path d="M227.008 641.871H90.6819V636.948H227.008V641.871Z" stroke="black" stroke-width="0.5" stroke-dasharray="0.24 0.12"/>
<path d="M234.582 671.106V607.714H227.008V671.106H234.582Z" stroke="black" stroke-width="0.5" stroke-dasharray="0.24 0.12"/>
<path d="M234.582 643.2V635.62" stroke="black" stroke-width="0.5" stroke-dasharray="0.24 0.12"/>
<path d="M83.106 671.106L83.106 607.714H90.6797L90.6797 671.106H83.106Z" stroke="black" stroke-width="0.5" stroke-dasharray="0.24 0.12"/>
<path d="M92.4602 678.301H97.7617V641.871H92.4602V678.301Z" stroke="black" stroke-width="0.5" stroke-dasharray="0.24 0.12"/>
<path d="M92.4602 600.519H97.7617V636.948H92.4602V600.519Z" stroke="black" stroke-width="0.5" stroke-dasharray="0.24 0.12"/>
<path d="M225.227 678.301H219.925V641.871H225.227V678.301Z" stroke="black" stroke-width="0.5" stroke-dasharray="0.24 0.12"/>
<path d="M225.227 600.519H219.925V636.948H225.227V600.519Z" stroke="black" stroke-width="0.5" stroke-dasharray="0.24 0.12"/>
<path d="M161.496 678.301H156.195V641.871H161.496V678.301Z" stroke="black" stroke-width="0.5" stroke-dasharray="0.24 0.12"/>
<path d="M161.496 600.519H156.195V636.948H161.496V600.519Z" stroke="black" stroke-width="0.5" stroke-dasharray="0.24 0.12"/>
<path d="M264.875 582.607H52.8125V696.212H264.875V582.607Z" stroke="black" stroke-width="0.5" stroke-linecap="round"/>
<path d="M158.844 696.21V582.61" stroke="black" stroke-width="0.5" stroke-linecap="round"/>
<path d="M7.85156 862.288L7.85156 901.244" stroke="black" stroke-width="0.5"/>
<path d="M5.68225 859.403C4.82929 859.403 4.00049 859.686 3.32617 860.209C2.65185 860.731 2.17027 861.463 1.95703 862.289" stroke="black" stroke-width="0.5"/>
<path d="M1.95703 901.244C2.17027 902.069 2.65185 902.801 3.32617 903.323C4.00049 903.846 4.82929 904.129 5.68225 904.129" stroke="black" stroke-width="0.5"/>
<path d="M5.68359 904.129H41.3925V901.244" stroke="black" stroke-width="0.5"/>
<path d="M5.68359 859.403H41.3925V862.289" stroke="black" stroke-width="0.5"/>
<path d="M45.2405 862.289L45.2405 901.244H1.95703L1.95703 862.289H45.2405Z" stroke="black" stroke-width="0.5"/>
<path d="M1.95703 862.289L1.95703 901.244H7.84839L7.84839 862.289H1.95703ZM7.84839 862.289L7.84839 901.244H45.2405L45.2405 862.289H7.84839Z" fill="#D6D6D6"/>
<path d="M1.95703 901.244L5.68225 904.129H41.3911V901.244H1.95703ZM5.68225 859.403L1.95703 862.288H41.3911V859.403H5.68225Z" fill="#848484"/>
<path d="M7.85156 809.273L7.85156 848.228" stroke="black" stroke-width="0.5"/>
<path d="M5.68225 806.387C4.82929 806.387 4.00049 806.67 3.32617 807.193C2.65185 807.715 2.17027 808.447 1.95703 809.272" stroke="black" stroke-width="0.5"/>
<path d="M1.95703 848.228C2.17027 849.054 2.65185 849.785 3.32617 850.308C4.00049 850.83 4.82929 851.113 5.68225 851.113" stroke="black" stroke-width="0.5"/>
<path d="M5.68359 851.113H41.3925V848.228" stroke="black" stroke-width="0.5"/>
<path d="M5.68359 806.387H41.3925V809.272" stroke="black" stroke-width="0.5"/>
<path d="M45.2405 809.273L45.2405 848.228H1.95703L1.95703 809.273H45.2405Z" stroke="black" stroke-width="0.5"/>
<path d="M1.95703 809.273L1.95703 848.228H7.84839L7.84839 809.273H1.95703ZM7.84839 809.273L7.84839 848.228H45.2405L45.2405 809.273H7.84839Z" fill="#D6D6D6"/>
<path d="M1.95703 848.228L5.68225 851.113H41.3911V848.228H1.95703ZM5.68225 806.387L1.95703 809.273H41.3911V806.387H5.68225Z" fill="#848484"/>
<path d="M7.85156 703.241L7.85156 742.197" stroke="black" stroke-width="0.5"/>
<path d="M5.68225 700.356C4.82929 700.356 4.00049 700.639 3.32617 701.161C2.65185 701.684 2.17027 702.415 1.95703 703.241" stroke="black" stroke-width="0.5"/>
<path d="M1.95703 742.196C2.17027 743.022 2.65185 743.754 3.32617 744.276C4.00049 744.799 4.82929 745.082 5.68225 745.082" stroke="black" stroke-width="0.5"/>
<path d="M5.68359 745.082H41.3925V742.196" stroke="black" stroke-width="0.5"/>
<path d="M5.68359 700.356H41.3925V703.241" stroke="black" stroke-width="0.5"/>
<path d="M45.2405 703.241L45.2405 742.197H1.95703L1.95703 703.241H45.2405Z" stroke="black" stroke-width="0.5"/>
<path d="M1.95703 703.241L1.95703 742.197H7.84839L7.84839 703.241H1.95703ZM7.84839 703.241L7.84839 742.197H45.2405L45.2405 703.241H7.84839Z" fill="#D6D6D6"/>
<path d="M1.95703 742.196L5.68225 745.082H41.3911V742.196H1.95703ZM5.68225 700.356L1.95703 703.241H41.3911V700.356H5.68225Z" fill="#848484"/>
<path d="M7.85156 756.257L7.85156 795.213" stroke="black" stroke-width="0.5"/>
<path d="M5.68225 753.372C4.82929 753.372 4.00049 753.655 3.32617 754.178C2.65185 754.7 2.17027 755.431 1.95703 756.257" stroke="black" stroke-width="0.5"/>
<path d="M1.95703 795.213C2.17027 796.038 2.65185 796.77 3.32617 797.292C4.00049 797.815 4.82929 798.098 5.68225 798.098" stroke="black" stroke-width="0.5"/>
<path d="M5.68359 798.098H41.3925V795.213" stroke="black" stroke-width="0.5"/>
<path d="M5.68359 753.372H41.3925V756.257" stroke="black" stroke-width="0.5"/>
<path d="M45.2405 756.258L45.2405 795.213H1.95703L1.95703 756.258H45.2405Z" stroke="black" stroke-width="0.5"/>
<path d="M1.95703 756.258L1.95703 795.213H7.84839L7.84839 756.258H1.95703ZM7.84839 756.258L7.84839 795.213H45.2405L45.2405 756.258H7.84839Z" fill="#D6D6D6"/>
<path d="M1.95703 795.213L5.68225 798.098H41.3911V795.213H1.95703ZM5.68225 753.372L1.95703 756.257H41.3911V753.372H5.68225Z" fill="#848484"/>
<path d="M211.379 901.244V862.288" stroke="black" stroke-width="0.5"/>
<path d="M213.548 904.129C214.401 904.129 215.23 903.846 215.904 903.323C216.579 902.801 217.06 902.07 217.273 901.244" stroke="black" stroke-width="0.5"/>
<path d="M217.273 862.288C217.06 861.463 216.579 860.731 215.904 860.209C215.23 859.686 214.401 859.403 213.548 859.403" stroke="black" stroke-width="0.5"/>
<path d="M213.547 859.403H177.838V862.288" stroke="black" stroke-width="0.5"/>
<path d="M213.547 904.129H177.838V901.244" stroke="black" stroke-width="0.5"/>
<path d="M173.99 901.243V862.288H217.273V901.243H173.99Z" stroke="black" stroke-width="0.5"/>
<path d="M217.273 901.243V862.288H211.382V901.243H217.273ZM211.382 901.243V862.288H173.99V901.243H211.382Z" fill="#D6D6D6"/>
<path d="M217.273 862.288L213.548 859.403H177.839V862.288H217.273ZM213.548 904.129L217.273 901.244H177.839V904.129H213.548Z" fill="#848484"/>
<path d="M211.379 848.227V809.272" stroke="black" stroke-width="0.5"/>
<path d="M213.548 851.113C214.401 851.113 215.23 850.83 215.904 850.307C216.579 849.785 217.06 849.053 217.273 848.228" stroke="black" stroke-width="0.5"/>
<path d="M217.273 809.272C217.06 808.446 216.579 807.715 215.904 807.192C215.23 806.67 214.401 806.387 213.548 806.387" stroke="black" stroke-width="0.5"/>
<path d="M213.547 806.387H177.838V809.272" stroke="black" stroke-width="0.5"/>
<path d="M213.547 851.113H177.838V848.228" stroke="black" stroke-width="0.5"/>
<path d="M173.99 848.227V809.272H217.273V848.227H173.99Z" stroke="black" stroke-width="0.5"/>
<path d="M217.273 848.227V809.272H211.382V848.227H217.273ZM211.382 848.227V809.272H173.99V848.227H211.382Z" fill="#D6D6D6"/>
<path d="M217.273 809.272L213.548 806.387H177.839V809.272H217.273ZM213.548 851.113L217.273 848.227H177.839V851.113H213.548Z" fill="#848484"/>
<path d="M211.379 742.197V703.241" stroke="black" stroke-width="0.5"/>
<path d="M213.548 745.082C214.401 745.082 215.23 744.799 215.904 744.277C216.579 743.754 217.06 743.023 217.273 742.197" stroke="black" stroke-width="0.5"/>
<path d="M217.273 703.242C217.06 702.416 216.579 701.684 215.904 701.162C215.23 700.639 214.401 700.356 213.548 700.356" stroke="black" stroke-width="0.5"/>
<path d="M213.547 700.356H177.838V703.242" stroke="black" stroke-width="0.5"/>
<path d="M213.547 745.082H177.838V742.197" stroke="black" stroke-width="0.5"/>
<path d="M173.99 742.197V703.241H217.273V742.197H173.99Z" stroke="black" stroke-width="0.5"/>
<path d="M217.273 742.197V703.241H211.382V742.197H217.273ZM211.382 742.197V703.241H173.99V742.197H211.382Z" fill="#D6D6D6"/>
<path d="M217.273 703.242L213.548 700.356H177.839V703.242H217.273ZM213.548 745.082L217.273 742.197H177.839V745.082H213.548Z" fill="#848484"/>
<path d="M211.379 795.213V756.257" stroke="black" stroke-width="0.5"/>
<path d="M213.548 798.098C214.401 798.098 215.23 797.815 215.904 797.292C216.579 796.77 217.06 796.038 217.273 795.212" stroke="black" stroke-width="0.5"/>
<path d="M217.273 756.257C217.06 755.432 216.579 754.7 215.904 754.178C215.23 753.655 214.401 753.372 213.548 753.372" stroke="black" stroke-width="0.5"/>
<path d="M213.547 753.372H177.838V756.257" stroke="black" stroke-width="0.5"/>
<path d="M213.547 798.098H177.838V795.212" stroke="black" stroke-width="0.5"/>
<path d="M173.99 795.212V756.257H217.273V795.212H173.99Z" stroke="black" stroke-width="0.5"/>
<path d="M217.273 795.212V756.257H211.382V795.212H217.273ZM211.382 795.212V756.257H173.99V795.212H211.382Z" fill="#D6D6D6"/>
<path d="M217.273 756.257L213.548 753.372H177.839V756.257H217.273ZM213.548 798.098L217.273 795.213H177.839V798.098H213.548Z" fill="#848484"/>
<path d="M52.8086 908.274L52.8086 1014.31H166.414L166.414 908.274H52.8086ZM52.8086 1014.31L52.8086 1120.34H166.414V1014.31H52.8086Z" fill="#D6D6D6"/>
<path d="M107.152 946.9L107.152 1081.71" stroke="black" stroke-width="0.5" stroke-dasharray="0.24 0.12"/>
<path d="M112.07 946.9L112.07 1081.71" stroke="black" stroke-width="0.5" stroke-dasharray="0.24 0.12"/>
<path d="M107.148 1082.47L107.148 946.142H112.071L112.071 1082.47H107.148Z" stroke="black" stroke-width="0.5" stroke-dasharray="0.24 0.12"/>
<path d="M77.9141 1090.04H141.306V1082.47H77.9141V1090.04Z" stroke="black" stroke-width="0.5" stroke-dasharray="0.24 0.12"/>
<path d="M105.82 1090.04H113.4" stroke="black" stroke-width="0.5" stroke-dasharray="0.24 0.12"/>
<path d="M77.9141 938.568H141.306V946.142H77.9141V938.568Z" stroke="black" stroke-width="0.5" stroke-dasharray="0.24 0.12"/>
<path d="M70.7188 947.922V953.224H107.148V947.922H70.7188Z" stroke="black" stroke-width="0.5" stroke-dasharray="0.24 0.12"/>
<path d="M148.504 947.922V953.224H112.074V947.922H148.504Z" stroke="black" stroke-width="0.5" stroke-dasharray="0.24 0.12"/>
<path d="M70.7188 1080.69V1075.39H107.148V1080.69H70.7188Z" stroke="black" stroke-width="0.5" stroke-dasharray="0.24 0.12"/>
<path d="M148.504 1080.69V1075.39H112.074V1080.69H148.504Z" stroke="black" stroke-width="0.5" stroke-dasharray="0.24 0.12"/>
<path d="M70.7188 1016.96V1011.65H107.148V1016.96H70.7188Z" stroke="black" stroke-width="0.5" stroke-dasharray="0.24 0.12"/>
<path d="M148.504 1016.96V1011.65H112.074V1016.96H148.504Z" stroke="black" stroke-width="0.5" stroke-dasharray="0.24 0.12"/>
<path d="M166.414 1120.34L166.414 908.274H52.8086L52.8086 1120.34H166.414Z" stroke="black" stroke-width="0.5" stroke-linecap="round"/>
<path d="M52.8125 1014.3H166.412" stroke="black" stroke-width="0.5" stroke-linecap="round"/>
<path d="M7.85156 915.304L7.85156 954.26" stroke="black" stroke-width="0.5"/>
<path d="M5.68225 912.419C4.82929 912.419 4.00049 912.702 3.32617 913.224C2.65185 913.747 2.17027 914.478 1.95703 915.304" stroke="black" stroke-width="0.5"/>
<path d="M1.95703 954.259C2.17027 955.085 2.65185 955.817 3.32617 956.339C4.00049 956.862 4.82929 957.145 5.68225 957.145" stroke="black" stroke-width="0.5"/>
<path d="M5.68359 957.145H41.3925V954.259" stroke="black" stroke-width="0.5"/>
<path d="M5.68359 912.419H41.3925V915.304" stroke="black" stroke-width="0.5"/>
<path d="M45.2405 915.304L45.2405 954.26H1.95703L1.95703 915.304H45.2405Z" stroke="black" stroke-width="0.5"/>
<path d="M1.95703 915.304L1.95703 954.26H7.84839L7.84839 915.304H1.95703ZM7.84839 915.304L7.84839 954.26H45.2405L45.2405 915.304H7.84839Z" fill="#D6D6D6"/>
<path d="M1.95703 954.259L5.68225 957.145H41.3911V954.259H1.95703ZM5.68225 912.419L1.95703 915.304H41.3911V912.419H5.68225Z" fill="#848484"/>
<path d="M7.85156 968.319L7.85156 1007.27" stroke="black" stroke-width="0.5"/>
<path d="M5.68225 965.434C4.82929 965.434 4.00049 965.717 3.32617 966.24C2.65185 966.762 2.17027 967.493 1.95703 968.319" stroke="black" stroke-width="0.5"/>
<path d="M1.95703 1007.27C2.17027 1008.1 2.65185 1008.83 3.32617 1009.35C4.00049 1009.88 4.82929 1010.16 5.68225 1010.16" stroke="black" stroke-width="0.5"/>
<path d="M5.68359 1010.16H41.3925V1007.27" stroke="black" stroke-width="0.5"/>
<path d="M5.68359 965.434H41.3925V968.319" stroke="black" stroke-width="0.5"/>
<path d="M45.2405 968.32L45.2405 1007.27H1.95703L1.95703 968.32H45.2405Z" stroke="black" stroke-width="0.5"/>
<path d="M1.95703 968.32L1.95703 1007.27H7.84839L7.84839 968.32H1.95703ZM7.84839 968.32L7.84839 1007.27H45.2405L45.2405 968.32H7.84839Z" fill="#D6D6D6"/>
<path d="M1.95703 1007.27L5.68225 1010.16H41.3911V1007.27H1.95703ZM5.68225 965.434L1.95703 968.319H41.3911V965.434H5.68225Z" fill="#848484"/>
<path d="M7.85156 1074.35L7.85156 1113.3" stroke="black" stroke-width="0.5"/>
<path d="M5.68225 1071.46C4.82929 1071.46 4.00049 1071.75 3.32617 1072.27C2.65185 1072.79 2.17027 1073.52 1.95703 1074.35" stroke="black" stroke-width="0.5"/>
<path d="M1.95703 1113.3C2.17027 1114.13 2.65185 1114.86 3.32617 1115.38C4.00049 1115.9 4.82929 1116.19 5.68225 1116.19" stroke="black" stroke-width="0.5"/>
<path d="M5.68359 1116.19H41.3925V1113.3" stroke="black" stroke-width="0.5"/>
<path d="M5.68359 1071.46H41.3925V1074.35" stroke="black" stroke-width="0.5"/>
<path d="M45.2405 1074.35L45.2405 1113.3H1.95703L1.95703 1074.35H45.2405Z" stroke="black" stroke-width="0.5"/>
<path d="M1.95703 1074.35L1.95703 1113.3H7.84839L7.84839 1074.35H1.95703ZM7.84839 1074.35L7.84839 1113.3H45.2405L45.2405 1074.35H7.84839Z" fill="#D6D6D6"/>
<path d="M1.95703 1113.3L5.68225 1116.19H41.3911V1113.3H1.95703ZM5.68225 1071.46L1.95703 1074.35H41.3911V1071.46H5.68225Z" fill="#848484"/>
<path d="M7.85156 1021.34L7.85156 1060.29" stroke="black" stroke-width="0.5"/>
<path d="M5.68225 1018.45C4.82929 1018.45 4.00049 1018.74 3.32617 1019.26C2.65185 1019.78 2.17027 1020.51 1.95703 1021.34" stroke="black" stroke-width="0.5"/>
<path d="M1.95703 1060.29C2.17027 1061.12 2.65185 1061.85 3.32617 1062.37C4.00049 1062.89 4.82929 1063.18 5.68225 1063.18" stroke="black" stroke-width="0.5"/>
<path d="M5.68359 1063.18H41.3925V1060.29" stroke="black" stroke-width="0.5"/>
<path d="M5.68359 1018.45H41.3925V1021.34" stroke="black" stroke-width="0.5"/>
<path d="M45.2405 1021.34L45.2405 1060.29H1.95703L1.95703 1021.34H45.2405Z" stroke="black" stroke-width="0.5"/>
<path d="M1.95703 1021.34L1.95703 1060.29H7.84839L7.84839 1021.34H1.95703ZM7.84839 1021.34L7.84839 1060.29H45.2405L45.2405 1021.34H7.84839Z" fill="#D6D6D6"/>
<path d="M1.95703 1060.29L5.68225 1063.18H41.3911V1060.29H1.95703ZM5.68225 1018.45L1.95703 1021.34H41.3911V1018.45H5.68225Z" fill="#848484"/>
<path d="M211.379 954.26V915.304" stroke="black" stroke-width="0.5"/>
<path d="M213.548 957.145C214.401 957.145 215.23 956.862 215.904 956.34C216.579 955.817 217.06 955.086 217.273 954.26" stroke="black" stroke-width="0.5"/>
<path d="M217.273 915.305C217.06 914.479 216.579 913.747 215.904 913.225C215.23 912.702 214.401 912.419 213.548 912.419" stroke="black" stroke-width="0.5"/>
<path d="M213.547 912.419H177.838V915.305" stroke="black" stroke-width="0.5"/>
<path d="M213.547 957.145H177.838V954.26" stroke="black" stroke-width="0.5"/>
<path d="M173.99 954.26V915.304H217.273V954.26H173.99Z" stroke="black" stroke-width="0.5"/>
<path d="M217.273 954.26V915.304H211.382V954.26H217.273ZM211.382 954.26V915.304H173.99V954.26H211.382Z" fill="#D6D6D6"/>
<path d="M217.273 915.305L213.548 912.419H177.839V915.305H217.273ZM213.548 957.145L217.273 954.26H177.839V957.145H213.548Z" fill="#848484"/>
<path d="M211.379 1007.27V968.319" stroke="black" stroke-width="0.5"/>
<path d="M213.548 1010.16C214.401 1010.16 215.23 1009.88 215.904 1009.35C216.579 1008.83 217.06 1008.1 217.273 1007.27" stroke="black" stroke-width="0.5"/>
<path d="M217.273 968.319C217.06 967.494 216.579 966.762 215.904 966.24C215.23 965.717 214.401 965.434 213.548 965.434" stroke="black" stroke-width="0.5"/>
<path d="M213.547 965.434H177.838V968.319" stroke="black" stroke-width="0.5"/>
<path d="M213.547 1010.16H177.838V1007.27" stroke="black" stroke-width="0.5"/>
<path d="M173.99 1007.27V968.319H217.273V1007.27H173.99Z" stroke="black" stroke-width="0.5"/>
<path d="M217.273 1007.27V968.319H211.382V1007.27H217.273ZM211.382 1007.27V968.319H173.99V1007.27H211.382Z" fill="#D6D6D6"/>
<path d="M217.273 968.319L213.548 965.434H177.839V968.319H217.273ZM213.548 1010.16L217.273 1007.27H177.839V1010.16H213.548Z" fill="#848484"/>
<path d="M211.379 1113.3V1074.35" stroke="black" stroke-width="0.5"/>
<path d="M213.548 1116.19C214.401 1116.19 215.23 1115.9 215.904 1115.38C216.579 1114.86 217.06 1114.13 217.273 1113.3" stroke="black" stroke-width="0.5"/>
<path d="M217.273 1074.35C217.06 1073.52 216.579 1072.79 215.904 1072.27C215.23 1071.75 214.401 1071.46 213.548 1071.46" stroke="black" stroke-width="0.5"/>
<path d="M213.547 1071.46H177.838V1074.35" stroke="black" stroke-width="0.5"/>
<path d="M213.547 1116.19H177.838V1113.3" stroke="black" stroke-width="0.5"/>
<path d="M173.99 1113.3V1074.35H217.273V1113.3H173.99Z" stroke="black" stroke-width="0.5"/>
<path d="M217.273 1113.3V1074.35H211.382V1113.3H217.273ZM211.382 1113.3V1074.35H173.99V1113.3H211.382Z" fill="#D6D6D6"/>
<path d="M217.273 1074.35L213.548 1071.46H177.839V1074.35H217.273ZM213.548 1116.19L217.273 1113.3H177.839V1116.19H213.548Z" fill="#848484"/>
<path d="M211.379 1060.29V1021.34" stroke="black" stroke-width="0.5"/>
<path d="M213.548 1063.18C214.401 1063.18 215.23 1062.89 215.904 1062.37C216.579 1061.85 217.06 1061.12 217.273 1060.29" stroke="black" stroke-width="0.5"/>
<path d="M217.273 1021.34C217.06 1020.51 216.579 1019.78 215.904 1019.26C215.23 1018.74 214.401 1018.45 213.548 1018.45" stroke="black" stroke-width="0.5"/>
<path d="M213.547 1018.45H177.838V1021.34" stroke="black" stroke-width="0.5"/>
<path d="M213.547 1063.18H177.838V1060.29" stroke="black" stroke-width="0.5"/>
<path d="M173.99 1060.29V1021.34H217.273V1060.29H173.99Z" stroke="black" stroke-width="0.5"/>
<path d="M217.273 1060.29V1021.34H211.382V1060.29H217.273ZM211.382 1060.29V1021.34H173.99V1060.29H211.382Z" fill="#D6D6D6"/>
<path d="M217.273 1021.34L213.548 1018.45H177.839V1021.34H217.273ZM213.548 1063.18L217.273 1060.29H177.839V1063.18H213.548Z" fill="#848484"/>
<path d="M52.8086 908.274L52.8086 1014.31H166.414L166.414 908.274H52.8086ZM52.8086 1014.31L52.8086 1120.34H166.414V1014.31H52.8086Z" fill="#D6D6D6"/>
<path d="M107.152 946.9L107.152 1081.71" stroke="black" stroke-width="0.5" stroke-dasharray="0.24 0.12"/>
<path d="M112.07 946.9L112.07 1081.71" stroke="black" stroke-width="0.5" stroke-dasharray="0.24 0.12"/>
<path d="M107.148 1082.47L107.148 946.142H112.071L112.071 1082.47H107.148Z" stroke="black" stroke-width="0.5" stroke-dasharray="0.24 0.12"/>
<path d="M77.9141 1090.04H141.306V1082.47H77.9141V1090.04Z" stroke="black" stroke-width="0.5" stroke-dasharray="0.24 0.12"/>
<path d="M105.82 1090.04H113.4" stroke="black" stroke-width="0.5" stroke-dasharray="0.24 0.12"/>
<path d="M77.9141 938.568H141.306V946.142H77.9141V938.568Z" stroke="black" stroke-width="0.5" stroke-dasharray="0.24 0.12"/>
<path d="M70.7188 947.922V953.224H107.148V947.922H70.7188Z" stroke="black" stroke-width="0.5" stroke-dasharray="0.24 0.12"/>
<path d="M148.504 947.922V953.224H112.074V947.922H148.504Z" stroke="black" stroke-width="0.5" stroke-dasharray="0.24 0.12"/>
<path d="M70.7188 1080.69V1075.39H107.148V1080.69H70.7188Z" stroke="black" stroke-width="0.5" stroke-dasharray="0.24 0.12"/>
<path d="M148.504 1080.69V1075.39H112.074V1080.69H148.504Z" stroke="black" stroke-width="0.5" stroke-dasharray="0.24 0.12"/>
<path d="M70.7188 1016.96V1011.65H107.148V1016.96H70.7188Z" stroke="black" stroke-width="0.5" stroke-dasharray="0.24 0.12"/>
<path d="M148.504 1016.96V1011.65H112.074V1016.96H148.504Z" stroke="black" stroke-width="0.5" stroke-dasharray="0.24 0.12"/>
<path d="M166.414 1120.34L166.414 908.274H52.8086L52.8086 1120.34H166.414Z" stroke="black" stroke-width="0.5" stroke-linecap="round"/>
<path d="M52.8125 1014.3H166.412" stroke="black" stroke-width="0.5" stroke-linecap="round"/>
<path d="M7.85156 597.211L7.85156 636.166" stroke="black" stroke-width="0.5"/>
<path d="M5.68225 594.325C4.82929 594.325 4.00049 594.608 3.32617 595.131C2.65185 595.653 2.17027 596.385 1.95703 597.21" stroke="black" stroke-width="0.5"/>
<path d="M1.95703 636.166C2.17027 636.992 2.65185 637.723 3.32617 638.246C4.00049 638.768 4.82929 639.051 5.68225 639.051" stroke="black" stroke-width="0.5"/>
<path d="M5.68359 639.051H41.3925V636.166" stroke="black" stroke-width="0.5"/>
<path d="M5.68359 594.325H41.3925V597.21" stroke="black" stroke-width="0.5"/>
<path d="M45.2405 597.211L45.2405 636.166H1.95703L1.95703 597.211H45.2405Z" stroke="black" stroke-width="0.5"/>
<path d="M1.95703 597.211L1.95703 636.166H7.84839L7.84839 597.211H1.95703ZM7.84839 597.211L7.84839 636.166H45.2405L45.2405 597.211H7.84839Z" fill="#D6D6D6"/>
<path d="M1.95703 636.166L5.68225 639.051H41.3911V636.166H1.95703ZM5.68225 594.325L1.95703 597.211H41.3911V594.325H5.68225Z" fill="#848484"/>
<path d="M7.85156 650.225L7.85156 689.181" stroke="black" stroke-width="0.5"/>
<path d="M5.68225 647.34C4.82929 647.34 4.00049 647.623 3.32617 648.146C2.65185 648.668 2.17027 649.4 1.95703 650.226" stroke="black" stroke-width="0.5"/>
<path d="M1.95703 689.181C2.17027 690.006 2.65185 690.738 3.32617 691.26C4.00049 691.783 4.82929 692.066 5.68225 692.066" stroke="black" stroke-width="0.5"/>
<path d="M5.68359 692.066H41.3925V689.181" stroke="black" stroke-width="0.5"/>
<path d="M5.68359 647.34H41.3925V650.226" stroke="black" stroke-width="0.5"/>
<path d="M45.2405 650.226L45.2405 689.181H1.95703L1.95703 650.226H45.2405Z" stroke="black" stroke-width="0.5"/>
<path d="M1.95703 650.226L1.95703 689.181H7.84839L7.84839 650.226H1.95703ZM7.84839 650.226L7.84839 689.181H45.2405L45.2405 650.226H7.84839Z" fill="#D6D6D6"/>
<path d="M1.95703 689.181L5.68225 692.066H41.3911V689.181H1.95703ZM5.68225 647.34L1.95703 650.225H41.3911V647.34H5.68225Z" fill="#848484"/>
<path d="M521.898 628.592V589.636" stroke="black" stroke-width="0.5"/>
<path d="M524.068 631.477C524.921 631.477 525.75 631.194 526.424 630.672C527.098 630.149 527.58 629.418 527.793 628.592" stroke="black" stroke-width="0.5"/>
<path d="M527.793 589.637C527.58 588.811 527.098 588.079 526.424 587.557C525.75 587.034 524.921 586.751 524.068 586.751" stroke="black" stroke-width="0.5"/>
<path d="M524.066 586.751H488.358V589.637" stroke="black" stroke-width="0.5"/>
<path d="M524.066 631.477H488.358V628.592" stroke="black" stroke-width="0.5"/>
<path d="M484.51 628.592V589.636H527.793V628.592H484.51Z" stroke="black" stroke-width="0.5"/>
<path d="M527.793 628.592V589.636H521.902V628.592H527.793ZM521.902 628.592V589.636H484.51V628.592H521.902Z" fill="#D6D6D6"/>
<path d="M527.793 589.637L524.068 586.751H488.359V589.637H527.793ZM524.068 631.477L527.793 628.592H488.359V631.477H524.068Z" fill="#848484"/>
<path d="M521.898 681.608V642.652" stroke="black" stroke-width="0.5"/>
<path d="M524.068 684.493C524.921 684.493 525.75 684.21 526.424 683.687C527.098 683.165 527.58 682.433 527.793 681.607" stroke="black" stroke-width="0.5"/>
<path d="M527.793 642.652C527.58 641.827 527.098 641.095 526.424 640.573C525.75 640.05 524.921 639.767 524.068 639.767" stroke="black" stroke-width="0.5"/>
<path d="M524.066 639.767H488.358V642.652" stroke="black" stroke-width="0.5"/>
<path d="M524.066 684.493H488.358V681.607" stroke="black" stroke-width="0.5"/>
<path d="M484.51 681.607V642.652H527.793V681.607H484.51Z" stroke="black" stroke-width="0.5"/>
<path d="M527.793 681.607V642.652H521.902V681.607H527.793ZM521.902 681.607V642.652H484.51V681.607H521.902Z" fill="#D6D6D6"/>
<path d="M527.793 642.652L524.068 639.767H488.359V642.652H527.793ZM524.068 684.493L527.793 681.608H488.359V684.493H524.068Z" fill="#848484"/>
</svg>
