<svg width="794" height="1123" viewBox="0 0 794 1123" fill="none" xmlns="http://www.w3.org/2000/svg">
<g clip-path="url(#clip0_3150_6904)">
<path d="M315.233 912.728H276.277" stroke="black" stroke-width="0.5"/>
<path d="M318.116 910.56C318.116 909.707 317.833 908.879 317.31 908.204C316.788 907.53 316.056 907.048 315.23 906.835" stroke="black" stroke-width="0.5"/>
<path d="M276.276 906.835C275.45 907.048 274.719 907.53 274.196 908.204C273.674 908.879 273.391 909.707 273.391 910.56" stroke="black" stroke-width="0.5"/>
<path d="M273.391 910.561V946.27H276.276" stroke="black" stroke-width="0.5"/>
<path d="M318.116 910.561V946.27H315.23" stroke="black" stroke-width="0.5"/>
<path d="M315.233 950.119H276.277V906.835H315.233V950.119Z" stroke="black" stroke-width="0.5"/>
<path d="M315.233 906.835H276.277V912.727H315.233V906.835ZM315.233 912.727H276.277V950.119H315.233V912.727Z" fill="#D6D6D6"/>
<path d="M276.276 906.835L273.391 910.56V946.27H276.276V906.835ZM318.117 910.56L315.232 906.835V946.27H318.117V910.56Z" fill="#848484"/>
<path d="M262.213 912.728H223.258" stroke="black" stroke-width="0.5"/>
<path d="M265.097 910.56C265.097 909.707 264.813 908.879 264.291 908.204C263.768 907.53 263.037 907.048 262.211 906.835" stroke="black" stroke-width="0.5"/>
<path d="M223.257 906.835C222.431 907.048 221.699 907.53 221.177 908.204C220.655 908.879 220.371 909.707 220.371 910.56" stroke="black" stroke-width="0.5"/>
<path d="M220.371 910.561V946.27H223.257" stroke="black" stroke-width="0.5"/>
<path d="M265.097 910.561V946.27H262.211" stroke="black" stroke-width="0.5"/>
<path d="M262.213 950.119H223.258V906.835H262.213V950.119Z" stroke="black" stroke-width="0.5"/>
<path d="M262.213 906.835H223.258V912.727H262.213V906.835ZM262.213 912.727H223.258V950.119H262.213V912.727Z" fill="#D6D6D6"/>
<path d="M223.257 906.835L220.371 910.56V946.27H223.257V906.835ZM265.098 910.56L262.212 906.835V946.27H265.098V910.56Z" fill="#848484"/>
<path d="M156.182 912.728H117.227" stroke="black" stroke-width="0.5"/>
<path d="M159.065 910.56C159.065 909.707 158.782 908.879 158.26 908.204C157.737 907.53 157.006 907.048 156.18 906.835" stroke="black" stroke-width="0.5"/>
<path d="M117.225 906.835C116.4 907.048 115.668 907.53 115.146 908.204C114.623 908.879 114.34 909.707 114.34 910.56" stroke="black" stroke-width="0.5"/>
<path d="M114.34 910.561V946.27H117.225" stroke="black" stroke-width="0.5"/>
<path d="M159.065 910.561V946.27H156.18" stroke="black" stroke-width="0.5"/>
<path d="M156.182 950.119H117.227V906.835H156.182V950.119Z" stroke="black" stroke-width="0.5"/>
<path d="M156.182 906.835H117.227V912.727H156.182V906.835ZM156.182 912.727H117.227V950.119H156.182V912.727Z" fill="#D6D6D6"/>
<path d="M117.225 906.835L114.34 910.56V946.27H117.225V906.835ZM159.067 910.56L156.181 906.835V946.27H159.067V910.56Z" fill="#848484"/>
<path d="M209.198 912.728H170.242" stroke="black" stroke-width="0.5"/>
<path d="M212.081 910.56C212.081 909.707 211.797 908.879 211.275 908.204C210.753 907.53 210.021 907.048 209.195 906.835" stroke="black" stroke-width="0.5"/>
<path d="M170.241 906.835C169.415 907.048 168.684 907.53 168.161 908.204C167.639 908.879 167.355 909.707 167.355 910.56" stroke="black" stroke-width="0.5"/>
<path d="M167.355 910.561V946.27H170.241" stroke="black" stroke-width="0.5"/>
<path d="M212.081 910.561V946.27H209.195" stroke="black" stroke-width="0.5"/>
<path d="M209.198 950.119H170.242V906.835H209.198V950.119Z" stroke="black" stroke-width="0.5"/>
<path d="M209.198 906.835H170.242V912.727H209.198V906.835ZM209.198 912.727H170.242V950.119H209.198V912.727Z" fill="#D6D6D6"/>
<path d="M170.241 906.835L167.355 910.56V946.27H170.241V906.835ZM212.082 910.56L209.197 906.835V946.27H212.082V910.56Z" fill="#848484"/>
<path d="M276.275 1116.26H315.23" stroke="black" stroke-width="0.5"/>
<path d="M273.392 1118.43C273.392 1119.28 273.675 1120.11 274.198 1120.78C274.72 1121.46 275.451 1121.94 276.277 1122.15" stroke="black" stroke-width="0.5"/>
<path d="M315.232 1122.15C316.057 1121.94 316.789 1121.46 317.311 1120.78C317.834 1120.11 318.117 1119.28 318.117 1118.43" stroke="black" stroke-width="0.5"/>
<path d="M318.117 1118.43V1082.72H315.232" stroke="black" stroke-width="0.5"/>
<path d="M273.392 1118.43V1082.72H276.277" stroke="black" stroke-width="0.5"/>
<path d="M276.275 1078.87H315.23V1122.15H276.275V1078.87Z" stroke="black" stroke-width="0.5"/>
<path d="M276.275 1122.15H315.23V1116.26H276.275V1122.15ZM276.275 1116.26H315.23V1078.87H276.275V1116.26Z" fill="#D6D6D6"/>
<path d="M315.232 1122.15L318.117 1118.43V1082.72H315.232V1122.15ZM273.39 1118.43L276.276 1122.15V1082.72H273.39V1118.43Z" fill="#848484"/>
<path d="M223.255 1116.26H262.211" stroke="black" stroke-width="0.5"/>
<path d="M220.372 1118.43C220.372 1119.28 220.656 1120.11 221.178 1120.78C221.7 1121.46 222.432 1121.94 223.258 1122.15" stroke="black" stroke-width="0.5"/>
<path d="M262.212 1122.15C263.038 1121.94 263.77 1121.46 264.292 1120.78C264.814 1120.11 265.098 1119.28 265.098 1118.43" stroke="black" stroke-width="0.5"/>
<path d="M265.098 1118.43V1082.72H262.212" stroke="black" stroke-width="0.5"/>
<path d="M220.372 1118.43V1082.72H223.258" stroke="black" stroke-width="0.5"/>
<path d="M223.255 1078.87H262.211V1122.15H223.255V1078.87Z" stroke="black" stroke-width="0.5"/>
<path d="M223.255 1122.15H262.211V1116.26H223.255V1122.15ZM223.255 1116.26H262.211V1078.87H223.255V1116.26Z" fill="#D6D6D6"/>
<path d="M262.212 1122.15L265.098 1118.43V1082.72H262.212V1122.15ZM220.371 1118.43L223.257 1122.15V1082.72H220.371V1118.43Z" fill="#848484"/>
<path d="M117.224 1116.26H156.18" stroke="black" stroke-width="0.5"/>
<path d="M114.341 1118.43C114.341 1119.28 114.624 1120.11 115.147 1120.78C115.669 1121.46 116.401 1121.94 117.227 1122.15" stroke="black" stroke-width="0.5"/>
<path d="M156.181 1122.15C157.007 1121.94 157.738 1121.46 158.261 1120.78C158.783 1120.11 159.066 1119.28 159.066 1118.43" stroke="black" stroke-width="0.5"/>
<path d="M159.066 1118.43V1082.72H156.181" stroke="black" stroke-width="0.5"/>
<path d="M114.341 1118.43V1082.72H117.227" stroke="black" stroke-width="0.5"/>
<path d="M117.224 1078.87H156.18V1122.15H117.224V1078.87Z" stroke="black" stroke-width="0.5"/>
<path d="M117.224 1122.15H156.18V1116.26H117.224V1122.15ZM117.224 1116.26H156.18V1078.87H117.224V1116.26Z" fill="#D6D6D6"/>
<path d="M156.181 1122.15L159.066 1118.43V1082.72H156.181V1122.15ZM114.34 1118.43L117.225 1122.15V1082.72H114.34V1118.43Z" fill="#848484"/>
<path d="M170.24 1116.26H209.195" stroke="black" stroke-width="0.5"/>
<path d="M167.357 1118.43C167.357 1119.28 167.64 1120.11 168.162 1120.78C168.685 1121.46 169.416 1121.94 170.242 1122.15" stroke="black" stroke-width="0.5"/>
<path d="M209.196 1122.15C210.022 1121.94 210.754 1121.46 211.276 1120.78C211.799 1120.11 212.082 1119.28 212.082 1118.43" stroke="black" stroke-width="0.5"/>
<path d="M212.082 1118.43V1082.72H209.196" stroke="black" stroke-width="0.5"/>
<path d="M167.357 1118.43V1082.72H170.242" stroke="black" stroke-width="0.5"/>
<path d="M170.24 1078.87H209.195V1122.15H170.24V1078.87Z" stroke="black" stroke-width="0.5"/>
<path d="M170.24 1122.15H209.195V1116.26H170.24V1122.15ZM170.24 1116.26H209.195V1078.87H170.24V1116.26Z" fill="#D6D6D6"/>
<path d="M209.196 1122.15L212.082 1118.43V1082.72H209.196V1122.15ZM167.355 1118.43L170.241 1122.15V1082.72H167.355V1118.43Z" fill="#848484"/>
<path d="M322.26 957.693H216.228V1071.3H322.26V957.693ZM216.228 957.693H110.195V1071.3H216.228V957.693Z" fill="#D6D6D6"/>
<path d="M283.633 1012.03H148.82" stroke="black" stroke-width="0.5" stroke-dasharray="0.24 0.12"/>
<path d="M283.633 1016.95H148.82" stroke="black" stroke-width="0.5" stroke-dasharray="0.24 0.12"/>
<path d="M148.062 1012.03H284.39V1016.96H148.062V1012.03Z" stroke="black" stroke-width="0.5" stroke-dasharray="0.24 0.12"/>
<path d="M140.492 982.8V1046.19H148.066V982.8H140.492Z" stroke="black" stroke-width="0.5" stroke-dasharray="0.24 0.12"/>
<path d="M140.488 1010.7V1018.28" stroke="black" stroke-width="0.5" stroke-dasharray="0.24 0.12"/>
<path d="M291.964 982.8V1046.19H284.391V982.8H291.964Z" stroke="black" stroke-width="0.5" stroke-dasharray="0.24 0.12"/>
<path d="M282.61 975.605H277.309V1012.03H282.61V975.605Z" stroke="black" stroke-width="0.5" stroke-dasharray="0.24 0.12"/>
<path d="M282.61 1053.39H277.309V1016.96H282.61V1053.39Z" stroke="black" stroke-width="0.5" stroke-dasharray="0.24 0.12"/>
<path d="M149.844 975.605H155.145V1012.03H149.844V975.605Z" stroke="black" stroke-width="0.5" stroke-dasharray="0.24 0.12"/>
<path d="M149.844 1053.39H155.145V1016.96H149.844V1053.39Z" stroke="black" stroke-width="0.5" stroke-dasharray="0.24 0.12"/>
<path d="M213.578 975.605H218.88V1012.03H213.578V975.605Z" stroke="black" stroke-width="0.5" stroke-dasharray="0.24 0.12"/>
<path d="M213.578 1053.39H218.88V1016.96H213.578V1053.39Z" stroke="black" stroke-width="0.5" stroke-dasharray="0.24 0.12"/>
<path d="M110.195 1071.3H322.26V957.693H110.195V1071.3Z" stroke="black" stroke-width="0.5" stroke-linecap="round"/>
<path d="M216.227 957.695V1071.29" stroke="black" stroke-width="0.5" stroke-linecap="round"/>
<path d="M368.249 912.728H329.293" stroke="black" stroke-width="0.5"/>
<path d="M371.132 910.56C371.132 909.707 370.848 908.879 370.326 908.204C369.804 907.53 369.072 907.048 368.246 906.835" stroke="black" stroke-width="0.5"/>
<path d="M329.292 906.835C328.466 907.048 327.734 907.53 327.212 908.204C326.69 908.879 326.406 909.707 326.406 910.56" stroke="black" stroke-width="0.5"/>
<path d="M326.406 910.561V946.27H329.292" stroke="black" stroke-width="0.5"/>
<path d="M371.132 910.561V946.27H368.246" stroke="black" stroke-width="0.5"/>
<path d="M368.249 950.119H329.293V906.835H368.249V950.119Z" stroke="black" stroke-width="0.5"/>
<path d="M368.249 906.835H329.293V912.727H368.249V906.835ZM368.249 912.727H329.293V950.119H368.249V912.727Z" fill="#D6D6D6"/>
<path d="M329.292 906.835L326.406 910.56V946.27H329.292V906.835ZM371.133 910.56L368.247 906.835V946.27H371.133V910.56Z" fill="#848484"/>
<path d="M421.264 912.728H382.309" stroke="black" stroke-width="0.5"/>
<path d="M424.147 910.56C424.147 909.707 423.864 908.879 423.342 908.204C422.819 907.53 422.088 907.048 421.262 906.835" stroke="black" stroke-width="0.5"/>
<path d="M382.307 906.835C381.482 907.048 380.75 907.53 380.228 908.204C379.705 908.879 379.422 909.707 379.422 910.56" stroke="black" stroke-width="0.5"/>
<path d="M379.422 910.561V946.27H382.307" stroke="black" stroke-width="0.5"/>
<path d="M424.147 910.561V946.27H421.262" stroke="black" stroke-width="0.5"/>
<path d="M421.264 950.119H382.309V906.835H421.264V950.119Z" stroke="black" stroke-width="0.5"/>
<path d="M421.264 906.835H382.309V912.727H421.264V906.835ZM421.264 912.727H382.309V950.119H421.264V912.727Z" fill="#D6D6D6"/>
<path d="M382.307 906.835L379.422 910.56V946.27H382.307V906.835ZM424.149 910.56L421.263 906.835V946.27H424.149V910.56Z" fill="#848484"/>
<path d="M527.295 912.728H488.34" stroke="black" stroke-width="0.5"/>
<path d="M530.179 910.56C530.179 909.707 529.895 908.879 529.373 908.204C528.85 907.53 528.119 907.048 527.293 906.835" stroke="black" stroke-width="0.5"/>
<path d="M488.339 906.835C487.513 907.048 486.781 907.53 486.259 908.204C485.737 908.879 485.453 909.707 485.453 910.56" stroke="black" stroke-width="0.5"/>
<path d="M485.453 910.561V946.27H488.339" stroke="black" stroke-width="0.5"/>
<path d="M530.179 910.561V946.27H527.293" stroke="black" stroke-width="0.5"/>
<path d="M527.295 950.119H488.34V906.835H527.295V950.119Z" stroke="black" stroke-width="0.5"/>
<path d="M527.295 906.835H488.34V912.727H527.295V906.835ZM527.295 912.727H488.34V950.119H527.295V912.727Z" fill="#D6D6D6"/>
<path d="M488.339 906.835L485.453 910.56V946.27H488.339V906.835ZM530.18 910.56L527.294 906.835V946.27H530.18V910.56Z" fill="#848484"/>
<path d="M474.28 912.728H435.324" stroke="black" stroke-width="0.5"/>
<path d="M477.163 910.56C477.163 909.707 476.879 908.879 476.357 908.204C475.835 907.53 475.103 907.048 474.277 906.835" stroke="black" stroke-width="0.5"/>
<path d="M435.323 906.835C434.497 907.048 433.766 907.53 433.243 908.204C432.721 908.879 432.438 909.707 432.438 910.56" stroke="black" stroke-width="0.5"/>
<path d="M432.438 910.561V946.27H435.323" stroke="black" stroke-width="0.5"/>
<path d="M477.163 910.561V946.27H474.277" stroke="black" stroke-width="0.5"/>
<path d="M474.28 950.119H435.324V906.835H474.28V950.119Z" stroke="black" stroke-width="0.5"/>
<path d="M474.28 906.835H435.324V912.727H474.28V906.835ZM474.28 912.727H435.324V950.119H474.28V912.727Z" fill="#D6D6D6"/>
<path d="M435.323 906.835L432.438 910.56V946.27H435.323V906.835ZM477.164 910.56L474.279 906.835V946.27H477.164V910.56Z" fill="#848484"/>
<path d="M329.29 1116.26H368.246" stroke="black" stroke-width="0.5"/>
<path d="M326.407 1118.43C326.407 1119.28 326.691 1120.11 327.213 1120.78C327.735 1121.46 328.467 1121.94 329.293 1122.15" stroke="black" stroke-width="0.5"/>
<path d="M368.247 1122.15C369.073 1121.94 369.805 1121.46 370.327 1120.78C370.849 1120.11 371.133 1119.28 371.133 1118.43" stroke="black" stroke-width="0.5"/>
<path d="M371.133 1118.43V1082.72H368.247" stroke="black" stroke-width="0.5"/>
<path d="M326.407 1118.43V1082.72H329.293" stroke="black" stroke-width="0.5"/>
<path d="M329.291 1078.87H368.246V1122.15H329.291V1078.87Z" stroke="black" stroke-width="0.5"/>
<path d="M329.291 1122.15H368.246V1116.26H329.291V1122.15ZM329.291 1116.26H368.246V1078.87H329.291V1116.26Z" fill="#D6D6D6"/>
<path d="M368.247 1122.15L371.133 1118.43V1082.72H368.247V1122.15ZM326.406 1118.43L329.292 1122.15V1082.72H326.406V1118.43Z" fill="#848484"/>
<path d="M382.306 1116.26H421.262" stroke="black" stroke-width="0.5"/>
<path d="M379.423 1118.43C379.423 1119.28 379.706 1120.11 380.229 1120.78C380.751 1121.46 381.483 1121.94 382.309 1122.15" stroke="black" stroke-width="0.5"/>
<path d="M421.263 1122.15C422.089 1121.94 422.82 1121.46 423.343 1120.78C423.865 1120.11 424.148 1119.28 424.148 1118.43" stroke="black" stroke-width="0.5"/>
<path d="M424.148 1118.43V1082.72H421.263" stroke="black" stroke-width="0.5"/>
<path d="M379.423 1118.43V1082.72H382.309" stroke="black" stroke-width="0.5"/>
<path d="M382.306 1078.87H421.262V1122.15H382.306V1078.87Z" stroke="black" stroke-width="0.5"/>
<path d="M382.306 1122.15H421.262V1116.26H382.306V1122.15ZM382.306 1116.26H421.262V1078.87H382.306V1116.26Z" fill="#D6D6D6"/>
<path d="M421.263 1122.15L424.148 1118.43V1082.72H421.263V1122.15ZM379.422 1118.43L382.307 1122.15V1082.72H379.422V1118.43Z" fill="#848484"/>
<path d="M488.337 1116.26H527.293" stroke="black" stroke-width="0.5"/>
<path d="M485.454 1118.43C485.454 1119.28 485.738 1120.11 486.26 1120.78C486.782 1121.46 487.514 1121.94 488.34 1122.15" stroke="black" stroke-width="0.5"/>
<path d="M527.294 1122.15C528.12 1121.94 528.852 1121.46 529.374 1120.78C529.896 1120.11 530.18 1119.28 530.18 1118.43" stroke="black" stroke-width="0.5"/>
<path d="M530.18 1118.43V1082.72H527.294" stroke="black" stroke-width="0.5"/>
<path d="M485.454 1118.43V1082.72H488.34" stroke="black" stroke-width="0.5"/>
<path d="M488.337 1078.87H527.293V1122.15H488.337V1078.87Z" stroke="black" stroke-width="0.5"/>
<path d="M488.337 1122.15H527.293V1116.26H488.337V1122.15ZM488.337 1116.26H527.293V1078.87H488.337V1116.26Z" fill="#D6D6D6"/>
<path d="M527.294 1122.15L530.18 1118.43V1082.72H527.294V1122.15ZM485.453 1118.43L488.339 1122.15V1082.72H485.453V1118.43Z" fill="#848484"/>
<path d="M435.322 1116.26H474.277" stroke="black" stroke-width="0.5"/>
<path d="M432.439 1118.43C432.439 1119.28 432.722 1120.11 433.244 1120.78C433.767 1121.46 434.498 1121.94 435.324 1122.15" stroke="black" stroke-width="0.5"/>
<path d="M474.278 1122.15C475.104 1121.94 475.836 1121.46 476.358 1120.78C476.881 1120.11 477.164 1119.28 477.164 1118.43" stroke="black" stroke-width="0.5"/>
<path d="M477.164 1118.43V1082.72H474.278" stroke="black" stroke-width="0.5"/>
<path d="M432.439 1118.43V1082.72H435.324" stroke="black" stroke-width="0.5"/>
<path d="M435.322 1078.87H474.277V1122.15H435.322V1078.87Z" stroke="black" stroke-width="0.5"/>
<path d="M435.322 1122.15H474.277V1116.26H435.322V1122.15ZM435.322 1116.26H474.277V1078.87H435.322V1116.26Z" fill="#D6D6D6"/>
<path d="M474.278 1122.15L477.164 1118.43V1082.72H474.278V1122.15ZM432.437 1118.43L435.323 1122.15V1082.72H432.437V1118.43Z" fill="#848484"/>
<path d="M322.26 957.693H216.228V1071.3H322.26V957.693ZM216.228 957.693H110.195V1071.3H216.228V957.693Z" fill="#D6D6D6"/>
<path d="M283.633 1012.03H148.82" stroke="black" stroke-width="0.5" stroke-dasharray="0.24 0.12"/>
<path d="M283.633 1016.95H148.82" stroke="black" stroke-width="0.5" stroke-dasharray="0.24 0.12"/>
<path d="M148.062 1012.03H284.39V1016.96H148.062V1012.03Z" stroke="black" stroke-width="0.5" stroke-dasharray="0.24 0.12"/>
<path d="M140.492 982.8V1046.19H148.066V982.8H140.492Z" stroke="black" stroke-width="0.5" stroke-dasharray="0.24 0.12"/>
<path d="M140.488 1010.7V1018.28" stroke="black" stroke-width="0.5" stroke-dasharray="0.24 0.12"/>
<path d="M291.964 982.8V1046.19H284.391V982.8H291.964Z" stroke="black" stroke-width="0.5" stroke-dasharray="0.24 0.12"/>
<path d="M282.61 975.605H277.309V1012.03H282.61V975.605Z" stroke="black" stroke-width="0.5" stroke-dasharray="0.24 0.12"/>
<path d="M282.61 1053.39H277.309V1016.96H282.61V1053.39Z" stroke="black" stroke-width="0.5" stroke-dasharray="0.24 0.12"/>
<path d="M149.844 975.605H155.145V1012.03H149.844V975.605Z" stroke="black" stroke-width="0.5" stroke-dasharray="0.24 0.12"/>
<path d="M149.844 1053.39H155.145V1016.96H149.844V1053.39Z" stroke="black" stroke-width="0.5" stroke-dasharray="0.24 0.12"/>
<path d="M213.578 975.605H218.88V1012.03H213.578V975.605Z" stroke="black" stroke-width="0.5" stroke-dasharray="0.24 0.12"/>
<path d="M213.578 1053.39H218.88V1016.96H213.578V1053.39Z" stroke="black" stroke-width="0.5" stroke-dasharray="0.24 0.12"/>
<path d="M110.195 1071.3H322.26V957.693H110.195V1071.3Z" stroke="black" stroke-width="0.5" stroke-linecap="round"/>
<path d="M216.227 957.695V1071.29" stroke="black" stroke-width="0.5" stroke-linecap="round"/>
<path d="M110.194 957.693V1071.3C95.1286 1071.3 80.6805 1065.31 70.0279 1054.66C59.3752 1044.01 53.3906 1029.56 53.3906 1014.5C53.3906 999.431 59.3752 984.983 70.0279 974.33C80.6805 963.678 95.1286 957.693 110.194 957.693Z" fill="#D6D6D6"/>
<path d="M110.194 957.693V1071.3C95.1286 1071.3 80.6805 1065.31 70.0279 1054.66C59.3752 1044.01 53.3906 1029.56 53.3906 1014.5C53.3906 999.431 59.3752 984.983 70.0279 974.33C80.6805 963.678 95.1286 957.693 110.194 957.693Z" stroke="black" stroke-width="0.5"/>
<path d="M8.72126 1035.44L23.6289 1071.43" stroke="black" stroke-width="0.5"/>
<path d="M5.61473 1033.6C4.82669 1033.93 4.16947 1034.51 3.74635 1035.25C3.32324 1035.99 3.1583 1036.85 3.27734 1037.7" stroke="black" stroke-width="0.5"/>
<path d="M18.1848 1073.69C18.6979 1074.37 19.4227 1074.86 20.2456 1075.08C21.0685 1075.31 21.9427 1075.25 22.7307 1074.93" stroke="black" stroke-width="0.5"/>
<path d="M22.7305 1074.93L55.7215 1061.26L54.6172 1058.6" stroke="black" stroke-width="0.5"/>
<path d="M5.61448 1033.6L38.6055 1019.94L39.7098 1022.61" stroke="black" stroke-width="0.5"/>
<path d="M43.269 1021.13L58.1767 1057.12L18.1875 1073.69L3.27987 1037.7L43.269 1021.13Z" stroke="black" stroke-width="0.5"/>
<path d="M3.27987 1037.7L18.1875 1073.69L23.6304 1071.43L8.72278 1035.44L3.27987 1037.7ZM8.72278 1035.44L23.6304 1071.43L58.1767 1057.12L43.269 1021.13L8.72278 1035.44Z" fill="#D6D6D6"/>
<path d="M18.1848 1073.69L22.7307 1074.93L55.7218 1061.26L54.6175 1058.6L18.1848 1073.69ZM5.61455 1033.6L3.27716 1037.7L39.7099 1022.61L38.6056 1019.94L5.61455 1033.6Z" fill="#848484"/>
<path d="M53.2558 1101.07L89.2461 1115.97" stroke="black" stroke-width="0.5"/>
<path d="M49.7596 1101.96C49.4332 1102.75 49.3779 1103.63 49.6024 1104.45C49.827 1105.27 50.3186 1106 51 1106.51" stroke="black" stroke-width="0.5"/>
<path d="M86.9903 1121.42C87.8349 1121.54 88.6951 1121.37 89.4358 1120.95C90.1764 1120.52 90.7554 1119.87 91.0818 1119.08" stroke="black" stroke-width="0.5"/>
<path d="M91.082 1119.08L104.747 1086.09L102.081 1084.98" stroke="black" stroke-width="0.5"/>
<path d="M49.7598 1101.96L63.4252 1068.97L66.0911 1070.08" stroke="black" stroke-width="0.5"/>
<path d="M67.566 1066.52L103.556 1081.43L86.9922 1121.42L51.0019 1106.51L67.566 1066.52Z" stroke="black" stroke-width="0.5"/>
<path d="M51.0019 1106.51L86.9922 1121.42L89.2467 1115.97L53.2564 1101.07L51.0019 1106.51ZM53.2564 1101.07L89.2467 1115.97L103.556 1081.43L67.566 1066.52L53.2564 1101.07Z" fill="#D6D6D6"/>
<path d="M86.9903 1121.42L91.0818 1119.08L104.747 1086.09L102.081 1084.98L86.9903 1121.42ZM49.7597 1101.96L51 1106.51L66.0909 1070.08L63.425 1068.97L49.7597 1101.96Z" fill="#848484"/>
<path d="M89.2442 913.021L53.2539 927.928" stroke="black" stroke-width="0.5"/>
<path d="M91.0798 909.914C90.7534 909.126 90.1744 908.469 89.4337 908.046C88.6931 907.623 87.8329 907.458 86.9883 907.577" stroke="black" stroke-width="0.5"/>
<path d="M50.998 922.484C50.3166 922.997 49.8249 923.722 49.6004 924.545C49.3759 925.368 49.4312 926.242 49.7576 927.03" stroke="black" stroke-width="0.5"/>
<path d="M49.7578 927.03L63.4231 960.021L66.0891 958.917" stroke="black" stroke-width="0.5"/>
<path d="M91.08 909.914L104.745 942.905L102.079 944.009" stroke="black" stroke-width="0.5"/>
<path d="M103.554 947.566L67.564 962.474L51 922.484L86.9903 907.577L103.554 947.566Z" stroke="black" stroke-width="0.5"/>
<path d="M86.9903 907.577L51 922.484L53.2545 927.927L89.2448 913.02L86.9903 907.577ZM89.2448 913.02L53.2545 927.927L67.564 962.474L103.554 947.566L89.2448 913.02Z" fill="#D6D6D6"/>
<path d="M50.998 922.484L49.7576 927.03L63.4229 960.021L66.0889 958.917L50.998 922.484ZM91.0798 909.914L86.9882 907.577L102.079 944.009L104.745 942.905L91.0798 909.914Z" fill="#848484"/>
<path d="M23.6264 957.556L8.71875 993.546" stroke="black" stroke-width="0.5"/>
<path d="M22.7295 954.06C21.9415 953.734 21.0673 953.678 20.2444 953.903C19.4215 954.127 18.6967 954.619 18.1836 955.301" stroke="black" stroke-width="0.5"/>
<path d="M3.27614 991.291C3.1571 992.135 3.32204 992.996 3.74515 993.736C4.16826 994.477 4.82549 995.056 5.61353 995.382" stroke="black" stroke-width="0.5"/>
<path d="M5.61328 995.382L38.6043 1009.05L39.7086 1006.38" stroke="black" stroke-width="0.5"/>
<path d="M22.7293 954.06L55.7203 967.725L54.616 970.391" stroke="black" stroke-width="0.5"/>
<path d="M58.1741 971.865L43.2665 1007.85L3.27734 991.291L18.185 955.301L58.1741 971.865Z" stroke="black" stroke-width="0.5"/>
<path d="M18.185 955.301L3.27734 991.291L8.72025 993.545L23.6279 957.555L18.185 955.301ZM23.6279 957.555L8.72025 993.545L43.2665 1007.85L58.1741 971.865L23.6279 957.555Z" fill="#D6D6D6"/>
<path d="M3.27614 991.291L5.61353 995.382L38.6046 1009.05L39.7088 1006.38L3.27614 991.291ZM22.7297 954.06L18.1838 955.301L54.6165 970.391L55.7207 967.726L22.7297 954.06Z" fill="#848484"/>
<path d="M534.327 957.693V1071.3C519.261 1071.3 504.813 1065.31 494.161 1054.66C483.508 1044.01 477.523 1029.56 477.523 1014.5C477.523 999.431 483.508 984.983 494.161 974.33C504.813 963.678 519.261 957.693 534.327 957.693Z" fill="#D6D6D6"/>
<path d="M534.327 957.693V1071.3C519.261 1071.3 504.813 1065.31 494.161 1054.66C483.508 1044.01 477.523 1029.56 477.523 1014.5C477.523 999.431 483.508 984.983 494.161 974.33C504.813 963.678 519.261 957.693 534.327 957.693Z" stroke="black" stroke-width="0.5"/>
<path d="M620.897 1071.44L635.805 1035.44" stroke="black" stroke-width="0.5"/>
<path d="M621.794 1074.93C622.582 1075.26 623.456 1075.31 624.279 1075.09C625.102 1074.86 625.827 1074.37 626.34 1073.69" stroke="black" stroke-width="0.5"/>
<path d="M641.247 1037.7C641.366 1036.86 641.201 1036 640.778 1035.25C640.355 1034.51 639.698 1033.93 638.91 1033.61" stroke="black" stroke-width="0.5"/>
<path d="M638.91 1033.61L605.919 1019.94L604.815 1022.61" stroke="black" stroke-width="0.5"/>
<path d="M621.794 1074.93L588.803 1061.27L589.907 1058.6" stroke="black" stroke-width="0.5"/>
<path d="M586.349 1057.13L601.257 1021.14L641.246 1037.7L626.338 1073.69L586.349 1057.13Z" stroke="black" stroke-width="0.5"/>
<path d="M626.338 1073.69L641.246 1037.7L635.803 1035.45L620.896 1071.44L626.338 1073.69ZM620.896 1071.44L635.803 1035.45L601.257 1021.14L586.349 1057.13L620.896 1071.44Z" fill="#D6D6D6"/>
<path d="M641.247 1037.7L638.91 1033.61L605.919 1019.94L604.815 1022.61L641.247 1037.7ZM621.794 1074.93L626.34 1073.69L589.907 1058.6L588.803 1061.27L621.794 1074.93Z" fill="#848484"/>
<path d="M555.275 1115.97L591.266 1101.06" stroke="black" stroke-width="0.5"/>
<path d="M553.44 1119.07C553.766 1119.86 554.345 1120.52 555.086 1120.94C555.826 1121.37 556.687 1121.53 557.531 1121.41" stroke="black" stroke-width="0.5"/>
<path d="M593.522 1106.5C594.203 1105.99 594.695 1105.27 594.919 1104.44C595.144 1103.62 595.088 1102.75 594.762 1101.96" stroke="black" stroke-width="0.5"/>
<path d="M594.762 1101.96L581.096 1068.97L578.43 1070.07" stroke="black" stroke-width="0.5"/>
<path d="M553.44 1119.07L539.774 1086.08L542.44 1084.98" stroke="black" stroke-width="0.5"/>
<path d="M540.965 1081.42L576.956 1066.52L593.52 1106.5L557.529 1121.41L540.965 1081.42Z" stroke="black" stroke-width="0.5"/>
<path d="M557.529 1121.41L593.52 1106.5L591.265 1101.06L555.275 1115.97L557.529 1121.41ZM555.275 1115.97L591.265 1101.06L576.956 1066.52L540.965 1081.42L555.275 1115.97Z" fill="#D6D6D6"/>
<path d="M593.522 1106.5L594.762 1101.96L581.097 1068.97L578.431 1070.07L593.522 1106.5ZM553.44 1119.07L557.531 1121.41L542.44 1084.98L539.774 1086.08L553.44 1119.07Z" fill="#848484"/>
<path d="M591.264 927.929L555.273 913.021" stroke="black" stroke-width="0.5"/>
<path d="M594.76 927.031C595.086 926.243 595.142 925.368 594.917 924.545C594.693 923.723 594.201 922.998 593.52 922.485" stroke="black" stroke-width="0.5"/>
<path d="M557.529 907.577C556.685 907.458 555.824 907.623 555.084 908.046C554.343 908.469 553.764 909.126 553.438 909.914" stroke="black" stroke-width="0.5"/>
<path d="M553.438 909.914L539.772 942.905L542.438 944.01" stroke="black" stroke-width="0.5"/>
<path d="M594.76 927.031L581.094 960.022L578.428 958.917" stroke="black" stroke-width="0.5"/>
<path d="M576.954 962.474L540.963 947.566L557.527 907.577L593.518 922.485L576.954 962.474Z" stroke="black" stroke-width="0.5"/>
<path d="M593.518 922.485L557.527 907.577L555.273 913.02L591.263 927.927L593.518 922.485ZM591.263 927.927L555.273 913.02L540.963 947.566L576.954 962.474L591.263 927.927Z" fill="#D6D6D6"/>
<path d="M557.529 907.577L553.438 909.914L539.772 942.905L542.438 944.01L557.529 907.577ZM594.76 927.03L593.519 922.485L578.429 958.917L581.095 960.022L594.76 927.03Z" fill="#848484"/>
<path d="M635.798 993.545L620.891 957.555" stroke="black" stroke-width="0.5"/>
<path d="M638.905 995.382C639.693 995.056 640.35 994.477 640.773 993.736C641.196 992.995 641.361 992.135 641.242 991.291" stroke="black" stroke-width="0.5"/>
<path d="M626.335 955.3C625.822 954.619 625.097 954.127 624.274 953.903C623.451 953.678 622.577 953.733 621.789 954.06" stroke="black" stroke-width="0.5"/>
<path d="M621.789 954.06L588.798 967.725L589.902 970.391" stroke="black" stroke-width="0.5"/>
<path d="M638.905 995.382L605.914 1009.05L604.81 1006.38" stroke="black" stroke-width="0.5"/>
<path d="M601.251 1007.85L586.343 971.864L626.332 955.3L641.24 991.29L601.251 1007.85Z" stroke="black" stroke-width="0.5"/>
<path d="M641.24 991.29L626.332 955.3L620.889 957.555L635.797 993.545L641.24 991.29ZM635.797 993.545L620.889 957.555L586.343 971.864L601.251 1007.85L635.797 993.545Z" fill="#D6D6D6"/>
<path d="M626.335 955.3L621.789 954.06L588.798 967.725L589.902 970.391L626.335 955.3ZM638.905 995.382L641.242 991.29L604.81 1006.38L605.914 1009.05L638.905 995.382Z" fill="#848484"/>
</g>
<defs>
<clipPath id="clip0_3150_6904">
<rect width="793.701" height="1122.52" fill="white"/>
</clipPath>
</defs>
</svg>
