<svg width="794" height="1123" viewBox="0 0 794 1123" fill="none" xmlns="http://www.w3.org/2000/svg">
<g clip-path="url(#clip0_3150_264)">
<path d="M27.9752 850.68L47.6211 898.11" stroke="black" stroke-width="0.5"/>
<path d="M23.8852 848.259C22.8466 848.689 21.9805 849.452 21.4229 850.428C20.8653 851.404 20.6478 852.538 20.8047 853.651" stroke="black" stroke-width="0.5"/>
<path d="M40.4471 901.08C41.1232 901.978 42.0786 902.626 43.1631 902.922C44.2475 903.218 45.3996 903.145 46.4381 902.715" stroke="black" stroke-width="0.5"/>
<path d="M46.4414 902.715L89.9184 884.706L88.4631 881.193" stroke="black" stroke-width="0.5"/>
<path d="M23.8846 848.259L67.3615 830.25L68.8168 833.763" stroke="black" stroke-width="0.5"/>
<path d="M73.5027 831.822L93.1486 879.251L40.4492 901.08L20.8033 853.651L73.5027 831.822Z" stroke="black" stroke-width="0.5"/>
<path d="M20.8033 853.651L40.4492 901.08L47.6223 898.109L27.9764 850.68L20.8033 853.651ZM27.9764 850.68L47.6223 898.109L93.1486 879.251L73.5027 831.822L27.9764 850.68Z" fill="#D6D6D6"/>
<path d="M40.4471 901.08L46.4381 902.715L89.915 884.706L88.4598 881.193L40.4471 901.08ZM23.8817 848.259L20.8012 853.651L68.8139 833.764L67.3586 830.25L23.8817 848.259Z" fill="#848484"/>
<path d="M72.9003 941.896L104.152 982.624" stroke="black" stroke-width="0.5"/>
<path d="M68.3221 940.615C67.4303 941.299 66.7912 942.261 66.5052 943.348C66.2192 944.435 66.3026 945.586 66.7422 946.621" stroke="black" stroke-width="0.5"/>
<path d="M97.9936 987.349C98.8791 988.042 99.9697 988.42 101.094 988.425C102.218 988.43 103.312 988.062 104.203 987.378" stroke="black" stroke-width="0.5"/>
<path d="M104.203 987.377L141.538 958.73L139.223 955.713" stroke="black" stroke-width="0.5"/>
<path d="M68.3217 940.615L105.656 911.967L107.971 914.984" stroke="black" stroke-width="0.5"/>
<path d="M111.998 911.896L143.25 952.625L97.9961 987.349L66.744 946.621L111.998 911.896Z" stroke="black" stroke-width="0.5"/>
<path d="M66.744 946.621L97.9961 987.349L104.156 982.623L72.9036 941.894L66.744 946.621ZM72.9036 941.894L104.156 982.623L143.25 952.625L111.998 911.896L72.9036 941.894Z" fill="#D6D6D6"/>
<path d="M97.9936 987.349L104.203 987.378L141.538 958.73L139.223 955.713L97.9936 987.349ZM68.3215 940.615L66.7415 946.621L107.971 914.984L105.656 911.967L68.3215 940.615Z" fill="#848484"/>
<path d="M8.18979 750.947L14.8906 801.845" stroke="black" stroke-width="0.5"/>
<path d="M4.86716 747.548C3.7527 747.695 2.71855 748.208 1.92735 749.007C1.13614 749.805 0.632646 750.844 0.496094 751.959" stroke="black" stroke-width="0.5"/>
<path d="M7.19505 802.858C7.61572 803.9 8.37091 804.773 9.34181 805.34C10.3127 805.906 11.4444 806.134 12.5588 805.987" stroke="black" stroke-width="0.5"/>
<path d="M12.5586 805.987L59.2151 799.845L58.7187 796.075" stroke="black" stroke-width="0.5"/>
<path d="M4.86692 747.549L51.5234 741.406L52.0198 745.176" stroke="black" stroke-width="0.5"/>
<path d="M57.0479 744.515L63.7487 795.413L7.19531 802.858L0.494473 751.96L57.0479 744.515Z" stroke="black" stroke-width="0.5"/>
<path d="M0.494473 751.96L7.19531 802.858L14.8929 801.845L8.19209 750.946L0.494473 751.96ZM8.19209 750.946L14.8929 801.845L63.7487 795.413L57.0479 744.515L8.19209 750.946Z" fill="#D6D6D6"/>
<path d="M7.19505 802.858L12.5588 805.987L59.2153 799.845L58.719 796.074L7.19505 802.858ZM4.86527 747.549L0.494208 751.96L52.0181 745.176L51.5218 741.406L4.86527 747.549Z" fill="#848484"/>
<path d="M220.406 902.108L163.945 958.569" stroke="black" stroke-width="0.5"/>
<path d="M147.322 725.668L67.4745 725.667" stroke="black" stroke-width="0.5"/>
<path d="M163.944 958.569L220.405 902.108C173.61 855.313 147.321 791.846 147.321 725.668L67.4735 725.668C67.4735 768.921 75.9929 811.752 92.5454 851.713C109.098 891.674 133.359 927.984 163.944 958.569Z" fill="#D9D9D9"/>
<path d="M220.406 902.108L163.945 958.569C133.36 927.984 109.098 891.675 92.5458 851.713C75.9933 811.752 67.4739 768.922 67.4739 725.668L147.322 725.668C147.322 758.436 153.776 790.883 166.316 821.157C178.855 851.431 197.235 878.938 220.406 902.108Z" stroke="black" stroke-width="0.5"/>
<path d="M224.41 1074.9L271.84 1094.54" stroke="black" stroke-width="0.5"/>
<path d="M219.807 1076.08C219.377 1077.12 219.304 1078.27 219.6 1079.35C219.896 1080.44 220.543 1081.39 221.441 1082.07" stroke="black" stroke-width="0.5"/>
<path d="M268.87 1101.72C269.983 1101.87 271.116 1101.66 272.092 1101.1C273.068 1100.54 273.831 1099.67 274.262 1098.64" stroke="black" stroke-width="0.5"/>
<path d="M274.262 1098.64L292.27 1055.16L288.757 1053.7" stroke="black" stroke-width="0.5"/>
<path d="M219.807 1076.08L237.816 1032.6L241.329 1034.06" stroke="black" stroke-width="0.5"/>
<path d="M243.27 1029.37L290.7 1049.02L268.871 1101.72L221.442 1082.07L243.27 1029.37Z" stroke="black" stroke-width="0.5"/>
<path d="M221.442 1082.07L268.871 1101.72L271.842 1094.54L224.413 1074.9L221.442 1082.07ZM224.413 1074.9L271.842 1094.54L290.7 1049.02L243.27 1029.37L224.413 1074.9Z" fill="#D6D6D6"/>
<path d="M268.87 1101.72L274.262 1098.64L292.27 1055.16L288.757 1053.7L268.87 1101.72ZM219.806 1076.08L221.44 1082.07L241.328 1034.06L237.814 1032.6L219.806 1076.08Z" fill="#848484"/>
<path d="M320.672 1107.63L371.57 1114.33" stroke="black" stroke-width="0.5"/>
<path d="M316.531 1109.96C316.384 1111.08 316.612 1112.21 317.178 1113.18C317.745 1114.15 318.618 1114.91 319.66 1115.33" stroke="black" stroke-width="0.5"/>
<path d="M370.558 1122.03C371.674 1121.89 372.712 1121.39 373.511 1120.6C374.309 1119.8 374.822 1118.77 374.969 1117.66" stroke="black" stroke-width="0.5"/>
<path d="M374.969 1117.66L381.111 1071L377.341 1070.5" stroke="black" stroke-width="0.5"/>
<path d="M316.531 1109.96L322.673 1063.31L326.443 1063.8" stroke="black" stroke-width="0.5"/>
<path d="M327.106 1058.77L378.004 1065.47L370.559 1122.03L319.661 1115.33L327.106 1058.77Z" stroke="black" stroke-width="0.5"/>
<path d="M319.661 1115.33L370.559 1122.03L371.572 1114.33L320.674 1107.63L319.661 1115.33ZM320.674 1107.63L371.572 1114.33L378.004 1065.47L327.106 1058.77L320.674 1107.63Z" fill="#D6D6D6"/>
<path d="M370.558 1122.03L374.969 1117.66L381.111 1071L377.341 1070.5L370.558 1122.03ZM316.53 1109.96L319.66 1115.33L326.443 1063.8L322.673 1063.31L316.53 1109.96Z" fill="#848484"/>
<path d="M139.896 1018.37L180.625 1049.62" stroke="black" stroke-width="0.5"/>
<path d="M135.144 1018.32C134.459 1019.21 134.091 1020.31 134.096 1021.43C134.101 1022.55 134.479 1023.64 135.172 1024.53" stroke="black" stroke-width="0.5"/>
<path d="M175.901 1055.78C176.936 1056.22 178.087 1056.3 179.174 1056.02C180.261 1055.73 181.222 1055.09 181.907 1054.2" stroke="black" stroke-width="0.5"/>
<path d="M181.906 1054.2L210.554 1016.87L207.537 1014.55" stroke="black" stroke-width="0.5"/>
<path d="M135.143 1018.32L163.791 980.985L166.808 983.3" stroke="black" stroke-width="0.5"/>
<path d="M169.898 979.276L210.627 1010.53L175.902 1055.78L135.174 1024.53L169.898 979.276Z" stroke="black" stroke-width="0.5"/>
<path d="M135.174 1024.53L175.902 1055.78L180.629 1049.62L139.9 1018.37L135.174 1024.53ZM139.9 1018.37L180.629 1049.62L210.627 1010.53L169.898 979.276L139.9 1018.37Z" fill="#D6D6D6"/>
<path d="M175.901 1055.78L181.907 1054.2L210.554 1016.87L207.537 1014.55L175.901 1055.78ZM135.144 1018.32L135.173 1024.53L166.809 983.3L163.792 980.985L135.144 1018.32Z" fill="#848484"/>
<path d="M396.848 975.198L396.848 1055.05" stroke="black" stroke-width="0.5"/>
<path d="M220.406 902.114L163.945 958.575" stroke="black" stroke-width="0.5"/>
<path d="M396.848 1055.05L396.848 975.198C330.67 975.198 267.202 948.909 220.407 902.114L163.946 958.575C194.531 989.16 230.841 1013.42 270.802 1029.97C310.764 1046.53 353.594 1055.05 396.848 1055.05Z" fill="#D9D9D9"/>
<path d="M396.848 975.198L396.849 1055.05C353.595 1055.05 310.764 1046.53 270.803 1029.97C230.842 1013.42 194.532 989.16 163.947 958.575L220.408 902.114C243.578 925.285 271.086 943.664 301.36 956.204C331.633 968.744 364.08 975.198 396.848 975.198Z" stroke="black" stroke-width="0.5"/>
<path d="M521.856 1094.54L569.285 1074.9" stroke="black" stroke-width="0.5"/>
<path d="M519.436 1098.64C519.866 1099.67 520.629 1100.54 521.605 1101.1C522.581 1101.66 523.715 1101.87 524.828 1101.72" stroke="black" stroke-width="0.5"/>
<path d="M572.256 1082.07C573.154 1081.39 573.802 1080.44 574.098 1079.35C574.394 1078.27 574.321 1077.12 573.891 1076.08" stroke="black" stroke-width="0.5"/>
<path d="M573.891 1076.08L555.882 1032.6L552.369 1034.06" stroke="black" stroke-width="0.5"/>
<path d="M519.436 1098.64L501.427 1055.16L504.941 1053.7" stroke="black" stroke-width="0.5"/>
<path d="M503 1049.02L550.429 1029.37L572.258 1082.07L524.828 1101.72L503 1049.02Z" stroke="black" stroke-width="0.5"/>
<path d="M524.828 1101.72L572.258 1082.07L569.287 1074.9L521.857 1094.54L524.828 1101.72ZM521.857 1094.54L569.287 1074.9L550.429 1029.37L503 1049.02L521.857 1094.54Z" fill="#D6D6D6"/>
<path d="M572.256 1082.07L573.891 1076.08L555.882 1032.6L552.369 1034.06L572.256 1082.07ZM519.435 1098.64L524.827 1101.72L504.939 1053.7L501.426 1055.16L519.435 1098.64Z" fill="#848484"/>
<path d="M613.072 1049.62L653.801 1018.37" stroke="black" stroke-width="0.5"/>
<path d="M611.791 1054.2C612.476 1055.09 613.437 1055.73 614.524 1056.02C615.611 1056.3 616.762 1056.22 617.797 1055.78" stroke="black" stroke-width="0.5"/>
<path d="M658.526 1024.53C659.218 1023.64 659.597 1022.55 659.602 1021.43C659.607 1020.3 659.239 1019.21 658.554 1018.32" stroke="black" stroke-width="0.5"/>
<path d="M658.555 1018.32L629.907 980.982L626.89 983.297" stroke="black" stroke-width="0.5"/>
<path d="M611.792 1054.2L583.144 1016.86L586.161 1014.55" stroke="black" stroke-width="0.5"/>
<path d="M583.07 1010.52L623.799 979.272L658.523 1024.53L617.795 1055.78L583.07 1010.52Z" stroke="black" stroke-width="0.5"/>
<path d="M617.795 1055.78L658.523 1024.53L653.797 1018.37L613.068 1049.62L617.795 1055.78ZM613.068 1049.62L653.797 1018.37L623.799 979.272L583.07 1010.52L613.068 1049.62Z" fill="#D6D6D6"/>
<path d="M658.526 1024.53L658.554 1018.32L629.907 980.982L626.89 983.297L658.526 1024.53ZM611.792 1054.2L617.798 1055.78L586.161 1014.55L583.144 1016.86L611.792 1054.2Z" fill="#848484"/>
<path d="M422.125 1114.33L473.023 1107.63" stroke="black" stroke-width="0.5"/>
<path d="M418.73 1117.65C418.876 1118.77 419.389 1119.8 420.188 1120.59C420.986 1121.38 422.025 1121.89 423.141 1122.02" stroke="black" stroke-width="0.5"/>
<path d="M474.038 1115.32C475.081 1114.9 475.954 1114.15 476.52 1113.17C477.087 1112.2 477.315 1111.07 477.168 1109.96" stroke="black" stroke-width="0.5"/>
<path d="M477.168 1109.96L471.026 1063.3L467.255 1063.8" stroke="black" stroke-width="0.5"/>
<path d="M418.73 1117.65L412.587 1070.99L416.358 1070.5" stroke="black" stroke-width="0.5"/>
<path d="M415.696 1065.47L466.594 1058.77L474.039 1115.32L423.141 1122.02L415.696 1065.47Z" stroke="black" stroke-width="0.5"/>
<path d="M423.141 1122.02L474.039 1115.32L473.026 1107.62L422.128 1114.32L423.141 1122.02ZM422.128 1114.32L473.026 1107.62L466.594 1058.77L415.696 1065.47L422.128 1114.32Z" fill="#D6D6D6"/>
<path d="M474.038 1115.32L477.168 1109.96L471.025 1063.3L467.255 1063.8L474.038 1115.32ZM418.729 1117.65L423.14 1122.02L416.357 1070.5L412.587 1070.99L418.729 1117.65Z" fill="#848484"/>
<path d="M573.289 902.114L629.75 958.575" stroke="black" stroke-width="0.5"/>
<path d="M396.848 975.198L396.848 1055.05" stroke="black" stroke-width="0.5"/>
<path d="M629.749 958.575L573.288 902.114C526.493 948.909 463.026 975.198 396.848 975.198L396.847 1055.05C440.101 1055.05 482.932 1046.53 522.893 1029.97C562.854 1013.42 599.164 989.16 629.749 958.575Z" fill="#D9D9D9"/>
<path d="M573.288 902.114L629.749 958.575C599.164 989.16 562.854 1013.42 522.893 1029.97C482.932 1046.53 440.101 1055.05 396.847 1055.05L396.848 975.198C429.616 975.198 462.063 968.744 492.336 956.204C522.61 943.664 550.118 925.284 573.288 902.114Z" stroke="black" stroke-width="0.5"/>
<path d="M746.077 898.113L765.723 850.683" stroke="black" stroke-width="0.5"/>
<path d="M747.255 902.717C748.294 903.147 749.446 903.22 750.53 902.924C751.615 902.628 752.57 901.981 753.246 901.083" stroke="black" stroke-width="0.5"/>
<path d="M772.892 853.653C773.049 852.54 772.832 851.407 772.274 850.431C771.717 849.455 770.85 848.692 769.812 848.261" stroke="black" stroke-width="0.5"/>
<path d="M769.812 848.261L726.336 830.253L724.88 833.766" stroke="black" stroke-width="0.5"/>
<path d="M747.256 902.717L703.779 884.709L705.234 881.195" stroke="black" stroke-width="0.5"/>
<path d="M700.545 879.254L720.191 831.825L772.891 853.653L753.245 901.083L700.545 879.254Z" stroke="black" stroke-width="0.5"/>
<path d="M753.245 901.083L772.891 853.653L765.718 850.682L746.072 898.112L753.245 901.083ZM746.072 898.112L765.718 850.682L720.191 831.825L700.545 879.254L746.072 898.112Z" fill="#D6D6D6"/>
<path d="M772.892 853.653L769.812 848.261L726.335 830.253L724.88 833.766L772.892 853.653ZM747.256 902.717L753.247 901.083L705.234 881.195L703.779 884.709L747.256 902.717Z" fill="#848484"/>
<path d="M778.807 801.845L785.508 750.947" stroke="black" stroke-width="0.5"/>
<path d="M781.14 805.988C782.255 806.135 783.386 805.907 784.357 805.34C785.328 804.774 786.083 803.901 786.504 802.858" stroke="black" stroke-width="0.5"/>
<path d="M793.207 751.961C793.07 750.845 792.567 749.806 791.776 749.008C790.984 748.209 789.95 747.696 788.836 747.55" stroke="black" stroke-width="0.5"/>
<path d="M788.832 747.549L742.176 741.407L741.679 745.177" stroke="black" stroke-width="0.5"/>
<path d="M781.14 805.988L734.484 799.846L734.98 796.075" stroke="black" stroke-width="0.5"/>
<path d="M729.949 795.413L736.65 744.515L793.203 751.96L786.502 802.858L729.949 795.413Z" stroke="black" stroke-width="0.5"/>
<path d="M786.502 802.858L793.203 751.96L785.506 750.947L778.805 801.845L786.502 802.858ZM778.805 801.845L785.506 750.947L736.65 744.515L729.949 795.413L778.805 801.845Z" fill="#D6D6D6"/>
<path d="M793.207 751.961L788.836 747.55L742.179 741.407L741.683 745.177L793.207 751.961ZM781.142 805.988L786.506 802.859L734.982 796.075L734.486 799.846L781.142 805.988Z" fill="#848484"/>
<path d="M689.549 982.621L720.801 941.893" stroke="black" stroke-width="0.5"/>
<path d="M689.497 987.374C690.389 988.059 691.483 988.427 692.607 988.422C693.731 988.417 694.822 988.039 695.707 987.346" stroke="black" stroke-width="0.5"/>
<path d="M726.958 946.618C727.398 945.583 727.481 944.432 727.195 943.345C726.909 942.258 726.27 941.297 725.379 940.612" stroke="black" stroke-width="0.5"/>
<path d="M725.379 940.612L688.044 911.965L685.729 914.981" stroke="black" stroke-width="0.5"/>
<path d="M689.498 987.375L652.163 958.727L654.478 955.71" stroke="black" stroke-width="0.5"/>
<path d="M650.451 952.622L681.703 911.893L726.957 946.618L695.705 987.346L650.451 952.622Z" stroke="black" stroke-width="0.5"/>
<path d="M695.705 987.346L726.957 946.618L720.797 941.891L689.545 982.62L695.705 987.346ZM689.545 982.62L720.797 941.891L681.703 911.893L650.451 952.622L689.545 982.62Z" fill="#D6D6D6"/>
<path d="M726.958 946.618L725.379 940.612L688.044 911.965L685.729 914.982L726.958 946.618ZM689.497 987.375L695.706 987.347L654.477 955.71L652.162 958.727L689.497 987.375Z" fill="#848484"/>
<path d="M646.375 725.67L726.223 725.67" stroke="black" stroke-width="0.5"/>
<path d="M573.291 902.111L629.752 958.572" stroke="black" stroke-width="0.5"/>
<path d="M726.223 725.671L646.375 725.671C646.375 791.849 620.086 855.316 573.291 902.111L629.752 958.572C660.337 927.987 684.599 891.677 701.151 851.716C717.704 811.755 726.223 768.924 726.223 725.671Z" fill="#D9D9D9"/>
<path d="M646.375 725.671L726.223 725.671C726.223 768.924 717.704 811.755 701.151 851.716C684.599 891.677 660.337 927.987 629.752 958.572L573.291 902.111C596.462 878.941 614.842 851.433 627.381 821.16C639.921 790.886 646.375 758.439 646.375 725.671Z" stroke="black" stroke-width="0.5"/>
</g>
<defs>
<clipPath id="clip0_3150_264">
<rect width="793.701" height="1122.52" fill="white"/>
</clipPath>
</defs>
</svg>
