<svg width="794" height="1123" viewBox="0 0 794 1123" fill="none" xmlns="http://www.w3.org/2000/svg">
<path d="M4.84167 1115.53H43.7969" stroke="black" stroke-width="0.5"/>
<path d="M1.95819 1117.7C1.95819 1118.55 2.24162 1119.38 2.76395 1120.05C3.28628 1120.73 4.01788 1121.21 4.84375 1121.42" stroke="black" stroke-width="0.5"/>
<path d="M43.798 1121.42C44.6239 1121.21 45.3555 1120.73 45.8778 1120.05C46.4002 1119.38 46.6836 1118.55 46.6836 1117.7" stroke="black" stroke-width="0.5"/>
<path d="M46.6836 1117.7L46.6836 1081.99H43.798" stroke="black" stroke-width="0.5"/>
<path d="M1.95819 1117.7L1.95819 1081.99H4.84375" stroke="black" stroke-width="0.5"/>
<path d="M4.84175 1078.14H43.7969L43.7969 1121.42H4.84175L4.84175 1078.14Z" stroke="black" stroke-width="0.5"/>
<path d="M4.84175 1121.42H43.7969V1115.53H4.84175V1121.42ZM4.84175 1115.53H43.7969L43.7969 1078.14H4.84175L4.84175 1115.53Z" fill="#D6D6D6"/>
<path d="M43.798 1121.42L46.6836 1117.7L46.6836 1081.99H43.798L43.798 1121.42ZM1.95734 1117.7L4.84291 1121.42L4.84291 1081.99H1.95734L1.95734 1117.7Z" fill="#848484"/>
<path d="M4.84167 1039.8H43.7969" stroke="black" stroke-width="0.5"/>
<path d="M1.95819 1041.97C1.95819 1042.82 2.24162 1043.65 2.76395 1044.32C3.28628 1045 4.01788 1045.48 4.84375 1045.69" stroke="black" stroke-width="0.5"/>
<path d="M43.798 1045.69C44.6239 1045.48 45.3555 1045 45.8778 1044.32C46.4002 1043.65 46.6836 1042.82 46.6836 1041.97" stroke="black" stroke-width="0.5"/>
<path d="M46.6836 1041.97L46.6836 1006.26H43.798" stroke="black" stroke-width="0.5"/>
<path d="M1.95819 1041.97L1.95819 1006.26H4.84375" stroke="black" stroke-width="0.5"/>
<path d="M4.84175 1002.41H43.7969L43.7969 1045.69H4.84175L4.84175 1002.41Z" stroke="black" stroke-width="0.5"/>
<path d="M4.84175 1045.69H43.7969V1039.8H4.84175V1045.69ZM4.84175 1039.8H43.7969L43.7969 1002.41H4.84175L4.84175 1039.8Z" fill="#D6D6D6"/>
<path d="M43.798 1045.69L46.6836 1041.97L46.6836 1006.26H43.798L43.798 1045.69ZM1.95734 1041.97L4.84291 1045.69L4.84291 1006.26H1.95734L1.95734 1041.97Z" fill="#848484"/>
<path d="M4.84167 964.06H43.7969" stroke="black" stroke-width="0.5"/>
<path d="M1.95819 966.228C1.95819 967.081 2.24162 967.91 2.76395 968.584C3.28628 969.258 4.01788 969.74 4.84375 969.953" stroke="black" stroke-width="0.5"/>
<path d="M43.798 969.953C44.6239 969.74 45.3555 969.258 45.8778 968.584C46.4002 967.91 46.6836 967.081 46.6836 966.228" stroke="black" stroke-width="0.5"/>
<path d="M46.6836 966.228L46.6836 930.519H43.798" stroke="black" stroke-width="0.5"/>
<path d="M1.95819 966.228L1.95819 930.519H4.84375" stroke="black" stroke-width="0.5"/>
<path d="M4.84175 926.67H43.7969L43.7969 969.953H4.84175L4.84175 926.67Z" stroke="black" stroke-width="0.5"/>
<path d="M4.84175 969.953H43.7969V964.062H4.84175V969.953ZM4.84175 964.062H43.7969L43.7969 926.67H4.84175L4.84175 964.062Z" fill="#D6D6D6"/>
<path d="M43.798 969.953L46.6836 966.228L46.6836 930.519H43.798L43.798 969.953ZM1.95734 966.228L4.84291 969.953L4.84291 930.519H1.95734L1.95734 966.228Z" fill="#848484"/>
<path d="M4.84167 888.33H43.7969" stroke="black" stroke-width="0.5"/>
<path d="M1.95819 890.498C1.95819 891.351 2.24162 892.18 2.76395 892.854C3.28628 893.528 4.01788 894.01 4.84375 894.223" stroke="black" stroke-width="0.5"/>
<path d="M43.798 894.223C44.6239 894.01 45.3555 893.528 45.8778 892.854C46.4002 892.18 46.6836 891.351 46.6836 890.498" stroke="black" stroke-width="0.5"/>
<path d="M46.6836 890.498L46.6836 854.789H43.798" stroke="black" stroke-width="0.5"/>
<path d="M1.95819 890.498L1.95819 854.789H4.84375" stroke="black" stroke-width="0.5"/>
<path d="M4.84175 850.94H43.7969L43.7969 894.223H4.84175L4.84175 850.94Z" stroke="black" stroke-width="0.5"/>
<path d="M4.84175 894.223H43.7969V888.332H4.84175V894.223ZM4.84175 888.332H43.7969L43.7969 850.94H4.84175L4.84175 888.332Z" fill="#D6D6D6"/>
<path d="M43.798 894.223L46.6836 890.498L46.6836 854.789H43.798L43.798 894.223ZM1.95734 890.498L4.84291 894.223L4.84291 854.789H1.95734L1.95734 890.498Z" fill="#848484"/>
<path d="M4.84167 812.59H43.7969" stroke="black" stroke-width="0.5"/>
<path d="M1.95819 814.758C1.95819 815.611 2.24162 816.44 2.76395 817.114C3.28628 817.789 4.01788 818.27 4.84375 818.483" stroke="black" stroke-width="0.5"/>
<path d="M43.798 818.483C44.6239 818.27 45.3555 817.789 45.8778 817.114C46.4002 816.44 46.6836 815.611 46.6836 814.758" stroke="black" stroke-width="0.5"/>
<path d="M46.6836 814.758L46.6836 779.049H43.798" stroke="black" stroke-width="0.5"/>
<path d="M1.95819 814.758L1.95819 779.049H4.84375" stroke="black" stroke-width="0.5"/>
<path d="M4.84175 775.2H43.7969L43.7969 818.483H4.84175L4.84175 775.2Z" stroke="black" stroke-width="0.5"/>
<path d="M4.84175 818.483H43.7969V812.592H4.84175V818.483ZM4.84175 812.592H43.7969L43.7969 775.2H4.84175L4.84175 812.592Z" fill="#D6D6D6"/>
<path d="M43.798 818.483L46.6836 814.758L46.6836 779.049H43.798L43.798 818.483ZM1.95734 814.758L4.84291 818.483L4.84291 779.049H1.95734L1.95734 814.758Z" fill="#848484"/>
<path d="M4.84167 736.85H43.7969" stroke="black" stroke-width="0.5"/>
<path d="M1.95819 739.018C1.95819 739.871 2.24162 740.7 2.76395 741.374C3.28628 742.048 4.01788 742.53 4.84375 742.743" stroke="black" stroke-width="0.5"/>
<path d="M43.798 742.743C44.6239 742.53 45.3555 742.048 45.8778 741.374C46.4002 740.7 46.6836 739.871 46.6836 739.018" stroke="black" stroke-width="0.5"/>
<path d="M46.6836 739.018L46.6836 703.309H43.798" stroke="black" stroke-width="0.5"/>
<path d="M1.95819 739.018L1.95819 703.309H4.84375" stroke="black" stroke-width="0.5"/>
<path d="M4.84175 699.46H43.7969L43.7969 742.743H4.84175L4.84175 699.46Z" stroke="black" stroke-width="0.5"/>
<path d="M4.84175 742.743H43.7969V736.852H4.84175V742.743ZM4.84175 736.852H43.7969L43.7969 699.46H4.84175L4.84175 736.852Z" fill="#D6D6D6"/>
<path d="M43.798 742.743L46.6836 739.018L46.6836 703.309H43.798L43.798 742.743ZM1.95734 739.018L4.84291 742.743L4.84291 703.309H1.95734L1.95734 739.018Z" fill="#848484"/>
<path d="M4.84167 661.12H43.7969" stroke="black" stroke-width="0.5"/>
<path d="M1.95819 663.288C1.95819 664.141 2.24162 664.97 2.76395 665.644C3.28628 666.318 4.01788 666.8 4.84375 667.013" stroke="black" stroke-width="0.5"/>
<path d="M43.798 667.013C44.6239 666.8 45.3555 666.318 45.8778 665.644C46.4002 664.97 46.6836 664.141 46.6836 663.288" stroke="black" stroke-width="0.5"/>
<path d="M46.6836 663.288L46.6836 627.579H43.798" stroke="black" stroke-width="0.5"/>
<path d="M1.95819 663.288L1.95819 627.579H4.84375" stroke="black" stroke-width="0.5"/>
<path d="M4.84175 623.73H43.7969L43.7969 667.013H4.84175L4.84175 623.73Z" stroke="black" stroke-width="0.5"/>
<path d="M4.84175 667.013H43.7969V661.122H4.84175V667.013ZM4.84175 661.122H43.7969L43.7969 623.73H4.84175L4.84175 661.122Z" fill="#D6D6D6"/>
<path d="M43.798 667.013L46.6836 663.288L46.6836 627.579H43.798L43.798 667.013ZM1.95734 663.288L4.84291 667.013L4.84291 627.579H1.95734L1.95734 663.288Z" fill="#848484"/>
<path d="M50.2831 1115.53H89.2383" stroke="black" stroke-width="0.5"/>
<path d="M47.3996 1117.7C47.3996 1118.55 47.683 1119.38 48.2054 1120.05C48.7277 1120.73 49.4593 1121.21 50.2852 1121.42" stroke="black" stroke-width="0.5"/>
<path d="M89.2394 1121.42C90.0653 1121.21 90.7969 1120.73 91.3192 1120.05C91.8416 1119.38 92.125 1118.55 92.125 1117.7" stroke="black" stroke-width="0.5"/>
<path d="M92.125 1117.7V1081.99H89.2394" stroke="black" stroke-width="0.5"/>
<path d="M47.3996 1117.7L47.3996 1081.99H50.2852" stroke="black" stroke-width="0.5"/>
<path d="M50.2832 1078.14H89.2383V1121.42H50.2832L50.2832 1078.14Z" stroke="black" stroke-width="0.5"/>
<path d="M50.2832 1121.42H89.2383V1115.53H50.2832V1121.42ZM50.2832 1115.53H89.2383V1078.14H50.2832L50.2832 1115.53Z" fill="#D6D6D6"/>
<path d="M89.2394 1121.42L92.125 1117.7V1081.99H89.2394V1121.42ZM47.3988 1117.7L50.2843 1121.42L50.2843 1081.99H47.3988L47.3988 1117.7Z" fill="#848484"/>
<path d="M50.2831 1039.8H89.2383" stroke="black" stroke-width="0.5"/>
<path d="M47.3996 1041.97C47.3996 1042.82 47.683 1043.65 48.2054 1044.32C48.7277 1045 49.4593 1045.48 50.2852 1045.69" stroke="black" stroke-width="0.5"/>
<path d="M89.2394 1045.69C90.0653 1045.48 90.7969 1045 91.3192 1044.32C91.8416 1043.65 92.125 1042.82 92.125 1041.97" stroke="black" stroke-width="0.5"/>
<path d="M92.125 1041.97V1006.26H89.2394" stroke="black" stroke-width="0.5"/>
<path d="M47.3996 1041.97L47.3996 1006.26H50.2852" stroke="black" stroke-width="0.5"/>
<path d="M50.2832 1002.41H89.2383V1045.69H50.2832L50.2832 1002.41Z" stroke="black" stroke-width="0.5"/>
<path d="M50.2832 1045.69H89.2383V1039.8H50.2832V1045.69ZM50.2832 1039.8H89.2383V1002.41H50.2832L50.2832 1039.8Z" fill="#D6D6D6"/>
<path d="M89.2394 1045.69L92.125 1041.97V1006.26H89.2394V1045.69ZM47.3988 1041.97L50.2843 1045.69L50.2843 1006.26H47.3988L47.3988 1041.97Z" fill="#848484"/>
<path d="M50.2831 964.06H89.2383" stroke="black" stroke-width="0.5"/>
<path d="M47.3996 966.228C47.3996 967.081 47.683 967.91 48.2054 968.584C48.7277 969.258 49.4593 969.74 50.2852 969.953" stroke="black" stroke-width="0.5"/>
<path d="M89.2394 969.953C90.0653 969.74 90.7969 969.258 91.3192 968.584C91.8416 967.91 92.125 967.081 92.125 966.228" stroke="black" stroke-width="0.5"/>
<path d="M92.125 966.228V930.519H89.2394" stroke="black" stroke-width="0.5"/>
<path d="M47.3996 966.228L47.3996 930.519H50.2852" stroke="black" stroke-width="0.5"/>
<path d="M50.2832 926.67H89.2383V969.953H50.2832L50.2832 926.67Z" stroke="black" stroke-width="0.5"/>
<path d="M50.2832 969.953H89.2383V964.062H50.2832V969.953ZM50.2832 964.062H89.2383V926.67H50.2832L50.2832 964.062Z" fill="#D6D6D6"/>
<path d="M89.2394 969.953L92.125 966.228V930.519H89.2394V969.953ZM47.3988 966.228L50.2843 969.953L50.2843 930.519H47.3988L47.3988 966.228Z" fill="#848484"/>
<path d="M50.2831 888.33H89.2383" stroke="black" stroke-width="0.5"/>
<path d="M47.3996 890.498C47.3996 891.351 47.683 892.18 48.2054 892.854C48.7277 893.528 49.4593 894.01 50.2852 894.223" stroke="black" stroke-width="0.5"/>
<path d="M89.2394 894.223C90.0653 894.01 90.7969 893.528 91.3192 892.854C91.8416 892.18 92.125 891.351 92.125 890.498" stroke="black" stroke-width="0.5"/>
<path d="M92.125 890.498V854.789H89.2394" stroke="black" stroke-width="0.5"/>
<path d="M47.3996 890.498L47.3996 854.789H50.2852" stroke="black" stroke-width="0.5"/>
<path d="M50.2832 850.94H89.2383V894.223H50.2832L50.2832 850.94Z" stroke="black" stroke-width="0.5"/>
<path d="M50.2832 894.223H89.2383V888.332H50.2832V894.223ZM50.2832 888.332H89.2383V850.94H50.2832L50.2832 888.332Z" fill="#D6D6D6"/>
<path d="M89.2394 894.223L92.125 890.498V854.789H89.2394V894.223ZM47.3988 890.498L50.2843 894.223L50.2843 854.789H47.3988L47.3988 890.498Z" fill="#848484"/>
<path d="M50.2831 812.59H89.2383" stroke="black" stroke-width="0.5"/>
<path d="M47.3996 814.758C47.3996 815.611 47.683 816.44 48.2054 817.114C48.7277 817.789 49.4593 818.27 50.2852 818.483" stroke="black" stroke-width="0.5"/>
<path d="M89.2394 818.483C90.0653 818.27 90.7969 817.789 91.3192 817.114C91.8416 816.44 92.125 815.611 92.125 814.758" stroke="black" stroke-width="0.5"/>
<path d="M92.125 814.758V779.049H89.2394" stroke="black" stroke-width="0.5"/>
<path d="M47.3996 814.758L47.3996 779.049H50.2852" stroke="black" stroke-width="0.5"/>
<path d="M50.2832 775.2H89.2383V818.483H50.2832L50.2832 775.2Z" stroke="black" stroke-width="0.5"/>
<path d="M50.2832 818.483H89.2383V812.592H50.2832V818.483ZM50.2832 812.592H89.2383V775.2H50.2832L50.2832 812.592Z" fill="#D6D6D6"/>
<path d="M89.2394 818.483L92.125 814.758V779.049H89.2394V818.483ZM47.3988 814.758L50.2843 818.483L50.2843 779.049H47.3988L47.3988 814.758Z" fill="#848484"/>
<path d="M50.2831 736.85H89.2383" stroke="black" stroke-width="0.5"/>
<path d="M47.3996 739.018C47.3996 739.871 47.683 740.7 48.2054 741.374C48.7277 742.048 49.4593 742.53 50.2852 742.743" stroke="black" stroke-width="0.5"/>
<path d="M89.2394 742.743C90.0653 742.53 90.7969 742.048 91.3192 741.374C91.8416 740.7 92.125 739.871 92.125 739.018" stroke="black" stroke-width="0.5"/>
<path d="M92.125 739.018V703.309H89.2394" stroke="black" stroke-width="0.5"/>
<path d="M47.3996 739.018L47.3996 703.309H50.2852" stroke="black" stroke-width="0.5"/>
<path d="M50.2832 699.46H89.2383V742.743H50.2832L50.2832 699.46Z" stroke="black" stroke-width="0.5"/>
<path d="M50.2832 742.743H89.2383V736.852H50.2832V742.743ZM50.2832 736.852H89.2383V699.46H50.2832L50.2832 736.852Z" fill="#D6D6D6"/>
<path d="M89.2394 742.743L92.125 739.018V703.309H89.2394V742.743ZM47.3988 739.018L50.2843 742.743L50.2843 703.309H47.3988L47.3988 739.018Z" fill="#848484"/>
<path d="M50.2831 661.12H89.2383" stroke="black" stroke-width="0.5"/>
<path d="M47.3996 663.288C47.3996 664.141 47.683 664.97 48.2054 665.644C48.7277 666.318 49.4593 666.8 50.2852 667.013" stroke="black" stroke-width="0.5"/>
<path d="M89.2394 667.013C90.0653 666.8 90.7969 666.318 91.3192 665.644C91.8416 664.97 92.125 664.141 92.125 663.288" stroke="black" stroke-width="0.5"/>
<path d="M92.125 663.288V627.579H89.2394" stroke="black" stroke-width="0.5"/>
<path d="M47.3996 663.288L47.3996 627.579H50.2852" stroke="black" stroke-width="0.5"/>
<path d="M50.2832 623.73H89.2383V667.013H50.2832L50.2832 623.73Z" stroke="black" stroke-width="0.5"/>
<path d="M50.2832 667.013H89.2383V661.122H50.2832V667.013ZM50.2832 661.122H89.2383V623.73H50.2832L50.2832 661.122Z" fill="#D6D6D6"/>
<path d="M89.2394 667.013L92.125 663.288V627.579H89.2394V667.013ZM47.3988 663.288L50.2843 667.013L50.2843 627.579H47.3988L47.3988 663.288Z" fill="#848484"/>
<path d="M95.7245 1115.53H134.68" stroke="black" stroke-width="0.5"/>
<path d="M92.841 1117.7C92.841 1118.55 93.1244 1119.38 93.6468 1120.05C94.1691 1120.73 94.9007 1121.21 95.7266 1121.42" stroke="black" stroke-width="0.5"/>
<path d="M134.681 1121.42C135.507 1121.21 136.238 1120.73 136.761 1120.05C137.283 1119.38 137.566 1118.55 137.566 1117.7" stroke="black" stroke-width="0.5"/>
<path d="M137.566 1117.7V1081.99H134.681" stroke="black" stroke-width="0.5"/>
<path d="M92.841 1117.7V1081.99H95.7266" stroke="black" stroke-width="0.5"/>
<path d="M95.7246 1078.14H134.68V1121.42H95.7246V1078.14Z" stroke="black" stroke-width="0.5"/>
<path d="M95.7246 1121.42H134.68V1115.53H95.7246V1121.42ZM95.7246 1115.53H134.68V1078.14H95.7246V1115.53Z" fill="#D6D6D6"/>
<path d="M134.681 1121.42L137.566 1117.7V1081.99H134.681V1121.42ZM92.8402 1117.7L95.7257 1121.42V1081.99H92.8402V1117.7Z" fill="#848484"/>
<path d="M95.7245 1039.8H134.68" stroke="black" stroke-width="0.5"/>
<path d="M92.841 1041.97C92.841 1042.82 93.1244 1043.65 93.6468 1044.32C94.1691 1045 94.9007 1045.48 95.7266 1045.69" stroke="black" stroke-width="0.5"/>
<path d="M134.681 1045.69C135.507 1045.48 136.238 1045 136.761 1044.32C137.283 1043.65 137.566 1042.82 137.566 1041.97" stroke="black" stroke-width="0.5"/>
<path d="M137.566 1041.97V1006.26H134.681" stroke="black" stroke-width="0.5"/>
<path d="M92.841 1041.97V1006.26H95.7266" stroke="black" stroke-width="0.5"/>
<path d="M95.7246 1002.41H134.68V1045.69H95.7246V1002.41Z" stroke="black" stroke-width="0.5"/>
<path d="M95.7246 1045.69H134.68V1039.8H95.7246V1045.69ZM95.7246 1039.8H134.68V1002.41H95.7246V1039.8Z" fill="#D6D6D6"/>
<path d="M134.681 1045.69L137.566 1041.97V1006.26H134.681V1045.69ZM92.8402 1041.97L95.7257 1045.69V1006.26H92.8402V1041.97Z" fill="#848484"/>
<path d="M95.7245 964.06H134.68" stroke="black" stroke-width="0.5"/>
<path d="M92.841 966.228C92.841 967.081 93.1244 967.91 93.6468 968.584C94.1691 969.258 94.9007 969.74 95.7266 969.953" stroke="black" stroke-width="0.5"/>
<path d="M134.681 969.953C135.507 969.74 136.238 969.258 136.761 968.584C137.283 967.91 137.566 967.081 137.566 966.228" stroke="black" stroke-width="0.5"/>
<path d="M137.566 966.228V930.519H134.681" stroke="black" stroke-width="0.5"/>
<path d="M92.841 966.228V930.519H95.7266" stroke="black" stroke-width="0.5"/>
<path d="M95.7246 926.67H134.68V969.953H95.7246V926.67Z" stroke="black" stroke-width="0.5"/>
<path d="M95.7246 969.953H134.68V964.062H95.7246V969.953ZM95.7246 964.062H134.68V926.67H95.7246V964.062Z" fill="#D6D6D6"/>
<path d="M134.681 969.953L137.566 966.228V930.519H134.681V969.953ZM92.8402 966.228L95.7257 969.953V930.519H92.8402V966.228Z" fill="#848484"/>
<path d="M95.7245 888.33H134.68" stroke="black" stroke-width="0.5"/>
<path d="M92.841 890.498C92.841 891.351 93.1244 892.18 93.6468 892.854C94.1691 893.528 94.9007 894.01 95.7266 894.223" stroke="black" stroke-width="0.5"/>
<path d="M134.681 894.223C135.507 894.01 136.238 893.528 136.761 892.854C137.283 892.18 137.566 891.351 137.566 890.498" stroke="black" stroke-width="0.5"/>
<path d="M137.566 890.498V854.789H134.681" stroke="black" stroke-width="0.5"/>
<path d="M92.841 890.498V854.789H95.7266" stroke="black" stroke-width="0.5"/>
<path d="M95.7246 850.94H134.68V894.223H95.7246V850.94Z" stroke="black" stroke-width="0.5"/>
<path d="M95.7246 894.223H134.68V888.332H95.7246V894.223ZM95.7246 888.332H134.68V850.94H95.7246V888.332Z" fill="#D6D6D6"/>
<path d="M134.681 894.223L137.566 890.498V854.789H134.681V894.223ZM92.8402 890.498L95.7257 894.223V854.789H92.8402V890.498Z" fill="#848484"/>
<path d="M95.7245 812.59H134.68" stroke="black" stroke-width="0.5"/>
<path d="M92.841 814.758C92.841 815.611 93.1244 816.44 93.6468 817.114C94.1691 817.789 94.9007 818.27 95.7266 818.483" stroke="black" stroke-width="0.5"/>
<path d="M134.681 818.483C135.507 818.27 136.238 817.789 136.761 817.114C137.283 816.44 137.566 815.611 137.566 814.758" stroke="black" stroke-width="0.5"/>
<path d="M137.566 814.758V779.049H134.681" stroke="black" stroke-width="0.5"/>
<path d="M92.841 814.758V779.049H95.7266" stroke="black" stroke-width="0.5"/>
<path d="M95.7246 775.2H134.68V818.483H95.7246V775.2Z" stroke="black" stroke-width="0.5"/>
<path d="M95.7246 818.483H134.68V812.592H95.7246V818.483ZM95.7246 812.592H134.68V775.2H95.7246V812.592Z" fill="#D6D6D6"/>
<path d="M134.681 818.483L137.566 814.758V779.049H134.681V818.483ZM92.8402 814.758L95.7257 818.483V779.049H92.8402V814.758Z" fill="#848484"/>
<path d="M95.7245 736.85H134.68" stroke="black" stroke-width="0.5"/>
<path d="M92.841 739.018C92.841 739.871 93.1244 740.7 93.6468 741.374C94.1691 742.048 94.9007 742.53 95.7266 742.743" stroke="black" stroke-width="0.5"/>
<path d="M134.681 742.743C135.507 742.53 136.238 742.048 136.761 741.374C137.283 740.7 137.566 739.871 137.566 739.018" stroke="black" stroke-width="0.5"/>
<path d="M137.566 739.018V703.309H134.681" stroke="black" stroke-width="0.5"/>
<path d="M92.841 739.018V703.309H95.7266" stroke="black" stroke-width="0.5"/>
<path d="M95.7246 699.46H134.68V742.743H95.7246V699.46Z" stroke="black" stroke-width="0.5"/>
<path d="M95.7246 742.743H134.68V736.852H95.7246V742.743ZM95.7246 736.852H134.68V699.46H95.7246V736.852Z" fill="#D6D6D6"/>
<path d="M134.681 742.743L137.566 739.018V703.309H134.681V742.743ZM92.8402 739.018L95.7257 742.743V703.309H92.8402V739.018Z" fill="#848484"/>
<path d="M95.7245 661.12H134.68" stroke="black" stroke-width="0.5"/>
<path d="M92.841 663.288C92.841 664.141 93.1244 664.97 93.6468 665.644C94.1691 666.318 94.9007 666.8 95.7266 667.013" stroke="black" stroke-width="0.5"/>
<path d="M134.681 667.013C135.507 666.8 136.238 666.318 136.761 665.644C137.283 664.97 137.566 664.141 137.566 663.288" stroke="black" stroke-width="0.5"/>
<path d="M137.566 663.288V627.579H134.681" stroke="black" stroke-width="0.5"/>
<path d="M92.841 663.288V627.579H95.7266" stroke="black" stroke-width="0.5"/>
<path d="M95.7246 623.73H134.68V667.013H95.7246V623.73Z" stroke="black" stroke-width="0.5"/>
<path d="M95.7246 667.013H134.68V661.122H95.7246V667.013ZM95.7246 661.122H134.68V623.73H95.7246V661.122Z" fill="#D6D6D6"/>
<path d="M134.681 667.013L137.566 663.288V627.579H134.681V667.013ZM92.8402 663.288L95.7257 667.013V627.579H92.8402V663.288Z" fill="#848484"/>
<path d="M141.166 1115.53H180.121" stroke="black" stroke-width="0.5"/>
<path d="M138.282 1117.7C138.282 1118.55 138.566 1119.38 139.088 1120.05C139.61 1120.73 140.342 1121.21 141.168 1121.42" stroke="black" stroke-width="0.5"/>
<path d="M180.122 1121.42C180.948 1121.21 181.68 1120.73 182.202 1120.05C182.724 1119.38 183.008 1118.55 183.008 1117.7" stroke="black" stroke-width="0.5"/>
<path d="M183.008 1117.7V1081.99H180.122" stroke="black" stroke-width="0.5"/>
<path d="M138.282 1117.7V1081.99H141.168" stroke="black" stroke-width="0.5"/>
<path d="M141.166 1078.14H180.121V1121.42H141.166V1078.14Z" stroke="black" stroke-width="0.5"/>
<path d="M141.166 1121.42H180.121V1115.53H141.166V1121.42ZM141.166 1115.53H180.121V1078.14H141.166V1115.53Z" fill="#D6D6D6"/>
<path d="M180.122 1121.42L183.008 1117.7V1081.99H180.122V1121.42ZM138.282 1117.7L141.167 1121.42V1081.99H138.282V1117.7Z" fill="#848484"/>
<path d="M141.166 1039.8H180.121" stroke="black" stroke-width="0.5"/>
<path d="M138.282 1041.97C138.282 1042.82 138.566 1043.65 139.088 1044.32C139.61 1045 140.342 1045.48 141.168 1045.69" stroke="black" stroke-width="0.5"/>
<path d="M180.122 1045.69C180.948 1045.48 181.68 1045 182.202 1044.32C182.724 1043.65 183.008 1042.82 183.008 1041.97" stroke="black" stroke-width="0.5"/>
<path d="M183.008 1041.97V1006.26H180.122" stroke="black" stroke-width="0.5"/>
<path d="M138.282 1041.97V1006.26H141.168" stroke="black" stroke-width="0.5"/>
<path d="M141.166 1002.41H180.121V1045.69H141.166V1002.41Z" stroke="black" stroke-width="0.5"/>
<path d="M141.166 1045.69H180.121V1039.8H141.166V1045.69ZM141.166 1039.8H180.121V1002.41H141.166V1039.8Z" fill="#D6D6D6"/>
<path d="M180.122 1045.69L183.008 1041.97V1006.26H180.122V1045.69ZM138.282 1041.97L141.167 1045.69V1006.26H138.282V1041.97Z" fill="#848484"/>
<path d="M141.166 964.06H180.121" stroke="black" stroke-width="0.5"/>
<path d="M138.282 966.228C138.282 967.081 138.566 967.91 139.088 968.584C139.61 969.258 140.342 969.74 141.168 969.953" stroke="black" stroke-width="0.5"/>
<path d="M180.122 969.953C180.948 969.74 181.68 969.258 182.202 968.584C182.724 967.91 183.008 967.081 183.008 966.228" stroke="black" stroke-width="0.5"/>
<path d="M183.008 966.228V930.519H180.122" stroke="black" stroke-width="0.5"/>
<path d="M138.282 966.228V930.519H141.168" stroke="black" stroke-width="0.5"/>
<path d="M141.166 926.67H180.121V969.953H141.166V926.67Z" stroke="black" stroke-width="0.5"/>
<path d="M141.166 969.953H180.121V964.062H141.166V969.953ZM141.166 964.062H180.121V926.67H141.166V964.062Z" fill="#D6D6D6"/>
<path d="M180.122 969.953L183.008 966.228V930.519H180.122V969.953ZM138.282 966.228L141.167 969.953V930.519H138.282V966.228Z" fill="#848484"/>
<path d="M141.166 888.33H180.121" stroke="black" stroke-width="0.5"/>
<path d="M138.282 890.498C138.282 891.351 138.566 892.18 139.088 892.854C139.61 893.528 140.342 894.01 141.168 894.223" stroke="black" stroke-width="0.5"/>
<path d="M180.122 894.223C180.948 894.01 181.68 893.528 182.202 892.854C182.724 892.18 183.008 891.351 183.008 890.498" stroke="black" stroke-width="0.5"/>
<path d="M183.008 890.498V854.789H180.122" stroke="black" stroke-width="0.5"/>
<path d="M138.282 890.498V854.789H141.168" stroke="black" stroke-width="0.5"/>
<path d="M141.166 850.94H180.121V894.223H141.166V850.94Z" stroke="black" stroke-width="0.5"/>
<path d="M141.166 894.223H180.121V888.332H141.166V894.223ZM141.166 888.332H180.121V850.94H141.166V888.332Z" fill="#D6D6D6"/>
<path d="M180.122 894.223L183.008 890.498V854.789H180.122V894.223ZM138.282 890.498L141.167 894.223V854.789H138.282V890.498Z" fill="#848484"/>
<path d="M141.166 812.59H180.121" stroke="black" stroke-width="0.5"/>
<path d="M138.282 814.758C138.282 815.611 138.566 816.44 139.088 817.114C139.61 817.789 140.342 818.27 141.168 818.483" stroke="black" stroke-width="0.5"/>
<path d="M180.122 818.483C180.948 818.27 181.68 817.789 182.202 817.114C182.724 816.44 183.008 815.611 183.008 814.758" stroke="black" stroke-width="0.5"/>
<path d="M183.008 814.758V779.049H180.122" stroke="black" stroke-width="0.5"/>
<path d="M138.282 814.758V779.049H141.168" stroke="black" stroke-width="0.5"/>
<path d="M141.166 775.2H180.121V818.483H141.166V775.2Z" stroke="black" stroke-width="0.5"/>
<path d="M141.166 818.483H180.121V812.592H141.166V818.483ZM141.166 812.592H180.121V775.2H141.166V812.592Z" fill="#D6D6D6"/>
<path d="M180.122 818.483L183.008 814.758V779.049H180.122V818.483ZM138.282 814.758L141.167 818.483V779.049H138.282V814.758Z" fill="#848484"/>
<path d="M141.166 736.85H180.121" stroke="black" stroke-width="0.5"/>
<path d="M138.282 739.018C138.282 739.871 138.566 740.7 139.088 741.374C139.61 742.048 140.342 742.53 141.168 742.743" stroke="black" stroke-width="0.5"/>
<path d="M180.122 742.743C180.948 742.53 181.68 742.048 182.202 741.374C182.724 740.7 183.008 739.871 183.008 739.018" stroke="black" stroke-width="0.5"/>
<path d="M183.008 739.018V703.309H180.122" stroke="black" stroke-width="0.5"/>
<path d="M138.282 739.018V703.309H141.168" stroke="black" stroke-width="0.5"/>
<path d="M141.166 699.46H180.121V742.743H141.166V699.46Z" stroke="black" stroke-width="0.5"/>
<path d="M141.166 742.743H180.121V736.852H141.166V742.743ZM141.166 736.852H180.121V699.46H141.166V736.852Z" fill="#D6D6D6"/>
<path d="M180.122 742.743L183.008 739.018V703.309H180.122V742.743ZM138.282 739.018L141.167 742.743V703.309H138.282V739.018Z" fill="#848484"/>
<path d="M141.166 661.12H180.121" stroke="black" stroke-width="0.5"/>
<path d="M138.282 663.288C138.282 664.141 138.566 664.97 139.088 665.644C139.61 666.318 140.342 666.8 141.168 667.013" stroke="black" stroke-width="0.5"/>
<path d="M180.122 667.013C180.948 666.8 181.68 666.318 182.202 665.644C182.724 664.97 183.008 664.141 183.008 663.288" stroke="black" stroke-width="0.5"/>
<path d="M183.008 663.288V627.579H180.122" stroke="black" stroke-width="0.5"/>
<path d="M138.282 663.288V627.579H141.168" stroke="black" stroke-width="0.5"/>
<path d="M141.166 623.73H180.121V667.013H141.166V623.73Z" stroke="black" stroke-width="0.5"/>
<path d="M141.166 667.013H180.121V661.122H141.166V667.013ZM141.166 661.122H180.121V623.73H141.166V661.122Z" fill="#D6D6D6"/>
<path d="M180.122 667.013L183.008 663.288V627.579H180.122V667.013ZM138.282 663.288L141.167 667.013V627.579H138.282V663.288Z" fill="#848484"/>
<path d="M186.607 1115.53H225.562" stroke="black" stroke-width="0.5"/>
<path d="M183.724 1117.7C183.724 1118.55 184.007 1119.38 184.53 1120.05C185.052 1120.73 185.784 1121.21 186.609 1121.42" stroke="black" stroke-width="0.5"/>
<path d="M225.564 1121.42C226.39 1121.21 227.121 1120.73 227.643 1120.05C228.166 1119.38 228.449 1118.55 228.449 1117.7" stroke="black" stroke-width="0.5"/>
<path d="M228.449 1117.7V1081.99H225.564" stroke="black" stroke-width="0.5"/>
<path d="M183.724 1117.7V1081.99H186.609" stroke="black" stroke-width="0.5"/>
<path d="M186.607 1078.14H225.562V1121.42H186.607V1078.14Z" stroke="black" stroke-width="0.5"/>
<path d="M186.607 1121.42H225.562V1115.53H186.607V1121.42ZM186.607 1115.53H225.562V1078.14H186.607V1115.53Z" fill="#D6D6D6"/>
<path d="M225.564 1121.42L228.449 1117.7V1081.99H225.564V1121.42ZM183.723 1117.7L186.609 1121.42V1081.99H183.723V1117.7Z" fill="#848484"/>
<path d="M186.607 1039.8H225.562" stroke="black" stroke-width="0.5"/>
<path d="M183.724 1041.97C183.724 1042.82 184.007 1043.65 184.53 1044.32C185.052 1045 185.784 1045.48 186.609 1045.69" stroke="black" stroke-width="0.5"/>
<path d="M225.564 1045.69C226.39 1045.48 227.121 1045 227.643 1044.32C228.166 1043.65 228.449 1042.82 228.449 1041.97" stroke="black" stroke-width="0.5"/>
<path d="M228.449 1041.97V1006.26H225.564" stroke="black" stroke-width="0.5"/>
<path d="M183.724 1041.97V1006.26H186.609" stroke="black" stroke-width="0.5"/>
<path d="M186.607 1002.41H225.562V1045.69H186.607V1002.41Z" stroke="black" stroke-width="0.5"/>
<path d="M186.607 1045.69H225.562V1039.8H186.607V1045.69ZM186.607 1039.8H225.562V1002.41H186.607V1039.8Z" fill="#D6D6D6"/>
<path d="M225.564 1045.69L228.449 1041.97V1006.26H225.564V1045.69ZM183.723 1041.97L186.609 1045.69V1006.26H183.723V1041.97Z" fill="#848484"/>
<path d="M186.607 964.06H225.562" stroke="black" stroke-width="0.5"/>
<path d="M183.724 966.228C183.724 967.081 184.007 967.91 184.53 968.584C185.052 969.258 185.784 969.74 186.609 969.953" stroke="black" stroke-width="0.5"/>
<path d="M225.564 969.953C226.39 969.74 227.121 969.258 227.643 968.584C228.166 967.91 228.449 967.081 228.449 966.228" stroke="black" stroke-width="0.5"/>
<path d="M228.449 966.228V930.519H225.564" stroke="black" stroke-width="0.5"/>
<path d="M183.724 966.228V930.519H186.609" stroke="black" stroke-width="0.5"/>
<path d="M186.607 926.67H225.562V969.953H186.607V926.67Z" stroke="black" stroke-width="0.5"/>
<path d="M186.607 969.953H225.562V964.062H186.607V969.953ZM186.607 964.062H225.562V926.67H186.607V964.062Z" fill="#D6D6D6"/>
<path d="M225.564 969.953L228.449 966.228V930.519H225.564V969.953ZM183.723 966.228L186.609 969.953V930.519H183.723V966.228Z" fill="#848484"/>
<path d="M186.607 888.33H225.562" stroke="black" stroke-width="0.5"/>
<path d="M183.724 890.498C183.724 891.351 184.007 892.18 184.53 892.854C185.052 893.528 185.784 894.01 186.609 894.223" stroke="black" stroke-width="0.5"/>
<path d="M225.564 894.223C226.39 894.01 227.121 893.528 227.643 892.854C228.166 892.18 228.449 891.351 228.449 890.498" stroke="black" stroke-width="0.5"/>
<path d="M228.449 890.498V854.789H225.564" stroke="black" stroke-width="0.5"/>
<path d="M183.724 890.498V854.789H186.609" stroke="black" stroke-width="0.5"/>
<path d="M186.607 850.94H225.562V894.223H186.607V850.94Z" stroke="black" stroke-width="0.5"/>
<path d="M186.607 894.223H225.562V888.332H186.607V894.223ZM186.607 888.332H225.562V850.94H186.607V888.332Z" fill="#D6D6D6"/>
<path d="M225.564 894.223L228.449 890.498V854.789H225.564V894.223ZM183.723 890.498L186.609 894.223V854.789H183.723V890.498Z" fill="#848484"/>
<path d="M186.607 812.59H225.562" stroke="black" stroke-width="0.5"/>
<path d="M183.724 814.758C183.724 815.611 184.007 816.44 184.53 817.114C185.052 817.789 185.784 818.27 186.609 818.483" stroke="black" stroke-width="0.5"/>
<path d="M225.564 818.483C226.39 818.27 227.121 817.789 227.643 817.114C228.166 816.44 228.449 815.611 228.449 814.758" stroke="black" stroke-width="0.5"/>
<path d="M228.449 814.758V779.049H225.564" stroke="black" stroke-width="0.5"/>
<path d="M183.724 814.758V779.049H186.609" stroke="black" stroke-width="0.5"/>
<path d="M186.607 775.2H225.562V818.483H186.607V775.2Z" stroke="black" stroke-width="0.5"/>
<path d="M186.607 818.483H225.562V812.592H186.607V818.483ZM186.607 812.592H225.562V775.2H186.607V812.592Z" fill="#D6D6D6"/>
<path d="M225.564 818.483L228.449 814.758V779.049H225.564V818.483ZM183.723 814.758L186.609 818.483V779.049H183.723V814.758Z" fill="#848484"/>
<path d="M186.607 736.85H225.562" stroke="black" stroke-width="0.5"/>
<path d="M183.724 739.018C183.724 739.871 184.007 740.7 184.53 741.374C185.052 742.048 185.784 742.53 186.609 742.743" stroke="black" stroke-width="0.5"/>
<path d="M225.564 742.743C226.39 742.53 227.121 742.048 227.643 741.374C228.166 740.7 228.449 739.871 228.449 739.018" stroke="black" stroke-width="0.5"/>
<path d="M228.449 739.018V703.309H225.564" stroke="black" stroke-width="0.5"/>
<path d="M183.724 739.018V703.309H186.609" stroke="black" stroke-width="0.5"/>
<path d="M186.607 699.46H225.562V742.743H186.607V699.46Z" stroke="black" stroke-width="0.5"/>
<path d="M186.607 742.743H225.562V736.852H186.607V742.743ZM186.607 736.852H225.562V699.46H186.607V736.852Z" fill="#D6D6D6"/>
<path d="M225.564 742.743L228.449 739.018V703.309H225.564V742.743ZM183.723 739.018L186.609 742.743V703.309H183.723V739.018Z" fill="#848484"/>
<path d="M186.607 661.12H225.562" stroke="black" stroke-width="0.5"/>
<path d="M183.724 663.288C183.724 664.141 184.007 664.97 184.53 665.644C185.052 666.318 185.784 666.8 186.609 667.013" stroke="black" stroke-width="0.5"/>
<path d="M225.564 667.013C226.39 666.8 227.121 666.318 227.643 665.644C228.166 664.97 228.449 664.141 228.449 663.288" stroke="black" stroke-width="0.5"/>
<path d="M228.449 663.288V627.579H225.564" stroke="black" stroke-width="0.5"/>
<path d="M183.724 663.288V627.579H186.609" stroke="black" stroke-width="0.5"/>
<path d="M186.607 623.73H225.562V667.013H186.607V623.73Z" stroke="black" stroke-width="0.5"/>
<path d="M186.607 667.013H225.562V661.122H186.607V667.013ZM186.607 661.122H225.562V623.73H186.607V661.122Z" fill="#D6D6D6"/>
<path d="M225.564 667.013L228.449 663.288V627.579H225.564V667.013ZM183.723 663.288L186.609 667.013V627.579H183.723V663.288Z" fill="#848484"/>
<path d="M232.053 1115.53H271.008" stroke="black" stroke-width="0.5"/>
<path d="M229.169 1117.7C229.169 1118.55 229.453 1119.38 229.975 1120.05C230.497 1120.73 231.229 1121.21 232.055 1121.42" stroke="black" stroke-width="0.5"/>
<path d="M271.009 1121.42C271.835 1121.21 272.566 1120.73 273.089 1120.05C273.611 1119.38 273.895 1118.55 273.895 1117.7" stroke="black" stroke-width="0.5"/>
<path d="M273.895 1117.7V1081.99H271.009" stroke="black" stroke-width="0.5"/>
<path d="M229.169 1117.7V1081.99H232.055" stroke="black" stroke-width="0.5"/>
<path d="M232.053 1078.14H271.008V1121.42H232.053V1078.14Z" stroke="black" stroke-width="0.5"/>
<path d="M232.053 1121.42H271.008V1115.53H232.053V1121.42ZM232.053 1115.53H271.008V1078.14H232.053V1115.53Z" fill="#D6D6D6"/>
<path d="M271.009 1121.42L273.895 1117.7V1081.99H271.009V1121.42ZM229.168 1117.7L232.054 1121.42V1081.99H229.168V1117.7Z" fill="#848484"/>
<path d="M232.053 1039.8H271.008" stroke="black" stroke-width="0.5"/>
<path d="M229.169 1041.97C229.169 1042.82 229.453 1043.65 229.975 1044.32C230.497 1045 231.229 1045.48 232.055 1045.69" stroke="black" stroke-width="0.5"/>
<path d="M271.009 1045.69C271.835 1045.48 272.566 1045 273.089 1044.32C273.611 1043.65 273.895 1042.82 273.895 1041.97" stroke="black" stroke-width="0.5"/>
<path d="M273.895 1041.97V1006.26H271.009" stroke="black" stroke-width="0.5"/>
<path d="M229.169 1041.97V1006.26H232.055" stroke="black" stroke-width="0.5"/>
<path d="M232.053 1002.41H271.008V1045.69H232.053V1002.41Z" stroke="black" stroke-width="0.5"/>
<path d="M232.053 1045.69H271.008V1039.8H232.053V1045.69ZM232.053 1039.8H271.008V1002.41H232.053V1039.8Z" fill="#D6D6D6"/>
<path d="M271.009 1045.69L273.895 1041.97V1006.26H271.009V1045.69ZM229.168 1041.97L232.054 1045.69V1006.26H229.168V1041.97Z" fill="#848484"/>
<path d="M232.053 964.06H271.008" stroke="black" stroke-width="0.5"/>
<path d="M229.169 966.228C229.169 967.081 229.453 967.91 229.975 968.584C230.497 969.258 231.229 969.74 232.055 969.953" stroke="black" stroke-width="0.5"/>
<path d="M271.009 969.953C271.835 969.74 272.566 969.258 273.089 968.584C273.611 967.91 273.895 967.081 273.895 966.228" stroke="black" stroke-width="0.5"/>
<path d="M273.895 966.228V930.519H271.009" stroke="black" stroke-width="0.5"/>
<path d="M229.169 966.228V930.519H232.055" stroke="black" stroke-width="0.5"/>
<path d="M232.053 926.67H271.008V969.953H232.053V926.67Z" stroke="black" stroke-width="0.5"/>
<path d="M232.053 969.953H271.008V964.062H232.053V969.953ZM232.053 964.062H271.008V926.67H232.053V964.062Z" fill="#D6D6D6"/>
<path d="M271.009 969.953L273.895 966.228V930.519H271.009V969.953ZM229.168 966.228L232.054 969.953V930.519H229.168V966.228Z" fill="#848484"/>
<path d="M232.053 888.33H271.008" stroke="black" stroke-width="0.5"/>
<path d="M229.169 890.498C229.169 891.351 229.453 892.18 229.975 892.854C230.497 893.528 231.229 894.01 232.055 894.223" stroke="black" stroke-width="0.5"/>
<path d="M271.009 894.223C271.835 894.01 272.566 893.528 273.089 892.854C273.611 892.18 273.895 891.351 273.895 890.498" stroke="black" stroke-width="0.5"/>
<path d="M273.895 890.498V854.789H271.009" stroke="black" stroke-width="0.5"/>
<path d="M229.169 890.498V854.789H232.055" stroke="black" stroke-width="0.5"/>
<path d="M232.053 850.94H271.008V894.223H232.053V850.94Z" stroke="black" stroke-width="0.5"/>
<path d="M232.053 894.223H271.008V888.332H232.053V894.223ZM232.053 888.332H271.008V850.94H232.053V888.332Z" fill="#D6D6D6"/>
<path d="M271.009 894.223L273.895 890.498V854.789H271.009V894.223ZM229.168 890.498L232.054 894.223V854.789H229.168V890.498Z" fill="#848484"/>
<path d="M232.053 812.59H271.008" stroke="black" stroke-width="0.5"/>
<path d="M229.169 814.758C229.169 815.611 229.453 816.44 229.975 817.114C230.497 817.789 231.229 818.27 232.055 818.483" stroke="black" stroke-width="0.5"/>
<path d="M271.009 818.483C271.835 818.27 272.566 817.789 273.089 817.114C273.611 816.44 273.895 815.611 273.895 814.758" stroke="black" stroke-width="0.5"/>
<path d="M273.895 814.758V779.049H271.009" stroke="black" stroke-width="0.5"/>
<path d="M229.169 814.758V779.049H232.055" stroke="black" stroke-width="0.5"/>
<path d="M232.053 775.2H271.008V818.483H232.053V775.2Z" stroke="black" stroke-width="0.5"/>
<path d="M232.053 818.483H271.008V812.592H232.053V818.483ZM232.053 812.592H271.008V775.2H232.053V812.592Z" fill="#D6D6D6"/>
<path d="M271.009 818.483L273.895 814.758V779.049H271.009V818.483ZM229.168 814.758L232.054 818.483V779.049H229.168V814.758Z" fill="#848484"/>
<path d="M232.053 736.85H271.008" stroke="black" stroke-width="0.5"/>
<path d="M229.169 739.018C229.169 739.871 229.453 740.7 229.975 741.374C230.497 742.048 231.229 742.53 232.055 742.743" stroke="black" stroke-width="0.5"/>
<path d="M271.009 742.743C271.835 742.53 272.566 742.048 273.089 741.374C273.611 740.7 273.895 739.871 273.895 739.018" stroke="black" stroke-width="0.5"/>
<path d="M273.895 739.018V703.309H271.009" stroke="black" stroke-width="0.5"/>
<path d="M229.169 739.018V703.309H232.055" stroke="black" stroke-width="0.5"/>
<path d="M232.053 699.46H271.008V742.743H232.053V699.46Z" stroke="black" stroke-width="0.5"/>
<path d="M232.053 742.743H271.008V736.852H232.053V742.743ZM232.053 736.852H271.008V699.46H232.053V736.852Z" fill="#D6D6D6"/>
<path d="M271.009 742.743L273.895 739.018V703.309H271.009V742.743ZM229.168 739.018L232.054 742.743V703.309H229.168V739.018Z" fill="#848484"/>
<path d="M232.053 661.12H271.008" stroke="black" stroke-width="0.5"/>
<path d="M229.169 663.288C229.169 664.141 229.453 664.97 229.975 665.644C230.497 666.318 231.229 666.8 232.055 667.013" stroke="black" stroke-width="0.5"/>
<path d="M271.009 667.013C271.835 666.8 272.566 666.318 273.089 665.644C273.611 664.97 273.895 664.141 273.895 663.288" stroke="black" stroke-width="0.5"/>
<path d="M273.895 663.288V627.579H271.009" stroke="black" stroke-width="0.5"/>
<path d="M229.169 663.288V627.579H232.055" stroke="black" stroke-width="0.5"/>
<path d="M232.053 623.73H271.008V667.013H232.053V623.73Z" stroke="black" stroke-width="0.5"/>
<path d="M232.053 667.013H271.008V661.122H232.053V667.013ZM232.053 661.122H271.008V623.73H232.053V661.122Z" fill="#D6D6D6"/>
<path d="M271.009 667.013L273.895 663.288V627.579H271.009V667.013ZM229.168 663.288L232.054 667.013V627.579H229.168V663.288Z" fill="#848484"/>
<path d="M277.494 1115.53H316.449" stroke="black" stroke-width="0.5"/>
<path d="M274.611 1117.7C274.611 1118.55 274.894 1119.38 275.416 1120.05C275.939 1120.73 276.67 1121.21 277.496 1121.42" stroke="black" stroke-width="0.5"/>
<path d="M316.45 1121.42C317.276 1121.21 318.008 1120.73 318.53 1120.05C319.052 1119.38 319.336 1118.55 319.336 1117.7" stroke="black" stroke-width="0.5"/>
<path d="M319.336 1117.7V1081.99H316.45" stroke="black" stroke-width="0.5"/>
<path d="M274.611 1117.7V1081.99H277.496" stroke="black" stroke-width="0.5"/>
<path d="M277.494 1078.14H316.449V1121.42H277.494V1078.14Z" stroke="black" stroke-width="0.5"/>
<path d="M277.494 1121.42H316.449V1115.53H277.494V1121.42ZM277.494 1115.53H316.449V1078.14H277.494V1115.53Z" fill="#D6D6D6"/>
<path d="M316.45 1121.42L319.336 1117.7V1081.99H316.45V1121.42ZM274.61 1117.7L277.495 1121.42V1081.99H274.61V1117.7Z" fill="#848484"/>
<path d="M277.494 1039.8H316.449" stroke="black" stroke-width="0.5"/>
<path d="M274.611 1041.97C274.611 1042.82 274.894 1043.65 275.416 1044.32C275.939 1045 276.67 1045.48 277.496 1045.69" stroke="black" stroke-width="0.5"/>
<path d="M316.45 1045.69C317.276 1045.48 318.008 1045 318.53 1044.32C319.052 1043.65 319.336 1042.82 319.336 1041.97" stroke="black" stroke-width="0.5"/>
<path d="M319.336 1041.97V1006.26H316.45" stroke="black" stroke-width="0.5"/>
<path d="M274.611 1041.97V1006.26H277.496" stroke="black" stroke-width="0.5"/>
<path d="M277.494 1002.41H316.449V1045.69H277.494V1002.41Z" stroke="black" stroke-width="0.5"/>
<path d="M277.494 1045.69H316.449V1039.8H277.494V1045.69ZM277.494 1039.8H316.449V1002.41H277.494V1039.8Z" fill="#D6D6D6"/>
<path d="M316.45 1045.69L319.336 1041.97V1006.26H316.45V1045.69ZM274.61 1041.97L277.495 1045.69V1006.26H274.61V1041.97Z" fill="#848484"/>
<path d="M277.494 964.06H316.449" stroke="black" stroke-width="0.5"/>
<path d="M274.611 966.228C274.611 967.081 274.894 967.91 275.416 968.584C275.939 969.258 276.67 969.74 277.496 969.953" stroke="black" stroke-width="0.5"/>
<path d="M316.45 969.953C317.276 969.74 318.008 969.258 318.53 968.584C319.052 967.91 319.336 967.081 319.336 966.228" stroke="black" stroke-width="0.5"/>
<path d="M319.336 966.228V930.519H316.45" stroke="black" stroke-width="0.5"/>
<path d="M274.611 966.228V930.519H277.496" stroke="black" stroke-width="0.5"/>
<path d="M277.494 926.67H316.449V969.953H277.494V926.67Z" stroke="black" stroke-width="0.5"/>
<path d="M277.494 969.953H316.449V964.062H277.494V969.953ZM277.494 964.062H316.449V926.67H277.494V964.062Z" fill="#D6D6D6"/>
<path d="M316.45 969.953L319.336 966.228V930.519H316.45V969.953ZM274.61 966.228L277.495 969.953V930.519H274.61V966.228Z" fill="#848484"/>
<path d="M277.494 888.33H316.449" stroke="black" stroke-width="0.5"/>
<path d="M274.611 890.498C274.611 891.351 274.894 892.18 275.416 892.854C275.939 893.528 276.67 894.01 277.496 894.223" stroke="black" stroke-width="0.5"/>
<path d="M316.45 894.223C317.276 894.01 318.008 893.528 318.53 892.854C319.052 892.18 319.336 891.351 319.336 890.498" stroke="black" stroke-width="0.5"/>
<path d="M319.336 890.498V854.789H316.45" stroke="black" stroke-width="0.5"/>
<path d="M274.611 890.498V854.789H277.496" stroke="black" stroke-width="0.5"/>
<path d="M277.494 850.94H316.449V894.223H277.494V850.94Z" stroke="black" stroke-width="0.5"/>
<path d="M277.494 894.223H316.449V888.332H277.494V894.223ZM277.494 888.332H316.449V850.94H277.494V888.332Z" fill="#D6D6D6"/>
<path d="M316.45 894.223L319.336 890.498V854.789H316.45V894.223ZM274.61 890.498L277.495 894.223V854.789H274.61V890.498Z" fill="#848484"/>
<path d="M277.494 812.59H316.449" stroke="black" stroke-width="0.5"/>
<path d="M274.611 814.758C274.611 815.611 274.894 816.44 275.416 817.114C275.939 817.789 276.67 818.27 277.496 818.483" stroke="black" stroke-width="0.5"/>
<path d="M316.45 818.483C317.276 818.27 318.008 817.789 318.53 817.114C319.052 816.44 319.336 815.611 319.336 814.758" stroke="black" stroke-width="0.5"/>
<path d="M319.336 814.758V779.049H316.45" stroke="black" stroke-width="0.5"/>
<path d="M274.611 814.758V779.049H277.496" stroke="black" stroke-width="0.5"/>
<path d="M277.494 775.2H316.449V818.483H277.494V775.2Z" stroke="black" stroke-width="0.5"/>
<path d="M277.494 818.483H316.449V812.592H277.494V818.483ZM277.494 812.592H316.449V775.2H277.494V812.592Z" fill="#D6D6D6"/>
<path d="M316.45 818.483L319.336 814.758V779.049H316.45V818.483ZM274.61 814.758L277.495 818.483V779.049H274.61V814.758Z" fill="#848484"/>
<path d="M277.494 736.85H316.449" stroke="black" stroke-width="0.5"/>
<path d="M274.611 739.018C274.611 739.871 274.894 740.7 275.416 741.374C275.939 742.048 276.67 742.53 277.496 742.743" stroke="black" stroke-width="0.5"/>
<path d="M316.45 742.743C317.276 742.53 318.008 742.048 318.53 741.374C319.052 740.7 319.336 739.871 319.336 739.018" stroke="black" stroke-width="0.5"/>
<path d="M319.336 739.018V703.309H316.45" stroke="black" stroke-width="0.5"/>
<path d="M274.611 739.018V703.309H277.496" stroke="black" stroke-width="0.5"/>
<path d="M277.494 699.46H316.449V742.743H277.494V699.46Z" stroke="black" stroke-width="0.5"/>
<path d="M277.494 742.743H316.449V736.852H277.494V742.743ZM277.494 736.852H316.449V699.46H277.494V736.852Z" fill="#D6D6D6"/>
<path d="M316.45 742.743L319.336 739.018V703.309H316.45V742.743ZM274.61 739.018L277.495 742.743V703.309H274.61V739.018Z" fill="#848484"/>
<path d="M277.494 661.12H316.449" stroke="black" stroke-width="0.5"/>
<path d="M274.611 663.288C274.611 664.141 274.894 664.97 275.416 665.644C275.939 666.318 276.67 666.8 277.496 667.013" stroke="black" stroke-width="0.5"/>
<path d="M316.45 667.013C317.276 666.8 318.008 666.318 318.53 665.644C319.052 664.97 319.336 664.141 319.336 663.288" stroke="black" stroke-width="0.5"/>
<path d="M319.336 663.288V627.579H316.45" stroke="black" stroke-width="0.5"/>
<path d="M274.611 663.288V627.579H277.496" stroke="black" stroke-width="0.5"/>
<path d="M277.494 623.73H316.449V667.013H277.494V623.73Z" stroke="black" stroke-width="0.5"/>
<path d="M277.494 667.013H316.449V661.122H277.494V667.013ZM277.494 661.122H316.449V623.73H277.494V661.122Z" fill="#D6D6D6"/>
<path d="M316.45 667.013L319.336 663.288V627.579H316.45V667.013ZM274.61 663.288L277.495 667.013V627.579H274.61V663.288Z" fill="#848484"/>
<path d="M322.935 1115.53H361.891" stroke="black" stroke-width="0.5"/>
<path d="M320.052 1117.7C320.052 1118.55 320.335 1119.38 320.858 1120.05C321.38 1120.73 322.112 1121.21 322.938 1121.42" stroke="black" stroke-width="0.5"/>
<path d="M361.892 1121.42C362.718 1121.21 363.449 1120.73 363.972 1120.05C364.494 1119.38 364.777 1118.55 364.777 1117.7" stroke="black" stroke-width="0.5"/>
<path d="M364.777 1117.7V1081.99H361.892" stroke="black" stroke-width="0.5"/>
<path d="M320.052 1117.7V1081.99H322.938" stroke="black" stroke-width="0.5"/>
<path d="M322.936 1078.14H361.891V1121.42H322.936V1078.14Z" stroke="black" stroke-width="0.5"/>
<path d="M322.936 1121.42H361.891V1115.53H322.936V1121.42ZM322.936 1115.53H361.891V1078.14H322.936V1115.53Z" fill="#D6D6D6"/>
<path d="M361.892 1121.42L364.777 1117.7V1081.99H361.892V1121.42ZM320.051 1117.7L322.937 1121.42V1081.99H320.051V1117.7Z" fill="#848484"/>
<path d="M322.935 1039.8H361.891" stroke="black" stroke-width="0.5"/>
<path d="M320.052 1041.97C320.052 1042.82 320.335 1043.65 320.858 1044.32C321.38 1045 322.112 1045.48 322.938 1045.69" stroke="black" stroke-width="0.5"/>
<path d="M361.892 1045.69C362.718 1045.48 363.449 1045 363.972 1044.32C364.494 1043.65 364.777 1042.82 364.777 1041.97" stroke="black" stroke-width="0.5"/>
<path d="M364.777 1041.97V1006.26H361.892" stroke="black" stroke-width="0.5"/>
<path d="M320.052 1041.97V1006.26H322.938" stroke="black" stroke-width="0.5"/>
<path d="M322.936 1002.41H361.891V1045.69H322.936V1002.41Z" stroke="black" stroke-width="0.5"/>
<path d="M322.936 1045.69H361.891V1039.8H322.936V1045.69ZM322.936 1039.8H361.891V1002.41H322.936V1039.8Z" fill="#D6D6D6"/>
<path d="M361.892 1045.69L364.777 1041.97V1006.26H361.892V1045.69ZM320.051 1041.97L322.937 1045.69V1006.26H320.051V1041.97Z" fill="#848484"/>
<path d="M322.935 964.06H361.891" stroke="black" stroke-width="0.5"/>
<path d="M320.052 966.228C320.052 967.081 320.335 967.91 320.858 968.584C321.38 969.258 322.112 969.74 322.938 969.953" stroke="black" stroke-width="0.5"/>
<path d="M361.892 969.953C362.718 969.74 363.449 969.258 363.972 968.584C364.494 967.91 364.777 967.081 364.777 966.228" stroke="black" stroke-width="0.5"/>
<path d="M364.777 966.228V930.519H361.892" stroke="black" stroke-width="0.5"/>
<path d="M320.052 966.228V930.519H322.938" stroke="black" stroke-width="0.5"/>
<path d="M322.936 926.67H361.891V969.953H322.936V926.67Z" stroke="black" stroke-width="0.5"/>
<path d="M322.936 969.953H361.891V964.062H322.936V969.953ZM322.936 964.062H361.891V926.67H322.936V964.062Z" fill="#D6D6D6"/>
<path d="M361.892 969.953L364.777 966.228V930.519H361.892V969.953ZM320.051 966.228L322.937 969.953V930.519H320.051V966.228Z" fill="#848484"/>
<path d="M322.935 888.33H361.891" stroke="black" stroke-width="0.5"/>
<path d="M320.052 890.498C320.052 891.351 320.335 892.18 320.858 892.854C321.38 893.528 322.112 894.01 322.938 894.223" stroke="black" stroke-width="0.5"/>
<path d="M361.892 894.223C362.718 894.01 363.449 893.528 363.972 892.854C364.494 892.18 364.777 891.351 364.777 890.498" stroke="black" stroke-width="0.5"/>
<path d="M364.777 890.498V854.789H361.892" stroke="black" stroke-width="0.5"/>
<path d="M320.052 890.498V854.789H322.938" stroke="black" stroke-width="0.5"/>
<path d="M322.936 850.94H361.891V894.223H322.936V850.94Z" stroke="black" stroke-width="0.5"/>
<path d="M322.936 894.223H361.891V888.332H322.936V894.223ZM322.936 888.332H361.891V850.94H322.936V888.332Z" fill="#D6D6D6"/>
<path d="M361.892 894.223L364.777 890.498V854.789H361.892V894.223ZM320.051 890.498L322.937 894.223V854.789H320.051V890.498Z" fill="#848484"/>
<path d="M322.935 812.59H361.891" stroke="black" stroke-width="0.5"/>
<path d="M320.052 814.758C320.052 815.611 320.335 816.44 320.858 817.114C321.38 817.789 322.112 818.27 322.938 818.483" stroke="black" stroke-width="0.5"/>
<path d="M361.892 818.483C362.718 818.27 363.449 817.789 363.972 817.114C364.494 816.44 364.777 815.611 364.777 814.758" stroke="black" stroke-width="0.5"/>
<path d="M364.777 814.758V779.049H361.892" stroke="black" stroke-width="0.5"/>
<path d="M320.052 814.758V779.049H322.938" stroke="black" stroke-width="0.5"/>
<path d="M322.936 775.2H361.891V818.483H322.936V775.2Z" stroke="black" stroke-width="0.5"/>
<path d="M322.936 818.483H361.891V812.592H322.936V818.483ZM322.936 812.592H361.891V775.2H322.936V812.592Z" fill="#D6D6D6"/>
<path d="M361.892 818.483L364.777 814.758V779.049H361.892V818.483ZM320.051 814.758L322.937 818.483V779.049H320.051V814.758Z" fill="#848484"/>
<path d="M322.935 736.85H361.891" stroke="black" stroke-width="0.5"/>
<path d="M320.052 739.018C320.052 739.871 320.335 740.7 320.858 741.374C321.38 742.048 322.112 742.53 322.938 742.743" stroke="black" stroke-width="0.5"/>
<path d="M361.892 742.743C362.718 742.53 363.449 742.048 363.972 741.374C364.494 740.7 364.777 739.871 364.777 739.018" stroke="black" stroke-width="0.5"/>
<path d="M364.777 739.018V703.309H361.892" stroke="black" stroke-width="0.5"/>
<path d="M320.052 739.018V703.309H322.938" stroke="black" stroke-width="0.5"/>
<path d="M322.936 699.46H361.891V742.743H322.936V699.46Z" stroke="black" stroke-width="0.5"/>
<path d="M322.936 742.743H361.891V736.852H322.936V742.743ZM322.936 736.852H361.891V699.46H322.936V736.852Z" fill="#D6D6D6"/>
<path d="M361.892 742.743L364.777 739.018V703.309H361.892V742.743ZM320.051 739.018L322.937 742.743V703.309H320.051V739.018Z" fill="#848484"/>
<path d="M322.935 661.12H361.891" stroke="black" stroke-width="0.5"/>
<path d="M320.052 663.288C320.052 664.141 320.335 664.97 320.858 665.644C321.38 666.318 322.112 666.8 322.938 667.013" stroke="black" stroke-width="0.5"/>
<path d="M361.892 667.013C362.718 666.8 363.449 666.318 363.972 665.644C364.494 664.97 364.777 664.141 364.777 663.288" stroke="black" stroke-width="0.5"/>
<path d="M364.777 663.288V627.579H361.892" stroke="black" stroke-width="0.5"/>
<path d="M320.052 663.288V627.579H322.938" stroke="black" stroke-width="0.5"/>
<path d="M322.936 623.73H361.891V667.013H322.936V623.73Z" stroke="black" stroke-width="0.5"/>
<path d="M322.936 667.013H361.891V661.122H322.936V667.013ZM322.936 661.122H361.891V623.73H322.936V661.122Z" fill="#D6D6D6"/>
<path d="M361.892 667.013L364.777 663.288V627.579H361.892V667.013ZM320.051 663.288L322.937 667.013V627.579H320.051V663.288Z" fill="#848484"/>
</svg>
