<svg width="794" height="1123" viewBox="0 0 794 1123" fill="none" xmlns="http://www.w3.org/2000/svg">
<g clip-path="url(#clip0_3150_6703)">
<path d="M5.89844 1077.67L5.89844 1116.62" stroke="black" stroke-width="0.5"/>
<path d="M3.72913 1074.78C2.87617 1074.78 2.04737 1075.07 1.37305 1075.59C0.698725 1076.11 0.217145 1076.84 0.00390625 1077.67" stroke="black" stroke-width="0.5"/>
<path d="M0.00390625 1116.62C0.217145 1117.45 0.698725 1118.18 1.37305 1118.7C2.04737 1119.22 2.87617 1119.51 3.72913 1119.51" stroke="black" stroke-width="0.5"/>
<path d="M3.73047 1119.51H39.4393V1116.62" stroke="black" stroke-width="0.5"/>
<path d="M3.73047 1074.78H39.4393V1077.67" stroke="black" stroke-width="0.5"/>
<path d="M43.2874 1077.67L43.2874 1116.62H0.00390625L0.00390625 1077.67H43.2874Z" stroke="black" stroke-width="0.5"/>
<path d="M0.00390625 1077.67L0.00390625 1116.62H5.89526L5.89526 1077.67H0.00390625ZM5.89526 1077.67L5.89526 1116.62H43.2874L43.2874 1077.67H5.89526Z" fill="#D6D6D6"/>
<path d="M0.00390625 1116.62L3.72913 1119.51H39.438V1116.62H0.00390625ZM3.72913 1074.78L0.00390625 1077.67H39.438V1074.78H3.72913Z" fill="#848484"/>
<path d="M5.89844 1024.65L5.89844 1063.6" stroke="black" stroke-width="0.5"/>
<path d="M3.72913 1021.76C2.87617 1021.76 2.04737 1022.05 1.37305 1022.57C0.698725 1023.09 0.217145 1023.82 0.00390625 1024.65" stroke="black" stroke-width="0.5"/>
<path d="M0.00390625 1063.6C0.217145 1064.43 0.698725 1065.16 1.37305 1065.68C2.04737 1066.2 2.87617 1066.49 3.72913 1066.49" stroke="black" stroke-width="0.5"/>
<path d="M3.73047 1066.49H39.4393V1063.6" stroke="black" stroke-width="0.5"/>
<path d="M3.73047 1021.76H39.4393V1024.65" stroke="black" stroke-width="0.5"/>
<path d="M43.2874 1024.65L43.2874 1063.6H0.00390625L0.00390625 1024.65H43.2874Z" stroke="black" stroke-width="0.5"/>
<path d="M0.00390625 1024.65L0.00390625 1063.6H5.89526L5.89526 1024.65H0.00390625ZM5.89526 1024.65L5.89526 1063.6H43.2874L43.2874 1024.65H5.89526Z" fill="#D6D6D6"/>
<path d="M0.00390625 1063.6L3.72913 1066.49H39.438V1063.6H0.00390625ZM3.72913 1021.76L0.00390625 1024.65H39.438V1021.76H3.72913Z" fill="#848484"/>
<path d="M5.89844 918.62L5.89844 957.575" stroke="black" stroke-width="0.5"/>
<path d="M3.72913 915.734C2.87617 915.734 2.04737 916.018 1.37305 916.54C0.698725 917.062 0.217145 917.794 0.00390625 918.62" stroke="black" stroke-width="0.5"/>
<path d="M0.00390625 957.575C0.217145 958.401 0.698725 959.132 1.37305 959.654C2.04737 960.177 2.87617 960.46 3.72913 960.46" stroke="black" stroke-width="0.5"/>
<path d="M3.73047 960.46H39.4393V957.575" stroke="black" stroke-width="0.5"/>
<path d="M3.73047 915.734H39.4393V918.62" stroke="black" stroke-width="0.5"/>
<path d="M43.2874 918.62L43.2874 957.575H0.00390625L0.00390625 918.62H43.2874Z" stroke="black" stroke-width="0.5"/>
<path d="M0.00390625 918.62L0.00390625 957.575H5.89526L5.89526 918.62H0.00390625ZM5.89526 918.62L5.89526 957.575H43.2874L43.2874 918.62H5.89526Z" fill="#D6D6D6"/>
<path d="M0.00390625 957.575L3.72913 960.46H39.438V957.575H0.00390625ZM3.72913 915.734L0.00390625 918.62H39.438V915.734H3.72913Z" fill="#848484"/>
<path d="M5.89844 971.635L5.89844 1010.59" stroke="black" stroke-width="0.5"/>
<path d="M3.72913 968.749C2.87617 968.749 2.04737 969.033 1.37305 969.555C0.698725 970.077 0.217145 970.809 0.00390625 971.635" stroke="black" stroke-width="0.5"/>
<path d="M0.00390625 1010.59C0.217145 1011.42 0.698725 1012.15 1.37305 1012.67C2.04737 1013.19 2.87617 1013.48 3.72913 1013.48" stroke="black" stroke-width="0.5"/>
<path d="M3.73047 1013.48H39.4393V1010.59" stroke="black" stroke-width="0.5"/>
<path d="M3.73047 968.749H39.4393V971.635" stroke="black" stroke-width="0.5"/>
<path d="M43.2874 971.635L43.2874 1010.59H0.00390625L0.00390625 971.635H43.2874Z" stroke="black" stroke-width="0.5"/>
<path d="M0.00390625 971.635L0.00390625 1010.59H5.89526L5.89526 971.635H0.00390625ZM5.89526 971.635L5.89526 1010.59H43.2874L43.2874 971.635H5.89526Z" fill="#D6D6D6"/>
<path d="M0.00390625 1010.59L3.72913 1013.48H39.438V1010.59H0.00390625ZM3.72913 968.749L0.00390625 971.635H39.438V968.749H3.72913Z" fill="#848484"/>
<path d="M50.8555 1122.52V910.457H111.445V1122.52H50.8555Z" fill="#D6D6D6"/>
<path d="M50.8555 1122.52V910.457H111.445V1122.52H50.8555Z" stroke="black" stroke-width="0.5"/>
<path d="M5.89844 865.604L5.89844 904.559" stroke="black" stroke-width="0.5"/>
<path d="M3.72913 862.718C2.87617 862.718 2.04737 863.001 1.37305 863.524C0.698725 864.046 0.217145 864.778 0.00390625 865.604" stroke="black" stroke-width="0.5"/>
<path d="M0.00390625 904.559C0.217145 905.385 0.698725 906.116 1.37305 906.639C2.04737 907.161 2.87617 907.444 3.72913 907.444" stroke="black" stroke-width="0.5"/>
<path d="M3.73047 907.444H39.4393V904.559" stroke="black" stroke-width="0.5"/>
<path d="M3.73047 862.718H39.4393V865.604" stroke="black" stroke-width="0.5"/>
<path d="M43.2874 865.604L43.2874 904.559H0.00390625L0.00390625 865.604H43.2874Z" stroke="black" stroke-width="0.5"/>
<path d="M0.00390625 865.604L0.00390625 904.559H5.89526L5.89526 865.604H0.00390625ZM5.89526 865.604L5.89526 904.559H43.2874L43.2874 865.604H5.89526Z" fill="#D6D6D6"/>
<path d="M0.00390625 904.559L3.72913 907.444H39.438V904.559H0.00390625ZM3.72913 862.718L0.00390625 865.604H39.438V862.718H3.72913Z" fill="#848484"/>
<path d="M5.89844 812.589L5.89844 851.544" stroke="black" stroke-width="0.5"/>
<path d="M3.72913 809.703C2.87617 809.703 2.04737 809.986 1.37305 810.509C0.698725 811.031 0.217145 811.763 0.00390625 812.588" stroke="black" stroke-width="0.5"/>
<path d="M0.00390625 851.544C0.217145 852.37 0.698725 853.101 1.37305 853.623C2.04737 854.146 2.87617 854.429 3.72913 854.429" stroke="black" stroke-width="0.5"/>
<path d="M3.73047 854.429H39.4393V851.544" stroke="black" stroke-width="0.5"/>
<path d="M3.73047 809.703H39.4393V812.588" stroke="black" stroke-width="0.5"/>
<path d="M43.2874 812.589L43.2874 851.544H0.00390625L0.00390625 812.589H43.2874Z" stroke="black" stroke-width="0.5"/>
<path d="M0.00390625 812.589L0.00390625 851.544H5.89526L5.89526 812.589H0.00390625ZM5.89526 812.589L5.89526 851.544H43.2874L43.2874 812.589H5.89526Z" fill="#D6D6D6"/>
<path d="M0.00390625 851.544L3.72913 854.429H39.438V851.544H0.00390625ZM3.72913 809.703L0.00390625 812.589H39.438V809.703H3.72913Z" fill="#848484"/>
<path d="M5.89844 706.557L5.89844 745.512" stroke="black" stroke-width="0.5"/>
<path d="M3.72913 703.671C2.87617 703.671 2.04737 703.955 1.37305 704.477C0.698725 704.999 0.217145 705.731 0.00390625 706.557" stroke="black" stroke-width="0.5"/>
<path d="M0.00390625 745.512C0.217145 746.338 0.698725 747.069 1.37305 747.591C2.04737 748.114 2.87617 748.397 3.72913 748.397" stroke="black" stroke-width="0.5"/>
<path d="M3.73047 748.397H39.4393V745.512" stroke="black" stroke-width="0.5"/>
<path d="M3.73047 703.671H39.4393V706.557" stroke="black" stroke-width="0.5"/>
<path d="M43.2874 706.557L43.2874 745.512H0.00390625L0.00390625 706.557H43.2874Z" stroke="black" stroke-width="0.5"/>
<path d="M0.00390625 706.557L0.00390625 745.512H5.89526L5.89526 706.557H0.00390625ZM5.89526 706.557L5.89526 745.512H43.2874L43.2874 706.557H5.89526Z" fill="#D6D6D6"/>
<path d="M0.00390625 745.512L3.72913 748.397H39.438V745.512H0.00390625ZM3.72913 703.671L0.00390625 706.557H39.438V703.671H3.72913Z" fill="#848484"/>
<path d="M5.89844 759.573L5.89844 798.528" stroke="black" stroke-width="0.5"/>
<path d="M3.72913 756.687C2.87617 756.687 2.04737 756.971 1.37305 757.493C0.698725 758.015 0.217145 758.747 0.00390625 759.573" stroke="black" stroke-width="0.5"/>
<path d="M0.00390625 798.528C0.217145 799.354 0.698725 800.085 1.37305 800.608C2.04737 801.13 2.87617 801.413 3.72913 801.413" stroke="black" stroke-width="0.5"/>
<path d="M3.73047 801.413H39.4393V798.528" stroke="black" stroke-width="0.5"/>
<path d="M3.73047 756.687H39.4393V759.573" stroke="black" stroke-width="0.5"/>
<path d="M43.2874 759.573L43.2874 798.528H0.00390625L0.00390625 759.573H43.2874Z" stroke="black" stroke-width="0.5"/>
<path d="M0.00390625 759.573L0.00390625 798.528H5.89526L5.89526 759.573H0.00390625ZM5.89526 759.573L5.89526 798.528H43.2874L43.2874 759.573H5.89526Z" fill="#D6D6D6"/>
<path d="M0.00390625 798.528L3.72913 801.413H39.438V798.528H0.00390625ZM3.72913 756.687L0.00390625 759.573H39.438V756.687H3.72913Z" fill="#848484"/>
<path d="M50.8555 910.458V698.395H111.445V910.458H50.8555Z" fill="#D6D6D6"/>
<path d="M50.8555 910.458V698.395H111.445V910.458H50.8555Z" stroke="black" stroke-width="0.5"/>
<path d="M156.303 653.433H117.348" stroke="black" stroke-width="0.5"/>
<path d="M159.186 651.263C159.186 650.41 158.903 649.581 158.381 648.907C157.858 648.232 157.127 647.751 156.301 647.538" stroke="black" stroke-width="0.5"/>
<path d="M117.347 647.538C116.521 647.751 115.789 648.232 115.267 648.907C114.744 649.581 114.461 650.41 114.461 651.263" stroke="black" stroke-width="0.5"/>
<path d="M114.461 651.263V686.972H117.347" stroke="black" stroke-width="0.5"/>
<path d="M159.186 651.263V686.972H156.301" stroke="black" stroke-width="0.5"/>
<path d="M156.303 690.821H117.348V647.538H156.303V690.821Z" stroke="black" stroke-width="0.5"/>
<path d="M156.303 647.538H117.348V653.429H156.303V647.538ZM156.303 653.429H117.348V690.821H156.303V653.429Z" fill="#D6D6D6"/>
<path d="M117.347 647.538L114.461 651.263V686.972H117.347V647.538ZM159.187 651.263L156.302 647.538V686.972H159.187V651.263Z" fill="#848484"/>
<path d="M209.315 653.433H170.359" stroke="black" stroke-width="0.5"/>
<path d="M212.198 651.263C212.198 650.41 211.915 649.581 211.392 648.907C210.87 648.232 210.138 647.751 209.312 647.538" stroke="black" stroke-width="0.5"/>
<path d="M170.358 647.538C169.532 647.751 168.801 648.232 168.278 648.907C167.756 649.581 167.473 650.41 167.473 651.263" stroke="black" stroke-width="0.5"/>
<path d="M167.473 651.263V686.972H170.358" stroke="black" stroke-width="0.5"/>
<path d="M212.198 651.263V686.972H209.312" stroke="black" stroke-width="0.5"/>
<path d="M209.314 690.821H170.359V647.538H209.314V690.821Z" stroke="black" stroke-width="0.5"/>
<path d="M209.314 647.538H170.359V653.429H209.314V647.538ZM209.314 653.429H170.359V690.821H209.314V653.429Z" fill="#D6D6D6"/>
<path d="M170.358 647.538L167.473 651.263V686.972H170.358V647.538ZM212.199 651.263L209.313 647.538V686.972H212.199V651.263Z" fill="#848484"/>
<path d="M315.346 653.433H276.391" stroke="black" stroke-width="0.5"/>
<path d="M318.229 651.263C318.229 650.41 317.946 649.581 317.424 648.907C316.901 648.232 316.17 647.751 315.344 647.538" stroke="black" stroke-width="0.5"/>
<path d="M276.389 647.538C275.564 647.751 274.832 648.232 274.31 648.907C273.787 649.581 273.504 650.41 273.504 651.263" stroke="black" stroke-width="0.5"/>
<path d="M273.504 651.263V686.972H276.389" stroke="black" stroke-width="0.5"/>
<path d="M318.229 651.263V686.972H315.344" stroke="black" stroke-width="0.5"/>
<path d="M315.346 690.821H276.391V647.538H315.346V690.821Z" stroke="black" stroke-width="0.5"/>
<path d="M315.346 647.538H276.391V653.429H315.346V647.538ZM315.346 653.429H276.391V690.821H315.346V653.429Z" fill="#D6D6D6"/>
<path d="M276.389 647.538L273.504 651.263V686.972H276.389V647.538ZM318.23 651.263L315.345 647.538V686.972H318.23V651.263Z" fill="#848484"/>
<path d="M262.334 653.433H223.379" stroke="black" stroke-width="0.5"/>
<path d="M265.218 651.263C265.218 650.41 264.934 649.581 264.412 648.907C263.89 648.232 263.158 647.751 262.332 647.538" stroke="black" stroke-width="0.5"/>
<path d="M223.378 647.538C222.552 647.751 221.82 648.232 221.298 648.907C220.776 649.581 220.492 650.41 220.492 651.263" stroke="black" stroke-width="0.5"/>
<path d="M220.492 651.263V686.972H223.378" stroke="black" stroke-width="0.5"/>
<path d="M265.218 651.263V686.972H262.332" stroke="black" stroke-width="0.5"/>
<path d="M262.334 690.821H223.379V647.538H262.334V690.821Z" stroke="black" stroke-width="0.5"/>
<path d="M262.334 647.538H223.379V653.429H262.334V647.538ZM262.334 653.429H223.379V690.821H262.334V653.429Z" fill="#D6D6D6"/>
<path d="M223.378 647.538L220.492 651.263V686.972H223.378V647.538ZM265.218 651.263L262.333 647.538V686.972H265.218V651.263Z" fill="#848484"/>
<path d="M111.449 698.395H323.512V758.984H111.449V698.395Z" fill="#D6D6D6"/>
<path d="M111.449 698.395H323.512V758.984H111.449V698.395Z" stroke="black" stroke-width="0.5"/>
<path d="M429.059 1116.62V1077.67" stroke="black" stroke-width="0.5"/>
<path d="M431.228 1119.51C432.081 1119.51 432.91 1119.22 433.584 1118.7C434.258 1118.18 434.74 1117.45 434.953 1116.62" stroke="black" stroke-width="0.5"/>
<path d="M434.953 1077.67C434.74 1076.84 434.258 1076.11 433.584 1075.59C432.91 1075.07 432.081 1074.78 431.228 1074.78" stroke="black" stroke-width="0.5"/>
<path d="M431.227 1074.78H395.518V1077.67" stroke="black" stroke-width="0.5"/>
<path d="M431.227 1119.51H395.518V1116.62" stroke="black" stroke-width="0.5"/>
<path d="M391.67 1116.62V1077.67H434.953V1116.62H391.67Z" stroke="black" stroke-width="0.5"/>
<path d="M434.953 1116.62V1077.67H429.062V1116.62H434.953ZM429.062 1116.62V1077.67H391.67V1116.62H429.062Z" fill="#D6D6D6"/>
<path d="M434.953 1077.67L431.228 1074.78H395.519V1077.67H434.953ZM431.228 1119.51L434.953 1116.62H395.519V1119.51H431.228Z" fill="#848484"/>
<path d="M429.059 1063.6V1024.65" stroke="black" stroke-width="0.5"/>
<path d="M431.228 1066.49C432.081 1066.49 432.91 1066.2 433.584 1065.68C434.258 1065.16 434.74 1064.43 434.953 1063.6" stroke="black" stroke-width="0.5"/>
<path d="M434.953 1024.65C434.74 1023.82 434.258 1023.09 433.584 1022.57C432.91 1022.05 432.081 1021.76 431.228 1021.76" stroke="black" stroke-width="0.5"/>
<path d="M431.227 1021.76H395.518V1024.65" stroke="black" stroke-width="0.5"/>
<path d="M431.227 1066.49H395.518V1063.6" stroke="black" stroke-width="0.5"/>
<path d="M391.67 1063.6V1024.65H434.953V1063.6H391.67Z" stroke="black" stroke-width="0.5"/>
<path d="M434.953 1063.6V1024.65H429.062V1063.6H434.953ZM429.062 1063.6V1024.65H391.67V1063.6H429.062Z" fill="#D6D6D6"/>
<path d="M434.953 1024.65L431.228 1021.76H395.519V1024.65H434.953ZM431.228 1066.49L434.953 1063.6H395.519V1066.49H431.228Z" fill="#848484"/>
<path d="M429.059 957.575V918.619" stroke="black" stroke-width="0.5"/>
<path d="M431.228 960.46C432.081 960.46 432.91 960.177 433.584 959.655C434.258 959.132 434.74 958.401 434.953 957.575" stroke="black" stroke-width="0.5"/>
<path d="M434.953 918.619C434.74 917.794 434.258 917.062 433.584 916.54C432.91 916.017 432.081 915.734 431.228 915.734" stroke="black" stroke-width="0.5"/>
<path d="M431.227 915.734H395.518V918.619" stroke="black" stroke-width="0.5"/>
<path d="M431.227 960.46H395.518V957.575" stroke="black" stroke-width="0.5"/>
<path d="M391.67 957.575V918.619H434.953V957.575H391.67Z" stroke="black" stroke-width="0.5"/>
<path d="M434.953 957.575V918.619H429.062V957.575H434.953ZM429.062 957.575V918.619H391.67V957.575H429.062Z" fill="#D6D6D6"/>
<path d="M434.953 918.619L431.228 915.734H395.519V918.619H434.953ZM431.228 960.46L434.953 957.575H395.519V960.46H431.228Z" fill="#848484"/>
<path d="M429.059 1010.59V971.635" stroke="black" stroke-width="0.5"/>
<path d="M431.228 1013.48C432.081 1013.48 432.91 1013.19 433.584 1012.67C434.258 1012.15 434.74 1011.42 434.953 1010.59" stroke="black" stroke-width="0.5"/>
<path d="M434.953 971.635C434.74 970.809 434.258 970.077 433.584 969.555C432.91 969.032 432.081 968.749 431.228 968.749" stroke="black" stroke-width="0.5"/>
<path d="M431.227 968.749H395.518V971.635" stroke="black" stroke-width="0.5"/>
<path d="M431.227 1013.48H395.518V1010.59" stroke="black" stroke-width="0.5"/>
<path d="M391.67 1010.59V971.635H434.953V1010.59H391.67Z" stroke="black" stroke-width="0.5"/>
<path d="M434.953 1010.59V971.635H429.062V1010.59H434.953ZM429.062 1010.59V971.635H391.67V1010.59H429.062Z" fill="#D6D6D6"/>
<path d="M434.953 971.635L431.228 968.749H395.519V971.635H434.953ZM431.228 1013.48L434.953 1010.59H395.519V1013.48H431.228Z" fill="#848484"/>
<path d="M262.918 1122.52V910.457H323.507V1122.52H262.918Z" fill="#D6D6D6"/>
<path d="M262.918 1122.52V910.457H323.507V1122.52H262.918Z" stroke="black" stroke-width="0.5"/>
<path d="M429.059 904.559V865.604" stroke="black" stroke-width="0.5"/>
<path d="M431.228 907.444C432.081 907.444 432.91 907.161 433.584 906.638C434.258 906.116 434.74 905.384 434.953 904.559" stroke="black" stroke-width="0.5"/>
<path d="M434.953 865.604C434.74 864.778 434.258 864.046 433.584 863.524C432.91 863.001 432.081 862.718 431.228 862.718" stroke="black" stroke-width="0.5"/>
<path d="M431.227 862.718H395.518V865.604" stroke="black" stroke-width="0.5"/>
<path d="M431.227 907.444H395.518V904.559" stroke="black" stroke-width="0.5"/>
<path d="M391.67 904.559V865.604H434.953V904.559H391.67Z" stroke="black" stroke-width="0.5"/>
<path d="M434.953 904.559V865.604H429.062V904.559H434.953ZM429.062 904.559V865.604H391.67V904.559H429.062Z" fill="#D6D6D6"/>
<path d="M434.953 865.604L431.228 862.718H395.519V865.604H434.953ZM431.228 907.444L434.953 904.559H395.519V907.444H431.228Z" fill="#848484"/>
<path d="M429.059 851.544V812.589" stroke="black" stroke-width="0.5"/>
<path d="M431.228 854.43C432.081 854.43 432.91 854.146 433.584 853.624C434.258 853.101 434.74 852.37 434.953 851.544" stroke="black" stroke-width="0.5"/>
<path d="M434.953 812.589C434.74 811.763 434.258 811.031 433.584 810.509C432.91 809.987 432.081 809.703 431.228 809.703" stroke="black" stroke-width="0.5"/>
<path d="M431.227 809.703H395.518V812.589" stroke="black" stroke-width="0.5"/>
<path d="M431.227 854.43H395.518V851.544" stroke="black" stroke-width="0.5"/>
<path d="M391.67 851.544V812.589H434.953V851.544H391.67Z" stroke="black" stroke-width="0.5"/>
<path d="M434.953 851.544V812.589H429.062V851.544H434.953ZM429.062 851.544V812.589H391.67V851.544H429.062Z" fill="#D6D6D6"/>
<path d="M434.953 812.589L431.228 809.703H395.519V812.589H434.953ZM431.228 854.429L434.953 851.544H395.519V854.429H431.228Z" fill="#848484"/>
<path d="M429.059 745.512V706.556" stroke="black" stroke-width="0.5"/>
<path d="M431.228 748.397C432.081 748.397 432.91 748.114 433.584 747.592C434.258 747.069 434.74 746.338 434.953 745.512" stroke="black" stroke-width="0.5"/>
<path d="M434.953 706.556C434.74 705.731 434.258 704.999 433.584 704.477C432.91 703.954 432.081 703.671 431.228 703.671" stroke="black" stroke-width="0.5"/>
<path d="M431.227 703.671H395.518V706.556" stroke="black" stroke-width="0.5"/>
<path d="M431.227 748.397H395.518V745.512" stroke="black" stroke-width="0.5"/>
<path d="M391.67 745.512V706.556H434.953V745.512H391.67Z" stroke="black" stroke-width="0.5"/>
<path d="M434.953 745.512V706.556H429.062V745.512H434.953ZM429.062 745.512V706.556H391.67V745.512H429.062Z" fill="#D6D6D6"/>
<path d="M434.953 706.556L431.228 703.671H395.519V706.556H434.953ZM431.228 748.397L434.953 745.512H395.519V748.397H431.228Z" fill="#848484"/>
<path d="M429.059 798.528V759.573" stroke="black" stroke-width="0.5"/>
<path d="M431.228 801.413C432.081 801.413 432.91 801.13 433.584 800.608C434.258 800.085 434.74 799.354 434.953 798.528" stroke="black" stroke-width="0.5"/>
<path d="M434.953 759.573C434.74 758.747 434.258 758.015 433.584 757.493C432.91 756.97 432.081 756.687 431.228 756.687" stroke="black" stroke-width="0.5"/>
<path d="M431.227 756.687H395.518V759.573" stroke="black" stroke-width="0.5"/>
<path d="M431.227 801.413H395.518V798.528" stroke="black" stroke-width="0.5"/>
<path d="M391.67 798.528V759.573H434.953V798.528H391.67Z" stroke="black" stroke-width="0.5"/>
<path d="M434.953 798.528V759.573H429.062V798.528H434.953ZM429.062 798.528V759.573H391.67V798.528H429.062Z" fill="#D6D6D6"/>
<path d="M434.953 759.573L431.228 756.687H395.519V759.573H434.953ZM431.228 801.413L434.953 798.528H395.519V801.413H431.228Z" fill="#848484"/>
<path d="M262.918 910.458V698.395H323.507V910.458H262.918Z" fill="#D6D6D6"/>
<path d="M262.918 910.458V698.395H323.507V910.458H262.918Z" stroke="black" stroke-width="0.5"/>
</g>
<defs>
<clipPath id="clip0_3150_6703">
<rect width="793.701" height="1122.52" fill="white"/>
</clipPath>
</defs>
</svg>
