<svg width="1043" height="1043" viewBox="0 0 1043 1043" fill="none" xmlns="http://www.w3.org/2000/svg">
<path d="M387.422 495.837V547.159" stroke="black" stroke-linecap="round"/>
<path d="M384.564 492.035C383.44 492.035 382.349 492.409 381.46 493.097C380.572 493.785 379.937 494.749 379.656 495.837" stroke="black" stroke-linecap="round"/>
<path d="M379.656 547.158C379.937 548.246 380.572 549.21 381.46 549.898C382.349 550.587 383.44 550.96 384.564 550.96" stroke="black" stroke-linecap="round"/>
<path d="M384.566 550.96H431.611V547.158" stroke="black" stroke-linecap="round"/>
<path d="M384.566 492.035H431.611V495.837" stroke="black" stroke-linecap="round"/>
<path d="M436.68 495.837V547.159H379.656V495.837H436.68Z" stroke="black" stroke-linecap="round"/>
<path d="M444.833 408.552L408.543 444.842" stroke="black" stroke-linecap="round"/>
<path d="M445.502 403.842C444.708 403.048 443.672 402.54 442.557 402.398C441.442 402.256 440.312 402.489 439.344 403.06" stroke="black" stroke-linecap="round"/>
<path d="M403.051 439.35C402.481 440.318 402.248 441.449 402.389 442.563C402.531 443.678 403.039 444.714 403.834 445.509" stroke="black" stroke-linecap="round"/>
<path d="M403.836 445.508L437.102 478.774L439.79 476.086" stroke="black" stroke-linecap="round"/>
<path d="M445.501 403.843L478.766 437.108L476.078 439.796" stroke="black" stroke-linecap="round"/>
<path d="M479.663 443.382L443.373 479.672L403.051 439.35L439.341 403.06L479.663 443.382Z" stroke="black" stroke-linecap="round"/>
<path d="M547.15 387.428H495.828" stroke="black" stroke-linecap="round"/>
<path d="M550.954 384.57C550.954 383.446 550.581 382.354 549.892 381.466C549.204 380.578 548.24 379.943 547.152 379.662" stroke="black" stroke-linecap="round"/>
<path d="M495.829 379.662C494.741 379.943 493.777 380.578 493.089 381.466C492.401 382.354 492.027 383.446 492.027 384.57" stroke="black" stroke-linecap="round"/>
<path d="M492.027 384.57V431.615H495.829" stroke="black" stroke-linecap="round"/>
<path d="M550.954 384.57V431.615H547.152" stroke="black" stroke-linecap="round"/>
<path d="M547.15 436.686H495.828V379.662H547.15V436.686Z" stroke="black" stroke-linecap="round"/>
<path d="M634.438 444.841L598.148 408.551" stroke="black" stroke-linecap="round"/>
<path d="M639.151 445.508C639.946 444.713 640.454 443.677 640.596 442.562C640.737 441.447 640.504 440.317 639.934 439.349" stroke="black" stroke-linecap="round"/>
<path d="M603.641 403.059C602.673 402.489 601.543 402.256 600.428 402.397C599.313 402.539 598.277 403.047 597.483 403.842" stroke="black" stroke-linecap="round"/>
<path d="M597.48 403.841L564.215 437.107L566.903 439.795" stroke="black" stroke-linecap="round"/>
<path d="M639.149 445.507L605.883 478.773L603.195 476.085" stroke="black" stroke-linecap="round"/>
<path d="M599.608 479.671L563.319 443.381L603.641 403.059L639.93 439.349L599.608 479.671Z" stroke="black" stroke-linecap="round"/>
<path d="M655.562 547.159V495.837" stroke="black" stroke-linecap="round"/>
<path d="M658.42 550.96C659.544 550.96 660.636 550.587 661.524 549.899C662.413 549.211 663.047 548.247 663.328 547.159" stroke="black" stroke-linecap="round"/>
<path d="M663.328 495.837C663.047 494.749 662.413 493.785 661.524 493.097C660.636 492.409 659.544 492.036 658.42 492.036" stroke="black" stroke-linecap="round"/>
<path d="M658.418 492.036H611.373V495.837" stroke="black" stroke-linecap="round"/>
<path d="M658.418 550.96H611.373V547.159" stroke="black" stroke-linecap="round"/>
<path d="M606.304 547.158V495.837H663.328V547.158H606.304Z" stroke="black" stroke-linecap="round"/>
<path d="M598.151 634.445L634.441 598.155" stroke="black" stroke-linecap="round"/>
<path d="M597.486 639.155C598.281 639.949 599.317 640.457 600.432 640.599C601.546 640.741 602.677 640.508 603.645 639.937" stroke="black" stroke-linecap="round"/>
<path d="M639.933 603.647C640.504 602.679 640.737 601.548 640.595 600.434C640.453 599.319 639.945 598.283 639.151 597.488" stroke="black" stroke-linecap="round"/>
<path d="M639.152 597.489L605.887 564.223L603.199 566.911" stroke="black" stroke-linecap="round"/>
<path d="M597.488 639.154L564.222 605.889L566.91 603.201" stroke="black" stroke-linecap="round"/>
<path d="M563.322 599.615L599.612 563.325L639.934 603.647L603.644 639.937L563.322 599.615Z" stroke="black" stroke-linecap="round"/>
<path d="M495.835 655.565H547.156" stroke="black" stroke-linecap="round"/>
<path d="M492.03 658.424C492.03 659.548 492.404 660.64 493.092 661.528C493.78 662.417 494.744 663.051 495.832 663.332" stroke="black" stroke-linecap="round"/>
<path d="M547.155 663.332C548.243 663.051 549.207 662.417 549.895 661.528C550.584 660.64 550.957 659.548 550.957 658.424" stroke="black" stroke-linecap="round"/>
<path d="M550.957 658.424V611.38H547.155" stroke="black" stroke-linecap="round"/>
<path d="M492.03 658.424V611.38H495.832" stroke="black" stroke-linecap="round"/>
<path d="M495.835 606.308H547.156V663.332H495.835V606.308Z" stroke="black" stroke-linecap="round"/>
<path d="M408.546 598.155L444.836 634.445" stroke="black" stroke-linecap="round"/>
<path d="M403.833 597.488C403.038 598.283 402.53 599.319 402.389 600.433C402.247 601.548 402.48 602.678 403.051 603.646" stroke="black" stroke-linecap="round"/>
<path d="M439.343 639.936C440.311 640.507 441.441 640.74 442.556 640.598C443.671 640.457 444.707 639.949 445.502 639.154" stroke="black" stroke-linecap="round"/>
<path d="M445.504 639.154L478.77 605.889L476.081 603.201" stroke="black" stroke-linecap="round"/>
<path d="M403.835 597.488L437.101 564.223L439.789 566.911" stroke="black" stroke-linecap="round"/>
<path d="M443.376 563.325L479.666 599.614L439.344 639.937L403.054 603.647L443.376 563.325Z" stroke="black" stroke-linecap="round"/>
<path d="M596.329 521.497C596.327 501.652 588.441 482.62 574.407 468.588C560.373 454.556 541.34 446.673 521.495 446.673C501.649 446.673 482.616 454.556 468.582 468.588C454.548 482.62 446.663 501.652 446.66 521.497C446.663 541.343 454.548 560.375 468.582 574.407C482.616 588.439 501.649 596.322 521.495 596.322C541.34 596.322 560.373 588.439 574.407 574.407C588.441 560.375 596.327 541.343 596.329 521.497Z" stroke="black" stroke-linecap="round"/>
<path d="M766.586 495.837V547.159" stroke="black" stroke-linecap="round"/>
<path d="M763.728 492.035C762.604 492.035 761.513 492.409 760.624 493.097C759.736 493.785 759.101 494.749 758.82 495.837" stroke="black" stroke-linecap="round"/>
<path d="M758.82 547.158C759.101 548.246 759.736 549.21 760.624 549.898C761.513 550.587 762.604 550.96 763.728 550.96" stroke="black" stroke-linecap="round"/>
<path d="M763.727 550.96H810.771V547.158" stroke="black" stroke-linecap="round"/>
<path d="M763.727 492.035H810.771V495.837" stroke="black" stroke-linecap="round"/>
<path d="M815.844 495.837V547.159H758.82V495.837H815.844Z" stroke="black" stroke-linecap="round"/>
<path d="M823.997 408.552L787.707 444.842" stroke="black" stroke-linecap="round"/>
<path d="M824.666 403.842C823.872 403.048 822.836 402.54 821.721 402.398C820.606 402.256 819.476 402.489 818.508 403.06" stroke="black" stroke-linecap="round"/>
<path d="M782.215 439.35C781.645 440.318 781.412 441.448 781.554 442.563C781.695 443.678 782.203 444.714 782.998 445.508" stroke="black" stroke-linecap="round"/>
<path d="M783 445.508L816.266 478.774L818.954 476.086" stroke="black" stroke-linecap="round"/>
<path d="M824.665 403.843L857.93 437.108L855.242 439.796" stroke="black" stroke-linecap="round"/>
<path d="M858.827 443.382L822.537 479.672L782.215 439.35L818.505 403.06L858.827 443.382Z" stroke="black" stroke-linecap="round"/>
<path d="M926.314 387.428H874.992" stroke="black" stroke-linecap="round"/>
<path d="M930.114 384.57C930.114 383.446 929.741 382.354 929.053 381.466C928.364 380.578 927.401 379.943 926.312 379.662" stroke="black" stroke-linecap="round"/>
<path d="M874.993 379.662C873.905 379.943 872.941 380.578 872.253 381.466C871.565 382.354 871.191 383.446 871.191 384.57" stroke="black" stroke-linecap="round"/>
<path d="M871.191 384.57V431.615H874.993" stroke="black" stroke-linecap="round"/>
<path d="M930.114 384.57V431.615H926.312" stroke="black" stroke-linecap="round"/>
<path d="M926.314 436.686H874.992V379.662H926.314V436.686Z" stroke="black" stroke-linecap="round"/>
<path d="M1013.59 444.841L977.305 408.551" stroke="black" stroke-linecap="round"/>
<path d="M1018.31 445.508C1019.1 444.713 1019.61 443.677 1019.75 442.562C1019.89 441.447 1019.66 440.317 1019.09 439.349" stroke="black" stroke-linecap="round"/>
<path d="M982.798 403.059C981.829 402.489 980.699 402.256 979.584 402.397C978.47 402.539 977.434 403.047 976.639 403.842" stroke="black" stroke-linecap="round"/>
<path d="M976.637 403.841L943.371 437.107L946.059 439.795" stroke="black" stroke-linecap="round"/>
<path d="M1018.31 445.507L985.04 478.773L982.352 476.085" stroke="black" stroke-linecap="round"/>
<path d="M978.765 479.671L942.475 443.381L982.797 403.059L1019.09 439.349L978.765 479.671Z" stroke="black" stroke-linecap="round"/>
<path d="M1034.73 547.159V495.837" stroke="black" stroke-linecap="round"/>
<path d="M1037.59 550.96C1038.72 550.96 1039.81 550.587 1040.7 549.899C1041.58 549.211 1042.22 548.247 1042.5 547.159" stroke="black" stroke-linecap="round"/>
<path d="M1042.5 495.837C1042.22 494.749 1041.58 493.785 1040.7 493.097C1039.81 492.409 1038.72 492.036 1037.59 492.036" stroke="black" stroke-linecap="round"/>
<path d="M1037.59 492.036H990.549V495.837" stroke="black" stroke-linecap="round"/>
<path d="M1037.59 550.96H990.549V547.159" stroke="black" stroke-linecap="round"/>
<path d="M985.476 547.158V495.837H1042.5V547.158H985.476Z" stroke="black" stroke-linecap="round"/>
<path d="M977.308 634.445L1013.6 598.155" stroke="black" stroke-linecap="round"/>
<path d="M976.638 639.155C977.433 639.949 978.469 640.457 979.584 640.599C980.699 640.741 981.829 640.508 982.797 639.937" stroke="black" stroke-linecap="round"/>
<path d="M1019.09 603.647C1019.66 602.679 1019.89 601.548 1019.75 600.434C1019.61 599.319 1019.1 598.283 1018.31 597.488" stroke="black" stroke-linecap="round"/>
<path d="M1018.3 597.489L985.039 564.223L982.351 566.911" stroke="black" stroke-linecap="round"/>
<path d="M976.64 639.154L943.374 605.889L946.062 603.201" stroke="black" stroke-linecap="round"/>
<path d="M942.478 599.615L978.768 563.325L1019.09 603.647L982.8 639.937L942.478 599.615Z" stroke="black" stroke-linecap="round"/>
<path d="M874.991 655.565H926.312" stroke="black" stroke-linecap="round"/>
<path d="M871.191 658.424C871.191 659.548 871.564 660.64 872.252 661.528C872.94 662.417 873.904 663.051 874.992 663.332" stroke="black" stroke-linecap="round"/>
<path d="M926.312 663.332C927.4 663.051 928.364 662.417 929.052 661.528C929.74 660.64 930.113 659.548 930.113 658.424" stroke="black" stroke-linecap="round"/>
<path d="M930.113 658.424V611.38H926.312" stroke="black" stroke-linecap="round"/>
<path d="M871.191 658.424V611.38H874.992" stroke="black" stroke-linecap="round"/>
<path d="M874.991 606.308H926.312V663.332H874.991V606.308Z" stroke="black" stroke-linecap="round"/>
<path d="M787.71 598.155L824 634.445" stroke="black" stroke-linecap="round"/>
<path d="M782.997 597.488C782.203 598.283 781.694 599.319 781.553 600.433C781.411 601.548 781.644 602.678 782.215 603.646" stroke="black" stroke-linecap="round"/>
<path d="M818.507 639.936C819.475 640.507 820.605 640.74 821.72 640.598C822.835 640.457 823.871 639.949 824.666 639.154" stroke="black" stroke-linecap="round"/>
<path d="M824.668 639.154L857.934 605.889L855.245 603.201" stroke="black" stroke-linecap="round"/>
<path d="M782.999 597.488L816.265 564.223L818.953 566.911" stroke="black" stroke-linecap="round"/>
<path d="M822.54 563.325L858.83 599.614L818.508 639.937L782.218 603.647L822.54 563.325Z" stroke="black" stroke-linecap="round"/>
<path d="M975.49 521.497C975.487 501.652 967.601 482.62 953.567 468.588C939.534 454.556 920.501 446.673 900.655 446.673C880.809 446.673 861.776 454.556 847.742 468.588C833.708 482.62 825.823 501.652 825.82 521.497C825.823 541.343 833.708 560.375 847.742 574.407C861.776 588.439 880.809 596.322 900.655 596.322C920.501 596.322 939.534 588.439 953.567 574.407C967.601 560.375 975.487 541.343 975.49 521.497Z" stroke="black" stroke-linecap="round"/>
<path d="M577.004 874.994V926.315" stroke="black" stroke-linecap="round"/>
<path d="M574.146 871.192C573.022 871.192 571.931 871.565 571.042 872.254C570.154 872.942 569.519 873.906 569.238 874.994" stroke="black" stroke-linecap="round"/>
<path d="M569.238 926.315C569.519 927.403 570.154 928.367 571.042 929.055C571.931 929.743 573.022 930.117 574.146 930.117" stroke="black" stroke-linecap="round"/>
<path d="M574.148 930.117H621.193V926.315" stroke="black" stroke-linecap="round"/>
<path d="M574.148 871.192H621.193V874.994" stroke="black" stroke-linecap="round"/>
<path d="M626.262 874.994V926.315H569.238V874.994H626.262Z" stroke="black" stroke-linecap="round"/>
<path d="M634.415 787.714L598.125 824.004" stroke="black" stroke-linecap="round"/>
<path d="M635.084 783.004C634.29 782.21 633.254 781.702 632.139 781.56C631.024 781.419 629.894 781.651 628.926 782.222" stroke="black" stroke-linecap="round"/>
<path d="M592.633 818.512C592.063 819.48 591.83 820.61 591.971 821.725C592.113 822.84 592.621 823.876 593.416 824.671" stroke="black" stroke-linecap="round"/>
<path d="M593.418 824.67L626.684 857.936L629.372 855.248" stroke="black" stroke-linecap="round"/>
<path d="M635.083 783.004L668.348 816.27L665.66 818.958" stroke="black" stroke-linecap="round"/>
<path d="M669.245 822.544L632.955 858.834L592.633 818.512L628.923 782.222L669.245 822.544Z" stroke="black" stroke-linecap="round"/>
<path d="M736.732 766.59H685.41" stroke="black" stroke-linecap="round"/>
<path d="M740.536 763.732C740.536 762.608 740.163 761.516 739.474 760.628C738.786 759.74 737.822 759.105 736.734 758.824" stroke="black" stroke-linecap="round"/>
<path d="M685.411 758.824C684.323 759.105 683.359 759.74 682.671 760.628C681.983 761.516 681.609 762.608 681.609 763.732" stroke="black" stroke-linecap="round"/>
<path d="M681.609 763.732V810.777H685.411" stroke="black" stroke-linecap="round"/>
<path d="M740.536 763.732V810.777H736.734" stroke="black" stroke-linecap="round"/>
<path d="M736.732 815.848H685.41V758.824H736.732V815.848Z" stroke="black" stroke-linecap="round"/>
<path d="M824.024 824.003L787.734 787.713" stroke="black" stroke-linecap="round"/>
<path d="M828.737 824.67C829.532 823.875 830.04 822.839 830.182 821.724C830.323 820.609 830.09 819.479 829.52 818.511" stroke="black" stroke-linecap="round"/>
<path d="M793.227 782.221C792.259 781.651 791.129 781.418 790.014 781.559C788.899 781.701 787.863 782.209 787.069 783.004" stroke="black" stroke-linecap="round"/>
<path d="M787.066 783.003L753.801 816.269L756.489 818.957" stroke="black" stroke-linecap="round"/>
<path d="M828.735 824.669L795.469 857.935L792.781 855.247" stroke="black" stroke-linecap="round"/>
<path d="M789.194 858.833L752.905 822.543L793.227 782.221L829.516 818.511L789.194 858.833Z" stroke="black" stroke-linecap="round"/>
<path d="M845.148 926.323V875.001" stroke="black" stroke-linecap="round"/>
<path d="M848.006 930.125C849.13 930.125 850.222 929.751 851.11 929.063C851.999 928.375 852.633 927.411 852.914 926.323" stroke="black" stroke-linecap="round"/>
<path d="M852.914 875.002C852.633 873.914 851.999 872.95 851.11 872.262C850.222 871.574 849.13 871.2 848.006 871.2" stroke="black" stroke-linecap="round"/>
<path d="M848.004 871.2H800.959V875.002" stroke="black" stroke-linecap="round"/>
<path d="M848.004 930.125H800.959V926.323" stroke="black" stroke-linecap="round"/>
<path d="M795.89 926.323V875.001H852.914V926.323H795.89Z" stroke="black" stroke-linecap="round"/>
<path d="M787.737 1013.6L824.027 977.315" stroke="black" stroke-linecap="round"/>
<path d="M787.068 1018.31C787.863 1019.11 788.899 1019.62 790.014 1019.76C791.128 1019.9 792.259 1019.67 793.227 1019.1" stroke="black" stroke-linecap="round"/>
<path d="M829.519 982.806C830.09 981.838 830.322 980.708 830.181 979.593C830.039 978.479 829.531 977.442 828.737 976.648" stroke="black" stroke-linecap="round"/>
<path d="M828.734 976.648L795.469 943.382L792.781 946.07" stroke="black" stroke-linecap="round"/>
<path d="M787.07 1018.31L753.804 985.048L756.492 982.36" stroke="black" stroke-linecap="round"/>
<path d="M752.908 978.774L789.197 942.485L829.52 982.807L793.23 1019.1L752.908 978.774Z" stroke="black" stroke-linecap="round"/>
<path d="M685.417 1034.73H736.738" stroke="black" stroke-linecap="round"/>
<path d="M681.612 1037.58C681.612 1038.71 681.986 1039.8 682.674 1040.69C683.362 1041.58 684.326 1042.21 685.414 1042.49" stroke="black" stroke-linecap="round"/>
<path d="M736.737 1042.49C737.826 1042.21 738.789 1041.58 739.478 1040.69C740.166 1039.8 740.539 1038.71 740.539 1037.58" stroke="black" stroke-linecap="round"/>
<path d="M740.539 1037.58V990.539H736.737" stroke="black" stroke-linecap="round"/>
<path d="M681.612 1037.58V990.539H685.414" stroke="black" stroke-linecap="round"/>
<path d="M685.417 985.468H736.738V1042.49H685.417V985.468Z" stroke="black" stroke-linecap="round"/>
<path d="M598.128 977.315L634.418 1013.6" stroke="black" stroke-linecap="round"/>
<path d="M593.415 976.648C592.62 977.442 592.112 978.478 591.971 979.593C591.829 980.708 592.062 981.838 592.633 982.806" stroke="black" stroke-linecap="round"/>
<path d="M628.925 1019.1C629.893 1019.67 631.023 1019.9 632.138 1019.76C633.253 1019.62 634.289 1019.11 635.084 1018.31" stroke="black" stroke-linecap="round"/>
<path d="M635.086 1018.31L668.352 985.048L665.663 982.36" stroke="black" stroke-linecap="round"/>
<path d="M593.417 976.648L626.683 943.382L629.371 946.07" stroke="black" stroke-linecap="round"/>
<path d="M632.958 942.484L669.248 978.774L628.926 1019.1L592.636 982.806L632.958 942.484Z" stroke="black" stroke-linecap="round"/>
<path d="M785.907 900.66C785.905 880.814 778.019 861.782 763.985 847.75C749.952 833.718 730.919 825.835 711.073 825.835C691.227 825.835 672.194 833.718 658.16 847.75C644.126 861.782 636.241 880.814 636.238 900.66C636.241 920.505 644.126 939.537 658.16 953.569C672.194 967.601 691.227 975.484 711.073 975.484C730.919 975.484 749.952 967.601 763.985 953.569C778.019 939.537 785.905 920.505 785.907 900.66Z" stroke="black" stroke-linecap="round"/>
<path d="M197.84 874.994V926.315" stroke="black" stroke-linecap="round"/>
<path d="M194.986 871.192C193.862 871.192 192.77 871.565 191.882 872.254C190.994 872.942 190.359 873.906 190.078 874.994" stroke="black" stroke-linecap="round"/>
<path d="M190.078 926.315C190.359 927.403 190.994 928.367 191.882 929.055C192.77 929.743 193.862 930.117 194.986 930.117" stroke="black" stroke-linecap="round"/>
<path d="M194.984 930.117H242.029V926.315" stroke="black" stroke-linecap="round"/>
<path d="M194.984 871.192H242.029V874.994" stroke="black" stroke-linecap="round"/>
<path d="M247.102 874.994V926.315H190.078V874.994H247.102Z" stroke="black" stroke-linecap="round"/>
<path d="M255.255 787.714L218.965 824.004" stroke="black" stroke-linecap="round"/>
<path d="M255.924 783.004C255.13 782.21 254.093 781.702 252.979 781.56C251.864 781.419 250.734 781.651 249.766 782.222" stroke="black" stroke-linecap="round"/>
<path d="M213.473 818.512C212.903 819.48 212.67 820.61 212.811 821.725C212.953 822.84 213.461 823.876 214.256 824.671" stroke="black" stroke-linecap="round"/>
<path d="M214.258 824.67L247.523 857.936L250.212 855.248" stroke="black" stroke-linecap="round"/>
<path d="M255.919 783.004L289.184 816.27L286.496 818.958" stroke="black" stroke-linecap="round"/>
<path d="M290.085 822.544L253.795 858.834L213.473 818.512L249.762 782.222L290.085 822.544Z" stroke="black" stroke-linecap="round"/>
<path d="M357.572 766.59H306.25" stroke="black" stroke-linecap="round"/>
<path d="M361.376 763.732C361.376 762.608 361.002 761.516 360.314 760.628C359.626 759.74 358.662 759.105 357.574 758.824" stroke="black" stroke-linecap="round"/>
<path d="M306.255 758.824C305.167 759.105 304.203 759.74 303.515 760.628C302.827 761.516 302.453 762.608 302.453 763.732" stroke="black" stroke-linecap="round"/>
<path d="M302.453 763.732V810.777H306.255" stroke="black" stroke-linecap="round"/>
<path d="M361.376 763.732V810.777H357.574" stroke="black" stroke-linecap="round"/>
<path d="M357.572 815.848H306.25V758.824H357.572V815.848Z" stroke="black" stroke-linecap="round"/>
<path d="M444.849 824.003L408.559 787.713" stroke="black" stroke-linecap="round"/>
<path d="M449.561 824.67C450.356 823.876 450.864 822.84 451.006 821.725C451.147 820.61 450.914 819.48 450.344 818.512" stroke="black" stroke-linecap="round"/>
<path d="M414.051 782.222C413.083 781.651 411.953 781.418 410.838 781.56C409.724 781.701 408.687 782.21 407.893 783.004" stroke="black" stroke-linecap="round"/>
<path d="M407.891 783.003L374.625 816.269L377.313 818.957" stroke="black" stroke-linecap="round"/>
<path d="M449.559 824.67L416.294 857.935L413.605 855.247" stroke="black" stroke-linecap="round"/>
<path d="M410.019 858.833L373.729 822.543L414.051 782.221L450.341 818.511L410.019 858.833Z" stroke="black" stroke-linecap="round"/>
<path d="M465.988 926.323V875.001" stroke="black" stroke-linecap="round"/>
<path d="M468.842 930.125C469.966 930.125 471.058 929.751 471.946 929.063C472.835 928.375 473.469 927.411 473.75 926.323" stroke="black" stroke-linecap="round"/>
<path d="M473.75 875.002C473.469 873.914 472.835 872.95 471.946 872.262C471.058 871.574 469.966 871.2 468.842 871.2" stroke="black" stroke-linecap="round"/>
<path d="M468.844 871.2H421.799V875.002" stroke="black" stroke-linecap="round"/>
<path d="M468.844 930.125H421.799V926.323" stroke="black" stroke-linecap="round"/>
<path d="M416.726 926.323V875.001H473.75V926.323H416.726Z" stroke="black" stroke-linecap="round"/>
<path d="M408.566 1013.6L444.855 977.314" stroke="black" stroke-linecap="round"/>
<path d="M407.896 1018.31C408.691 1019.11 409.727 1019.62 410.842 1019.76C411.956 1019.9 413.087 1019.67 414.055 1019.1" stroke="black" stroke-linecap="round"/>
<path d="M450.347 982.806C450.918 981.838 451.151 980.708 451.009 979.593C450.867 978.478 450.359 977.442 449.565 976.647" stroke="black" stroke-linecap="round"/>
<path d="M449.562 976.648L416.297 943.382L413.609 946.07" stroke="black" stroke-linecap="round"/>
<path d="M407.902 1018.31L374.636 985.048L377.324 982.36" stroke="black" stroke-linecap="round"/>
<path d="M373.736 978.774L410.026 942.484L450.348 982.806L414.058 1019.1L373.736 978.774Z" stroke="black" stroke-linecap="round"/>
<path d="M306.253 1034.73H357.574" stroke="black" stroke-linecap="round"/>
<path d="M302.448 1037.58C302.448 1038.71 302.822 1039.8 303.51 1040.69C304.198 1041.58 305.162 1042.21 306.25 1042.49" stroke="black" stroke-linecap="round"/>
<path d="M357.573 1042.49C358.661 1042.21 359.625 1041.58 360.313 1040.69C361.002 1039.8 361.375 1038.71 361.375 1037.58" stroke="black" stroke-linecap="round"/>
<path d="M361.375 1037.58V990.539H357.573" stroke="black" stroke-linecap="round"/>
<path d="M302.448 1037.58V990.539H306.25" stroke="black" stroke-linecap="round"/>
<path d="M306.253 985.468H357.574V1042.49H306.253V985.468Z" stroke="black" stroke-linecap="round"/>
<path d="M218.964 977.314L255.254 1013.6" stroke="black" stroke-linecap="round"/>
<path d="M214.251 976.647C213.456 977.442 212.948 978.478 212.807 979.593C212.665 980.707 212.898 981.838 213.469 982.806" stroke="black" stroke-linecap="round"/>
<path d="M249.761 1019.1C250.729 1019.67 251.859 1019.9 252.974 1019.76C254.089 1019.62 255.125 1019.11 255.92 1018.31" stroke="black" stroke-linecap="round"/>
<path d="M255.922 1018.31L289.188 985.048L286.499 982.36" stroke="black" stroke-linecap="round"/>
<path d="M214.253 976.648L247.519 943.382L250.207 946.07" stroke="black" stroke-linecap="round"/>
<path d="M253.794 942.484L290.084 978.774L249.762 1019.1L213.472 982.806L253.794 942.484Z" stroke="black" stroke-linecap="round"/>
<path d="M406.747 900.66C406.745 880.814 398.859 861.782 384.825 847.75C370.791 833.718 351.758 825.835 331.913 825.835C312.067 825.835 293.034 833.718 279 847.75C264.966 861.782 257.081 880.814 257.078 900.66C257.081 920.505 264.966 939.537 279 953.569C293.034 967.601 312.067 975.484 331.913 975.484C351.758 975.484 370.791 967.601 384.825 953.569C398.859 939.537 406.745 920.505 406.747 900.66Z" stroke="black" stroke-linecap="round"/>
<path d="M8.26562 495.837L8.26562 547.159" stroke="black" stroke-linecap="round"/>
<path d="M5.4079 492.035C4.28417 492.035 3.19225 492.409 2.30386 493.097C1.41548 493.785 0.780933 494.749 0.5 495.837" stroke="black" stroke-linecap="round"/>
<path d="M0.5 547.158C0.780933 548.246 1.41548 549.21 2.30386 549.898C3.19225 550.587 4.28417 550.96 5.4079 550.96" stroke="black" stroke-linecap="round"/>
<path d="M5.40625 550.96H52.4509V547.158" stroke="black" stroke-linecap="round"/>
<path d="M5.40625 492.035H52.4509V495.837" stroke="black" stroke-linecap="round"/>
<path d="M57.524 495.837L57.524 547.159H0.5L0.5 495.837H57.524Z" stroke="black" stroke-linecap="round"/>
<path d="M65.6727 408.552L29.3828 444.842" stroke="black" stroke-linecap="round"/>
<path d="M66.3421 403.842C65.5475 403.047 64.5114 402.539 63.3966 402.398C62.2818 402.256 61.1516 402.489 60.1836 403.06" stroke="black" stroke-linecap="round"/>
<path d="M23.8913 439.35C23.3205 440.318 23.0877 441.448 23.2293 442.563C23.3709 443.678 23.8789 444.714 24.6735 445.508" stroke="black" stroke-linecap="round"/>
<path d="M24.6758 445.508L57.9414 478.774L60.6295 476.086" stroke="black" stroke-linecap="round"/>
<path d="M66.3366 403.842L99.6022 437.108L96.9141 439.796" stroke="black" stroke-linecap="round"/>
<path d="M100.503 443.382L64.2127 479.672L23.8906 439.35L60.1805 403.06L100.503 443.382Z" stroke="black" stroke-linecap="round"/>
<path d="M167.994 387.428H116.672" stroke="black" stroke-linecap="round"/>
<path d="M171.794 384.57C171.794 383.446 171.42 382.354 170.732 381.466C170.044 380.578 169.08 379.943 167.992 379.662" stroke="black" stroke-linecap="round"/>
<path d="M116.673 379.662C115.585 379.943 114.621 380.578 113.933 381.466C113.245 382.354 112.871 383.446 112.871 384.57" stroke="black" stroke-linecap="round"/>
<path d="M112.871 384.57V431.615H116.673" stroke="black" stroke-linecap="round"/>
<path d="M171.794 384.57V431.615H167.992" stroke="black" stroke-linecap="round"/>
<path d="M167.993 436.686H116.672V379.662H167.993V436.686Z" stroke="black" stroke-linecap="round"/>
<path d="M255.274 444.841L218.984 408.551" stroke="black" stroke-linecap="round"/>
<path d="M259.987 445.508C260.782 444.713 261.29 443.677 261.432 442.562C261.573 441.447 261.34 440.317 260.77 439.349" stroke="black" stroke-linecap="round"/>
<path d="M224.477 403.059C223.509 402.489 222.379 402.256 221.264 402.397C220.149 402.539 219.113 403.047 218.319 403.842" stroke="black" stroke-linecap="round"/>
<path d="M218.316 403.841L185.051 437.107L187.739 439.795" stroke="black" stroke-linecap="round"/>
<path d="M259.985 445.507L226.719 478.773L224.031 476.085" stroke="black" stroke-linecap="round"/>
<path d="M220.444 479.671L184.155 443.381L224.477 403.059L260.766 439.349L220.444 479.671Z" stroke="black" stroke-linecap="round"/>
<path d="M276.398 547.159V495.837" stroke="black" stroke-linecap="round"/>
<path d="M279.256 550.96C280.38 550.96 281.472 550.587 282.36 549.899C283.249 549.211 283.883 548.247 284.164 547.159" stroke="black" stroke-linecap="round"/>
<path d="M284.164 495.837C283.883 494.749 283.249 493.785 282.36 493.097C281.472 492.409 280.38 492.036 279.256 492.036" stroke="black" stroke-linecap="round"/>
<path d="M279.258 492.036H232.213V495.837" stroke="black" stroke-linecap="round"/>
<path d="M279.258 550.96H232.213V547.159" stroke="black" stroke-linecap="round"/>
<path d="M227.14 547.158V495.837H284.164V547.158H227.14Z" stroke="black" stroke-linecap="round"/>
<path d="M218.987 634.445L255.277 598.155" stroke="black" stroke-linecap="round"/>
<path d="M218.318 639.155C219.113 639.949 220.149 640.457 221.264 640.599C222.378 640.741 223.509 640.508 224.477 639.937" stroke="black" stroke-linecap="round"/>
<path d="M260.769 603.647C261.34 602.679 261.572 601.548 261.431 600.434C261.289 599.319 260.781 598.283 259.987 597.488" stroke="black" stroke-linecap="round"/>
<path d="M259.984 597.489L226.719 564.223L224.031 566.911" stroke="black" stroke-linecap="round"/>
<path d="M218.32 639.154L185.054 605.889L187.742 603.201" stroke="black" stroke-linecap="round"/>
<path d="M184.158 599.615L220.447 563.325L260.77 603.647L224.48 639.937L184.158 599.615Z" stroke="black" stroke-linecap="round"/>
<path d="M116.671 655.565H167.992" stroke="black" stroke-linecap="round"/>
<path d="M112.87 658.424C112.87 659.548 113.244 660.64 113.932 661.528C114.62 662.417 115.584 663.051 116.672 663.332" stroke="black" stroke-linecap="round"/>
<path d="M167.991 663.332C169.079 663.051 170.043 662.417 170.731 661.528C171.42 660.64 171.793 659.548 171.793 658.424" stroke="black" stroke-linecap="round"/>
<path d="M171.793 658.424V611.38H167.991" stroke="black" stroke-linecap="round"/>
<path d="M112.87 658.424V611.38H116.672" stroke="black" stroke-linecap="round"/>
<path d="M116.671 606.308H167.992V663.332H116.671V606.308Z" stroke="black" stroke-linecap="round"/>
<path d="M29.382 598.155L65.6719 634.445" stroke="black" stroke-linecap="round"/>
<path d="M24.669 597.488C23.8744 598.283 23.3663 599.319 23.2247 600.433C23.0832 601.548 23.316 602.678 23.8867 603.646" stroke="black" stroke-linecap="round"/>
<path d="M60.1791 639.936C61.1471 640.507 62.2773 640.74 63.3921 640.598C64.5068 640.457 65.543 639.949 66.3376 639.154" stroke="black" stroke-linecap="round"/>
<path d="M66.3398 639.155L99.6055 605.889L96.9173 603.201" stroke="black" stroke-linecap="round"/>
<path d="M24.6712 597.489L57.9369 564.223L60.625 566.911" stroke="black" stroke-linecap="round"/>
<path d="M64.2119 563.325L100.502 599.614L60.1797 639.937L23.8898 603.647L64.2119 563.325Z" stroke="black" stroke-linecap="round"/>
<path d="M217.165 521.497C217.163 501.652 209.277 482.62 195.243 468.588C181.209 454.556 162.176 446.673 142.331 446.673C122.485 446.673 103.452 454.556 89.4181 468.588C75.3842 482.62 67.4987 501.652 67.4961 521.497C67.4987 541.343 75.3842 560.375 89.4181 574.407C103.452 588.439 122.485 596.322 142.331 596.322C162.176 596.322 181.209 588.439 195.243 574.407C209.277 560.375 217.163 541.343 217.165 521.497Z" stroke="black" stroke-linecap="round"/>
<path d="M577.004 116.675V167.997" stroke="black" stroke-linecap="round"/>
<path d="M574.146 112.873C573.022 112.873 571.931 113.247 571.042 113.935C570.154 114.623 569.519 115.587 569.238 116.675" stroke="black" stroke-linecap="round"/>
<path d="M569.238 167.996C569.519 169.084 570.154 170.048 571.042 170.736C571.931 171.424 573.022 171.798 574.146 171.798" stroke="black" stroke-linecap="round"/>
<path d="M574.148 171.798H621.193V167.996" stroke="black" stroke-linecap="round"/>
<path d="M574.148 112.873L621.193 112.873V116.675" stroke="black" stroke-linecap="round"/>
<path d="M626.262 116.675V167.997H569.238V116.675H626.262Z" stroke="black" stroke-linecap="round"/>
<path d="M598.128 218.995L634.418 255.285" stroke="black" stroke-linecap="round"/>
<path d="M593.415 218.328C592.62 219.123 592.112 220.159 591.971 221.274C591.829 222.389 592.062 223.519 592.633 224.487" stroke="black" stroke-linecap="round"/>
<path d="M628.925 260.777C629.893 261.347 631.023 261.58 632.138 261.439C633.253 261.297 634.289 260.789 635.084 259.994" stroke="black" stroke-linecap="round"/>
<path d="M635.086 259.995L668.352 226.729L665.663 224.041" stroke="black" stroke-linecap="round"/>
<path d="M593.417 218.329L626.683 185.063L629.371 187.751" stroke="black" stroke-linecap="round"/>
<path d="M632.958 184.165L669.248 220.455L628.926 260.777L592.636 224.487L632.958 184.165Z" stroke="black" stroke-linecap="round"/>
<path d="M685.417 276.407H736.738" stroke="black" stroke-linecap="round"/>
<path d="M681.612 279.265C681.612 280.389 681.986 281.481 682.674 282.369C683.362 283.257 684.326 283.892 685.414 284.173" stroke="black" stroke-linecap="round"/>
<path d="M736.737 284.173C737.826 283.892 738.789 283.257 739.478 282.369C740.166 281.481 740.539 280.389 740.539 279.265" stroke="black" stroke-linecap="round"/>
<path d="M740.539 279.265V232.22H736.737" stroke="black" stroke-linecap="round"/>
<path d="M681.612 279.265V232.22H685.414" stroke="black" stroke-linecap="round"/>
<path d="M685.417 227.149H736.738V284.173H685.417V227.149Z" stroke="black" stroke-linecap="round"/>
<path d="M787.737 255.286L824.027 218.996" stroke="black" stroke-linecap="round"/>
<path d="M787.068 259.995C787.863 260.79 788.899 261.298 790.014 261.439C791.128 261.581 792.259 261.348 793.227 260.777" stroke="black" stroke-linecap="round"/>
<path d="M829.519 224.487C830.09 223.519 830.322 222.389 830.181 221.274C830.039 220.159 829.531 219.123 828.737 218.328" stroke="black" stroke-linecap="round"/>
<path d="M828.734 218.329L795.469 185.063L792.781 187.752" stroke="black" stroke-linecap="round"/>
<path d="M787.07 259.995L753.804 226.73L756.492 224.041" stroke="black" stroke-linecap="round"/>
<path d="M752.908 220.455L789.197 184.165L829.52 224.487L793.23 260.777L752.908 220.455Z" stroke="black" stroke-linecap="round"/>
<path d="M845.148 167.996V116.675" stroke="black" stroke-linecap="round"/>
<path d="M848.006 171.798C849.13 171.798 850.222 171.425 851.11 170.737C851.999 170.048 852.633 169.085 852.914 167.997" stroke="black" stroke-linecap="round"/>
<path d="M852.914 116.675C852.633 115.587 851.999 114.623 851.11 113.935C850.222 113.247 849.13 112.874 848.006 112.874" stroke="black" stroke-linecap="round"/>
<path d="M848.004 112.874H800.959V116.675" stroke="black" stroke-linecap="round"/>
<path d="M848.004 171.798H800.959V167.997" stroke="black" stroke-linecap="round"/>
<path d="M795.89 167.996V116.675H852.914V167.996H795.89Z" stroke="black" stroke-linecap="round"/>
<path d="M824.024 65.6786L787.734 29.3887" stroke="black" stroke-linecap="round"/>
<path d="M828.737 66.3456C829.532 65.551 830.04 64.5148 830.182 63.4C830.323 62.2853 830.09 61.155 829.52 60.187" stroke="black" stroke-linecap="round"/>
<path d="M793.227 23.8971C792.259 23.3264 791.129 23.0936 790.014 23.2351C788.899 23.3767 787.863 23.8848 787.069 24.6794" stroke="black" stroke-linecap="round"/>
<path d="M787.066 24.6792L753.801 57.9448L756.489 60.633" stroke="black" stroke-linecap="round"/>
<path d="M828.735 66.3454L795.469 99.611L792.781 96.9229" stroke="black" stroke-linecap="round"/>
<path d="M789.194 100.509L752.905 64.219L793.227 23.897L829.516 60.1868L789.194 100.509Z" stroke="black" stroke-linecap="round"/>
<path d="M736.732 8.2666H685.41" stroke="black" stroke-linecap="round"/>
<path d="M740.536 5.4079C740.536 4.28417 740.163 3.19225 739.474 2.30386C738.786 1.41548 737.822 0.780933 736.734 0.5" stroke="black" stroke-linecap="round"/>
<path d="M685.411 0.5C684.323 0.780933 683.359 1.41548 682.671 2.30386C681.983 3.19225 681.609 4.28417 681.609 5.4079" stroke="black" stroke-linecap="round"/>
<path d="M681.609 5.40771V52.4524H685.411" stroke="black" stroke-linecap="round"/>
<path d="M740.536 5.40771V52.4524H736.734" stroke="black" stroke-linecap="round"/>
<path d="M736.732 57.524H685.41V0.5H736.732V57.524Z" stroke="black" stroke-linecap="round"/>
<path d="M634.415 29.3898L598.125 65.6797" stroke="black" stroke-linecap="round"/>
<path d="M635.084 24.6797C634.29 23.8851 633.254 23.3771 632.139 23.2355C631.024 23.0939 629.894 23.3267 628.926 23.8975" stroke="black" stroke-linecap="round"/>
<path d="M592.637 60.1883C592.067 61.1563 591.834 62.2866 591.975 63.4014C592.117 64.5161 592.625 65.5523 593.42 66.3469" stroke="black" stroke-linecap="round"/>
<path d="M593.418 66.3462L626.684 99.6118L629.372 96.9237" stroke="black" stroke-linecap="round"/>
<path d="M635.083 24.68L668.348 57.9457L665.66 60.6338" stroke="black" stroke-linecap="round"/>
<path d="M669.245 64.2202L632.955 100.51L592.633 60.188L628.923 23.8981L669.245 64.2202Z" stroke="black" stroke-linecap="round"/>
<path d="M636.237 142.34C636.24 162.186 644.125 181.218 658.159 195.25C672.193 209.282 691.226 217.165 711.072 217.165C730.917 217.165 749.95 209.282 763.984 195.25C778.018 181.218 785.904 162.186 785.906 142.34C785.904 122.495 778.018 103.463 763.984 89.4308C749.95 75.3987 730.917 67.5157 711.072 67.5157C691.226 67.5157 672.193 75.3987 658.159 89.4308C644.125 103.463 636.24 122.495 636.237 142.34Z" stroke="black" stroke-linecap="round"/>
<path d="M197.84 116.675V167.997" stroke="black" stroke-linecap="round"/>
<path d="M194.986 112.873C193.862 112.873 192.77 113.247 191.882 113.935C190.994 114.623 190.359 115.587 190.078 116.675" stroke="black" stroke-linecap="round"/>
<path d="M190.078 167.996C190.359 169.084 190.994 170.048 191.882 170.736C192.77 171.424 193.862 171.798 194.986 171.798" stroke="black" stroke-linecap="round"/>
<path d="M194.984 171.798H242.029V167.996" stroke="black" stroke-linecap="round"/>
<path d="M194.984 112.873L242.029 112.873V116.675" stroke="black" stroke-linecap="round"/>
<path d="M247.102 116.675V167.997H190.078V116.675H247.102Z" stroke="black" stroke-linecap="round"/>
<path d="M218.964 218.995L255.254 255.285" stroke="black" stroke-linecap="round"/>
<path d="M214.251 218.328C213.456 219.123 212.948 220.159 212.807 221.274C212.665 222.389 212.898 223.519 213.469 224.487" stroke="black" stroke-linecap="round"/>
<path d="M249.761 260.777C250.729 261.348 251.859 261.581 252.974 261.439C254.089 261.298 255.125 260.79 255.92 259.995" stroke="black" stroke-linecap="round"/>
<path d="M255.922 259.995L289.188 226.729L286.499 224.041" stroke="black" stroke-linecap="round"/>
<path d="M214.253 218.329L247.519 185.063L250.207 187.751" stroke="black" stroke-linecap="round"/>
<path d="M253.794 184.165L290.084 220.455L249.762 260.777L213.472 224.487L253.794 184.165Z" stroke="black" stroke-linecap="round"/>
<path d="M306.253 276.407H357.574" stroke="black" stroke-linecap="round"/>
<path d="M302.448 279.265C302.448 280.389 302.822 281.481 303.51 282.369C304.198 283.257 305.162 283.892 306.25 284.173" stroke="black" stroke-linecap="round"/>
<path d="M357.573 284.173C358.661 283.892 359.625 283.257 360.313 282.369C361.002 281.481 361.375 280.389 361.375 279.265" stroke="black" stroke-linecap="round"/>
<path d="M361.375 279.265V232.22H357.573" stroke="black" stroke-linecap="round"/>
<path d="M302.448 279.265V232.22H306.25" stroke="black" stroke-linecap="round"/>
<path d="M306.253 227.149H357.574V284.173H306.253V227.149Z" stroke="black" stroke-linecap="round"/>
<path d="M408.566 255.286L444.855 218.996" stroke="black" stroke-linecap="round"/>
<path d="M407.896 259.995C408.691 260.79 409.727 261.298 410.842 261.439C411.956 261.581 413.087 261.348 414.055 260.777" stroke="black" stroke-linecap="round"/>
<path d="M450.347 224.487C450.918 223.519 451.151 222.389 451.009 221.274C450.867 220.159 450.359 219.123 449.565 218.328" stroke="black" stroke-linecap="round"/>
<path d="M449.562 218.329L416.297 185.063L413.609 187.752" stroke="black" stroke-linecap="round"/>
<path d="M407.902 259.995L374.636 226.73L377.324 224.041" stroke="black" stroke-linecap="round"/>
<path d="M373.736 220.455L410.026 184.165L450.348 224.487L414.058 260.777L373.736 220.455Z" stroke="black" stroke-linecap="round"/>
<path d="M465.988 167.996V116.675" stroke="black" stroke-linecap="round"/>
<path d="M468.842 171.798C469.966 171.798 471.058 171.425 471.946 170.737C472.835 170.048 473.469 169.085 473.75 167.997" stroke="black" stroke-linecap="round"/>
<path d="M473.75 116.675C473.469 115.587 472.835 114.623 471.946 113.935C471.058 113.247 469.966 112.874 468.842 112.874" stroke="black" stroke-linecap="round"/>
<path d="M468.844 112.874H421.799V116.675" stroke="black" stroke-linecap="round"/>
<path d="M468.844 171.798H421.799V167.997" stroke="black" stroke-linecap="round"/>
<path d="M416.726 167.996V116.675H473.75V167.996H416.726Z" stroke="black" stroke-linecap="round"/>
<path d="M444.849 65.6791L408.559 29.3892" stroke="black" stroke-linecap="round"/>
<path d="M449.561 66.346C450.356 65.5514 450.864 64.5153 451.006 63.4005C451.147 62.2857 450.914 61.1555 450.344 60.1875" stroke="black" stroke-linecap="round"/>
<path d="M414.051 23.8976C413.083 23.3269 411.953 23.094 410.838 23.2356C409.724 23.3772 408.687 23.8853 407.893 24.6799" stroke="black" stroke-linecap="round"/>
<path d="M407.891 24.6792L374.625 57.9448L377.313 60.633" stroke="black" stroke-linecap="round"/>
<path d="M449.559 66.3454L416.294 99.611L413.605 96.9229" stroke="black" stroke-linecap="round"/>
<path d="M410.019 100.509L373.729 64.2195L414.051 23.8975L450.341 60.1873L410.019 100.509Z" stroke="black" stroke-linecap="round"/>
<path d="M357.572 8.2666H306.25" stroke="black" stroke-linecap="round"/>
<path d="M361.376 5.4079C361.376 4.28417 361.002 3.19225 360.314 2.30386C359.626 1.41548 358.662 0.780933 357.574 0.5" stroke="black" stroke-linecap="round"/>
<path d="M306.255 0.5C305.167 0.780933 304.203 1.41548 303.515 2.30386C302.827 3.19225 302.453 4.28417 302.453 5.4079" stroke="black" stroke-linecap="round"/>
<path d="M302.453 5.40771V52.4524H306.255" stroke="black" stroke-linecap="round"/>
<path d="M361.376 5.40771V52.4524H357.574" stroke="black" stroke-linecap="round"/>
<path d="M357.572 57.524H306.25V0.5H357.572V57.524Z" stroke="black" stroke-linecap="round"/>
<path d="M255.255 29.3898L218.965 65.6797" stroke="black" stroke-linecap="round"/>
<path d="M255.924 24.6797C255.13 23.8851 254.093 23.3771 252.979 23.2355C251.864 23.0939 250.734 23.3267 249.766 23.8975" stroke="black" stroke-linecap="round"/>
<path d="M213.473 60.1874C212.903 61.1554 212.67 62.2856 212.811 63.4004C212.953 64.5152 213.461 65.5513 214.256 66.3459" stroke="black" stroke-linecap="round"/>
<path d="M214.258 66.3462L247.523 99.6118L250.212 96.9237" stroke="black" stroke-linecap="round"/>
<path d="M255.919 24.68L289.184 57.9457L286.496 60.6338" stroke="black" stroke-linecap="round"/>
<path d="M290.085 64.2202L253.795 100.51L213.473 60.188L249.762 23.8981L290.085 64.2202Z" stroke="black" stroke-linecap="round"/>
<path d="M257.077 142.34C257.08 162.186 264.965 181.218 278.999 195.25C293.033 209.282 312.066 217.165 331.911 217.165C351.757 217.165 370.79 209.282 384.824 195.25C398.858 181.218 406.743 162.186 406.746 142.34C406.743 122.495 398.858 103.463 384.824 89.4308C370.79 75.3987 351.757 67.5157 331.911 67.5157C312.066 67.5157 293.033 75.3987 278.999 89.4308C264.965 103.463 257.08 122.495 257.077 142.34Z" stroke="black" stroke-linecap="round"/>
</svg>
