<svg width="1818" height="745" viewBox="0 0 1818 745" fill="none" xmlns="http://www.w3.org/2000/svg">
<path d="M20.8516 305.18L20.8516 439.782" stroke="black" stroke-linecap="round"/>
<path d="M13.3716 295.21C10.4244 295.21 7.56072 296.189 5.23074 297.994C2.90076 299.799 1.23681 302.327 0.5 305.18" stroke="black" stroke-linecap="round"/>
<path d="M0.5 439.783C1.23681 442.637 2.90076 445.164 5.23074 446.969C7.56072 448.774 10.4244 449.753 13.3716 449.753" stroke="black" stroke-linecap="round"/>
<path d="M13.375 449.753H136.76V439.783" stroke="black" stroke-linecap="round"/>
<path d="M13.375 295.21H136.76V305.18" stroke="black" stroke-linecap="round"/>
<path d="M150.057 305.181L150.057 439.782H0.5L0.5 305.181H150.057Z" stroke="black" stroke-linecap="round"/>
<path d="M884.676 20.8535H750.074" stroke="black" stroke-linecap="round"/>
<path d="M894.638 13.3716C894.638 10.4244 893.659 7.56072 891.854 5.23074C890.049 2.90076 887.522 1.23681 884.668 0.5" stroke="black" stroke-linecap="round"/>
<path d="M750.072 0.5C747.218 1.23681 744.691 2.90076 742.886 5.23074C741.081 7.56072 740.102 10.4244 740.102 13.3716" stroke="black" stroke-linecap="round"/>
<path d="M740.102 13.3711V136.756H750.072" stroke="black" stroke-linecap="round"/>
<path d="M894.638 13.3711V136.756H884.668" stroke="black" stroke-linecap="round"/>
<path d="M884.676 150.057H750.074V0.5H884.676V150.057Z" stroke="black" stroke-linecap="round"/>
<path d="M701.496 20.8535H566.895" stroke="black" stroke-linecap="round"/>
<path d="M711.459 13.3716C711.459 10.4244 710.479 7.56072 708.675 5.23074C706.87 2.90076 704.342 1.23681 701.488 0.5" stroke="black" stroke-linecap="round"/>
<path d="M566.892 0.5C564.039 1.23681 561.511 2.90076 559.706 5.23074C557.901 7.56072 556.922 10.4244 556.922 13.3716" stroke="black" stroke-linecap="round"/>
<path d="M556.922 13.3711V136.756H566.892" stroke="black" stroke-linecap="round"/>
<path d="M711.459 13.3711V136.756H701.488" stroke="black" stroke-linecap="round"/>
<path d="M701.496 150.057H566.895V0.5H701.496V150.057Z" stroke="black" stroke-linecap="round"/>
<path d="M335.129 20.8535H200.527" stroke="black" stroke-linecap="round"/>
<path d="M345.092 13.3716C345.092 10.4244 344.112 7.56072 342.307 5.23074C340.503 2.90076 337.975 1.23681 335.121 0.5" stroke="black" stroke-linecap="round"/>
<path d="M200.525 0.5C197.672 1.23681 195.144 2.90076 193.339 5.23074C191.534 7.56072 190.555 10.4244 190.555 13.3716" stroke="black" stroke-linecap="round"/>
<path d="M190.555 13.3711V136.756H200.525" stroke="black" stroke-linecap="round"/>
<path d="M345.092 13.3711V136.756H335.121" stroke="black" stroke-linecap="round"/>
<path d="M335.129 150.057H200.527V0.5H335.129V150.057Z" stroke="black" stroke-linecap="round"/>
<path d="M518.309 20.8535H383.707" stroke="black" stroke-linecap="round"/>
<path d="M528.271 13.3716C528.271 10.4244 527.292 7.56072 525.487 5.23074C523.682 2.90076 521.154 1.23681 518.301 0.5" stroke="black" stroke-linecap="round"/>
<path d="M383.705 0.5C380.851 1.23681 378.323 2.90076 376.519 5.23074C374.714 7.56072 373.734 10.4244 373.734 13.3716" stroke="black" stroke-linecap="round"/>
<path d="M373.734 13.3711V136.756H383.705" stroke="black" stroke-linecap="round"/>
<path d="M528.271 13.3711V136.756H518.301" stroke="black" stroke-linecap="round"/>
<path d="M518.309 150.057H383.707V0.5H518.309V150.057Z" stroke="black" stroke-linecap="round"/>
<path d="M750.066 724.146H884.668" stroke="black" stroke-linecap="round"/>
<path d="M740.104 731.628C740.104 734.576 741.083 737.439 742.888 739.769C744.693 742.099 747.221 743.763 750.074 744.5" stroke="black" stroke-linecap="round"/>
<path d="M884.67 744.5C887.524 743.763 890.052 742.099 891.856 739.769C893.661 737.439 894.641 734.576 894.641 731.628" stroke="black" stroke-linecap="round"/>
<path d="M894.641 731.629V608.244H884.67" stroke="black" stroke-linecap="round"/>
<path d="M740.104 731.629V608.244H750.074" stroke="black" stroke-linecap="round"/>
<path d="M750.066 594.943H884.668V744.5H750.066V594.943Z" stroke="black" stroke-linecap="round"/>
<path d="M566.886 724.146H701.488" stroke="black" stroke-linecap="round"/>
<path d="M556.924 731.628C556.924 734.576 557.903 737.439 559.708 739.769C561.513 742.099 564.041 743.763 566.895 744.5" stroke="black" stroke-linecap="round"/>
<path d="M701.49 744.5C704.344 743.763 706.872 742.099 708.677 739.769C710.482 737.439 711.461 734.576 711.461 731.628" stroke="black" stroke-linecap="round"/>
<path d="M711.461 731.629V608.244H701.49" stroke="black" stroke-linecap="round"/>
<path d="M556.924 731.629V608.244H566.895" stroke="black" stroke-linecap="round"/>
<path d="M566.887 594.943H701.488V744.5H566.887V594.943Z" stroke="black" stroke-linecap="round"/>
<path d="M200.519 724.146H335.121" stroke="black" stroke-linecap="round"/>
<path d="M190.557 731.628C190.557 734.576 191.536 737.439 193.341 739.769C195.146 742.099 197.674 743.763 200.527 744.5" stroke="black" stroke-linecap="round"/>
<path d="M335.123 744.5C337.977 743.763 340.505 742.099 342.31 739.769C344.114 737.439 345.094 734.576 345.094 731.628" stroke="black" stroke-linecap="round"/>
<path d="M345.094 731.629V608.244H335.123" stroke="black" stroke-linecap="round"/>
<path d="M190.557 731.629L190.557 608.244H200.527" stroke="black" stroke-linecap="round"/>
<path d="M200.519 594.943H335.121V744.5H200.519L200.519 594.943Z" stroke="black" stroke-linecap="round"/>
<path d="M383.699 724.146H518.301" stroke="black" stroke-linecap="round"/>
<path d="M373.737 731.628C373.737 734.576 374.716 737.439 376.521 739.769C378.326 742.099 380.853 743.763 383.707 744.5" stroke="black" stroke-linecap="round"/>
<path d="M518.307 744.5C521.16 743.763 523.688 742.099 525.493 739.769C527.298 737.439 528.277 734.576 528.277 731.628" stroke="black" stroke-linecap="round"/>
<path d="M528.277 731.629V608.244H518.307" stroke="black" stroke-linecap="round"/>
<path d="M373.737 731.629V608.244H383.707" stroke="black" stroke-linecap="round"/>
<path d="M383.699 594.943H518.301V744.5H383.699V594.943Z" stroke="black" stroke-linecap="round"/>
<path d="M775.506 363.986H309.691" stroke="black" stroke-linecap="round" stroke-dasharray="0.83 0.42"/>
<path d="M775.506 380.986H309.691" stroke="black" stroke-linecap="round" stroke-dasharray="0.83 0.42"/>
<path d="M307.074 363.991H778.121V381.001H307.074V363.991Z" stroke="black" stroke-linecap="round" stroke-dasharray="0.83 0.42"/>
<path d="M280.914 262.979V482.015H307.083V262.979H280.914Z" stroke="black" stroke-linecap="round" stroke-dasharray="0.83 0.42"/>
<path d="M280.902 359.425V385.582" stroke="black" stroke-linecap="round" stroke-dasharray="0.83 0.42"/>
<path d="M804.294 262.979V482.015H778.125V262.979H804.294Z" stroke="black" stroke-linecap="round" stroke-dasharray="0.83 0.42"/>
<path d="M771.971 238.117H753.652V363.991H771.971V238.117Z" stroke="black" stroke-linecap="round" stroke-dasharray="0.83 0.42"/>
<path d="M771.971 506.877H753.652V381.002H771.971V506.877Z" stroke="black" stroke-linecap="round" stroke-dasharray="0.83 0.42"/>
<path d="M313.227 238.117H331.545V363.991H313.227V238.117Z" stroke="black" stroke-linecap="round" stroke-dasharray="0.83 0.42"/>
<path d="M313.227 506.877H331.545V381.002H313.227V506.877Z" stroke="black" stroke-linecap="round" stroke-dasharray="0.83 0.42"/>
<path d="M533.449 238.117H551.768V363.991H533.449V238.117Z" stroke="black" stroke-linecap="round" stroke-dasharray="0.83 0.42"/>
<path d="M533.449 506.877H551.768V381.002H533.449V506.877Z" stroke="black" stroke-linecap="round" stroke-dasharray="0.83 0.42"/>
<path d="M176.23 568.767H908.97V176.228H176.23V568.767Z" stroke="black" stroke-linecap="round"/>
<path d="M542.598 176.228V568.78" stroke="black" stroke-linecap="round"/>
<path d="M1797.06 439.791V305.189" stroke="black" stroke-linecap="round"/>
<path d="M1804.54 449.761C1807.49 449.761 1810.35 448.782 1812.68 446.977C1815.01 445.172 1816.68 442.644 1817.41 439.791" stroke="black" stroke-linecap="round"/>
<path d="M1817.41 305.188C1816.68 302.335 1815.01 299.807 1812.68 298.002C1810.35 296.197 1807.49 295.218 1804.54 295.218" stroke="black" stroke-linecap="round"/>
<path d="M1804.54 295.218H1681.15V305.188" stroke="black" stroke-linecap="round"/>
<path d="M1804.54 449.761H1681.15V439.791" stroke="black" stroke-linecap="round"/>
<path d="M1667.86 439.791V305.189H1817.41V439.791H1667.86Z" stroke="black" stroke-linecap="round"/>
<path d="M1067.87 20.8535H933.27" stroke="black" stroke-linecap="round"/>
<path d="M1077.83 13.3716C1077.83 10.4244 1076.85 7.56072 1075.05 5.23074C1073.24 2.90076 1070.72 1.23681 1067.86 0.5" stroke="black" stroke-linecap="round"/>
<path d="M933.267 0.5C930.414 1.23681 927.886 2.90076 926.081 5.23074C924.276 7.56072 923.297 10.4244 923.297 13.3716" stroke="black" stroke-linecap="round"/>
<path d="M923.297 13.3711V136.756H933.267" stroke="black" stroke-linecap="round"/>
<path d="M1077.83 13.3711V136.756H1067.86" stroke="black" stroke-linecap="round"/>
<path d="M1067.87 150.057H933.27V0.5H1067.87V150.057Z" stroke="black" stroke-linecap="round"/>
<path d="M1251.06 20.8535H1116.46" stroke="black" stroke-linecap="round"/>
<path d="M1261.03 13.3716C1261.03 10.4244 1260.05 7.56072 1258.24 5.23074C1256.44 2.90076 1253.91 1.23681 1251.05 0.5" stroke="black" stroke-linecap="round"/>
<path d="M1116.45 0.5C1113.6 1.23681 1111.07 2.90076 1109.27 5.23074C1107.46 7.56072 1106.48 10.4244 1106.48 13.3716" stroke="black" stroke-linecap="round"/>
<path d="M1106.48 13.3711V136.756H1116.45" stroke="black" stroke-linecap="round"/>
<path d="M1261.03 13.3711V136.756H1251.05" stroke="black" stroke-linecap="round"/>
<path d="M1251.06 150.057H1116.46V0.5H1251.06V150.057Z" stroke="black" stroke-linecap="round"/>
<path d="M1617.43 20.8535H1482.82" stroke="black" stroke-linecap="round"/>
<path d="M1627.38 13.3716C1627.38 10.4244 1626.41 7.56072 1624.6 5.23074C1622.8 2.90076 1620.27 1.23681 1617.41 0.5" stroke="black" stroke-linecap="round"/>
<path d="M1482.81 0.5C1479.96 1.23681 1477.43 2.90076 1475.63 5.23074C1473.82 7.56072 1472.84 10.4244 1472.84 13.3716" stroke="black" stroke-linecap="round"/>
<path d="M1472.84 13.3711V136.756H1482.81" stroke="black" stroke-linecap="round"/>
<path d="M1627.38 13.3711V136.756H1617.41" stroke="black" stroke-linecap="round"/>
<path d="M1617.43 150.057H1482.82V0.5H1617.43V150.057Z" stroke="black" stroke-linecap="round"/>
<path d="M1434.24 20.8535H1299.64" stroke="black" stroke-linecap="round"/>
<path d="M1444.2 13.3716C1444.2 10.4244 1443.22 7.56072 1441.42 5.23074C1439.61 2.90076 1437.08 1.23681 1434.23 0.5" stroke="black" stroke-linecap="round"/>
<path d="M1299.63 0.5C1296.78 1.23681 1294.25 2.90076 1292.45 5.23074C1290.64 7.56072 1289.66 10.4244 1289.66 13.3716" stroke="black" stroke-linecap="round"/>
<path d="M1289.66 13.3711V136.756H1299.63" stroke="black" stroke-linecap="round"/>
<path d="M1444.2 13.3711V136.756H1434.23" stroke="black" stroke-linecap="round"/>
<path d="M1434.24 150.057H1299.64V0.5H1434.24V150.057Z" stroke="black" stroke-linecap="round"/>
<path d="M933.261 724.146H1067.86" stroke="black" stroke-linecap="round"/>
<path d="M923.299 731.628C923.299 734.576 924.278 737.439 926.083 739.769C927.888 742.099 930.416 743.763 933.27 744.5" stroke="black" stroke-linecap="round"/>
<path d="M1067.87 744.5C1070.72 743.763 1073.25 742.099 1075.06 739.769C1076.86 737.439 1077.84 734.576 1077.84 731.628" stroke="black" stroke-linecap="round"/>
<path d="M1077.84 731.629V608.244H1067.87" stroke="black" stroke-linecap="round"/>
<path d="M923.299 731.629V608.244H933.27" stroke="black" stroke-linecap="round"/>
<path d="M933.262 594.943H1067.86V744.5H933.262V594.943Z" stroke="black" stroke-linecap="round"/>
<path d="M1116.45 724.146H1251.05" stroke="black" stroke-linecap="round"/>
<path d="M1106.49 731.628C1106.49 734.576 1107.47 737.439 1109.27 739.769C1111.08 742.099 1113.6 743.763 1116.46 744.5" stroke="black" stroke-linecap="round"/>
<path d="M1251.05 744.5C1253.91 743.763 1256.43 742.099 1258.24 739.769C1260.04 737.439 1261.02 734.576 1261.02 731.628" stroke="black" stroke-linecap="round"/>
<path d="M1261.02 731.629V608.244H1251.05" stroke="black" stroke-linecap="round"/>
<path d="M1106.49 731.629V608.244H1116.46" stroke="black" stroke-linecap="round"/>
<path d="M1116.45 594.943H1251.05V744.5H1116.45V594.943Z" stroke="black" stroke-linecap="round"/>
<path d="M1482.81 724.146H1617.41" stroke="black" stroke-linecap="round"/>
<path d="M1472.85 731.628C1472.85 734.576 1473.83 737.439 1475.64 739.769C1477.44 742.099 1479.97 743.763 1482.82 744.5" stroke="black" stroke-linecap="round"/>
<path d="M1617.42 744.5C1620.27 743.763 1622.8 742.099 1624.61 739.769C1626.41 737.439 1627.39 734.576 1627.39 731.628" stroke="black" stroke-linecap="round"/>
<path d="M1627.39 731.629V608.244H1617.42" stroke="black" stroke-linecap="round"/>
<path d="M1472.85 731.629V608.244H1482.82" stroke="black" stroke-linecap="round"/>
<path d="M1482.81 594.943H1617.41V744.5H1482.81V594.943Z" stroke="black" stroke-linecap="round"/>
<path d="M1299.63 724.146H1434.23" stroke="black" stroke-linecap="round"/>
<path d="M1289.67 731.628C1289.67 734.576 1290.65 737.439 1292.45 739.769C1294.26 742.099 1296.78 743.763 1299.64 744.5" stroke="black" stroke-linecap="round"/>
<path d="M1434.23 744.5C1437.09 743.763 1439.61 742.099 1441.42 739.769C1443.22 737.439 1444.2 734.576 1444.2 731.628" stroke="black" stroke-linecap="round"/>
<path d="M1444.2 731.629V608.244H1434.23" stroke="black" stroke-linecap="round"/>
<path d="M1289.67 731.629V608.244H1299.64" stroke="black" stroke-linecap="round"/>
<path d="M1299.63 594.943H1434.23V744.5H1299.63V594.943Z" stroke="black" stroke-linecap="round"/>
<path d="M775.506 363.986H309.691" stroke="black" stroke-linecap="round" stroke-dasharray="0.83 0.42"/>
<path d="M775.506 380.986H309.691" stroke="black" stroke-linecap="round" stroke-dasharray="0.83 0.42"/>
<path d="M307.074 363.991H778.121V381.001H307.074V363.991Z" stroke="black" stroke-linecap="round" stroke-dasharray="0.83 0.42"/>
<path d="M280.914 262.979V482.015H307.083V262.979H280.914Z" stroke="black" stroke-linecap="round" stroke-dasharray="0.83 0.42"/>
<path d="M280.902 359.425V385.582" stroke="black" stroke-linecap="round" stroke-dasharray="0.83 0.42"/>
<path d="M804.294 262.979V482.015H778.125V262.979H804.294Z" stroke="black" stroke-linecap="round" stroke-dasharray="0.83 0.42"/>
<path d="M771.971 238.117H753.652V363.991H771.971V238.117Z" stroke="black" stroke-linecap="round" stroke-dasharray="0.83 0.42"/>
<path d="M771.971 506.877H753.652V381.002H771.971V506.877Z" stroke="black" stroke-linecap="round" stroke-dasharray="0.83 0.42"/>
<path d="M313.227 238.117H331.545V363.991H313.227V238.117Z" stroke="black" stroke-linecap="round" stroke-dasharray="0.83 0.42"/>
<path d="M313.227 506.877H331.545V381.002H313.227V506.877Z" stroke="black" stroke-linecap="round" stroke-dasharray="0.83 0.42"/>
<path d="M533.449 238.117H551.768V363.991H533.449V238.117Z" stroke="black" stroke-linecap="round" stroke-dasharray="0.83 0.42"/>
<path d="M533.449 506.877H551.768V381.002H533.449V506.877Z" stroke="black" stroke-linecap="round" stroke-dasharray="0.83 0.42"/>
<path d="M176.23 568.767H908.97V176.228H176.23V568.767Z" stroke="black" stroke-linecap="round"/>
<path d="M542.598 176.228V568.78" stroke="black" stroke-linecap="round"/>
<path d="M1508.69 364.338H1042.88" stroke="black" stroke-linecap="round" stroke-dasharray="0.83 0.42"/>
<path d="M1508.69 381.338H1042.88" stroke="black" stroke-linecap="round" stroke-dasharray="0.83 0.42"/>
<path d="M1040.26 364.343H1511.31V381.353H1040.26V364.343Z" stroke="black" stroke-linecap="round" stroke-dasharray="0.83 0.42"/>
<path d="M1014.1 263.331V482.368H1040.27V263.331H1014.1Z" stroke="black" stroke-linecap="round" stroke-dasharray="0.83 0.42"/>
<path d="M1014.09 359.778V385.934" stroke="black" stroke-linecap="round" stroke-dasharray="0.83 0.42"/>
<path d="M1537.48 263.331V482.368H1511.31V263.331H1537.48Z" stroke="black" stroke-linecap="round" stroke-dasharray="0.83 0.42"/>
<path d="M1505.16 238.469H1486.84V364.343H1505.16V238.469Z" stroke="black" stroke-linecap="round" stroke-dasharray="0.83 0.42"/>
<path d="M1505.16 507.229H1486.84V381.355H1505.16V507.229Z" stroke="black" stroke-linecap="round" stroke-dasharray="0.83 0.42"/>
<path d="M1046.41 238.469H1064.73V364.343H1046.41V238.469Z" stroke="black" stroke-linecap="round" stroke-dasharray="0.83 0.42"/>
<path d="M1046.41 507.229H1064.73V381.355H1046.41V507.229Z" stroke="black" stroke-linecap="round" stroke-dasharray="0.83 0.42"/>
<path d="M1266.64 238.469H1284.96V364.343H1266.64V238.469Z" stroke="black" stroke-linecap="round" stroke-dasharray="0.83 0.42"/>
<path d="M1266.64 507.229H1284.96V381.355H1266.64V507.229Z" stroke="black" stroke-linecap="round" stroke-dasharray="0.83 0.42"/>
<path d="M909.418 569.119H1642.16V176.58H909.418V569.119Z" stroke="black" stroke-linecap="round"/>
<path d="M1275.79 176.58V569.132" stroke="black" stroke-linecap="round"/>
</svg>
