<svg width="1266" height="1432" viewBox="0 0 1266 1432" fill="none" xmlns="http://www.w3.org/2000/svg">
<path d="M417.108 614.279L491.523 657.242" stroke="black" stroke-linecap="round"/>
<path d="M409.21 615.236C408.269 616.865 407.896 618.761 408.15 620.625C408.404 622.489 409.271 624.216 410.613 625.534" stroke="black" stroke-linecap="round"/>
<path d="M485.027 668.498C486.84 669.002 488.768 668.889 490.51 668.177C492.251 667.464 493.707 666.194 494.648 664.565" stroke="black" stroke-linecap="round"/>
<path d="M494.645 664.564L534.028 596.35L528.516 593.167" stroke="black" stroke-linecap="round"/>
<path d="M409.21 615.235L448.594 547.021L454.106 550.204" stroke="black" stroke-linecap="round"/>
<path d="M458.353 542.85L532.769 585.814L485.031 668.498L410.616 625.534L458.353 542.85Z" stroke="black" stroke-linecap="round"/>
<path d="M315.831 555.812L390.246 598.775" stroke="black" stroke-linecap="round"/>
<path d="M307.928 556.769C306.988 558.398 306.615 560.294 306.869 562.158C307.123 564.022 307.99 565.749 309.332 567.067" stroke="black" stroke-linecap="round"/>
<path d="M383.749 610.031C385.562 610.535 387.491 610.422 389.232 609.71C390.974 608.998 392.43 607.727 393.37 606.098" stroke="black" stroke-linecap="round"/>
<path d="M393.367 606.098L432.751 537.884L427.238 534.701" stroke="black" stroke-linecap="round"/>
<path d="M307.933 556.769L347.316 488.555L352.829 491.737" stroke="black" stroke-linecap="round"/>
<path d="M357.076 484.384L431.491 527.348L383.754 610.031L309.339 567.068L357.076 484.384Z" stroke="black" stroke-linecap="round"/>
<path d="M113.28 438.863L187.695 481.827" stroke="black" stroke-linecap="round"/>
<path d="M105.381 439.82C104.441 441.45 104.068 443.346 104.322 445.21C104.576 447.074 105.443 448.801 106.785 450.119" stroke="black" stroke-linecap="round"/>
<path d="M181.199 493.082C183.012 493.586 184.94 493.473 186.682 492.761C188.423 492.048 189.879 490.778 190.819 489.148" stroke="black" stroke-linecap="round"/>
<path d="M190.816 489.148L230.2 420.934L224.688 417.752" stroke="black" stroke-linecap="round"/>
<path d="M105.382 439.819L144.766 371.605L150.278 374.788" stroke="black" stroke-linecap="round"/>
<path d="M154.525 367.435L228.941 410.398L181.203 493.082L106.788 450.118L154.525 367.435Z" stroke="black" stroke-linecap="round"/>
<path d="M214.561 497.328L288.977 540.292" stroke="black" stroke-linecap="round"/>
<path d="M206.663 498.285C205.722 499.915 205.349 501.811 205.603 503.675C205.857 505.539 206.724 507.266 208.066 508.584" stroke="black" stroke-linecap="round"/>
<path d="M282.48 551.548C284.293 552.051 286.221 551.938 287.963 551.226C289.704 550.514 291.16 549.244 292.101 547.614" stroke="black" stroke-linecap="round"/>
<path d="M292.098 547.613L331.481 479.399L325.969 476.217" stroke="black" stroke-linecap="round"/>
<path d="M206.664 498.285L246.047 430.071L251.559 433.254" stroke="black" stroke-linecap="round"/>
<path d="M255.807 425.9L330.222 468.863L282.484 551.547L208.069 508.583L255.807 425.9Z" stroke="black" stroke-linecap="round"/>
<path d="M417.108 848.163L491.523 891.126" stroke="black" stroke-linecap="round"/>
<path d="M409.21 849.119C408.269 850.748 407.896 852.644 408.15 854.508C408.404 856.372 409.271 858.099 410.613 859.417" stroke="black" stroke-linecap="round"/>
<path d="M485.027 902.381C486.84 902.884 488.768 902.771 490.51 902.059C492.251 901.347 493.707 900.077 494.648 898.447" stroke="black" stroke-linecap="round"/>
<path d="M494.645 898.448L534.028 830.234L528.516 827.051" stroke="black" stroke-linecap="round"/>
<path d="M409.21 849.119L448.594 780.905L454.106 784.088" stroke="black" stroke-linecap="round"/>
<path d="M458.353 776.734L532.769 819.698L485.031 902.381L410.616 859.418L458.353 776.734Z" stroke="black" stroke-linecap="round"/>
<path d="M315.831 789.695L390.246 832.659" stroke="black" stroke-linecap="round"/>
<path d="M307.928 790.652C306.988 792.281 306.615 794.177 306.869 796.041C307.123 797.905 307.99 799.632 309.332 800.95" stroke="black" stroke-linecap="round"/>
<path d="M383.749 843.914C385.562 844.418 387.491 844.305 389.232 843.593C390.974 842.881 392.43 841.61 393.37 839.981" stroke="black" stroke-linecap="round"/>
<path d="M393.367 839.981L432.751 771.767L427.238 768.584" stroke="black" stroke-linecap="round"/>
<path d="M307.933 790.652L347.316 722.438L352.829 725.62" stroke="black" stroke-linecap="round"/>
<path d="M357.076 718.267L431.491 761.231L383.754 843.915L309.339 800.951L357.076 718.267Z" stroke="black" stroke-linecap="round"/>
<path d="M113.28 672.745L187.695 715.709" stroke="black" stroke-linecap="round"/>
<path d="M105.381 673.701C104.441 675.331 104.068 677.227 104.322 679.091C104.576 680.955 105.443 682.682 106.785 684" stroke="black" stroke-linecap="round"/>
<path d="M181.199 726.964C183.012 727.467 184.94 727.354 186.682 726.642C188.423 725.93 189.879 724.659 190.819 723.03" stroke="black" stroke-linecap="round"/>
<path d="M190.816 723.03L230.2 654.816L224.688 651.634" stroke="black" stroke-linecap="round"/>
<path d="M105.382 673.701L144.766 605.487L150.278 608.669" stroke="black" stroke-linecap="round"/>
<path d="M154.525 601.317L228.941 644.281L181.203 726.964L106.788 684.001L154.525 601.317Z" stroke="black" stroke-linecap="round"/>
<path d="M214.561 731.212L288.977 774.175" stroke="black" stroke-linecap="round"/>
<path d="M206.663 732.168C205.722 733.797 205.349 735.693 205.603 737.557C205.857 739.421 206.724 741.148 208.066 742.466" stroke="black" stroke-linecap="round"/>
<path d="M282.48 785.43C284.293 785.933 286.221 785.82 287.963 785.108C289.704 784.396 291.16 783.126 292.101 781.496" stroke="black" stroke-linecap="round"/>
<path d="M292.098 781.497L331.481 713.283L325.969 710.1" stroke="black" stroke-linecap="round"/>
<path d="M206.664 732.168L246.047 663.954L251.559 667.137" stroke="black" stroke-linecap="round"/>
<path d="M255.807 659.783L330.222 702.747L282.484 785.431L208.069 742.467L255.807 659.783Z" stroke="black" stroke-linecap="round"/>
<path d="M12.0105 614.279L86.4258 657.242" stroke="black" stroke-linecap="round"/>
<path d="M4.10799 615.236C3.16726 616.865 2.79465 618.761 3.04873 620.625C3.30281 622.489 4.16925 624.216 5.51172 625.534" stroke="black" stroke-linecap="round"/>
<path d="M79.9292 668.498C81.742 669.002 83.6707 668.889 85.4122 668.177C87.1537 667.464 88.6092 666.194 89.5499 664.565" stroke="black" stroke-linecap="round"/>
<path d="M89.5469 664.564L128.93 596.35L123.418 593.167" stroke="black" stroke-linecap="round"/>
<path d="M4.11276 615.235L43.4961 547.021L49.0084 550.204" stroke="black" stroke-linecap="round"/>
<path d="M53.2519 542.85L127.667 585.814L79.9297 668.498L5.51443 625.534L53.2519 542.85Z" stroke="black" stroke-linecap="round"/>
<path d="M417.108 1082.05L491.523 1125.01" stroke="black" stroke-linecap="round"/>
<path d="M409.21 1083C408.269 1084.63 407.896 1086.53 408.15 1088.39C408.404 1090.26 409.271 1091.98 410.613 1093.3" stroke="black" stroke-linecap="round"/>
<path d="M485.027 1136.26C486.84 1136.77 488.768 1136.65 490.51 1135.94C492.251 1135.23 493.707 1133.96 494.648 1132.33" stroke="black" stroke-linecap="round"/>
<path d="M494.645 1132.33L534.028 1064.12L528.516 1060.93" stroke="black" stroke-linecap="round"/>
<path d="M409.21 1083L448.594 1014.79L454.106 1017.97" stroke="black" stroke-linecap="round"/>
<path d="M458.353 1010.62L532.769 1053.58L485.031 1136.26L410.616 1093.3L458.353 1010.62Z" stroke="black" stroke-linecap="round"/>
<path d="M315.831 1023.58L390.246 1066.54" stroke="black" stroke-linecap="round"/>
<path d="M307.928 1024.53C306.988 1026.16 306.615 1028.06 306.869 1029.92C307.123 1031.79 307.99 1033.52 309.332 1034.83" stroke="black" stroke-linecap="round"/>
<path d="M383.749 1077.8C385.562 1078.3 387.491 1078.19 389.232 1077.48C390.974 1076.76 392.43 1075.49 393.37 1073.86" stroke="black" stroke-linecap="round"/>
<path d="M393.367 1073.86L432.751 1005.65L427.238 1002.47" stroke="black" stroke-linecap="round"/>
<path d="M307.933 1024.54L347.316 956.321L352.829 959.504" stroke="black" stroke-linecap="round"/>
<path d="M357.076 952.15L431.491 995.114L383.754 1077.8L309.339 1034.83L357.076 952.15Z" stroke="black" stroke-linecap="round"/>
<path d="M113.28 906.629L187.695 949.592" stroke="black" stroke-linecap="round"/>
<path d="M105.381 907.585C104.441 909.215 104.068 911.11 104.322 912.975C104.576 914.839 105.443 916.566 106.785 917.884" stroke="black" stroke-linecap="round"/>
<path d="M181.199 960.847C183.012 961.351 184.94 961.238 186.682 960.526C188.423 959.814 189.879 958.543 190.819 956.914" stroke="black" stroke-linecap="round"/>
<path d="M190.816 956.914L230.2 888.7L224.688 885.518" stroke="black" stroke-linecap="round"/>
<path d="M105.382 907.586L144.766 839.372L150.278 842.554" stroke="black" stroke-linecap="round"/>
<path d="M154.525 835.2L228.941 878.164L181.203 960.848L106.788 917.884L154.525 835.2Z" stroke="black" stroke-linecap="round"/>
<path d="M214.561 965.094L288.977 1008.06" stroke="black" stroke-linecap="round"/>
<path d="M206.663 966.051C205.722 967.68 205.349 969.576 205.603 971.44C205.857 973.305 206.724 975.031 208.066 976.35" stroke="black" stroke-linecap="round"/>
<path d="M282.48 1019.31C284.293 1019.82 286.221 1019.7 287.963 1018.99C289.704 1018.28 291.16 1017.01 292.101 1015.38" stroke="black" stroke-linecap="round"/>
<path d="M292.098 1015.38L331.481 947.166L325.969 943.983" stroke="black" stroke-linecap="round"/>
<path d="M206.664 966.051L246.047 897.837L251.559 901.02" stroke="black" stroke-linecap="round"/>
<path d="M255.807 893.666L330.222 936.63L282.484 1019.31L208.069 976.35L255.807 893.666Z" stroke="black" stroke-linecap="round"/>
<path d="M12.0105 848.163L86.4258 891.126" stroke="black" stroke-linecap="round"/>
<path d="M4.10799 849.119C3.16726 850.748 2.79465 852.644 3.04873 854.508C3.30281 856.372 4.16925 858.099 5.51172 859.417" stroke="black" stroke-linecap="round"/>
<path d="M79.9292 902.381C81.742 902.884 83.6707 902.771 85.4122 902.059C87.1537 901.347 88.6092 900.077 89.5499 898.447" stroke="black" stroke-linecap="round"/>
<path d="M89.5469 898.448L128.93 830.234L123.418 827.051" stroke="black" stroke-linecap="round"/>
<path d="M4.11276 849.119L43.4961 780.905L49.0084 784.088" stroke="black" stroke-linecap="round"/>
<path d="M53.2519 776.734L127.667 819.698L79.9297 902.381L5.51443 859.418L53.2519 776.734Z" stroke="black" stroke-linecap="round"/>
<path d="M417.108 1315.93L491.523 1358.89" stroke="black" stroke-linecap="round"/>
<path d="M409.21 1316.89C408.269 1318.51 407.896 1320.41 408.15 1322.27C408.404 1324.14 409.271 1325.87 410.613 1327.18" stroke="black" stroke-linecap="round"/>
<path d="M485.027 1370.15C486.84 1370.65 488.768 1370.54 490.51 1369.83C492.251 1369.11 493.707 1367.84 494.648 1366.21" stroke="black" stroke-linecap="round"/>
<path d="M494.645 1366.21L534.028 1298L528.516 1294.82" stroke="black" stroke-linecap="round"/>
<path d="M409.21 1316.89L448.594 1248.67L454.106 1251.85" stroke="black" stroke-linecap="round"/>
<path d="M458.353 1244.5L532.769 1287.46L485.031 1370.15L410.616 1327.18L458.353 1244.5Z" stroke="black" stroke-linecap="round"/>
<path d="M315.831 1257.46L390.246 1300.43" stroke="black" stroke-linecap="round"/>
<path d="M307.928 1258.42C306.988 1260.05 306.615 1261.94 306.869 1263.81C307.123 1265.67 307.99 1267.4 309.332 1268.72" stroke="black" stroke-linecap="round"/>
<path d="M383.749 1311.68C385.562 1312.18 387.491 1312.07 389.232 1311.36C390.974 1310.65 392.43 1309.38 393.37 1307.75" stroke="black" stroke-linecap="round"/>
<path d="M393.367 1307.75L432.751 1239.53L427.238 1236.35" stroke="black" stroke-linecap="round"/>
<path d="M307.933 1258.42L347.316 1190.2L352.829 1193.39" stroke="black" stroke-linecap="round"/>
<path d="M357.076 1186.03L431.491 1229L383.754 1311.68L309.339 1268.72L357.076 1186.03Z" stroke="black" stroke-linecap="round"/>
<path d="M113.28 1140.51L187.695 1183.48" stroke="black" stroke-linecap="round"/>
<path d="M105.381 1141.47C104.441 1143.1 104.068 1144.99 104.322 1146.86C104.576 1148.72 105.443 1150.45 106.785 1151.77" stroke="black" stroke-linecap="round"/>
<path d="M181.199 1194.73C183.012 1195.23 184.94 1195.12 186.682 1194.41C188.423 1193.7 189.879 1192.43 190.819 1190.8" stroke="black" stroke-linecap="round"/>
<path d="M190.816 1190.8L230.2 1122.58L224.688 1119.4" stroke="black" stroke-linecap="round"/>
<path d="M105.382 1141.47L144.766 1073.25L150.278 1076.44" stroke="black" stroke-linecap="round"/>
<path d="M154.525 1069.08L228.941 1112.05L181.203 1194.73L106.788 1151.77L154.525 1069.08Z" stroke="black" stroke-linecap="round"/>
<path d="M214.561 1198.98L288.977 1241.94" stroke="black" stroke-linecap="round"/>
<path d="M206.663 1199.93C205.722 1201.56 205.349 1203.46 205.603 1205.32C205.857 1207.19 206.724 1208.92 208.066 1210.23" stroke="black" stroke-linecap="round"/>
<path d="M282.48 1253.2C284.293 1253.7 286.221 1253.59 287.963 1252.88C289.704 1252.16 291.16 1250.89 292.101 1249.26" stroke="black" stroke-linecap="round"/>
<path d="M292.098 1249.26L331.481 1181.05L325.969 1177.87" stroke="black" stroke-linecap="round"/>
<path d="M206.664 1199.94L246.047 1131.72L251.559 1134.9" stroke="black" stroke-linecap="round"/>
<path d="M255.807 1127.55L330.222 1170.51L282.484 1253.2L208.069 1210.23L255.807 1127.55Z" stroke="black" stroke-linecap="round"/>
<path d="M12.0105 1082.05L86.4258 1125.01" stroke="black" stroke-linecap="round"/>
<path d="M4.10799 1083C3.16726 1084.63 2.79465 1086.53 3.04873 1088.39C3.30281 1090.26 4.16925 1091.98 5.51172 1093.3" stroke="black" stroke-linecap="round"/>
<path d="M79.9292 1136.26C81.742 1136.77 83.6707 1136.65 85.4122 1135.94C87.1537 1135.23 88.6092 1133.96 89.5499 1132.33" stroke="black" stroke-linecap="round"/>
<path d="M89.5469 1132.33L128.93 1064.12L123.418 1060.93" stroke="black" stroke-linecap="round"/>
<path d="M4.11276 1083L43.4961 1014.79L49.0084 1017.97" stroke="black" stroke-linecap="round"/>
<path d="M53.2519 1010.62L127.667 1053.58L79.9297 1136.26L5.51443 1093.3L53.2519 1010.62Z" stroke="black" stroke-linecap="round"/>
<path d="M774.464 891.122L848.879 848.159" stroke="black" stroke-linecap="round"/>
<path d="M771.344 898.444C772.285 900.073 773.74 901.344 775.482 902.056C777.223 902.768 779.152 902.881 780.965 902.377" stroke="black" stroke-linecap="round"/>
<path d="M855.382 859.413C856.725 858.095 857.591 856.368 857.845 854.504C858.099 852.64 857.727 850.744 856.786 849.115" stroke="black" stroke-linecap="round"/>
<path d="M856.781 849.115L817.398 780.901L811.886 784.083" stroke="black" stroke-linecap="round"/>
<path d="M771.343 898.443L731.96 830.229L737.472 827.047" stroke="black" stroke-linecap="round"/>
<path d="M733.226 819.693L807.641 776.729L855.379 859.413L780.964 902.377L733.226 819.693Z" stroke="black" stroke-linecap="round"/>
<path d="M875.749 832.656L950.164 789.692" stroke="black" stroke-linecap="round"/>
<path d="M872.629 839.977C873.57 841.606 875.025 842.877 876.767 843.589C878.508 844.301 880.437 844.414 882.25 843.911" stroke="black" stroke-linecap="round"/>
<path d="M956.667 800.947C958.01 799.629 958.876 797.902 959.13 796.038C959.385 794.174 959.012 792.278 958.071 790.648" stroke="black" stroke-linecap="round"/>
<path d="M958.066 790.648L918.683 722.434L913.171 725.617" stroke="black" stroke-linecap="round"/>
<path d="M872.624 839.977L833.241 771.763L838.753 768.58" stroke="black" stroke-linecap="round"/>
<path d="M834.511 761.227L908.927 718.263L956.664 800.947L882.249 843.91L834.511 761.227Z" stroke="black" stroke-linecap="round"/>
<path d="M1078.3 715.705L1152.71 672.742" stroke="black" stroke-linecap="round"/>
<path d="M1075.18 723.026C1076.12 724.656 1077.58 725.926 1079.32 726.638C1081.06 727.35 1082.99 727.463 1084.8 726.96" stroke="black" stroke-linecap="round"/>
<path d="M1159.22 683.996C1160.56 682.678 1161.43 680.951 1161.68 679.087C1161.94 677.223 1161.56 675.327 1160.62 673.698" stroke="black" stroke-linecap="round"/>
<path d="M1160.62 673.697L1121.23 605.483L1115.72 608.666" stroke="black" stroke-linecap="round"/>
<path d="M1075.18 723.026L1035.79 654.812L1041.3 651.63" stroke="black" stroke-linecap="round"/>
<path d="M1037.06 644.277L1111.47 601.313L1159.21 683.997L1084.8 726.96L1037.06 644.277Z" stroke="black" stroke-linecap="round"/>
<path d="M977.014 774.172L1051.43 731.208" stroke="black" stroke-linecap="round"/>
<path d="M973.895 781.494C974.836 783.123 976.291 784.394 978.033 785.106C979.774 785.818 981.703 785.931 983.516 785.427" stroke="black" stroke-linecap="round"/>
<path d="M1057.93 742.464C1059.28 741.146 1060.14 739.419 1060.4 737.555C1060.65 735.69 1060.28 733.794 1059.34 732.165" stroke="black" stroke-linecap="round"/>
<path d="M1059.33 732.165L1019.95 663.951L1014.44 667.133" stroke="black" stroke-linecap="round"/>
<path d="M973.89 781.493L934.507 713.279L940.019 710.097" stroke="black" stroke-linecap="round"/>
<path d="M935.777 702.743L1010.19 659.78L1057.93 742.463L983.514 785.427L935.777 702.743Z" stroke="black" stroke-linecap="round"/>
<path d="M1179.57 657.24L1253.98 614.276" stroke="black" stroke-linecap="round"/>
<path d="M1176.45 664.561C1177.39 666.19 1178.85 667.461 1180.59 668.173C1182.33 668.885 1184.26 668.998 1186.07 668.495" stroke="black" stroke-linecap="round"/>
<path d="M1260.49 625.531C1261.83 624.213 1262.7 622.486 1262.95 620.622C1263.2 618.758 1262.83 616.862 1261.89 615.232" stroke="black" stroke-linecap="round"/>
<path d="M1261.89 615.231L1222.5 547.017L1216.99 550.2" stroke="black" stroke-linecap="round"/>
<path d="M1176.45 664.56L1137.07 596.346L1142.58 593.164" stroke="black" stroke-linecap="round"/>
<path d="M1138.33 585.811L1212.75 542.848L1260.48 625.531L1186.07 668.495L1138.33 585.811Z" stroke="black" stroke-linecap="round"/>
<path d="M774.464 1125.01L848.879 1082.04" stroke="black" stroke-linecap="round"/>
<path d="M771.344 1132.33C772.285 1133.96 773.74 1135.23 775.482 1135.94C777.223 1136.65 779.152 1136.76 780.965 1136.26" stroke="black" stroke-linecap="round"/>
<path d="M855.382 1093.3C856.725 1091.98 857.591 1090.25 857.845 1088.39C858.099 1086.52 857.727 1084.63 856.786 1083" stroke="black" stroke-linecap="round"/>
<path d="M856.781 1083L817.398 1014.78L811.886 1017.97" stroke="black" stroke-linecap="round"/>
<path d="M771.343 1132.33L731.96 1064.11L737.472 1060.93" stroke="black" stroke-linecap="round"/>
<path d="M733.226 1053.58L807.641 1010.61L855.379 1093.3L780.964 1136.26L733.226 1053.58Z" stroke="black" stroke-linecap="round"/>
<path d="M875.749 1066.54L950.164 1023.58" stroke="black" stroke-linecap="round"/>
<path d="M872.629 1073.86C873.57 1075.49 875.025 1076.76 876.767 1077.47C878.508 1078.18 880.437 1078.3 882.25 1077.79" stroke="black" stroke-linecap="round"/>
<path d="M956.667 1034.83C958.01 1033.51 958.876 1031.79 959.13 1029.92C959.385 1028.06 959.012 1026.16 958.071 1024.53" stroke="black" stroke-linecap="round"/>
<path d="M958.066 1024.53L918.683 956.318L913.171 959.5" stroke="black" stroke-linecap="round"/>
<path d="M872.624 1073.86L833.241 1005.65L838.753 1002.46" stroke="black" stroke-linecap="round"/>
<path d="M834.511 995.11L908.927 952.146L956.664 1034.83L882.249 1077.79L834.511 995.11Z" stroke="black" stroke-linecap="round"/>
<path d="M1078.3 949.589L1152.71 906.625" stroke="black" stroke-linecap="round"/>
<path d="M1075.18 956.911C1076.12 958.54 1077.58 959.811 1079.32 960.523C1081.06 961.235 1082.99 961.348 1084.8 960.844" stroke="black" stroke-linecap="round"/>
<path d="M1159.22 917.881C1160.56 916.563 1161.43 914.836 1161.68 912.972C1161.94 911.107 1161.56 909.211 1160.62 907.582" stroke="black" stroke-linecap="round"/>
<path d="M1160.62 907.582L1121.23 839.368L1115.72 842.55" stroke="black" stroke-linecap="round"/>
<path d="M1075.18 956.91L1035.79 888.696L1041.3 885.514" stroke="black" stroke-linecap="round"/>
<path d="M1037.06 878.16L1111.47 835.196L1159.21 917.88L1084.8 960.844L1037.06 878.16Z" stroke="black" stroke-linecap="round"/>
<path d="M977.014 1008.07L1051.43 965.108" stroke="black" stroke-linecap="round"/>
<path d="M973.895 1015.39C974.836 1017.02 976.291 1018.29 978.033 1019.01C979.774 1019.72 981.703 1019.83 983.516 1019.33" stroke="black" stroke-linecap="round"/>
<path d="M1057.93 976.364C1059.28 975.045 1060.14 973.319 1060.4 971.454C1060.65 969.59 1060.28 967.694 1059.34 966.065" stroke="black" stroke-linecap="round"/>
<path d="M1059.33 966.064L1019.95 897.85L1014.44 901.033" stroke="black" stroke-linecap="round"/>
<path d="M973.89 1015.39L934.507 947.179L940.019 943.996" stroke="black" stroke-linecap="round"/>
<path d="M935.777 936.643L1010.19 893.68L1057.93 976.363L983.514 1019.33L935.777 936.643Z" stroke="black" stroke-linecap="round"/>
<path d="M1179.57 891.122L1253.98 848.159" stroke="black" stroke-linecap="round"/>
<path d="M1176.45 898.444C1177.39 900.073 1178.85 901.344 1180.59 902.056C1182.33 902.768 1184.26 902.881 1186.07 902.377" stroke="black" stroke-linecap="round"/>
<path d="M1260.49 859.413C1261.83 858.095 1262.7 856.368 1262.95 854.504C1263.2 852.64 1262.83 850.744 1261.89 849.115" stroke="black" stroke-linecap="round"/>
<path d="M1261.89 849.115L1222.5 780.901L1216.99 784.083" stroke="black" stroke-linecap="round"/>
<path d="M1176.45 898.443L1137.07 830.229L1142.58 827.047" stroke="black" stroke-linecap="round"/>
<path d="M1138.33 819.693L1212.75 776.729L1260.48 859.413L1186.07 902.377L1138.33 819.693Z" stroke="black" stroke-linecap="round"/>
<path d="M774.464 1358.89L848.879 1315.92" stroke="black" stroke-linecap="round"/>
<path d="M771.344 1366.21C772.285 1367.84 773.74 1369.11 775.482 1369.82C777.223 1370.53 779.152 1370.65 780.965 1370.14" stroke="black" stroke-linecap="round"/>
<path d="M855.382 1327.18C856.725 1325.86 857.591 1324.14 857.845 1322.27C858.099 1320.41 857.727 1318.51 856.786 1316.88" stroke="black" stroke-linecap="round"/>
<path d="M856.781 1316.88L817.398 1248.67L811.886 1251.85" stroke="black" stroke-linecap="round"/>
<path d="M771.343 1366.21L731.96 1298L737.472 1294.81" stroke="black" stroke-linecap="round"/>
<path d="M733.226 1287.46L807.641 1244.5L855.379 1327.18L780.964 1370.14L733.226 1287.46Z" stroke="black" stroke-linecap="round"/>
<path d="M875.749 1300.42L950.164 1257.46" stroke="black" stroke-linecap="round"/>
<path d="M872.629 1307.74C873.57 1309.37 875.025 1310.64 876.767 1311.36C878.508 1312.07 880.437 1312.18 882.25 1311.68" stroke="black" stroke-linecap="round"/>
<path d="M956.667 1268.71C958.01 1267.4 958.876 1265.67 959.13 1263.81C959.385 1261.94 959.012 1260.04 958.071 1258.42" stroke="black" stroke-linecap="round"/>
<path d="M958.066 1258.42L918.683 1190.2L913.171 1193.38" stroke="black" stroke-linecap="round"/>
<path d="M872.624 1307.74L833.241 1239.53L838.753 1236.35" stroke="black" stroke-linecap="round"/>
<path d="M834.511 1228.99L908.927 1186.03L956.664 1268.71L882.249 1311.68L834.511 1228.99Z" stroke="black" stroke-linecap="round"/>
<path d="M1078.3 1183.47L1152.71 1140.51" stroke="black" stroke-linecap="round"/>
<path d="M1075.18 1190.79C1076.12 1192.42 1077.58 1193.69 1079.32 1194.41C1081.06 1195.12 1082.99 1195.23 1084.8 1194.73" stroke="black" stroke-linecap="round"/>
<path d="M1159.22 1151.76C1160.56 1150.45 1161.43 1148.72 1161.68 1146.85C1161.94 1144.99 1161.56 1143.09 1160.62 1141.46" stroke="black" stroke-linecap="round"/>
<path d="M1160.62 1141.46L1121.23 1073.25L1115.72 1076.43" stroke="black" stroke-linecap="round"/>
<path d="M1075.18 1190.79L1035.79 1122.58L1041.3 1119.4" stroke="black" stroke-linecap="round"/>
<path d="M1037.06 1112.04L1111.47 1069.08L1159.21 1151.76L1084.8 1194.73L1037.06 1112.04Z" stroke="black" stroke-linecap="round"/>
<path d="M977.014 1241.96L1051.43 1198.99" stroke="black" stroke-linecap="round"/>
<path d="M973.895 1249.28C974.836 1250.91 976.291 1252.18 978.033 1252.89C979.774 1253.6 981.703 1253.71 983.516 1253.21" stroke="black" stroke-linecap="round"/>
<path d="M1057.93 1210.25C1059.28 1208.93 1060.14 1207.2 1060.4 1205.34C1060.65 1203.47 1060.28 1201.58 1059.34 1199.95" stroke="black" stroke-linecap="round"/>
<path d="M1059.33 1199.95L1019.95 1131.73L1014.44 1134.92" stroke="black" stroke-linecap="round"/>
<path d="M973.89 1249.28L934.507 1181.06L940.019 1177.88" stroke="black" stroke-linecap="round"/>
<path d="M935.777 1170.53L1010.19 1127.56L1057.93 1210.25L983.514 1253.21L935.777 1170.53Z" stroke="black" stroke-linecap="round"/>
<path d="M1179.57 1125.01L1253.98 1082.04" stroke="black" stroke-linecap="round"/>
<path d="M1176.45 1132.33C1177.39 1133.96 1178.85 1135.23 1180.59 1135.94C1182.33 1136.65 1184.26 1136.76 1186.07 1136.26" stroke="black" stroke-linecap="round"/>
<path d="M1260.49 1093.3C1261.83 1091.98 1262.7 1090.25 1262.95 1088.39C1263.2 1086.52 1262.83 1084.63 1261.89 1083" stroke="black" stroke-linecap="round"/>
<path d="M1261.89 1083L1222.5 1014.78L1216.99 1017.97" stroke="black" stroke-linecap="round"/>
<path d="M1176.45 1132.33L1137.07 1064.11L1142.58 1060.93" stroke="black" stroke-linecap="round"/>
<path d="M1138.33 1053.58L1212.75 1010.61L1260.48 1093.3L1186.07 1136.26L1138.33 1053.58Z" stroke="black" stroke-linecap="round"/>
<path d="M113.28 1374.4L187.695 1417.36" stroke="black" stroke-linecap="round"/>
<path d="M105.381 1375.35C104.441 1376.98 104.068 1378.88 104.322 1380.74C104.576 1382.61 105.443 1384.33 106.785 1385.65" stroke="black" stroke-linecap="round"/>
<path d="M181.199 1428.61C183.012 1429.12 184.94 1429 186.682 1428.29C188.423 1427.58 189.879 1426.31 190.819 1424.68" stroke="black" stroke-linecap="round"/>
<path d="M190.816 1424.68L230.2 1356.47L224.688 1353.28" stroke="black" stroke-linecap="round"/>
<path d="M105.382 1375.35L144.766 1307.14L150.278 1310.32" stroke="black" stroke-linecap="round"/>
<path d="M154.525 1302.97L228.941 1345.93L181.203 1428.61L106.788 1385.65L154.525 1302.97Z" stroke="black" stroke-linecap="round"/>
<path d="M12.0105 1315.93L86.4258 1358.89" stroke="black" stroke-linecap="round"/>
<path d="M4.10799 1316.89C3.16726 1318.51 2.79465 1320.41 3.04873 1322.27C3.30281 1324.14 4.16925 1325.87 5.51172 1327.18" stroke="black" stroke-linecap="round"/>
<path d="M79.9292 1370.15C81.742 1370.65 83.6707 1370.54 85.4122 1369.83C87.1537 1369.11 88.6092 1367.84 89.5499 1366.21" stroke="black" stroke-linecap="round"/>
<path d="M89.5469 1366.21L128.93 1298L123.418 1294.82" stroke="black" stroke-linecap="round"/>
<path d="M4.11276 1316.89L43.4961 1248.67L49.0084 1251.85" stroke="black" stroke-linecap="round"/>
<path d="M53.2519 1244.5L127.667 1287.46L79.9297 1370.15L5.51443 1327.18L53.2519 1244.5Z" stroke="black" stroke-linecap="round"/>
<path d="M1078.3 1417.35L1152.71 1374.39" stroke="black" stroke-linecap="round"/>
<path d="M1075.18 1424.68C1076.12 1426.31 1077.58 1427.58 1079.32 1428.29C1081.06 1429 1082.99 1429.11 1084.8 1428.61" stroke="black" stroke-linecap="round"/>
<path d="M1159.22 1385.65C1160.56 1384.33 1161.43 1382.6 1161.68 1380.74C1161.94 1378.87 1161.56 1376.98 1160.62 1375.35" stroke="black" stroke-linecap="round"/>
<path d="M1160.62 1375.35L1121.23 1307.13L1115.72 1310.32" stroke="black" stroke-linecap="round"/>
<path d="M1075.18 1424.68L1035.79 1356.46L1041.3 1353.28" stroke="black" stroke-linecap="round"/>
<path d="M1037.06 1345.93L1111.47 1302.96L1159.21 1385.65L1084.8 1428.61L1037.06 1345.93Z" stroke="black" stroke-linecap="round"/>
<path d="M1179.57 1358.89L1253.98 1315.92" stroke="black" stroke-linecap="round"/>
<path d="M1176.45 1366.21C1177.39 1367.84 1178.85 1369.11 1180.59 1369.82C1182.33 1370.53 1184.26 1370.65 1186.07 1370.14" stroke="black" stroke-linecap="round"/>
<path d="M1260.49 1327.18C1261.83 1325.86 1262.7 1324.14 1262.95 1322.27C1263.2 1320.41 1262.83 1318.51 1261.89 1316.88" stroke="black" stroke-linecap="round"/>
<path d="M1261.89 1316.88L1222.5 1248.67L1216.99 1251.85" stroke="black" stroke-linecap="round"/>
<path d="M1176.45 1366.21L1137.07 1298L1142.58 1294.81" stroke="black" stroke-linecap="round"/>
<path d="M1138.33 1287.46L1212.75 1244.5L1260.48 1327.18L1186.07 1370.14L1138.33 1287.46Z" stroke="black" stroke-linecap="round"/>
<path d="M1065.03 75.2695H979.102" stroke="black" stroke-linecap="round"/>
<path d="M1071.4 70.4895C1071.4 68.608 1070.77 66.7799 1069.62 65.2925C1068.47 63.8051 1066.85 62.7428 1065.03 62.2725" stroke="black" stroke-linecap="round"/>
<path d="M979.103 62.2725C977.282 62.7428 975.668 63.8051 974.516 65.2925C973.363 66.7799 972.738 68.608 972.738 70.4895" stroke="black" stroke-linecap="round"/>
<path d="M972.738 70.4902V149.257H979.103" stroke="black" stroke-linecap="round"/>
<path d="M1071.4 70.4902V149.257H1065.03" stroke="black" stroke-linecap="round"/>
<path d="M1065.03 157.747H979.102V62.2725H1065.03V157.747Z" stroke="black" stroke-linecap="round"/>
<path d="M632.996 0.5H382.406V8.85313H632.996H883.587V0.5H632.996Z" stroke="black" stroke-linecap="round"/>
<path d="M1105.6 174.454H938.539V274.69H1105.6V174.454Z" stroke="black" stroke-linecap="round"/>
<path d="M774.464 657.24L848.879 614.276" stroke="black" stroke-linecap="round"/>
<path d="M771.344 664.561C772.285 666.19 773.74 667.461 775.482 668.173C777.223 668.885 779.152 668.998 780.965 668.495" stroke="black" stroke-linecap="round"/>
<path d="M855.382 625.531C856.725 624.213 857.591 622.486 857.845 620.622C858.099 618.758 857.727 616.862 856.786 615.232" stroke="black" stroke-linecap="round"/>
<path d="M856.781 615.231L817.398 547.017L811.886 550.2" stroke="black" stroke-linecap="round"/>
<path d="M771.343 664.56L731.96 596.346L737.472 593.164" stroke="black" stroke-linecap="round"/>
<path d="M733.226 585.811L807.641 542.848L855.379 625.531L780.964 668.495L733.226 585.811Z" stroke="black" stroke-linecap="round"/>
<path d="M875.749 598.772L950.164 555.809" stroke="black" stroke-linecap="round"/>
<path d="M872.629 606.093C873.57 607.722 875.025 608.993 876.767 609.705C878.508 610.417 880.437 610.53 882.25 610.026" stroke="black" stroke-linecap="round"/>
<path d="M956.667 567.063C958.01 565.745 958.876 564.018 959.13 562.154C959.385 560.29 959.012 558.394 958.071 556.765" stroke="black" stroke-linecap="round"/>
<path d="M958.066 556.765L918.683 488.551L913.171 491.733" stroke="black" stroke-linecap="round"/>
<path d="M872.624 606.093L833.241 537.879L838.753 534.696" stroke="black" stroke-linecap="round"/>
<path d="M834.511 527.344L908.927 484.38L956.664 567.063L882.249 610.027L834.511 527.344Z" stroke="black" stroke-linecap="round"/>
<path d="M1078.3 481.822L1152.71 438.858" stroke="black" stroke-linecap="round"/>
<path d="M1075.18 489.143C1076.12 490.772 1077.58 492.043 1079.32 492.755C1081.06 493.467 1082.99 493.58 1084.8 493.076" stroke="black" stroke-linecap="round"/>
<path d="M1159.22 450.113C1160.56 448.795 1161.43 447.068 1161.68 445.204C1161.94 443.34 1161.56 441.444 1160.62 439.815" stroke="black" stroke-linecap="round"/>
<path d="M1160.62 439.813L1121.23 371.599L1115.72 374.782" stroke="black" stroke-linecap="round"/>
<path d="M1075.18 489.142L1035.79 420.928L1041.3 417.746" stroke="black" stroke-linecap="round"/>
<path d="M1037.06 410.393L1111.47 367.43L1159.21 450.113L1084.8 493.077L1037.06 410.393Z" stroke="black" stroke-linecap="round"/>
<path d="M977.014 540.289L1051.43 497.325" stroke="black" stroke-linecap="round"/>
<path d="M973.895 547.61C974.836 549.24 976.291 550.51 978.033 551.222C979.774 551.934 981.703 552.047 983.516 551.544" stroke="black" stroke-linecap="round"/>
<path d="M1057.93 508.58C1059.28 507.262 1060.14 505.535 1060.4 503.671C1060.65 501.807 1060.28 499.911 1059.34 498.281" stroke="black" stroke-linecap="round"/>
<path d="M1059.33 498.281L1019.95 430.067L1014.44 433.25" stroke="black" stroke-linecap="round"/>
<path d="M973.89 547.609L934.507 479.395L940.019 476.213" stroke="black" stroke-linecap="round"/>
<path d="M935.777 468.86L1010.19 425.896L1057.93 508.58L983.514 551.544L935.777 468.86Z" stroke="black" stroke-linecap="round"/>
</svg>
