<svg width="1126" height="1126" viewBox="0 0 1126 1126" fill="none" xmlns="http://www.w3.org/2000/svg">
<path d="M71.2054 320.175L43.5391 386.967" stroke="black" stroke-linecap="round"/>
<path d="M69.5421 313.689C68.0796 313.084 66.4574 312.981 64.9302 313.398C63.4031 313.814 62.0576 314.727 61.1055 315.991" stroke="black" stroke-linecap="round"/>
<path d="M33.44 382.783C33.2191 384.351 33.5253 385.947 34.3106 387.322C35.0958 388.696 36.3154 389.771 37.7779 390.377" stroke="black" stroke-linecap="round"/>
<path d="M37.7734 390.376L99 415.737L101.049 410.79" stroke="black" stroke-linecap="round"/>
<path d="M69.5415 313.689L130.768 339.05L128.719 343.998" stroke="black" stroke-linecap="round"/>
<path d="M135.322 346.731L107.655 413.524L33.4414 382.783L61.1077 315.991L135.322 346.731Z" stroke="black" stroke-linecap="round"/>
<path d="M25.1161 455.732L15.6797 527.409" stroke="black" stroke-linecap="round"/>
<path d="M21.8268 449.897C20.2574 449.691 18.6639 450.011 17.2966 450.809C15.9293 451.607 14.8659 452.836 14.2734 454.304" stroke="black" stroke-linecap="round"/>
<path d="M4.83572 525.981C5.02802 527.552 5.73706 529.015 6.85127 530.14C7.96549 531.264 9.42166 531.986 10.9911 532.193" stroke="black" stroke-linecap="round"/>
<path d="M10.9961 532.193L76.7002 540.843L77.3992 535.534" stroke="black" stroke-linecap="round"/>
<path d="M21.8279 449.897L87.5321 458.547L86.8331 463.857" stroke="black" stroke-linecap="round"/>
<path d="M93.9176 464.789L84.4811 536.466L4.83984 525.981L14.2763 454.304L93.9176 464.789Z" stroke="black" stroke-linecap="round"/>
<path d="M150.819 201.165L106.809 258.521" stroke="black" stroke-linecap="round"/>
<path d="M150.886 194.469C149.63 193.505 148.089 192.986 146.506 192.994C144.923 193.001 143.388 193.534 142.141 194.509" stroke="black" stroke-linecap="round"/>
<path d="M98.1311 251.865C97.5121 253.322 97.3947 254.943 97.7974 256.474C98.2002 258.005 99.1001 259.358 100.356 260.322" stroke="black" stroke-linecap="round"/>
<path d="M100.355 260.321L152.932 300.665L156.192 296.416" stroke="black" stroke-linecap="round"/>
<path d="M150.885 194.468L203.461 234.811L200.201 239.06" stroke="black" stroke-linecap="round"/>
<path d="M205.872 243.409L161.862 300.765L98.1328 251.864L142.144 194.508L205.872 243.409Z" stroke="black" stroke-linecap="round"/>
<path d="M211.614 563.001L99.168 563.001" stroke="black" stroke-linecap="round"/>
<path d="M314.533 314.529L235.022 235.018" stroke="black" stroke-linecap="round"/>
<path d="M211.613 563.001L99.1669 563.001C99.1669 502.089 111.164 441.773 134.474 385.498C157.784 329.222 191.951 278.089 235.022 235.018L314.533 314.529C281.903 347.159 256.02 385.896 238.361 428.529C220.702 471.162 211.613 516.856 211.613 563.001Z" stroke="black" stroke-linecap="round"/>
<path d="M43.5368 739.048L71.2031 805.841" stroke="black" stroke-linecap="round"/>
<path d="M37.7793 735.639C36.3168 736.245 35.0972 737.319 34.312 738.694C33.5268 740.068 33.2205 741.665 33.4414 743.232" stroke="black" stroke-linecap="round"/>
<path d="M61.103 810.025C62.0551 811.29 63.4006 812.202 64.9278 812.619C66.4549 813.035 68.0771 812.933 69.5396 812.327" stroke="black" stroke-linecap="round"/>
<path d="M69.543 812.327L130.77 786.966L128.72 782.019" stroke="black" stroke-linecap="round"/>
<path d="M37.7788 735.639L99.0053 710.278L101.055 715.226" stroke="black" stroke-linecap="round"/>
<path d="M107.653 712.492L135.319 779.285L61.1055 810.025L33.4392 743.232L107.653 712.492Z" stroke="black" stroke-linecap="round"/>
<path d="M106.806 867.497L150.816 924.853" stroke="black" stroke-linecap="round"/>
<path d="M100.35 865.696C99.094 866.659 98.194 868.013 97.7913 869.544C97.3886 871.075 97.5059 872.696 98.125 874.153" stroke="black" stroke-linecap="round"/>
<path d="M142.134 931.509C143.381 932.484 144.917 933.017 146.5 933.025C148.083 933.032 149.624 932.513 150.879 931.549" stroke="black" stroke-linecap="round"/>
<path d="M150.879 931.549L203.455 891.206L200.195 886.957" stroke="black" stroke-linecap="round"/>
<path d="M100.349 865.695L152.926 825.352L156.186 829.601" stroke="black" stroke-linecap="round"/>
<path d="M161.859 825.252L205.869 882.608L142.141 931.509L98.1299 874.153L161.859 825.252Z" stroke="black" stroke-linecap="round"/>
<path d="M15.6807 598.598L25.1172 670.275" stroke="black" stroke-linecap="round"/>
<path d="M10.9952 593.814C9.42579 594.02 7.96962 594.742 6.8554 595.867C5.74118 596.991 5.03214 598.454 4.83984 600.025" stroke="black" stroke-linecap="round"/>
<path d="M14.2737 671.703C14.8661 673.171 15.9296 674.4 17.2968 675.198C18.6641 675.996 20.2576 676.316 21.827 676.11" stroke="black" stroke-linecap="round"/>
<path d="M21.8281 676.11L87.5323 667.46L86.8333 662.15" stroke="black" stroke-linecap="round"/>
<path d="M10.9963 593.814L76.7005 585.164L77.3995 590.473" stroke="black" stroke-linecap="round"/>
<path d="M84.4783 589.541L93.9147 661.218L14.2734 671.703L4.83698 600.026L84.4783 589.541Z" stroke="black" stroke-linecap="round"/>
<path d="M314.531 811.473L235.02 890.984" stroke="black" stroke-linecap="round"/>
<path d="M211.607 563.001L99.1616 563.001" stroke="black" stroke-linecap="round"/>
<path d="M314.53 811.474L235.018 890.985C191.947 847.914 157.781 796.78 134.471 740.505C111.161 684.229 99.1634 623.913 99.1634 563.001L211.609 563.001C211.609 609.147 220.698 654.841 238.357 697.474C256.016 740.107 281.9 778.844 314.53 811.474Z" stroke="black" stroke-linecap="round"/>
<path d="M320.168 1054.79L386.961 1082.46" stroke="black" stroke-linecap="round"/>
<path d="M313.686 1056.46C313.081 1057.92 312.978 1059.54 313.395 1061.07C313.811 1062.6 314.724 1063.94 315.988 1064.89" stroke="black" stroke-linecap="round"/>
<path d="M382.779 1092.56C384.346 1092.78 385.943 1092.47 387.317 1091.69C388.692 1090.9 389.766 1089.68 390.372 1088.22" stroke="black" stroke-linecap="round"/>
<path d="M390.371 1088.22L415.732 1027L410.784 1024.95" stroke="black" stroke-linecap="round"/>
<path d="M313.685 1056.46L339.046 995.23L343.994 997.28" stroke="black" stroke-linecap="round"/>
<path d="M346.729 990.68L413.522 1018.35L382.781 1092.56L315.989 1064.89L346.729 990.68Z" stroke="black" stroke-linecap="round"/>
<path d="M455.729 1100.89L527.406 1110.32" stroke="black" stroke-linecap="round"/>
<path d="M449.898 1104.17C449.691 1105.74 450.012 1107.34 450.81 1108.7C451.607 1110.07 452.837 1111.14 454.305 1111.73" stroke="black" stroke-linecap="round"/>
<path d="M525.98 1121.16C527.551 1120.97 529.014 1120.26 530.138 1119.15C531.263 1118.03 531.985 1116.58 532.191 1115.01" stroke="black" stroke-linecap="round"/>
<path d="M532.191 1115.01L540.842 1049.3L535.532 1048.61" stroke="black" stroke-linecap="round"/>
<path d="M449.898 1104.17L458.548 1038.47L463.857 1039.17" stroke="black" stroke-linecap="round"/>
<path d="M464.788 1032.09L536.465 1041.52L525.98 1121.16L454.303 1111.73L464.788 1032.09Z" stroke="black" stroke-linecap="round"/>
<path d="M201.16 975.191L258.516 1019.2" stroke="black" stroke-linecap="round"/>
<path d="M194.46 975.121C193.496 976.377 192.978 977.918 192.985 979.501C192.992 981.083 193.525 982.619 194.5 983.866" stroke="black" stroke-linecap="round"/>
<path d="M251.857 1027.88C253.314 1028.5 254.935 1028.61 256.466 1028.21C257.997 1027.81 259.35 1026.91 260.314 1025.65" stroke="black" stroke-linecap="round"/>
<path d="M260.316 1025.65L300.66 973.075L296.411 969.815" stroke="black" stroke-linecap="round"/>
<path d="M194.462 975.121L234.806 922.545L239.054 925.805" stroke="black" stroke-linecap="round"/>
<path d="M243.404 920.137L300.76 964.148L251.859 1027.88L194.503 983.866L243.404 920.137Z" stroke="black" stroke-linecap="round"/>
<path d="M563.004 914.39L563.004 1026.84" stroke="black" stroke-linecap="round"/>
<path d="M314.529 811.469L235.018 890.98" stroke="black" stroke-linecap="round"/>
<path d="M563.004 914.39L563.004 1026.84C502.092 1026.84 441.776 1014.84 385.5 991.528C329.225 968.218 278.092 934.052 235.02 890.98L314.531 811.469C347.161 844.099 385.898 869.983 428.531 887.642C471.164 905.301 516.858 914.39 563.004 914.39Z" stroke="black" stroke-linecap="round"/>
<path d="M739.04 1082.46L805.832 1054.79" stroke="black" stroke-linecap="round"/>
<path d="M735.633 1088.22C736.239 1089.68 737.314 1090.9 738.688 1091.69C740.063 1092.47 741.659 1092.78 743.227 1092.56" stroke="black" stroke-linecap="round"/>
<path d="M810.017 1064.89C811.282 1063.94 812.194 1062.6 812.611 1061.07C813.028 1059.54 812.925 1057.92 812.319 1056.46" stroke="black" stroke-linecap="round"/>
<path d="M812.316 1056.46L786.956 995.23L782.008 997.279" stroke="black" stroke-linecap="round"/>
<path d="M735.631 1088.22L710.27 1026.99L715.217 1024.95" stroke="black" stroke-linecap="round"/>
<path d="M712.487 1018.34L779.279 990.679L810.02 1064.89L743.227 1092.56L712.487 1018.34Z" stroke="black" stroke-linecap="round"/>
<path d="M867.5 1019.2L924.855 975.191" stroke="black" stroke-linecap="round"/>
<path d="M865.703 1025.65C866.667 1026.91 868.02 1027.81 869.551 1028.21C871.082 1028.61 872.703 1028.5 874.16 1027.88" stroke="black" stroke-linecap="round"/>
<path d="M931.517 983.866C932.492 982.619 933.025 981.083 933.032 979.5C933.04 977.917 932.521 976.377 931.557 975.121" stroke="black" stroke-linecap="round"/>
<path d="M931.555 975.121L891.211 922.545L886.963 925.805" stroke="black" stroke-linecap="round"/>
<path d="M865.701 1025.65L825.357 973.076L829.606 969.816" stroke="black" stroke-linecap="round"/>
<path d="M825.255 964.148L882.611 920.137L931.512 983.866L874.156 1027.88L825.255 964.148Z" stroke="black" stroke-linecap="round"/>
<path d="M598.6 1110.32L670.277 1100.89" stroke="black" stroke-linecap="round"/>
<path d="M593.819 1115.01C594.026 1116.58 594.748 1118.03 595.873 1119.15C596.997 1120.26 598.46 1120.97 600.031 1121.16" stroke="black" stroke-linecap="round"/>
<path d="M671.706 1111.73C673.174 1111.14 674.404 1110.07 675.201 1108.7C675.999 1107.34 676.32 1105.74 676.113 1104.17" stroke="black" stroke-linecap="round"/>
<path d="M676.113 1104.17L667.463 1038.47L662.154 1039.17" stroke="black" stroke-linecap="round"/>
<path d="M593.819 1115.01L585.169 1049.3L590.479 1048.61" stroke="black" stroke-linecap="round"/>
<path d="M589.545 1041.52L661.222 1032.09L671.707 1111.73L600.03 1121.16L589.545 1041.52Z" stroke="black" stroke-linecap="round"/>
<path d="M811.477 811.469L890.988 890.98" stroke="black" stroke-linecap="round"/>
<path d="M563.002 914.39L563.002 1026.84" stroke="black" stroke-linecap="round"/>
<path d="M811.473 811.469L890.984 890.981C847.913 934.052 796.78 968.218 740.504 991.528C684.229 1014.84 623.913 1026.84 563.001 1026.84L563.001 914.39C609.147 914.39 654.84 905.301 697.473 887.642C740.106 869.983 778.843 844.099 811.473 811.469Z" stroke="black" stroke-linecap="round"/>
<path d="M1054.79 805.842L1082.46 739.05" stroke="black" stroke-linecap="round"/>
<path d="M1056.46 812.328C1057.92 812.934 1059.54 813.036 1061.07 812.619C1062.6 812.203 1063.94 811.29 1064.89 810.026" stroke="black" stroke-linecap="round"/>
<path d="M1092.56 743.234C1092.78 741.667 1092.47 740.07 1091.69 738.696C1090.9 737.321 1089.68 736.247 1088.22 735.641" stroke="black" stroke-linecap="round"/>
<path d="M1088.23 735.641L1027 710.28L1024.95 715.227" stroke="black" stroke-linecap="round"/>
<path d="M1056.46 812.328L995.232 786.968L997.281 782.02" stroke="black" stroke-linecap="round"/>
<path d="M990.678 779.286L1018.34 712.494L1092.56 743.234L1064.89 810.026L990.678 779.286Z" stroke="black" stroke-linecap="round"/>
<path d="M1100.89 670.275L1110.33 598.598" stroke="black" stroke-linecap="round"/>
<path d="M1104.18 676.11C1105.75 676.316 1107.34 675.995 1108.71 675.198C1110.07 674.4 1111.14 673.171 1111.73 671.703" stroke="black" stroke-linecap="round"/>
<path d="M1121.17 600.026C1120.98 598.454 1120.27 596.992 1119.15 595.867C1118.04 594.743 1116.58 594.021 1115.01 593.814" stroke="black" stroke-linecap="round"/>
<path d="M1115.01 593.813L1049.3 585.163L1048.6 590.473" stroke="black" stroke-linecap="round"/>
<path d="M1104.18 676.11L1038.47 667.46L1039.17 662.15" stroke="black" stroke-linecap="round"/>
<path d="M1032.09 661.218L1041.52 589.54L1121.16 600.025L1111.73 671.702L1032.09 661.218Z" stroke="black" stroke-linecap="round"/>
<path d="M975.192 924.853L1019.2 867.497" stroke="black" stroke-linecap="round"/>
<path d="M975.126 931.549C976.382 932.512 977.922 933.031 979.505 933.024C981.088 933.017 982.624 932.484 983.871 931.509" stroke="black" stroke-linecap="round"/>
<path d="M1027.88 874.153C1028.5 872.696 1028.62 871.075 1028.21 869.544C1027.81 868.013 1026.91 866.66 1025.66 865.696" stroke="black" stroke-linecap="round"/>
<path d="M1025.66 865.696L973.08 825.353L969.82 829.601" stroke="black" stroke-linecap="round"/>
<path d="M975.127 931.549L922.55 891.206L925.81 886.958" stroke="black" stroke-linecap="round"/>
<path d="M920.139 882.608L964.15 825.252L1027.88 874.153L983.868 931.509L920.139 882.608Z" stroke="black" stroke-linecap="round"/>
<path d="M914.398 563.002L1026.84 563.001" stroke="black" stroke-linecap="round"/>
<path d="M811.475 811.474L890.986 890.985" stroke="black" stroke-linecap="round"/>
<path d="M914.395 563.002L1026.84 563.002C1026.84 623.914 1014.84 684.229 991.533 740.505C968.223 796.781 934.057 847.914 890.986 890.985L811.475 811.474C844.105 778.844 869.988 740.107 887.647 697.474C905.306 654.841 914.395 609.147 914.395 563.002Z" stroke="black" stroke-linecap="round"/>
<path d="M1082.46 386.964L1054.8 320.172" stroke="black" stroke-linecap="round"/>
<path d="M1088.22 390.373C1089.69 389.767 1090.91 388.693 1091.69 387.318C1092.48 385.944 1092.78 384.347 1092.56 382.78" stroke="black" stroke-linecap="round"/>
<path d="M1064.9 315.988C1063.95 314.723 1062.6 313.811 1061.08 313.394C1059.55 312.977 1057.93 313.08 1056.46 313.686" stroke="black" stroke-linecap="round"/>
<path d="M1056.46 313.685L995.234 339.045L997.284 343.993" stroke="black" stroke-linecap="round"/>
<path d="M1088.23 390.373L1027 415.734L1024.95 410.787" stroke="black" stroke-linecap="round"/>
<path d="M1018.35 413.52L990.685 346.728L1064.9 315.987L1092.56 382.78L1018.35 413.52Z" stroke="black" stroke-linecap="round"/>
<path d="M1019.2 258.52L975.191 201.164" stroke="black" stroke-linecap="round"/>
<path d="M1025.65 260.322C1026.91 259.358 1027.81 258.004 1028.21 256.473C1028.62 254.943 1028.5 253.321 1027.88 251.864" stroke="black" stroke-linecap="round"/>
<path d="M983.869 194.508C982.622 193.533 981.087 193 979.504 192.993C977.921 192.986 976.38 193.505 975.125 194.468" stroke="black" stroke-linecap="round"/>
<path d="M975.125 194.469L922.549 234.812L925.809 239.061" stroke="black" stroke-linecap="round"/>
<path d="M1025.65 260.321L973.078 300.664L969.818 296.416" stroke="black" stroke-linecap="round"/>
<path d="M964.149 300.765L920.138 243.409L983.867 194.508L1027.88 251.864L964.149 300.765Z" stroke="black" stroke-linecap="round"/>
<path d="M1110.32 527.409L1100.88 455.731" stroke="black" stroke-linecap="round"/>
<path d="M1115 532.193C1116.57 531.987 1118.03 531.264 1119.14 530.14C1120.26 529.016 1120.97 527.553 1121.16 525.981" stroke="black" stroke-linecap="round"/>
<path d="M1111.73 454.304C1111.13 452.836 1110.07 451.607 1108.7 450.809C1107.34 450.011 1105.74 449.69 1104.17 449.897" stroke="black" stroke-linecap="round"/>
<path d="M1104.17 449.897L1038.47 458.547L1039.17 463.856" stroke="black" stroke-linecap="round"/>
<path d="M1115 532.193L1049.3 540.843L1048.6 535.534" stroke="black" stroke-linecap="round"/>
<path d="M1041.52 536.466L1032.09 464.789L1111.73 454.304L1121.16 525.981L1041.52 536.466Z" stroke="black" stroke-linecap="round"/>
<path d="M811.481 314.526L890.992 235.015" stroke="black" stroke-linecap="round"/>
<path d="M914.4 562.998L1026.85 562.998" stroke="black" stroke-linecap="round"/>
<path d="M811.482 314.526L890.993 235.015C934.065 278.086 968.231 329.219 991.541 385.495C1014.85 441.77 1026.85 502.086 1026.85 562.998L914.403 562.998C914.403 516.853 905.314 471.159 887.654 428.526C869.995 385.893 844.112 347.156 811.482 314.526Z" stroke="black" stroke-linecap="round"/>
<path d="M805.843 71.2093L739.051 43.543" stroke="black" stroke-linecap="round"/>
<path d="M812.325 69.544C812.931 68.0816 813.034 66.4593 812.617 64.9322C812.2 63.405 811.288 62.0596 810.023 61.1074" stroke="black" stroke-linecap="round"/>
<path d="M743.233 33.441C741.665 33.22 740.069 33.5263 738.694 34.3115C737.32 35.0968 736.245 36.3164 735.639 37.7789" stroke="black" stroke-linecap="round"/>
<path d="M735.641 37.7783L710.28 99.0049L715.227 101.054" stroke="black" stroke-linecap="round"/>
<path d="M812.326 69.5435L786.966 130.77L782.018 128.721" stroke="black" stroke-linecap="round"/>
<path d="M779.283 135.321L712.49 107.654L743.23 33.4404L810.023 61.1067L779.283 135.321Z" stroke="black" stroke-linecap="round"/>
<path d="M670.275 25.1122L598.598 15.6758" stroke="black" stroke-linecap="round"/>
<path d="M676.11 21.8249C676.317 20.2554 675.996 18.6619 675.198 17.2947C674.401 15.9274 673.171 14.8639 671.703 14.2715" stroke="black" stroke-linecap="round"/>
<path d="M600.024 4.83572C598.453 5.02802 596.99 5.73706 595.866 6.85127C594.741 7.96549 594.019 9.42166 593.812 10.9911" stroke="black" stroke-linecap="round"/>
<path d="M593.812 10.9902L585.162 76.6944L590.472 77.3934" stroke="black" stroke-linecap="round"/>
<path d="M676.11 21.825L667.46 87.5291L662.151 86.8301" stroke="black" stroke-linecap="round"/>
<path d="M661.216 93.9127L589.538 84.4762L600.023 4.83496L671.701 14.2714L661.216 93.9127Z" stroke="black" stroke-linecap="round"/>
<path d="M924.848 150.808L867.492 106.797" stroke="black" stroke-linecap="round"/>
<path d="M931.548 150.878C932.511 149.622 933.03 148.081 933.023 146.499C933.016 144.916 932.483 143.38 931.508 142.133" stroke="black" stroke-linecap="round"/>
<path d="M874.151 98.1214C872.694 97.5023 871.073 97.3849 869.542 97.7877C868.011 98.1904 866.657 99.0903 865.694 100.346" stroke="black" stroke-linecap="round"/>
<path d="M865.695 100.348L825.352 152.924L829.601 156.184" stroke="black" stroke-linecap="round"/>
<path d="M931.549 150.877L891.206 203.454L886.958 200.194" stroke="black" stroke-linecap="round"/>
<path d="M882.603 205.862L825.248 161.851L874.148 98.1221L931.504 142.133L882.603 205.862Z" stroke="black" stroke-linecap="round"/>
<path d="M563.004 211.611L563.004 99.165" stroke="black" stroke-linecap="round"/>
<path d="M811.475 314.531L890.986 235.02" stroke="black" stroke-linecap="round"/>
<path d="M563 211.61L563 99.164C623.912 99.164 684.228 111.161 740.504 134.471C796.779 157.782 847.912 191.948 890.984 235.019L811.473 314.53C778.843 281.9 740.105 256.017 697.472 238.358C654.839 220.699 609.146 211.61 563 211.61Z" stroke="black" stroke-linecap="round"/>
<path d="M386.96 43.5368L320.168 71.2031" stroke="black" stroke-linecap="round"/>
<path d="M390.367 37.7735C389.761 36.311 388.686 35.0914 387.312 34.3061C385.937 33.5209 384.341 33.2146 382.773 33.4355" stroke="black" stroke-linecap="round"/>
<path d="M315.983 61.101C314.718 62.0532 313.806 63.3987 313.389 64.9258C312.972 66.453 313.075 68.0752 313.681 69.5377" stroke="black" stroke-linecap="round"/>
<path d="M313.684 69.5381L339.044 130.765L343.992 128.715" stroke="black" stroke-linecap="round"/>
<path d="M390.369 37.7729L415.73 98.9995L410.783 101.049" stroke="black" stroke-linecap="round"/>
<path d="M413.513 107.648L346.721 135.314L315.98 61.1006L382.773 33.4343L413.513 107.648Z" stroke="black" stroke-linecap="round"/>
<path d="M258.516 106.803L201.16 150.813" stroke="black" stroke-linecap="round"/>
<path d="M260.313 100.353C259.349 99.0969 257.995 98.1969 256.465 97.7942C254.934 97.3915 253.312 97.5088 251.855 98.1279" stroke="black" stroke-linecap="round"/>
<path d="M194.499 142.137C193.524 143.384 192.991 144.92 192.983 146.503C192.976 148.086 193.495 149.626 194.459 150.882" stroke="black" stroke-linecap="round"/>
<path d="M194.461 150.884L234.804 203.46L239.053 200.2" stroke="black" stroke-linecap="round"/>
<path d="M260.315 100.352L300.658 152.929L296.41 156.189" stroke="black" stroke-linecap="round"/>
<path d="M300.761 161.857L243.405 205.868L194.504 142.139L251.86 98.1279L300.761 161.857Z" stroke="black" stroke-linecap="round"/>
<path d="M527.404 15.6807L455.727 25.1172" stroke="black" stroke-linecap="round"/>
<path d="M532.188 10.9952C531.982 9.42579 531.259 7.96962 530.135 6.8554C529.011 5.74118 527.548 5.03214 525.977 4.83984" stroke="black" stroke-linecap="round"/>
<path d="M454.298 14.2756C452.83 14.868 451.6 15.9315 450.803 17.2988C450.005 18.6661 449.684 20.2596 449.891 21.829" stroke="black" stroke-linecap="round"/>
<path d="M449.891 21.8291L458.541 87.5333L463.85 86.8343" stroke="black" stroke-linecap="round"/>
<path d="M532.188 10.9944L540.838 76.6985L535.529 77.3975" stroke="black" stroke-linecap="round"/>
<path d="M536.459 84.4812L464.782 93.9177L454.297 14.2764L525.974 4.83991L536.459 84.4812Z" stroke="black" stroke-linecap="round"/>
<path d="M314.531 314.525L235.02 235.014" stroke="black" stroke-linecap="round"/>
<path d="M563.002 211.604L563.002 99.1587" stroke="black" stroke-linecap="round"/>
<path d="M314.531 314.525L235.019 235.014C278.091 191.942 329.224 157.776 385.5 134.466C441.775 111.156 502.091 99.1585 563.003 99.1585L563.003 211.604C516.857 211.604 471.164 220.693 428.531 238.352C385.898 256.012 347.16 281.895 314.531 314.525Z" stroke="black" stroke-linecap="round"/>
</svg>
