<svg width="1301" height="1003" viewBox="0 0 1301 1003" fill="none" xmlns="http://www.w3.org/2000/svg">
<path d="M108.851 380.654H14.7461" stroke="black" stroke-linecap="round"/>
<path d="M115.818 375.417C115.818 373.356 115.134 371.354 113.872 369.725C112.61 368.096 110.843 366.933 108.848 366.418" stroke="black" stroke-linecap="round"/>
<path d="M14.7442 366.418C12.7491 366.933 10.9817 368.096 9.71995 369.725C8.45815 371.354 7.77344 373.356 7.77344 375.417" stroke="black" stroke-linecap="round"/>
<path d="M7.77344 375.417V461.68H14.7442" stroke="black" stroke-linecap="round"/>
<path d="M115.818 375.417V461.68H108.848" stroke="black" stroke-linecap="round"/>
<path d="M108.851 470.979H14.7461V366.418H108.851V470.979Z" stroke="black" stroke-linecap="round"/>
<path d="M236.933 380.654H142.828" stroke="black" stroke-linecap="round"/>
<path d="M243.897 375.417C243.897 373.356 243.212 371.354 241.95 369.725C240.688 368.096 238.921 366.933 236.926 366.418" stroke="black" stroke-linecap="round"/>
<path d="M142.822 366.418C140.827 366.933 139.06 368.096 137.798 369.725C136.536 371.354 135.852 373.356 135.852 375.417" stroke="black" stroke-linecap="round"/>
<path d="M135.852 375.417V461.68H142.822" stroke="black" stroke-linecap="round"/>
<path d="M243.897 375.417V461.68H236.926" stroke="black" stroke-linecap="round"/>
<path d="M236.933 470.979H142.828V366.418H236.933V470.979Z" stroke="black" stroke-linecap="round"/>
<path d="M493.07 380.654H398.965" stroke="black" stroke-linecap="round"/>
<path d="M500.037 375.417C500.037 373.356 499.352 371.354 498.091 369.725C496.829 368.096 495.061 366.933 493.066 366.418" stroke="black" stroke-linecap="round"/>
<path d="M398.963 366.418C396.968 366.933 395.2 368.096 393.939 369.725C392.677 371.354 391.992 373.356 391.992 375.417" stroke="black" stroke-linecap="round"/>
<path d="M391.992 375.417V461.68H398.963" stroke="black" stroke-linecap="round"/>
<path d="M500.037 375.417V461.68H493.066" stroke="black" stroke-linecap="round"/>
<path d="M493.07 470.979H398.965V366.418H493.07V470.979Z" stroke="black" stroke-linecap="round"/>
<path d="M364.999 380.654H270.895" stroke="black" stroke-linecap="round"/>
<path d="M371.967 375.417C371.967 373.356 371.282 371.354 370.02 369.725C368.759 368.096 366.991 366.933 364.996 366.418" stroke="black" stroke-linecap="round"/>
<path d="M270.893 366.418C268.898 366.933 267.13 368.096 265.868 369.725C264.607 371.354 263.922 373.356 263.922 375.417" stroke="black" stroke-linecap="round"/>
<path d="M263.922 375.417V461.68H270.893" stroke="black" stroke-linecap="round"/>
<path d="M371.967 375.417V461.68H364.996" stroke="black" stroke-linecap="round"/>
<path d="M364.999 470.979H270.895V366.418H364.999V470.979Z" stroke="black" stroke-linecap="round"/>
<path d="M0.500585 489.275L512.785 489.275V635.642H0.500585V489.275Z" stroke="black" stroke-linecap="round"/>
<path d="M108.851 746.572H14.7461" stroke="black" stroke-linecap="round"/>
<path d="M115.818 741.335C115.818 739.274 115.134 737.272 113.872 735.643C112.61 734.014 110.843 732.851 108.848 732.336" stroke="black" stroke-linecap="round"/>
<path d="M14.7442 732.336C12.7491 732.851 10.9817 734.014 9.71995 735.643C8.45815 737.272 7.77344 739.274 7.77344 741.335" stroke="black" stroke-linecap="round"/>
<path d="M7.77344 741.335V827.598H14.7442" stroke="black" stroke-linecap="round"/>
<path d="M115.818 741.335V827.598H108.848" stroke="black" stroke-linecap="round"/>
<path d="M108.851 836.897H14.7461V732.336H108.851V836.897Z" stroke="black" stroke-linecap="round"/>
<path d="M236.933 746.572H142.828" stroke="black" stroke-linecap="round"/>
<path d="M243.897 741.335C243.897 739.274 243.212 737.272 241.95 735.643C240.688 734.014 238.921 732.851 236.926 732.336" stroke="black" stroke-linecap="round"/>
<path d="M142.822 732.336C140.827 732.851 139.06 734.014 137.798 735.643C136.536 737.272 135.852 739.274 135.852 741.335" stroke="black" stroke-linecap="round"/>
<path d="M135.852 741.335V827.598H142.822" stroke="black" stroke-linecap="round"/>
<path d="M243.897 741.335V827.598H236.926" stroke="black" stroke-linecap="round"/>
<path d="M236.933 836.897H142.828V732.336H236.933V836.897Z" stroke="black" stroke-linecap="round"/>
<path d="M493.07 746.572H398.965" stroke="black" stroke-linecap="round"/>
<path d="M500.037 741.335C500.037 739.274 499.352 737.272 498.091 735.643C496.829 734.014 495.061 732.851 493.066 732.336" stroke="black" stroke-linecap="round"/>
<path d="M398.963 732.336C396.968 732.851 395.2 734.014 393.939 735.643C392.677 737.272 391.992 739.274 391.992 741.335" stroke="black" stroke-linecap="round"/>
<path d="M391.992 741.335V827.598H398.963" stroke="black" stroke-linecap="round"/>
<path d="M500.037 741.335V827.598H493.066" stroke="black" stroke-linecap="round"/>
<path d="M493.07 836.897H398.965V732.336H493.07V836.897Z" stroke="black" stroke-linecap="round"/>
<path d="M364.999 746.572H270.895" stroke="black" stroke-linecap="round"/>
<path d="M371.967 741.335C371.967 739.274 371.282 737.272 370.02 735.643C368.759 734.014 366.991 732.851 364.996 732.336" stroke="black" stroke-linecap="round"/>
<path d="M270.893 732.336C268.898 732.851 267.13 734.014 265.868 735.643C264.607 737.272 263.922 739.274 263.922 741.335" stroke="black" stroke-linecap="round"/>
<path d="M263.922 741.335V827.598H270.893" stroke="black" stroke-linecap="round"/>
<path d="M371.967 741.335V827.598H364.996" stroke="black" stroke-linecap="round"/>
<path d="M364.999 836.897H270.895V732.336H364.999V836.897Z" stroke="black" stroke-linecap="round"/>
<path d="M0.500585 855.184H512.785V1001.55H0.500585V855.184Z" stroke="black" stroke-linecap="round"/>
<path d="M108.851 14.7358H14.7461" stroke="black" stroke-linecap="round"/>
<path d="M115.818 9.49901C115.818 7.4385 115.134 5.43641 113.872 3.80743C112.61 2.17845 110.843 1.01513 108.848 0.5" stroke="black" stroke-linecap="round"/>
<path d="M14.7442 0.5C12.7491 1.01513 10.9817 2.17845 9.71995 3.80743C8.45815 5.43641 7.77344 7.4385 7.77344 9.49901" stroke="black" stroke-linecap="round"/>
<path d="M7.77344 9.49854V95.7612H14.7442" stroke="black" stroke-linecap="round"/>
<path d="M115.818 9.49854V95.7612H108.848" stroke="black" stroke-linecap="round"/>
<path d="M108.851 105.061H14.7461V0.5H108.851V105.061Z" stroke="black" stroke-linecap="round"/>
<path d="M236.933 14.7358H142.828" stroke="black" stroke-linecap="round"/>
<path d="M243.897 9.49901C243.897 7.4385 243.212 5.43641 241.95 3.80743C240.688 2.17845 238.921 1.01513 236.926 0.5" stroke="black" stroke-linecap="round"/>
<path d="M142.822 0.5C140.827 1.01513 139.06 2.17845 137.798 3.80743C136.536 5.43641 135.852 7.4385 135.852 9.49901" stroke="black" stroke-linecap="round"/>
<path d="M135.852 9.49854V95.7612H142.822" stroke="black" stroke-linecap="round"/>
<path d="M243.897 9.49854V95.7612H236.926" stroke="black" stroke-linecap="round"/>
<path d="M236.933 105.061H142.828V0.5H236.933V105.061Z" stroke="black" stroke-linecap="round"/>
<path d="M493.07 14.7358H398.965" stroke="black" stroke-linecap="round"/>
<path d="M500.037 9.49901C500.037 7.4385 499.352 5.43641 498.091 3.80743C496.829 2.17845 495.061 1.01513 493.066 0.5" stroke="black" stroke-linecap="round"/>
<path d="M398.963 0.5C396.968 1.01513 395.2 2.17845 393.939 3.80743C392.677 5.43641 391.992 7.4385 391.992 9.49901" stroke="black" stroke-linecap="round"/>
<path d="M391.992 9.49854V95.7612H398.963" stroke="black" stroke-linecap="round"/>
<path d="M500.037 9.49854V95.7612H493.066" stroke="black" stroke-linecap="round"/>
<path d="M493.07 105.061H398.965V0.5H493.07V105.061Z" stroke="black" stroke-linecap="round"/>
<path d="M364.999 14.7358H270.895" stroke="black" stroke-linecap="round"/>
<path d="M371.967 9.49901C371.967 7.4385 371.282 5.43641 370.02 3.80743C368.759 2.17845 366.991 1.01513 364.996 0.5" stroke="black" stroke-linecap="round"/>
<path d="M270.893 0.5C268.898 1.01513 267.13 2.17845 265.868 3.80743C264.607 5.43641 263.922 7.4385 263.922 9.49901" stroke="black" stroke-linecap="round"/>
<path d="M263.922 9.49854V95.7612H270.893" stroke="black" stroke-linecap="round"/>
<path d="M371.967 9.49854V95.7612H364.996" stroke="black" stroke-linecap="round"/>
<path d="M364.999 105.061H270.895V0.5H364.999V105.061Z" stroke="black" stroke-linecap="round"/>
<path d="M0.500585 123.357L512.785 123.357V269.724H0.500585V123.357Z" stroke="black" stroke-linecap="round"/>
<path d="M895.578 380.654H801.473" stroke="black" stroke-linecap="round"/>
<path d="M902.541 375.417C902.541 373.356 901.856 371.354 900.595 369.725C899.333 368.096 897.565 366.933 895.57 366.418" stroke="black" stroke-linecap="round"/>
<path d="M801.471 366.418C799.476 366.933 797.708 368.096 796.447 369.725C795.185 371.354 794.5 373.356 794.5 375.417" stroke="black" stroke-linecap="round"/>
<path d="M794.5 375.417V461.68H801.471" stroke="black" stroke-linecap="round"/>
<path d="M902.541 375.417V461.68H895.57" stroke="black" stroke-linecap="round"/>
<path d="M895.578 470.979H801.473V366.418H895.578V470.979Z" stroke="black" stroke-linecap="round"/>
<path d="M1023.64 380.654H929.539" stroke="black" stroke-linecap="round"/>
<path d="M1030.61 375.417C1030.61 373.356 1029.92 371.354 1028.66 369.725C1027.4 368.096 1025.63 366.933 1023.64 366.418" stroke="black" stroke-linecap="round"/>
<path d="M929.537 366.418C927.542 366.933 925.775 368.096 924.513 369.725C923.251 371.354 922.566 373.356 922.566 375.417" stroke="black" stroke-linecap="round"/>
<path d="M922.566 375.417V461.68H929.537" stroke="black" stroke-linecap="round"/>
<path d="M1030.61 375.417V461.68H1023.64" stroke="black" stroke-linecap="round"/>
<path d="M1023.64 470.979H929.539V366.418H1023.64V470.979Z" stroke="black" stroke-linecap="round"/>
<path d="M1279.79 380.654H1185.69" stroke="black" stroke-linecap="round"/>
<path d="M1286.76 375.417C1286.76 373.356 1286.07 371.354 1284.81 369.725C1283.55 368.096 1281.78 366.933 1279.79 366.418" stroke="black" stroke-linecap="round"/>
<path d="M1185.69 366.418C1183.69 366.933 1181.92 368.096 1180.66 369.725C1179.4 371.354 1178.71 373.356 1178.71 375.417" stroke="black" stroke-linecap="round"/>
<path d="M1178.71 375.417V461.68H1185.69" stroke="black" stroke-linecap="round"/>
<path d="M1286.76 375.417V461.68H1279.79" stroke="black" stroke-linecap="round"/>
<path d="M1279.79 470.979H1185.69V366.418H1279.79V470.979Z" stroke="black" stroke-linecap="round"/>
<path d="M1151.73 380.654H1057.62" stroke="black" stroke-linecap="round"/>
<path d="M1158.69 375.417C1158.69 373.356 1158 371.354 1156.74 369.725C1155.48 368.096 1153.71 366.933 1151.72 366.418" stroke="black" stroke-linecap="round"/>
<path d="M1057.62 366.418C1055.62 366.933 1053.86 368.096 1052.59 369.725C1051.33 371.354 1050.65 373.356 1050.65 375.417" stroke="black" stroke-linecap="round"/>
<path d="M1050.65 375.417V461.68H1057.62" stroke="black" stroke-linecap="round"/>
<path d="M1158.69 375.417V461.68H1151.72" stroke="black" stroke-linecap="round"/>
<path d="M1151.73 470.979H1057.62V366.418H1151.73V470.979Z" stroke="black" stroke-linecap="round"/>
<path d="M787.227 489.275L1299.51 489.275V635.642H787.227V489.275Z" stroke="black" stroke-linecap="round"/>
<path d="M895.578 746.572H801.473" stroke="black" stroke-linecap="round"/>
<path d="M902.541 741.335C902.541 739.274 901.856 737.272 900.595 735.643C899.333 734.014 897.565 732.851 895.57 732.336" stroke="black" stroke-linecap="round"/>
<path d="M801.471 732.336C799.476 732.851 797.708 734.014 796.447 735.643C795.185 737.272 794.5 739.274 794.5 741.335" stroke="black" stroke-linecap="round"/>
<path d="M794.5 741.335V827.598H801.471" stroke="black" stroke-linecap="round"/>
<path d="M902.541 741.335V827.598H895.57" stroke="black" stroke-linecap="round"/>
<path d="M895.578 836.897H801.473V732.336H895.578V836.897Z" stroke="black" stroke-linecap="round"/>
<path d="M1023.64 746.572H929.539" stroke="black" stroke-linecap="round"/>
<path d="M1030.61 741.335C1030.61 739.274 1029.92 737.272 1028.66 735.643C1027.4 734.014 1025.63 732.851 1023.64 732.336" stroke="black" stroke-linecap="round"/>
<path d="M929.537 732.336C927.542 732.851 925.775 734.014 924.513 735.643C923.251 737.272 922.566 739.274 922.566 741.335" stroke="black" stroke-linecap="round"/>
<path d="M922.566 741.335V827.598H929.537" stroke="black" stroke-linecap="round"/>
<path d="M1030.61 741.335V827.598H1023.64" stroke="black" stroke-linecap="round"/>
<path d="M1023.64 836.897H929.539V732.336H1023.64V836.897Z" stroke="black" stroke-linecap="round"/>
<path d="M1279.79 746.572H1185.69" stroke="black" stroke-linecap="round"/>
<path d="M1286.76 741.335C1286.76 739.274 1286.07 737.272 1284.81 735.643C1283.55 734.014 1281.78 732.851 1279.79 732.336" stroke="black" stroke-linecap="round"/>
<path d="M1185.69 732.336C1183.69 732.851 1181.92 734.014 1180.66 735.643C1179.4 737.272 1178.71 739.274 1178.71 741.335" stroke="black" stroke-linecap="round"/>
<path d="M1178.71 741.335V827.598H1185.69" stroke="black" stroke-linecap="round"/>
<path d="M1286.76 741.335V827.598H1279.79" stroke="black" stroke-linecap="round"/>
<path d="M1279.79 836.897H1185.69V732.336H1279.79V836.897Z" stroke="black" stroke-linecap="round"/>
<path d="M1151.73 746.572H1057.62" stroke="black" stroke-linecap="round"/>
<path d="M1158.69 741.335C1158.69 739.274 1158 737.272 1156.74 735.643C1155.48 734.014 1153.71 732.851 1151.72 732.336" stroke="black" stroke-linecap="round"/>
<path d="M1057.62 732.336C1055.62 732.851 1053.86 734.014 1052.59 735.643C1051.33 737.272 1050.65 739.274 1050.65 741.335" stroke="black" stroke-linecap="round"/>
<path d="M1050.65 741.335V827.598H1057.62" stroke="black" stroke-linecap="round"/>
<path d="M1158.69 741.335V827.598H1151.72" stroke="black" stroke-linecap="round"/>
<path d="M1151.73 836.897H1057.62V732.336H1151.73V836.897Z" stroke="black" stroke-linecap="round"/>
<path d="M787.227 855.184H1299.51V1001.55H787.227V855.184Z" stroke="black" stroke-linecap="round"/>
<path d="M895.578 14.7358H801.473" stroke="black" stroke-linecap="round"/>
<path d="M902.541 9.49901C902.541 7.4385 901.856 5.43641 900.595 3.80743C899.333 2.17845 897.565 1.01513 895.57 0.5" stroke="black" stroke-linecap="round"/>
<path d="M801.471 0.5C799.476 1.01513 797.708 2.17845 796.447 3.80743C795.185 5.43641 794.5 7.4385 794.5 9.49901" stroke="black" stroke-linecap="round"/>
<path d="M794.5 9.49854V95.7612H801.471" stroke="black" stroke-linecap="round"/>
<path d="M902.541 9.49854V95.7612H895.57" stroke="black" stroke-linecap="round"/>
<path d="M895.578 105.061H801.473V0.5H895.578V105.061Z" stroke="black" stroke-linecap="round"/>
<path d="M1023.64 14.7358H929.539" stroke="black" stroke-linecap="round"/>
<path d="M1030.61 9.49901C1030.61 7.4385 1029.92 5.43641 1028.66 3.80743C1027.4 2.17845 1025.63 1.01513 1023.64 0.5" stroke="black" stroke-linecap="round"/>
<path d="M929.537 0.5C927.542 1.01513 925.775 2.17845 924.513 3.80743C923.251 5.43641 922.566 7.4385 922.566 9.49901" stroke="black" stroke-linecap="round"/>
<path d="M922.566 9.49854V95.7612H929.537" stroke="black" stroke-linecap="round"/>
<path d="M1030.61 9.49854V95.7612H1023.64" stroke="black" stroke-linecap="round"/>
<path d="M1023.64 105.061H929.539V0.5H1023.64V105.061Z" stroke="black" stroke-linecap="round"/>
<path d="M1279.79 14.7358H1185.69" stroke="black" stroke-linecap="round"/>
<path d="M1286.76 9.49901C1286.76 7.4385 1286.07 5.43641 1284.81 3.80743C1283.55 2.17845 1281.78 1.01513 1279.79 0.5" stroke="black" stroke-linecap="round"/>
<path d="M1185.69 0.5C1183.69 1.01513 1181.92 2.17845 1180.66 3.80743C1179.4 5.43641 1178.71 7.4385 1178.71 9.49901" stroke="black" stroke-linecap="round"/>
<path d="M1178.71 9.49854V95.7612H1185.69" stroke="black" stroke-linecap="round"/>
<path d="M1286.76 9.49854V95.7612H1279.79" stroke="black" stroke-linecap="round"/>
<path d="M1279.79 105.061H1185.69V0.5H1279.79V105.061Z" stroke="black" stroke-linecap="round"/>
<path d="M1151.73 14.7358H1057.62" stroke="black" stroke-linecap="round"/>
<path d="M1158.69 9.49901C1158.69 7.4385 1158 5.43641 1156.74 3.80743C1155.48 2.17845 1153.71 1.01513 1151.72 0.5" stroke="black" stroke-linecap="round"/>
<path d="M1057.62 0.5C1055.62 1.01513 1053.86 2.17845 1052.59 3.80743C1051.33 5.43641 1050.65 7.4385 1050.65 9.49901" stroke="black" stroke-linecap="round"/>
<path d="M1050.65 9.49854V95.7612H1057.62" stroke="black" stroke-linecap="round"/>
<path d="M1158.69 9.49854V95.7612H1151.72" stroke="black" stroke-linecap="round"/>
<path d="M1151.73 105.061H1057.62V0.5H1151.73V105.061Z" stroke="black" stroke-linecap="round"/>
<path d="M787.227 123.357L1299.51 123.357V269.724H787.227V123.357Z" stroke="black" stroke-linecap="round"/>
</svg>
