<svg width="1997" height="1143" viewBox="0 0 1997 1143" fill="none" xmlns="http://www.w3.org/2000/svg">
<path d="M741.66 94.6951V193.004" stroke="black" stroke-linecap="round"/>
<path d="M736.198 87.4142C734.045 87.4142 731.954 88.1295 730.252 89.4476C728.55 90.7658 727.335 92.6121 726.797 94.6963" stroke="black" stroke-linecap="round"/>
<path d="M726.797 193.004C727.335 195.088 728.55 196.934 730.252 198.253C731.954 199.571 734.045 200.286 736.198 200.286" stroke="black" stroke-linecap="round"/>
<path d="M736.203 200.286L826.319 200.286V193.004" stroke="black" stroke-linecap="round"/>
<path d="M736.203 87.4142L826.319 87.4142V94.6963" stroke="black" stroke-linecap="round"/>
<path d="M836.029 94.6952V193.004L726.797 193.004V94.6952L836.029 94.6952Z" stroke="black" stroke-linecap="round"/>
<path d="M1255.3 193.003V94.6943" stroke="black" stroke-linecap="round"/>
<path d="M1260.77 200.286C1262.92 200.286 1265.01 199.571 1266.72 198.253C1268.42 196.934 1269.63 195.088 1270.17 193.004" stroke="black" stroke-linecap="round"/>
<path d="M1270.17 94.6942C1269.63 92.61 1268.42 90.7637 1266.72 89.4456C1265.01 88.1274 1262.92 87.4121 1260.77 87.4121" stroke="black" stroke-linecap="round"/>
<path d="M1260.77 87.4121H1170.65V94.6942" stroke="black" stroke-linecap="round"/>
<path d="M1260.77 200.286H1170.65V193.004" stroke="black" stroke-linecap="round"/>
<path d="M1160.94 193.003V94.6943H1270.17V193.003H1160.94Z" stroke="black" stroke-linecap="round"/>
<path d="M1145.34 360.217L1214.85 290.702" stroke="black" stroke-linecap="round"/>
<path d="M1144.05 369.227C1145.58 370.749 1147.56 371.723 1149.7 371.994C1151.83 372.265 1154 371.819 1155.85 370.726" stroke="black" stroke-linecap="round"/>
<path d="M1225.37 301.211C1226.46 299.356 1226.91 297.192 1226.63 295.056C1226.36 292.921 1225.39 290.936 1223.87 289.414" stroke="black" stroke-linecap="round"/>
<path d="M1223.86 289.415L1160.14 225.693L1154.99 230.842" stroke="black" stroke-linecap="round"/>
<path d="M1144.05 369.227L1080.33 305.506L1085.48 300.356" stroke="black" stroke-linecap="round"/>
<path d="M1078.61 293.487L1148.12 223.972L1225.36 301.211L1155.84 370.726L1078.61 293.487Z" stroke="black" stroke-linecap="round"/>
<path d="M949.336 400.688H1047.64" stroke="black" stroke-linecap="round"/>
<path d="M942.058 406.149C942.058 408.301 942.773 410.393 944.091 412.095C945.409 413.796 947.256 415.012 949.34 415.55" stroke="black" stroke-linecap="round"/>
<path d="M1047.64 415.55C1049.73 415.012 1051.57 413.796 1052.89 412.095C1054.21 410.393 1054.93 408.301 1054.93 406.149" stroke="black" stroke-linecap="round"/>
<path d="M1054.93 406.148V316.032H1047.64" stroke="black" stroke-linecap="round"/>
<path d="M942.058 406.148V316.032H949.34" stroke="black" stroke-linecap="round"/>
<path d="M949.336 306.318H1047.64V415.55H949.336V306.318Z" stroke="black" stroke-linecap="round"/>
<path d="M782.13 290.685L851.645 360.2" stroke="black" stroke-linecap="round"/>
<path d="M773.123 289.399C771.601 290.921 770.628 292.905 770.357 295.041C770.086 297.176 770.532 299.341 771.625 301.195" stroke="black" stroke-linecap="round"/>
<path d="M841.136 370.711C842.99 371.804 845.155 372.251 847.29 371.979C849.426 371.708 851.411 370.735 852.933 369.213" stroke="black" stroke-linecap="round"/>
<path d="M852.93 369.212L916.652 305.49L911.502 300.341" stroke="black" stroke-linecap="round"/>
<path d="M773.12 289.4L836.842 225.678L841.991 230.827" stroke="black" stroke-linecap="round"/>
<path d="M848.861 223.958L918.375 293.472L841.137 370.711L771.622 301.196L848.861 223.958Z" stroke="black" stroke-linecap="round"/>
<path d="M1141.85 143.849C1141.85 105.83 1126.74 69.369 1099.86 42.4859C1072.98 15.6027 1036.52 0.5 998.497 0.5C960.479 0.5 924.018 15.6027 897.134 42.4859C870.251 69.369 855.148 105.83 855.148 143.849C855.148 181.868 870.251 218.329 897.134 245.212C924.018 272.095 960.479 287.198 998.497 287.198C1036.52 287.198 1072.98 272.095 1099.86 245.212C1126.74 218.329 1141.85 181.868 1141.85 143.849Z" stroke="black" stroke-linecap="round"/>
<path d="M1467.97 94.6951V193.004" stroke="black" stroke-linecap="round"/>
<path d="M1462.51 87.4142C1460.35 87.4142 1458.26 88.1295 1456.56 89.4476C1454.86 90.7658 1453.64 92.6121 1453.11 94.6963" stroke="black" stroke-linecap="round"/>
<path d="M1453.11 193.004C1453.64 195.088 1454.86 196.934 1456.56 198.253C1458.26 199.571 1460.35 200.286 1462.51 200.286" stroke="black" stroke-linecap="round"/>
<path d="M1462.51 200.286L1552.62 200.286V193.004" stroke="black" stroke-linecap="round"/>
<path d="M1462.51 87.4142L1552.62 87.4142V94.6963" stroke="black" stroke-linecap="round"/>
<path d="M1562.34 94.6952V193.004L1453.11 193.004V94.6952L1562.34 94.6952Z" stroke="black" stroke-linecap="round"/>
<path d="M1981.63 193.003V94.6943" stroke="black" stroke-linecap="round"/>
<path d="M1987.1 200.286C1989.25 200.286 1991.34 199.571 1993.04 198.253C1994.75 196.934 1995.96 195.088 1996.5 193.004" stroke="black" stroke-linecap="round"/>
<path d="M1996.5 94.6942C1995.96 92.61 1994.75 90.7637 1993.04 89.4456C1991.34 88.1274 1989.25 87.4121 1987.1 87.4121" stroke="black" stroke-linecap="round"/>
<path d="M1987.1 87.4121H1896.98V94.6942" stroke="black" stroke-linecap="round"/>
<path d="M1987.1 200.286H1896.98V193.004" stroke="black" stroke-linecap="round"/>
<path d="M1887.27 193.003V94.6943H1996.5V193.003H1887.27Z" stroke="black" stroke-linecap="round"/>
<path d="M1871.63 360.217L1941.15 290.702" stroke="black" stroke-linecap="round"/>
<path d="M1870.35 369.227C1871.87 370.749 1873.86 371.723 1875.99 371.994C1878.13 372.265 1880.29 371.819 1882.15 370.726" stroke="black" stroke-linecap="round"/>
<path d="M1951.66 301.211C1952.76 299.356 1953.2 297.192 1952.93 295.056C1952.66 292.921 1951.69 290.936 1950.16 289.414" stroke="black" stroke-linecap="round"/>
<path d="M1950.16 289.415L1886.43 225.693L1881.29 230.842" stroke="black" stroke-linecap="round"/>
<path d="M1870.35 369.227L1806.63 305.506L1811.77 300.356" stroke="black" stroke-linecap="round"/>
<path d="M1804.9 293.487L1874.42 223.972L1951.66 301.211L1882.14 370.726L1804.9 293.487Z" stroke="black" stroke-linecap="round"/>
<path d="M1675.64 400.688H1773.95" stroke="black" stroke-linecap="round"/>
<path d="M1668.37 406.149C1668.37 408.301 1669.08 410.393 1670.4 412.095C1671.72 413.796 1673.56 415.012 1675.65 415.55" stroke="black" stroke-linecap="round"/>
<path d="M1773.95 415.55C1776.04 415.012 1777.88 413.796 1779.2 412.095C1780.52 410.393 1781.23 408.301 1781.23 406.149" stroke="black" stroke-linecap="round"/>
<path d="M1781.23 406.148V316.032H1773.95" stroke="black" stroke-linecap="round"/>
<path d="M1668.37 406.148V316.032H1675.65" stroke="black" stroke-linecap="round"/>
<path d="M1675.64 306.318H1773.95V415.55H1675.64V306.318Z" stroke="black" stroke-linecap="round"/>
<path d="M1508.43 290.685L1577.95 360.2" stroke="black" stroke-linecap="round"/>
<path d="M1499.42 289.399C1497.89 290.921 1496.92 292.905 1496.65 295.041C1496.38 297.176 1496.82 299.341 1497.92 301.195" stroke="black" stroke-linecap="round"/>
<path d="M1567.43 370.711C1569.29 371.804 1571.45 372.251 1573.59 371.979C1575.72 371.708 1577.71 370.735 1579.23 369.213" stroke="black" stroke-linecap="round"/>
<path d="M1579.23 369.212L1642.95 305.49L1637.8 300.341" stroke="black" stroke-linecap="round"/>
<path d="M1499.41 289.4L1563.14 225.678L1568.28 230.827" stroke="black" stroke-linecap="round"/>
<path d="M1575.16 223.958L1644.68 293.472L1567.44 370.711L1497.92 301.196L1575.16 223.958Z" stroke="black" stroke-linecap="round"/>
<path d="M1868.14 143.849C1868.14 105.83 1853.04 69.369 1826.15 42.4859C1799.27 15.6027 1762.81 0.5 1724.79 0.5C1686.77 0.5 1650.31 15.6027 1623.43 42.4859C1596.54 69.369 1581.44 105.83 1581.44 143.849C1581.44 181.868 1596.54 218.329 1623.43 245.212C1650.31 272.095 1686.77 287.198 1724.79 287.198C1762.81 287.198 1799.27 272.095 1826.15 245.212C1853.04 218.329 1868.14 181.868 1868.14 143.849Z" stroke="black" stroke-linecap="round"/>
<path d="M1104.82 820.984V919.292" stroke="black" stroke-linecap="round"/>
<path d="M1099.35 813.701C1097.2 813.701 1095.11 814.416 1093.41 815.734C1091.71 817.052 1090.49 818.899 1089.95 820.983" stroke="black" stroke-linecap="round"/>
<path d="M1089.95 919.293C1090.49 921.377 1091.71 923.223 1093.41 924.541C1095.11 925.859 1097.2 926.575 1099.35 926.575" stroke="black" stroke-linecap="round"/>
<path d="M1099.36 926.575H1189.47V919.293" stroke="black" stroke-linecap="round"/>
<path d="M1099.36 813.701H1189.47V820.983" stroke="black" stroke-linecap="round"/>
<path d="M1199.18 820.984V919.292H1089.95V820.984H1199.18Z" stroke="black" stroke-linecap="round"/>
<path d="M1618.48 919.298V820.989" stroke="black" stroke-linecap="round"/>
<path d="M1623.95 926.58C1626.1 926.58 1628.19 925.865 1629.89 924.547C1631.59 923.228 1632.81 921.382 1633.35 919.298" stroke="black" stroke-linecap="round"/>
<path d="M1633.35 820.988C1632.81 818.904 1631.59 817.058 1629.89 815.74C1628.19 814.421 1626.1 813.706 1623.95 813.706" stroke="black" stroke-linecap="round"/>
<path d="M1623.94 813.706H1533.83V820.988" stroke="black" stroke-linecap="round"/>
<path d="M1623.94 926.58H1533.83V919.298" stroke="black" stroke-linecap="round"/>
<path d="M1524.12 919.298V820.989H1633.35V919.298H1524.12Z" stroke="black" stroke-linecap="round"/>
<path d="M1508.49 1086.51L1578 1017" stroke="black" stroke-linecap="round"/>
<path d="M1507.21 1095.52C1508.73 1097.05 1510.71 1098.02 1512.85 1098.29C1514.98 1098.56 1517.15 1098.11 1519 1097.02" stroke="black" stroke-linecap="round"/>
<path d="M1588.52 1027.51C1589.61 1025.65 1590.06 1023.49 1589.79 1021.35C1589.52 1019.22 1588.54 1017.23 1587.02 1015.71" stroke="black" stroke-linecap="round"/>
<path d="M1587.02 1015.71L1523.29 951.987L1518.14 957.136" stroke="black" stroke-linecap="round"/>
<path d="M1507.2 1095.52L1443.48 1031.8L1448.63 1026.65" stroke="black" stroke-linecap="round"/>
<path d="M1441.76 1019.78L1511.27 950.268L1588.51 1027.51L1519 1097.02L1441.76 1019.78Z" stroke="black" stroke-linecap="round"/>
<path d="M1145.29 1017.01L1214.8 1086.52" stroke="black" stroke-linecap="round"/>
<path d="M1136.28 1015.72C1134.75 1017.24 1133.78 1019.23 1133.51 1021.36C1133.24 1023.5 1133.68 1025.66 1134.78 1027.52" stroke="black" stroke-linecap="round"/>
<path d="M1204.29 1097.03C1206.14 1098.13 1208.31 1098.57 1210.44 1098.3C1212.58 1098.03 1214.56 1097.06 1216.09 1095.53" stroke="black" stroke-linecap="round"/>
<path d="M1216.08 1095.53L1279.8 1031.81L1274.65 1026.66" stroke="black" stroke-linecap="round"/>
<path d="M1136.27 1015.72L1199.99 951.999L1205.14 957.148" stroke="black" stroke-linecap="round"/>
<path d="M1212.02 950.279L1281.53 1019.79L1204.29 1097.03L1134.78 1027.52L1212.02 950.279Z" stroke="black" stroke-linecap="round"/>
<path d="M1504.99 870.149C1504.99 832.131 1489.88 795.669 1463 768.786C1436.12 741.903 1399.66 726.8 1361.64 726.8C1323.62 726.8 1287.16 741.903 1260.28 768.786C1233.39 795.669 1218.29 832.131 1218.29 870.149C1218.29 908.168 1233.39 944.629 1260.28 971.512C1287.16 998.395 1323.62 1013.5 1361.64 1013.5C1399.66 1013.5 1436.12 998.395 1463 971.512C1489.88 944.629 1504.99 908.168 1504.99 870.149Z" stroke="black" stroke-linecap="round"/>
<path d="M378.52 820.984V919.292" stroke="black" stroke-linecap="round"/>
<path d="M373.053 813.701C370.901 813.701 368.809 814.416 367.108 815.734C365.406 817.052 364.19 818.899 363.652 820.983" stroke="black" stroke-linecap="round"/>
<path d="M363.652 919.293C364.19 921.377 365.406 923.223 367.108 924.541C368.809 925.859 370.901 926.575 373.053 926.575" stroke="black" stroke-linecap="round"/>
<path d="M373.059 926.575H463.175V919.293" stroke="black" stroke-linecap="round"/>
<path d="M373.059 813.701H463.175V820.983" stroke="black" stroke-linecap="round"/>
<path d="M472.884 820.984V919.292H363.652V820.984H472.884Z" stroke="black" stroke-linecap="round"/>
<path d="M892.164 919.298V820.989" stroke="black" stroke-linecap="round"/>
<path d="M897.626 926.58C899.779 926.58 901.87 925.865 903.572 924.547C905.274 923.228 906.489 921.382 907.027 919.298" stroke="black" stroke-linecap="round"/>
<path d="M907.027 820.988C906.489 818.904 905.274 817.058 903.572 815.74C901.87 814.421 899.779 813.706 897.626 813.706" stroke="black" stroke-linecap="round"/>
<path d="M897.625 813.706H807.509V820.988" stroke="black" stroke-linecap="round"/>
<path d="M897.625 926.58H807.509V919.298" stroke="black" stroke-linecap="round"/>
<path d="M797.795 919.298V820.989H907.027V919.298H797.795Z" stroke="black" stroke-linecap="round"/>
<path d="M782.196 1086.51L851.711 1017" stroke="black" stroke-linecap="round"/>
<path d="M780.91 1095.52C782.432 1097.04 784.417 1098.02 786.552 1098.29C788.688 1098.56 790.853 1098.11 792.707 1097.02" stroke="black" stroke-linecap="round"/>
<path d="M862.226 1027.51C863.319 1025.65 863.765 1023.49 863.494 1021.35C863.223 1019.22 862.25 1017.23 860.727 1015.71" stroke="black" stroke-linecap="round"/>
<path d="M860.723 1015.71L797.001 951.987L791.852 957.136" stroke="black" stroke-linecap="round"/>
<path d="M780.905 1095.52L717.184 1031.8L722.333 1026.65" stroke="black" stroke-linecap="round"/>
<path d="M715.465 1019.78L784.98 950.268L862.219 1027.51L792.704 1097.02L715.465 1019.78Z" stroke="black" stroke-linecap="round"/>
<path d="M418.973 1017.01L488.488 1086.52" stroke="black" stroke-linecap="round"/>
<path d="M409.963 1015.72C408.441 1017.24 407.468 1019.23 407.197 1021.36C406.925 1023.5 407.372 1025.66 408.465 1027.52" stroke="black" stroke-linecap="round"/>
<path d="M477.98 1097.03C479.834 1098.13 481.999 1098.57 484.134 1098.3C486.27 1098.03 488.254 1097.06 489.776 1095.53" stroke="black" stroke-linecap="round"/>
<path d="M489.773 1095.53L553.495 1031.81L548.346 1026.66" stroke="black" stroke-linecap="round"/>
<path d="M409.96 1015.72L473.682 951.999L478.831 957.148" stroke="black" stroke-linecap="round"/>
<path d="M485.704 950.278L555.219 1019.79L477.98 1097.03L408.466 1027.52L485.704 950.278Z" stroke="black" stroke-linecap="round"/>
<path d="M778.69 870.149C778.69 832.131 763.587 795.669 736.704 768.786C709.821 741.903 673.36 726.8 635.341 726.8C597.323 726.8 560.861 741.903 533.978 768.786C507.095 795.669 491.992 832.131 491.992 870.149C491.992 908.168 507.095 944.629 533.978 971.512C560.861 998.395 597.323 1013.5 635.341 1013.5C673.36 1013.5 709.821 998.395 736.704 971.512C763.587 944.629 778.69 908.168 778.69 870.149Z" stroke="black" stroke-linecap="round"/>
<path d="M15.3672 94.6951L15.3672 193.004" stroke="black" stroke-linecap="round"/>
<path d="M9.90101 87.4142C7.74845 87.4142 5.65693 88.1295 3.95518 89.4476C2.25344 90.7658 1.03814 92.6121 0.5 94.6963" stroke="black" stroke-linecap="round"/>
<path d="M0.5 193.004C1.03814 195.088 2.25344 196.934 3.95518 198.253C5.65693 199.571 7.74845 200.286 9.90101 200.286" stroke="black" stroke-linecap="round"/>
<path d="M9.90234 200.286L100.019 200.286V193.004" stroke="black" stroke-linecap="round"/>
<path d="M9.90234 87.4142L100.019 87.4142V94.6963" stroke="black" stroke-linecap="round"/>
<path d="M109.732 94.6952L109.732 193.004L0.5 193.004L0.5 94.6952L109.732 94.6952Z" stroke="black" stroke-linecap="round"/>
<path d="M529.02 193.003V94.6943" stroke="black" stroke-linecap="round"/>
<path d="M534.486 200.286C536.638 200.286 538.73 199.571 540.432 198.253C542.133 196.934 543.349 195.088 543.887 193.004" stroke="black" stroke-linecap="round"/>
<path d="M543.887 94.6942C543.349 92.61 542.133 90.7637 540.432 89.4456C538.73 88.1274 536.638 87.4121 534.486 87.4121" stroke="black" stroke-linecap="round"/>
<path d="M534.484 87.4121H444.368V94.6942" stroke="black" stroke-linecap="round"/>
<path d="M534.484 200.286H444.368V193.004" stroke="black" stroke-linecap="round"/>
<path d="M434.655 193.003V94.6943H543.887V193.003H434.655Z" stroke="black" stroke-linecap="round"/>
<path d="M419.04 360.217L488.555 290.702" stroke="black" stroke-linecap="round"/>
<path d="M417.758 369.227C419.28 370.749 421.265 371.723 423.4 371.994C425.536 372.265 427.7 371.819 429.555 370.726" stroke="black" stroke-linecap="round"/>
<path d="M499.07 301.212C500.163 299.357 500.609 297.193 500.338 295.057C500.066 292.922 499.093 290.937 497.571 289.415" stroke="black" stroke-linecap="round"/>
<path d="M497.562 289.415L433.841 225.693L428.691 230.842" stroke="black" stroke-linecap="round"/>
<path d="M417.753 369.228L354.031 305.507L359.181 300.357" stroke="black" stroke-linecap="round"/>
<path d="M352.313 293.488L421.828 223.973L499.066 301.212L429.552 370.727L352.313 293.488Z" stroke="black" stroke-linecap="round"/>
<path d="M223.035 400.688H321.344" stroke="black" stroke-linecap="round"/>
<path d="M215.761 406.149C215.761 408.301 216.476 410.393 217.794 412.095C219.112 413.796 220.959 415.012 223.043 415.55" stroke="black" stroke-linecap="round"/>
<path d="M321.347 415.55C323.431 415.012 325.277 413.796 326.595 412.095C327.914 410.393 328.629 408.301 328.629 406.149" stroke="black" stroke-linecap="round"/>
<path d="M328.629 406.148V316.032H321.347" stroke="black" stroke-linecap="round"/>
<path d="M215.761 406.148V316.032H223.043" stroke="black" stroke-linecap="round"/>
<path d="M223.035 306.318H321.344V415.55H223.035V306.318Z" stroke="black" stroke-linecap="round"/>
<path d="M55.8367 290.686L125.352 360.201" stroke="black" stroke-linecap="round"/>
<path d="M46.8225 289.399C45.3004 290.921 44.3273 292.905 44.056 295.041C43.7848 297.176 44.231 299.341 45.3242 301.195" stroke="black" stroke-linecap="round"/>
<path d="M114.835 370.711C116.689 371.804 118.854 372.251 120.99 371.979C123.125 371.708 125.11 370.735 126.632 369.213" stroke="black" stroke-linecap="round"/>
<path d="M126.629 369.213L190.351 305.491L185.201 300.342" stroke="black" stroke-linecap="round"/>
<path d="M46.8195 289.4L110.541 225.678L115.691 230.827" stroke="black" stroke-linecap="round"/>
<path d="M122.568 223.958L192.082 293.472L114.844 370.711L45.329 301.196L122.568 223.958Z" stroke="black" stroke-linecap="round"/>
<path d="M415.55 143.849C415.55 105.83 400.447 69.369 373.564 42.4859C346.68 15.6027 310.219 0.5 272.201 0.5C234.182 0.5 197.721 15.6027 170.838 42.4859C143.954 69.369 128.852 105.83 128.852 143.849C128.852 181.868 143.954 218.329 170.838 245.212C197.721 272.095 234.182 287.198 272.201 287.198C310.219 287.198 346.68 272.095 373.564 245.212C400.447 218.329 415.55 181.868 415.55 143.849Z" stroke="black" stroke-linecap="round"/>
<path d="M586.191 1126.98H684.5" stroke="black" stroke-linecap="round"/>
<path d="M578.913 1132.44C578.913 1134.6 579.628 1136.69 580.947 1138.39C582.265 1140.09 584.111 1141.31 586.195 1141.84" stroke="black" stroke-linecap="round"/>
<path d="M684.503 1141.84C686.587 1141.31 688.434 1140.09 689.752 1138.39C691.07 1136.69 691.785 1134.6 691.785 1132.44" stroke="black" stroke-linecap="round"/>
<path d="M691.785 1132.44V1042.33H684.503" stroke="black" stroke-linecap="round"/>
<path d="M578.913 1132.44V1042.33H586.195" stroke="black" stroke-linecap="round"/>
<path d="M586.191 1032.61H684.5V1141.84H586.191V1032.61Z" stroke="black" stroke-linecap="round"/>
<path d="M1312.49 1126.98H1410.8" stroke="black" stroke-linecap="round"/>
<path d="M1305.21 1132.44C1305.21 1134.6 1305.93 1136.69 1307.24 1138.39C1308.56 1140.09 1310.41 1141.31 1312.49 1141.84" stroke="black" stroke-linecap="round"/>
<path d="M1410.8 1141.84C1412.88 1141.31 1414.73 1140.09 1416.04 1138.39C1417.36 1136.69 1418.08 1134.6 1418.08 1132.44" stroke="black" stroke-linecap="round"/>
<path d="M1418.08 1132.44V1042.33H1410.8" stroke="black" stroke-linecap="round"/>
<path d="M1305.21 1132.44V1042.33H1312.49" stroke="black" stroke-linecap="round"/>
<path d="M1312.49 1032.61H1410.8V1141.84H1312.49V1032.61Z" stroke="black" stroke-linecap="round"/>
</svg>
