<svg width="2199" height="742" viewBox="0 0 2199 742" fill="none" xmlns="http://www.w3.org/2000/svg">
<path d="M1075.18 21.4858H941.387" stroke="black" stroke-linecap="round"/>
<path d="M1085.08 14.0424C1085.08 11.113 1084.1 8.26663 1082.31 5.95071C1080.52 3.6348 1078 1.98089 1075.17 1.24854" stroke="black" stroke-linecap="round"/>
<path d="M941.383 1.24854C938.547 1.98089 936.034 3.6348 934.24 5.95071C932.446 8.26663 931.473 11.113 931.473 14.0424" stroke="black" stroke-linecap="round"/>
<path d="M931.473 14.042V136.682H941.383" stroke="black" stroke-linecap="round"/>
<path d="M1085.08 14.042V136.682H1075.17" stroke="black" stroke-linecap="round"/>
<path d="M1075.18 149.903H941.387V1.24854H1075.18V149.903Z" stroke="black" stroke-linecap="round"/>
<path d="M893.086 21.4858H759.297" stroke="black" stroke-linecap="round"/>
<path d="M902.988 14.0424C902.988 11.113 902.015 8.26663 900.221 5.95071C898.427 3.6348 895.915 1.98089 893.078 1.24854" stroke="black" stroke-linecap="round"/>
<path d="M759.293 1.24854C756.457 1.98089 753.944 3.6348 752.15 5.95071C750.356 8.26663 749.383 11.113 749.383 14.0424" stroke="black" stroke-linecap="round"/>
<path d="M749.383 14.042V136.682H759.293" stroke="black" stroke-linecap="round"/>
<path d="M902.988 14.042V136.682H893.078" stroke="black" stroke-linecap="round"/>
<path d="M893.086 149.903H759.297V1.24854H893.086V149.903Z" stroke="black" stroke-linecap="round"/>
<path d="M528.934 21.4858H395.145" stroke="black" stroke-linecap="round"/>
<path d="M538.836 14.0424C538.836 11.113 537.863 8.26663 536.069 5.95071C534.275 3.6348 531.762 1.98089 528.926 1.24854" stroke="black" stroke-linecap="round"/>
<path d="M395.141 1.24854C392.304 1.98089 389.792 3.6348 387.998 5.95071C386.204 8.26663 385.23 11.113 385.23 14.0424" stroke="black" stroke-linecap="round"/>
<path d="M385.23 14.042V136.682H395.141" stroke="black" stroke-linecap="round"/>
<path d="M538.836 14.042V136.682H528.926" stroke="black" stroke-linecap="round"/>
<path d="M528.934 149.903H395.145V1.24854H528.934V149.903Z" stroke="black" stroke-linecap="round"/>
<path d="M711.008 21.4858H577.219" stroke="black" stroke-linecap="round"/>
<path d="M720.91 14.0424C720.91 11.113 719.937 8.26663 718.143 5.95071C716.349 3.6348 713.836 1.98089 711 1.24854" stroke="black" stroke-linecap="round"/>
<path d="M577.215 1.24854C574.379 1.98089 571.866 3.6348 570.072 5.95071C568.278 8.26663 567.305 11.113 567.305 14.0424" stroke="black" stroke-linecap="round"/>
<path d="M567.305 14.042V136.682H577.215" stroke="black" stroke-linecap="round"/>
<path d="M720.91 14.042V136.682H711" stroke="black" stroke-linecap="round"/>
<path d="M711.008 149.903H577.219V1.24854H711.008V149.903Z" stroke="black" stroke-linecap="round"/>
<path d="M941.379 720.498H1075.17" stroke="black" stroke-linecap="round"/>
<path d="M931.476 727.941C931.476 730.87 932.45 733.717 934.244 736.033C936.038 738.349 938.55 740.003 941.387 740.735" stroke="black" stroke-linecap="round"/>
<path d="M1075.17 740.735C1078.01 740.003 1080.52 738.349 1082.31 736.033C1084.11 733.717 1085.08 730.87 1085.08 727.941" stroke="black" stroke-linecap="round"/>
<path d="M1085.08 727.941V605.302H1075.17" stroke="black" stroke-linecap="round"/>
<path d="M931.476 727.941V605.302H941.387" stroke="black" stroke-linecap="round"/>
<path d="M941.379 592.081H1075.17V740.735H941.379V592.081Z" stroke="black" stroke-linecap="round"/>
<path d="M759.289 720.498H893.078" stroke="black" stroke-linecap="round"/>
<path d="M749.387 727.941C749.387 730.87 750.36 733.717 752.154 736.033C753.948 738.349 756.46 740.003 759.297 740.735" stroke="black" stroke-linecap="round"/>
<path d="M893.082 740.735C895.918 740.003 898.431 738.349 900.225 736.033C902.019 733.717 902.992 730.87 902.992 727.941" stroke="black" stroke-linecap="round"/>
<path d="M902.992 727.941V605.302H893.082" stroke="black" stroke-linecap="round"/>
<path d="M749.387 727.941V605.302H759.297" stroke="black" stroke-linecap="round"/>
<path d="M759.289 592.081H893.078V740.735H759.289V592.081Z" stroke="black" stroke-linecap="round"/>
<path d="M395.137 720.498H528.926" stroke="black" stroke-linecap="round"/>
<path d="M385.234 727.941C385.234 730.87 386.208 733.717 388.002 736.033C389.796 738.349 392.308 740.003 395.145 740.735" stroke="black" stroke-linecap="round"/>
<path d="M528.93 740.735C531.766 740.003 534.279 738.349 536.072 736.033C537.866 733.717 538.84 730.87 538.84 727.941" stroke="black" stroke-linecap="round"/>
<path d="M538.84 727.941V605.302H528.93" stroke="black" stroke-linecap="round"/>
<path d="M385.234 727.941V605.302H395.145" stroke="black" stroke-linecap="round"/>
<path d="M395.137 592.081H528.926V740.735H395.137V592.081Z" stroke="black" stroke-linecap="round"/>
<path d="M577.211 720.498H711" stroke="black" stroke-linecap="round"/>
<path d="M567.308 727.941C567.308 730.87 568.282 733.717 570.076 736.033C571.87 738.349 574.382 740.003 577.219 740.735" stroke="black" stroke-linecap="round"/>
<path d="M711.004 740.735C713.84 740.003 716.353 738.349 718.147 736.033C719.941 733.717 720.914 730.87 720.914 727.941" stroke="black" stroke-linecap="round"/>
<path d="M720.914 727.941V605.302H711.004" stroke="black" stroke-linecap="round"/>
<path d="M567.308 727.941V605.302H577.219" stroke="black" stroke-linecap="round"/>
<path d="M577.211 592.081H711V740.735H577.211V592.081Z" stroke="black" stroke-linecap="round"/>
<path d="M966.65 362.547H503.648" stroke="black" stroke-linecap="round" stroke-dasharray="0.83 0.41"/>
<path d="M966.65 379.444H503.648" stroke="black" stroke-linecap="round" stroke-dasharray="0.83 0.41"/>
<path d="M501.047 362.545H969.25V379.452H501.047V362.545Z" stroke="black" stroke-linecap="round" stroke-dasharray="0.83 0.41"/>
<path d="M475.047 262.143V479.857H501.058V262.143H475.047Z" stroke="black" stroke-linecap="round" stroke-dasharray="0.83 0.41"/>
<path d="M475.035 357.979V384.011" stroke="black" stroke-linecap="round" stroke-dasharray="0.83 0.41"/>
<path d="M995.261 262.143V479.857H969.25V262.143H995.261Z" stroke="black" stroke-linecap="round" stroke-dasharray="0.83 0.41"/>
<path d="M963.138 237.431H944.93V362.545H963.138V237.431Z" stroke="black" stroke-linecap="round" stroke-dasharray="0.83 0.41"/>
<path d="M963.138 504.568H944.93V379.454H963.138V504.568Z" stroke="black" stroke-linecap="round" stroke-dasharray="0.83 0.41"/>
<path d="M507.164 237.431H525.372V362.545H507.164V237.431Z" stroke="black" stroke-linecap="round" stroke-dasharray="0.83 0.41"/>
<path d="M507.164 504.568H525.372V379.454H507.164V504.568Z" stroke="black" stroke-linecap="round" stroke-dasharray="0.83 0.41"/>
<path d="M726.055 237.431H744.263V362.545H726.055V237.431Z" stroke="black" stroke-linecap="round" stroke-dasharray="0.83 0.41"/>
<path d="M726.055 504.568H744.263V379.454H726.055V504.568Z" stroke="black" stroke-linecap="round" stroke-dasharray="0.83 0.41"/>
<path d="M370.996 566.084H1099.31V175.915H370.996V566.084Z" stroke="black" stroke-linecap="round"/>
<path d="M735.148 175.922V566.07" stroke="black" stroke-linecap="round"/>
<path d="M1257.25 21.4858H1123.46" stroke="black" stroke-linecap="round"/>
<path d="M1267.16 14.0424C1267.16 11.113 1266.18 8.26663 1264.39 5.95071C1262.6 3.6348 1260.08 1.98089 1257.25 1.24854" stroke="black" stroke-linecap="round"/>
<path d="M1123.46 1.24854C1120.62 1.98089 1118.11 3.6348 1116.32 5.95071C1114.52 8.26663 1113.55 11.113 1113.55 14.0424" stroke="black" stroke-linecap="round"/>
<path d="M1113.55 14.042V136.682H1123.46" stroke="black" stroke-linecap="round"/>
<path d="M1267.16 14.042V136.682H1257.25" stroke="black" stroke-linecap="round"/>
<path d="M1257.25 149.903H1123.46V1.24854H1257.25V149.903Z" stroke="black" stroke-linecap="round"/>
<path d="M1439.33 21.4858H1305.54" stroke="black" stroke-linecap="round"/>
<path d="M1449.23 14.0424C1449.23 11.113 1448.26 8.26663 1446.46 5.95071C1444.67 3.6348 1442.16 1.98089 1439.32 1.24854" stroke="black" stroke-linecap="round"/>
<path d="M1305.54 1.24854C1302.7 1.98089 1300.19 3.6348 1298.4 5.95071C1296.6 8.26663 1295.63 11.113 1295.63 14.0424" stroke="black" stroke-linecap="round"/>
<path d="M1295.63 14.042V136.682H1305.54" stroke="black" stroke-linecap="round"/>
<path d="M1449.23 14.042V136.682H1439.32" stroke="black" stroke-linecap="round"/>
<path d="M1439.33 149.903H1305.54V1.24854H1439.33V149.903Z" stroke="black" stroke-linecap="round"/>
<path d="M1803.48 21.4858H1669.7" stroke="black" stroke-linecap="round"/>
<path d="M1813.39 14.0424C1813.39 11.113 1812.41 8.26663 1810.62 5.95071C1808.83 3.6348 1806.31 1.98089 1803.48 1.24854" stroke="black" stroke-linecap="round"/>
<path d="M1669.69 1.24854C1666.86 1.98089 1664.34 3.6348 1662.55 5.95071C1660.75 8.26663 1659.78 11.113 1659.78 14.0424" stroke="black" stroke-linecap="round"/>
<path d="M1659.78 14.042V136.682H1669.69" stroke="black" stroke-linecap="round"/>
<path d="M1813.39 14.042V136.682H1803.48" stroke="black" stroke-linecap="round"/>
<path d="M1803.48 149.903H1669.7V1.24854H1803.48V149.903Z" stroke="black" stroke-linecap="round"/>
<path d="M1621.41 21.4858H1487.62" stroke="black" stroke-linecap="round"/>
<path d="M1631.31 14.0424C1631.31 11.113 1630.34 8.26663 1628.54 5.95071C1626.75 3.6348 1624.23 1.98089 1621.4 1.24854" stroke="black" stroke-linecap="round"/>
<path d="M1487.61 1.24854C1484.78 1.98089 1482.26 3.6348 1480.47 5.95071C1478.68 8.26663 1477.7 11.113 1477.7 14.0424" stroke="black" stroke-linecap="round"/>
<path d="M1477.7 14.042V136.682H1487.61" stroke="black" stroke-linecap="round"/>
<path d="M1631.31 14.042V136.682H1621.4" stroke="black" stroke-linecap="round"/>
<path d="M1621.41 149.903H1487.62V1.24854H1621.41V149.903Z" stroke="black" stroke-linecap="round"/>
<path d="M1123.46 720.498H1257.25" stroke="black" stroke-linecap="round"/>
<path d="M1113.55 727.941C1113.55 730.87 1114.53 733.717 1116.32 736.033C1118.12 738.349 1120.63 740.003 1123.46 740.735" stroke="black" stroke-linecap="round"/>
<path d="M1257.25 740.735C1260.09 740.003 1262.6 738.349 1264.39 736.033C1266.19 733.717 1267.16 730.87 1267.16 727.941" stroke="black" stroke-linecap="round"/>
<path d="M1267.16 727.941V605.302H1257.25" stroke="black" stroke-linecap="round"/>
<path d="M1113.55 727.941V605.302H1123.46" stroke="black" stroke-linecap="round"/>
<path d="M1123.46 592.081H1257.25V740.735H1123.46V592.081Z" stroke="black" stroke-linecap="round"/>
<path d="M1305.53 720.498H1439.32" stroke="black" stroke-linecap="round"/>
<path d="M1295.63 727.941C1295.63 730.87 1296.61 733.717 1298.4 736.033C1300.19 738.349 1302.71 740.003 1305.54 740.735" stroke="black" stroke-linecap="round"/>
<path d="M1439.32 740.735C1442.16 740.003 1444.67 738.349 1446.47 736.033C1448.26 733.717 1449.23 730.87 1449.23 727.941" stroke="black" stroke-linecap="round"/>
<path d="M1449.23 727.941V605.302H1439.32" stroke="black" stroke-linecap="round"/>
<path d="M1295.63 727.941V605.302H1305.54" stroke="black" stroke-linecap="round"/>
<path d="M1305.53 592.081H1439.32V740.735H1305.53V592.081Z" stroke="black" stroke-linecap="round"/>
<path d="M1669.69 720.498H1803.48" stroke="black" stroke-linecap="round"/>
<path d="M1659.79 727.941C1659.79 730.87 1660.76 733.717 1662.55 736.033C1664.35 738.349 1666.86 740.003 1669.7 740.735" stroke="black" stroke-linecap="round"/>
<path d="M1803.48 740.735C1806.32 740.003 1808.83 738.349 1810.62 736.033C1812.42 733.717 1813.39 730.87 1813.39 727.941" stroke="black" stroke-linecap="round"/>
<path d="M1813.39 727.941V605.302H1803.48" stroke="black" stroke-linecap="round"/>
<path d="M1659.79 727.941V605.302H1669.7" stroke="black" stroke-linecap="round"/>
<path d="M1669.69 592.081H1803.48V740.735H1669.69V592.081Z" stroke="black" stroke-linecap="round"/>
<path d="M1487.61 720.498H1621.4" stroke="black" stroke-linecap="round"/>
<path d="M1477.71 727.941C1477.71 730.87 1478.68 733.717 1480.47 736.033C1482.27 738.349 1484.78 740.003 1487.62 740.735" stroke="black" stroke-linecap="round"/>
<path d="M1621.4 740.735C1624.24 740.003 1626.75 738.349 1628.55 736.033C1630.34 733.717 1631.31 730.87 1631.31 727.941" stroke="black" stroke-linecap="round"/>
<path d="M1631.31 727.941V605.302H1621.4" stroke="black" stroke-linecap="round"/>
<path d="M1477.71 727.941V605.302H1487.62" stroke="black" stroke-linecap="round"/>
<path d="M1487.61 592.081H1621.4V740.735H1487.61V592.081Z" stroke="black" stroke-linecap="round"/>
<path d="M966.65 362.547H503.648" stroke="black" stroke-linecap="round" stroke-dasharray="0.83 0.41"/>
<path d="M966.65 379.444H503.648" stroke="black" stroke-linecap="round" stroke-dasharray="0.83 0.41"/>
<path d="M501.047 362.545H969.25V379.452H501.047V362.545Z" stroke="black" stroke-linecap="round" stroke-dasharray="0.83 0.41"/>
<path d="M475.047 262.143V479.857H501.058V262.143H475.047Z" stroke="black" stroke-linecap="round" stroke-dasharray="0.83 0.41"/>
<path d="M475.035 357.979V384.011" stroke="black" stroke-linecap="round" stroke-dasharray="0.83 0.41"/>
<path d="M995.261 262.143V479.857H969.25V262.143H995.261Z" stroke="black" stroke-linecap="round" stroke-dasharray="0.83 0.41"/>
<path d="M963.138 237.431H944.93V362.545H963.138V237.431Z" stroke="black" stroke-linecap="round" stroke-dasharray="0.83 0.41"/>
<path d="M963.138 504.568H944.93V379.454H963.138V504.568Z" stroke="black" stroke-linecap="round" stroke-dasharray="0.83 0.41"/>
<path d="M507.164 237.431H525.372V362.545H507.164V237.431Z" stroke="black" stroke-linecap="round" stroke-dasharray="0.83 0.41"/>
<path d="M507.164 504.568H525.372V379.454H507.164V504.568Z" stroke="black" stroke-linecap="round" stroke-dasharray="0.83 0.41"/>
<path d="M726.055 237.431H744.263V362.545H726.055V237.431Z" stroke="black" stroke-linecap="round" stroke-dasharray="0.83 0.41"/>
<path d="M726.055 504.568H744.263V379.454H726.055V504.568Z" stroke="black" stroke-linecap="round" stroke-dasharray="0.83 0.41"/>
<path d="M370.996 566.084H1099.31V175.915H370.996V566.084Z" stroke="black" stroke-linecap="round"/>
<path d="M735.148 175.922V566.07" stroke="black" stroke-linecap="round"/>
<path d="M370.991 175.915V566.084C319.251 566.084 269.631 545.53 233.045 508.945C196.46 472.359 175.906 422.739 175.906 371C175.906 319.26 196.46 269.639 233.045 233.054C269.631 196.468 319.251 175.915 370.991 175.915Z" stroke="black" stroke-linecap="round"/>
<path d="M22.4926 442.933L73.6914 566.538" stroke="black" stroke-linecap="round"/>
<path d="M11.8244 436.625C9.11796 437.746 6.86078 439.735 5.40764 442.279C3.95451 444.822 3.38804 447.776 3.79688 450.677" stroke="black" stroke-linecap="round"/>
<path d="M54.9927 574.283C56.7547 576.623 59.2443 578.311 62.0704 579.082C64.8965 579.853 67.8987 579.664 70.6052 578.542" stroke="black" stroke-linecap="round"/>
<path d="M70.6055 578.542L183.91 531.609L180.117 522.453" stroke="black" stroke-linecap="round"/>
<path d="M11.8247 436.626L125.129 389.694L128.922 398.85" stroke="black" stroke-linecap="round"/>
<path d="M141.144 393.79L192.343 517.395L55.0039 574.282L3.80514 450.677L141.144 393.79Z" stroke="black" stroke-linecap="round"/>
<path d="M175.442 668.31L299.047 719.509" stroke="black" stroke-linecap="round"/>
<path d="M163.435 671.396C162.314 674.102 162.124 677.104 162.896 679.931C163.667 682.757 165.355 685.246 167.695 687.008" stroke="black" stroke-linecap="round"/>
<path d="M291.301 738.207C294.202 738.615 297.156 738.049 299.7 736.596C302.243 735.143 304.232 732.885 305.353 730.179" stroke="black" stroke-linecap="round"/>
<path d="M305.352 730.178L352.284 616.874L343.128 613.081" stroke="black" stroke-linecap="round"/>
<path d="M163.438 671.395L210.37 558.091L219.526 561.883" stroke="black" stroke-linecap="round"/>
<path d="M224.591 549.668L348.196 600.867L291.309 738.206L167.704 687.007L224.591 549.668Z" stroke="black" stroke-linecap="round"/>
<path d="M299.043 22.4911L175.438 73.6899" stroke="black" stroke-linecap="round"/>
<path d="M305.345 11.822C304.224 9.11552 302.235 6.85834 299.692 5.4052C297.148 3.95207 294.194 3.3856 291.293 3.79443" stroke="black" stroke-linecap="round"/>
<path d="M167.687 54.9927C165.347 56.7547 163.658 59.2443 162.887 62.0704C162.116 64.8965 162.306 67.8987 163.427 70.6052" stroke="black" stroke-linecap="round"/>
<path d="M163.43 70.606L210.362 183.91L219.518 180.118" stroke="black" stroke-linecap="round"/>
<path d="M305.347 11.8213L352.279 125.126L343.124 128.918" stroke="black" stroke-linecap="round"/>
<path d="M348.188 141.134L224.583 192.332L167.695 54.9937L291.3 3.79489L348.188 141.134Z" stroke="black" stroke-linecap="round"/>
<path d="M73.6832 175.444L22.4844 299.049" stroke="black" stroke-linecap="round"/>
<path d="M70.6047 163.438C67.8983 162.317 64.896 162.127 62.0699 162.898C59.2438 163.67 56.7542 165.358 54.9922 167.698" stroke="black" stroke-linecap="round"/>
<path d="M3.7925 291.304C3.38367 294.204 3.95014 297.159 5.40327 299.702C6.8564 302.246 9.11358 304.234 11.82 305.355" stroke="black" stroke-linecap="round"/>
<path d="M11.8203 305.356L125.125 352.288L128.917 343.132" stroke="black" stroke-linecap="round"/>
<path d="M70.6011 163.439L183.906 210.371L180.113 219.527" stroke="black" stroke-linecap="round"/>
<path d="M192.334 224.586L141.136 348.191L3.79688 291.303L54.9956 167.698L192.334 224.586Z" stroke="black" stroke-linecap="round"/>
<path d="M1827.63 175.915V566.084C1775.89 566.084 1726.27 545.53 1689.69 508.945C1653.1 472.359 1632.55 422.739 1632.55 371C1632.55 319.26 1653.1 269.639 1689.69 233.054C1726.27 196.468 1775.89 175.915 1827.63 175.915Z" stroke="black" stroke-linecap="round"/>
<path d="M2124.95 566.551L2176.15 442.946" stroke="black" stroke-linecap="round"/>
<path d="M2128.03 578.555C2130.73 579.676 2133.74 579.866 2136.56 579.095C2139.39 578.324 2141.88 576.636 2143.64 574.295" stroke="black" stroke-linecap="round"/>
<path d="M2194.84 450.69C2195.25 447.789 2194.68 444.835 2193.23 442.291C2191.78 439.748 2189.52 437.759 2186.81 436.638" stroke="black" stroke-linecap="round"/>
<path d="M2186.81 436.638L2073.51 389.706L2069.72 398.861" stroke="black" stroke-linecap="round"/>
<path d="M2128.03 578.554L2014.73 531.622L2018.52 522.466" stroke="black" stroke-linecap="round"/>
<path d="M2006.3 517.408L2057.5 393.803L2194.84 450.69L2143.64 574.295L2006.3 517.408Z" stroke="black" stroke-linecap="round"/>
<path d="M1899.58 719.494L2023.19 668.295" stroke="black" stroke-linecap="round"/>
<path d="M1893.28 730.163C1894.4 732.869 1896.39 735.127 1898.93 736.58C1901.47 738.033 1904.43 738.599 1907.33 738.19" stroke="black" stroke-linecap="round"/>
<path d="M2030.93 686.993C2033.27 685.231 2034.96 682.741 2035.73 679.915C2036.5 677.089 2036.31 674.087 2035.19 671.38" stroke="black" stroke-linecap="round"/>
<path d="M2035.19 671.379L1988.26 558.074L1979.1 561.867" stroke="black" stroke-linecap="round"/>
<path d="M1893.27 730.162L1846.34 616.858L1855.5 613.065" stroke="black" stroke-linecap="round"/>
<path d="M1850.43 600.852L1974.04 549.653L2030.93 686.992L1907.32 738.19L1850.43 600.852Z" stroke="black" stroke-linecap="round"/>
<path d="M2023.18 73.691L1899.57 22.4922" stroke="black" stroke-linecap="round"/>
<path d="M2035.18 70.6057C2036.3 67.8992 2036.49 64.897 2035.72 62.0709C2034.95 59.2448 2033.26 56.7552 2030.92 54.9932" stroke="black" stroke-linecap="round"/>
<path d="M1907.32 3.79494C1904.42 3.38611 1901.46 3.95258 1898.92 5.40571C1896.37 6.85884 1894.39 9.11603 1893.26 11.8225" stroke="black" stroke-linecap="round"/>
<path d="M1893.27 11.8232L1846.33 125.128L1855.49 128.92" stroke="black" stroke-linecap="round"/>
<path d="M2035.18 70.6065L1988.25 183.911L1979.09 180.118" stroke="black" stroke-linecap="round"/>
<path d="M1974.03 192.333L1850.42 141.135L1907.31 3.7959L2030.91 54.9947L1974.03 192.333Z" stroke="black" stroke-linecap="round"/>
<path d="M2176.12 299.046L2124.93 175.44" stroke="black" stroke-linecap="round"/>
<path d="M2186.8 305.353C2189.5 304.232 2191.76 302.244 2193.21 299.7C2194.67 297.156 2195.23 294.202 2194.82 291.301" stroke="black" stroke-linecap="round"/>
<path d="M2143.62 167.696C2141.86 165.356 2139.37 163.667 2136.55 162.896C2133.72 162.125 2130.72 162.315 2128.01 163.436" stroke="black" stroke-linecap="round"/>
<path d="M2128.01 163.435L2014.71 210.367L2018.5 219.523" stroke="black" stroke-linecap="round"/>
<path d="M2186.8 305.352L2073.49 352.284L2069.7 343.128" stroke="black" stroke-linecap="round"/>
<path d="M2057.47 348.189L2006.27 224.584L2143.61 167.696L2194.81 291.301L2057.47 348.189Z" stroke="black" stroke-linecap="round"/>
</svg>
