<svg width="1178" height="708" viewBox="0 0 1178 708" fill="none" xmlns="http://www.w3.org/2000/svg">
<path d="M41.5133 304.065L70.6641 374.441" stroke="black" stroke-linecap="round"/>
<path d="M35.4458 300.472C33.9049 301.11 32.6197 302.242 31.7923 303.691C30.9649 305.139 30.6422 306.821 30.875 308.473" stroke="black" stroke-linecap="round"/>
<path d="M60.0204 378.849C61.0236 380.181 62.4413 381.143 64.0504 381.582C65.6595 382.021 67.3689 381.913 68.9098 381.274" stroke="black" stroke-linecap="round"/>
<path d="M68.9141 381.274L133.426 354.552L131.266 349.339" stroke="black" stroke-linecap="round"/>
<path d="M35.4422 300.472L99.9537 273.75L102.113 278.963" stroke="black" stroke-linecap="round"/>
<path d="M109.069 276.083L138.219 346.459L60.0234 378.849L30.8727 308.472L109.069 276.083Z" stroke="black" stroke-linecap="round"/>
<path d="M108.175 439.411L154.547 499.844" stroke="black" stroke-linecap="round"/>
<path d="M101.383 437.511C100.06 438.526 99.1118 439.952 98.6874 441.565C98.2631 443.178 98.3868 444.887 99.0391 446.422" stroke="black" stroke-linecap="round"/>
<path d="M145.409 506.855C146.723 507.883 148.341 508.444 150.009 508.452C151.677 508.46 153.3 507.913 154.623 506.897" stroke="black" stroke-linecap="round"/>
<path d="M154.621 506.897L210.018 464.39L206.583 459.913" stroke="black" stroke-linecap="round"/>
<path d="M101.381 437.511L156.779 395.003L160.214 399.48" stroke="black" stroke-linecap="round"/>
<path d="M166.19 394.897L212.562 455.33L145.414 506.855L99.0419 446.422L166.19 394.897Z" stroke="black" stroke-linecap="round"/>
<path d="M12.1588 156.079L22.1016 231.602" stroke="black" stroke-linecap="round"/>
<path d="M7.22801 151.037C5.57437 151.255 4.03989 152.016 2.86589 153.2C1.69189 154.385 0.944805 155.926 0.742188 157.582" stroke="black" stroke-linecap="round"/>
<path d="M10.6815 233.105C11.3057 234.652 12.4262 235.947 13.8669 236.788C15.3075 237.628 16.9867 237.966 18.6403 237.748" stroke="black" stroke-linecap="round"/>
<path d="M18.6406 237.749L87.87 228.635L87.1335 223.041" stroke="black" stroke-linecap="round"/>
<path d="M7.22834 151.037L76.4577 141.923L77.1942 147.517" stroke="black" stroke-linecap="round"/>
<path d="M84.6553 146.535L94.598 222.058L10.6836 233.105L0.740827 157.583L84.6553 146.535Z" stroke="black" stroke-linecap="round"/>
<path d="M327.047 380.374L243.27 464.151" stroke="black" stroke-linecap="round"/>
<path d="M218.605 118.569L100.126 118.569" stroke="black" stroke-linecap="round"/>
<path d="M327.046 380.374L243.269 464.152C197.886 418.769 161.887 364.892 137.326 305.597C112.766 246.302 100.124 182.75 100.124 118.57L218.603 118.57C218.603 167.192 228.18 215.337 246.787 260.257C265.393 305.178 292.665 345.994 327.046 380.374Z" stroke="black" stroke-linecap="round"/>
<path d="M332.987 636.763L403.363 665.914" stroke="black" stroke-linecap="round"/>
<path d="M326.157 638.514C325.518 640.055 325.41 641.764 325.849 643.373C326.288 644.982 327.25 646.4 328.582 647.403" stroke="black" stroke-linecap="round"/>
<path d="M398.959 676.554C400.61 676.787 402.293 676.464 403.741 675.637C405.189 674.809 406.321 673.524 406.96 671.983" stroke="black" stroke-linecap="round"/>
<path d="M406.957 671.983L433.679 607.472L428.465 605.313" stroke="black" stroke-linecap="round"/>
<path d="M326.158 638.514L352.88 574.003L358.093 576.162" stroke="black" stroke-linecap="round"/>
<path d="M360.974 569.208L431.351 598.358L398.961 676.554L328.585 647.403L360.974 569.208Z" stroke="black" stroke-linecap="round"/>
<path d="M475.821 685.33L551.344 695.273" stroke="black" stroke-linecap="round"/>
<path d="M469.677 688.79C469.459 690.443 469.797 692.123 470.638 693.563C471.478 695.004 472.774 696.124 474.32 696.749" stroke="black" stroke-linecap="round"/>
<path d="M549.843 706.691C551.499 706.489 553.04 705.742 554.225 704.568C555.41 703.394 556.171 701.859 556.388 700.205" stroke="black" stroke-linecap="round"/>
<path d="M556.387 700.205L565.501 630.976L559.907 630.239" stroke="black" stroke-linecap="round"/>
<path d="M469.675 688.79L478.789 619.561L484.384 620.298" stroke="black" stroke-linecap="round"/>
<path d="M485.368 612.834L560.891 622.776L549.844 706.691L474.321 696.748L485.368 612.834Z" stroke="black" stroke-linecap="round"/>
<path d="M207.582 552.887L268.016 599.259" stroke="black" stroke-linecap="round"/>
<path d="M200.532 552.81C199.517 554.133 198.97 555.756 198.978 557.424C198.985 559.092 199.547 560.71 200.574 562.024" stroke="black" stroke-linecap="round"/>
<path d="M261.008 608.396C262.543 609.048 264.251 609.172 265.864 608.748C267.477 608.323 268.904 607.375 269.919 606.052" stroke="black" stroke-linecap="round"/>
<path d="M269.918 606.051L312.426 550.654L307.949 547.219" stroke="black" stroke-linecap="round"/>
<path d="M200.531 552.81L243.039 497.412L247.516 500.847" stroke="black" stroke-linecap="round"/>
<path d="M252.099 494.876L312.532 541.248L261.008 608.396L200.574 562.024L252.099 494.876Z" stroke="black" stroke-linecap="round"/>
<path d="M588.855 488.825L588.855 607.304" stroke="black" stroke-linecap="round"/>
<path d="M327.049 380.383L243.271 464.16" stroke="black" stroke-linecap="round"/>
<path d="M588.854 488.825L588.854 607.304C524.673 607.304 461.121 594.663 401.826 570.102C342.531 545.541 288.655 509.542 243.272 464.16L327.049 380.382C361.43 414.763 402.246 442.035 447.166 460.642C492.087 479.248 540.232 488.825 588.854 488.825Z" stroke="black" stroke-linecap="round"/>
<path d="M774.343 665.913L844.719 636.762" stroke="black" stroke-linecap="round"/>
<path d="M770.753 671.983C771.391 673.524 772.524 674.809 773.972 675.636C775.42 676.464 777.102 676.786 778.754 676.554" stroke="black" stroke-linecap="round"/>
<path d="M849.127 647.403C850.459 646.4 851.421 644.982 851.86 643.373C852.299 641.764 852.19 640.054 851.552 638.514" stroke="black" stroke-linecap="round"/>
<path d="M851.551 638.514L824.829 574.002L819.616 576.161" stroke="black" stroke-linecap="round"/>
<path d="M770.752 671.983L744.03 607.471L749.243 605.312" stroke="black" stroke-linecap="round"/>
<path d="M746.363 598.358L816.739 569.207L849.129 647.403L778.753 676.554L746.363 598.358Z" stroke="black" stroke-linecap="round"/>
<path d="M909.692 599.254L970.125 552.882" stroke="black" stroke-linecap="round"/>
<path d="M907.788 606.047C908.803 607.37 910.23 608.318 911.843 608.743C913.456 609.167 915.164 609.043 916.699 608.391" stroke="black" stroke-linecap="round"/>
<path d="M977.137 562.019C978.164 560.706 978.726 559.087 978.733 557.419C978.741 555.752 978.194 554.128 977.179 552.805" stroke="black" stroke-linecap="round"/>
<path d="M977.176 552.805L934.668 497.407L930.191 500.842" stroke="black" stroke-linecap="round"/>
<path d="M907.789 606.047L865.281 550.65L869.758 547.215" stroke="black" stroke-linecap="round"/>
<path d="M865.175 541.243L925.608 494.871L977.133 562.02L916.699 608.392L865.175 541.243Z" stroke="black" stroke-linecap="round"/>
<path d="M626.36 695.265L701.883 685.322" stroke="black" stroke-linecap="round"/>
<path d="M621.322 700.198C621.54 701.852 622.301 703.386 623.486 704.56C624.67 705.734 626.212 706.481 627.867 706.684" stroke="black" stroke-linecap="round"/>
<path d="M703.39 696.741C704.937 696.117 706.232 694.996 707.073 693.556C707.913 692.115 708.251 690.436 708.034 688.782" stroke="black" stroke-linecap="round"/>
<path d="M708.031 688.782L698.917 619.552L693.323 620.289" stroke="black" stroke-linecap="round"/>
<path d="M621.32 700.198L612.206 630.969L617.8 630.232" stroke="black" stroke-linecap="round"/>
<path d="M616.82 622.769L692.343 612.826L703.391 696.741L627.868 706.683L616.82 622.769Z" stroke="black" stroke-linecap="round"/>
<path d="M850.656 380.382L934.434 464.159" stroke="black" stroke-linecap="round"/>
<path d="M588.854 488.824L588.854 607.303" stroke="black" stroke-linecap="round"/>
<path d="M850.658 380.382L934.435 464.16C889.053 509.542 835.176 545.541 775.881 570.102C716.586 594.663 653.034 607.304 588.854 607.304L588.854 488.825C637.475 488.825 685.621 479.248 730.541 460.642C775.462 442.035 816.277 414.763 850.658 380.382Z" stroke="black" stroke-linecap="round"/>
<path d="M1107.04 374.445L1136.19 304.069" stroke="black" stroke-linecap="round"/>
<path d="M1108.79 381.277C1110.33 381.916 1112.04 382.024 1113.65 381.585C1115.25 381.146 1116.67 380.184 1117.68 378.852" stroke="black" stroke-linecap="round"/>
<path d="M1146.83 308.476C1147.06 306.825 1146.74 305.143 1145.91 303.694C1145.08 302.246 1143.8 301.114 1142.26 300.475" stroke="black" stroke-linecap="round"/>
<path d="M1142.26 300.476L1077.75 273.754L1075.59 278.967" stroke="black" stroke-linecap="round"/>
<path d="M1108.79 381.278L1044.28 354.557L1046.44 349.343" stroke="black" stroke-linecap="round"/>
<path d="M1039.48 346.463L1068.63 276.086L1146.82 308.476L1117.67 378.852L1039.48 346.463Z" stroke="black" stroke-linecap="round"/>
<path d="M1155.61 231.603L1165.55 156.08" stroke="black" stroke-linecap="round"/>
<path d="M1159.07 237.749C1160.73 237.967 1162.41 237.629 1163.85 236.789C1165.29 235.948 1166.41 234.653 1167.03 233.106" stroke="black" stroke-linecap="round"/>
<path d="M1176.97 157.583C1176.77 155.928 1176.02 154.386 1174.85 153.201C1173.68 152.017 1172.14 151.256 1170.49 151.038" stroke="black" stroke-linecap="round"/>
<path d="M1170.48 151.038L1101.26 141.923L1100.52 147.518" stroke="black" stroke-linecap="round"/>
<path d="M1159.07 237.75L1089.84 228.635L1090.58 223.041" stroke="black" stroke-linecap="round"/>
<path d="M1083.11 222.058L1093.05 146.535L1176.97 157.583L1167.03 233.106L1083.11 222.058Z" stroke="black" stroke-linecap="round"/>
<path d="M1023.16 499.84L1069.54 439.406" stroke="black" stroke-linecap="round"/>
<path d="M1023.09 506.893C1024.41 507.908 1026.03 508.455 1027.7 508.448C1029.37 508.44 1030.99 507.878 1032.3 506.851" stroke="black" stroke-linecap="round"/>
<path d="M1078.67 446.418C1079.33 444.883 1079.45 443.175 1079.03 441.562C1078.6 439.948 1077.65 438.522 1076.33 437.507" stroke="black" stroke-linecap="round"/>
<path d="M1076.33 437.507L1020.93 394.999L1017.5 399.476" stroke="black" stroke-linecap="round"/>
<path d="M1023.09 506.894L967.691 464.386L971.126 459.909" stroke="black" stroke-linecap="round"/>
<path d="M965.152 455.326L1011.52 394.893L1078.67 446.417L1032.3 506.851L965.152 455.326Z" stroke="black" stroke-linecap="round"/>
<path d="M959.103 118.574L1077.58 118.574" stroke="black" stroke-linecap="round"/>
<path d="M850.661 380.378L934.438 464.155" stroke="black" stroke-linecap="round"/>
<path d="M959.104 118.574L1077.58 118.574C1077.58 182.754 1064.94 246.306 1040.38 305.601C1015.82 364.896 979.821 418.773 934.438 464.156L850.661 380.378C885.042 345.998 912.314 305.182 930.921 260.261C949.527 215.341 959.104 167.196 959.104 118.574Z" stroke="black" stroke-linecap="round"/>
</svg>
