<svg width="960" height="1317" viewBox="0 0 960 1317" fill="none" xmlns="http://www.w3.org/2000/svg">
<path d="M8.12408 1300.42H111.09" stroke="black" stroke-linecap="round"/>
<path d="M0.501828 1306.15C0.501827 1308.41 1.25101 1310.6 2.63162 1312.38C4.01223 1314.16 5.94597 1315.43 8.12891 1316" stroke="black" stroke-linecap="round"/>
<path d="M111.092 1316C113.275 1315.43 115.208 1314.16 116.589 1312.38C117.97 1310.6 118.719 1308.41 118.719 1306.15" stroke="black" stroke-linecap="round"/>
<path d="M118.719 1306.15L118.719 1211.77H111.092" stroke="black" stroke-linecap="round"/>
<path d="M0.501828 1306.15L0.501828 1211.77H8.12891" stroke="black" stroke-linecap="round"/>
<path d="M8.12429 1201.59H111.09L111.09 1316H8.12429L8.12429 1201.59Z" stroke="black" stroke-linecap="round"/>
<path d="M8.12408 1100.25H111.09" stroke="black" stroke-linecap="round"/>
<path d="M0.501828 1105.98C0.501827 1108.24 1.25101 1110.43 2.63162 1112.21C4.01223 1113.99 5.94597 1115.27 8.12891 1115.83" stroke="black" stroke-linecap="round"/>
<path d="M111.092 1115.83C113.275 1115.27 115.208 1113.99 116.589 1112.21C117.97 1110.43 118.719 1108.24 118.719 1105.98" stroke="black" stroke-linecap="round"/>
<path d="M118.719 1105.98L118.719 1011.6H111.092" stroke="black" stroke-linecap="round"/>
<path d="M0.501828 1105.98L0.501828 1011.6H8.12891" stroke="black" stroke-linecap="round"/>
<path d="M8.12429 1001.42H111.09L111.09 1115.83H8.12429L8.12429 1001.42Z" stroke="black" stroke-linecap="round"/>
<path d="M8.12408 900.057H111.09" stroke="black" stroke-linecap="round"/>
<path d="M0.501828 905.787C0.501827 908.042 1.25101 910.233 2.63162 912.015C4.01223 913.797 5.94597 915.07 8.12891 915.634" stroke="black" stroke-linecap="round"/>
<path d="M111.092 915.634C113.275 915.07 115.208 913.797 116.589 912.015C117.97 910.233 118.719 908.042 118.719 905.787" stroke="black" stroke-linecap="round"/>
<path d="M118.719 905.788L118.719 811.403H111.092" stroke="black" stroke-linecap="round"/>
<path d="M0.501828 905.788L0.501828 811.403H8.12891" stroke="black" stroke-linecap="round"/>
<path d="M8.12429 801.228H111.09L111.09 915.634H8.12429L8.12429 801.228Z" stroke="black" stroke-linecap="round"/>
<path d="M8.12408 699.889H111.09" stroke="black" stroke-linecap="round"/>
<path d="M0.501828 705.62C0.501827 707.875 1.25101 710.066 2.63162 711.848C4.01223 713.63 5.94597 714.903 8.12891 715.467" stroke="black" stroke-linecap="round"/>
<path d="M111.092 715.467C113.275 714.903 115.208 713.63 116.589 711.848C117.97 710.066 118.719 707.875 118.719 705.62" stroke="black" stroke-linecap="round"/>
<path d="M118.719 705.619L118.719 611.234H111.092" stroke="black" stroke-linecap="round"/>
<path d="M0.501828 705.619L0.501828 611.234H8.12891" stroke="black" stroke-linecap="round"/>
<path d="M8.12429 601.061H111.09L111.09 715.467H8.12429L8.12429 601.061Z" stroke="black" stroke-linecap="round"/>
<path d="M8.12408 499.694H111.09" stroke="black" stroke-linecap="round"/>
<path d="M0.501828 505.425C0.501827 507.68 1.25101 509.87 2.63162 511.653C4.01223 513.435 5.94597 514.708 8.12891 515.271" stroke="black" stroke-linecap="round"/>
<path d="M111.092 515.271C113.275 514.708 115.208 513.435 116.589 511.653C117.97 509.87 118.719 507.68 118.719 505.425" stroke="black" stroke-linecap="round"/>
<path d="M118.719 505.424L118.719 411.039H111.092" stroke="black" stroke-linecap="round"/>
<path d="M0.501828 505.424L0.501828 411.039H8.12891" stroke="black" stroke-linecap="round"/>
<path d="M8.12429 400.865H111.09L111.09 515.271H8.12429L8.12429 400.865Z" stroke="black" stroke-linecap="round"/>
<path d="M8.12408 299.498H111.09" stroke="black" stroke-linecap="round"/>
<path d="M0.501828 305.23C0.501827 307.484 1.25101 309.675 2.63162 311.457C4.01223 313.24 5.94597 314.513 8.12891 315.076" stroke="black" stroke-linecap="round"/>
<path d="M111.092 315.076C113.275 314.513 115.208 313.24 116.589 311.457C117.97 309.675 118.719 307.484 118.719 305.23" stroke="black" stroke-linecap="round"/>
<path d="M118.719 305.229L118.719 210.843H111.092" stroke="black" stroke-linecap="round"/>
<path d="M0.501828 305.229L0.501828 210.843H8.12891" stroke="black" stroke-linecap="round"/>
<path d="M8.12429 200.67H111.09L111.09 315.076H8.12429L8.12429 200.67Z" stroke="black" stroke-linecap="round"/>
<path d="M8.12408 99.3291L111.09 99.3291" stroke="black" stroke-linecap="round"/>
<path d="M0.501828 105.06C0.501827 107.314 1.25101 109.505 2.63162 111.287C4.01223 113.07 5.94597 114.343 8.12891 114.906" stroke="black" stroke-linecap="round"/>
<path d="M111.092 114.906C113.275 114.343 115.208 113.07 116.589 111.287C117.97 109.505 118.719 107.314 118.719 105.06" stroke="black" stroke-linecap="round"/>
<path d="M118.719 105.059L118.719 10.6735H111.092" stroke="black" stroke-linecap="round"/>
<path d="M0.501828 105.059L0.501828 10.6735H8.12891" stroke="black" stroke-linecap="round"/>
<path d="M8.12429 0.500137L111.09 0.500137L111.09 114.906L8.12429 114.906L8.12429 0.500137Z" stroke="black" stroke-linecap="round"/>
<path d="M128.23 1300.42H231.195" stroke="black" stroke-linecap="round"/>
<path d="M120.607 1306.15C120.607 1308.41 121.356 1310.6 122.737 1312.38C124.118 1314.16 126.051 1315.43 128.234 1316" stroke="black" stroke-linecap="round"/>
<path d="M231.201 1316C233.384 1315.43 235.318 1314.16 236.698 1312.38C238.079 1310.6 238.828 1308.41 238.828 1306.15" stroke="black" stroke-linecap="round"/>
<path d="M238.828 1306.15V1211.77H231.201" stroke="black" stroke-linecap="round"/>
<path d="M120.607 1306.15L120.607 1211.77H128.234" stroke="black" stroke-linecap="round"/>
<path d="M128.23 1201.59H231.195V1316H128.23V1201.59Z" stroke="black" stroke-linecap="round"/>
<path d="M128.23 1100.25H231.195" stroke="black" stroke-linecap="round"/>
<path d="M120.607 1105.98C120.607 1108.24 121.356 1110.43 122.737 1112.21C124.118 1113.99 126.051 1115.27 128.234 1115.83" stroke="black" stroke-linecap="round"/>
<path d="M231.201 1115.83C233.384 1115.27 235.318 1113.99 236.698 1112.21C238.079 1110.43 238.828 1108.24 238.828 1105.98" stroke="black" stroke-linecap="round"/>
<path d="M238.828 1105.98V1011.6H231.201" stroke="black" stroke-linecap="round"/>
<path d="M120.607 1105.98L120.607 1011.6H128.234" stroke="black" stroke-linecap="round"/>
<path d="M128.23 1001.42H231.195V1115.83H128.23V1001.42Z" stroke="black" stroke-linecap="round"/>
<path d="M128.23 900.057H231.195" stroke="black" stroke-linecap="round"/>
<path d="M120.607 905.787C120.607 908.042 121.356 910.233 122.737 912.015C124.118 913.797 126.051 915.07 128.234 915.634" stroke="black" stroke-linecap="round"/>
<path d="M231.201 915.634C233.384 915.07 235.318 913.797 236.698 912.015C238.079 910.233 238.828 908.042 238.828 905.787" stroke="black" stroke-linecap="round"/>
<path d="M238.828 905.788V811.403H231.201" stroke="black" stroke-linecap="round"/>
<path d="M120.607 905.788L120.607 811.403H128.234" stroke="black" stroke-linecap="round"/>
<path d="M128.23 801.228H231.195V915.634H128.23V801.228Z" stroke="black" stroke-linecap="round"/>
<path d="M128.23 699.889H231.195" stroke="black" stroke-linecap="round"/>
<path d="M120.607 705.62C120.607 707.875 121.356 710.066 122.737 711.848C124.118 713.63 126.051 714.903 128.234 715.467" stroke="black" stroke-linecap="round"/>
<path d="M231.201 715.467C233.384 714.903 235.318 713.63 236.698 711.848C238.079 710.066 238.828 707.875 238.828 705.62" stroke="black" stroke-linecap="round"/>
<path d="M238.828 705.619V611.234H231.201" stroke="black" stroke-linecap="round"/>
<path d="M120.607 705.619L120.607 611.234H128.234" stroke="black" stroke-linecap="round"/>
<path d="M128.23 601.061H231.195V715.467H128.23V601.061Z" stroke="black" stroke-linecap="round"/>
<path d="M128.23 499.694H231.195" stroke="black" stroke-linecap="round"/>
<path d="M120.607 505.425C120.607 507.68 121.356 509.87 122.737 511.653C124.118 513.435 126.051 514.708 128.234 515.271" stroke="black" stroke-linecap="round"/>
<path d="M231.201 515.271C233.384 514.708 235.318 513.435 236.698 511.653C238.079 509.87 238.828 507.68 238.828 505.425" stroke="black" stroke-linecap="round"/>
<path d="M238.828 505.424V411.039H231.201" stroke="black" stroke-linecap="round"/>
<path d="M120.607 505.424L120.607 411.039H128.234" stroke="black" stroke-linecap="round"/>
<path d="M128.23 400.865H231.195V515.271H128.23V400.865Z" stroke="black" stroke-linecap="round"/>
<path d="M128.23 299.498H231.195" stroke="black" stroke-linecap="round"/>
<path d="M120.607 305.23C120.607 307.484 121.356 309.675 122.737 311.457C124.118 313.24 126.051 314.513 128.234 315.076" stroke="black" stroke-linecap="round"/>
<path d="M231.201 315.076C233.384 314.513 235.318 313.24 236.698 311.457C238.079 309.675 238.828 307.484 238.828 305.23" stroke="black" stroke-linecap="round"/>
<path d="M238.828 305.229V210.843H231.201" stroke="black" stroke-linecap="round"/>
<path d="M120.607 305.229L120.607 210.843H128.234" stroke="black" stroke-linecap="round"/>
<path d="M128.23 200.67H231.195V315.076H128.23V200.67Z" stroke="black" stroke-linecap="round"/>
<path d="M128.23 99.3291L231.195 99.3291" stroke="black" stroke-linecap="round"/>
<path d="M120.607 105.06C120.607 107.314 121.356 109.505 122.737 111.287C124.118 113.07 126.051 114.343 128.234 114.906" stroke="black" stroke-linecap="round"/>
<path d="M231.201 114.906C233.384 114.343 235.318 113.07 236.698 111.287C238.079 109.505 238.828 107.314 238.828 105.06" stroke="black" stroke-linecap="round"/>
<path d="M238.828 105.059V10.6735H231.201" stroke="black" stroke-linecap="round"/>
<path d="M120.607 105.059L120.607 10.6735H128.234" stroke="black" stroke-linecap="round"/>
<path d="M128.23 0.500137L231.195 0.500137V114.906L128.23 114.906V0.500137Z" stroke="black" stroke-linecap="round"/>
<path d="M248.339 1300.42H351.305" stroke="black" stroke-linecap="round"/>
<path d="M240.721 1306.15C240.721 1308.41 241.47 1310.6 242.85 1312.38C244.231 1314.16 246.165 1315.43 248.348 1316" stroke="black" stroke-linecap="round"/>
<path d="M351.31 1316C353.493 1315.43 355.427 1314.16 356.808 1312.38C358.188 1310.6 358.938 1308.41 358.937 1306.15" stroke="black" stroke-linecap="round"/>
<path d="M358.938 1306.15V1211.77H351.31" stroke="black" stroke-linecap="round"/>
<path d="M240.721 1306.15V1211.77H248.348" stroke="black" stroke-linecap="round"/>
<path d="M248.339 1201.59H351.305V1316H248.339V1201.59Z" stroke="black" stroke-linecap="round"/>
<path d="M248.339 1100.25H351.305" stroke="black" stroke-linecap="round"/>
<path d="M240.721 1105.98C240.721 1108.24 241.47 1110.43 242.85 1112.21C244.231 1113.99 246.165 1115.27 248.348 1115.83" stroke="black" stroke-linecap="round"/>
<path d="M351.31 1115.83C353.493 1115.27 355.427 1113.99 356.808 1112.21C358.188 1110.43 358.938 1108.24 358.937 1105.98" stroke="black" stroke-linecap="round"/>
<path d="M358.938 1105.98V1011.6H351.31" stroke="black" stroke-linecap="round"/>
<path d="M240.721 1105.98V1011.6H248.348" stroke="black" stroke-linecap="round"/>
<path d="M248.339 1001.42H351.305V1115.83H248.339V1001.42Z" stroke="black" stroke-linecap="round"/>
<path d="M248.339 900.057H351.305" stroke="black" stroke-linecap="round"/>
<path d="M240.721 905.787C240.721 908.042 241.47 910.233 242.85 912.015C244.231 913.797 246.165 915.07 248.348 915.634" stroke="black" stroke-linecap="round"/>
<path d="M351.31 915.634C353.493 915.07 355.427 913.797 356.808 912.015C358.188 910.233 358.938 908.042 358.937 905.787" stroke="black" stroke-linecap="round"/>
<path d="M358.938 905.788V811.403H351.31" stroke="black" stroke-linecap="round"/>
<path d="M240.721 905.788V811.403H248.348" stroke="black" stroke-linecap="round"/>
<path d="M248.339 801.228H351.305V915.634H248.339V801.228Z" stroke="black" stroke-linecap="round"/>
<path d="M248.339 699.889H351.305" stroke="black" stroke-linecap="round"/>
<path d="M240.721 705.62C240.721 707.875 241.47 710.066 242.85 711.848C244.231 713.63 246.165 714.903 248.348 715.467" stroke="black" stroke-linecap="round"/>
<path d="M351.31 715.467C353.493 714.903 355.427 713.63 356.808 711.848C358.188 710.066 358.938 707.875 358.937 705.62" stroke="black" stroke-linecap="round"/>
<path d="M358.938 705.619V611.234H351.31" stroke="black" stroke-linecap="round"/>
<path d="M240.721 705.619V611.234H248.348" stroke="black" stroke-linecap="round"/>
<path d="M248.339 601.061H351.305V715.467H248.339V601.061Z" stroke="black" stroke-linecap="round"/>
<path d="M248.339 499.694H351.305" stroke="black" stroke-linecap="round"/>
<path d="M240.721 505.425C240.721 507.68 241.47 509.87 242.85 511.653C244.231 513.435 246.165 514.708 248.348 515.271" stroke="black" stroke-linecap="round"/>
<path d="M351.31 515.271C353.493 514.708 355.427 513.435 356.808 511.653C358.188 509.87 358.938 507.68 358.937 505.425" stroke="black" stroke-linecap="round"/>
<path d="M358.938 505.424V411.039H351.31" stroke="black" stroke-linecap="round"/>
<path d="M240.721 505.424V411.039H248.348" stroke="black" stroke-linecap="round"/>
<path d="M248.339 400.865H351.305V515.271H248.339V400.865Z" stroke="black" stroke-linecap="round"/>
<path d="M248.339 299.498H351.305" stroke="black" stroke-linecap="round"/>
<path d="M240.721 305.23C240.721 307.484 241.47 309.675 242.85 311.457C244.231 313.24 246.165 314.513 248.348 315.076" stroke="black" stroke-linecap="round"/>
<path d="M351.31 315.076C353.493 314.513 355.427 313.24 356.808 311.457C358.188 309.675 358.938 307.484 358.937 305.23" stroke="black" stroke-linecap="round"/>
<path d="M358.938 305.229V210.843H351.31" stroke="black" stroke-linecap="round"/>
<path d="M240.721 305.229V210.843H248.348" stroke="black" stroke-linecap="round"/>
<path d="M248.339 200.67H351.305V315.076H248.339V200.67Z" stroke="black" stroke-linecap="round"/>
<path d="M248.339 99.3291L351.305 99.3291" stroke="black" stroke-linecap="round"/>
<path d="M240.721 105.06C240.721 107.314 241.47 109.505 242.85 111.287C244.231 113.07 246.165 114.343 248.348 114.906" stroke="black" stroke-linecap="round"/>
<path d="M351.31 114.906C353.493 114.343 355.427 113.07 356.808 111.287C358.188 109.505 358.938 107.314 358.937 105.06" stroke="black" stroke-linecap="round"/>
<path d="M358.938 105.059V10.6735H351.31" stroke="black" stroke-linecap="round"/>
<path d="M240.721 105.059V10.6735H248.348" stroke="black" stroke-linecap="round"/>
<path d="M248.339 0.500137L351.305 0.500137V114.906L248.339 114.906V0.500137Z" stroke="black" stroke-linecap="round"/>
<path d="M368.452 1300.42H471.418" stroke="black" stroke-linecap="round"/>
<path d="M360.83 1306.15C360.83 1308.41 361.579 1310.6 362.96 1312.38C364.34 1314.16 366.274 1315.43 368.457 1316" stroke="black" stroke-linecap="round"/>
<path d="M471.42 1316C473.603 1315.43 475.536 1314.16 476.917 1312.38C478.298 1310.6 479.047 1308.41 479.047 1306.15" stroke="black" stroke-linecap="round"/>
<path d="M479.047 1306.15V1211.77H471.42" stroke="black" stroke-linecap="round"/>
<path d="M360.83 1306.15V1211.77H368.457" stroke="black" stroke-linecap="round"/>
<path d="M368.452 1201.59H471.418V1316H368.452V1201.59Z" stroke="black" stroke-linecap="round"/>
<path d="M368.452 1100.25H471.418" stroke="black" stroke-linecap="round"/>
<path d="M360.83 1105.98C360.83 1108.24 361.579 1110.43 362.96 1112.21C364.34 1113.99 366.274 1115.27 368.457 1115.83" stroke="black" stroke-linecap="round"/>
<path d="M471.42 1115.83C473.603 1115.27 475.536 1113.99 476.917 1112.21C478.298 1110.43 479.047 1108.24 479.047 1105.98" stroke="black" stroke-linecap="round"/>
<path d="M479.047 1105.98V1011.6H471.42" stroke="black" stroke-linecap="round"/>
<path d="M360.83 1105.98V1011.6H368.457" stroke="black" stroke-linecap="round"/>
<path d="M368.452 1001.42H471.418V1115.83H368.452V1001.42Z" stroke="black" stroke-linecap="round"/>
<path d="M368.452 900.057H471.418" stroke="black" stroke-linecap="round"/>
<path d="M360.83 905.787C360.83 908.042 361.579 910.233 362.96 912.015C364.34 913.797 366.274 915.07 368.457 915.634" stroke="black" stroke-linecap="round"/>
<path d="M471.42 915.634C473.603 915.07 475.536 913.797 476.917 912.015C478.298 910.233 479.047 908.042 479.047 905.787" stroke="black" stroke-linecap="round"/>
<path d="M479.047 905.788V811.403H471.42" stroke="black" stroke-linecap="round"/>
<path d="M360.83 905.788V811.403H368.457" stroke="black" stroke-linecap="round"/>
<path d="M368.452 801.228H471.418V915.634H368.452V801.228Z" stroke="black" stroke-linecap="round"/>
<path d="M368.452 699.889H471.418" stroke="black" stroke-linecap="round"/>
<path d="M360.83 705.62C360.83 707.875 361.579 710.066 362.96 711.848C364.34 713.63 366.274 714.903 368.457 715.467" stroke="black" stroke-linecap="round"/>
<path d="M471.42 715.467C473.603 714.903 475.536 713.63 476.917 711.848C478.298 710.066 479.047 707.875 479.047 705.62" stroke="black" stroke-linecap="round"/>
<path d="M479.047 705.619V611.234H471.42" stroke="black" stroke-linecap="round"/>
<path d="M360.83 705.619V611.234H368.457" stroke="black" stroke-linecap="round"/>
<path d="M368.452 601.061H471.418V715.467H368.452V601.061Z" stroke="black" stroke-linecap="round"/>
<path d="M368.452 499.694H471.418" stroke="black" stroke-linecap="round"/>
<path d="M360.83 505.425C360.83 507.68 361.579 509.87 362.96 511.653C364.34 513.435 366.274 514.708 368.457 515.271" stroke="black" stroke-linecap="round"/>
<path d="M471.42 515.271C473.603 514.708 475.536 513.435 476.917 511.653C478.298 509.87 479.047 507.68 479.047 505.425" stroke="black" stroke-linecap="round"/>
<path d="M479.047 505.424V411.039H471.42" stroke="black" stroke-linecap="round"/>
<path d="M360.83 505.424V411.039H368.457" stroke="black" stroke-linecap="round"/>
<path d="M368.452 400.865H471.418V515.271H368.452V400.865Z" stroke="black" stroke-linecap="round"/>
<path d="M368.452 299.498H471.418" stroke="black" stroke-linecap="round"/>
<path d="M360.83 305.23C360.83 307.484 361.579 309.675 362.96 311.457C364.34 313.24 366.274 314.513 368.457 315.076" stroke="black" stroke-linecap="round"/>
<path d="M471.42 315.076C473.603 314.513 475.536 313.24 476.917 311.457C478.298 309.675 479.047 307.484 479.047 305.23" stroke="black" stroke-linecap="round"/>
<path d="M479.047 305.229V210.843H471.42" stroke="black" stroke-linecap="round"/>
<path d="M360.83 305.229V210.843H368.457" stroke="black" stroke-linecap="round"/>
<path d="M368.452 200.67H471.418V315.076H368.452V200.67Z" stroke="black" stroke-linecap="round"/>
<path d="M368.452 99.3291L471.418 99.3291" stroke="black" stroke-linecap="round"/>
<path d="M360.83 105.06C360.83 107.314 361.579 109.505 362.96 111.287C364.34 113.07 366.274 114.343 368.457 114.906" stroke="black" stroke-linecap="round"/>
<path d="M471.42 114.906C473.603 114.343 475.536 113.07 476.917 111.287C478.298 109.505 479.047 107.314 479.047 105.06" stroke="black" stroke-linecap="round"/>
<path d="M479.047 105.059V10.6735H471.42" stroke="black" stroke-linecap="round"/>
<path d="M360.83 105.059V10.6735H368.457" stroke="black" stroke-linecap="round"/>
<path d="M368.452 0.500137L471.418 0.500137V114.906L368.452 114.906V0.500137Z" stroke="black" stroke-linecap="round"/>
<path d="M488.562 1300.42H591.527" stroke="black" stroke-linecap="round"/>
<path d="M480.939 1306.15C480.939 1308.41 481.689 1310.6 483.069 1312.38C484.45 1314.16 486.383 1315.43 488.566 1316" stroke="black" stroke-linecap="round"/>
<path d="M591.529 1316C593.712 1315.43 595.646 1314.16 597.026 1312.38C598.407 1310.6 599.156 1308.41 599.156 1306.15" stroke="black" stroke-linecap="round"/>
<path d="M599.156 1306.15V1211.77H591.529" stroke="black" stroke-linecap="round"/>
<path d="M480.939 1306.15V1211.77H488.566" stroke="black" stroke-linecap="round"/>
<path d="M488.562 1201.59H591.527V1316H488.562V1201.59Z" stroke="black" stroke-linecap="round"/>
<path d="M488.562 1100.25H591.527" stroke="black" stroke-linecap="round"/>
<path d="M480.939 1105.98C480.939 1108.24 481.689 1110.43 483.069 1112.21C484.45 1113.99 486.383 1115.27 488.566 1115.83" stroke="black" stroke-linecap="round"/>
<path d="M591.529 1115.83C593.712 1115.27 595.646 1113.99 597.026 1112.21C598.407 1110.43 599.156 1108.24 599.156 1105.98" stroke="black" stroke-linecap="round"/>
<path d="M599.156 1105.98V1011.6H591.529" stroke="black" stroke-linecap="round"/>
<path d="M480.939 1105.98V1011.6H488.566" stroke="black" stroke-linecap="round"/>
<path d="M488.562 1001.42H591.527V1115.83H488.562V1001.42Z" stroke="black" stroke-linecap="round"/>
<path d="M488.562 900.057H591.527" stroke="black" stroke-linecap="round"/>
<path d="M480.939 905.787C480.939 908.042 481.689 910.233 483.069 912.015C484.45 913.797 486.383 915.07 488.566 915.634" stroke="black" stroke-linecap="round"/>
<path d="M591.529 915.634C593.712 915.07 595.646 913.797 597.026 912.015C598.407 910.233 599.156 908.042 599.156 905.787" stroke="black" stroke-linecap="round"/>
<path d="M599.156 905.788V811.403H591.529" stroke="black" stroke-linecap="round"/>
<path d="M480.939 905.788V811.403H488.566" stroke="black" stroke-linecap="round"/>
<path d="M488.562 801.228H591.527V915.634H488.562V801.228Z" stroke="black" stroke-linecap="round"/>
<path d="M488.562 699.889H591.527" stroke="black" stroke-linecap="round"/>
<path d="M480.939 705.62C480.939 707.875 481.689 710.066 483.069 711.848C484.45 713.63 486.383 714.903 488.566 715.467" stroke="black" stroke-linecap="round"/>
<path d="M591.529 715.467C593.712 714.903 595.646 713.63 597.026 711.848C598.407 710.066 599.156 707.875 599.156 705.62" stroke="black" stroke-linecap="round"/>
<path d="M599.156 705.619V611.234H591.529" stroke="black" stroke-linecap="round"/>
<path d="M480.939 705.619V611.234H488.566" stroke="black" stroke-linecap="round"/>
<path d="M488.562 601.061H591.527V715.467H488.562V601.061Z" stroke="black" stroke-linecap="round"/>
<path d="M488.562 499.694H591.527" stroke="black" stroke-linecap="round"/>
<path d="M480.939 505.425C480.939 507.68 481.689 509.87 483.069 511.653C484.45 513.435 486.383 514.708 488.566 515.271" stroke="black" stroke-linecap="round"/>
<path d="M591.529 515.271C593.712 514.708 595.646 513.435 597.026 511.653C598.407 509.87 599.156 507.68 599.156 505.425" stroke="black" stroke-linecap="round"/>
<path d="M599.156 505.424V411.039H591.529" stroke="black" stroke-linecap="round"/>
<path d="M480.939 505.424V411.039H488.566" stroke="black" stroke-linecap="round"/>
<path d="M488.562 400.865H591.527V515.271H488.562V400.865Z" stroke="black" stroke-linecap="round"/>
<path d="M488.562 299.498H591.527" stroke="black" stroke-linecap="round"/>
<path d="M480.939 305.23C480.939 307.484 481.689 309.675 483.069 311.457C484.45 313.24 486.383 314.513 488.566 315.076" stroke="black" stroke-linecap="round"/>
<path d="M591.529 315.076C593.712 314.513 595.646 313.24 597.026 311.457C598.407 309.675 599.156 307.484 599.156 305.23" stroke="black" stroke-linecap="round"/>
<path d="M599.156 305.229V210.843H591.529" stroke="black" stroke-linecap="round"/>
<path d="M480.939 305.229V210.843H488.566" stroke="black" stroke-linecap="round"/>
<path d="M488.562 200.67H591.527V315.076H488.562V200.67Z" stroke="black" stroke-linecap="round"/>
<path d="M488.562 99.3291L591.527 99.3291" stroke="black" stroke-linecap="round"/>
<path d="M480.939 105.06C480.939 107.314 481.689 109.505 483.069 111.287C484.45 113.07 486.383 114.343 488.566 114.906" stroke="black" stroke-linecap="round"/>
<path d="M591.529 114.906C593.712 114.343 595.646 113.07 597.026 111.287C598.407 109.505 599.156 107.314 599.156 105.06" stroke="black" stroke-linecap="round"/>
<path d="M599.156 105.059V10.6735H591.529" stroke="black" stroke-linecap="round"/>
<path d="M480.939 105.059V10.6735H488.566" stroke="black" stroke-linecap="round"/>
<path d="M488.562 0.500137L591.527 0.500137V114.906L488.562 114.906V0.500137Z" stroke="black" stroke-linecap="round"/>
<path d="M608.683 1300.42H711.648" stroke="black" stroke-linecap="round"/>
<path d="M601.06 1306.15C601.06 1308.41 601.81 1310.6 603.19 1312.38C604.571 1314.16 606.505 1315.43 608.688 1316" stroke="black" stroke-linecap="round"/>
<path d="M711.65 1316C713.833 1315.43 715.767 1314.16 717.148 1312.38C718.528 1310.6 719.277 1308.41 719.277 1306.15" stroke="black" stroke-linecap="round"/>
<path d="M719.277 1306.15V1211.77H711.65" stroke="black" stroke-linecap="round"/>
<path d="M601.06 1306.15V1211.77H608.688" stroke="black" stroke-linecap="round"/>
<path d="M608.683 1201.59H711.648V1316H608.683V1201.59Z" stroke="black" stroke-linecap="round"/>
<path d="M608.683 1100.25H711.648" stroke="black" stroke-linecap="round"/>
<path d="M601.06 1105.98C601.06 1108.24 601.81 1110.43 603.19 1112.21C604.571 1113.99 606.505 1115.27 608.688 1115.83" stroke="black" stroke-linecap="round"/>
<path d="M711.65 1115.83C713.833 1115.27 715.767 1113.99 717.148 1112.21C718.528 1110.43 719.277 1108.24 719.277 1105.98" stroke="black" stroke-linecap="round"/>
<path d="M719.277 1105.98V1011.6H711.65" stroke="black" stroke-linecap="round"/>
<path d="M601.06 1105.98V1011.6H608.688" stroke="black" stroke-linecap="round"/>
<path d="M608.683 1001.42H711.648V1115.83H608.683V1001.42Z" stroke="black" stroke-linecap="round"/>
<path d="M608.683 900.057H711.648" stroke="black" stroke-linecap="round"/>
<path d="M601.06 905.787C601.06 908.042 601.81 910.233 603.19 912.015C604.571 913.797 606.505 915.07 608.688 915.634" stroke="black" stroke-linecap="round"/>
<path d="M711.65 915.634C713.833 915.07 715.767 913.797 717.148 912.015C718.528 910.233 719.277 908.042 719.277 905.787" stroke="black" stroke-linecap="round"/>
<path d="M719.277 905.788V811.403H711.65" stroke="black" stroke-linecap="round"/>
<path d="M601.06 905.788V811.403H608.688" stroke="black" stroke-linecap="round"/>
<path d="M608.683 801.228H711.648V915.634H608.683V801.228Z" stroke="black" stroke-linecap="round"/>
<path d="M608.683 699.889H711.648" stroke="black" stroke-linecap="round"/>
<path d="M601.06 705.62C601.06 707.875 601.81 710.066 603.19 711.848C604.571 713.63 606.505 714.903 608.688 715.467" stroke="black" stroke-linecap="round"/>
<path d="M711.65 715.467C713.833 714.903 715.767 713.63 717.148 711.848C718.528 710.066 719.277 707.875 719.277 705.62" stroke="black" stroke-linecap="round"/>
<path d="M719.277 705.619V611.234H711.65" stroke="black" stroke-linecap="round"/>
<path d="M601.06 705.619V611.234H608.688" stroke="black" stroke-linecap="round"/>
<path d="M608.683 601.061H711.648V715.467H608.683V601.061Z" stroke="black" stroke-linecap="round"/>
<path d="M608.683 499.694H711.648" stroke="black" stroke-linecap="round"/>
<path d="M601.06 505.425C601.06 507.68 601.81 509.87 603.19 511.653C604.571 513.435 606.505 514.708 608.688 515.271" stroke="black" stroke-linecap="round"/>
<path d="M711.65 515.271C713.833 514.708 715.767 513.435 717.148 511.653C718.528 509.87 719.277 507.68 719.277 505.425" stroke="black" stroke-linecap="round"/>
<path d="M719.277 505.424V411.039H711.65" stroke="black" stroke-linecap="round"/>
<path d="M601.06 505.424V411.039H608.688" stroke="black" stroke-linecap="round"/>
<path d="M608.683 400.865H711.648V515.271H608.683V400.865Z" stroke="black" stroke-linecap="round"/>
<path d="M608.683 299.498H711.648" stroke="black" stroke-linecap="round"/>
<path d="M601.06 305.23C601.06 307.484 601.81 309.675 603.19 311.457C604.571 313.24 606.505 314.513 608.688 315.076" stroke="black" stroke-linecap="round"/>
<path d="M711.65 315.076C713.833 314.513 715.767 313.24 717.148 311.457C718.528 309.675 719.277 307.484 719.277 305.23" stroke="black" stroke-linecap="round"/>
<path d="M719.277 305.229V210.843H711.65" stroke="black" stroke-linecap="round"/>
<path d="M601.06 305.229V210.843H608.688" stroke="black" stroke-linecap="round"/>
<path d="M608.683 200.67H711.648V315.076H608.683V200.67Z" stroke="black" stroke-linecap="round"/>
<path d="M608.683 99.3291L711.648 99.3291" stroke="black" stroke-linecap="round"/>
<path d="M601.06 105.06C601.06 107.314 601.81 109.505 603.19 111.287C604.571 113.07 606.505 114.343 608.688 114.906" stroke="black" stroke-linecap="round"/>
<path d="M711.65 114.906C713.833 114.343 715.767 113.07 717.148 111.287C718.528 109.505 719.277 107.314 719.277 105.06" stroke="black" stroke-linecap="round"/>
<path d="M719.277 105.059V10.6735H711.65" stroke="black" stroke-linecap="round"/>
<path d="M601.06 105.059V10.6735H608.688" stroke="black" stroke-linecap="round"/>
<path d="M608.683 0.500137L711.648 0.500137V114.906L608.683 114.906V0.500137Z" stroke="black" stroke-linecap="round"/>
<path d="M728.792 1300.42H831.758" stroke="black" stroke-linecap="round"/>
<path d="M721.17 1306.15C721.17 1308.41 721.919 1310.6 723.3 1312.38C724.68 1314.16 726.614 1315.43 728.797 1316" stroke="black" stroke-linecap="round"/>
<path d="M831.76 1316C833.943 1315.43 835.876 1314.16 837.257 1312.38C838.638 1310.6 839.387 1308.41 839.387 1306.15" stroke="black" stroke-linecap="round"/>
<path d="M839.387 1306.15V1211.77H831.76" stroke="black" stroke-linecap="round"/>
<path d="M721.17 1306.15V1211.77H728.797" stroke="black" stroke-linecap="round"/>
<path d="M728.792 1201.59H831.758V1316H728.792V1201.59Z" stroke="black" stroke-linecap="round"/>
<path d="M728.792 1100.25H831.758" stroke="black" stroke-linecap="round"/>
<path d="M721.17 1105.98C721.17 1108.24 721.919 1110.43 723.3 1112.21C724.68 1113.99 726.614 1115.27 728.797 1115.83" stroke="black" stroke-linecap="round"/>
<path d="M831.76 1115.83C833.943 1115.27 835.876 1113.99 837.257 1112.21C838.638 1110.43 839.387 1108.24 839.387 1105.98" stroke="black" stroke-linecap="round"/>
<path d="M839.387 1105.98V1011.6H831.76" stroke="black" stroke-linecap="round"/>
<path d="M721.17 1105.98V1011.6H728.797" stroke="black" stroke-linecap="round"/>
<path d="M728.792 1001.42H831.758V1115.83H728.792V1001.42Z" stroke="black" stroke-linecap="round"/>
<path d="M728.792 900.057H831.758" stroke="black" stroke-linecap="round"/>
<path d="M721.17 905.787C721.17 908.042 721.919 910.233 723.3 912.015C724.68 913.797 726.614 915.07 728.797 915.634" stroke="black" stroke-linecap="round"/>
<path d="M831.76 915.634C833.943 915.07 835.876 913.797 837.257 912.015C838.638 910.233 839.387 908.042 839.387 905.787" stroke="black" stroke-linecap="round"/>
<path d="M839.387 905.788V811.403H831.76" stroke="black" stroke-linecap="round"/>
<path d="M721.17 905.788V811.403H728.797" stroke="black" stroke-linecap="round"/>
<path d="M728.792 801.228H831.758V915.634H728.792V801.228Z" stroke="black" stroke-linecap="round"/>
<path d="M728.792 699.889H831.758" stroke="black" stroke-linecap="round"/>
<path d="M721.17 705.62C721.17 707.875 721.919 710.066 723.3 711.848C724.68 713.63 726.614 714.903 728.797 715.467" stroke="black" stroke-linecap="round"/>
<path d="M831.76 715.467C833.943 714.903 835.876 713.63 837.257 711.848C838.638 710.066 839.387 707.875 839.387 705.62" stroke="black" stroke-linecap="round"/>
<path d="M839.387 705.619V611.234H831.76" stroke="black" stroke-linecap="round"/>
<path d="M721.17 705.619V611.234H728.797" stroke="black" stroke-linecap="round"/>
<path d="M728.792 601.061H831.758V715.467H728.792V601.061Z" stroke="black" stroke-linecap="round"/>
<path d="M728.792 499.694H831.758" stroke="black" stroke-linecap="round"/>
<path d="M721.17 505.425C721.17 507.68 721.919 509.87 723.3 511.653C724.68 513.435 726.614 514.708 728.797 515.271" stroke="black" stroke-linecap="round"/>
<path d="M831.76 515.271C833.943 514.708 835.876 513.435 837.257 511.653C838.638 509.87 839.387 507.68 839.387 505.425" stroke="black" stroke-linecap="round"/>
<path d="M839.387 505.424V411.039H831.76" stroke="black" stroke-linecap="round"/>
<path d="M721.17 505.424V411.039H728.797" stroke="black" stroke-linecap="round"/>
<path d="M728.792 400.865H831.758V515.271H728.792V400.865Z" stroke="black" stroke-linecap="round"/>
<path d="M728.792 299.498H831.758" stroke="black" stroke-linecap="round"/>
<path d="M721.17 305.23C721.17 307.484 721.919 309.675 723.3 311.457C724.68 313.24 726.614 314.513 728.797 315.076" stroke="black" stroke-linecap="round"/>
<path d="M831.76 315.076C833.943 314.513 835.876 313.24 837.257 311.457C838.638 309.675 839.387 307.484 839.387 305.23" stroke="black" stroke-linecap="round"/>
<path d="M839.387 305.229V210.843H831.76" stroke="black" stroke-linecap="round"/>
<path d="M721.17 305.229V210.843H728.797" stroke="black" stroke-linecap="round"/>
<path d="M728.792 200.67H831.758V315.076H728.792V200.67Z" stroke="black" stroke-linecap="round"/>
<path d="M728.792 99.3291L831.758 99.3291" stroke="black" stroke-linecap="round"/>
<path d="M721.17 105.06C721.17 107.314 721.919 109.505 723.3 111.287C724.68 113.07 726.614 114.343 728.797 114.906" stroke="black" stroke-linecap="round"/>
<path d="M831.76 114.906C833.943 114.343 835.876 113.07 837.257 111.287C838.638 109.505 839.387 107.314 839.387 105.06" stroke="black" stroke-linecap="round"/>
<path d="M839.387 105.059V10.6735H831.76" stroke="black" stroke-linecap="round"/>
<path d="M721.17 105.059V10.6735H728.797" stroke="black" stroke-linecap="round"/>
<path d="M728.792 0.500137L831.758 0.500137V114.906L728.792 114.906V0.500137Z" stroke="black" stroke-linecap="round"/>
<path d="M848.901 1300.42H951.867" stroke="black" stroke-linecap="round"/>
<path d="M841.279 1306.15C841.279 1308.41 842.028 1310.6 843.409 1312.38C844.79 1314.16 846.723 1315.43 848.906 1316" stroke="black" stroke-linecap="round"/>
<path d="M951.869 1316C954.052 1315.43 955.986 1314.16 957.366 1312.38C958.747 1310.6 959.496 1308.41 959.496 1306.15" stroke="black" stroke-linecap="round"/>
<path d="M959.496 1306.15V1211.77H951.869" stroke="black" stroke-linecap="round"/>
<path d="M841.279 1306.15V1211.77H848.906" stroke="black" stroke-linecap="round"/>
<path d="M848.902 1201.59H951.867V1316H848.902V1201.59Z" stroke="black" stroke-linecap="round"/>
<path d="M848.901 1100.25H951.867" stroke="black" stroke-linecap="round"/>
<path d="M841.279 1105.98C841.279 1108.24 842.028 1110.43 843.409 1112.21C844.79 1113.99 846.723 1115.27 848.906 1115.83" stroke="black" stroke-linecap="round"/>
<path d="M951.869 1115.83C954.052 1115.27 955.986 1113.99 957.366 1112.21C958.747 1110.43 959.496 1108.24 959.496 1105.98" stroke="black" stroke-linecap="round"/>
<path d="M959.496 1105.98V1011.6H951.869" stroke="black" stroke-linecap="round"/>
<path d="M841.279 1105.98V1011.6H848.906" stroke="black" stroke-linecap="round"/>
<path d="M848.902 1001.42H951.867V1115.83H848.902V1001.42Z" stroke="black" stroke-linecap="round"/>
<path d="M848.901 900.057H951.867" stroke="black" stroke-linecap="round"/>
<path d="M841.279 905.787C841.279 908.042 842.028 910.233 843.409 912.015C844.79 913.797 846.723 915.07 848.906 915.634" stroke="black" stroke-linecap="round"/>
<path d="M951.869 915.634C954.052 915.07 955.986 913.797 957.366 912.015C958.747 910.233 959.496 908.042 959.496 905.787" stroke="black" stroke-linecap="round"/>
<path d="M959.496 905.788V811.403H951.869" stroke="black" stroke-linecap="round"/>
<path d="M841.279 905.788V811.403H848.906" stroke="black" stroke-linecap="round"/>
<path d="M848.902 801.228H951.867V915.634H848.902V801.228Z" stroke="black" stroke-linecap="round"/>
<path d="M848.901 699.889H951.867" stroke="black" stroke-linecap="round"/>
<path d="M841.279 705.62C841.279 707.875 842.028 710.066 843.409 711.848C844.79 713.63 846.723 714.903 848.906 715.467" stroke="black" stroke-linecap="round"/>
<path d="M951.869 715.467C954.052 714.903 955.986 713.63 957.366 711.848C958.747 710.066 959.496 707.875 959.496 705.62" stroke="black" stroke-linecap="round"/>
<path d="M959.496 705.619V611.234H951.869" stroke="black" stroke-linecap="round"/>
<path d="M841.279 705.619V611.234H848.906" stroke="black" stroke-linecap="round"/>
<path d="M848.902 601.061H951.867V715.467H848.902V601.061Z" stroke="black" stroke-linecap="round"/>
<path d="M848.901 499.694H951.867" stroke="black" stroke-linecap="round"/>
<path d="M841.279 505.425C841.279 507.68 842.028 509.87 843.409 511.653C844.79 513.435 846.723 514.708 848.906 515.271" stroke="black" stroke-linecap="round"/>
<path d="M951.869 515.271C954.052 514.708 955.986 513.435 957.366 511.653C958.747 509.87 959.496 507.68 959.496 505.425" stroke="black" stroke-linecap="round"/>
<path d="M959.496 505.424V411.039H951.869" stroke="black" stroke-linecap="round"/>
<path d="M841.279 505.424V411.039H848.906" stroke="black" stroke-linecap="round"/>
<path d="M848.902 400.865H951.867V515.271H848.902V400.865Z" stroke="black" stroke-linecap="round"/>
<path d="M848.901 299.498H951.867" stroke="black" stroke-linecap="round"/>
<path d="M841.279 305.23C841.279 307.484 842.028 309.675 843.409 311.457C844.79 313.24 846.723 314.513 848.906 315.076" stroke="black" stroke-linecap="round"/>
<path d="M951.869 315.076C954.052 314.513 955.986 313.24 957.366 311.457C958.747 309.675 959.496 307.484 959.496 305.23" stroke="black" stroke-linecap="round"/>
<path d="M959.496 305.229V210.843H951.869" stroke="black" stroke-linecap="round"/>
<path d="M841.279 305.229V210.843H848.906" stroke="black" stroke-linecap="round"/>
<path d="M848.902 200.67H951.867V315.076H848.902V200.67Z" stroke="black" stroke-linecap="round"/>
<path d="M848.901 99.3291L951.867 99.3291" stroke="black" stroke-linecap="round"/>
<path d="M841.279 105.06C841.279 107.314 842.028 109.505 843.409 111.287C844.79 113.07 846.723 114.343 848.906 114.906" stroke="black" stroke-linecap="round"/>
<path d="M951.869 114.906C954.052 114.343 955.986 113.07 957.366 111.287C958.747 109.505 959.496 107.314 959.496 105.06" stroke="black" stroke-linecap="round"/>
<path d="M959.496 105.059V10.6735H951.869" stroke="black" stroke-linecap="round"/>
<path d="M841.279 105.059V10.6735H848.906" stroke="black" stroke-linecap="round"/>
<path d="M848.902 0.500137L951.867 0.500137V114.906L848.902 114.906V0.500137Z" stroke="black" stroke-linecap="round"/>
</svg>
