<svg width="971" height="1233" viewBox="0 0 971 1233" fill="none" xmlns="http://www.w3.org/2000/svg">
<path d="M15.7617 1116.02L15.7617 1216.87" stroke="black" stroke-linecap="round"/>
<path d="M10.1439 1108.55C7.93574 1108.55 5.79013 1109.29 4.04444 1110.64C2.29875 1111.99 1.05203 1113.88 0.5 1116.02" stroke="black" stroke-linecap="round"/>
<path d="M0.5 1216.87C1.05204 1219.01 2.29875 1220.9 4.04444 1222.25C5.79013 1223.61 7.93574 1224.34 10.1439 1224.34" stroke="black" stroke-linecap="round"/>
<path d="M10.1484 1224.34H102.592V1216.87" stroke="black" stroke-linecap="round"/>
<path d="M10.1484 1108.55H102.592V1116.02" stroke="black" stroke-linecap="round"/>
<path d="M112.553 1116.02L112.553 1216.87H0.5L0.5 1116.02H112.553Z" stroke="black" stroke-linecap="round"/>
<path d="M15.7617 978.765L15.7617 1079.61" stroke="black" stroke-linecap="round"/>
<path d="M10.1439 971.295C7.93574 971.295 5.79013 972.029 4.04444 973.381C2.29875 974.733 1.05203 976.627 0.5 978.765" stroke="black" stroke-linecap="round"/>
<path d="M0.5 1079.61C1.05204 1081.75 2.29875 1083.64 4.04444 1085C5.79013 1086.35 7.93574 1087.08 10.1439 1087.08" stroke="black" stroke-linecap="round"/>
<path d="M10.1484 1087.08H102.592V1079.61" stroke="black" stroke-linecap="round"/>
<path d="M10.1484 971.295H102.592V978.765" stroke="black" stroke-linecap="round"/>
<path d="M112.553 978.765L112.553 1079.61H0.5L0.5 978.765H112.553Z" stroke="black" stroke-linecap="round"/>
<path d="M15.7617 704.279L15.7617 805.126" stroke="black" stroke-linecap="round"/>
<path d="M10.1439 696.809C7.93574 696.809 5.79013 697.543 4.04444 698.895C2.29875 700.247 1.05203 702.141 0.5 704.279" stroke="black" stroke-linecap="round"/>
<path d="M0.5 805.127C1.05204 807.265 2.29875 809.159 4.04444 810.511C5.79013 811.863 7.93574 812.597 10.1439 812.597" stroke="black" stroke-linecap="round"/>
<path d="M10.1484 812.597H102.592V805.127" stroke="black" stroke-linecap="round"/>
<path d="M10.1484 696.809H102.592V704.279" stroke="black" stroke-linecap="round"/>
<path d="M112.553 704.279L112.553 805.126H0.5L0.5 704.279H112.553Z" stroke="black" stroke-linecap="round"/>
<path d="M15.7617 841.524L15.7617 942.371" stroke="black" stroke-linecap="round"/>
<path d="M10.1439 834.054C7.93574 834.054 5.79013 834.788 4.04444 836.14C2.29875 837.492 1.05203 839.386 0.5 841.524" stroke="black" stroke-linecap="round"/>
<path d="M0.5 942.372C1.05204 944.51 2.29875 946.404 4.04444 947.756C5.79013 949.108 7.93574 949.842 10.1439 949.842" stroke="black" stroke-linecap="round"/>
<path d="M10.1484 949.842H102.592V942.372" stroke="black" stroke-linecap="round"/>
<path d="M10.1484 834.054H102.592V841.524" stroke="black" stroke-linecap="round"/>
<path d="M112.553 841.524L112.553 942.371H0.5L0.5 841.524H112.553Z" stroke="black" stroke-linecap="round"/>
<path d="M132.145 1232.14V683.148H288.999V1232.14H132.145Z" stroke="black" stroke-linecap="round"/>
<path d="M15.7617 567.03L15.7617 667.878" stroke="black" stroke-linecap="round"/>
<path d="M10.1439 559.561C7.93574 559.561 5.79013 560.294 4.04444 561.647C2.29875 562.999 1.05203 564.893 0.5 567.031" stroke="black" stroke-linecap="round"/>
<path d="M0.5 667.878C1.05204 670.016 2.29875 671.91 4.04444 673.263C5.79013 674.615 7.93574 675.349 10.1439 675.349" stroke="black" stroke-linecap="round"/>
<path d="M10.1484 675.349H102.592V667.878" stroke="black" stroke-linecap="round"/>
<path d="M10.1484 559.561H102.592V567.031" stroke="black" stroke-linecap="round"/>
<path d="M112.553 567.031L112.553 667.878H0.5L0.5 567.031H112.553Z" stroke="black" stroke-linecap="round"/>
<path d="M15.7617 429.784L15.7617 530.632" stroke="black" stroke-linecap="round"/>
<path d="M10.1439 422.314C7.93574 422.314 5.79013 423.048 4.04444 424.4C2.29875 425.753 1.05203 427.647 0.5 429.785" stroke="black" stroke-linecap="round"/>
<path d="M0.5 530.632C1.05204 532.77 2.29875 534.664 4.04444 536.017C5.79013 537.369 7.93574 538.103 10.1439 538.103" stroke="black" stroke-linecap="round"/>
<path d="M10.1484 538.103H102.592V530.632" stroke="black" stroke-linecap="round"/>
<path d="M10.1484 422.314H102.592V429.785" stroke="black" stroke-linecap="round"/>
<path d="M112.553 429.784L112.553 530.632H0.5L0.5 429.784H112.553Z" stroke="black" stroke-linecap="round"/>
<path d="M15.7617 155.289L15.7617 256.136" stroke="black" stroke-linecap="round"/>
<path d="M10.1439 147.819C7.93574 147.819 5.79013 148.553 4.04444 149.905C2.29875 151.257 1.05203 153.151 0.5 155.289" stroke="black" stroke-linecap="round"/>
<path d="M0.5 256.137C1.05204 258.275 2.29875 260.169 4.04444 261.521C5.79013 262.873 7.93574 263.607 10.1439 263.607" stroke="black" stroke-linecap="round"/>
<path d="M10.1484 263.607H102.592V256.137" stroke="black" stroke-linecap="round"/>
<path d="M10.1484 147.819L102.592 147.819V155.289" stroke="black" stroke-linecap="round"/>
<path d="M112.553 155.289L112.553 256.136H0.5L0.5 155.289H112.553Z" stroke="black" stroke-linecap="round"/>
<path d="M15.7617 292.536L15.7617 393.383" stroke="black" stroke-linecap="round"/>
<path d="M10.1439 285.066C7.93574 285.066 5.79013 285.8 4.04444 287.152C2.29875 288.504 1.05203 290.398 0.5 292.536" stroke="black" stroke-linecap="round"/>
<path d="M0.5 393.384C1.05204 395.522 2.29875 397.416 4.04444 398.768C5.79013 400.12 7.93574 400.854 10.1439 400.854" stroke="black" stroke-linecap="round"/>
<path d="M10.1484 400.854H102.592V393.384" stroke="black" stroke-linecap="round"/>
<path d="M10.1484 285.066H102.592V292.536" stroke="black" stroke-linecap="round"/>
<path d="M112.553 292.536L112.553 393.383H0.5L0.5 292.536H112.553Z" stroke="black" stroke-linecap="round"/>
<path d="M132.145 683.149V134.16H288.999V683.149H132.145Z" stroke="black" stroke-linecap="round"/>
<path d="M406.129 15.7622H305.281" stroke="black" stroke-linecap="round"/>
<path d="M413.591 10.1439C413.591 7.93574 412.857 5.79013 411.505 4.04444C410.153 2.29875 408.259 1.05203 406.121 0.5" stroke="black" stroke-linecap="round"/>
<path d="M305.279 0.5C303.141 1.05204 301.247 2.29875 299.895 4.04444C298.542 5.79013 297.809 7.93574 297.809 10.1439" stroke="black" stroke-linecap="round"/>
<path d="M297.809 10.1436V102.587H305.279" stroke="black" stroke-linecap="round"/>
<path d="M413.591 10.1436V102.587H406.121" stroke="black" stroke-linecap="round"/>
<path d="M406.129 112.553H305.281V0.5H406.129V112.553Z" stroke="black" stroke-linecap="round"/>
<path d="M261.82 15.7622H160.973" stroke="black" stroke-linecap="round"/>
<path d="M269.283 10.1439C269.283 7.93574 268.549 5.79013 267.197 4.04444C265.844 2.29875 263.951 1.05203 261.812 0.5" stroke="black" stroke-linecap="round"/>
<path d="M160.97 0.5C158.832 1.05204 156.938 2.29875 155.586 4.04444C154.234 5.79013 153.5 7.93574 153.5 10.1439" stroke="black" stroke-linecap="round"/>
<path d="M153.5 10.1436V102.587H160.97" stroke="black" stroke-linecap="round"/>
<path d="M269.283 10.1436V102.587H261.812" stroke="black" stroke-linecap="round"/>
<path d="M261.82 112.553H160.973V0.5H261.82V112.553Z" stroke="black" stroke-linecap="round"/>
<path d="M543.367 15.7622H442.52" stroke="black" stroke-linecap="round"/>
<path d="M550.83 10.1439C550.83 7.93574 550.096 5.79013 548.744 4.04444C547.391 2.29875 545.497 1.05203 543.359 0.5" stroke="black" stroke-linecap="round"/>
<path d="M442.513 0.5C440.375 1.05204 438.481 2.29875 437.129 4.04444C435.777 5.79013 435.043 7.93574 435.043 10.1439" stroke="black" stroke-linecap="round"/>
<path d="M435.043 10.1436V102.587H442.513" stroke="black" stroke-linecap="round"/>
<path d="M550.83 10.1436V102.587H543.359" stroke="black" stroke-linecap="round"/>
<path d="M543.367 112.553H442.52V0.5H543.367V112.553Z" stroke="black" stroke-linecap="round"/>
<path d="M817.859 15.7622H717.012" stroke="black" stroke-linecap="round"/>
<path d="M825.326 10.1439C825.326 7.93574 824.592 5.79013 823.24 4.04444C821.887 2.29875 819.993 1.05203 817.855 0.5" stroke="black" stroke-linecap="round"/>
<path d="M717.009 0.5C714.871 1.05204 712.977 2.29875 711.625 4.04444C710.273 5.79013 709.539 7.93574 709.539 10.1439" stroke="black" stroke-linecap="round"/>
<path d="M709.539 10.1436V102.587H717.009" stroke="black" stroke-linecap="round"/>
<path d="M825.326 10.1436V102.587H817.855" stroke="black" stroke-linecap="round"/>
<path d="M817.859 112.553H717.012V0.5H817.859V112.553Z" stroke="black" stroke-linecap="round"/>
<path d="M680.621 15.7622H579.773" stroke="black" stroke-linecap="round"/>
<path d="M688.087 10.1439C688.087 7.93574 687.354 5.79013 686.001 4.04444C684.649 2.29875 682.755 1.05203 680.617 0.5" stroke="black" stroke-linecap="round"/>
<path d="M579.771 0.5C577.633 1.05204 575.739 2.29875 574.387 4.04444C573.035 5.79013 572.301 7.93574 572.301 10.1439" stroke="black" stroke-linecap="round"/>
<path d="M572.301 10.1436V102.587H579.771" stroke="black" stroke-linecap="round"/>
<path d="M688.087 10.1436V102.587H680.617" stroke="black" stroke-linecap="round"/>
<path d="M680.621 112.553H579.773V0.5H680.621V112.553Z" stroke="black" stroke-linecap="round"/>
<path d="M289.011 134.16L838 134.16V291.014H289.011V134.16Z" stroke="black" stroke-linecap="round"/>
<path d="M954.289 1216.55V1115.71" stroke="black" stroke-linecap="round"/>
<path d="M959.907 1224.02C962.115 1224.02 964.261 1223.29 966.006 1221.94C967.752 1220.59 968.999 1218.69 969.551 1216.55" stroke="black" stroke-linecap="round"/>
<path d="M969.551 1115.71C968.999 1113.57 967.752 1111.67 966.006 1110.32C964.261 1108.97 962.115 1108.24 959.907 1108.24" stroke="black" stroke-linecap="round"/>
<path d="M959.902 1108.24H867.459V1115.71" stroke="black" stroke-linecap="round"/>
<path d="M959.902 1224.02H867.459V1216.55" stroke="black" stroke-linecap="round"/>
<path d="M857.498 1216.55V1115.71H969.551V1216.55H857.498Z" stroke="black" stroke-linecap="round"/>
<path d="M954.289 1079.29V978.447" stroke="black" stroke-linecap="round"/>
<path d="M959.907 1086.76C962.115 1086.76 964.261 1086.03 966.006 1084.68C967.752 1083.33 968.999 1081.43 969.551 1079.29" stroke="black" stroke-linecap="round"/>
<path d="M969.551 978.447C968.999 976.309 967.752 974.415 966.006 973.063C964.261 971.711 962.115 970.977 959.907 970.977" stroke="black" stroke-linecap="round"/>
<path d="M959.902 970.977H867.459V978.447" stroke="black" stroke-linecap="round"/>
<path d="M959.902 1086.76H867.459V1079.29" stroke="black" stroke-linecap="round"/>
<path d="M857.498 1079.29V978.447H969.551V1079.29H857.498Z" stroke="black" stroke-linecap="round"/>
<path d="M954.289 804.808V703.961" stroke="black" stroke-linecap="round"/>
<path d="M959.907 812.278C962.115 812.278 964.261 811.545 966.006 810.192C967.752 808.84 968.999 806.946 969.551 804.808" stroke="black" stroke-linecap="round"/>
<path d="M969.551 703.96C968.999 701.822 967.752 699.928 966.006 698.576C964.261 697.224 962.115 696.49 959.907 696.49" stroke="black" stroke-linecap="round"/>
<path d="M959.902 696.49H867.459V703.96" stroke="black" stroke-linecap="round"/>
<path d="M959.902 812.278H867.459V804.808" stroke="black" stroke-linecap="round"/>
<path d="M857.498 804.808V703.961H969.551V804.808H857.498Z" stroke="black" stroke-linecap="round"/>
<path d="M954.289 942.055V841.207" stroke="black" stroke-linecap="round"/>
<path d="M959.907 949.524C962.115 949.524 964.261 948.791 966.006 947.438C967.752 946.086 968.999 944.192 969.551 942.054" stroke="black" stroke-linecap="round"/>
<path d="M969.551 841.207C968.999 839.068 967.752 837.175 966.006 835.822C964.261 834.47 962.115 833.736 959.907 833.736" stroke="black" stroke-linecap="round"/>
<path d="M959.902 833.736H867.459V841.207" stroke="black" stroke-linecap="round"/>
<path d="M959.902 949.524H867.459V942.054" stroke="black" stroke-linecap="round"/>
<path d="M857.498 942.054V841.207H969.551V942.054H857.498Z" stroke="black" stroke-linecap="round"/>
<path d="M681.133 1232.14V683.148H837.987V1232.14H681.133Z" stroke="black" stroke-linecap="round"/>
<path d="M954.289 667.56V566.712" stroke="black" stroke-linecap="round"/>
<path d="M959.907 675.03C962.115 675.03 964.261 674.296 966.006 672.944C967.752 671.592 968.999 669.698 969.551 667.56" stroke="black" stroke-linecap="round"/>
<path d="M969.551 566.712C968.999 564.574 967.752 562.68 966.006 561.328C964.261 559.975 962.115 559.242 959.907 559.242" stroke="black" stroke-linecap="round"/>
<path d="M959.902 559.242H867.459V566.712" stroke="black" stroke-linecap="round"/>
<path d="M959.902 675.03H867.459V667.56" stroke="black" stroke-linecap="round"/>
<path d="M857.498 667.56V566.712H969.551V667.56H857.498Z" stroke="black" stroke-linecap="round"/>
<path d="M954.289 530.315V429.468" stroke="black" stroke-linecap="round"/>
<path d="M959.907 537.785C962.115 537.785 964.261 537.051 966.006 535.699C967.752 534.347 968.999 532.453 969.551 530.315" stroke="black" stroke-linecap="round"/>
<path d="M969.551 429.467C968.999 427.329 967.752 425.435 966.006 424.083C964.261 422.731 962.115 421.997 959.907 421.997" stroke="black" stroke-linecap="round"/>
<path d="M959.902 421.997H867.459V429.467" stroke="black" stroke-linecap="round"/>
<path d="M959.902 537.785H867.459V530.315" stroke="black" stroke-linecap="round"/>
<path d="M857.498 530.315V429.468H969.551V530.315H857.498Z" stroke="black" stroke-linecap="round"/>
<path d="M954.289 255.818V154.971" stroke="black" stroke-linecap="round"/>
<path d="M959.907 263.288C962.115 263.288 964.261 262.554 966.006 261.202C967.752 259.85 968.999 257.956 969.551 255.818" stroke="black" stroke-linecap="round"/>
<path d="M969.551 154.97C968.999 152.832 967.752 150.938 966.006 149.586C964.261 148.234 962.115 147.5 959.907 147.5" stroke="black" stroke-linecap="round"/>
<path d="M959.902 147.5H867.459V154.97" stroke="black" stroke-linecap="round"/>
<path d="M959.902 263.288H867.459V255.818" stroke="black" stroke-linecap="round"/>
<path d="M857.498 255.818V154.971H969.551V255.818H857.498Z" stroke="black" stroke-linecap="round"/>
<path d="M954.289 393.067V292.219" stroke="black" stroke-linecap="round"/>
<path d="M959.907 400.537C962.115 400.537 964.261 399.803 966.006 398.451C967.752 397.098 968.999 395.204 969.551 393.066" stroke="black" stroke-linecap="round"/>
<path d="M969.551 292.219C968.999 290.081 967.752 288.187 966.006 286.835C964.261 285.482 962.115 284.749 959.907 284.749" stroke="black" stroke-linecap="round"/>
<path d="M959.902 284.749H867.459V292.219" stroke="black" stroke-linecap="round"/>
<path d="M959.902 400.537H867.459V393.066" stroke="black" stroke-linecap="round"/>
<path d="M857.498 393.067V292.219H969.551V393.067H857.498Z" stroke="black" stroke-linecap="round"/>
<path d="M681.133 683.149V134.16H837.987V683.149H681.133Z" stroke="black" stroke-linecap="round"/>
</svg>
