<svg width="182" height="168" viewBox="0 0 182 168" fill="none" xmlns="http://www.w3.org/2000/svg">
<path d="M98 0V168" stroke="black" stroke-width="10.796"/>
<path d="M0 69.457H181.223" stroke="black" stroke-width="10.796"/>
<path d="M153.811 69.4684C153.811 54.6631 147.929 40.4643 137.46 29.9954C126.992 19.5265 112.793 13.6445 97.9874 13.6445C83.1821 13.6445 68.9832 19.5265 58.5143 29.9954C48.0454 40.4643 42.1641 54.6631 42.1641 69.4684C42.1641 84.2736 48.0454 98.4724 58.5143 108.941C68.9832 119.41 83.1821 125.291 97.9874 125.291C112.793 125.291 126.992 119.41 137.46 108.941C147.929 98.4724 153.811 84.2736 153.811 69.4684ZM139.932 69.4684C139.932 58.344 135.513 47.6744 127.647 39.8083C119.781 31.9422 109.112 27.5231 97.9874 27.5231C86.863 27.5231 76.1942 31.9422 68.3281 39.8083C60.4619 47.6744 56.0428 58.344 56.0428 69.4684C56.0428 80.5928 60.4619 91.261 68.3281 99.1271C76.1942 106.993 86.863 111.412 97.9874 111.412C109.112 111.412 119.781 106.993 127.647 99.1271C135.513 91.261 139.932 80.5928 139.932 69.4684Z" fill="black" stroke="black" stroke-width="10.796"/>
<path d="M153.811 69.4684C153.811 54.6631 147.929 40.4643 137.46 29.9954C126.992 19.5265 112.793 13.6445 97.9874 13.6445C83.1821 13.6445 68.9832 19.5265 58.5143 29.9954C48.0454 40.4643 42.1641 54.6631 42.1641 69.4684C42.1641 84.2736 48.0454 98.4724 58.5143 108.941C68.9832 119.41 83.1821 125.291 97.9874 125.291C112.793 125.291 126.992 119.41 137.46 108.941C147.929 98.4724 153.811 84.2736 153.811 69.4684Z" stroke="black" stroke-width="10.796"/>
<path d="M139.889 69.4629C139.889 58.3385 135.47 47.6689 127.604 39.8028C119.738 31.9367 109.069 27.5176 97.9446 27.5176C86.8202 27.5176 76.1514 31.9367 68.2853 39.8028C60.4191 47.6689 56 58.3385 56 69.4629C56 80.5873 60.4191 91.2555 68.2853 99.1217C76.1514 106.988 86.8202 111.407 97.9446 111.407C109.069 111.407 119.738 106.988 127.604 99.1217C135.47 91.2555 139.889 80.5873 139.889 69.4629Z" stroke="black" stroke-width="10.796"/>
</svg>
