<?xml version="1.0" encoding="UTF-8"?>
<svg xmlns="http://www.w3.org/2000/svg" width="800.000" height="600.000" viewBox="0.0 0.0 800.000 600.000" version="1.1">
  <desc>Produce by Acme CAD Converter</desc>
<path d="M235.27 284.7L235.07 290.37"
fill="none" stroke="black" stroke-width="0.5"/>
<path d="M235.07 290.37L234.47 296.02"
fill="none" stroke="black" stroke-width="0.5"/>
<path d="M234.47 296.02L233.49 301.61"
fill="none" stroke="black" stroke-width="0.5"/>
<path d="M233.49 301.61L232.12 307.12"
fill="none" stroke="black" stroke-width="0.5"/>
<path d="M232.12 307.12L230.36 312.51"
fill="none" stroke="black" stroke-width="0.5"/>
<path d="M230.36 312.51L228.24 317.77"
fill="none" stroke="black" stroke-width="0.5"/>
<path d="M228.24 317.77L225.75 322.88"
fill="none" stroke="black" stroke-width="0.5"/>
<path d="M225.75 322.88L222.91 327.79"
fill="none" stroke="black" stroke-width="0.5"/>
<path d="M222.91 327.79L219.74 332.5"
fill="none" stroke="black" stroke-width="0.5"/>
<path d="M219.74 332.5L216.24 336.97"
fill="none" stroke="black" stroke-width="0.5"/>
<path d="M216.24 336.97L212.45 341.19"
fill="none" stroke="black" stroke-width="0.5"/>
<path d="M212.45 341.19L208.36 345.13"
fill="none" stroke="black" stroke-width="0.5"/>
<path d="M208.36 345.13L204.01 348.78"
fill="none" stroke="black" stroke-width="0.5"/>
<path d="M204.01 348.78L199.42 352.11"
fill="none" stroke="black" stroke-width="0.5"/>
<path d="M199.42 352.11L194.61 355.12"
fill="none" stroke="black" stroke-width="0.5"/>
<path d="M194.61 355.12L189.6 357.78"
fill="none" stroke="black" stroke-width="0.5"/>
<path d="M189.6 357.78L184.41 360.09"
fill="none" stroke="black" stroke-width="0.5"/>
<path d="M184.41 360.09L179.08 362.03"
fill="none" stroke="black" stroke-width="0.5"/>
<path d="M179.08 362.03L173.63 363.6"
fill="none" stroke="black" stroke-width="0.5"/>
<path d="M173.63 363.6L168.07 364.78"
fill="none" stroke="black" stroke-width="0.5"/>
<path d="M168.07 364.78L162.45 365.57"
fill="none" stroke="black" stroke-width="0.5"/>
<path d="M162.45 365.57L156.79 365.96"
fill="none" stroke="black" stroke-width="0.5"/>
<path d="M156.79 365.96L151.12 365.96"
fill="none" stroke="black" stroke-width="0.5"/>
<path d="M151.12 365.96L145.46 365.57"
fill="none" stroke="black" stroke-width="0.5"/>
<path d="M145.46 365.57L139.84 364.78"
fill="none" stroke="black" stroke-width="0.5"/>
<path d="M139.84 364.78L134.28 363.6"
fill="none" stroke="black" stroke-width="0.5"/>
<path d="M134.28 363.6L128.83 362.03"
fill="none" stroke="black" stroke-width="0.5"/>
<path d="M128.83 362.03L123.49 360.09"
fill="none" stroke="black" stroke-width="0.5"/>
<path d="M123.49 360.09L118.31 357.78"
fill="none" stroke="black" stroke-width="0.5"/>
<path d="M118.31 357.78L113.3 355.12"
fill="none" stroke="black" stroke-width="0.5"/>
<path d="M113.3 355.12L108.49 352.11"
fill="none" stroke="black" stroke-width="0.5"/>
<path d="M108.49 352.11L103.89 348.78"
fill="none" stroke="black" stroke-width="0.5"/>
<path d="M103.89 348.78L99.55 345.13"
fill="none" stroke="black" stroke-width="0.5"/>
<path d="M99.55 345.13L95.46 341.19"
fill="none" stroke="black" stroke-width="0.5"/>
<path d="M95.46 341.19L91.67 336.97"
fill="none" stroke="black" stroke-width="0.5"/>
<path d="M91.67 336.97L88.17 332.5"
fill="none" stroke="black" stroke-width="0.5"/>
<path d="M88.17 332.5L85 327.79"
fill="none" stroke="black" stroke-width="0.5"/>
<path d="M85 327.79L82.16 322.88"
fill="none" stroke="black" stroke-width="0.5"/>
<path d="M82.16 322.88L79.67 317.77"
fill="none" stroke="black" stroke-width="0.5"/>
<path d="M79.67 317.77L77.55 312.51"
fill="none" stroke="black" stroke-width="0.5"/>
<path d="M77.55 312.51L75.79 307.12"
fill="none" stroke="black" stroke-width="0.5"/>
<path d="M75.79 307.12L74.42 301.61"
fill="none" stroke="black" stroke-width="0.5"/>
<path d="M74.42 301.61L73.43 296.02"
fill="none" stroke="black" stroke-width="0.5"/>
<path d="M73.43 296.02L72.84 290.37"
fill="none" stroke="black" stroke-width="0.5"/>
<path d="M72.84 290.37L72.64 284.7"
fill="none" stroke="black" stroke-width="0.5"/>
<path d="M72.64 284.7L72.84 279.03"
fill="none" stroke="black" stroke-width="0.5"/>
<path d="M72.84 279.03L73.43 273.39"
fill="none" stroke="black" stroke-width="0.5"/>
<path d="M73.43 273.39L74.42 267.8"
fill="none" stroke="black" stroke-width="0.5"/>
<path d="M74.42 267.8L75.79 262.29"
fill="none" stroke="black" stroke-width="0.5"/>
<path d="M75.79 262.29L77.55 256.89"
fill="none" stroke="black" stroke-width="0.5"/>
<path d="M77.55 256.89L79.67 251.63"
fill="none" stroke="black" stroke-width="0.5"/>
<path d="M79.67 251.63L82.16 246.53"
fill="none" stroke="black" stroke-width="0.5"/>
<path d="M82.16 246.53L85 241.61"
fill="none" stroke="black" stroke-width="0.5"/>
<path d="M85 241.61L88.17 236.91"
fill="none" stroke="black" stroke-width="0.5"/>
<path d="M88.17 236.91L91.67 232.44"
fill="none" stroke="black" stroke-width="0.5"/>
<path d="M91.67 232.44L95.46 228.22"
fill="none" stroke="black" stroke-width="0.5"/>
<path d="M95.46 228.22L99.55 224.28"
fill="none" stroke="black" stroke-width="0.5"/>
<path d="M99.55 224.28L103.89 220.63"
fill="none" stroke="black" stroke-width="0.5"/>
<path d="M103.89 220.63L108.49 217.29"
fill="none" stroke="black" stroke-width="0.5"/>
<path d="M108.49 217.29L113.3 214.29"
fill="none" stroke="black" stroke-width="0.5"/>
<path d="M113.3 214.29L118.31 211.62"
fill="none" stroke="black" stroke-width="0.5"/>
<path d="M118.31 211.62L123.49 209.31"
fill="none" stroke="black" stroke-width="0.5"/>
<path d="M123.49 209.31L128.83 207.37"
fill="none" stroke="black" stroke-width="0.5"/>
<path d="M128.83 207.37L134.28 205.81"
fill="none" stroke="black" stroke-width="0.5"/>
<path d="M134.28 205.81L139.84 204.63"
fill="none" stroke="black" stroke-width="0.5"/>
<path d="M139.84 204.63L145.46 203.84"
fill="none" stroke="black" stroke-width="0.5"/>
<path d="M145.46 203.84L151.12 203.44"
fill="none" stroke="black" stroke-width="0.5"/>
<path d="M151.12 203.44L156.79 203.44"
fill="none" stroke="black" stroke-width="0.5"/>
<path d="M156.79 203.44L162.45 203.84"
fill="none" stroke="black" stroke-width="0.5"/>
<path d="M162.45 203.84L168.07 204.63"
fill="none" stroke="black" stroke-width="0.5"/>
<path d="M168.07 204.63L173.63 205.81"
fill="none" stroke="black" stroke-width="0.5"/>
<path d="M173.63 205.81L179.08 207.37"
fill="none" stroke="black" stroke-width="0.5"/>
<path d="M179.08 207.37L184.41 209.31"
fill="none" stroke="black" stroke-width="0.5"/>
<path d="M184.41 209.31L189.6 211.62"
fill="none" stroke="black" stroke-width="0.5"/>
<path d="M189.6 211.62L194.61 214.29"
fill="none" stroke="black" stroke-width="0.5"/>
<path d="M194.61 214.29L199.42 217.29"
fill="none" stroke="black" stroke-width="0.5"/>
<path d="M199.42 217.29L204.01 220.63"
fill="none" stroke="black" stroke-width="0.5"/>
<path d="M204.01 220.63L208.36 224.28"
fill="none" stroke="black" stroke-width="0.5"/>
<path d="M208.36 224.28L212.45 228.22"
fill="none" stroke="black" stroke-width="0.5"/>
<path d="M212.45 228.22L216.24 232.44"
fill="none" stroke="black" stroke-width="0.5"/>
<path d="M216.24 232.44L219.74 236.91"
fill="none" stroke="black" stroke-width="0.5"/>
<path d="M219.74 236.91L222.91 241.61"
fill="none" stroke="black" stroke-width="0.5"/>
<path d="M222.91 241.61L225.75 246.53"
fill="none" stroke="black" stroke-width="0.5"/>
<path d="M225.75 246.53L228.24 251.63"
fill="none" stroke="black" stroke-width="0.5"/>
<path d="M228.24 251.63L230.36 256.89"
fill="none" stroke="black" stroke-width="0.5"/>
<path d="M230.36 256.89L232.12 262.29"
fill="none" stroke="black" stroke-width="0.5"/>
<path d="M232.12 262.29L233.49 267.8"
fill="none" stroke="black" stroke-width="0.5"/>
<path d="M233.49 267.8L234.47 273.39"
fill="none" stroke="black" stroke-width="0.5"/>
<path d="M234.47 273.39L235.07 279.03"
fill="none" stroke="black" stroke-width="0.5"/>
<path d="M235.07 279.03L235.27 284.7"
fill="none" stroke="black" stroke-width="0.5"/>
<path d="M238.65 284.7L238.46 290.48"
fill="none" stroke="black" stroke-width="0.5"/>
<path d="M238.46 290.48L237.86 296.24"
fill="none" stroke="black" stroke-width="0.5"/>
<path d="M237.86 296.24L236.88 301.94"
fill="none" stroke="black" stroke-width="0.5"/>
<path d="M236.88 301.94L235.51 307.55"
fill="none" stroke="black" stroke-width="0.5"/>
<path d="M235.51 307.55L233.76 313.07"
fill="none" stroke="black" stroke-width="0.5"/>
<path d="M233.76 313.07L231.64 318.45"
fill="none" stroke="black" stroke-width="0.5"/>
<path d="M231.64 318.45L229.16 323.67"
fill="none" stroke="black" stroke-width="0.5"/>
<path d="M229.16 323.67L226.32 328.71"
fill="none" stroke="black" stroke-width="0.5"/>
<path d="M226.32 328.71L223.15 333.55"
fill="none" stroke="black" stroke-width="0.5"/>
<path d="M223.15 333.55L219.66 338.16"
fill="none" stroke="black" stroke-width="0.5"/>
<path d="M219.66 338.16L215.86 342.51"
fill="none" stroke="black" stroke-width="0.5"/>
<path d="M215.86 342.51L211.77 346.6"
fill="none" stroke="black" stroke-width="0.5"/>
<path d="M211.77 346.6L207.41 350.4"
fill="none" stroke="black" stroke-width="0.5"/>
<path d="M207.41 350.4L202.8 353.9"
fill="none" stroke="black" stroke-width="0.5"/>
<path d="M202.8 353.9L197.96 357.07"
fill="none" stroke="black" stroke-width="0.5"/>
<path d="M197.96 357.07L192.92 359.91"
fill="none" stroke="black" stroke-width="0.5"/>
<path d="M192.92 359.91L187.7 362.39"
fill="none" stroke="black" stroke-width="0.5"/>
<path d="M187.7 362.39L182.32 364.51"
fill="none" stroke="black" stroke-width="0.5"/>
<path d="M182.32 364.51L176.81 366.26"
fill="none" stroke="black" stroke-width="0.5"/>
<path d="M176.81 366.26L171.19 367.63"
fill="none" stroke="black" stroke-width="0.5"/>
<path d="M171.19 367.63L165.49 368.61"
fill="none" stroke="black" stroke-width="0.5"/>
<path d="M165.49 368.61L159.73 369.2"
fill="none" stroke="black" stroke-width="0.5"/>
<path d="M159.73 369.2L153.95 369.4"
fill="none" stroke="black" stroke-width="0.5"/>
<path d="M153.95 369.4L148.17 369.2"
fill="none" stroke="black" stroke-width="0.5"/>
<path d="M148.17 369.2L142.42 368.61"
fill="none" stroke="black" stroke-width="0.5"/>
<path d="M142.42 368.61L136.72 367.63"
fill="none" stroke="black" stroke-width="0.5"/>
<path d="M136.72 367.63L131.1 366.26"
fill="none" stroke="black" stroke-width="0.5"/>
<path d="M131.1 366.26L125.59 364.51"
fill="none" stroke="black" stroke-width="0.5"/>
<path d="M125.59 364.51L120.21 362.39"
fill="none" stroke="black" stroke-width="0.5"/>
<path d="M120.21 362.39L114.99 359.91"
fill="none" stroke="black" stroke-width="0.5"/>
<path d="M114.99 359.91L109.95 357.07"
fill="none" stroke="black" stroke-width="0.5"/>
<path d="M109.95 357.07L105.11 353.9"
fill="none" stroke="black" stroke-width="0.5"/>
<path d="M105.11 353.9L100.5 350.4"
fill="none" stroke="black" stroke-width="0.5"/>
<path d="M100.5 350.4L96.14 346.6"
fill="none" stroke="black" stroke-width="0.5"/>
<path d="M96.14 346.6L92.05 342.51"
fill="none" stroke="black" stroke-width="0.5"/>
<path d="M92.05 342.51L88.25 338.16"
fill="none" stroke="black" stroke-width="0.5"/>
<path d="M88.25 338.16L84.76 333.55"
fill="none" stroke="black" stroke-width="0.5"/>
<path d="M84.76 333.55L81.59 328.71"
fill="none" stroke="black" stroke-width="0.5"/>
<path d="M81.59 328.71L78.75 323.67"
fill="none" stroke="black" stroke-width="0.5"/>
<path d="M78.75 323.67L76.27 318.45"
fill="none" stroke="black" stroke-width="0.5"/>
<path d="M76.27 318.45L74.15 313.07"
fill="none" stroke="black" stroke-width="0.5"/>
<path d="M74.15 313.07L72.4 307.55"
fill="none" stroke="black" stroke-width="0.5"/>
<path d="M72.4 307.55L71.03 301.94"
fill="none" stroke="black" stroke-width="0.5"/>
<path d="M71.03 301.94L70.04 296.24"
fill="none" stroke="black" stroke-width="0.5"/>
<path d="M70.04 296.24L69.45 290.48"
fill="none" stroke="black" stroke-width="0.5"/>
<path d="M69.45 290.48L69.26 284.7"
fill="none" stroke="black" stroke-width="0.5"/>
<path d="M69.26 284.7L69.45 278.92"
fill="none" stroke="black" stroke-width="0.5"/>
<path d="M69.45 278.92L70.04 273.17"
fill="none" stroke="black" stroke-width="0.5"/>
<path d="M70.04 273.17L71.03 267.47"
fill="none" stroke="black" stroke-width="0.5"/>
<path d="M71.03 267.47L72.4 261.85"
fill="none" stroke="black" stroke-width="0.5"/>
<path d="M72.4 261.85L74.15 256.34"
fill="none" stroke="black" stroke-width="0.5"/>
<path d="M74.15 256.34L76.27 250.96"
fill="none" stroke="black" stroke-width="0.5"/>
<path d="M76.27 250.96L78.75 245.74"
fill="none" stroke="black" stroke-width="0.5"/>
<path d="M78.75 245.74L81.59 240.69"
fill="none" stroke="black" stroke-width="0.5"/>
<path d="M81.59 240.69L84.76 235.86"
fill="none" stroke="black" stroke-width="0.5"/>
<path d="M84.76 235.86L88.25 231.25"
fill="none" stroke="black" stroke-width="0.5"/>
<path d="M88.25 231.25L92.05 226.89"
fill="none" stroke="black" stroke-width="0.5"/>
<path d="M92.05 226.89L96.14 222.8"
fill="none" stroke="black" stroke-width="0.5"/>
<path d="M96.14 222.8L100.5 219"
fill="none" stroke="black" stroke-width="0.5"/>
<path d="M100.5 219L105.11 215.51"
fill="none" stroke="black" stroke-width="0.5"/>
<path d="M105.11 215.51L109.95 212.33"
fill="none" stroke="black" stroke-width="0.5"/>
<path d="M109.95 212.33L114.99 209.5"
fill="none" stroke="black" stroke-width="0.5"/>
<path d="M114.99 209.5L120.21 207.02"
fill="none" stroke="black" stroke-width="0.5"/>
<path d="M120.21 207.02L125.59 204.89"
fill="none" stroke="black" stroke-width="0.5"/>
<path d="M125.59 204.89L131.1 203.14"
fill="none" stroke="black" stroke-width="0.5"/>
<path d="M131.1 203.14L136.72 201.77"
fill="none" stroke="black" stroke-width="0.5"/>
<path d="M136.72 201.77L142.42 200.79"
fill="none" stroke="black" stroke-width="0.5"/>
<path d="M142.42 200.79L148.17 200.2"
fill="none" stroke="black" stroke-width="0.5"/>
<path d="M148.17 200.2L153.95 200"
fill="none" stroke="black" stroke-width="0.5"/>
<path d="M153.95 200L159.73 200.2"
fill="none" stroke="black" stroke-width="0.5"/>
<path d="M159.73 200.2L165.49 200.79"
fill="none" stroke="black" stroke-width="0.5"/>
<path d="M165.49 200.79L171.19 201.77"
fill="none" stroke="black" stroke-width="0.5"/>
<path d="M171.19 201.77L176.81 203.14"
fill="none" stroke="black" stroke-width="0.5"/>
<path d="M176.81 203.14L182.32 204.89"
fill="none" stroke="black" stroke-width="0.5"/>
<path d="M182.32 204.89L187.7 207.02"
fill="none" stroke="black" stroke-width="0.5"/>
<path d="M187.7 207.02L192.92 209.5"
fill="none" stroke="black" stroke-width="0.5"/>
<path d="M192.92 209.5L197.96 212.33"
fill="none" stroke="black" stroke-width="0.5"/>
<path d="M197.96 212.33L202.8 215.51"
fill="none" stroke="black" stroke-width="0.5"/>
<path d="M202.8 215.51L207.41 219"
fill="none" stroke="black" stroke-width="0.5"/>
<path d="M207.41 219L211.77 222.8"
fill="none" stroke="black" stroke-width="0.5"/>
<path d="M211.77 222.8L215.86 226.89"
fill="none" stroke="black" stroke-width="0.5"/>
<path d="M215.86 226.89L219.66 231.25"
fill="none" stroke="black" stroke-width="0.5"/>
<path d="M219.66 231.25L223.15 235.86"
fill="none" stroke="black" stroke-width="0.5"/>
<path d="M223.15 235.86L226.32 240.69"
fill="none" stroke="black" stroke-width="0.5"/>
<path d="M226.32 240.69L229.16 245.74"
fill="none" stroke="black" stroke-width="0.5"/>
<path d="M229.16 245.74L231.64 250.96"
fill="none" stroke="black" stroke-width="0.5"/>
<path d="M231.64 250.96L233.76 256.34"
fill="none" stroke="black" stroke-width="0.5"/>
<path d="M233.76 256.34L235.51 261.85"
fill="none" stroke="black" stroke-width="0.5"/>
<path d="M235.51 261.85L236.88 267.47"
fill="none" stroke="black" stroke-width="0.5"/>
<path d="M236.88 267.47L237.86 273.17"
fill="none" stroke="black" stroke-width="0.5"/>
<path d="M237.86 273.17L238.46 278.92"
fill="none" stroke="black" stroke-width="0.5"/>
<path d="M238.46 278.92L238.65 284.7"
fill="none" stroke="black" stroke-width="0.5"/>
</svg>
