<?xml version="1.0" encoding="UTF-8"?>
<svg xmlns="http://www.w3.org/2000/svg" width="800.000" height="600.000" viewBox="0.0 0.0 800.000 600.000" version="1.1">
  <desc>Produce by Acme CAD Converter</desc>
<path d="M284.47 291.32L284.27 296.41"
fill="none" stroke="black" stroke-width="5"/>
<path d="M284.27 296.41L283.68 301.48"
fill="none" stroke="black" stroke-width="5"/>
<path d="M283.68 301.48L282.7 306.48"
fill="none" stroke="black" stroke-width="5"/>
<path d="M282.7 306.48L281.33 311.4"
fill="none" stroke="black" stroke-width="5"/>
<path d="M281.33 311.4L279.58 316.19"
fill="none" stroke="black" stroke-width="5"/>
<path d="M279.58 316.19L277.47 320.83"
fill="none" stroke="black" stroke-width="5"/>
<path d="M277.47 320.83L275.01 325.3"
fill="none" stroke="black" stroke-width="5"/>
<path d="M275.01 325.3L272.21 329.56"
fill="none" stroke="black" stroke-width="5"/>
<path d="M272.21 329.56L269.08 333.59"
fill="none" stroke="black" stroke-width="5"/>
<path d="M269.08 333.59L265.66 337.36"
fill="none" stroke="black" stroke-width="5"/>
<path d="M265.66 337.36L261.95 340.86"
fill="none" stroke="black" stroke-width="5"/>
<path d="M261.95 340.86L257.98 344.07"
fill="none" stroke="black" stroke-width="5"/>
<path d="M257.98 344.07L253.77 346.95"
fill="none" stroke="black" stroke-width="5"/>
<path d="M253.77 346.95L249.36 349.5"
fill="none" stroke="black" stroke-width="5"/>
<path d="M249.36 349.5L244.75 351.7"
fill="none" stroke="black" stroke-width="5"/>
<path d="M244.75 351.7L240 353.54"
fill="none" stroke="black" stroke-width="5"/>
<path d="M240 353.54L235.11 355"
fill="none" stroke="black" stroke-width="5"/>
<path d="M235.11 355L230.13 356.08"
fill="none" stroke="black" stroke-width="5"/>
<path d="M230.13 356.08L225.07 356.77"
fill="none" stroke="black" stroke-width="5"/>
<path d="M225.07 356.77L219.98 357.07"
fill="none" stroke="black" stroke-width="5"/>
<path d="M219.98 357.07L214.88 356.97"
fill="none" stroke="black" stroke-width="5"/>
<path d="M214.88 356.97L209.81 356.47"
fill="none" stroke="black" stroke-width="5"/>
<path d="M209.81 356.47L204.79 355.59"
fill="none" stroke="black" stroke-width="5"/>
<path d="M204.79 355.59L199.85 354.32"
fill="none" stroke="black" stroke-width="5"/>
<path d="M199.85 354.32L195.02 352.66"
fill="none" stroke="black" stroke-width="5"/>
<path d="M195.02 352.66L190.34 350.64"
fill="none" stroke="black" stroke-width="5"/>
<path d="M190.34 350.64L185.83 348.27"
fill="none" stroke="black" stroke-width="5"/>
<path d="M185.83 348.27L181.51 345.55"
fill="none" stroke="black" stroke-width="5"/>
<path d="M181.51 345.55L177.42 342.5"
fill="none" stroke="black" stroke-width="5"/>
<path d="M177.42 342.5L173.58 339.15"
fill="none" stroke="black" stroke-width="5"/>
<path d="M173.58 339.15L170.01 335.51"
fill="none" stroke="black" stroke-width="5"/>
<path d="M170.01 335.51L166.73 331.6"
fill="none" stroke="black" stroke-width="5"/>
<path d="M166.73 331.6L163.77 327.45"
fill="none" stroke="black" stroke-width="5"/>
<path d="M163.77 327.45L161.13 323.09"
fill="none" stroke="black" stroke-width="5"/>
<path d="M161.13 323.09L158.84 318.53"
fill="none" stroke="black" stroke-width="5"/>
<path d="M158.84 318.53L156.91 313.81"
fill="none" stroke="black" stroke-width="5"/>
<path d="M156.91 313.81L155.36 308.95"
fill="none" stroke="black" stroke-width="5"/>
<path d="M155.36 308.95L154.18 303.99"
fill="none" stroke="black" stroke-width="5"/>
<path d="M154.18 303.99L153.39 298.95"
fill="none" stroke="black" stroke-width="5"/>
<path d="M153.39 298.95L153 293.87"
fill="none" stroke="black" stroke-width="5"/>
<path d="M153 293.87L153 288.77Z"
fill="none" stroke="black" stroke-width="5"/>
<path d="M153 288.77L153.39 283.68"
fill="none" stroke="black" stroke-width="5"/>
<path d="M153.39 283.68L154.18 278.64"
fill="none" stroke="black" stroke-width="5"/>
<path d="M154.18 278.64L155.36 273.68"
fill="none" stroke="black" stroke-width="5"/>
<path d="M155.36 273.68L156.91 268.83"
fill="none" stroke="black" stroke-width="5"/>
<path d="M156.91 268.83L158.84 264.1"
fill="none" stroke="black" stroke-width="5"/>
<path d="M158.84 264.1L161.13 259.55"
fill="none" stroke="black" stroke-width="5"/>
<path d="M161.13 259.55L163.77 255.18"
fill="none" stroke="black" stroke-width="5"/>
<path d="M163.77 255.18L166.73 251.03"
fill="none" stroke="black" stroke-width="5"/>
<path d="M166.73 251.03L170.01 247.13"
fill="none" stroke="black" stroke-width="5"/>
<path d="M170.01 247.13L173.58 243.48"
fill="none" stroke="black" stroke-width="5"/>
<path d="M173.58 243.48L177.42 240.13"
fill="none" stroke="black" stroke-width="5"/>
<path d="M177.42 240.13L181.51 237.09"
fill="none" stroke="black" stroke-width="5"/>
<path d="M181.51 237.09L185.83 234.37"
fill="none" stroke="black" stroke-width="5"/>
<path d="M185.83 234.37L190.34 231.99"
fill="none" stroke="black" stroke-width="5"/>
<path d="M190.34 231.99L195.02 229.97"
fill="none" stroke="black" stroke-width="5"/>
<path d="M195.02 229.97L199.85 228.32"
fill="none" stroke="black" stroke-width="5"/>
<path d="M199.85 228.32L204.79 227.05"
fill="none" stroke="black" stroke-width="5"/>
<path d="M204.79 227.05L209.81 226.16"
fill="none" stroke="black" stroke-width="5"/>
<path d="M209.81 226.16L214.88 225.67"
fill="none" stroke="black" stroke-width="5"/>
<path d="M214.88 225.67L219.98 225.57"
fill="none" stroke="black" stroke-width="5"/>
<path d="M219.98 225.57L225.07 225.86"
fill="none" stroke="black" stroke-width="5"/>
<path d="M225.07 225.86L230.13 226.56"
fill="none" stroke="black" stroke-width="5"/>
<path d="M230.13 226.56L235.11 227.63"
fill="none" stroke="black" stroke-width="5"/>
<path d="M235.11 227.63L240 229.1"
fill="none" stroke="black" stroke-width="5"/>
<path d="M240 229.1L244.75 230.93"
fill="none" stroke="black" stroke-width="5"/>
<path d="M244.75 230.93L249.36 233.13"
fill="none" stroke="black" stroke-width="5"/>
<path d="M249.36 233.13L253.77 235.68"
fill="none" stroke="black" stroke-width="5"/>
<path d="M253.77 235.68L257.98 238.57"
fill="none" stroke="black" stroke-width="5"/>
<path d="M257.98 238.57L261.95 241.77"
fill="none" stroke="black" stroke-width="5"/>
<path d="M261.95 241.77L265.66 245.27"
fill="none" stroke="black" stroke-width="5"/>
<path d="M265.66 245.27L269.08 249.05"
fill="none" stroke="black" stroke-width="5"/>
<path d="M269.08 249.05L272.21 253.08"
fill="none" stroke="black" stroke-width="5"/>
<path d="M272.21 253.08L275.01 257.34"
fill="none" stroke="black" stroke-width="5"/>
<path d="M275.01 257.34L277.47 261.8"
fill="none" stroke="black" stroke-width="5"/>
<path d="M277.47 261.8L279.58 266.45"
fill="none" stroke="black" stroke-width="5"/>
<path d="M279.58 266.45L281.33 271.24"
fill="none" stroke="black" stroke-width="5"/>
<path d="M281.33 271.24L282.7 276.15"
fill="none" stroke="black" stroke-width="5"/>
<path d="M282.7 276.15L283.68 281.16"
fill="none" stroke="black" stroke-width="5"/>
<path d="M283.68 281.16L284.27 286.22"
fill="none" stroke="black" stroke-width="5"/>
<path d="M284.27 286.22L284.47 291.32"
fill="none" stroke="black" stroke-width="5"/>
<path d="M286.64 291.32L286.44 296.52"
fill="none" stroke="black" stroke-width="5"/>
<path d="M286.44 296.52L285.85 301.69"
fill="none" stroke="black" stroke-width="5"/>
<path d="M285.85 301.69L284.86 306.8"
fill="none" stroke="black" stroke-width="5"/>
<path d="M284.86 306.8L283.48 311.81"
fill="none" stroke="black" stroke-width="5"/>
<path d="M283.48 311.81L281.72 316.71"
fill="none" stroke="black" stroke-width="5"/>
<path d="M281.72 316.71L279.59 321.46"
fill="none" stroke="black" stroke-width="5"/>
<path d="M279.59 321.46L277.1 326.03"
fill="none" stroke="black" stroke-width="5"/>
<path d="M277.1 326.03L274.27 330.4"
fill="none" stroke="black" stroke-width="5"/>
<path d="M274.27 330.4L271.12 334.54"
fill="none" stroke="black" stroke-width="5"/>
<path d="M271.12 334.54L267.66 338.43"
fill="none" stroke="black" stroke-width="5"/>
<path d="M267.66 338.43L263.91 342.03"
fill="none" stroke="black" stroke-width="5"/>
<path d="M263.91 342.03L259.89 345.35"
fill="none" stroke="black" stroke-width="5"/>
<path d="M259.89 345.35L255.63 348.34"
fill="none" stroke="black" stroke-width="5"/>
<path d="M255.63 348.34L251.16 351"
fill="none" stroke="black" stroke-width="5"/>
<path d="M251.16 351L246.5 353.31"
fill="none" stroke="black" stroke-width="5"/>
<path d="M246.5 353.31L241.67 355.25"
fill="none" stroke="black" stroke-width="5"/>
<path d="M241.67 355.25L236.71 356.82"
fill="none" stroke="black" stroke-width="5"/>
<path d="M236.71 356.82L231.64 358.01"
fill="none" stroke="black" stroke-width="5"/>
<path d="M231.64 358.01L226.5 358.8"
fill="none" stroke="black" stroke-width="5"/>
<path d="M226.5 358.8L221.31 359.2"
fill="none" stroke="black" stroke-width="5"/>
<path d="M221.31 359.2L216.11 359.2"
fill="none" stroke="black" stroke-width="5"/>
<path d="M216.11 359.2L210.92 358.8"
fill="none" stroke="black" stroke-width="5"/>
<path d="M210.92 358.8L205.77 358.01"
fill="none" stroke="black" stroke-width="5"/>
<path d="M205.77 358.01L200.71 356.82"
fill="none" stroke="black" stroke-width="5"/>
<path d="M200.71 356.82L195.74 355.25"
fill="none" stroke="black" stroke-width="5"/>
<path d="M195.74 355.25L190.92 353.31"
fill="none" stroke="black" stroke-width="5"/>
<path d="M190.92 353.31L186.25 351"
fill="none" stroke="black" stroke-width="5"/>
<path d="M186.25 351L181.78 348.34"
fill="none" stroke="black" stroke-width="5"/>
<path d="M181.78 348.34L177.52 345.35"
fill="none" stroke="black" stroke-width="5"/>
<path d="M177.52 345.35L173.51 342.03"
fill="none" stroke="black" stroke-width="5"/>
<path d="M173.51 342.03L169.76 338.43"
fill="none" stroke="black" stroke-width="5"/>
<path d="M169.76 338.43L166.3 334.54"
fill="none" stroke="black" stroke-width="5"/>
<path d="M166.3 334.54L163.14 330.4"
fill="none" stroke="black" stroke-width="5"/>
<path d="M163.14 330.4L160.31 326.03"
fill="none" stroke="black" stroke-width="5"/>
<path d="M160.31 326.03L157.83 321.46"
fill="none" stroke="black" stroke-width="5"/>
<path d="M157.83 321.46L155.7 316.71"
fill="none" stroke="black" stroke-width="5"/>
<path d="M155.7 316.71L153.94 311.81"
fill="none" stroke="black" stroke-width="5"/>
<path d="M153.94 311.81L152.56 306.8"
fill="none" stroke="black" stroke-width="5"/>
<path d="M152.56 306.8L151.57 301.69"
fill="none" stroke="black" stroke-width="5"/>
<path d="M151.57 301.69L150.97 296.52"
fill="none" stroke="black" stroke-width="5"/>
<path d="M150.97 296.52L150.77 291.32"
fill="none" stroke="black" stroke-width="5"/>
<path d="M150.77 291.32L150.97 286.12"
fill="none" stroke="black" stroke-width="5"/>
<path d="M150.97 286.12L151.57 280.95"
fill="none" stroke="black" stroke-width="5"/>
<path d="M151.57 280.95L152.56 275.84"
fill="none" stroke="black" stroke-width="5"/>
<path d="M152.56 275.84L153.94 270.82"
fill="none" stroke="black" stroke-width="5"/>
<path d="M153.94 270.82L155.7 265.92"
fill="none" stroke="black" stroke-width="5"/>
<path d="M155.7 265.92L157.83 261.17"
fill="none" stroke="black" stroke-width="5"/>
<path d="M157.83 261.17L160.31 256.6"
fill="none" stroke="black" stroke-width="5"/>
<path d="M160.31 256.6L163.14 252.23"
fill="none" stroke="black" stroke-width="5"/>
<path d="M163.14 252.23L166.3 248.09"
fill="none" stroke="black" stroke-width="5"/>
<path d="M166.3 248.09L169.76 244.21"
fill="none" stroke="black" stroke-width="5"/>
<path d="M169.76 244.21L173.51 240.6"
fill="none" stroke="black" stroke-width="5"/>
<path d="M173.51 240.6L177.52 237.29"
fill="none" stroke="black" stroke-width="5"/>
<path d="M177.52 237.29L181.78 234.29"
fill="none" stroke="black" stroke-width="5"/>
<path d="M181.78 234.29L186.25 231.64"
fill="none" stroke="black" stroke-width="5"/>
<path d="M186.25 231.64L190.92 229.33"
fill="none" stroke="black" stroke-width="5"/>
<path d="M190.92 229.33L195.74 227.38"
fill="none" stroke="black" stroke-width="5"/>
<path d="M195.74 227.38L200.71 225.81"
fill="none" stroke="black" stroke-width="5"/>
<path d="M200.71 225.81L205.77 224.62"
fill="none" stroke="black" stroke-width="5"/>
<path d="M205.77 224.62L210.92 223.83"
fill="none" stroke="black" stroke-width="5"/>
<path d="M210.92 223.83L216.11 223.43"
fill="none" stroke="black" stroke-width="5"/>
<path d="M216.11 223.43L221.31 223.43"
fill="none" stroke="black" stroke-width="5"/>
<path d="M221.31 223.43L226.5 223.83"
fill="none" stroke="black" stroke-width="5"/>
<path d="M226.5 223.83L231.64 224.62"
fill="none" stroke="black" stroke-width="5"/>
<path d="M231.64 224.62L236.71 225.81"
fill="none" stroke="black" stroke-width="5"/>
<path d="M236.71 225.81L241.67 227.38"
fill="none" stroke="black" stroke-width="5"/>
<path d="M241.67 227.38L246.5 229.33"
fill="none" stroke="black" stroke-width="5"/>
<path d="M246.5 229.33L251.16 231.64"
fill="none" stroke="black" stroke-width="5"/>
<path d="M251.16 231.64L255.63 234.29"
fill="none" stroke="black" stroke-width="5"/>
<path d="M255.63 234.29L259.89 237.29"
fill="none" stroke="black" stroke-width="5"/>
<path d="M259.89 237.29L263.91 240.6"
fill="none" stroke="black" stroke-width="5"/>
<path d="M263.91 240.6L267.66 244.21"
fill="none" stroke="black" stroke-width="5"/>
<path d="M267.66 244.21L271.12 248.09"
fill="none" stroke="black" stroke-width="5"/>
<path d="M271.12 248.09L274.27 252.23"
fill="none" stroke="black" stroke-width="5"/>
<path d="M274.27 252.23L277.1 256.6"
fill="none" stroke="black" stroke-width="5"/>
<path d="M277.1 256.6L279.59 261.17"
fill="none" stroke="black" stroke-width="5"/>
<path d="M279.59 261.17L281.72 265.92"
fill="none" stroke="black" stroke-width="5"/>
<path d="M281.72 265.92L283.48 270.82"
fill="none" stroke="black" stroke-width="5"/>
<path d="M283.48 270.82L284.86 275.84"
fill="none" stroke="black" stroke-width="5"/>
<path d="M284.86 275.84L285.85 280.95"
fill="none" stroke="black" stroke-width="5"/>
<path d="M285.85 280.95L286.44 286.12"
fill="none" stroke="black" stroke-width="5"/>
<path d="M286.44 286.12L286.64 291.32"
fill="none" stroke="black" stroke-width="5"/>
</svg>
