<?xml version="1.0" encoding="UTF-8"?>
<svg xmlns="http://www.w3.org/2000/svg" width="800.000" height="600.000" viewBox="0.0 0.0 800.000 600.000" version="1.1">
  <desc>Produce by Acme CAD Converter</desc>
<path d="M254.27 340.97L264.04 328.36"
fill="none" stroke="black" stroke-width="0.5"/>
<path d="M254.59 340.97L264.07 328.73"
fill="none" stroke="black" stroke-width="0.5"/>
<path d="M254.9 340.97L264.07 329.14"
fill="none" stroke="black" stroke-width="0.5"/>
<path d="M255.21 340.97L264.07 329.54"
fill="none" stroke="black" stroke-width="0.5"/>
<path d="M255.52 340.97L264.07 329.94"
fill="none" stroke="black" stroke-width="0.5"/>
<path d="M228.51 340.97L248.2 317.83"
fill="none" stroke="black" stroke-width="0.5"/>
<path d="M228.82 340.97L248.51 317.83"
fill="none" stroke="black" stroke-width="0.5"/>
<path d="M229.14 340.97L248.82 317.83"
fill="none" stroke="black" stroke-width="0.5"/>
<path d="M229.45 340.97L249.14 317.83"
fill="none" stroke="black" stroke-width="0.5"/>
<path d="M229.76 340.97L249.45 317.83"
fill="none" stroke="black" stroke-width="0.5"/>
<path d="M230.07 340.97L249.76 317.83"
fill="none" stroke="black" stroke-width="0.5"/>
<path d="M210.32 343.47L210.32 315.36Z"
fill="none" stroke="black" stroke-width="0.5"/>
<path d="M210.32 315.36L266.54 315.36"
fill="none" stroke="black" stroke-width="0.5"/>
<path d="M266.54 315.36L266.54 343.47Z"
fill="none" stroke="black" stroke-width="0.5"/>
<path d="M266.54 343.47L210.32 343.47"
fill="none" stroke="black" stroke-width="0.5"/>
<path d="M264.07 320.34L261.42 320.34"
fill="none" stroke="black" stroke-width="0.5"/>
<path d="M261.42 320.34L261.42 317.86Z"
fill="none" stroke="black" stroke-width="0.5"/>
<path d="M261.42 317.86L215.45 317.86"
fill="none" stroke="black" stroke-width="0.5"/>
<path d="M215.45 317.86L215.45 320.34Z"
fill="none" stroke="black" stroke-width="0.5"/>
<path d="M215.45 320.34L212.71 320.34"
fill="none" stroke="black" stroke-width="0.5"/>
<path d="M212.71 320.34L212.71 338.7Z"
fill="none" stroke="black" stroke-width="0.5"/>
<path d="M212.71 338.7L215.45 338.7"
fill="none" stroke="black" stroke-width="0.5"/>
<path d="M215.45 338.7L215.45 341.01Z"
fill="none" stroke="black" stroke-width="0.5"/>
<path d="M215.45 341.01L261.42 341.01"
fill="none" stroke="black" stroke-width="0.5"/>
<path d="M261.42 341.01L261.42 338.7Z"
fill="none" stroke="black" stroke-width="0.5"/>
<path d="M261.42 338.7L264.07 338.7"
fill="none" stroke="black" stroke-width="0.5"/>
<path d="M264.07 338.7L264.07 320.34Z"
fill="none" stroke="black" stroke-width="0.5"/>
<path d="M212.71 335.27L229.43 317.86"
fill="none" stroke="black" stroke-width="0.5"/>
<path d="M212.71 335.59L229.74 317.86"
fill="none" stroke="black" stroke-width="0.5"/>
<path d="M212.71 335.92L230.06 317.86"
fill="none" stroke="black" stroke-width="0.5"/>
<path d="M212.71 336.24L230.37 317.86"
fill="none" stroke="black" stroke-width="0.5"/>
<path d="M212.71 334.94L229.12 317.86"
fill="none" stroke="black" stroke-width="0.5"/>
</svg>
