<?xml version="1.0" encoding="UTF-8"?>
<svg xmlns="http://www.w3.org/2000/svg" width="800.000" height="600.000" viewBox="0.0 0.0 800.000 600.000" version="1.1">
  <desc>Produce by Acme CAD Converter</desc>
<path d="M352.24 391.44L352.04 400.55"
fill="none" stroke="black" stroke-width="0.5"/>
<path d="M352.04 400.55L351.44 409.64"
fill="none" stroke="black" stroke-width="0.5"/>
<path d="M351.44 409.64L350.45 418.7"
fill="none" stroke="black" stroke-width="0.5"/>
<path d="M350.45 418.7L349.06 427.71"
fill="none" stroke="black" stroke-width="0.5"/>
<path d="M349.06 427.71L347.29 436.65"
fill="none" stroke="black" stroke-width="0.5"/>
<path d="M347.29 436.65L345.12 445.51"
fill="none" stroke="black" stroke-width="0.5"/>
<path d="M345.12 445.51L342.57 454.26"
fill="none" stroke="black" stroke-width="0.5"/>
<path d="M342.57 454.26L339.64 462.89"
fill="none" stroke="black" stroke-width="0.5"/>
<path d="M339.64 462.89L336.33 471.38"
fill="none" stroke="black" stroke-width="0.5"/>
<path d="M336.33 471.38L332.66 479.72"
fill="none" stroke="black" stroke-width="0.5"/>
<path d="M332.66 479.72L328.63 487.9"
fill="none" stroke="black" stroke-width="0.5"/>
<path d="M328.63 487.9L324.25 495.89"
fill="none" stroke="black" stroke-width="0.5"/>
<path d="M324.25 495.89L319.52 503.68"
fill="none" stroke="black" stroke-width="0.5"/>
<path d="M319.52 503.68L314.46 511.26"
fill="none" stroke="black" stroke-width="0.5"/>
<path d="M314.46 511.26L309.07 518.61"
fill="none" stroke="black" stroke-width="0.5"/>
<path d="M309.07 518.61L303.36 525.72"
fill="none" stroke="black" stroke-width="0.5"/>
<path d="M303.36 525.72L297.35 532.57"
fill="none" stroke="black" stroke-width="0.5"/>
<path d="M297.35 532.57L291.05 539.16"
fill="none" stroke="black" stroke-width="0.5"/>
<path d="M291.05 539.16L284.47 545.46"
fill="none" stroke="black" stroke-width="0.5"/>
<path d="M284.47 545.46L277.61 551.47"
fill="none" stroke="black" stroke-width="0.5"/>
<path d="M277.61 551.47L270.5 557.17"
fill="none" stroke="black" stroke-width="0.5"/>
<path d="M270.5 557.17L263.15 562.56"
fill="none" stroke="black" stroke-width="0.5"/>
<path d="M263.15 562.56L255.58 567.63"
fill="none" stroke="black" stroke-width="0.5"/>
<path d="M255.58 567.63L247.78 572.36"
fill="none" stroke="black" stroke-width="0.5"/>
<path d="M247.78 572.36L239.79 576.74"
fill="none" stroke="black" stroke-width="0.5"/>
<path d="M239.79 576.74L231.62 580.77"
fill="none" stroke="black" stroke-width="0.5"/>
<path d="M231.62 580.77L223.28 584.44"
fill="none" stroke="black" stroke-width="0.5"/>
<path d="M223.28 584.44L214.78 587.74"
fill="none" stroke="black" stroke-width="0.5"/>
<path d="M214.78 587.74L206.15 590.67"
fill="none" stroke="black" stroke-width="0.5"/>
<path d="M206.15 590.67L197.4 593.23"
fill="none" stroke="black" stroke-width="0.5"/>
<path d="M197.4 593.23L188.55 595.39"
fill="none" stroke="black" stroke-width="0.5"/>
<path d="M188.55 595.39L179.61 597.17"
fill="none" stroke="black" stroke-width="0.5"/>
<path d="M179.61 597.17L170.6 598.56"
fill="none" stroke="black" stroke-width="0.5"/>
<path d="M170.6 598.56L161.54 599.55"
fill="none" stroke="black" stroke-width="0.5"/>
<path d="M161.54 599.55L154.65 600"
fill="none" stroke="black" stroke-width="0.5"/>
<path d="M132.01 600L125.12 599.55"
fill="none" stroke="black" stroke-width="0.5"/>
<path d="M125.12 599.55L116.06 598.56"
fill="none" stroke="black" stroke-width="0.5"/>
<path d="M116.06 598.56L107.05 597.17"
fill="none" stroke="black" stroke-width="0.5"/>
<path d="M107.05 597.17L98.12 595.39"
fill="none" stroke="black" stroke-width="0.5"/>
<path d="M98.12 595.39L89.26 593.23"
fill="none" stroke="black" stroke-width="0.5"/>
<path d="M89.26 593.23L80.51 590.67"
fill="none" stroke="black" stroke-width="0.5"/>
<path d="M80.51 590.67L71.88 587.74"
fill="none" stroke="black" stroke-width="0.5"/>
<path d="M71.88 587.74L63.39 584.44"
fill="none" stroke="black" stroke-width="0.5"/>
<path d="M63.39 584.44L55.04 580.77"
fill="none" stroke="black" stroke-width="0.5"/>
<path d="M55.04 580.77L46.87 576.74"
fill="none" stroke="black" stroke-width="0.5"/>
<path d="M46.87 576.74L38.88 572.36"
fill="none" stroke="black" stroke-width="0.5"/>
<path d="M38.88 572.36L31.09 567.63"
fill="none" stroke="black" stroke-width="0.5"/>
<path d="M31.09 567.63L23.51 562.56"
fill="none" stroke="black" stroke-width="0.5"/>
<path d="M23.51 562.56L16.16 557.17"
fill="none" stroke="black" stroke-width="0.5"/>
<path d="M16.16 557.17L9.05 551.47"
fill="none" stroke="black" stroke-width="0.5"/>
<path d="M9.05 551.47L2.2 545.46"
fill="none" stroke="black" stroke-width="0.5"/>
<path d="M2.2 545.46L0 543.36"
fill="none" stroke="black" stroke-width="0.5"/>
<path d="M0 239.52L2.2 237.42"
fill="none" stroke="black" stroke-width="0.5"/>
<path d="M2.2 237.42L9.05 231.41"
fill="none" stroke="black" stroke-width="0.5"/>
<path d="M9.05 231.41L16.16 225.7"
fill="none" stroke="black" stroke-width="0.5"/>
<path d="M16.16 225.7L23.51 220.31"
fill="none" stroke="black" stroke-width="0.5"/>
<path d="M23.51 220.31L31.09 215.25"
fill="none" stroke="black" stroke-width="0.5"/>
<path d="M31.09 215.25L38.88 210.52"
fill="none" stroke="black" stroke-width="0.5"/>
<path d="M38.88 210.52L46.87 206.14"
fill="none" stroke="black" stroke-width="0.5"/>
<path d="M46.87 206.14L55.04 202.1"
fill="none" stroke="black" stroke-width="0.5"/>
<path d="M55.04 202.1L63.39 198.43"
fill="none" stroke="black" stroke-width="0.5"/>
<path d="M63.39 198.43L71.88 195.13"
fill="none" stroke="black" stroke-width="0.5"/>
<path d="M71.88 195.13L80.51 192.2"
fill="none" stroke="black" stroke-width="0.5"/>
<path d="M80.51 192.2L89.26 189.65"
fill="none" stroke="black" stroke-width="0.5"/>
<path d="M89.26 189.65L98.12 187.48"
fill="none" stroke="black" stroke-width="0.5"/>
<path d="M98.12 187.48L107.05 185.7"
fill="none" stroke="black" stroke-width="0.5"/>
<path d="M107.05 185.7L116.06 184.32"
fill="none" stroke="black" stroke-width="0.5"/>
<path d="M116.06 184.32L125.12 183.33"
fill="none" stroke="black" stroke-width="0.5"/>
<path d="M125.12 183.33L134.22 182.73"
fill="none" stroke="black" stroke-width="0.5"/>
<path d="M134.22 182.73L143.33 182.53"
fill="none" stroke="black" stroke-width="0.5"/>
<path d="M143.33 182.53L152.44 182.73"
fill="none" stroke="black" stroke-width="0.5"/>
<path d="M152.44 182.73L161.54 183.33"
fill="none" stroke="black" stroke-width="0.5"/>
<path d="M161.54 183.33L170.6 184.32"
fill="none" stroke="black" stroke-width="0.5"/>
<path d="M170.6 184.32L179.61 185.7"
fill="none" stroke="black" stroke-width="0.5"/>
<path d="M179.61 185.7L188.55 187.48"
fill="none" stroke="black" stroke-width="0.5"/>
<path d="M188.55 187.48L197.4 189.65"
fill="none" stroke="black" stroke-width="0.5"/>
<path d="M197.4 189.65L206.15 192.2"
fill="none" stroke="black" stroke-width="0.5"/>
<path d="M206.15 192.2L214.78 195.13"
fill="none" stroke="black" stroke-width="0.5"/>
<path d="M214.78 195.13L223.28 198.43"
fill="none" stroke="black" stroke-width="0.5"/>
<path d="M223.28 198.43L231.62 202.1"
fill="none" stroke="black" stroke-width="0.5"/>
<path d="M231.62 202.1L239.79 206.14"
fill="none" stroke="black" stroke-width="0.5"/>
<path d="M239.79 206.14L247.78 210.52"
fill="none" stroke="black" stroke-width="0.5"/>
<path d="M247.78 210.52L255.58 215.25"
fill="none" stroke="black" stroke-width="0.5"/>
<path d="M255.58 215.25L263.15 220.31"
fill="none" stroke="black" stroke-width="0.5"/>
<path d="M263.15 220.31L270.5 225.7"
fill="none" stroke="black" stroke-width="0.5"/>
<path d="M270.5 225.7L277.61 231.41"
fill="none" stroke="black" stroke-width="0.5"/>
<path d="M277.61 231.41L284.47 237.42"
fill="none" stroke="black" stroke-width="0.5"/>
<path d="M284.47 237.42L291.05 243.72"
fill="none" stroke="black" stroke-width="0.5"/>
<path d="M291.05 243.72L297.35 250.3"
fill="none" stroke="black" stroke-width="0.5"/>
<path d="M297.35 250.3L303.36 257.15"
fill="none" stroke="black" stroke-width="0.5"/>
<path d="M303.36 257.15L309.07 264.26"
fill="none" stroke="black" stroke-width="0.5"/>
<path d="M309.07 264.26L314.46 271.61"
fill="none" stroke="black" stroke-width="0.5"/>
<path d="M314.46 271.61L319.52 279.19"
fill="none" stroke="black" stroke-width="0.5"/>
<path d="M319.52 279.19L324.25 286.98"
fill="none" stroke="black" stroke-width="0.5"/>
<path d="M324.25 286.98L328.63 294.98"
fill="none" stroke="black" stroke-width="0.5"/>
<path d="M328.63 294.98L332.66 303.15"
fill="none" stroke="black" stroke-width="0.5"/>
<path d="M332.66 303.15L336.33 311.49"
fill="none" stroke="black" stroke-width="0.5"/>
<path d="M336.33 311.49L339.64 319.99"
fill="none" stroke="black" stroke-width="0.5"/>
<path d="M339.64 319.99L342.57 328.62"
fill="none" stroke="black" stroke-width="0.5"/>
<path d="M342.57 328.62L345.12 337.37"
fill="none" stroke="black" stroke-width="0.5"/>
<path d="M345.12 337.37L347.29 346.22"
fill="none" stroke="black" stroke-width="0.5"/>
<path d="M347.29 346.22L349.06 355.16"
fill="none" stroke="black" stroke-width="0.5"/>
<path d="M349.06 355.16L350.45 364.17"
fill="none" stroke="black" stroke-width="0.5"/>
<path d="M350.45 364.17L351.44 373.23"
fill="none" stroke="black" stroke-width="0.5"/>
<path d="M351.44 373.23L352.04 382.32"
fill="none" stroke="black" stroke-width="0.5"/>
<path d="M352.04 382.32L352.24 391.44"
fill="none" stroke="black" stroke-width="0.5"/>
<path d="M357.77 391.44L357.57 400.66"
fill="none" stroke="black" stroke-width="0.5"/>
<path d="M357.57 400.66L356.98 409.87"
fill="none" stroke="black" stroke-width="0.5"/>
<path d="M356.98 409.87L355.99 419.05"
fill="none" stroke="black" stroke-width="0.5"/>
<path d="M355.99 419.05L354.6 428.17"
fill="none" stroke="black" stroke-width="0.5"/>
<path d="M354.6 428.17L352.83 437.22"
fill="none" stroke="black" stroke-width="0.5"/>
<path d="M352.83 437.22L350.66 446.2"
fill="none" stroke="black" stroke-width="0.5"/>
<path d="M350.66 446.2L348.11 455.06"
fill="none" stroke="black" stroke-width="0.5"/>
<path d="M348.11 455.06L345.19 463.82"
fill="none" stroke="black" stroke-width="0.5"/>
<path d="M345.19 463.82L341.89 472.43"
fill="none" stroke="black" stroke-width="0.5"/>
<path d="M341.89 472.43L338.22 480.9"
fill="none" stroke="black" stroke-width="0.5"/>
<path d="M338.22 480.9L334.19 489.2"
fill="none" stroke="black" stroke-width="0.5"/>
<path d="M334.19 489.2L329.81 497.32"
fill="none" stroke="black" stroke-width="0.5"/>
<path d="M329.81 497.32L325.08 505.25"
fill="none" stroke="black" stroke-width="0.5"/>
<path d="M325.08 505.25L320.01 512.96"
fill="none" stroke="black" stroke-width="0.5"/>
<path d="M320.01 512.96L314.62 520.45"
fill="none" stroke="black" stroke-width="0.5"/>
<path d="M314.62 520.45L308.91 527.7"
fill="none" stroke="black" stroke-width="0.5"/>
<path d="M308.91 527.7L302.9 534.7"
fill="none" stroke="black" stroke-width="0.5"/>
<path d="M302.9 534.7L296.59 541.43"
fill="none" stroke="black" stroke-width="0.5"/>
<path d="M296.59 541.43L289.99 547.88"
fill="none" stroke="black" stroke-width="0.5"/>
<path d="M289.99 547.88L283.12 554.05"
fill="none" stroke="black" stroke-width="0.5"/>
<path d="M283.12 554.05L276 559.91"
fill="none" stroke="black" stroke-width="0.5"/>
<path d="M276 559.91L268.63 565.46"
fill="none" stroke="black" stroke-width="0.5"/>
<path d="M268.63 565.46L261.02 570.69"
fill="none" stroke="black" stroke-width="0.5"/>
<path d="M261.02 570.69L253.2 575.59"
fill="none" stroke="black" stroke-width="0.5"/>
<path d="M253.2 575.59L245.18 580.15"
fill="none" stroke="black" stroke-width="0.5"/>
<path d="M245.18 580.15L236.97 584.35"
fill="none" stroke="black" stroke-width="0.5"/>
<path d="M236.97 584.35L228.58 588.2"
fill="none" stroke="black" stroke-width="0.5"/>
<path d="M228.58 588.2L220.04 591.69"
fill="none" stroke="black" stroke-width="0.5"/>
<path d="M220.04 591.69L211.35 594.8"
fill="none" stroke="black" stroke-width="0.5"/>
<path d="M211.35 594.8L202.54 597.54"
fill="none" stroke="black" stroke-width="0.5"/>
<path d="M202.54 597.54L193.62 599.9"
fill="none" stroke="black" stroke-width="0.5"/>
<path d="M193.62 599.9L193.15 600"
fill="none" stroke="black" stroke-width="0.5"/>
<path d="M93.51 600L93.05 599.9"
fill="none" stroke="black" stroke-width="0.5"/>
<path d="M93.05 599.9L84.12 597.54"
fill="none" stroke="black" stroke-width="0.5"/>
<path d="M84.12 597.54L75.31 594.8"
fill="none" stroke="black" stroke-width="0.5"/>
<path d="M75.31 594.8L66.63 591.69"
fill="none" stroke="black" stroke-width="0.5"/>
<path d="M66.63 591.69L58.08 588.2"
fill="none" stroke="black" stroke-width="0.5"/>
<path d="M58.08 588.2L49.7 584.35"
fill="none" stroke="black" stroke-width="0.5"/>
<path d="M49.7 584.35L41.48 580.15"
fill="none" stroke="black" stroke-width="0.5"/>
<path d="M41.48 580.15L33.46 575.59"
fill="none" stroke="black" stroke-width="0.5"/>
<path d="M33.46 575.59L25.64 570.69"
fill="none" stroke="black" stroke-width="0.5"/>
<path d="M25.64 570.69L18.03 565.46"
fill="none" stroke="black" stroke-width="0.5"/>
<path d="M18.03 565.46L10.66 559.91"
fill="none" stroke="black" stroke-width="0.5"/>
<path d="M10.66 559.91L3.54 554.05"
fill="none" stroke="black" stroke-width="0.5"/>
<path d="M3.54 554.05L0 550.87"
fill="none" stroke="black" stroke-width="0.5"/>
<path d="M0 232L3.54 228.83"
fill="none" stroke="black" stroke-width="0.5"/>
<path d="M3.54 228.83L10.66 222.96"
fill="none" stroke="black" stroke-width="0.5"/>
<path d="M10.66 222.96L18.03 217.41"
fill="none" stroke="black" stroke-width="0.5"/>
<path d="M18.03 217.41L25.64 212.18"
fill="none" stroke="black" stroke-width="0.5"/>
<path d="M25.64 212.18L33.46 207.28"
fill="none" stroke="black" stroke-width="0.5"/>
<path d="M33.46 207.28L41.48 202.73"
fill="none" stroke="black" stroke-width="0.5"/>
<path d="M41.48 202.73L49.7 198.52"
fill="none" stroke="black" stroke-width="0.5"/>
<path d="M49.7 198.52L58.08 194.67"
fill="none" stroke="black" stroke-width="0.5"/>
<path d="M58.08 194.67L66.63 191.18"
fill="none" stroke="black" stroke-width="0.5"/>
<path d="M66.63 191.18L75.31 188.07"
fill="none" stroke="black" stroke-width="0.5"/>
<path d="M75.31 188.07L84.12 185.33"
fill="none" stroke="black" stroke-width="0.5"/>
<path d="M84.12 185.33L93.05 182.98"
fill="none" stroke="black" stroke-width="0.5"/>
<path d="M93.05 182.98L102.06 181.01"
fill="none" stroke="black" stroke-width="0.5"/>
<path d="M102.06 181.01L111.15 179.42"
fill="none" stroke="black" stroke-width="0.5"/>
<path d="M111.15 179.42L120.3 178.24"
fill="none" stroke="black" stroke-width="0.5"/>
<path d="M120.3 178.24L129.5 177.44"
fill="none" stroke="black" stroke-width="0.5"/>
<path d="M129.5 177.44L138.72 177.05"
fill="none" stroke="black" stroke-width="0.5"/>
<path d="M138.72 177.05L147.94 177.05"
fill="none" stroke="black" stroke-width="0.5"/>
<path d="M147.94 177.05L157.16 177.44"
fill="none" stroke="black" stroke-width="0.5"/>
<path d="M157.16 177.44L166.36 178.24"
fill="none" stroke="black" stroke-width="0.5"/>
<path d="M166.36 178.24L175.51 179.42"
fill="none" stroke="black" stroke-width="0.5"/>
<path d="M175.51 179.42L184.6 181.01"
fill="none" stroke="black" stroke-width="0.5"/>
<path d="M184.6 181.01L193.62 182.98"
fill="none" stroke="black" stroke-width="0.5"/>
<path d="M193.62 182.98L202.54 185.33"
fill="none" stroke="black" stroke-width="0.5"/>
<path d="M202.54 185.33L211.35 188.07"
fill="none" stroke="black" stroke-width="0.5"/>
<path d="M211.35 188.07L220.04 191.18"
fill="none" stroke="black" stroke-width="0.5"/>
<path d="M220.04 191.18L228.58 194.67"
fill="none" stroke="black" stroke-width="0.5"/>
<path d="M228.58 194.67L236.97 198.52"
fill="none" stroke="black" stroke-width="0.5"/>
<path d="M236.97 198.52L245.18 202.73"
fill="none" stroke="black" stroke-width="0.5"/>
<path d="M245.18 202.73L253.2 207.28"
fill="none" stroke="black" stroke-width="0.5"/>
<path d="M253.2 207.28L261.02 212.18"
fill="none" stroke="black" stroke-width="0.5"/>
<path d="M261.02 212.18L268.63 217.41"
fill="none" stroke="black" stroke-width="0.5"/>
<path d="M268.63 217.41L276 222.96"
fill="none" stroke="black" stroke-width="0.5"/>
<path d="M276 222.96L283.12 228.83"
fill="none" stroke="black" stroke-width="0.5"/>
<path d="M283.12 228.83L289.99 234.99"
fill="none" stroke="black" stroke-width="0.5"/>
<path d="M289.99 234.99L296.59 241.45"
fill="none" stroke="black" stroke-width="0.5"/>
<path d="M296.59 241.45L302.9 248.18"
fill="none" stroke="black" stroke-width="0.5"/>
<path d="M302.9 248.18L308.91 255.17"
fill="none" stroke="black" stroke-width="0.5"/>
<path d="M308.91 255.17L314.62 262.42"
fill="none" stroke="black" stroke-width="0.5"/>
<path d="M314.62 262.42L320.01 269.91"
fill="none" stroke="black" stroke-width="0.5"/>
<path d="M320.01 269.91L325.08 277.63"
fill="none" stroke="black" stroke-width="0.5"/>
<path d="M325.08 277.63L329.81 285.55"
fill="none" stroke="black" stroke-width="0.5"/>
<path d="M329.81 285.55L334.19 293.67"
fill="none" stroke="black" stroke-width="0.5"/>
<path d="M334.19 293.67L338.22 301.97"
fill="none" stroke="black" stroke-width="0.5"/>
<path d="M338.22 301.97L341.89 310.44"
fill="none" stroke="black" stroke-width="0.5"/>
<path d="M341.89 310.44L345.19 319.06"
fill="none" stroke="black" stroke-width="0.5"/>
<path d="M345.19 319.06L348.11 327.81"
fill="none" stroke="black" stroke-width="0.5"/>
<path d="M348.11 327.81L350.66 336.68"
fill="none" stroke="black" stroke-width="0.5"/>
<path d="M350.66 336.68L352.83 345.65"
fill="none" stroke="black" stroke-width="0.5"/>
<path d="M352.83 345.65L354.6 354.71"
fill="none" stroke="black" stroke-width="0.5"/>
<path d="M354.6 354.71L355.99 363.83"
fill="none" stroke="black" stroke-width="0.5"/>
<path d="M355.99 363.83L356.98 373"
fill="none" stroke="black" stroke-width="0.5"/>
<path d="M356.98 373L357.57 382.21"
fill="none" stroke="black" stroke-width="0.5"/>
<path d="M357.57 382.21L357.77 391.44"
fill="none" stroke="black" stroke-width="0.5"/>
</svg>
