<?xml version="1.0" encoding="UTF-8"?>
<svg xmlns="http://www.w3.org/2000/svg" width="800.000" height="600.000" viewBox="0.0 0.0 800.000 600.000" version="1.1">
  <desc>Produce by Acme CAD Converter</desc>
<path d="M352.06 336.01L351.86 343.21"
fill="none" stroke="black" stroke-width="0.5"/>
<path d="M351.86 343.21L351.27 350.38"
fill="none" stroke="black" stroke-width="0.5"/>
<path d="M351.27 350.38L350.28 357.51"
fill="none" stroke="black" stroke-width="0.5"/>
<path d="M350.28 357.51L348.9 364.58"
fill="none" stroke="black" stroke-width="0.5"/>
<path d="M348.9 364.58L347.13 371.55"
fill="none" stroke="black" stroke-width="0.5"/>
<path d="M347.13 371.55L344.98 378.42"
fill="none" stroke="black" stroke-width="0.5"/>
<path d="M344.98 378.42L342.46 385.17"
fill="none" stroke="black" stroke-width="0.5"/>
<path d="M342.46 385.17L339.57 391.76"
fill="none" stroke="black" stroke-width="0.5"/>
<path d="M339.57 391.76L336.32 398.18"
fill="none" stroke="black" stroke-width="0.5"/>
<path d="M336.32 398.18L332.72 404.41"
fill="none" stroke="black" stroke-width="0.5"/>
<path d="M332.72 404.41L328.78 410.44"
fill="none" stroke="black" stroke-width="0.5"/>
<path d="M328.78 410.44L324.52 416.24"
fill="none" stroke="black" stroke-width="0.5"/>
<path d="M324.52 416.24L319.94 421.8"
fill="none" stroke="black" stroke-width="0.5"/>
<path d="M319.94 421.8L315.07 427.09"
fill="none" stroke="black" stroke-width="0.5"/>
<path d="M315.07 427.09L309.91 432.11"
fill="none" stroke="black" stroke-width="0.5"/>
<path d="M309.91 432.11L304.48 436.84"
fill="none" stroke="black" stroke-width="0.5"/>
<path d="M304.48 436.84L298.8 441.26"
fill="none" stroke="black" stroke-width="0.5"/>
<path d="M298.8 441.26L292.88 445.36"
fill="none" stroke="black" stroke-width="0.5"/>
<path d="M292.88 445.36L286.75 449.13"
fill="none" stroke="black" stroke-width="0.5"/>
<path d="M286.75 449.13L280.42 452.56"
fill="none" stroke="black" stroke-width="0.5"/>
<path d="M280.42 452.56L273.91 455.63"
fill="none" stroke="black" stroke-width="0.5"/>
<path d="M273.91 455.63L267.24 458.34"
fill="none" stroke="black" stroke-width="0.5"/>
<path d="M267.24 458.34L260.43 460.68"
fill="none" stroke="black" stroke-width="0.5"/>
<path d="M260.43 460.68L253.5 462.64"
fill="none" stroke="black" stroke-width="0.5"/>
<path d="M253.5 462.64L246.48 464.21"
fill="none" stroke="black" stroke-width="0.5"/>
<path d="M246.48 464.21L239.38 465.4"
fill="none" stroke="black" stroke-width="0.5"/>
<path d="M239.38 465.4L232.22 466.19"
fill="none" stroke="black" stroke-width="0.5"/>
<path d="M232.22 466.19L225.03 466.59"
fill="none" stroke="black" stroke-width="0.5"/>
<path d="M225.03 466.59L217.84 466.59"
fill="none" stroke="black" stroke-width="0.5"/>
<path d="M217.84 466.59L210.65 466.19"
fill="none" stroke="black" stroke-width="0.5"/>
<path d="M210.65 466.19L203.49 465.4"
fill="none" stroke="black" stroke-width="0.5"/>
<path d="M203.49 465.4L196.39 464.21"
fill="none" stroke="black" stroke-width="0.5"/>
<path d="M196.39 464.21L189.37 462.64"
fill="none" stroke="black" stroke-width="0.5"/>
<path d="M189.37 462.64L182.44 460.68"
fill="none" stroke="black" stroke-width="0.5"/>
<path d="M182.44 460.68L175.63 458.34"
fill="none" stroke="black" stroke-width="0.5"/>
<path d="M175.63 458.34L168.96 455.63"
fill="none" stroke="black" stroke-width="0.5"/>
<path d="M168.96 455.63L162.45 452.56"
fill="none" stroke="black" stroke-width="0.5"/>
<path d="M162.45 452.56L156.12 449.13"
fill="none" stroke="black" stroke-width="0.5"/>
<path d="M156.12 449.13L149.99 445.36"
fill="none" stroke="black" stroke-width="0.5"/>
<path d="M149.99 445.36L144.07 441.26"
fill="none" stroke="black" stroke-width="0.5"/>
<path d="M144.07 441.26L138.39 436.84"
fill="none" stroke="black" stroke-width="0.5"/>
<path d="M138.39 436.84L132.97 432.11"
fill="none" stroke="black" stroke-width="0.5"/>
<path d="M132.97 432.11L127.81 427.09"
fill="none" stroke="black" stroke-width="0.5"/>
<path d="M127.81 427.09L122.93 421.8"
fill="none" stroke="black" stroke-width="0.5"/>
<path d="M122.93 421.8L118.35 416.24"
fill="none" stroke="black" stroke-width="0.5"/>
<path d="M118.35 416.24L114.09 410.44"
fill="none" stroke="black" stroke-width="0.5"/>
<path d="M114.09 410.44L110.15 404.41"
fill="none" stroke="black" stroke-width="0.5"/>
<path d="M110.15 404.41L106.55 398.18"
fill="none" stroke="black" stroke-width="0.5"/>
<path d="M106.55 398.18L103.3 391.76"
fill="none" stroke="black" stroke-width="0.5"/>
<path d="M103.3 391.76L100.41 385.17"
fill="none" stroke="black" stroke-width="0.5"/>
<path d="M100.41 385.17L97.89 378.42"
fill="none" stroke="black" stroke-width="0.5"/>
<path d="M97.89 378.42L95.74 371.55"
fill="none" stroke="black" stroke-width="0.5"/>
<path d="M95.74 371.55L93.97 364.58"
fill="none" stroke="black" stroke-width="0.5"/>
<path d="M93.97 364.58L92.59 357.51"
fill="none" stroke="black" stroke-width="0.5"/>
<path d="M92.59 357.51L91.6 350.38"
fill="none" stroke="black" stroke-width="0.5"/>
<path d="M91.6 350.38L91.01 343.21"
fill="none" stroke="black" stroke-width="0.5"/>
<path d="M91.01 343.21L90.81 336.01"
fill="none" stroke="black" stroke-width="0.5"/>
<path d="M90.81 336.01L91.01 328.81"
fill="none" stroke="black" stroke-width="0.5"/>
<path d="M91.01 328.81L91.6 321.64"
fill="none" stroke="black" stroke-width="0.5"/>
<path d="M91.6 321.64L92.59 314.51"
fill="none" stroke="black" stroke-width="0.5"/>
<path d="M92.59 314.51L93.97 307.44"
fill="none" stroke="black" stroke-width="0.5"/>
<path d="M93.97 307.44L95.74 300.47"
fill="none" stroke="black" stroke-width="0.5"/>
<path d="M95.74 300.47L97.89 293.6"
fill="none" stroke="black" stroke-width="0.5"/>
<path d="M97.89 293.6L100.41 286.85"
fill="none" stroke="black" stroke-width="0.5"/>
<path d="M100.41 286.85L103.3 280.26"
fill="none" stroke="black" stroke-width="0.5"/>
<path d="M103.3 280.26L106.55 273.84"
fill="none" stroke="black" stroke-width="0.5"/>
<path d="M106.55 273.84L110.15 267.61"
fill="none" stroke="black" stroke-width="0.5"/>
<path d="M110.15 267.61L114.09 261.58"
fill="none" stroke="black" stroke-width="0.5"/>
<path d="M114.09 261.58L118.35 255.78"
fill="none" stroke="black" stroke-width="0.5"/>
<path d="M118.35 255.78L122.93 250.22"
fill="none" stroke="black" stroke-width="0.5"/>
<path d="M122.93 250.22L127.81 244.93"
fill="none" stroke="black" stroke-width="0.5"/>
<path d="M127.81 244.93L132.97 239.91"
fill="none" stroke="black" stroke-width="0.5"/>
<path d="M132.97 239.91L138.39 235.18"
fill="none" stroke="black" stroke-width="0.5"/>
<path d="M138.39 235.18L144.07 230.76"
fill="none" stroke="black" stroke-width="0.5"/>
<path d="M144.07 230.76L149.99 226.66"
fill="none" stroke="black" stroke-width="0.5"/>
<path d="M149.99 226.66L156.12 222.89"
fill="none" stroke="black" stroke-width="0.5"/>
<path d="M156.12 222.89L162.45 219.46"
fill="none" stroke="black" stroke-width="0.5"/>
<path d="M162.45 219.46L168.96 216.39"
fill="none" stroke="black" stroke-width="0.5"/>
<path d="M168.96 216.39L175.63 213.68"
fill="none" stroke="black" stroke-width="0.5"/>
<path d="M175.63 213.68L182.44 211.34"
fill="none" stroke="black" stroke-width="0.5"/>
<path d="M182.44 211.34L189.37 209.38"
fill="none" stroke="black" stroke-width="0.5"/>
<path d="M189.37 209.38L196.39 207.81"
fill="none" stroke="black" stroke-width="0.5"/>
<path d="M196.39 207.81L203.49 206.62"
fill="none" stroke="black" stroke-width="0.5"/>
<path d="M203.49 206.62L210.65 205.83"
fill="none" stroke="black" stroke-width="0.5"/>
<path d="M210.65 205.83L217.84 205.43"
fill="none" stroke="black" stroke-width="0.5"/>
<path d="M217.84 205.43L225.03 205.43"
fill="none" stroke="black" stroke-width="0.5"/>
<path d="M225.03 205.43L232.22 205.83"
fill="none" stroke="black" stroke-width="0.5"/>
<path d="M232.22 205.83L239.38 206.62"
fill="none" stroke="black" stroke-width="0.5"/>
<path d="M239.38 206.62L246.48 207.81"
fill="none" stroke="black" stroke-width="0.5"/>
<path d="M246.48 207.81L253.5 209.38"
fill="none" stroke="black" stroke-width="0.5"/>
<path d="M253.5 209.38L260.43 211.34"
fill="none" stroke="black" stroke-width="0.5"/>
<path d="M260.43 211.34L267.24 213.68"
fill="none" stroke="black" stroke-width="0.5"/>
<path d="M267.24 213.68L273.91 216.39"
fill="none" stroke="black" stroke-width="0.5"/>
<path d="M273.91 216.39L280.42 219.46"
fill="none" stroke="black" stroke-width="0.5"/>
<path d="M280.42 219.46L286.75 222.89"
fill="none" stroke="black" stroke-width="0.5"/>
<path d="M286.75 222.89L292.88 226.66"
fill="none" stroke="black" stroke-width="0.5"/>
<path d="M292.88 226.66L298.8 230.76"
fill="none" stroke="black" stroke-width="0.5"/>
<path d="M298.8 230.76L304.48 235.18"
fill="none" stroke="black" stroke-width="0.5"/>
<path d="M304.48 235.18L309.91 239.91"
fill="none" stroke="black" stroke-width="0.5"/>
<path d="M309.91 239.91L315.07 244.93"
fill="none" stroke="black" stroke-width="0.5"/>
<path d="M315.07 244.93L319.94 250.22"
fill="none" stroke="black" stroke-width="0.5"/>
<path d="M319.94 250.22L324.52 255.78"
fill="none" stroke="black" stroke-width="0.5"/>
<path d="M324.52 255.78L328.78 261.58"
fill="none" stroke="black" stroke-width="0.5"/>
<path d="M328.78 261.58L332.72 267.61"
fill="none" stroke="black" stroke-width="0.5"/>
<path d="M332.72 267.61L336.32 273.84"
fill="none" stroke="black" stroke-width="0.5"/>
<path d="M336.32 273.84L339.57 280.26"
fill="none" stroke="black" stroke-width="0.5"/>
<path d="M339.57 280.26L342.46 286.85"
fill="none" stroke="black" stroke-width="0.5"/>
<path d="M342.46 286.85L344.98 293.6"
fill="none" stroke="black" stroke-width="0.5"/>
<path d="M344.98 293.6L347.13 300.47"
fill="none" stroke="black" stroke-width="0.5"/>
<path d="M347.13 300.47L348.9 307.44"
fill="none" stroke="black" stroke-width="0.5"/>
<path d="M348.9 307.44L350.28 314.51"
fill="none" stroke="black" stroke-width="0.5"/>
<path d="M350.28 314.51L351.27 321.64"
fill="none" stroke="black" stroke-width="0.5"/>
<path d="M351.27 321.64L351.86 328.81"
fill="none" stroke="black" stroke-width="0.5"/>
<path d="M351.86 328.81L352.06 336.01"
fill="none" stroke="black" stroke-width="0.5"/>
<path d="M349.39 336.01L349.2 343.12"
fill="none" stroke="black" stroke-width="0.5"/>
<path d="M349.2 343.12L348.6 350.21"
fill="none" stroke="black" stroke-width="0.5"/>
<path d="M348.6 350.21L347.62 357.26"
fill="none" stroke="black" stroke-width="0.5"/>
<path d="M347.62 357.26L346.24 364.24"
fill="none" stroke="black" stroke-width="0.5"/>
<path d="M346.24 364.24L344.48 371.13"
fill="none" stroke="black" stroke-width="0.5"/>
<path d="M344.48 371.13L342.34 377.91"
fill="none" stroke="black" stroke-width="0.5"/>
<path d="M342.34 377.91L339.82 384.57"
fill="none" stroke="black" stroke-width="0.5"/>
<path d="M339.82 384.57L336.94 391.07"
fill="none" stroke="black" stroke-width="0.5"/>
<path d="M336.94 391.07L333.7 397.41"
fill="none" stroke="black" stroke-width="0.5"/>
<path d="M333.7 397.41L330.12 403.55"
fill="none" stroke="black" stroke-width="0.5"/>
<path d="M330.12 403.55L326.2 409.49"
fill="none" stroke="black" stroke-width="0.5"/>
<path d="M326.2 409.49L321.95 415.19"
fill="none" stroke="black" stroke-width="0.5"/>
<path d="M321.95 415.19L317.4 420.66"
fill="none" stroke="black" stroke-width="0.5"/>
<path d="M317.4 420.66L312.54 425.86"
fill="none" stroke="black" stroke-width="0.5"/>
<path d="M312.54 425.86L307.41 430.78"
fill="none" stroke="black" stroke-width="0.5"/>
<path d="M307.41 430.78L302.01 435.42"
fill="none" stroke="black" stroke-width="0.5"/>
<path d="M302.01 435.42L296.36 439.74"
fill="none" stroke="black" stroke-width="0.5"/>
<path d="M296.36 439.74L290.48 443.74"
fill="none" stroke="black" stroke-width="0.5"/>
<path d="M290.48 443.74L284.39 447.41"
fill="none" stroke="black" stroke-width="0.5"/>
<path d="M284.39 447.41L278.1 450.74"
fill="none" stroke="black" stroke-width="0.5"/>
<path d="M278.1 450.74L271.63 453.71"
fill="none" stroke="black" stroke-width="0.5"/>
<path d="M271.63 453.71L265.01 456.32"
fill="none" stroke="black" stroke-width="0.5"/>
<path d="M265.01 456.32L258.26 458.56"
fill="none" stroke="black" stroke-width="0.5"/>
<path d="M258.26 458.56L251.39 460.41"
fill="none" stroke="black" stroke-width="0.5"/>
<path d="M251.39 460.41L244.43 461.89"
fill="none" stroke="black" stroke-width="0.5"/>
<path d="M244.43 461.89L237.4 462.97"
fill="none" stroke="black" stroke-width="0.5"/>
<path d="M237.4 462.97L230.32 463.66"
fill="none" stroke="black" stroke-width="0.5"/>
<path d="M230.32 463.66L223.21 463.96"
fill="none" stroke="black" stroke-width="0.5"/>
<path d="M223.21 463.96L216.1 463.86"
fill="none" stroke="black" stroke-width="0.5"/>
<path d="M216.1 463.86L209 463.36"
fill="none" stroke="black" stroke-width="0.5"/>
<path d="M209 463.36L201.95 462.48"
fill="none" stroke="black" stroke-width="0.5"/>
<path d="M201.95 462.48L194.95 461.2"
fill="none" stroke="black" stroke-width="0.5"/>
<path d="M194.95 461.2L188.03 459.53"
fill="none" stroke="black" stroke-width="0.5"/>
<path d="M188.03 459.53L181.22 457.48"
fill="none" stroke="black" stroke-width="0.5"/>
<path d="M181.22 457.48L174.53 455.06"
fill="none" stroke="black" stroke-width="0.5"/>
<path d="M174.53 455.06L167.99 452.27"
fill="none" stroke="black" stroke-width="0.5"/>
<path d="M167.99 452.27L161.61 449.12"
fill="none" stroke="black" stroke-width="0.5"/>
<path d="M161.61 449.12L155.41 445.62"
fill="none" stroke="black" stroke-width="0.5"/>
<path d="M155.41 445.62L149.42 441.78"
fill="none" stroke="black" stroke-width="0.5"/>
<path d="M149.42 441.78L143.66 437.62"
fill="none" stroke="black" stroke-width="0.5"/>
<path d="M143.66 437.62L138.13 433.14"
fill="none" stroke="black" stroke-width="0.5"/>
<path d="M138.13 433.14L132.86 428.36"
fill="none" stroke="black" stroke-width="0.5"/>
<path d="M132.86 428.36L127.87 423.29"
fill="none" stroke="black" stroke-width="0.5"/>
<path d="M127.87 423.29L123.16 417.96"
fill="none" stroke="black" stroke-width="0.5"/>
<path d="M123.16 417.96L118.76 412.37"
fill="none" stroke="black" stroke-width="0.5"/>
<path d="M118.76 412.37L114.67 406.54"
fill="none" stroke="black" stroke-width="0.5"/>
<path d="M114.67 406.54L110.92 400.5"
fill="none" stroke="black" stroke-width="0.5"/>
<path d="M110.92 400.5L107.5 394.26"
fill="none" stroke="black" stroke-width="0.5"/>
<path d="M107.5 394.26L104.44 387.84"
fill="none" stroke="black" stroke-width="0.5"/>
<path d="M104.44 387.84L101.74 381.26"
fill="none" stroke="black" stroke-width="0.5"/>
<path d="M101.74 381.26L99.41 374.54"
fill="none" stroke="black" stroke-width="0.5"/>
<path d="M99.41 374.54L97.46 367.69"
fill="none" stroke="black" stroke-width="0.5"/>
<path d="M97.46 367.69L95.89 360.76"
fill="none" stroke="black" stroke-width="0.5"/>
<path d="M95.89 360.76L94.71 353.74"
fill="none" stroke="black" stroke-width="0.5"/>
<path d="M94.71 353.74L93.92 346.67"
fill="none" stroke="black" stroke-width="0.5"/>
<path d="M93.92 346.67L93.53 339.57"
fill="none" stroke="black" stroke-width="0.5"/>
<path d="M93.53 339.57L93.53 332.45Z"
fill="none" stroke="black" stroke-width="0.5"/>
<path d="M93.53 332.45L93.92 325.35"
fill="none" stroke="black" stroke-width="0.5"/>
<path d="M93.92 325.35L94.71 318.28"
fill="none" stroke="black" stroke-width="0.5"/>
<path d="M94.71 318.28L95.89 311.26"
fill="none" stroke="black" stroke-width="0.5"/>
<path d="M95.89 311.26L97.46 304.33"
fill="none" stroke="black" stroke-width="0.5"/>
<path d="M97.46 304.33L99.41 297.48"
fill="none" stroke="black" stroke-width="0.5"/>
<path d="M99.41 297.48L101.74 290.76"
fill="none" stroke="black" stroke-width="0.5"/>
<path d="M101.74 290.76L104.44 284.18"
fill="none" stroke="black" stroke-width="0.5"/>
<path d="M104.44 284.18L107.5 277.76"
fill="none" stroke="black" stroke-width="0.5"/>
<path d="M107.5 277.76L110.92 271.52"
fill="none" stroke="black" stroke-width="0.5"/>
<path d="M110.92 271.52L114.67 265.48"
fill="none" stroke="black" stroke-width="0.5"/>
<path d="M114.67 265.48L118.76 259.65"
fill="none" stroke="black" stroke-width="0.5"/>
<path d="M118.76 259.65L123.16 254.06"
fill="none" stroke="black" stroke-width="0.5"/>
<path d="M123.16 254.06L127.87 248.73"
fill="none" stroke="black" stroke-width="0.5"/>
<path d="M127.87 248.73L132.86 243.66"
fill="none" stroke="black" stroke-width="0.5"/>
<path d="M132.86 243.66L138.13 238.88"
fill="none" stroke="black" stroke-width="0.5"/>
<path d="M138.13 238.88L143.66 234.4"
fill="none" stroke="black" stroke-width="0.5"/>
<path d="M143.66 234.4L149.42 230.24"
fill="none" stroke="black" stroke-width="0.5"/>
<path d="M149.42 230.24L155.41 226.4"
fill="none" stroke="black" stroke-width="0.5"/>
<path d="M155.41 226.4L161.61 222.9"
fill="none" stroke="black" stroke-width="0.5"/>
<path d="M161.61 222.9L167.99 219.75"
fill="none" stroke="black" stroke-width="0.5"/>
<path d="M167.99 219.75L174.53 216.96"
fill="none" stroke="black" stroke-width="0.5"/>
<path d="M174.53 216.96L181.22 214.54"
fill="none" stroke="black" stroke-width="0.5"/>
<path d="M181.22 214.54L188.03 212.49"
fill="none" stroke="black" stroke-width="0.5"/>
<path d="M188.03 212.49L194.95 210.82"
fill="none" stroke="black" stroke-width="0.5"/>
<path d="M194.95 210.82L201.95 209.54"
fill="none" stroke="black" stroke-width="0.5"/>
<path d="M201.95 209.54L209 208.66"
fill="none" stroke="black" stroke-width="0.5"/>
<path d="M209 208.66L216.1 208.16"
fill="none" stroke="black" stroke-width="0.5"/>
<path d="M216.1 208.16L223.21 208.06"
fill="none" stroke="black" stroke-width="0.5"/>
<path d="M223.21 208.06L230.32 208.36"
fill="none" stroke="black" stroke-width="0.5"/>
<path d="M230.32 208.36L237.4 209.05"
fill="none" stroke="black" stroke-width="0.5"/>
<path d="M237.4 209.05L244.43 210.13"
fill="none" stroke="black" stroke-width="0.5"/>
<path d="M244.43 210.13L251.39 211.61"
fill="none" stroke="black" stroke-width="0.5"/>
<path d="M251.39 211.61L258.26 213.46"
fill="none" stroke="black" stroke-width="0.5"/>
<path d="M258.26 213.46L265.01 215.7"
fill="none" stroke="black" stroke-width="0.5"/>
<path d="M265.01 215.7L271.63 218.31"
fill="none" stroke="black" stroke-width="0.5"/>
<path d="M271.63 218.31L278.1 221.28"
fill="none" stroke="black" stroke-width="0.5"/>
<path d="M278.1 221.28L284.39 224.61"
fill="none" stroke="black" stroke-width="0.5"/>
<path d="M284.39 224.61L290.48 228.28"
fill="none" stroke="black" stroke-width="0.5"/>
<path d="M290.48 228.28L296.36 232.28"
fill="none" stroke="black" stroke-width="0.5"/>
<path d="M296.36 232.28L302.01 236.6"
fill="none" stroke="black" stroke-width="0.5"/>
<path d="M302.01 236.6L307.41 241.24"
fill="none" stroke="black" stroke-width="0.5"/>
<path d="M307.41 241.24L312.54 246.16"
fill="none" stroke="black" stroke-width="0.5"/>
<path d="M312.54 246.16L317.4 251.36"
fill="none" stroke="black" stroke-width="0.5"/>
<path d="M317.4 251.36L321.95 256.83"
fill="none" stroke="black" stroke-width="0.5"/>
<path d="M321.95 256.83L326.2 262.53"
fill="none" stroke="black" stroke-width="0.5"/>
<path d="M326.2 262.53L330.12 268.47"
fill="none" stroke="black" stroke-width="0.5"/>
<path d="M330.12 268.47L333.7 274.61"
fill="none" stroke="black" stroke-width="0.5"/>
<path d="M333.7 274.61L336.94 280.95"
fill="none" stroke="black" stroke-width="0.5"/>
<path d="M336.94 280.95L339.82 287.45"
fill="none" stroke="black" stroke-width="0.5"/>
<path d="M339.82 287.45L342.34 294.11"
fill="none" stroke="black" stroke-width="0.5"/>
<path d="M342.34 294.11L344.48 300.89"
fill="none" stroke="black" stroke-width="0.5"/>
<path d="M344.48 300.89L346.24 307.78"
fill="none" stroke="black" stroke-width="0.5"/>
<path d="M346.24 307.78L347.62 314.76"
fill="none" stroke="black" stroke-width="0.5"/>
<path d="M347.62 314.76L348.6 321.81"
fill="none" stroke="black" stroke-width="0.5"/>
<path d="M348.6 321.81L349.2 328.9"
fill="none" stroke="black" stroke-width="0.5"/>
<path d="M349.2 328.9L349.39 336.01"
fill="none" stroke="black" stroke-width="0.5"/>
</svg>
