<?xml version="1.0" encoding="UTF-8"?>
<svg xmlns="http://www.w3.org/2000/svg" width="800.000" height="600.000" viewBox="0.0 0.0 800.000 600.000" version="1.1">
  <desc>Produce by Acme CAD Converter</desc>
<path d="M251.38 280.96L260.21 280.96"
fill="none" stroke="black" stroke-width="0.5"/>
<path d="M251.38 280.96L251.38 280.96Z"
fill="none" stroke="black" stroke-width="0.5"/>
<path d="M260.21 280.96L260.21 280.96Z"
fill="none" stroke="black" stroke-width="0.5"/>
<path d="M251.38 280.96L260.21 280.96"
fill="none" stroke="black" stroke-width="0.5"/>
<path d="M260.21 280.96L260.21 289.79Z"
fill="none" stroke="black" stroke-width="0.5"/>
<path d="M260.21 280.96L260.21 280.96Z"
fill="none" stroke="black" stroke-width="0.5"/>
<path d="M260.21 289.79L260.21 289.79Z"
fill="none" stroke="black" stroke-width="0.5"/>
<path d="M260.21 280.96L260.21 289.79Z"
fill="none" stroke="black" stroke-width="0.5"/>
<path d="M260.21 289.79L260.21 280.96Z"
fill="none" stroke="black" stroke-width="0.5"/>
<path d="M260.21 289.79L260.21 289.79Z"
fill="none" stroke="black" stroke-width="0.5"/>
<path d="M260.21 280.96L260.21 280.96Z"
fill="none" stroke="black" stroke-width="0.5"/>
<path d="M260.21 289.79L260.21 280.96Z"
fill="none" stroke="black" stroke-width="0.5"/>
<path d="M260.21 280.96L251.38 280.96"
fill="none" stroke="black" stroke-width="0.5"/>
<path d="M260.21 280.96L260.21 280.96Z"
fill="none" stroke="black" stroke-width="0.5"/>
<path d="M251.38 280.96L251.38 280.96Z"
fill="none" stroke="black" stroke-width="0.5"/>
<path d="M260.21 280.96L251.38 280.96"
fill="none" stroke="black" stroke-width="0.5"/>
<path d="M251.38 280.96L251.38 289.79Z"
fill="none" stroke="black" stroke-width="0.5"/>
<path d="M251.38 280.96L251.38 280.96Z"
fill="none" stroke="black" stroke-width="0.5"/>
<path d="M251.38 289.79L251.38 289.79Z"
fill="none" stroke="black" stroke-width="0.5"/>
<path d="M251.38 280.96L251.38 289.79Z"
fill="none" stroke="black" stroke-width="0.5"/>
<path d="M251.38 289.79L260.21 289.79"
fill="none" stroke="black" stroke-width="0.5"/>
<path d="M251.38 289.79L251.38 289.79Z"
fill="none" stroke="black" stroke-width="0.5"/>
<path d="M260.21 289.79L260.21 289.79Z"
fill="none" stroke="black" stroke-width="0.5"/>
<path d="M251.38 289.79L260.21 289.79"
fill="none" stroke="black" stroke-width="0.5"/>
<path d="M251.38 369.27L251.38 360.44Z"
fill="none" stroke="black" stroke-width="0.5"/>
<path d="M251.38 369.27L251.38 369.27Z"
fill="none" stroke="black" stroke-width="0.5"/>
<path d="M251.38 360.44L251.38 360.44Z"
fill="none" stroke="black" stroke-width="0.5"/>
<path d="M251.38 369.27L251.38 360.44Z"
fill="none" stroke="black" stroke-width="0.5"/>
<path d="M251.38 360.44L260.21 360.44"
fill="none" stroke="black" stroke-width="0.5"/>
<path d="M251.38 360.44L251.38 360.44Z"
fill="none" stroke="black" stroke-width="0.5"/>
<path d="M260.21 360.44L260.21 360.44Z"
fill="none" stroke="black" stroke-width="0.5"/>
<path d="M251.38 360.44L260.21 360.44"
fill="none" stroke="black" stroke-width="0.5"/>
<path d="M260.21 360.44L260.21 369.27Z"
fill="none" stroke="black" stroke-width="0.5"/>
<path d="M260.21 360.44L260.21 360.44Z"
fill="none" stroke="black" stroke-width="0.5"/>
<path d="M260.21 369.27L260.21 369.27Z"
fill="none" stroke="black" stroke-width="0.5"/>
<path d="M260.21 360.44L260.21 369.27Z"
fill="none" stroke="black" stroke-width="0.5"/>
<path d="M260.21 369.27L251.38 369.27"
fill="none" stroke="black" stroke-width="0.5"/>
<path d="M260.21 369.27L260.21 369.27Z"
fill="none" stroke="black" stroke-width="0.5"/>
<path d="M251.38 369.27L251.38 369.27Z"
fill="none" stroke="black" stroke-width="0.5"/>
<path d="M260.21 369.27L251.38 369.27"
fill="none" stroke="black" stroke-width="0.5"/>
<path d="M304.37 369.27L295.53 369.27"
fill="none" stroke="black" stroke-width="0.5"/>
<path d="M304.37 369.27L304.37 369.27Z"
fill="none" stroke="black" stroke-width="0.5"/>
<path d="M295.53 369.27L295.53 369.27Z"
fill="none" stroke="black" stroke-width="0.5"/>
<path d="M304.37 369.27L295.53 369.27"
fill="none" stroke="black" stroke-width="0.5"/>
<path d="M295.53 369.27L295.53 360.44Z"
fill="none" stroke="black" stroke-width="0.5"/>
<path d="M295.53 369.27L295.53 369.27Z"
fill="none" stroke="black" stroke-width="0.5"/>
<path d="M295.53 360.44L295.53 360.44Z"
fill="none" stroke="black" stroke-width="0.5"/>
<path d="M295.53 369.27L295.53 360.44Z"
fill="none" stroke="black" stroke-width="0.5"/>
<path d="M295.53 360.44L304.37 360.44"
fill="none" stroke="black" stroke-width="0.5"/>
<path d="M295.53 360.44L295.53 360.44Z"
fill="none" stroke="black" stroke-width="0.5"/>
<path d="M304.37 360.44L304.37 360.44Z"
fill="none" stroke="black" stroke-width="0.5"/>
<path d="M295.53 360.44L304.37 360.44"
fill="none" stroke="black" stroke-width="0.5"/>
<path d="M304.37 369.27L304.37 360.44Z"
fill="none" stroke="black" stroke-width="0.5"/>
<path d="M304.37 369.27L304.37 369.27Z"
fill="none" stroke="black" stroke-width="0.5"/>
<path d="M304.37 360.44L304.37 360.44Z"
fill="none" stroke="black" stroke-width="0.5"/>
<path d="M304.37 369.27L304.37 360.44Z"
fill="none" stroke="black" stroke-width="0.5"/>
<path d="M295.53 289.79L304.37 289.79"
fill="none" stroke="black" stroke-width="0.5"/>
<path d="M295.53 289.79L295.53 289.79Z"
fill="none" stroke="black" stroke-width="0.5"/>
<path d="M304.37 289.79L304.37 289.79Z"
fill="none" stroke="black" stroke-width="0.5"/>
<path d="M295.53 289.79L304.37 289.79"
fill="none" stroke="black" stroke-width="0.5"/>
<path d="M304.37 289.79L304.37 280.96Z"
fill="none" stroke="black" stroke-width="0.5"/>
<path d="M304.37 289.79L304.37 289.79Z"
fill="none" stroke="black" stroke-width="0.5"/>
<path d="M304.37 280.96L304.37 280.96Z"
fill="none" stroke="black" stroke-width="0.5"/>
<path d="M304.37 289.79L304.37 280.96Z"
fill="none" stroke="black" stroke-width="0.5"/>
<path d="M304.37 280.96L295.53 280.96"
fill="none" stroke="black" stroke-width="0.5"/>
<path d="M304.37 280.96L304.37 280.96Z"
fill="none" stroke="black" stroke-width="0.5"/>
<path d="M295.53 280.96L295.53 280.96Z"
fill="none" stroke="black" stroke-width="0.5"/>
<path d="M304.37 280.96L295.53 280.96"
fill="none" stroke="black" stroke-width="0.5"/>
<path d="M295.53 280.96L295.53 289.79Z"
fill="none" stroke="black" stroke-width="0.5"/>
<path d="M295.53 280.96L295.53 280.96Z"
fill="none" stroke="black" stroke-width="0.5"/>
<path d="M295.53 289.79L295.53 289.79Z"
fill="none" stroke="black" stroke-width="0.5"/>
<path d="M295.53 280.96L295.53 289.79Z"
fill="none" stroke="black" stroke-width="0.5"/>
<path d="M251.38 289.79L251.38 360.44Z"
fill="none" stroke="black" stroke-width="0.5"/>
<path d="M251.38 289.79L251.38 289.79Z"
fill="none" stroke="black" stroke-width="0.5"/>
<path d="M251.38 360.44L251.38 360.44Z"
fill="none" stroke="black" stroke-width="0.5"/>
<path d="M251.38 289.79L251.38 360.44Z"
fill="none" stroke="black" stroke-width="0.5"/>
<path d="M251.38 360.44L304.37 360.44"
fill="none" stroke="black" stroke-width="0.5"/>
<path d="M251.38 360.44L251.38 360.44Z"
fill="none" stroke="black" stroke-width="0.5"/>
<path d="M304.37 360.44L304.37 360.44Z"
fill="none" stroke="black" stroke-width="0.5"/>
<path d="M251.38 360.44L304.37 360.44"
fill="none" stroke="black" stroke-width="0.5"/>
<path d="M304.37 360.44L304.37 289.79Z"
fill="none" stroke="black" stroke-width="0.5"/>
<path d="M304.37 360.44L304.37 360.44Z"
fill="none" stroke="black" stroke-width="0.5"/>
<path d="M304.37 289.79L304.37 289.79Z"
fill="none" stroke="black" stroke-width="0.5"/>
<path d="M304.37 360.44L304.37 289.79Z"
fill="none" stroke="black" stroke-width="0.5"/>
<path d="M304.37 289.79L260.21 289.79"
fill="none" stroke="black" stroke-width="0.5"/>
<path d="M304.37 289.79L304.37 289.79Z"
fill="none" stroke="black" stroke-width="0.5"/>
<path d="M260.21 289.79L260.21 289.79Z"
fill="none" stroke="black" stroke-width="0.5"/>
<path d="M304.37 289.79L260.21 289.79"
fill="none" stroke="black" stroke-width="0.5"/>
<path d="M260.21 289.79L260.21 369.27Z"
fill="none" stroke="black" stroke-width="0.5"/>
<path d="M260.21 289.79L260.21 289.79Z"
fill="none" stroke="black" stroke-width="0.5"/>
<path d="M260.21 369.27L260.21 369.27Z"
fill="none" stroke="black" stroke-width="0.5"/>
<path d="M260.21 289.79L260.21 369.27Z"
fill="none" stroke="black" stroke-width="0.5"/>
<path d="M260.21 369.27L295.53 369.27"
fill="none" stroke="black" stroke-width="0.5"/>
<path d="M260.21 369.27L260.21 369.27Z"
fill="none" stroke="black" stroke-width="0.5"/>
<path d="M295.53 369.27L295.53 369.27Z"
fill="none" stroke="black" stroke-width="0.5"/>
<path d="M260.21 369.27L295.53 369.27"
fill="none" stroke="black" stroke-width="0.5"/>
<path d="M295.53 369.27L295.53 280.96Z"
fill="none" stroke="black" stroke-width="0.5"/>
<path d="M295.53 369.27L295.53 369.27Z"
fill="none" stroke="black" stroke-width="0.5"/>
<path d="M295.53 280.96L295.53 280.96Z"
fill="none" stroke="black" stroke-width="0.5"/>
<path d="M295.53 369.27L295.53 280.96Z"
fill="none" stroke="black" stroke-width="0.5"/>
<path d="M295.53 280.96L260.21 280.96"
fill="none" stroke="black" stroke-width="0.5"/>
<path d="M295.53 280.96L295.53 280.96Z"
fill="none" stroke="black" stroke-width="0.5"/>
<path d="M260.21 280.96L260.21 280.96Z"
fill="none" stroke="black" stroke-width="0.5"/>
<path d="M295.53 280.96L260.21 280.96"
fill="none" stroke="black" stroke-width="0.5"/>
<path d="M233.71 386.94L233.71 263.29Z"
fill="none" stroke="black" stroke-width="0.5"/>
<path d="M233.71 386.94L233.71 386.94Z"
fill="none" stroke="black" stroke-width="0.5"/>
<path d="M233.71 263.29L233.71 263.29Z"
fill="none" stroke="black" stroke-width="0.5"/>
<path d="M233.71 386.94L233.71 263.29Z"
fill="none" stroke="black" stroke-width="0.5"/>
<path d="M322.03 263.29L322.03 386.94Z"
fill="none" stroke="black" stroke-width="0.5"/>
<path d="M322.03 263.29L322.03 263.29Z"
fill="none" stroke="black" stroke-width="0.5"/>
<path d="M322.03 386.94L322.03 386.94Z"
fill="none" stroke="black" stroke-width="0.5"/>
<path d="M322.03 263.29L322.03 386.94Z"
fill="none" stroke="black" stroke-width="0.5"/>
<path d="M322.03 386.94L233.71 386.94"
fill="none" stroke="black" stroke-width="0.5"/>
<path d="M322.03 386.94L322.03 386.94Z"
fill="none" stroke="black" stroke-width="0.5"/>
<path d="M233.71 386.94L233.71 386.94Z"
fill="none" stroke="black" stroke-width="0.5"/>
<path d="M322.03 386.94L233.71 386.94"
fill="none" stroke="black" stroke-width="0.5"/>
<path d="M233.71 263.29L322.03 263.29"
fill="none" stroke="black" stroke-width="0.5"/>
<path d="M233.71 263.29L233.71 263.29Z"
fill="none" stroke="black" stroke-width="0.5"/>
<path d="M322.03 263.29L322.03 263.29Z"
fill="none" stroke="black" stroke-width="0.5"/>
<path d="M233.71 263.29L322.03 263.29"
fill="none" stroke="black" stroke-width="0.5"/>
</svg>
