<?xml version="1.0" encoding="UTF-8"?>
<svg xmlns="http://www.w3.org/2000/svg" width="800.000" height="600.000" viewBox="0.0 0.0 800.000 600.000" version="1.1">
  <desc>Produce by Acme CAD Converter</desc>
<path d="M221.64 268.84L221.64 268.47Z"
fill="none" stroke="black" stroke-width="0.5"/>
<path d="M221.64 268.47L221.64 268.47Z"
fill="none" stroke="black" stroke-width="0.5"/>
<path d="M221.64 268.47L221.84 264.87"
fill="none" stroke="black" stroke-width="0.5"/>
<path d="M221.84 264.87L222.42 261.31"
fill="none" stroke="black" stroke-width="0.5"/>
<path d="M222.42 261.31L223.39 257.84"
fill="none" stroke="black" stroke-width="0.5"/>
<path d="M223.39 257.84L224.72 254.49"
fill="none" stroke="black" stroke-width="0.5"/>
<path d="M224.72 254.49L226.42 251.31"
fill="none" stroke="black" stroke-width="0.5"/>
<path d="M226.42 251.31L228.44 248.33"
fill="none" stroke="black" stroke-width="0.5"/>
<path d="M228.44 248.33L230.78 245.58"
fill="none" stroke="black" stroke-width="0.5"/>
<path d="M230.78 245.58L233.4 243.11"
fill="none" stroke="black" stroke-width="0.5"/>
<path d="M233.4 243.11L236.27 240.93"
fill="none" stroke="black" stroke-width="0.5"/>
<path d="M236.27 240.93L239.37 239.08"
fill="none" stroke="black" stroke-width="0.5"/>
<path d="M239.37 239.08L242.64 237.58"
fill="none" stroke="black" stroke-width="0.5"/>
<path d="M242.64 237.58L246.06 236.44"
fill="none" stroke="black" stroke-width="0.5"/>
<path d="M246.06 236.44L249.58 235.67"
fill="none" stroke="black" stroke-width="0.5"/>
<path d="M249.58 235.67L253.17 235.29"
fill="none" stroke="black" stroke-width="0.5"/>
<path d="M210.69 268.43L210.89 264.29"
fill="none" stroke="black" stroke-width="0.5"/>
<path d="M210.89 264.29L211.47 260.19"
fill="none" stroke="black" stroke-width="0.5"/>
<path d="M211.47 260.19L212.44 256.17"
fill="none" stroke="black" stroke-width="0.5"/>
<path d="M212.44 256.17L213.77 252.25"
fill="none" stroke="black" stroke-width="0.5"/>
<path d="M213.77 252.25L215.47 248.47"
fill="none" stroke="black" stroke-width="0.5"/>
<path d="M215.47 248.47L217.52 244.87"
fill="none" stroke="black" stroke-width="0.5"/>
<path d="M217.52 244.87L219.89 241.48"
fill="none" stroke="black" stroke-width="0.5"/>
<path d="M219.89 241.48L222.57 238.33"
fill="none" stroke="black" stroke-width="0.5"/>
<path d="M222.57 238.33L225.54 235.44"
fill="none" stroke="black" stroke-width="0.5"/>
<path d="M225.54 235.44L228.76 232.84"
fill="none" stroke="black" stroke-width="0.5"/>
<path d="M228.76 232.84L232.21 230.55"
fill="none" stroke="black" stroke-width="0.5"/>
<path d="M232.21 230.55L235.86 228.59"
fill="none" stroke="black" stroke-width="0.5"/>
<path d="M235.86 228.59L239.67 226.99"
fill="none" stroke="black" stroke-width="0.5"/>
<path d="M239.67 226.99L243.62 225.75"
fill="none" stroke="black" stroke-width="0.5"/>
<path d="M243.62 225.75L247.67 224.89"
fill="none" stroke="black" stroke-width="0.5"/>
<path d="M247.67 224.89L251.79 224.41"
fill="none" stroke="black" stroke-width="0.5"/>
<path d="M221.64 268.84L221.03 270.2"
fill="none" stroke="black" stroke-width="0.5"/>
<path d="M221.03 270.2L220.09 271.34"
fill="none" stroke="black" stroke-width="0.5"/>
<path d="M220.09 271.34L218.88 272.21"
fill="none" stroke="black" stroke-width="0.5"/>
<path d="M218.88 272.21L217.48 272.73"
fill="none" stroke="black" stroke-width="0.5"/>
<path d="M217.48 272.73L216 272.87"
fill="none" stroke="black" stroke-width="0.5"/>
<path d="M216 272.87L214.54 272.61"
fill="none" stroke="black" stroke-width="0.5"/>
<path d="M214.54 272.61L213.19 271.99"
fill="none" stroke="black" stroke-width="0.5"/>
<path d="M213.19 271.99L212.05 271.04"
fill="none" stroke="black" stroke-width="0.5"/>
<path d="M212.05 271.04L211.2 269.82"
fill="none" stroke="black" stroke-width="0.5"/>
<path d="M211.2 269.82L210.69 268.43"
fill="none" stroke="black" stroke-width="0.5"/>
<path d="M316.23 236.09L323.13 236.09"
fill="none" stroke="black" stroke-width="0.5"/>
<path d="M323.13 236.09L323.13 236.09Z"
fill="none" stroke="black" stroke-width="0.5"/>
<path d="M323.13 236.09L324.25 235.95"
fill="none" stroke="black" stroke-width="0.5"/>
<path d="M324.25 235.95L325.3 235.55"
fill="none" stroke="black" stroke-width="0.5"/>
<path d="M325.3 235.55L326.22 234.9"
fill="none" stroke="black" stroke-width="0.5"/>
<path d="M326.22 234.9L326.96 234.05"
fill="none" stroke="black" stroke-width="0.5"/>
<path d="M326.96 234.05L327.47 233.04"
fill="none" stroke="black" stroke-width="0.5"/>
<path d="M327.47 233.04L327.47 233.04Z"
fill="none" stroke="black" stroke-width="0.5"/>
<path d="M327.47 233.04L328.52 234.22"
fill="none" stroke="black" stroke-width="0.5"/>
<path d="M328.52 234.22L329.76 235.19"
fill="none" stroke="black" stroke-width="0.5"/>
<path d="M329.76 235.19L331.16 235.93"
fill="none" stroke="black" stroke-width="0.5"/>
<path d="M331.16 235.93L358.6 235.93"
fill="none" stroke="black" stroke-width="0.5"/>
<path d="M358.6 235.93L358.6 235.93Z"
fill="none" stroke="black" stroke-width="0.5"/>
<path d="M358.6 235.93L359.81 235.76"
fill="none" stroke="black" stroke-width="0.5"/>
<path d="M359.81 235.76L360.92 235.26"
fill="none" stroke="black" stroke-width="0.5"/>
<path d="M360.92 235.26L361.86 234.48"
fill="none" stroke="black" stroke-width="0.5"/>
<path d="M361.86 234.48L362.54 233.46"
fill="none" stroke="black" stroke-width="0.5"/>
<path d="M316.23 262.37L323.13 262.37"
fill="none" stroke="black" stroke-width="0.5"/>
<path d="M323.13 262.37L323.13 262.37Z"
fill="none" stroke="black" stroke-width="0.5"/>
<path d="M323.13 262.37L324.25 262.23"
fill="none" stroke="black" stroke-width="0.5"/>
<path d="M324.25 262.23L325.3 261.83"
fill="none" stroke="black" stroke-width="0.5"/>
<path d="M325.3 261.83L326.22 261.18"
fill="none" stroke="black" stroke-width="0.5"/>
<path d="M326.22 261.18L326.96 260.33"
fill="none" stroke="black" stroke-width="0.5"/>
<path d="M326.96 260.33L327.47 259.32"
fill="none" stroke="black" stroke-width="0.5"/>
<path d="M327.47 259.32L327.47 259.32Z"
fill="none" stroke="black" stroke-width="0.5"/>
<path d="M327.47 259.32L328.52 260.49"
fill="none" stroke="black" stroke-width="0.5"/>
<path d="M328.52 260.49L329.76 261.47"
fill="none" stroke="black" stroke-width="0.5"/>
<path d="M329.76 261.47L331.16 262.21"
fill="none" stroke="black" stroke-width="0.5"/>
<path d="M331.16 262.21L358.6 262.21"
fill="none" stroke="black" stroke-width="0.5"/>
<path d="M358.6 262.21L358.6 262.21Z"
fill="none" stroke="black" stroke-width="0.5"/>
<path d="M358.6 262.21L359.69 262.07"
fill="none" stroke="black" stroke-width="0.5"/>
<path d="M359.69 262.07L360.72 261.66"
fill="none" stroke="black" stroke-width="0.5"/>
<path d="M360.72 261.66L361.61 261.01"
fill="none" stroke="black" stroke-width="0.5"/>
<path d="M361.61 261.01L362.31 260.16"
fill="none" stroke="black" stroke-width="0.5"/>
<path d="M362.31 260.16L362.77 259.16"
fill="none" stroke="black" stroke-width="0.5"/>
<path d="M362.77 259.16L362.77 228.2Z"
fill="none" stroke="black" stroke-width="0.5"/>
<path d="M362.77 228.2L362.77 228.2Z"
fill="none" stroke="black" stroke-width="0.5"/>
<path d="M362.77 228.2L362.6 227.07"
fill="none" stroke="black" stroke-width="0.5"/>
<path d="M362.6 227.07L362.11 226.04"
fill="none" stroke="black" stroke-width="0.5"/>
<path d="M362.11 226.04L361.34 225.2"
fill="none" stroke="black" stroke-width="0.5"/>
<path d="M361.34 225.2L360.35 224.62"
fill="none" stroke="black" stroke-width="0.5"/>
<path d="M360.35 224.62L359.24 224.35"
fill="none" stroke="black" stroke-width="0.5"/>
<path d="M359.24 224.35L331.32 224.35"
fill="none" stroke="black" stroke-width="0.5"/>
<path d="M331.32 224.35L331.32 224.35Z"
fill="none" stroke="black" stroke-width="0.5"/>
<path d="M331.32 224.35L330.15 224.55"
fill="none" stroke="black" stroke-width="0.5"/>
<path d="M330.15 224.55L329.1 225.1"
fill="none" stroke="black" stroke-width="0.5"/>
<path d="M329.1 225.1L328.27 225.95"
fill="none" stroke="black" stroke-width="0.5"/>
<path d="M328.27 225.95L327.77 227.03"
fill="none" stroke="black" stroke-width="0.5"/>
<path d="M327.77 227.03L327.63 228.2"
fill="none" stroke="black" stroke-width="0.5"/>
<path d="M327.63 228.2L327.63 228.2Z"
fill="none" stroke="black" stroke-width="0.5"/>
<path d="M327.63 228.2L327.16 227.08"
fill="none" stroke="black" stroke-width="0.5"/>
<path d="M327.16 227.08L326.45 226.09"
fill="none" stroke="black" stroke-width="0.5"/>
<path d="M326.45 226.09L325.53 225.28"
fill="none" stroke="black" stroke-width="0.5"/>
<path d="M325.53 225.28L324.47 224.69"
fill="none" stroke="black" stroke-width="0.5"/>
<path d="M324.47 224.69L323.29 224.35"
fill="none" stroke="black" stroke-width="0.5"/>
<path d="M323.29 224.35L296.17 224.35"
fill="none" stroke="black" stroke-width="0.5"/>
<path d="M296.17 224.35L296.17 224.35Z"
fill="none" stroke="black" stroke-width="0.5"/>
<path d="M296.17 224.35L295 224.52"
fill="none" stroke="black" stroke-width="0.5"/>
<path d="M295 224.52L293.92 225"
fill="none" stroke="black" stroke-width="0.5"/>
<path d="M293.92 225L293.02 225.77"
fill="none" stroke="black" stroke-width="0.5"/>
<path d="M293.02 225.77L292.36 226.75"
fill="none" stroke="black" stroke-width="0.5"/>
<path d="M292.36 226.75L292 227.88"
fill="none" stroke="black" stroke-width="0.5"/>
<path d="M292 227.88L292 258.68Z"
fill="none" stroke="black" stroke-width="0.5"/>
<path d="M292 258.68L292 258.68Z"
fill="none" stroke="black" stroke-width="0.5"/>
<path d="M292 258.68L292.18 259.82"
fill="none" stroke="black" stroke-width="0.5"/>
<path d="M292.18 259.82L292.71 260.85"
fill="none" stroke="black" stroke-width="0.5"/>
<path d="M292.71 260.85L293.52 261.66"
fill="none" stroke="black" stroke-width="0.5"/>
<path d="M293.52 261.66L294.55 262.19"
fill="none" stroke="black" stroke-width="0.5"/>
<path d="M294.55 262.19L295.69 262.37"
fill="none" stroke="black" stroke-width="0.5"/>
<path d="M295.69 262.37L316.23 262.37"
fill="none" stroke="black" stroke-width="0.5"/>
<path d="M327.63 228.2L327.47 259.32"
fill="none" stroke="black" stroke-width="0.5"/>
<path d="M256.7 259.32L257.76 260.49"
fill="none" stroke="black" stroke-width="0.5"/>
<path d="M257.76 260.49L259 261.47"
fill="none" stroke="black" stroke-width="0.5"/>
<path d="M259 261.47L260.39 262.21"
fill="none" stroke="black" stroke-width="0.5"/>
<path d="M260.39 262.21L287.83 262.21"
fill="none" stroke="black" stroke-width="0.5"/>
<path d="M287.83 262.21L287.83 262.21Z"
fill="none" stroke="black" stroke-width="0.5"/>
<path d="M287.83 262.21L288.93 262.07"
fill="none" stroke="black" stroke-width="0.5"/>
<path d="M288.93 262.07L289.95 261.66"
fill="none" stroke="black" stroke-width="0.5"/>
<path d="M289.95 261.66L290.84 261.01"
fill="none" stroke="black" stroke-width="0.5"/>
<path d="M290.84 261.01L291.54 260.16"
fill="none" stroke="black" stroke-width="0.5"/>
<path d="M291.54 260.16L292.01 259.16"
fill="none" stroke="black" stroke-width="0.5"/>
<path d="M292.01 259.16L292.01 228.2Z"
fill="none" stroke="black" stroke-width="0.5"/>
<path d="M292.01 228.2L292.01 228.2Z"
fill="none" stroke="black" stroke-width="0.5"/>
<path d="M292.01 228.2L291.84 227.07"
fill="none" stroke="black" stroke-width="0.5"/>
<path d="M291.84 227.07L291.35 226.04"
fill="none" stroke="black" stroke-width="0.5"/>
<path d="M291.35 226.04L290.57 225.2"
fill="none" stroke="black" stroke-width="0.5"/>
<path d="M290.57 225.2L289.59 224.62"
fill="none" stroke="black" stroke-width="0.5"/>
<path d="M289.59 224.62L288.48 224.35"
fill="none" stroke="black" stroke-width="0.5"/>
<path d="M288.48 224.35L260.55 224.35"
fill="none" stroke="black" stroke-width="0.5"/>
<path d="M260.55 224.35L260.55 224.35Z"
fill="none" stroke="black" stroke-width="0.5"/>
<path d="M260.55 224.35L259.38 224.55"
fill="none" stroke="black" stroke-width="0.5"/>
<path d="M259.38 224.55L258.33 225.1"
fill="none" stroke="black" stroke-width="0.5"/>
<path d="M258.33 225.1L257.51 225.95"
fill="none" stroke="black" stroke-width="0.5"/>
<path d="M257.51 225.95L257 227.03"
fill="none" stroke="black" stroke-width="0.5"/>
<path d="M257 227.03L256.86 228.2"
fill="none" stroke="black" stroke-width="0.5"/>
<path d="M256.86 228.2L256.7 259.32"
fill="none" stroke="black" stroke-width="0.5"/>
<path d="M245.95 272.62L247.88 272.45"
fill="none" stroke="black" stroke-width="0.5"/>
<path d="M247.88 272.45L249.76 271.94"
fill="none" stroke="black" stroke-width="0.5"/>
<path d="M249.76 271.94L251.52 271.12"
fill="none" stroke="black" stroke-width="0.5"/>
<path d="M251.52 271.12L253.1 270"
fill="none" stroke="black" stroke-width="0.5"/>
<path d="M253.1 270L254.47 268.62"
fill="none" stroke="black" stroke-width="0.5"/>
<path d="M254.47 268.62L255.57 267.02"
fill="none" stroke="black" stroke-width="0.5"/>
<path d="M255.57 267.02L256.38 265.26"
fill="none" stroke="black" stroke-width="0.5"/>
<path d="M256.38 265.26L256.87 263.38"
fill="none" stroke="black" stroke-width="0.5"/>
<path d="M256.87 263.38L257.02 261.45"
fill="none" stroke="black" stroke-width="0.5"/>
<path d="M257.02 261.45L256.83 259.51"
fill="none" stroke="black" stroke-width="0.5"/>
<path d="M256.7 233.04L257.76 234.22"
fill="none" stroke="black" stroke-width="0.5"/>
<path d="M257.76 234.22L259 235.19"
fill="none" stroke="black" stroke-width="0.5"/>
<path d="M259 235.19L260.39 235.93"
fill="none" stroke="black" stroke-width="0.5"/>
<path d="M260.39 235.93L287.83 235.93"
fill="none" stroke="black" stroke-width="0.5"/>
<path d="M287.83 235.93L287.83 235.93Z"
fill="none" stroke="black" stroke-width="0.5"/>
<path d="M287.83 235.93L289.04 235.76"
fill="none" stroke="black" stroke-width="0.5"/>
<path d="M289.04 235.76L290.16 235.26"
fill="none" stroke="black" stroke-width="0.5"/>
<path d="M290.16 235.26L291.09 234.48"
fill="none" stroke="black" stroke-width="0.5"/>
<path d="M291.09 234.48L291.77 233.46"
fill="none" stroke="black" stroke-width="0.5"/>
<path d="M251.76 224.41L253.2 224.65"
fill="none" stroke="black" stroke-width="0.5"/>
<path d="M253.2 224.65L254.53 225.25"
fill="none" stroke="black" stroke-width="0.5"/>
<path d="M254.53 225.25L255.66 226.18"
fill="none" stroke="black" stroke-width="0.5"/>
<path d="M255.66 226.18L256.51 227.37"
fill="none" stroke="black" stroke-width="0.5"/>
<path d="M256.51 227.37L257.02 228.74"
fill="none" stroke="black" stroke-width="0.5"/>
<path d="M257.02 228.74L257.16 230.19"
fill="none" stroke="black" stroke-width="0.5"/>
<path d="M257.16 230.19L256.92 231.63"
fill="none" stroke="black" stroke-width="0.5"/>
<path d="M256.92 231.63L256.31 232.96"
fill="none" stroke="black" stroke-width="0.5"/>
<path d="M256.31 232.96L255.39 234.09"
fill="none" stroke="black" stroke-width="0.5"/>
<path d="M255.39 234.09L254.2 234.94"
fill="none" stroke="black" stroke-width="0.5"/>
<path d="M254.2 234.94L252.83 235.45"
fill="none" stroke="black" stroke-width="0.5"/>
<path d="M252.83 235.45L251.37 235.59"
fill="none" stroke="black" stroke-width="0.5"/>
<path d="M292.16 233.46L292.67 234.52"
fill="none" stroke="black" stroke-width="0.5"/>
<path d="M292.67 234.52L293.49 235.36"
fill="none" stroke="black" stroke-width="0.5"/>
<path d="M293.49 235.36L294.53 235.9"
fill="none" stroke="black" stroke-width="0.5"/>
<path d="M294.53 235.9L295.69 236.09"
fill="none" stroke="black" stroke-width="0.5"/>
<path d="M295.69 236.09L316.23 236.09"
fill="none" stroke="black" stroke-width="0.5"/>
<path d="M245.71 308L214.59 307.84"
fill="none" stroke="black" stroke-width="0.5"/>
<path d="M248.75 319.24L248.75 312.34Z"
fill="none" stroke="black" stroke-width="0.5"/>
<path d="M248.75 312.34L248.75 312.34Z"
fill="none" stroke="black" stroke-width="0.5"/>
<path d="M248.75 312.34L248.62 311.22"
fill="none" stroke="black" stroke-width="0.5"/>
<path d="M248.62 311.22L248.21 310.17"
fill="none" stroke="black" stroke-width="0.5"/>
<path d="M248.21 310.17L247.56 309.25"
fill="none" stroke="black" stroke-width="0.5"/>
<path d="M247.56 309.25L246.71 308.51"
fill="none" stroke="black" stroke-width="0.5"/>
<path d="M246.71 308.51L245.71 308"
fill="none" stroke="black" stroke-width="0.5"/>
<path d="M245.71 308L245.71 308Z"
fill="none" stroke="black" stroke-width="0.5"/>
<path d="M245.71 308L246.88 306.95"
fill="none" stroke="black" stroke-width="0.5"/>
<path d="M246.88 306.95L247.85 305.71"
fill="none" stroke="black" stroke-width="0.5"/>
<path d="M247.85 305.71L248.59 304.31"
fill="none" stroke="black" stroke-width="0.5"/>
<path d="M248.59 304.31L248.59 276.87Z"
fill="none" stroke="black" stroke-width="0.5"/>
<path d="M248.59 276.87L248.59 276.87Z"
fill="none" stroke="black" stroke-width="0.5"/>
<path d="M248.59 276.87L248.45 275.78"
fill="none" stroke="black" stroke-width="0.5"/>
<path d="M248.45 275.78L248.05 274.75"
fill="none" stroke="black" stroke-width="0.5"/>
<path d="M248.05 274.75L247.4 273.86"
fill="none" stroke="black" stroke-width="0.5"/>
<path d="M247.4 273.86L246.54 273.16"
fill="none" stroke="black" stroke-width="0.5"/>
<path d="M246.54 273.16L245.55 272.7"
fill="none" stroke="black" stroke-width="0.5"/>
<path d="M245.55 272.7L214.59 272.7"
fill="none" stroke="black" stroke-width="0.5"/>
<path d="M214.59 272.7L214.59 272.7Z"
fill="none" stroke="black" stroke-width="0.5"/>
<path d="M214.59 272.7L213.46 272.87"
fill="none" stroke="black" stroke-width="0.5"/>
<path d="M213.46 272.87L212.43 273.36"
fill="none" stroke="black" stroke-width="0.5"/>
<path d="M212.43 273.36L211.59 274.13"
fill="none" stroke="black" stroke-width="0.5"/>
<path d="M211.59 274.13L211.01 275.12"
fill="none" stroke="black" stroke-width="0.5"/>
<path d="M211.01 275.12L210.74 276.23"
fill="none" stroke="black" stroke-width="0.5"/>
<path d="M210.74 276.23L210.74 304.15Z"
fill="none" stroke="black" stroke-width="0.5"/>
<path d="M210.74 304.15L210.74 304.15Z"
fill="none" stroke="black" stroke-width="0.5"/>
<path d="M210.74 304.15L210.93 305.32"
fill="none" stroke="black" stroke-width="0.5"/>
<path d="M210.93 305.32L211.48 306.37"
fill="none" stroke="black" stroke-width="0.5"/>
<path d="M211.48 306.37L212.34 307.19"
fill="none" stroke="black" stroke-width="0.5"/>
<path d="M212.34 307.19L213.41 307.7"
fill="none" stroke="black" stroke-width="0.5"/>
<path d="M213.41 307.7L214.59 307.84"
fill="none" stroke="black" stroke-width="0.5"/>
<path d="M214.59 307.84L214.59 307.84Z"
fill="none" stroke="black" stroke-width="0.5"/>
<path d="M214.59 307.84L213.46 308.31"
fill="none" stroke="black" stroke-width="0.5"/>
<path d="M213.46 308.31L212.47 309.02"
fill="none" stroke="black" stroke-width="0.5"/>
<path d="M212.47 309.02L211.66 309.93"
fill="none" stroke="black" stroke-width="0.5"/>
<path d="M211.66 309.93L211.07 311"
fill="none" stroke="black" stroke-width="0.5"/>
<path d="M211.07 311L210.74 312.17"
fill="none" stroke="black" stroke-width="0.5"/>
<path d="M210.74 312.17L210.74 339.3Z"
fill="none" stroke="black" stroke-width="0.5"/>
<path d="M210.74 339.3L210.74 339.3Z"
fill="none" stroke="black" stroke-width="0.5"/>
<path d="M210.74 339.3L210.91 340.47"
fill="none" stroke="black" stroke-width="0.5"/>
<path d="M210.91 340.47L211.39 341.55"
fill="none" stroke="black" stroke-width="0.5"/>
<path d="M211.39 341.55L212.15 342.45"
fill="none" stroke="black" stroke-width="0.5"/>
<path d="M212.15 342.45L213.14 343.11"
fill="none" stroke="black" stroke-width="0.5"/>
<path d="M213.14 343.11L214.27 343.47"
fill="none" stroke="black" stroke-width="0.5"/>
<path d="M214.27 343.47L245.06 343.47"
fill="none" stroke="black" stroke-width="0.5"/>
<path d="M245.06 343.47L245.06 343.47Z"
fill="none" stroke="black" stroke-width="0.5"/>
<path d="M245.06 343.47L246.2 343.29"
fill="none" stroke="black" stroke-width="0.5"/>
<path d="M246.2 343.29L247.23 342.76"
fill="none" stroke="black" stroke-width="0.5"/>
<path d="M247.23 342.76L248.05 341.95"
fill="none" stroke="black" stroke-width="0.5"/>
<path d="M248.05 341.95L248.57 340.92"
fill="none" stroke="black" stroke-width="0.5"/>
<path d="M248.57 340.92L248.75 339.78"
fill="none" stroke="black" stroke-width="0.5"/>
<path d="M248.75 339.78L248.75 319.24Z"
fill="none" stroke="black" stroke-width="0.5"/>
<path d="M221.86 319.24L221.86 312.34Z"
fill="none" stroke="black" stroke-width="0.5"/>
<path d="M221.86 312.34L221.86 312.34Z"
fill="none" stroke="black" stroke-width="0.5"/>
<path d="M221.86 312.34L221.72 311.22"
fill="none" stroke="black" stroke-width="0.5"/>
<path d="M221.72 311.22L221.31 310.17"
fill="none" stroke="black" stroke-width="0.5"/>
<path d="M221.31 310.17L220.67 309.25"
fill="none" stroke="black" stroke-width="0.5"/>
<path d="M220.67 309.25L219.81 308.51"
fill="none" stroke="black" stroke-width="0.5"/>
<path d="M219.81 308.51L218.81 308"
fill="none" stroke="black" stroke-width="0.5"/>
<path d="M218.81 308L218.81 308Z"
fill="none" stroke="black" stroke-width="0.5"/>
<path d="M218.81 308L219.98 306.95"
fill="none" stroke="black" stroke-width="0.5"/>
<path d="M219.98 306.95L220.96 305.71"
fill="none" stroke="black" stroke-width="0.5"/>
<path d="M220.96 305.71L221.7 304.31"
fill="none" stroke="black" stroke-width="0.5"/>
<path d="M221.7 304.31L221.7 276.87Z"
fill="none" stroke="black" stroke-width="0.5"/>
<path d="M221.7 276.87L221.7 276.87Z"
fill="none" stroke="black" stroke-width="0.5"/>
<path d="M221.7 276.87L221.56 275.78"
fill="none" stroke="black" stroke-width="0.5"/>
<path d="M221.56 275.78L221.15 274.75"
fill="none" stroke="black" stroke-width="0.5"/>
<path d="M221.15 274.75L220.5 273.86"
fill="none" stroke="black" stroke-width="0.5"/>
<path d="M220.5 273.86L219.65 273.16"
fill="none" stroke="black" stroke-width="0.5"/>
<path d="M219.65 273.16L218.65 272.7"
fill="none" stroke="black" stroke-width="0.5"/>
<path d="M218.65 272.7L218.54 272.7"
fill="none" stroke="black" stroke-width="0.5"/>
<path d="M218.54 343.45L219.59 343.18"
fill="none" stroke="black" stroke-width="0.5"/>
<path d="M219.59 343.18L220.51 342.63"
fill="none" stroke="black" stroke-width="0.5"/>
<path d="M220.51 342.63L221.24 341.82"
fill="none" stroke="black" stroke-width="0.5"/>
<path d="M221.24 341.82L221.7 340.85"
fill="none" stroke="black" stroke-width="0.5"/>
<path d="M221.7 340.85L221.86 339.78"
fill="none" stroke="black" stroke-width="0.5"/>
<path d="M221.86 339.78L221.86 319.24Z"
fill="none" stroke="black" stroke-width="0.5"/>
</svg>
