<?xml version="1.0" encoding="UTF-8"?>
<svg xmlns="http://www.w3.org/2000/svg" width="800.000" height="600.000" viewBox="0.0 0.0 800.000 600.000" version="1.1">
  <desc>Produce by Acme CAD Converter</desc>
<path d="M187.1 310.11L186.91 314.95"
fill="none" stroke="black" stroke-width="0.5"/>
<path d="M186.91 314.95L186.32 319.75"
fill="none" stroke="black" stroke-width="0.5"/>
<path d="M186.32 319.75L185.34 324.48"
fill="none" stroke="black" stroke-width="0.5"/>
<path d="M185.34 324.48L183.97 329.12"
fill="none" stroke="black" stroke-width="0.5"/>
<path d="M183.97 329.12L182.24 333.64"
fill="none" stroke="black" stroke-width="0.5"/>
<path d="M182.24 333.64L180.14 337.99"
fill="none" stroke="black" stroke-width="0.5"/>
<path d="M180.14 337.99L177.69 342.17"
fill="none" stroke="black" stroke-width="0.5"/>
<path d="M177.69 342.17L174.91 346.13"
fill="none" stroke="black" stroke-width="0.5"/>
<path d="M174.91 346.13L171.82 349.84"
fill="none" stroke="black" stroke-width="0.5"/>
<path d="M171.82 349.84L168.44 353.3"
fill="none" stroke="black" stroke-width="0.5"/>
<path d="M168.44 353.3L164.78 356.47"
fill="none" stroke="black" stroke-width="0.5"/>
<path d="M164.78 356.47L160.88 359.33"
fill="none" stroke="black" stroke-width="0.5"/>
<path d="M160.88 359.33L156.76 361.86"
fill="none" stroke="black" stroke-width="0.5"/>
<path d="M156.76 361.86L152.44 364.04"
fill="none" stroke="black" stroke-width="0.5"/>
<path d="M152.44 364.04L147.97 365.87"
fill="none" stroke="black" stroke-width="0.5"/>
<path d="M147.97 365.87L143.35 367.33"
fill="none" stroke="black" stroke-width="0.5"/>
<path d="M143.35 367.33L138.64 368.41"
fill="none" stroke="black" stroke-width="0.5"/>
<path d="M138.64 368.41L133.85 369.09"
fill="none" stroke="black" stroke-width="0.5"/>
<path d="M133.85 369.09L129.02 369.39"
fill="none" stroke="black" stroke-width="0.5"/>
<path d="M129.02 369.39L124.19 369.29"
fill="none" stroke="black" stroke-width="0.5"/>
<path d="M124.19 369.29L119.38 368.8"
fill="none" stroke="black" stroke-width="0.5"/>
<path d="M119.38 368.8L114.62 367.92"
fill="none" stroke="black" stroke-width="0.5"/>
<path d="M114.62 367.92L109.95 366.65"
fill="none" stroke="black" stroke-width="0.5"/>
<path d="M109.95 366.65L105.4 365"
fill="none" stroke="black" stroke-width="0.5"/>
<path d="M105.4 365L101 362.99"
fill="none" stroke="black" stroke-width="0.5"/>
<path d="M101 362.99L96.78 360.63"
fill="none" stroke="black" stroke-width="0.5"/>
<path d="M96.78 360.63L92.77 357.94"
fill="none" stroke="black" stroke-width="0.5"/>
<path d="M92.77 357.94L88.99 354.92"
fill="none" stroke="black" stroke-width="0.5"/>
<path d="M88.99 354.92L85.46 351.61"
fill="none" stroke="black" stroke-width="0.5"/>
<path d="M85.46 351.61L82.22 348.02"
fill="none" stroke="black" stroke-width="0.5"/>
<path d="M82.22 348.02L79.29 344.17"
fill="none" stroke="black" stroke-width="0.5"/>
<path d="M79.29 344.17L76.67 340.11"
fill="none" stroke="black" stroke-width="0.5"/>
<path d="M76.67 340.11L74.4 335.84"
fill="none" stroke="black" stroke-width="0.5"/>
<path d="M74.4 335.84L72.48 331.4"
fill="none" stroke="black" stroke-width="0.5"/>
<path d="M72.48 331.4L70.93 326.82"
fill="none" stroke="black" stroke-width="0.5"/>
<path d="M70.93 326.82L69.75 322.12"
fill="none" stroke="black" stroke-width="0.5"/>
<path d="M69.75 322.12L68.97 317.35"
fill="none" stroke="black" stroke-width="0.5"/>
<path d="M68.97 317.35L68.57 312.53"
fill="none" stroke="black" stroke-width="0.5"/>
<path d="M68.57 312.53L68.57 307.69Z"
fill="none" stroke="black" stroke-width="0.5"/>
<path d="M68.57 307.69L68.97 302.87"
fill="none" stroke="black" stroke-width="0.5"/>
<path d="M68.97 302.87L69.75 298.1"
fill="none" stroke="black" stroke-width="0.5"/>
<path d="M69.75 298.1L70.93 293.41"
fill="none" stroke="black" stroke-width="0.5"/>
<path d="M70.93 293.41L72.48 288.83"
fill="none" stroke="black" stroke-width="0.5"/>
<path d="M72.48 288.83L74.4 284.39"
fill="none" stroke="black" stroke-width="0.5"/>
<path d="M74.4 284.39L76.67 280.12"
fill="none" stroke="black" stroke-width="0.5"/>
<path d="M76.67 280.12L79.29 276.05"
fill="none" stroke="black" stroke-width="0.5"/>
<path d="M79.29 276.05L82.22 272.21"
fill="none" stroke="black" stroke-width="0.5"/>
<path d="M82.22 272.21L85.46 268.62"
fill="none" stroke="black" stroke-width="0.5"/>
<path d="M85.46 268.62L88.99 265.3"
fill="none" stroke="black" stroke-width="0.5"/>
<path d="M88.99 265.3L92.77 262.29"
fill="none" stroke="black" stroke-width="0.5"/>
<path d="M92.77 262.29L96.78 259.59"
fill="none" stroke="black" stroke-width="0.5"/>
<path d="M96.78 259.59L101 257.23"
fill="none" stroke="black" stroke-width="0.5"/>
<path d="M101 257.23L105.4 255.22"
fill="none" stroke="black" stroke-width="0.5"/>
<path d="M105.4 255.22L109.95 253.58"
fill="none" stroke="black" stroke-width="0.5"/>
<path d="M109.95 253.58L114.62 252.31"
fill="none" stroke="black" stroke-width="0.5"/>
<path d="M114.62 252.31L119.38 251.43"
fill="none" stroke="black" stroke-width="0.5"/>
<path d="M119.38 251.43L124.19 250.93"
fill="none" stroke="black" stroke-width="0.5"/>
<path d="M124.19 250.93L129.02 250.84"
fill="none" stroke="black" stroke-width="0.5"/>
<path d="M129.02 250.84L133.85 251.13"
fill="none" stroke="black" stroke-width="0.5"/>
<path d="M133.85 251.13L138.64 251.82"
fill="none" stroke="black" stroke-width="0.5"/>
<path d="M138.64 251.82L143.35 252.9"
fill="none" stroke="black" stroke-width="0.5"/>
<path d="M143.35 252.9L147.97 254.35"
fill="none" stroke="black" stroke-width="0.5"/>
<path d="M147.97 254.35L152.44 256.18"
fill="none" stroke="black" stroke-width="0.5"/>
<path d="M152.44 256.18L156.76 258.37"
fill="none" stroke="black" stroke-width="0.5"/>
<path d="M156.76 258.37L160.88 260.9"
fill="none" stroke="black" stroke-width="0.5"/>
<path d="M160.88 260.9L164.78 263.76"
fill="none" stroke="black" stroke-width="0.5"/>
<path d="M164.78 263.76L168.44 266.93"
fill="none" stroke="black" stroke-width="0.5"/>
<path d="M168.44 266.93L171.82 270.38"
fill="none" stroke="black" stroke-width="0.5"/>
<path d="M171.82 270.38L174.91 274.1"
fill="none" stroke="black" stroke-width="0.5"/>
<path d="M174.91 274.1L177.69 278.06"
fill="none" stroke="black" stroke-width="0.5"/>
<path d="M177.69 278.06L180.14 282.23"
fill="none" stroke="black" stroke-width="0.5"/>
<path d="M180.14 282.23L182.24 286.59"
fill="none" stroke="black" stroke-width="0.5"/>
<path d="M182.24 286.59L183.97 291.1"
fill="none" stroke="black" stroke-width="0.5"/>
<path d="M183.97 291.1L185.34 295.74"
fill="none" stroke="black" stroke-width="0.5"/>
<path d="M185.34 295.74L186.32 300.48"
fill="none" stroke="black" stroke-width="0.5"/>
<path d="M186.32 300.48L186.91 305.28"
fill="none" stroke="black" stroke-width="0.5"/>
<path d="M186.91 305.28L187.1 310.11"
fill="none" stroke="black" stroke-width="0.5"/>
<path d="M183.72 310.11L183.52 314.79"
fill="none" stroke="black" stroke-width="0.5"/>
<path d="M183.52 314.79L182.93 319.44"
fill="none" stroke="black" stroke-width="0.5"/>
<path d="M182.93 319.44L181.96 324.01"
fill="none" stroke="black" stroke-width="0.5"/>
<path d="M181.96 324.01L180.61 328.5"
fill="none" stroke="black" stroke-width="0.5"/>
<path d="M180.61 328.5L178.88 332.85"
fill="none" stroke="black" stroke-width="0.5"/>
<path d="M178.88 332.85L176.8 337.04"
fill="none" stroke="black" stroke-width="0.5"/>
<path d="M176.8 337.04L174.38 341.05"
fill="none" stroke="black" stroke-width="0.5"/>
<path d="M174.38 341.05L171.62 344.84"
fill="none" stroke="black" stroke-width="0.5"/>
<path d="M171.62 344.84L168.56 348.38"
fill="none" stroke="black" stroke-width="0.5"/>
<path d="M168.56 348.38L165.22 351.66"
fill="none" stroke="black" stroke-width="0.5"/>
<path d="M165.22 351.66L161.61 354.64"
fill="none" stroke="black" stroke-width="0.5"/>
<path d="M161.61 354.64L157.77 357.31"
fill="none" stroke="black" stroke-width="0.5"/>
<path d="M157.77 357.31L153.71 359.65"
fill="none" stroke="black" stroke-width="0.5"/>
<path d="M153.71 359.65L149.48 361.65"
fill="none" stroke="black" stroke-width="0.5"/>
<path d="M149.48 361.65L145.09 363.28"
fill="none" stroke="black" stroke-width="0.5"/>
<path d="M145.09 363.28L140.58 364.54"
fill="none" stroke="black" stroke-width="0.5"/>
<path d="M140.58 364.54L135.98 365.41"
fill="none" stroke="black" stroke-width="0.5"/>
<path d="M135.98 365.41L131.32 365.9"
fill="none" stroke="black" stroke-width="0.5"/>
<path d="M131.32 365.9L126.64 366"
fill="none" stroke="black" stroke-width="0.5"/>
<path d="M126.64 366L121.97 365.71"
fill="none" stroke="black" stroke-width="0.5"/>
<path d="M121.97 365.71L117.34 365.02"
fill="none" stroke="black" stroke-width="0.5"/>
<path d="M117.34 365.02L112.78 363.95"
fill="none" stroke="black" stroke-width="0.5"/>
<path d="M112.78 363.95L108.33 362.51"
fill="none" stroke="black" stroke-width="0.5"/>
<path d="M108.33 362.51L104.01 360.69"
fill="none" stroke="black" stroke-width="0.5"/>
<path d="M104.01 360.69L99.86 358.52"
fill="none" stroke="black" stroke-width="0.5"/>
<path d="M99.86 358.52L95.91 356.02"
fill="none" stroke="black" stroke-width="0.5"/>
<path d="M95.91 356.02L92.18 353.19"
fill="none" stroke="black" stroke-width="0.5"/>
<path d="M92.18 353.19L88.7 350.05"
fill="none" stroke="black" stroke-width="0.5"/>
<path d="M88.7 350.05L85.5 346.64"
fill="none" stroke="black" stroke-width="0.5"/>
<path d="M85.5 346.64L82.59 342.97"
fill="none" stroke="black" stroke-width="0.5"/>
<path d="M82.59 342.97L80 339.07"
fill="none" stroke="black" stroke-width="0.5"/>
<path d="M80 339.07L77.74 334.97"
fill="none" stroke="black" stroke-width="0.5"/>
<path d="M77.74 334.97L75.84 330.69"
fill="none" stroke="black" stroke-width="0.5"/>
<path d="M75.84 330.69L74.3 326.27"
fill="none" stroke="black" stroke-width="0.5"/>
<path d="M74.3 326.27L73.13 321.74"
fill="none" stroke="black" stroke-width="0.5"/>
<path d="M73.13 321.74L72.35 317.12"
fill="none" stroke="black" stroke-width="0.5"/>
<path d="M72.35 317.12L71.96 312.45"
fill="none" stroke="black" stroke-width="0.5"/>
<path d="M71.96 312.45L71.96 307.77Z"
fill="none" stroke="black" stroke-width="0.5"/>
<path d="M71.96 307.77L72.35 303.11"
fill="none" stroke="black" stroke-width="0.5"/>
<path d="M72.35 303.11L73.13 298.49"
fill="none" stroke="black" stroke-width="0.5"/>
<path d="M73.13 298.49L74.3 293.96"
fill="none" stroke="black" stroke-width="0.5"/>
<path d="M74.3 293.96L75.84 289.53"
fill="none" stroke="black" stroke-width="0.5"/>
<path d="M75.84 289.53L77.74 285.26"
fill="none" stroke="black" stroke-width="0.5"/>
<path d="M77.74 285.26L80 281.15"
fill="none" stroke="black" stroke-width="0.5"/>
<path d="M80 281.15L82.59 277.25"
fill="none" stroke="black" stroke-width="0.5"/>
<path d="M82.59 277.25L85.5 273.59"
fill="none" stroke="black" stroke-width="0.5"/>
<path d="M85.5 273.59L88.7 270.17"
fill="none" stroke="black" stroke-width="0.5"/>
<path d="M88.7 270.17L92.18 267.04"
fill="none" stroke="black" stroke-width="0.5"/>
<path d="M92.18 267.04L95.91 264.21"
fill="none" stroke="black" stroke-width="0.5"/>
<path d="M95.91 264.21L99.86 261.7"
fill="none" stroke="black" stroke-width="0.5"/>
<path d="M99.86 261.7L104.01 259.53"
fill="none" stroke="black" stroke-width="0.5"/>
<path d="M104.01 259.53L108.33 257.72"
fill="none" stroke="black" stroke-width="0.5"/>
<path d="M108.33 257.72L112.78 256.27"
fill="none" stroke="black" stroke-width="0.5"/>
<path d="M112.78 256.27L117.34 255.2"
fill="none" stroke="black" stroke-width="0.5"/>
<path d="M117.34 255.2L121.97 254.52"
fill="none" stroke="black" stroke-width="0.5"/>
<path d="M121.97 254.52L126.64 254.22"
fill="none" stroke="black" stroke-width="0.5"/>
<path d="M126.64 254.22L131.32 254.32"
fill="none" stroke="black" stroke-width="0.5"/>
<path d="M131.32 254.32L135.98 254.81"
fill="none" stroke="black" stroke-width="0.5"/>
<path d="M135.98 254.81L140.58 255.69"
fill="none" stroke="black" stroke-width="0.5"/>
<path d="M140.58 255.69L145.09 256.95"
fill="none" stroke="black" stroke-width="0.5"/>
<path d="M145.09 256.95L149.48 258.58"
fill="none" stroke="black" stroke-width="0.5"/>
<path d="M149.48 258.58L153.71 260.57"
fill="none" stroke="black" stroke-width="0.5"/>
<path d="M153.71 260.57L157.77 262.91"
fill="none" stroke="black" stroke-width="0.5"/>
<path d="M157.77 262.91L161.61 265.59"
fill="none" stroke="black" stroke-width="0.5"/>
<path d="M161.61 265.59L165.22 268.57"
fill="none" stroke="black" stroke-width="0.5"/>
<path d="M165.22 268.57L168.56 271.85"
fill="none" stroke="black" stroke-width="0.5"/>
<path d="M168.56 271.85L171.62 275.39"
fill="none" stroke="black" stroke-width="0.5"/>
<path d="M171.62 275.39L174.38 279.18"
fill="none" stroke="black" stroke-width="0.5"/>
<path d="M174.38 279.18L176.8 283.18"
fill="none" stroke="black" stroke-width="0.5"/>
<path d="M176.8 283.18L178.88 287.38"
fill="none" stroke="black" stroke-width="0.5"/>
<path d="M178.88 287.38L180.61 291.73"
fill="none" stroke="black" stroke-width="0.5"/>
<path d="M180.61 291.73L181.96 296.21"
fill="none" stroke="black" stroke-width="0.5"/>
<path d="M181.96 296.21L182.93 300.79"
fill="none" stroke="black" stroke-width="0.5"/>
<path d="M182.93 300.79L183.52 305.43"
fill="none" stroke="black" stroke-width="0.5"/>
<path d="M183.52 305.43L183.72 310.11"
fill="none" stroke="black" stroke-width="0.5"/>
</svg>
