<svg width="131" height="51" viewBox="0 0 131 51" fill="none" xmlns="http://www.w3.org/2000/svg">
<path d="M15.3643 0C21.9482 8.0146e-06 28.468 1.29686 34.5508 3.81641C40.6334 6.33596 46.16 10.0291 50.8154 14.6846C55.4709 19.34 59.164 24.8666 61.6836 30.9492C64.2031 37.032 65.5 43.5518 65.5 50.1357H64.9609C64.9609 43.6227 63.6779 37.1735 61.1855 31.1562C58.6931 25.1389 55.04 19.6709 50.4346 15.0654C45.8291 10.46 40.3611 6.80692 34.3438 4.31445C28.4095 1.85644 22.0552 0.574941 15.6338 0.540039V50.4053H0V49.8662H15.0947V0H15.3643ZM115.905 0V49.8662H131V50.4053H115.366V0.540039C108.945 0.574941 102.59 1.85644 96.6562 4.31445C90.6389 6.80692 85.1709 10.46 80.5654 15.0654C75.96 19.6709 72.3069 25.1389 69.8145 31.1562C67.3221 37.1735 66.0391 43.6227 66.0391 50.1357H65.5C65.5 43.5518 66.7969 37.032 69.3164 30.9492C71.836 24.8666 75.5291 19.34 80.1846 14.6846C84.84 10.0291 90.3666 6.33596 96.4492 3.81641C102.532 1.29686 109.052 8.0146e-06 115.636 0H115.905Z" fill="black"/>
</svg>
