<svg width="122" height="35" viewBox="0 0 122 35" fill="none" xmlns="http://www.w3.org/2000/svg">
<path d="M61 0.685547C77.8004 0.685547 92.9852 2.5992 103.948 5.67871C109.434 7.21979 113.825 9.04204 116.827 11.0361C119.856 13.0477 121.314 15.1223 121.314 17.1348C121.314 19.1472 119.856 21.2219 116.827 23.2334C113.825 25.2275 109.434 27.0497 103.948 28.5908C92.9852 31.6703 77.8004 33.584 61 33.584C44.1996 33.584 29.0148 31.6703 18.0518 28.5908C12.5655 27.0497 8.17545 25.2275 5.17285 23.2334C2.14399 21.2219 0.685547 19.1472 0.685547 17.1348C0.685579 15.1223 2.14398 13.0477 5.17285 11.0361C8.17546 9.04204 12.5655 7.21979 18.0518 5.67871C29.0148 2.5992 44.1996 0.685547 61 0.685547Z" stroke="black" stroke-width="1.37079"/>
</svg>
