<svg width="109" height="41" viewBox="0 0 109 41" fill="none" xmlns="http://www.w3.org/2000/svg">
<path d="M0.328125 1H5.64631M108.464 1H98.7145M98.7145 1V40M98.7145 1H88.5213M98.7145 40H88.5213M98.7145 40H108.464M0.328125 40H5.64631M5.64631 40V1M5.64631 40H16.2827M5.64631 1H16.2827M16.2827 1V40M16.2827 1H26.0327M16.2827 40H26.0327M26.0327 1V40M26.0327 1H36.669M26.0327 40H36.669M36.669 1V40M36.669 1H47.3054M36.669 40H47.3054M47.3054 1V40M47.3054 1H57.9418M47.3054 40H57.9418M57.9418 1V40M57.9418 1H67.6918M57.9418 40H67.6918M67.6918 1V40M67.6918 1H78.3281M67.6918 40H78.3281M78.3281 1V40M78.3281 1H88.5213M78.3281 40H88.5213M88.5213 1V40" stroke="black" stroke-width="0.886364"/>
<path d="M100 20.509L92.5221 16.1408L92.478 24.8009L100 20.509ZM0 20L-0.00381742 20.75L93.2462 21.2246L93.2501 20.4746L93.2539 19.7246L0.00381742 19.25L0 20Z" fill="black"/>
</svg>
