<svg width="46" height="37" viewBox="0 0 46 37" fill="none" xmlns="http://www.w3.org/2000/svg">
<path d="M28 9.5V3C28 1.89543 28.8954 1 30 1H43C44.1046 1 45 1.89543 45 3V34C45 35.1046 44.1046 36 43 36H30C28.8954 36 28 35.1046 28 34V28.5" stroke="black"/>
<path d="M17.333 6.54199C23.6456 6.54199 29.0935 9.12866 31.958 12.8848V25.1143C29.0936 28.8707 23.6459 31.458 17.333 31.458C12.6525 31.4579 8.43557 30.0344 5.40137 27.7588C2.3675 25.4832 0.541992 22.381 0.541992 19C0.541992 15.619 2.3675 12.5168 5.40137 10.2412C8.43557 7.96556 12.6525 6.54206 17.333 6.54199Z" stroke="black" stroke-width="1.08333"/>
<path d="M17 13.5C20.0794 13.5 22.5 15.7786 22.5 18.5C22.5 21.2214 20.0794 23.5 17 23.5C13.9206 23.5 11.5 21.2214 11.5 18.5C11.5 15.7786 13.9206 13.5 17 13.5Z" stroke="black"/>
</svg>
