<?xml version="1.0" encoding="utf-8"?>
<!-- Generator: Adobe Illustrator 16.0.0, SVG Export Plug-In . SVG Version: 6.00 Build 0)  -->
<!DOCTYPE svg PUBLIC "-//W3C//DTD SVG 1.1//EN" "http://www.w3.org/Graphics/SVG/1.1/DTD/svg11.dtd">
<svg version="1.1" id="Layer_1" xmlns="http://www.w3.org/2000/svg" xmlns:xlink="http://www.w3.org/1999/xlink" x="0px" y="0px"
	 width="1191px" height="1684px" viewBox="0 0 1191 1684" enable-background="new 0 0 1191 1684" xml:space="preserve">
<g>
	<defs>
		<polyline id="SVGID_1_" points="43.04,1606.72 1147.04,1606.72 1147.04,77.92 43.04,77.92 43.04,1606.72 		"/>
	</defs>
	<clipPath id="SVGID_2_">
		<use xlink:href="#SVGID_1_"  overflow="visible"/>
	</clipPath>
	
		<line clip-path="url(#SVGID_2_)" fill="none" stroke="#000000" stroke-width="1.68" stroke-linecap="round" stroke-linejoin="round" stroke-miterlimit="10" x1="103.04" y1="130.96" x2="283.04" y2="130.96"/>
	
		<line clip-path="url(#SVGID_2_)" fill="none" stroke="#000000" stroke-width="1.68" stroke-linecap="round" stroke-linejoin="round" stroke-miterlimit="10" x1="349.88" y1="130.96" x2="832.52" y2="130.96"/>
	
		<line clip-path="url(#SVGID_2_)" fill="none" stroke="#000000" stroke-width="1.68" stroke-linecap="round" stroke-linejoin="round" stroke-miterlimit="10" x1="899.48" y1="130.96" x2="1079.48" y2="130.96"/>
	
		<line clip-path="url(#SVGID_2_)" fill="none" stroke="#000000" stroke-width="0.72" stroke-linecap="round" stroke-linejoin="round" stroke-miterlimit="10" x1="1079.48" y1="130.96" x2="1079.48" y2="725.2"/>
	
		<polyline clip-path="url(#SVGID_2_)" fill="none" stroke="#000000" stroke-width="1.68" stroke-linecap="round" stroke-linejoin="round" stroke-miterlimit="10" points="
		1079.48,792.16 1079.48,1386.4 658.16,1386.4 	"/>
	
		<polyline clip-path="url(#SVGID_2_)" fill="none" stroke="#000000" stroke-width="1.68" stroke-linecap="round" stroke-linejoin="round" stroke-miterlimit="10" points="
		524.24,1386.4 103.04,1386.4 103.04,792.16 	"/>
	
		<line clip-path="url(#SVGID_2_)" fill="none" stroke="#000000" stroke-width="1.68" stroke-linecap="round" stroke-linejoin="round" stroke-miterlimit="10" x1="103.04" y1="725.2" x2="103.04" y2="130.96"/>
	
		<polyline clip-path="url(#SVGID_2_)" fill="none" stroke="#000000" stroke-width="1.68" stroke-linecap="round" stroke-linejoin="round" stroke-miterlimit="10" points="
		1079.48,792.16 1079.48,1386.4 658.16,1386.4 	"/>
	
		<polyline clip-path="url(#SVGID_2_)" fill="none" stroke="#000000" stroke-width="1.68" stroke-linecap="round" stroke-linejoin="round" stroke-miterlimit="10" points="
		524.24,1382.2 524.24,1386.4 103.04,1386.4 	"/>
	
		<polyline clip-path="url(#SVGID_2_)" fill="none" stroke="#000000" stroke-width="1.68" stroke-linecap="round" stroke-linejoin="round" stroke-miterlimit="10" points="
		103.04,725.2 103.04,130.96 283.04,130.96 	"/>
	
		<line clip-path="url(#SVGID_2_)" fill="none" stroke="#000000" stroke-width="1.68" stroke-linecap="round" stroke-linejoin="round" stroke-miterlimit="10" x1="349.88" y1="130.96" x2="832.52" y2="130.96"/>
	
		<polyline clip-path="url(#SVGID_2_)" fill="none" stroke="#000000" stroke-width="1.68" stroke-linecap="round" stroke-linejoin="round" stroke-miterlimit="10" points="
		899.48,130.96 1079.48,130.96 1079.48,725.2 1075.28,725.2 	"/>
	
		<polyline clip-path="url(#SVGID_2_)" fill="none" stroke="#000000" stroke-width="1.68" stroke-linecap="round" stroke-linejoin="round" stroke-miterlimit="10" points="
		1075.28,792.16 1075.28,1382.2 658.16,1382.2 658.16,1386.4 	"/>
	
		<polyline clip-path="url(#SVGID_2_)" fill="none" stroke="#000000" stroke-width="1.68" stroke-linecap="round" stroke-linejoin="round" stroke-miterlimit="10" points="
		524.24,1382.2 107.24,1382.2 107.24,792.16 	"/>
	
		<line clip-path="url(#SVGID_2_)" fill="none" stroke="#000000" stroke-width="1.68" stroke-linecap="round" stroke-linejoin="round" stroke-miterlimit="10" x1="107.24" y1="135.04" x2="283.04" y2="135.04"/>
	
		<line clip-path="url(#SVGID_2_)" fill="none" stroke="#000000" stroke-width="1.68" stroke-linecap="round" stroke-linejoin="round" stroke-miterlimit="10" x1="349.88" y1="135.04" x2="832.52" y2="135.04"/>
	
		<polyline clip-path="url(#SVGID_2_)" fill="none" stroke="#000000" stroke-width="1.68" stroke-linecap="round" stroke-linejoin="round" stroke-miterlimit="10" points="
		899.48,135.04 1075.28,135.04 1075.28,725.2 	"/>
	
		<polyline clip-path="url(#SVGID_2_)" fill="none" stroke="#DD0000" stroke-width="0.6" stroke-linecap="round" stroke-linejoin="round" stroke-miterlimit="10" points="
		1079.12,727 1079.24,727 1079.48,727 1079.84,727 1080.439,727 1081.88,727 1083.68,726.88 1085.84,726.88 1088.36,726.88 
		1093.64,726.88 1099.04,726.88 1101.439,726.76 1103.6,726.76 1105.52,726.76 1106.96,726.76 1107.439,726.76 1107.8,726.76 
		1108.04,726.76 1108.16,726.76 1108.04,729.88 1107.68,732.88 1106.96,735.76 1106,738.52 1104.8,741.16 1103.36,743.68 
		1101.68,745.96 1099.76,748.12 1097.72,750.04 1095.56,751.84 1093.16,753.28 1090.64,754.6 1088,755.68 1085.24,756.4 
		1082.36,756.88 1079.36,757 	"/>
	
		<polyline clip-path="url(#SVGID_2_)" fill="none" stroke="#DD0000" stroke-width="0.6" stroke-linecap="round" stroke-linejoin="round" stroke-miterlimit="10" points="
		1075.76,756.16 1075.76,756.28 1075.76,756.52 1075.76,757.48 1075.76,758.44 1075.76,758.8 1075.76,758.92 1076,758.92 
		1076.36,758.92 1077.56,758.8 1078.76,758.8 1079.24,758.8 1079.36,758.8 1079.36,758.56 1079.36,757.96 1079.36,757.36 
		1079.36,757.12 1079.36,757 1079.24,757 1079.12,757 1078.52,757 1077.8,757 1077.68,757 1077.56,757 1077.56,756.88 
		1077.56,756.52 1077.56,756.28 1077.56,756.16 1077.439,756.16 1077.32,756.16 1076.72,756.16 1076.12,756.16 1075.88,756.16 
		1075.76,756.16 	"/>
	
		<polyline clip-path="url(#SVGID_2_)" fill="none" stroke="#DD0000" stroke-width="0.6" stroke-linecap="round" stroke-linejoin="round" stroke-miterlimit="10" points="
		1075.52,725.2 1075.52,725.32 1075.52,725.56 1075.64,726.52 1075.64,727.48 1075.64,727.72 1075.64,727.84 1075.88,727.84 
		1076.48,727.84 1077.08,727.84 1077.32,727.84 1077.439,727.84 1077.439,727.72 1077.32,727.48 1077.32,727.12 1077.32,727 
		1077.439,727 1077.68,727 1078.28,727 1078.88,727 1079.12,727 1079.12,726.88 1079.12,726.64 1079.12,726.04 1079.12,725.44 
		1079.12,725.2 1079.12,725.08 1079,725.08 1078.64,725.08 1077.32,725.2 1076.12,725.2 1075.76,725.2 1075.52,725.2 	"/>
	
		<polyline clip-path="url(#SVGID_2_)" fill="none" stroke="#DD0000" stroke-width="0.6" stroke-linecap="round" stroke-linejoin="round" stroke-miterlimit="10" points="
		1079.36,760.72 1082.36,760.84 1085.24,761.2 1088,761.92 1090.64,762.88 1093.28,764.2 1095.68,765.64 1097.84,767.32 
		1100,769.24 1101.8,771.28 1103.48,773.56 1105.04,775.96 1106.24,778.6 1107.2,781.24 1107.92,784.12 1108.4,787 1108.64,790.12 
		1108.52,790.12 1108.28,790.12 1107.92,790.12 1107.32,790.12 1105.88,790.12 1103.96,790.12 1101.8,790.12 1099.28,790.12 
		1093.88,790.12 1088.48,790.24 1085.96,790.24 1083.68,790.24 1081.88,790.24 1080.439,790.24 1079.84,790.24 1079.48,790.24 
		1079.24,790.24 1079.12,790.24 	"/>
	
		<polyline clip-path="url(#SVGID_2_)" fill="none" stroke="#DD0000" stroke-width="0.6" stroke-linecap="round" stroke-linejoin="round" stroke-miterlimit="10" points="
		1075.88,761.56 1075.76,761.44 1075.76,761.2 1075.76,760.24 1075.76,759.28 1075.76,759.04 1075.76,758.92 1076,758.92 
		1076.36,758.92 1077.56,758.8 1078.76,758.8 1079.24,758.8 1079.36,758.8 1079.36,758.92 1079.36,759.16 1079.36,759.76 
		1079.36,760.36 1079.36,760.6 1079.36,760.72 1079.12,760.72 1078.52,760.72 1077.92,760.72 1077.68,760.72 1077.56,760.72 
		1077.56,760.84 1077.56,761.08 1077.56,761.44 1077.56,761.56 1077.32,761.56 1076.72,761.56 1076.12,761.56 1075.88,761.56 	"/>
	
		<polyline clip-path="url(#SVGID_2_)" fill="none" stroke="#DD0000" stroke-width="0.6" stroke-linecap="round" stroke-linejoin="round" stroke-miterlimit="10" points="
		1075.52,792.16 1075.52,792.04 1075.52,791.8 1075.52,791.2 1075.52,790.6 1075.52,790.36 1075.52,790.24 1075.64,790.24 
		1075.88,790.24 1076.48,790.24 1077.08,790.24 1077.32,790.24 	"/>
	<polygon clip-path="url(#SVGID_2_)" fill="#DD0000" points="1077.56,790.24 1077.439,790.12 1077.32,790 1077.2,790.12 
		1077.08,790.24 1077.2,790.36 1077.32,790.48 1077.439,790.36 	"/>
	
		<polygon clip-path="url(#SVGID_2_)" fill="none" stroke="#DD0000" stroke-width="0" stroke-linecap="round" stroke-linejoin="round" stroke-miterlimit="10" points="
		1077.56,790.24 1077.439,790.12 1077.32,790 1077.2,790.12 1077.08,790.24 1077.2,790.36 1077.32,790.48 1077.439,790.36 	"/>
	
		<polyline clip-path="url(#SVGID_2_)" fill="none" stroke="#DD0000" stroke-width="0.6" stroke-linecap="round" stroke-linejoin="round" stroke-miterlimit="10" points="
		1077.32,790.24 1077.439,790.24 1077.68,790.24 1078.28,790.24 1078.88,790.24 1079,790.24 1079.12,790.24 1079.12,790.36 
		1079.12,790.6 1079.12,791.2 1079.12,791.8 1079.12,792.04 1079,792.04 1078.64,792.04 1077.32,792.16 1076.12,792.16 
		1075.76,792.16 1075.52,792.16 	"/>
	
		<line clip-path="url(#SVGID_2_)" fill="none" stroke="#000000" stroke-width="1.68" stroke-linecap="round" stroke-linejoin="round" stroke-miterlimit="10" x1="1079.48" y1="792.16" x2="1075.28" y2="792.16"/>
	
		<line clip-path="url(#SVGID_2_)" fill="none" stroke="#000000" stroke-width="0.72" stroke-linecap="round" stroke-linejoin="round" stroke-miterlimit="10" x1="1075.28" y1="725.2" x2="1075.28" y2="792.16"/>
	
		<polyline clip-path="url(#SVGID_2_)" fill="none" stroke="#DD0000" stroke-width="0.6" stroke-linecap="round" stroke-linejoin="round" stroke-miterlimit="10" points="
		103.28,727 103.04,727 102.56,727 102.08,727 100.64,727 98.84,726.88 96.56,726.88 94.16,726.88 88.88,726.88 83.48,726.88 
		81.08,726.76 78.8,726.76 77,726.76 75.56,726.76 75.08,726.76 74.6,726.76 74.36,726.76 74.48,729.88 74.84,732.88 75.56,735.76 
		76.52,738.52 77.72,741.16 79.16,743.68 80.84,745.96 82.64,748.12 84.68,750.04 86.96,751.84 89.36,753.28 91.88,754.6 
		94.52,755.68 97.28,756.4 100.16,756.88 103.16,757 	"/>
	
		<polyline clip-path="url(#SVGID_2_)" fill="none" stroke="#DD0000" stroke-width="0.6" stroke-linecap="round" stroke-linejoin="round" stroke-miterlimit="10" points="
		106.76,756.16 106.76,756.28 106.76,756.52 106.76,757.48 106.64,758.44 106.64,758.8 106.64,758.92 106.52,758.92 106.16,758.92 
		104.96,758.8 103.64,758.8 103.28,758.8 103.16,758.8 103.16,758.56 103.16,757.96 103.16,757.36 103.16,757.12 103.16,757 
		103.4,757 104,757 104.6,757 104.84,757 104.96,757 104.96,756.88 104.96,756.52 104.96,756.28 104.96,756.16 105.2,756.16 
		105.8,756.16 106.4,756.16 106.64,756.16 106.76,756.16 	"/>
	
		<polyline clip-path="url(#SVGID_2_)" fill="none" stroke="#DD0000" stroke-width="0.6" stroke-linecap="round" stroke-linejoin="round" stroke-miterlimit="10" points="
		106.88,725.2 106.88,725.32 106.88,725.56 106.88,726.52 106.88,727.48 106.88,727.72 106.88,727.84 106.64,727.84 106.04,727.84 
		105.44,727.84 105.2,727.84 105.08,727.84 105.08,727.72 105.08,727.48 105.08,727.12 105.08,727 104.84,727 104.24,727 
		103.64,727 103.4,727 103.28,727 103.28,726.88 103.28,726.64 103.4,726.04 103.4,725.44 103.4,725.2 103.4,725.08 103.52,725.08 
		103.88,725.08 105.08,725.2 106.4,725.2 106.76,725.2 106.88,725.2 	"/>
	
		<polyline clip-path="url(#SVGID_2_)" fill="none" stroke="#DD0000" stroke-width="0.6" stroke-linecap="round" stroke-linejoin="round" stroke-miterlimit="10" points="
		103.16,760.72 100.16,760.84 97.28,761.2 94.52,761.92 91.76,762.88 89.24,764.2 86.84,765.64 84.56,767.32 82.52,769.24 
		80.6,771.28 78.92,773.56 77.48,775.96 76.28,778.6 75.32,781.24 74.48,784.12 74.12,787 73.88,790.12 74,790.12 74.24,790.12 
		74.6,790.12 75.2,790.12 76.64,790.12 78.56,790.12 80.72,790.12 83.24,790.12 88.64,790.12 94.04,790.24 96.56,790.24 
		98.72,790.24 100.64,790.24 102.08,790.24 102.68,790.24 103.04,790.24 103.28,790.24 103.4,790.24 	"/>
	
		<polyline clip-path="url(#SVGID_2_)" fill="none" stroke="#DD0000" stroke-width="0.6" stroke-linecap="round" stroke-linejoin="round" stroke-miterlimit="10" points="
		106.64,761.56 106.64,761.44 106.64,761.2 106.64,760.24 106.64,759.28 106.64,759.04 106.64,758.92 106.52,758.92 106.16,758.92 
		104.96,758.8 103.64,758.8 103.28,758.8 103.16,758.8 103.16,758.92 103.16,759.16 103.16,759.76 103.16,760.36 103.16,760.6 
		103.16,760.72 103.4,760.72 104,760.72 104.6,760.72 104.84,760.72 104.84,760.84 104.84,761.08 104.84,761.44 104.84,761.56 
		104.96,761.56 105.2,761.56 105.8,761.56 106.4,761.56 106.64,761.56 	"/>
	
		<polyline clip-path="url(#SVGID_2_)" fill="none" stroke="#DD0000" stroke-width="0.6" stroke-linecap="round" stroke-linejoin="round" stroke-miterlimit="10" points="
		106.88,792.16 106.88,792.04 106.88,791.8 106.88,791.2 106.88,790.6 106.88,790.36 106.88,790.24 106.64,790.24 106.04,790.24 
		105.44,790.24 105.2,790.24 	"/>
	<polygon clip-path="url(#SVGID_2_)" fill="#DD0000" points="105.44,790.24 105.32,790.12 105.2,790 105.08,790.12 104.96,790.24 
		105.08,790.36 105.2,790.48 105.32,790.36 	"/>
	
		<polygon clip-path="url(#SVGID_2_)" fill="none" stroke="#DD0000" stroke-width="0" stroke-linecap="round" stroke-linejoin="round" stroke-miterlimit="10" points="
		105.44,790.24 105.32,790.12 105.2,790 105.08,790.12 104.96,790.24 105.08,790.36 105.2,790.48 105.32,790.36 	"/>
	
		<polyline clip-path="url(#SVGID_2_)" fill="none" stroke="#DD0000" stroke-width="0.6" stroke-linecap="round" stroke-linejoin="round" stroke-miterlimit="10" points="
		105.2,790.24 105.08,790.24 104.84,790.24 104.24,790.24 103.64,790.24 103.4,790.24 103.4,790.36 103.4,790.6 103.4,791.2 
		103.4,791.8 103.4,792.04 103.52,792.04 103.88,792.04 105.08,792.16 106.4,792.16 106.76,792.16 106.88,792.16 	"/>
	
		<line clip-path="url(#SVGID_2_)" fill="none" stroke="#000000" stroke-width="1.68" stroke-linecap="round" stroke-linejoin="round" stroke-miterlimit="10" x1="103.04" y1="792.16" x2="107.24" y2="792.16"/>
	
		<polyline clip-path="url(#SVGID_2_)" fill="none" stroke="#000000" stroke-width="1.68" stroke-linecap="round" stroke-linejoin="round" stroke-miterlimit="10" points="
		107.24,135.04 107.24,725.2 103.04,725.2 	"/>
	
		<line clip-path="url(#SVGID_2_)" fill="none" stroke="#000000" stroke-width="0.72" stroke-linecap="round" stroke-linejoin="round" stroke-miterlimit="10" x1="107.24" y1="725.2" x2="107.24" y2="792.16"/>
	
		<polyline clip-path="url(#SVGID_2_)" fill="none" stroke="#DD0000" stroke-width="0.6" stroke-linecap="round" stroke-linejoin="round" stroke-miterlimit="10" points="
		897.68,131.2 897.68,131.08 897.68,130.84 897.68,130.48 897.68,130 897.68,128.56 897.8,126.64 897.8,124.48 897.8,122.08 
		897.8,116.68 897.8,111.4 897.92,108.88 897.92,106.72 897.92,104.92 897.92,103.48 897.92,102.88 897.92,102.52 897.92,102.28 
		897.92,102.16 894.8,102.28 891.8,102.76 888.92,103.48 886.16,104.44 883.52,105.64 881,107.08 878.6,108.64 876.56,110.56 
		874.52,112.6 872.84,114.76 871.28,117.16 870.08,119.68 869,122.44 868.28,125.2 867.8,128.08 867.68,130.96 	"/>
	
		<polyline clip-path="url(#SVGID_2_)" fill="none" stroke="#DD0000" stroke-width="0.6" stroke-linecap="round" stroke-linejoin="round" stroke-miterlimit="10" points="
		868.52,134.56 868.4,134.56 868.16,134.56 867.2,134.56 866.24,134.56 865.88,134.56 865.76,134.56 865.76,134.44 865.76,133.96 
		865.88,132.76 865.88,131.56 865.88,131.2 865.88,130.96 866.12,130.96 866.72,130.96 867.32,130.96 867.56,130.96 867.68,130.96 
		867.68,131.08 867.68,131.32 867.68,131.92 867.68,132.52 867.68,132.76 867.8,132.76 868.04,132.76 868.4,132.76 868.52,132.76 
		868.52,132.88 868.52,133.12 868.52,133.72 868.52,134.32 868.52,134.56 	"/>
	
		<polyline clip-path="url(#SVGID_2_)" fill="none" stroke="#DD0000" stroke-width="0.6" stroke-linecap="round" stroke-linejoin="round" stroke-miterlimit="10" points="
		899.48,134.8 899.36,134.8 899.12,134.8 898.16,134.8 897.2,134.8 896.84,134.8 896.84,134.68 896.84,134.44 896.84,133.84 
		896.84,133.24 896.84,133 896.96,133 897.2,133 897.56,133 897.68,133 897.68,132.88 897.68,132.76 897.68,132.04 897.68,131.44 
		897.68,131.32 897.68,131.2 897.8,131.2 898.04,131.2 898.64,131.2 899.24,131.2 899.48,131.2 899.48,131.32 899.48,131.8 
		899.48,133 899.48,134.2 899.48,134.68 899.48,134.8 	"/>
	
		<polyline clip-path="url(#SVGID_2_)" fill="none" stroke="#DD0000" stroke-width="0.6" stroke-linecap="round" stroke-linejoin="round" stroke-miterlimit="10" points="
		863.96,130.96 863.84,127.96 863.48,125.08 862.76,122.32 861.8,119.68 860.48,117.16 859.04,114.76 857.36,112.48 855.44,110.44 
		853.4,108.52 851.12,106.84 848.72,105.4 846.08,104.08 843.44,103.12 840.56,102.4 837.68,101.92 834.56,101.8 834.56,102.04 
		834.56,102.52 834.56,103 834.56,104.44 834.56,106.36 834.56,108.64 834.56,111.04 834.56,116.44 834.44,121.96 834.44,124.36 
		834.44,126.64 834.44,128.56 834.44,130 834.44,130.48 834.44,130.84 834.44,131.2 	"/>
	
		<polyline clip-path="url(#SVGID_2_)" fill="none" stroke="#DD0000" stroke-width="0.6" stroke-linecap="round" stroke-linejoin="round" stroke-miterlimit="10" points="
		863.12,134.56 863.24,134.56 863.48,134.56 864.44,134.56 865.4,134.56 865.64,134.56 865.76,134.56 865.76,134.44 865.76,133.96 
		865.88,132.76 865.88,131.56 865.88,131.2 865.88,130.96 865.76,130.96 865.52,130.96 864.92,130.96 864.32,130.96 864.08,130.96 
		863.96,130.96 863.96,131.08 863.96,131.2 863.96,131.92 863.96,132.52 863.96,132.64 863.96,132.76 863.84,132.76 863.6,132.76 
		863.24,132.76 863.12,132.76 863.12,132.88 863.12,133 863.12,133.6 863.12,134.32 863.12,134.44 863.12,134.56 	"/>
	<polygon clip-path="url(#SVGID_2_)" fill="#DD0000" points="834.68,133 834.56,132.88 834.44,132.76 834.32,132.88 834.2,133 
		834.32,133.12 834.44,133.24 834.56,133.12 	"/>
	
		<polygon clip-path="url(#SVGID_2_)" fill="none" stroke="#DD0000" stroke-width="0" stroke-linecap="round" stroke-linejoin="round" stroke-miterlimit="10" points="
		834.68,133 834.56,132.88 834.44,132.76 834.32,132.88 834.2,133 834.32,133.12 834.44,133.24 834.56,133.12 	"/>
	
		<polyline clip-path="url(#SVGID_2_)" fill="none" stroke="#DD0000" stroke-width="0.6" stroke-linecap="round" stroke-linejoin="round" stroke-miterlimit="10" points="
		834.44,133 834.44,132.88 834.44,132.76 834.44,132.16 834.44,131.56 834.44,131.32 834.44,131.2 834.32,131.2 834.08,131.2 
		833.48,131.2 832.88,131.2 832.64,131.2 832.64,131.32 832.52,131.8 832.52,133 832.52,134.2 832.52,134.68 832.52,134.8 	"/>
	
		<line clip-path="url(#SVGID_2_)" fill="none" stroke="#000000" stroke-width="1.68" stroke-linecap="round" stroke-linejoin="round" stroke-miterlimit="10" x1="832.52" y1="130.96" x2="832.52" y2="135.04"/>
	
		<line clip-path="url(#SVGID_2_)" fill="none" stroke="#000000" stroke-width="1.68" stroke-linecap="round" stroke-linejoin="round" stroke-miterlimit="10" x1="899.48" y1="135.04" x2="899.48" y2="130.96"/>
	
		<line clip-path="url(#SVGID_2_)" fill="none" stroke="#000000" stroke-width="0.72" stroke-linecap="round" stroke-linejoin="round" stroke-miterlimit="10" x1="1075.28" y1="135.04" x2="899.48" y2="135.04"/>
	
		<polyline clip-path="url(#SVGID_2_)" fill="none" stroke="#000000" stroke-width="0.72" stroke-linecap="round" stroke-linejoin="round" stroke-miterlimit="10" points="
		899.48,135.28 832.52,135.04 349.88,135.04 	"/>
	
		<polyline clip-path="url(#SVGID_2_)" fill="none" stroke="#DD0000" stroke-width="0.6" stroke-linecap="round" stroke-linejoin="round" stroke-miterlimit="10" points="
		835.28,134.8 835.16,134.8 834.92,134.8 833.96,134.8 833,134.8 832.64,134.8 832.52,134.8 	"/>
	
		<polyline clip-path="url(#SVGID_2_)" fill="none" stroke="#DD0000" stroke-width="0.6" stroke-linecap="round" stroke-linejoin="round" stroke-miterlimit="10" points="
		834.44,133 834.56,133 834.8,133 835.16,133 835.28,133 835.28,133.12 835.28,133.24 835.28,133.96 835.28,134.56 835.28,134.68 
		835.28,134.8 	"/>
	
		<polyline clip-path="url(#SVGID_2_)" fill="none" stroke="#DD0000" stroke-width="0.6" stroke-linecap="round" stroke-linejoin="round" stroke-miterlimit="10" points="
		348.08,131.2 348.08,131.08 348.08,130.84 348.2,130.48 348.2,130 348.2,128.56 348.2,126.64 348.2,124.48 348.2,122.08 
		348.2,116.68 348.32,111.4 348.32,108.88 348.32,106.72 348.32,104.92 348.32,103.48 348.32,102.88 348.32,102.52 348.32,102.28 
		348.32,102.16 345.2,102.28 342.2,102.76 339.32,103.48 336.56,104.44 333.92,105.64 331.4,107.08 329.12,108.64 326.96,110.56 
		325.04,112.6 323.24,114.76 321.8,117.16 320.48,119.68 319.52,122.44 318.68,125.2 318.2,128.08 318.08,130.96 	"/>
	
		<polyline clip-path="url(#SVGID_2_)" fill="none" stroke="#DD0000" stroke-width="0.6" stroke-linecap="round" stroke-linejoin="round" stroke-miterlimit="10" points="
		318.92,134.56 318.8,134.56 318.56,134.56 317.6,134.56 316.64,134.56 316.4,134.56 316.28,134.56 316.28,134.44 316.28,133.96 
		316.28,132.76 316.28,131.56 316.28,131.2 316.28,130.96 316.52,130.96 317.12,130.96 317.84,130.96 317.96,130.96 318.08,130.96 
		318.08,131.08 318.08,131.32 318.08,131.92 318.08,132.52 318.08,132.76 318.2,132.76 318.56,132.76 318.8,132.76 318.92,132.76 
		318.92,132.88 318.92,133.12 318.92,133.72 318.92,134.32 318.92,134.56 	"/>
	
		<polyline clip-path="url(#SVGID_2_)" fill="none" stroke="#DD0000" stroke-width="0.6" stroke-linecap="round" stroke-linejoin="round" stroke-miterlimit="10" points="
		349.88,134.8 349.76,134.8 349.52,134.8 348.56,134.8 347.6,134.8 347.36,134.8 347.24,134.8 347.24,134.68 347.24,134.44 
		347.24,133.84 347.24,133.24 347.24,133 347.36,133 347.72,133 347.96,133 348.08,133 348.08,132.88 348.08,132.76 348.08,132.04 
		348.08,131.44 348.08,131.32 348.08,131.2 348.2,131.2 348.44,131.2 349.04,131.2 349.64,131.2 349.88,131.2 350,131.2 350,131.32 
		350,131.8 350,133 349.88,134.2 349.88,134.68 349.88,134.8 	"/>
	
		<polyline clip-path="url(#SVGID_2_)" fill="none" stroke="#DD0000" stroke-width="0.6" stroke-linecap="round" stroke-linejoin="round" stroke-miterlimit="10" points="
		314.48,130.96 314.36,127.96 313.88,125.08 313.16,122.32 312.2,119.68 311,117.16 309.44,114.76 307.76,112.48 305.84,110.44 
		303.8,108.52 301.52,106.84 299.12,105.4 296.48,104.08 293.84,103.12 290.96,102.4 288.08,101.92 285.08,101.8 284.96,102.04 
		284.96,102.52 284.96,103 284.96,104.44 284.96,106.36 284.96,108.64 284.96,111.04 284.96,116.44 284.84,121.96 284.84,124.36 
		284.84,126.64 284.84,128.56 284.84,130 284.84,130.48 284.84,130.84 284.84,131.2 	"/>
	
		<polyline clip-path="url(#SVGID_2_)" fill="none" stroke="#DD0000" stroke-width="0.6" stroke-linecap="round" stroke-linejoin="round" stroke-miterlimit="10" points="
		313.52,134.56 313.64,134.56 313.88,134.56 314.84,134.56 315.8,134.56 316.16,134.56 316.28,134.56 316.28,134.44 316.28,133.96 
		316.28,132.76 316.28,131.56 316.28,131.2 316.28,130.96 316.16,130.96 315.92,130.96 315.32,130.96 314.72,130.96 314.48,130.96 
		314.48,131.08 314.48,131.2 314.48,131.92 314.48,132.52 314.48,132.64 314.48,132.76 314.24,132.76 314,132.76 313.64,132.76 
		313.52,132.76 313.52,132.88 313.52,133 313.52,133.6 313.52,134.32 313.52,134.44 313.52,134.56 	"/>
	<polygon clip-path="url(#SVGID_2_)" fill="#DD0000" points="285.08,133 284.96,132.88 284.84,132.76 284.72,132.88 284.6,133 
		284.72,133.12 284.84,133.24 284.96,133.12 	"/>
	
		<polygon clip-path="url(#SVGID_2_)" fill="none" stroke="#DD0000" stroke-width="0" stroke-linecap="round" stroke-linejoin="round" stroke-miterlimit="10" points="
		285.08,133 284.96,132.88 284.84,132.76 284.72,132.88 284.6,133 284.72,133.12 284.84,133.24 284.96,133.12 	"/>
	
		<polyline clip-path="url(#SVGID_2_)" fill="none" stroke="#DD0000" stroke-width="0.6" stroke-linecap="round" stroke-linejoin="round" stroke-miterlimit="10" points="
		284.84,133 284.84,132.88 284.84,132.76 284.84,132.16 284.84,131.56 284.84,131.32 284.84,131.2 284.72,131.2 284.6,131.2 
		283.88,131.2 283.28,131.2 283.04,131.2 283.04,131.32 283.04,131.8 283.04,133 283.04,134.2 282.92,134.68 282.92,134.8 	"/>
	
		<line clip-path="url(#SVGID_2_)" fill="none" stroke="#000000" stroke-width="1.68" stroke-linecap="round" stroke-linejoin="round" stroke-miterlimit="10" x1="283.04" y1="130.96" x2="283.04" y2="135.04"/>
	
		<line clip-path="url(#SVGID_2_)" fill="none" stroke="#000000" stroke-width="1.68" stroke-linecap="round" stroke-linejoin="round" stroke-miterlimit="10" x1="349.88" y1="135.04" x2="349.88" y2="130.96"/>
	
		<polyline clip-path="url(#SVGID_2_)" fill="none" stroke="#DD0000" stroke-width="0.6" stroke-linecap="round" stroke-linejoin="round" stroke-miterlimit="10" points="
		285.68,134.8 285.56,134.8 285.32,134.8 284.36,134.8 283.4,134.8 283.04,134.8 	"/>
	
		<polyline clip-path="url(#SVGID_2_)" fill="none" stroke="#DD0000" stroke-width="0.6" stroke-linecap="round" stroke-linejoin="round" stroke-miterlimit="10" points="
		284.84,133 284.96,133 285.32,133 285.56,133 285.68,133 285.68,133.12 285.68,133.24 285.68,133.96 285.68,134.56 285.68,134.68 
		285.68,134.8 	"/>
	
		<line clip-path="url(#SVGID_2_)" fill="none" stroke="#000000" stroke-width="0.72" stroke-linecap="round" stroke-linejoin="round" stroke-miterlimit="10" x1="283.04" y1="135.04" x2="349.88" y2="135.04"/>
	
		<polyline clip-path="url(#SVGID_2_)" fill="none" stroke="#000000" stroke-width="1.68" stroke-linecap="round" stroke-linejoin="round" stroke-miterlimit="10" points="
		658.16,1386.4 859.04,1386.4 859.04,1520.32 691.64,1520.32 	"/>
	
		<line clip-path="url(#SVGID_2_)" fill="none" stroke="#000000" stroke-width="1.68" stroke-linecap="round" stroke-linejoin="round" stroke-miterlimit="10" x1="624.68" y1="1520.32" x2="557.72" y2="1520.32"/>
	
		<polyline clip-path="url(#SVGID_2_)" fill="none" stroke="#000000" stroke-width="1.68" stroke-linecap="round" stroke-linejoin="round" stroke-miterlimit="10" points="
		490.76,1520.32 323.48,1520.32 323.48,1386.4 524.24,1386.4 	"/>
	
		<line clip-path="url(#SVGID_2_)" fill="none" stroke="#000000" stroke-width="1.08" stroke-linecap="round" stroke-linejoin="round" stroke-miterlimit="10" x1="658.16" y1="1382.2" x2="863.24" y2="1382.2"/>
	
		<polyline clip-path="url(#SVGID_2_)" fill="none" stroke="#000000" stroke-width="1.68" stroke-linecap="round" stroke-linejoin="round" stroke-miterlimit="10" points="
		863.24,1386.4 863.24,1524.52 691.64,1524.52 	"/>
	
		<line clip-path="url(#SVGID_2_)" fill="none" stroke="#000000" stroke-width="1.68" stroke-linecap="round" stroke-linejoin="round" stroke-miterlimit="10" x1="624.68" y1="1524.52" x2="557.72" y2="1524.52"/>
	
		<polyline clip-path="url(#SVGID_2_)" fill="none" stroke="#000000" stroke-width="1.68" stroke-linecap="round" stroke-linejoin="round" stroke-miterlimit="10" points="
		490.76,1524.52 319.28,1524.52 319.28,1386.4 	"/>
	
		<line clip-path="url(#SVGID_2_)" fill="none" stroke="#000000" stroke-width="1.08" stroke-linecap="round" stroke-linejoin="round" stroke-miterlimit="10" x1="319.28" y1="1382.2" x2="524.24" y2="1382.2"/>
	
		<line clip-path="url(#SVGID_2_)" fill="none" stroke="#000000" stroke-width="1.08" stroke-linecap="round" stroke-linejoin="round" stroke-miterlimit="10" x1="624.68" y1="1520.32" x2="624.68" y2="1524.52"/>
	
		<line clip-path="url(#SVGID_2_)" fill="none" stroke="#000000" stroke-width="1.08" stroke-linecap="round" stroke-linejoin="round" stroke-miterlimit="10" x1="691.64" y1="1520.32" x2="691.64" y2="1524.52"/>
	
		<line clip-path="url(#SVGID_2_)" fill="none" stroke="#000000" stroke-width="1.08" stroke-linecap="round" stroke-linejoin="round" stroke-miterlimit="10" x1="557.72" y1="1520.32" x2="557.72" y2="1524.52"/>
	
		<line clip-path="url(#SVGID_2_)" fill="none" stroke="#000000" stroke-width="1.08" stroke-linecap="round" stroke-linejoin="round" stroke-miterlimit="10" x1="490.76" y1="1520.32" x2="490.76" y2="1524.52"/>
	
		<polyline clip-path="url(#SVGID_2_)" fill="none" stroke="#DD0000" stroke-width="0.6" stroke-linecap="round" stroke-linejoin="round" stroke-miterlimit="10" points="
		656.36,1386.04 656.36,1386.16 656.36,1386.4 656.36,1386.76 656.36,1387.36 656.36,1388.8 656.48,1390.6 656.48,1392.76 
		656.48,1395.28 656.48,1400.56 656.48,1405.96 656.6,1408.36 656.6,1410.52 656.6,1412.44 656.6,1413.88 656.6,1414.36 
		656.6,1414.72 656.6,1414.96 656.6,1415.08 653.48,1414.96 650.48,1414.48 647.6,1413.88 644.84,1412.92 642.2,1411.72 
		639.68,1410.28 637.28,1408.6 635.24,1406.68 633.2,1404.64 631.52,1402.48 629.96,1400.08 628.76,1397.56 627.68,1394.92 
		626.96,1392.16 626.48,1389.28 626.36,1386.28 	"/>
	
		<polyline clip-path="url(#SVGID_2_)" fill="none" stroke="#DD0000" stroke-width="0.6" stroke-linecap="round" stroke-linejoin="round" stroke-miterlimit="10" points="
		627.2,1382.68 627.08,1382.68 626.84,1382.68 625.88,1382.68 624.92,1382.68 624.56,1382.68 624.44,1382.68 624.44,1382.92 
		624.44,1383.28 624.44,1384.48 624.56,1385.68 624.56,1386.16 624.56,1386.28 624.8,1386.28 625.4,1386.28 626,1386.28 
		626.24,1386.28 626.36,1386.28 626.36,1386.16 626.36,1386.04 626.36,1385.32 626.36,1384.72 626.36,1384.6 626.36,1384.48 
		626.48,1384.48 626.72,1384.48 627.08,1384.48 627.2,1384.48 627.2,1384.36 627.2,1384.24 627.2,1383.64 627.2,1382.92 
		627.2,1382.8 627.2,1382.68 	"/>
	
		<polyline clip-path="url(#SVGID_2_)" fill="none" stroke="#DD0000" stroke-width="0.6" stroke-linecap="round" stroke-linejoin="round" stroke-miterlimit="10" points="
		658.16,1382.44 658.04,1382.44 657.8,1382.44 656.84,1382.44 655.88,1382.56 655.52,1382.56 655.4,1382.56 655.4,1382.8 
		655.52,1383.4 655.52,1384 655.52,1384.24 655.64,1384.24 655.88,1384.24 656.24,1384.24 656.36,1384.24 656.36,1384.36 
		656.36,1384.6 656.36,1385.2 656.36,1385.8 656.36,1386.04 656.48,1386.04 656.72,1386.04 657.32,1386.04 657.92,1386.04 
		658.16,1386.04 658.16,1385.92 658.16,1385.44 658.16,1384.24 658.16,1383.04 658.16,1382.68 658.16,1382.44 	"/>
	
		<polyline clip-path="url(#SVGID_2_)" fill="none" stroke="#DD0000" stroke-width="0.6" stroke-linecap="round" stroke-linejoin="round" stroke-miterlimit="10" points="
		622.64,1386.28 622.52,1389.28 622.16,1392.16 621.44,1394.92 620.48,1397.56 619.16,1400.2 617.72,1402.6 616.04,1404.76 
		614.12,1406.92 612.08,1408.72 609.8,1410.4 607.4,1411.96 604.76,1413.16 602.12,1414.12 599.24,1414.84 596.36,1415.32 
		593.24,1415.56 593.24,1415.44 593.24,1415.2 593.24,1414.72 593.24,1414.24 593.24,1412.8 593.24,1410.88 593.24,1408.72 
		593.24,1406.2 593.12,1400.8 593.12,1395.4 593.12,1392.88 593.12,1390.6 593.12,1388.8 593.12,1387.36 593.12,1386.76 
		593.12,1386.4 593.12,1386.16 593.12,1386.04 	"/>
	
		<polyline clip-path="url(#SVGID_2_)" fill="none" stroke="#DD0000" stroke-width="0.6" stroke-linecap="round" stroke-linejoin="round" stroke-miterlimit="10" points="
		621.8,1382.68 621.92,1382.68 622.16,1382.68 623.12,1382.68 624.08,1382.68 624.32,1382.68 624.44,1382.68 624.44,1382.92 
		624.44,1383.28 624.44,1384.48 624.56,1385.68 624.56,1386.16 624.56,1386.28 624.44,1386.28 624.2,1386.28 623.6,1386.28 
		623,1386.28 622.76,1386.28 622.64,1386.28 622.64,1386.16 622.64,1386.04 622.64,1385.44 622.64,1384.84 622.64,1384.6 
		622.64,1384.48 622.52,1384.48 622.28,1384.48 621.92,1384.48 621.8,1384.48 621.8,1384.24 621.8,1383.64 621.8,1383.04 
		621.8,1382.8 621.8,1382.68 	"/>
	<polygon clip-path="url(#SVGID_2_)" fill="#DD0000" points="593.36,1384.24 593.24,1384.12 593.12,1384 593,1384.12 
		592.88,1384.24 593,1384.36 593.12,1384.48 593.24,1384.36 	"/>
	
		<polygon clip-path="url(#SVGID_2_)" fill="none" stroke="#DD0000" stroke-width="0" stroke-linecap="round" stroke-linejoin="round" stroke-miterlimit="10" points="
		593.36,1384.24 593.24,1384.12 593.12,1384 593,1384.12 592.88,1384.24 593,1384.36 593.12,1384.48 593.24,1384.36 	"/>
	
		<polyline clip-path="url(#SVGID_2_)" fill="none" stroke="#DD0000" stroke-width="0.6" stroke-linecap="round" stroke-linejoin="round" stroke-miterlimit="10" points="
		593.96,1382.44 593.96,1382.56 593.96,1382.8 593.96,1383.4 593.96,1384 593.96,1384.12 593.96,1384.24 593.84,1384.24 
		593.48,1384.24 593.24,1384.24 593.12,1384.24 593.12,1384.36 593.12,1384.48 593.12,1385.2 593.12,1385.8 593.12,1385.92 
		593.12,1386.04 593,1386.04 592.76,1386.04 592.16,1386.04 591.56,1386.04 591.32,1386.04 591.2,1386.04 591.2,1385.92 
		591.2,1385.44 591.2,1384.24 591.2,1383.04 591.2,1382.68 591.2,1382.44 591.32,1382.44 591.68,1382.44 592.64,1382.44 
		593.6,1382.44 593.84,1382.44 593.96,1382.44 	"/>
	
		<polyline clip-path="url(#SVGID_2_)" fill="none" stroke="#DD0000" stroke-width="0.6" stroke-linecap="round" stroke-linejoin="round" stroke-miterlimit="10" points="
		589.4,1386.04 589.4,1386.16 589.4,1386.4 589.4,1386.76 589.4,1387.36 589.4,1388.8 589.52,1390.6 589.52,1392.76 589.52,1395.28 
		589.52,1400.56 589.52,1405.96 589.64,1408.36 589.64,1410.52 589.64,1412.44 589.64,1413.88 589.64,1414.36 589.64,1414.72 
		589.64,1414.96 589.64,1415.08 586.52,1414.96 583.52,1414.48 580.64,1413.88 577.88,1412.92 575.24,1411.72 572.72,1410.28 
		570.44,1408.6 568.28,1406.68 566.24,1404.64 564.56,1402.48 563,1400.08 561.8,1397.56 560.72,1394.92 560,1392.16 
		559.52,1389.28 559.4,1386.28 	"/>
	
		<polyline clip-path="url(#SVGID_2_)" fill="none" stroke="#DD0000" stroke-width="0.6" stroke-linecap="round" stroke-linejoin="round" stroke-miterlimit="10" points="
		560.24,1382.68 560.12,1382.68 559.88,1382.68 558.92,1382.68 557.96,1382.68 557.6,1382.68 557.48,1382.68 557.48,1382.92 
		557.48,1383.28 557.6,1384.48 557.6,1385.68 557.6,1386.16 557.6,1386.28 557.84,1386.28 558.44,1386.28 559.04,1386.28 
		559.28,1386.28 559.4,1386.28 559.4,1386.16 559.4,1386.04 559.4,1385.32 559.4,1384.72 559.4,1384.6 559.4,1384.48 
		559.52,1384.48 559.76,1384.48 560.12,1384.48 560.24,1384.48 560.24,1384.36 560.24,1384.24 560.24,1383.64 560.24,1382.92 
		560.24,1382.8 560.24,1382.68 	"/>
	
		<polyline clip-path="url(#SVGID_2_)" fill="none" stroke="#DD0000" stroke-width="0.6" stroke-linecap="round" stroke-linejoin="round" stroke-miterlimit="10" points="
		591.2,1382.44 591.08,1382.44 590.84,1382.44 589.88,1382.44 588.92,1382.56 588.56,1382.56 588.56,1382.8 588.56,1383.4 
		588.56,1384 588.56,1384.24 588.68,1384.24 588.92,1384.24 589.28,1384.24 589.4,1384.24 589.4,1384.36 589.4,1384.6 589.4,1385.2 
		589.4,1385.8 589.4,1386.04 589.52,1386.04 589.76,1386.04 590.36,1386.04 590.96,1386.04 591.2,1386.04 591.2,1385.92 
		591.2,1385.44 591.2,1384.24 591.2,1383.04 591.2,1382.68 591.2,1382.44 	"/>
	
		<polyline clip-path="url(#SVGID_2_)" fill="none" stroke="#DD0000" stroke-width="0.6" stroke-linecap="round" stroke-linejoin="round" stroke-miterlimit="10" points="
		555.68,1386.28 555.56,1389.28 555.2,1392.16 554.48,1394.92 553.52,1397.56 552.2,1400.2 550.76,1402.6 549.08,1404.76 
		547.16,1406.92 545.12,1408.72 542.84,1410.4 540.44,1411.96 537.8,1413.16 535.16,1414.12 532.28,1414.84 529.4,1415.32 
		526.28,1415.56 526.28,1415.44 526.28,1415.2 526.28,1414.72 526.28,1414.24 526.28,1412.8 526.28,1410.88 526.28,1408.72 
		526.28,1406.2 526.28,1400.8 526.16,1395.4 526.16,1392.88 526.16,1390.6 526.16,1388.8 526.16,1387.36 526.16,1386.76 
		526.16,1386.4 526.16,1386.16 526.16,1386.04 	"/>
	
		<polyline clip-path="url(#SVGID_2_)" fill="none" stroke="#DD0000" stroke-width="0.6" stroke-linecap="round" stroke-linejoin="round" stroke-miterlimit="10" points="
		554.84,1382.68 554.96,1382.68 555.2,1382.68 556.16,1382.68 557.12,1382.68 557.36,1382.68 557.48,1382.68 557.48,1382.92 
		557.48,1383.28 557.6,1384.48 557.6,1385.68 557.6,1386.16 557.6,1386.28 557.48,1386.28 557.24,1386.28 556.64,1386.28 
		556.04,1386.28 555.8,1386.28 555.68,1386.28 555.68,1386.16 555.68,1386.04 555.68,1385.44 555.68,1384.84 555.68,1384.6 
		555.68,1384.48 555.56,1384.48 555.32,1384.48 554.96,1384.48 554.84,1384.48 554.84,1384.24 554.84,1383.64 554.84,1383.04 
		554.84,1382.8 554.84,1382.68 	"/>
	<polygon clip-path="url(#SVGID_2_)" fill="#DD0000" points="526.4,1384.24 526.28,1384.12 526.16,1384 526.04,1384.12 
		525.92,1384.24 526.04,1384.36 526.16,1384.48 526.28,1384.36 	"/>
	
		<polygon clip-path="url(#SVGID_2_)" fill="none" stroke="#DD0000" stroke-width="0" stroke-linecap="round" stroke-linejoin="round" stroke-miterlimit="10" points="
		526.4,1384.24 526.28,1384.12 526.16,1384 526.04,1384.12 525.92,1384.24 526.04,1384.36 526.16,1384.48 526.28,1384.36 	"/>
	
		<polyline clip-path="url(#SVGID_2_)" fill="none" stroke="#DD0000" stroke-width="0.6" stroke-linecap="round" stroke-linejoin="round" stroke-miterlimit="10" points="
		527,1382.44 527,1382.56 527,1382.8 527,1383.4 527,1384 527,1384.12 527,1384.24 526.88,1384.24 526.52,1384.24 526.28,1384.24 
		526.16,1384.24 526.16,1384.36 526.16,1384.48 526.16,1385.2 526.16,1385.8 526.16,1385.92 526.16,1386.04 526.04,1386.04 
		525.8,1386.04 525.2,1386.04 524.6,1386.04 524.36,1386.04 524.36,1385.92 524.24,1385.44 524.24,1384.24 524.24,1383.04 
		524.24,1382.68 524.24,1382.44 524.36,1382.44 524.72,1382.44 525.68,1382.44 526.64,1382.44 526.88,1382.44 527,1382.44 	"/>
	
		<polyline clip-path="url(#SVGID_2_)" fill="none" stroke="#DD0000" stroke-width="0.6" stroke-linecap="round" stroke-linejoin="round" stroke-miterlimit="10" points="
		689.84,1524.16 689.84,1524.28 689.84,1524.52 689.84,1524.88 689.84,1525.36 689.84,1526.8 689.84,1528.72 689.96,1530.88 
		689.96,1533.4 689.96,1538.68 689.96,1543.96 689.96,1546.48 690.08,1548.64 690.08,1550.56 690.08,1551.88 690.08,1552.48 
		690.08,1552.84 690.08,1553.08 690.08,1553.2 686.96,1553.08 683.96,1552.6 681.08,1551.88 678.32,1551.04 675.68,1549.72 
		673.16,1548.28 670.76,1546.72 668.72,1544.8 666.68,1542.76 665,1540.6 663.44,1538.2 662.24,1535.68 661.16,1533.04 
		660.44,1530.16 659.96,1527.28 659.84,1524.4 	"/>
	
		<polyline clip-path="url(#SVGID_2_)" fill="none" stroke="#DD0000" stroke-width="0.6" stroke-linecap="round" stroke-linejoin="round" stroke-miterlimit="10" points="
		660.68,1520.8 660.56,1520.8 660.32,1520.8 659.36,1520.8 658.4,1520.8 658.04,1520.8 657.92,1520.8 657.92,1520.92 657.92,1521.4 
		657.92,1522.6 658.04,1523.8 658.04,1524.28 658.04,1524.4 658.28,1524.4 658.88,1524.4 659.48,1524.4 659.72,1524.4 
		659.84,1524.4 659.84,1524.28 659.84,1524.04 659.84,1523.44 659.84,1522.84 659.84,1522.72 659.84,1522.6 659.96,1522.6 
		660.2,1522.6 660.56,1522.6 660.68,1522.6 660.68,1522.48 660.68,1522.24 660.68,1521.64 660.68,1521.04 660.68,1520.92 
		660.68,1520.8 	"/>
	
		<polyline clip-path="url(#SVGID_2_)" fill="none" stroke="#DD0000" stroke-width="0.6" stroke-linecap="round" stroke-linejoin="round" stroke-miterlimit="10" points="
		691.64,1520.56 691.52,1520.56 691.28,1520.56 690.32,1520.56 689.36,1520.56 689,1520.56 688.88,1520.56 688.88,1520.68 
		688.88,1520.92 689,1521.52 689,1522.12 689,1522.36 689.12,1522.36 689.36,1522.36 689.72,1522.36 689.84,1522.36 689.84,1522.48 
		689.84,1522.72 689.84,1523.32 689.84,1523.92 689.84,1524.04 689.84,1524.16 689.96,1524.16 690.2,1524.16 690.8,1524.16 
		691.4,1524.16 691.64,1524.16 691.64,1524.04 691.64,1523.56 691.64,1522.36 691.64,1521.16 691.64,1520.68 691.64,1520.56 	"/>
	
		<polyline clip-path="url(#SVGID_2_)" fill="none" stroke="#DD0000" stroke-width="0.6" stroke-linecap="round" stroke-linejoin="round" stroke-miterlimit="10" points="
		656.12,1524.4 656,1527.4 655.64,1530.28 654.92,1533.04 653.96,1535.68 652.64,1538.2 651.2,1540.6 649.52,1542.88 647.6,1544.92 
		645.56,1546.84 643.28,1548.52 640.88,1549.96 638.24,1551.28 635.6,1552.24 632.72,1552.96 629.84,1553.44 626.72,1553.56 
		626.72,1553.32 626.72,1552.84 626.72,1552.36 626.72,1550.92 626.72,1549 626.72,1546.72 626.72,1544.32 626.6,1538.92 
		626.6,1533.52 626.6,1531 626.6,1528.72 626.6,1526.92 626.6,1525.36 626.6,1524.88 626.6,1524.52 626.6,1524.28 626.6,1524.16 	
		"/>
	
		<polyline clip-path="url(#SVGID_2_)" fill="none" stroke="#DD0000" stroke-width="0.6" stroke-linecap="round" stroke-linejoin="round" stroke-miterlimit="10" points="
		655.28,1520.8 655.4,1520.8 655.64,1520.8 656.6,1520.8 657.56,1520.8 657.8,1520.8 657.92,1520.8 657.92,1520.92 657.92,1521.4 
		657.92,1522.6 658.04,1523.8 658.04,1524.28 658.04,1524.4 657.92,1524.4 657.68,1524.4 657.08,1524.4 656.48,1524.4 
		656.24,1524.4 656.12,1524.4 656.12,1524.28 656.12,1524.16 656.12,1523.56 656.12,1522.84 656.12,1522.72 656.12,1522.6 
		656,1522.6 655.64,1522.6 655.4,1522.6 655.28,1522.6 655.28,1522.48 655.28,1522.36 655.28,1521.76 655.28,1521.16 
		655.28,1520.92 655.28,1520.8 	"/>
	<polygon clip-path="url(#SVGID_2_)" fill="#DD0000" points="626.84,1522.36 626.72,1522.24 626.6,1522.12 626.48,1522.24 
		626.36,1522.36 626.48,1522.48 626.6,1522.6 626.72,1522.48 	"/>
	
		<polygon clip-path="url(#SVGID_2_)" fill="none" stroke="#DD0000" stroke-width="0" stroke-linecap="round" stroke-linejoin="round" stroke-miterlimit="10" points="
		626.84,1522.36 626.72,1522.24 626.6,1522.12 626.48,1522.24 626.36,1522.36 626.48,1522.48 626.6,1522.6 626.72,1522.48 	"/>
	
		<polyline clip-path="url(#SVGID_2_)" fill="none" stroke="#DD0000" stroke-width="0.6" stroke-linecap="round" stroke-linejoin="round" stroke-miterlimit="10" points="
		627.44,1520.56 627.44,1520.68 627.44,1520.8 627.44,1521.52 627.44,1522.12 627.44,1522.24 627.44,1522.36 627.32,1522.36 
		626.96,1522.36 626.72,1522.36 626.6,1522.36 626.6,1522.48 626.6,1522.6 626.6,1523.2 626.6,1523.92 626.6,1524.04 626.6,1524.16 
		626.48,1524.16 626.24,1524.16 625.64,1524.16 625.04,1524.16 624.8,1524.16 624.68,1524.16 624.68,1524.04 624.68,1523.56 
		624.68,1522.36 624.68,1521.16 624.68,1520.68 624.68,1520.56 624.8,1520.56 625.16,1520.56 626.12,1520.56 626.96,1520.56 
		627.32,1520.56 627.44,1520.56 	"/>
	
		<polyline clip-path="url(#SVGID_2_)" fill="none" stroke="#DD0000" stroke-width="0.6" stroke-linecap="round" stroke-linejoin="round" stroke-miterlimit="10" points="
		555.92,1524.16 555.92,1524.28 555.92,1524.52 555.92,1524.88 555.92,1525.36 555.92,1526.8 556.04,1528.72 556.04,1530.88 
		556.04,1533.4 556.04,1538.68 556.04,1543.96 556.16,1546.48 556.16,1548.64 556.16,1550.56 556.16,1551.88 556.16,1552.48 
		556.16,1552.84 556.16,1553.08 556.16,1553.2 553.04,1553.08 550.04,1552.6 547.16,1551.88 544.4,1551.04 541.76,1549.72 
		539.24,1548.28 536.96,1546.72 534.8,1544.8 532.88,1542.76 531.08,1540.6 529.64,1538.2 528.32,1535.68 527.24,1533.04 
		526.52,1530.16 526.04,1527.28 525.92,1524.4 	"/>
	
		<polyline clip-path="url(#SVGID_2_)" fill="none" stroke="#DD0000" stroke-width="0.6" stroke-linecap="round" stroke-linejoin="round" stroke-miterlimit="10" points="
		526.76,1520.8 526.64,1520.8 526.4,1520.8 525.44,1520.8 524.48,1520.8 524.12,1520.8 524,1520.8 524,1520.92 524,1521.4 
		524.12,1522.6 524.12,1523.8 524.12,1524.28 524.12,1524.4 524.36,1524.4 524.96,1524.4 525.56,1524.4 525.8,1524.4 525.92,1524.4 
		525.92,1524.28 525.92,1524.04 525.92,1523.44 525.92,1522.84 525.92,1522.72 525.92,1522.6 526.04,1522.6 526.4,1522.6 
		526.64,1522.6 526.76,1522.6 526.76,1522.48 526.76,1522.24 526.76,1521.64 526.76,1521.04 526.76,1520.92 526.76,1520.8 	"/>
	
		<polyline clip-path="url(#SVGID_2_)" fill="none" stroke="#DD0000" stroke-width="0.6" stroke-linecap="round" stroke-linejoin="round" stroke-miterlimit="10" points="
		557.72,1520.56 557.6,1520.56 557.36,1520.56 556.4,1520.56 555.44,1520.56 555.2,1520.56 555.08,1520.56 555.08,1520.68 
		555.08,1520.92 555.08,1521.52 555.08,1522.12 555.08,1522.36 555.2,1522.36 555.44,1522.36 555.8,1522.36 555.92,1522.36 
		555.92,1522.48 555.92,1522.72 555.92,1523.32 555.92,1523.92 555.92,1524.04 555.92,1524.16 556.04,1524.16 556.28,1524.16 
		556.88,1524.16 557.48,1524.16 557.72,1524.16 557.84,1524.16 557.84,1524.04 557.72,1523.56 557.72,1522.36 557.72,1521.16 
		557.72,1520.68 557.72,1520.56 	"/>
	
		<polyline clip-path="url(#SVGID_2_)" fill="none" stroke="#DD0000" stroke-width="0.6" stroke-linecap="round" stroke-linejoin="round" stroke-miterlimit="10" points="
		522.2,1524.4 522.08,1527.4 521.72,1530.28 521,1533.04 520.04,1535.68 518.72,1538.2 517.28,1540.6 515.6,1542.88 513.68,1544.92 
		511.64,1546.84 509.36,1548.52 506.96,1549.96 504.32,1551.28 501.68,1552.24 498.8,1552.96 495.92,1553.44 492.8,1553.56 
		492.8,1553.32 492.8,1552.84 492.8,1552.36 492.8,1550.92 492.8,1549 492.8,1546.72 492.8,1544.32 492.8,1538.92 492.68,1533.52 
		492.68,1531 492.68,1528.72 492.68,1526.92 492.68,1525.36 492.68,1524.88 492.68,1524.52 492.68,1524.28 492.68,1524.16 	"/>
	
		<polyline clip-path="url(#SVGID_2_)" fill="none" stroke="#DD0000" stroke-width="0.6" stroke-linecap="round" stroke-linejoin="round" stroke-miterlimit="10" points="
		521.36,1520.8 521.48,1520.8 521.72,1520.8 522.68,1520.8 523.64,1520.8 523.88,1520.8 524,1520.8 524,1520.92 524,1521.4 
		524.12,1522.6 524.12,1523.8 524.12,1524.28 524.12,1524.4 524,1524.4 523.76,1524.4 523.16,1524.4 522.56,1524.4 522.32,1524.4 
		522.2,1524.4 522.2,1524.28 522.2,1524.16 522.2,1523.56 522.2,1522.84 522.2,1522.72 522.2,1522.6 522.08,1522.6 521.84,1522.6 
		521.48,1522.6 521.36,1522.6 521.36,1522.48 521.36,1522.36 521.36,1521.76 521.36,1521.16 521.36,1520.92 521.36,1520.8 	"/>
	<polygon clip-path="url(#SVGID_2_)" fill="#DD0000" points="492.92,1522.36 492.8,1522.24 492.68,1522.12 492.56,1522.24 
		492.44,1522.36 492.56,1522.48 492.68,1522.6 492.8,1522.48 	"/>
	
		<polygon clip-path="url(#SVGID_2_)" fill="none" stroke="#DD0000" stroke-width="0" stroke-linecap="round" stroke-linejoin="round" stroke-miterlimit="10" points="
		492.92,1522.36 492.8,1522.24 492.68,1522.12 492.56,1522.24 492.44,1522.36 492.56,1522.48 492.68,1522.6 492.8,1522.48 	"/>
	
		<polyline clip-path="url(#SVGID_2_)" fill="none" stroke="#DD0000" stroke-width="0.6" stroke-linecap="round" stroke-linejoin="round" stroke-miterlimit="10" points="
		493.52,1520.56 493.52,1520.68 493.52,1520.8 493.52,1521.52 493.52,1522.12 493.52,1522.24 493.52,1522.36 493.4,1522.36 
		493.04,1522.36 492.8,1522.36 492.68,1522.36 492.68,1522.48 492.68,1522.6 492.68,1523.2 492.68,1523.92 492.68,1524.04 
		492.68,1524.16 492.56,1524.16 492.32,1524.16 491.72,1524.16 491.12,1524.16 490.88,1524.16 490.88,1524.04 490.88,1523.56 
		490.76,1522.36 490.76,1521.16 490.76,1520.68 490.76,1520.56 490.88,1520.56 491.24,1520.56 492.2,1520.56 493.16,1520.56 
		493.4,1520.56 493.52,1520.56 	"/>
</g>
<g>
	<defs>
		<polyline id="SVGID_3_" points="43.04,1606.72 1147.04,1606.72 1147.04,77.92 43.04,77.92 43.04,1606.72 		"/>
	</defs>
	<clipPath id="SVGID_4_">
		<use xlink:href="#SVGID_3_"  overflow="visible"/>
	</clipPath>
	<g clip-path="url(#SVGID_4_)">
		<text transform="matrix(1 0 0 1 517.8789 1459.7188)" font-family="'ErasITC-Demi'" font-size="16.7434">ENTRANCE LOBBY</text>
	</g>
</g>
<g>
	<defs>
		<polyline id="SVGID_5_" points="43.04,1606.72 1147.04,1606.72 1147.04,77.92 43.04,77.92 43.04,1606.72 		"/>
	</defs>
	<clipPath id="SVGID_6_">
		<use xlink:href="#SVGID_5_"  overflow="visible"/>
	</clipPath>
	
		<line clip-path="url(#SVGID_6_)" fill="none" stroke="#000000" stroke-width="0.72" stroke-linecap="round" stroke-linejoin="round" stroke-miterlimit="10" x1="490.76" y1="1520.32" x2="557.72" y2="1520.32"/>
	
		<line clip-path="url(#SVGID_6_)" fill="none" stroke="#000000" stroke-width="0.72" stroke-linecap="round" stroke-linejoin="round" stroke-miterlimit="10" x1="624.68" y1="1520.32" x2="691.64" y2="1520.32"/>
	
		<polyline clip-path="url(#SVGID_6_)" fill="none" stroke="#BABABA" stroke-width="1.08" stroke-linecap="round" stroke-linejoin="round" stroke-miterlimit="10" points="
		103.04,130.96 107.24,130.96 107.24,135.04 103.04,135.04 103.04,130.96 	"/>
	
		<polyline clip-path="url(#SVGID_6_)" fill="none" stroke="#BABABA" stroke-width="1.08" stroke-linecap="round" stroke-linejoin="round" stroke-miterlimit="10" points="
		1075.28,130.96 1079.48,130.96 1079.48,135.04 1075.28,135.04 1075.28,130.96 	"/>
	
		<polyline clip-path="url(#SVGID_6_)" fill="none" stroke="#BABABA" stroke-width="1.08" stroke-linecap="round" stroke-linejoin="round" stroke-miterlimit="10" points="
		103.04,276.04 107.24,276.04 107.24,280.24 103.04,280.24 103.04,276.04 	"/>
	
		<polyline clip-path="url(#SVGID_6_)" fill="none" stroke="#BABABA" stroke-width="1.08" stroke-linecap="round" stroke-linejoin="round" stroke-miterlimit="10" points="
		1075.28,270.4 1079.48,270.4 1079.48,274.6 1075.28,274.6 1075.28,270.4 	"/>
	
		<polyline clip-path="url(#SVGID_6_)" fill="none" stroke="#BABABA" stroke-width="1.08" stroke-linecap="round" stroke-linejoin="round" stroke-miterlimit="10" points="
		103.04,415.48 107.24,415.48 107.24,419.68 103.04,419.68 103.04,415.48 	"/>
	
		<polyline clip-path="url(#SVGID_6_)" fill="none" stroke="#BABABA" stroke-width="1.08" stroke-linecap="round" stroke-linejoin="round" stroke-miterlimit="10" points="
		1075.28,409.84 1079.48,409.84 1079.48,414.04 1075.28,414.04 1075.28,409.84 	"/>
	
		<polyline clip-path="url(#SVGID_6_)" fill="none" stroke="#BABABA" stroke-width="1.08" stroke-linecap="round" stroke-linejoin="round" stroke-miterlimit="10" points="
		103.04,549.28 107.24,549.28 107.24,553.48 103.04,553.48 103.04,549.28 	"/>
	
		<polyline clip-path="url(#SVGID_6_)" fill="none" stroke="#BABABA" stroke-width="1.08" stroke-linecap="round" stroke-linejoin="round" stroke-miterlimit="10" points="
		1075.28,549.28 1079.48,549.28 1079.48,553.48 1075.28,553.48 1075.28,549.28 	"/>
	
		<polyline clip-path="url(#SVGID_6_)" fill="none" stroke="#BABABA" stroke-width="1.08" stroke-linecap="round" stroke-linejoin="round" stroke-miterlimit="10" points="
		103.04,688.72 107.24,688.72 107.24,692.92 103.04,692.92 103.04,688.72 	"/>
	
		<polyline clip-path="url(#SVGID_6_)" fill="none" stroke="#BABABA" stroke-width="1.08" stroke-linecap="round" stroke-linejoin="round" stroke-miterlimit="10" points="
		1075.28,688.72 1079.48,688.72 1079.48,692.92 1075.28,692.92 1075.28,688.72 	"/>
	
		<polyline clip-path="url(#SVGID_6_)" fill="none" stroke="#BABABA" stroke-width="1.08" stroke-linecap="round" stroke-linejoin="round" stroke-miterlimit="10" points="
		103.04,828.16 107.24,828.16 107.24,832.36 103.04,832.36 103.04,828.16 	"/>
	
		<polyline clip-path="url(#SVGID_6_)" fill="none" stroke="#BABABA" stroke-width="1.08" stroke-linecap="round" stroke-linejoin="round" stroke-miterlimit="10" points="
		1075.28,828.16 1079.48,828.16 1079.48,832.36 1075.28,832.36 1075.28,828.16 	"/>
	
		<polyline clip-path="url(#SVGID_6_)" fill="none" stroke="#BABABA" stroke-width="1.08" stroke-linecap="round" stroke-linejoin="round" stroke-miterlimit="10" points="
		103.04,967.72 107.24,967.72 107.24,971.8 103.04,971.8 103.04,967.72 	"/>
	
		<polyline clip-path="url(#SVGID_6_)" fill="none" stroke="#BABABA" stroke-width="1.08" stroke-linecap="round" stroke-linejoin="round" stroke-miterlimit="10" points="
		1075.28,967.72 1079.48,967.72 1079.48,971.8 1075.28,971.8 1075.28,967.72 	"/>
	
		<polyline clip-path="url(#SVGID_6_)" fill="none" stroke="#BABABA" stroke-width="1.08" stroke-linecap="round" stroke-linejoin="round" stroke-miterlimit="10" points="
		103.04,1107.16 107.24,1107.16 107.24,1111.36 103.04,1111.36 103.04,1107.16 	"/>
	
		<polyline clip-path="url(#SVGID_6_)" fill="none" stroke="#BABABA" stroke-width="1.08" stroke-linecap="round" stroke-linejoin="round" stroke-miterlimit="10" points="
		1075.28,1107.16 1079.48,1107.16 1079.48,1111.36 1075.28,1111.36 1075.28,1107.16 	"/>
	
		<polyline clip-path="url(#SVGID_6_)" fill="none" stroke="#BABABA" stroke-width="1.08" stroke-linecap="round" stroke-linejoin="round" stroke-miterlimit="10" points="
		103.04,1246.6 107.24,1246.6 107.24,1250.8 103.04,1250.8 103.04,1246.6 	"/>
	
		<polyline clip-path="url(#SVGID_6_)" fill="none" stroke="#BABABA" stroke-width="1.08" stroke-linecap="round" stroke-linejoin="round" stroke-miterlimit="10" points="
		1075.28,1246.6 1079.48,1246.6 1079.48,1250.8 1075.28,1250.8 1075.28,1246.6 	"/>
	
		<polyline clip-path="url(#SVGID_6_)" fill="none" stroke="#BABABA" stroke-width="1.08" stroke-linecap="round" stroke-linejoin="round" stroke-miterlimit="10" points="
		103.04,1382.2 107.24,1382.2 107.24,1386.4 103.04,1386.4 103.04,1382.2 	"/>
	
		<polyline clip-path="url(#SVGID_6_)" fill="none" stroke="#BABABA" stroke-width="1.08" stroke-linecap="round" stroke-linejoin="round" stroke-miterlimit="10" points="
		1075.28,1382.2 1079.48,1382.2 1079.48,1386.4 1075.28,1386.4 1075.28,1382.2 	"/>
</g>
</svg>
