<?xml version="1.0" encoding="utf-8"?>
<!-- Generator: Adobe Illustrator 16.0.0, SVG Export Plug-In . SVG Version: 6.00 Build 0)  -->
<!DOCTYPE svg PUBLIC "-//W3C//DTD SVG 1.1//EN" "http://www.w3.org/Graphics/SVG/1.1/DTD/svg11.dtd">
<svg version="1.1" id="Layer_1" xmlns="http://www.w3.org/2000/svg" xmlns:xlink="http://www.w3.org/1999/xlink" x="0px" y="0px"
	 width="1684px" height="2384px" viewBox="0 0 1684 2384" enable-background="new 0 0 1684 2384" xml:space="preserve">
<g>
	<defs>
		<polyline id="SVGID_1_" points="244.88,2185.4 1438.52,2185.4 1438.52,199.16 244.88,199.16 244.88,2185.4 		"/>
	</defs>
	<clipPath id="SVGID_2_">
		<use xlink:href="#SVGID_1_"  overflow="visible"/>
	</clipPath>
	
		<polyline clip-path="url(#SVGID_2_)" fill="none" stroke="#545454" stroke-width="0.24" stroke-linecap="round" stroke-linejoin="round" stroke-miterlimit="10" points="
		1171.28,381.44 1171.16,379.16 1170.8,377.12 1170.32,374.96 1169.6,373.04 1168.76,371.12 1167.68,369.44 1166.6,367.76 
		1165.28,366.2 1163.84,364.88 1162.28,363.56 1160.72,362.48 1159.04,361.64 1157.36,360.92 1155.56,360.32 1153.76,360.08 
		1151.96,359.96 	"/>
	
		<polyline clip-path="url(#SVGID_2_)" fill="none" stroke="#545454" stroke-width="0.24" stroke-linecap="round" stroke-linejoin="round" stroke-miterlimit="10" points="
		1171.28,381.08 1171.04,381.08 1170.439,381.08 1169.48,381.08 1168.16,381.08 1166.72,381.08 1165.04,381.08 1161.439,381.08 
		1157.84,381.08 1156.16,381.08 1154.72,381.08 1153.4,381.08 1152.439,381.08 1151.84,381.08 1151.6,381.08 	"/>
	
		<polyline clip-path="url(#SVGID_2_)" fill="none" stroke="#545454" stroke-width="0.24" stroke-linecap="round" stroke-linejoin="round" stroke-miterlimit="10" points="
		1148.96,359.96 1148.96,359.84 1148.96,359.6 1148.96,359 1148.96,358.28 1148.96,358.04 1148.96,357.92 1149.08,357.92 
		1149.439,357.92 1150.28,357.92 1151.24,357.92 1151.48,357.92 1151.6,357.92 1151.6,358.16 1151.6,358.64 1151.6,359.12 
		1151.6,359.24 1151.36,359.24 1151,359.24 1150.52,359.24 1150.28,359.24 1150.28,359.96 1150.04,359.96 1149.68,359.96 
		1149.2,359.96 1148.96,359.96 	"/>
	
		<polyline clip-path="url(#SVGID_2_)" fill="none" stroke="#545454" stroke-width="0.24" stroke-linecap="round" stroke-linejoin="round" stroke-miterlimit="10" points="
		1148.96,382.4 1148.96,382.28 1148.96,382.04 1148.96,381.44 1148.96,380.72 1148.96,380.48 1148.96,380.36 1149.2,380.36 
		1149.68,380.36 1150.04,380.36 1150.28,380.36 1150.28,381.08 1150.52,381.08 1151,381.08 1151.36,381.08 1151.6,381.08 
		1151.6,381.32 1151.6,381.68 1151.6,382.16 1151.6,382.4 1151.48,382.4 1151.24,382.4 1150.28,382.4 1149.439,382.4 1149.08,382.4 
		1148.96,382.4 	"/>
	
		<polyline clip-path="url(#SVGID_2_)" fill="none" stroke="#545454" stroke-width="0.24" stroke-linecap="round" stroke-linejoin="round" stroke-miterlimit="10" points="
		1151.96,356.6 1153.76,356.48 1155.56,356.24 1157.36,355.64 1159.04,354.92 1160.72,354.08 1162.28,353 1163.84,351.68 
		1165.28,350.36 1166.6,348.8 1167.68,347.12 1168.76,345.44 1169.6,343.52 1170.32,341.6 1170.8,339.56 1171.16,337.4 
		1171.28,335.24 	"/>
	
		<polyline clip-path="url(#SVGID_2_)" fill="none" stroke="#545454" stroke-width="0.24" stroke-linecap="round" stroke-linejoin="round" stroke-miterlimit="10" points="
		1171.28,334.88 1171.04,334.88 1170.439,334.88 1169.48,334.88 1168.16,334.88 1166.72,334.88 1165.04,334.88 1161.439,334.88 
		1157.84,334.88 1156.16,334.88 1154.72,334.88 1153.4,334.88 1152.439,334.88 1151.84,334.88 1151.6,334.88 	"/>
	
		<polyline clip-path="url(#SVGID_2_)" fill="none" stroke="#545454" stroke-width="0.24" stroke-linecap="round" stroke-linejoin="round" stroke-miterlimit="10" points="
		1148.96,356 1148.96,356.24 1148.96,356.96 1148.96,357.68 1148.96,357.92 1149.08,357.92 1149.439,357.92 1150.28,357.92 
		1151.24,357.92 1151.48,357.92 1151.6,357.92 1151.6,357.8 1151.6,357.32 1151.6,356.84 1151.6,356.6 1151.36,356.6 1151,356.6 
		1150.52,356.6 1150.28,356.6 1150.28,356 1150.04,356 1149.68,356 1149.2,356 1148.96,356 	"/>
	
		<polyline clip-path="url(#SVGID_2_)" fill="none" stroke="#545454" stroke-width="0.24" stroke-linecap="round" stroke-linejoin="round" stroke-miterlimit="10" points="
		1148.96,333.56 1148.96,333.8 1148.96,334.16 1148.96,334.64 1148.96,334.88 1149.2,334.88 1149.68,334.88 1150.04,334.88 
		1150.28,334.88 1150.52,334.88 1151,334.88 1151.36,334.88 1151.6,334.88 1151.6,334.64 1151.6,334.16 1151.6,333.8 1151.6,333.56 
		1151.48,333.56 1151.24,333.56 1150.28,333.56 1149.439,333.56 1149.08,333.56 1148.96,333.56 	"/>
	
		<polyline clip-path="url(#SVGID_2_)" fill="none" stroke="#545454" stroke-width="0.24" stroke-linecap="round" stroke-linejoin="round" stroke-miterlimit="10" points="
		1342.04,1190.6 1341.92,1188.32 1341.56,1186.28 1341.08,1184.12 1340.36,1182.2 1339.4,1180.28 1338.32,1178.6 1337.12,1176.92 
		1335.8,1175.36 1334.24,1174.04 1332.56,1172.72 1330.76,1171.64 1328.96,1170.8 1326.92,1170.08 1324.88,1169.48 1322.72,1169.24 
		1320.56,1169.12 	"/>
	
		<polyline clip-path="url(#SVGID_2_)" fill="none" stroke="#545454" stroke-width="0.24" stroke-linecap="round" stroke-linejoin="round" stroke-miterlimit="10" points="
		1342.04,1190.24 1341.8,1190.24 1341.08,1190.24 1340,1190.24 1338.68,1190.24 1337,1190.24 1335.2,1190.24 1331.12,1190.24 
		1327.16,1190.24 1325.36,1190.24 1323.68,1190.24 1322.24,1190.24 1321.16,1190.24 1320.439,1190.24 1320.2,1190.24 	"/>
	
		<polyline clip-path="url(#SVGID_2_)" fill="none" stroke="#545454" stroke-width="0.24" stroke-linecap="round" stroke-linejoin="round" stroke-miterlimit="10" points="
		1317.56,1169.12 1317.56,1169 1317.56,1168.76 1317.56,1168.16 1317.56,1167.44 1317.56,1167.2 1317.56,1167.08 1317.68,1167.08 
		1318.04,1167.08 1318.88,1167.08 1319.84,1167.08 1320.2,1167.08 1320.2,1167.32 1320.2,1167.8 1320.2,1168.28 1320.2,1168.4 
		1320.08,1168.4 1319.6,1168.4 1319.12,1168.4 1318.88,1168.4 1318.88,1169.12 1318.76,1169.12 1318.28,1169.12 1317.8,1169.12 
		1317.56,1169.12 	"/>
	
		<polyline clip-path="url(#SVGID_2_)" fill="none" stroke="#545454" stroke-width="0.24" stroke-linecap="round" stroke-linejoin="round" stroke-miterlimit="10" points="
		1317.56,1191.56 1317.56,1191.44 1317.56,1191.2 1317.56,1190.6 1317.56,1189.88 1317.56,1189.64 1317.56,1189.52 1317.8,1189.52 
		1318.28,1189.52 1318.76,1189.52 1318.88,1189.52 1318.88,1190.24 1319.12,1190.24 1319.6,1190.24 1320.08,1190.24 1320.2,1190.24 
		1320.2,1190.48 1320.2,1190.84 1320.2,1191.32 1320.2,1191.56 1319.84,1191.56 1318.88,1191.56 1318.04,1191.56 1317.68,1191.56 
		1317.56,1191.56 	"/>
	
		<polyline clip-path="url(#SVGID_2_)" fill="none" stroke="#545454" stroke-width="0.24" stroke-linecap="round" stroke-linejoin="round" stroke-miterlimit="10" points="
		1320.56,1165.76 1322.72,1165.64 1324.88,1165.4 1326.92,1164.8 1328.96,1164.08 1330.76,1163.24 1332.56,1162.16 1334.24,1160.96 
		1335.8,1159.52 1337.12,1157.96 1338.32,1156.4 1339.4,1154.6 1340.36,1152.68 1341.08,1150.76 1341.56,1148.72 1341.92,1146.56 
		1342.04,1144.4 	"/>
	
		<polyline clip-path="url(#SVGID_2_)" fill="none" stroke="#545454" stroke-width="0.24" stroke-linecap="round" stroke-linejoin="round" stroke-miterlimit="10" points="
		1342.04,1144.04 1341.8,1144.04 1341.08,1144.04 1340,1144.04 1338.68,1144.04 1337,1144.04 1335.2,1144.04 1331.12,1144.04 
		1327.16,1144.04 1325.36,1144.04 1323.68,1144.04 1322.24,1144.04 1321.16,1144.04 1320.439,1144.04 1320.2,1144.04 	"/>
	
		<polyline clip-path="url(#SVGID_2_)" fill="none" stroke="#545454" stroke-width="0.24" stroke-linecap="round" stroke-linejoin="round" stroke-miterlimit="10" points="
		1317.56,1165.16 1317.56,1165.28 1317.56,1165.4 1317.56,1166.12 1317.56,1166.84 1317.56,1167.08 1317.68,1167.08 
		1318.04,1167.08 1318.88,1167.08 1319.84,1167.08 1320.2,1167.08 1320.2,1166.96 1320.2,1166.48 1320.2,1166 1320.2,1165.76 
		1320.08,1165.76 1319.6,1165.76 1319.12,1165.76 1318.88,1165.76 1318.88,1165.16 1318.76,1165.16 1318.28,1165.16 1317.8,1165.16 
		1317.56,1165.16 	"/>
	
		<polyline clip-path="url(#SVGID_2_)" fill="none" stroke="#545454" stroke-width="0.24" stroke-linecap="round" stroke-linejoin="round" stroke-miterlimit="10" points="
		1317.56,1142.72 1317.56,1142.96 1317.56,1143.32 1317.56,1143.8 1317.56,1144.04 1317.8,1144.04 1318.28,1144.04 1318.76,1144.04 
		1318.88,1144.04 1319.12,1144.04 1319.6,1144.04 1320.08,1144.04 1320.2,1144.04 1320.2,1143.8 1320.2,1143.32 1320.2,1142.96 
		1320.2,1142.72 1319.84,1142.72 1318.88,1142.72 1318.04,1142.72 1317.68,1142.72 1317.56,1142.72 	"/>
	
		<polyline clip-path="url(#SVGID_2_)" fill="none" stroke="#545454" stroke-width="0.24" stroke-linecap="round" stroke-linejoin="round" stroke-miterlimit="10" points="
		1077.2,2108.36 1079.36,2108.24 1081.52,2107.88 1083.56,2107.4 1085.48,2106.68 1087.4,2105.72 1089.2,2104.64 1090.76,2103.44 
		1092.32,2102 1093.76,2100.56 1094.96,2098.88 1096.04,2097.08 1096.88,2095.28 1097.6,2093.24 1098.2,2091.2 1098.439,2089.04 
		1098.56,2086.88 	"/>
	
		<polyline clip-path="url(#SVGID_2_)" fill="none" stroke="#545454" stroke-width="0.24" stroke-linecap="round" stroke-linejoin="round" stroke-miterlimit="10" points="
		1077.439,2108.36 1077.439,2108.12 1077.439,2107.4 1077.439,2106.32 1077.439,2104.88 1077.439,2103.32 1077.439,2101.4 
		1077.439,2097.44 1077.439,2093.48 1077.439,2091.56 1077.439,2090 1077.439,2088.56 1077.439,2087.48 1077.439,2086.76 
		1077.439,2086.52 	"/>
	
		<polyline clip-path="url(#SVGID_2_)" fill="none" stroke="#545454" stroke-width="0.24" stroke-linecap="round" stroke-linejoin="round" stroke-miterlimit="10" points="
		1098.56,2083.88 1098.68,2083.88 1098.92,2083.88 1099.64,2083.88 1100.24,2083.88 1100.48,2083.88 1100.6,2083.88 1100.6,2084 
		1100.6,2084.36 1100.6,2085.2 1100.6,2086.16 1100.6,2086.4 1100.6,2086.52 1100.36,2086.52 1099.88,2086.52 1099.52,2086.52 
		1099.28,2086.52 1099.28,2086.4 1099.28,2085.92 1099.28,2085.44 1099.28,2085.2 1098.56,2085.2 1098.56,2085.08 1098.56,2084.6 
		1098.56,2084.12 1098.56,2083.88 	"/>
	
		<polyline clip-path="url(#SVGID_2_)" fill="none" stroke="#545454" stroke-width="0.24" stroke-linecap="round" stroke-linejoin="round" stroke-miterlimit="10" points="
		1076.12,2083.88 1076.24,2083.88 1076.48,2083.88 1077.2,2083.88 1077.8,2083.88 1078.04,2083.88 1078.16,2083.88 1078.16,2084.12 
		1078.16,2084.6 1078.16,2085.08 1078.16,2085.2 1077.439,2085.2 1077.439,2085.44 1077.439,2085.92 1077.439,2086.4 
		1077.439,2086.52 1077.32,2086.52 1076.84,2086.52 1076.36,2086.52 1076.12,2086.52 1076.12,2086.4 1076.12,2086.16 
		1076.12,2085.2 1076.12,2084.36 1076.12,2084 1076.12,2083.88 	"/>
	
		<polyline clip-path="url(#SVGID_2_)" fill="none" stroke="#545454" stroke-width="0.24" stroke-linecap="round" stroke-linejoin="round" stroke-miterlimit="10" points="
		1101.92,2086.88 1102.04,2089.04 1102.28,2091.2 1102.88,2093.24 1103.6,2095.28 1104.439,2097.08 1105.52,2098.88 
		1106.84,2100.56 1108.16,2102 1109.72,2103.44 1111.4,2104.64 1113.08,2105.72 1115,2106.68 1116.92,2107.4 1119.08,2107.88 
		1121.12,2108.24 1123.4,2108.36 	"/>
	
		<polyline clip-path="url(#SVGID_2_)" fill="none" stroke="#545454" stroke-width="0.24" stroke-linecap="round" stroke-linejoin="round" stroke-miterlimit="10" points="
		1123.64,2108.36 1123.64,2108.12 1123.64,2107.4 1123.64,2106.32 1123.64,2104.88 1123.64,2103.32 1123.64,2101.4 1123.64,2097.44 
		1123.64,2093.48 1123.64,2091.56 1123.64,2090 1123.64,2088.56 1123.64,2087.48 1123.64,2086.76 1123.64,2086.52 	"/>
	
		<polyline clip-path="url(#SVGID_2_)" fill="none" stroke="#545454" stroke-width="0.24" stroke-linecap="round" stroke-linejoin="round" stroke-miterlimit="10" points="
		1102.52,2083.88 1102.28,2083.88 1101.56,2083.88 1100.84,2083.88 1100.72,2083.88 1100.6,2083.88 1100.6,2084 1100.6,2084.36 
		1100.6,2085.2 1100.6,2086.16 1100.6,2086.4 1100.6,2086.52 1100.84,2086.52 1101.2,2086.52 1101.68,2086.52 1101.92,2086.52 
		1101.92,2086.4 1101.92,2085.92 1101.92,2085.44 1101.92,2085.2 1102.52,2085.2 1102.52,2085.08 1102.52,2084.6 1102.52,2084.12 
		1102.52,2083.88 	"/>
	
		<polyline clip-path="url(#SVGID_2_)" fill="none" stroke="#545454" stroke-width="0.24" stroke-linecap="round" stroke-linejoin="round" stroke-miterlimit="10" points="
		1124.96,2083.88 1124.84,2083.88 1124.36,2083.88 1123.88,2083.88 1123.64,2083.88 1123.64,2084.12 1123.64,2084.6 
		1123.64,2085.08 1123.64,2085.2 1123.64,2085.44 1123.64,2085.92 1123.64,2086.4 1123.64,2086.52 1123.88,2086.52 1124.36,2086.52 
		1124.84,2086.52 1124.96,2086.52 1124.96,2086.4 1124.96,2086.16 1124.96,2085.2 1124.96,2084.36 1124.96,2084 1124.96,2083.88 	
		"/>
	
		<polyline clip-path="url(#SVGID_2_)" fill="none" stroke="#000000" stroke-width="0.72" stroke-linecap="round" stroke-linejoin="round" stroke-miterlimit="10" points="
		297.8,244.64 1152.32,244.64 1152.32,333.56 	"/>
	
		<polyline clip-path="url(#SVGID_2_)" fill="none" stroke="#000000" stroke-width="0.72" stroke-linecap="round" stroke-linejoin="round" stroke-miterlimit="10" points="
		297.8,248.84 1148.12,248.84 1148.12,333.56 	"/>
	
		<line clip-path="url(#SVGID_2_)" fill="none" stroke="#000000" stroke-width="0.72" stroke-linecap="round" stroke-linejoin="round" stroke-miterlimit="10" x1="1152.32" y1="382.4" x2="1152.32" y2="1099.28"/>
	
		<line clip-path="url(#SVGID_2_)" fill="none" stroke="#000000" stroke-width="0.72" stroke-linecap="round" stroke-linejoin="round" stroke-miterlimit="10" x1="1148.12" y1="382.4" x2="1148.12" y2="1099.28"/>
	
		<polyline clip-path="url(#SVGID_2_)" fill="none" stroke="#000000" stroke-width="0.72" stroke-linecap="round" stroke-linejoin="round" stroke-miterlimit="10" points="
		1152.32,1236.8 1152.32,2087.12 1124.96,2087.12 	"/>
	
		<polyline clip-path="url(#SVGID_2_)" fill="none" stroke="#000000" stroke-width="0.72" stroke-linecap="round" stroke-linejoin="round" stroke-miterlimit="10" points="
		1148.12,1236.8 1148.12,2082.92 1124.96,2082.92 	"/>
	
		<line clip-path="url(#SVGID_2_)" fill="none" stroke="#000000" stroke-width="0.72" stroke-linecap="round" stroke-linejoin="round" stroke-miterlimit="10" x1="1076.12" y1="2087.12" x2="380.84" y2="2087.12"/>
	
		<line clip-path="url(#SVGID_2_)" fill="none" stroke="#000000" stroke-width="0.72" stroke-linecap="round" stroke-linejoin="round" stroke-miterlimit="10" x1="1076.12" y1="2082.92" x2="380.84" y2="2082.92"/>
	
		<polyline clip-path="url(#SVGID_2_)" fill="none" stroke="#000000" stroke-width="0.72" stroke-linecap="round" stroke-linejoin="round" stroke-miterlimit="10" points="
		332,2087.12 297.8,2087.12 297.8,244.64 	"/>
	
		<polyline clip-path="url(#SVGID_2_)" fill="none" stroke="#000000" stroke-width="0.72" stroke-linecap="round" stroke-linejoin="round" stroke-miterlimit="10" points="
		332,2082.92 302,2082.92 302,244.64 	"/>
	
		<polyline clip-path="url(#SVGID_2_)" fill="none" stroke="#000000" stroke-width="1.44" stroke-linecap="round" stroke-linejoin="round" stroke-miterlimit="10" points="
		297.8,244.64 302,244.64 302,248.84 297.8,248.84 297.8,244.64 	"/>
	
		<polyline clip-path="url(#SVGID_2_)" fill="none" stroke="#000000" stroke-width="1.44" stroke-linecap="round" stroke-linejoin="round" stroke-miterlimit="10" points="
		439.52,244.64 443.72,244.64 443.72,248.84 439.52,248.84 439.52,244.64 	"/>
	
		<polyline clip-path="url(#SVGID_2_)" fill="none" stroke="#000000" stroke-width="1.44" stroke-linecap="round" stroke-linejoin="round" stroke-miterlimit="10" points="
		581.24,244.64 585.44,244.64 585.44,248.84 581.24,248.84 581.24,244.64 	"/>
	
		<polyline clip-path="url(#SVGID_2_)" fill="none" stroke="#000000" stroke-width="1.44" stroke-linecap="round" stroke-linejoin="round" stroke-miterlimit="10" points="
		722.96,244.64 727.16,244.64 727.16,248.84 722.96,248.84 722.96,244.64 	"/>
	
		<polyline clip-path="url(#SVGID_2_)" fill="none" stroke="#000000" stroke-width="1.44" stroke-linecap="round" stroke-linejoin="round" stroke-miterlimit="10" points="
		864.68,244.64 868.88,244.64 868.88,248.84 864.68,248.84 864.68,244.64 	"/>
	
		<polyline clip-path="url(#SVGID_2_)" fill="none" stroke="#000000" stroke-width="1.44" stroke-linecap="round" stroke-linejoin="round" stroke-miterlimit="10" points="
		1006.4,244.64 1010.6,244.64 1010.6,248.84 1006.4,248.84 1006.4,244.64 	"/>
	
		<polyline clip-path="url(#SVGID_2_)" fill="none" stroke="#000000" stroke-width="1.44" stroke-linecap="round" stroke-linejoin="round" stroke-miterlimit="10" points="
		1148.12,244.64 1152.32,244.64 1152.32,248.84 1148.12,248.84 1148.12,244.64 	"/>
	
		<polyline clip-path="url(#SVGID_2_)" fill="none" stroke="#000000" stroke-width="1.44" stroke-linecap="round" stroke-linejoin="round" stroke-miterlimit="10" points="
		297.8,1945.4 302,1945.4 302,1949.72 297.8,1949.72 297.8,1945.4 	"/>
	
		<polyline clip-path="url(#SVGID_2_)" fill="none" stroke="#000000" stroke-width="1.44" stroke-linecap="round" stroke-linejoin="round" stroke-miterlimit="10" points="
		1148.12,1945.4 1152.32,1945.4 1152.32,1949.72 1148.12,1949.72 1148.12,1945.4 	"/>
	
		<polyline clip-path="url(#SVGID_2_)" fill="none" stroke="#000000" stroke-width="1.44" stroke-linecap="round" stroke-linejoin="round" stroke-miterlimit="10" points="
		297.8,1803.68 302,1803.68 302,1807.88 297.8,1807.88 297.8,1803.68 	"/>
	
		<polyline clip-path="url(#SVGID_2_)" fill="none" stroke="#000000" stroke-width="1.44" stroke-linecap="round" stroke-linejoin="round" stroke-miterlimit="10" points="
		1148.12,1803.68 1152.32,1803.68 1152.32,1807.88 1148.12,1807.88 1148.12,1803.68 	"/>
	
		<polyline clip-path="url(#SVGID_2_)" fill="none" stroke="#000000" stroke-width="1.44" stroke-linecap="round" stroke-linejoin="round" stroke-miterlimit="10" points="
		297.8,1661.96 302,1661.96 302,1666.16 297.8,1666.16 297.8,1661.96 	"/>
	
		<polyline clip-path="url(#SVGID_2_)" fill="none" stroke="#000000" stroke-width="1.44" stroke-linecap="round" stroke-linejoin="round" stroke-miterlimit="10" points="
		1148.12,1661.96 1152.32,1661.96 1152.32,1666.16 1148.12,1666.16 1148.12,1661.96 	"/>
	
		<polyline clip-path="url(#SVGID_2_)" fill="none" stroke="#000000" stroke-width="1.44" stroke-linecap="round" stroke-linejoin="round" stroke-miterlimit="10" points="
		297.8,1520.24 302,1520.24 302,1524.44 297.8,1524.44 297.8,1520.24 	"/>
	
		<polyline clip-path="url(#SVGID_2_)" fill="none" stroke="#000000" stroke-width="1.44" stroke-linecap="round" stroke-linejoin="round" stroke-miterlimit="10" points="
		1148.12,1520.24 1152.32,1520.24 1152.32,1524.44 1148.12,1524.44 1148.12,1520.24 	"/>
	
		<polyline clip-path="url(#SVGID_2_)" fill="none" stroke="#000000" stroke-width="1.44" stroke-linecap="round" stroke-linejoin="round" stroke-miterlimit="10" points="
		297.8,1378.52 302,1378.52 302,1382.72 297.8,1382.72 297.8,1378.52 	"/>
	
		<polyline clip-path="url(#SVGID_2_)" fill="none" stroke="#000000" stroke-width="1.44" stroke-linecap="round" stroke-linejoin="round" stroke-miterlimit="10" points="
		1148.12,1378.52 1152.32,1378.52 1152.32,1382.72 1148.12,1382.72 1148.12,1378.52 	"/>
	
		<polyline clip-path="url(#SVGID_2_)" fill="none" stroke="#000000" stroke-width="1.44" stroke-linecap="round" stroke-linejoin="round" stroke-miterlimit="10" points="
		297.8,1236.8 302,1236.8 302,1241 297.8,1241 297.8,1236.8 	"/>
	
		<polyline clip-path="url(#SVGID_2_)" fill="none" stroke="#000000" stroke-width="1.44" stroke-linecap="round" stroke-linejoin="round" stroke-miterlimit="10" points="
		1148.12,1236.8 1152.32,1236.8 1152.32,1241 1148.12,1241 1148.12,1236.8 	"/>
	
		<polyline clip-path="url(#SVGID_2_)" fill="none" stroke="#000000" stroke-width="1.44" stroke-linecap="round" stroke-linejoin="round" stroke-miterlimit="10" points="
		297.8,1095.08 302,1095.08 302,1099.28 297.8,1099.28 297.8,1095.08 	"/>
	
		<polyline clip-path="url(#SVGID_2_)" fill="none" stroke="#000000" stroke-width="1.44" stroke-linecap="round" stroke-linejoin="round" stroke-miterlimit="10" points="
		1148.12,1095.08 1152.32,1095.08 1152.32,1099.28 1148.12,1099.28 1148.12,1095.08 	"/>
	
		<polyline clip-path="url(#SVGID_2_)" fill="none" stroke="#000000" stroke-width="1.44" stroke-linecap="round" stroke-linejoin="round" stroke-miterlimit="10" points="
		297.8,953.24 302,953.24 302,957.56 297.8,957.56 297.8,953.24 	"/>
	
		<polyline clip-path="url(#SVGID_2_)" fill="none" stroke="#000000" stroke-width="1.44" stroke-linecap="round" stroke-linejoin="round" stroke-miterlimit="10" points="
		1148.12,953.24 1152.32,953.24 1152.32,957.56 1148.12,957.56 1148.12,953.24 	"/>
	
		<polyline clip-path="url(#SVGID_2_)" fill="none" stroke="#000000" stroke-width="1.44" stroke-linecap="round" stroke-linejoin="round" stroke-miterlimit="10" points="
		297.8,811.52 302,811.52 302,815.84 297.8,815.84 297.8,811.52 	"/>
	
		<polyline clip-path="url(#SVGID_2_)" fill="none" stroke="#000000" stroke-width="1.44" stroke-linecap="round" stroke-linejoin="round" stroke-miterlimit="10" points="
		1148.12,811.52 1152.32,811.52 1152.32,815.84 1148.12,815.84 1148.12,811.52 	"/>
	
		<polyline clip-path="url(#SVGID_2_)" fill="none" stroke="#000000" stroke-width="1.44" stroke-linecap="round" stroke-linejoin="round" stroke-miterlimit="10" points="
		297.8,669.8 302,669.8 302,674.12 297.8,674.12 297.8,669.8 	"/>
	
		<polyline clip-path="url(#SVGID_2_)" fill="none" stroke="#000000" stroke-width="1.44" stroke-linecap="round" stroke-linejoin="round" stroke-miterlimit="10" points="
		1148.12,669.8 1152.32,669.8 1152.32,674.12 1148.12,674.12 1148.12,669.8 	"/>
	
		<polyline clip-path="url(#SVGID_2_)" fill="none" stroke="#000000" stroke-width="1.44" stroke-linecap="round" stroke-linejoin="round" stroke-miterlimit="10" points="
		297.8,528.08 302,528.08 302,532.4 297.8,532.4 297.8,528.08 	"/>
	
		<polyline clip-path="url(#SVGID_2_)" fill="none" stroke="#000000" stroke-width="1.44" stroke-linecap="round" stroke-linejoin="round" stroke-miterlimit="10" points="
		1148.12,528.08 1152.32,528.08 1152.32,532.4 1148.12,532.4 1148.12,528.08 	"/>
	
		<polyline clip-path="url(#SVGID_2_)" fill="none" stroke="#000000" stroke-width="1.44" stroke-linecap="round" stroke-linejoin="round" stroke-miterlimit="10" points="
		297.8,386.36 302,386.36 302,390.68 297.8,390.68 297.8,386.36 	"/>
	
		<polyline clip-path="url(#SVGID_2_)" fill="none" stroke="#000000" stroke-width="1.44" stroke-linecap="round" stroke-linejoin="round" stroke-miterlimit="10" points="
		1148.12,386.36 1152.32,386.36 1152.32,390.68 1148.12,390.68 1148.12,386.36 	"/>
	
		<polyline clip-path="url(#SVGID_2_)" fill="none" stroke="#000000" stroke-width="0.72" stroke-linecap="round" stroke-linejoin="round" stroke-miterlimit="10" points="
		1152.32,1011.56 1320.2,1011.56 1320.2,1142.72 	"/>
	
		<polyline clip-path="url(#SVGID_2_)" fill="none" stroke="#000000" stroke-width="0.72" stroke-linecap="round" stroke-linejoin="round" stroke-miterlimit="10" points="
		1152.32,1015.76 1316,1015.76 1316,1142.72 	"/>
	
		<polyline clip-path="url(#SVGID_2_)" fill="none" stroke="#000000" stroke-width="0.72" stroke-linecap="round" stroke-linejoin="round" stroke-miterlimit="10" points="
		1320.2,1191.56 1320.2,1323.32 1152.32,1323.32 	"/>
	
		<polyline clip-path="url(#SVGID_2_)" fill="none" stroke="#000000" stroke-width="0.72" stroke-linecap="round" stroke-linejoin="round" stroke-miterlimit="10" points="
		1316,1191.56 1316,1319.12 1152.32,1319.12 	"/>
	
		<polyline clip-path="url(#SVGID_2_)" fill="none" stroke="#000000" stroke-width="1.44" stroke-linecap="round" stroke-linejoin="round" stroke-miterlimit="10" points="
		297.8,2082.92 302,2082.92 302,2087.12 297.8,2087.12 297.8,2082.92 	"/>
	
		<polyline clip-path="url(#SVGID_2_)" fill="none" stroke="#000000" stroke-width="1.44" stroke-linecap="round" stroke-linejoin="round" stroke-miterlimit="10" points="
		439.52,2082.92 443.72,2082.92 443.72,2087.12 439.52,2087.12 439.52,2082.92 	"/>
	
		<polyline clip-path="url(#SVGID_2_)" fill="none" stroke="#000000" stroke-width="1.44" stroke-linecap="round" stroke-linejoin="round" stroke-miterlimit="10" points="
		581.24,2082.92 585.44,2082.92 585.44,2087.12 581.24,2087.12 581.24,2082.92 	"/>
	
		<polyline clip-path="url(#SVGID_2_)" fill="none" stroke="#000000" stroke-width="1.44" stroke-linecap="round" stroke-linejoin="round" stroke-miterlimit="10" points="
		722.96,2082.92 727.16,2082.92 727.16,2087.12 722.96,2087.12 722.96,2082.92 	"/>
	
		<polyline clip-path="url(#SVGID_2_)" fill="none" stroke="#000000" stroke-width="1.44" stroke-linecap="round" stroke-linejoin="round" stroke-miterlimit="10" points="
		864.68,2082.92 868.88,2082.92 868.88,2087.12 864.68,2087.12 864.68,2082.92 	"/>
	
		<polyline clip-path="url(#SVGID_2_)" fill="none" stroke="#000000" stroke-width="1.44" stroke-linecap="round" stroke-linejoin="round" stroke-miterlimit="10" points="
		1006.4,2082.92 1010.6,2082.92 1010.6,2087.12 1006.4,2087.12 1006.4,2082.92 	"/>
	
		<polyline clip-path="url(#SVGID_2_)" fill="none" stroke="#000000" stroke-width="1.44" stroke-linecap="round" stroke-linejoin="round" stroke-miterlimit="10" points="
		1148.12,2082.92 1152.32,2082.92 1152.32,2087.12 1148.12,2087.12 1148.12,2082.92 	"/>
	
		<line clip-path="url(#SVGID_2_)" fill="none" stroke="#000000" stroke-width="0.72" stroke-linecap="round" stroke-linejoin="round" stroke-miterlimit="10" x1="1152.32" y1="1099.28" x2="1152.32" y2="1236.8"/>
	
		<polyline clip-path="url(#SVGID_2_)" fill="none" stroke="#000000" stroke-width="0.72" stroke-linecap="round" stroke-linejoin="round" stroke-miterlimit="10" points="
		1152.32,1013.72 1318.16,1013.72 1318.16,1142.72 	"/>
	
		<polyline clip-path="url(#SVGID_2_)" fill="none" stroke="#000000" stroke-width="0.72" stroke-linecap="round" stroke-linejoin="round" stroke-miterlimit="10" points="
		1152.32,1321.28 1318.16,1321.28 1318.16,1191.56 	"/>
	
		<line clip-path="url(#SVGID_2_)" fill="none" stroke="#000000" stroke-width="0.72" stroke-linecap="round" stroke-linejoin="round" stroke-miterlimit="10" x1="1320.2" y1="1142.72" x2="1316" y2="1142.72"/>
	
		<line clip-path="url(#SVGID_2_)" fill="none" stroke="#000000" stroke-width="0.72" stroke-linecap="round" stroke-linejoin="round" stroke-miterlimit="10" x1="1320.2" y1="1191.56" x2="1316" y2="1191.56"/>
	
		<line clip-path="url(#SVGID_2_)" fill="none" stroke="#000000" stroke-width="0.72" stroke-linecap="round" stroke-linejoin="round" stroke-miterlimit="10" x1="1124.96" y1="2087.12" x2="1124.96" y2="2082.92"/>
	
		<line clip-path="url(#SVGID_2_)" fill="none" stroke="#000000" stroke-width="0.72" stroke-linecap="round" stroke-linejoin="round" stroke-miterlimit="10" x1="1076.12" y1="2087.12" x2="1076.12" y2="2082.92"/>
</g>
<g>
	<defs>
		<polyline id="SVGID_3_" points="244.88,2185.4 1438.52,2185.4 1438.52,199.16 244.88,199.16 244.88,2185.4 		"/>
	</defs>
	<clipPath id="SVGID_4_">
		<use xlink:href="#SVGID_3_"  overflow="visible"/>
	</clipPath>
	<g clip-path="url(#SVGID_4_)">
		<text transform="matrix(1 0 0 1 1093.8789 2129.5986)" font-family="'Calibri-Bold'" font-size="11.164">TO</text>
	</g>
</g>
<g>
	<defs>
		<polyline id="SVGID_5_" points="244.88,2185.4 1438.52,2185.4 1438.52,199.16 244.88,199.16 244.88,2185.4 		"/>
	</defs>
	<clipPath id="SVGID_6_">
		<use xlink:href="#SVGID_5_"  overflow="visible"/>
	</clipPath>
	<g clip-path="url(#SVGID_6_)">
		<text transform="matrix(1 0 0 1 1077.5586 2141.4785)" font-family="'Calibri-Bold'" font-size="11.164">VENDORS</text>
	</g>
	<g clip-path="url(#SVGID_6_)">
		<text transform="matrix(1 0 0 1 1079.7188 2153.3594)" font-family="'Calibri-Bold'" font-size="11.164">OUTSIDE</text>
	</g>
	<g clip-path="url(#SVGID_6_)">
		<text transform="matrix(1 0 0 1 348.6787 2129.5986)" font-family="'Calibri-Bold'" font-size="11.164">TO</text>
	</g>
	<g clip-path="url(#SVGID_6_)">
		<text transform="matrix(1 0 0 1 325.3989 2141.4785)" font-family="'Calibri-Bold'" font-size="11.164">RESTROOMS</text>
	</g>
	
		<polyline clip-path="url(#SVGID_6_)" fill="none" stroke="#545454" stroke-width="0.24" stroke-linecap="round" stroke-linejoin="round" stroke-miterlimit="10" points="
		333.08,2108.36 335.24,2108.24 337.4,2107.88 339.44,2107.4 341.36,2106.68 343.28,2105.72 345.08,2104.64 346.64,2103.44 
		348.2,2102 349.64,2100.56 350.84,2098.88 351.92,2097.08 352.76,2095.28 353.48,2093.24 354.08,2091.2 354.44,2089.04 
		354.44,2086.88 	"/>
	
		<polyline clip-path="url(#SVGID_6_)" fill="none" stroke="#545454" stroke-width="0.24" stroke-linecap="round" stroke-linejoin="round" stroke-miterlimit="10" points="
		333.32,2108.36 333.32,2108.12 333.32,2107.4 333.32,2106.32 333.32,2104.88 333.32,2103.32 333.32,2101.4 333.32,2097.44 
		333.32,2093.48 333.32,2091.56 333.32,2090 333.32,2088.56 333.32,2087.48 333.32,2086.76 333.32,2086.52 	"/>
	
		<polyline clip-path="url(#SVGID_6_)" fill="none" stroke="#545454" stroke-width="0.24" stroke-linecap="round" stroke-linejoin="round" stroke-miterlimit="10" points="
		354.44,2083.88 354.56,2083.88 354.8,2083.88 355.52,2083.88 356.12,2083.88 356.36,2083.88 356.48,2083.88 356.48,2084 
		356.48,2084.36 356.48,2085.2 356.48,2086.16 356.48,2086.4 356.48,2086.52 356.24,2086.52 355.76,2086.52 355.4,2086.52 
		355.16,2086.52 355.16,2086.4 355.16,2085.92 355.16,2085.44 355.16,2085.2 354.44,2085.2 354.44,2085.08 354.44,2084.6 
		354.44,2084.12 354.44,2083.88 	"/>
	
		<polyline clip-path="url(#SVGID_6_)" fill="none" stroke="#545454" stroke-width="0.24" stroke-linecap="round" stroke-linejoin="round" stroke-miterlimit="10" points="
		332,2083.88 332.12,2083.88 332.36,2083.88 333.08,2083.88 333.68,2083.88 333.92,2083.88 334.04,2083.88 334.04,2084.12 
		334.04,2084.6 334.04,2085.08 334.04,2085.2 333.32,2085.2 333.32,2085.44 333.32,2085.92 333.32,2086.4 333.32,2086.52 
		333.2,2086.52 332.72,2086.52 332.24,2086.52 332,2086.52 332,2086.4 332,2086.16 332,2085.2 332,2084.36 332,2084 332,2083.88 	
		"/>
	
		<polyline clip-path="url(#SVGID_6_)" fill="none" stroke="#545454" stroke-width="0.24" stroke-linecap="round" stroke-linejoin="round" stroke-miterlimit="10" points="
		357.8,2086.88 357.92,2089.04 358.28,2091.2 358.76,2093.24 359.48,2095.28 360.44,2097.08 361.4,2098.88 362.72,2100.56 
		364.04,2102 365.6,2103.44 367.28,2104.64 368.96,2105.72 370.88,2106.68 372.92,2107.4 374.96,2107.88 377,2108.24 
		379.28,2108.36 	"/>
	
		<polyline clip-path="url(#SVGID_6_)" fill="none" stroke="#545454" stroke-width="0.24" stroke-linecap="round" stroke-linejoin="round" stroke-miterlimit="10" points="
		379.52,2108.36 379.52,2108.12 379.52,2107.4 379.52,2106.32 379.52,2104.88 379.52,2103.32 379.52,2101.4 379.52,2097.44 
		379.52,2093.48 379.52,2091.56 379.52,2090 379.52,2088.56 379.52,2087.48 379.52,2086.76 379.52,2086.52 	"/>
	
		<polyline clip-path="url(#SVGID_6_)" fill="none" stroke="#545454" stroke-width="0.24" stroke-linecap="round" stroke-linejoin="round" stroke-miterlimit="10" points="
		358.4,2083.88 358.16,2083.88 357.44,2083.88 356.84,2083.88 356.6,2083.88 356.48,2083.88 356.48,2084 356.48,2084.36 
		356.48,2085.2 356.48,2086.16 356.48,2086.4 356.48,2086.52 356.72,2086.52 357.08,2086.52 357.56,2086.52 357.8,2086.52 
		357.8,2086.4 357.8,2085.92 357.8,2085.44 357.8,2085.2 358.4,2085.2 358.4,2085.08 358.4,2084.6 358.4,2084.12 358.4,2083.88 	"/>
	
		<polyline clip-path="url(#SVGID_6_)" fill="none" stroke="#545454" stroke-width="0.24" stroke-linecap="round" stroke-linejoin="round" stroke-miterlimit="10" points="
		380.84,2083.88 380.72,2083.88 380.24,2083.88 379.76,2083.88 379.52,2083.88 379.52,2084.12 379.52,2084.6 379.52,2085.08 
		379.52,2085.2 379.52,2085.44 379.52,2085.92 379.52,2086.4 379.52,2086.52 379.76,2086.52 380.24,2086.52 380.72,2086.52 
		380.84,2086.52 380.84,2086.4 380.84,2086.16 380.84,2085.2 380.84,2084.36 380.84,2084 380.84,2083.88 	"/>
	
		<line clip-path="url(#SVGID_6_)" fill="none" stroke="#000000" stroke-width="0.72" stroke-linecap="round" stroke-linejoin="round" stroke-miterlimit="10" x1="380.84" y1="2087.12" x2="380.84" y2="2082.92"/>
	
		<line clip-path="url(#SVGID_6_)" fill="none" stroke="#000000" stroke-width="0.72" stroke-linecap="round" stroke-linejoin="round" stroke-miterlimit="10" x1="332" y1="2087.12" x2="332" y2="2082.92"/>
	<g clip-path="url(#SVGID_6_)">
		<text transform="matrix(1 0 0 1 1190.5977 360.7993)" font-family="'Calibri-Bold'" font-size="11.164">VENDORS</text>
	</g>
	<g clip-path="url(#SVGID_6_)">
		<text transform="matrix(1 0 0 1 1188.0781 372.6792)" font-family="'Calibri-Bold'" font-size="11.164">ENTRANCE</text>
	</g>
	
		<line clip-path="url(#SVGID_6_)" fill="none" stroke="#000000" stroke-width="0.72" stroke-linecap="round" stroke-linejoin="round" stroke-miterlimit="10" x1="1148.12" y1="382.4" x2="1152.32" y2="382.4"/>
	
		<line clip-path="url(#SVGID_6_)" fill="none" stroke="#000000" stroke-width="0.72" stroke-linecap="round" stroke-linejoin="round" stroke-miterlimit="10" x1="1148.12" y1="333.56" x2="1152.32" y2="333.56"/>
	<g clip-path="url(#SVGID_6_)">
		<text transform="matrix(1 0 0 1 1366.998 1165.6392)" font-family="'Calibri-Bold'" font-size="11.164">MAIN</text>
	</g>
	<g clip-path="url(#SVGID_6_)">
		<text transform="matrix(1 0 0 1 1355.2383 1177.519)" font-family="'Calibri-Bold'" font-size="11.164">ENTRANCE</text>
	</g>
</g>
</svg>
