<svg width="893" height="827" viewBox="0 0 893 827" fill="none" xmlns="http://www.w3.org/2000/svg">
<path d="M482.422 0V827" stroke="black"/>
<path d="M0 341.91H892.093" stroke="black"/>
<path d="M757.156 341.966C757.156 269.085 728.205 199.19 676.67 147.655C625.136 96.1207 555.24 67.166 482.359 67.166C409.479 67.166 339.583 96.1207 288.049 147.655C236.514 199.19 207.563 269.085 207.562 341.966C207.563 414.846 236.514 484.742 288.049 536.276C339.583 587.81 409.479 616.759 482.359 616.759C555.24 616.759 625.136 587.81 676.67 536.276C728.205 484.742 757.156 414.846 757.156 341.966ZM688.837 341.966C688.837 287.204 667.083 234.682 628.361 195.96C589.639 157.238 537.121 135.485 482.359 135.485C427.598 135.485 375.08 157.238 336.358 195.96C297.636 234.682 275.882 287.204 275.882 341.966C275.882 396.727 297.636 449.242 336.358 487.964C375.08 526.686 427.598 548.44 482.359 548.44C537.121 548.44 589.639 526.686 628.361 487.964C667.083 449.242 688.837 396.727 688.837 341.966Z" stroke="black"/>
<path d="M757.156 341.966C757.156 269.085 728.205 199.19 676.67 147.655C625.136 96.1207 555.24 67.166 482.359 67.166C409.479 67.166 339.583 96.1207 288.049 147.655C236.514 199.19 207.563 269.085 207.562 341.966C207.563 414.846 236.514 484.742 288.049 536.276C339.583 587.81 409.479 616.759 482.359 616.759C555.24 616.759 625.136 587.81 676.67 536.276C728.205 484.742 757.156 414.846 757.156 341.966Z" stroke="black"/>
<path d="M688.626 341.94C688.626 287.179 666.873 234.656 628.151 195.934C589.429 157.212 536.91 135.459 482.149 135.459C427.388 135.459 374.87 157.212 336.148 195.934C297.426 234.656 275.672 287.179 275.672 341.94C275.672 396.701 297.426 449.217 336.148 487.939C374.87 526.661 427.388 548.414 482.149 548.414C536.91 548.414 589.429 526.661 628.151 487.939C666.873 449.217 688.626 396.701 688.626 341.94Z" stroke="black"/>
</svg>
