<?xml version="1.0" encoding="UTF-8"?>
<!-- 2026-03-10 13:54:53 Generated by QCAD 3.32.6 SVG Exporter -->
<svg  width="1100mm" height="1159.5005mm" viewBox="-1.401 -1167.8708 1100 1159.5005" version="1.1" xmlns="http://www.w3.org/2000/svg" style="stroke-linecap:round;stroke-linejoin:round;">
    <g transform="scale(1,-1)">
            <!-- Auto-generated fillable area -->
            <!-- Block Reference: A$C33124527 / entities: 6 -->
        <g>
            <!-- Polyline -->
            <path d="M1078.3287,1167.8297 L1045.8963,1167.8297 L1045.8963,108.3703 L1078.3287,108.3703 Z" style="stroke:#000000;stroke-width:0.1;"/>
            <!-- Polyline -->
            <path d="M1092.5179,108.3703 L1078.3287,108.3703 L1078.3287,70.2838 L1066.1665,70.2838 L1066.1665,24.5865 L1066.1665,8.3703 L1092.5179,8.3703 Z" style="stroke:#000000;stroke-width:0.1;"/>
            <!-- Polyline -->
            <path d="M4.68,108.3703 L18.8692,108.3703 L18.8692,70.2838 L31.0314,70.2838 L31.0314,24.5865 L31.0314,8.3703 L4.68,8.3703 Z" style="stroke:#000000;stroke-width:0.1;"/>
            <!-- Arc -->
            <path d="M1048.7606,1167.8708 A1060.261,1060.261 0 0,1 1047.3448,1167.8293M1046.5514,1167.8052 A1060.261,1060.261 0 0,1 1044.9647,1167.7552M1044.1713,1167.7293 A1060.261,1060.261 0 0,1 1042.5847,1167.6758M1041.7915,1167.6481 A1060.261,1060.261 0 0,1 1040.205,1167.591M1039.4118,1167.5616 A1060.261,1060.261 0 0,1 1037.8254,1167.5009M1037.0323,1167.4697 A1060.261,1060.261 0 0,1 1035.4461,1167.4055M1034.653,1167.3725 A1060.261,1060.261 0 0,1 1033.067,1167.3047M1032.274,1167.2699 A1060.261,1060.261 0 0,1 1030.6881,1167.1986M1029.8952,1167.162 A1060.261,1060.261 0 0,1 1028.3095,1167.0871M1027.5166,1167.0488 A1060.261,1060.261 0 0,1 1025.9311,1166.9703M1025.1384,1166.9302 A1060.261,1060.261 0 0,1 1023.553,1166.8482M1022.7603,1166.8063 A1060.261,1060.261 0 0,1 1021.1751,1166.7207M1020.3826,1166.677 A1060.261,1060.261 0 0,1 1018.7976,1166.5878M1018.0052,1166.5424 A1060.261,1060.261 0 0,1 1016.4204,1166.4497M1015.628,1166.4024 A1060.261,1060.261 0 0,1 1014.0434,1166.3062M1013.2512,1166.2571 A1060.261,1060.261 0 0,1 1011.6668,1166.1573M1010.8747,1166.1065 A1060.261,1060.261 0 0,1 1009.2906,1166.0031M1008.4986,1165.9506 A1060.261,1060.261 0 0,1 1006.9147,1165.8436M1006.1228,1165.7893 A1060.261,1060.261 0 0,1 1004.5392,1165.6788M1003.7474,1165.6226 A1060.261,1060.261 0 0,1 1002.164,1165.5086M1001.3724,1165.4506 A1060.261,1060.261 0 0,1 999.7892,1165.333M998.9977,1165.2733 A1060.261,1060.261 0 0,1 997.4149,1165.1522M996.6235,1165.0907 A1060.261,1060.261 0 0,1 995.0409,1164.966M994.2497,1164.9027 A1060.261,1060.261 0 0,1 992.6674,1164.7745M991.8763,1164.7094 A1060.261,1060.261 0 0,1 990.2943,1164.5776M989.5033,1164.5108 A1060.261,1060.261 0 0,1 987.9216,1164.3754M987.1308,1164.3069 A1060.261,1060.261 0 0,1 985.5494,1164.1679M984.7588,1164.0976 A1060.261,1060.261 0 0,1 983.1777,1163.9551M982.3872,1163.883 A1060.261,1060.261 0 0,1 980.8065,1163.7369M980.0162,1163.663 A1060.261,1060.261 0 0,1 978.4357,1163.5134M977.6456,1163.4378 A1060.261,1060.261 0 0,1 976.0655,1163.2846M975.2755,1163.2072 A1060.261,1060.261 0 0,1 973.6958,1163.0505M972.906,1162.9713 A1060.261,1060.261 0 0,1 971.3266,1162.811M970.537,1162.73 A1060.261,1060.261 0 0,1 968.958,1162.5662M968.1686,1162.4835 A1060.261,1060.261 0 0,1 966.5899,1162.3162M965.8007,1162.2316 A1060.261,1060.261 0 0,1 964.2224,1162.0607M963.4333,1161.9744 A1060.261,1060.261 0 0,1 961.8554,1161.8M961.0666,1161.7119 A1060.261,1060.261 0 0,1 959.4891,1161.534M958.7005,1161.4441 A1060.261,1060.261 0 0,1 957.1234,1161.2626M956.3349,1161.171 A1060.261,1060.261 0 0,1 954.7582,1160.9859M953.97,1160.8925 A1060.261,1060.261 0 0,1 952.3938,1160.7039M951.6057,1160.6088 A1060.261,1060.261 0 0,1 950.0299,1160.4167M949.2421,1160.3197 A1060.261,1060.261 0 0,1 947.6667,1160.1241M946.8791,1160.0253 A1060.261,1060.261 0 0,1 945.3042,1159.8261M944.5168,1159.7257 A1060.261,1060.261 0 0,1 942.9423,1159.5229M942.1552,1159.4207 A1060.261,1060.261 0 0,1 940.5811,1159.2144M939.7942,1159.1104 A1060.261,1060.261 0 0,1 938.2206,1158.9006M937.434,1158.7948 A1060.261,1060.261 0 0,1 935.8609,1158.5815M935.0744,1158.4739 A1060.261,1060.261 0 0,1 933.5018,1158.2571M932.7156,1158.1477 A1060.261,1060.261 0 0,1 931.1435,1157.9273M930.3576,1157.8163 A1060.261,1060.261 0 0,1 928.7859,1157.5923M928.0002,1157.4795 A1060.261,1060.261 0 0,1 926.4291,1157.252M925.6437,1157.1374 A1060.261,1060.261 0 0,1 924.0731,1156.9064M923.2879,1156.79 A1060.261,1060.261 0 0,1 921.7178,1156.5555M920.9329,1156.4374 A1060.261,1060.261 0 0,1 919.3634,1156.1994M918.5787,1156.0795 A1060.261,1060.261 0 0,1 917.0097,1155.8379M916.2253,1155.7162 A1060.261,1060.261 0 0,1 914.6569,1155.4711M913.8728,1155.3477 A1060.261,1060.261 0 0,1 912.3049,1155.0991M911.5211,1154.9739 A1060.261,1060.261 0 0,1 909.9537,1154.7218M909.1702,1154.5948 A1060.261,1060.261 0 0,1 907.6034,1154.3392M906.8201,1154.2105 A1060.261,1060.261 0 0,1 905.2539,1153.9513M904.471,1153.8209 A1060.261,1060.261 0 0,1 902.9054,1153.5582M902.1227,1153.426 A1060.261,1060.261 0 0,1 900.5577,1153.1598M899.7753,1153.0258 A1060.261,1060.261 0 0,1 898.2109,1152.7561M897.4289,1152.6203 A1060.261,1060.261 0 0,1 895.865,1152.3471M895.0833,1152.2096 A1060.261,1060.261 0 0,1 893.5201,1151.9329M892.7387,1151.7936 A1060.261,1060.261 0 0,1 891.1761,1151.5134M890.395,1151.3724 A1060.261,1060.261 0 0,1 888.833,1151.0886M888.0522,1150.9459 A1060.261,1060.261 0 0,1 886.4909,1150.6586M885.7105,1150.5141 A1060.261,1060.261 0 0,1 884.1498,1150.2233M883.3696,1150.0771 A1060.261,1060.261 0 0,1 881.8097,1149.7828M881.0298,1149.6348 A1060.261,1060.261 0 0,1 879.4705,1149.337M878.691,1149.1872 A1060.261,1060.261 0 0,1 877.1324,1148.8859M876.3532,1148.7344 A1060.261,1060.261 0 0,1 874.7952,1148.4296M874.0164,1148.2764 A1060.261,1060.261 0 0,1 872.4592,1147.9681M871.6807,1147.8131 A1060.261,1060.261 0 0,1 870.1241,1147.5013M869.346,1147.3446 A1060.261,1060.261 0 0,1 867.7901,1147.0293M867.0123,1146.8708 A1060.261,1060.261 0 0,1 865.4572,1146.552M864.6798,1146.3918 A1060.261,1060.261 0 0,1 863.1253,1146.0695M862.3483,1145.9075 A1060.261,1060.261 0 0,1 860.7946,1145.5818M860.0179,1145.418 A1060.261,1060.261 0 0,1 858.4649,1145.0888M857.6886,1144.9233 A1060.261,1060.261 0 0,1 856.1364,1144.5906M855.3604,1144.4233 A1060.261,1060.261 0 0,1 853.8089,1144.0871M853.0334,1143.9182 A1060.261,1060.261 0 0,1 851.4826,1143.5785M850.7075,1143.4078 A1060.261,1060.261 0 0,1 849.1575,1143.0646M848.3827,1142.8921 A1060.261,1060.261 0 0,1 846.8335,1142.5455M846.0591,1142.3713 A1060.261,1060.261 0 0,1 844.5107,1142.0212M843.7367,1141.8452 A1060.261,1060.261 0 0,1 842.1891,1141.4916M841.4155,1141.3139 A1060.261,1060.261 0 0,1 839.8687,1140.9569M839.0955,1140.7775 A1060.261,1060.261 0 0,1 837.5494,1140.4169M836.7766,1140.2358 A1060.261,1060.261 0 0,1 835.2314,1139.8717M834.459,1139.6888 A1060.261,1060.261 0 0,1 832.9147,1139.3213M832.1427,1139.1367 A1060.261,1060.261 0 0,1 830.5991,1138.7658M829.8276,1138.5794 A1060.261,1060.261 0 0,1 828.2849,1138.205M827.5137,1138.0169 A1060.261,1060.261 0 0,1 825.9719,1137.639M825.2011,1137.4492 A1060.261,1060.261 0 0,1 823.6601,1137.0679M822.8898,1136.8763 A1060.261,1060.261 0 0,1 821.3497,1136.4915M820.5798,1136.2982 A1060.261,1060.261 0 0,1 819.0405,1135.91M818.2711,1135.7149 A1060.261,1060.261 0 0,1 816.7327,1135.3232M815.9637,1135.1265 A1060.261,1060.261 0 0,1 814.4262,1134.7313M813.6576,1134.5329 A1060.261,1060.261 0 0,1 812.121,1134.1342M811.3529,1133.934 A1060.261,1060.261 0 0,1 809.8172,1133.532M809.0495,1133.33 A1060.261,1060.261 0 0,1 807.5147,1132.9245M806.7475,1132.7209 A1060.261,1060.261 0 0,1 805.2136,1132.3119M804.4469,1132.1066 A1060.261,1060.261 0 0,1 802.9139,1131.6941M802.1476,1131.4871 A1060.261,1060.261 0 0,1 800.6156,1131.0712M799.8498,1130.8624 A1060.261,1060.261 0 0,1 798.3186,1130.4431M797.5533,1130.2326 A1060.261,1060.261 0 0,1 796.0231,1129.8098M795.2583,1129.5976 A1060.261,1060.261 0 0,1 793.7291,1129.1714M792.9647,1128.9575 A1060.261,1060.261 0 0,1 791.4364,1128.5279M790.6725,1128.3122 A1060.261,1060.261 0 0,1 789.1452,1127.8792M788.3818,1127.6618 A1060.261,1060.261 0 0,1 786.8555,1127.2253M786.0926,1127.0062 A1060.261,1060.261 0 0,1 784.5673,1126.5663M783.8049,1126.3455 A1060.261,1060.261 0 0,1 782.2805,1125.9022M781.5186,1125.6797 A1060.261,1060.261 0 0,1 779.9952,1125.2329M779.2338,1125.0087 A1060.261,1060.261 0 0,1 777.7115,1124.5585M776.9506,1124.3326 A1060.261,1060.261 0 0,1 775.4293,1123.879M774.6689,1123.6514 A1060.261,1060.261 0 0,1 773.1486,1123.1944M772.3887,1122.965 A1060.261,1060.261 0 0,1 770.8694,1122.5046M770.11,1122.2735 A1060.261,1060.261 0 0,1 768.5918,1121.8097M767.8329,1121.5769 A1060.261,1060.261 0 0,1 766.3157,1121.1097M765.5574,1120.8752 A1060.261,1060.261 0 0,1 764.0413,1120.4046M763.2835,1120.1684 A1060.261,1060.261 0 0,1 761.7684,1119.6944M761.0111,1119.4565 A1060.261,1060.261 0 0,1 759.4971,1118.9791M758.7404,1118.7395 A1060.261,1060.261 0 0,1 757.2275,1118.2587M756.4713,1118.0174 A1060.261,1060.261 0 0,1 754.9595,1117.5332M754.2038,1117.2902 A1060.261,1060.261 0 0,1 752.6931,1116.8025M751.938,1116.5579 A1060.261,1060.261 0 0,1 750.4283,1116.0669M749.6737,1115.8205 A1060.261,1060.261 0 0,1 748.1652,1115.3261M747.4112,1115.078 A1060.261,1060.261 0 0,1 745.9038,1114.5802M745.1503,1114.3305 A1060.261,1060.261 0 0,1 743.644,1113.8293M742.8912,1113.5778 A1060.261,1060.261 0 0,1 741.386,1113.0733M740.6337,1112.8202 A1060.261,1060.261 0 0,1 739.1296,1112.3122M738.3779,1112.0574 A1060.261,1060.261 0 0,1 736.875,1111.5461M736.1238,1111.2896 A1060.261,1060.261 0 0,1 734.6221,1110.7749M733.8715,1110.5167 A1060.261,1060.261 0 0,1 732.3709,1109.9986M731.6209,1109.7387 A1060.261,1060.261 0 0,1 730.1215,1109.2173M729.3721,1108.9557 A1060.261,1060.261 0 0,1 727.8738,1108.4309M727.125,1108.1677 A1060.261,1060.261 0 0,1 725.6279,1107.6395M724.8797,1107.3746 A1060.261,1060.261 0 0,1 723.3838,1106.843M722.6362,1106.5764 A1060.261,1060.261 0 0,1 721.1415,1106.0416M720.3945,1105.7733 A1060.261,1060.261 0 0,1 718.901,1105.235M718.1546,1104.9651 A1060.261,1060.261 0 0,1 716.6623,1104.4235M715.9165,1104.1518 A1060.261,1060.261 0 0,1 714.4255,1103.6069M713.6803,1103.3336 A1060.261,1060.261 0 0,1 712.1905,1102.7853M711.4459,1102.5103 A1060.261,1060.261 0 0,1 709.9573,1101.9587M709.2133,1101.682 A1060.261,1060.261 0 0,1 707.726,1101.127M706.9826,1100.8487 A1060.261,1060.261 0 0,1 705.4965,1100.2904M704.7538,1100.0104 A1060.261,1060.261 0 0,1 703.269,1099.4487M702.5269,1099.1671 A1060.261,1060.261 0 0,1 701.0433,1098.6021M700.3019,1098.3188 A1060.261,1060.261 0 0,1 698.8196,1097.7504M698.0788,1097.4654 A1060.261,1060.261 0 0,1 696.5978,1096.8938M695.8576,1096.6071 A1060.261,1060.261 0 0,1 694.3779,1096.0322M693.6383,1095.7439 A1060.261,1060.261 0 0,1 692.1599,1095.1656M691.421,1094.8756 A1060.261,1060.261 0 0,1 689.9439,1094.294M689.2057,1094.0023 A1060.261,1060.261 0 0,1 687.7299,1093.4174M686.9923,1093.1241 A1060.261,1060.261 0 0,1 685.5178,1092.5359M684.7809,1092.2409 A1060.261,1060.261 0 0,1 683.3077,1091.6494M682.5715,1091.3528 A1060.261,1060.261 0 0,1 681.0996,1090.7579M680.364,1090.4597 A1060.261,1060.261 0 0,1 678.8935,1089.8615M678.1586,1089.5616 A1060.261,1060.261 0 0,1 676.6895,1088.9601M675.9553,1088.6586 A1060.261,1060.261 0 0,1 674.4875,1088.0538M673.7539,1087.7506 A1060.261,1060.261 0 0,1 672.2875,1087.1425M671.5546,1086.8377 A1060.261,1060.261 0 0,1 670.0895,1086.2263M669.3573,1085.9199 A1060.261,1060.261 0 0,1 667.8937,1085.3052M667.1622,1084.9971 A1060.261,1060.261 0 0,1 665.6999,1084.3791M664.9691,1084.0694 A1060.261,1060.261 0 0,1 663.5081,1083.4482M662.778,1083.1367 A1060.261,1060.261 0 0,1 661.3185,1082.5123M660.5891,1082.1992 A1060.261,1060.261 0 0,1 659.131,1081.5714M658.4023,1081.2567 A1060.261,1060.261 0 0,1 656.9456,1080.6257M656.2176,1080.3094 A1060.261,1060.261 0 0,1 654.7624,1079.6751M654.0351,1079.3571 A1060.261,1060.261 0 0,1 652.5812,1078.7195M651.8547,1078.3999 A1060.261,1060.261 0 0,1 650.4023,1077.7591M649.6764,1077.4378 A1060.261,1060.261 0 0,1 648.2255,1076.7937M647.5003,1076.4709 A1060.261,1060.261 0 0,1 646.0508,1075.8235M645.3264,1075.499 A1060.261,1060.261 0 0,1 643.8784,1074.8484M643.1547,1074.5223 A1060.261,1060.261 0 0,1 641.7081,1073.8685M640.9852,1073.5407 A1060.261,1060.261 0 0,1 639.5401,1072.8836M638.8179,1072.5543 A1060.261,1060.261 0 0,1 637.3743,1071.8939M636.6528,1071.5629 A1060.261,1060.261 0 0,1 635.2107,1070.8993M634.49,1070.5667 A1060.261,1060.261 0 0,1 633.0493,1069.8999M632.3293,1069.5657 A1060.261,1060.261 0 0,1 630.8902,1068.8956M630.171,1068.5598 A1060.261,1060.261 0 0,1 628.7333,1067.8865M628.0149,1067.549 A1060.261,1060.261 0 0,1 626.5787,1066.8725M625.8611,1066.5335 A1060.261,1060.261 0 0,1 624.4265,1065.8537M623.7095,1065.513 A1060.261,1060.261 0 0,1 622.2764,1064.8301M621.5603,1064.4878 A1060.261,1060.261 0 0,1 620.1287,1063.8016M619.4134,1063.4577 A1060.261,1060.261 0 0,1 617.9834,1062.7683M617.2688,1062.4228 A1060.261,1060.261 0 0,1 615.8403,1061.7302M615.1265,1061.3831 A1060.261,1060.261 0 0,1 613.6996,1060.6873M612.9865,1060.3386 A1060.261,1060.261 0 0,1 611.5612,1059.6396M610.8489,1059.2893 A1060.261,1060.261 0 0,1 609.4252,1058.5871M608.7137,1058.2352 A1060.261,1060.261 0 0,1 607.2916,1057.5298M606.5809,1057.1763 A1060.261,1060.261 0 0,1 605.1603,1056.4677M604.4504,1056.1126 A1060.261,1060.261 0 0,1 603.0314,1055.4008M602.3223,1055.0441 A1060.261,1060.261 0 0,1 600.9049,1054.3291M600.1967,1053.9708 A1060.261,1060.261 0 0,1 598.7809,1053.2527M598.0734,1052.8928 A1060.261,1060.261 0 0,1 596.6592,1052.1715M595.9526,1051.81 A1060.261,1060.261 0 0,1 594.54,1051.0855M593.8342,1050.7225 A1060.261,1060.261 0 0,1 592.4233,1049.9948M591.7182,1049.6302 A1060.261,1060.261 0 0,1 590.309,1048.8993M589.6048,1048.5331 A1060.261,1060.261 0 0,1 588.1971,1047.7991M587.4937,1047.4313 A1060.261,1060.261 0 0,1 586.0878,1046.6941M585.3852,1046.3248 A1060.261,1060.261 0 0,1 583.9809,1045.5844M583.2792,1045.2135 A1060.261,1060.261 0 0,1 581.8765,1044.47M581.1756,1044.0975 A1060.261,1060.261 0 0,1 579.7746,1043.3509M579.0746,1042.9768 A1060.261,1060.261 0 0,1 577.6753,1042.227M576.9761,1041.8513 A1060.261,1060.261 0 0,1 575.5785,1041.0984M574.8801,1040.7212 A1060.261,1060.261 0 0,1 573.4842,1039.9651M572.7867,1039.5863 A1060.261,1060.261 0 0,1 571.3925,1038.8272M570.6958,1038.4468 A1060.261,1060.261 0 0,1 569.3033,1037.6845M568.6075,1037.3025 A1060.261,1060.261 0 0,1 567.2167,1036.5371M566.5217,1036.1536 A1060.261,1060.261 0 0,1 565.1327,1035.3851M564.4386,1035 A1060.261,1060.261 0 0,1 563.0513,1034.2283M562.358,1033.8417 A1060.261,1060.261 0 0,1 560.9724,1033.0669M560.2801,1032.6788 A1060.261,1060.261 0 0,1 558.8962,1031.9009M558.2047,1031.5111 A1060.261,1060.261 0 0,1 556.8226,1030.7301M556.132,1030.3389 A1060.261,1060.261 0 0,1 554.7517,1029.5547M554.062,1029.1619 A1060.261,1060.261 0 0,1 552.6834,1028.3747M551.9945,1027.9803 A1060.261,1060.261 0 0,1 550.6177,1027.19M549.9298,1026.7941 A1060.261,1060.261 0 0,1 548.5548,1026.0007M547.8677,1025.6033 A1060.261,1060.261 0 0,1 546.4945,1024.8068M545.8083,1024.4078 A1060.261,1060.261 0 0,1 544.4368,1023.6082M543.7516,1023.2077 A1060.261,1060.261 0 0,1 542.3819,1022.4051M541.6975,1022.003 A1060.261,1060.261 0 0,1 540.3297,1021.1973M539.6462,1020.7936 A1060.261,1060.261 0 0,1 538.2802,1019.9849M537.5976,1019.5797 A1060.261,1060.261 0 0,1 536.2334,1018.7679M535.5518,1018.3612 A1060.261,1060.261 0 0,1 534.1894,1017.5463M533.5087,1017.1381 A1060.261,1060.261 0 0,1 532.1481,1016.3201M531.4683,1015.9103 A1060.261,1060.261 0 0,1 530.1096,1015.0893M529.4307,1014.6781 A1060.261,1060.261 0 0,1 528.0738,1013.854M527.3959,1013.4412 A1060.261,1060.261 0 0,1 526.0409,1012.6141M525.3638,1012.1998 A1060.261,1060.261 0 0,1 524.0107,1011.3696M523.3346,1010.9538 A1060.261,1060.261 0 0,1 521.9833,1010.1206M521.3081,1009.7032 A1060.261,1060.261 0 0,1 519.9587,1008.867M519.2845,1008.4482 A1060.261,1060.261 0 0,1 517.937,1007.6089M517.2637,1007.1885 A1060.261,1060.261 0 0,1 515.9181,1006.3462M515.2457,1005.9244 A1060.261,1060.261 0 0,1 513.902,1005.0791M513.2306,1004.6557 A1060.261,1060.261 0 0,1 511.8887,1003.8073M511.2183,1003.3824 A1060.261,1060.261 0 0,1 509.8784,1002.5311M509.2089,1002.1047 A1060.261,1060.261 0 0,1 507.8709,1001.2504M507.2023,1000.8225 A1060.261,1060.261 0 0,1 505.8663,999.9651M505.1987,999.5357 A1060.261,1060.261 0 0,1 503.8645,998.6754M503.1979,998.2445 A1060.261,1060.261 0 0,1 501.8657,997.3811M501.2001,996.9487 A1060.261,1060.261 0 0,1 499.8698,996.0824M499.2051,995.6485 A1060.261,1060.261 0 0,1 497.8768,994.7792M497.2131,994.3438 A1060.261,1060.261 0 0,1 495.8868,993.4715M495.2241,993.0346 A1060.261,1060.261 0 0,1 493.8996,992.1594M493.2379,991.721 A1060.261,1060.261 0 0,1 491.9155,990.8428M491.2547,990.4029 A1060.261,1060.261 0 0,1 489.9343,989.5217M489.2745,989.0804 A1060.261,1060.261 0 0,1 487.956,988.1962M487.2973,987.7534 A1060.261,1060.261 0 0,1 485.9808,986.8663M485.323,986.422 A1060.261,1060.261 0 0,1 484.0085,985.5319M483.3518,985.0861 A1060.261,1060.261 0 0,1 482.0393,984.1931M481.3835,983.7459 A1060.261,1060.261 0 0,1 480.073,982.8499M479.4183,982.4012 A1060.261,1060.261 0 0,1 478.1098,981.5022M477.4561,981.0521 A1060.261,1060.261 0 0,1 476.1496,980.1502M475.4969,979.6986 A1060.261,1060.261 0 0,1 474.1925,978.7938M473.5408,978.3406 A1060.261,1060.261 0 0,1 472.2384,977.4329M471.5877,976.9784 A1060.261,1060.261 0 0,1 470.2874,976.0677M469.6377,975.6117 A1060.261,1060.261 0 0,1 468.3394,974.6981M467.6908,974.2406 A1060.261,1060.261 0 0,1 466.3945,973.3242M465.7469,972.8652 A1060.261,1060.261 0 0,1 464.4527,971.9458M463.8061,971.4854 A1060.261,1060.261 0 0,1 462.514,970.5631M461.8685,970.1013 A1060.261,1060.261 0 0,1 460.5784,969.1761M459.9339,968.7128 A1060.261,1060.261 0 0,1 458.646,967.7847M458.0025,967.32 A1060.261,1060.261 0 0,1 456.7167,966.389M456.0742,965.9228 A1060.261,1060.261 0 0,1 454.7905,964.989M454.1491,964.5213 A1060.261,1060.261 0 0,1 452.8674,963.5846M452.2271,963.1155 A1060.261,1060.261 0 0,1 450.9475,962.1759M450.3083,961.7054 A1060.261,1060.261 0 0,1 449.0308,960.7629M448.3926,960.291 A1060.261,1060.261 0 0,1 447.1173,959.3456M446.4801,958.8722 A1060.261,1060.261 0 0,1 445.2069,957.924M444.5709,957.4492 A1060.261,1060.261 0 0,1 443.2998,956.4982M442.6648,956.0219 A1060.261,1060.261 0 0,1 441.3958,955.068M440.7619,954.5903 A1060.261,1060.261 0 0,1 439.4951,953.6336M438.8623,953.1545 A1060.261,1060.261 0 0,1 437.5976,952.1949M436.9658,951.7144 A1060.261,1060.261 0 0,1 435.7033,950.7519M435.0726,950.27 A1060.261,1060.261 0 0,1 433.8123,949.3047M433.1827,948.8214 A1060.261,1060.261 0 0,1 431.9246,947.8533M431.296,947.3685 A1060.261,1060.261 0 0,1 430.0401,946.3976M429.4126,945.9114 A1060.261,1060.261 0 0,1 428.1588,944.9377M427.5325,944.4501 A1060.261,1060.261 0 0,1 426.2809,943.4735M425.6556,942.9846 A1060.261,1060.261 0 0,1 424.4062,942.0052M423.7821,941.5148 A1060.261,1060.261 0 0,1 422.5349,940.5326M421.9119,940.0409 A1060.261,1060.261 0 0,1 420.6669,939.0559M420.0449,938.5627 A1060.261,1060.261 0 0,1 418.8022,937.575M418.1813,937.0804 A1060.261,1060.261 0 0,1 416.9408,936.0898M416.321,935.5939 A1060.261,1060.261 0 0,1 415.0827,934.6005M414.4641,934.1032 A1060.261,1060.261 0 0,1 413.228,933.107M412.6105,932.6083 A1060.261,1060.261 0 0,1 411.3767,931.6094M410.7603,931.1093 A1060.261,1060.261 0 0,1 409.5287,930.1076M408.9135,929.6061 A1060.261,1060.261 0 0,1 407.6841,928.6017M407.07,928.0988 A1060.261,1060.261 0 0,1 405.8429,927.0916M405.23,926.5873 A1060.261,1060.261 0 0,1 404.0051,925.5774M403.3933,925.0718 A1060.261,1060.261 0 0,1 402.1707,924.0591M401.56,923.552 A1060.261,1060.261 0 0,1 400.3398,922.5366M399.7302,922.0282 A1060.261,1060.261 0 0,1 398.5122,921.0101M397.9038,920.5003 A1060.261,1060.261 0 0,1 396.6881,919.4794M396.0808,918.9683 A1060.261,1060.261 0 0,1 394.8674,917.9447M394.2612,917.4322 A1060.261,1060.261 0 0,1 393.0501,916.4058M392.4452,915.892 A1060.261,1060.261 0 0,1 391.2364,914.8629M390.6325,914.3477 A1060.261,1060.261 0 0,1 389.4261,913.3159M388.8234,912.7994 A1060.261,1060.261 0 0,1 387.6192,911.7649M387.0177,911.247 A1060.261,1060.261 0 0,1 385.8159,910.2098M385.2156,909.6905 A1060.261,1060.261 0 0,1 384.0161,908.6507M383.4169,908.1301 A1060.261,1060.261 0 0,1 382.2197,907.0875M381.6217,906.5655 A1060.261,1060.261 0 0,1 380.4269,905.5203M379.8301,904.997 A1060.261,1060.261 0 0,1 378.6376,903.949M378.042,903.4244 A1060.261,1060.261 0 0,1 376.8519,902.3738M376.2574,901.8478 A1060.261,1060.261 0 0,1 375.0696,900.7945M374.4764,900.2672 A1060.261,1060.261 0 0,1 373.291,899.2113M372.6989,898.6826 A1060.261,1060.261 0 0,1 371.5159,897.624M370.925,897.0941 A1060.261,1060.261 0 0,1 369.7443,896.0328M369.1546,895.5015 A1060.261,1060.261 0 0,1 367.9764,894.4376M367.3878,893.905 A1060.261,1060.261 0 0,1 366.212,892.8384M365.6247,892.3045 A1060.261,1060.261 0 0,1 364.4512,891.2353M363.8651,890.7001 A1060.261,1060.261 0 0,1 362.6941,889.6282M362.1091,889.0917 A1060.261,1060.261 0 0,1 360.9405,888.0172M360.3568,887.4793 A1060.261,1060.261 0 0,1 359.1906,886.4023M358.6081,885.8631 A1060.261,1060.261 0 0,1 357.4443,884.7834M356.863,884.2429 A1060.261,1060.261 0 0,1 355.7016,883.1606M355.1215,882.6188 A1060.261,1060.261 0 0,1 353.9626,881.5339M353.3837,880.9908 A1060.261,1060.261 0 0,1 352.2272,879.9033M351.6496,879.3589 A1060.261,1060.261 0 0,1 350.4955,878.2688M349.9191,877.7231 A1060.261,1060.261 0 0,1 348.7675,876.6304M348.1923,876.0834 A1060.261,1060.261 0 0,1 347.0432,874.9881M346.4692,874.4398 A1060.261,1060.261 0 0,1 345.3226,873.342M344.7498,872.7924 A1060.261,1060.261 0 0,1 343.6056,871.692M343.0341,871.1411 A1060.261,1060.261 0 0,1 341.8924,870.0381M341.3221,869.486 A1060.261,1060.261 0 0,1 340.1829,868.3804M339.6139,867.827 A1060.261,1060.261 0 0,1 338.4771,866.7189M337.9093,866.1642 A1060.261,1060.261 0 0,1 336.7751,865.0536M336.2085,864.4976 A1060.261,1060.261 0 0,1 335.0768,863.3844M334.5115,862.8272 A1060.261,1060.261 0 0,1 333.3822,861.7114M332.8182,861.1529 A1060.261,1060.261 0 0,1 331.6914,860.0346M331.1287,859.4749 A1060.261,1060.261 0 0,1 330.0044,858.3541M329.4429,857.793 A1060.261,1060.261 0 0,1 328.3212,856.6697M327.7609,856.1074 A1060.261,1060.261 0 0,1 326.6417,854.9816M326.0828,854.418 A1060.261,1060.261 0 0,1 324.9661,853.2897M324.4084,852.7249 A1060.261,1060.261 0 0,1 323.2942,851.594M322.7378,851.0279 A1060.261,1060.261 0 0,1 321.6262,849.8946M321.071,849.3273 A1060.261,1060.261 0 0,1 319.962,848.1914M319.4081,847.6229 A1060.261,1060.261 0 0,1 318.3016,846.4845M317.749,845.9147 A1060.261,1060.261 0 0,1 316.645,844.7739M316.0937,844.2029 A1060.261,1060.261 0 0,1 314.9923,843.0596M314.4423,842.4873 A1060.261,1060.261 0 0,1 313.3435,841.3416M312.7947,840.7681 A1060.261,1060.261 0 0,1 311.6985,839.6198M311.151,839.0451 A1060.261,1060.261 0 0,1 310.0574,837.8944M309.5112,837.3184 A1060.261,1060.261 0 0,1 308.4202,836.1653M307.8753,835.5881 A1060.261,1060.261 0 0,1 306.7868,834.4325M306.2432,833.8541 A1060.261,1060.261 0 0,1 305.1574,832.6961M304.6151,832.1164 A1060.261,1060.261 0 0,1 303.5318,830.956M302.9908,830.3751 A1060.261,1060.261 0 0,1 301.9102,829.2122M301.3705,828.6302 A1060.261,1060.261 0 0,1 300.2925,827.4648M299.7541,826.8816 A1060.261,1060.261 0 0,1 298.6787,825.7138M298.1416,825.1294 A1060.261,1060.261 0 0,1 297.0688,823.9592M296.5331,823.3735 A1060.261,1060.261 0 0,1 295.4629,822.201M294.9285,821.6141 A1060.261,1060.261 0 0,1 293.861,820.4391M293.3279,819.851 A1060.261,1060.261 0 0,1 292.263,818.6737M291.7312,818.0844 A1060.261,1060.261 0 0,1 290.669,816.9046M290.1385,816.3142 A1060.261,1060.261 0 0,1 289.0789,815.132M288.5498,814.5404 A1060.261,1060.261 0 0,1 287.4929,813.3559M286.9651,812.763 A1060.261,1060.261 0 0,1 285.9108,811.5762M285.3843,810.9821 A1060.261,1060.261 0 0,1 284.3327,809.7929M283.8076,809.1977 A1060.261,1060.261 0 0,1 282.7587,808.0061M282.2349,807.4097 A1060.261,1060.261 0 0,1 281.1886,806.2157M280.6662,805.6182 A1060.261,1060.261 0 0,1 279.6226,804.4219M279.1015,803.8231 A1060.261,1060.261 0 0,1 278.0606,802.6245M277.5409,802.0246 A1060.261,1060.261 0 0,1 276.5027,800.8236M275.9843,800.2225 A1060.261,1060.261 0 0,1 274.9488,799.0192M274.4317,798.417 A1060.261,1060.261 0 0,1 273.399,797.2114M272.8832,796.608 A1060.261,1060.261 0 0,1 271.8532,795.4M271.3388,794.7955 A1060.261,1060.261 0 0,1 270.3115,793.5852M269.7985,792.9795 A1060.261,1060.261 0 0,1 268.7739,791.767M268.2622,791.1601 A1060.261,1060.261 0 0,1 267.2403,789.9453M266.7301,789.3373 A1060.261,1060.261 0 0,1 265.7109,788.1201M265.202,787.511 A1060.261,1060.261 0 0,1 264.1856,786.2915M263.678,785.6813 A1060.261,1060.261 0 0,1 262.6643,784.4595M262.1582,783.8481 A1060.261,1060.261 0 0,1 261.1472,782.6241M260.6424,782.0116 A1060.261,1060.261 0 0,1 259.6342,780.7853M259.1308,780.1716 A1060.261,1060.261 0 0,1 258.1254,778.9431M257.6234,778.3283 A1060.261,1060.261 0 0,1 256.6207,777.0975M256.1201,776.4816 A1060.261,1060.261 0 0,1 255.1201,775.2485M254.6209,774.6315 A1060.261,1060.261 0 0,1 253.6237,773.3962M253.1259,772.778 A1060.261,1060.261 0 0,1 252.1315,771.5405M251.635,770.9212 A1060.261,1060.261 0 0,1 250.6434,769.6815M250.1484,769.0611 A1060.261,1060.261 0 0,1 249.1596,767.8191M248.6659,767.1976 A1060.261,1060.261 0 0,1 247.6799,765.9534M247.1876,765.3308 A1060.261,1060.261 0 0,1 246.2044,764.0844M245.7135,763.4606 A1060.261,1060.261 0 0,1 244.7331,762.2121M244.2436,761.5872 A1060.261,1060.261 0 0,1 243.266,760.3364M242.7779,759.7105 A1060.261,1060.261 0 0,1 241.8031,758.4575M241.3164,757.8305 A1060.261,1060.261 0 0,1 240.3444,756.5753M239.8591,755.9472 A1060.261,1060.261 0 0,1 238.89,754.6898M238.4061,754.0606 A1060.261,1060.261 0 0,1 237.4398,752.8011M236.9574,752.1708 A1060.261,1060.261 0 0,1 235.9939,750.9091M235.5128,750.2777 A1060.261,1060.261 0 0,1 234.5522,749.0139M234.0726,748.3814 A1060.261,1060.261 0 0,1 233.1148,747.1154M232.6366,746.4819 A1060.261,1060.261 0 0,1 231.6816,745.2138M231.2048,744.5791 A1060.261,1060.261 0 0,1 230.2527,743.3089M229.7774,742.6732 A1060.261,1060.261 0 0,1 228.8281,741.4008M228.3542,740.764 A1060.261,1060.261 0 0,1 227.4078,739.4895M226.9353,738.8517 A1060.261,1060.261 0 0,1 225.9918,737.575M225.5207,736.9361 A1060.261,1060.261 0 0,1 224.5801,735.6573M224.1104,735.0174 A1060.261,1060.261 0 0,1 223.1727,733.7365M222.7045,733.0955 A1060.261,1060.261 0 0,1 221.7696,731.8125M221.3028,731.1705 A1060.261,1060.261 0 0,1 220.3708,729.8854M219.9055,729.2423 A1060.261,1060.261 0 0,1 218.9764,727.9551M218.5125,727.311 A1060.261,1060.261 0 0,1 217.5863,726.0217M217.1239,725.3766 A1060.261,1060.261 0 0,1 216.2005,724.0852M215.7396,723.439 A1060.261,1060.261 0 0,1 214.8191,722.1456M214.3597,721.4984 A1060.261,1060.261 0 0,1 213.4421,720.2029M212.9841,719.5547 A1060.261,1060.261 0 0,1 212.0694,718.2571M211.6129,717.6078 A1060.261,1060.261 0 0,1 210.7012,716.3082M210.246,715.6579 A1060.261,1060.261 0 0,1 209.3372,714.3563M208.8836,713.705 A1060.261,1060.261 0 0,1 207.9777,712.4013M207.5255,711.7489 A1060.261,1060.261 0 0,1 206.6226,710.4432M206.1719,709.7899 A1060.261,1060.261 0 0,1 205.2719,708.4821M204.8226,707.8278 A1060.261,1060.261 0 0,1 203.9255,706.518M203.4777,705.8626 A1060.261,1060.261 0 0,1 202.5836,704.5509M202.1373,703.8945 A1060.261,1060.261 0 0,1 201.2461,702.5807M200.8013,701.9234 A1060.261,1060.261 0 0,1 199.9131,700.6076M199.4697,699.9492 A1060.261,1060.261 0 0,1 198.5845,698.6315M198.1426,697.9721 A1060.261,1060.261 0 0,1 197.2603,696.6523M196.8199,695.992 A1060.261,1060.261 0 0,1 195.9405,694.6703M195.5016,694.0089 A1060.261,1060.261 0 0,1 194.6253,692.6852M194.1878,692.0229 A1060.261,1060.261 0 0,1 193.3144,690.6972M192.8785,690.0339 A1060.261,1060.261 0 0,1 192.0081,688.7063M191.5736,688.042 A1060.261,1060.261 0 0,1 190.7062,686.7124M190.2733,686.0472 A1060.261,1060.261 0 0,1 189.4088,684.7157M188.9774,684.0494 A1060.261,1060.261 0 0,1 188.1159,682.716M187.6859,682.0488 A1060.261,1060.261 0 0,1 186.8275,680.7134M186.399,680.0452 A1060.261,1060.261 0 0,1 185.5436,678.7079M185.1166,678.0388 A1060.261,1060.261 0 0,1 184.2642,676.6996M183.8387,676.0295 A1060.261,1060.261 0 0,1 182.9893,674.6883M182.5653,674.0173 A1060.261,1060.261 0 0,1 181.7189,672.6743M181.2965,672.0023 A1060.261,1060.261 0 0,1 180.4531,670.6573M180.0322,669.9844 A1060.261,1060.261 0 0,1 179.1918,668.6376M178.7724,667.9637 A1060.261,1060.261 0 0,1 177.935,666.615M177.5171,665.9402 A1060.261,1060.261 0 0,1 176.6828,664.5896M176.2664,663.9138 A1060.261,1060.261 0 0,1 175.4351,662.5614M175.0202,661.8847 A1060.261,1060.261 0 0,1 174.192,660.5303M173.7786,659.8527 A1060.261,1060.261 0 0,1 172.9535,658.4965M172.5416,657.818 A1060.261,1060.261 0 0,1 171.7195,656.46M171.3092,655.7805 A1060.261,1060.261 0 0,1 170.4901,654.4206M170.0813,653.7402 A1060.261,1060.261 0 0,1 169.2653,652.3785M168.858,651.6972 A1060.261,1060.261 0 0,1 168.045,650.3337M167.6393,649.6515 A1060.261,1060.261 0 0,1 166.8294,648.2861M166.4252,647.603 A1060.261,1060.261 0 0,1 165.6184,646.2358M165.2157,645.5518 A1060.261,1060.261 0 0,1 164.4119,644.1828M164.0108,643.4978 A1060.261,1060.261 0 0,1 163.2101,642.127M162.8106,641.4412 A1060.261,1060.261 0 0,1 162.0129,640.0686M161.6149,639.3819 A1060.261,1060.261 0 0,1 160.8204,638.0075M160.4239,637.3199 A1060.261,1060.261 0 0,1 159.6325,635.9437M159.2375,635.2552 A1060.261,1060.261 0 0,1 158.4492,633.8773M158.0558,633.1879 A1060.261,1060.261 0 0,1 157.2705,631.8082M156.8787,631.1179 A1060.261,1060.261 0 0,1 156.0965,629.7365M155.7062,629.0453 A1060.261,1060.261 0 0,1 154.9272,627.6621M154.5384,626.9701 A1060.261,1060.261 0 0,1 153.7625,625.5851M153.3753,624.8922 A1060.261,1060.261 0 0,1 152.6025,623.5055M152.2168,622.8118 A1060.261,1060.261 0 0,1 151.4471,621.4233M151.0631,620.7287 A1060.261,1060.261 0 0,1 150.2965,619.3386M149.914,618.6431 A1060.261,1060.261 0 0,1 149.1505,617.2512M148.7695,616.5548 A1060.261,1060.261 0 0,1 148.0092,615.1613M147.6298,614.4641 A1060.261,1060.261 0 0,1 146.8726,613.0688M146.4948,612.3707 A1060.261,1060.261 0 0,1 145.7407,610.9737M145.3645,610.2748 A1060.261,1060.261 0 0,1 144.6136,608.8762M144.2389,608.1764 A1060.261,1060.261 0 0,1 143.4911,606.7761M143.118,606.0755 A1060.261,1060.261 0 0,1 142.3733,604.6734M142.0018,603.972 A1060.261,1060.261 0 0,1 141.2603,602.5683M140.8904,601.8661 A1060.261,1060.261 0 0,1 140.152,600.4607M139.7837,599.7576 A1060.261,1060.261 0 0,1 139.0485,598.3506M138.6817,597.6467 A1060.261,1060.261 0 0,1 137.9497,596.238M137.5845,595.5333 A1060.261,1060.261 0 0,1 136.8556,594.123M136.492,593.4174 A1060.261,1060.261 0 0,1 135.7663,592.0055M135.4043,591.2991 A1060.261,1060.261 0 0,1 134.6818,589.8856M134.3213,589.1784 A1060.261,1060.261 0 0,1 133.602,587.7632M133.2431,587.0552 A1060.261,1060.261 0 0,1 132.5269,585.6384M132.1697,584.9297 A1060.261,1060.261 0 0,1 131.4567,583.5113M131.101,582.8017 A1060.261,1060.261 0 0,1 130.3912,581.3817M130.0371,580.6713 A1060.261,1060.261 0 0,1 129.3306,579.2497M128.9781,578.5385 A1060.261,1060.261 0 0,1 128.2747,577.1154M127.9238,576.4034 A1060.261,1060.261 0 0,1 127.2236,574.9786M126.8743,574.2659 A1060.261,1060.261 0 0,1 126.1773,572.8396M125.8296,572.126 A1060.261,1060.261 0 0,1 125.1358,570.6981M124.7897,569.9838 A1060.261,1060.261 0 0,1 124.0991,568.5544M123.7547,567.8393 A1060.261,1060.261 0 0,1 123.0673,566.4083M122.7244,565.6925 A1060.261,1060.261 0 0,1 122.0403,564.2599M121.699,563.5433 A1060.261,1060.261 0 0,1 121.0181,562.1093M120.6784,561.3918 A1060.261,1060.261 0 0,1 120.0007,559.9563M119.6626,559.2381 A1060.261,1060.261 0 0,1 118.9882,557.801M118.6517,557.0821 A1060.261,1060.261 0 0,1 117.9805,555.6435M117.6456,554.9238 A1060.261,1060.261 0 0,1 116.9776,553.4837M116.6444,552.7633 A1060.261,1060.261 0 0,1 115.9796,551.3217M115.648,550.6005 A1060.261,1060.261 0 0,1 114.9865,549.1574M114.6565,548.4355 A1060.261,1060.261 0 0,1 113.9982,546.9909M113.6699,546.2683 A1060.261,1060.261 0 0,1 113.0148,544.8222M112.6881,544.0988 A1060.261,1060.261 0 0,1 112.0363,542.6513M111.7112,541.9272 A1060.261,1060.261 0 0,1 111.0627,540.4782M110.7392,539.7534 A1060.261,1060.261 0 0,1 110.0939,538.3029M109.7721,537.5774 A1060.261,1060.261 0 0,1 109.13,536.1255M108.8098,535.3992 A1060.261,1060.261 0 0,1 108.171,533.9459M107.8525,533.2189 A1060.261,1060.261 0 0,1 107.217,531.7641M106.9,531.0364 A1060.261,1060.261 0 0,1 106.2678,529.5802M105.9525,528.8518 A1060.261,1060.261 0 0,1 105.3235,527.3942M105.0098,526.6651 A1060.261,1060.261 0 0,1 104.3841,525.2061M104.0721,524.4762 A1060.261,1060.261 0 0,1 103.4497,523.0158M103.1393,522.2853 A1060.261,1060.261 0 0,1 102.5202,520.8235M102.2114,520.0922 A1060.261,1060.261 0 0,1 101.5956,518.6291M101.2885,517.8971 A1060.261,1060.261 0 0,1 100.6759,516.4326M100.3704,515.7 A1060.261,1060.261 0 0,1 99.7612,514.234M99.4573,513.5007 A1060.261,1060.261 0 0,1 98.8514,512.0334M98.5492,511.2995 A1060.261,1060.261 0 0,1 97.9465,509.8308M97.646,509.0961 A1060.261,1060.261 0 0,1 97.0466,507.6261M96.7478,506.8908 A1060.261,1060.261 0 0,1 96.1517,505.4195M95.8545,504.6835 A1060.261,1060.261 0 0,1 95.2617,503.2108M94.9661,502.4741 A1060.261,1060.261 0 0,1 94.3767,501.0001M94.0828,500.2628 A1060.261,1060.261 0 0,1 93.4966,498.7875M93.2044,498.0495 A1060.261,1060.261 0 0,1 92.6215,496.5728M92.3309,495.8342 A1060.261,1060.261 0 0,1 91.7514,494.3562M91.4625,493.6169 A1060.261,1060.261 0 0,1 90.8863,492.1377M90.599,491.3978 A1060.261,1060.261 0 0,1 90.0261,489.9172M89.7405,489.1766 A1060.261,1060.261 0 0,1 89.171,487.6948M88.887,486.9536 A1060.261,1060.261 0 0,1 88.3208,485.4705M88.0385,484.7287 A1060.261,1060.261 0 0,1 87.4756,483.2443M87.195,482.5018 A1060.261,1060.261 0 0,1 86.6355,481.0162M86.3565,480.2731 A1060.261,1060.261 0 0,1 85.8003,478.7862M85.5231,478.0425 A1060.261,1060.261 0 0,1 84.9702,476.5543M84.6946,475.81 A1060.261,1060.261 0 0,1 84.1451,474.3206M83.8711,473.5756 A1060.261,1060.261 0 0,1 83.3249,472.085M83.0527,471.3395 A1060.261,1060.261 0 0,1 82.5099,469.8476M82.2393,469.1014 A1060.261,1060.261 0 0,1 81.6998,467.6084M81.4309,466.8616 A1060.261,1060.261 0 0,1 80.8948,465.3674M80.6275,464.62 A1060.261,1060.261 0 0,1 80.0948,463.1245M79.8292,462.3765 A1060.261,1060.261 0 0,1 79.2998,460.8799M79.0359,460.1313 A1060.261,1060.261 0 0,1 78.5099,458.6335M78.2477,457.8843 A1060.261,1060.261 0 0,1 77.725,456.3853M77.4645,455.6355 A1060.261,1060.261 0 0,1 76.9452,454.1353M76.6864,453.385 A1060.261,1060.261 0 0,1 76.1705,451.8837M75.9133,451.1327 A1060.261,1060.261 0 0,1 75.4008,449.6302M75.1453,448.8787 A1060.261,1060.261 0 0,1 74.6361,447.3751M74.3824,446.623 A1060.261,1060.261 0 0,1 73.8765,445.1182M73.6245,444.3656 A1060.261,1060.261 0 0,1 73.122,442.8597M72.8717,442.1065 A1060.261,1060.261 0 0,1 72.3726,440.5994M72.1239,439.8456 A1060.261,1060.261 0 0,1 71.6283,438.3375M71.3813,437.5832 A1060.261,1060.261 0 0,1 70.889,436.0739M70.6437,435.319 A1060.261,1060.261 0 0,1 70.1548,433.8087M69.9112,433.0532 A1060.261,1060.261 0 0,1 69.4257,431.5418M69.1838,430.7858 A1060.261,1060.261 0 0,1 68.7017,429.2733M68.4615,428.5167 A1060.261,1060.261 0 0,1 67.9828,427.0031M67.7443,426.2461 A1060.261,1060.261 0 0,1 67.269,424.7314M67.0322,423.9738 A1060.261,1060.261 0 0,1 66.5603,422.458M66.3252,421.6999 A1060.261,1060.261 0 0,1 65.8567,420.1831M65.6234,419.4245 A1060.261,1060.261 0 0,1 65.1583,417.9066M64.9266,417.1474 A1060.261,1060.261 0 0,1 64.4649,415.6285M64.2349,414.8688 A1060.261,1060.261 0 0,1 63.7767,413.3489M63.5484,412.5887 A1060.261,1060.261 0 0,1 63.0935,411.0678M62.867,410.307 A1060.261,1060.261 0 0,1 62.4155,408.7851M62.1907,408.0238 A1060.261,1060.261 0 0,1 61.7427,406.5009M61.5195,405.7391 A1060.261,1060.261 0 0,1 61.0749,404.2152M60.8535,403.4529 A1060.261,1060.261 0 0,1 60.4123,401.9279M60.1926,401.1652 A1060.261,1060.261 0 0,1 59.7549,399.6393M59.5368,398.876 A1060.261,1060.261 0 0,1 59.1025,397.3491M58.8862,396.5854 A1060.261,1060.261 0 0,1 58.4554,395.0575M58.2408,394.2933 A1060.261,1060.261 0 0,1 57.8133,392.7644M57.6005,391.9997 A1060.261,1060.261 0 0,1 57.1765,390.4699M56.9653,389.7048 A1060.261,1060.261 0 0,1 56.5447,388.174M56.3353,387.4084 A1060.261,1060.261 0 0,1 55.9182,385.8767M55.7105,385.1106 A1060.261,1060.261 0 0,1 55.2968,383.5779M55.0908,382.8114 A1060.261,1060.261 0 0,1 54.6805,381.2778M54.4763,380.5108 A1060.261,1060.261 0 0,1 54.0694,378.9763M53.8669,378.2088 A1060.261,1060.261 0 0,1 53.4635,376.6734M53.2627,375.9055 A1060.261,1060.261 0 0,1 52.8628,374.3692M52.6637,373.6008 A1060.261,1060.261 0 0,1 52.2673,372.0636M52.0699,371.2948 A1060.261,1060.261 0 0,1 51.6769,369.7567M51.4813,368.9874 A1060.261,1060.261 0 0,1 51.0917,367.4485M50.8978,366.6788 A1060.261,1060.261 0 0,1 50.5117,365.1389M50.3195,364.3688 A1060.261,1060.261 0 0,1 49.9369,362.8281M49.7464,362.0575 A1060.261,1060.261 0 0,1 49.3673,360.516M49.1785,359.745 A1060.261,1060.261 0 0,1 48.8028,358.2026M48.6158,357.4312 A1060.261,1060.261 0 0,1 48.2436,355.888M48.0583,355.1161 A1060.261,1060.261 0 0,1 47.6896,353.572M47.506,352.7998 A1060.261,1060.261 0 0,1 47.1407,351.2549M46.9589,350.4823 A1060.261,1060.261 0 0,1 46.5971,348.9365M46.4171,348.1635 A1060.261,1060.261 0 0,1 46.0587,346.617M45.8804,345.8435 A1060.261,1060.261 0 0,1 45.5255,344.2962M45.3489,343.5223 A1060.261,1060.261 0 0,1 44.9975,341.9742M44.8227,341.1999 A1060.261,1060.261 0 0,1 44.4747,339.651M44.3016,338.8764 A1060.261,1060.261 0 0,1 43.9572,337.3267M43.7858,336.5517 A1060.261,1060.261 0 0,1 43.4448,335.0012M43.2752,334.2258 A1060.261,1060.261 0 0,1 42.9377,332.6746M42.7698,331.8988 A1060.261,1060.261 0 0,1 42.4358,330.3469M42.2697,329.5707 A1060.261,1060.261 0 0,1 41.9392,328.018M41.7748,327.2414 A1060.261,1060.261 0 0,1 41.4478,325.688M41.2851,324.9111 A1060.261,1060.261 0 0,1 40.9616,323.3569M40.8007,322.5796 A1060.261,1060.261 0 0,1 40.4806,321.0247M40.3215,320.2471 A1060.261,1060.261 0 0,1 40.0049,318.6915M39.8475,317.9135 A1060.261,1060.261 0 0,1 39.5344,316.3572M39.3788,315.5788 A1060.261,1060.261 0 0,1 39.0692,314.0218M38.9153,313.2431 A1060.261,1060.261 0 0,1 38.6092,311.6854M38.4571,310.9064 A1060.261,1060.261 0 0,1 38.1545,309.348M38.0041,308.5686 A1060.261,1060.261 0 0,1 37.705,307.0095M37.5563,306.2298 A1060.261,1060.261 0 0,1 37.2608,304.6701M37.1139,303.8901 A1060.261,1060.261 0 0,1 36.8218,302.3297M36.6766,301.5493 A1060.261,1060.261 0 0,1 36.3881,299.9882M36.2447,299.2075 A1060.261,1060.261 0 0,1 35.9596,297.6458M35.818,296.8648 A1060.261,1060.261 0 0,1 35.5364,295.3025M35.3965,294.5212 A1060.261,1060.261 0 0,1 35.1185,292.9582M34.9804,292.1766 A1060.261,1060.261 0 0,1 34.7058,290.613M34.5694,289.8311 A1060.261,1060.261 0 0,1 34.2984,288.2669M34.1638,287.4846 A1060.261,1060.261 0 0,1 33.8963,285.9198M33.7634,285.1373 A1060.261,1060.261 0 0,1 33.4994,283.5719M33.3683,282.789 A1060.261,1060.261 0 0,1 33.1079,281.223M32.9785,280.4399 A1060.261,1060.261 0 0,1 32.7216,278.8733M32.594,278.0899 A1060.261,1060.261 0 0,1 32.3405,276.5228M32.2147,275.739 A1060.261,1060.261 0 0,1 31.9648,274.1713M31.8407,273.3873 A1060.261,1060.261 0 0,1 31.5943,271.8191M31.472,271.0348 A1060.261,1060.261 0 0,1 31.2291,269.466M31.1086,268.6815 A1060.261,1060.261 0 0,1 30.8693,267.1121M30.7505,266.3273 A1060.261,1060.261 0 0,1 30.5146,264.7574M30.3976,263.9723 A1060.261,1060.261 0 0,1 30.1653,262.4019M30.0501,261.6166 A1060.261,1060.261 0 0,1 29.8213,260.0456M29.7078,259.2601 A1060.261,1060.261 0 0,1 29.4826,257.6886M29.3708,256.9028 A1060.261,1060.261 0 0,1 29.1491,255.3308M29.0392,254.5447 A1060.261,1060.261 0 0,1 28.821,252.9723M28.7128,252.186 A1060.261,1060.261 0 0,1 28.4981,250.613M28.3917,249.8265 A1060.261,1060.261 0 0,1 28.1806,248.253M28.0759,247.4662 A1060.261,1060.261 0 0,1 27.8684,245.8924M27.7655,245.1053 A1060.261,1060.261 0 0,1 27.5614,243.531M27.4603,242.7437 A1060.261,1060.261 0 0,1 27.2598,241.1689M27.1604,240.3814 A1060.261,1060.261 0 0,1 26.9634,238.8062M26.8658,238.0184 A1060.261,1060.261 0 0,1 26.6724,236.4428M26.5766,235.6548 A1060.261,1060.261 0 0,1 26.3867,234.0787M26.2926,233.2906 A1060.261,1060.261 0 0,1 26.1063,231.714M26.014,230.9257 A1060.261,1060.261 0 0,1 25.8312,229.3487M25.7407,228.5602 A1060.261,1060.261 0 0,1 25.5614,226.9828M25.4727,226.194 A1060.261,1060.261 0 0,1 25.297,224.6163M25.21,223.8273 A1060.261,1060.261 0 0,1 25.0378,222.2492M24.9526,221.46 A1060.261,1060.261 0 0,1 24.784,219.8815M24.7005,219.0922 A1060.261,1060.261 0 0,1 24.5355,217.5133M24.4538,216.7237 A1060.261,1060.261 0 0,1 24.2923,215.1445M24.2124,214.3547 A1060.261,1060.261 0 0,1 24.0544,212.7751M23.9763,211.9852 A1060.261,1060.261 0 0,1 23.8218,210.4053M23.7455,209.6152 A1060.261,1060.261 0 0,1 23.5946,208.0349M23.52,207.2446 A1060.261,1060.261 0 0,1 23.3727,205.664M23.2999,204.8736 A1060.261,1060.261 0 0,1 23.1561,203.2926M23.0851,202.502 A1060.261,1060.261 0 0,1 22.9449,200.9208M22.8756,200.13 A1060.261,1060.261 0 0,1 22.7389,198.5484M22.6715,197.7575 A1060.261,1060.261 0 0,1 22.5383,196.1756M22.4727,195.3846 A1060.261,1060.261 0 0,1 22.3431,193.8024M22.2792,193.0112 A1060.261,1060.261 0 0,1 22.1531,191.4287M22.091,190.6374 A1060.261,1060.261 0 0,1 21.9685,189.0547M21.9082,188.2632 A1060.261,1060.261 0 0,1 21.7892,186.6802M21.7307,185.8886 A1060.261,1060.261 0 0,1 21.6153,184.3053M21.5585,183.5136 A1060.261,1060.261 0 0,1 21.4467,181.93M21.3917,181.1382 A1060.261,1060.261 0 0,1 21.2834,179.5544M21.2302,178.7624 A1060.261,1060.261 0 0,1 21.1255,177.1784M21.074,176.3863 A1060.261,1060.261 0 0,1 20.9729,174.802M20.9232,174.0098 A1060.261,1060.261 0 0,1 20.8256,172.4253M20.7777,171.633 A1060.261,1060.261 0 0,1 20.6837,170.0483M20.6376,169.2559 A1060.261,1060.261 0 0,1 20.5471,167.671M20.5028,166.8785 A1060.261,1060.261 0 0,1 20.4159,165.2933M20.3733,164.5007 A1060.261,1060.261 0 0,1 20.29,162.9154M20.2492,162.1227 A1060.261,1060.261 0 0,1 20.1694,160.5372M20.1304,159.7444 A1060.261,1060.261 0 0,1 20.0542,158.1588M20.017,157.3659 A1060.261,1060.261 0 0,1 19.9443,155.7801M19.9089,154.9871 A1060.261,1060.261 0 0,1 19.8398,153.4011M19.8061,152.6081 A1060.261,1060.261 0 0,1 19.7406,151.0219M19.7087,150.2288 A1060.261,1060.261 0 0,1 19.6467,148.6425M19.6166,147.8493 A1060.261,1060.261 0 0,1 19.5582,146.2629M19.5299,145.4697 A1060.261,1060.261 0 0,1 19.4751,143.8831M19.4485,143.0898 A1060.261,1060.261 0 0,1 19.3972,141.5031M19.3725,140.7098 A1060.261,1060.261 0 0,1 19.3248,139.123M19.3018,138.3296 A1060.261,1060.261 0 0,1 19.2576,136.7427M19.2364,135.9492 A1060.261,1060.261 0 0,1 19.1959,134.3622M19.1765,133.5687 A1060.261,1060.261 0 0,1 19.1394,131.9817M19.1218,131.1881 A1060.261,1060.261 0 0,1 19.0883,129.601M19.0725,128.8074 A1060.261,1060.261 0 0,1 19.0426,127.2201M19.0285,126.4265 A1060.261,1060.261 0 0,1 19.0022,124.8392M18.9899,124.0456 A1060.261,1060.261 0 0,1 18.9672,122.4582M18.9567,121.6646 A1060.261,1060.261 0 0,1 18.9375,120.0772M18.9288,119.2835 A1060.261,1060.261 0 0,1 18.9131,117.6961M18.9062,116.9023 A1060.261,1060.261 0 0,1 18.8941,115.3149M18.889,114.5212 A1060.261,1060.261 0 0,1 18.8805,112.9337M18.8771,112.1399 A1060.261,1060.261 0 0,1 18.8722,110.5524M18.8706,109.7587 A1060.261,1060.261 0 0,1 18.8692,108.3422" style="stroke:#000000;stroke-width:0.1;"/>
            <!-- Polyline -->
            <path d="M1092.5179,18.3703 L1098.599,18.3703 L1098.599,98.3703 L1092.5179,98.3703 Z" style="stroke:#000000;stroke-width:0.1;"/>
            <!-- Polyline -->
            <path d="M-1.401,18.3703 L4.68,18.3703 L4.68,98.3703 L-1.401,98.3703 Z" style="stroke:#000000;stroke-width:0.1;"/>
        </g>
    </g>
</svg>

