<?xml version="1.0" encoding="UTF-8"?>
<!-- 2026-03-10 13:53:57 Generated by QCAD 3.32.6 SVG Exporter -->
<svg  width="1200mm" height="678.0763mm" viewBox="-0.2016 -678.1636 1200 678.0763" version="1.1" xmlns="http://www.w3.org/2000/svg" style="stroke-linecap:round;stroke-linejoin:round;">
    <g transform="scale(1,-1)">
            <!-- Auto-generated fillable area -->
            <!-- Block Reference: A$C5D256BD7 / entities: 8 -->
        <g>
            <!-- Polyline -->
            <path d="M60.0686,678.1636 L60.0686,100.0872 L20.0686,100.0872 L20.0686,678.1636 Z" style="stroke:#000000;stroke-width:0.1;"/>
            <!-- Polyline -->
            <path d="M5.8794,100.0872 L20.0686,100.0872 L20.0686,60.0872 L32.2308,60.0872 L32.2308,16.3034 L32.2308,0.0872 L5.8794,0.0872 Z" style="stroke:#000000;stroke-width:0.1;"/>
            <!-- Arc -->
            <path d="M599.8,99.6397 A579.2266,579.2266 0 0,1 599.8004,100.1481M599.8,100.9418 A579.2266,579.2266 0 0,1 599.796,102.5293M599.7924,103.3231 A579.2266,579.2266 0 0,1 599.7819,104.9105M599.775,105.7043 A579.2266,579.2266 0 0,1 599.758,107.2917M599.7478,108.0854 A579.2266,579.2266 0 0,1 599.7243,109.6727M599.7109,110.4663 A579.2266,579.2266 0 0,1 599.6808,112.0535M599.6641,112.8471 A579.2266,579.2266 0 0,1 599.6275,114.4342M599.6076,115.2277 A579.2266,579.2266 0 0,1 599.5645,116.8146M599.5413,117.608 A579.2266,579.2266 0 0,1 599.4916,119.1947M599.4652,119.988 A579.2266,579.2266 0 0,1 599.409,121.5745M599.3793,122.3677 A579.2266,579.2266 0 0,1 599.3166,123.954M599.2836,124.7471 A579.2266,579.2266 0 0,1 599.2144,126.3331M599.1781,127.126 A579.2266,579.2266 0 0,1 599.1024,128.7117M599.0629,129.5044 A579.2266,579.2266 0 0,1 598.9806,131.0898M598.9379,131.8824 A579.2266,579.2266 0 0,1 598.8491,133.4674M598.8031,134.2598 A579.2266,579.2266 0 0,1 598.7078,135.8445M598.6585,136.6367 A579.2266,579.2266 0 0,1 598.5567,138.2209M598.5042,139.0129 A579.2266,579.2266 0 0,1 598.3959,140.5967M598.3401,141.3885 A579.2266,579.2266 0 0,1 598.2253,142.9719M598.1663,143.7634 A579.2266,579.2266 0 0,1 598.0449,145.3463M597.9826,146.1376 A579.2266,579.2266 0 0,1 597.8548,147.7199M597.7893,148.511 A579.2266,579.2266 0 0,1 597.6549,150.0928M597.5861,150.8835 A579.2266,579.2266 0 0,1 597.4453,152.4648M597.3732,153.2552 A579.2266,579.2266 0 0,1 597.2259,154.8359M597.1506,155.6261 A579.2266,579.2266 0 0,1 596.9967,157.2061M596.9182,157.9959 A579.2266,579.2266 0 0,1 596.7579,159.5753M596.6761,160.3648 A579.2266,579.2266 0 0,1 596.5093,161.9436M596.4242,162.7327 A579.2266,579.2266 0 0,1 596.2509,164.3107M596.1626,165.0996 A579.2266,579.2266 0 0,1 595.9828,166.6769M595.8913,167.4653 A579.2266,579.2266 0 0,1 595.705,169.0418M595.6103,169.8299 A579.2266,579.2266 0 0,1 595.4175,171.4057M595.3195,172.1933 A579.2266,579.2266 0 0,1 595.1203,173.7683M595.019,174.5556 A579.2266,579.2266 0 0,1 594.8133,176.1297M594.7088,176.9165 A579.2266,579.2266 0 0,1 594.4966,178.4898M594.3889,179.2762 A579.2266,579.2266 0 0,1 594.1703,180.8486M594.0594,181.6345 A579.2266,579.2266 0 0,1 593.8342,183.206M593.7201,183.9915 A579.2266,579.2266 0 0,1 593.4885,185.562M593.3711,186.347 A579.2266,579.2266 0 0,1 593.1331,187.9166M593.0125,188.7011 A579.2266,579.2266 0 0,1 592.768,190.2697M592.6441,191.0537 A579.2266,579.2266 0 0,1 592.3932,192.6212M592.2661,193.4047 A579.2266,579.2266 0 0,1 592.0088,194.9712M591.8785,195.7542 A579.2266,579.2266 0 0,1 591.6147,197.3196M591.4812,198.1021 A579.2266,579.2266 0 0,1 591.211,199.6664M591.0742,200.4483 A579.2266,579.2266 0 0,1 590.7976,202.0115M590.6576,202.7928 A579.2266,579.2266 0 0,1 590.3745,204.3549M590.2314,205.1356 A579.2266,579.2266 0 0,1 589.9419,206.6965M589.7955,207.4766 A579.2266,579.2266 0 0,1 589.4996,209.0363M589.35,209.8158 A579.2266,579.2266 0 0,1 589.0477,211.3743M588.895,212.1532 A579.2266,579.2266 0 0,1 588.5862,213.7104M588.4303,214.4887 A579.2266,579.2266 0 0,1 588.1151,216.0446M587.956,216.8222 A579.2266,579.2266 0 0,1 587.6344,218.3768M587.4721,219.1538 A579.2266,579.2266 0 0,1 587.1441,220.707M586.9786,221.4833 A579.2266,579.2266 0 0,1 586.6443,223.0352M586.4756,223.8108 A579.2266,579.2266 0 0,1 586.1349,225.3613M585.9629,226.1362 A579.2266,579.2266 0 0,1 585.6159,227.6853M585.4408,228.4595 A579.2266,579.2266 0 0,1 585.0874,230.0072M584.9091,230.7807 A579.2266,579.2266 0 0,1 584.5493,232.3269M584.3678,233.0996 A579.2266,579.2266 0 0,1 584.0017,234.6443M583.8171,235.4163 A579.2266,579.2266 0 0,1 583.4446,236.9594M583.2568,237.7307 A579.2266,579.2266 0 0,1 582.878,239.2723M582.687,240.0427 A579.2266,579.2266 0 0,1 582.3018,241.5828M582.1077,242.3524 A579.2266,579.2266 0 0,1 581.7162,243.8909M581.5189,244.6597 A579.2266,579.2266 0 0,1 581.1211,246.1966M580.9206,246.9646 A579.2266,579.2266 0 0,1 580.5165,248.4998M580.3128,249.267 A579.2266,579.2266 0 0,1 579.9024,250.8005M579.6956,251.5669 A579.2266,579.2266 0 0,1 579.2789,253.0987M579.069,253.8642 A579.2266,579.2266 0 0,1 578.646,255.3943M578.4329,256.1589 A579.2266,579.2266 0 0,1 578.0036,257.6872M577.7874,258.451 A579.2266,579.2266 0 0,1 577.3518,259.9776M577.1324,260.7404 A579.2266,579.2266 0 0,1 576.6906,262.2652M576.4681,263.0271 A579.2266,579.2266 0 0,1 576.02,264.55M575.7943,265.311 A579.2266,579.2266 0 0,1 575.34,266.8321M575.1112,267.5922 A579.2266,579.2266 0 0,1 574.6506,269.1114M574.4187,269.8705 A579.2266,579.2266 0 0,1 573.9518,271.3878M573.7168,272.146 A579.2266,579.2266 0 0,1 573.2437,273.6614M573.0056,274.4185 A579.2266,579.2266 0 0,1 572.5263,275.932M572.2851,276.6882 A579.2266,579.2266 0 0,1 571.7996,278.1996M571.5552,278.9548 A579.2266,579.2266 0 0,1 571.0635,280.4642M570.816,281.2184 A579.2266,579.2266 0 0,1 570.3181,282.7258M570.0676,283.479 A579.2266,579.2266 0 0,1 569.5634,284.9843M569.3098,285.7364 A579.2266,579.2266 0 0,1 568.7995,287.2397M568.5428,287.9908 A579.2266,579.2266 0 0,1 568.0263,289.4919M567.7665,290.2419 A579.2266,579.2266 0 0,1 567.2438,291.7409M566.9809,292.4899 A579.2266,579.2266 0 0,1 566.4521,293.9867M566.1861,294.7346 A579.2266,579.2266 0 0,1 565.6511,296.2292M565.3821,296.976 A579.2266,579.2266 0 0,1 564.841,298.4684M564.5689,299.214 A579.2266,579.2266 0 0,1 564.0216,300.7042M563.7465,301.4488 A579.2266,579.2266 0 0,1 563.1931,302.9367M562.9149,303.6801 A579.2266,579.2266 0 0,1 562.3554,305.1657M562.0741,305.908 A579.2266,579.2266 0 0,1 561.5086,307.3913M561.2242,308.1324 A579.2266,579.2266 0 0,1 560.6526,309.6134M560.3652,310.3533 A579.2266,579.2266 0 0,1 559.7874,311.8319M559.497,312.5706 A579.2266,579.2266 0 0,1 558.9132,314.0469M558.6197,314.7844 A579.2266,579.2266 0 0,1 558.0298,316.2582M557.7334,316.9945 A579.2266,579.2266 0 0,1 557.1374,318.4659M556.8379,319.201 A579.2266,579.2266 0 0,1 556.2359,320.6699M555.9334,321.4038 A579.2266,579.2266 0 0,1 555.3254,322.8702M555.0199,323.6028 A579.2266,579.2266 0 0,1 554.4058,325.0667M554.0973,325.7981 A579.2266,579.2266 0 0,1 553.4772,327.2595M553.1657,327.9895 A579.2266,579.2266 0 0,1 552.5396,329.4483M552.225,330.1771 A579.2266,579.2266 0 0,1 551.593,331.6334M551.2755,332.3608 A579.2266,579.2266 0 0,1 550.6374,333.8145M550.3169,334.5406 A579.2266,579.2266 0 0,1 549.6729,335.9916M549.3494,336.7165 A579.2266,579.2266 0 0,1 548.6994,338.1648M548.3729,338.8883 A579.2266,579.2266 0 0,1 547.717,340.3339M547.3875,341.0561 A579.2266,579.2266 0 0,1 546.7257,342.499M546.3933,343.2198 A579.2266,579.2266 0 0,1 545.7255,344.66M545.3901,345.3795 A579.2266,579.2266 0 0,1 544.7164,346.8169M544.3781,347.535 A579.2266,579.2266 0 0,1 543.6984,348.9696M543.3572,349.6863 A579.2266,579.2266 0 0,1 542.6717,351.1181M542.3274,351.8334 A579.2266,579.2266 0 0,1 541.6361,353.2624M541.2889,353.9762 A579.2266,579.2266 0 0,1 540.5916,355.4024M540.2416,356.1148 A579.2266,579.2266 0 0,1 539.5384,357.5381M539.1854,358.249 A579.2266,579.2266 0 0,1 538.4765,359.6694M538.1205,360.3789 A579.2266,579.2266 0 0,1 537.4057,361.7963M537.0469,362.5043 A579.2266,579.2266 0 0,1 536.3263,363.9189M535.9645,364.6254 A579.2266,579.2266 0 0,1 535.2381,366.0369M534.8735,366.7419 A579.2266,579.2266 0 0,1 534.1412,368.1505M533.7737,368.854 A579.2266,579.2266 0 0,1 533.0357,370.2595M532.6652,370.9616 A579.2266,579.2266 0 0,1 531.9215,372.364M531.5481,373.0645 A579.2266,579.2266 0 0,1 530.7986,374.4639M530.4224,375.1629 A579.2266,579.2266 0 0,1 529.6671,376.5592M529.2881,377.2566 A579.2266,579.2266 0 0,1 528.527,378.6498M528.1451,379.3456 A579.2266,579.2266 0 0,1 527.3784,380.7356M526.9936,381.4299 A579.2266,579.2266 0 0,1 526.2211,382.8168M525.8335,383.5094 A579.2266,579.2266 0 0,1 525.0554,384.8932M524.6649,385.5842 A579.2266,579.2266 0 0,1 523.881,386.9647M523.4877,387.6542 A579.2266,579.2266 0 0,1 522.6982,389.0314M522.3021,389.7192 A579.2266,579.2266 0 0,1 521.5069,391.0933M521.1079,391.7794 A579.2266,579.2266 0 0,1 520.3072,393.1502M519.9054,393.8347 A579.2266,579.2266 0 0,1 519.0989,395.2021M518.6943,395.885 A579.2266,579.2266 0 0,1 517.8823,397.2491M517.4749,397.9303 A579.2266,579.2266 0 0,1 516.6573,399.2911M516.2471,399.9706 A579.2266,579.2266 0 0,1 515.4238,401.328M515.0108,402.0058 A579.2266,579.2266 0 0,1 514.182,403.3598M513.7663,404.0359 A579.2266,579.2266 0 0,1 512.9319,405.3865M512.5134,406.0609 A579.2266,579.2266 0 0,1 511.6735,407.408M511.2521,408.0807 A579.2266,579.2266 0 0,1 510.4067,409.4244M509.9826,410.0954 A579.2266,579.2266 0 0,1 509.1317,411.4355M508.7048,412.1047 A579.2266,579.2266 0 0,1 507.8484,413.4414M507.4188,414.1088 A579.2266,579.2266 0 0,1 506.5568,415.442M506.1245,416.1076 A579.2266,579.2266 0 0,1 505.2571,417.4372M504.822,418.1011 A579.2266,579.2266 0 0,1 503.9492,419.4271M503.5114,420.0892 A579.2266,579.2266 0 0,1 502.6331,421.4116M502.1926,422.0719 A579.2266,579.2266 0 0,1 501.3088,423.3907M500.8656,424.0491 A579.2266,579.2266 0 0,1 499.9765,425.3643M499.5305,426.0209 A579.2266,579.2266 0 0,1 498.636,427.3324M498.1874,427.9872 A579.2266,579.2266 0 0,1 497.2874,429.295M496.8361,429.9479 A579.2266,579.2266 0 0,1 495.9308,431.252M495.4768,431.9031 A579.2266,579.2266 0 0,1 494.5662,433.2034M494.1095,433.8527 A579.2266,579.2266 0 0,1 493.1935,435.1492M492.7342,435.7966 A579.2266,579.2266 0 0,1 491.8129,437.0894M491.3509,437.7348 A579.2266,579.2266 0 0,1 490.4242,439.0238M489.9596,439.6674 A579.2266,579.2266 0 0,1 489.0277,440.9526M488.5604,441.5942 A579.2266,579.2266 0 0,1 487.6232,442.8755M487.1533,443.5152 A579.2266,579.2266 0 0,1 486.2109,444.7927M485.7383,445.4305 A579.2266,579.2266 0 0,1 484.7906,446.7041M484.3155,447.3399 A579.2266,579.2266 0 0,1 483.3626,448.6096M482.8848,449.2434 A579.2266,579.2266 0 0,1 481.9267,450.5092M481.4463,451.1411 A579.2266,579.2266 0 0,1 480.483,452.4029M480,453.0328 A579.2266,579.2266 0 0,1 479.0315,454.2906M478.546,454.9185 A579.2266,579.2266 0 0,1 477.5723,456.1724M477.0842,456.7983 A579.2266,579.2266 0 0,1 476.1053,458.0481M475.6146,458.672 A579.2266,579.2266 0 0,1 474.6307,459.9178M474.1374,460.5397 A579.2266,579.2266 0 0,1 473.1484,461.7815M472.6526,462.4013 A579.2266,579.2266 0 0,1 471.6584,463.639M471.1601,464.2568 A579.2266,579.2266 0 0,1 470.1608,465.4903M469.6599,466.1061 A579.2266,579.2266 0 0,1 468.6556,467.3355M468.1522,467.9492 A579.2266,579.2266 0 0,1 467.1429,469.1745M466.637,469.7862 A579.2266,579.2266 0 0,1 465.6226,471.0073M465.1141,471.6168 A579.2266,579.2266 0 0,1 464.0948,472.8338M463.5838,473.4412 A579.2266,579.2266 0 0,1 462.5594,474.654M462.046,475.2593 A579.2266,579.2266 0 0,1 461.0166,476.4679M460.5007,477.0711 A579.2266,579.2266 0 0,1 459.4664,478.2754M458.948,478.8765 A579.2266,579.2266 0 0,1 457.9087,480.0765M457.3879,480.6755 A579.2266,579.2266 0 0,1 456.3437,481.8712M455.8204,482.468 A579.2266,579.2266 0 0,1 454.7713,483.6595M454.2455,484.2541 A579.2266,579.2266 0 0,1 453.1915,485.4412M452.6633,486.0337 A579.2266,579.2266 0 0,1 451.6045,487.2165M451.0738,487.8068 A579.2266,579.2266 0 0,1 450.0101,488.9852M449.4771,489.5734 A579.2266,579.2266 0 0,1 448.4085,490.7474M447.8731,491.3333 A579.2266,579.2266 0 0,1 446.7997,492.503M446.2618,493.0867 A579.2266,579.2266 0 0,1 445.1837,494.2519M444.6434,494.8334 A579.2266,579.2266 0 0,1 443.5604,495.9942M443.0178,496.5734 A579.2266,579.2266 0 0,1 441.9301,497.7298M441.385,498.3068 A579.2266,579.2266 0 0,1 440.2926,499.4586M439.7452,500.0334 A579.2266,579.2266 0 0,1 438.648,501.1807M438.0982,501.7533 A579.2266,579.2266 0 0,1 436.9964,502.8961M436.4443,503.4664 A579.2266,579.2266 0 0,1 435.3377,504.6046M434.7832,505.1726 A579.2266,579.2266 0 0,1 433.672,506.3063M433.1152,506.8721 A579.2266,579.2266 0 0,1 431.9993,508.0012M431.4402,508.5646 A579.2266,579.2266 0 0,1 430.3197,509.6891M429.7583,510.2503 A579.2266,579.2266 0 0,1 428.6331,511.3702M428.0694,511.929 A579.2266,579.2266 0 0,1 426.9397,513.0443M426.3737,513.6008 A579.2266,579.2266 0 0,1 425.2394,514.7114M424.6711,515.2655 A579.2266,579.2266 0 0,1 423.5322,516.3715M422.9616,516.9233 A579.2266,579.2266 0 0,1 421.8182,518.0246M421.2454,518.574 A579.2266,579.2266 0 0,1 420.0975,519.6706M419.5224,520.2177 A579.2266,579.2266 0 0,1 418.37,521.3095M417.7927,521.8542 A579.2266,579.2266 0 0,1 416.6358,522.9413M416.0562,523.4837 A579.2266,579.2266 0 0,1 414.8949,524.566M414.3131,525.106 A579.2266,579.2266 0 0,1 413.1473,526.1835M412.5633,526.7211 A579.2266,579.2266 0 0,1 411.3931,527.7938M410.8068,528.3289 A579.2266,579.2266 0 0,1 409.6322,529.3969M409.0438,529.9296 A579.2266,579.2266 0 0,1 407.8648,530.9927M407.2742,531.523 A579.2266,579.2266 0 0,1 406.0909,532.5812M405.4981,533.1091 A579.2266,579.2266 0 0,1 404.3104,534.1625M403.7155,534.6879 A579.2266,579.2266 0 0,1 402.5235,535.7364M401.9264,536.2594 A579.2266,579.2266 0 0,1 400.7301,537.3029M400.1309,537.8235 A579.2266,579.2266 0 0,1 398.9303,538.8621M398.3289,539.3801 A579.2266,579.2266 0 0,1 397.124,540.4138M396.5205,540.9294 A579.2266,579.2266 0 0,1 395.3115,541.9581M394.7058,542.4712 A579.2266,579.2266 0 0,1 393.4925,543.495M392.8848,544.0056 A579.2266,579.2266 0 0,1 391.6673,545.0243M391.0575,545.5324 A579.2266,579.2266 0 0,1 389.8358,546.5461M389.2239,547.0517 A579.2266,579.2266 0 0,1 387.9981,548.0604M387.3841,548.5635 A579.2266,579.2266 0 0,1 386.1541,549.5672M385.5381,550.0677 A579.2266,579.2266 0 0,1 384.304,551.0663M383.686,551.5643 A579.2266,579.2266 0 0,1 382.4478,552.5578M381.8276,553.0533 A579.2266,579.2266 0 0,1 380.5854,554.0417M379.9632,554.5346 A579.2266,579.2266 0 0,1 378.7169,555.5179M378.0927,556.0082 A579.2266,579.2266 0 0,1 376.8424,556.9864M376.2162,557.4742 A579.2266,579.2266 0 0,1 374.9618,558.4472M374.3337,558.9324 A579.2266,579.2266 0 0,1 373.0753,559.9002M372.4451,560.3828 A579.2266,579.2266 0 0,1 371.1828,561.3455M370.5507,561.8255 A579.2266,579.2266 0 0,1 369.2844,562.783M368.6503,563.2604 A579.2266,579.2266 0 0,1 367.3801,564.2126M366.744,564.6875 A579.2266,579.2266 0 0,1 365.4699,565.6345M364.8319,566.1067 A579.2266,579.2266 0 0,1 363.5539,567.0484M362.914,567.518 A579.2266,579.2266 0 0,1 361.6321,568.4545M360.9902,568.9214 A579.2266,579.2266 0 0,1 359.7046,569.8527M359.0608,570.3169 A579.2266,579.2266 0 0,1 357.7713,571.2429M357.1256,571.7045 A579.2266,579.2266 0 0,1 355.8323,572.6251M355.1847,573.0841 A579.2266,579.2266 0 0,1 353.8876,573.9994M353.2381,574.4557 A579.2266,579.2266 0 0,1 351.9373,575.3657M351.286,575.8193 A579.2266,579.2266 0 0,1 349.9814,576.7239M349.3282,577.1749 A579.2266,579.2266 0 0,1 348.02,578.0741M347.3649,578.5224 A579.2266,579.2266 0 0,1 346.053,579.4163M345.3961,579.8618 A579.2266,579.2266 0 0,1 344.0805,580.7503M343.4218,581.1931 A579.2266,579.2266 0 0,1 342.1025,582.0762M341.442,582.5163 A579.2266,579.2266 0 0,1 340.1191,583.3939M339.4568,583.8314 A579.2266,579.2266 0 0,1 338.1303,584.7035M337.4662,585.1382 A579.2266,579.2266 0 0,1 336.1362,586.0049M335.4703,586.4369 A579.2266,579.2266 0 0,1 334.1367,587.2981M333.469,587.7274 A579.2266,579.2266 0 0,1 332.1319,588.5831M331.4624,589.0096 A579.2266,579.2266 0 0,1 330.1218,589.8598M329.4506,590.2835 A579.2266,579.2266 0 0,1 328.1065,591.1282M327.4336,591.5492 A579.2266,579.2266 0 0,1 326.086,592.3884M325.4114,592.8066 A579.2266,579.2266 0 0,1 324.0604,593.6402M323.384,594.0556 A579.2266,579.2266 0 0,1 322.0296,594.8837M321.3515,595.2963 A579.2266,579.2266 0 0,1 319.9937,596.1188M319.314,596.5287 A579.2266,579.2266 0 0,1 317.9528,597.3456M317.2713,597.7526 A579.2266,579.2266 0 0,1 315.9068,598.5639M315.2237,598.9682 A579.2266,579.2266 0 0,1 313.8558,599.7738M313.1711,600.1753 A579.2266,579.2266 0 0,1 311.7999,600.9753M311.1135,601.3739 A579.2266,579.2266 0 0,1 309.7391,602.1683M309.0511,602.5641 A579.2266,579.2266 0 0,1 307.6734,603.3529M306.9837,603.7458 A579.2266,579.2266 0 0,1 305.6028,604.5289M304.9115,604.919 A579.2266,579.2266 0 0,1 303.5274,605.6964M302.8345,606.0837 A579.2266,579.2266 0 0,1 301.4472,606.8554M300.7528,607.2398 A579.2266,579.2266 0 0,1 299.3623,608.0058M298.6663,608.3874 A579.2266,579.2266 0 0,1 297.2727,609.1476M296.5751,609.5263 A579.2266,579.2266 0 0,1 295.1784,610.2809M294.4792,610.6567 A579.2266,579.2266 0 0,1 293.0794,611.4055M292.3787,611.7784 A579.2266,579.2266 0 0,1 290.9759,612.5215M290.2737,612.8915 A579.2266,579.2266 0 0,1 288.8677,613.6288M288.164,613.996 A579.2266,579.2266 0 0,1 286.7551,614.7274M286.0498,615.0917 A579.2266,579.2266 0 0,1 284.6379,615.8174M283.9312,616.1787 A579.2266,579.2266 0 0,1 282.5163,616.8986M281.8081,617.2571 A579.2266,579.2266 0 0,1 280.3902,617.9711M279.6806,618.3266 A579.2266,579.2266 0 0,1 278.2598,619.0348M277.5487,619.3875 A579.2266,579.2266 0 0,1 276.125,620.0898M275.4124,620.4395 A579.2266,579.2266 0 0,1 273.9859,621.136M273.2719,621.4828 A579.2266,579.2266 0 0,1 271.8425,622.1734M271.1271,622.5172 A579.2266,579.2266 0 0,1 269.6948,623.202M268.978,623.5429 A579.2266,579.2266 0 0,1 267.543,624.2217M266.8248,624.5597 A579.2266,579.2266 0 0,1 265.387,625.2326M264.6674,625.5676 A579.2266,579.2266 0 0,1 263.2268,626.2346M262.5058,626.5666 A579.2266,579.2266 0 0,1 261.0625,627.2277M260.3402,627.5568 A579.2266,579.2266 0 0,1 258.8942,628.2119M258.1705,628.538 A579.2266,579.2266 0 0,1 256.7218,629.1872M255.9968,629.5103 A579.2266,579.2266 0 0,1 254.5455,630.1536M253.8191,630.4737 A579.2266,579.2266 0 0,1 252.3652,631.111M251.6375,631.4281 A579.2266,579.2266 0 0,1 250.1809,632.0594M249.452,632.3736 A579.2266,579.2266 0 0,1 247.9928,632.9988M247.2626,633.31 A579.2266,579.2266 0 0,1 245.8009,633.9293M245.0694,634.2374 A579.2266,579.2266 0 0,1 243.6051,634.8507M242.8724,635.1558 A579.2266,579.2266 0 0,1 241.4056,635.7631M240.6716,636.0652 A579.2266,579.2266 0 0,1 239.2024,636.6664M238.4671,636.9655 A579.2266,579.2266 0 0,1 236.9954,637.5607M236.2589,637.8567 A579.2266,579.2266 0 0,1 234.7848,638.4459M234.0471,638.7389 A579.2266,579.2266 0 0,1 232.5706,639.322M231.8317,639.612 A579.2266,579.2266 0 0,1 230.3528,640.1889M229.6127,640.4759 A579.2266,579.2266 0 0,1 228.1314,641.0468M227.3902,641.3307 A579.2266,579.2266 0 0,1 225.9065,641.8955M225.1641,642.1764 A579.2266,579.2266 0 0,1 223.6782,642.7351M222.9347,643.0129 A579.2266,579.2266 0 0,1 221.4464,643.5655M220.7017,643.8402 A579.2266,579.2266 0 0,1 219.2113,644.3867M218.4655,644.6584 A579.2266,579.2266 0 0,1 216.9727,645.1987M216.2258,645.4673 A579.2266,579.2266 0 0,1 214.7309,646.0015M213.9829,646.267 A579.2266,579.2266 0 0,1 212.4858,646.7951M211.7367,647.0575 A579.2266,579.2266 0 0,1 210.2374,647.5794M209.4872,647.8388 A579.2266,579.2266 0 0,1 207.9858,648.3545M207.2346,648.6108 A579.2266,579.2266 0 0,1 205.7311,649.1203M204.9788,649.3736 A579.2266,579.2266 0 0,1 203.4732,649.8769M202.7199,650.127 A579.2266,579.2266 0 0,1 201.2123,650.6242M200.458,650.8712 A579.2266,579.2266 0 0,1 198.9483,651.3621M198.1929,651.6061 A579.2266,579.2266 0 0,1 196.6812,652.0908M195.9249,652.3316 A579.2266,579.2266 0 0,1 194.4112,652.8101M193.6539,653.0478 A579.2266,579.2266 0 0,1 192.1383,653.5201M191.38,653.7547 A579.2266,579.2266 0 0,1 189.8625,654.2207M189.1032,654.4522 A579.2266,579.2266 0 0,1 187.5838,654.912M186.8236,655.1404 A579.2266,579.2266 0 0,1 185.3022,655.5939M184.5411,655.8191 A579.2266,579.2266 0 0,1 183.0179,656.2664M182.2559,656.4885 A579.2266,579.2266 0 0,1 180.7309,656.9296M179.9679,657.1485 A579.2266,579.2266 0 0,1 178.4411,657.5833M177.6773,657.7991 A579.2266,579.2266 0 0,1 176.1487,658.2276M175.384,658.4402 A579.2266,579.2266 0 0,1 173.8536,658.8624M173.088,659.072 A579.2266,579.2266 0 0,1 171.556,659.4879M170.7895,659.6942 A579.2266,579.2266 0 0,1 169.2558,660.1038M168.4885,660.3071 A579.2266,579.2266 0 0,1 166.9531,660.7104M166.1849,660.9104 A579.2266,579.2266 0 0,1 164.6479,661.3074M163.8789,661.5043 A579.2266,579.2266 0 0,1 162.3403,661.895M161.5705,662.0887 A579.2266,579.2266 0 0,1 160.0302,662.473M159.2597,662.6636 A579.2266,579.2266 0 0,1 157.7179,663.0416M156.9466,663.229 A579.2266,579.2266 0 0,1 155.4032,663.6006M154.6311,663.7849 A579.2266,579.2266 0 0,1 153.0862,664.1502M152.3134,664.3312 A579.2266,579.2266 0 0,1 150.767,664.6902M149.9934,664.8681 A579.2266,579.2266 0 0,1 148.4456,665.2206M147.6713,665.3953 A579.2266,579.2266 0 0,1 146.122,665.7416M145.347,665.9131 A579.2266,579.2266 0 0,1 143.7963,666.2529M143.0206,666.4212 A579.2266,579.2266 0 0,1 141.4685,666.7547M140.6922,666.9198 A579.2266,579.2266 0 0,1 139.1387,667.2469M138.3617,667.4089 A579.2266,579.2266 0 0,1 136.8069,667.7296M136.0292,667.8883 A579.2266,579.2266 0 0,1 134.4731,668.2026M133.6947,668.3582 A579.2266,579.2266 0 0,1 132.1374,668.6661M131.3584,668.8184 A579.2266,579.2266 0 0,1 129.7998,669.1199M129.0202,669.2691 A579.2266,579.2266 0 0,1 127.4603,669.5641M126.6801,669.7101 A579.2266,579.2266 0 0,1 125.1191,669.9987M124.3383,670.1415 A579.2266,579.2266 0 0,1 122.7761,670.4237M121.9947,670.5632 A579.2266,579.2266 0 0,1 120.4313,670.8391M119.6494,670.9754 A579.2266,579.2266 0 0,1 118.0849,671.2448M117.3024,671.3779 A579.2266,579.2266 0 0,1 115.7368,671.6408M114.9538,671.7707 A579.2266,579.2266 0 0,1 113.3871,672.0272M112.6035,672.1539 A579.2266,579.2266 0 0,1 111.0359,672.4039M110.2518,672.5274 A579.2266,579.2266 0 0,1 108.6831,672.771M107.8985,672.8912 A579.2266,579.2266 0 0,1 106.3288,673.1284M105.5437,673.2454 A579.2266,579.2266 0 0,1 103.9731,673.4761M103.1875,673.5898 A579.2266,579.2266 0 0,1 101.6159,673.8141M100.8299,673.9246 A579.2266,579.2266 0 0,1 99.2574,674.1424M98.471,674.2497 A579.2266,579.2266 0 0,1 96.8976,674.4611M96.1107,674.5651 A579.2266,579.2266 0 0,1 94.5365,674.77M93.7492,674.8708 A579.2266,579.2266 0 0,1 92.1741,675.0692M91.3864,675.1668 A579.2266,579.2266 0 0,1 89.8105,675.3587M89.0224,675.453 A579.2266,579.2266 0 0,1 87.4458,675.6385M86.6573,675.7296 A579.2266,579.2266 0 0,1 85.0799,675.9085M84.291,675.9964 A579.2266,579.2266 0 0,1 82.7129,676.1688M81.9237,676.2535 A579.2266,579.2266 0 0,1 80.3449,676.4194M79.5553,676.5008 A579.2266,579.2266 0 0,1 77.9758,676.6603M77.1859,676.7384 A579.2266,579.2266 0 0,1 75.6058,676.8914M74.8156,676.9663 A579.2266,579.2266 0 0,1 73.2349,677.1128M72.4444,677.1844 A579.2266,579.2266 0 0,1 70.8631,677.3244M70.0723,677.3928 A579.2266,579.2266 0 0,1 68.4904,677.5263M67.6993,677.5914 A579.2266,579.2266 0 0,1 66.1169,677.7184M65.3256,677.7802 A579.2266,579.2266 0 0,1 63.7426,677.9007M62.9511,677.9593 A579.2266,579.2266 0 0,1 61.3677,678.0733M60.5758,678.1287 A579.2266,579.2266 0 0,1 60.0686,678.1636" style="stroke:#000000;stroke-width:0.1;"/>
            <!-- Polyline -->
            <path d="M1139.5281,678.1636 L1139.5281,100.0872 L1179.5281,100.0872 L1179.5281,678.1636 Z" style="stroke:#000000;stroke-width:0.1;"/>
            <!-- Polyline -->
            <path d="M1193.7173,100.0872 L1179.5281,100.0872 L1179.5281,60.0872 L1167.3659,60.0872 L1167.3659,16.3034 L1167.3659,0.0872 L1193.7173,0.0872 Z" style="stroke:#000000;stroke-width:0.1;"/>
            <!-- Arc -->
            <path d="M1139.5281,678.1636 A579.2266,579.2266 0 0,1 1139.0209,678.1287M1138.229,678.0733 A579.2266,579.2266 0 0,1 1136.6456,677.9593M1135.8541,677.9007 A579.2266,579.2266 0 0,1 1134.2711,677.7802M1133.4798,677.7184 A579.2266,579.2266 0 0,1 1131.8974,677.5914M1131.1063,677.5263 A579.2266,579.2266 0 0,1 1129.5244,677.3928M1128.7336,677.3244 A579.2266,579.2266 0 0,1 1127.1523,677.1844M1126.3618,677.1128 A579.2266,579.2266 0 0,1 1124.7811,676.9663M1123.9909,676.8914 A579.2266,579.2266 0 0,1 1122.4108,676.7384M1121.6209,676.6603 A579.2266,579.2266 0 0,1 1120.0414,676.5008M1119.2518,676.4194 A579.2266,579.2266 0 0,1 1117.673,676.2535M1116.8838,676.1688 A579.2266,579.2266 0 0,1 1115.3057,675.9964M1114.5168,675.9085 A579.2266,579.2266 0 0,1 1112.9395,675.7296M1112.1509,675.6385 A579.2266,579.2266 0 0,1 1110.5743,675.453M1109.7862,675.3587 A579.2266,579.2266 0 0,1 1108.2103,675.1668M1107.4226,675.0692 A579.2266,579.2266 0 0,1 1105.8476,674.8708M1105.0602,674.77 A579.2266,579.2266 0 0,1 1103.486,674.5651M1102.6991,674.4611 A579.2266,579.2266 0 0,1 1101.1257,674.2497M1100.3393,674.1424 A579.2266,579.2266 0 0,1 1098.7668,673.9246M1097.9808,673.8141 A579.2266,579.2266 0 0,1 1096.4092,673.5898M1095.6236,673.4761 A579.2266,579.2266 0 0,1 1094.053,673.2454M1093.2679,673.1284 A579.2266,579.2266 0 0,1 1091.6982,672.8912M1090.9136,672.771 A579.2266,579.2266 0 0,1 1089.3449,672.5274M1088.5608,672.4039 A579.2266,579.2266 0 0,1 1086.9932,672.1539M1086.2096,672.0272 A579.2266,579.2266 0 0,1 1084.6429,671.7707M1083.8599,671.6408 A579.2266,579.2266 0 0,1 1082.2943,671.3779M1081.5118,671.2448 A579.2266,579.2266 0 0,1 1079.9473,670.9754M1079.1654,670.8391 A579.2266,579.2266 0 0,1 1077.602,670.5632M1076.8206,670.4237 A579.2266,579.2266 0 0,1 1075.2584,670.1415M1074.4776,669.9987 A579.2266,579.2266 0 0,1 1072.9166,669.7101M1072.1364,669.5641 A579.2266,579.2266 0 0,1 1070.5765,669.2691M1069.7969,669.1199 A579.2266,579.2266 0 0,1 1068.2383,668.8184M1067.4593,668.6661 A579.2266,579.2266 0 0,1 1065.902,668.3582M1065.1236,668.2026 A579.2266,579.2266 0 0,1 1063.5675,667.8883M1062.7898,667.7296 A579.2266,579.2266 0 0,1 1061.235,667.4089M1060.458,667.2469 A579.2266,579.2266 0 0,1 1058.9045,666.9198M1058.1282,666.7547 A579.2266,579.2266 0 0,1 1056.5761,666.4212M1055.8004,666.2529 A579.2266,579.2266 0 0,1 1054.2497,665.9131M1053.4747,665.7416 A579.2266,579.2266 0 0,1 1051.9254,665.3953M1051.1511,665.2206 A579.2266,579.2266 0 0,1 1049.6033,664.8681M1048.8297,664.6902 A579.2266,579.2266 0 0,1 1047.2833,664.3312M1046.5105,664.1502 A579.2266,579.2266 0 0,1 1044.9656,663.7849M1044.1935,663.6006 A579.2266,579.2266 0 0,1 1042.6501,663.229M1041.8788,663.0416 A579.2266,579.2266 0 0,1 1040.337,662.6636M1039.5665,662.473 A579.2266,579.2266 0 0,1 1038.0262,662.0887M1037.2564,661.895 A579.2266,579.2266 0 0,1 1035.7178,661.5043M1034.9488,661.3074 A579.2266,579.2266 0 0,1 1033.4118,660.9104M1032.6436,660.7104 A579.2266,579.2266 0 0,1 1031.1082,660.3071M1030.3409,660.1038 A579.2266,579.2266 0 0,1 1028.8072,659.6942M1028.0407,659.4879 A579.2266,579.2266 0 0,1 1026.5087,659.072M1025.7431,658.8624 A579.2266,579.2266 0 0,1 1024.2127,658.4402M1023.448,658.2276 A579.2266,579.2266 0 0,1 1021.9194,657.7991M1021.1556,657.5833 A579.2266,579.2266 0 0,1 1019.6288,657.1485M1018.8658,656.9296 A579.2266,579.2266 0 0,1 1017.3408,656.4885M1016.5788,656.2664 A579.2266,579.2266 0 0,1 1015.0556,655.8191M1014.2945,655.5939 A579.2266,579.2266 0 0,1 1012.7731,655.1404M1012.0129,654.912 A579.2266,579.2266 0 0,1 1010.4935,654.4522M1009.7342,654.2207 A579.2266,579.2266 0 0,1 1008.2167,653.7547M1007.4584,653.5201 A579.2266,579.2266 0 0,1 1005.9428,653.0478M1005.1855,652.8101 A579.2266,579.2266 0 0,1 1003.6718,652.3316M1002.9155,652.0908 A579.2266,579.2266 0 0,1 1001.4038,651.6061M1000.6484,651.3621 A579.2266,579.2266 0 0,1 999.1388,650.8712M998.3844,650.6242 A579.2266,579.2266 0 0,1 996.8768,650.127M996.1235,649.8769 A579.2266,579.2266 0 0,1 994.6179,649.3736M993.8656,649.1203 A579.2266,579.2266 0 0,1 992.3621,648.6108M991.6109,648.3545 A579.2266,579.2266 0 0,1 990.1095,647.8388M989.3593,647.5794 A579.2266,579.2266 0 0,1 987.86,647.0575M987.1109,646.7951 A579.2266,579.2266 0 0,1 985.6138,646.267M984.8658,646.0015 A579.2266,579.2266 0 0,1 983.3709,645.4673M982.624,645.1987 A579.2266,579.2266 0 0,1 981.1312,644.6584M980.3854,644.3867 A579.2266,579.2266 0 0,1 978.895,643.8402M978.1503,643.5655 A579.2266,579.2266 0 0,1 976.6621,643.0129M975.9185,642.7351 A579.2266,579.2266 0 0,1 974.4326,642.1764M973.6902,641.8955 A579.2266,579.2266 0 0,1 972.2065,641.3307M971.4653,641.0468 A579.2266,579.2266 0 0,1 969.984,640.4759M969.2439,640.1889 A579.2266,579.2266 0 0,1 967.765,639.612M967.0261,639.322 A579.2266,579.2266 0 0,1 965.5496,638.7389M964.8119,638.4459 A579.2266,579.2266 0 0,1 963.3378,637.8567M962.6013,637.5607 A579.2266,579.2266 0 0,1 961.1296,636.9655M960.3943,636.6664 A579.2266,579.2266 0 0,1 958.9251,636.0652M958.1911,635.7631 A579.2266,579.2266 0 0,1 956.7243,635.1558M955.9916,634.8507 A579.2266,579.2266 0 0,1 954.5273,634.2374M953.7958,633.9293 A579.2266,579.2266 0 0,1 952.3341,633.31M951.6039,632.9988 A579.2266,579.2266 0 0,1 950.1447,632.3736M949.4158,632.0594 A579.2266,579.2266 0 0,1 947.9592,631.4281M947.2315,631.111 A579.2266,579.2266 0 0,1 945.7776,630.4737M945.0512,630.1536 A579.2266,579.2266 0 0,1 943.5999,629.5103M942.8749,629.1872 A579.2266,579.2266 0 0,1 941.4262,628.538M940.7025,628.2119 A579.2266,579.2266 0 0,1 939.2565,627.5568M938.5342,627.2277 A579.2266,579.2266 0 0,1 937.0909,626.5666M936.3699,626.2346 A579.2266,579.2266 0 0,1 934.9294,625.5676M934.2098,625.2326 A579.2266,579.2266 0 0,1 932.7719,624.5597M932.0537,624.2217 A579.2266,579.2266 0 0,1 930.6187,623.5429M929.9019,623.202 A579.2266,579.2266 0 0,1 928.4696,622.5172M927.7542,622.1734 A579.2266,579.2266 0 0,1 926.3248,621.4828M925.6108,621.136 A579.2266,579.2266 0 0,1 924.1843,620.4395M923.4717,620.0898 A579.2266,579.2266 0 0,1 922.048,619.3875M921.3369,619.0348 A579.2266,579.2266 0 0,1 919.9161,618.3266M919.2065,617.9711 A579.2266,579.2266 0 0,1 917.7886,617.2571M917.0804,616.8986 A579.2266,579.2266 0 0,1 915.6655,616.1787M914.9588,615.8174 A579.2266,579.2266 0 0,1 913.5469,615.0917M912.8416,614.7274 A579.2266,579.2266 0 0,1 911.4327,613.996M910.729,613.6288 A579.2266,579.2266 0 0,1 909.3231,612.8915M908.6209,612.5215 A579.2266,579.2266 0 0,1 907.218,611.7784M906.5173,611.4055 A579.2266,579.2266 0 0,1 905.1175,610.6567M904.4183,610.2809 A579.2266,579.2266 0 0,1 903.0216,609.5263M902.324,609.1476 A579.2266,579.2266 0 0,1 900.9304,608.3874M900.2344,608.0058 A579.2266,579.2266 0 0,1 898.8439,607.2398M898.1495,606.8554 A579.2266,579.2266 0 0,1 896.7622,606.0837M896.0693,605.6964 A579.2266,579.2266 0 0,1 894.6852,604.919M893.9939,604.5289 A579.2266,579.2266 0 0,1 892.613,603.7458M891.9233,603.3529 A579.2266,579.2266 0 0,1 890.5456,602.5641M889.8576,602.1683 A579.2266,579.2266 0 0,1 888.4832,601.3739M887.7968,600.9753 A579.2266,579.2266 0 0,1 886.4256,600.1753M885.7409,599.7738 A579.2266,579.2266 0 0,1 884.373,598.9682M883.6899,598.5639 A579.2266,579.2266 0 0,1 882.3254,597.7526M881.6439,597.3456 A579.2266,579.2266 0 0,1 880.2828,596.5287M879.603,596.1188 A579.2266,579.2266 0 0,1 878.2452,595.2963M877.5671,594.8837 A579.2266,579.2266 0 0,1 876.2127,594.0556M875.5363,593.6402 A579.2266,579.2266 0 0,1 874.1853,592.8066M873.5107,592.3884 A579.2266,579.2266 0 0,1 872.1631,591.5492M871.4902,591.1282 A579.2266,579.2266 0 0,1 870.1461,590.2835M869.4749,589.8598 A579.2266,579.2266 0 0,1 868.1343,589.0096M867.4648,588.5831 A579.2266,579.2266 0 0,1 866.1277,587.7274M865.46,587.2981 A579.2266,579.2266 0 0,1 864.1264,586.4369M863.4605,586.0049 A579.2266,579.2266 0 0,1 862.1305,585.1382M861.4664,584.7035 A579.2266,579.2266 0 0,1 860.1399,583.8314M859.4776,583.3939 A579.2266,579.2266 0 0,1 858.1547,582.5163M857.4942,582.0762 A579.2266,579.2266 0 0,1 856.1749,581.1931M855.5162,580.7503 A579.2266,579.2266 0 0,1 854.2006,579.8618M853.5437,579.4163 A579.2266,579.2266 0 0,1 852.2318,578.5224M851.5767,578.0741 A579.2266,579.2266 0 0,1 850.2685,577.1749M849.6153,576.7239 A579.2266,579.2266 0 0,1 848.3107,575.8193M847.6594,575.3657 A579.2266,579.2266 0 0,1 846.3586,574.4557M845.7091,573.9994 A579.2266,579.2266 0 0,1 844.412,573.0841M843.7644,572.6251 A579.2266,579.2266 0 0,1 842.4711,571.7045M841.8254,571.2429 A579.2266,579.2266 0 0,1 840.5359,570.3169M839.8921,569.8527 A579.2266,579.2266 0 0,1 838.6065,568.9214M837.9646,568.4545 A579.2266,579.2266 0 0,1 836.6827,567.518M836.0428,567.0484 A579.2266,579.2266 0 0,1 834.7648,566.1067M834.1268,565.6345 A579.2266,579.2266 0 0,1 832.8527,564.6875M832.2166,564.2126 A579.2266,579.2266 0 0,1 830.9464,563.2604M830.3123,562.783 A579.2266,579.2266 0 0,1 829.046,561.8255M828.4139,561.3455 A579.2266,579.2266 0 0,1 827.1516,560.3828M826.5214,559.9002 A579.2266,579.2266 0 0,1 825.263,558.9324M824.6349,558.4472 A579.2266,579.2266 0 0,1 823.3805,557.4742M822.7543,556.9864 A579.2266,579.2266 0 0,1 821.504,556.0082M820.8798,555.5179 A579.2266,579.2266 0 0,1 819.6335,554.5346M819.0113,554.0417 A579.2266,579.2266 0 0,1 817.7691,553.0533M817.1489,552.5578 A579.2266,579.2266 0 0,1 815.9108,551.5643M815.2927,551.0663 A579.2266,579.2266 0 0,1 814.0586,550.0677M813.4426,549.5672 A579.2266,579.2266 0 0,1 812.2126,548.5635M811.5986,548.0604 A579.2266,579.2266 0 0,1 810.3728,547.0517M809.7609,546.5461 A579.2266,579.2266 0 0,1 808.5392,545.5324M807.9294,545.0243 A579.2266,579.2266 0 0,1 806.7119,544.0056M806.1042,543.495 A579.2266,579.2266 0 0,1 804.8909,542.4712M804.2853,541.9581 A579.2266,579.2266 0 0,1 803.0762,540.9294M802.4727,540.4138 A579.2266,579.2266 0 0,1 801.2678,539.3801M800.6664,538.8621 A579.2266,579.2266 0 0,1 799.4659,537.8235M798.8666,537.3029 A579.2266,579.2266 0 0,1 797.6703,536.2594M797.0732,535.7364 A579.2266,579.2266 0 0,1 795.8812,534.6879M795.2863,534.1625 A579.2266,579.2266 0 0,1 794.0986,533.1091M793.5058,532.5812 A579.2266,579.2266 0 0,1 792.3225,531.523M791.7319,530.9927 A579.2266,579.2266 0 0,1 790.5529,529.9296M789.9645,529.3969 A579.2266,579.2266 0 0,1 788.7899,528.3289M788.2037,527.7938 A579.2266,579.2266 0 0,1 787.0334,526.7211M786.4494,526.1835 A579.2266,579.2266 0 0,1 785.2836,525.106M784.7019,524.566 A579.2266,579.2266 0 0,1 783.5405,523.4837M782.9609,522.9413 A579.2266,579.2266 0 0,1 781.804,521.8542M781.2267,521.3095 A579.2266,579.2266 0 0,1 780.0743,520.2177M779.4992,519.6706 A579.2266,579.2266 0 0,1 778.3513,518.574M777.7785,518.0246 A579.2266,579.2266 0 0,1 776.6351,516.9233M776.0645,516.3715 A579.2266,579.2266 0 0,1 774.9256,515.2655M774.3573,514.7114 A579.2266,579.2266 0 0,1 773.223,513.6008M772.657,513.0443 A579.2266,579.2266 0 0,1 771.5273,511.929M770.9636,511.3702 A579.2266,579.2266 0 0,1 769.8384,510.2503M769.277,509.6891 A579.2266,579.2266 0 0,1 768.1565,508.5646M767.5974,508.0012 A579.2266,579.2266 0 0,1 766.4815,506.8721M765.9247,506.3063 A579.2266,579.2266 0 0,1 764.8135,505.1726M764.259,504.6046 A579.2266,579.2266 0 0,1 763.1525,503.4664M762.6003,502.8961 A579.2266,579.2266 0 0,1 761.4985,501.7533M760.9487,501.1807 A579.2266,579.2266 0 0,1 759.8515,500.0334M759.3041,499.4586 A579.2266,579.2266 0 0,1 758.2117,498.3068M757.6666,497.7298 A579.2266,579.2266 0 0,1 756.5789,496.5734M756.0363,495.9942 A579.2266,579.2266 0 0,1 754.9533,494.8334M754.4131,494.2519 A579.2266,579.2266 0 0,1 753.3349,493.0867M752.797,492.503 A579.2266,579.2266 0 0,1 751.7237,491.3333M751.1882,490.7474 A579.2266,579.2266 0 0,1 750.1196,489.5734M749.5866,488.9852 A579.2266,579.2266 0 0,1 748.5229,487.8068M747.9922,487.2165 A579.2266,579.2266 0 0,1 746.9334,486.0337M746.4052,485.4412 A579.2266,579.2266 0 0,1 745.3512,484.2541M744.8254,483.6595 A579.2266,579.2266 0 0,1 743.7763,482.468M743.253,481.8712 A579.2266,579.2266 0 0,1 742.2088,480.6755M741.688,480.0765 A579.2266,579.2266 0 0,1 740.6487,478.8765M740.1303,478.2754 A579.2266,579.2266 0 0,1 739.096,477.0711M738.5801,476.4679 A579.2266,579.2266 0 0,1 737.5507,475.2593M737.0373,474.654 A579.2266,579.2266 0 0,1 736.0129,473.4412M735.5019,472.8338 A579.2266,579.2266 0 0,1 734.4826,471.6168M733.9741,471.0073 A579.2266,579.2266 0 0,1 732.9597,469.7862M732.4538,469.1745 A579.2266,579.2266 0 0,1 731.4445,467.9492M730.9411,467.3355 A579.2266,579.2266 0 0,1 729.9368,466.1061M729.4359,465.4903 A579.2266,579.2266 0 0,1 728.4366,464.2568M727.9383,463.639 A579.2266,579.2266 0 0,1 726.9441,462.4013M726.4483,461.7815 A579.2266,579.2266 0 0,1 725.4593,460.5397M724.966,459.9178 A579.2266,579.2266 0 0,1 723.9821,458.672M723.4914,458.0481 A579.2266,579.2266 0 0,1 722.5125,456.7983M722.0244,456.1724 A579.2266,579.2266 0 0,1 721.0508,454.9185M720.5652,454.2906 A579.2266,579.2266 0 0,1 719.5967,453.0328M719.1137,452.4029 A579.2266,579.2266 0 0,1 718.1504,451.1411M717.67,450.5092 A579.2266,579.2266 0 0,1 716.7119,449.2434M716.2341,448.6096 A579.2266,579.2266 0 0,1 715.2812,447.3399M714.8061,446.7041 A579.2266,579.2266 0 0,1 713.8584,445.4305M713.3858,444.7927 A579.2266,579.2266 0 0,1 712.4434,443.5152M711.9735,442.8755 A579.2266,579.2266 0 0,1 711.0363,441.5942M710.569,440.9526 A579.2266,579.2266 0 0,1 709.6371,439.6674M709.1725,439.0238 A579.2266,579.2266 0 0,1 708.2458,437.7348M707.7838,437.0894 A579.2266,579.2266 0 0,1 706.8625,435.7966M706.4032,435.1492 A579.2266,579.2266 0 0,1 705.4872,433.8527M705.0305,433.2034 A579.2266,579.2266 0 0,1 704.1199,431.9031M703.6659,431.252 A579.2266,579.2266 0 0,1 702.7606,429.9479M702.3093,429.295 A579.2266,579.2266 0 0,1 701.4093,427.9872M700.9607,427.3324 A579.2266,579.2266 0 0,1 700.0662,426.0209M699.6203,425.3643 A579.2266,579.2266 0 0,1 698.7311,424.0491M698.2879,423.3907 A579.2266,579.2266 0 0,1 697.4041,422.0719M696.9636,421.4116 A579.2266,579.2266 0 0,1 696.0853,420.0892M695.6475,419.4271 A579.2266,579.2266 0 0,1 694.7747,418.1011M694.3396,417.4372 A579.2266,579.2266 0 0,1 693.4722,416.1076M693.0399,415.442 A579.2266,579.2266 0 0,1 692.1779,414.1088M691.7483,413.4414 A579.2266,579.2266 0 0,1 690.8919,412.1047M690.465,411.4355 A579.2266,579.2266 0 0,1 689.6141,410.0954M689.19,409.4244 A579.2266,579.2266 0 0,1 688.3446,408.0807M687.9232,407.408 A579.2266,579.2266 0 0,1 687.0834,406.0609M686.6648,405.3865 A579.2266,579.2266 0 0,1 685.8304,404.0359M685.4147,403.3598 A579.2266,579.2266 0 0,1 684.5859,402.0058M684.1729,401.328 A579.2266,579.2266 0 0,1 683.3497,399.9706M682.9394,399.2911 A579.2266,579.2266 0 0,1 682.1218,397.9303M681.7144,397.2491 A579.2266,579.2266 0 0,1 680.9024,395.885M680.4978,395.2021 A579.2266,579.2266 0 0,1 679.6913,393.8347M679.2895,393.1502 A579.2266,579.2266 0 0,1 678.4888,391.7794M678.0898,391.0933 A579.2266,579.2266 0 0,1 677.2946,389.7192M676.8985,389.0314 A579.2266,579.2266 0 0,1 676.109,387.6542M675.7157,386.9647 A579.2266,579.2266 0 0,1 674.9318,385.5842M674.5414,384.8932 A579.2266,579.2266 0 0,1 673.7632,383.5094M673.3756,382.8168 A579.2266,579.2266 0 0,1 672.6031,381.4299M672.2183,380.7356 A579.2266,579.2266 0 0,1 671.4516,379.3456M671.0697,378.6498 A579.2266,579.2266 0 0,1 670.3087,377.2566M669.9296,376.5592 A579.2266,579.2266 0 0,1 669.1743,375.1629M668.7981,374.4639 A579.2266,579.2266 0 0,1 668.0486,373.0645M667.6752,372.364 A579.2266,579.2266 0 0,1 666.9315,370.9616M666.561,370.2595 A579.2266,579.2266 0 0,1 665.823,368.854M665.4555,368.1505 A579.2266,579.2266 0 0,1 664.7233,366.7419M664.3586,366.0369 A579.2266,579.2266 0 0,1 663.6322,364.6254M663.2704,363.9189 A579.2266,579.2266 0 0,1 662.5498,362.5043M662.191,361.7963 A579.2266,579.2266 0 0,1 661.4762,360.3789M661.1202,359.6694 A579.2266,579.2266 0 0,1 660.4113,358.249M660.0583,357.5381 A579.2266,579.2266 0 0,1 659.3552,356.1148M659.0051,355.4024 A579.2266,579.2266 0 0,1 658.3078,353.9762M657.9606,353.2624 A579.2266,579.2266 0 0,1 657.2693,351.8334M656.925,351.1181 A579.2266,579.2266 0 0,1 656.2395,349.6863M655.8983,348.9696 A579.2266,579.2266 0 0,1 655.2187,347.535M654.8803,346.8169 A579.2266,579.2266 0 0,1 654.2066,345.3795M653.8712,344.66 A579.2266,579.2266 0 0,1 653.2034,343.2198M652.871,342.499 A579.2266,579.2266 0 0,1 652.2092,341.0561M651.8797,340.3339 A579.2266,579.2266 0 0,1 651.2238,338.8883M650.8973,338.1648 A579.2266,579.2266 0 0,1 650.2473,336.7165M649.9238,335.9916 A579.2266,579.2266 0 0,1 649.2798,334.5406M648.9593,333.8145 A579.2266,579.2266 0 0,1 648.3213,332.3608M648.0037,331.6334 A579.2266,579.2266 0 0,1 647.3717,330.1771M647.0571,329.4483 A579.2266,579.2266 0 0,1 646.431,327.9895M646.1195,327.2595 A579.2266,579.2266 0 0,1 645.4994,325.7981M645.1909,325.0667 A579.2266,579.2266 0 0,1 644.5768,323.6028M644.2713,322.8702 A579.2266,579.2266 0 0,1 643.6633,321.4038M643.3608,320.6699 A579.2266,579.2266 0 0,1 642.7588,319.201M642.4593,318.4659 A579.2266,579.2266 0 0,1 641.8633,316.9945M641.5669,316.2582 A579.2266,579.2266 0 0,1 640.977,314.7844M640.6835,314.0469 A579.2266,579.2266 0 0,1 640.0997,312.5706M639.8093,311.8319 A579.2266,579.2266 0 0,1 639.2315,310.3533M638.9442,309.6134 A579.2266,579.2266 0 0,1 638.3725,308.1324M638.0882,307.3913 A579.2266,579.2266 0 0,1 637.5226,305.908M637.2413,305.1657 A579.2266,579.2266 0 0,1 636.6818,303.6801M636.4036,302.9367 A579.2266,579.2266 0 0,1 635.8502,301.4488M635.5751,300.7042 A579.2266,579.2266 0 0,1 635.0278,299.214M634.7557,298.4684 A579.2266,579.2266 0 0,1 634.2146,296.976M633.9456,296.2292 A579.2266,579.2266 0 0,1 633.4106,294.7346M633.1446,293.9867 A579.2266,579.2266 0 0,1 632.6158,292.4899M632.3529,291.7409 A579.2266,579.2266 0 0,1 631.8303,290.2419M631.5705,289.4919 A579.2266,579.2266 0 0,1 631.0539,287.9908M630.7972,287.2397 A579.2266,579.2266 0 0,1 630.2869,285.7364M630.0333,284.9843 A579.2266,579.2266 0 0,1 629.5291,283.479M629.2786,282.7258 A579.2266,579.2266 0 0,1 628.7807,281.2184M628.5332,280.4642 A579.2266,579.2266 0 0,1 628.0415,278.9548M627.7972,278.1996 A579.2266,579.2266 0 0,1 627.3116,276.6882M627.0704,275.932 A579.2266,579.2266 0 0,1 626.5911,274.4185M626.353,273.6614 A579.2266,579.2266 0 0,1 625.8799,272.146M625.6449,271.3878 A579.2266,579.2266 0 0,1 625.178,269.8705M624.9461,269.1114 A579.2266,579.2266 0 0,1 624.4855,267.5922M624.2568,266.8321 A579.2266,579.2266 0 0,1 623.8024,265.311M623.5768,264.55 A579.2266,579.2266 0 0,1 623.1286,263.0271M622.9061,262.2652 A579.2266,579.2266 0 0,1 622.4643,260.7404M622.2449,259.9776 A579.2266,579.2266 0 0,1 621.8093,258.451M621.5931,257.6872 A579.2266,579.2266 0 0,1 621.1638,256.1589M620.9507,255.3943 A579.2266,579.2266 0 0,1 620.5277,253.8642M620.3178,253.0987 A579.2266,579.2266 0 0,1 619.9011,251.5669M619.6943,250.8005 A579.2266,579.2266 0 0,1 619.2839,249.267M619.0802,248.4998 A579.2266,579.2266 0 0,1 618.6761,246.9646M618.4756,246.1966 A579.2266,579.2266 0 0,1 618.0778,244.6597M617.8805,243.8909 A579.2266,579.2266 0 0,1 617.489,242.3524M617.2949,241.5828 A579.2266,579.2266 0 0,1 616.9097,240.0427M616.7188,239.2723 A579.2266,579.2266 0 0,1 616.3399,237.7307M616.1521,236.9594 A579.2266,579.2266 0 0,1 615.7796,235.4163M615.595,234.6443 A579.2266,579.2266 0 0,1 615.2289,233.0996M615.0474,232.3269 A579.2266,579.2266 0 0,1 614.6876,230.7807M614.5093,230.0072 A579.2266,579.2266 0 0,1 614.1559,228.4595M613.9808,227.6853 A579.2266,579.2266 0 0,1 613.6338,226.1362M613.4618,225.3613 A579.2266,579.2266 0 0,1 613.1212,223.8108M612.9524,223.0352 A579.2266,579.2266 0 0,1 612.6181,221.4833M612.4526,220.707 A579.2266,579.2266 0 0,1 612.1246,219.1538M611.9623,218.3768 A579.2266,579.2266 0 0,1 611.6408,216.8222M611.4816,216.0446 A579.2266,579.2266 0 0,1 611.1665,214.4887M611.0105,213.7104 A579.2266,579.2266 0 0,1 610.7018,212.1532M610.549,211.3743 A579.2266,579.2266 0 0,1 610.2467,209.8158M610.0971,209.0363 A579.2266,579.2266 0 0,1 609.8012,207.4766M609.6548,206.6965 A579.2266,579.2266 0 0,1 609.3653,205.1356M609.2222,204.3549 A579.2266,579.2266 0 0,1 608.9391,202.7928M608.7991,202.0115 A579.2266,579.2266 0 0,1 608.5225,200.4483M608.3858,199.6664 A579.2266,579.2266 0 0,1 608.1155,198.1021M607.982,197.3196 A579.2266,579.2266 0 0,1 607.7182,195.7542M607.5879,194.9712 A579.2266,579.2266 0 0,1 607.3306,193.4047M607.2035,192.6212 A579.2266,579.2266 0 0,1 606.9526,191.0537M606.8287,190.2697 A579.2266,579.2266 0 0,1 606.5842,188.7011M606.4636,187.9166 A579.2266,579.2266 0 0,1 606.2256,186.347M606.1082,185.562 A579.2266,579.2266 0 0,1 605.8766,183.9915M605.7625,183.206 A579.2266,579.2266 0 0,1 605.5374,181.6345M605.4264,180.8486 A579.2266,579.2266 0 0,1 605.2078,179.2762M605.1001,178.4898 A579.2266,579.2266 0 0,1 604.8879,176.9165M604.7834,176.1297 A579.2266,579.2266 0 0,1 604.5777,174.5556M604.4765,173.7683 A579.2266,579.2266 0 0,1 604.2772,172.1933M604.1792,171.4057 A579.2266,579.2266 0 0,1 603.9864,169.8299M603.8917,169.0418 A579.2266,579.2266 0 0,1 603.7054,167.4653M603.6139,166.6769 A579.2266,579.2266 0 0,1 603.4341,165.0996M603.3458,164.3107 A579.2266,579.2266 0 0,1 603.1725,162.7327M603.0875,161.9436 A579.2266,579.2266 0 0,1 602.9206,160.3648M602.8388,159.5753 A579.2266,579.2266 0 0,1 602.6785,157.9959M602.6,157.2061 A579.2266,579.2266 0 0,1 602.4461,155.6261M602.3708,154.8359 A579.2266,579.2266 0 0,1 602.2235,153.2552M602.1514,152.4648 A579.2266,579.2266 0 0,1 602.0106,150.8835M601.9418,150.0928 A579.2266,579.2266 0 0,1 601.8075,148.511M601.7419,147.7199 A579.2266,579.2266 0 0,1 601.6141,146.1376M601.5518,145.3463 A579.2266,579.2266 0 0,1 601.4304,143.7634M601.3714,142.9719 A579.2266,579.2266 0 0,1 601.2566,141.3885M601.2008,140.5967 A579.2266,579.2266 0 0,1 601.0925,139.0129M601.04,138.2209 A579.2266,579.2266 0 0,1 600.9382,136.6367M600.8889,135.8445 A579.2266,579.2266 0 0,1 600.7936,134.2598M600.7476,133.4674 A579.2266,579.2266 0 0,1 600.6588,131.8824M600.6161,131.0898 A579.2266,579.2266 0 0,1 600.5338,129.5044M600.4943,128.7117 A579.2266,579.2266 0 0,1 600.4186,127.126M600.3823,126.3331 A579.2266,579.2266 0 0,1 600.3131,124.7471M600.2801,123.954 A579.2266,579.2266 0 0,1 600.2174,122.3677M600.1877,121.5745 A579.2266,579.2266 0 0,1 600.1315,119.988M600.1051,119.1947 A579.2266,579.2266 0 0,1 600.0554,117.608M600.0322,116.8146 A579.2266,579.2266 0 0,1 599.9891,115.2277M599.9692,114.4342 A579.2266,579.2266 0 0,1 599.9326,112.8471M599.9159,112.0535 A579.2266,579.2266 0 0,1 599.8858,110.4663M599.8724,109.6727 A579.2266,579.2266 0 0,1 599.8489,108.0854M599.8387,107.2917 A579.2266,579.2266 0 0,1 599.8217,105.7043M599.8148,104.9105 A579.2266,579.2266 0 0,1 599.8043,103.3231M599.8007,102.5293 A579.2266,579.2266 0 0,1 599.7967,100.9418M599.7964,100.1481 A579.2266,579.2266 0 0,1 599.7967,99.6397" style="stroke:#000000;stroke-width:0.1;"/>
            <!-- Polyline -->
            <path d="M1193.7173,10.0872 L1199.7984,10.0872 L1199.7984,90.0872 L1193.7173,90.0872 Z" style="stroke:#000000;stroke-width:0.1;"/>
            <!-- Polyline -->
            <path d="M5.8794,10.0872 L-0.2016,10.0872 L-0.2016,90.0872 L5.8794,90.0872 Z" style="stroke:#000000;stroke-width:0.1;"/>
        </g>
    </g>
</svg>

