<?xml version="1.0" encoding="UTF-8"?>
<!-- 2026-03-10 13:54:25 Generated by QCAD 3.32.6 SVG Exporter -->
<svg  width="1200mm" height="1259.4595mm" viewBox="-1.4466 -1262.1951 1200 1259.4595" version="1.1" xmlns="http://www.w3.org/2000/svg" style="stroke-linecap:round;stroke-linejoin:round;">
    <g transform="scale(1,-1)">
            <!-- Auto-generated fillable area -->
            <!-- Block Reference: A$C05FB4604 / entities: 6 -->
        <g>
            <!-- Arc -->
            <path d="M1145.8507,1262.1951 A1160.261,1160.261 0 0,1 1144.7319,1262.1625M1143.9385,1262.1387 A1160.261,1160.261 0 0,1 1142.3518,1262.0895M1141.5584,1262.0641 A1160.261,1160.261 0 0,1 1139.9718,1262.0117M1139.1785,1261.9847 A1160.261,1160.261 0 0,1 1137.592,1261.929M1136.7988,1261.9003 A1160.261,1160.261 0 0,1 1135.2124,1261.8414M1134.4192,1261.8111 A1160.261,1160.261 0 0,1 1132.8329,1261.7489M1132.0398,1261.717 A1160.261,1160.261 0 0,1 1130.4536,1261.6515M1129.6606,1261.618 A1160.261,1160.261 0 0,1 1128.0746,1261.5493M1127.2816,1261.5141 A1160.261,1160.261 0 0,1 1125.6957,1261.4422M1124.9029,1261.4054 A1160.261,1160.261 0 0,1 1123.3171,1261.3301M1122.5243,1261.2917 A1160.261,1160.261 0 0,1 1120.9388,1261.2132M1120.146,1261.1732 A1160.261,1160.261 0 0,1 1118.5606,1261.0915M1117.768,1261.0498 A1160.261,1160.261 0 0,1 1116.1827,1260.9648M1115.3902,1260.9215 A1160.261,1160.261 0 0,1 1113.8051,1260.8333M1113.0127,1260.7883 A1160.261,1160.261 0 0,1 1111.4278,1260.6969M1110.6354,1260.6503 A1160.261,1160.261 0 0,1 1109.0507,1260.5556M1108.2585,1260.5074 A1160.261,1160.261 0 0,1 1106.674,1260.4094M1105.8818,1260.3596 A1160.261,1160.261 0 0,1 1104.2975,1260.2583M1103.5054,1260.2069 A1160.261,1160.261 0 0,1 1101.9214,1260.1024M1101.1294,1260.0494 A1160.261,1160.261 0 0,1 1099.5456,1259.9416M1098.7537,1259.8869 A1160.261,1160.261 0 0,1 1097.1701,1259.7759M1096.3783,1259.7196 A1160.261,1160.261 0 0,1 1094.795,1259.6054M1094.0033,1259.5474 A1160.261,1160.261 0 0,1 1092.4202,1259.43M1091.6287,1259.3704 A1160.261,1160.261 0 0,1 1090.0458,1259.2497M1089.2544,1259.1885 A1160.261,1160.261 0 0,1 1087.6717,1259.0645M1086.8805,1259.0017 A1160.261,1160.261 0 0,1 1085.2981,1258.8744M1084.5069,1258.81 A1160.261,1160.261 0 0,1 1082.9248,1258.6795M1082.1338,1258.6135 A1160.261,1160.261 0 0,1 1080.552,1258.4797M1079.7611,1258.4121 A1160.261,1160.261 0 0,1 1078.1795,1258.2751M1077.3888,1258.2058 A1160.261,1160.261 0 0,1 1075.8075,1258.0655M1075.0169,1257.9946 A1160.261,1160.261 0 0,1 1073.4359,1257.8512M1072.6455,1257.7786 A1160.261,1160.261 0 0,1 1071.0648,1257.6319M1070.2745,1257.5577 A1160.261,1160.261 0 0,1 1068.6941,1257.4078M1067.904,1257.332 A1160.261,1160.261 0 0,1 1066.3239,1257.1788M1065.5339,1257.1014 A1160.261,1160.261 0 0,1 1063.9542,1256.9449M1063.1644,1256.8659 A1160.261,1160.261 0 0,1 1061.5849,1256.7062M1060.7953,1256.6255 A1160.261,1160.261 0 0,1 1059.2162,1256.4626M1058.4267,1256.3803 A1160.261,1160.261 0 0,1 1056.8479,1256.2142M1056.0586,1256.1303 A1160.261,1160.261 0 0,1 1054.4802,1255.9609M1053.691,1255.8754 A1160.261,1160.261 0 0,1 1052.1129,1255.7027M1051.324,1255.6156 A1160.261,1160.261 0 0,1 1049.7463,1255.4397M1048.9575,1255.3509 A1160.261,1160.261 0 0,1 1047.3801,1255.1718M1046.5915,1255.0815 A1160.261,1160.261 0 0,1 1045.0146,1254.8991M1044.2262,1254.8071 A1160.261,1160.261 0 0,1 1042.6495,1254.6215M1041.8613,1254.5279 A1160.261,1160.261 0 0,1 1040.2851,1254.3391M1039.4971,1254.2439 A1160.261,1160.261 0 0,1 1037.9212,1254.0518M1037.1334,1253.9549 A1160.261,1160.261 0 0,1 1035.558,1253.7596M1034.7704,1253.6612 A1160.261,1160.261 0 0,1 1033.1953,1253.4627M1032.4079,1253.3626 A1160.261,1160.261 0 0,1 1030.8333,1253.1608M1030.0461,1253.0591 A1160.261,1160.261 0 0,1 1028.4719,1252.8541M1027.6849,1252.7508 A1160.261,1160.261 0 0,1 1026.1111,1252.5426M1025.3243,1252.4377 A1160.261,1160.261 0 0,1 1023.7509,1252.2262M1022.9644,1252.1197 A1160.261,1160.261 0 0,1 1021.3915,1251.905M1020.6051,1251.7969 A1160.261,1160.261 0 0,1 1019.0326,1251.5789M1018.2465,1251.4692 A1160.261,1160.261 0 0,1 1016.6745,1251.248M1015.8886,1251.1367 A1160.261,1160.261 0 0,1 1014.317,1250.9123M1013.5314,1250.7993 A1160.261,1160.261 0 0,1 1011.9603,1250.5717M1011.1748,1250.4571 A1160.261,1160.261 0 0,1 1009.6042,1250.2263M1008.819,1250.1101 A1160.261,1160.261 0 0,1 1007.2488,1249.8761M1006.4639,1249.7582 A1160.261,1160.261 0 0,1 1004.8942,1249.521M1004.1095,1249.4015 A1160.261,1160.261 0 0,1 1002.5403,1249.1611M1001.7559,1249.04 A1160.261,1160.261 0 0,1 1000.1872,1248.7963M999.403,1248.6737 A1160.261,1160.261 0 0,1 997.8348,1248.4268M997.0508,1248.3025 A1160.261,1160.261 0 0,1 995.4831,1248.0524M994.6994,1247.9265 A1160.261,1160.261 0 0,1 993.1323,1247.6731M992.3488,1247.5456 A1160.261,1160.261 0 0,1 990.7822,1247.2891M989.999,1247.16 A1160.261,1160.261 0 0,1 988.4329,1246.9002M987.65,1246.7695 A1160.261,1160.261 0 0,1 986.0845,1246.5065M985.3018,1246.3742 A1160.261,1160.261 0 0,1 983.7368,1246.108M982.9544,1245.9741 A1160.261,1160.261 0 0,1 981.3899,1245.7047M980.6078,1245.5692 A1160.261,1160.261 0 0,1 979.0439,1245.2965M978.2621,1245.1594 A1160.261,1160.261 0 0,1 976.6988,1244.8836M975.9172,1244.7448 A1160.261,1160.261 0 0,1 974.3544,1244.4658M973.5732,1244.3255 A1160.261,1160.261 0 0,1 972.011,1244.0432M971.23,1243.9013 A1160.261,1160.261 0 0,1 969.6684,1243.6158M968.8877,1243.4723 A1160.261,1160.261 0 0,1 967.3267,1243.1836M966.5463,1243.0385 A1160.261,1160.261 0 0,1 964.9859,1242.7466M964.2058,1242.5999 A1160.261,1160.261 0 0,1 962.646,1242.3048M961.8662,1242.1565 A1160.261,1160.261 0 0,1 960.307,1241.8582M959.5275,1241.7083 A1160.261,1160.261 0 0,1 957.9689,1241.4068M957.1898,1241.2553 A1160.261,1160.261 0 0,1 955.6318,1240.9506M954.853,1240.7975 A1160.261,1160.261 0 0,1 953.2956,1240.4896M952.5171,1240.3349 A1160.261,1160.261 0 0,1 950.9603,1240.0238M950.1821,1239.8675 A1160.261,1160.261 0 0,1 948.6261,1239.5532M947.8482,1239.3953 A1160.261,1160.261 0 0,1 946.2927,1239.0779M945.5152,1238.9183 A1160.261,1160.261 0 0,1 943.9604,1238.5977M943.1832,1238.4366 A1160.261,1160.261 0 0,1 941.6291,1238.1128M940.8522,1237.95 A1160.261,1160.261 0 0,1 939.2987,1237.623M938.5221,1237.4587 A1160.261,1160.261 0 0,1 936.9694,1237.1285M936.1932,1236.9626 A1160.261,1160.261 0 0,1 934.6411,1236.6292M933.8652,1236.4617 A1160.261,1160.261 0 0,1 932.3138,1236.1251M931.5382,1235.9561 A1160.261,1160.261 0 0,1 929.9875,1235.6163M929.2123,1235.4456 A1160.261,1160.261 0 0,1 927.6623,1235.1027M926.8875,1234.9304 A1160.261,1160.261 0 0,1 925.3382,1234.5843M924.5637,1234.4104 A1160.261,1160.261 0 0,1 923.0151,1234.0611M922.241,1233.8857 A1160.261,1160.261 0 0,1 920.6931,1233.5332M919.9194,1233.3562 A1160.261,1160.261 0 0,1 918.3722,1233.0005M917.5988,1232.8219 A1160.261,1160.261 0 0,1 916.0524,1232.4631M915.2794,1232.2829 A1160.261,1160.261 0 0,1 913.7337,1231.9209M912.9611,1231.7391 A1160.261,1160.261 0 0,1 911.4161,1231.3739M910.6439,1231.1905 A1160.261,1160.261 0 0,1 909.0997,1230.8222M908.3278,1230.6372 A1160.261,1160.261 0 0,1 906.7844,1230.2657M906.0129,1230.0791 A1160.261,1160.261 0 0,1 904.4702,1229.7045M903.6991,1229.5163 A1160.261,1160.261 0 0,1 902.1572,1229.1385M901.3864,1228.9488 A1160.261,1160.261 0 0,1 899.8453,1228.5678M899.075,1228.3765 A1160.261,1160.261 0 0,1 897.5347,1227.9923M896.7647,1227.7994 A1160.261,1160.261 0 0,1 895.2252,1227.4121M894.4556,1227.2176 A1160.261,1160.261 0 0,1 892.9169,1226.8272M892.1477,1226.6311 A1160.261,1160.261 0 0,1 890.6098,1226.2375M889.8411,1226.0399 A1160.261,1160.261 0 0,1 888.304,1225.6431M887.5356,1225.4439 A1160.261,1160.261 0 0,1 885.9993,1225.0439M885.2314,1224.8431 A1160.261,1160.261 0 0,1 883.6959,1224.44M882.9284,1224.2377 A1160.261,1160.261 0 0,1 881.3937,1223.8314M880.6266,1223.6275 A1160.261,1160.261 0 0,1 879.0928,1223.2181M878.3261,1223.0126 A1160.261,1160.261 0 0,1 876.7932,1222.6001M876.0269,1222.393 A1160.261,1160.261 0 0,1 874.4948,1221.9773M873.729,1221.7687 A1160.261,1160.261 0 0,1 872.1977,1221.3498M871.4323,1221.1396 A1160.261,1160.261 0 0,1 869.9019,1220.7176M869.137,1220.5059 A1160.261,1160.261 0 0,1 867.6074,1220.0807M866.8429,1219.8674 A1160.261,1160.261 0 0,1 865.3143,1219.4391M864.5502,1219.2242 A1160.261,1160.261 0 0,1 863.0224,1218.7928M862.2587,1218.5763 A1160.261,1160.261 0 0,1 860.7319,1218.1418M859.9687,1217.9237 A1160.261,1160.261 0 0,1 858.4427,1217.4861M857.6799,1217.2664 A1160.261,1160.261 0 0,1 856.1548,1216.8257M855.3925,1216.6045 A1160.261,1160.261 0 0,1 853.8684,1216.1605M853.1065,1215.9378 A1160.261,1160.261 0 0,1 851.5833,1215.4907M850.8219,1215.2664 A1160.261,1160.261 0 0,1 849.2995,1214.8163M848.5386,1214.5904 A1160.261,1160.261 0 0,1 847.0172,1214.1371M846.2567,1213.9097 A1160.261,1160.261 0 0,1 844.7362,1213.4532M843.9762,1213.2242 A1160.261,1160.261 0 0,1 842.4567,1212.7647M841.6972,1212.5341 A1160.261,1160.261 0 0,1 840.1786,1212.0715M839.4195,1211.8394 A1160.261,1160.261 0 0,1 837.9019,1211.3736M837.1433,1211.1399 A1160.261,1160.261 0 0,1 835.6267,1210.671M834.8686,1210.4358 A1160.261,1160.261 0 0,1 833.3529,1209.9638M832.5952,1209.727 A1160.261,1160.261 0 0,1 831.0805,1209.2519M830.3234,1209.0136 A1160.261,1160.261 0 0,1 828.8096,1208.5354M828.053,1208.2955 A1160.261,1160.261 0 0,1 826.5402,1207.8141M825.7841,1207.5727 A1160.261,1160.261 0 0,1 824.2723,1207.0883M823.5167,1206.8453 A1160.261,1160.261 0 0,1 822.0059,1206.3578M821.2507,1206.1132 A1160.261,1160.261 0 0,1 819.741,1205.6226M818.9863,1205.3765 A1160.261,1160.261 0 0,1 817.4775,1204.8828M816.7234,1204.6351 A1160.261,1160.261 0 0,1 815.2157,1204.1383M814.462,1203.8891 A1160.261,1160.261 0 0,1 812.9553,1203.3892M812.2022,1203.1385 A1160.261,1160.261 0 0,1 810.6965,1202.6355M809.9439,1202.3832 A1160.261,1160.261 0 0,1 808.4392,1201.8771M807.6872,1201.6233 A1160.261,1160.261 0 0,1 806.1835,1201.1141M805.432,1200.8587 A1160.261,1160.261 0 0,1 803.9294,1200.3465M803.1784,1200.0895 A1160.261,1160.261 0 0,1 801.6769,1199.5742M800.9264,1199.3157 A1160.261,1160.261 0 0,1 799.4259,1198.7973M798.6759,1198.5373 A1160.261,1160.261 0 0,1 797.1766,1198.0158M796.4271,1197.7543 A1160.261,1160.261 0 0,1 794.9288,1197.2297M794.1799,1196.9666 A1160.261,1160.261 0 0,1 792.6827,1196.439M791.9343,1196.1744 A1160.261,1160.261 0 0,1 790.4382,1195.6437M789.6904,1195.3775 A1160.261,1160.261 0 0,1 788.1953,1194.8437M787.448,1194.576 A1160.261,1160.261 0 0,1 785.9541,1194.0392M785.2074,1193.77 A1160.261,1160.261 0 0,1 783.7145,1193.23M782.9684,1192.9593 A1160.261,1160.261 0 0,1 781.4766,1192.4163M780.731,1192.144 A1160.261,1160.261 0 0,1 779.2404,1191.598M778.4954,1191.3242 A1160.261,1160.261 0 0,1 777.0059,1190.7751M776.2614,1190.4998 A1160.261,1160.261 0 0,1 774.773,1189.9476M774.0291,1189.6707 A1160.261,1160.261 0 0,1 772.5419,1189.1155M771.7985,1188.8371 A1160.261,1160.261 0 0,1 770.3124,1188.2789M769.5697,1187.999 A1160.261,1160.261 0 0,1 768.0847,1187.4376M767.3425,1187.1562 A1160.261,1160.261 0 0,1 765.8587,1186.5918M765.1171,1186.3089 A1160.261,1160.261 0 0,1 763.6345,1185.7415M762.8935,1185.457 A1160.261,1160.261 0 0,1 761.412,1184.8865M760.6716,1184.6006 A1160.261,1160.261 0 0,1 759.1913,1184.0271M758.4514,1183.7396 A1160.261,1160.261 0 0,1 756.9723,1183.163M756.2331,1182.874 A1160.261,1160.261 0 0,1 754.7552,1182.2944M754.0165,1182.0039 A1160.261,1160.261 0 0,1 752.5398,1181.4213M751.8017,1181.1292 A1160.261,1160.261 0 0,1 750.3262,1180.5436M749.5887,1180.25 A1160.261,1160.261 0 0,1 748.1144,1179.6614M747.3775,1179.3663 A1160.261,1160.261 0 0,1 745.9044,1178.7746M745.1681,1178.478 A1160.261,1160.261 0 0,1 743.6962,1177.8833M742.9606,1177.5852 A1160.261,1160.261 0 0,1 741.4899,1176.9875M740.7549,1176.6879 A1160.261,1160.261 0 0,1 739.2854,1176.0871M738.551,1175.786 A1160.261,1160.261 0 0,1 737.0828,1175.1822M736.349,1174.8796 A1160.261,1160.261 0 0,1 734.8821,1174.2728M734.1489,1173.9687 A1160.261,1160.261 0 0,1 732.6832,1173.3589M731.9506,1173.0533 A1160.261,1160.261 0 0,1 730.4862,1172.4405M729.7542,1172.1334 A1160.261,1160.261 0 0,1 728.291,1171.5176M727.5598,1171.2089 A1160.261,1160.261 0 0,1 726.0978,1170.5902M725.3672,1170.28 A1160.261,1160.261 0 0,1 723.9065,1169.6582M723.1765,1169.3466 A1160.261,1160.261 0 0,1 721.7171,1168.7218M720.9877,1168.4087 A1160.261,1160.261 0 0,1 719.5296,1167.7809M718.8009,1167.4662 A1160.261,1160.261 0 0,1 717.3441,1166.8355M716.616,1166.5193 A1160.261,1160.261 0 0,1 715.1605,1165.8856M714.4331,1165.568 A1160.261,1160.261 0 0,1 712.9789,1164.9312M712.2521,1164.6121 A1160.261,1160.261 0 0,1 710.7992,1163.9724M710.0731,1163.6518 A1160.261,1160.261 0 0,1 708.6215,1163.009M707.8961,1162.6869 A1160.261,1160.261 0 0,1 706.4458,1162.0413M705.721,1161.7177 A1160.261,1160.261 0 0,1 704.2721,1161.069M703.5479,1160.7439 A1160.261,1160.261 0 0,1 702.1003,1160.0923M701.3769,1159.7658 A1160.261,1160.261 0 0,1 699.9306,1159.1112M699.2078,1158.7831 A1160.261,1160.261 0 0,1 697.7629,1158.1255M697.0408,1157.796 A1160.261,1160.261 0 0,1 695.5973,1157.1355M694.8758,1156.8045 A1160.261,1160.261 0 0,1 693.4336,1156.141M692.7129,1155.8085 A1160.261,1160.261 0 0,1 691.272,1155.142M690.552,1154.8081 A1160.261,1160.261 0 0,1 689.1125,1154.1387M688.3931,1153.8032 A1160.261,1160.261 0 0,1 686.955,1153.1309M686.2363,1152.7939 A1160.261,1160.261 0 0,1 684.7996,1152.1186M684.0816,1151.7802 A1160.261,1160.261 0 0,1 682.6463,1151.102M681.929,1150.7621 A1160.261,1160.261 0 0,1 680.4951,1150.0809M679.7785,1149.7396 A1160.261,1160.261 0 0,1 678.346,1149.0554M677.6301,1148.7126 A1160.261,1160.261 0 0,1 676.1989,1148.0255M675.4837,1147.6813 A1160.261,1160.261 0 0,1 674.0541,1146.9913M673.3396,1146.6455 A1160.261,1160.261 0 0,1 671.9113,1145.9526M671.1975,1145.6053 A1160.261,1160.261 0 0,1 669.7706,1144.9095M669.0576,1144.5608 A1160.261,1160.261 0 0,1 667.6322,1143.862M666.9198,1143.5119 A1160.261,1160.261 0 0,1 665.4958,1142.8101M664.7842,1142.4585 A1160.261,1160.261 0 0,1 663.3617,1141.7539M662.6507,1141.4008 A1160.261,1160.261 0 0,1 661.2297,1140.6932M660.5195,1140.3387 A1160.261,1160.261 0 0,1 659.0998,1139.6282M658.3904,1139.2723 A1160.261,1160.261 0 0,1 656.9722,1138.5589M656.2635,1138.2014 A1160.261,1160.261 0 0,1 654.8468,1137.4851M654.1388,1137.1263 A1160.261,1160.261 0 0,1 652.7236,1136.407M652.0163,1136.0467 A1160.261,1160.261 0 0,1 650.6026,1135.3246M649.896,1134.9628 A1160.261,1160.261 0 0,1 648.4838,1134.2378M647.778,1133.8746 A1160.261,1160.261 0 0,1 646.3672,1133.1467M645.6622,1132.782 A1160.261,1160.261 0 0,1 644.2529,1132.0512M643.5487,1131.685 A1160.261,1160.261 0 0,1 642.1409,1130.9513M641.4374,1130.5838 A1160.261,1160.261 0 0,1 640.0311,1129.8472M639.3284,1129.4782 A1160.261,1160.261 0 0,1 637.9236,1128.7387M637.2216,1128.3682 A1160.261,1160.261 0 0,1 635.8184,1127.6259M635.1171,1127.254 A1160.261,1160.261 0 0,1 633.7154,1126.5088M633.0149,1126.1354 A1160.261,1160.261 0 0,1 631.6148,1125.3873M630.9151,1125.0126 A1160.261,1160.261 0 0,1 629.5164,1124.2616M628.8175,1123.8854 A1160.261,1160.261 0 0,1 627.4204,1123.1315M626.7222,1122.7539 A1160.261,1160.261 0 0,1 625.3267,1121.9972M624.6293,1121.6181 A1160.261,1160.261 0 0,1 623.2353,1120.8585M622.5387,1120.478 A1160.261,1160.261 0 0,1 621.1463,1119.7156M620.4505,1119.3337 A1160.261,1160.261 0 0,1 619.0596,1118.5684M618.3646,1118.185 A1160.261,1160.261 0 0,1 616.9753,1117.4169M616.281,1117.0321 A1160.261,1160.261 0 0,1 614.8933,1116.2611M614.1999,1115.8749 A1160.261,1160.261 0 0,1 612.8138,1115.1011M612.1211,1114.7134 A1160.261,1160.261 0 0,1 610.7366,1113.9367M610.0447,1113.5477 A1160.261,1160.261 0 0,1 608.6618,1112.7682M607.9707,1112.3777 A1160.261,1160.261 0 0,1 606.5894,1111.5953M605.8991,1111.2035 A1160.261,1160.261 0 0,1 604.5194,1110.4183M603.8299,1110.025 A1160.261,1160.261 0 0,1 602.4518,1109.2369M601.7632,1108.8422 A1160.261,1160.261 0 0,1 600.3867,1108.0514M599.6989,1107.6552 A1160.261,1160.261 0 0,1 598.324,1106.8616M597.637,1106.464 A1160.261,1160.261 0 0,1 596.2637,1105.6675M595.5775,1105.2686 A1160.261,1160.261 0 0,1 594.2059,1104.4693M593.5206,1104.0689 A1160.261,1160.261 0 0,1 592.1506,1103.2668M591.4661,1102.865 A1160.261,1160.261 0 0,1 590.0978,1102.0601M589.414,1101.6569 A1160.261,1160.261 0 0,1 588.0474,1100.8492M587.3645,1100.4446 A1160.261,1160.261 0 0,1 585.9995,1099.6341M585.3174,1099.2281 A1160.261,1160.261 0 0,1 583.9541,1098.4148M583.2729,1098.0074 A1160.261,1160.261 0 0,1 581.9112,1097.1913M581.2308,1096.7825 A1160.261,1160.261 0 0,1 579.8708,1095.9636M579.1913,1095.5534 A1160.261,1160.261 0 0,1 577.833,1094.7317M577.1543,1094.3201 A1160.261,1160.261 0 0,1 575.7977,1093.4956M575.1198,1093.0827 A1160.261,1160.261 0 0,1 573.7649,1092.2554M573.0879,1091.841 A1160.261,1160.261 0 0,1 571.7347,1091.011M571.0585,1090.5953 A1160.261,1160.261 0 0,1 569.707,1089.7624M569.0317,1089.3453 A1160.261,1160.261 0 0,1 567.6819,1088.5097M567.0075,1088.0912 A1160.261,1160.261 0 0,1 565.6594,1087.2528M564.9858,1086.8329 A1160.261,1160.261 0 0,1 563.6395,1085.9918M562.9667,1085.5705 A1160.261,1160.261 0 0,1 561.6221,1084.7266M560.9502,1084.304 A1160.261,1160.261 0 0,1 559.6074,1083.4573M558.9364,1083.0333 A1160.261,1160.261 0 0,1 557.5952,1082.1838M556.9251,1081.7584 A1160.261,1160.261 0 0,1 555.5857,1080.9063M554.9165,1080.4795 A1160.261,1160.261 0 0,1 553.5788,1079.6246M552.9104,1079.1964 A1160.261,1160.261 0 0,1 551.5746,1078.3388M550.9071,1077.9093 A1160.261,1160.261 0 0,1 549.5729,1077.0489M548.9063,1076.618 A1160.261,1160.261 0 0,1 547.574,1075.7548M546.9083,1075.3226 A1160.261,1160.261 0 0,1 545.5777,1074.4567M544.9128,1074.0231 A1160.261,1160.261 0 0,1 543.584,1073.1545M542.9201,1072.7195 A1160.261,1160.261 0 0,1 541.5931,1071.8482M540.93,1071.4118 A1160.261,1160.261 0 0,1 539.6048,1070.5378M538.9427,1070.1001 A1160.261,1160.261 0 0,1 537.6192,1069.2233M536.958,1068.7843 A1160.261,1160.261 0 0,1 535.6364,1067.9048M534.976,1067.4644 A1160.261,1160.261 0 0,1 533.6562,1066.5822M532.9967,1066.1404 A1160.261,1160.261 0 0,1 531.6787,1065.2555M531.0202,1064.8124 A1160.261,1160.261 0 0,1 529.704,1063.9248M529.0464,1063.4803 A1160.261,1160.261 0 0,1 527.732,1062.59M527.0753,1062.1442 A1160.261,1160.261 0 0,1 525.7628,1061.2512M525.107,1060.804 A1160.261,1160.261 0 0,1 523.7963,1059.9083M523.1414,1059.4598 A1160.261,1160.261 0 0,1 521.8326,1058.5614M521.1786,1058.1116 A1160.261,1160.261 0 0,1 519.8716,1057.2105M519.2186,1056.7593 A1160.261,1160.261 0 0,1 517.9134,1055.8556M517.2613,1055.4031 A1160.261,1160.261 0 0,1 515.958,1054.4966M515.3068,1054.0428 A1160.261,1160.261 0 0,1 514.0054,1053.1337M513.3552,1052.6785 A1160.261,1160.261 0 0,1 512.0556,1051.7667M511.4063,1051.3102 A1160.261,1160.261 0 0,1 510.1086,1050.3957M509.4602,1049.9379 A1160.261,1160.261 0 0,1 508.1644,1049.0208M507.517,1048.5616 A1160.261,1160.261 0 0,1 506.2231,1047.6418M505.5766,1047.1813 A1160.261,1160.261 0 0,1 504.2846,1046.2589M503.639,1045.797 A1160.261,1160.261 0 0,1 502.3489,1044.872M501.7043,1044.4088 A1160.261,1160.261 0 0,1 500.4161,1043.4811M499.7724,1043.0166 A1160.261,1160.261 0 0,1 498.4861,1042.0863M497.8434,1041.6204 A1160.261,1160.261 0 0,1 496.559,1040.6875M495.9173,1040.2203 A1160.261,1160.261 0 0,1 494.6348,1039.2847M493.994,1038.8163 A1160.261,1160.261 0 0,1 492.7134,1037.878M492.0736,1037.4083 A1160.261,1160.261 0 0,1 490.795,1036.4674M490.1561,1035.9963 A1160.261,1160.261 0 0,1 488.8794,1035.0528M488.2416,1034.5804 A1160.261,1160.261 0 0,1 486.9668,1033.6343M486.3299,1033.1606 A1160.261,1160.261 0 0,1 485.0571,1032.2119M484.4211,1031.7369 A1160.261,1160.261 0 0,1 483.1503,1030.7856M482.5153,1030.3092 A1160.261,1160.261 0 0,1 481.2464,1029.3553M480.6124,1028.8777 A1160.261,1160.261 0 0,1 479.3454,1027.9212M478.7124,1027.4422 A1160.261,1160.261 0 0,1 477.4475,1026.4831M476.8154,1026.0029 A1160.261,1160.261 0 0,1 475.5524,1025.0412M474.9214,1024.5597 A1160.261,1160.261 0 0,1 473.6603,1023.5953M473.0303,1023.1125 A1160.261,1160.261 0 0,1 471.7713,1022.1456M471.1422,1021.6615 A1160.261,1160.261 0 0,1 469.8851,1020.692M469.2571,1020.2067 A1160.261,1160.261 0 0,1 468.002,1019.2346M467.375,1018.7479 A1160.261,1160.261 0 0,1 466.1219,1017.7733M465.4958,1017.2853 A1160.261,1160.261 0 0,1 464.2447,1016.3081M463.6197,1015.8189 A1160.261,1160.261 0 0,1 462.3706,1014.8391M461.7466,1014.3486 A1160.261,1160.261 0 0,1 460.4995,1013.3662M459.8765,1012.8744 A1160.261,1160.261 0 0,1 458.6314,1011.8895M458.0094,1011.3964 A1160.261,1160.261 0 0,1 456.7664,1010.409M456.1454,1009.9146 A1160.261,1160.261 0 0,1 454.9044,1008.9247M454.2844,1008.429 A1160.261,1160.261 0 0,1 453.0454,1007.4365M452.4265,1006.9396 A1160.261,1160.261 0 0,1 451.1895,1005.9445M450.5716,1005.4463 A1160.261,1160.261 0 0,1 449.3367,1004.4487M448.7198,1003.9493 A1160.261,1160.261 0 0,1 447.487,1002.9491M446.8711,1002.4484 A1160.261,1160.261 0 0,1 445.6403,1001.4457M445.0254,1000.9438 A1160.261,1160.261 0 0,1 443.7967,999.9386M443.1829,999.4353 A1160.261,1160.261 0 0,1 441.9562,998.4276M441.3434,997.9231 A1160.261,1160.261 0 0,1 440.1189,996.9129M439.5071,996.4071 A1160.261,1160.261 0 0,1 438.2846,995.3944M437.6739,994.8874 A1160.261,1160.261 0 0,1 436.4534,993.8721M435.8438,993.3639 A1160.261,1160.261 0 0,1 434.6254,992.3461M434.0168,991.8366 A1160.261,1160.261 0 0,1 432.8005,990.8164M432.1929,990.3056 A1160.261,1160.261 0 0,1 430.9788,989.2829M430.3723,988.7709 A1160.261,1160.261 0 0,1 429.1602,987.7456M428.5547,987.2324 A1160.261,1160.261 0 0,1 427.3448,986.2047M426.7403,985.6902 A1160.261,1160.261 0 0,1 425.5325,984.66M424.9291,984.1443 A1160.261,1160.261 0 0,1 423.7234,983.1116M423.1211,982.5946 A1160.261,1160.261 0 0,1 421.9175,981.5595M421.3163,981.0413 A1160.261,1160.261 0 0,1 420.1148,980.0037M419.5146,979.4842 A1160.261,1160.261 0 0,1 418.3153,978.4442M417.7162,977.9235 A1160.261,1160.261 0 0,1 416.519,976.881M415.9209,976.3591 A1160.261,1160.261 0 0,1 414.7259,975.3141M414.1289,974.791 A1160.261,1160.261 0 0,1 412.936,973.7435M412.3401,973.2192 A1160.261,1160.261 0 0,1 411.1493,972.1693M410.5545,971.6437 A1160.261,1160.261 0 0,1 409.3659,970.5914M408.7722,970.0646 A1160.261,1160.261 0 0,1 407.5857,969.0098M406.9931,968.4818 A1160.261,1160.261 0 0,1 405.8088,967.4246M405.2172,966.8954 A1160.261,1160.261 0 0,1 404.0351,965.8358M403.4446,965.3054 A1160.261,1160.261 0 0,1 402.2647,964.2433M401.6753,963.7117 A1160.261,1160.261 0 0,1 400.4976,962.6472M399.9093,962.1143 A1160.261,1160.261 0 0,1 398.7337,961.0475M398.1465,960.5134 A1160.261,1160.261 0 0,1 396.9731,959.4441M396.387,958.9088 A1160.261,1160.261 0 0,1 395.2159,957.8371M394.6308,957.3007 A1160.261,1160.261 0 0,1 393.4619,956.2266M392.878,955.6889 A1160.261,1160.261 0 0,1 391.7112,954.6124M391.1284,954.0736 A1160.261,1160.261 0 0,1 389.9639,952.9947M389.3822,952.4546 A1160.261,1160.261 0 0,1 388.2199,951.3733M387.6393,950.8321 A1160.261,1160.261 0 0,1 386.4792,949.7484M385.8997,949.206 A1160.261,1160.261 0 0,1 384.7418,948.1199M384.1634,947.5763 A1160.261,1160.261 0 0,1 383.0078,946.4879M382.4305,945.9431 A1160.261,1160.261 0 0,1 381.2771,944.8523M380.701,944.3063 A1160.261,1160.261 0 0,1 379.5498,943.2132M378.9748,942.666 A1160.261,1160.261 0 0,1 377.8259,941.5705M377.252,941.0221 A1160.261,1160.261 0 0,1 376.1054,939.9242M375.5326,939.3747 A1160.261,1160.261 0 0,1 374.3882,938.2745M373.8165,937.7238 A1160.261,1160.261 0 0,1 372.6744,936.6212M372.1039,936.0694 A1160.261,1160.261 0 0,1 370.964,934.9644M370.3946,934.4114 A1160.261,1160.261 0 0,1 369.257,933.3042M368.6888,932.7499 A1160.261,1160.261 0 0,1 367.5535,931.6404M366.9864,931.085 A1160.261,1160.261 0 0,1 365.8533,929.9731M365.2874,929.4165 A1160.261,1160.261 0 0,1 364.1566,928.3023M363.5918,927.7446 A1160.261,1160.261 0 0,1 362.4633,926.6281M361.8996,926.0692 A1160.261,1160.261 0 0,1 360.7734,924.9503M360.2109,924.3903 A1160.261,1160.261 0 0,1 359.087,923.2692M358.5257,922.708 A1160.261,1160.261 0 0,1 357.4041,921.5845M356.8439,921.0222 A1160.261,1160.261 0 0,1 355.7246,919.8964M355.1655,919.333 A1160.261,1160.261 0 0,1 354.0486,918.2049M353.4907,917.6403 A1160.261,1160.261 0 0,1 352.376,916.5099M351.8193,915.9442 A1160.261,1160.261 0 0,1 350.7069,914.8115M350.1514,914.2446 A1160.261,1160.261 0 0,1 349.0414,913.1097M348.487,912.5417 A1160.261,1160.261 0 0,1 347.3793,911.4045M346.826,910.8353 A1160.261,1160.261 0 0,1 345.7207,909.6958M345.1686,909.1255 A1160.261,1160.261 0 0,1 344.0656,907.9838M343.5147,907.4123 A1160.261,1160.261 0 0,1 342.4141,906.2683M341.8644,905.6958 A1160.261,1160.261 0 0,1 340.7661,904.5495M340.2175,903.9758 A1160.261,1160.261 0 0,1 339.1216,902.8273M338.5742,902.2525 A1160.261,1160.261 0 0,1 337.4806,901.1017M336.9344,900.5258 A1160.261,1160.261 0 0,1 335.8432,899.3728M335.2982,898.7957 A1160.261,1160.261 0 0,1 334.2093,897.6405M333.6655,897.0623 A1160.261,1160.261 0 0,1 332.579,895.9049M332.0364,895.3256 A1160.261,1160.261 0 0,1 330.9523,894.1659M330.4108,893.5855 A1160.261,1160.261 0 0,1 329.3291,892.4235M328.7889,891.842 A1160.261,1160.261 0 0,1 327.7095,890.6779M327.1705,890.0953 A1160.261,1160.261 0 0,1 326.0935,888.9289M325.5557,888.3452 A1160.261,1160.261 0 0,1 324.4811,887.1766M323.9445,886.5918 A1160.261,1160.261 0 0,1 322.8723,885.4211M322.3369,884.8351 A1160.261,1160.261 0 0,1 321.2671,883.6622M320.7329,883.0751 A1160.261,1160.261 0 0,1 319.6655,881.9M319.1325,881.3119 A1160.261,1160.261 0 0,1 318.0676,880.1345M317.5357,879.5453 A1160.261,1160.261 0 0,1 316.4732,878.3658M315.9426,877.7755 A1160.261,1160.261 0 0,1 314.8825,876.5938M314.3531,876.0024 A1160.261,1160.261 0 0,1 313.2955,874.8185M312.7673,874.226 A1160.261,1160.261 0 0,1 311.712,873.04M311.185,872.4464 A1160.261,1160.261 0 0,1 310.1323,871.2582M309.6065,870.6636 A1160.261,1160.261 0 0,1 308.5562,869.4732M308.0316,868.8775 A1160.261,1160.261 0 0,1 306.9837,867.685M306.4604,867.0882 A1160.261,1160.261 0 0,1 305.415,865.8935M304.8929,865.2957 A1160.261,1160.261 0 0,1 303.8499,864.0989M303.329,863.4999 A1160.261,1160.261 0 0,1 302.2885,862.301M301.7688,861.701 A1160.261,1160.261 0 0,1 300.7308,860.4999M300.2124,859.8988 A1160.261,1160.261 0 0,1 299.1768,858.6956M298.6596,858.0935 A1160.261,1160.261 0 0,1 297.6265,856.8882M297.1105,856.285 A1160.261,1160.261 0 0,1 296.0799,855.0775M295.5652,854.4733 A1160.261,1160.261 0 0,1 294.537,853.2637M294.0235,852.6584 A1160.261,1160.261 0 0,1 292.9979,851.4467M292.4856,850.8404 A1160.261,1160.261 0 0,1 291.4625,849.6266M290.9515,849.0192 A1160.261,1160.261 0 0,1 289.9308,847.8033M289.4211,847.1949 A1160.261,1160.261 0 0,1 288.4029,845.9769M287.8944,845.3674 A1160.261,1160.261 0 0,1 286.8787,844.1474M286.3715,843.5368 A1160.261,1160.261 0 0,1 285.3583,842.3147M284.8523,841.7031 A1160.261,1160.261 0 0,1 283.8416,840.4789M283.3369,839.8663 A1160.261,1160.261 0 0,1 282.3287,838.64M281.8253,838.0264 A1160.261,1160.261 0 0,1 280.8196,836.798M280.3174,836.1833 A1160.261,1160.261 0 0,1 279.3143,834.9529M278.8134,834.3372 A1160.261,1160.261 0 0,1 277.8128,833.1048M277.3131,832.488 A1160.261,1160.261 0 0,1 276.315,831.2535M275.8166,830.6357 A1160.261,1160.261 0 0,1 274.8211,829.3992M274.324,828.7804 A1160.261,1160.261 0 0,1 273.331,827.5418M272.8351,826.922 A1160.261,1160.261 0 0,1 271.8447,825.6814M271.3501,825.0605 A1160.261,1160.261 0 0,1 270.3622,823.8179M269.8689,823.196 A1160.261,1160.261 0 0,1 268.8835,821.9513M268.3915,821.3285 A1160.261,1160.261 0 0,1 267.4087,820.0818M266.9179,819.4579 A1160.261,1160.261 0 0,1 265.9377,818.2092M265.4482,817.5843 A1160.261,1160.261 0 0,1 264.4706,816.3336M263.9824,815.7077 A1160.261,1160.261 0 0,1 263.0073,814.455M262.5204,813.8281 A1160.261,1160.261 0 0,1 261.5479,812.5734M261.0622,811.9455 A1160.261,1160.261 0 0,1 260.0923,810.6888M259.608,810.06 A1160.261,1160.261 0 0,1 258.6406,808.8012M258.1576,808.1714 A1160.261,1160.261 0 0,1 257.1928,806.9107M256.7111,806.2799 A1160.261,1160.261 0 0,1 255.7489,805.0172M255.2684,804.3853 A1160.261,1160.261 0 0,1 254.3088,803.1207M253.8297,802.4879 A1160.261,1160.261 0 0,1 252.8727,801.2213M252.3948,800.5875 A1160.261,1160.261 0 0,1 251.4404,799.3189M250.9639,798.6841 A1160.261,1160.261 0 0,1 250.0121,797.4136M249.5368,796.7778 A1160.261,1160.261 0 0,1 248.5877,795.5054M248.1137,794.8686 A1160.261,1160.261 0 0,1 247.1672,793.5942M246.6945,792.9565 A1160.261,1160.261 0 0,1 245.7506,791.6801M245.2793,791.0415 A1160.261,1160.261 0 0,1 244.3379,789.7632M243.8679,789.1235 A1160.261,1160.261 0 0,1 242.9292,787.8433M242.4605,787.2027 A1160.261,1160.261 0 0,1 241.5244,785.9206M241.0571,785.279 A1160.261,1160.261 0 0,1 240.1236,783.9949M239.6576,783.3524 A1160.261,1160.261 0 0,1 238.7268,782.0664M238.262,781.423 A1160.261,1160.261 0 0,1 237.3339,780.1351M236.8704,779.4906 A1160.261,1160.261 0 0,1 235.9449,778.2008M235.4828,777.5555 A1160.261,1160.261 0 0,1 234.56,776.2638M234.0992,775.6175 A1160.261,1160.261 0 0,1 233.179,774.3239M232.7195,773.6766 A1160.261,1160.261 0 0,1 231.802,772.3811M231.3438,771.7329 A1160.261,1160.261 0 0,1 230.4289,770.4356M229.9722,769.7864 A1160.261,1160.261 0 0,1 229.0599,768.4872M228.6045,767.8371 A1160.261,1160.261 0 0,1 227.6949,766.536M227.2408,765.885 A1160.261,1160.261 0 0,1 226.3339,764.5821M225.8811,763.9301 A1160.261,1160.261 0 0,1 224.9769,762.6253M224.5255,761.9724 A1160.261,1160.261 0 0,1 223.6239,760.6658M223.1738,760.012 A1160.261,1160.261 0 0,1 222.275,758.7034M221.8262,758.0487 A1160.261,1160.261 0 0,1 220.9301,756.7384M220.4827,756.0827 A1160.261,1160.261 0 0,1 219.5892,754.7705M219.1431,754.114 A1160.261,1160.261 0 0,1 218.2523,752.7999M217.8076,752.1425 A1160.261,1160.261 0 0,1 216.9195,750.8266M216.4762,750.1682 A1160.261,1160.261 0 0,1 215.5908,748.8506M215.1488,748.1913 A1160.261,1160.261 0 0,1 214.2661,746.8718M213.8255,746.2116 A1160.261,1160.261 0 0,1 212.9455,744.8903M212.5062,744.2292 A1160.261,1160.261 0 0,1 211.6289,742.9061M211.191,742.2441 A1160.261,1160.261 0 0,1 210.3165,740.9192M209.8799,740.2563 A1160.261,1160.261 0 0,1 209.0081,738.9296M208.5728,738.2658 A1160.261,1160.261 0 0,1 207.7038,736.9374M207.2699,736.2727 A1160.261,1160.261 0 0,1 206.4035,734.9424M205.971,734.2768 A1160.261,1160.261 0 0,1 205.1074,732.9448M204.6763,732.2784 A1160.261,1160.261 0 0,1 203.8154,730.9446M203.3856,730.2772 A1160.261,1160.261 0 0,1 202.5275,728.9416M202.0991,728.2734 A1160.261,1160.261 0 0,1 201.2437,726.9361M200.8167,726.267 A1160.261,1160.261 0 0,1 199.964,724.9279M199.5384,724.258 A1160.261,1160.261 0 0,1 198.6885,722.9171M198.2642,722.2463 A1160.261,1160.261 0 0,1 197.417,720.9037M196.9941,720.232 A1160.261,1160.261 0 0,1 196.1497,718.8877M195.7282,718.2151 A1160.261,1160.261 0 0,1 194.8866,716.8691M194.4665,716.1956 A1160.261,1160.261 0 0,1 193.6276,714.8479M193.2088,714.1736 A1160.261,1160.261 0 0,1 192.3727,712.8241M191.9554,712.1489 A1160.261,1160.261 0 0,1 191.122,710.7978M190.7061,710.1217 A1160.261,1160.261 0 0,1 189.8755,708.7688M189.4609,708.092 A1160.261,1160.261 0 0,1 188.6331,706.7374M188.2199,706.0596 A1160.261,1160.261 0 0,1 187.3949,704.7034M186.9831,704.0248 A1160.261,1160.261 0 0,1 186.1609,702.6668M185.7505,701.9874 A1160.261,1160.261 0 0,1 184.9311,700.6277M184.522,699.9475 A1160.261,1160.261 0 0,1 183.7054,698.5861M183.2978,697.905 A1160.261,1160.261 0 0,1 182.484,696.542M182.0777,695.8601 A1160.261,1160.261 0 0,1 181.2667,694.4954M180.8619,693.8126 A1160.261,1160.261 0 0,1 180.0536,692.4463M179.6502,691.7627 A1160.261,1160.261 0 0,1 178.8448,690.3947M178.4428,689.7103 A1160.261,1160.261 0 0,1 177.6401,688.3406M177.2395,687.6554 A1160.261,1160.261 0 0,1 176.4397,686.2841M176.0405,685.598 A1160.261,1160.261 0 0,1 175.2435,684.2251M174.8457,683.5382 A1160.261,1160.261 0 0,1 174.0516,682.1637M173.6552,681.476 A1160.261,1160.261 0 0,1 172.8638,680.0998M172.4689,679.4113 A1160.261,1160.261 0 0,1 171.6803,678.0334M171.2868,677.3441 A1160.261,1160.261 0 0,1 170.5011,675.9647M170.1089,675.2746 A1160.261,1160.261 0 0,1 169.3261,673.8935M168.9354,673.2026 A1160.261,1160.261 0 0,1 168.1553,671.82M167.766,671.1282 A1160.261,1160.261 0 0,1 166.9888,669.744M166.601,669.0515 A1160.261,1160.261 0 0,1 165.8266,667.6656M165.4401,666.9723 A1160.261,1160.261 0 0,1 164.6686,665.5849M164.2836,664.8908 A1160.261,1160.261 0 0,1 163.515,663.5018M163.1313,662.8069 A1160.261,1160.261 0 0,1 162.3655,661.4163M161.9834,660.7206 A1160.261,1160.261 0 0,1 161.2204,659.3285M160.8397,658.632 A1160.261,1160.261 0 0,1 160.0796,657.2383M159.7002,656.5411 A1160.261,1160.261 0 0,1 158.943,655.1458M158.5651,654.4478 A1160.261,1160.261 0 0,1 157.8108,653.051M157.4343,652.3522 A1160.261,1160.261 0 0,1 156.6828,650.9538M156.3078,650.2542 A1160.261,1160.261 0 0,1 155.5592,648.8543M155.1856,648.154 A1160.261,1160.261 0 0,1 154.4398,646.7526M154.0677,646.0515 A1160.261,1160.261 0 0,1 153.3248,644.6485M152.9541,643.9466 A1160.261,1160.261 0 0,1 152.2141,642.5421M151.8449,641.8395 A1160.261,1160.261 0 0,1 151.1078,640.4335M150.7399,639.7301 A1160.261,1160.261 0 0,1 150.0057,638.3226M149.6393,637.6185 A1160.261,1160.261 0 0,1 148.908,636.2095M148.5431,635.5046 A1160.261,1160.261 0 0,1 147.8146,634.0941M147.4512,633.3885 A1160.261,1160.261 0 0,1 146.7256,631.9765M146.3636,631.2701 A1160.261,1160.261 0 0,1 145.6409,629.8566M145.2804,629.1495 A1160.261,1160.261 0 0,1 144.5606,627.7345M144.2015,627.0266 A1160.261,1160.261 0 0,1 143.4847,625.6102M143.127,624.9016 A1160.261,1160.261 0 0,1 142.4131,623.4837M142.0568,622.7744 A1160.261,1160.261 0 0,1 141.3458,621.355M140.991,620.6449 A1160.261,1160.261 0 0,1 140.283,619.2241M139.9296,618.5133 A1160.261,1160.261 0 0,1 139.2245,617.0911M138.8726,616.3795 A1160.261,1160.261 0 0,1 138.1704,614.9558M137.82,614.2436 A1160.261,1160.261 0 0,1 137.1206,612.8184M136.7717,612.1055 A1160.261,1160.261 0 0,1 136.0753,610.6789M135.7278,609.9652 A1160.261,1160.261 0 0,1 135.0344,608.5372M134.6884,607.8229 A1160.261,1160.261 0 0,1 133.9978,606.3934M133.6533,605.6783 A1160.261,1160.261 0 0,1 132.9657,604.2475M132.6226,603.5317 A1160.261,1160.261 0 0,1 131.9379,602.0994M131.5963,601.3829 A1160.261,1160.261 0 0,1 130.9146,599.9493M130.5745,599.2321 A1160.261,1160.261 0 0,1 129.8957,597.797M129.557,597.0791 A1160.261,1160.261 0 0,1 128.8812,595.6427M128.544,594.9241 A1160.261,1160.261 0 0,1 127.8711,593.4863M127.5354,592.767 A1160.261,1160.261 0 0,1 126.8655,591.3278M126.5313,590.6079 A1160.261,1160.261 0 0,1 125.8643,589.1673M125.5315,588.4466 A1160.261,1160.261 0 0,1 124.8675,587.0047M124.5362,586.2834 A1160.261,1160.261 0 0,1 123.8752,584.84M123.5454,584.118 A1160.261,1160.261 0 0,1 122.8873,582.6734M122.559,581.9507 A1160.261,1160.261 0 0,1 121.9039,580.5047M121.577,579.7813 A1160.261,1160.261 0 0,1 120.9249,578.334M120.5995,577.61 A1160.261,1160.261 0 0,1 119.9503,576.1613M119.6265,575.4366 A1160.261,1160.261 0 0,1 118.9803,573.9866M118.6579,573.2612 A1160.261,1160.261 0 0,1 118.0147,571.8099M117.6938,571.0839 A1160.261,1160.261 0 0,1 117.0535,569.6312M116.7342,568.9046 A1160.261,1160.261 0 0,1 116.0969,567.4506M115.779,566.7233 A1160.261,1160.261 0 0,1 115.1447,565.268M114.8283,564.5401 A1160.261,1160.261 0 0,1 114.197,563.0835M113.8821,562.3549 A1160.261,1160.261 0 0,1 113.2538,560.897M112.9404,560.1677 A1160.261,1160.261 0 0,1 112.3151,558.7086M112.0031,557.9787 A1160.261,1160.261 0 0,1 111.3808,556.5183M111.0704,555.7877 A1160.261,1160.261 0 0,1 110.4511,554.326M110.1422,553.5948 A1160.261,1160.261 0 0,1 109.5259,552.1319M109.2184,551.4001 A1160.261,1160.261 0 0,1 108.6051,549.9358M108.2992,549.2034 A1160.261,1160.261 0 0,1 107.6889,547.7379M107.3845,547.0048 A1160.261,1160.261 0 0,1 106.7772,545.5381M106.4743,544.8044 A1160.261,1160.261 0 0,1 105.87,543.3364M105.5686,542.6021 A1160.261,1160.261 0 0,1 104.9673,541.1329M104.6675,540.398 A1160.261,1160.261 0 0,1 104.0692,538.9275M103.7708,538.192 A1160.261,1160.261 0 0,1 103.1756,536.7203M102.8787,535.9841 A1160.261,1160.261 0 0,1 102.2865,534.5112M101.9911,533.7745 A1160.261,1160.261 0 0,1 101.4019,532.3004M101.1081,531.563 A1160.261,1160.261 0 0,1 100.5219,530.0877M100.2296,529.3497 A1160.261,1160.261 0 0,1 99.6465,527.8732M99.3557,527.1347 A1160.261,1160.261 0 0,1 98.7755,525.657M98.4862,524.9178 A1160.261,1160.261 0 0,1 97.9092,523.4389M97.6214,522.6992 A1160.261,1160.261 0 0,1 97.0474,521.2191M96.7611,520.4788 A1160.261,1160.261 0 0,1 96.1901,518.9975M95.9054,518.2566 A1160.261,1160.261 0 0,1 95.3374,516.7742M95.0542,516.0327 A1160.261,1160.261 0 0,1 94.4893,514.5491M94.2076,513.807 A1160.261,1160.261 0 0,1 93.6457,512.3222M93.3655,511.5796 A1160.261,1160.261 0 0,1 92.8067,510.0937M92.5281,509.3505 A1160.261,1160.261 0 0,1 91.9723,507.8634M91.6952,507.1196 A1160.261,1160.261 0 0,1 91.1425,505.6314M90.8669,504.8871 A1160.261,1160.261 0 0,1 90.3172,503.3978M90.0431,502.6528 A1160.261,1160.261 0 0,1 89.4965,501.1624M89.224,500.4169 A1160.261,1160.261 0 0,1 88.6804,498.9254M88.4094,498.1793 A1160.261,1160.261 0 0,1 87.869,496.6866M87.5995,495.94 A1160.261,1160.261 0 0,1 87.0621,494.4463M86.7941,493.6991 A1160.261,1160.261 0 0,1 86.2598,492.2042M85.9934,491.4565 A1160.261,1160.261 0 0,1 85.4621,489.9606M85.1972,489.2123 A1160.261,1160.261 0 0,1 84.669,487.7153M84.4057,486.9665 A1160.261,1160.261 0 0,1 83.8805,485.4684M83.6187,484.719 A1160.261,1160.261 0 0,1 83.0967,483.2198M82.8364,482.47 A1160.261,1160.261 0 0,1 82.3174,480.9697M82.0587,480.2193 A1160.261,1160.261 0 0,1 81.5428,478.7179M81.2856,477.967 A1160.261,1160.261 0 0,1 80.7728,476.4646M80.5172,475.7132 A1160.261,1160.261 0 0,1 80.0074,474.2097M79.7533,473.4578 A1160.261,1160.261 0 0,1 79.2467,471.9533M78.9941,471.2008 A1160.261,1160.261 0 0,1 78.4906,469.6953M78.2396,468.9422 A1160.261,1160.261 0 0,1 77.7391,467.4357M77.4897,466.6822 A1160.261,1160.261 0 0,1 76.9923,465.1746M76.7444,464.4205 A1160.261,1160.261 0 0,1 76.2501,462.912M76.0037,462.1574 A1160.261,1160.261 0 0,1 75.5125,460.6478M75.2677,459.8928 A1160.261,1160.261 0 0,1 74.7796,458.3821M74.5364,457.6266 A1160.261,1160.261 0 0,1 74.0514,456.115M73.8097,455.3589 A1160.261,1160.261 0 0,1 73.3278,453.8463M73.0876,453.0898 A1160.261,1160.261 0 0,1 72.6089,451.5762M72.3702,450.8192 A1160.261,1160.261 0 0,1 71.8946,449.3046M71.6575,448.5471 A1160.261,1160.261 0 0,1 71.185,447.0316M70.9495,446.2735 A1160.261,1160.261 0 0,1 70.48,444.757M70.2461,443.9986 A1160.261,1160.261 0 0,1 69.7797,442.4811M69.5473,441.7221 A1160.261,1160.261 0 0,1 69.0841,440.2037M68.8533,439.4443 A1160.261,1160.261 0 0,1 68.3932,437.9249M68.1639,437.165 A1160.261,1160.261 0 0,1 67.707,435.6447M67.4792,434.8843 A1160.261,1160.261 0 0,1 67.0254,433.3631M66.7992,432.6022 A1160.261,1160.261 0 0,1 66.3485,431.08M66.1239,430.3187 A1160.261,1160.261 0 0,1 65.6763,428.7956M65.4533,428.0339 A1160.261,1160.261 0 0,1 65.0088,426.5099M64.7873,425.7476 A1160.261,1160.261 0 0,1 64.346,424.2227M64.1261,423.46 A1160.261,1160.261 0 0,1 63.6879,421.9342M63.4695,421.1711 A1160.261,1160.261 0 0,1 63.0344,419.6444M62.8177,418.8808 A1160.261,1160.261 0 0,1 62.3857,417.3532M62.1705,416.5892 A1160.261,1160.261 0 0,1 61.7417,415.0607M61.5281,414.2962 A1160.261,1160.261 0 0,1 61.1024,412.7669M60.8903,412.002 A1160.261,1160.261 0 0,1 60.4678,410.4717M60.2573,409.7064 A1160.261,1160.261 0 0,1 59.8379,408.1753M59.629,407.4095 A1160.261,1160.261 0 0,1 59.2127,405.8776M59.0054,405.1114 A1160.261,1160.261 0 0,1 58.5923,403.5786M58.3865,402.812 A1160.261,1160.261 0 0,1 57.9765,401.2783M57.7723,400.5113 A1160.261,1160.261 0 0,1 57.3655,398.9768M57.1629,398.2093 A1160.261,1160.261 0 0,1 56.7592,396.674M56.5582,395.9062 A1160.261,1160.261 0 0,1 56.1576,394.37M55.9582,393.6017 A1160.261,1160.261 0 0,1 55.5608,392.0648M55.3629,391.2961 A1160.261,1160.261 0 0,1 54.9687,389.7583M54.7724,388.9892 A1160.261,1160.261 0 0,1 54.3813,387.4506M54.1866,386.6811 A1160.261,1160.261 0 0,1 53.7987,385.1418M53.6055,384.3719 A1160.261,1160.261 0 0,1 53.2208,382.8317M53.0292,382.0614 A1160.261,1160.261 0 0,1 52.6477,380.5205M52.4577,379.7498 A1160.261,1160.261 0 0,1 52.0793,378.208M51.8908,377.437 A1160.261,1160.261 0 0,1 51.5156,375.8945M51.3288,375.123 A1160.261,1160.261 0 0,1 50.9567,373.5797M50.7714,372.8079 A1160.261,1160.261 0 0,1 50.4025,371.2639M50.2189,370.4917 A1160.261,1160.261 0 0,1 49.8531,368.9469M49.6711,368.1743 A1160.261,1160.261 0 0,1 49.3085,366.6287M49.128,365.8558 A1160.261,1160.261 0 0,1 48.7686,364.3095M48.5897,363.5362 A1160.261,1160.261 0 0,1 48.2335,361.9892M48.0562,361.2155 A1160.261,1160.261 0 0,1 47.7031,359.6677M47.5274,358.8937 A1160.261,1160.261 0 0,1 47.1775,357.3452M47.0034,356.5708 A1160.261,1160.261 0 0,1 46.6567,355.0216M46.4841,354.2468 A1160.261,1160.261 0 0,1 46.1406,352.6969M45.9697,351.9218 A1160.261,1160.261 0 0,1 45.6293,350.3712M45.46,349.5958 A1160.261,1160.261 0 0,1 45.1228,348.0445M44.955,347.2687 A1160.261,1160.261 0 0,1 44.6211,345.7167M44.4549,344.9405 A1160.261,1160.261 0 0,1 44.1241,343.3879M43.9595,342.6114 A1160.261,1160.261 0 0,1 43.632,341.058M43.469,340.2812 A1160.261,1160.261 0 0,1 43.1446,338.7272M42.9832,337.95 A1160.261,1160.261 0 0,1 42.6619,336.3954M42.5021,335.6179 A1160.261,1160.261 0 0,1 42.1841,334.0626M42.0259,333.2847 A1160.261,1160.261 0 0,1 41.7111,331.7288M41.5545,330.9506 A1160.261,1160.261 0 0,1 41.2428,329.394M41.0878,328.6155 A1160.261,1160.261 0 0,1 40.7794,327.0583M40.626,326.2795 A1160.261,1160.261 0 0,1 40.3207,324.7216M40.1689,323.9425 A1160.261,1160.261 0 0,1 39.8669,322.384M39.7167,321.6046 A1160.261,1160.261 0 0,1 39.4178,320.0455M39.2692,319.2658 A1160.261,1160.261 0 0,1 38.9736,317.7061M38.8265,316.9261 A1160.261,1160.261 0 0,1 38.5341,315.3657M38.3887,314.5854 A1160.261,1160.261 0 0,1 38.0994,313.0245M37.9556,312.2439 A1160.261,1160.261 0 0,1 37.6696,310.6823M37.5274,309.9014 A1160.261,1160.261 0 0,1 37.2445,308.3393M37.1039,307.5581 A1160.261,1160.261 0 0,1 36.8243,305.9955M36.6853,305.214 A1160.261,1160.261 0 0,1 36.4089,303.6507M36.2715,302.869 A1160.261,1160.261 0 0,1 35.9983,301.3051M35.8625,300.5231 A1160.261,1160.261 0 0,1 35.5925,298.9587M35.4583,298.1764 A1160.261,1160.261 0 0,1 35.1915,296.6115M35.0589,295.8289 A1160.261,1160.261 0 0,1 34.7954,294.2634M34.6644,293.4805 A1160.261,1160.261 0 0,1 34.404,291.9145M34.2747,291.1314 A1160.261,1160.261 0 0,1 34.0175,289.5649M33.8897,288.7815 A1160.261,1160.261 0 0,1 33.6358,287.2144M33.5097,286.4308 A1160.261,1160.261 0 0,1 33.2589,284.8632M33.1344,284.0793 A1160.261,1160.261 0 0,1 32.8869,282.5112M32.764,281.727 A1160.261,1160.261 0 0,1 32.5197,280.1584M32.3984,279.374 A1160.261,1160.261 0 0,1 32.1573,277.8049M32.0376,277.0202 A1160.261,1160.261 0 0,1 31.7998,275.4506M31.6816,274.6657 A1160.261,1160.261 0 0,1 31.447,273.0957M31.3305,272.3105 A1160.261,1160.261 0 0,1 31.0991,270.74M30.9843,269.9546 A1160.261,1160.261 0 0,1 30.7561,268.3835M30.6428,267.5979 A1160.261,1160.261 0 0,1 30.4179,266.0264M30.3062,265.2406 A1160.261,1160.261 0 0,1 30.0845,263.6686M29.9744,262.8826 A1160.261,1160.261 0 0,1 29.756,261.3102M29.6475,260.5239 A1160.261,1160.261 0 0,1 29.4323,258.951M29.3254,258.1645 A1160.261,1160.261 0 0,1 29.1134,256.5912M29.0082,255.8045 A1160.261,1160.261 0 0,1 28.7994,254.2308M28.6958,253.4438 A1160.261,1160.261 0 0,1 28.4902,251.8697M28.3883,251.0825 A1160.261,1160.261 0 0,1 28.1859,249.5079M28.0856,248.7206 A1160.261,1160.261 0 0,1 27.8864,247.1456M27.7877,246.358 A1160.261,1160.261 0 0,1 27.5918,244.7826M27.4947,243.9949 A1160.261,1160.261 0 0,1 27.3021,242.4191M27.2065,241.6311 A1160.261,1160.261 0 0,1 27.0171,240.0549M26.9232,239.2668 A1160.261,1160.261 0 0,1 26.7371,237.6902M26.6448,236.9019 A1160.261,1160.261 0 0,1 26.4619,235.3249M26.3712,234.5364 A1160.261,1160.261 0 0,1 26.1915,232.9591M26.1025,232.1703 A1160.261,1160.261 0 0,1 25.926,230.5927M25.8386,229.8038 A1160.261,1160.261 0 0,1 25.6653,228.2257M25.5795,227.4366 A1160.261,1160.261 0 0,1 25.4096,225.8583M25.3254,225.069 A1160.261,1160.261 0 0,1 25.1586,223.4903M25.0761,222.7008 A1160.261,1160.261 0 0,1 24.9126,221.1218M24.8316,220.3322 A1160.261,1160.261 0 0,1 24.6714,218.7528M24.592,217.963 A1160.261,1160.261 0 0,1 24.435,216.3833M24.3573,215.5933 A1160.261,1160.261 0 0,1 24.2035,214.0133M24.1275,213.2232 A1160.261,1160.261 0 0,1 23.9769,211.6429M23.9025,210.8526 A1160.261,1160.261 0 0,1 23.7552,209.272M23.6823,208.4816 A1160.261,1160.261 0 0,1 23.5383,206.9006M23.4671,206.1101 A1160.261,1160.261 0 0,1 23.3263,204.5288M23.2567,203.7381 A1160.261,1160.261 0 0,1 23.1191,202.1566M23.0512,201.3658 A1160.261,1160.261 0 0,1 22.9168,199.784M22.8505,198.993 A1160.261,1160.261 0 0,1 22.7194,197.4109M22.6547,196.6198 A1160.261,1160.261 0 0,1 22.5269,195.0374M22.4638,194.2462 A1160.261,1160.261 0 0,1 22.3392,192.6636M22.2778,191.8722 A1160.261,1160.261 0 0,1 22.1564,190.2894M22.0966,189.4979 A1160.261,1160.261 0 0,1 21.9785,187.9148M21.9203,187.1232 A1160.261,1160.261 0 0,1 21.8055,185.5398M21.7489,184.7481 A1160.261,1160.261 0 0,1 21.6373,183.1645M21.5823,182.3727 A1160.261,1160.261 0 0,1 21.474,180.7889M21.4206,179.9969 A1160.261,1160.261 0 0,1 21.3156,178.4129M21.2639,177.6208 A1160.261,1160.261 0 0,1 21.162,176.0366M21.1119,175.2444 A1160.261,1160.261 0 0,1 21.0134,173.66M20.9649,172.8677 A1160.261,1160.261 0 0,1 20.8696,171.2831M20.8227,170.4907 A1160.261,1160.261 0 0,1 20.7307,168.9059M20.6854,168.1135 A1160.261,1160.261 0 0,1 20.5966,166.5284M20.553,165.7359 A1160.261,1160.261 0 0,1 20.4675,164.1507M20.4255,163.3581 A1160.261,1160.261 0 0,1 20.3432,161.7727M20.3029,160.98 A1160.261,1160.261 0 0,1 20.2238,159.3944M20.1851,158.6016 A1160.261,1160.261 0 0,1 20.1093,157.0159M20.0722,156.2231 A1160.261,1160.261 0 0,1 19.9997,154.6372M19.9642,153.8443 A1160.261,1160.261 0 0,1 19.8949,152.2583M19.8611,151.4652 A1160.261,1160.261 0 0,1 19.7951,149.8791M19.7629,149.086 A1160.261,1160.261 0 0,1 19.7001,147.4998M19.6695,146.7066 A1160.261,1160.261 0 0,1 19.61,145.1202M19.581,144.327 A1160.261,1160.261 0 0,1 19.5248,142.7405M19.4975,141.9472 A1160.261,1160.261 0 0,1 19.4444,140.3606M19.4187,139.5673 A1160.261,1160.261 0 0,1 19.369,137.9805M19.3449,137.1872 A1160.261,1160.261 0 0,1 19.2984,135.6003M19.276,134.8069 A1160.261,1160.261 0 0,1 19.2328,133.22M19.212,132.4265 A1160.261,1160.261 0 0,1 19.172,130.8395M19.1528,130.046 A1160.261,1160.261 0 0,1 19.1161,128.4589M19.0985,127.6654 A1160.261,1160.261 0 0,1 19.065,126.0782M19.0491,125.2846 A1160.261,1160.261 0 0,1 19.0189,123.6974M19.0046,122.9038 A1160.261,1160.261 0 0,1 18.9777,121.3165M18.965,120.5229 A1160.261,1160.261 0 0,1 18.9413,118.9356M18.9303,118.1419 A1160.261,1160.261 0 0,1 18.9098,116.5545M18.9004,115.7608 A1160.261,1160.261 0 0,1 18.8833,114.1734M18.8755,113.3797 A1160.261,1160.261 0 0,1 18.8616,111.7923M18.8554,110.9985 A1160.261,1160.261 0 0,1 18.8447,109.4111M18.8402,108.6173 A1160.261,1160.261 0 0,1 18.8328,107.0299M18.8299,106.2361 A1160.261,1160.261 0 0,1 18.8258,104.6486M18.8245,103.8549 A1160.261,1160.261 0 0,1 18.8237,102.7356" style="stroke:#000000;stroke-width:0.1;"/>
            <!-- Polyline -->
            <path d="M1178.2831,1262.1951 L1145.8507,1262.1951 L1145.8507,102.7356 L1178.2831,102.7356 Z" style="stroke:#000000;stroke-width:0.1;"/>
            <!-- Polyline -->
            <path d="M1192.4723,102.7356 L1178.2831,102.7356 L1178.2831,64.6491 L1166.121,64.6491 L1166.121,18.9518 L1166.121,2.7356 L1192.4723,2.7356 Z" style="stroke:#000000;stroke-width:0.1;"/>
            <!-- Polyline -->
            <path d="M4.6345,102.7356 L18.8237,102.7356 L18.8237,64.6491 L30.9858,64.6491 L30.9858,18.9518 L30.9858,2.7356 L4.6345,2.7356 Z" style="stroke:#000000;stroke-width:0.1;"/>
            <!-- Polyline -->
            <path d="M1192.4723,12.7356 L1198.5534,12.7356 L1198.5534,92.7356 L1192.4723,92.7356 Z" style="stroke:#000000;stroke-width:0.1;"/>
            <!-- Polyline -->
            <path d="M-1.4466,12.7356 L4.6345,12.7356 L4.6345,92.7356 L-1.4466,92.7356 Z" style="stroke:#000000;stroke-width:0.1;"/>
        </g>
    </g>
</svg>

