<?xml version="1.0" encoding="UTF-8"?>
<!-- 2026-03-10 13:53:26 Generated by QCAD 3.32.6 SVG Exporter -->
<svg  width="1500mm" height="790.0056mm" viewBox="1.7577 -788.6807 1500 790.0056" version="1.1" xmlns="http://www.w3.org/2000/svg" style="stroke-linecap:round;stroke-linejoin:round;">
    <g transform="scale(1,-1)">
            <!-- Auto-generated fillable area -->
            <!-- Block Reference: A$C0A95752C / entities: 48 -->
        <g>
            <!-- Arc -->
            <path d="M1426.7577,788.6751 A673.0472,673.0472 0 0,1 751.1723,98.6751" style="stroke:#000000;stroke-width:0.1;"/>
            <!-- Line -->
            <path d="M46.7577,708.6751 L46.7577,178.6751 " style="stroke:#000000;stroke-width:0.1;"/>
            <!-- Line -->
            <path d="M66.7577,178.6751 L66.7577,708.6751 " style="stroke:#000000;stroke-width:0.1;"/>
            <!-- Ellipse -->
            <path d="M751.1723,98.6751 L751.9387,114.3246 L752.2977,129.9954 L752.2492,145.6782 L751.7931,161.3634 L750.9298,177.0416 L749.6597,192.7034 L747.9836,208.3392 L745.9026,223.9398 L743.4179,239.4957 L740.5309,254.9976 L737.2435,270.436 L733.5575,285.8017 L729.4753,301.0855 L724.9992,316.2782 L720.132,331.3705 L714.8767,346.3534 L709.2363,361.2179 L703.2142,375.955 L696.8142,390.5558 L690.04,405.0116 L682.8958,419.3136 L675.3857,433.4533 L667.5145,447.422 L659.2867,461.2115 L650.7074,474.8133 L641.7818,488.2193 L632.5151,501.4214 L622.913,514.4117 L612.9813,527.1824 L602.7259,539.7257 L592.153,552.034 L581.2691,564.1001 L570.0806,575.9166 L558.5943,587.4763 L546.8171,598.7724 L534.7561,609.798 L522.4186,620.5465 L509.8119,631.0114 L496.9438,641.1864 L483.8219,651.0654 L470.4542,660.6424 L456.8487,669.9116 L443.0135,678.8676 L428.9571,687.5048 L414.6879,695.8181 L400.2145,703.8024 L385.5456,711.453 L370.6901,718.7653 L355.6568,725.7348 L340.4549,732.3573 L325.0935,738.6289 L309.5819,744.5458 L293.9294,750.1044 L278.1454,755.3013 L262.2394,760.1335 L246.2211,764.5981 L230.1001,768.6922 L213.886,772.4136 L197.5887,775.7598 L181.2179,778.729 L164.7836,781.3193 L148.2956,783.5292 L131.7638,785.3573 L115.1983,786.8025 L98.609,787.864 L82.0059,788.5411 L76.7577,788.6751" style="stroke:#000000;stroke-width:0.1;"/>
            <!-- Line -->
            <path d="M76.7577,178.6751 L76.7577,708.6751 " style="stroke:#000000;stroke-width:0.1;"/>
            <!-- Line -->
            <path d="M36.7577,708.6751 L36.7577,178.6751 " style="stroke:#000000;stroke-width:0.1;"/>
            <!-- Line -->
            <path d="M66.7577,708.6751 L46.7577,708.6751 " style="stroke:#000000;stroke-width:0.1;"/>
            <!-- Line -->
            <path d="M76.7577,708.6751 L36.7577,708.6751 " style="stroke:#000000;stroke-width:0.1;"/>
            <!-- Line -->
            <path d="M76.7577,788.6751 L76.7577,708.6751 " style="stroke:#000000;stroke-width:0.1;"/>
            <!-- Line -->
            <path d="M76.7577,708.6751 L36.7577,708.6751 " style="stroke:#000000;stroke-width:0.1;"/>
            <!-- Line -->
            <path d="M36.7577,708.6751 L36.7577,788.6751 " style="stroke:#000000;stroke-width:0.1;"/>
            <!-- Line -->
            <path d="M36.7577,98.6751 L76.7577,98.6751 " style="stroke:#000000;stroke-width:0.1;"/>
            <!-- Line -->
            <path d="M36.7577,178.6751 L36.7577,98.6751 " style="stroke:#000000;stroke-width:0.1;"/>
            <!-- Line -->
            <path d="M76.7577,178.6751 L36.7577,178.6751 " style="stroke:#000000;stroke-width:0.1;"/>
            <!-- Line -->
            <path d="M76.7577,98.6751 L76.7577,178.6751 " style="stroke:#000000;stroke-width:0.1;"/>
            <!-- Line -->
            <path d="M36.7577,178.6751 L76.7577,178.6751 " style="stroke:#000000;stroke-width:0.1;"/>
            <!-- Line -->
            <path d="M46.7577,178.6751 L66.7577,178.6751 " style="stroke:#000000;stroke-width:0.1;"/>
            <!-- Line -->
            <path d="M36.7577,58.6751 L36.7577,98.6751 " style="stroke:#000000;stroke-width:0.1;"/>
            <!-- Line -->
            <path d="M51.7577,58.6751 L36.7577,58.6751 " style="stroke:#000000;stroke-width:0.1;"/>
            <!-- Line -->
            <path d="M51.7577,48.6751 L51.7577,58.6751 " style="stroke:#000000;stroke-width:0.1;"/>
            <!-- Line -->
            <path d="M51.7577,-1.3249 L51.7577,48.6751 " style="stroke:#000000;stroke-width:0.1;"/>
            <!-- Line -->
            <path d="M1.7577,-1.3249 L51.7577,-1.3249 " style="stroke:#000000;stroke-width:0.1;"/>
            <!-- Line -->
            <path d="M1.7577,98.6751 L1.7577,-1.3249 " style="stroke:#000000;stroke-width:0.1;"/>
            <!-- Line -->
            <path d="M36.7577,98.6751 L1.7577,98.6751 " style="stroke:#000000;stroke-width:0.1;"/>
            <!-- Line -->
            <path d="M36.7577,788.6751 L76.7577,788.6751 " style="stroke:#000000;stroke-width:0.1;"/>
            <!-- Line -->
            <path d="M1436.7577,178.6751 L1436.7577,708.6751 " style="stroke:#000000;stroke-width:0.1;"/>
            <!-- Line -->
            <path d="M1436.7577,708.6751 L1456.7577,708.6751 " style="stroke:#000000;stroke-width:0.1;"/>
            <!-- Line -->
            <path d="M1456.7577,708.6751 L1456.7577,178.6751 " style="stroke:#000000;stroke-width:0.1;"/>
            <!-- Line -->
            <path d="M1456.7577,178.6751 L1436.7577,178.6751 " style="stroke:#000000;stroke-width:0.1;"/>
            <!-- Line -->
            <path d="M1426.7577,788.6751 L1426.7577,708.6751 " style="stroke:#000000;stroke-width:0.1;"/>
            <!-- Line -->
            <path d="M1426.7577,708.6751 L1466.7577,708.6751 " style="stroke:#000000;stroke-width:0.1;"/>
            <!-- Line -->
            <path d="M1466.7577,708.6751 L1466.7577,788.6751 " style="stroke:#000000;stroke-width:0.1;"/>
            <!-- Line -->
            <path d="M1466.7577,788.6751 L1426.7577,788.6751 " style="stroke:#000000;stroke-width:0.1;"/>
            <!-- Line -->
            <path d="M1426.7577,178.6751 L1426.7577,708.6751 " style="stroke:#000000;stroke-width:0.1;"/>
            <!-- Line -->
            <path d="M1426.7577,708.6751 L1466.7577,708.6751 " style="stroke:#000000;stroke-width:0.1;"/>
            <!-- Line -->
            <path d="M1466.7577,708.6751 L1466.7577,178.6751 " style="stroke:#000000;stroke-width:0.1;"/>
            <!-- Line -->
            <path d="M1466.7577,178.6751 L1426.7577,178.6751 " style="stroke:#000000;stroke-width:0.1;"/>
            <!-- Line -->
            <path d="M1426.7577,98.6751 L1426.7577,178.6751 " style="stroke:#000000;stroke-width:0.1;"/>
            <!-- Line -->
            <path d="M1426.7577,178.6751 L1466.7577,178.6751 " style="stroke:#000000;stroke-width:0.1;"/>
            <!-- Line -->
            <path d="M1466.7577,178.6751 L1466.7577,98.6751 " style="stroke:#000000;stroke-width:0.1;"/>
            <!-- Line -->
            <path d="M1466.7577,98.6751 L1426.7577,98.6751 " style="stroke:#000000;stroke-width:0.1;"/>
            <!-- Line -->
            <path d="M1466.7577,98.6751 L1501.7577,98.6751 " style="stroke:#000000;stroke-width:0.1;"/>
            <!-- Line -->
            <path d="M1501.7577,98.6751 L1501.7577,-1.3249 " style="stroke:#000000;stroke-width:0.1;"/>
            <!-- Line -->
            <path d="M1501.7577,-1.3249 L1451.7577,-1.3249 " style="stroke:#000000;stroke-width:0.1;"/>
            <!-- Line -->
            <path d="M1451.7577,-1.3249 L1451.7577,48.6751 " style="stroke:#000000;stroke-width:0.1;"/>
            <!-- Line -->
            <path d="M1451.7577,48.6751 L1451.7577,58.6751 " style="stroke:#000000;stroke-width:0.1;"/>
            <!-- Line -->
            <path d="M1451.7577,58.6751 L1466.7577,58.6751 " style="stroke:#000000;stroke-width:0.1;"/>
            <!-- Line -->
            <path d="M1466.7577,58.6751 L1466.7577,98.6751 " style="stroke:#000000;stroke-width:0.1;"/>
        </g>
    </g>
</svg>

