<?xml version="1.0" encoding="UTF-8"?>
<!-- 2026-03-10 13:47:45 Generated by QCAD 3.32.6 SVG Exporter -->
<svg  width="2000mm" height="1700mm" viewBox="5.3716 -1700.2341 2000 1700" version="1.1" xmlns="http://www.w3.org/2000/svg" style="stroke-linecap:round;stroke-linejoin:round;">
    <g transform="scale(1,-1)">
            <!-- Auto-generated fillable area -->
            <!-- Block Reference: 1700mm Revolving Door / entities: 22 -->
        <g>
            <!-- Line -->
            <path d="M905.3716,850.2341 L1105.3716,850.2341 " style="stroke:#000000;stroke-width:0.1;"/>
            <!-- Line -->
            <path d="M1005.3716,750.2341 L1005.3716,950.2341 " style="stroke:#000000;stroke-width:0.1;"/>
            <!-- Polyline -->
            <path d="M333.6202,178.4827 L262.9095,107.772 L298.2648,72.4167 L368.9755,143.1273 Z" style="stroke:#000000;stroke-width:0.1;"/>
            <!-- Polyline -->
            <path d="M1677.123,178.4827 L1641.7677,143.1273 L1712.4784,72.4167 L1747.8337,107.772 Z" style="stroke:#000000;stroke-width:0.1;"/>
            <!-- Circle -->
            <circle cx="1005.3715946974698" cy="850.234127690439" r="99.99999999999432" style="stroke:#000000;stroke-width:0.1;"/>
            <!-- Polyline -->
            <path d="M1677.123,1521.9856 L1747.8337,1592.6962 L1712.4784,1628.0516 L1641.7677,1557.3409 Z" style="stroke:#000000;stroke-width:0.1;"/>
            <!-- Polyline -->
            <path d="M333.6202,1521.9856 L262.9095,1592.6962 L298.2648,1628.0516 L368.9755,1557.3409 Z" style="stroke:#000000;stroke-width:0.1;"/>
            <!-- Arc -->
            <path d="M298.2648,1557.3409 A1000,1000 0 0,1 298.2648,143.1273" style="stroke:#000000;stroke-width:0.1;"/>
            <!-- Arc -->
            <path d="M1712.4784,143.1273 A1000,1000 0 0,1 1712.4784,1557.3409" style="stroke:#000000;stroke-width:0.1;"/>
            <!-- Arc -->
            <path d="M298.2648,1557.3409 A1000,1000 0 0,1 298.2648,143.1273" style="stroke:#000000;stroke-width:0.1;"/>
            <!-- Arc -->
            <path d="M1677.123,178.4827 A950,950 0 0,1 1677.123,1521.9856" style="stroke:#000000;stroke-width:0.1;"/>
            <!-- Circle -->
            <circle cx="1005.3715946974662" cy="850.234127690439" r="850" style="stroke:#000000;stroke-width:0.1;"/>
            <!-- Polyline -->
            <path d="M386.9132,1433.3372 L919.2286,901.0218" style="stroke:#000000;stroke-width:0.1;"/>
            <!-- Polyline -->
            <path d="M422.2685,1468.6925 L954.5839,936.3771" style="stroke:#000000;stroke-width:0.1;"/>
            <!-- Polyline -->
            <path d="M386.9132,267.1311 L919.2286,799.4465" style="stroke:#000000;stroke-width:0.1;"/>
            <!-- Polyline -->
            <path d="M422.2685,231.7757 L954.5839,764.0911" style="stroke:#000000;stroke-width:0.1;"/>
            <!-- Polyline -->
            <path d="M1056.1592,764.0911 L1588.4747,231.7757" style="stroke:#000000;stroke-width:0.1;"/>
            <!-- Polyline -->
            <path d="M1091.5146,799.4465 L1623.83,267.1311" style="stroke:#000000;stroke-width:0.1;"/>
            <!-- Arc -->
            <path d="M1712.4784,143.1273 A1000,1000 0 0,1 1712.4784,1557.3409" style="stroke:#000000;stroke-width:0.1;"/>
            <!-- Polyline -->
            <path d="M1056.1592,936.3771 L1588.4747,1468.6925" style="stroke:#000000;stroke-width:0.1;"/>
            <!-- Polyline -->
            <path d="M1091.5146,901.0218 L1623.83,1433.3372" style="stroke:#000000;stroke-width:0.1;"/>
            <!-- Arc -->
            <path d="M333.6202,1521.9856 A950,950 0 0,1 333.6202,178.4827" style="stroke:#000000;stroke-width:0.1;"/>
        </g>
    </g>
</svg>

