<?xml version="1.0" encoding="UTF-8"?>
<!-- 2026-03-10 13:50:04 Generated by QCAD 3.32.6 SVG Exporter -->
<svg  width="1800mm" height="900mm" viewBox="1.3751 -899.9216 1800 900" version="1.1" xmlns="http://www.w3.org/2000/svg" style="stroke-linecap:round;stroke-linejoin:round;">
    <g transform="scale(1,-1)">
            <!-- Auto-generated fillable area -->
            <!-- Block Reference: A$C3628088D / entities: 30 -->
        <g>
            <!-- Arc -->
            <path d="M1726.3751,899.9216 A858.4686,858.4686 0 0,1 901.3751,99.9216" style="stroke:#000000;stroke-width:0.1;"/>
            <!-- Line -->
            <path d="M66.3751,179.9216 L66.3751,819.9216 " style="stroke:#000000;stroke-width:0.1;"/>
            <!-- Line -->
            <path d="M46.3751,819.9216 L46.3751,179.9216 " style="stroke:#000000;stroke-width:0.1;"/>
            <!-- Line -->
            <path d="M76.3751,899.9216 L76.3751,819.9216 " style="stroke:#000000;stroke-width:0.1;"/>
            <!-- Line -->
            <path d="M76.3751,819.9216 L36.3751,819.9216 " style="stroke:#000000;stroke-width:0.1;"/>
            <!-- Line -->
            <path d="M36.3751,819.9216 L36.3751,899.9216 " style="stroke:#000000;stroke-width:0.1;"/>
            <!-- Line -->
            <path d="M36.3751,899.9216 L76.3751,899.9216 " style="stroke:#000000;stroke-width:0.1;"/>
            <!-- Line -->
            <path d="M36.3751,99.9216 L1.3751,99.9216 " style="stroke:#000000;stroke-width:0.1;"/>
            <!-- Line -->
            <path d="M1.3751,99.9216 L1.3751,-0.0784 " style="stroke:#000000;stroke-width:0.1;"/>
            <!-- Line -->
            <path d="M1.3751,-0.0784 L51.3751,-0.0784 " style="stroke:#000000;stroke-width:0.1;"/>
            <!-- Line -->
            <path d="M51.3751,-0.0784 L51.3751,49.9216 " style="stroke:#000000;stroke-width:0.1;"/>
            <!-- Line -->
            <path d="M51.3751,49.9216 L51.3751,59.9216 " style="stroke:#000000;stroke-width:0.1;"/>
            <!-- Line -->
            <path d="M51.3751,59.9216 L36.3751,59.9216 " style="stroke:#000000;stroke-width:0.1;"/>
            <!-- Line -->
            <path d="M36.3751,59.9216 L36.3751,99.9216 " style="stroke:#000000;stroke-width:0.1;"/>
            <!-- Line -->
            <path d="M76.3751,99.9216 L76.3751,179.9216 " style="stroke:#000000;stroke-width:0.1;"/>
            <!-- Line -->
            <path d="M36.3751,179.9216 L36.3751,99.9216 " style="stroke:#000000;stroke-width:0.1;"/>
            <!-- Line -->
            <path d="M36.3751,99.9216 L76.3751,99.9216 " style="stroke:#000000;stroke-width:0.1;"/>
            <!-- Line -->
            <path d="M76.3751,819.9216 L36.3751,819.9216 " style="stroke:#000000;stroke-width:0.1;"/>
            <!-- Line -->
            <path d="M66.3751,819.9216 L46.3751,819.9216 " style="stroke:#000000;stroke-width:0.1;"/>
            <!-- Line -->
            <path d="M76.3751,179.9216 L36.3751,179.9216 " style="stroke:#000000;stroke-width:0.1;"/>
            <!-- Line -->
            <path d="M36.3751,179.9216 L76.3751,179.9216 " style="stroke:#000000;stroke-width:0.1;"/>
            <!-- Line -->
            <path d="M46.3751,179.9216 L66.3751,179.9216 " style="stroke:#000000;stroke-width:0.1;"/>
            <!-- Line -->
            <path d="M76.3751,179.9216 L76.3751,819.9216 " style="stroke:#000000;stroke-width:0.1;"/>
            <!-- Line -->
            <path d="M36.3751,819.9216 L36.3751,179.9216 " style="stroke:#000000;stroke-width:0.1;"/>
            <!-- Ellipse -->
            <path d="M901.3751,99.9216 L900.3634,119.4571 L898.8524,138.9838 L896.8429,158.4901 L894.3362,177.964 L891.3338,197.394 L887.8374,216.7682 L883.8493,236.0751 L879.3717,255.303 L874.4075,274.4403 L868.9595,293.4755 L863.0311,312.3971 L856.6258,331.1937 L849.7475,349.8541 L842.4004,368.3669 L834.5888,386.721 L826.3175,404.9053 L817.5915,422.909 L808.4159,440.7211 L798.7964,458.331 L788.7387,475.7279 L778.2489,492.9015 L767.3333,509.8414 L755.9985,526.5374 L744.2513,542.9794 L732.0988,559.1576 L719.5483,575.0621 L706.6073,590.6835 L693.2837,606.0122 L679.5855,621.0391 L665.5209,635.7552 L651.0985,650.1514 L636.3268,664.2193 L621.2148,677.9502 L605.7717,691.336 L590.0066,704.3685 L573.9291,717.0399 L557.5489,729.3427 L540.8759,741.2693 L523.92,752.8125 L506.6916,763.9656 L489.2009,774.7216 L471.4585,785.0742 L453.4752,795.0171 L435.2617,804.5442 L416.8289,813.65 L398.1882,822.3289 L379.3505,830.5756 L360.3273,838.3852 L341.1301,845.753 L321.7704,852.6745 L302.2599,859.1457 L282.6102,865.1625 L262.8334,870.7213 L242.9412,875.8189 L222.9457,880.4521 L202.8588,884.6182 L182.6928,888.3146 L162.4597,891.5391 L142.1718,894.2898 L121.8412,896.565 L101.4802,898.3634 L81.101,899.6838 L76.3751,899.9216" style="stroke:#000000;stroke-width:0.1;"/>
            <!-- Polyline -->
            <path d="M1736.3751,179.9216 L1736.3751,819.9216 L1756.3751,819.9216 L1756.3751,179.9216 Z" style="stroke:#000000;stroke-width:0.1;"/>
            <!-- Polyline -->
            <path d="M1726.3751,899.9216 L1726.3751,819.9216 L1766.3751,819.9216 L1766.3751,899.9216 Z" style="stroke:#000000;stroke-width:0.1;"/>
            <!-- Polyline -->
            <path d="M1766.3751,99.9216 L1801.3751,99.9216 L1801.3751,-0.0784 L1751.3751,-0.0784 L1751.3751,49.9216 L1751.3751,59.9216 L1766.3751,59.9216 Z" style="stroke:#000000;stroke-width:0.1;"/>
            <!-- Polyline -->
            <path d="M1726.3751,99.9216 L1726.3751,179.9216 L1766.3751,179.9216 L1766.3751,99.9216 Z" style="stroke:#000000;stroke-width:0.1;"/>
            <!-- Polyline -->
            <path d="M1726.3751,179.9216 L1726.3751,819.9216 L1766.3751,819.9216 L1766.3751,179.9216 Z" style="stroke:#000000;stroke-width:0.1;"/>
        </g>
    </g>
</svg>

