<?xml version="1.0" encoding="UTF-8"?>
<!-- 2026-03-10 13:42:46 Generated by QCAD 3.32.6 SVG Exporter -->
<svg  width="486.9557mm" height="451.4248mm" viewBox="-41.5359 -383.9425 486.9557 451.4248" version="1.1" xmlns="http://www.w3.org/2000/svg" style="stroke-linecap:round;stroke-linejoin:round;">
    <g transform="scale(1,-1)">
            <!-- Auto-generated fillable area -->
            <!-- Block Reference: 300mm Round Coloumn / entities: 5 -->
        <g>
            <!-- Polyline -->
            <path d="M221.7034,383.9425 L221.7034,374.2301 M221.7034,371.9801 L221.7034,371.9801 M221.7034,369.7301 L221.7034,351.7301 M221.7034,349.4801 L221.7034,349.4801 M221.7034,347.2301 L221.7034,329.2301 M221.7034,326.9801 L221.7034,326.9801 M221.7034,324.7301 L221.7034,306.7301 M221.7034,304.4801 L221.7034,304.4801 M221.7034,302.2301 L221.7034,284.2301 M221.7034,281.9801 L221.7034,281.9801 M221.7034,279.7301 L221.7034,261.7301 M221.7034,259.4801 L221.7034,259.4801 M221.7034,257.2301 L221.7034,239.2301 M221.7034,236.9801 L221.7034,236.9801 M221.7034,234.7301 L221.7034,216.7301 M221.7034,214.4801 L221.7034,214.4801 M221.7034,212.2301 L221.7034,194.2301 M221.7034,191.9801 L221.7034,191.9801 M221.7034,189.7301 L221.7034,171.7301 M221.7034,169.4801 L221.7034,169.4801 M221.7034,167.2301 L221.7034,149.2301 M221.7034,146.9801 L221.7034,146.9801 M221.7034,144.7301 L221.7034,126.7301 M221.7034,124.4801 L221.7034,124.4801 M221.7034,122.2301 L221.7034,104.2301 M221.7034,101.9801 L221.7034,101.9801 M221.7034,99.7301 L221.7034,81.7301 M221.7034,79.4801 L221.7034,79.4801 M221.7034,77.2301 L221.7034,59.2301 M221.7034,56.9801 L221.7034,56.9801 M221.7034,54.7301 L221.7034,36.7301 M221.7034,34.4801 L221.7034,34.4801 M221.7034,32.2301 L221.7034,14.2301 M221.7034,11.9801 L221.7034,11.9801 M221.7034,9.7301 L221.7034,-8.2699 M221.7034,-10.5199 L221.7034,-10.5199 M221.7034,-12.7699 L221.7034,-30.7699 M221.7034,-33.0199 L221.7034,-33.0199 M221.7034,-35.2699 L221.7034,-53.2699 M221.7034,-55.5199 L221.7034,-55.5199 M221.7034,-57.7699 L221.7034,-67.4823 " style="stroke:#000000;stroke-width:0.15;"/>
            <!-- Polyline -->
            <path d="M-41.5359,197.2838 L-25.308,197.2838 M-23.058,197.2838 L-23.058,197.2838 M-20.808,197.2838 L-2.808,197.2838 M-0.558,197.2838 L-0.558,197.2838 M1.692,197.2838 L19.692,197.2838 M21.942,197.2838 L21.942,197.2838 M24.192,197.2838 L42.192,197.2838 M44.442,197.2838 L44.442,197.2838 M46.692,197.2838 L64.692,197.2838 M66.942,197.2838 L66.942,197.2838 M69.192,197.2838 L87.192,197.2838 M89.442,197.2838 L89.442,197.2838 M91.692,197.2838 L109.692,197.2838 M111.942,197.2838 L111.942,197.2838 M114.192,197.2838 L132.192,197.2838 M134.442,197.2838 L134.442,197.2838 M136.692,197.2838 L154.692,197.2838 M156.942,197.2838 L156.942,197.2838 M159.192,197.2838 L177.192,197.2838 M179.442,197.2838 L179.442,197.2838 M181.692,197.2838 L199.692,197.2838 M201.942,197.2838 L201.942,197.2838 M204.192,197.2838 L222.192,197.2838 M224.442,197.2838 L224.442,197.2838 M226.692,197.2838 L244.692,197.2838 M246.942,197.2838 L246.942,197.2838 M249.192,197.2838 L267.192,197.2838 M269.442,197.2838 L269.442,197.2838 M271.692,197.2838 L289.692,197.2838 M291.942,197.2838 L291.942,197.2838 M294.192,197.2838 L312.192,197.2838 M314.442,197.2838 L314.442,197.2838 M316.692,197.2838 L334.692,197.2838 M336.942,197.2838 L336.942,197.2838 M339.192,197.2838 L357.192,197.2838 M359.442,197.2838 L359.442,197.2838 M361.692,197.2838 L379.692,197.2838 M381.942,197.2838 L381.942,197.2838 M384.192,197.2838 L402.192,197.2838 M404.442,197.2838 L404.442,197.2838 M406.692,197.2838 L424.692,197.2838 M426.942,197.2838 L426.942,197.2838 M429.192,197.2838 L445.4199,197.2838 " style="stroke:#000000;stroke-width:0.15;"/>
            <!-- Hatch -->
            <g>
                <path d="M271.6133,55.8306 L363.1565,147.3738" style="stroke:#000000;stroke-width:0.1;"/>
                <path d="M243.436,48.8665 L370.1207,175.5512" style="stroke:#000000;stroke-width:0.1;"/>
                <path d="M220.6438,47.2875 L267.7829,94.4267" style="stroke:#000000;stroke-width:0.1;"/>
                <path d="M324.5605,151.2042 L371.6996,198.3434" style="stroke:#000000;stroke-width:0.1;"/>
                <path d="M200.8794,48.7363 L237.8877,85.7446" style="stroke:#000000;stroke-width:0.1;"/>
                <path d="M333.2425,181.0995 L370.2509,218.1078" style="stroke:#000000;stroke-width:0.1;"/>
                <path d="M183.2313,52.3014 L215.6682,84.7383" style="stroke:#000000;stroke-width:0.1;"/>
                <path d="M334.2489,203.319 L366.6858,235.7559" style="stroke:#000000;stroke-width:0.1;"/>
                <path d="M167.2381,57.5214 L197.0276,87.311" style="stroke:#000000;stroke-width:0.1;"/>
                <path d="M331.6762,221.9595 L361.4658,251.7491" style="stroke:#000000;stroke-width:0.1;"/>
                <path d="M152.6349,64.1315 L180.7743,92.2708" style="stroke:#000000;stroke-width:0.1;"/>
                <path d="M326.7163,238.2129 L354.8557,266.3523" style="stroke:#000000;stroke-width:0.1;"/>
                <path d="M139.2613,71.971 L166.3795,99.0892" style="stroke:#000000;stroke-width:0.1;"/>
                <path d="M319.898,252.6077 L347.0162,279.7259" style="stroke:#000000;stroke-width:0.1;"/>
                <path d="M127.0203,80.9433 L153.5752,107.4981" style="stroke:#000000;stroke-width:0.1;"/>
                <path d="M311.489,265.412 L338.0439,291.9668" style="stroke:#000000;stroke-width:0.1;"/>
                <path d="M115.8597,90.9959 L142.2298,117.3659" style="stroke:#000000;stroke-width:0.1;"/>
                <path d="M301.6212,276.7574 L327.9913,303.1274" style="stroke:#000000;stroke-width:0.1;"/>
                <path d="M105.7625,102.1118 L132.3023,128.6517" style="stroke:#000000;stroke-width:0.1;"/>
                <path d="M290.3355,286.6848 L316.8753,313.2247" style="stroke:#000000;stroke-width:0.1;"/>
                <path d="M96.7442,114.3067 L123.8304,141.3929" style="stroke:#000000;stroke-width:0.1;"/>
                <path d="M277.5942,295.1568 L304.6804,322.243" style="stroke:#000000;stroke-width:0.1;"/>
                <path d="M88.8556,127.6313 L116.9412,155.717" style="stroke:#000000;stroke-width:0.1;"/>
                <path d="M263.2702,302.046 L291.3558,330.1316" style="stroke:#000000;stroke-width:0.1;"/>
                <path d="M82.1913,142.1803 L111.8954,171.8844" style="stroke:#000000;stroke-width:0.1;"/>
                <path d="M247.1028,307.0917 L276.8069,336.7958" style="stroke:#000000;stroke-width:0.1;"/>
                <path d="M76.9087,158.1109 L109.2061,190.4082" style="stroke:#000000;stroke-width:0.1;"/>
                <path d="M228.5789,309.7811 L260.8763,342.0784" style="stroke:#000000;stroke-width:0.1;"/>
                <path d="M73.2669,175.6823 L110.0191,212.4345" style="stroke:#000000;stroke-width:0.1;"/>
                <path d="M206.5527,308.9681 L243.3049,345.7202" style="stroke:#000000;stroke-width:0.1;"/>
                <path d="M71.7159,195.3445 L118.1514,241.78" style="stroke:#000000;stroke-width:0.1;"/>
                <path d="M177.2072,300.8357 L223.6427,347.2713" style="stroke:#000000;stroke-width:0.1;"/>
                <path d="M73.138,217.9797 L201.0074,345.8492" style="stroke:#000000;stroke-width:0.1;"/>
                <path d="M79.7771,245.8321 L173.1551,339.2101" style="stroke:#000000;stroke-width:0.1;"/>
                <path d="M108.9985,296.2666 L122.7205,309.9887" style="stroke:#000000;stroke-width:0.1;"/>
            </g>
            <!-- Circle -->
            <circle cx="221.70336708752438" cy="197.28379926504567" r="150" style="stroke:#000000;stroke-width:0.4;"/>
            <!-- Circle -->
            <circle cx="221.70336708752438" cy="197.28379926504567" r="112.70721371675597" style="stroke:#000000;stroke-width:0.4;"/>
        </g>
    </g>
</svg>

