<?xml version="1.0" encoding="UTF-8"?>
<!-- 2026-03-10 13:41:57 Generated by QCAD 3.32.6 SVG Exporter -->
<svg  width="693.0905mm" height="694.728mm" viewBox="-10.4245 -691.264 693.0905 694.728" version="1.1" xmlns="http://www.w3.org/2000/svg" style="stroke-linecap:round;stroke-linejoin:round;">
    <g transform="scale(1,-1)">
            <!-- Auto-generated fillable area -->
            <!-- Block Reference: 600mm Square Coloumn / entities: 5 -->
        <g>
            <!-- Hatch -->
            <g>
                <path d="M621.849,44.9336 L627.2535,50.3381" style="stroke:#000000;stroke-width:0.15;"/>
                <path d="M598.2788,44.9336 L627.2535,73.9083" style="stroke:#000000;stroke-width:0.15;"/>
                <path d="M574.7086,44.9336 L627.2535,97.4785" style="stroke:#000000;stroke-width:0.15;"/>
                <path d="M551.1383,44.9336 L627.2535,121.0488" style="stroke:#000000;stroke-width:0.15;"/>
                <path d="M527.5681,44.9336 L627.2535,144.619" style="stroke:#000000;stroke-width:0.15;"/>
                <path d="M503.9979,44.9336 L563.5796,104.5153" style="stroke:#000000;stroke-width:0.15;"/>
                <path d="M567.6718,108.6075 L627.2535,168.1892" style="stroke:#000000;stroke-width:0.15;"/>
                <path d="M480.4276,44.9336 L540.0094,104.5153" style="stroke:#000000;stroke-width:0.15;"/>
                <path d="M567.6718,132.1777 L627.2535,191.7594" style="stroke:#000000;stroke-width:0.15;"/>
                <path d="M456.8574,44.9336 L516.4391,104.5153" style="stroke:#000000;stroke-width:0.15;"/>
                <path d="M567.6718,155.748 L627.2535,215.3297" style="stroke:#000000;stroke-width:0.15;"/>
                <path d="M433.2872,44.9336 L492.8689,104.5153" style="stroke:#000000;stroke-width:0.15;"/>
                <path d="M567.6718,179.3182 L627.2535,238.8999" style="stroke:#000000;stroke-width:0.15;"/>
                <path d="M409.717,44.9336 L469.2987,104.5153" style="stroke:#000000;stroke-width:0.15;"/>
                <path d="M567.6718,202.8884 L627.2535,262.4701" style="stroke:#000000;stroke-width:0.15;"/>
                <path d="M386.1467,44.9336 L445.7285,104.5153" style="stroke:#000000;stroke-width:0.15;"/>
                <path d="M567.6718,226.4586 L627.2535,286.0403" style="stroke:#000000;stroke-width:0.15;"/>
                <path d="M362.5765,44.9336 L422.1582,104.5153" style="stroke:#000000;stroke-width:0.15;"/>
                <path d="M567.6718,250.0289 L627.2535,309.6106" style="stroke:#000000;stroke-width:0.15;"/>
                <path d="M339.0063,44.9336 L398.588,104.5153" style="stroke:#000000;stroke-width:0.15;"/>
                <path d="M567.6718,273.5991 L627.2535,333.1808" style="stroke:#000000;stroke-width:0.15;"/>
                <path d="M315.4361,44.9336 L375.0178,104.5153" style="stroke:#000000;stroke-width:0.15;"/>
                <path d="M567.6718,297.1693 L627.2535,356.751" style="stroke:#000000;stroke-width:0.15;"/>
                <path d="M291.8658,44.9336 L351.4476,104.5153" style="stroke:#000000;stroke-width:0.15;"/>
                <path d="M567.6718,320.7395 L627.2535,380.3212" style="stroke:#000000;stroke-width:0.15;"/>
                <path d="M268.2956,44.9336 L327.8773,104.5153" style="stroke:#000000;stroke-width:0.15;"/>
                <path d="M567.6718,344.3098 L627.2535,403.8915" style="stroke:#000000;stroke-width:0.15;"/>
                <path d="M244.7254,44.9336 L304.3071,104.5153" style="stroke:#000000;stroke-width:0.15;"/>
                <path d="M567.6718,367.88 L627.2535,427.4617" style="stroke:#000000;stroke-width:0.15;"/>
                <path d="M221.1552,44.9336 L280.7369,104.5153" style="stroke:#000000;stroke-width:0.15;"/>
                <path d="M567.6718,391.4502 L627.2535,451.0319" style="stroke:#000000;stroke-width:0.15;"/>
                <path d="M197.5849,44.9336 L257.1666,104.5153" style="stroke:#000000;stroke-width:0.15;"/>
                <path d="M567.6718,415.0204 L627.2535,474.6021" style="stroke:#000000;stroke-width:0.15;"/>
                <path d="M174.0147,44.9336 L233.5964,104.5153" style="stroke:#000000;stroke-width:0.15;"/>
                <path d="M567.6718,438.5907 L627.2535,498.1724" style="stroke:#000000;stroke-width:0.15;"/>
                <path d="M150.4445,44.9336 L210.0262,104.5153" style="stroke:#000000;stroke-width:0.15;"/>
                <path d="M567.6718,462.1609 L627.2535,521.7426" style="stroke:#000000;stroke-width:0.15;"/>
                <path d="M126.8743,44.9336 L186.456,104.5153" style="stroke:#000000;stroke-width:0.15;"/>
                <path d="M567.6718,485.7311 L627.2535,545.3128" style="stroke:#000000;stroke-width:0.15;"/>
                <path d="M103.304,44.9336 L162.8857,104.5153" style="stroke:#000000;stroke-width:0.15;"/>
                <path d="M567.6718,509.3013 L627.2535,568.8831" style="stroke:#000000;stroke-width:0.15;"/>
                <path d="M79.7338,44.9336 L139.3155,104.5153" style="stroke:#000000;stroke-width:0.15;"/>
                <path d="M567.6718,532.8716 L627.2535,592.4533" style="stroke:#000000;stroke-width:0.15;"/>
                <path d="M56.1636,44.9336 L115.7453,104.5153" style="stroke:#000000;stroke-width:0.15;"/>
                <path d="M567.6718,556.4418 L627.2535,616.0235" style="stroke:#000000;stroke-width:0.15;"/>
                <path d="M32.5934,44.9336 L92.1751,104.5153" style="stroke:#000000;stroke-width:0.15;"/>
                <path d="M567.6718,580.012 L627.2535,639.5937" style="stroke:#000000;stroke-width:0.15;"/>
                <path d="M27.2535,63.164 L86.8352,122.7457" style="stroke:#000000;stroke-width:0.15;"/>
                <path d="M549.4414,585.3519 L609.0231,644.9336" style="stroke:#000000;stroke-width:0.15;"/>
                <path d="M27.2535,86.7342 L86.8352,146.3159" style="stroke:#000000;stroke-width:0.15;"/>
                <path d="M525.8712,585.3519 L585.4529,644.9336" style="stroke:#000000;stroke-width:0.15;"/>
                <path d="M27.2535,110.3044 L86.8352,169.8861" style="stroke:#000000;stroke-width:0.15;"/>
                <path d="M502.301,585.3519 L561.8827,644.9336" style="stroke:#000000;stroke-width:0.15;"/>
                <path d="M27.2535,133.8746 L86.8352,193.4563" style="stroke:#000000;stroke-width:0.15;"/>
                <path d="M478.7307,585.3519 L538.3124,644.9336" style="stroke:#000000;stroke-width:0.15;"/>
                <path d="M27.2535,157.4449 L86.8352,217.0266" style="stroke:#000000;stroke-width:0.15;"/>
                <path d="M455.1605,585.3519 L514.7422,644.9336" style="stroke:#000000;stroke-width:0.15;"/>
                <path d="M27.2535,181.0151 L86.8352,240.5968" style="stroke:#000000;stroke-width:0.15;"/>
                <path d="M431.5903,585.3519 L491.172,644.9336" style="stroke:#000000;stroke-width:0.15;"/>
                <path d="M27.2535,204.5853 L86.8352,264.167" style="stroke:#000000;stroke-width:0.15;"/>
                <path d="M408.0201,585.3519 L467.6018,644.9336" style="stroke:#000000;stroke-width:0.15;"/>
                <path d="M27.2535,228.1555 L86.8352,287.7373" style="stroke:#000000;stroke-width:0.15;"/>
                <path d="M384.4498,585.3519 L444.0315,644.9336" style="stroke:#000000;stroke-width:0.15;"/>
                <path d="M27.2535,251.7258 L86.8352,311.3075" style="stroke:#000000;stroke-width:0.15;"/>
                <path d="M360.8796,585.3519 L420.4613,644.9336" style="stroke:#000000;stroke-width:0.15;"/>
                <path d="M27.2535,275.296 L86.8352,334.8777" style="stroke:#000000;stroke-width:0.15;"/>
                <path d="M337.3094,585.3519 L396.8911,644.9336" style="stroke:#000000;stroke-width:0.15;"/>
                <path d="M27.2535,298.8662 L86.8352,358.4479" style="stroke:#000000;stroke-width:0.15;"/>
                <path d="M313.7392,585.3519 L373.3209,644.9336" style="stroke:#000000;stroke-width:0.15;"/>
                <path d="M27.2535,322.4364 L86.8352,382.0182" style="stroke:#000000;stroke-width:0.15;"/>
                <path d="M290.1689,585.3519 L349.7506,644.9336" style="stroke:#000000;stroke-width:0.15;"/>
                <path d="M27.2535,346.0067 L86.8352,405.5884" style="stroke:#000000;stroke-width:0.15;"/>
                <path d="M266.5987,585.3519 L326.1804,644.9336" style="stroke:#000000;stroke-width:0.15;"/>
                <path d="M27.2535,369.5769 L86.8352,429.1586" style="stroke:#000000;stroke-width:0.15;"/>
                <path d="M243.0285,585.3519 L302.6102,644.9336" style="stroke:#000000;stroke-width:0.15;"/>
                <path d="M27.2535,393.1471 L86.8352,452.7288" style="stroke:#000000;stroke-width:0.15;"/>
                <path d="M219.4583,585.3519 L279.04,644.9336" style="stroke:#000000;stroke-width:0.15;"/>
                <path d="M27.2535,416.7173 L86.8352,476.2991" style="stroke:#000000;stroke-width:0.15;"/>
                <path d="M195.888,585.3519 L255.4697,644.9336" style="stroke:#000000;stroke-width:0.15;"/>
                <path d="M27.2535,440.2876 L86.8352,499.8693" style="stroke:#000000;stroke-width:0.15;"/>
                <path d="M172.3178,585.3519 L231.8995,644.9336" style="stroke:#000000;stroke-width:0.15;"/>
                <path d="M27.2535,463.8578 L86.8352,523.4395" style="stroke:#000000;stroke-width:0.15;"/>
                <path d="M148.7476,585.3519 L208.3293,644.9336" style="stroke:#000000;stroke-width:0.15;"/>
                <path d="M27.2535,487.428 L86.8352,547.0097" style="stroke:#000000;stroke-width:0.15;"/>
                <path d="M125.1773,585.3519 L184.7591,644.9336" style="stroke:#000000;stroke-width:0.15;"/>
                <path d="M27.2535,510.9983 L86.8352,570.58" style="stroke:#000000;stroke-width:0.15;"/>
                <path d="M101.6071,585.3519 L161.1888,644.9336" style="stroke:#000000;stroke-width:0.15;"/>
                <path d="M27.2535,534.5685 L137.6186,644.9336" style="stroke:#000000;stroke-width:0.15;"/>
                <path d="M27.2535,558.1387 L114.0484,644.9336" style="stroke:#000000;stroke-width:0.15;"/>
                <path d="M27.2535,581.7089 L90.4782,644.9336" style="stroke:#000000;stroke-width:0.15;"/>
                <path d="M27.2535,605.2792 L66.9079,644.9336" style="stroke:#000000;stroke-width:0.15;"/>
                <path d="M27.2535,628.8494 L43.3377,644.9336" style="stroke:#000000;stroke-width:0.15;"/>
            </g>
            <!-- Polyline -->
            <path d="M327.2535,44.9336 L27.2535,44.9336 L27.2535,344.9336 L27.2535,644.9336 L327.2535,644.9336 L627.2535,644.9336 L627.2535,344.9336 L627.2535,44.9336 Z" style="stroke:#000000;stroke-width:0.3;"/>
            <!-- Polyline -->
            <path d="M327.2535,104.5153 L86.8352,104.5153 L86.8352,344.9336 L86.8352,585.3519 L327.2535,585.3519 L567.6718,585.3519 L567.6718,344.9336 L567.6718,104.5153 Z" style="stroke:#000000;stroke-width:0.3;"/>
            <!-- Polyline -->
            <path d="M-10.4245,344.9336 L-3.6293,344.9336 M-1.3793,344.9336 L-1.3793,344.9336 M0.8707,344.9336 L18.8707,344.9336 M21.1207,344.9336 L21.1207,344.9336 M23.3707,344.9336 L41.3707,344.9336 M43.6207,344.9336 L43.6207,344.9336 M45.8707,344.9336 L63.8707,344.9336 M66.1207,344.9336 L66.1207,344.9336 M68.3707,344.9336 L86.3707,344.9336 M88.6207,344.9336 L88.6207,344.9336 M90.8707,344.9336 L108.8707,344.9336 M111.1207,344.9336 L111.1207,344.9336 M113.3707,344.9336 L131.3707,344.9336 M133.6207,344.9336 L133.6207,344.9336 M135.8707,344.9336 L153.8707,344.9336 M156.1207,344.9336 L156.1207,344.9336 M158.3707,344.9336 L176.3707,344.9336 M178.6207,344.9336 L178.6207,344.9336 M180.8707,344.9336 L198.8707,344.9336 M201.1207,344.9336 L201.1207,344.9336 M203.3707,344.9336 L221.3707,344.9336 M223.6207,344.9336 L223.6207,344.9336 M225.8707,344.9336 L243.8707,344.9336 M246.1207,344.9336 L246.1207,344.9336 M248.3707,344.9336 L266.3707,344.9336 M268.6207,344.9336 L268.6207,344.9336 M270.8707,344.9336 L288.8707,344.9336 M291.1207,344.9336 L291.1207,344.9336 M293.3707,344.9336 L311.3707,344.9336 M313.6207,344.9336 L313.6207,344.9336 M315.8707,344.9336 L333.8707,344.9336 M336.1207,344.9336 L336.1207,344.9336 M338.3707,344.9336 L356.3707,344.9336 M358.6207,344.9336 L358.6207,344.9336 M360.8707,344.9336 L378.8707,344.9336 M381.1207,344.9336 L381.1207,344.9336 M383.3707,344.9336 L401.3707,344.9336 M403.6207,344.9336 L403.6207,344.9336 M405.8707,344.9336 L423.8707,344.9336 M426.1207,344.9336 L426.1207,344.9336 M428.3707,344.9336 L446.3707,344.9336 M448.6207,344.9336 L448.6207,344.9336 M450.8707,344.9336 L468.8707,344.9336 M471.1207,344.9336 L471.1207,344.9336 M473.3707,344.9336 L491.3707,344.9336 M493.6207,344.9336 L493.6207,344.9336 M495.8707,344.9336 L513.8707,344.9336 M516.1207,344.9336 L516.1207,344.9336 M518.3707,344.9336 L536.3707,344.9336 M538.6207,344.9336 L538.6207,344.9336 M540.8707,344.9336 L558.8707,344.9336 M561.1207,344.9336 L561.1207,344.9336 M563.3707,344.9336 L581.3707,344.9336 M583.6207,344.9336 L583.6207,344.9336 M585.8707,344.9336 L603.8707,344.9336 M606.1207,344.9336 L606.1207,344.9336 M608.3707,344.9336 L626.3707,344.9336 M628.6207,344.9336 L628.6207,344.9336 M630.8707,344.9336 L648.8707,344.9336 M651.1207,344.9336 L651.1207,344.9336 M653.3707,344.9336 L671.3707,344.9336 M673.6207,344.9336 L673.6207,344.9336 M675.8707,344.9336 L682.666,344.9336 L682.666,344.9336 " style="stroke:#000000;stroke-width:0.15;"/>
            <!-- Polyline -->
            <path d="M327.2535,691.264 L327.2535,683.65 M327.2535,681.4 L327.2535,681.4 M327.2535,679.15 L327.2535,661.15 M327.2535,658.9 L327.2535,658.9 M327.2535,656.65 L327.2535,638.65 M327.2535,636.4 L327.2535,636.4 M327.2535,634.15 L327.2535,616.15 M327.2535,613.9 L327.2535,613.9 M327.2535,611.65 L327.2535,593.65 M327.2535,591.4 L327.2535,591.4 M327.2535,589.15 L327.2535,571.15 M327.2535,568.9 L327.2535,568.9 M327.2535,566.65 L327.2535,548.65 M327.2535,546.4 L327.2535,546.4 M327.2535,544.15 L327.2535,526.15 M327.2535,523.9 L327.2535,523.9 M327.2535,521.65 L327.2535,503.65 M327.2535,501.4 L327.2535,501.4 M327.2535,499.15 L327.2535,481.15 M327.2535,478.9 L327.2535,478.9 M327.2535,476.65 L327.2535,458.65 M327.2535,456.4 L327.2535,456.4 M327.2535,454.15 L327.2535,436.15 M327.2535,433.9 L327.2535,433.9 M327.2535,431.65 L327.2535,413.65 M327.2535,411.4 L327.2535,411.4 M327.2535,409.15 L327.2535,391.15 M327.2535,388.9 L327.2535,388.9 M327.2535,386.65 L327.2535,368.65 M327.2535,366.4 L327.2535,366.4 M327.2535,364.15 L327.2535,346.15 M327.2535,343.9 L327.2535,343.9 M327.2535,341.65 L327.2535,323.65 M327.2535,321.4 L327.2535,321.4 M327.2535,319.15 L327.2535,301.15 M327.2535,298.9 L327.2535,298.9 M327.2535,296.65 L327.2535,278.65 M327.2535,276.4 L327.2535,276.4 M327.2535,274.15 L327.2535,256.15 M327.2535,253.9 L327.2535,253.9 M327.2535,251.65 L327.2535,233.65 M327.2535,231.4 L327.2535,231.4 M327.2535,229.15 L327.2535,211.15 M327.2535,208.9 L327.2535,208.9 M327.2535,206.65 L327.2535,188.65 M327.2535,186.4 L327.2535,186.4 M327.2535,184.15 L327.2535,166.15 M327.2535,163.9 L327.2535,163.9 M327.2535,161.65 L327.2535,143.65 M327.2535,141.4 L327.2535,141.4 M327.2535,139.15 L327.2535,121.15 M327.2535,118.9 L327.2535,118.9 M327.2535,116.65 L327.2535,98.65 M327.2535,96.4 L327.2535,96.4 M327.2535,94.15 L327.2535,76.15 M327.2535,73.9 L327.2535,73.9 M327.2535,71.65 L327.2535,53.65 M327.2535,51.4 L327.2535,51.4 M327.2535,49.15 L327.2535,31.15 M327.2535,28.9 L327.2535,28.9 M327.2535,26.65 L327.2535,8.65 M327.2535,6.4 L327.2535,6.4 M327.2535,4.15 L327.2535,-3.464 " style="stroke:#000000;stroke-width:0.15;"/>
        </g>
    </g>
</svg>

