<?xml version="1.0" encoding="UTF-8"?>
<!-- 2026-03-10 13:49:31 Generated by QCAD 3.32.6 SVG Exporter -->
<svg  width="700mm" height="720mm" viewBox="-0.7095 -720.2341 700 720" version="1.1" xmlns="http://www.w3.org/2000/svg" style="stroke-linecap:round;stroke-linejoin:round;">
    <g transform="scale(1,-1)">
            <!-- Auto-generated fillable area -->
            <!-- Block Reference: A$C7AF54601 / entities: 6 -->
        <g>
            <!-- Arc -->
            <path d="M619.2905,720.2341 A621.3793,621.3793 0 0,1 617.8998,720.1397M617.1079,720.0846 A621.3793,621.3793 0 0,1 615.5245,719.9713M614.7329,719.9131 A621.3793,621.3793 0 0,1 613.1499,719.7937M612.3585,719.7325 A621.3793,621.3793 0 0,1 610.7759,719.6071M609.9848,719.5428 A621.3793,621.3793 0 0,1 608.4028,719.4113M607.6119,719.3441 A621.3793,621.3793 0 0,1 606.0303,719.2065M605.2397,719.1362 A621.3793,621.3793 0 0,1 603.6587,718.9925M602.8684,718.9192 A621.3793,621.3793 0 0,1 601.2879,718.7695M600.4979,718.6932 A621.3793,621.3793 0 0,1 598.918,718.5374M598.1283,718.458 A621.3793,621.3793 0 0,1 596.549,718.2962M595.7596,718.2138 A621.3793,621.3793 0 0,1 594.181,718.046M593.3918,717.9605 A621.3793,621.3793 0 0,1 591.8139,717.7866M591.0251,717.6982 A621.3793,621.3793 0 0,1 589.4478,717.5182M588.6593,717.4268 A621.3793,621.3793 0 0,1 587.0828,717.2408M586.2947,717.1463 A621.3793,621.3793 0 0,1 584.7188,716.9542M583.9311,716.8567 A621.3793,621.3793 0 0,1 582.356,716.6587M581.5686,716.5581 A621.3793,621.3793 0 0,1 579.9943,716.354M579.2074,716.2505 A621.3793,621.3793 0 0,1 577.6338,716.0403M576.8473,715.9337 A621.3793,621.3793 0 0,1 575.2745,715.7176M574.4884,715.608 A621.3793,621.3793 0 0,1 572.9165,715.3858M572.1308,715.2732 A621.3793,621.3793 0 0,1 570.5598,715.045M569.7745,714.9294 A621.3793,621.3793 0 0,1 568.2044,714.6952M567.4195,714.5766 A621.3793,621.3793 0 0,1 565.8503,714.3363M565.0659,714.2147 A621.3793,621.3793 0 0,1 563.4977,713.9684M562.7138,713.8438 A621.3793,621.3793 0 0,1 561.1464,713.5916M560.363,713.4639 A621.3793,621.3793 0 0,1 558.7967,713.2057M558.0137,713.075 A621.3793,621.3793 0 0,1 556.4484,712.8108M555.666,712.6771 A621.3793,621.3793 0 0,1 554.1016,712.4069M553.3197,712.2702 A621.3793,621.3793 0 0,1 551.7565,711.994M550.9751,711.8544 A621.3793,621.3793 0 0,1 549.4129,711.5721M548.632,711.4295 A621.3793,621.3793 0 0,1 547.0709,711.1413M546.2906,710.9957 A621.3793,621.3793 0 0,1 544.7306,710.7015M543.9509,710.5529 A621.3793,621.3793 0 0,1 542.3921,710.2527M541.6129,710.1011 A621.3793,621.3793 0 0,1 540.0552,709.7949M539.2767,709.6404 A621.3793,621.3793 0 0,1 537.7202,709.3282M536.9422,709.1707 A621.3793,621.3793 0 0,1 535.3869,708.8526M534.6096,708.6921 A621.3793,621.3793 0 0,1 533.0555,708.368M532.2788,708.2045 A621.3793,621.3793 0 0,1 530.7259,707.8745M529.9498,707.708 A621.3793,621.3793 0 0,1 528.3983,707.3721M527.6228,707.2026 A621.3793,621.3793 0 0,1 526.0726,706.8607M525.2978,706.6883 A621.3793,621.3793 0 0,1 523.7489,706.3405M522.9747,706.1651 A621.3793,621.3793 0 0,1 521.4272,705.8113M520.6537,705.633 A621.3793,621.3793 0 0,1 519.1075,705.2733M518.3347,705.0919 A621.3793,621.3793 0 0,1 516.7899,704.7263M516.0179,704.542 A621.3793,621.3793 0 0,1 514.4744,704.1705M513.7031,703.9833 A621.3793,621.3793 0 0,1 512.1611,703.6058M511.3905,703.4156 A621.3793,621.3793 0 0,1 509.85,703.0323M509.0801,702.8391 A621.3793,621.3793 0 0,1 507.541,702.4499M506.7719,702.2538 A621.3793,621.3793 0 0,1 505.2344,701.8586M504.466,701.6596 A621.3793,621.3793 0 0,1 502.93,701.2586M502.1623,701.0566 A621.3793,621.3793 0 0,1 500.6279,700.6497M499.861,700.4447 A621.3793,621.3793 0 0,1 498.3281,700.0319M497.5621,699.8241 A621.3793,621.3793 0 0,1 496.0308,699.4054M495.2655,699.1946 A621.3793,621.3793 0 0,1 493.7359,698.7701M492.9714,698.5564 A621.3793,621.3793 0 0,1 491.4434,698.126M490.6798,697.9093 A621.3793,621.3793 0 0,1 489.1534,697.4731M488.3906,697.2535 A621.3793,621.3793 0 0,1 486.8659,696.8114M486.104,696.5889 A621.3793,621.3793 0 0,1 484.581,696.141M483.8199,695.9156 A621.3793,621.3793 0 0,1 482.2987,695.4618M481.5385,695.2335 A621.3793,621.3793 0 0,1 480.0189,694.7739M479.2596,694.5426 A621.3793,621.3793 0 0,1 477.7419,694.0772M476.9835,693.8431 A621.3793,621.3793 0 0,1 475.4675,693.3718M474.71,693.1348 A621.3793,621.3793 0 0,1 473.1958,692.6578M472.4392,692.4178 A621.3793,621.3793 0 0,1 470.9269,691.935M470.1713,691.6921 A621.3793,621.3793 0 0,1 468.6608,691.2035M467.9061,690.9577 A621.3793,621.3793 0 0,1 466.3975,690.4633M465.6437,690.2147 A621.3793,621.3793 0 0,1 464.1371,689.7145M463.3842,689.463 A621.3793,621.3793 0 0,1 461.8795,688.957M461.1277,688.7026 A621.3793,621.3793 0 0,1 459.6249,688.1909M458.874,687.9336 A621.3793,621.3793 0 0,1 457.3732,687.4162M456.6233,687.156 A621.3793,621.3793 0 0,1 455.1245,686.6328M454.3756,686.3697 A621.3793,621.3793 0 0,1 452.8788,685.8408M452.1309,685.5749 A621.3793,621.3793 0 0,1 450.6362,685.0402M449.8893,684.7714 A621.3793,621.3793 0 0,1 448.3966,684.231M447.6508,683.9594 A621.3793,621.3793 0 0,1 446.1602,683.4132M445.4154,683.1387 A621.3793,621.3793 0 0,1 443.9269,682.5869M443.1832,682.3096 A621.3793,621.3793 0 0,1 441.6968,681.752M440.9542,681.4718 A621.3793,621.3793 0 0,1 439.47,680.9086M438.7284,680.6256 A621.3793,621.3793 0 0,1 437.2463,680.0567M436.5058,679.7708 A621.3793,621.3793 0 0,1 435.026,679.1962M434.2866,678.9075 A621.3793,621.3793 0 0,1 432.8089,678.3273M432.0707,678.0357 A621.3793,621.3793 0 0,1 430.5953,677.4498M429.8581,677.1554 A621.3793,621.3793 0 0,1 428.3849,676.5639M427.6489,676.2667 A621.3793,621.3793 0 0,1 426.178,675.6695M425.4432,675.3695 A621.3793,621.3793 0 0,1 423.9746,674.7666M423.2409,674.4638 A621.3793,621.3793 0 0,1 421.7746,673.8554M421.0421,673.5497 A621.3793,621.3793 0 0,1 419.5781,672.9357M418.8468,672.6272 A621.3793,621.3793 0 0,1 417.3852,672.0075M416.655,671.6963 A621.3793,621.3793 0 0,1 415.1958,671.071M414.4669,670.757 A621.3793,621.3793 0 0,1 413.0101,670.1261M412.2823,669.8093 A621.3793,621.3793 0 0,1 410.828,669.1729M410.1014,668.8533 A621.3793,621.3793 0 0,1 408.6495,668.2113M407.9242,667.8889 A621.3793,621.3793 0 0,1 406.4748,667.2413M405.7507,666.9161 A621.3793,621.3793 0 0,1 404.3038,666.263M403.5809,665.9351 A621.3793,621.3793 0 0,1 402.1365,665.2764M401.4149,664.9457 A621.3793,621.3793 0 0,1 399.9731,664.2815M399.2528,663.948 A621.3793,621.3793 0 0,1 397.8134,663.2783M397.0944,662.9421 A621.3793,621.3793 0 0,1 395.6577,662.2669M394.94,661.9279 A621.3793,621.3793 0 0,1 393.5058,661.2472M392.7894,660.9054 A621.3793,621.3793 0 0,1 391.3579,660.2192M390.6428,659.8748 A621.3793,621.3793 0 0,1 389.2139,659.1831M388.5001,658.8358 A621.3793,621.3793 0 0,1 387.0739,658.1387M386.3614,657.7887 A621.3793,621.3793 0 0,1 384.9379,657.0861M384.2268,656.7334 A621.3793,621.3793 0 0,1 382.8059,656.0254M382.0962,655.67 A621.3793,621.3793 0 0,1 380.6781,654.9565M379.9697,654.5983 A621.3793,621.3793 0 0,1 378.5543,653.8794M377.8473,653.5186 A621.3793,621.3793 0 0,1 376.4347,652.7942M375.7291,652.4307 A621.3793,621.3793 0 0,1 374.3193,651.7009M373.6151,651.3347 A621.3793,621.3793 0 0,1 372.2081,650.5995M371.5053,650.2306 A621.3793,621.3793 0 0,1 370.1011,649.49M369.3997,649.1184 A621.3793,621.3793 0 0,1 367.9984,648.3725M367.2984,647.9982 A621.3793,621.3793 0 0,1 365.8999,647.2469M365.2014,646.8699 A621.3793,621.3793 0 0,1 363.8059,646.1133M363.1088,645.7336 A621.3793,621.3793 0 0,1 361.7161,644.9716M361.0205,644.5893 A621.3793,621.3793 0 0,1 359.6308,643.822M358.9366,643.437 A621.3793,621.3793 0 0,1 357.5499,642.6643M356.8572,642.2767 A621.3793,621.3793 0 0,1 355.4734,641.4987M354.7822,641.1084 A621.3793,621.3793 0 0,1 353.4014,640.3252M352.7117,639.9323 A621.3793,621.3793 0 0,1 351.3339,639.1437M350.6458,638.7481 A621.3793,621.3793 0 0,1 349.271,637.9543M348.5844,637.5561 A621.3793,621.3793 0 0,1 347.2126,636.757M346.5275,636.3562 A621.3793,621.3793 0 0,1 345.1589,635.5519M344.4753,635.1484 A621.3793,621.3793 0 0,1 343.1098,634.3388M342.4277,633.9328 A621.3793,621.3793 0 0,1 341.0653,633.118M340.3848,632.7093 A621.3793,621.3793 0 0,1 339.0255,631.8893M338.3467,631.478 A621.3793,621.3793 0 0,1 336.9905,630.6528M336.3132,630.2389 A621.3793,621.3793 0 0,1 334.9602,629.4085M334.2845,628.992 A621.3793,621.3793 0 0,1 332.9347,628.1564M332.2606,627.7373 A621.3793,621.3793 0 0,1 330.914,626.8966M330.2415,626.4749 A621.3793,621.3793 0 0,1 328.8981,625.629M328.2273,625.2048 A621.3793,621.3793 0 0,1 326.8872,624.3538M326.2179,623.927 A621.3793,621.3793 0 0,1 324.8811,623.0708M324.2135,622.6414 A621.3793,621.3793 0 0,1 322.8799,621.7801M322.214,621.3482 A621.3793,621.3793 0 0,1 320.8838,620.4818M320.2195,620.0474 A621.3793,621.3793 0 0,1 318.8926,619.1759M318.23,618.7389 A621.3793,621.3793 0 0,1 316.9064,617.8623M316.2455,617.4228 A621.3793,621.3793 0 0,1 314.9253,616.5412M314.266,616.0991 A621.3793,621.3793 0 0,1 312.9492,615.2124M312.2917,614.7678 A621.3793,621.3793 0 0,1 310.9783,613.8761M310.3224,613.429 A621.3793,621.3793 0 0,1 309.0125,612.5322M308.3584,612.0826 A621.3793,621.3793 0 0,1 307.0518,611.1809M306.3994,610.7287 A621.3793,621.3793 0 0,1 305.0964,609.822M304.4457,609.3674 A621.3793,621.3793 0 0,1 303.1462,608.4556M302.4972,607.9985 A621.3793,621.3793 0 0,1 301.2012,607.0818M300.554,606.6222 A621.3793,621.3793 0 0,1 299.2615,605.7005M298.6161,605.2384 A621.3793,621.3793 0 0,1 297.3271,604.3118M296.6835,603.8473 A621.3793,621.3793 0 0,1 295.398,602.9157M294.7562,602.4487 A621.3793,621.3793 0 0,1 293.4744,601.5122M292.8343,601.0428 A621.3793,621.3793 0 0,1 291.5561,600.1014M290.9178,599.6295 A621.3793,621.3793 0 0,1 289.6432,598.6832M289.0068,598.2088 A621.3793,621.3793 0 0,1 287.7357,597.2577M287.1012,596.7809 A621.3793,621.3793 0 0,1 285.8338,595.8249M285.201,595.3457 A621.3793,621.3793 0 0,1 283.9374,594.3848M283.3064,593.9032 A621.3793,621.3793 0 0,1 282.0464,592.9375M281.4174,592.4534 A621.3793,621.3793 0 0,1 280.1611,591.4829M279.5339,590.9964 A621.3793,621.3793 0 0,1 278.2813,590.0211M277.656,589.5322 A621.3793,621.3793 0 0,1 276.4072,588.5521M275.7837,588.0609 A621.3793,621.3793 0 0,1 274.5387,587.076M273.9171,586.5823 A621.3793,621.3793 0 0,1 272.6758,585.5927M272.0561,585.0966 A621.3793,621.3793 0 0,1 270.8187,584.1022M270.2009,583.6038 A621.3793,621.3793 0 0,1 268.9673,582.6047M268.3514,582.1039 A621.3793,621.3793 0 0,1 267.1216,581.1001M266.5077,580.597 A621.3793,621.3793 0 0,1 265.2817,579.5884M264.6697,579.0829 A621.3793,621.3793 0 0,1 263.4477,578.0697M262.8376,577.5619 A621.3793,621.3793 0 0,1 261.6194,576.5439M261.0113,576.0338 A621.3793,621.3793 0 0,1 259.797,575.0112M259.1909,574.4987 A621.3793,621.3793 0 0,1 257.9806,573.4715M257.3764,572.9567 A621.3793,621.3793 0 0,1 256.17,571.9248M255.5678,571.4077 A621.3793,621.3793 0 0,1 254.3653,570.3712M253.7651,569.8518 A621.3793,621.3793 0 0,1 252.5667,568.8108M251.9684,568.2891 A621.3793,621.3793 0 0,1 250.774,567.2434M250.1778,566.7194 A621.3793,621.3793 0 0,1 248.9873,565.6692M248.3931,565.1429 A621.3793,621.3793 0 0,1 247.2067,564.0881M246.6145,563.5596 A621.3793,621.3793 0 0,1 245.4322,562.5002M244.842,561.9694 A621.3793,621.3793 0 0,1 243.6637,560.9056M243.0756,560.3725 A621.3793,621.3793 0 0,1 241.9014,559.3041M241.3153,558.7688 A621.3793,621.3793 0 0,1 240.1452,557.696M239.5612,557.1584 A621.3793,621.3793 0 0,1 238.3952,556.0811M237.8133,555.5413 A621.3793,621.3793 0 0,1 236.6515,554.4595M236.0716,553.9175 A621.3793,621.3793 0 0,1 234.9139,552.8312M234.3361,552.287 A621.3793,621.3793 0 0,1 233.1826,551.1963M232.6069,550.6499 A621.3793,621.3793 0 0,1 231.4575,549.5548M230.8839,549.0062 A621.3793,621.3793 0 0,1 229.7388,547.9067M229.1673,547.3558 A621.3793,621.3793 0 0,1 228.0264,546.252M227.457,545.699 A621.3793,621.3793 0 0,1 226.3204,544.5907M225.7531,544.0355 A621.3793,621.3793 0 0,1 224.6207,542.923M224.0556,542.3656 A621.3793,621.3793 0 0,1 222.9274,541.2487M222.3644,540.6892 A621.3793,621.3793 0 0,1 221.2406,539.5679M220.6797,539.0063 A621.3793,621.3793 0 0,1 219.5602,537.8807M219.0015,537.3169 A621.3793,621.3793 0 0,1 217.8863,536.1871M217.3298,535.6211 A621.3793,621.3793 0 0,1 216.2189,534.4871M215.6645,533.919 A621.3793,621.3793 0 0,1 214.558,532.7807M214.0058,532.2104 A621.3793,621.3793 0 0,1 212.9037,531.0679M212.3537,530.4956 A621.3793,621.3793 0 0,1 211.2559,529.3488M210.7082,528.7744 A621.3793,621.3793 0 0,1 209.6148,527.6234M209.0692,527.0469 A621.3793,621.3793 0 0,1 207.9803,525.8918M207.4369,525.3131 A621.3793,621.3793 0 0,1 206.3524,524.1538M205.8112,523.5731 A621.3793,621.3793 0 0,1 204.7312,522.4097M204.1923,521.8269 A621.3793,621.3793 0 0,1 203.1167,520.6593M202.58,520.0745 A621.3793,621.3793 0 0,1 201.5089,518.9028M200.9745,518.316 A621.3793,621.3793 0 0,1 199.9078,517.1402M199.3757,516.5512 A621.3793,621.3793 0 0,1 198.3136,515.3714M197.7836,514.7804 A621.3793,621.3793 0 0,1 196.7261,513.5965M196.1984,513.0035 A621.3793,621.3793 0 0,1 195.1454,511.8155M194.62,511.2205 A621.3793,621.3793 0 0,1 193.5716,510.0285M193.0485,509.4315 A621.3793,621.3793 0 0,1 192.0046,508.2355M191.4838,507.6365 A621.3793,621.3793 0 0,1 190.4445,506.4365M189.926,505.8355 A621.3793,621.3793 0 0,1 188.8913,504.6315M188.3751,504.0285 A621.3793,621.3793 0 0,1 187.345,502.8206M186.8311,502.2157 A621.3793,621.3793 0 0,1 185.8057,501.0038M185.2941,500.3969 A621.3793,621.3793 0 0,1 184.2734,499.1811M183.7641,498.5722 A621.3793,621.3793 0 0,1 182.748,497.3525M182.2411,496.7417 A621.3793,621.3793 0 0,1 181.2297,495.5181M180.7252,494.9053 A621.3793,621.3793 0 0,1 179.7184,493.6779M179.2162,493.0632 A621.3793,621.3793 0 0,1 178.2142,491.8319M177.7144,491.2153 A621.3793,621.3793 0 0,1 176.7171,489.9802M176.2196,489.3616 A621.3793,621.3793 0 0,1 175.227,488.1227M174.7319,487.5023 A621.3793,621.3793 0 0,1 173.7441,486.2595M173.2514,485.6372 A621.3793,621.3793 0 0,1 172.2684,484.3907M171.7781,483.7665 A621.3793,621.3793 0 0,1 170.7998,482.5162M170.3119,481.8902 A621.3793,621.3793 0 0,1 169.3384,480.6362M168.8529,480.0082 A621.3793,621.3793 0 0,1 167.8843,478.7505M167.4012,478.1207 A621.3793,621.3793 0 0,1 166.4373,476.8593M165.9566,476.2276 A621.3793,621.3793 0 0,1 164.9977,474.9625M164.5194,474.329 A621.3793,621.3793 0 0,1 163.5653,473.0602M163.0894,472.4249 A621.3793,621.3793 0 0,1 162.1402,471.1525M161.6668,470.5154 A621.3793,621.3793 0 0,1 160.7224,469.2393M160.2515,468.6004 A621.3793,621.3793 0 0,1 159.312,467.3207M158.8435,466.68 A621.3793,621.3793 0 0,1 157.9089,465.3967M157.4429,464.7542 A621.3793,621.3793 0 0,1 156.5132,463.4674M156.0497,462.8231 A621.3793,621.3793 0 0,1 155.125,461.5327M154.6639,460.8866 A621.3793,621.3793 0 0,1 153.7441,459.5927M153.2855,458.9448 A621.3793,621.3793 0 0,1 152.3707,457.6474M151.9146,456.9978 A621.3793,621.3793 0 0,1 151.0048,455.6969M150.5511,455.0455 A621.3793,621.3793 0 0,1 149.6463,453.7411M149.1951,453.0881 A621.3793,621.3793 0 0,1 148.2953,451.7802M147.8467,451.1254 A621.3793,621.3793 0 0,1 146.9519,449.8141M146.5058,449.1576 A621.3793,621.3793 0 0,1 145.616,447.8429M145.1724,447.1847 A621.3793,621.3793 0 0,1 144.2877,445.8665M143.8466,445.2066 A621.3793,621.3793 0 0,1 142.967,443.8851M142.5284,443.2235 A621.3793,621.3793 0 0,1 141.6538,441.8987M141.2178,441.2354 A621.3793,621.3793 0 0,1 140.3483,439.9072M139.9149,439.2423 A621.3793,621.3793 0 0,1 139.0505,437.9107M138.6195,437.2441 A621.3793,621.3793 0 0,1 137.7602,435.9093M137.3319,435.2411 A621.3793,621.3793 0 0,1 136.4777,433.9029M136.0519,433.2331 A621.3793,621.3793 0 0,1 135.2029,431.8917M134.7796,431.2202 A621.3793,621.3793 0 0,1 133.9358,429.8756M133.5151,429.2024 A621.3793,621.3793 0 0,1 132.6764,427.8546M132.2583,427.1799 A621.3793,621.3793 0 0,1 131.4248,425.8288M131.0093,425.1525 A621.3793,621.3793 0 0,1 130.1809,423.7983M129.768,423.1204 A621.3793,621.3793 0 0,1 128.9448,421.763M128.5345,421.0835 A621.3793,621.3793 0 0,1 127.7166,419.7229M127.3089,419.0419 A621.3793,621.3793 0 0,1 126.4962,417.6782M126.0911,416.9956 A621.3793,621.3793 0 0,1 125.2836,415.6288M124.8811,414.9446 A621.3793,621.3793 0 0,1 124.0788,413.5748M123.679,412.8891 A621.3793,621.3793 0 0,1 122.882,411.5162M122.4848,410.8289 A621.3793,621.3793 0 0,1 121.6931,409.453M121.2985,408.7642 A621.3793,621.3793 0 0,1 120.512,407.3852M120.1201,406.695 A621.3793,621.3793 0 0,1 119.3389,405.313M118.9497,404.6213 A621.3793,621.3793 0 0,1 118.1738,403.2363M117.7872,402.543 A621.3793,621.3793 0 0,1 117.0166,401.1551M116.6327,400.4604 A621.3793,621.3793 0 0,1 115.8674,399.0695M115.4861,398.3733 A621.3793,621.3793 0 0,1 114.7262,396.9795M114.3476,396.2819 A621.3793,621.3793 0 0,1 113.593,394.8852M113.2171,394.1861 A621.3793,621.3793 0 0,1 112.4679,392.7865M112.0946,392.086 A621.3793,621.3793 0 0,1 111.3508,390.6836M110.9802,389.9816 A621.3793,621.3793 0 0,1 110.2418,388.5763M109.8739,387.873 A621.3793,621.3793 0 0,1 109.1409,386.4649M108.7757,385.7601 A621.3793,621.3793 0 0,1 108.048,384.3492M107.6855,383.6431 A621.3793,621.3793 0 0,1 106.9633,382.2294M106.6035,381.5218 A621.3793,621.3793 0 0,1 105.8867,380.1054M105.5296,379.3965 A621.3793,621.3793 0 0,1 104.8182,377.9773M104.4639,377.267 A621.3793,621.3793 0 0,1 103.758,375.8451M103.4063,375.1335 A621.3793,621.3793 0 0,1 102.7059,373.7089M102.357,372.9959 A621.3793,621.3793 0 0,1 101.6619,371.5687M101.3158,370.8544 A621.3793,621.3793 0 0,1 100.6262,369.4245M100.2828,368.7088 A621.3793,621.3793 0 0,1 99.5988,367.2763M99.2581,366.5594 A621.3793,621.3793 0 0,1 98.5795,365.1242M98.2416,364.406 A621.3793,621.3793 0 0,1 97.5685,362.9682M97.2334,362.2487 A621.3793,621.3793 0 0,1 96.5658,360.8084M96.2334,360.0876 A621.3793,621.3793 0 0,1 95.5714,358.6447M95.2418,357.9226 A621.3793,621.3793 0 0,1 94.5853,356.4772M94.2584,355.7539 A621.3793,621.3793 0 0,1 93.6075,354.306M93.2834,353.5814 A621.3793,621.3793 0 0,1 92.638,352.1311M92.3167,351.4053 A621.3793,621.3793 0 0,1 91.6768,349.9524M91.3583,349.2254 A621.3793,621.3793 0 0,1 90.724,347.7701M90.4083,347.0418 A621.3793,621.3793 0 0,1 89.7796,345.5841M89.4667,344.8547 A621.3793,621.3793 0 0,1 88.8436,343.3946M88.5334,342.6639 A621.3793,621.3793 0 0,1 87.9159,341.2014M87.6086,340.4696 A621.3793,621.3793 0 0,1 86.9967,339.0048M86.6922,338.2718 A621.3793,621.3793 0 0,1 86.0859,336.8046M85.7842,336.0704 A621.3793,621.3793 0 0,1 85.1836,334.6009M84.8846,333.8656 A621.3793,621.3793 0 0,1 84.2896,332.3938M83.9935,331.6574 A621.3793,621.3793 0 0,1 83.4042,330.1833M83.1109,329.4457 A621.3793,621.3793 0 0,1 82.5272,327.9695M82.2368,327.2307 A621.3793,621.3793 0 0,1 81.6587,325.7522M81.3711,325.0124 A621.3793,621.3793 0 0,1 80.7988,323.5317M80.514,322.7908 A621.3793,621.3793 0 0,1 79.9473,321.3079M79.6654,320.5659 A621.3793,621.3793 0 0,1 79.1044,319.0808M78.8253,318.3377 A621.3793,621.3793 0 0,1 78.27,316.8505M77.9937,316.1064 A621.3793,621.3793 0 0,1 77.4441,314.6171M77.1708,313.8719 A621.3793,621.3793 0 0,1 76.6269,312.3805M76.3563,311.6342 A621.3793,621.3793 0 0,1 75.8182,310.1407M75.5505,309.3935 A621.3793,621.3793 0 0,1 75.0181,307.8979M74.7533,307.1497 A621.3793,621.3793 0 0,1 74.2266,305.6521M73.9646,304.9028 A621.3793,621.3793 0 0,1 73.4437,303.4032M73.1846,302.6529 A621.3793,621.3793 0 0,1 72.6694,301.1514M72.4132,300.4001 A621.3793,621.3793 0 0,1 71.9038,298.8966M71.6505,298.1443 A621.3793,621.3793 0 0,1 71.1468,296.6388M70.8964,295.8856 A621.3793,621.3793 0 0,1 70.3984,294.3782M70.1509,293.6241 A621.3793,621.3793 0 0,1 69.6588,292.1148M69.4141,291.3597 A621.3793,621.3793 0 0,1 68.9278,289.8485M68.6861,289.0924 A621.3793,621.3793 0 0,1 68.2055,287.5794M67.9667,286.8225 A621.3793,621.3793 0 0,1 67.4919,285.3076M67.256,284.5497 A621.3793,621.3793 0 0,1 66.787,283.0331M66.554,282.2743 A621.3793,621.3793 0 0,1 66.0909,280.7559M65.8607,279.9962 A621.3793,621.3793 0 0,1 65.4034,278.476M65.1762,277.7155 A621.3793,621.3793 0 0,1 64.7247,276.1935M64.5005,275.4321 A621.3793,621.3793 0 0,1 64.0548,273.9085M63.8334,273.1462 A621.3793,621.3793 0 0,1 63.3936,271.6208M63.1752,270.8577 A621.3793,621.3793 0 0,1 62.7412,269.3307M62.5257,268.5668 A621.3793,621.3793 0 0,1 62.0976,267.0381M61.885,266.2733 A621.3793,621.3793 0 0,1 61.4628,264.743M61.2531,263.9775 A621.3793,621.3793 0 0,1 60.8368,262.4455M60.63,261.6792 A621.3793,621.3793 0 0,1 60.2195,260.1457M60.0158,259.3785 A621.3793,621.3793 0 0,1 59.6111,257.8435M59.4103,257.0755 A621.3793,621.3793 0 0,1 59.0116,255.5389M58.8137,254.7702 A621.3793,621.3793 0 0,1 58.4208,253.2321M58.2259,252.4627 A621.3793,621.3793 0 0,1 57.8389,250.9231M57.6469,250.1529 A621.3793,621.3793 0 0,1 57.2659,248.6118M57.0768,247.8409 A621.3793,621.3793 0 0,1 56.7017,246.2983M56.5156,245.5267 A621.3793,621.3793 0 0,1 56.1464,243.9827M55.9633,243.2104 A621.3793,621.3793 0 0,1 55.6,241.665M55.4198,240.892 A621.3793,621.3793 0 0,1 55.0624,239.3453M54.8852,238.5715 A621.3793,621.3793 0 0,1 54.5338,237.0234M54.3595,236.249 A621.3793,621.3793 0 0,1 54.014,234.6996M53.8427,233.9246 A621.3793,621.3793 0 0,1 53.5032,232.3738M53.3349,231.5981 A621.3793,621.3793 0 0,1 53.0012,230.046M52.8359,229.2697 A621.3793,621.3793 0 0,1 52.5082,227.7164M52.3459,226.9394 A621.3793,621.3793 0 0,1 52.0242,225.3849M51.8648,224.6073 A621.3793,621.3793 0 0,1 51.549,223.0515M51.3926,222.2733 A621.3793,621.3793 0 0,1 51.0828,220.7163M50.9294,219.9375 A621.3793,621.3793 0 0,1 50.6256,218.3794M50.4752,217.6 A621.3793,621.3793 0 0,1 50.1773,216.0407M50.0299,215.2608 A621.3793,621.3793 0 0,1 49.738,213.7003M49.5936,212.9198 A621.3793,621.3793 0 0,1 49.3077,211.3583M49.1662,210.5773 A621.3793,621.3793 0 0,1 48.8863,209.0146M48.7479,208.233 A621.3793,621.3793 0 0,1 48.4739,206.6694M48.3385,205.8873 A621.3793,621.3793 0 0,1 48.0706,204.3225M47.9381,203.5399 A621.3793,621.3793 0 0,1 47.6762,201.9742M47.5467,201.191 A621.3793,621.3793 0 0,1 47.2908,199.6243M47.1643,198.8407 A621.3793,621.3793 0 0,1 46.9144,197.273M46.791,196.4889 A621.3793,621.3793 0 0,1 46.547,194.9203M46.4266,194.1357 A621.3793,621.3793 0 0,1 46.1887,192.5661M46.0713,191.7811 A621.3793,621.3793 0 0,1 45.8394,190.2106M45.7249,189.4252 A621.3793,621.3793 0 0,1 45.4991,187.8538M45.3877,187.0679 A621.3793,621.3793 0 0,1 45.1678,185.4957M45.0594,184.7094 A621.3793,621.3793 0 0,1 44.8456,183.1364M44.7402,182.3497 A621.3793,621.3793 0 0,1 44.5324,180.7758M44.4301,179.9887 A621.3793,621.3793 0 0,1 44.2283,178.4141M44.1289,177.6266 A621.3793,621.3793 0 0,1 43.9332,176.0512M43.8369,175.2633 A621.3793,621.3793 0 0,1 43.6472,173.6872M43.5539,172.8989 A621.3793,621.3793 0 0,1 43.3703,171.3221M43.28,170.5335 A621.3793,621.3793 0 0,1 43.1024,168.9559M43.0151,168.167 A621.3793,621.3793 0 0,1 42.8436,166.5888M42.7593,165.7995 A621.3793,621.3793 0 0,1 42.5938,164.2207M42.5126,163.4311 A621.3793,621.3793 0 0,1 42.3531,161.8516M42.2749,161.0617 A621.3793,621.3793 0 0,1 42.1215,159.4817M42.0464,158.6915 A621.3793,621.3793 0 0,1 41.899,157.1108M41.8269,156.3204 A621.3793,621.3793 0 0,1 41.6856,154.7392M41.6165,153.9484 A621.3793,621.3793 0 0,1 41.4813,152.3667M41.4152,151.5757 A621.3793,621.3793 0 0,1 41.2861,149.9935M41.223,149.2022 A621.3793,621.3793 0 0,1 41.0999,147.6195M41.0399,146.828 A621.3793,621.3793 0 0,1 40.9229,145.2449M40.8659,144.4532 A621.3793,621.3793 0 0,1 40.7549,142.8695M40.701,142.0776 A621.3793,621.3793 0 0,1 40.5961,140.4936M40.5452,139.7015 A621.3793,621.3793 0 0,1 40.4464,138.1171M40.3985,137.3248 A621.3793,621.3793 0 0,1 40.3058,135.74M40.2609,134.9475 A621.3793,621.3793 0 0,1 40.1742,133.3624M40.1324,132.5697 A621.3793,621.3793 0 0,1 40.0518,130.9843M40.0131,130.1915 A621.3793,621.3793 0 0,1 39.9386,128.6057M39.9028,127.8128 A621.3793,621.3793 0 0,1 39.8344,126.2267M39.8017,125.4337 A621.3793,621.3793 0 0,1 39.7393,123.8474M39.7097,123.0542 A621.3793,621.3793 0 0,1 39.6534,121.4677M39.6268,120.6744 A621.3793,621.3793 0 0,1 39.5766,119.0877M39.553,118.2943 A621.3793,621.3793 0 0,1 39.5089,116.7074M39.4884,115.9139 A621.3793,621.3793 0 0,1 39.4503,114.3269M39.4328,113.5333 A621.3793,621.3793 0 0,1 39.4009,111.9461M39.3864,111.1525 A621.3793,621.3793 0 0,1 39.3606,109.5652M39.3492,108.7716 A621.3793,621.3793 0 0,1 39.3294,107.1842M39.321,106.3905 A621.3793,621.3793 0 0,1 39.3073,104.803M39.302,104.0093 A621.3793,621.3793 0 0,1 39.2944,102.4218M39.2921,101.6281 A621.3793,621.3793 0 0,1 39.2905,100.2341" style="stroke:#000000;stroke-width:0.1;"/>
            <!-- Polyline -->
            <path d="M693.2094,100.2341 L619.2905,100.2341 L619.2905,720.2341 L659.2905,720.2341 L659.2905,0.2341 L693.2094,0.2341" style="stroke:#000000;stroke-width:0.1;"/>
            <!-- Polyline -->
            <path d="M5.3716,0.2341 L39.2905,0.2341 L39.2905,100.2341 L5.3716,100.2341 L5.3716,0.2341 Z" style="stroke:#000000;stroke-width:0.1;"/>
            <!-- Polyline -->
            <path d="M693.2094,10.2341 L699.2905,10.2341 L699.2905,90.2341 L693.2094,90.2341 Z" style="stroke:#000000;stroke-width:0.1;"/>
            <!-- Polyline -->
            <path d="M693.2094,0.2341 L693.2094,100.2341" style="stroke:#000000;stroke-width:0.1;"/>
            <!-- Polyline -->
            <path d="M5.3716,10.2341 L-0.7095,10.2341 L-0.7095,90.2341 L5.3716,90.2341 Z" style="stroke:#000000;stroke-width:0.1;"/>
        </g>
    </g>
</svg>

