<?xml version="1.0" encoding="UTF-8"?>
<!-- 2026-03-10 13:55:32 Generated by QCAD 3.32.6 SVG Exporter -->
<svg  width="900mm" height="920mm" viewBox="0.0461 -920.3122 900 920" version="1.1" xmlns="http://www.w3.org/2000/svg" style="stroke-linecap:round;stroke-linejoin:round;">
    <g transform="scale(1,-1)">
            <!-- Auto-generated fillable area -->
            <!-- Block Reference: A$C0CE462CD / entities: 9 -->
        <g>
            <!-- Polyline -->
            <path d="M6.1272,0.3122 L40.0461,0.3122 L40.0461,100.3122 L6.1272,100.3122" style="stroke:#000000;stroke-width:0.1;"/>
            <!-- Line -->
            <path d="M860.0461,100.3122 L860.0461,0.3122 " style="stroke:#000000;stroke-width:0.1;"/>
            <!-- Line -->
            <path d="M860.0461,0.3122 L893.965,0.3122 " style="stroke:#000000;stroke-width:0.1;"/>
            <!-- Polyline -->
            <path d="M860.0461,100.3122 L860.0461,920.3122 L818.4459,920.3122 L818.4459,100.3122 Z" style="stroke:#000000;stroke-width:0.1;"/>
            <!-- Arc -->
            <path d="M818.4459,920.3122 A819.1422,819.1422 0 0,1 817.6307,920.2712M816.838,920.2306 A819.1422,819.1422 0 0,1 815.2527,920.147M814.4601,920.104 A819.1422,819.1422 0 0,1 812.875,920.0158M812.0826,919.9705 A819.1422,819.1422 0 0,1 810.4978,919.8777M809.7055,919.8302 A819.1422,819.1422 0 0,1 808.121,919.7327M807.3288,919.6829 A819.1422,819.1422 0 0,1 805.7446,919.5808M804.9525,919.5287 A819.1422,819.1422 0 0,1 803.3686,919.422M802.5767,919.3676 A819.1422,819.1422 0 0,1 800.9931,919.2563M800.2014,919.1995 A819.1422,819.1422 0 0,1 798.6182,919.0837M797.8266,919.0246 A819.1422,819.1422 0 0,1 796.2437,918.9042M795.4523,918.8428 A819.1422,819.1422 0 0,1 793.8697,918.7177M793.0785,918.6541 A819.1422,819.1422 0 0,1 791.4964,918.5244M790.7053,918.4584 A819.1422,819.1422 0 0,1 789.1235,918.3242M788.3327,918.2559 A819.1422,819.1422 0 0,1 786.7513,918.1171M785.9607,918.0465 A819.1422,819.1422 0 0,1 784.3797,917.9031M783.5893,917.8302 A819.1422,819.1422 0 0,1 782.0087,917.6821M781.2185,917.607 A819.1422,819.1422 0 0,1 779.6384,917.4543M778.8484,917.3769 A819.1422,819.1422 0 0,1 777.2687,917.2197M776.479,917.1399 A819.1422,819.1422 0 0,1 774.8998,916.9781M774.1103,916.896 A819.1422,819.1422 0 0,1 772.5315,916.7296M771.7423,916.6453 A819.1422,819.1422 0 0,1 770.164,916.4743M769.375,916.3876 A819.1422,819.1422 0 0,1 767.7972,916.212M767.0085,916.1231 A819.1422,819.1422 0 0,1 765.4312,915.9429M764.6428,915.8517 A819.1422,819.1422 0 0,1 763.066,915.6669M762.2778,915.5734 A819.1422,819.1422 0 0,1 760.7016,915.3841M759.9137,915.2883 A819.1422,819.1422 0 0,1 758.3381,915.0944M757.5504,914.9963 A819.1422,819.1422 0 0,1 755.9754,914.7978M755.188,914.6974 A819.1422,819.1422 0 0,1 753.6136,914.4943M752.8265,914.3916 A819.1422,819.1422 0 0,1 751.2526,914.184M750.4658,914.079 A819.1422,819.1422 0 0,1 748.8926,913.8668M748.1061,913.7595 A819.1422,819.1422 0 0,1 746.5335,913.5427M745.7473,913.4332 A819.1422,819.1422 0 0,1 744.1753,913.2118M743.3895,913.1 A819.1422,819.1422 0 0,1 741.8182,912.874M741.0327,912.7599 A819.1422,819.1422 0 0,1 739.462,912.5294M738.6768,912.413 A819.1422,819.1422 0 0,1 737.1068,912.178M736.322,912.0593 A819.1422,819.1422 0 0,1 734.7527,911.8197M733.9682,911.6987 A819.1422,819.1422 0 0,1 732.3996,911.4545M731.6155,911.3313 A819.1422,819.1422 0 0,1 730.0476,911.0825M729.2638,910.957 A819.1422,819.1422 0 0,1 727.6967,910.7037M726.9133,910.5759 A819.1422,819.1422 0 0,1 725.3468,910.318M724.5638,910.188 A819.1422,819.1422 0 0,1 722.9982,909.9256M722.2155,909.7932 A819.1422,819.1422 0 0,1 720.6506,909.5262M719.8684,909.3916 A819.1422,819.1422 0 0,1 718.3043,909.1201M717.5224,908.9832 A819.1422,819.1422 0 0,1 715.9591,908.7072M715.1777,908.568 A819.1422,819.1422 0 0,1 713.6151,908.2874M712.8341,908.1459 A819.1422,819.1422 0 0,1 711.2724,907.8608M710.4918,907.7171 A819.1422,819.1422 0 0,1 708.9309,907.4274M708.1507,907.2814 A819.1422,819.1422 0 0,1 706.5907,906.9872M705.8109,906.839 A819.1422,819.1422 0 0,1 704.2518,906.5402M703.4725,906.3897 A819.1422,819.1422 0 0,1 701.9142,906.0864M701.1353,905.9337 A819.1422,819.1422 0 0,1 699.5779,905.6258M698.7995,905.4708 A819.1422,819.1422 0 0,1 697.243,905.1585M696.465,905.0012 A819.1422,819.1422 0 0,1 694.9094,904.6843M694.1319,904.5247 A819.1422,819.1422 0 0,1 692.5773,904.2034M691.8002,904.0415 A819.1422,819.1422 0 0,1 690.2465,903.7156M689.4699,903.5516 A819.1422,819.1422 0 0,1 687.9171,903.2211M687.141,903.0548 A819.1422,819.1422 0 0,1 685.5893,902.7199M684.8136,902.5513 A819.1422,819.1422 0 0,1 683.2628,902.2119M682.4877,902.041 A819.1422,819.1422 0 0,1 680.9379,901.6971M680.1632,901.524 A819.1422,819.1422 0 0,1 678.6145,901.1755M677.8403,901.0002 A819.1422,819.1422 0 0,1 676.2926,900.6472M675.5189,900.4696 A819.1422,819.1422 0 0,1 673.9722,900.1122M673.1991,899.9323 A819.1422,819.1422 0 0,1 671.6534,899.5704M670.8808,899.3883 A819.1422,819.1422 0 0,1 669.3362,899.0219M668.5641,898.8375 A819.1422,819.1422 0 0,1 667.0206,898.4666M666.2491,898.28 A819.1422,819.1422 0 0,1 664.7066,897.9046M663.9356,897.7158 A819.1422,819.1422 0 0,1 662.3943,897.3359M661.6238,897.1448 A819.1422,819.1422 0 0,1 660.0836,896.7605M659.3137,896.5672 A819.1422,819.1422 0 0,1 657.7746,896.1783M657.0053,895.9828 A819.1422,819.1422 0 0,1 655.4673,895.5895M654.6986,895.3917 A819.1422,819.1422 0 0,1 653.1617,894.9939M652.3936,894.7939 A819.1422,819.1422 0 0,1 650.8579,894.3916M650.0903,894.1894 A819.1422,819.1422 0 0,1 648.5558,893.7827M647.7889,893.5782 A819.1422,819.1422 0 0,1 646.2555,893.167M645.4892,892.9603 A819.1422,819.1422 0 0,1 643.9571,892.5447M643.1913,892.3358 A819.1422,819.1422 0 0,1 641.6604,891.9157M640.8952,891.7045 A819.1422,819.1422 0 0,1 639.3656,891.28M638.601,891.0666 A819.1422,819.1422 0 0,1 637.0726,890.6376M636.3087,890.422 A819.1422,819.1422 0 0,1 634.7815,889.9886M634.0182,889.7708 A819.1422,819.1422 0 0,1 632.4923,889.333M631.7296,889.1129 A819.1422,819.1422 0 0,1 630.205,888.6706M629.443,888.4484 A819.1422,819.1422 0 0,1 627.9196,888.0017M627.1583,887.7772 A819.1422,819.1422 0 0,1 625.6362,887.326M624.8756,887.0994 A819.1422,819.1422 0 0,1 623.3548,886.6438M622.5948,886.4149 A819.1422,819.1422 0 0,1 621.0754,885.9549M620.316,885.7238 A819.1422,819.1422 0 0,1 618.798,885.2594M618.0393,885.0261 A819.1422,819.1422 0 0,1 616.5226,884.5573M615.7646,884.3218 A819.1422,819.1422 0 0,1 614.2493,883.8486M613.4919,883.6109 A819.1422,819.1422 0 0,1 611.978,883.1332M611.2214,882.8933 A819.1422,819.1422 0 0,1 609.7088,882.4113M608.9529,882.1692 A819.1422,819.1422 0 0,1 607.4418,881.6828M606.6865,881.4385 A819.1422,819.1422 0 0,1 605.1768,880.9477M604.4223,880.7012 A819.1422,819.1422 0 0,1 602.914,880.206M602.1602,879.9573 A819.1422,819.1422 0 0,1 600.6534,879.4577M599.9003,879.2068 A819.1422,819.1422 0 0,1 598.3949,878.7029M597.6426,878.4498 A819.1422,819.1422 0 0,1 596.1387,877.9415M595.3871,877.6862 A819.1422,819.1422 0 0,1 593.8847,877.1735M593.1338,876.9161 A819.1422,819.1422 0 0,1 591.6329,876.399M590.8828,876.1394 A819.1422,819.1422 0 0,1 589.3834,875.6179M588.6341,875.3561 A819.1422,819.1422 0 0,1 587.1362,874.8304M586.3876,874.5664 A819.1422,819.1422 0 0,1 584.8912,874.0362M584.1434,873.7701 A819.1422,819.1422 0 0,1 582.6486,873.2356M581.9016,872.9673 A819.1422,819.1422 0 0,1 580.4083,872.4285M579.6621,872.158 A819.1422,819.1422 0 0,1 578.1704,871.6148M577.425,871.3421 A819.1422,819.1422 0 0,1 575.9349,870.7946M575.1902,870.5198 A819.1422,819.1422 0 0,1 573.7017,869.968M572.9579,869.691 A819.1422,819.1422 0 0,1 571.471,869.1348M570.7279,868.8557 A819.1422,819.1422 0 0,1 569.2427,868.2952M568.5004,868.0139 A819.1422,819.1422 0 0,1 567.0168,867.4491M566.2754,867.1656 A819.1422,819.1422 0 0,1 564.7934,866.5965M564.0528,866.3109 A819.1422,819.1422 0 0,1 562.5725,865.7375M561.8328,865.4497 A819.1422,819.1422 0 0,1 560.3541,864.872M559.6152,864.5821 A819.1422,819.1422 0 0,1 558.1382,864.0001M557.4002,863.708 A819.1422,819.1422 0 0,1 555.9249,863.1217M555.1877,862.8275 A819.1422,819.1422 0 0,1 553.7141,862.2369M552.9778,861.9406 A819.1422,819.1422 0 0,1 551.506,861.3457M550.7705,861.0472 A819.1422,819.1422 0 0,1 549.3004,860.4481M548.5658,860.1474 A819.1422,819.1422 0 0,1 547.0974,859.544M546.3637,859.2413 A819.1422,819.1422 0 0,1 544.8971,858.6336M544.1642,858.3287 A819.1422,819.1422 0 0,1 542.6994,857.7168M541.9674,857.4097 A819.1422,819.1422 0 0,1 540.5044,856.7935M539.7733,856.4844 A819.1422,819.1422 0 0,1 538.3121,855.8639M537.5819,855.5527 A819.1422,819.1422 0 0,1 536.1225,854.928M535.3933,854.6146 A819.1422,819.1422 0 0,1 533.9356,853.9856M533.2073,853.6701 A819.1422,819.1422 0 0,1 531.7515,853.037M531.0241,852.7193 A819.1422,819.1422 0 0,1 529.5702,852.0819M528.8437,851.7622 A819.1422,819.1422 0 0,1 527.3916,851.1206M526.6661,850.7987 A819.1422,819.1422 0 0,1 525.2159,850.1529M524.4912,849.8289 A819.1422,819.1422 0 0,1 523.0429,849.1789M522.3193,848.8528 A819.1422,819.1422 0 0,1 520.8728,848.1985M520.1501,847.8704 A819.1422,819.1422 0 0,1 518.7056,847.2119M517.9838,846.8816 A819.1422,819.1422 0 0,1 516.5412,846.219M515.8204,845.8866 A819.1422,819.1422 0 0,1 514.3798,845.2198M513.6599,844.8853 A819.1422,819.1422 0 0,1 512.2212,844.2143M511.5024,843.8777 A819.1422,819.1422 0 0,1 510.0656,843.2025M509.3477,842.8639 A819.1422,819.1422 0 0,1 507.9129,842.1845M507.1961,841.8438 A819.1422,819.1422 0 0,1 505.7632,841.1602M505.0473,840.8174 A819.1422,819.1422 0 0,1 503.6165,840.1297M502.9016,839.7848 A819.1422,819.1422 0 0,1 501.4728,839.0929M500.7589,838.746 A819.1422,819.1422 0 0,1 499.3321,838.05M498.6193,837.7009 A819.1422,819.1422 0 0,1 497.1945,837.0007M496.4826,836.6496 A819.1422,819.1422 0 0,1 495.0599,835.9453M494.3491,835.5922 A819.1422,819.1422 0 0,1 492.9284,834.8837M492.2186,834.5285 A819.1422,819.1422 0 0,1 490.8,833.8159M490.0912,833.4586 A819.1422,819.1422 0 0,1 488.6747,832.7419M487.967,832.3826 A819.1422,819.1422 0 0,1 486.5525,831.6618M485.8458,831.3003 A819.1422,819.1422 0 0,1 484.4335,830.5754M483.7279,830.212 A819.1422,819.1422 0 0,1 482.3177,829.4829M481.6131,829.1174 A819.1422,819.1422 0 0,1 480.205,828.3843M479.5015,828.0167 A819.1422,819.1422 0 0,1 478.0955,827.2795M477.3931,826.9099 A819.1422,819.1422 0 0,1 475.9893,826.1687M475.2879,825.797 A819.1422,819.1422 0 0,1 473.8863,825.0516M473.186,824.6779 A819.1422,819.1422 0 0,1 471.7865,823.9285M471.0874,823.5528 A819.1422,819.1422 0 0,1 469.6901,822.7993M468.992,822.4215 A819.1422,819.1422 0 0,1 467.5969,821.664M466.8999,821.2842 A819.1422,819.1422 0 0,1 465.507,820.5226M464.8111,820.1408 A819.1422,819.1422 0 0,1 463.4205,819.3751M462.7257,818.9913 A819.1422,819.1422 0 0,1 461.3373,818.2216M460.6436,817.8358 A819.1422,819.1422 0 0,1 459.2574,817.062M458.5649,816.6742 A819.1422,819.1422 0 0,1 457.181,815.8964M456.4896,815.5066 A819.1422,819.1422 0 0,1 455.1079,814.7248M454.4176,814.3329 A819.1422,819.1422 0 0,1 453.0382,813.5471M452.3491,813.1532 A819.1422,819.1422 0 0,1 450.972,812.3634M450.284,811.9675 A819.1422,819.1422 0 0,1 448.9093,811.1738M448.2224,810.7759 A819.1422,819.1422 0 0,1 446.85,809.9781M446.1643,809.5782 A819.1422,819.1422 0 0,1 444.7941,808.7764M444.1096,808.3746 A819.1422,819.1422 0 0,1 442.7418,807.5688M442.0585,807.165 A819.1422,819.1422 0 0,1 440.693,806.3552M440.0109,805.9494 A819.1422,819.1422 0 0,1 438.6478,805.1357M437.9668,804.7279 A819.1422,819.1422 0 0,1 436.6061,803.9102M435.9263,803.5004 A819.1422,819.1422 0 0,1 434.5679,802.6788M433.8894,802.267 A819.1422,819.1422 0 0,1 432.5334,801.4415M431.856,801.0277 A819.1422,819.1422 0 0,1 430.5024,800.1983M429.8263,799.7825 A819.1422,819.1422 0 0,1 428.4751,798.9491M427.8002,798.5314 A819.1422,819.1422 0 0,1 426.4515,797.6941M425.7777,797.2745 A819.1422,819.1422 0 0,1 424.4314,796.4332M423.7589,796.0116 A819.1422,819.1422 0 0,1 422.4151,795.1664M421.7438,794.7429 A819.1422,819.1422 0 0,1 420.4024,793.8938M419.7324,793.4683 A819.1422,819.1422 0 0,1 418.3935,792.6153M417.7247,792.1879 A819.1422,819.1422 0 0,1 416.3883,791.331M415.7207,790.9017 A819.1422,819.1422 0 0,1 414.3868,790.0409M413.7205,789.6096 A819.1422,819.1422 0 0,1 412.3891,788.745M411.724,788.3117 A819.1422,819.1422 0 0,1 410.3951,787.4432M409.7313,787.008 A819.1422,819.1422 0 0,1 408.405,786.1357M407.7424,785.6986 A819.1422,819.1422 0 0,1 406.4186,784.8224M405.7574,784.3833 A819.1422,819.1422 0 0,1 404.4361,783.5033M403.7761,783.0623 A819.1422,819.1422 0 0,1 402.4574,782.1785M401.7987,781.7356 A819.1422,819.1422 0 0,1 400.4826,780.8479M399.8252,780.4031 A819.1422,819.1422 0 0,1 398.5117,779.5116M397.8556,779.0649 A819.1422,819.1422 0 0,1 396.5446,778.1695M395.8898,777.7209 A819.1422,819.1422 0 0,1 394.5815,776.8218M393.928,776.3713 A819.1422,819.1422 0 0,1 392.6223,775.4683M391.9701,775.0159 A819.1422,819.1422 0 0,1 390.667,774.1092M390.0161,773.6549 A819.1422,819.1422 0 0,1 388.7157,772.7444M388.0662,772.2882 A819.1422,819.1422 0 0,1 386.7684,771.3739M386.1201,770.9158 A819.1422,819.1422 0 0,1 384.825,769.9977M384.1781,769.5377 A819.1422,819.1422 0 0,1 382.8857,768.6159M382.2402,768.1541 A819.1422,819.1422 0 0,1 380.9504,767.2285M380.3062,766.7648 A819.1422,819.1422 0 0,1 379.0191,765.8355M378.3763,765.3699 A819.1422,819.1422 0 0,1 377.0919,764.4368M376.4504,763.9694 A819.1422,819.1422 0 0,1 375.1688,763.0326M374.5287,762.5632 A819.1422,819.1422 0 0,1 373.2498,761.6227M372.611,761.1516 A819.1422,819.1422 0 0,1 371.3348,760.2073M370.6974,759.7343 A819.1422,819.1422 0 0,1 369.424,758.7864M368.788,758.3115 A819.1422,819.1422 0 0,1 367.5173,757.3599M366.8827,756.8831 A819.1422,819.1422 0 0,1 365.6148,755.9278M364.9816,755.4492 A819.1422,819.1422 0 0,1 363.7165,754.4902M363.0846,754.0098 A819.1422,819.1422 0 0,1 361.8223,753.0471M361.1918,752.5649 A819.1422,819.1422 0 0,1 359.9323,751.5986M359.3033,751.1145 A819.1422,819.1422 0 0,1 358.0466,750.1445M357.419,749.6586 A819.1422,819.1422 0 0,1 356.1651,748.6849M355.5389,748.1972 A819.1422,819.1422 0 0,1 354.2878,747.2199M353.663,746.7304 A819.1422,819.1422 0 0,1 352.4149,745.7495M351.7915,745.2581 A819.1422,819.1422 0 0,1 350.5461,744.2735M349.9242,743.7804 A819.1422,819.1422 0 0,1 348.6817,742.7922M348.0612,742.2972 A819.1422,819.1422 0 0,1 346.8217,741.3055M346.2026,740.8087 A819.1422,819.1422 0 0,1 344.9659,739.8133M344.3483,739.3148 A819.1422,819.1422 0 0,1 343.1145,738.3158M342.4983,737.8154 A819.1422,819.1422 0 0,1 341.2674,736.8129M340.6527,736.3107 A819.1422,819.1422 0 0,1 339.4247,735.3046M338.8115,734.8007 A819.1422,819.1422 0 0,1 337.5865,733.791M336.9747,733.2853 A819.1422,819.1422 0 0,1 335.7526,732.272M335.1423,731.7645 A819.1422,819.1422 0 0,1 333.9231,730.7478M333.3143,730.2385 A819.1422,819.1422 0 0,1 332.0981,729.2182M331.4908,728.7071 A819.1422,819.1422 0 0,1 330.2775,727.6833M329.6717,727.1705 A819.1422,819.1422 0 0,1 328.4614,726.1431M327.8571,725.6285 A819.1422,819.1422 0 0,1 326.6498,724.5976M326.047,724.0813 A819.1422,819.1422 0 0,1 324.8427,723.0469M324.2414,722.5288 A819.1422,819.1422 0 0,1 323.0401,721.491M322.4403,720.9711 A819.1422,819.1422 0 0,1 321.2421,719.9298M320.6437,719.4082 A819.1422,819.1422 0 0,1 319.4486,718.3633M318.8517,717.8401 A819.1422,819.1422 0 0,1 317.6596,716.7917M317.0643,716.2667 A819.1422,819.1422 0 0,1 315.8752,715.2149M315.2815,714.6882 A819.1422,819.1422 0 0,1 314.0955,713.6329M313.5032,713.1044 A819.1422,819.1422 0 0,1 312.3203,712.0458M311.7296,711.5156 A819.1422,819.1422 0 0,1 310.5497,710.4534M309.9606,709.9215 A819.1422,819.1422 0 0,1 308.7838,708.856M308.1962,708.3224 A819.1422,819.1422 0 0,1 307.0225,707.2534M306.4365,706.7181 A819.1422,819.1422 0 0,1 305.2659,705.6457M304.6814,705.1087 A819.1422,819.1422 0 0,1 303.514,704.0329M302.9311,703.4942 A819.1422,819.1422 0 0,1 301.7668,702.415M301.1854,701.8746 A819.1422,819.1422 0 0,1 300.0242,700.7921M299.4445,700.25 A819.1422,819.1422 0 0,1 298.2865,699.1641M297.7082,698.6203 A819.1422,819.1422 0 0,1 296.5534,697.531M295.9768,696.9855 A819.1422,819.1422 0 0,1 294.8251,695.8929M294.2501,695.3458 A819.1422,819.1422 0 0,1 293.1016,694.2498M292.5281,693.701 A819.1422,819.1422 0 0,1 291.3828,692.6017M290.811,692.0512 A819.1422,819.1422 0 0,1 289.6689,690.9486M289.0986,690.3965 A819.1422,819.1422 0 0,1 287.9598,689.2905M287.3911,688.7367 A819.1422,819.1422 0 0,1 286.2554,687.6275M285.6884,687.072 A819.1422,819.1422 0 0,1 284.556,685.9595M283.9906,685.4024 A819.1422,819.1422 0 0,1 282.8614,684.2866M282.2976,683.7278 A819.1422,819.1422 0 0,1 281.1716,682.6087M280.6095,682.0484 A819.1422,819.1422 0 0,1 279.4868,680.926M278.9263,680.364 A819.1422,819.1422 0 0,1 277.8068,679.2384M277.2479,678.6747 A819.1422,819.1422 0 0,1 276.1318,677.5459M275.5745,676.9806 A819.1422,819.1422 0 0,1 274.4617,675.8485M273.9061,675.2816 A819.1422,819.1422 0 0,1 272.7965,674.1463M272.2425,673.5778 A819.1422,819.1422 0 0,1 271.1363,672.4392M270.584,671.8691 A819.1422,819.1422 0 0,1 269.481,670.7274M268.9304,670.1557 A819.1422,819.1422 0 0,1 267.8308,669.0107M267.2818,668.4374 A819.1422,819.1422 0 0,1 266.1855,667.2892M265.6382,666.7143 A819.1422,819.1422 0 0,1 264.5452,665.563M263.9996,664.9865 A819.1422,819.1422 0 0,1 262.91,663.832M262.3661,663.2539 A819.1422,819.1422 0 0,1 261.2798,662.0962M260.7376,661.5166 A819.1422,819.1422 0 0,1 259.6547,660.3557M259.1141,659.7745 A819.1422,819.1422 0 0,1 258.0346,658.6105M257.4957,658.0278 A819.1422,819.1422 0 0,1 256.4196,656.8606M255.8824,656.2763 A819.1422,819.1422 0 0,1 254.8097,655.1061M254.2742,654.5202 A819.1422,819.1422 0 0,1 253.2049,653.3468M252.6711,652.7593 A819.1422,819.1422 0 0,1 251.6053,651.5829M251.0732,650.9939 A819.1422,819.1422 0 0,1 250.0107,649.8143M249.4804,649.2238 A819.1422,819.1422 0 0,1 248.4213,648.0411M247.8927,647.4491 A819.1422,819.1422 0 0,1 246.8371,646.2633M246.3102,645.6697 A819.1422,819.1422 0 0,1 245.2581,644.4809M244.7329,643.8858 A819.1422,819.1422 0 0,1 243.6842,642.694M243.1607,642.0973 A819.1422,819.1422 0 0,1 242.1155,640.9024M241.5938,640.3042 A819.1422,819.1422 0 0,1 240.5521,639.1063M240.0321,638.5066 A819.1422,819.1422 0 0,1 238.9939,637.3057M238.4756,636.7045 A819.1422,819.1422 0 0,1 237.4409,635.5005M236.9244,634.8978 A819.1422,819.1422 0 0,1 235.8932,633.6908M235.3784,633.0866 A819.1422,819.1422 0 0,1 234.3507,631.8767M233.8377,631.271 A819.1422,819.1422 0 0,1 232.8135,630.0581M232.3023,629.4508 A819.1422,819.1422 0 0,1 231.2816,628.235M230.7722,627.6263 A819.1422,819.1422 0 0,1 229.7551,626.4074M229.2474,625.7972 A819.1422,819.1422 0 0,1 228.2338,624.5754M227.7279,623.9638 A819.1422,819.1422 0 0,1 226.7179,622.7391M226.2138,622.126 A819.1422,819.1422 0 0,1 225.2073,620.8983M224.705,620.2837 A819.1422,819.1422 0 0,1 223.7021,619.0531M223.2015,618.4371 A819.1422,819.1422 0 0,1 222.2022,617.2036M221.7035,616.5861 A819.1422,819.1422 0 0,1 220.7077,615.3497M220.2108,614.7308 A819.1422,819.1422 0 0,1 219.2187,613.4915M218.7235,612.8711 A819.1422,819.1422 0 0,1 217.735,611.6289M217.2417,611.0071 A819.1422,819.1422 0 0,1 216.2568,609.7621M215.7652,609.1388 A819.1422,819.1422 0 0,1 214.7839,607.8909M214.2942,607.2663 A819.1422,819.1422 0 0,1 213.3166,606.0155M212.8287,605.3894 A819.1422,819.1422 0 0,1 211.8547,604.1358M211.3686,603.5083 A819.1422,819.1422 0 0,1 210.3982,602.2519M209.914,601.623 A819.1422,819.1422 0 0,1 208.9473,600.3638M208.4648,599.7335 A819.1422,819.1422 0 0,1 207.5018,598.4714M207.0212,597.8397 A819.1422,819.1422 0 0,1 206.0619,596.5749M205.5831,595.9418 A819.1422,819.1422 0 0,1 204.6274,594.6742M204.1505,594.0397 A819.1422,819.1422 0 0,1 203.1985,592.7693M202.7234,592.1334 A819.1422,819.1422 0 0,1 201.7752,590.8602M201.3019,590.223 A819.1422,819.1422 0 0,1 200.3573,588.9471M199.886,588.3085 A819.1422,819.1422 0 0,1 198.9451,587.0298M198.4756,586.3898 A819.1422,819.1422 0 0,1 197.5385,585.1084M197.0708,584.4671 A819.1422,819.1422 0 0,1 196.1374,583.183M195.6716,582.5403 A819.1422,819.1422 0 0,1 194.7419,581.2535M194.278,580.6094 A819.1422,819.1422 0 0,1 193.3521,579.3199M192.89,578.6745 A819.1422,819.1422 0 0,1 191.9679,577.3823M191.5077,576.7356 A819.1422,819.1422 0 0,1 190.5893,575.4407M190.131,574.7926 A819.1422,819.1422 0 0,1 189.2163,573.4951M188.7599,572.8457 A819.1422,819.1422 0 0,1 187.8491,571.5455M187.3946,570.8948 A819.1422,819.1422 0 0,1 186.4875,569.5919M186.0349,568.9399 A819.1422,819.1422 0 0,1 185.1316,567.6344M184.6808,566.9811 A819.1422,819.1422 0 0,1 183.7813,565.673M183.3325,565.0183 A819.1422,819.1422 0 0,1 182.4368,563.7076M181.9899,563.0516 A819.1422,819.1422 0 0,1 181.098,561.7384M180.653,561.0811 A819.1422,819.1422 0 0,1 179.765,559.7652M179.3219,559.1066 A819.1422,819.1422 0 0,1 178.4377,557.7882M177.9965,557.1284 A819.1422,819.1422 0 0,1 177.1161,555.8074M176.6769,555.1462 A819.1422,819.1422 0 0,1 175.8003,553.8227M175.363,553.1602 A819.1422,819.1422 0 0,1 174.4903,551.8341M174.0549,551.1705 A819.1422,819.1422 0 0,1 173.186,549.8418M172.7526,549.1769 A819.1422,819.1422 0 0,1 171.8876,547.8457M171.4561,547.1795 A819.1422,819.1422 0 0,1 170.5949,545.8459M170.1654,545.1784 A819.1422,819.1422 0 0,1 169.3081,543.8423M168.8805,543.1736 A819.1422,819.1422 0 0,1 168.0271,541.8349M167.6014,541.165 A819.1422,819.1422 0 0,1 166.752,539.8239M166.3282,539.1527 A819.1422,819.1422 0 0,1 165.4827,537.8091M165.0609,537.1367 A819.1422,819.1422 0 0,1 164.2193,535.7907M163.7994,535.1171 A819.1422,819.1422 0 0,1 162.9617,533.7686M162.5438,533.0937 A819.1422,819.1422 0 0,1 161.71,531.7428M161.2941,531.0668 A819.1422,819.1422 0 0,1 160.4643,529.7134M160.0503,529.0362 A819.1422,819.1422 0 0,1 159.2244,527.6805M158.8124,527.002 A819.1422,819.1422 0 0,1 157.9904,525.6439M157.5804,524.9642 A819.1422,819.1422 0 0,1 156.7624,523.6037M156.3544,522.9229 A819.1422,819.1422 0 0,1 155.5403,521.56M155.1342,520.8779 A819.1422,819.1422 0 0,1 154.3241,519.5127M153.9201,518.8295 A819.1422,819.1422 0 0,1 153.1139,517.4619M152.7119,516.7775 A819.1422,819.1422 0 0,1 151.9097,515.4076M151.5096,514.7221 A819.1422,819.1422 0 0,1 150.7114,513.3498M150.3134,512.6631 A819.1422,819.1422 0 0,1 149.5192,511.2885M149.1231,510.6007 A819.1422,819.1422 0 0,1 148.3329,509.2238M147.9388,508.5348 A819.1422,819.1422 0 0,1 147.1526,507.1556M146.7606,506.4655 A819.1422,819.1422 0 0,1 145.9784,505.084M145.5883,504.3927 A819.1422,819.1422 0 0,1 144.8102,503.009M144.4221,502.3166 A819.1422,819.1422 0 0,1 143.648,500.9307M143.262,500.2371 A819.1422,819.1422 0 0,1 142.4919,498.8489M142.1078,498.1542 A819.1422,819.1422 0 0,1 141.3418,496.7638M140.9598,496.068 A819.1422,819.1422 0 0,1 140.1978,494.6754M139.8178,493.9785 A819.1422,819.1422 0 0,1 139.0598,492.5836M138.6819,491.8856 A819.1422,819.1422 0 0,1 137.928,490.4885M137.5521,489.7895 A819.1422,819.1422 0 0,1 136.8022,488.3902M136.4283,487.69 A819.1422,819.1422 0 0,1 135.6826,486.2886M135.3107,485.5873 A819.1422,819.1422 0 0,1 134.5691,484.1837M134.1992,483.4814 A819.1422,819.1422 0 0,1 133.4616,482.0757M133.0939,481.3723 A819.1422,819.1422 0 0,1 132.3604,479.9644M131.9946,479.2599 A819.1422,819.1422 0 0,1 131.2652,477.8499M130.9016,477.1444 A819.1422,819.1422 0 0,1 130.1762,475.7323M129.8146,475.0257 A819.1422,819.1422 0 0,1 129.0934,473.6114M128.7338,472.9038 A819.1422,819.1422 0 0,1 128.0168,471.4875M127.6593,470.7788 A819.1422,819.1422 0 0,1 126.9463,469.3604M126.5908,468.6507 A819.1422,819.1422 0 0,1 125.882,467.2302M125.5286,466.5195 A819.1422,819.1422 0 0,1 124.8239,465.097M124.4726,464.3852 A819.1422,819.1422 0 0,1 123.772,462.9607M123.4228,462.2479 A819.1422,819.1422 0 0,1 122.7263,460.8213M122.3792,460.1075 A819.1422,819.1422 0 0,1 121.6869,458.6789M121.3418,457.9641 A819.1422,819.1422 0 0,1 120.6537,456.5335M120.3107,455.8177 A819.1422,819.1422 0 0,1 119.6267,454.3851M119.2858,453.6683 A819.1422,819.1422 0 0,1 118.606,452.2337M118.2671,451.5159 A819.1422,819.1422 0 0,1 117.5915,450.0793M117.2548,449.3606 A819.1422,819.1422 0 0,1 116.5833,447.922M116.2487,447.2023 A819.1422,819.1422 0 0,1 115.5814,445.7618M115.2488,445.0411 A819.1422,819.1422 0 0,1 114.5858,443.5987M114.2553,442.877 A819.1422,819.1422 0 0,1 113.5964,441.4327M113.268,440.7101 A819.1422,819.1422 0 0,1 112.6134,439.2639M112.2871,438.5403 A819.1422,819.1422 0 0,1 111.6366,437.0922M111.3125,436.3676 A819.1422,819.1422 0 0,1 110.6662,434.9176M110.3441,434.1921 A819.1422,819.1422 0 0,1 109.7021,432.7403M109.3822,432.0138 A819.1422,819.1422 0 0,1 108.7444,430.5601M108.4265,429.8328 A819.1422,819.1422 0 0,1 107.7929,428.3772M107.4772,427.6489 A819.1422,819.1422 0 0,1 106.8479,426.1915M106.5343,425.4623 A819.1422,819.1422 0 0,1 105.9092,424.0031M105.5977,423.273 A819.1422,819.1422 0 0,1 104.9768,421.812M104.6674,421.081 A819.1422,819.1422 0 0,1 104.0508,419.6181M103.7436,418.8862 A819.1422,819.1422 0 0,1 103.1312,417.4216M102.8261,416.6888 A819.1422,819.1422 0 0,1 102.218,415.2224M101.9151,414.4888 A819.1422,819.1422 0 0,1 101.3112,413.0206M101.0104,412.2861 A819.1422,819.1422 0 0,1 100.4108,410.8161M100.1121,410.0807 A819.1422,819.1422 0 0,1 99.5168,408.6091M99.2203,407.8728 A819.1422,819.1422 0 0,1 98.6293,406.3994M98.3349,405.6623 A819.1422,819.1422 0 0,1 97.7481,404.1872M97.4559,403.4492 A819.1422,819.1422 0 0,1 96.8734,401.9724M96.5833,401.2336 A819.1422,819.1422 0 0,1 96.0052,399.7551M95.7172,399.0154 A819.1422,819.1422 0 0,1 95.1434,397.5353M94.8575,396.7948 A819.1422,819.1422 0 0,1 94.288,395.313M94.0043,394.5716 A819.1422,819.1422 0 0,1 93.4391,393.0882M93.1576,392.346 A819.1422,819.1422 0 0,1 92.5967,390.8609M92.3173,390.1179 A819.1422,819.1422 0 0,1 91.7607,388.6312M91.4835,387.8874 A819.1422,819.1422 0 0,1 90.9313,386.3991M90.6562,385.6545 A819.1422,819.1422 0 0,1 90.1083,384.1646M89.8354,383.4192 A819.1422,819.1422 0 0,1 89.2918,381.9277M89.0211,381.1815 A819.1422,819.1422 0 0,1 88.4819,379.6884M88.2133,378.9415 A819.1422,819.1422 0 0,1 87.6784,377.4468M87.4121,376.6991 A819.1422,819.1422 0 0,1 86.8815,375.2029M86.6173,374.4544 A819.1422,819.1422 0 0,1 86.0911,372.9566M85.8291,372.2074 A819.1422,819.1422 0 0,1 85.3072,370.7081M85.0474,369.9581 A819.1422,819.1422 0 0,1 84.5299,368.4573M84.2722,367.7065 A819.1422,819.1422 0 0,1 83.7591,366.2042M83.5036,365.4527 A819.1422,819.1422 0 0,1 82.9949,363.9489M82.7416,363.1967 A819.1422,819.1422 0 0,1 82.2372,361.6915M81.9861,360.9385 A819.1422,819.1422 0 0,1 81.4861,359.4318M81.2372,358.678 A819.1422,819.1422 0 0,1 80.7416,357.1699M80.4948,356.4155 A819.1422,819.1422 0 0,1 80.0036,354.9059M79.7591,354.1507 A819.1422,819.1422 0 0,1 79.2722,352.6397M79.0299,351.8839 A819.1422,819.1422 0 0,1 78.5475,350.3715M78.3073,349.6149 A819.1422,819.1422 0 0,1 77.8293,348.1011M77.5913,347.3438 A819.1422,819.1422 0 0,1 77.1177,345.8287M76.882,345.0707 A819.1422,819.1422 0 0,1 76.4127,343.5542M76.1792,342.7955 A819.1422,819.1422 0 0,1 75.7144,341.2776M75.4831,340.5183 A819.1422,819.1422 0 0,1 75.0226,338.999M74.7935,338.2391 A819.1422,819.1422 0 0,1 74.3375,336.7185M74.1106,335.9579 A819.1422,819.1422 0 0,1 73.659,334.4359M73.4344,333.6747 A819.1422,819.1422 0 0,1 72.9872,332.1514M72.7647,331.3895 A819.1422,819.1422 0 0,1 72.322,329.865M72.1018,329.1024 A819.1422,819.1422 0 0,1 71.6635,327.5766M71.4454,326.8134 A819.1422,819.1422 0 0,1 71.0116,325.2863M70.7958,324.5225 A819.1422,819.1422 0 0,1 70.3664,322.9942M70.1528,322.2297 A819.1422,819.1422 0 0,1 69.7278,320.7001M69.5164,319.935 A819.1422,819.1422 0 0,1 69.0959,318.4042M68.8868,317.6385 A819.1422,819.1422 0 0,1 68.4707,316.1065M68.2638,315.3402 A819.1422,819.1422 0 0,1 67.8522,313.807M67.6475,313.0401 A819.1422,819.1422 0 0,1 67.2403,311.5057M67.0378,310.7382 A819.1422,819.1422 0 0,1 66.6352,309.2026M66.4349,308.4346 A819.1422,819.1422 0 0,1 66.0367,306.8978M65.8387,306.1292 A819.1422,819.1422 0 0,1 65.4449,304.5913M65.2492,303.822 A819.1422,819.1422 0 0,1 64.8599,302.283M64.6664,301.5132 A819.1422,819.1422 0 0,1 64.2816,299.9731M64.0903,299.2027 A819.1422,819.1422 0 0,1 63.71,297.6614M63.5209,296.8905 A819.1422,819.1422 0 0,1 63.1451,295.3482M62.9583,294.5767 A819.1422,819.1422 0 0,1 62.5869,293.0333M62.4023,292.2613 A819.1422,819.1422 0 0,1 62.0355,290.7167M61.8531,289.9442 A819.1422,819.1422 0 0,1 61.4908,288.3986M61.3107,287.6256 A819.1422,819.1422 0 0,1 60.9528,286.0789M60.775,285.3054 A819.1422,819.1422 0 0,1 60.4216,283.7577M60.246,282.9836 A819.1422,819.1422 0 0,1 59.8971,281.4349M59.7238,280.6603 A819.1422,819.1422 0 0,1 59.3794,279.1106M59.2084,278.3355 A819.1422,819.1422 0 0,1 58.8685,276.7848M58.6997,276.0092 A819.1422,819.1422 0 0,1 58.3643,274.4576M58.1977,273.6815 A819.1422,819.1422 0 0,1 57.8669,272.1289M57.7026,271.3523 A819.1422,819.1422 0 0,1 57.3762,269.7987M57.2142,269.0217 A819.1422,819.1422 0 0,1 56.8924,267.4671M56.7326,266.6896 A819.1422,819.1422 0 0,1 56.4153,265.1342M56.2578,264.3562 A819.1422,819.1422 0 0,1 55.945,262.7998M55.7897,262.0214 A819.1422,819.1422 0 0,1 55.4815,260.4641M55.3285,259.6853 A819.1422,819.1422 0 0,1 55.0247,258.1271M54.874,257.3478 A819.1422,819.1422 0 0,1 54.5748,255.7887M54.4263,255.009 A819.1422,819.1422 0 0,1 54.1317,253.4491M53.9855,252.6689 A819.1422,819.1422 0 0,1 53.6954,251.1081M53.5514,250.3275 A819.1422,819.1422 0 0,1 53.2658,248.7659M53.1242,247.9849 A819.1422,819.1422 0 0,1 52.8431,246.4225M52.7037,245.6411 A819.1422,819.1422 0 0,1 52.4272,244.0779M52.2901,243.2961 A819.1422,819.1422 0 0,1 52.0182,241.732M51.8833,240.9498 A819.1422,819.1422 0 0,1 51.6159,239.385M51.4833,238.6024 A819.1422,819.1422 0 0,1 51.2205,237.0368M51.0902,236.2538 A819.1422,819.1422 0 0,1 50.8319,234.6875M50.7038,233.9041 A819.1422,819.1422 0 0,1 50.4501,232.337M50.3243,231.5533 A819.1422,819.1422 0 0,1 50.0751,229.9855M49.9517,229.2014 A819.1422,819.1422 0 0,1 49.707,227.6329M49.5859,226.8484 A819.1422,819.1422 0 0,1 49.3458,225.2792M49.2269,224.4944 A819.1422,819.1422 0 0,1 48.9914,222.9244M48.8748,222.1393 A819.1422,819.1422 0 0,1 48.6438,220.5687M48.5295,219.7832 A819.1422,819.1422 0 0,1 48.3031,218.212M48.191,217.4262 A819.1422,819.1422 0 0,1 47.9692,215.8542M47.8594,215.0681 A819.1422,819.1422 0 0,1 47.6422,213.4955M47.5347,212.7091 A819.1422,819.1422 0 0,1 47.322,211.1359M47.2169,210.3492 A819.1422,819.1422 0 0,1 47.0088,208.7754M46.9058,207.9883 A819.1422,819.1422 0 0,1 46.7023,206.4139M46.6017,205.6266 A819.1422,819.1422 0 0,1 46.4028,204.0516M46.3044,203.2639 A819.1422,819.1422 0 0,1 46.1101,201.6884M46.014,200.9005 A819.1422,819.1422 0 0,1 45.8242,199.3244M45.7305,198.5362 A819.1422,819.1422 0 0,1 45.5453,196.9595M45.4538,196.171 A819.1422,819.1422 0 0,1 45.2732,194.5938M45.184,193.8051 A819.1422,819.1422 0 0,1 45.008,192.2274M44.9211,191.4384 A819.1422,819.1422 0 0,1 44.7497,189.8602M44.6651,189.071 A819.1422,819.1422 0 0,1 44.4983,187.4923M44.416,186.7028 A819.1422,819.1422 0 0,1 44.2537,185.1236M44.1737,184.3339 A819.1422,819.1422 0 0,1 44.0161,182.7543M43.9384,181.9643 A819.1422,819.1422 0 0,1 43.7853,180.3842M43.7099,179.5941 A819.1422,819.1422 0 0,1 43.5614,178.0135M43.4883,177.2231 A819.1422,819.1422 0 0,1 43.3444,175.6422M43.2736,174.8516 A819.1422,819.1422 0 0,1 43.1343,173.2702M43.0658,172.4794 A819.1422,819.1422 0 0,1 42.9311,170.8976M42.8649,170.1067 A819.1422,819.1422 0 0,1 42.7348,168.5245M42.6709,167.7333 A819.1422,819.1422 0 0,1 42.5454,166.1508M42.4838,165.3594 A819.1422,819.1422 0 0,1 42.3629,163.7766M42.3036,162.985 A819.1422,819.1422 0 0,1 42.1873,161.4018M42.1303,160.6101 A819.1422,819.1422 0 0,1 42.0186,159.0265M41.9639,158.2347 A819.1422,819.1422 0 0,1 41.8568,156.6508M41.8044,155.8588 A819.1422,819.1422 0 0,1 41.7019,154.2746M41.6518,153.4824 A819.1422,819.1422 0 0,1 41.554,151.8979M41.5062,151.1056 A819.1422,819.1422 0 0,1 41.4129,149.5209M41.3674,148.7284 A819.1422,819.1422 0 0,1 41.2787,147.1434M41.2356,146.3508 A819.1422,819.1422 0 0,1 41.1515,144.7655M41.1106,143.9728 A819.1422,819.1422 0 0,1 41.0312,142.3873M40.9926,141.5945 A819.1422,819.1422 0 0,1 40.9178,140.0088M40.8815,139.2159 A819.1422,819.1422 0 0,1 40.8113,137.6299M40.7773,136.8369 A819.1422,819.1422 0 0,1 40.7117,135.2508M40.68,134.4576 A819.1422,819.1422 0 0,1 40.619,132.8713M40.5897,132.0781 A819.1422,819.1422 0 0,1 40.5333,130.4916M40.5062,129.6983 A819.1422,819.1422 0 0,1 40.4544,128.1117M40.4297,127.3183 A819.1422,819.1422 0 0,1 40.3825,125.7315M40.3601,124.9381 A819.1422,819.1422 0 0,1 40.3175,123.3511M40.2974,122.5576 A819.1422,819.1422 0 0,1 40.2594,120.9706M40.2416,120.177 A819.1422,819.1422 0 0,1 40.2083,118.5899M40.1928,117.7963 A819.1422,819.1422 0 0,1 40.1641,116.2091M40.1509,115.4154 A819.1422,819.1422 0 0,1 40.1268,113.8281M40.1159,113.0344 A819.1422,819.1422 0 0,1 40.0964,111.447M40.0878,110.6533 A819.1422,819.1422 0 0,1 40.0729,109.0659M40.0666,108.2722 A819.1422,819.1422 0 0,1 40.0564,106.6847M40.0524,105.891 A819.1422,819.1422 0 0,1 40.0467,104.3035M40.0451,103.5097 A819.1422,819.1422 0 0,1 40.044,101.9222M40.0447,101.1285 A819.1422,819.1422 0 0,1 40.0461,100.3122" style="stroke:#000000;stroke-width:0.1;"/>
            <!-- Polyline -->
            <path d="M893.965,10.3122 L900.0461,10.3122 L900.0461,90.3122 L893.965,90.3122 Z" style="stroke:#000000;stroke-width:0.1;"/>
            <!-- Polyline -->
            <path d="M860.0461,100.3122 L893.965,100.3122 L893.965,0.3122" style="stroke:#000000;stroke-width:0.1;"/>
            <!-- Polyline -->
            <path d="M6.1272,100.3122 L6.1272,0.3122" style="stroke:#000000;stroke-width:0.1;"/>
            <!-- Polyline -->
            <path d="M0.0461,10.3122 L6.1272,10.3122 L6.1272,90.3122 L0.0461,90.3122 Z" style="stroke:#000000;stroke-width:0.1;"/>
        </g>
    </g>
</svg>

