<?xml version="1.0" standalone="no"?>
<svg viewBox="-512 -384 1024 768" version="1.1" xmlns="http://www.w3.org/2000/svg" xmlns:xlink="http://www.w3.org/1999/xlink" stroke-linecap="round" stroke-linejoin="round" fill-rule="evenodd" xml:space="preserve" >
<defs >
<clipPath id="clipId0" >
<path d="M0,768 1024,768 1024,0 0,0 z" />
</clipPath>
</defs>
<g clip-path="url(#clipId0)" fill="none" stroke="rgb(0,0,0)" stroke-width="0.1" />
<g clip-path="url(#clipId0)" fill="none" stroke="rgb(0,0,0)" stroke-width="0.25" >
<polyline points="750.887,468.685 820.36,528.932 " />
<polyline points="732.626,471.577 663.468,566.765 " />
<circle cx="512" cy="384" r="196.097" />
<path d="M852.266,554.992  A7.8439,7.8439 0 0,0 850.956,546.96 " />
<path d="M822.559,537.63  A7.8439,7.8439 0 0,0 820.36,528.932 " />
<path d="M771.751,643.906  A7.8439,7.8439 0 0,0 771.727,656.009 " />
<path d="M771.727,656.009  A7.8439,7.8439 0 0,0 779.771,654.773 " />
<path d="M745.127,632.481  A7.8439,7.8439 0 0,0 754.079,631.885 " />
<path d="M690.435,715.071  A7.8439,7.8439 0 0,0 678.918,711.353 " />
<path d="M686.774,722.339  A7.8439,7.8439 0 0,0 690.435,715.071 " />
<path d="M663.468,566.765  A13.0732,13.0732 0 0,0 666.36,585.026 " />
<path d="M655.487,592.926  A13.0732,13.0732 0 0,0 639.014,584.532 " />
<polyline points="655.487,592.926 676.28,682.502 " />
<path d="M672.946,690.831  A7.8439,7.8439 0 0,0 676.28,682.502 " />
<polyline points="666.36,585.026 745.127,632.481 " />
<path d="M754.079,631.885  A220.653,220.653 0 0,0 822.559,537.63 " />
<polyline points="518.72,637.364 554.55,722.055 " />
<path d="M505.28,637.364  A13.0732,13.0732 0 0,0 496.886,620.891 " />
<path d="M527.114,620.891  A13.0732,13.0732 0 0,0 518.72,637.364 " />
<path d="M461.759,756.724  A7.8439,7.8439 0 0,0 454.626,746.946 " />
<path d="M454.525,760.452  A7.8439,7.8439 0 0,0 461.759,756.724 " />
<path d="M461.857,726.834  A7.8439,7.8439 0 0,0 469.45,722.055 " />
<polyline points="505.28,637.364 469.45,722.055 " />
<path d="M569.374,746.946  A7.8439,7.8439 0 0,0 562.241,756.724 " />
<path d="M562.241,756.724  A7.8439,7.8439 0 0,0 569.475,760.452 " />
<path d="M554.55,722.055  A7.8439,7.8439 0 0,0 562.143,726.834 " />
<path d="M384.986,584.532  A13.0732,13.0732 0 0,0 368.513,592.926 " />
<polyline points="496.886,620.891 384.986,584.532 " />
<polyline points="639.014,584.532 527.114,620.891 " />
<path d="M569.475,760.452  A254.644,254.644 0 0,0 686.774,722.339 " />
<path d="M569.374,746.946  A228.497,228.497 0 0,0 678.918,711.353 " />
<path d="M562.143,726.834  A220.653,220.653 0 0,0 672.946,690.831 " />
<path d="M337.226,722.339  A254.644,254.644 0 0,0 454.525,760.452 " />
<path d="M345.082,711.353  A228.497,228.497 0 0,0 454.626,746.946 " />
<path d="M351.054,690.831  A220.653,220.653 0 0,0 461.857,726.834 " />
<path d="M850.956,546.96  A7.8439,7.8439 0 0,0 839.453,550.722 " />
<path d="M779.771,654.773  A254.644,254.644 0 0,0 852.266,554.992 " />
<path d="M771.751,643.906  A228.497,228.497 0 0,0 839.453,550.722 " />
<path d="M887.788,322.332  A7.8439,7.8439 0 0,0 882.007,316.604 " />
<path d="M882.007,316.604  A7.8439,7.8439 0 0,0 874.912,326.409 " />
<path d="M882.007,451.396  A7.8439,7.8439 0 0,0 887.788,445.668 " />
<path d="M874.912,441.591  A7.8439,7.8439 0 0,0 882.007,451.396 " />
<path d="M874.912,441.591  A228.497,228.497 0 0,0 874.912,326.409 " />
<path d="M887.788,445.668  A254.644,254.644 0 0,0 887.788,322.332 " />
<path d="M850.956,221.04  A7.8439,7.8439 0 0,0 852.266,213.008 " />
<path d="M853.549,325.747  A7.8439,7.8439 0 0,0 846.658,320.003 " />
<path d="M846.658,447.997  A7.8439,7.8439 0 0,0 853.549,442.253 " />
<path d="M853.549,442.253  A220.653,220.653 0 0,0 853.549,325.747 " />
<path d="M690.435,52.9292  A7.8439,7.8439 0 0,0 686.774,45.6611 " />
<path d="M454.626,21.054  A7.8439,7.8439 0 0,0 461.759,11.2764 " />
<path d="M461.759,11.2764  A7.8439,7.8439 0 0,0 454.525,7.54838 " />
<path d="M469.45,45.9454  A7.8439,7.8439 0 0,0 461.857,41.1664 " />
<path d="M562.241,11.2764  A7.8439,7.8439 0 0,0 569.374,21.054 " />
<path d="M569.475,7.54838  A7.8439,7.8439 0 0,0 562.241,11.2764 " />
<path d="M562.143,41.1664  A7.8439,7.8439 0 0,0 554.55,45.9454 " />
<path d="M686.774,45.6611  A254.644,254.644 0 0,0 569.475,7.54838 " />
<path d="M454.525,7.54838  A254.644,254.644 0 0,0 337.226,45.6611 " />
<path d="M820.36,239.068  A7.8439,7.8439 0 0,0 822.559,230.37 " />
<path d="M779.771,113.227  A7.8439,7.8439 0 0,0 771.727,111.991 " />
<path d="M771.727,111.991  A7.8439,7.8439 0 0,0 771.751,124.094 " />
<path d="M676.28,85.4977  A7.8439,7.8439 0 0,0 672.946,77.1687 " />
<path d="M754.079,136.115  A7.8439,7.8439 0 0,0 745.127,135.519 " />
<path d="M732.626,296.423  A13.0732,13.0732 0 0,0 750.887,299.315 " />
<polyline points="741.967,325.171 741.967,442.829 " />
<path d="M666.36,182.974  A13.0732,13.0732 0 0,0 663.468,201.235 " />
<path d="M639.014,183.468  A13.0732,13.0732 0 0,0 655.487,175.074 " />
<polyline points="663.468,201.235 732.626,296.423 " />
<polyline points="666.36,182.974 745.127,135.519 " />
<polyline points="655.487,175.074 676.28,85.4977 " />
<path d="M750.887,468.685  A13.0732,13.0732 0 0,0 732.626,471.577 " />
<path d="M755.04,312.098  A13.0732,13.0732 0 0,0 741.967,325.171 " />
<path d="M741.967,442.829  A13.0732,13.0732 0 0,0 755.04,455.902 " />
<polyline points="750.887,299.315 820.36,239.068 " />
<path d="M822.559,230.37  A220.653,220.653 0 0,0 754.079,136.115 " />
<path d="M518.72,130.636  A13.0732,13.0732 0 0,0 527.114,147.109 " />
<path d="M496.886,147.109  A13.0732,13.0732 0 0,0 505.28,130.636 " />
<path d="M368.513,175.074  A13.0732,13.0732 0 0,0 384.986,183.468 " />
<polyline points="384.986,183.468 496.886,147.109 " />
<polyline points="527.114,147.109 639.014,183.468 " />
<polyline points="518.72,130.636 554.55,45.9454 " />
<polyline points="505.28,130.636 469.45,45.9454 " />
<path d="M678.918,56.647  A7.8439,7.8439 0 0,0 690.435,52.9292 " />
<path d="M672.946,77.1687  A220.653,220.653 0 0,0 562.143,41.1664 " />
<path d="M678.918,56.647  A228.497,228.497 0 0,0 569.374,21.054 " />
<path d="M461.857,41.1664  A220.653,220.653 0 0,0 351.054,77.1687 " />
<path d="M454.626,21.054  A228.497,228.497 0 0,0 345.082,56.647 " />
<path d="M839.453,217.278  A7.8439,7.8439 0 0,0 850.956,221.04 " />
<polyline points="755.04,312.098 846.658,320.003 " />
<polyline points="755.04,455.902 846.658,447.997 " />
<path d="M839.453,217.278  A228.497,228.497 0 0,0 771.751,124.094 " />
<path d="M852.266,213.008  A254.644,254.644 0 0,0 779.771,113.227 " />
<polyline points="273.113,468.685 203.64,528.932 " />
<polyline points="360.532,566.765 291.374,471.577 " />
<path d="M357.64,585.026  A13.0732,13.0732 0 0,0 360.532,566.765 " />
<path d="M347.72,682.502  A7.8439,7.8439 0 0,0 351.054,690.831 " />
<path d="M345.082,711.353  A7.8439,7.8439 0 0,0 333.565,715.071 " />
<path d="M333.565,715.071  A7.8439,7.8439 0 0,0 337.226,722.339 " />
<path d="M184.547,550.722  A7.8439,7.8439 0 0,0 173.044,546.96 " />
<path d="M173.044,546.96  A7.8439,7.8439 0 0,0 171.734,554.992 " />
<path d="M203.64,528.932  A7.8439,7.8439 0 0,0 201.441,537.63 " />
<path d="M269.921,631.885  A7.8439,7.8439 0 0,0 278.873,632.481 " />
<path d="M252.273,656.009  A7.8439,7.8439 0 0,0 252.249,643.906 " />
<path d="M244.229,654.773  A7.8439,7.8439 0 0,0 252.273,656.009 " />
<path d="M171.734,554.992  A254.644,254.644 0 0,0 244.229,654.773 " />
<path d="M184.547,550.722  A228.497,228.497 0 0,0 252.249,643.906 " />
<path d="M201.441,537.63  A220.653,220.653 0 0,0 269.921,631.885 " />
<polyline points="368.513,592.926 347.72,682.502 " />
<polyline points="357.64,585.026 278.873,632.481 " />
<path d="M337.226,45.6611  A7.8439,7.8439 0 0,0 333.565,52.9292 " />
<path d="M360.532,201.235  A13.0732,13.0732 0 0,0 357.64,182.974 " />
<path d="M351.054,77.1687  A7.8439,7.8439 0 0,0 347.72,85.4977 " />
<path d="M252.273,111.991  A7.8439,7.8439 0 0,0 244.229,113.227 " />
<path d="M278.873,135.519  A7.8439,7.8439 0 0,0 269.921,136.115 " />
<path d="M173.044,221.04  A7.8439,7.8439 0 0,0 184.547,217.278 " />
<path d="M171.734,213.008  A7.8439,7.8439 0 0,0 173.044,221.04 " />
<path d="M201.441,230.37  A7.8439,7.8439 0 0,0 203.64,239.068 " />
<path d="M282.033,325.171  A13.0732,13.0732 0 0,0 268.96,312.098 " />
<path d="M177.342,320.003  A7.8439,7.8439 0 0,0 170.451,325.747 " />
<polyline points="268.96,312.098 177.342,320.003 " />
<polyline points="273.113,299.315 203.64,239.068 " />
<path d="M170.451,442.253  A7.8439,7.8439 0 0,0 177.342,447.997 " />
<polyline points="282.033,442.829 282.033,325.171 " />
<path d="M252.249,124.094  A228.497,228.497 0 0,0 184.547,217.278 " />
<path d="M269.921,136.115  A220.653,220.653 0 0,0 201.441,230.37 " />
<path d="M273.113,299.315  A13.0732,13.0732 0 0,0 291.374,296.423 " />
<path d="M252.249,124.094  A7.8439,7.8439 0 0,0 252.273,111.991 " />
<path d="M244.229,113.227  A254.644,254.644 0 0,0 171.734,213.008 " />
<path d="M149.088,326.409  A7.8439,7.8439 0 0,0 141.993,316.604 " />
<path d="M141.993,316.604  A7.8439,7.8439 0 0,0 136.212,322.332 " />
<path d="M141.993,451.396  A7.8439,7.8439 0 0,0 149.088,441.591 " />
<path d="M136.212,445.668  A7.8439,7.8439 0 0,0 141.993,451.396 " />
<path d="M136.212,322.332  A254.644,254.644 0 0,0 136.212,445.668 " />
<path d="M149.088,326.409  A228.497,228.497 0 0,0 149.088,441.591 " />
<path d="M170.451,325.747  A220.653,220.653 0 0,0 170.451,442.253 " />
<path d="M291.374,471.577  A13.0732,13.0732 0 0,0 273.113,468.685 " />
<path d="M268.96,455.902  A13.0732,13.0732 0 0,0 282.033,442.829 " />
<polyline points="268.96,455.902 177.342,447.997 " />
<polyline points="368.513,175.074 347.72,85.4977 " />
<polyline points="291.374,296.423 360.532,201.235 " />
<polyline points="357.64,182.974 278.873,135.519 " />
<path d="M333.565,52.9292  A7.8439,7.8439 0 0,0 345.082,56.647 " />
<polyline points="750.887,468.685 820.36,528.932 " />
<polyline points="732.626,471.577 663.468,566.765 " />
<circle cx="512" cy="384" r="196.097" />
<path d="M852.266,554.992  A7.8439,7.8439 0 0,0 850.956,546.96 " />
<path d="M822.559,537.63  A7.8439,7.8439 0 0,0 820.36,528.932 " />
<path d="M771.751,643.906  A7.8439,7.8439 0 0,0 771.727,656.009 " />
<path d="M771.727,656.009  A7.8439,7.8439 0 0,0 779.771,654.773 " />
<path d="M745.127,632.481  A7.8439,7.8439 0 0,0 754.079,631.885 " />
<path d="M690.435,715.071  A7.8439,7.8439 0 0,0 678.918,711.353 " />
<path d="M686.774,722.339  A7.8439,7.8439 0 0,0 690.435,715.071 " />
<path d="M663.468,566.765  A13.0732,13.0732 0 0,0 666.36,585.026 " />
<path d="M655.487,592.926  A13.0732,13.0732 0 0,0 639.014,584.532 " />
<polyline points="655.487,592.926 676.28,682.502 " />
<path d="M672.946,690.831  A7.8439,7.8439 0 0,0 676.28,682.502 " />
<polyline points="666.36,585.026 745.127,632.481 " />
<path d="M754.079,631.885  A220.653,220.653 0 0,0 822.559,537.63 " />
<polyline points="518.72,637.364 554.55,722.055 " />
<path d="M505.28,637.364  A13.0732,13.0732 0 0,0 496.886,620.891 " />
<path d="M527.114,620.891  A13.0732,13.0732 0 0,0 518.72,637.364 " />
<path d="M461.759,756.724  A7.8439,7.8439 0 0,0 454.626,746.946 " />
<path d="M454.525,760.452  A7.8439,7.8439 0 0,0 461.759,756.724 " />
<path d="M461.857,726.834  A7.8439,7.8439 0 0,0 469.45,722.055 " />
<polyline points="505.28,637.364 469.45,722.055 " />
<path d="M569.374,746.946  A7.8439,7.8439 0 0,0 562.241,756.724 " />
<path d="M562.241,756.724  A7.8439,7.8439 0 0,0 569.475,760.452 " />
<path d="M554.55,722.055  A7.8439,7.8439 0 0,0 562.143,726.834 " />
<path d="M384.986,584.532  A13.0732,13.0732 0 0,0 368.513,592.926 " />
<polyline points="496.886,620.891 384.986,584.532 " />
<polyline points="639.014,584.532 527.114,620.891 " />
<path d="M569.475,760.452  A254.644,254.644 0 0,0 686.774,722.339 " />
<path d="M569.374,746.946  A228.497,228.497 0 0,0 678.918,711.353 " />
<path d="M562.143,726.834  A220.653,220.653 0 0,0 672.946,690.831 " />
<path d="M337.226,722.339  A254.644,254.644 0 0,0 454.525,760.452 " />
<path d="M345.082,711.353  A228.497,228.497 0 0,0 454.626,746.946 " />
<path d="M351.054,690.831  A220.653,220.653 0 0,0 461.857,726.834 " />
<path d="M850.956,546.96  A7.8439,7.8439 0 0,0 839.453,550.722 " />
<path d="M779.771,654.773  A254.644,254.644 0 0,0 852.266,554.992 " />
<path d="M771.751,643.906  A228.497,228.497 0 0,0 839.453,550.722 " />
<path d="M887.788,322.332  A7.8439,7.8439 0 0,0 882.007,316.604 " />
<path d="M882.007,316.604  A7.8439,7.8439 0 0,0 874.912,326.409 " />
<path d="M882.007,451.396  A7.8439,7.8439 0 0,0 887.788,445.668 " />
<path d="M874.912,441.591  A7.8439,7.8439 0 0,0 882.007,451.396 " />
<path d="M874.912,441.591  A228.497,228.497 0 0,0 874.912,326.409 " />
<path d="M887.788,445.668  A254.644,254.644 0 0,0 887.788,322.332 " />
<path d="M850.956,221.04  A7.8439,7.8439 0 0,0 852.266,213.008 " />
<path d="M853.549,325.747  A7.8439,7.8439 0 0,0 846.658,320.003 " />
<path d="M846.658,447.997  A7.8439,7.8439 0 0,0 853.549,442.253 " />
<path d="M853.549,442.253  A220.653,220.653 0 0,0 853.549,325.747 " />
<path d="M690.435,52.9292  A7.8439,7.8439 0 0,0 686.774,45.6611 " />
<path d="M454.626,21.054  A7.8439,7.8439 0 0,0 461.759,11.2764 " />
<path d="M461.759,11.2764  A7.8439,7.8439 0 0,0 454.525,7.54838 " />
<path d="M469.45,45.9454  A7.8439,7.8439 0 0,0 461.857,41.1664 " />
<path d="M562.241,11.2764  A7.8439,7.8439 0 0,0 569.374,21.054 " />
<path d="M569.475,7.54838  A7.8439,7.8439 0 0,0 562.241,11.2764 " />
<path d="M562.143,41.1664  A7.8439,7.8439 0 0,0 554.55,45.9454 " />
<path d="M686.774,45.6611  A254.644,254.644 0 0,0 569.475,7.54838 " />
<path d="M454.525,7.54838  A254.644,254.644 0 0,0 337.226,45.6611 " />
<path d="M820.36,239.068  A7.8439,7.8439 0 0,0 822.559,230.37 " />
<path d="M779.771,113.227  A7.8439,7.8439 0 0,0 771.727,111.991 " />
<path d="M771.727,111.991  A7.8439,7.8439 0 0,0 771.751,124.094 " />
<path d="M676.28,85.4977  A7.8439,7.8439 0 0,0 672.946,77.1687 " />
<path d="M754.079,136.115  A7.8439,7.8439 0 0,0 745.127,135.519 " />
<path d="M732.626,296.423  A13.0732,13.0732 0 0,0 750.887,299.315 " />
<polyline points="741.967,325.171 741.967,442.829 " />
<path d="M666.36,182.974  A13.0732,13.0732 0 0,0 663.468,201.235 " />
<path d="M639.014,183.468  A13.0732,13.0732 0 0,0 655.487,175.074 " />
<polyline points="663.468,201.235 732.626,296.423 " />
<polyline points="666.36,182.974 745.127,135.519 " />
<polyline points="655.487,175.074 676.28,85.4977 " />
<path d="M750.887,468.685  A13.0732,13.0732 0 0,0 732.626,471.577 " />
<path d="M755.04,312.098  A13.0732,13.0732 0 0,0 741.967,325.171 " />
<path d="M741.967,442.829  A13.0732,13.0732 0 0,0 755.04,455.902 " />
<polyline points="750.887,299.315 820.36,239.068 " />
<path d="M822.559,230.37  A220.653,220.653 0 0,0 754.079,136.115 " />
<path d="M518.72,130.636  A13.0732,13.0732 0 0,0 527.114,147.109 " />
<path d="M496.886,147.109  A13.0732,13.0732 0 0,0 505.28,130.636 " />
<path d="M368.513,175.074  A13.0732,13.0732 0 0,0 384.986,183.468 " />
<polyline points="384.986,183.468 496.886,147.109 " />
<polyline points="527.114,147.109 639.014,183.468 " />
<polyline points="518.72,130.636 554.55,45.9454 " />
<polyline points="505.28,130.636 469.45,45.9454 " />
<path d="M678.918,56.647  A7.8439,7.8439 0 0,0 690.435,52.9292 " />
<path d="M672.946,77.1687  A220.653,220.653 0 0,0 562.143,41.1664 " />
<path d="M678.918,56.647  A228.497,228.497 0 0,0 569.374,21.054 " />
<path d="M461.857,41.1664  A220.653,220.653 0 0,0 351.054,77.1687 " />
<path d="M454.626,21.054  A228.497,228.497 0 0,0 345.082,56.647 " />
<path d="M839.453,217.278  A7.8439,7.8439 0 0,0 850.956,221.04 " />
<polyline points="755.04,312.098 846.658,320.003 " />
<polyline points="755.04,455.902 846.658,447.997 " />
<path d="M839.453,217.278  A228.497,228.497 0 0,0 771.751,124.094 " />
<path d="M852.266,213.008  A254.644,254.644 0 0,0 779.771,113.227 " />
<polyline points="273.113,468.685 203.64,528.932 " />
<polyline points="360.532,566.765 291.374,471.577 " />
<path d="M357.64,585.026  A13.0732,13.0732 0 0,0 360.532,566.765 " />
<path d="M347.72,682.502  A7.8439,7.8439 0 0,0 351.054,690.831 " />
<path d="M345.082,711.353  A7.8439,7.8439 0 0,0 333.565,715.071 " />
<path d="M333.565,715.071  A7.8439,7.8439 0 0,0 337.226,722.339 " />
<path d="M184.547,550.722  A7.8439,7.8439 0 0,0 173.044,546.96 " />
<path d="M173.044,546.96  A7.8439,7.8439 0 0,0 171.734,554.992 " />
<path d="M203.64,528.932  A7.8439,7.8439 0 0,0 201.441,537.63 " />
<path d="M269.921,631.885  A7.8439,7.8439 0 0,0 278.873,632.481 " />
<path d="M252.273,656.009  A7.8439,7.8439 0 0,0 252.249,643.906 " />
<path d="M244.229,654.773  A7.8439,7.8439 0 0,0 252.273,656.009 " />
<path d="M171.734,554.992  A254.644,254.644 0 0,0 244.229,654.773 " />
<path d="M184.547,550.722  A228.497,228.497 0 0,0 252.249,643.906 " />
<path d="M201.441,537.63  A220.653,220.653 0 0,0 269.921,631.885 " />
<polyline points="368.513,592.926 347.72,682.502 " />
<polyline points="357.64,585.026 278.873,632.481 " />
<path d="M337.226,45.6611  A7.8439,7.8439 0 0,0 333.565,52.9292 " />
<path d="M360.532,201.235  A13.0732,13.0732 0 0,0 357.64,182.974 " />
<path d="M351.054,77.1687  A7.8439,7.8439 0 0,0 347.72,85.4977 " />
<path d="M252.273,111.991  A7.8439,7.8439 0 0,0 244.229,113.227 " />
<path d="M278.873,135.519  A7.8439,7.8439 0 0,0 269.921,136.115 " />
<path d="M173.044,221.04  A7.8439,7.8439 0 0,0 184.547,217.278 " />
<path d="M171.734,213.008  A7.8439,7.8439 0 0,0 173.044,221.04 " />
<path d="M201.441,230.37  A7.8439,7.8439 0 0,0 203.64,239.068 " />
<path d="M282.033,325.171  A13.0732,13.0732 0 0,0 268.96,312.098 " />
<path d="M177.342,320.003  A7.8439,7.8439 0 0,0 170.451,325.747 " />
<polyline points="268.96,312.098 177.342,320.003 " />
<polyline points="273.113,299.315 203.64,239.068 " />
<path d="M170.451,442.253  A7.8439,7.8439 0 0,0 177.342,447.997 " />
<polyline points="282.033,442.829 282.033,325.171 " />
<path d="M252.249,124.094  A228.497,228.497 0 0,0 184.547,217.278 " />
<path d="M269.921,136.115  A220.653,220.653 0 0,0 201.441,230.37 " />
<path d="M273.113,299.315  A13.0732,13.0732 0 0,0 291.374,296.423 " />
<path d="M252.249,124.094  A7.8439,7.8439 0 0,0 252.273,111.991 " />
<path d="M244.229,113.227  A254.644,254.644 0 0,0 171.734,213.008 " />
<path d="M149.088,326.409  A7.8439,7.8439 0 0,0 141.993,316.604 " />
<path d="M141.993,316.604  A7.8439,7.8439 0 0,0 136.212,322.332 " />
<path d="M141.993,451.396  A7.8439,7.8439 0 0,0 149.088,441.591 " />
<path d="M136.212,445.668  A7.8439,7.8439 0 0,0 141.993,451.396 " />
<path d="M136.212,322.332  A254.644,254.644 0 0,0 136.212,445.668 " />
<path d="M149.088,326.409  A228.497,228.497 0 0,0 149.088,441.591 " />
<path d="M170.451,325.747  A220.653,220.653 0 0,0 170.451,442.253 " />
<path d="M291.374,471.577  A13.0732,13.0732 0 0,0 273.113,468.685 " />
<path d="M268.96,455.902  A13.0732,13.0732 0 0,0 282.033,442.829 " />
<polyline points="268.96,455.902 177.342,447.997 " />
<polyline points="368.513,175.074 347.72,85.4977 " />
<polyline points="291.374,296.423 360.532,201.235 " />
<polyline points="357.64,182.974 278.873,135.519 " />
<path d="M333.565,52.9292  A7.8439,7.8439 0 0,0 345.082,56.647 " />
</g>
<g clip-path="url(#clipId0)" fill="rgb(91,91,91)" stroke="rgb(91,91,91)" stroke-width="0" >
<text transform="matrix(11.4082 0 -0 11.4082 166.969 730.353)" font-family="Arial,&apos;sans-serif&apos;" font-size="1.39636" >Please go to www.autodwg.com to register and eliminate such limits.</text>
<text transform="matrix(11.4082 0 -0 11.4082 166.969 709.818)" font-family="Arial,&apos;sans-serif&apos;" font-size="1.39636" >The note and watermark only exist in the trial version.</text>
<text transform="matrix(11.4082 0 -0 11.4082 166.969 730.353)" font-family="Arial,&apos;sans-serif&apos;" font-size="1.39636" >Please go to www.autodwg.com to register and eliminate such limits.</text>
<text transform="matrix(11.4082 0 -0 11.4082 166.969 709.818)" font-family="Arial,&apos;sans-serif&apos;" font-size="1.39636" >The note and watermark only exist in the trial version.</text>
<text transform="matrix(11.4082 0 -0 11.4082 166.969 730.353)" font-family="Arial,&apos;sans-serif&apos;" font-size="1.39636" >Please go to www.autodwg.com to register and eliminate such limits.</text>
<text transform="matrix(11.4082 0 -0 11.4082 166.969 709.818)" font-family="Arial,&apos;sans-serif&apos;" font-size="1.39636" >The note and watermark only exist in the trial version.</text>
</g>
<g clip-path="url(#clipId0)" fill="rgb(0,0,255)" stroke="rgb(0,0,255)" stroke-width="0" >
<text transform="matrix(14.8509 0 -0 14.8509 205.306 384)" font-family="Arial,&apos;sans-serif&apos;" font-size="1.39636" >AutoDWG DWG to SVG Converter FREE TRIAL</text>
</g>
</svg>

