<?xml version="1.0" standalone="no"?>
<svg viewBox="-512 -384 1024 768" version="1.1" xmlns="http://www.w3.org/2000/svg" xmlns:xlink="http://www.w3.org/1999/xlink" stroke-linecap="round" stroke-linejoin="round" fill-rule="evenodd" xml:space="preserve" >
<defs >
<clipPath id="clipId0" >
<path d="M0,768 1024,768 1024,0 0,0 z" />
</clipPath>
</defs>
<g clip-path="url(#clipId0)" fill="none" stroke="rgb(0,0,0)" stroke-width="0.1" />
<g clip-path="url(#clipId0)" fill="none" stroke="rgb(0,0,0)" stroke-width="0.25" >
<path d="M857.811,240.701  A63.2445,63.2445 0 0,0 836.471,250.536 " />
<path d="M853.044,242.094  A83.3172,83.3172 0 0,0 830.796,250.474 " />
<path d="M787.118,174.821  A83.3172,83.3172 0 0,0 805.499,159.744 " />
<path d="M789.902,169.875  A63.2445,63.2445 0 0,0 809.089,156.312 " />
<polyline points="813.71,209.903 827.729,234.185 " />
<path d="M754.062,302.849  A303.111,303.111 0 0,0 835.933,250.964 " />
<path d="M828.98,256.944  A25.6874,25.6874 0 0,0 827.729,234.185 " />
<path d="M754.062,302.849  A3.15485,3.15485 0 0,0 753.014,300.686 " />
<polyline points="753.014,300.686 757.658,298.54 " />
<polyline points="757.658,298.54 757.874,301.187 " />
<polyline points="757.658,298.54 758.917,300.722 " />
<polyline points="708.922,214.128 707.663,211.947 " />
<polyline points="708.922,214.128 706.738,212.617 " />
<polyline points="704.742,217.076 708.922,214.128 " />
<path d="M704.742,217.076  A3.15485,3.15485 0 0,0 703.393,215.087 " />
<path d="M799.691,185.621  A25.6874,25.6874 0 0,0 780.607,173.159 " />
<path d="M789.262,170.127  A303.111,303.111 0 0,0 703.393,215.087 " />
<polyline points="813.71,209.903 799.691,185.621 " />
<polyline points="832.329,199.154 856.41,240.862 " />
<polyline points="834.191,198.079 858.314,239.86 " />
<path d="M857.811,240.701  A0.634805,0.634805 0 0,0 858.314,239.86 " />
<path d="M856.282,241.135  A0.190388,0.190388 0 0,0 856.401,240.847 " />
<polyline points="832.143,199.261 856.223,240.969 " />
<path d="M856.188,241.161  A0.11372,0.11372 0 0,0 856.223,240.969 " />
<path d="M808.063,157.553  A0.11372,0.11372 0 0,0 807.879,157.488 " />
<polyline points="832.143,199.261 808.063,157.553 " />
<path d="M808.258,157.46  A0.190388,0.190388 0 0,0 807.948,157.419 " />
<path d="M810.069,156.297  A0.634805,0.634805 0 0,0 809.089,156.312 " />
<polyline points="834.191,198.079 810.069,156.297 " />
<polyline points="832.329,199.154 808.249,157.445 " />
<polyline points="861.462,246.42 854.018,248.546 846.931,251.663 840.334,255.713 840.334,255.713 825.021,268.437 808.924,280.151 792.108,290.808 774.642,300.364 756.599,308.779 756.599,308.779 754.98,307.192 754.088,305.108 754.059,302.84 754.059,302.84 753.748,301.653 753.009,300.674 753.009,300.674 748.885,294.874 745.094,288.851 728.021,259.28 710.948,229.709 710.948,229.709 707.628,223.414 704.667,216.943 704.667,216.943 704.188,215.813 703.316,214.951 703.316,214.951 701.367,213.792 700.007,211.977 699.443,209.781 699.443,209.781 715.752,198.363 732.76,188.016 750.398,178.781 768.591,170.697 787.266,163.798 787.266,163.798 794.073,160.11 800.316,155.531 805.879,150.147 805.879,150.147 807.078,148.892 808.748,148.417 810.428,148.853 811.657,150.08 864.409,241.45 864.409,241.45 864.858,243.127 864.395,244.8 863.149,246.009 861.462,246.42 " />
<path d="M739.832,86.9942  A63.2445,63.2445 0 0,0 726.268,106.181 " />
<path d="M736.4,90.5838  A83.3172,83.3172 0 0,0 721.322,108.965 " />
<path d="M645.67,65.287  A83.3172,83.3172 0 0,0 654.049,43.0386 " />
<path d="M645.608,59.6116  A63.2445,63.2445 0 0,0 655.442,38.2718 " />
<polyline points="686.24,82.3727 710.522,96.3919 " />
<path d="M681.057,192.69  A303.111,303.111 0 0,0 726.016,106.821 " />
<path d="M722.985,115.476  A25.6874,25.6874 0 0,0 710.522,96.3919 " />
<path d="M681.057,192.69  A3.15485,3.15485 0 0,0 679.067,191.341 " />
<polyline points="679.067,191.341 682.016,187.161 " />
<polyline points="682.016,187.161 683.527,189.345 " />
<polyline points="682.016,187.161 684.197,188.42 " />
<polyline points="597.603,138.425 595.422,137.166 " />
<polyline points="597.603,138.425 594.956,138.209 " />
<polyline points="595.458,143.069 597.603,138.425 " />
<path d="M595.458,143.069  A3.15485,3.15485 0 0,0 593.295,142.021 " />
<path d="M661.958,68.3535  A25.6874,25.6874 0 0,0 639.199,67.1028 " />
<path d="M645.179,60.1501  A303.111,303.111 0 0,0 593.295,142.021 " />
<polyline points="686.24,82.3727 661.958,68.3535 " />
<polyline points="696.99,63.7537 738.698,87.834 " />
<polyline points="698.065,61.8918 739.847,86.0144 " />
<path d="M739.832,86.9942  A0.634805,0.634805 0 0,0 739.847,86.0144 " />
<path d="M738.724,88.1348  A0.190388,0.190388 0 0,0 738.683,87.8253 " />
<polyline points="696.883,63.9399 738.591,88.0202 " />
<path d="M738.656,88.2034  A0.11372,0.11372 0 0,0 738.591,88.0202 " />
<path d="M655.174,39.8595  A0.11372,0.11372 0 0,0 654.983,39.895 " />
<polyline points="696.883,63.9399 655.174,39.8595 " />
<path d="M655.297,39.6821  A0.190388,0.190388 0 0,0 655.008,39.8013 " />
<path d="M656.283,37.7692  A0.634805,0.634805 0 0,0 655.442,38.2718 " />
<polyline points="698.065,61.8918 656.283,37.7692 " />
<polyline points="696.99,63.7537 655.282,39.6734 " />
<polyline points="745.853,90.1211 740.469,95.6842 735.89,101.927 732.202,108.734 732.202,108.734 725.303,127.409 717.219,145.602 707.984,163.24 697.637,180.248 686.219,196.557 686.219,196.557 684.023,195.993 682.208,194.633 681.049,192.684 681.049,192.684 680.187,191.812 679.057,191.333 679.057,191.333 672.586,188.372 666.291,185.052 636.72,167.979 607.149,150.906 607.149,150.906 601.126,147.115 595.326,142.991 595.326,142.991 594.347,142.252 593.16,141.941 593.16,141.941 590.892,141.912 588.808,141.02 587.221,139.401 587.221,139.401 595.636,121.358 605.192,103.892 615.849,87.0762 627.563,70.9788 640.287,55.6665 640.287,55.6665 644.337,49.0687 647.454,41.9819 649.58,34.5375 649.58,34.5375 649.991,32.8511 651.2,31.605 652.873,31.1424 654.55,31.5906 745.92,84.3433 745.92,84.3433 747.147,85.5716 747.583,87.2519 747.108,88.9216 745.853,90.1211 " />
<polyline points="218.121,150.147 223.684,155.531 229.927,160.11 236.734,163.798 236.734,163.798 255.409,170.697 273.602,178.781 291.24,188.016 308.248,198.363 324.557,209.781 324.557,209.781 323.993,211.977 322.633,213.792 320.684,214.951 320.684,214.951 319.812,215.813 319.333,216.943 319.333,216.943 316.372,223.414 313.052,229.709 295.979,259.28 278.906,288.851 278.906,288.851 275.115,294.874 270.991,300.674 270.991,300.674 270.252,301.653 269.941,302.84 269.941,302.84 269.912,305.108 269.02,307.192 267.401,308.779 267.401,308.779 249.358,300.364 231.892,290.808 215.076,280.151 198.979,268.437 183.666,255.713 183.666,255.713 177.069,251.663 169.982,248.546 162.538,246.42 162.538,246.42 160.851,246.009 159.605,244.8 159.142,243.127 159.591,241.45 212.343,150.08 212.343,150.08 213.572,148.853 215.252,148.417 216.922,148.892 218.121,150.147 " />
<path d="M214.994,156.168  A63.2445,63.2445 0 0,0 234.181,169.732 " />
<path d="M218.584,159.6  A83.3172,83.3172 0 0,0 236.965,174.678 " />
<path d="M193.287,250.33  A83.3172,83.3172 0 0,0 171.039,241.951 " />
<path d="M187.612,250.392  A63.2445,63.2445 0 0,0 166.272,240.558 " />
<polyline points="210.373,209.76 224.392,185.478 " />
<path d="M320.69,214.943  A303.111,303.111 0 0,0 234.821,169.984 " />
<path d="M243.476,173.015  A25.6874,25.6874 0 0,0 224.392,185.478 " />
<path d="M320.69,214.943  A3.15485,3.15485 0 0,0 319.341,216.933 " />
<polyline points="319.341,216.933 315.161,213.984 " />
<polyline points="315.161,213.984 317.345,212.473 " />
<polyline points="315.161,213.984 316.42,211.803 " />
<polyline points="266.425,298.397 265.166,300.578 " />
<polyline points="266.425,298.397 266.209,301.044 " />
<polyline points="271.069,300.542 266.425,298.397 " />
<path d="M271.069,300.542  A3.15485,3.15485 0 0,0 270.021,302.705 " />
<path d="M196.354,234.042  A25.6874,25.6874 0 0,0 195.103,256.801 " />
<path d="M188.15,250.821  A303.111,303.111 0 0,0 270.021,302.705 " />
<polyline points="210.373,209.76 196.354,234.042 " />
<polyline points="191.754,199.01 215.834,157.302 " />
<polyline points="189.892,197.935 214.014,156.153 " />
<path d="M214.994,156.168  A0.634805,0.634805 0 0,0 214.014,156.153 " />
<path d="M216.135,157.276  A0.190388,0.190388 0 0,0 215.825,157.317 " />
<polyline points="191.94,199.117 216.02,157.409 " />
<path d="M216.203,157.344  A0.11372,0.11372 0 0,0 216.02,157.409 " />
<path d="M167.86,240.826  A0.11372,0.11372 0 0,0 167.895,241.017 " />
<polyline points="191.94,199.117 167.86,240.826 " />
<path d="M167.682,240.703  A0.190388,0.190388 0 0,0 167.801,240.992 " />
<path d="M165.769,239.717  A0.634805,0.634805 0 0,0 166.272,240.558 " />
<polyline points="189.892,197.935 165.769,239.717 " />
<polyline points="191.754,199.01 167.673,240.718 " />
<path d="M368.701,38.1889  A63.2445,63.2445 0 0,0 378.536,59.5287 " />
<path d="M370.094,42.9557  A83.3172,83.3172 0 0,0 378.474,65.204 " />
<path d="M302.821,108.882  A83.3172,83.3172 0 0,0 287.744,90.5008 " />
<path d="M297.875,106.098  A63.2445,63.2445 0 0,0 284.312,86.9112 " />
<polyline points="337.903,82.2898 362.185,68.2706 " />
<path d="M430.849,141.938  A303.111,303.111 0 0,0 378.964,60.0672 " />
<path d="M384.944,67.0199  A25.6874,25.6874 0 0,0 362.185,68.2706 " />
<path d="M430.849,141.938  A3.15485,3.15485 0 0,0 428.686,142.986 " />
<polyline points="428.686,142.986 426.54,138.342 " />
<polyline points="426.54,138.342 429.187,138.126 " />
<polyline points="426.54,138.342 428.722,137.083 " />
<polyline points="342.128,187.078 339.947,188.337 " />
<polyline points="342.128,187.078 340.617,189.262 " />
<polyline points="345.076,191.258 342.128,187.078 " />
<path d="M345.076,191.258  A3.15485,3.15485 0 0,0 343.087,192.607 " />
<path d="M313.621,96.309  A25.6874,25.6874 0 0,0 301.159,115.393 " />
<path d="M298.127,106.738  A303.111,303.111 0 0,0 343.087,192.607 " />
<polyline points="337.903,82.2898 313.621,96.309 " />
<polyline points="327.154,63.6708 368.862,39.5904 " />
<polyline points="326.079,61.8089 367.86,37.6862 " />
<path d="M368.701,38.1889  A0.634805,0.634805 0 0,0 367.86,37.6862 " />
<path d="M369.135,39.7184  A0.190388,0.190388 0 0,0 368.847,39.5992 " />
<polyline points="327.261,63.857 368.969,39.7766 " />
<path d="M369.161,39.812  A0.11372,0.11372 0 0,0 368.969,39.7766 " />
<path d="M285.553,87.9373  A0.11372,0.11372 0 0,0 285.488,88.1205 " />
<polyline points="327.261,63.857 285.553,87.9373 " />
<path d="M285.46,87.7424  A0.190388,0.190388 0 0,0 285.419,88.0519 " />
<path d="M284.297,85.9315  A0.634805,0.634805 0 0,0 284.312,86.9112 " />
<polyline points="326.079,61.8089 284.297,85.9315 " />
<polyline points="327.154,63.6708 285.445,87.7511 " />
<polyline points="374.42,34.5375 376.546,41.9819 379.663,49.0687 383.713,55.6665 383.713,55.6665 396.437,70.9788 408.151,87.0762 418.808,103.892 428.364,121.358 436.779,139.401 436.779,139.401 435.192,141.02 433.108,141.912 430.84,141.941 430.84,141.941 429.653,142.252 428.674,142.991 428.674,142.991 422.874,147.115 416.851,150.906 387.28,167.979 357.709,185.052 357.709,185.052 351.414,188.372 344.943,191.333 344.943,191.333 343.813,191.812 342.951,192.684 342.951,192.684 341.792,194.633 339.977,195.993 337.781,196.557 337.781,196.557 326.363,180.248 316.016,163.24 306.781,145.602 298.697,127.409 291.798,108.734 291.798,108.734 288.11,101.927 283.531,95.6842 278.147,90.1211 278.147,90.1211 276.892,88.9216 276.417,87.2519 276.853,85.5716 278.08,84.3433 369.45,31.5906 369.45,31.5906 371.127,31.1424 372.8,31.605 374.009,32.8511 374.42,34.5375 " />
<path d="M560.805,12.8694  A63.2445,63.2445 0 0,0 558.652,36.2676 " />
<path d="M559.628,17.694  A83.3172,83.3172 0 0,0 555.761,41.1515 " />
<path d="M468.405,41.1515  A83.3172,83.3172 0 0,0 464.538,17.694 " />
<path d="M465.513,36.2676  A63.2445,63.2445 0 0,0 463.361,12.8694 " />
<polyline points="512.083,35.6629 540.121,35.6629 " />
<path d="M562.752,133.792  A303.111,303.111 0 0,0 558.754,36.9482 " />
<path d="M560.457,45.9593  A25.6874,25.6874 0 0,0 540.121,35.6629 " />
<path d="M562.752,133.792  A3.15485,3.15485 0 0,0 560.355,133.619 " />
<polyline points="560.355,133.619 560.818,128.524 " />
<polyline points="560.818,128.524 563.219,129.661 " />
<polyline points="560.818,128.524 563.337,128.524 " />
<polyline points="463.347,128.524 460.829,128.524 " />
<polyline points="463.347,128.524 460.947,129.661 " />
<polyline points="463.811,133.619 463.347,128.524 " />
<path d="M463.811,133.619  A3.15485,3.15485 0 0,0 461.414,133.792 " />
<path d="M484.045,35.6629  A25.6874,25.6874 0 0,0 463.709,45.9593 " />
<path d="M465.412,36.9482  A303.111,303.111 0 0,0 461.414,133.792 " />
<polyline points="512.083,35.6629 484.045,35.6629 " />
<polyline points="512.083,14.1635 560.244,14.1635 " />
<polyline points="512.083,12.0136 560.328,12.0136 " />
<path d="M560.805,12.8694  A0.634805,0.634805 0 0,0 560.328,12.0136 " />
<path d="M560.416,14.411  A0.190388,0.190388 0 0,0 560.226,14.1635 " />
<polyline points="512.083,14.3785 560.244,14.3785 " />
<path d="M560.391,14.5048  A0.11372,0.11372 0 0,0 560.244,14.3785 " />
<path d="M463.922,14.3785  A0.11372,0.11372 0 0,0 463.774,14.5048 " />
<polyline points="512.083,14.3785 463.922,14.3785 " />
<path d="M463.94,14.1635  A0.190388,0.190388 0 0,0 463.749,14.411 " />
<path d="M463.838,12.0136  A0.634805,0.634805 0 0,0 463.361,12.8694 " />
<polyline points="512.083,12.0136 463.838,12.0136 " />
<polyline points="512.083,14.1635 463.922,14.1635 " />
<polyline points="567.584,12.5667 565.702,20.0766 564.858,27.7724 565.067,35.5115 565.067,35.5115 568.43,55.134 570.526,74.932 571.347,94.8237 570.89,114.727 569.156,134.56 569.156,134.56 566.972,135.169 564.721,134.9 562.743,133.791 562.743,133.791 561.56,133.467 560.342,133.617 560.342,133.617 553.257,134.289 546.146,134.56 512,134.56 477.854,134.56 477.854,134.56 470.743,134.289 463.658,133.617 463.658,133.617 462.44,133.467 461.257,133.791 461.257,133.791 459.279,134.9 457.028,135.169 454.844,134.56 454.844,134.56 453.11,114.727 452.653,94.8237 453.474,74.932 455.57,55.134 458.933,35.5115 458.933,35.5115 459.142,27.7724 458.298,20.0766 456.416,12.5667 456.416,12.5667 455.929,10.9005 456.353,9.21705 457.571,7.97983 459.247,7.52943 564.753,7.52943 564.753,7.52943 566.429,7.97983 567.647,9.21705 568.071,10.9005 567.584,12.5667 " />
<path d="M809.006,611.832  A63.2445,63.2445 0 0,0 789.819,598.268 " />
<path d="M805.416,608.4  A83.3172,83.3172 0 0,0 787.035,593.322 " />
<path d="M830.713,517.67  A83.3172,83.3172 0 0,0 852.961,526.049 " />
<path d="M836.388,517.608  A63.2445,63.2445 0 0,0 857.728,527.442 " />
<polyline points="813.627,558.24 799.608,582.522 " />
<path d="M703.31,553.057  A303.111,303.111 0 0,0 789.179,598.016 " />
<path d="M780.524,594.985  A25.6874,25.6874 0 0,0 799.608,582.522 " />
<path d="M703.31,553.057  A3.15485,3.15485 0 0,0 704.659,551.067 " />
<polyline points="704.659,551.067 708.839,554.016 " />
<polyline points="708.839,554.016 706.655,555.527 " />
<polyline points="708.839,554.016 707.58,556.197 " />
<polyline points="757.575,469.603 758.834,467.422 " />
<polyline points="757.575,469.603 757.791,466.956 " />
<polyline points="752.931,467.458 757.575,469.603 " />
<path d="M752.931,467.458  A3.15485,3.15485 0 0,0 753.979,465.295 " />
<path d="M827.646,533.958  A25.6874,25.6874 0 0,0 828.897,511.199 " />
<path d="M835.85,517.179  A303.111,303.111 0 0,0 753.979,465.295 " />
<polyline points="813.627,558.24 827.646,533.958 " />
<polyline points="832.246,568.99 808.166,610.698 " />
<polyline points="834.108,570.065 809.986,611.847 " />
<path d="M809.006,611.832  A0.634805,0.634805 0 0,0 809.986,611.847 " />
<path d="M807.865,610.724  A0.190388,0.190388 0 0,0 808.175,610.683 " />
<polyline points="832.06,568.883 807.98,610.591 " />
<path d="M807.797,610.656  A0.11372,0.11372 0 0,0 807.98,610.591 " />
<path d="M856.14,527.174  A0.11372,0.11372 0 0,0 856.105,526.983 " />
<polyline points="832.06,568.883 856.14,527.174 " />
<path d="M856.318,527.297  A0.190388,0.190388 0 0,0 856.199,527.008 " />
<path d="M858.231,528.283  A0.634805,0.634805 0 0,0 857.728,527.442 " />
<polyline points="834.108,570.065 858.231,528.283 " />
<polyline points="832.246,568.99 856.327,527.282 " />
<polyline points="805.879,617.853 800.316,612.469 794.073,607.89 787.266,604.202 787.266,604.202 768.591,597.303 750.398,589.219 732.76,579.984 715.752,569.637 699.443,558.219 699.443,558.219 700.007,556.023 701.367,554.208 703.316,553.049 703.316,553.049 704.188,552.187 704.667,551.057 704.667,551.057 707.628,544.586 710.948,538.291 728.021,508.72 745.094,479.149 745.094,479.149 748.885,473.126 753.009,467.326 753.009,467.326 753.748,466.347 754.059,465.16 754.059,465.16 754.088,462.892 754.98,460.808 756.599,459.221 756.599,459.221 774.642,467.636 792.108,477.192 808.924,487.849 825.021,499.563 840.334,512.287 840.334,512.287 846.931,516.337 854.018,519.454 861.462,521.58 861.462,521.58 863.149,521.991 864.395,523.2 864.858,524.873 864.409,526.55 811.657,617.92 811.657,617.92 810.428,619.147 808.748,619.583 807.078,619.108 805.879,617.853 " />
<path d="M655.299,729.811  A63.2445,63.2445 0 0,0 645.464,708.471 " />
<path d="M653.906,725.044  A83.3172,83.3172 0 0,0 645.526,702.796 " />
<path d="M721.179,659.118  A83.3172,83.3172 0 0,0 736.256,677.499 " />
<path d="M726.125,661.902  A63.2445,63.2445 0 0,0 739.688,681.089 " />
<polyline points="686.097,685.71 661.815,699.729 " />
<path d="M593.151,626.062  A303.111,303.111 0 0,0 645.036,707.933 " />
<path d="M639.056,700.98  A25.6874,25.6874 0 0,0 661.815,699.729 " />
<path d="M593.151,626.062  A3.15485,3.15485 0 0,0 595.314,625.014 " />
<polyline points="595.314,625.014 597.46,629.658 " />
<polyline points="597.46,629.658 594.813,629.874 " />
<polyline points="597.46,629.658 595.278,630.917 " />
<polyline points="681.872,580.922 684.053,579.663 " />
<polyline points="681.872,580.922 683.383,578.738 " />
<polyline points="678.924,576.742 681.872,580.922 " />
<path d="M678.924,576.742  A3.15485,3.15485 0 0,0 680.913,575.393 " />
<path d="M710.379,671.691  A25.6874,25.6874 0 0,0 722.841,652.607 " />
<path d="M725.873,661.262  A303.111,303.111 0 0,0 680.913,575.393 " />
<polyline points="686.097,685.71 710.379,671.691 " />
<polyline points="696.846,704.329 655.138,728.41 " />
<polyline points="697.921,706.191 656.14,730.314 " />
<path d="M655.299,729.811  A0.634805,0.634805 0 0,0 656.14,730.314 " />
<path d="M654.865,728.282  A0.190388,0.190388 0 0,0 655.153,728.401 " />
<polyline points="696.739,704.143 655.031,728.223 " />
<path d="M654.839,728.188  A0.11372,0.11372 0 0,0 655.031,728.223 " />
<path d="M738.447,680.063  A0.11372,0.11372 0 0,0 738.512,679.879 " />
<polyline points="696.739,704.143 738.447,680.063 " />
<path d="M738.54,680.258  A0.190388,0.190388 0 0,0 738.581,679.948 " />
<path d="M739.703,682.069  A0.634805,0.634805 0 0,0 739.688,681.089 " />
<polyline points="697.921,706.191 739.703,682.069 " />
<polyline points="696.846,704.329 738.555,680.249 " />
<polyline points="649.58,733.462 647.454,726.018 644.337,718.931 640.287,712.334 640.287,712.334 627.563,697.021 615.849,680.924 605.192,664.108 595.636,646.642 587.221,628.599 587.221,628.599 588.808,626.98 590.892,626.088 593.16,626.059 593.16,626.059 594.347,625.748 595.326,625.009 595.326,625.009 601.126,620.885 607.149,617.094 636.72,600.021 666.291,582.948 666.291,582.948 672.586,579.628 679.057,576.667 679.057,576.667 680.187,576.188 681.049,575.316 681.049,575.316 682.208,573.367 684.023,572.007 686.219,571.443 686.219,571.443 697.637,587.752 707.984,604.76 717.219,622.398 725.303,640.591 732.202,659.266 732.202,659.266 735.89,666.073 740.469,672.316 745.853,677.879 745.853,677.879 747.108,679.078 747.583,680.748 747.147,682.428 745.92,683.657 654.55,736.409 654.55,736.409 652.873,736.858 651.2,736.395 649.991,735.149 649.58,733.462 " />
<polyline points="162.538,521.58 169.982,519.454 177.069,516.337 183.666,512.287 183.666,512.287 198.979,499.563 215.076,487.849 231.892,477.192 249.358,467.636 267.401,459.221 267.401,459.221 269.02,460.808 269.912,462.892 269.941,465.16 269.941,465.16 270.252,466.347 270.991,467.326 270.991,467.326 275.115,473.126 278.906,479.149 295.979,508.72 313.052,538.291 313.052,538.291 316.372,544.586 319.333,551.057 319.333,551.057 319.812,552.187 320.684,553.049 320.684,553.049 322.633,554.208 323.993,556.023 324.557,558.219 324.557,558.219 308.248,569.637 291.24,579.984 273.602,589.219 255.409,597.303 236.734,604.202 236.734,604.202 229.927,607.89 223.684,612.469 218.121,617.853 218.121,617.853 216.922,619.108 215.252,619.583 213.572,619.147 212.343,617.92 159.591,526.55 159.591,526.55 159.142,524.873 159.605,523.2 160.851,521.991 162.538,521.58 " />
<path d="M166.189,527.299  A63.2445,63.2445 0 0,0 187.529,517.464 " />
<path d="M170.956,525.906  A83.3172,83.3172 0 0,0 193.204,517.526 " />
<path d="M236.882,593.179  A83.3172,83.3172 0 0,0 218.501,608.256 " />
<path d="M234.098,598.125  A63.2445,63.2445 0 0,0 214.911,611.688 " />
<polyline points="210.29,558.097 196.271,533.815 " />
<path d="M269.938,465.151  A303.111,303.111 0 0,0 188.067,517.036 " />
<path d="M195.02,511.056  A25.6874,25.6874 0 0,0 196.271,533.815 " />
<path d="M269.938,465.151  A3.15485,3.15485 0 0,0 270.986,467.314 " />
<polyline points="270.986,467.314 266.342,469.46 " />
<polyline points="266.342,469.46 266.126,466.813 " />
<polyline points="266.342,469.46 265.083,467.278 " />
<polyline points="315.078,553.872 316.337,556.053 " />
<polyline points="315.078,553.872 317.262,555.383 " />
<polyline points="319.258,550.924 315.078,553.872 " />
<path d="M319.258,550.924  A3.15485,3.15485 0 0,0 320.607,552.913 " />
<path d="M224.309,582.379  A25.6874,25.6874 0 0,0 243.393,594.841 " />
<path d="M234.738,597.873  A303.111,303.111 0 0,0 320.607,552.913 " />
<polyline points="210.29,558.097 224.309,582.379 " />
<polyline points="191.671,568.846 167.59,527.138 " />
<polyline points="189.809,569.921 165.686,528.14 " />
<path d="M166.189,527.299  A0.634805,0.634805 0 0,0 165.686,528.14 " />
<path d="M167.718,526.865  A0.190388,0.190388 0 0,0 167.599,527.153 " />
<polyline points="191.857,568.739 167.777,527.031 " />
<path d="M167.812,526.839  A0.11372,0.11372 0 0,0 167.777,527.031 " />
<path d="M215.937,610.447  A0.11372,0.11372 0 0,0 216.121,610.512 " />
<polyline points="191.857,568.739 215.937,610.447 " />
<path d="M215.742,610.54  A0.190388,0.190388 0 0,0 216.052,610.581 " />
<path d="M213.931,611.703  A0.634805,0.634805 0 0,0 214.911,611.688 " />
<polyline points="189.809,569.921 213.931,611.703 " />
<polyline points="191.671,568.846 215.751,610.555 " />
<path d="M284.168,681.006  A63.2445,63.2445 0 0,0 297.732,661.819 " />
<path d="M287.6,677.416  A83.3172,83.3172 0 0,0 302.678,659.035 " />
<path d="M378.33,702.713  A83.3172,83.3172 0 0,0 369.951,724.961 " />
<path d="M378.392,708.388  A63.2445,63.2445 0 0,0 368.558,729.728 " />
<polyline points="337.76,685.627 313.478,671.608 " />
<path d="M342.943,575.31  A303.111,303.111 0 0,0 297.984,661.179 " />
<path d="M301.015,652.524  A25.6874,25.6874 0 0,0 313.478,671.608 " />
<path d="M342.943,575.31  A3.15485,3.15485 0 0,0 344.933,576.659 " />
<polyline points="344.933,576.659 341.984,580.839 " />
<polyline points="341.984,580.839 340.473,578.655 " />
<polyline points="341.984,580.839 339.803,579.58 " />
<polyline points="426.397,629.575 428.578,630.834 " />
<polyline points="426.397,629.575 429.044,629.791 " />
<polyline points="428.542,624.931 426.397,629.575 " />
<path d="M428.542,624.931  A3.15485,3.15485 0 0,0 430.705,625.979 " />
<path d="M362.042,699.646  A25.6874,25.6874 0 0,0 384.801,700.897 " />
<path d="M378.821,707.85  A303.111,303.111 0 0,0 430.705,625.979 " />
<polyline points="337.76,685.627 362.042,699.646 " />
<polyline points="327.01,704.246 285.302,680.166 " />
<polyline points="325.935,706.108 284.153,681.986 " />
<path d="M284.168,681.006  A0.634805,0.634805 0 0,0 284.153,681.986 " />
<path d="M285.276,679.865  A0.190388,0.190388 0 0,0 285.317,680.175 " />
<polyline points="327.117,704.06 285.409,679.98 " />
<path d="M285.344,679.797  A0.11372,0.11372 0 0,0 285.409,679.98 " />
<path d="M368.826,728.14  A0.11372,0.11372 0 0,0 369.017,728.105 " />
<polyline points="327.117,704.06 368.826,728.14 " />
<path d="M368.703,728.318  A0.190388,0.190388 0 0,0 368.992,728.199 " />
<path d="M367.717,730.231  A0.634805,0.634805 0 0,0 368.558,729.728 " />
<polyline points="325.935,706.108 367.717,730.231 " />
<polyline points="327.01,704.246 368.718,728.327 " />
<polyline points="278.147,677.879 283.531,672.316 288.11,666.073 291.798,659.266 291.798,659.266 298.697,640.591 306.781,622.398 316.016,604.76 326.363,587.752 337.781,571.443 337.781,571.443 339.977,572.007 341.792,573.367 342.951,575.316 342.951,575.316 343.813,576.188 344.943,576.667 344.943,576.667 351.414,579.628 357.709,582.948 387.28,600.021 416.851,617.094 416.851,617.094 422.874,620.885 428.674,625.009 428.674,625.009 429.653,625.748 430.84,626.059 430.84,626.059 433.108,626.088 435.192,626.98 436.779,628.599 436.779,628.599 428.364,646.642 418.808,664.108 408.151,680.924 396.437,697.021 383.713,712.334 383.713,712.334 379.663,718.931 376.546,726.018 374.42,733.462 374.42,733.462 374.009,735.149 372.8,736.395 371.127,736.858 369.45,736.409 278.08,683.657 278.08,683.657 276.853,682.428 276.417,680.748 276.892,679.078 278.147,677.879 " />
<polyline points="456.416,755.433 458.298,747.923 459.142,740.228 458.933,732.489 458.933,732.489 455.57,712.866 453.474,693.068 452.653,673.176 453.11,653.273 454.844,633.44 454.844,633.44 457.028,632.831 459.279,633.1 461.257,634.209 461.257,634.209 462.44,634.533 463.658,634.383 463.658,634.383 470.743,633.711 477.854,633.44 512,633.44 546.146,633.44 546.146,633.44 553.257,633.711 560.342,634.383 560.342,634.383 561.56,634.533 562.743,634.209 562.743,634.209 564.721,633.1 566.972,632.831 569.156,633.44 569.156,633.44 570.89,653.273 571.347,673.176 570.526,693.068 568.43,712.866 565.067,732.489 565.067,732.489 564.858,740.228 565.702,747.923 567.584,755.433 567.584,755.433 568.071,757.1 567.647,758.783 566.429,760.02 564.753,760.471 459.247,760.471 459.247,760.471 457.571,760.02 456.353,758.783 455.929,757.1 456.416,755.433 " />
<path d="M463.195,755.131  A63.2445,63.2445 0 0,0 465.348,731.732 " />
<path d="M464.372,750.306  A83.3172,83.3172 0 0,0 468.239,726.849 " />
<path d="M555.595,726.849  A83.3172,83.3172 0 0,0 559.462,750.306 " />
<path d="M558.487,731.732  A63.2445,63.2445 0 0,0 560.639,755.131 " />
<polyline points="511.917,732.337 483.879,732.337 " />
<path d="M461.248,634.208  A303.111,303.111 0 0,0 465.246,731.052 " />
<path d="M463.543,722.041  A25.6874,25.6874 0 0,0 483.879,732.337 " />
<path d="M461.248,634.208  A3.15485,3.15485 0 0,0 463.645,634.381 " />
<polyline points="463.645,634.381 463.182,639.476 " />
<polyline points="463.182,639.476 460.781,638.339 " />
<polyline points="463.182,639.476 460.663,639.476 " />
<polyline points="560.653,639.476 563.171,639.476 " />
<polyline points="560.653,639.476 563.053,638.339 " />
<polyline points="560.189,634.381 560.653,639.476 " />
<path d="M560.189,634.381  A3.15485,3.15485 0 0,0 562.586,634.208 " />
<path d="M539.955,732.337  A25.6874,25.6874 0 0,0 560.291,722.041 " />
<path d="M558.588,731.052  A303.111,303.111 0 0,0 562.586,634.208 " />
<polyline points="511.917,732.337 539.955,732.337 " />
<polyline points="511.917,753.836 463.756,753.836 " />
<polyline points="511.917,755.986 463.672,755.986 " />
<path d="M463.195,755.131  A0.634805,0.634805 0 0,0 463.672,755.986 " />
<path d="M463.584,753.589  A0.190388,0.190388 0 0,0 463.774,753.836 " />
<polyline points="511.917,753.621 463.756,753.621 " />
<path d="M463.609,753.495  A0.11372,0.11372 0 0,0 463.756,753.621 " />
<path d="M560.078,753.621  A0.11372,0.11372 0 0,0 560.226,753.495 " />
<polyline points="511.917,753.621 560.078,753.621 " />
<path d="M560.06,753.836  A0.190388,0.190388 0 0,0 560.251,753.589 " />
<path d="M560.162,755.986  A0.634805,0.634805 0 0,0 560.639,755.131 " />
<polyline points="511.917,755.986 560.162,755.986 " />
<polyline points="511.917,753.836 560.078,753.836 " />
<circle cx="512" cy="384" r="237.624" />
<circle cx="512" cy="384" r="242.876" />
<path d="M140.869,335.195  A63.2445,63.2445 0 0,0 164.268,337.348 " />
<path d="M145.694,336.372  A83.3172,83.3172 0 0,0 169.151,340.239 " />
<path d="M169.151,427.595  A83.3172,83.3172 0 0,0 145.694,431.462 " />
<path d="M164.268,430.487  A63.2445,63.2445 0 0,0 140.869,432.639 " />
<polyline points="163.663,383.917 163.663,355.879 " />
<path d="M261.792,333.248  A303.111,303.111 0 0,0 164.948,337.246 " />
<path d="M173.959,335.543  A25.6874,25.6874 0 0,0 163.663,355.879 " />
<path d="M261.792,333.248  A3.15485,3.15485 0 0,0 261.619,335.645 " />
<polyline points="261.619,335.645 256.524,335.182 " />
<polyline points="256.524,335.182 257.661,332.781 " />
<polyline points="256.524,335.182 256.524,332.663 " />
<polyline points="256.524,432.653 256.524,435.171 " />
<polyline points="256.524,432.653 257.661,435.053 " />
<polyline points="261.619,432.189 256.524,432.653 " />
<path d="M261.619,432.189  A3.15485,3.15485 0 0,0 261.792,434.586 " />
<path d="M163.663,411.955  A25.6874,25.6874 0 0,0 173.959,432.291 " />
<path d="M164.948,430.588  A303.111,303.111 0 0,0 261.792,434.586 " />
<polyline points="163.663,383.917 163.663,411.955 " />
<polyline points="142.164,383.917 142.164,335.756 " />
<polyline points="140.014,383.917 140.014,335.672 " />
<path d="M140.869,335.195  A0.634805,0.634805 0 0,0 140.014,335.672 " />
<path d="M142.411,335.584  A0.190388,0.190388 0 0,0 142.164,335.774 " />
<polyline points="142.379,383.917 142.379,335.756 " />
<path d="M142.505,335.609  A0.11372,0.11372 0 0,0 142.379,335.756 " />
<path d="M142.379,432.078  A0.11372,0.11372 0 0,0 142.505,432.226 " />
<polyline points="142.379,383.917 142.379,432.078 " />
<path d="M142.164,432.06  A0.190388,0.190388 0 0,0 142.411,432.251 " />
<path d="M140.014,432.162  A0.634805,0.634805 0 0,0 140.869,432.639 " />
<polyline points="140.014,383.917 140.014,432.162 " />
<polyline points="142.164,383.917 142.164,432.078 " />
<polyline points="140.567,328.416 148.077,330.298 155.772,331.142 163.511,330.933 163.511,330.933 183.134,327.57 202.932,325.474 222.824,324.653 242.727,325.11 262.56,326.844 262.56,326.844 263.169,329.028 262.9,331.279 261.791,333.257 261.791,333.257 261.467,334.44 261.617,335.658 261.617,335.658 262.289,342.743 262.56,349.854 262.56,384 262.56,418.146 262.56,418.146 262.289,425.257 261.617,432.342 261.617,432.342 261.467,433.56 261.791,434.743 261.791,434.743 262.9,436.721 263.169,438.972 262.56,441.156 262.56,441.156 242.727,442.89 222.824,443.347 202.932,442.526 183.134,440.43 163.511,437.067 163.511,437.067 155.772,436.858 148.077,437.702 140.567,439.584 140.567,439.584 138.9,440.071 137.217,439.647 135.98,438.429 135.529,436.753 135.529,331.247 135.529,331.247 135.98,329.571 137.217,328.353 138.9,327.929 140.567,328.416 " />
<path d="M883.131,432.805  A63.2445,63.2445 0 0,0 859.732,430.652 " />
<path d="M878.306,431.628  A83.3172,83.3172 0 0,0 854.849,427.761 " />
<path d="M854.849,340.405  A83.3172,83.3172 0 0,0 878.306,336.538 " />
<path d="M859.732,337.513  A63.2445,63.2445 0 0,0 883.131,335.361 " />
<polyline points="860.337,384.083 860.337,412.121 " />
<path d="M762.208,434.752  A303.111,303.111 0 0,0 859.052,430.754 " />
<path d="M850.041,432.457  A25.6874,25.6874 0 0,0 860.337,412.121 " />
<path d="M762.208,434.752  A3.15485,3.15485 0 0,0 762.381,432.355 " />
<polyline points="762.381,432.355 767.476,432.818 " />
<polyline points="767.476,432.818 766.339,435.219 " />
<polyline points="767.476,432.818 767.476,435.337 " />
<polyline points="767.476,335.347 767.476,332.829 " />
<polyline points="767.476,335.347 766.339,332.947 " />
<polyline points="762.381,335.811 767.476,335.347 " />
<path d="M762.381,335.811  A3.15485,3.15485 0 0,0 762.208,333.414 " />
<path d="M860.337,356.045  A25.6874,25.6874 0 0,0 850.041,335.709 " />
<path d="M859.052,337.412  A303.111,303.111 0 0,0 762.208,333.414 " />
<polyline points="860.337,384.083 860.337,356.045 " />
<polyline points="881.836,384.083 881.836,432.244 " />
<polyline points="883.986,384.083 883.986,432.328 " />
<path d="M883.131,432.805  A0.634805,0.634805 0 0,0 883.986,432.328 " />
<path d="M881.589,432.416  A0.190388,0.190388 0 0,0 881.836,432.226 " />
<polyline points="881.621,384.083 881.621,432.244 " />
<path d="M881.495,432.391  A0.11372,0.11372 0 0,0 881.621,432.244 " />
<path d="M881.621,335.922  A0.11372,0.11372 0 0,0 881.495,335.774 " />
<polyline points="881.621,384.083 881.621,335.922 " />
<path d="M881.836,335.94  A0.190388,0.190388 0 0,0 881.589,335.749 " />
<path d="M883.986,335.838  A0.634805,0.634805 0 0,0 883.131,335.361 " />
<polyline points="883.986,384.083 883.986,335.838 " />
<polyline points="881.836,384.083 881.836,335.922 " />
<polyline points="883.433,439.584 875.923,437.702 868.228,436.858 860.489,437.067 860.489,437.067 840.866,440.43 821.068,442.526 801.176,443.347 781.273,442.89 761.44,441.156 761.44,441.156 760.831,438.972 761.1,436.721 762.209,434.743 762.209,434.743 762.533,433.56 762.383,432.342 762.383,432.342 761.711,425.257 761.44,418.146 761.44,384 761.44,349.854 761.44,349.854 761.711,342.743 762.383,335.658 762.383,335.658 762.533,334.44 762.209,333.257 762.209,333.257 761.1,331.279 760.831,329.028 761.44,326.844 761.44,326.844 781.273,325.11 801.176,324.653 821.068,325.474 840.866,327.57 860.489,330.933 860.489,330.933 868.228,331.142 875.923,330.298 883.433,328.416 883.433,328.416 885.1,327.929 886.783,328.353 888.02,329.571 888.471,331.247 888.471,436.753 888.471,436.753 888.02,438.429 886.783,439.647 885.1,440.071 883.433,439.584 " />
</g>
<g clip-path="url(#clipId0)" fill="rgb(91,91,91)" stroke="rgb(91,91,91)" stroke-width="0" >
<text transform="matrix(11.4082 0 -0 11.4082 173.176 730.353)" font-family="Arial,&apos;sans-serif&apos;" font-size="1.39636" >Please go to www.autodwg.com to register and eliminate such limits.</text>
<text transform="matrix(11.4082 0 -0 11.4082 173.176 709.818)" font-family="Arial,&apos;sans-serif&apos;" font-size="1.39636" >The note and watermark only exist in the trial version.</text>
<text transform="matrix(11.4082 0 -0 11.4082 173.176 730.353)" font-family="Arial,&apos;sans-serif&apos;" font-size="1.39636" >Please go to www.autodwg.com to register and eliminate such limits.</text>
<text transform="matrix(11.4082 0 -0 11.4082 173.176 709.818)" font-family="Arial,&apos;sans-serif&apos;" font-size="1.39636" >The note and watermark only exist in the trial version.</text>
<text transform="matrix(11.4082 0 -0 11.4082 173.176 730.353)" font-family="Arial,&apos;sans-serif&apos;" font-size="1.39636" >Please go to www.autodwg.com to register and eliminate such limits.</text>
<text transform="matrix(11.4082 0 -0 11.4082 173.176 709.818)" font-family="Arial,&apos;sans-serif&apos;" font-size="1.39636" >The note and watermark only exist in the trial version.</text>
</g>
<g clip-path="url(#clipId0)" fill="rgb(0,0,255)" stroke="rgb(0,0,255)" stroke-width="0" >
<text transform="matrix(14.8509 0 -0 14.8509 210.824 384)" font-family="Arial,&apos;sans-serif&apos;" font-size="1.39636" >AutoDWG DWG to SVG Converter FREE TRIAL</text>
</g>
</svg>

