<?xml version="1.0" standalone="no"?>
<svg viewBox="-512 -384 1024 768" version="1.1" xmlns="http://www.w3.org/2000/svg" xmlns:xlink="http://www.w3.org/1999/xlink" stroke-linecap="round" stroke-linejoin="round" fill-rule="evenodd" xml:space="preserve" >
<defs >
<clipPath id="clipId0" >
<path d="M0,768 1024,768 1024,0 0,0 z" />
</clipPath>
</defs>
<g clip-path="url(#clipId0)" fill="none" stroke="rgb(0,0,0)" stroke-width="0.1" />
<g clip-path="url(#clipId0)" fill="none" stroke="rgb(127,63,0)" stroke-width="0.09" >
<circle cx="247.328" cy="9.50261" r="1.4667" />
<circle cx="247.328" cy="9.50261" r="0.941317" />
<circle cx="247.328" cy="9.50261" r="0.95883" />
<circle cx="247.328" cy="9.50261" r="1.44919" />
<path d="M247.37,7.59889  A0.581938,0.581938 0 0,0 247.29,7.59852 " />
<path d="M247.37,7.58607  A0.581938,0.581938 0 0,0 247.29,7.58571 " />
<polyline points="247.452,7.56036 247.208,7.55925 " />
<polyline points="247.37,7.59889 247.37,7.58607 247.37,7.58607 247.457,7.59871 247.457,7.59871 247.464,7.5973 247.468,7.59108 247.47,7.55779 247.47,7.55779 247.46,7.54358 247.46,7.54358 247.201,7.5424 247.201,7.5424 247.19,7.55652 247.192,7.58982 247.192,7.58982 247.196,7.59608 247.203,7.59756 247.203,7.59756 247.29,7.58571 247.29,7.59852 247.29,7.59852 247.212,7.60897 247.212,7.60897 247.164,7.66023 247.14,7.85705 247.138,7.8655 247.138,7.8655 247.202,7.95444 247.202,7.95444 247.455,7.95559 247.455,7.95559 247.519,7.86724 247.518,7.85877 247.496,7.66174 247.496,7.66174 247.449,7.61005 247.449,7.61005 247.37,7.59889 " />
<circle cx="247.41" cy="7.69802" r="0.00718211" />
<circle cx="247.409" cy="7.86767" r="0.00718211" />
<circle cx="247.249" cy="7.86694" r="0.00718211" />
<circle cx="247.249" cy="7.69729" r="0.00718211" />
<path d="M246.78,7.67914  A0.581938,0.581938 0 0,0 246.704,7.7036 " />
<path d="M246.776,7.66694  A0.581938,0.581938 0 0,0 246.7,7.6914 " />
<polyline points="246.846,7.61717 246.614,7.69146 " />
<polyline points="246.78,7.67914 246.776,7.66694 246.776,7.66694 246.863,7.65208 246.863,7.65208 246.869,7.64852 246.871,7.64142 246.862,7.60913 246.862,7.60913 246.848,7.59893 246.848,7.59893 246.602,7.67768 246.602,7.67768 246.596,7.69447 246.608,7.7256 246.608,7.7256 246.613,7.73038 246.62,7.72958 246.62,7.72958 246.7,7.6914 246.704,7.7036 246.704,7.7036 246.632,7.73777 246.632,7.73777 246.603,7.80126 246.64,7.99598 246.642,8.00436 246.642,8.00436 246.73,8.06935 246.73,8.06935 246.971,7.99213 246.971,7.99213 247.005,7.88826 247.001,7.88053 246.919,7.70012 246.919,7.70012 246.858,7.66556 246.858,7.66556 246.78,7.67914 " />
<circle cx="246.848" cy="7.76116" r="0.00718211" />
<circle cx="246.9" cy="7.92275" r="0.00718211" />
<circle cx="246.747" cy="7.97166" r="0.00718211" />
<circle cx="246.695" cy="7.81007" r="0.00718211" />
<path d="M246.243,7.93789  A0.581938,0.581938 0 0,0 246.178,7.98477 " />
<path d="M246.236,7.92749  A0.581938,0.581938 0 0,0 246.171,7.97437 " />
<polyline points="246.287,7.85855 246.089,8.00096 " />
<polyline points="246.243,7.93789 246.236,7.92749 246.236,7.92749 246.314,7.88659 246.314,7.88659 246.319,7.88124 246.318,7.87395 246.3,7.84581 246.3,7.84581 246.283,7.84063 246.283,7.84063 246.073,7.99159 246.073,7.99159 246.073,8.00941 246.094,8.03531 246.094,8.03531 246.101,8.03816 246.107,8.03515 246.107,8.03515 246.171,7.97437 246.178,7.98477 246.178,7.98477 246.121,8.03933 246.121,8.03933 246.112,8.10884 246.208,8.28239 246.212,8.28987 246.212,8.28987 246.316,8.32456 246.316,8.32456 246.522,8.17653 246.522,8.17653 246.522,8.06731 246.516,8.06106 246.382,7.91493 246.382,7.91493 246.313,7.90088 246.313,7.90088 246.243,7.93789 " />
<circle cx="246.334" cy="7.99476" r="0.00718211" />
<circle cx="246.433" cy="8.13247" r="0.00718211" />
<circle cx="246.302" cy="8.22624" r="0.00718211" />
<circle cx="246.203" cy="8.08853" r="0.00718211" />
<path d="M245.813,8.3498  A0.581938,0.581938 0 0,0 245.765,8.41453 " />
<path d="M245.803,8.34223  A0.581938,0.581938 0 0,0 245.755,8.40695 " />
<polyline points="245.83,8.26086 245.686,8.45745 " />
<polyline points="245.813,8.3498 245.803,8.34223 245.803,8.34223 245.864,8.27929 245.864,8.27929 245.867,8.27266 245.864,8.2659 245.838,8.24467 245.838,8.24467 245.821,8.24501 245.821,8.24501 245.668,8.45341 245.668,8.45341 245.673,8.47052 245.701,8.48866 245.701,8.48866 245.708,8.48929 245.713,8.48437 245.713,8.48437 245.755,8.40695 245.765,8.41453 245.765,8.41453 245.728,8.48412 245.728,8.48412 245.741,8.55284 245.886,8.68825 245.892,8.6941 245.892,8.6941 246.002,8.69508 246.002,8.69508 246.151,8.49074 246.151,8.49074 246.118,8.38686 246.11,8.38271 245.938,8.28516 245.938,8.28516 245.868,8.293 245.868,8.293 245.813,8.3498 " />
<circle cx="245.916" cy="8.37597" r="0.00718211" />
<circle cx="246.053" cy="8.47631" r="0.00718211" />
<circle cx="245.958" cy="8.60576" r="0.00718211" />
<circle cx="245.821" cy="8.50541" r="0.00718211" />
<path d="M245.531,8.87456  A0.581938,0.581938 0 0,0 245.506,8.95079 " />
<path d="M245.519,8.87055  A0.581938,0.581938 0 0,0 245.494,8.94677 " />
<polyline points="245.52,8.78472 245.443,9.01625 " />
<polyline points="245.531,8.87456 245.519,8.87055 245.519,8.87055 245.558,8.79173 245.558,8.79173 245.558,8.78448 245.554,8.77891 245.523,8.76666 245.523,8.76666 245.506,8.7725 245.506,8.7725 245.425,9.01794 245.425,9.01794 245.435,9.03265 245.467,9.04126 245.467,9.04126 245.474,9.03961 245.478,9.03326 245.478,9.03326 245.494,8.94677 245.506,8.95079 245.506,8.95079 245.491,9.0286 245.491,9.0286 245.525,9.08982 245.705,9.17382 245.713,9.17747 245.713,9.17747 245.817,9.14465 245.817,9.14465 245.896,8.90399 245.896,8.90399 245.832,8.81562 245.824,8.81398 245.629,8.77456 245.629,8.77456 245.566,8.80352 245.566,8.80352 245.531,8.87456 " />
<circle cx="245.637" cy="8.86745" r="0.00718211" />
<circle cx="245.799" cy="8.92061" r="0.00718211" />
<circle cx="245.748" cy="9.07306" r="0.00718211" />
<circle cx="245.587" cy="9.0199" r="0.00718211" />
<path d="M245.425,9.4608  A0.581938,0.581938 0 0,0 245.424,9.54107 " />
<path d="M245.412,9.46074  A0.581938,0.581938 0 0,0 245.412,9.54101 " />
<polyline points="245.386,9.37885 245.385,9.62266 " />
<polyline points="245.425,9.4608 245.412,9.46074 245.412,9.46074 245.425,9.37376 245.425,9.37376 245.423,9.36659 245.417,9.36276 245.384,9.3607 245.384,9.3607 245.369,9.37145 245.369,9.37145 245.368,9.62991 245.368,9.62991 245.382,9.64079 245.416,9.63902 245.416,9.63902 245.422,9.63525 245.423,9.62809 245.423,9.62809 245.412,9.54101 245.424,9.54107 245.424,9.54107 245.435,9.61949 245.435,9.61949 245.486,9.6672 245.683,9.69157 245.691,9.69266 245.691,9.69266 245.78,9.62926 245.78,9.62926 245.781,9.37584 245.781,9.37584 245.693,9.31163 245.685,9.31265 245.488,9.33523 245.488,9.33523 245.436,9.38247 245.436,9.38247 245.425,9.4608 " />
<circle cx="245.524" cy="9.42111" r="0.00718211" />
<circle cx="245.694" cy="9.42189" r="0.00718211" />
<circle cx="245.693" cy="9.58242" r="0.00718211" />
<circle cx="245.523" cy="9.58165" r="0.00718211" />
<path d="M245.505,10.0511  A0.581938,0.581938 0 0,0 245.529,10.1276 " />
<path d="M245.493,10.055  A0.581938,0.581938 0 0,0 245.517,10.1315 " />
<polyline points="245.443,9.98509 245.517,10.2173 " />
<polyline points="245.505,10.0511 245.493,10.055 245.493,10.055 245.478,9.96841 245.478,9.96841 245.474,9.96202 245.467,9.9603 245.435,9.96863 245.435,9.96863 245.425,9.98325 245.425,9.98325 245.504,10.2294 245.504,10.2294 245.52,10.2354 245.551,10.2234 245.551,10.2234 245.556,10.2179 245.555,10.2106 245.555,10.2106 245.517,10.1315 245.529,10.1276 245.529,10.1276 245.564,10.1989 245.564,10.1989 245.627,10.2285 245.822,10.1908 245.83,10.1893 245.83,10.1893 245.895,10.1015 245.895,10.1015 245.818,9.8601 245.818,9.8601 245.714,9.82634 245.706,9.82992 245.526,9.91228 245.526,9.91228 245.491,9.97319 245.491,9.97319 245.505,10.0511 " />
<circle cx="245.587" cy="9.98275" r="0.00718211" />
<circle cx="245.749" cy="9.93106" r="0.00718211" />
<circle cx="245.798" cy="10.084" r="0.00718211" />
<circle cx="245.636" cy="10.1357" r="0.00718211" />
<path d="M245.764,10.5878  A0.581938,0.581938 0 0,0 245.811,10.6529 " />
<path d="M245.753,10.5952  A0.581938,0.581938 0 0,0 245.8,10.6604 " />
<polyline points="245.684,10.5441 245.827,10.742 " />
<polyline points="245.764,10.5878 245.753,10.5952 245.753,10.5952 245.712,10.5175 245.712,10.5175 245.707,10.5125 245.7,10.513 245.672,10.5309 245.672,10.5309 245.666,10.548 245.666,10.548 245.817,10.7578 245.817,10.7578 245.835,10.7583 245.861,10.7373 245.861,10.7373 245.864,10.7305 245.861,10.7239 245.861,10.7239 245.8,10.6604 245.811,10.6529 245.811,10.6529 245.865,10.7102 245.865,10.7102 245.935,10.7187 246.108,10.6227 246.116,10.6186 246.116,10.6186 246.15,10.5151 246.15,10.5151 246.002,10.3094 246.002,10.3094 245.893,10.3094 245.887,10.3152 245.741,10.4492 245.741,10.4492 245.727,10.5178 245.727,10.5178 245.764,10.5878 " />
<circle cx="245.821" cy="10.4974" r="0.00718211" />
<circle cx="245.958" cy="10.3983" r="0.00718211" />
<circle cx="246.052" cy="10.5286" r="0.00718211" />
<circle cx="245.914" cy="10.6277" r="0.00718211" />
<path d="M246.176,11.0182  A0.581938,0.581938 0 0,0 246.24,11.0657 " />
<path d="M246.168,11.0285  A0.581938,0.581938 0 0,0 246.233,11.076 " />
<polyline points="246.087,11.0012 246.283,11.1454 " />
<polyline points="246.176,11.0182 246.168,11.0285 246.168,11.0285 246.105,10.9672 246.105,10.9672 246.099,10.9641 246.092,10.9669 246.071,10.9926 246.071,10.9926 246.071,11.0104 246.071,11.0104 246.279,11.1633 246.279,11.1633 246.296,11.1582 246.315,11.1303 246.315,11.1303 246.315,11.123 246.31,11.1176 246.31,11.1176 246.233,11.076 246.24,11.0657 246.24,11.0657 246.31,11.1033 246.31,11.1033 246.379,11.0899 246.514,10.945 246.52,10.9388 246.52,10.9388 246.521,10.8295 246.521,10.8295 246.317,10.6797 246.317,10.6797 246.213,10.7134 246.209,10.7208 246.111,10.8935 246.111,10.8935 246.119,10.9631 246.119,10.9631 246.176,11.0182 " />
<circle cx="246.202" cy="10.9147" r="0.00718211" />
<circle cx="246.302" cy="10.7779" r="0.00718211" />
<circle cx="246.432" cy="10.8728" r="0.00718211" />
<circle cx="246.331" cy="11.0096" r="0.00718211" />
<path d="M246.7,11.3002  A0.581938,0.581938 0 0,0 246.777,11.3254 " />
<path d="M246.696,11.3124  A0.581938,0.581938 0 0,0 246.773,11.3376 " />
<polyline points="246.611,11.3116 246.842,11.388 " />
<polyline points="246.7,11.3002 246.696,11.3124 246.696,11.3124 246.618,11.2735 246.618,11.2735 246.61,11.2726 246.605,11.2774 246.593,11.3084 246.593,11.3084 246.598,11.3252 246.598,11.3252 246.844,11.4062 246.844,11.4062 246.859,11.3961 246.867,11.3639 246.867,11.3639 246.865,11.3568 246.859,11.3532 246.859,11.3532 246.773,11.3376 246.777,11.3254 246.777,11.3254 246.854,11.3397 246.854,11.3397 246.916,11.3057 247,11.126 247.003,11.1183 247.003,11.1183 246.971,11.0141 246.971,11.0141 246.73,10.9347 246.73,10.9347 246.641,10.9989 246.64,11.0073 246.6,11.2017 246.6,11.2017 246.629,11.2654 246.629,11.2654 246.7,11.3002 " />
<circle cx="246.693" cy="11.1937" r="0.00718211" />
<circle cx="246.746" cy="11.0326" r="0.00718211" />
<circle cx="246.899" cy="11.0829" r="0.00718211" />
<circle cx="246.846" cy="11.244" r="0.00718211" />
<path d="M247.287,11.4063  A0.581938,0.581938 0 0,0 247.367,11.4067 " />
<path d="M247.287,11.4191  A0.581938,0.581938 0 0,0 247.367,11.4195 " />
<polyline points="247.205,11.4449 247.449,11.446 " />
<polyline points="247.287,11.4063 247.287,11.4191 247.287,11.4191 247.2,11.4065 247.2,11.4065 247.192,11.4079 247.189,11.4141 247.187,11.4474 247.187,11.4474 247.197,11.4616 247.197,11.4616 247.456,11.4628 247.456,11.4628 247.467,11.4487 247.465,11.4154 247.465,11.4154 247.461,11.4091 247.454,11.4077 247.454,11.4077 247.367,11.4195 247.367,11.4067 247.367,11.4067 247.445,11.3962 247.445,11.3962 247.493,11.345 247.517,11.1482 247.519,11.1397 247.519,11.1397 247.455,11.0508 247.455,11.0508 247.202,11.0496 247.202,11.0496 247.137,11.138 247.139,11.1464 247.161,11.3435 247.161,11.3435 247.208,11.3952 247.208,11.3952 247.287,11.4063 " />
<circle cx="247.247" cy="11.3072" r="0.00718211" />
<circle cx="247.248" cy="11.1375" r="0.00718211" />
<circle cx="247.408" cy="11.1383" r="0.00718211" />
<circle cx="247.408" cy="11.3079" r="0.00718211" />
<path d="M247.877,11.3261  A0.581938,0.581938 0 0,0 247.953,11.3016 " />
<path d="M247.881,11.3383  A0.581938,0.581938 0 0,0 247.957,11.3138 " />
<polyline points="247.811,11.388 248.043,11.3138 " />
<polyline points="247.877,11.3261 247.881,11.3383 247.881,11.3383 247.794,11.3531 247.794,11.3531 247.788,11.3567 247.786,11.3638 247.794,11.3961 247.794,11.3961 247.809,11.4063 247.809,11.4063 248.055,11.3275 248.055,11.3275 248.061,11.3107 248.049,11.2796 248.049,11.2796 248.044,11.2748 248.037,11.2756 248.037,11.2756 247.957,11.3138 247.953,11.3016 247.953,11.3016 248.025,11.2674 248.025,11.2674 248.054,11.204 248.017,11.0092 248.015,11.0009 248.015,11.0009 247.927,10.9359 247.927,10.9359 247.686,11.0131 247.686,11.0131 247.652,11.117 247.656,11.1247 247.738,11.3051 247.738,11.3051 247.799,11.3397 247.799,11.3397 247.877,11.3261 " />
<circle cx="247.809" cy="11.2441" r="0.00718211" />
<circle cx="247.757" cy="11.0825" r="0.00718211" />
<circle cx="247.91" cy="11.0336" r="0.00718211" />
<circle cx="247.962" cy="11.1951" r="0.00718211" />
<path d="M248.414,11.0673  A0.581938,0.581938 0 0,0 248.479,11.0204 " />
<path d="M248.421,11.0777  A0.581938,0.581938 0 0,0 248.486,11.0308 " />
<polyline points="248.37,11.1467 248.568,11.0043 " />
<polyline points="248.414,11.0673 248.421,11.0777 248.421,11.0777 248.343,11.1186 248.343,11.1186 248.338,11.124 248.339,11.1313 248.357,11.1594 248.357,11.1594 248.374,11.1646 248.374,11.1646 248.584,11.0136 248.584,11.0136 248.584,10.9958 248.563,10.9699 248.563,10.9699 248.556,10.9671 248.55,10.9701 248.55,10.9701 248.486,11.0308 248.479,11.0204 248.479,11.0204 248.536,10.9659 248.536,10.9659 248.545,10.8964 248.449,10.7228 248.444,10.7153 248.444,10.7153 248.341,10.6807 248.341,10.6807 248.135,10.8287 248.135,10.8287 248.135,10.9379 248.141,10.9442 248.275,11.0903 248.275,11.0903 248.344,11.1043 248.344,11.1043 248.414,11.0673 " />
<circle cx="248.323" cy="11.0105" r="0.00718211" />
<circle cx="248.224" cy="10.8727" r="0.00718211" />
<circle cx="248.354" cy="10.779" r="0.00718211" />
<circle cx="248.454" cy="10.9167" r="0.00718211" />
<path d="M248.844,10.6554  A0.581938,0.581938 0 0,0 248.892,10.5907 " />
<path d="M248.854,10.663  A0.581938,0.581938 0 0,0 248.902,10.5983 " />
<polyline points="248.827,10.7444 248.971,10.5478 " />
<polyline points="248.844,10.6554 248.854,10.663 248.854,10.663 248.793,10.7259 248.793,10.7259 248.79,10.7326 248.793,10.7393 248.818,10.7605 248.818,10.7605 248.836,10.7602 248.836,10.7602 248.989,10.5518 248.989,10.5518 248.984,10.5347 248.956,10.5166 248.956,10.5166 248.949,10.5159 248.943,10.5208 248.943,10.5208 248.902,10.5983 248.892,10.5907 248.892,10.5907 248.929,10.5211 248.929,10.5211 248.916,10.4524 248.771,10.317 248.765,10.3111 248.765,10.3111 248.655,10.3101 248.655,10.3101 248.506,10.5145 248.506,10.5145 248.539,10.6184 248.547,10.6225 248.719,10.7201 248.719,10.7201 248.789,10.7122 248.789,10.7122 248.844,10.6554 " />
<circle cx="248.741" cy="10.6293" r="0.00718211" />
<circle cx="248.604" cy="10.5289" r="0.00718211" />
<circle cx="248.699" cy="10.3995" r="0.00718211" />
<circle cx="248.835" cy="10.4998" r="0.00718211" />
<path d="M249.126,10.1307  A0.581938,0.581938 0 0,0 249.151,10.0544 " />
<path d="M249.138,10.1347  A0.581938,0.581938 0 0,0 249.163,10.0584 " />
<polyline points="249.137,10.2205 249.214,9.98896 " />
<polyline points="249.126,10.1307 249.138,10.1347 249.138,10.1347 249.099,10.2135 249.099,10.2135 249.098,10.2207 249.103,10.2263 249.134,10.2386 249.134,10.2386 249.151,10.2327 249.151,10.2327 249.232,9.98728 249.232,9.98728 249.222,9.97257 249.19,9.96395 249.19,9.96395 249.183,9.96561 249.179,9.97196 249.179,9.97196 249.163,10.0584 249.151,10.0544 249.151,10.0544 249.166,9.97661 249.166,9.97661 249.132,9.9154 248.952,9.8314 248.944,9.82775 248.944,9.82775 248.84,9.86057 248.84,9.86057 248.761,10.1012 248.761,10.1012 248.825,10.1896 248.833,10.1912 249.028,10.2307 249.028,10.2307 249.091,10.2017 249.091,10.2017 249.126,10.1307 " />
<circle cx="249.02" cy="10.1378" r="0.00718211" />
<circle cx="248.858" cy="10.0846" r="0.00718211" />
<circle cx="248.909" cy="9.93215" r="0.00718211" />
<circle cx="249.07" cy="9.98531" r="0.00718211" />
<path d="M249.232,9.54442  A0.581938,0.581938 0 0,0 249.233,9.46415 " />
<path d="M249.245,9.54448  A0.581938,0.581938 0 0,0 249.245,9.46421 " />
<polyline points="249.271,9.62637 249.272,9.38255 " />
<polyline points="249.232,9.54442 249.245,9.54448 249.245,9.54448 249.232,9.63145 249.232,9.63145 249.234,9.63862 249.24,9.64245 249.273,9.64452 249.273,9.64452 249.288,9.63376 249.288,9.63376 249.289,9.37531 249.289,9.37531 249.275,9.36443 249.241,9.36619 249.241,9.36619 249.235,9.36997 249.234,9.37712 249.234,9.37712 249.245,9.46421 249.233,9.46415 249.233,9.46415 249.222,9.38573 249.222,9.38573 249.171,9.33802 248.974,9.31365 248.966,9.31255 248.966,9.31255 248.877,9.37596 248.877,9.37596 248.875,9.62937 248.875,9.62937 248.964,9.69358 248.972,9.69257 249.169,9.66998 249.169,9.66998 249.221,9.62274 249.221,9.62274 249.232,9.54442 " />
<circle cx="249.133" cy="9.5841" r="0.00718211" />
<circle cx="248.963" cy="9.58333" r="0.00718211" />
<circle cx="248.964" cy="9.4228" r="0.00718211" />
<circle cx="249.134" cy="9.42357" r="0.00718211" />
<path d="M249.152,8.95409  A0.581938,0.581938 0 0,0 249.127,8.87764 " />
<path d="M249.164,8.95019  A0.581938,0.581938 0 0,0 249.14,8.87373 " />
<polyline points="249.214,9.02012 249.14,8.7879 " />
<polyline points="249.152,8.95409 249.164,8.95019 249.164,8.95019 249.179,9.03681 249.179,9.03681 249.183,9.04319 249.19,9.04491 249.222,9.03659 249.222,9.03659 249.232,9.02197 249.232,9.02197 249.153,8.7758 249.153,8.7758 249.137,8.76982 249.105,8.78179 249.105,8.78179 249.101,8.78731 249.102,8.79457 249.102,8.79457 249.14,8.87373 249.127,8.87764 249.127,8.87764 249.093,8.80628 249.093,8.80628 249.03,8.77675 248.835,8.81439 248.827,8.81596 248.827,8.81596 248.762,8.90375 248.762,8.90375 248.839,9.14511 248.839,9.14511 248.943,9.17888 248.951,9.1753 249.131,9.09293 249.131,9.09293 249.166,9.03203 249.166,9.03203 249.152,8.95409 " />
<circle cx="249.07" cy="9.02246" r="0.00718211" />
<circle cx="248.908" cy="9.07416" r="0.00718211" />
<circle cx="248.859" cy="8.92125" r="0.00718211" />
<circle cx="249.021" cy="8.86956" r="0.00718211" />
<path d="M248.893,8.41745  A0.581938,0.581938 0 0,0 248.846,8.3523 " />
<path d="M248.904,8.40997  A0.581938,0.581938 0 0,0 248.857,8.34482 " />
<polyline points="248.973,8.4611 248.83,8.2632 " />
<polyline points="248.893,8.41745 248.904,8.40997 248.904,8.40997 248.944,8.48776 248.944,8.48776 248.95,8.49273 248.957,8.49217 248.985,8.47428 248.985,8.47428 248.99,8.45723 248.99,8.45723 248.839,8.24744 248.839,8.24744 248.822,8.24694 248.796,8.26794 248.796,8.26794 248.793,8.27467 248.796,8.28133 248.796,8.28133 248.857,8.34482 248.846,8.3523 248.846,8.3523 248.792,8.295 248.792,8.295 248.722,8.28653 248.549,8.3825 248.541,8.38658 248.541,8.38658 248.507,8.49015 248.507,8.49015 248.655,8.69585 248.655,8.69585 248.764,8.69586 248.77,8.69007 248.916,8.55598 248.916,8.55598 248.93,8.48738 248.93,8.48738 248.893,8.41745 " />
<circle cx="248.836" cy="8.50783" r="0.00718211" />
<circle cx="248.699" cy="8.60692" r="0.00718211" />
<circle cx="248.605" cy="8.47662" r="0.00718211" />
<circle cx="248.743" cy="8.37752" r="0.00718211" />
<path d="M248.481,7.98704  A0.581938,0.581938 0 0,0 248.417,7.93957 " />
<path d="M248.489,7.97671  A0.581938,0.581938 0 0,0 248.424,7.92923 " />
<polyline points="248.57,8.00404 248.374,7.85983 " />
<polyline points="248.481,7.98704 248.489,7.97671 248.489,7.97671 248.552,8.03806 248.552,8.03806 248.558,8.04113 248.565,8.03835 248.586,8.01263 248.586,8.01263 248.586,7.99481 248.586,7.99481 248.378,7.84194 248.378,7.84194 248.361,7.84697 248.342,7.87495 248.342,7.87495 248.342,7.88223 248.347,7.88763 248.347,7.88763 248.424,7.92923 248.417,7.93957 248.417,7.93957 248.347,7.90193 248.347,7.90193 248.278,7.91535 248.143,8.06026 248.137,8.06645 248.137,8.06645 248.136,8.17567 248.136,8.17567 248.34,8.32555 248.34,8.32555 248.444,8.29182 248.448,8.28437 248.546,8.11169 248.546,8.11169 248.538,8.04211 248.538,8.04211 248.481,7.98704 " />
<circle cx="248.455" cy="8.09056" r="0.00718211" />
<circle cx="248.355" cy="8.22736" r="0.00718211" />
<circle cx="248.225" cy="8.13241" r="0.00718211" />
<circle cx="248.326" cy="7.99561" r="0.00718211" />
<path d="M247.957,7.70498  A0.581938,0.581938 0 0,0 247.88,7.67983 " />
<path d="M247.961,7.69281  A0.581938,0.581938 0 0,0 247.884,7.66766 " />
<polyline points="248.046,7.69366 247.815,7.61726 " />
<polyline points="247.957,7.70498 247.961,7.69281 247.961,7.69281 248.039,7.73171 248.039,7.73171 248.047,7.73258 248.052,7.72785 248.064,7.69683 248.064,7.69683 248.059,7.67999 248.059,7.67999 247.813,7.599 247.813,7.599 247.798,7.60907 247.79,7.64129 247.79,7.64129 247.791,7.6484 247.798,7.65202 247.798,7.65202 247.884,7.66766 247.88,7.67983 247.88,7.67983 247.802,7.66554 247.802,7.66554 247.741,7.69954 247.657,7.8792 247.654,7.8869 247.654,7.8869 247.686,7.99107 247.686,7.99107 247.927,8.07048 247.927,8.07048 248.015,8.00629 248.017,7.99793 248.057,7.80356 248.057,7.80356 248.028,7.7398 248.028,7.7398 247.957,7.70498 " />
<circle cx="247.964" cy="7.81152" r="0.00718211" />
<circle cx="247.91" cy="7.97263" r="0.00718211" />
<circle cx="247.758" cy="7.92233" r="0.00718211" />
<circle cx="247.811" cy="7.76122" r="0.00718211" />
</g>
<g clip-path="url(#clipId0)" fill="none" stroke="rgb(0,0,0)" stroke-width="0.09" >
<circle cx="728.526" cy="710.351" r="37.2542" />
<circle cx="728.526" cy="710.351" r="23.9094" />
<circle cx="728.526" cy="710.351" r="24.3543" />
<circle cx="728.526" cy="710.351" r="36.8094" />
<path d="M729.587,661.997  A14.7812,14.7812 0 0,0 727.549,661.988 " />
<path d="M729.589,661.671  A14.7812,14.7812 0 0,0 727.55,661.662 " />
<polyline points="731.669,661.018 725.476,660.99 " />
<polyline points="729.587,661.997 729.589,661.671 729.589,661.671 731.798,661.993 731.798,661.993 731.98,661.957 732.078,661.799 732.13,660.953 732.13,660.953 731.857,660.592 731.857,660.592 725.292,660.562 725.292,660.562 725.016,660.921 725.061,661.767 725.061,661.767 725.156,661.926 725.338,661.963 725.338,661.963 727.55,661.662 727.549,661.988 727.549,661.988 725.557,662.253 725.557,662.253 724.742,662.71 724.345,663.555 723.726,668.554 723.698,668.769 723.698,668.769 724.06,670.215 725.309,671.028 725.309,671.028 731.745,671.057 731.745,671.057 733.001,670.255 733.376,668.813 733.35,668.598 732.777,663.593 732.777,663.593 732.387,662.744 731.577,662.28 731.577,662.28 729.587,661.997 " />
<circle cx="730.595" cy="664.515" r="0.182426" />
<circle cx="730.576" cy="668.824" r="0.182426" />
<circle cx="726.498" cy="668.805" r="0.182426" />
<circle cx="726.518" cy="664.496" r="0.182426" />
<path d="M714.593,664.035  A14.7812,14.7812 0 0,0 712.651,664.657 " />
<path d="M714.494,663.725  A14.7812,14.7812 0 0,0 712.552,664.347 " />
<polyline points="716.27,662.461 710.372,664.348 " />
<polyline points="714.593,664.035 714.494,663.725 714.494,663.725 716.694,663.348 716.694,663.348 716.856,663.258 716.9,663.077 716.689,662.257 716.689,662.257 716.317,661.998 716.317,661.998 710.065,663.998 710.065,663.998 709.913,664.425 710.217,665.215 710.217,665.215 710.357,665.337 710.541,665.316 710.541,665.316 712.552,664.347 712.651,664.657 712.651,664.657 710.839,665.525 710.839,665.525 710.205,666.211 710.089,667.137 711.045,672.083 711.085,672.296 711.085,672.296 711.876,673.559 713.314,673.947 713.314,673.947 719.445,671.985 719.445,671.985 720.392,670.835 720.303,669.347 720.212,669.151 718.12,664.568 718.12,664.568 717.487,663.881 716.573,663.69 716.573,663.69 714.593,664.035 " />
<circle cx="716.33" cy="666.119" r="0.182426" />
<circle cx="717.643" cy="670.223" r="0.182426" />
<circle cx="713.759" cy="671.465" r="0.182426" />
<circle cx="712.446" cy="667.361" r="0.182426" />
<path d="M700.963,670.608  A14.7812,14.7812 0 0,0 699.308,671.798 " />
<path d="M700.773,670.343  A14.7812,14.7812 0 0,0 699.118,671.534 " />
<polyline points="702.071,668.592 697.045,672.21 " />
<polyline points="700.963,670.608 700.773,670.343 700.773,670.343 702.749,669.305 702.749,669.305 702.875,669.169 702.861,668.983 702.406,668.269 702.406,668.269 701.973,668.137 701.973,668.137 696.644,671.972 696.644,671.972 696.632,672.424 697.165,673.082 697.165,673.082 697.336,673.154 697.505,673.078 697.505,673.078 699.118,671.534 699.308,671.798 699.308,671.798 697.852,673.184 697.852,673.184 697.462,674.032 697.637,674.95 700.075,679.358 700.179,679.548 700.179,679.548 701.321,680.505 702.809,680.429 702.809,680.429 708.034,676.669 708.034,676.669 708.579,675.282 708.034,673.895 707.887,673.736 704.481,670.024 704.481,670.024 703.667,669.567 702.739,669.668 702.739,669.668 700.963,670.608 " />
<circle cx="703.258" cy="672.052" r="0.182426" />
<circle cx="705.775" cy="675.55" r="0.182426" />
<circle cx="702.465" cy="677.932" r="0.182426" />
<circle cx="699.948" cy="674.434" r="0.182426" />
<path d="M690.03,681.07  A14.7812,14.7812 0 0,0 688.824,682.714 " />
<path d="M689.768,680.878  A14.7812,14.7812 0 0,0 688.562,682.522 " />
<polyline points="690.462,678.811 686.799,683.805 " />
<polyline points="690.03,681.07 689.768,680.878 689.768,680.878 691.326,679.279 691.326,679.279 691.404,679.111 691.333,678.939 690.68,678.4 690.68,678.4 690.227,678.408 690.227,678.408 686.345,683.702 686.345,683.702 686.472,684.136 687.183,684.597 687.183,684.597 687.368,684.613 687.505,684.488 687.505,684.488 688.562,682.522 688.824,682.714 688.824,682.714 687.868,684.482 687.868,684.482 687.759,685.409 688.209,686.227 691.89,689.667 692.047,689.815 692.047,689.815 693.429,690.372 694.821,689.84 694.821,689.84 698.628,684.65 698.628,684.65 698.718,683.162 697.771,682.011 697.582,681.906 693.196,679.428 693.196,679.428 692.281,679.244 691.429,679.627 691.429,679.627 690.03,681.07 " />
<circle cx="692.66" cy="681.735" r="0.182426" />
<circle cx="696.134" cy="684.283" r="0.182426" />
<circle cx="693.723" cy="687.571" r="0.182426" />
<circle cx="690.248" cy="685.023" r="0.182426" />
<path d="M682.866,694.399  A14.7812,14.7812 0 0,0 682.227,696.335 " />
<path d="M682.557,694.297  A14.7812,14.7812 0 0,0 681.918,696.233 " />
<polyline points="682.578,692.117 680.638,697.998 " />
<polyline points="682.866,694.399 682.557,694.297 682.557,694.297 683.545,692.295 683.545,692.295 683.567,692.111 683.447,691.97 682.659,691.658 682.659,691.658 682.231,691.807 682.231,691.807 680.174,698.041 680.174,698.041 680.43,698.414 681.248,698.633 681.248,698.633 681.429,698.591 681.521,698.43 681.521,698.43 681.918,696.233 682.227,696.335 682.227,696.335 681.864,698.312 681.864,698.312 682.046,699.228 682.728,699.866 687.291,702 687.487,702.093 687.487,702.093 688.973,702.195 690.133,701.259 690.133,701.259 692.149,695.147 692.149,695.147 691.775,693.704 690.519,692.902 690.307,692.86 685.37,691.859 685.37,691.859 684.442,691.967 683.75,692.595 683.75,692.595 682.866,694.399 " />
<circle cx="685.572" cy="694.218" r="0.182426" />
<circle cx="689.664" cy="695.569" r="0.182426" />
<circle cx="688.387" cy="699.441" r="0.182426" />
<circle cx="684.294" cy="698.091" r="0.182426" />
<path d="M680.171,709.289  A14.7812,14.7812 0 0,0 680.162,711.328 " />
<path d="M679.846,709.288  A14.7812,14.7812 0 0,0 679.836,711.327 " />
<polyline points="679.192,707.208 679.164,713.401 " />
<polyline points="680.171,709.289 679.846,709.288 679.846,709.288 680.167,707.079 680.167,707.079 680.131,706.897 679.973,706.799 679.127,706.747 679.127,706.747 678.766,707.02 678.766,707.02 678.736,713.585 678.736,713.585 679.095,713.861 679.941,713.816 679.941,713.816 680.1,713.721 680.137,713.539 680.137,713.539 679.836,711.327 680.162,711.328 680.162,711.328 680.427,713.32 680.427,713.32 680.884,714.135 681.729,714.532 686.728,715.151 686.943,715.179 686.943,715.179 688.389,714.817 689.202,713.568 689.202,713.568 689.231,707.132 689.231,707.132 688.429,705.876 686.987,705.501 686.772,705.526 681.767,706.1 681.767,706.1 680.919,706.489 680.455,707.3 680.455,707.3 680.171,709.289 " />
<circle cx="682.689" cy="708.281" r="0.182426" />
<circle cx="686.998" cy="708.301" r="0.182426" />
<circle cx="686.98" cy="712.379" r="0.182426" />
<circle cx="682.67" cy="712.359" r="0.182426" />
<path d="M682.209,724.284  A14.7812,14.7812 0 0,0 682.831,726.226 " />
<path d="M681.9,724.383  A14.7812,14.7812 0 0,0 682.521,726.325 " />
<polyline points="680.635,722.607 682.522,728.505 " />
<polyline points="682.209,724.284 681.9,724.383 681.9,724.383 681.522,722.183 681.522,722.183 681.432,722.021 681.251,721.977 680.431,722.188 680.431,722.188 680.172,722.56 680.172,722.56 682.172,728.812 682.172,728.812 682.599,728.964 683.389,728.66 683.389,728.66 683.511,728.52 683.491,728.336 683.491,728.336 682.521,726.325 682.831,726.226 682.831,726.226 683.699,728.038 683.699,728.038 684.385,728.672 685.311,728.788 690.257,727.832 690.47,727.792 690.47,727.792 691.733,727.001 692.121,725.563 692.121,725.563 690.159,719.432 690.159,719.432 689.009,718.485 687.521,718.574 687.325,718.665 682.742,720.757 682.742,720.757 682.055,721.39 681.864,722.304 681.864,722.304 682.209,724.284 " />
<circle cx="684.293" cy="722.547" r="0.182426" />
<circle cx="688.397" cy="721.234" r="0.182426" />
<circle cx="689.639" cy="725.118" r="0.182426" />
<circle cx="685.535" cy="726.431" r="0.182426" />
<path d="M688.782,737.914  A14.7812,14.7812 0 0,0 689.973,739.569 " />
<path d="M688.518,738.104  A14.7812,14.7812 0 0,0 689.708,739.759 " />
<polyline points="686.766,736.806 690.384,741.832 " />
<polyline points="688.782,737.914 688.518,738.104 688.518,738.104 687.479,736.128 687.479,736.128 687.343,736.002 687.158,736.016 686.443,736.471 686.443,736.471 686.311,736.904 686.311,736.904 690.146,742.233 690.146,742.233 690.598,742.245 691.256,741.712 691.256,741.712 691.329,741.541 691.252,741.372 691.252,741.372 689.708,739.759 689.973,739.569 689.973,739.569 691.358,741.025 691.358,741.025 692.206,741.415 693.124,741.24 697.532,738.802 697.722,738.698 697.722,738.698 698.679,737.556 698.603,736.068 698.603,736.068 694.843,730.843 694.843,730.843 693.456,730.298 692.069,730.843 691.91,730.99 688.199,734.396 688.199,734.396 687.741,735.21 687.842,736.138 687.842,736.138 688.782,737.914 " />
<circle cx="690.226" cy="735.619" r="0.182426" />
<circle cx="693.724" cy="733.102" r="0.182426" />
<circle cx="696.106" cy="736.412" r="0.182426" />
<circle cx="692.608" cy="738.929" r="0.182426" />
<path d="M699.244,748.847  A14.7812,14.7812 0 0,0 700.888,750.053 " />
<path d="M699.052,749.109  A14.7812,14.7812 0 0,0 700.696,750.315 " />
<polyline points="696.985,748.415 701.979,752.078 " />
<polyline points="699.244,748.847 699.052,749.109 699.052,749.109 697.453,747.551 697.453,747.551 697.285,747.473 697.113,747.544 696.574,748.197 696.574,748.197 696.583,748.649 696.583,748.649 701.876,752.532 701.876,752.532 702.31,752.405 702.771,751.694 702.771,751.694 702.787,751.509 702.662,751.372 702.662,751.372 700.696,750.315 700.888,750.053 700.888,750.053 702.656,751.009 702.656,751.009 703.583,751.118 704.401,750.668 707.841,746.987 707.989,746.83 707.989,746.83 708.546,745.448 708.014,744.056 708.014,744.056 702.824,740.249 702.824,740.249 701.337,740.159 700.185,741.106 700.08,741.295 697.602,745.681 697.602,745.681 697.419,746.596 697.801,747.448 697.801,747.448 699.244,748.847 " />
<circle cx="699.909" cy="746.217" r="0.182426" />
<circle cx="702.458" cy="742.743" r="0.182426" />
<circle cx="705.745" cy="745.154" r="0.182426" />
<circle cx="703.197" cy="748.629" r="0.182426" />
<path d="M712.573,756.011  A14.7812,14.7812 0 0,0 714.509,756.65 " />
<path d="M712.471,756.32  A14.7812,14.7812 0 0,0 714.407,756.959 " />
<polyline points="710.291,756.299 716.172,758.239 " />
<polyline points="712.573,756.011 712.471,756.32 712.471,756.32 710.469,755.332 710.469,755.332 710.285,755.31 710.144,755.43 709.833,756.218 709.833,756.218 709.981,756.646 709.981,756.646 716.215,758.703 716.215,758.703 716.589,758.447 716.807,757.629 716.807,757.629 716.765,757.448 716.604,757.356 716.604,757.356 714.407,756.959 714.509,756.65 714.509,756.65 716.486,757.013 716.486,757.013 717.402,756.83 718.041,756.149 720.174,751.586 720.267,751.39 720.267,751.39 720.37,749.904 719.433,748.744 719.433,748.744 713.321,746.727 713.321,746.727 711.878,747.102 711.076,748.358 711.034,748.57 710.033,753.507 710.033,753.507 710.141,754.435 710.769,755.127 710.769,755.127 712.573,756.011 " />
<circle cx="712.393" cy="753.305" r="0.182426" />
<circle cx="713.743" cy="749.213" r="0.182426" />
<circle cx="717.615" cy="750.49" r="0.182426" />
<circle cx="716.265" cy="754.583" r="0.182426" />
<path d="M727.464,758.706  A14.7812,14.7812 0 0,0 729.502,758.715 " />
<path d="M727.462,759.031  A14.7812,14.7812 0 0,0 729.501,759.041 " />
<polyline points="725.382,759.685 731.575,759.713 " />
<polyline points="727.464,758.706 727.462,759.031 727.462,759.031 725.253,758.71 725.253,758.71 725.071,758.746 724.973,758.904 724.921,759.75 724.921,759.75 725.194,760.111 725.194,760.111 731.759,760.141 731.759,760.141 732.035,759.782 731.99,758.936 731.99,758.936 731.895,758.777 731.713,758.74 731.713,758.74 729.501,759.041 729.502,758.715 729.502,758.715 731.494,758.45 731.494,758.45 732.309,757.993 732.706,757.148 733.325,752.149 733.353,751.934 733.353,751.934 732.991,750.488 731.742,749.675 731.742,749.675 725.306,749.646 725.306,749.646 724.05,750.448 723.675,751.89 723.701,752.105 724.274,757.109 724.274,757.109 724.664,757.958 725.474,758.422 725.474,758.422 727.464,758.706 " />
<circle cx="726.456" cy="756.188" r="0.182426" />
<circle cx="726.475" cy="751.879" r="0.182426" />
<circle cx="730.553" cy="751.897" r="0.182426" />
<circle cx="730.533" cy="756.207" r="0.182426" />
<path d="M742.458,756.667  A14.7812,14.7812 0 0,0 744.4,756.046 " />
<path d="M742.557,756.977  A14.7812,14.7812 0 0,0 744.499,756.356 " />
<polyline points="740.781,758.241 746.679,756.355 " />
<polyline points="742.458,756.667 742.557,756.977 742.557,756.977 740.357,757.355 740.357,757.355 740.195,757.445 740.151,757.626 740.362,758.446 740.362,758.446 740.734,758.705 740.734,758.705 746.986,756.705 746.986,756.705 747.138,756.278 746.834,755.488 746.834,755.488 746.694,755.366 746.51,755.386 746.51,755.386 744.499,756.356 744.4,756.046 744.4,756.046 746.212,755.178 746.212,755.178 746.846,754.492 746.962,753.566 746.006,748.62 745.966,748.407 745.966,748.407 745.176,747.144 743.737,746.756 743.737,746.756 737.606,748.717 737.606,748.717 736.659,749.868 736.748,751.356 736.839,751.552 738.931,756.135 738.931,756.135 739.564,756.822 740.478,757.013 740.478,757.013 742.458,756.667 " />
<circle cx="740.721" cy="754.584" r="0.182426" />
<circle cx="739.408" cy="750.48" r="0.182426" />
<circle cx="743.292" cy="749.238" r="0.182426" />
<circle cx="744.605" cy="753.342" r="0.182426" />
<path d="M756.088,750.095  A14.7812,14.7812 0 0,0 757.743,748.904 " />
<path d="M756.279,750.359  A14.7812,14.7812 0 0,0 757.933,749.169 " />
<polyline points="754.98,752.111 760.006,748.493 " />
<polyline points="756.088,750.095 756.279,750.359 756.279,750.359 754.303,751.398 754.303,751.398 754.176,751.534 754.191,751.719 754.645,752.434 754.645,752.434 755.078,752.566 755.078,752.566 760.407,748.731 760.407,748.731 760.42,748.279 759.886,747.621 759.886,747.621 759.715,747.548 759.546,747.625 759.546,747.625 757.933,749.169 757.743,748.904 757.743,748.904 759.199,747.519 759.199,747.519 759.589,746.67 759.414,745.753 756.976,741.345 756.873,741.155 756.873,741.155 755.73,740.198 754.242,740.274 754.242,740.274 749.017,744.034 749.017,744.034 748.472,745.421 749.017,746.808 749.164,746.967 752.57,750.678 752.57,750.678 753.384,751.136 754.312,751.035 754.312,751.035 756.088,750.095 " />
<circle cx="753.793" cy="748.651" r="0.182426" />
<circle cx="751.276" cy="745.153" r="0.182426" />
<circle cx="754.586" cy="742.771" r="0.182426" />
<circle cx="757.103" cy="746.269" r="0.182426" />
<path d="M767.021,739.633  A14.7812,14.7812 0 0,0 768.227,737.989 " />
<path d="M767.283,739.825  A14.7812,14.7812 0 0,0 768.489,738.181 " />
<polyline points="766.589,741.892 770.252,736.898 " />
<polyline points="767.021,739.633 767.283,739.825 767.283,739.825 765.725,741.424 765.725,741.424 765.647,741.592 765.718,741.764 766.371,742.303 766.371,742.303 766.824,742.294 766.824,742.294 770.706,737.001 770.706,737.001 770.579,736.567 769.868,736.106 769.868,736.106 769.683,736.09 769.546,736.215 769.546,736.215 768.489,738.181 768.227,737.989 768.227,737.989 769.183,736.221 769.183,736.221 769.292,735.294 768.842,734.475 765.161,731.036 765.004,730.887 765.004,730.887 763.622,730.33 762.23,730.863 762.23,730.863 758.423,736.053 758.423,736.053 758.333,737.54 759.28,738.691 759.469,738.797 763.855,741.275 763.855,741.275 764.77,741.458 765.622,741.075 765.622,741.075 767.021,739.633 " />
<circle cx="764.391" cy="738.968" r="0.182426" />
<circle cx="760.917" cy="736.419" r="0.182426" />
<circle cx="763.328" cy="733.131" r="0.182426" />
<circle cx="766.803" cy="735.68" r="0.182426" />
<path d="M774.185,726.304  A14.7812,14.7812 0 0,0 774.824,724.368 " />
<path d="M774.494,726.406  A14.7812,14.7812 0 0,0 775.133,724.47 " />
<polyline points="774.473,728.586 776.413,722.705 " />
<polyline points="774.185,726.304 774.494,726.406 774.494,726.406 773.506,728.408 773.506,728.408 773.484,728.592 773.604,728.733 774.392,729.044 774.392,729.044 774.82,728.896 774.82,728.896 776.877,722.662 776.877,722.662 776.621,722.288 775.803,722.07 775.803,722.07 775.622,722.112 775.53,722.273 775.53,722.273 775.133,724.47 774.824,724.368 774.824,724.368 775.187,722.391 775.187,722.391 775.005,721.475 774.323,720.836 769.76,718.703 769.565,718.61 769.565,718.61 768.078,718.507 766.919,719.444 766.919,719.444 764.902,725.556 764.902,725.556 765.276,726.999 766.532,727.801 766.744,727.843 771.681,728.844 771.681,728.844 772.609,728.736 773.301,728.108 773.301,728.108 774.185,726.304 " />
<circle cx="771.479" cy="726.484" r="0.182426" />
<circle cx="767.387" cy="725.134" r="0.182426" />
<circle cx="768.665" cy="721.262" r="0.182426" />
<circle cx="772.757" cy="722.612" r="0.182426" />
<path d="M776.88,711.413  A14.7812,14.7812 0 0,0 776.889,709.375 " />
<path d="M777.205,711.415  A14.7812,14.7812 0 0,0 777.215,709.376 " />
<polyline points="777.859,713.495 777.887,707.302 " />
<polyline points="776.88,711.413 777.205,711.415 777.205,711.415 776.884,713.624 776.884,713.624 776.92,713.806 777.078,713.903 777.924,713.956 777.924,713.956 778.285,713.683 778.285,713.683 778.315,707.118 778.315,707.118 777.956,706.842 777.11,706.886 777.11,706.886 776.951,706.982 776.914,707.164 776.914,707.164 777.215,709.376 776.889,709.375 776.889,709.375 776.624,707.383 776.624,707.383 776.167,706.568 775.322,706.171 770.323,705.552 770.108,705.524 770.108,705.524 768.662,705.886 767.849,707.134 767.849,707.134 767.82,713.571 767.82,713.571 768.622,714.827 770.064,715.202 770.279,715.176 775.284,714.603 775.284,714.603 776.132,714.213 776.596,713.403 776.596,713.403 776.88,711.413 " />
<circle cx="774.362" cy="712.421" r="0.182426" />
<circle cx="770.053" cy="712.402" r="0.182426" />
<circle cx="770.071" cy="708.324" r="0.182426" />
<circle cx="774.381" cy="708.344" r="0.182426" />
<path d="M774.842,696.419  A14.7812,14.7812 0 0,0 774.22,694.477 " />
<path d="M775.152,696.32  A14.7812,14.7812 0 0,0 774.53,694.378 " />
<polyline points="776.416,698.096 774.529,692.198 " />
<polyline points="774.842,696.419 775.152,696.32 775.152,696.32 775.529,698.52 775.529,698.52 775.619,698.682 775.8,698.726 776.62,698.515 776.62,698.515 776.879,698.143 776.879,698.143 774.879,691.891 774.879,691.891 774.452,691.739 773.662,692.042 773.662,692.042 773.54,692.183 773.561,692.367 773.561,692.367 774.53,694.378 774.22,694.477 774.22,694.477 773.352,692.665 773.352,692.665 772.666,692.031 771.74,691.915 766.794,692.871 766.581,692.911 766.581,692.911 765.318,693.701 764.93,695.14 764.93,695.14 766.892,701.271 766.892,701.271 768.042,702.218 769.53,702.129 769.726,702.038 774.309,699.946 774.309,699.946 774.996,699.313 775.187,698.399 775.187,698.399 774.842,696.419 " />
<circle cx="772.758" cy="698.156" r="0.182426" />
<circle cx="768.654" cy="699.469" r="0.182426" />
<circle cx="767.412" cy="695.585" r="0.182426" />
<circle cx="771.516" cy="694.272" r="0.182426" />
<path d="M768.269,682.788  A14.7812,14.7812 0 0,0 767.079,681.134 " />
<path d="M768.534,682.598  A14.7812,14.7812 0 0,0 767.343,680.944 " />
<polyline points="770.285,683.897 766.667,678.871 " />
<polyline points="768.269,682.788 768.534,682.598 768.534,682.598 769.572,684.574 769.572,684.574 769.708,684.701 769.893,684.686 770.608,684.232 770.608,684.232 770.74,683.799 770.74,683.799 766.905,678.47 766.905,678.47 766.453,678.457 765.795,678.991 765.795,678.991 765.723,679.162 765.799,679.331 765.799,679.331 767.343,680.944 767.079,681.134 767.079,681.134 765.693,679.678 765.693,679.678 764.845,679.287 763.927,679.463 759.519,681.901 759.329,682.004 759.329,682.004 758.372,683.147 758.448,684.635 758.448,684.635 762.208,689.86 762.208,689.86 763.595,690.404 764.982,689.86 765.141,689.713 768.853,686.307 768.853,686.307 769.31,685.493 769.209,684.565 769.209,684.565 768.269,682.788 " />
<circle cx="766.825" cy="685.084" r="0.182426" />
<circle cx="763.327" cy="687.601" r="0.182426" />
<circle cx="760.945" cy="684.291" r="0.182426" />
<circle cx="764.443" cy="681.774" r="0.182426" />
<path d="M757.807,671.856  A14.7812,14.7812 0 0,0 756.163,670.65 " />
<path d="M757.999,671.594  A14.7812,14.7812 0 0,0 756.355,670.388 " />
<polyline points="760.066,672.288 755.072,668.625 " />
<polyline points="757.807,671.856 757.999,671.594 757.999,671.594 759.598,673.152 759.598,673.152 759.766,673.23 759.938,673.159 760.477,672.506 760.477,672.506 760.469,672.053 760.469,672.053 755.175,668.171 755.175,668.171 754.741,668.298 754.28,669.009 754.28,669.009 754.264,669.194 754.389,669.331 754.389,669.331 756.355,670.388 756.163,670.65 756.163,670.65 754.395,669.694 754.395,669.694 753.468,669.585 752.65,670.035 749.21,673.716 749.062,673.873 749.062,673.873 748.505,675.255 749.037,676.647 749.037,676.647 754.227,680.454 754.227,680.454 755.715,680.544 756.866,679.597 756.971,679.408 759.449,675.022 759.449,675.022 759.633,674.107 759.25,673.255 759.25,673.255 757.807,671.856 " />
<circle cx="757.142" cy="674.485" r="0.182426" />
<circle cx="754.594" cy="677.96" r="0.182426" />
<circle cx="751.306" cy="675.548" r="0.182426" />
<circle cx="753.854" cy="672.074" r="0.182426" />
<path d="M744.478,664.692  A14.7812,14.7812 0 0,0 742.542,664.053 " />
<path d="M744.58,664.383  A14.7812,14.7812 0 0,0 742.644,663.744 " />
<polyline points="746.76,664.404 740.879,662.464 " />
<polyline points="744.478,664.692 744.58,664.383 744.58,664.383 746.582,665.371 746.582,665.371 746.766,665.393 746.907,665.272 747.219,664.485 747.219,664.485 747.07,664.057 747.07,664.057 740.836,662 740.836,662 740.462,662.256 740.244,663.074 740.244,663.074 740.286,663.255 740.447,663.346 740.447,663.346 742.644,663.744 742.542,664.053 742.542,664.053 740.565,663.69 740.565,663.69 739.649,663.872 739.01,664.554 736.877,669.117 736.784,669.312 736.784,669.312 736.681,670.799 737.618,671.958 737.618,671.958 743.73,673.975 743.73,673.975 745.173,673.601 745.975,672.345 746.017,672.133 747.018,667.196 747.018,667.196 746.91,666.268 746.282,665.576 746.282,665.576 744.478,664.692 " />
<circle cx="744.658" cy="667.398" r="0.182426" />
<circle cx="743.308" cy="671.49" r="0.182426" />
<circle cx="739.436" cy="670.212" r="0.182426" />
<circle cx="740.786" cy="666.12" r="0.182426" />
</g>
<g clip-path="url(#clipId0)" fill="rgb(91,91,91)" stroke="rgb(91,91,91)" stroke-width="0" >
<text transform="matrix(11.4085 0 -0 11.4085 272.02 730.374)" font-family="Arial,&apos;sans-serif&apos;" font-size="1.39636" >Please go to www.autodwg.com to register and eliminate such limits.</text>
<text transform="matrix(11.4085 0 -0 11.4085 272.02 709.839)" font-family="Arial,&apos;sans-serif&apos;" font-size="1.39636" >The note and watermark only exist in the trial version.</text>
<text transform="matrix(11.4085 0 -0 11.4085 272.02 730.374)" font-family="Arial,&apos;sans-serif&apos;" font-size="1.39636" >Please go to www.autodwg.com to register and eliminate such limits.</text>
<text transform="matrix(11.4085 0 -0 11.4085 272.02 709.839)" font-family="Arial,&apos;sans-serif&apos;" font-size="1.39636" >The note and watermark only exist in the trial version.</text>
<text transform="matrix(11.4085 0 -0 11.4085 272.02 730.374)" font-family="Arial,&apos;sans-serif&apos;" font-size="1.39636" >Please go to www.autodwg.com to register and eliminate such limits.</text>
<text transform="matrix(11.4085 0 -0 11.4085 272.02 709.839)" font-family="Arial,&apos;sans-serif&apos;" font-size="1.39636" >The note and watermark only exist in the trial version.</text>
</g>
<g clip-path="url(#clipId0)" fill="rgb(0,0,255)" stroke="rgb(0,0,255)" stroke-width="0" >
<text transform="matrix(14.8514 0 -0 14.8514 298.686 384.011)" font-family="Arial,&apos;sans-serif&apos;" font-size="1.39636" >AutoDWG DWG to SVG Converter FREE TRIAL</text>
</g>
</svg>

