<?xml version="1.0" standalone="no"?>
<svg viewBox="-512 -384 1024 768" version="1.1" xmlns="http://www.w3.org/2000/svg" xmlns:xlink="http://www.w3.org/1999/xlink" stroke-linecap="round" stroke-linejoin="round" fill-rule="evenodd" xml:space="preserve" >
<defs >
<clipPath id="clipId0" >
<path d="M0,768 1024,768 1024,0 0,0 z" />
</clipPath>
</defs>
<g clip-path="url(#clipId0)" fill="none" stroke="rgb(0,0,0)" stroke-width="0.1" />
<g clip-path="url(#clipId0)" fill="none" stroke="rgb(0,0,0)" stroke-width="0.25" >
<polyline points="896.215,604.642 986.381,604.642 " />
<polyline points="986.381,246.099 710.578,246.099 " />
<polyline points="986.381,273.679 710.578,273.679 " />
<polyline points="710.578,163.358 986.381,163.358 " />
<polyline points="223.257,604.642 313.422,604.642 " />
<polyline points="37.6195,604.642 245.694,604.642 " />
<polyline points="37.6195,163.358 313.422,163.358 " />
<polyline points="313.422,273.679 37.6195,273.679 " />
<polyline points="313.422,246.099 37.6195,246.099 " />
<polyline points="10.0392,218.518 10.0392,190.938 " />
<polyline points="10.0392,577.062 10.0392,301.259 " />
<path d="M37.6195,273.679  A27.5803,27.5803 0 0,0 10.0392,301.259 " />
<path d="M37.6195,163.358  A27.5803,27.5803 0 0,0 10.0392,190.938 " />
<path d="M10.0392,218.518  A27.5803,27.5803 0 0,0 37.6195,246.099 " />
<path d="M10.0392,577.062  A27.5803,27.5803 0 0,0 37.6195,604.642 " />
<polyline points="559.736,604.642 649.901,604.642 " />
<polyline points="649.901,246.099 374.099,246.099 " />
<polyline points="649.901,273.679 374.099,273.679 " />
<polyline points="374.099,163.358 649.901,163.358 " />
<polyline points="374.099,604.642 582.173,604.642 " />
<path d="M341.002,301.259  A27.5803,27.5803 0 0,0 313.422,273.679 " />
<path d="M313.422,246.099  A27.5803,27.5803 0 0,0 341.002,218.518 " />
<path d="M341.002,190.938  A27.5803,27.5803 0 0,0 313.422,163.358 " />
<path d="M341.002,301.259  A27.5803,27.5803 0 0,0 313.422,273.679 " />
<path d="M313.422,246.099  A27.5803,27.5803 0 0,0 341.002,218.518 " />
<path d="M341.002,190.938  A27.5803,27.5803 0 0,0 313.422,163.358 " />
<path d="M313.422,604.642  A27.5803,27.5803 0 0,0 341.002,577.062 " />
<polyline points="341.002,190.938 341.002,218.518 " />
<path d="M346.518,218.518  A27.5803,27.5803 0 0,0 374.099,246.099 " />
<path d="M374.099,163.358  A27.5803,27.5803 0 0,0 346.518,190.938 " />
<path d="M374.099,273.679  A27.5803,27.5803 0 0,0 346.518,301.259 " />
<polyline points="346.518,218.518 346.518,190.938 " />
<path d="M346.518,577.062  A27.5803,27.5803 0 0,0 374.099,604.642 " />
<polyline points="341.002,301.259 341.002,577.062 " />
<polyline points="346.518,577.062 346.518,301.259 " />
<polyline points="710.578,604.642 918.652,604.642 " />
<polyline points="677.482,190.938 677.482,218.518 " />
<path d="M682.998,218.518  A27.5803,27.5803 0 0,0 710.578,246.099 " />
<path d="M710.578,163.358  A27.5803,27.5803 0 0,0 682.998,190.938 " />
<path d="M710.578,273.679  A27.5803,27.5803 0 0,0 682.998,301.259 " />
<polyline points="682.998,218.518 682.998,190.938 " />
<path d="M682.998,577.062  A27.5803,27.5803 0 0,0 710.578,604.642 " />
<polyline points="677.482,301.259 677.482,577.062 " />
<polyline points="682.998,577.062 682.998,301.259 " />
<path d="M677.482,190.938  A27.5803,27.5803 0 0,0 649.901,163.358 " />
<path d="M649.901,246.099  A27.5803,27.5803 0 0,0 677.482,218.518 " />
<path d="M677.482,301.259  A27.5803,27.5803 0 0,0 649.901,273.679 " />
<path d="M677.482,190.938  A27.5803,27.5803 0 0,0 649.901,163.358 " />
<path d="M649.901,246.099  A27.5803,27.5803 0 0,0 677.482,218.518 " />
<path d="M677.482,301.259  A27.5803,27.5803 0 0,0 649.901,273.679 " />
<path d="M649.901,604.642  A27.5803,27.5803 0 0,0 677.482,577.062 " />
<polyline points="1013.96,190.938 1013.96,218.518 " />
<polyline points="1013.96,577.062 1013.96,301.259 " />
<path d="M1013.96,190.938  A27.5803,27.5803 0 0,0 986.381,163.358 " />
<path d="M986.381,246.099  A27.5803,27.5803 0 0,0 1013.96,218.518 " />
<path d="M1013.96,301.259  A27.5803,27.5803 0 0,0 986.381,273.679 " />
<path d="M1013.96,190.938  A27.5803,27.5803 0 0,0 986.381,163.358 " />
<path d="M986.381,246.099  A27.5803,27.5803 0 0,0 1013.96,218.518 " />
<path d="M1013.96,301.259  A27.5803,27.5803 0 0,0 986.381,273.679 " />
<path d="M986.381,604.642  A27.5803,27.5803 0 0,0 1013.96,577.062 " />
</g>
<g clip-path="url(#clipId0)" fill="rgb(91,91,91)" stroke="rgb(91,91,91)" stroke-width="0" >
<text transform="matrix(6.68612 0 -0 6.68612 60.2353 586.991)" font-family="Arial,&apos;sans-serif&apos;" font-size="1.39636" >Please go to www.autodwg.com to register and eliminate such limits.</text>
<text transform="matrix(6.68612 0 -0 6.68612 60.2353 574.956)" font-family="Arial,&apos;sans-serif&apos;" font-size="1.39636" >The note and watermark only exist in the trial version.</text>
<text transform="matrix(6.68612 0 -0 6.68612 60.2353 586.991)" font-family="Arial,&apos;sans-serif&apos;" font-size="1.39636" >Please go to www.autodwg.com to register and eliminate such limits.</text>
<text transform="matrix(6.68612 0 -0 6.68612 60.2353 574.956)" font-family="Arial,&apos;sans-serif&apos;" font-size="1.39636" >The note and watermark only exist in the trial version.</text>
<text transform="matrix(6.68612 0 -0 6.68612 60.2353 586.991)" font-family="Arial,&apos;sans-serif&apos;" font-size="1.39636" >Please go to www.autodwg.com to register and eliminate such limits.</text>
<text transform="matrix(6.68612 0 -0 6.68612 60.2353 574.956)" font-family="Arial,&apos;sans-serif&apos;" font-size="1.39636" >The note and watermark only exist in the trial version.</text>
</g>
<g clip-path="url(#clipId0)" fill="rgb(0,0,255)" stroke="rgb(0,0,255)" stroke-width="0" >
<text transform="matrix(8.70383 0 -0 8.70383 110.431 384)" font-family="Arial,&apos;sans-serif&apos;" font-size="1.39636" >AutoDWG DWG to SVG Converter FREE TRIAL</text>
</g>
</svg>

