<?xml version="1.0" standalone="no"?>
<svg viewBox="-512 -384 1024 768" version="1.1" xmlns="http://www.w3.org/2000/svg" xmlns:xlink="http://www.w3.org/1999/xlink" stroke-linecap="round" stroke-linejoin="round" fill-rule="evenodd" xml:space="preserve" >
<defs >
<clipPath id="clipId0" >
<path d="M0,768 1024,768 1024,0 0,0 z" />
</clipPath>
</defs>
<g clip-path="url(#clipId0)" fill="none" stroke="rgb(0,0,0)" stroke-width="0.1" />
<g clip-path="url(#clipId0)" fill="none" stroke="rgb(0,0,0)" stroke-width="0.25" >
<polyline points="589.927,14.6513 587.796,22.5822 586.485,30.689 586.008,38.8873 586.369,47.0915 586.369,47.0915 589.947,66.8776 592.614,86.8071 594.364,106.838 595.193,126.928 595.1,147.035 594.085,167.116 592.15,187.13 592.15,187.13 589.863,187.891 587.453,187.957 585.126,187.323 583.083,186.043 583.083,186.043 581.41,185.584 579.689,185.797 579.689,185.797 569.672,186.746 559.617,187.13 511.341,187.13 463.064,187.13 463.064,187.13 453.01,186.746 442.993,185.797 442.993,185.797 441.271,185.584 439.599,186.043 439.599,186.043 437.555,187.323 435.229,187.957 432.819,187.891 430.531,187.13 430.531,187.13 428.596,167.116 427.581,147.035 427.489,126.928 428.318,106.838 430.068,86.8071 432.735,66.8776 436.313,47.0915 436.313,47.0915 436.674,38.8873 436.197,30.689 434.886,22.5822 432.755,14.6513 432.755,14.6513 432.102,12.7907 432.274,10.8264 433.24,9.10745 434.828,7.93927 436.757,7.52943 585.925,7.52943 585.925,7.52943 587.853,7.93927 589.442,9.10745 590.408,10.8264 590.58,12.7907 589.927,14.6513 " />
<path d="M578.679,21.9005  A117.797,117.797 0 0,0 573.212,55.0655 " />
<path d="M579.85,61.8629  A36.3177,36.3177 0 0,0 551.1,47.3056 " />
<path d="M471.816,47.3056  A36.3177,36.3177 0 0,0 443.066,61.8629 " />
<path d="M449.705,55.0655  A117.797,117.797 0 0,0 444.237,21.9005 " />
<polyline points="445.472,49.1227 441.974,68.4685 439.367,87.9544 437.656,107.539 436.845,127.182 436.936,146.842 437.928,166.476 439.82,186.044 " />
<polyline points="442.554,178.597 438.993,178.597 " />
<polyline points="442.554,178.597 439.16,180.203 " />
<polyline points="443.209,185.799 442.554,178.597 " />
<path d="M443.209,185.799  A4.46044,4.46044 0 0,0 439.82,186.044 " />
<path d="M583.096,186.044  A428.55,428.55 0 0,0 577.444,49.1227 " />
<path d="M583.096,186.044  A4.46044,4.46044 0 0,0 579.707,185.799 " />
<polyline points="579.707,185.799 580.362,178.597 " />
<polyline points="580.362,178.597 583.756,180.203 " />
<polyline points="580.362,178.597 583.923,178.597 " />
<polyline points="511.458,17.2129 443.367,17.2129 " />
<polyline points="511.458,13.8693 443.247,13.8693 " />
<polyline points="511.458,16.909 443.367,16.909 " />
<polyline points="511.458,47.3056 471.816,47.3056 " />
<path d="M443.367,17.2129  A0.160781,0.160781 0 0,0 443.158,17.3914 " />
<path d="M443.391,16.909  A0.269177,0.269177 0 0,0 443.122,17.2589 " />
<path d="M443.247,13.8693  A0.89751,0.89751 0 0,0 442.573,15.0793 " />
<path d="M445.616,48.1605  A89.4174,89.4174 0 0,0 442.573,15.0793 " />
<polyline points="511.458,47.3056 551.1,47.3056 " />
<path d="M580.344,15.0793  A89.4174,89.4174 0 0,0 577.3,48.1605 " />
<polyline points="511.458,16.909 579.549,16.909 " />
<polyline points="511.458,13.8693 579.669,13.8693 " />
<path d="M580.344,15.0793  A0.89751,0.89751 0 0,0 579.669,13.8693 " />
<path d="M579.794,17.2589  A0.269177,0.269177 0 0,0 579.525,16.909 " />
<polyline points="511.458,17.2129 579.549,17.2129 " />
<path d="M579.758,17.3914  A0.160781,0.160781 0 0,0 579.549,17.2129 " />
<polyline points="434.073,753.349 436.204,745.418 437.515,737.311 437.992,729.113 437.631,720.909 437.631,720.909 434.053,701.122 431.386,681.193 429.636,661.162 428.807,641.072 428.9,620.965 429.915,600.884 431.85,580.87 431.85,580.87 434.137,580.109 436.547,580.043 438.874,580.677 440.917,581.957 440.917,581.957 442.59,582.416 444.311,582.203 444.311,582.203 454.328,581.254 464.383,580.87 512.659,580.87 560.936,580.87 560.936,580.87 570.99,581.254 581.007,582.203 581.007,582.203 582.729,582.416 584.401,581.957 584.401,581.957 586.445,580.677 588.771,580.043 591.181,580.109 593.469,580.87 593.469,580.87 595.404,600.884 596.419,620.965 596.511,641.072 595.682,661.162 593.932,681.193 591.265,701.122 587.687,720.909 587.687,720.909 587.326,729.113 587.803,737.311 589.114,745.418 591.245,753.349 591.245,753.349 591.898,755.209 591.726,757.174 590.76,758.893 589.172,760.061 587.243,760.471 438.075,760.471 438.075,760.471 436.147,760.061 434.558,758.893 433.592,757.174 433.42,755.209 434.073,753.349 " />
<path d="M445.321,746.099  A117.797,117.797 0 0,0 450.788,712.934 " />
<path d="M444.15,706.137  A36.3177,36.3177 0 0,0 472.9,720.694 " />
<path d="M552.184,720.694  A36.3177,36.3177 0 0,0 580.934,706.137 " />
<path d="M574.295,712.934  A117.797,117.797 0 0,0 579.763,746.099 " />
<polyline points="578.528,718.877 582.026,699.531 584.633,680.046 586.344,660.461 587.155,640.818 587.064,621.158 586.072,601.524 584.18,581.956 " />
<polyline points="581.446,589.403 585.007,589.403 " />
<polyline points="581.446,589.403 584.84,587.797 " />
<polyline points="580.791,582.201 581.446,589.403 " />
<path d="M580.791,582.201  A4.46044,4.46044 0 0,0 584.18,581.956 " />
<path d="M440.904,581.956  A428.55,428.55 0 0,0 446.556,718.877 " />
<path d="M440.904,581.956  A4.46044,4.46044 0 0,0 444.293,582.201 " />
<polyline points="444.293,582.201 443.638,589.403 " />
<polyline points="443.638,589.403 440.244,587.797 " />
<polyline points="443.638,589.403 440.077,589.403 " />
<polyline points="512.542,750.787 580.633,750.787 " />
<polyline points="512.542,754.131 580.753,754.131 " />
<polyline points="512.542,751.091 580.633,751.091 " />
<polyline points="512.542,720.694 552.184,720.694 " />
<path d="M580.633,750.787  A0.160781,0.160781 0 0,0 580.842,750.609 " />
<path d="M580.609,751.091  A0.269177,0.269177 0 0,0 580.878,750.741 " />
<path d="M580.753,754.131  A0.89751,0.89751 0 0,0 581.427,752.921 " />
<path d="M578.384,719.839  A89.4174,89.4174 0 0,0 581.427,752.921 " />
<polyline points="512.542,720.694 472.9,720.694 " />
<path d="M443.656,752.921  A89.4174,89.4174 0 0,0 446.7,719.839 " />
<polyline points="512.542,751.091 444.451,751.091 " />
<polyline points="512.542,754.131 444.331,754.131 " />
<path d="M443.656,752.921  A0.89751,0.89751 0 0,0 444.331,754.131 " />
<path d="M444.206,750.741  A0.269177,0.269177 0 0,0 444.475,751.091 " />
<polyline points="512.542,750.787 444.451,750.787 " />
<path d="M444.242,750.609  A0.160781,0.160781 0 0,0 444.451,750.787 " />
<circle cx="512" cy="384" r="178.19" />
<circle cx="512" cy="384" r="185.614" />
<polyline points="881.349,461.927 873.418,459.796 865.311,458.485 857.113,458.008 848.909,458.369 848.909,458.369 829.122,461.947 809.193,464.614 789.162,466.364 769.072,467.193 748.965,467.1 728.884,466.085 708.87,464.15 708.87,464.15 708.109,461.863 708.043,459.453 708.677,457.126 709.957,455.083 709.957,455.083 710.416,453.41 710.203,451.689 710.203,451.689 709.254,441.672 708.87,431.617 708.87,383.341 708.87,335.064 708.87,335.064 709.254,325.01 710.203,314.993 710.203,314.993 710.416,313.271 709.957,311.599 709.957,311.599 708.677,309.555 708.043,307.229 708.109,304.819 708.87,302.531 708.87,302.531 728.884,300.596 748.965,299.581 769.072,299.489 789.162,300.318 809.193,302.068 829.122,304.735 848.909,308.313 848.909,308.313 857.113,308.674 865.311,308.197 873.418,306.886 881.349,304.755 881.349,304.755 883.209,304.102 885.174,304.274 886.893,305.24 888.061,306.828 888.471,308.757 888.471,457.925 888.471,457.925 888.061,459.853 886.893,461.442 885.174,462.408 883.209,462.58 881.349,461.927 " />
<path d="M874.099,450.679  A117.797,117.797 0 0,0 840.934,445.212 " />
<path d="M834.137,451.85  A36.3177,36.3177 0 0,0 848.694,423.1 " />
<path d="M848.694,343.816  A36.3177,36.3177 0 0,0 834.137,315.066 " />
<path d="M840.934,321.705  A117.797,117.797 0 0,0 874.099,316.237 " />
<polyline points="846.877,317.472 827.531,313.974 808.046,311.367 788.461,309.656 768.818,308.845 749.158,308.936 729.524,309.928 709.956,311.82 " />
<polyline points="717.403,314.554 717.403,310.993 " />
<polyline points="717.403,314.554 715.797,311.16 " />
<polyline points="710.201,315.209 717.403,314.554 " />
<path d="M710.201,315.209  A4.46044,4.46044 0 0,0 709.956,311.82 " />
<path d="M709.956,455.096  A428.55,428.55 0 0,0 846.877,449.444 " />
<path d="M709.956,455.096  A4.46044,4.46044 0 0,0 710.201,451.707 " />
<polyline points="710.201,451.707 717.403,452.362 " />
<polyline points="717.403,452.362 715.797,455.756 " />
<polyline points="717.403,452.362 717.403,455.923 " />
<polyline points="878.787,383.458 878.787,315.367 " />
<polyline points="882.131,383.458 882.131,315.247 " />
<polyline points="879.091,383.458 879.091,315.367 " />
<polyline points="848.694,383.458 848.694,343.816 " />
<path d="M878.787,315.367  A0.160781,0.160781 0 0,0 878.609,315.158 " />
<path d="M879.091,315.391  A0.269177,0.269177 0 0,0 878.741,315.122 " />
<path d="M882.131,315.247  A0.89751,0.89751 0 0,0 880.921,314.573 " />
<path d="M847.839,317.616  A89.4174,89.4174 0 0,0 880.921,314.573 " />
<polyline points="848.694,383.458 848.694,423.1 " />
<path d="M880.921,452.344  A89.4174,89.4174 0 0,0 847.839,449.3 " />
<polyline points="879.091,383.458 879.091,451.549 " />
<polyline points="882.131,383.458 882.131,451.669 " />
<path d="M880.921,452.344  A0.89751,0.89751 0 0,0 882.131,451.669 " />
<path d="M878.741,451.794  A0.269177,0.269177 0 0,0 879.091,451.525 " />
<polyline points="878.787,383.458 878.787,451.549 " />
<path d="M878.609,451.758  A0.160781,0.160781 0 0,0 878.787,451.549 " />
<polyline points="142.651,306.073 150.582,308.204 158.689,309.515 166.887,309.992 175.091,309.631 175.091,309.631 194.878,306.053 214.807,303.386 234.838,301.636 254.928,300.807 275.035,300.9 295.116,301.915 315.13,303.85 315.13,303.85 315.891,306.137 315.957,308.547 315.323,310.874 314.043,312.917 314.043,312.917 313.584,314.59 313.797,316.311 313.797,316.311 314.746,326.328 315.13,336.383 315.13,384.659 315.13,432.936 315.13,432.936 314.746,442.99 313.797,453.007 313.797,453.007 313.584,454.729 314.043,456.401 314.043,456.401 315.323,458.445 315.957,460.771 315.891,463.181 315.13,465.469 315.13,465.469 295.116,467.404 275.035,468.419 254.928,468.511 234.838,467.682 214.807,465.932 194.878,463.265 175.091,459.687 175.091,459.687 166.887,459.326 158.689,459.803 150.582,461.114 142.651,463.245 142.651,463.245 140.791,463.898 138.826,463.726 137.107,462.76 135.939,461.172 135.529,459.243 135.529,310.075 135.529,310.075 135.939,308.147 137.107,306.558 138.826,305.592 140.791,305.42 142.651,306.073 " />
<path d="M149.901,317.321  A117.797,117.797 0 0,0 183.066,322.788 " />
<path d="M189.863,316.15  A36.3177,36.3177 0 0,0 175.306,344.9 " />
<path d="M175.306,424.184  A36.3177,36.3177 0 0,0 189.863,452.934 " />
<path d="M183.066,446.295  A117.797,117.797 0 0,0 149.901,451.763 " />
<polyline points="177.123,450.528 196.469,454.026 215.954,456.633 235.539,458.344 255.182,459.155 274.842,459.064 294.476,458.072 314.044,456.18 " />
<polyline points="306.597,453.446 306.597,457.007 " />
<polyline points="306.597,453.446 308.203,456.84 " />
<polyline points="313.799,452.791 306.597,453.446 " />
<path d="M313.799,452.791  A4.46044,4.46044 0 0,0 314.044,456.18 " />
<path d="M314.044,312.904  A428.55,428.55 0 0,0 177.123,318.556 " />
<path d="M314.044,312.904  A4.46044,4.46044 0 0,0 313.799,316.293 " />
<polyline points="313.799,316.293 306.597,315.638 " />
<polyline points="306.597,315.638 308.203,312.244 " />
<polyline points="306.597,315.638 306.597,312.077 " />
<polyline points="145.213,384.542 145.213,452.633 " />
<polyline points="141.869,384.542 141.869,452.753 " />
<polyline points="144.909,384.542 144.909,452.633 " />
<polyline points="175.306,384.542 175.306,424.184 " />
<path d="M145.213,452.633  A0.160781,0.160781 0 0,0 145.391,452.842 " />
<path d="M144.909,452.609  A0.269177,0.269177 0 0,0 145.259,452.878 " />
<path d="M141.869,452.753  A0.89751,0.89751 0 0,0 143.079,453.427 " />
<path d="M176.161,450.384  A89.4174,89.4174 0 0,0 143.079,453.427 " />
<polyline points="175.306,384.542 175.306,344.9 " />
<path d="M143.079,315.656  A89.4174,89.4174 0 0,0 176.161,318.7 " />
<polyline points="144.909,384.542 144.909,316.451 " />
<polyline points="141.869,384.542 141.869,316.331 " />
<path d="M143.079,315.656  A0.89751,0.89751 0 0,0 141.869,316.331 " />
<path d="M145.259,316.206  A0.269177,0.269177 0 0,0 144.909,316.475 " />
<polyline points="145.213,384.542 145.213,316.451 " />
<path d="M145.391,316.242  A0.160781,0.160781 0 0,0 145.213,316.451 " />
</g>
<g clip-path="url(#clipId0)" fill="rgb(91,91,91)" stroke="rgb(91,91,91)" stroke-width="0" >
<text transform="matrix(11.4082 0 -0 11.4082 173.176 730.353)" font-family="Arial,&apos;sans-serif&apos;" font-size="1.39636" >Please go to www.autodwg.com to register and eliminate such limits.</text>
<text transform="matrix(11.4082 0 -0 11.4082 173.176 709.818)" font-family="Arial,&apos;sans-serif&apos;" font-size="1.39636" >The note and watermark only exist in the trial version.</text>
<text transform="matrix(11.4082 0 -0 11.4082 173.176 730.353)" font-family="Arial,&apos;sans-serif&apos;" font-size="1.39636" >Please go to www.autodwg.com to register and eliminate such limits.</text>
<text transform="matrix(11.4082 0 -0 11.4082 173.176 709.818)" font-family="Arial,&apos;sans-serif&apos;" font-size="1.39636" >The note and watermark only exist in the trial version.</text>
<text transform="matrix(11.4082 0 -0 11.4082 173.176 730.353)" font-family="Arial,&apos;sans-serif&apos;" font-size="1.39636" >Please go to www.autodwg.com to register and eliminate such limits.</text>
<text transform="matrix(11.4082 0 -0 11.4082 173.176 709.818)" font-family="Arial,&apos;sans-serif&apos;" font-size="1.39636" >The note and watermark only exist in the trial version.</text>
</g>
<g clip-path="url(#clipId0)" fill="rgb(0,0,255)" stroke="rgb(0,0,255)" stroke-width="0" >
<text transform="matrix(14.8509 0 -0 14.8509 210.824 384)" font-family="Arial,&apos;sans-serif&apos;" font-size="1.39636" >AutoDWG DWG to SVG Converter FREE TRIAL</text>
</g>
</svg>

