<?xml version="1.0" encoding="UTF-8"?>
<!-- 2026-02-05 11:20:26 Generated by QCAD 3.32.6 SVG Exporter -->
<svg width="350mm" height="270mm" viewBox="25.8574 -2766.3523 3506.0661 2746.0339" version="1.1" xmlns="http://www.w3.org/2000/svg" style="stroke-linecap:round;stroke-linejoin:round;fill:none">
    <g transform="scale(1,-1)">
        <!-- Block Reference: 6 Seater L Shaped Sofa / entities: 16 -->
        <g>
            <!-- Polyline -->
            <path d="M278.3196,1740.7628 L278.3196,1749.4109 A765.752,765.752 0 0 0 1005.1168,2514.171" style="stroke:#000000;stroke-width:0.5;"/>
            <!-- Polyline -->
            <path d="M25.8574,1750.33 A1018.21,1018.21 0 0 0 973.274,2765.1608" style="stroke:#000000;stroke-width:0.5;"/>
            <!-- Polyline -->
            <path d="M278.3196,1740.7628 A130.535,130.535 0 0 0 25.8574,1750.33" style="stroke:#000000;stroke-width:0.5;"/>
            <!-- Polyline -->
            <path d="M2459.0388,2495.7963 L2618.1217,2495.7963 A106.138,106.138 0 0 1 2718.011,2566.0532 A207.574,207.574 0 0 1 2803.1018,2499.494 L3435.7338,2499.494 A100.976,100.976 0 0 1 3526.5475,2556.3227" style="stroke:#000000;stroke-width:0.5;"/>
            <!-- Polyline -->
            <path d="M2459.0388,1889.9897 L2618.1217,1889.9897 A106.138,106.138 0 0 1 2718.011,1960.2466 A207.574,207.574 0 0 1 2803.1018,1893.6874 L3435.7338,1893.6874 A100.976,100.976 0 0 1 3531.9235,1963.9443 L3531.9235,2677.6067 A89.0778,89.0778 0 0 1 3450.5322,2766.3523 L2806.8014,2766.3523 A85.1661,85.1661 0 0 1 2721.7106,2677.6067 A125.678,125.678 0 0 1 2621.8213,2766.3523 L1996.5885,2766.3523 A97.5431,97.5431 0 0 1 1900.3989,2685.0022 L1900.3989,1975.0375 A85.0479,85.0479 0 0 1 1985.4897,1889.9897 Z" style="stroke:#000000;stroke-width:0.5;"/>
            <!-- Line -->
            <path d="M2721.7106,2677.6067 L2718.011,1960.2466 " style="stroke:#000000;stroke-width:0.5;"/>
            <!-- Polyline -->
            <path d="M1086.6411,1960.2466 A207.574,207.574 0 0 1 1171.7319,1893.6874 L1804.3639,1893.6874 A100.976,100.976 0 0 1 1900.5536,1963.9443 L1900.5536,2677.6067 A89.0778,89.0778 0 0 1 1819.1623,2766.3523 L1175.4315,2766.3523 A85.1661,85.1661 0 0 1 1090.3407,2677.6067" style="stroke:#000000;stroke-width:0.5;"/>
            <!-- Polyline -->
            <path d="M1090.3407,2677.6067 L1086.6411,1960.2466" style="stroke:#000000;stroke-width:0.5;"/>
            <!-- Polyline -->
            <path d="M838.7651,1653.6686 A255.173,255.173 0 0 1 1089.5831,1955.7838" style="stroke:#000000;stroke-width:0.5;"/>
            <!-- Polyline -->
            <path d="M1086.6411,2566.0532 A207.574,207.574 0 0 1 1171.7319,2499.494 L1804.3639,2499.494 A100.976,100.976 0 0 1 1895.1776,2556.3227" style="stroke:#000000;stroke-width:0.5;"/>
            <!-- Polyline -->
            <path d="M972.7457,2765.1752 A128.995,128.995 0 0 0 963.7966,2507.3412" style="stroke:#000000;stroke-width:0.5;"/>
            <!-- Polyline -->
            <path d="M1904.0107,2556.3227 A85.0479,85.0479 0 0 1 1985.4897,2495.7963 L2459.0388,2495.7963" style="stroke:#000000;stroke-width:0.5;"/>
            <!-- Line -->
            <path d="M833.1178,837.9305 L115.7577,841.6301 " style="stroke:#000000;stroke-width:0.5;"/>
            <!-- Polyline -->
            <path d="M903.3747,578.9583 L903.3747,738.0412 A106.138,106.138 0 0 1 833.1178,837.9305 A207.574,207.574 0 0 1 899.677,923.0213 L899.677,1555.6533 A100.976,100.976 0 0 1 829.4201,1651.843 L115.7577,1651.843 A89.0778,89.0778 0 0 1 27.0121,1570.4517 L27.0121,926.7209 A85.1661,85.1661 0 0 1 115.7577,841.6301 A125.678,125.678 0 0 1 27.0121,741.7408 L27.0121,116.508 A97.5431,97.5431 0 0 1 108.3622,20.3184 L818.3269,20.3184 A85.0479,85.0479 0 0 1 903.3747,105.4092 Z" style="stroke:#000000;stroke-width:0.5;"/>
            <!-- Polyline -->
            <path d="M283.2839,578.9583 L283.2839,738.0412 A106.138,106.138 0 0 1 213.027,837.9305 A207.574,207.574 0 0 1 279.5862,923.0213 L279.5862,1555.6533 A100.976,100.976 0 0 1 209.3292,1651.843 L206.7776,1651.843" style="stroke:#000000;stroke-width:0.5;"/>
            <!-- Polyline -->
            <path d="M206.7776,20.7484 A85.0479,85.0479 0 0 1 283.2839,105.4092 L283.2839,578.9583" style="stroke:#000000;stroke-width:0.5;"/>
        </g>
    </g>
</svg>
