<?xml version="1.0" standalone="no"?>
<svg viewBox="-512 -384 1024 768" version="1.1" xmlns="http://www.w3.org/2000/svg" xmlns:xlink="http://www.w3.org/1999/xlink" stroke-linecap="round" stroke-linejoin="round" fill-rule="evenodd" xml:space="preserve" >
<defs >
<clipPath id="clipId0" >
<path d="M0,768 1024,768 1024,0 0,0 z" />
</clipPath>
</defs>
<g clip-path="url(#clipId0)" fill="none" stroke="rgb(0,0,0)" stroke-width="0.1" />
<g clip-path="url(#clipId0)" fill="none" stroke="rgb(0,0,0)" stroke-width="0.25" >
<path d="M841.376,449.603  A248.493,248.493 0 0,0 841.376,318.397 " />
<polyline points="715.715,317.748 715.715,450.252 " />
<circle cx="512" cy="384" r="176.671" />
<polyline points="308.285,317.748 308.285,450.252 " />
<path d="M144.066,314.552  A286.772,286.772 0 0,0 144.066,453.448 " />
<path d="M158.566,319.143  A257.327,257.327 0 0,0 158.566,448.857 " />
<path d="M182.624,318.397  A248.493,248.493 0 0,0 182.624,449.603 " />
<path d="M865.434,448.857  A257.327,257.327 0 0,0 865.434,319.143 " />
<path d="M821.234,585.897  A8.83357,8.83357 0 0,0 807.776,588.055 " />
<polyline points="730.438,464.974 833.615,456.071 " />
<path d="M723.061,693.276  A286.772,286.772 0 0,0 821.276,595.061 " />
<path d="M791.292,570.516  A8.83357,8.83357 0 0,0 790.378,560.454 " />
<path d="M715.715,450.252  A14.7226,14.7226 0 0,0 730.438,464.974 " />
<path d="M723.716,481.201  A14.7226,14.7226 0 0,0 702.895,481.201 " />
<path d="M688.454,662.378  A8.83357,8.83357 0 0,0 698.516,663.292 " />
<path d="M713.897,693.234  A8.83357,8.83357 0 0,0 723.061,693.276 " />
<path d="M716.055,679.776  A8.83357,8.83357 0 0,0 713.897,693.234 " />
<path d="M609.201,574.895  A14.7226,14.7226 0 0,0 609.201,595.716 " />
<polyline points="609.201,595.716 688.454,662.378 " />
<polyline points="609.201,574.895 702.895,481.201 " />
<polyline points="723.716,481.201 790.378,560.454 " />
<path d="M698.516,663.292  A248.493,248.493 0 0,0 791.292,570.516 " />
<path d="M716.055,679.776  A257.327,257.327 0 0,0 807.776,588.055 " />
<polyline points="578.252,587.715 445.748,587.715 " />
<path d="M446.397,713.376  A248.493,248.493 0 0,0 577.603,713.376 " />
<path d="M445.748,587.715  A14.7226,14.7226 0 0,0 431.026,602.438 " />
<path d="M414.799,595.716  A14.7226,14.7226 0 0,0 414.799,574.895 " />
<path d="M439.929,705.615  A8.83357,8.83357 0 0,0 446.397,713.376 " />
<polyline points="431.026,602.438 439.929,705.615 " />
<path d="M592.974,602.438  A14.7226,14.7226 0 0,0 578.252,587.715 " />
<path d="M577.603,713.376  A8.83357,8.83357 0 0,0 584.071,705.615 " />
<polyline points="592.974,602.438 584.071,705.615 " />
<path d="M442.552,751.934  A286.772,286.772 0 0,0 581.448,751.934 " />
<path d="M436.101,745.424  A8.83357,8.83357 0 0,0 442.552,751.934 " />
<path d="M581.448,751.934  A8.83357,8.83357 0 0,0 587.899,745.424 " />
<path d="M447.143,737.434  A257.327,257.327 0 0,0 576.857,737.434 " />
<path d="M447.143,737.434  A8.83357,8.83357 0 0,0 436.101,745.424 " />
<path d="M587.899,745.424  A8.83357,8.83357 0 0,0 576.857,737.434 " />
<path d="M325.484,663.292  A8.83357,8.83357 0 0,0 335.546,662.378 " />
<polyline points="414.799,595.716 335.546,662.378 " />
<path d="M321.105,481.201  A14.7226,14.7226 0 0,0 300.284,481.201 " />
<path d="M293.562,464.974  A14.7226,14.7226 0 0,0 308.285,450.252 " />
<path d="M310.103,693.234  A8.83357,8.83357 0 0,0 307.945,679.776 " />
<path d="M300.939,693.276  A8.83357,8.83357 0 0,0 310.103,693.234 " />
<path d="M182.624,449.603  A8.83357,8.83357 0 0,0 190.385,456.071 " />
<path d="M150.576,459.899  A8.83357,8.83357 0 0,0 158.566,448.857 " />
<path d="M144.066,453.448  A8.83357,8.83357 0 0,0 150.576,459.899 " />
<path d="M233.622,560.454  A8.83357,8.83357 0 0,0 232.708,570.516 " />
<path d="M216.224,588.055  A8.83357,8.83357 0 0,0 202.766,585.897 " />
<path d="M202.766,585.897  A8.83357,8.83357 0 0,0 202.724,595.061 " />
<polyline points="293.562,464.974 190.385,456.071 " />
<path d="M202.724,595.061  A286.772,286.772 0 0,0 300.939,693.276 " />
<path d="M216.224,588.055  A257.327,257.327 0 0,0 307.945,679.776 " />
<polyline points="300.284,481.201 233.622,560.454 " />
<path d="M232.708,570.516  A248.493,248.493 0 0,0 325.484,663.292 " />
<polyline points="414.799,574.895 321.105,481.201 " />
<path d="M833.615,456.071  A8.83357,8.83357 0 0,0 841.376,449.603 " />
<path d="M821.276,595.061  A8.83357,8.83357 0 0,0 821.234,585.897 " />
<path d="M865.434,448.857  A8.83357,8.83357 0 0,0 873.424,459.899 " />
<path d="M807.776,179.945  A8.83357,8.83357 0 0,0 821.234,182.103 " />
<polyline points="730.438,303.026 833.615,311.929 " />
<path d="M821.276,172.939  A286.772,286.772 0 0,0 723.061,74.7238 " />
<path d="M723.061,74.7238  A8.83357,8.83357 0 0,0 713.897,74.766 " />
<path d="M698.516,104.708  A8.83357,8.83357 0 0,0 688.454,105.622 " />
<path d="M713.897,74.766  A8.83357,8.83357 0 0,0 716.055,88.2239 " />
<path d="M790.378,207.546  A8.83357,8.83357 0 0,0 791.292,197.484 " />
<path d="M730.438,303.026  A14.7226,14.7226 0 0,0 715.715,317.748 " />
<path d="M702.895,286.799  A14.7226,14.7226 0 0,0 723.716,286.799 " />
<path d="M609.201,172.284  A14.7226,14.7226 0 0,0 609.201,193.105 " />
<polyline points="609.201,193.105 702.895,286.799 " />
<polyline points="723.716,286.799 790.378,207.546 " />
<polyline points="609.201,172.284 688.454,105.622 " />
<path d="M807.776,179.945  A257.327,257.327 0 0,0 716.055,88.2239 " />
<path d="M791.292,197.484  A248.493,248.493 0 0,0 698.516,104.708 " />
<path d="M581.448,16.0657  A286.772,286.772 0 0,0 442.552,16.0657 " />
<path d="M576.857,30.5662  A257.327,257.327 0 0,0 447.143,30.5662 " />
<path d="M577.603,54.6242  A248.493,248.493 0 0,0 446.397,54.6242 " />
<path d="M436.101,22.5761  A8.83357,8.83357 0 0,0 447.143,30.5662 " />
<path d="M442.552,16.0657  A8.83357,8.83357 0 0,0 436.101,22.5761 " />
<path d="M446.397,54.6242  A8.83357,8.83357 0 0,0 439.929,62.385 " />
<path d="M576.857,30.5662  A8.83357,8.83357 0 0,0 587.899,22.5761 " />
<path d="M587.899,22.5761  A8.83357,8.83357 0 0,0 581.448,16.0657 " />
<path d="M584.071,62.385  A8.83357,8.83357 0 0,0 577.603,54.6242 " />
<polyline points="578.252,180.285 445.748,180.285 " />
<path d="M431.026,165.562  A14.7226,14.7226 0 0,0 445.748,180.285 " />
<path d="M414.799,193.105  A14.7226,14.7226 0 0,0 414.799,172.284 " />
<path d="M578.252,180.285  A14.7226,14.7226 0 0,0 592.974,165.562 " />
<polyline points="431.026,165.562 439.929,62.385 " />
<polyline points="592.974,165.562 584.071,62.385 " />
<path d="M335.546,105.622  A8.83357,8.83357 0 0,0 325.484,104.708 " />
<polyline points="414.799,172.284 335.546,105.622 " />
<path d="M310.103,74.766  A8.83357,8.83357 0 0,0 300.939,74.7238 " />
<path d="M307.945,88.2239  A8.83357,8.83357 0 0,0 310.103,74.766 " />
<path d="M308.285,317.748  A14.7226,14.7226 0 0,0 293.562,303.026 " />
<path d="M300.284,286.799  A14.7226,14.7226 0 0,0 321.105,286.799 " />
<path d="M202.724,172.939  A8.83357,8.83357 0 0,0 202.766,182.103 " />
<path d="M202.766,182.103  A8.83357,8.83357 0 0,0 216.224,179.945 " />
<path d="M232.708,197.484  A8.83357,8.83357 0 0,0 233.622,207.546 " />
<path d="M190.385,311.929  A8.83357,8.83357 0 0,0 182.624,318.397 " />
<path d="M158.566,319.143  A8.83357,8.83357 0 0,0 150.576,308.101 " />
<path d="M150.576,308.101  A8.83357,8.83357 0 0,0 144.066,314.552 " />
<polyline points="300.284,286.799 233.622,207.546 " />
<polyline points="293.562,303.026 190.385,311.929 " />
<path d="M300.939,74.7238  A286.772,286.772 0 0,0 202.724,172.939 " />
<path d="M307.945,88.2239  A257.327,257.327 0 0,0 216.224,179.945 " />
<path d="M325.484,104.708  A248.493,248.493 0 0,0 232.708,197.484 " />
<polyline points="414.799,193.105 321.105,286.799 " />
<path d="M821.234,182.103  A8.83357,8.83357 0 0,0 821.276,172.939 " />
<path d="M841.376,318.397  A8.83357,8.83357 0 0,0 833.615,311.929 " />
<path d="M873.424,308.101  A8.83357,8.83357 0 0,0 865.434,319.143 " />
<path d="M879.934,453.448  A286.772,286.772 0 0,0 879.934,314.552 " />
<path d="M873.424,459.899  A8.83357,8.83357 0 0,0 879.934,453.448 " />
<path d="M879.934,314.552  A8.83357,8.83357 0 0,0 873.424,308.101 " />
</g>
<g clip-path="url(#clipId0)" fill="rgb(91,91,91)" stroke="rgb(91,91,91)" stroke-width="0" >
<text transform="matrix(11.4082 0 -0 11.4082 173.176 730.353)" font-family="Arial,&apos;sans-serif&apos;" font-size="1.39636" >Please go to www.autodwg.com to register and eliminate such limits.</text>
<text transform="matrix(11.4082 0 -0 11.4082 173.176 709.818)" font-family="Arial,&apos;sans-serif&apos;" font-size="1.39636" >The note and watermark only exist in the trial version.</text>
<text transform="matrix(11.4082 0 -0 11.4082 173.176 730.353)" font-family="Arial,&apos;sans-serif&apos;" font-size="1.39636" >Please go to www.autodwg.com to register and eliminate such limits.</text>
<text transform="matrix(11.4082 0 -0 11.4082 173.176 709.818)" font-family="Arial,&apos;sans-serif&apos;" font-size="1.39636" >The note and watermark only exist in the trial version.</text>
<text transform="matrix(11.4082 0 -0 11.4082 173.176 730.353)" font-family="Arial,&apos;sans-serif&apos;" font-size="1.39636" >Please go to www.autodwg.com to register and eliminate such limits.</text>
<text transform="matrix(11.4082 0 -0 11.4082 173.176 709.818)" font-family="Arial,&apos;sans-serif&apos;" font-size="1.39636" >The note and watermark only exist in the trial version.</text>
</g>
<g clip-path="url(#clipId0)" fill="rgb(0,0,255)" stroke="rgb(0,0,255)" stroke-width="0" >
<text transform="matrix(14.8509 0 -0 14.8509 210.824 384)" font-family="Arial,&apos;sans-serif&apos;" font-size="1.39636" >AutoDWG DWG to SVG Converter FREE TRIAL</text>
</g>
</svg>

