<?xml version="1.0" encoding="UTF-8"?>
<!-- 2026-02-05 11:30:33 Generated by QCAD 3.32.6 SVG Exporter -->
<svg width="3168.2341mm" height="1892.5355mm" viewBox="0.6339 -1921.2868 3168.2341 1892.5355" version="1.1" xmlns="http://www.w3.org/2000/svg" style="stroke-linecap:round;stroke-linejoin:round;fill:none">
    <g transform="scale(1,-1)">
        <!-- Block Reference: A$C151D5484 / entities: 187 -->
        <g>
            <!-- Arc -->
            <path d="M700.048,286.2157 A60,60 0 0,1 760.048,346.2157" style="stroke:#000000;stroke-width:0.5;"/>
            <!-- Arc -->
            <path d="M688.6836,1221.8728 A60,60 0 0,1 748.6836,1161.8728" style="stroke:#000000;stroke-width:0.5;"/>
            <!-- Arc -->
            <path d="M760.048,1046.1829 A60,60 0 0,1 700.048,1106.1829" style="stroke:#000000;stroke-width:0.5;"/>
            <!-- Arc -->
            <path d="M770.0973,1921.2868 A60,60 0 0,1 710.0973,1861.2868" style="stroke:#000000;stroke-width:0.5;"/>
            <!-- Arc -->
            <path d="M710.0973,1784.7101 A30,30 0 0,1 732.8212,1755.6059" style="stroke:#000000;stroke-width:0.5;"/>
            <!-- Arc -->
            <path d="M725.9597,1757.3212 A30,30 0 0,1 688.6836,1728.217" style="stroke:#000000;stroke-width:0.5;"/>
            <!-- Line -->
            <path d="M730.048,922.9068 L200.6339,922.9068 " style="stroke:#000000;stroke-width:0.5;"/>
            <!-- Line -->
            <path d="M730.048,467.6294 L200.6339,467.6294 " style="stroke:#000000;stroke-width:0.5;"/>
            <!-- Line -->
            <path d="M688.6836,1221.8728 L688.6836,1728.217 " style="stroke:#000000;stroke-width:0.5;"/>
            <!-- Line -->
            <path d="M262.1731,1589.5965 L357.2327,1716.6671 " style="stroke:#000000;stroke-width:0.5;"/>
            <!-- Line -->
            <path d="M317.3373,1595.5067 L396.6357,1654.1168 " style="stroke:#000000;stroke-width:0.5;"/>
            <!-- Line -->
            <path d="M396.6357,1654.1168 L321.7701,1589.5965 " style="stroke:#000000;stroke-width:0.5;"/>
            <!-- Line -->
            <path d="M321.7701,1589.5965 L340.979,1637.3711 " style="stroke:#000000;stroke-width:0.5;"/>
            <!-- Line -->
            <path d="M255.2776,1589.5965 L203.0687,1630.4758 " style="stroke:#000000;stroke-width:0.5;"/>
            <!-- Line -->
            <path d="M204.5463,1620.6254 L253.8,1586.6413 " style="stroke:#000000;stroke-width:0.5;"/>
            <!-- Line -->
            <path d="M255.2776,1591.0741 L214.397,1736.8605 " style="stroke:#000000;stroke-width:0.5;"/>
            <!-- Line -->
            <path d="M214.397,1736.8605 L255.2776,1589.5965 " style="stroke:#000000;stroke-width:0.5;"/>
            <!-- Line -->
            <path d="M357.2327,1716.6671 L255.2776,1591.0741 " style="stroke:#000000;stroke-width:0.5;"/>
            <!-- Arc -->
            <path d="M55.7762,1624.7746 A38.033,38.033 0 0,1 102.0683,1609.6638" style="stroke:#000000;stroke-width:0.5;"/>
            <!-- Arc -->
            <path d="M457.2899,1626.6634 A34.3226,34.3226 0 0,1 430.8372,1599.2752" style="stroke:#000000;stroke-width:0.5;"/>
            <!-- Line -->
            <path d="M200.6339,922.9068 L200.6339,467.6294 " style="stroke:#000000;stroke-width:0.5;"/>
            <!-- Line -->
            <path d="M208.6579,922.9068 L208.6579,467.6294 " style="stroke:#000000;stroke-width:0.5;"/>
            <!-- Line -->
            <path d="M0.6339,1022.9068 L0.6339,367.6294 " style="stroke:#000000;stroke-width:0.5;"/>
            <!-- Line -->
            <path d="M130.6339,307.6294 L60.6339,307.6294 " style="stroke:#000000;stroke-width:0.5;"/>
            <!-- Arc -->
            <path d="M0.6339,367.6294 A60,60 0 0,1 60.6339,307.6294" style="stroke:#000000;stroke-width:0.5;"/>
            <!-- Line -->
            <path d="M137.2106,307.6294 L130.6339,307.6294 " style="stroke:#000000;stroke-width:0.5;"/>
            <!-- Arc -->
            <path d="M164.5995,323.4918 A30,30 0 0,1 193.7038,286.2157" style="stroke:#000000;stroke-width:0.5;"/>
            <!-- Arc -->
            <path d="M137.2106,307.6294 A30,30 0 0,1 166.3149,330.3533" style="stroke:#000000;stroke-width:0.5;"/>
            <!-- Line -->
            <path d="M164.5995,323.4918 L200.6339,467.6294 " style="stroke:#000000;stroke-width:0.5;"/>
            <!-- Line -->
            <path d="M700.048,286.2157 L193.7038,286.2157 " style="stroke:#000000;stroke-width:0.5;"/>
            <!-- Line -->
            <path d="M137.2106,1082.9068 L60.6339,1082.9068 " style="stroke:#000000;stroke-width:0.5;"/>
            <!-- Arc -->
            <path d="M103.9578,1494.4447 A22.5199,22.5199 0 0,1 77.5051,1487.8337" style="stroke:#000000;stroke-width:0.5;"/>
            <!-- Arc -->
            <path d="M90.7315,1563.3873 A29.6109,29.6109 0 0,1 64.2788,1538.8324" style="stroke:#000000;stroke-width:0.5;"/>
            <!-- Arc -->
            <path d="M107.7368,1527.4994 A51.8018,51.8018 0 0,1 62.3893,1518.0552" style="stroke:#000000;stroke-width:0.5;"/>
            <!-- Arc -->
            <path d="M60.6339,1082.9068 A60,60 0 0,1 0.6339,1022.9068" style="stroke:#000000;stroke-width:0.5;"/>
            <!-- Arc -->
            <path d="M54.8314,1591.7199 A21.8915,21.8915 0 0,1 81.2841,1586.0534" style="stroke:#000000;stroke-width:0.5;"/>
            <!-- Arc -->
            <path d="M467.682,1572.8315 A22.0237,22.0237 0 0,1 441.2293,1580.3869" style="stroke:#000000;stroke-width:0.5;"/>
            <!-- Arc -->
            <path d="M166.3149,1060.1828 A30,30 0 0,1 137.2106,1082.9068" style="stroke:#000000;stroke-width:0.5;"/>
            <!-- Arc -->
            <path d="M193.2382,1106.1829 A30,30 0 0,1 164.1339,1068.9068" style="stroke:#000000;stroke-width:0.5;"/>
            <!-- Line -->
            <path d="M164.1339,1068.9068 L200.6339,922.9068 " style="stroke:#000000;stroke-width:0.5;"/>
            <!-- Arc -->
            <path d="M279.6791,1414.169 A27.6871,27.6871 0 0,1 304.2423,1386.7809" style="stroke:#000000;stroke-width:0.5;"/>
            <!-- Arc -->
            <path d="M325.9713,1383.9476 A38.5866,38.5866 0 0,1 315.5792,1430.2242" style="stroke:#000000;stroke-width:0.5;"/>
            <!-- Arc -->
            <path d="M217.3264,1380.1699 A34.1756,34.1756 0 0,1 233.3869,1419.8355" style="stroke:#000000;stroke-width:0.5;"/>
            <!-- Arc -->
            <path d="M190.8737,1427.3909 A31.6291,31.6291 0 0,1 201.2659,1392.4474" style="stroke:#000000;stroke-width:0.5;"/>
            <!-- Arc -->
            <path d="M250.3922,1375.4478 A18.753,18.753 0 0,1 258.8949,1399.0583" style="stroke:#000000;stroke-width:0.5;"/>
            <!-- Line -->
            <path d="M317.8298,1514.206 L360.6805,1501.4004 " style="stroke:#000000;stroke-width:0.5;"/>
            <!-- Arc -->
            <path d="M380.7661,1518.0552 A24.0793,24.0793 0 0,1 411.9425,1501.0556" style="stroke:#000000;stroke-width:0.5;"/>
            <!-- Arc -->
            <path d="M385.4898,1478.3896 A49.4768,49.4768 0 0,1 417.6109,1440.6128" style="stroke:#000000;stroke-width:0.5;"/>
            <!-- Arc -->
            <path d="M361.8713,1445.3349 A26.9009,26.9009 0 0,1 396.8266,1435.8907" style="stroke:#000000;stroke-width:0.5;"/>
            <!-- Arc -->
            <path d="M357.1476,1398.1139 A18.7352,18.7352 0 0,1 348.645,1424.5576" style="stroke:#000000;stroke-width:0.5;"/>
            <!-- Arc -->
            <path d="M348.645,1435.8907 A27.8627,27.8627 0 0,1 329.7502,1464.2232" style="stroke:#000000;stroke-width:0.5;"/>
            <!-- Arc -->
            <path d="M191.8185,1463.2788 A27.0605,27.0605 0 0,1 178.5921,1433.0574" style="stroke:#000000;stroke-width:0.5;"/>
            <!-- Line -->
            <path d="M268.5761,1505.3406 L221.7851,1456.0884 " style="stroke:#000000;stroke-width:0.5;"/>
            <!-- Arc -->
            <path d="M261.7291,1445.3349 A27.3098,27.3098 0 0,1 264.5633,1413.2246" style="stroke:#000000;stroke-width:0.5;"/>
            <!-- Arc -->
            <path d="M122.8526,1482.1672 A33.8515,33.8515 0 0,1 111.5157,1446.2793" style="stroke:#000000;stroke-width:0.5;"/>
            <!-- Arc -->
            <path d="M115.2947,1494.4447 A24.6086,24.6086 0 0,1 141.7473,1512.3886" style="stroke:#000000;stroke-width:0.5;"/>
            <!-- Arc -->
            <path d="M121.9078,1425.502 A40.6508,40.6508 0 0,1 156.8632,1456.6679" style="stroke:#000000;stroke-width:0.5;"/>
            <!-- Arc -->
            <path d="M150.25,1409.4469 A17.7349,17.7349 0 0,1 168.2,1426.4465" style="stroke:#000000;stroke-width:0.5;"/>
            <!-- Line -->
            <path d="M272.5164,1580.7311 L343.9343,1553.1499 " style="stroke:#000000;stroke-width:0.5;"/>
            <!-- Line -->
            <path d="M260.6955,1573.3433 L177.9493,1542.8069 " style="stroke:#000000;stroke-width:0.5;"/>
            <!-- Line -->
            <path d="M187.8,1550.1948 L262.1731,1568.9106 " style="stroke:#000000;stroke-width:0.5;"/>
            <!-- Line -->
            <path d="M409.9342,1601.417 L262.1731,1589.5965 " style="stroke:#000000;stroke-width:0.5;"/>
            <!-- Line -->
            <path d="M272.5164,1585.1638 L404.0238,1598.4619 " style="stroke:#000000;stroke-width:0.5;"/>
            <!-- Line -->
            <path d="M404.0238,1598.4619 L317.3373,1595.5067 " style="stroke:#000000;stroke-width:0.5;"/>
            <!-- Line -->
            <path d="M253.8,1586.6413 L212.9194,1611.2674 " style="stroke:#000000;stroke-width:0.5;"/>
            <!-- Arc -->
            <path d="M396.8266,1585.109 A27.8797,27.8797 0 0,1 430.8372,1586.9978" style="stroke:#000000;stroke-width:0.5;"/>
            <!-- Line -->
            <path d="M343.9343,1553.1499 L272.5164,1585.1638 " style="stroke:#000000;stroke-width:0.5;"/>
            <!-- Line -->
            <path d="M212.9194,1611.2674 L253.8,1574.8208 " style="stroke:#000000;stroke-width:0.5;"/>
            <!-- Arc -->
            <path d="M91.6762,1578.498 A26.3736,26.3736 0 0,1 122.8526,1581.3313" style="stroke:#000000;stroke-width:0.5;"/>
            <!-- Line -->
            <path d="M253.8,1574.8208 L123.7702,1526.5537 " style="stroke:#000000;stroke-width:0.5;"/>
            <!-- Line -->
            <path d="M123.7702,1526.5537 L260.6955,1573.3433 " style="stroke:#000000;stroke-width:0.5;"/>
            <!-- Line -->
            <path d="M262.1731,1568.9106 L273.994,1445.2876 " style="stroke:#000000;stroke-width:0.5;"/>
            <!-- Line -->
            <path d="M347.8746,1462.5259 L272.5164,1580.7311 " style="stroke:#000000;stroke-width:0.5;"/>
            <!-- Line -->
            <path d="M273.994,1445.2876 L265.1283,1582.2087 " style="stroke:#000000;stroke-width:0.5;"/>
            <!-- Line -->
            <path d="M265.1283,1582.2087 L347.8746,1462.5259 " style="stroke:#000000;stroke-width:0.5;"/>
            <!-- Line -->
            <path d="M177.9493,1542.8069 L145.4418,1477.3015 " style="stroke:#000000;stroke-width:0.5;"/>
            <!-- Line -->
            <path d="M145.4418,1477.3015 L187.8,1550.1948 " style="stroke:#000000;stroke-width:0.5;"/>
            <!-- Line -->
            <path d="M700.048,1106.1829 L193.2382,1106.1829 " style="stroke:#000000;stroke-width:0.5;"/>
            <!-- Arc -->
            <path d="M434.6162,1470.8342 A28.223,28.223 0 0,1 412.8872,1491.6114" style="stroke:#000000;stroke-width:0.5;"/>
            <!-- Arc -->
            <path d="M454.4557,1518.9996 A48.0269,48.0269 0 0,1 414.7767,1513.3331" style="stroke:#000000;stroke-width:0.5;"/>
            <!-- Arc -->
            <path d="M419.5004,1552.9987 A47.7855,47.7855 0 0,1 465.7925,1539.7768" style="stroke:#000000;stroke-width:0.5;"/>
            <!-- Arc -->
            <path d="M104.9026,1652.1627 A31.8676,31.8676 0 0,1 69.0025,1642.7185" style="stroke:#000000;stroke-width:0.5;"/>
            <!-- Arc -->
            <path d="M85.0631,1694.6616 A17.2397,17.2397 0 0,1 105.8473,1673.8844" style="stroke:#000000;stroke-width:0.5;"/>
            <!-- Line -->
            <path d="M313.397,1661.47 L315.8596,1701.8568 " style="stroke:#000000;stroke-width:0.5;"/>
            <!-- Arc -->
            <path d="M396.8266,1684.273 A24.4483,24.4483 0 0,1 408.1635,1717.3277" style="stroke:#000000;stroke-width:0.5;"/>
            <!-- Arc -->
            <path d="M405.3293,1671.9955 A23.3978,23.3978 0 0,1 377.9319,1654.0516" style="stroke:#000000;stroke-width:0.5;"/>
            <!-- Arc -->
            <path d="M398.7161,1736.2161 A34.3522,34.3522 0 0,1 366.595,1705.9946" style="stroke:#000000;stroke-width:0.5;"/>
            <!-- Arc -->
            <path d="M342.9766,1733.3828 A26.5204,26.5204 0 0,1 326.916,1705.0502" style="stroke:#000000;stroke-width:0.5;"/>
            <!-- Arc -->
            <path d="M288.1817,1743.7714 A33.5864,33.5864 0 0,1 302.3528,1784.3815" style="stroke:#000000;stroke-width:0.5;"/>
            <!-- Arc -->
            <path d="M352.424,1739.9937 A15.4865,15.4865 0 0,1 372.2635,1756.0489" style="stroke:#000000;stroke-width:0.5;"/>
            <!-- Arc -->
            <path d="M322.1923,1775.8817 A35.5822,35.5822 0 0,1 330.695,1738.1049" style="stroke:#000000;stroke-width:0.5;"/>
            <!-- Arc -->
            <path d="M243.7791,1750.3823 A38.7836,38.7836 0 0,1 215.4369,1780.6038" style="stroke:#000000;stroke-width:0.5;"/>
            <!-- Arc -->
            <path d="M188.9842,1704.1058 A26.249,26.249 0 0,1 172.9237,1729.6051" style="stroke:#000000;stroke-width:0.5;"/>
            <!-- Arc -->
            <path d="M203.1553,1736.2161 A30.5753,30.5753 0 0,1 192.7632,1780.6038" style="stroke:#000000;stroke-width:0.5;"/>
            <!-- Line -->
            <path d="M203.0687,1630.4758 L170.5612,1707.8017 " style="stroke:#000000;stroke-width:0.5;"/>
            <!-- Line -->
            <path d="M170.5612,1707.8017 L200.1134,1627.5206 " style="stroke:#000000;stroke-width:0.5;"/>
            <!-- Line -->
            <path d="M238.5313,1646.2018 L262.1731,1701.8568 " style="stroke:#000000;stroke-width:0.5;"/>
            <!-- Arc -->
            <path d="M270.2317,1789.1035 A26.4608,26.4608 0 0,1 263.6186,1761.7154" style="stroke:#000000;stroke-width:0.5;"/>
            <!-- Arc -->
            <path d="M258.8949,1721.1054 A29.3675,29.3675 0 0,1 256.0607,1754.16" style="stroke:#000000;stroke-width:0.5;"/>
            <!-- Arc -->
            <path d="M142.6921,1650.2739 A33.5696,33.5696 0 0,1 110.571,1665.3846" style="stroke:#000000;stroke-width:0.5;"/>
            <!-- Arc -->
            <path d="M135.1342,1687.1063 A37.3118,37.3118 0 0,1 103.0131,1722.9942" style="stroke:#000000;stroke-width:0.5;"/>
            <!-- Arc -->
            <path d="M159.6973,1718.2721 A27.2947,27.2947 0 0,1 123.7973,1732.4384" style="stroke:#000000;stroke-width:0.5;"/>
            <!-- Arc -->
            <path d="M164.4211,1767.3819 A24.5082,24.5082 0 0,1 171.979,1740.9382" style="stroke:#000000;stroke-width:0.5;"/>
            <!-- Line -->
            <path d="M200.1134,1627.5206 L126.7254,1643.2814 " style="stroke:#000000;stroke-width:0.5;"/>
            <!-- Line -->
            <path d="M126.7254,1643.2814 L204.5463,1620.6254 " style="stroke:#000000;stroke-width:0.5;"/>
            <!-- Arc -->
            <path d="M445.0083,1677.6621 A18.9433,18.9433 0 0,1 417.6109,1670.1067" style="stroke:#000000;stroke-width:0.5;"/>
            <!-- Arc -->
            <path d="M412.8872,1638.9408 A35.0622,35.0622 0 0,1 458.2346,1647.4406" style="stroke:#000000;stroke-width:0.5;"/>
            <!-- Line -->
            <path d="M2552.1267,1221.8728 L2552.1267,1728.6826 " style="stroke:#000000;stroke-width:0.5;"/>
            <!-- Line -->
            <path d="M2368.8506,1191.8728 L2368.8506,1721.2868 " style="stroke:#000000;stroke-width:0.5;"/>
            <!-- Line -->
            <path d="M1870.1193,1137.391 L1870.1193,1921.2868 " style="stroke:#000000;stroke-width:0.5;"/>
            <!-- Line -->
            <path d="M1370.0973,1137.391 L1370.0973,1921.2868 " style="stroke:#000000;stroke-width:0.5;"/>
            <!-- Line -->
            <path d="M1369.5915,1906.2868 L1369.5915,1152.391 " style="stroke:#000000;stroke-width:0.5;"/>
            <!-- Line -->
            <path d="M870.0973,1191.8728 L870.0973,1721.2868 " style="stroke:#000000;stroke-width:0.5;"/>
            <!-- Arc -->
            <path d="M1932.876,28.7514 A50,50 0 0,1 1982.876,78.7514" style="stroke:#000000;stroke-width:0.5;"/>
            <!-- Arc -->
            <path d="M1982.876,878.7514 A50,50 0 0,1 1932.876,928.7514" style="stroke:#000000;stroke-width:0.5;"/>
            <!-- Line -->
            <path d="M2416.2314,1137.391 L1384.5915,1137.391 " style="stroke:#000000;stroke-width:0.5;"/>
            <!-- Line -->
            <path d="M1182.876,128.7514 L1182.876,828.7514 " style="stroke:#000000;stroke-width:0.5;"/>
            <!-- Line -->
            <path d="M1082.876,78.7514 L1082.876,878.7514 " style="stroke:#000000;stroke-width:0.5;"/>
            <!-- Line -->
            <path d="M784.5298,970.2877 L784.5298,422.111 " style="stroke:#000000;stroke-width:0.5;"/>
            <!-- Line -->
            <path d="M1882.876,128.7514 L1882.876,828.7514 " style="stroke:#000000;stroke-width:0.5;"/>
            <!-- Line -->
            <path d="M1882.876,724.0023 L1191.2434,318.0884 " style="stroke:#000000;stroke-width:0.5;"/>
            <!-- Line -->
            <path d="M1882.876,128.7514 L1182.876,128.7514 " style="stroke:#000000;stroke-width:0.5;"/>
            <!-- Line -->
            <path d="M1932.876,28.7514 L1132.876,28.7514 " style="stroke:#000000;stroke-width:0.5;"/>
            <!-- Line -->
            <path d="M1882.876,676.0229 L1183.7867,265.7327 " style="stroke:#000000;stroke-width:0.5;"/>
            <!-- Arc -->
            <path d="M1082.876,78.7514 A50,50 0 0,1 1132.876,28.7514" style="stroke:#000000;stroke-width:0.5;"/>
            <!-- Arc -->
            <path d="M754.5298,392.111 A30,30 0 0,1 784.5298,422.111" style="stroke:#000000;stroke-width:0.5;"/>
            <!-- Line -->
            <path d="M760.048,346.2157 L760.048,437.6294 " style="stroke:#000000;stroke-width:0.5;"/>
            <!-- Arc -->
            <path d="M760.048,437.6294 A30,30 0 0,1 730.048,467.6294" style="stroke:#000000;stroke-width:0.5;"/>
            <!-- Line -->
            <path d="M1370.0973,1137.391 L824.5788,1137.391 " style="stroke:#000000;stroke-width:0.5;"/>
            <!-- Line -->
            <path d="M1932.876,928.7514 L1132.876,928.7514 " style="stroke:#000000;stroke-width:0.5;"/>
            <!-- Line -->
            <path d="M1882.876,828.7514 L1182.876,828.7514 " style="stroke:#000000;stroke-width:0.5;"/>
            <!-- Arc -->
            <path d="M1132.876,928.7514 A50,50 0 0,1 1082.876,878.7514" style="stroke:#000000;stroke-width:0.5;"/>
            <!-- Arc -->
            <path d="M730.048,922.9068 A30,30 0 0,1 760.048,952.9068" style="stroke:#000000;stroke-width:0.5;"/>
            <!-- Line -->
            <path d="M760.048,1046.1829 L760.048,952.9068 " style="stroke:#000000;stroke-width:0.5;"/>
            <!-- Arc -->
            <path d="M784.5298,970.2877 A30,30 0 0,1 754.5298,1000.2877" style="stroke:#000000;stroke-width:0.5;"/>
            <!-- Arc -->
            <path d="M794.5788,1167.391 A30,30 0 0,1 824.5788,1137.391" style="stroke:#000000;stroke-width:0.5;"/>
            <!-- Line -->
            <path d="M748.6836,1161.8728 L840.0973,1161.8728 " style="stroke:#000000;stroke-width:0.5;"/>
            <!-- Arc -->
            <path d="M840.0973,1161.8728 A30,30 0 0,1 870.0973,1191.8728" style="stroke:#000000;stroke-width:0.5;"/>
            <!-- Line -->
            <path d="M3168.868,937.8059 L3168.868,282.5285 " style="stroke:#000000;stroke-width:0.5;"/>
            <!-- Line -->
            <path d="M2960.844,837.8059 L2960.844,382.5285 " style="stroke:#000000;stroke-width:0.5;"/>
            <!-- Line -->
            <path d="M2968.868,837.8059 L2968.868,382.5285 " style="stroke:#000000;stroke-width:0.5;"/>
            <!-- Line -->
            <path d="M1982.876,78.7514 L1982.876,878.7514 " style="stroke:#000000;stroke-width:0.5;"/>
            <!-- Line -->
            <path d="M2384.9721,885.1868 L2384.9721,337.0101 " style="stroke:#000000;stroke-width:0.5;"/>
            <!-- Line -->
            <path d="M2439.454,382.5285 L2968.868,382.5285 " style="stroke:#000000;stroke-width:0.5;"/>
            <!-- Line -->
            <path d="M2469.454,201.1148 L2975.7981,201.1148 " style="stroke:#000000;stroke-width:0.5;"/>
            <!-- Line -->
            <path d="M2409.454,261.1148 L2409.454,352.5285 " style="stroke:#000000;stroke-width:0.5;"/>
            <!-- Arc -->
            <path d="M2384.9721,337.0101 A30,30 0 0,1 2414.9721,307.0101" style="stroke:#000000;stroke-width:0.5;"/>
            <!-- Arc -->
            <path d="M2409.454,261.1148 A60,60 0 0,1 2469.454,201.1148" style="stroke:#000000;stroke-width:0.5;"/>
            <!-- Arc -->
            <path d="M2439.454,382.5285 A30,30 0 0,1 2409.454,352.5285" style="stroke:#000000;stroke-width:0.5;"/>
            <!-- Line -->
            <path d="M3032.2913,222.5285 L3038.868,222.5285 " style="stroke:#000000;stroke-width:0.5;"/>
            <!-- Line -->
            <path d="M3038.868,222.5285 L3108.868,222.5285 " style="stroke:#000000;stroke-width:0.5;"/>
            <!-- Arc -->
            <path d="M3108.868,222.5285 A60,60 0 0,1 3168.868,282.5285" style="stroke:#000000;stroke-width:0.5;"/>
            <!-- Line -->
            <path d="M3004.9024,238.3909 L2968.868,382.5285 " style="stroke:#000000;stroke-width:0.5;"/>
            <!-- Arc -->
            <path d="M2975.7981,201.1148 A30,30 0 0,1 3004.9024,238.3909" style="stroke:#000000;stroke-width:0.5;"/>
            <!-- Arc -->
            <path d="M3003.187,245.2525 A30,30 0 0,1 3032.2913,222.5285" style="stroke:#000000;stroke-width:0.5;"/>
            <!-- Line -->
            <path d="M2439.454,837.8059 L2968.868,837.8059 " style="stroke:#000000;stroke-width:0.5;"/>
            <!-- Line -->
            <path d="M2469.454,1021.082 L2976.2638,1021.082 " style="stroke:#000000;stroke-width:0.5;"/>
            <!-- Arc -->
            <path d="M2492.1267,1161.8728 A60,60 0 0,1 2552.1267,1221.8728" style="stroke:#000000;stroke-width:0.5;"/>
            <!-- Line -->
            <path d="M2409.454,961.082 L2409.454,867.8059 " style="stroke:#000000;stroke-width:0.5;"/>
            <!-- Arc -->
            <path d="M2414.9721,915.1868 A30,30 0 0,1 2384.9721,885.1868" style="stroke:#000000;stroke-width:0.5;"/>
            <!-- Arc -->
            <path d="M2368.8506,1191.8728 A30,30 0 0,1 2398.8506,1161.8728" style="stroke:#000000;stroke-width:0.5;"/>
            <!-- Arc -->
            <path d="M2469.454,1021.082 A60,60 0 0,1 2409.454,961.082" style="stroke:#000000;stroke-width:0.5;"/>
            <!-- Line -->
            <path d="M2492.1267,1161.8728 L2398.8506,1161.8728 " style="stroke:#000000;stroke-width:0.5;"/>
            <!-- Arc -->
            <path d="M2416.2314,1137.391 A30,30 0 0,1 2446.2314,1167.391" style="stroke:#000000;stroke-width:0.5;"/>
            <!-- Arc -->
            <path d="M2409.454,867.8059 A30,30 0 0,1 2439.454,837.8059" style="stroke:#000000;stroke-width:0.5;"/>
            <!-- Line -->
            <path d="M3005.368,983.806 L2968.868,837.8059 " style="stroke:#000000;stroke-width:0.5;"/>
            <!-- Arc -->
            <path d="M3168.868,937.8059 A60,60 0 0,1 3108.868,997.8059" style="stroke:#000000;stroke-width:0.5;"/>
            <!-- Line -->
            <path d="M3032.2913,997.8059 L3108.868,997.8059 " style="stroke:#000000;stroke-width:0.5;"/>
            <!-- Arc -->
            <path d="M3005.368,983.806 A30,30 0 0,1 2976.2638,1021.082" style="stroke:#000000;stroke-width:0.5;"/>
            <!-- Arc -->
            <path d="M3032.2913,997.8059 A30,30 0 0,1 3003.187,975.082" style="stroke:#000000;stroke-width:0.5;"/>
            <!-- Line -->
            <path d="M2368.8506,1713.2628 L1384.5915,1713.2628 " style="stroke:#000000;stroke-width:0.5;"/>
            <!-- Line -->
            <path d="M2368.8506,1721.2868 L1384.5915,1721.2868 " style="stroke:#000000;stroke-width:0.5;"/>
            <!-- Line -->
            <path d="M2468.8506,1921.2868 L1384.5915,1921.2868 " style="stroke:#000000;stroke-width:0.5;"/>
            <!-- Line -->
            <path d="M1370.0973,1921.2868 L770.0973,1921.2868 " style="stroke:#000000;stroke-width:0.5;"/>
            <!-- Line -->
            <path d="M1370.0973,1721.2868 L870.0973,1721.2868 " style="stroke:#000000;stroke-width:0.5;"/>
            <!-- Line -->
            <path d="M1370.0973,1713.2628 L870.0973,1713.2628 " style="stroke:#000000;stroke-width:0.5;"/>
            <!-- Line -->
            <path d="M710.0973,1791.2868 L710.0973,1861.2868 " style="stroke:#000000;stroke-width:0.5;"/>
            <!-- Line -->
            <path d="M725.9597,1757.3212 L870.0973,1721.2868 " style="stroke:#000000;stroke-width:0.5;"/>
            <!-- Line -->
            <path d="M710.0973,1784.7101 L710.0973,1791.2868 " style="stroke:#000000;stroke-width:0.5;"/>
            <!-- Arc -->
            <path d="M1384.5915,1921.2868 A15,15 0 0,1 1369.5915,1906.2868" style="stroke:#000000;stroke-width:0.5;"/>
            <!-- Arc -->
            <path d="M1384.5915,1713.2628 A15,15 0 0,1 1369.5915,1698.2628" style="stroke:#000000;stroke-width:0.5;"/>
            <!-- Arc -->
            <path d="M1384.5915,1721.2868 A15,15 0 0,1 1369.5915,1706.2868" style="stroke:#000000;stroke-width:0.5;"/>
            <!-- Arc -->
            <path d="M2528.8506,1861.2868 A60,60 0 0,1 2468.8506,1921.2868" style="stroke:#000000;stroke-width:0.5;"/>
            <!-- Arc -->
            <path d="M2552.1267,1728.6826 A30,30 0 0,1 2514.8506,1757.7869" style="stroke:#000000;stroke-width:0.5;"/>
            <!-- Arc -->
            <path d="M2506.1266,1755.6059 A30,30 0 0,1 2528.8506,1784.7101" style="stroke:#000000;stroke-width:0.5;"/>
            <!-- Line -->
            <path d="M2528.8506,1784.7101 L2528.8506,1861.2868 " style="stroke:#000000;stroke-width:0.5;"/>
            <!-- Line -->
            <path d="M2514.8506,1757.7869 L2368.8506,1721.2868 " style="stroke:#000000;stroke-width:0.5;"/>
        </g>
    </g>
</svg>
