<?xml version="1.0" encoding="UTF-8"?>
<!-- 2026-02-05 11:26:07 Generated by QCAD 3.32.6 SVG Exporter -->
<svg width="3911.8375mm" height="2411.3577mm" viewBox="-7.8178 -2423.2612 3911.8375 2411.3577" version="1.1" xmlns="http://www.w3.org/2000/svg" style="stroke-linecap:round;stroke-linejoin:round;fill:none">
    <g transform="scale(1,-1)">
        <!-- Block Reference: A$C3C3A1909 / entities: 89 -->
        <g>
            <!-- Polyline -->
            <path d="M1333.4204,1211.9035 L2533.4204,1211.9035 L2533.4204,11.9034 L1333.4204,11.9034 Z" style="stroke:#000000;stroke-width:0.5;"/>
            <!-- Arc -->
            <path d="M1062.8569,2223.2612 A20,20 0 0,1 1042.8569,2203.2612" style="stroke:#000000;stroke-width:0.5;"/>
            <!-- Arc -->
            <path d="M2842.8569,2203.2612 A20,20 0 0,1 2822.8569,2223.2612" style="stroke:#000000;stroke-width:0.5;"/>
            <!-- Arc -->
            <path d="M3022.8569,1623.2612 A20,20 0 0,1 3042.8569,1643.2612" style="stroke:#000000;stroke-width:0.5;"/>
            <!-- Arc -->
            <path d="M3042.8569,2403.2612 A20,20 0 0,1 3022.8569,2423.2612" style="stroke:#000000;stroke-width:0.5;"/>
            <!-- Arc -->
            <path d="M862.8569,2423.2612 A20,20 0 0,1 842.8569,2403.2612" style="stroke:#000000;stroke-width:0.5;"/>
            <!-- Arc -->
            <path d="M842.8569,1643.2612 A20,20 0 0,1 862.8569,1623.2612" style="stroke:#000000;stroke-width:0.5;"/>
            <!-- Arc -->
            <path d="M1082.8569,2203.2612 A20,20 0 0,1 1062.8569,2183.2612" style="stroke:#000000;stroke-width:0.5;"/>
            <!-- Arc -->
            <path d="M1622.8569,2183.2612 A20,20 0 0,1 1602.8569,2203.2612" style="stroke:#000000;stroke-width:0.5;"/>
            <!-- Arc -->
            <path d="M1602.8569,1643.2612 A20,20 0 0,1 1622.8569,1663.2612" style="stroke:#000000;stroke-width:0.5;"/>
            <!-- Arc -->
            <path d="M1062.8569,1663.2612 A20,20 0 0,1 1082.8569,1643.2612" style="stroke:#000000;stroke-width:0.5;"/>
            <!-- Line -->
            <path d="M1602.8569,2203.2612 L1082.8569,2203.2612 " style="stroke:#000000;stroke-width:0.5;"/>
            <!-- Line -->
            <path d="M1622.8569,2183.2612 L1622.8569,1663.2612 " style="stroke:#000000;stroke-width:0.5;"/>
            <!-- Line -->
            <path d="M1062.8569,2183.2612 L1062.8569,1663.2612 " style="stroke:#000000;stroke-width:0.5;"/>
            <!-- Line -->
            <path d="M1602.8569,1643.2612 L1082.8569,1643.2612 " style="stroke:#000000;stroke-width:0.5;"/>
            <!-- Line -->
            <path d="M2202.8569,1643.2612 L1682.8569,1643.2612 " style="stroke:#000000;stroke-width:0.5;"/>
            <!-- Line -->
            <path d="M1662.8569,2183.2612 L1662.8569,1663.2612 " style="stroke:#000000;stroke-width:0.5;"/>
            <!-- Line -->
            <path d="M2222.8569,2183.2612 L2222.8569,1663.2612 " style="stroke:#000000;stroke-width:0.5;"/>
            <!-- Line -->
            <path d="M2202.8569,2203.2612 L1682.8569,2203.2612 " style="stroke:#000000;stroke-width:0.5;"/>
            <!-- Arc -->
            <path d="M1662.8569,1663.2612 A20,20 0 0,1 1682.8569,1643.2612" style="stroke:#000000;stroke-width:0.5;"/>
            <!-- Arc -->
            <path d="M2202.8569,1643.2612 A20,20 0 0,1 2222.8569,1663.2612" style="stroke:#000000;stroke-width:0.5;"/>
            <!-- Arc -->
            <path d="M2222.8569,2183.2612 A20,20 0 0,1 2202.8569,2203.2612" style="stroke:#000000;stroke-width:0.5;"/>
            <!-- Arc -->
            <path d="M1682.8569,2203.2612 A20,20 0 0,1 1662.8569,2183.2612" style="stroke:#000000;stroke-width:0.5;"/>
            <!-- Arc -->
            <path d="M2282.8569,2203.2612 A20,20 0 0,1 2262.8569,2183.2612" style="stroke:#000000;stroke-width:0.5;"/>
            <!-- Arc -->
            <path d="M2822.8569,2183.2612 A20,20 0 0,1 2802.8569,2203.2612" style="stroke:#000000;stroke-width:0.5;"/>
            <!-- Arc -->
            <path d="M2802.8569,1643.2612 A20,20 0 0,1 2822.8569,1663.2612" style="stroke:#000000;stroke-width:0.5;"/>
            <!-- Arc -->
            <path d="M2262.8569,1663.2612 A20,20 0 0,1 2282.8569,1643.2612" style="stroke:#000000;stroke-width:0.5;"/>
            <!-- Line -->
            <path d="M2802.8569,2203.2612 L2282.8569,2203.2612 " style="stroke:#000000;stroke-width:0.5;"/>
            <!-- Line -->
            <path d="M2822.8569,2183.2612 L2822.8569,1663.2612 " style="stroke:#000000;stroke-width:0.5;"/>
            <!-- Line -->
            <path d="M2262.8569,2183.2612 L2262.8569,1663.2612 " style="stroke:#000000;stroke-width:0.5;"/>
            <!-- Line -->
            <path d="M2802.8569,1643.2612 L2282.8569,1643.2612 " style="stroke:#000000;stroke-width:0.5;"/>
            <!-- Line -->
            <path d="M2242.8569,2223.2612 L2242.8569,1623.2612 " style="stroke:#000000;stroke-width:0.5;"/>
            <!-- Line -->
            <path d="M1642.8569,2223.2612 L1642.8569,1623.2612 " style="stroke:#000000;stroke-width:0.5;"/>
            <!-- Line -->
            <path d="M2822.8569,2223.2612 L1062.8569,2223.2612 " style="stroke:#000000;stroke-width:0.5;"/>
            <!-- Line -->
            <path d="M1042.8569,2203.2612 L1042.8569,1623.2612 " style="stroke:#000000;stroke-width:0.5;"/>
            <!-- Line -->
            <path d="M2842.8569,2203.2612 L2842.8569,1623.2612 " style="stroke:#000000;stroke-width:0.5;"/>
            <!-- Line -->
            <path d="M3042.8569,2403.2612 L3042.8569,1643.2612 " style="stroke:#000000;stroke-width:0.5;"/>
            <!-- Line -->
            <path d="M3022.8569,1623.2612 L862.8569,1623.2612 " style="stroke:#000000;stroke-width:0.5;"/>
            <!-- Line -->
            <path d="M842.8569,2403.2612 L842.8569,1643.2612 " style="stroke:#000000;stroke-width:0.5;"/>
            <!-- Line -->
            <path d="M3022.8569,2423.2612 L862.8569,2423.2612 " style="stroke:#000000;stroke-width:0.5;"/>
            <!-- Line -->
            <path d="M3904.0197,31.9035 L3904.0197,1591.9035 " style="stroke:#000000;stroke-width:0.5;"/>
            <!-- Line -->
            <path d="M3884.0197,1611.9035 L3124.0197,1611.9035 " style="stroke:#000000;stroke-width:0.5;"/>
            <!-- Line -->
            <path d="M3104.0197,31.9035 L3104.0197,1591.9035 " style="stroke:#000000;stroke-width:0.5;"/>
            <!-- Line -->
            <path d="M3884.0197,11.9034 L3124.0197,11.9034 " style="stroke:#000000;stroke-width:0.5;"/>
            <!-- Line -->
            <path d="M3684.0197,211.9035 L3104.0197,211.9035 " style="stroke:#000000;stroke-width:0.5;"/>
            <!-- Line -->
            <path d="M3704.0197,231.9035 L3704.0197,1411.9035 " style="stroke:#000000;stroke-width:0.5;"/>
            <!-- Line -->
            <path d="M3704.0197,1411.9035 L3104.0197,1411.9035 " style="stroke:#000000;stroke-width:0.5;"/>
            <!-- Line -->
            <path d="M3704.0197,811.9035 L3104.0197,811.9035 " style="stroke:#000000;stroke-width:0.5;"/>
            <!-- Line -->
            <path d="M3124.0197,251.9035 L3124.0197,771.9035 " style="stroke:#000000;stroke-width:0.5;"/>
            <!-- Line -->
            <path d="M3664.0197,791.9035 L3144.0197,791.9035 " style="stroke:#000000;stroke-width:0.5;"/>
            <!-- Line -->
            <path d="M3664.0197,231.9035 L3144.0197,231.9035 " style="stroke:#000000;stroke-width:0.5;"/>
            <!-- Line -->
            <path d="M3684.0197,251.9035 L3684.0197,771.9035 " style="stroke:#000000;stroke-width:0.5;"/>
            <!-- Arc -->
            <path d="M3144.0197,791.9035 A20,20 0 0,1 3124.0197,771.9035" style="stroke:#000000;stroke-width:0.5;"/>
            <!-- Arc -->
            <path d="M3124.0197,251.9035 A20,20 0 0,1 3144.0197,231.9035" style="stroke:#000000;stroke-width:0.5;"/>
            <!-- Arc -->
            <path d="M3664.0197,231.9035 A20,20 0 0,1 3684.0197,251.9035" style="stroke:#000000;stroke-width:0.5;"/>
            <!-- Arc -->
            <path d="M3684.0197,771.9035 A20,20 0 0,1 3664.0197,791.9035" style="stroke:#000000;stroke-width:0.5;"/>
            <!-- Arc -->
            <path d="M3684.0197,1371.9035 A20,20 0 0,1 3664.0197,1391.9035" style="stroke:#000000;stroke-width:0.5;"/>
            <!-- Arc -->
            <path d="M3664.0197,831.9035 A20,20 0 0,1 3684.0197,851.9035" style="stroke:#000000;stroke-width:0.5;"/>
            <!-- Arc -->
            <path d="M3124.0197,851.9035 A20,20 0 0,1 3144.0197,831.9035" style="stroke:#000000;stroke-width:0.5;"/>
            <!-- Arc -->
            <path d="M3144.0197,1391.9035 A20,20 0 0,1 3124.0197,1371.9035" style="stroke:#000000;stroke-width:0.5;"/>
            <!-- Line -->
            <path d="M3684.0197,851.9035 L3684.0197,1371.9035 " style="stroke:#000000;stroke-width:0.5;"/>
            <!-- Line -->
            <path d="M3664.0197,831.9035 L3144.0197,831.9035 " style="stroke:#000000;stroke-width:0.5;"/>
            <!-- Line -->
            <path d="M3664.0197,1391.9035 L3144.0197,1391.9035 " style="stroke:#000000;stroke-width:0.5;"/>
            <!-- Line -->
            <path d="M3124.0197,851.9035 L3124.0197,1371.9035 " style="stroke:#000000;stroke-width:0.5;"/>
            <!-- Arc -->
            <path d="M3124.0197,1611.9035 A20,20 0 0,1 3104.0197,1591.9035" style="stroke:#000000;stroke-width:0.5;"/>
            <!-- Arc -->
            <path d="M3904.0197,1591.9035 A20,20 0 0,1 3884.0197,1611.9035" style="stroke:#000000;stroke-width:0.5;"/>
            <!-- Arc -->
            <path d="M3884.0197,11.9035 A20,20 0 0,1 3904.0197,31.9035" style="stroke:#000000;stroke-width:0.5;"/>
            <!-- Arc -->
            <path d="M3104.0197,31.9035 A20,20 0 0,1 3124.0197,11.9035" style="stroke:#000000;stroke-width:0.5;"/>
            <!-- Arc -->
            <path d="M3684.0197,211.9035 A20,20 0 0,1 3704.0197,231.9035" style="stroke:#000000;stroke-width:0.5;"/>
            <!-- Arc -->
            <path d="M212.1822,1385.9033 A20,20 0 0,1 192.1822,1365.9033" style="stroke:#000000;stroke-width:0.5;"/>
            <!-- Arc -->
            <path d="M792.1822,1565.9033 A20,20 0 0,1 772.1822,1585.9033" style="stroke:#000000;stroke-width:0.5;"/>
            <!-- Arc -->
            <path d="M12.1822,1585.9033 A20,20 0 0,1 -7.8178,1565.9033" style="stroke:#000000;stroke-width:0.5;"/>
            <!-- Arc -->
            <path d="M-7.8178,605.9033 A20,20 0 0,1 12.1822,585.9033" style="stroke:#000000;stroke-width:0.5;"/>
            <!-- Arc -->
            <path d="M772.1822,585.9033 A20,20 0 0,1 792.1822,605.9033" style="stroke:#000000;stroke-width:0.5;"/>
            <!-- Arc -->
            <path d="M212.1822,825.9033 A20,20 0 0,1 232.1822,805.9033" style="stroke:#000000;stroke-width:0.5;"/>
            <!-- Arc -->
            <path d="M232.1822,1365.9033 A20,20 0 0,1 212.1822,1345.9033" style="stroke:#000000;stroke-width:0.5;"/>
            <!-- Arc -->
            <path d="M772.1822,1345.9033 A20,20 0 0,1 752.1822,1365.9033" style="stroke:#000000;stroke-width:0.5;"/>
            <!-- Arc -->
            <path d="M752.1822,805.9033 A20,20 0 0,1 772.1822,825.9033" style="stroke:#000000;stroke-width:0.5;"/>
            <!-- Line -->
            <path d="M212.1822,1345.9033 L212.1822,825.9033 " style="stroke:#000000;stroke-width:0.5;"/>
            <!-- Line -->
            <path d="M232.1822,1365.9033 L752.1822,1365.9033 " style="stroke:#000000;stroke-width:0.5;"/>
            <!-- Line -->
            <path d="M232.1822,805.9033 L752.1822,805.9033 " style="stroke:#000000;stroke-width:0.5;"/>
            <!-- Line -->
            <path d="M772.1822,1345.9033 L772.1822,825.9033 " style="stroke:#000000;stroke-width:0.5;"/>
            <!-- Line -->
            <path d="M192.1822,785.9033 L792.1822,785.9033 " style="stroke:#000000;stroke-width:0.5;"/>
            <!-- Line -->
            <path d="M192.1822,1365.9033 L192.1822,785.9033 " style="stroke:#000000;stroke-width:0.5;"/>
            <!-- Line -->
            <path d="M212.1822,1385.9033 L792.1822,1385.9033 " style="stroke:#000000;stroke-width:0.5;"/>
            <!-- Line -->
            <path d="M12.1822,1585.9033 L772.1822,1585.9033 " style="stroke:#000000;stroke-width:0.5;"/>
            <!-- Line -->
            <path d="M792.1822,1565.9033 L792.1822,605.9033 " style="stroke:#000000;stroke-width:0.5;"/>
            <!-- Line -->
            <path d="M12.1822,585.9033 L772.1822,585.9033 " style="stroke:#000000;stroke-width:0.5;"/>
            <!-- Line -->
            <path d="M-7.8178,1565.9033 L-7.8178,605.9033 " style="stroke:#000000;stroke-width:0.5;"/>
        </g>
    </g>
</svg>
