<?xml version="1.0" encoding="UTF-8"?>
<!-- 2026-02-05 11:21:05 Generated by QCAD 3.32.6 SVG Exporter -->
<svg width="3748.9814mm" height="2325.9599mm" viewBox="0.5943 -2329.4394 3748.9814 2325.9599" version="1.1" xmlns="http://www.w3.org/2000/svg" style="stroke-linecap:round;stroke-linejoin:round;fill:none">
    <g transform="scale(1,-1)">
        <!-- Block Reference: A$C518662A7 / entities: 101 -->
        <g>
            <!-- Line -->
            <path d="M2574.0348,2094.1452 L974.0348,2094.1452 " style="stroke:#000000;stroke-width:0.5;"/>
            <!-- Line -->
            <path d="M974.0348,2258.8511 L2574.0348,2258.8511 " style="stroke:#000000;stroke-width:0.5;"/>
            <!-- Line -->
            <path d="M974.0348,2329.4394 L2574.0348,2329.4394 " style="stroke:#000000;stroke-width:0.5;"/>
            <!-- Line -->
            <path d="M2574.0348,2047.0864 L974.0348,2047.0864 " style="stroke:#000000;stroke-width:0.5;"/>
            <!-- Line -->
            <path d="M2574.0348,2000.0276 L974.0348,2000.0276 " style="stroke:#000000;stroke-width:0.5;"/>
            <!-- Line -->
            <path d="M2574.0348,1552.9688 L974.0348,1552.9688 " style="stroke:#000000;stroke-width:0.5;"/>
            <!-- Line -->
            <path d="M229.761,833.6536 L229.761,1383.6536 " style="stroke:#000000;stroke-width:0.5;"/>
            <!-- Line -->
            <path d="M92.261,1383.6536 L92.261,833.6536 " style="stroke:#000000;stroke-width:0.5;"/>
            <!-- Line -->
            <path d="M0.5943,1383.6536 L0.5943,833.6536 " style="stroke:#000000;stroke-width:0.5;"/>
            <!-- Line -->
            <path d="M665.1776,833.6536 L665.1776,1383.6536 " style="stroke:#000000;stroke-width:0.5;"/>
            <!-- Line -->
            <path d="M23.511,833.6536 L23.511,764.9036 " style="stroke:#000000;stroke-width:0.5;"/>
            <!-- Line -->
            <path d="M619.3443,764.9036 L619.3443,833.6536 " style="stroke:#000000;stroke-width:0.5;"/>
            <!-- Line -->
            <path d="M0.5943,833.6536 L665.1776,833.6536 " style="stroke:#000000;stroke-width:0.5;"/>
            <!-- Line -->
            <path d="M23.511,764.9036 L619.3443,764.9036 " style="stroke:#000000;stroke-width:0.5;"/>
            <!-- Line -->
            <path d="M44.8432,2240.985 L554.8432,2240.985 " style="stroke:#000000;stroke-width:0.5;"/>
            <!-- Line -->
            <path d="M24.8432,2260.985 L574.8432,2260.985 " style="stroke:#000000;stroke-width:0.5;"/>
            <!-- Circle -->
            <circle cx="302.83396991557674" cy="1988.5456389991305" r="173.12183226915658" style="stroke:#000000;stroke-width:0.5;"/>
            <!-- Line -->
            <path d="M101.2239,1990.7385 L513.2099,1990.7385 " style="stroke:#000000;stroke-width:0.5;"/>
            <!-- Line -->
            <path d="M554.8432,1730.985 L44.8432,1730.985 " style="stroke:#000000;stroke-width:0.5;"/>
            <!-- Line -->
            <path d="M574.8432,1710.985 L24.8432,1710.985 " style="stroke:#000000;stroke-width:0.5;"/>
            <!-- Line -->
            <path d="M44.8432,1730.985 L44.8432,2240.985 " style="stroke:#000000;stroke-width:0.5;"/>
            <!-- Line -->
            <path d="M24.8432,1710.985 L24.8432,2260.985 " style="stroke:#000000;stroke-width:0.5;"/>
            <!-- Line -->
            <path d="M305.0255,2196.8495 L305.0255,1786.8202 " style="stroke:#000000;stroke-width:0.5;"/>
            <!-- Line -->
            <path d="M554.8432,2240.985 L554.8432,1730.985 " style="stroke:#000000;stroke-width:0.5;"/>
            <!-- Line -->
            <path d="M574.8432,2260.985 L574.8432,1710.985 " style="stroke:#000000;stroke-width:0.5;"/>
            <!-- Line -->
            <path d="M856.3877,2305.91 L974.0348,2305.91 " style="stroke:#000000;stroke-width:0.5;"/>
            <!-- Line -->
            <path d="M974.0348,2305.91 L974.0348,2329.4394 " style="stroke:#000000;stroke-width:0.5;"/>
            <!-- Line -->
            <path d="M23.511,1452.4036 L23.511,1383.6536 " style="stroke:#000000;stroke-width:0.5;"/>
            <!-- Line -->
            <path d="M974.0348,1694.1452 L974.0348,1788.2629 " style="stroke:#000000;stroke-width:0.5;"/>
            <!-- Line -->
            <path d="M903.4466,1764.7335 L950.5054,1764.7335 " style="stroke:#000000;stroke-width:0.5;"/>
            <!-- Line -->
            <path d="M950.5054,1764.7335 L974.0348,1788.2629 " style="stroke:#000000;stroke-width:0.5;"/>
            <!-- Line -->
            <path d="M974.0348,1552.9688 L974.0348,1694.1452 " style="stroke:#000000;stroke-width:0.5;"/>
            <!-- Line -->
            <path d="M974.0348,1694.1452 L903.4466,1694.1452 " style="stroke:#000000;stroke-width:0.5;"/>
            <!-- Line -->
            <path d="M903.4466,1694.1452 L903.4466,1764.7335 " style="stroke:#000000;stroke-width:0.5;"/>
            <!-- Line -->
            <path d="M903.4466,1764.7335 L856.3877,1788.2629 " style="stroke:#000000;stroke-width:0.5;"/>
            <!-- Line -->
            <path d="M619.3443,1383.6536 L619.3443,1452.4036 " style="stroke:#000000;stroke-width:0.5;"/>
            <!-- Line -->
            <path d="M665.1776,1383.6536 L0.5943,1383.6536 " style="stroke:#000000;stroke-width:0.5;"/>
            <!-- Line -->
            <path d="M619.3443,1452.4036 L23.511,1452.4036 " style="stroke:#000000;stroke-width:0.5;"/>
            <!-- Line -->
            <path d="M974.0348,1788.2629 L974.0348,2282.3805 " style="stroke:#000000;stroke-width:0.5;"/>
            <!-- Line -->
            <path d="M856.3877,1788.2629 L856.3877,2305.91 " style="stroke:#000000;stroke-width:0.5;"/>
            <!-- Line -->
            <path d="M1274.2313,1187.1089 L2414.2313,1187.1089 " style="stroke:#000000;stroke-width:0.5;"/>
            <!-- Line -->
            <path d="M1244.2313,1217.1089 L2444.2313,1217.1089 " style="stroke:#000000;stroke-width:0.5;"/>
            <!-- Line -->
            <path d="M2414.2313,647.1089 L1274.2313,647.1089 " style="stroke:#000000;stroke-width:0.5;"/>
            <!-- Line -->
            <path d="M2444.2313,617.1089 L1244.2313,617.1089 " style="stroke:#000000;stroke-width:0.5;"/>
            <!-- Line -->
            <path d="M1274.2313,647.1089 L1274.2313,1187.1089 " style="stroke:#000000;stroke-width:0.5;"/>
            <!-- Line -->
            <path d="M2414.2313,1187.1089 L2414.2313,647.1089 " style="stroke:#000000;stroke-width:0.5;"/>
            <!-- Line -->
            <path d="M1244.2313,617.1089 L1244.2313,1217.1089 " style="stroke:#000000;stroke-width:0.5;"/>
            <!-- Line -->
            <path d="M2444.2313,1217.1089 L2444.2313,617.1089 " style="stroke:#000000;stroke-width:0.5;"/>
            <!-- Line -->
            <path d="M2957.5757,723.4794 L3677.5757,723.4794 " style="stroke:#000000;stroke-width:0.5;"/>
            <!-- Line -->
            <path d="M2928.0521,2260.985 L3478.0521,2260.985 " style="stroke:#000000;stroke-width:0.5;"/>
            <!-- Line -->
            <path d="M3478.0521,1710.985 L2928.0521,1710.985 " style="stroke:#000000;stroke-width:0.5;"/>
            <!-- Line -->
            <path d="M2574.0348,2329.4394 L2574.0348,2305.91 " style="stroke:#000000;stroke-width:0.5;"/>
            <!-- Line -->
            <path d="M2574.0348,2305.91 L2691.6819,2305.91 " style="stroke:#000000;stroke-width:0.5;"/>
            <!-- Line -->
            <path d="M2928.0521,1710.985 L2928.0521,2260.985 " style="stroke:#000000;stroke-width:0.5;"/>
            <!-- Line -->
            <path d="M2574.0348,1694.1452 L2574.0348,1788.2629 " style="stroke:#000000;stroke-width:0.5;"/>
            <!-- Line -->
            <path d="M2644.623,1764.7335 L2597.5642,1764.7335 " style="stroke:#000000;stroke-width:0.5;"/>
            <!-- Line -->
            <path d="M2597.5642,1764.7335 L2574.0348,1788.2629 " style="stroke:#000000;stroke-width:0.5;"/>
            <!-- Line -->
            <path d="M2691.6819,1788.2629 L2644.623,1764.7335 " style="stroke:#000000;stroke-width:0.5;"/>
            <!-- Line -->
            <path d="M2644.623,1764.7335 L2644.623,1694.1452 " style="stroke:#000000;stroke-width:0.5;"/>
            <!-- Line -->
            <path d="M2644.623,1694.1452 L2574.0348,1694.1452 " style="stroke:#000000;stroke-width:0.5;"/>
            <!-- Line -->
            <path d="M2574.0348,1694.1452 L2574.0348,1552.9688 " style="stroke:#000000;stroke-width:0.5;"/>
            <!-- Line -->
            <path d="M2032.8583,1552.9688 L2032.8583,2258.8511 " style="stroke:#000000;stroke-width:0.5;"/>
            <!-- Line -->
            <path d="M1515.2113,1552.9688 L1515.2113,2258.8511 " style="stroke:#000000;stroke-width:0.5;"/>
            <!-- Line -->
            <path d="M2574.0348,1788.2629 L2574.0348,2282.3805 " style="stroke:#000000;stroke-width:0.5;"/>
            <!-- Line -->
            <path d="M2691.6819,2305.91 L2691.6819,1788.2629 " style="stroke:#000000;stroke-width:0.5;"/>
            <!-- Line -->
            <path d="M2948.0521,2240.985 L3458.0521,2240.985 " style="stroke:#000000;stroke-width:0.5;"/>
            <!-- Circle -->
            <circle cx="3206.0428256363375" cy="1988.5456389991305" r="173.12183226915658" style="stroke:#000000;stroke-width:0.5;"/>
            <!-- Line -->
            <path d="M3208.2343,2196.8495 L3208.2343,1786.8202 " style="stroke:#000000;stroke-width:0.5;"/>
            <!-- Line -->
            <path d="M3004.4328,1990.7385 L3416.4187,1990.7385 " style="stroke:#000000;stroke-width:0.5;"/>
            <!-- Line -->
            <path d="M3458.0521,1730.985 L2948.0521,1730.985 " style="stroke:#000000;stroke-width:0.5;"/>
            <!-- Line -->
            <path d="M3458.0521,2240.985 L3458.0521,1730.985 " style="stroke:#000000;stroke-width:0.5;"/>
            <!-- Line -->
            <path d="M2948.0521,1730.985 L2948.0521,2240.985 " style="stroke:#000000;stroke-width:0.5;"/>
            <!-- Line -->
            <path d="M3478.0521,2260.985 L3478.0521,1710.985 " style="stroke:#000000;stroke-width:0.5;"/>
            <!-- Line -->
            <path d="M3725.5757,1443.4794 L3725.5757,1323.4794 " style="stroke:#000000;stroke-width:0.5;"/>
            <!-- Line -->
            <path d="M3725.5757,1323.4794 L3749.5757,1323.4794 " style="stroke:#000000;stroke-width:0.5;"/>
            <!-- Line -->
            <path d="M3101.5757,1323.4794 L3197.5757,1323.4794 " style="stroke:#000000;stroke-width:0.5;"/>
            <!-- Line -->
            <path d="M3173.5757,1347.4794 L3197.5757,1323.4794 " style="stroke:#000000;stroke-width:0.5;"/>
            <!-- Line -->
            <path d="M3173.5757,1395.4794 L3173.5757,1347.4794 " style="stroke:#000000;stroke-width:0.5;"/>
            <!-- Line -->
            <path d="M2957.5757,1323.4794 L3101.5757,1323.4794 " style="stroke:#000000;stroke-width:0.5;"/>
            <!-- Line -->
            <path d="M3101.5757,1323.4794 L3101.5757,1395.4794 " style="stroke:#000000;stroke-width:0.5;"/>
            <!-- Line -->
            <path d="M3101.5757,1395.4794 L3173.5757,1395.4794 " style="stroke:#000000;stroke-width:0.5;"/>
            <!-- Line -->
            <path d="M3173.5757,1395.4794 L3197.5757,1443.4794 " style="stroke:#000000;stroke-width:0.5;"/>
            <!-- Line -->
            <path d="M3197.5757,1323.4794 L3701.5757,1323.4794 " style="stroke:#000000;stroke-width:0.5;"/>
            <!-- Line -->
            <path d="M3197.5757,1443.4794 L3725.5757,1443.4794 " style="stroke:#000000;stroke-width:0.5;"/>
            <!-- Line -->
            <path d="M3413.5757,123.4794 L3413.5757,1323.4794 " style="stroke:#000000;stroke-width:0.5;"/>
            <!-- Line -->
            <path d="M3461.5757,123.4794 L3461.5757,1323.4794 " style="stroke:#000000;stroke-width:0.5;"/>
            <!-- Line -->
            <path d="M3509.5757,123.4794 L3509.5757,1323.4794 " style="stroke:#000000;stroke-width:0.5;"/>
            <!-- Line -->
            <path d="M3677.5757,1323.4794 L3677.5757,123.4794 " style="stroke:#000000;stroke-width:0.5;"/>
            <!-- Line -->
            <path d="M3749.5757,1323.4794 L3749.5757,123.4794 " style="stroke:#000000;stroke-width:0.5;"/>
            <!-- Line -->
            <path d="M2957.5757,123.4794 L2957.5757,1323.4794 " style="stroke:#000000;stroke-width:0.5;"/>
            <!-- Line -->
            <path d="M3749.5757,123.4794 L3725.5757,123.4794 " style="stroke:#000000;stroke-width:0.5;"/>
            <!-- Line -->
            <path d="M3725.5757,123.4794 L3725.5757,3.4795 " style="stroke:#000000;stroke-width:0.5;"/>
            <!-- Line -->
            <path d="M3101.5757,123.4794 L3197.5757,123.4794 " style="stroke:#000000;stroke-width:0.5;"/>
            <!-- Line -->
            <path d="M3173.5757,99.4794 L3197.5757,123.4794 " style="stroke:#000000;stroke-width:0.5;"/>
            <!-- Line -->
            <path d="M3173.5757,51.4794 L3173.5757,99.4794 " style="stroke:#000000;stroke-width:0.5;"/>
            <!-- Line -->
            <path d="M3197.5757,3.4795 L3173.5757,51.4794 " style="stroke:#000000;stroke-width:0.5;"/>
            <!-- Line -->
            <path d="M3173.5757,51.4794 L3101.5757,51.4794 " style="stroke:#000000;stroke-width:0.5;"/>
            <!-- Line -->
            <path d="M3101.5757,51.4794 L3101.5757,123.4794 " style="stroke:#000000;stroke-width:0.5;"/>
            <!-- Line -->
            <path d="M3101.5757,123.4794 L2957.5757,123.4794 " style="stroke:#000000;stroke-width:0.5;"/>
            <!-- Line -->
            <path d="M3197.5757,123.4794 L3701.5757,123.4794 " style="stroke:#000000;stroke-width:0.5;"/>
            <!-- Line -->
            <path d="M3725.5757,3.4795 L3197.5757,3.4795 " style="stroke:#000000;stroke-width:0.5;"/>
        </g>
    </g>
</svg>
