<?xml version="1.0" encoding="UTF-8"?>
<!-- 2026-02-05 11:27:25 Generated by QCAD 3.32.6 SVG Exporter -->
<svg width="3506.0661mm" height="2746.0339mm" viewBox="9.046 -2766.3613 3506.0661 2746.0339" version="1.1" xmlns="http://www.w3.org/2000/svg" style="stroke-linecap:round;stroke-linejoin:round;fill:none">
    <g transform="scale(1,-1)">
        <!-- Block Reference: A$C2F471D6A / entities: 34 -->
        <g>
            <!-- Line -->
            <path d="M2764.3641,730.266 L2989.5242,1020.8769 " style="stroke:#000000;stroke-width:0.5;"/>
            <!-- Line -->
            <path d="M2771.5641,730.266 L2990.1151,1012.3468 " style="stroke:#000000;stroke-width:0.5;"/>
            <!-- Line -->
            <path d="M2778.7641,730.266 L2990.1151,1003.0538 " style="stroke:#000000;stroke-width:0.5;"/>
            <!-- Line -->
            <path d="M2785.9641,730.266 L2990.1151,993.7609 " style="stroke:#000000;stroke-width:0.5;"/>
            <!-- Line -->
            <path d="M2793.1641,730.266 L2990.1151,984.4679 " style="stroke:#000000;stroke-width:0.5;"/>
            <!-- Line -->
            <path d="M2170.438,730.266 L2624.3039,1263.6434 " style="stroke:#000000;stroke-width:0.5;"/>
            <!-- Line -->
            <path d="M2177.638,730.266 L2631.5039,1263.6434 " style="stroke:#000000;stroke-width:0.5;"/>
            <!-- Line -->
            <path d="M2184.838,730.266 L2638.7039,1263.6434 " style="stroke:#000000;stroke-width:0.5;"/>
            <!-- Line -->
            <path d="M2192.038,730.266 L2645.9039,1263.6434 " style="stroke:#000000;stroke-width:0.5;"/>
            <!-- Line -->
            <path d="M2199.238,730.266 L2653.1039,1263.6434 " style="stroke:#000000;stroke-width:0.5;"/>
            <!-- Line -->
            <path d="M2206.438,730.266 L2660.3039,1263.6434 " style="stroke:#000000;stroke-width:0.5;"/>
            <!-- Polyline -->
            <path d="M1751.1439,672.6754 L1751.1439,1320.6754 L3047.1439,1320.6754 L3047.1439,672.6754 Z" style="stroke:#000000;stroke-width:0.5;"/>
            <!-- Polyline -->
            <path d="M2990.1151,1205.8559 L2929.0481,1205.8559 L2929.0481,1262.9543 L1869.2396,1262.9543 L1869.2396,1205.8559 L1806.2027,1205.8559 L1806.2027,782.5405 L1869.2396,782.5405 L1869.2396,729.38 L2929.0481,729.38 L2929.0481,782.5405 L2990.1151,782.5405 Z" style="stroke:#000000;stroke-width:0.5;"/>
            <!-- Line -->
            <path d="M1806.2027,861.6763 L2191.6243,1262.9543 " style="stroke:#000000;stroke-width:0.5;"/>
            <!-- Line -->
            <path d="M1806.2027,854.1801 L2198.8243,1262.9543 " style="stroke:#000000;stroke-width:0.5;"/>
            <!-- Line -->
            <path d="M1806.2027,846.6839 L2206.0243,1262.9543 " style="stroke:#000000;stroke-width:0.5;"/>
            <!-- Line -->
            <path d="M1806.2027,839.1877 L2213.2243,1262.9543 " style="stroke:#000000;stroke-width:0.5;"/>
            <!-- Line -->
            <path d="M1806.2027,869.1725 L2184.4243,1262.9543 " style="stroke:#000000;stroke-width:0.5;"/>
            <!-- Polyline -->
            <path d="M261.5082,1740.7719 L261.5082,1749.4199 A765.752,765.752 0 0 0 988.3055,2514.18" style="stroke:#000000;stroke-width:0.5;"/>
            <!-- Polyline -->
            <path d="M9.046,1750.3391 A1018.21,1018.21 0 0 0 956.4626,2765.1699" style="stroke:#000000;stroke-width:0.5;"/>
            <!-- Polyline -->
            <path d="M261.5082,1740.7719 A130.535,130.535 0 0 0 9.046,1750.3391" style="stroke:#000000;stroke-width:0.5;"/>
            <!-- Polyline -->
            <path d="M2442.2275,2495.8053 L2601.3104,2495.8053 A106.138,106.138 0 0 1 2701.1996,2566.0622 A207.574,207.574 0 0 1 2786.2905,2499.5031 L3418.9225,2499.5031 A100.976,100.976 0 0 1 3509.7362,2556.3317" style="stroke:#000000;stroke-width:0.5;"/>
            <!-- Polyline -->
            <path d="M2442.2275,1889.9987 L2601.3104,1889.9987 A106.138,106.138 0 0 1 2701.1996,1960.2556 A207.574,207.574 0 0 1 2786.2905,1893.6965 L3418.9225,1893.6965 A100.976,100.976 0 0 1 3515.1121,1963.9534 L3515.1121,2677.6158 A89.0778,89.0778 0 0 1 3433.7209,2766.3613 L2789.9901,2766.3613 A85.1661,85.1661 0 0 1 2704.8992,2677.6158 A125.678,125.678 0 0 1 2605.01,2766.3613 L1979.7772,2766.3613 A97.5431,97.5431 0 0 1 1883.5875,2685.0112 L1883.5875,1975.0466 A85.0479,85.0479 0 0 1 1968.6784,1889.9987 Z" style="stroke:#000000;stroke-width:0.5;"/>
            <!-- Line -->
            <path d="M2704.8992,2677.6158 L2701.1996,1960.2556 " style="stroke:#000000;stroke-width:0.5;"/>
            <!-- Polyline -->
            <path d="M1069.8297,1960.2556 A207.574,207.574 0 0 1 1154.9206,1893.6965 L1787.5526,1893.6965 A100.976,100.976 0 0 1 1883.7422,1963.9534 L1883.7422,2677.6158 A89.0778,89.0778 0 0 1 1802.351,2766.3613 L1158.6202,2766.3613 A85.1661,85.1661 0 0 1 1073.5293,2677.6158" style="stroke:#000000;stroke-width:0.5;"/>
            <!-- Polyline -->
            <path d="M1073.5293,2677.6158 L1069.8297,1960.2556" style="stroke:#000000;stroke-width:0.5;"/>
            <!-- Polyline -->
            <path d="M821.9538,1653.6777 A255.173,255.173 0 0 1 1072.7718,1955.7928" style="stroke:#000000;stroke-width:0.5;"/>
            <!-- Polyline -->
            <path d="M1069.8297,2566.0622 A207.574,207.574 0 0 1 1154.9206,2499.5031 L1787.5526,2499.5031 A100.976,100.976 0 0 1 1878.3663,2556.3317" style="stroke:#000000;stroke-width:0.5;"/>
            <!-- Polyline -->
            <path d="M955.9344,2765.1842 A128.995,128.995 0 0 0 946.9852,2507.3503" style="stroke:#000000;stroke-width:0.5;"/>
            <!-- Polyline -->
            <path d="M1887.1993,2556.3317 A85.0479,85.0479 0 0 1 1968.6784,2495.8053 L2442.2275,2495.8053" style="stroke:#000000;stroke-width:0.5;"/>
            <!-- Line -->
            <path d="M816.3065,837.9395 L98.9463,841.6391 " style="stroke:#000000;stroke-width:0.5;"/>
            <!-- Polyline -->
            <path d="M886.5634,578.9674 L886.5634,738.0503 A106.138,106.138 0 0 1 816.3065,837.9395 A207.574,207.574 0 0 1 882.8657,923.0304 L882.8657,1555.6623 A100.976,100.976 0 0 1 812.6087,1651.852 L98.9463,1651.852 A89.0778,89.0778 0 0 1 10.2008,1570.4608 L10.2008,926.73 A85.1661,85.1661 0 0 1 98.9463,841.6391 A125.678,125.678 0 0 1 10.2008,741.7499 L10.2008,116.5171 A97.5431,97.5431 0 0 1 91.5509,20.3274 L801.5155,20.3274 A85.0479,85.0479 0 0 1 886.5634,105.4183 Z" style="stroke:#000000;stroke-width:0.5;"/>
            <!-- Polyline -->
            <path d="M266.4726,578.9674 L266.4726,738.0503 A106.138,106.138 0 0 1 196.2156,837.9395 A207.574,207.574 0 0 1 262.7748,923.0304 L262.7748,1555.6623 A100.976,100.976 0 0 1 192.5179,1651.852 L189.9662,1651.852" style="stroke:#000000;stroke-width:0.5;"/>
            <!-- Polyline -->
            <path d="M189.9662,20.7574 A85.0479,85.0479 0 0 1 266.4726,105.4183 L266.4726,578.9674" style="stroke:#000000;stroke-width:0.5;"/>
        </g>
    </g>
</svg>
