<?xml version="1.0" standalone="no"?>
<svg viewBox="-512 -384 1024 768" version="1.1" xmlns="http://www.w3.org/2000/svg" xmlns:xlink="http://www.w3.org/1999/xlink" stroke-linecap="round" stroke-linejoin="round" fill-rule="evenodd" xml:space="preserve" >
<defs >
<clipPath id="clipId0" >
<path d="M0,768 1024,768 1024,0 0,0 z" />
</clipPath>
</defs>
<g clip-path="url(#clipId0)" fill="none" stroke="rgb(0,0,0)" stroke-width="0.1" />
<g clip-path="url(#clipId0)" fill="none" stroke="rgb(0,0,0)" stroke-width="0.25" >
<polyline points="786.819,565.811 848.556,486.128 " />
<polyline points="788.793,565.811 848.718,488.467 " />
<polyline points="790.767,565.811 848.718,491.015 " />
<polyline points="792.741,565.811 848.718,493.563 " />
<polyline points="794.716,565.811 848.718,496.111 " />
<polyline points="623.969,565.811 748.415,419.563 " />
<polyline points="625.943,565.811 750.39,419.563 " />
<polyline points="627.917,565.811 752.364,419.563 " />
<polyline points="629.891,565.811 754.338,419.563 " />
<polyline points="631.866,565.811 756.312,419.563 " />
<polyline points="633.84,565.811 758.286,419.563 " />
<polyline points="509.002,581.602 509.002,403.925 864.355,403.925 864.355,581.602 509.002,581.602 " />
<polyline points="848.718,435.408 831.974,435.408 831.974,419.752 541.383,419.752 541.383,435.408 524.098,435.408 524.098,551.478 541.383,551.478 541.383,566.054 831.974,566.054 831.974,551.478 848.718,551.478 848.718,435.408 " />
<polyline points="524.098,529.779 629.778,419.752 " />
<polyline points="524.098,531.835 631.752,419.752 " />
<polyline points="524.098,533.89 633.726,419.752 " />
<polyline points="524.098,535.945 635.701,419.752 " />
<polyline points="524.098,527.724 627.804,419.752 " />
<polyline points="100.555,288.738 100.555,286.367 100.555,286.367 101.227,269.589 103.237,252.918 106.572,236.461 111.212,220.324 117.127,204.608 124.279,189.416 132.622,174.844 142.103,160.985 152.66,147.928 164.228,135.756 176.731,124.548 190.09,114.374 204.219,105.301 219.028,97.3854 234.422,90.6788 250.302,85.2237 266.568,81.0551 283.115,78.1996 299.837,76.6756 " />
<polyline points="31.3319,286.115 32.0621,266.186 34.213,246.361 37.7736,226.74 42.7256,207.423 49.044,188.508 56.6964,170.093 65.6438,152.272 75.8405,135.134 87.2345,118.768 99.7677,103.257 113.376,88.6801 127.99,75.1119 143.536,62.6215 159.933,51.2727 177.099,41.1233 194.946,32.2251 213.382,24.6236 232.313,18.3574 251.644,13.4587 271.275,9.95226 291.106,7.85611 " />
<polyline points="100.555,288.738 98.0215,294.961 94.3695,300.601 89.7276,305.459 84.2596,309.364 78.1582,312.178 71.6383,313.802 64.9297,314.179 58.2689,313.296 51.8907,311.183 46.0197,307.915 40.8629,303.607 36.602,298.412 33.3873,292.512 31.3319,286.115 " />
<polyline points="698.491,81.7138 742.111,81.7138 742.111,81.7138 748.016,81.1084 753.675,79.3175 758.853,76.4155 763.335,72.5232 766.934,67.8025 769.5,62.4499 769.5,62.4499 774.377,68.1292 779.957,73.1193 786.144,77.3338 792.831,80.6999 966.294,80.6999 966.294,80.6999 972.435,80.0103 978.27,77.9757 983.508,74.6977 987.889,70.3393 991.194,65.1179 " />
<polyline points="698.491,247.821 742.111,247.821 742.111,247.821 748.016,247.216 753.675,245.425 758.853,242.523 763.335,238.631 766.934,233.91 769.5,228.557 769.5,228.557 774.377,234.237 779.957,239.227 786.144,243.441 792.831,246.807 966.294,246.807 966.294,246.807 972.073,246.197 977.597,244.395 982.624,241.479 986.931,237.577 990.329,232.863 992.668,227.543 992.668,31.8628 992.668,31.8628 992.121,26.7221 990.504,21.8118 987.89,17.3517 984.396,13.5417 980.178,10.5526 975.425,8.51807 970.351,7.52941 793.845,7.52941 793.845,7.52941 788.512,8.14651 783.461,9.9652 778.959,12.8893 775.244,16.7644 772.511,21.3856 770.906,26.5086 770.514,31.8628 770.514,31.8628 768.145,25.8864 764.708,20.4541 760.321,15.7547 755.138,11.9518 749.339,9.17791 743.125,7.52941 571.691,7.52941 571.691,7.52941 566.363,8.06559 561.248,9.65265 556.551,12.2269 552.462,15.6852 549.144,19.8889 546.73,24.6694 545.317,29.835 545.317,224.502 545.317,224.502 545.902,229.692 547.627,234.623 550.407,239.045 554.102,242.738 558.526,245.516 563.457,247.239 568.648,247.821 698.491,247.821 " />
<polyline points="770.514,31.8628 769.5,228.557 " />
<polyline points="322.191,228.557 327.068,234.237 332.648,239.227 338.835,243.441 345.522,246.807 518.985,246.807 518.985,246.807 524.764,246.197 530.288,244.395 535.315,241.479 539.622,237.577 543.02,232.863 545.359,227.543 545.359,31.8628 545.359,31.8628 544.812,26.7221 543.195,21.8118 540.581,17.3517 537.087,13.5417 532.869,10.5526 528.117,8.51807 523.042,7.52941 346.536,7.52941 346.536,7.52941 341.203,8.14651 336.152,9.9652 331.65,12.8893 327.935,16.7644 325.202,21.3856 323.597,26.5086 323.205,31.8628 " />
<polyline points="323.205,31.8628 322.191,228.557 " />
<polyline points="254.225,312.619 263.646,311.981 272.896,310.081 281.805,306.953 290.212,302.654 297.964,297.262 304.919,290.875 310.95,283.61 315.949,275.599 319.823,266.987 322.502,257.933 323.938,248.6 324.104,239.159 322.997,229.781 " />
<polyline points="322.191,62.4499 327.068,68.1292 332.648,73.1193 338.835,77.3338 345.522,80.6999 518.985,80.6999 518.985,80.6999 525.126,80.0103 530.961,77.9757 536.199,74.6977 540.58,70.3393 543.885,65.1179 " />
<polyline points="290.961,7.85216 297.834,8.77072 304.395,11.0124 310.393,14.491 315.597,19.0729 319.807,24.582 322.861,30.8066 324.643,37.5075 325.083,44.4271 324.164,51.2996 321.922,57.8608 318.444,63.8586 313.862,69.0626 308.353,73.2726 302.128,76.327 295.427,78.1084 288.508,78.5482 " />
<polyline points="546.307,65.1179 548.234,69.689 551.085,73.7489 554.73,77.114 559.005,79.6318 563.715,81.1886 568.648,81.7138 698.491,81.7138 " />
<polyline points="252.676,536.288 55.9819,535.273 " />
<polyline points="271.94,607.296 271.94,563.677 271.94,563.677 271.335,557.772 269.544,552.112 266.642,546.934 262.75,542.452 258.029,538.854 252.676,536.288 252.676,536.288 258.356,531.411 263.346,525.83 267.56,519.643 270.927,512.956 270.927,339.494 270.927,339.494 270.317,333.715 268.514,328.19 265.598,323.163 261.697,318.856 256.982,315.458 251.663,313.119 55.9819,313.119 55.9819,313.119 50.8413,313.666 45.9309,315.283 41.4709,317.897 37.6609,321.391 34.6717,325.609 32.6372,330.362 31.6486,335.436 31.6486,511.942 31.6486,511.942 32.2657,517.275 34.0844,522.326 37.0085,526.828 40.8836,530.544 45.5047,533.276 50.6278,534.881 55.9819,535.273 55.9819,535.273 50.0056,537.642 44.5732,541.079 39.8738,545.466 36.071,550.649 33.2971,556.449 31.6486,562.662 31.6486,734.096 31.6486,734.096 32.1848,739.425 33.7718,744.54 36.3461,749.236 39.8044,753.325 44.0081,756.643 48.7885,759.057 53.9541,760.471 248.621,760.471 248.621,760.471 253.812,759.886 258.742,758.16 263.164,755.38 266.857,751.685 269.635,747.261 271.358,742.33 271.94,737.139 271.94,607.296 " />
<polyline points="101.916,607.296 101.916,563.677 101.916,563.677 101.311,557.772 99.52,552.112 96.618,546.934 92.7257,542.452 88.0051,538.854 82.6524,536.288 82.6524,536.288 88.3317,531.411 93.3218,525.83 97.5364,519.643 100.902,512.956 100.902,339.494 100.902,339.494 100.293,333.715 98.4898,328.19 95.5736,323.163 91.6725,318.856 86.9582,315.458 81.6385,313.119 80.9389,313.119 " />
<polyline points="80.9389,760.353 86.4992,759.091 91.5871,756.517 95.8984,752.786 99.1754,748.12 101.222,742.799 101.916,737.139 101.916,607.296 " />
</g>
<g clip-path="url(#clipId0)" fill="rgb(91,91,91)" stroke="rgb(91,91,91)" stroke-width="0" >
<text transform="matrix(11.4082 0 -0 11.4082 79.3988 730.353)" font-family="Arial,&apos;sans-serif&apos;" font-size="1.39636" >Please go to www.autodwg.com to register and eliminate such limits.</text>
<text transform="matrix(11.4082 0 -0 11.4082 79.3988 709.818)" font-family="Arial,&apos;sans-serif&apos;" font-size="1.39636" >The note and watermark only exist in the trial version.</text>
<text transform="matrix(11.4082 0 -0 11.4082 79.3988 730.353)" font-family="Arial,&apos;sans-serif&apos;" font-size="1.39636" >Please go to www.autodwg.com to register and eliminate such limits.</text>
<text transform="matrix(11.4082 0 -0 11.4082 79.3988 709.818)" font-family="Arial,&apos;sans-serif&apos;" font-size="1.39636" >The note and watermark only exist in the trial version.</text>
<text transform="matrix(11.4082 0 -0 11.4082 79.3988 730.353)" font-family="Arial,&apos;sans-serif&apos;" font-size="1.39636" >Please go to www.autodwg.com to register and eliminate such limits.</text>
<text transform="matrix(11.4082 0 -0 11.4082 79.3988 709.818)" font-family="Arial,&apos;sans-serif&apos;" font-size="1.39636" >The note and watermark only exist in the trial version.</text>
</g>
<g clip-path="url(#clipId0)" fill="rgb(0,0,255)" stroke="rgb(0,0,255)" stroke-width="0" >
<text transform="matrix(14.8509 0 -0 14.8509 127.466 384)" font-family="Arial,&apos;sans-serif&apos;" font-size="1.39636" >AutoDWG DWG to SVG Converter FREE TRIAL</text>
</g>
</svg>

