<svg xmlns="http://www.w3.org/2000/svg" xmlns:svg="http://www.w3.org/2000/svg" xmlns:xlink="http://www.w3.org/1999/xlink" xmlns:sodipodi="http://sodipodi.sourceforge.net/DTD/sodipodi-0.dtd" xmlns:inkscape="http://www.inkscape.org/namespaces/inkscape" viewBox="0 0 793.7007874015749 1122.5196850393702" width="793.7007874015749" height="1122.5196850393702">
    <defs><marker id="DistanceX" orient="auto" refX="0.0" refY="0.0" style="overflow:visible"><path d="M 3,-3 L -3,3 M 0,-5 L  0,5" style="stroke:#000000; stroke-width:0.5"/></marker><pattern id="Hatch" patternUnits="userSpaceOnUse" width="8" height="8" x="0" y="0"><path d="M8 4 l-4,4" stroke="#000000" stroke-width="0.25" linecap="square"/><path d="M6 2 l-4,4" stroke="#000000" stroke-width="0.25" linecap="square"/><path d="M4 0 l-4,4" stroke="#000000" stroke-width="0.25" linecap="square"/></pattern><symbol id="*MODEL_SPACE"/><symbol id="*PAPER_SPACE"/><symbol id="A$C2C166547"><path d="M 4.534949,1118.452767 A 0.072232,0.072232 0.000000 0 0 4.531597,1118.473104" style="fill:none;stroke:#000000"/><path d="M 4.535668,1118.477272 A 0.022270,0.022270 0.000000 0 0 4.518038,1118.468345" style="fill:none;stroke:#000000"/><path d="M 4.469422,1118.468345 A 0.022270,0.022270 0.000000 0 0 4.451793,1118.477272" style="fill:none;stroke:#000000"/><path d="M 4.455864,1118.473104 A 0.072232,0.072232 0.000000 0 0 4.452511,1118.452767" style="fill:none;stroke:#000000"/><path d="M 4.453269,1118.469460 A 0.262782,0.262782 0.0 0 0 4.449802,1118.553418" style="fill:none;stroke:#000000"/><path style="fill:none;stroke:#000000" d="M 4.45148 1118.55 L 4.4493 1118.55"/><path style="fill:none;stroke:#000000" d="M 4.45148 1118.55 L 4.4494 1118.55"/><path style="fill:none;stroke:#000000" d="M 4.45188 1118.55 L 4.45148 1118.55"/><path d="M 4.451881,1118.553268 A 0.002735,0.002735 0.000000 0 0 4.449802,1118.553418" style="fill:none;stroke:#000000"/><path d="M 4.537658,1118.553418 A 0.262782,0.262782 0.000000 0 0 4.534192,1118.469460" style="fill:none;stroke:#000000"/><path d="M 4.537658,1118.553418 A 0.002735,0.002735 0.000000 0 0 4.535580,1118.553268" style="fill:none;stroke:#000000"/><path style="fill:none;stroke:#000000" d="M 4.53558 1118.55 L 4.53598 1118.55"/><path style="fill:none;stroke:#000000" d="M 4.53598 1118.55 L 4.53806 1118.55"/><path style="fill:none;stroke:#000000" d="M 4.53598 1118.55 L 4.53817 1118.55"/><path style="fill:none;stroke:#000000" d="M 4.49373 1118.45 L 4.45198 1118.45"/><path style="fill:none;stroke:#000000" d="M 4.49373 1118.45 L 4.4519 1118.45"/><path style="fill:none;stroke:#000000" d="M 4.49373 1118.45 L 4.45198 1118.45"/><path style="fill:none;stroke:#000000" d="M 4.49373 1118.47 L 4.46942 1118.47"/><path d="M 4.451977,1118.449893 A 0.000099,0.000099 0.000000 0 0 4.451849,1118.450002" style="fill:none;stroke:#000000"/><path d="M 4.451993,1118.449707 A 0.000165,0.000165 0.000000 0 0 4.451828,1118.449921" style="fill:none;stroke:#000000"/><path d="M 4.451904,1118.447843 A 0.000550,0.000550 0.000000 0 0 4.451490,1118.448585" style="fill:none;stroke:#000000"/><path d="M 4.453357,1118.468870 A 0.054830,0.054830 0.000000 0 0 4.451490,1118.448585" style="fill:none;stroke:#000000"/><path style="fill:none;stroke:#000000" d="M 4.49373 1118.47 L 4.51804 1118.47"/><path d="M 4.535970,1118.448585 A 0.054830,0.054830 0.000000 0 0 4.534104,1118.468870" style="fill:none;stroke:#000000"/><path style="fill:none;stroke:#000000" d="M 4.49373 1118.45 L 4.53548 1118.45"/><path style="fill:none;stroke:#000000" d="M 4.49373 1118.45 L 4.53556 1118.45"/><path d="M 4.535970,1118.448585 A 0.000550,0.000550 0.000000 0 0 4.535556,1118.447843" style="fill:none;stroke:#000000"/><path d="M 4.535633,1118.449921 A 0.000165,0.000165 0.000000 0 0 4.535468,1118.449707" style="fill:none;stroke:#000000"/><path style="fill:none;stroke:#000000" d="M 4.49373 1118.45 L 4.53548 1118.45"/><path d="M 4.535611,1118.450002 A 0.000099,0.000099 0.000000 0 0 4.535483,1118.449893" style="fill:none;stroke:#000000"/></symbol><symbol id="4_SEATER_ROUND_TABLE"><path d="M 1596.965671,-895.954848 A 49.309578,49.309578 0.0 0 0 1594.784089,-876.062945 A 268.763245,268.763245 0.0 0 1 1598.329116,-790.193017 A 5.054178,5.054178 0.0 0 1 1592.769153,-790.859571 A 2.739063,2.739063 0.0 0 0 1590.687774,-791.010430 A 109.463977,109.463977 0.0 0 1 1578.380213,-790.193017 L 1548.777604,-790.193017 L 1519.174995,-790.193017 A 109.463977,109.463977 0.0 0 1 1506.867434,-791.010430 A 2.739063,2.739063 0.0 0 0 1504.786055,-790.859571 A 5.054178,5.054178 0.0 0 1 1499.226092,-790.193017 A 268.763245,268.763245 0.0 0 1 1502.771119,-876.062945 A 49.309578,49.309578 0.0 0 0 1500.589537,-895.954848 A 2.868366,2.868366 0.0 0 1 1503.043772,-900.321916 L 1594.511436,-900.321916 A 2.868366,2.868366 0.0 0 1 1596.965671,-895.954848 z" style="fill:none;stroke:#00004C"/><use xlink:href="#A%24C2C166547" style="stroke-width:0.001px" transform="matrix(1000 0 0 1000 -2944.88 -1.11934e+06)"/><path d="M 1501.397906,-442.994331 A 49.309578,49.309578 0.0 0 0 1503.579489,-462.886234 A 268.763245,268.763245 0.0 0 1 1500.034462,-548.756161 A 5.054178,5.054178 0.0 0 1 1505.594424,-548.089608 A 2.739063,2.739063 0.0 0 0 1507.675804,-547.938749 A 109.463977,109.463977 0.0 0 1 1519.983365,-548.756161 L 1549.585974,-548.756161 L 1579.188583,-548.756161 A 109.463977,109.463977 0.0 0 1 1591.496144,-547.938749 A 2.739063,2.739063 0.0 0 0 1593.577523,-548.089608 A 5.054178,5.054178 0.0 0 1 1599.137485,-548.756161 A 268.763245,268.763245 0.0 0 1 1595.592458,-462.886234 A 49.309578,49.309578 0.0 0 0 1597.774041,-442.994331 A 2.868366,2.868366 0.0 0 1 1595.319805,-438.627262 L 1503.852142,-438.627262 A 2.868366,2.868366 0.0 0 1 1501.397906,-442.994331 z" style="fill:none;stroke:#00004C"/><use xlink:href="#A%24C2C166547" style="stroke-width:0.001px" transform="matrix(-1000 1.22465e-13 -1.22465e-13 -1000 6043.24 1.11801e+06)"/><path d="M 1658.445682,-669.474589 A 109.263893,109.263893 0.000000 0, 0 1439.917896,-669.474589 A 109.263893,109.263893 0.000000 0, 0 1658.445682,-669.474589 z" style="fill:none;stroke:#00004C"/><path d="M 1662.998344,-669.474589 A 113.816555,113.816555 0.000000 0, 0 1435.365233,-669.474589 A 113.816555,113.816555 0.000000 0, 0 1662.998344,-669.474589 z" style="fill:none;stroke:#00004C"/><path d="M 1775.662048,-621.690707 A 49.309578,49.309578 0.0 0 0 1755.770145,-623.872290 A 268.763245,268.763245 0.0 0 1 1669.900217,-620.327263 A 5.054178,5.054178 0.0 0 1 1670.566770,-625.887225 A 2.739063,2.739063 0.0 0 0 1670.717629,-627.968604 A 109.463977,109.463977 0.0 0 1 1669.900217,-640.276165 L 1669.900217,-669.878774 L 1669.900217,-699.481383 A 109.463977,109.463977 0.0 0 1 1670.717629,-711.788944 A 2.739063,2.739063 0.0 0 0 1670.566770,-713.870324 A 5.054178,5.054178 0.0 0 1 1669.900217,-719.430286 A 268.763245,268.763245 0.0 0 1 1755.770145,-715.885259 A 49.309578,49.309578 0.0 0 0 1775.662048,-718.066842 A 2.868366,2.868366 0.0 0 1 1780.029116,-715.612606 L 1780.029116,-624.144943 A 2.868366,2.868366 0.0 0 1 1775.662048,-621.690707 z" style="fill:none;stroke:#00004C"/><use xlink:href="#A%24C2C166547" style="stroke-width:0.001px" transform="matrix(6.12323e-14 1000 -1000 6.12323e-14 1.12022e+06 -5164.52)"/><path d="M 1322.701530,-717.258472 A 49.309578,49.309578 0.0 0 0 1342.593433,-715.076889 A 268.763245,268.763245 0.0 0 1 1428.463361,-718.621916 A 5.054178,5.054178 0.0 0 1 1427.796807,-713.061954 A 2.739063,2.739063 0.0 0 0 1427.645949,-710.980574 A 109.463977,109.463977 0.0 0 1 1428.463361,-698.673013 L 1428.463361,-669.070405 L 1428.463361,-639.467796 A 109.463977,109.463977 0.0 0 1 1427.645949,-627.160235 A 2.739063,2.739063 0.0 0 0 1427.796807,-625.078855 A 5.054178,5.054178 0.0 0 1 1428.463361,-619.518893 A 268.763245,268.763245 0.0 0 1 1342.593433,-623.063920 A 49.309578,49.309578 0.0 0 0 1322.701530,-620.882337 A 2.868366,2.868366 0.0 0 1 1318.334462,-623.336573 L 1318.334462,-714.804236 A 2.868366,2.868366 0.0 0 1 1322.701530,-717.258472 z" style="fill:none;stroke:#00004C"/><use xlink:href="#A%24C2C166547" style="stroke-width:0.001px" transform="matrix(-1.83697e-13 -1000 1000 -1.83697e-13 -1.11713e+06 3821.35)"/></symbol><symbol id="6_SEATER_ROUND_TABLE"><use xlink:href="#A%24C2C166547" style="stroke-width:0.001px" transform="matrix(500 866.025 -866.025 500 968775 -562695)"/><path d="M 2441.499029,464.193978 A 49.309578,49.309578 0.0 0 0 2423.181344,472.250624 A 268.763245,268.763245 0.0 0 1 2350.588318,518.255671 A 5.054178,5.054178 0.0 0 1 2348.385590,513.107326 A 2.739063,2.739063 0.0 0 0 2347.475547,511.229369 A 109.463977,109.463977 0.0 0 1 2340.613867,500.979415 L 2325.812562,475.342803 L 2311.011258,449.706192 A 109.463977,109.463977 0.0 0 1 2305.565377,438.638826 A 2.739063,2.739063 0.0 0 0 2304.394040,436.911727 A 5.054178,5.054178 0.0 0 1 2301.036807,432.429936 A 268.763245,268.763245 0.0 0 1 2377.174859,392.565055 A 49.309578,49.309578 0.0 0 0 2393.310961,380.729797 A 2.868366,2.868366 0.0 0 1 2398.320071,380.671694 L 2444.053903,459.885014 A 2.868366,2.868366 0.0 0 1 2441.499029,464.193978 z" style="fill:none;stroke:#00004C"/><use xlink:href="#A%24C2C166547" style="stroke-width:0.001px" transform="matrix(500 -866.025 866.025 500 -968876 -554911)"/><path d="M 1999.939699,381.429866 A 49.309578,49.309578 0.0 0 0 2016.075801,393.265124 A 268.763245,268.763245 0.0 0 1 2092.213854,433.130004 A 5.054178,5.054178 0.0 0 1 2088.856620,437.611796 A 2.739063,2.739063 0.0 0 0 2087.685283,439.338894 A 109.463977,109.463977 0.0 0 1 2082.239402,450.406261 L 2067.438098,476.042872 L 2052.636793,501.679484 A 109.463977,109.463977 0.0 0 1 2045.775113,511.929438 A 2.739063,2.739063 0.0 0 0 2044.865071,513.807395 A 5.054178,5.054178 0.0 0 1 2042.662342,518.955740 A 268.763245,268.763245 0.0 0 1 1970.069316,472.950693 A 49.309578,49.309578 0.0 0 0 1951.751632,464.894047 A 2.868366,2.868366 0.0 0 1 1949.196758,460.585083 L 1994.930589,381.371763 A 2.868366,2.868366 0.0 0 1 1999.939699,381.429866 z" style="fill:none;stroke:#00004C"/><path d="M 2244.611305,295.344724 A 49.309578,49.309578 0.0 0 0 2242.429722,315.236627 A 268.763245,268.763245 0.0 0 1 2245.974749,401.106554 A 5.054178,5.054178 0.0 0 1 2240.414787,400.440001 A 2.739063,2.739063 0.0 0 0 2238.333407,400.289142 A 109.463977,109.463977 0.0 0 1 2226.025847,401.106554 L 2196.423238,401.106554 L 2166.820629,401.106554 A 109.463977,109.463977 0.0 0 1 2154.513068,400.289142 A 2.739063,2.739063 0.0 0 0 2152.431688,400.440001 A 5.054178,5.054178 0.0 0 1 2146.871726,401.106554 A 268.763245,268.763245 0.0 0 1 2150.416753,315.236627 A 49.309578,49.309578 0.0 0 0 2148.235170,295.344724 A 2.868366,2.868366 0.0 0 1 2150.689406,290.977655 L 2242.157069,290.977655 A 2.868366,2.868366 0.0 0 1 2244.611305,295.344724 z" style="fill:none;stroke:#00004C"/><use xlink:href="#A%24C2C166547" style="stroke-width:0.001px" transform="matrix(1000 0 0 1000 -2297.24 -1.11815e+06)"/><use xlink:href="#A%24C2C166547" style="stroke-width:0.001px" transform="matrix(-1000 1.22465e-13 -1.22465e-13 -1000 6690.89 1.11926e+06)"/><path d="M 2149.043540,805.213519 A 49.309578,49.309578 0.0 0 0 2151.225123,785.321616 A 268.763245,268.763245 0.0 0 1 2147.680096,699.451688 A 5.054178,5.054178 0.0 0 1 2153.240058,700.118242 A 2.739063,2.739063 0.0 0 0 2155.321438,700.269100 A 109.463977,109.463977 0.0 0 1 2167.628998,699.451688 L 2197.231607,699.451688 L 2226.834216,699.451688 A 109.463977,109.463977 0.0 0 1 2239.141777,700.269100 A 2.739063,2.739063 0.0 0 0 2241.223157,700.118242 A 5.054178,5.054178 0.0 0 1 2246.783119,699.451688 A 268.763245,268.763245 0.0 0 1 2243.238092,785.321616 A 49.309578,49.309578 0.0 0 0 2245.419675,805.213519 A 2.868366,2.868366 0.0 0 1 2242.965439,809.580587 L 2151.497776,809.580587 A 2.868366,2.868366 0.0 0 1 2149.043540,805.213519 z" style="fill:none;stroke:#00004C"/><path d="M 2334.545455,550.279121 A 137.718032,137.718032 0.000000 0, 0 2059.109390,550.279121 A 137.718032,137.718032 0.000000 0, 0 2334.545455,550.279121 z" style="fill:none;stroke:#00004C"/><path d="M 2339.098117,550.279121 A 142.270694,142.270694 0.000000 0, 0 2054.556728,550.279121 A 142.270694,142.270694 0.000000 0, 0 2339.098117,550.279121 z" style="fill:none;stroke:#00004C"/><use xlink:href="#A%24C2C166547" style="stroke-width:0.001px" transform="matrix(-500 -866.025 866.025 -500 -964382 563792)"/><path d="M 1952.155817,636.364264 A 49.309578,49.309578 0.0 0 0 1970.473501,628.307619 A 268.763245,268.763245 0.0 0 1 2043.066527,582.302571 A 5.054178,5.054178 0.0 0 1 2045.269256,587.450917 A 2.739063,2.739063 0.0 0 0 2046.179298,589.328873 A 109.463977,109.463977 0.0 0 1 2053.040978,599.578828 L 2067.842283,625.215439 L 2082.643587,650.852050 A 109.463977,109.463977 0.0 0 1 2088.089468,661.919417 A 2.739063,2.739063 0.0 0 0 2089.260805,663.646515 A 5.054178,5.054178 0.0 0 1 2092.618038,668.128307 A 268.763245,268.763245 0.0 0 1 2016.479986,707.993187 A 49.309578,49.309578 0.0 0 0 2000.343884,719.828445 A 2.868366,2.868366 0.0 0 1 1995.334774,719.886549 L 1949.600942,640.673228 A 2.868366,2.868366 0.0 0 1 1952.155817,636.364264 z" style="fill:none;stroke:#00004C"/><use xlink:href="#A%24C2C166547" style="stroke-width:0.001px" transform="matrix(-500 866.025 -866.025 -500 973269 556008)"/><path d="M 2393.715146,719.128376 A 49.309578,49.309578 0.0 0 0 2377.579044,707.293119 A 268.763245,268.763245 0.0 0 1 2301.440992,667.428238 A 5.054178,5.054178 0.0 0 1 2304.798225,662.946446 A 2.739063,2.739063 0.0 0 0 2305.969562,661.219348 A 109.463977,109.463977 0.0 0 1 2311.415443,650.151982 L 2326.216747,624.515370 L 2341.018052,598.878759 A 109.463977,109.463977 0.0 0 1 2347.879732,588.628805 A 2.739063,2.739063 0.0 0 0 2348.789774,586.750848 A 5.054178,5.054178 0.0 0 1 2350.992503,581.602502 A 268.763245,268.763245 0.0 0 1 2423.585529,627.607550 A 49.309578,49.309578 0.0 0 0 2441.903213,635.664195 A 2.868366,2.868366 0.0 0 1 2444.458088,639.973160 L 2398.724256,719.186480 A 2.868366,2.868366 0.0 0 1 2393.715146,719.128376 z" style="fill:none;stroke:#00004C"/></symbol><symbol id="A$C1D6968EA"><path d="M 4.552769,1118.549863 A 0.054830,0.054830 0.000000 0 0 4.532484,1118.547996" style="fill:none;stroke:#000000"/><path d="M 4.548586,1118.548842 A 0.072232,0.072232 0.000000 0 0 4.528250,1118.545489" style="fill:none;stroke:#000000"/><path d="M 4.528250,1118.469756 A 0.072232,0.072232 0.000000 0 0 4.548586,1118.466404" style="fill:none;stroke:#000000"/><path d="M 4.532484,1118.467250 A 0.054830,0.054830 0.000000 0 0 4.552769,1118.465383" style="fill:none;stroke:#000000"/><path style="fill:none;stroke:#000000" d="M 4.53301 1118.51 L 4.53301 1118.53"/><path d="M 4.447935,1118.551551 A 0.262782,0.262782 0.000000 0 0 4.531894,1118.548085" style="fill:none;stroke:#000000"/><path d="M 4.524081,1118.549560 A 0.022270,0.022270 0.000000 0 0 4.533008,1118.531931" style="fill:none;stroke:#000000"/><path d="M 4.447935,1118.551551 A 0.002735,0.002735 0.000000 0 0 4.448085,1118.549472" style="fill:none;stroke:#000000"/><path style="fill:none;stroke:#000000" d="M 4.44808 1118.55 L 4.4525 1118.55"/><path style="fill:none;stroke:#000000" d="M 4.4525 1118.55 L 4.45152 1118.55"/><path style="fill:none;stroke:#000000" d="M 4.4525 1118.55 L 4.4525 1118.55"/><path style="fill:none;stroke:#000000" d="M 4.4525 1118.47 L 4.4525 1118.46"/><path style="fill:none;stroke:#000000" d="M 4.4525 1118.47 L 4.45152 1118.46"/><path style="fill:none;stroke:#000000" d="M 4.44808 1118.47 L 4.4525 1118.47"/><path d="M 4.448085,1118.465774 A 0.002735,0.002735 0.000000 0 0 4.447935,1118.463695" style="fill:none;stroke:#000000"/><path d="M 4.533008,1118.483315 A 0.022270,0.022270 0.000000 0 0 4.524081,1118.465686" style="fill:none;stroke:#000000"/><path d="M 4.531894,1118.467161 A 0.262782,0.262782 0.000000 0 0 4.447935,1118.463695" style="fill:none;stroke:#000000"/><path style="fill:none;stroke:#000000" d="M 4.53301 1118.51 L 4.53301 1118.48"/><path style="fill:none;stroke:#000000" d="M 4.55165 1118.51 L 4.55165 1118.55"/><path style="fill:none;stroke:#000000" d="M 4.55351 1118.51 L 4.55351 1118.55"/><path d="M 4.552769,1118.549863 A 0.000550,0.000550 0.000000 0 0 4.553511,1118.549449" style="fill:none;stroke:#000000"/><path d="M 4.551432,1118.549526 A 0.000165,0.000165 0.000000 0 0 4.551647,1118.549361" style="fill:none;stroke:#000000"/><path style="fill:none;stroke:#000000" d="M 4.55146 1118.51 L 4.55146 1118.55"/><path d="M 4.551351,1118.549504 A 0.000099,0.000099 0.000000 0 0 4.551460,1118.549376" style="fill:none;stroke:#000000"/><path d="M 4.551460,1118.465870 A 0.000099,0.000099 0.000000 0 0 4.551351,1118.465742" style="fill:none;stroke:#000000"/><path style="fill:none;stroke:#000000" d="M 4.55146 1118.51 L 4.55146 1118.47"/><path d="M 4.551647,1118.465885 A 0.000165,0.000165 0.000000 0 0 4.551432,1118.465720" style="fill:none;stroke:#000000"/><path d="M 4.553511,1118.465797 A 0.000550,0.000550 0.000000 0 0 4.552769,1118.465383" style="fill:none;stroke:#000000"/><path style="fill:none;stroke:#000000" d="M 4.55351 1118.51 L 4.55351 1118.47"/><path style="fill:none;stroke:#000000" d="M 4.55165 1118.51 L 4.55165 1118.47"/></symbol><symbol id="8_SEATER_ROUND_TABLE"><use xlink:href="#A%24C1D6968EA" style="stroke-width:0.001px" transform="matrix(-1.83697e-13 -1000 1000 -1.83697e-13 -1.11546e+06 4011.35)"/><path d="M 3091.135305,-545.234731 A 49.309578,49.309578 0.0 0 0 3088.953722,-525.342828 A 268.763245,268.763245 0.0 0 1 3092.498749,-439.472901 A 5.054178,5.054178 0.0 0 1 3086.938787,-440.139454 A 2.739063,2.739063 0.0 0 0 3084.857407,-440.290313 A 109.463977,109.463977 0.0 0 1 3072.549846,-439.472901 L 3042.947237,-439.472901 L 3013.344628,-439.472901 A 109.463977,109.463977 0.0 0 1 3001.037068,-440.290313 A 2.739063,2.739063 0.0 0 0 2998.955688,-440.139454 A 5.054178,5.054178 0.0 0 1 2993.395726,-439.472901 A 268.763245,268.763245 0.0 0 1 2996.940753,-525.342828 A 49.309578,49.309578 0.0 0 0 2994.759170,-545.234731 A 2.868366,2.868366 0.0 0 1 2997.213406,-549.601800 L 3088.681069,-549.601800 A 2.868366,2.868366 0.0 0 1 3091.135305,-545.234731 z" style="fill:none;stroke:#00004C"/><use xlink:href="#A%24C1D6968EA" style="stroke-width:0.001px" transform="matrix(1000 0 0 1000 -1221.08 -1.11876e+06)"/><path d="M 3331.953723,-208.040179 A 49.309578,49.309578 0.0 0 0 3312.061820,-210.221762 A 268.763245,268.763245 0.0 0 1 3226.191892,-206.676735 A 5.054178,5.054178 0.0 0 1 3226.858445,-212.236697 A 2.739063,2.739063 0.0 0 0 3227.009304,-214.318076 A 109.463977,109.463977 0.0 0 1 3226.191892,-226.625637 L 3226.191892,-256.228246 L 3226.191892,-285.830855 A 109.463977,109.463977 0.0 0 1 3227.009304,-298.138416 A 2.739063,2.739063 0.0 0 0 3226.858445,-300.219796 A 5.054178,5.054178 0.0 0 1 3226.191892,-305.779758 A 268.763245,268.763245 0.0 0 1 3312.061820,-302.234731 A 49.309578,49.309578 0.0 0 0 3331.953723,-304.416314 A 2.868366,2.868366 0.0 0 1 3336.320791,-301.962078 L 3336.320791,-210.494415 A 2.868366,2.868366 0.0 0 1 3331.953723,-208.040179 z" style="fill:none;stroke:#00004C"/><use xlink:href="#A%24C1D6968EA" style="stroke-width:0.001px" transform="matrix(707.107 -707.107 707.107 707.107 -790876 -788148)"/><path d="M 3281.379792,-426.512583 A 49.309578,49.309578 0.0 0 0 3265.771481,-413.989495 A 268.763245,268.763245 0.0 0 1 3207.558985,-350.763574 A 5.054178,5.054178 0.0 0 1 3204.098822,-355.166386 A 2.739063,2.739063 0.0 0 0 3202.733738,-356.744816 A 109.463977,109.463977 0.0 0 1 3193.452981,-364.869578 L 3172.520775,-385.801784 L 3151.588569,-406.733989 A 109.463977,109.463977 0.0 0 1 3143.463807,-416.014747 A 2.739063,2.739063 0.0 0 0 3141.885377,-417.379831 A 5.054178,5.054178 0.0 0 1 3137.482565,-420.839994 A 268.763245,268.763245 0.0 0 1 3200.708486,-479.052489 A 49.309578,49.309578 0.0 0 0 3213.231574,-494.660801 A 2.868366,2.868366 0.0 0 1 3218.054964,-496.013378 L 3282.732369,-431.335973 A 2.868366,2.868366 0.0 0 1 3281.379792,-426.512583 z" style="fill:none;stroke:#00004C"/><use xlink:href="#A%24C1D6968EA" style="stroke-width:0.001px" transform="matrix(-1000 1.22465e-13 -1.22465e-13 -1000 7306.97 1.11825e+06)"/><path d="M 2753.940752,-304.416314 A 49.309578,49.309578 0.0 0 0 2773.832655,-302.234731 A 268.763245,268.763245 0.0 0 1 2859.702583,-305.779758 A 5.054178,5.054178 0.0 0 1 2859.036030,-300.219796 A 2.739063,2.739063 0.0 0 0 2858.885171,-298.138416 A 109.463977,109.463977 0.0 0 1 2859.702583,-285.830855 L 2859.702583,-256.228246 L 2859.702583,-226.625637 A 109.463977,109.463977 0.0 0 1 2858.885171,-214.318076 A 2.739063,2.739063 0.0 0 0 2859.036030,-212.236697 A 5.054178,5.054178 0.0 0 1 2859.702583,-206.676735 A 268.763245,268.763245 0.0 0 1 2773.832655,-210.221762 A 49.309578,49.309578 0.0 0 0 2753.940752,-208.040179 A 2.868366,2.868366 0.0 0 1 2749.573684,-210.494415 L 2749.573684,-301.962078 A 2.868366,2.868366 0.0 0 1 2753.940752,-304.416314 z" style="fill:none;stroke:#00004C"/><use xlink:href="#A%24C1D6968EA" style="stroke-width:0.001px" transform="matrix(-707.107 -707.107 707.107 -707.107 -784846 793665)"/><path d="M 2872.662901,-494.660801 A 49.309578,49.309578 0.0 0 0 2885.185989,-479.052489 A 268.763245,268.763245 0.0 0 1 2948.411910,-420.839994 A 5.054178,5.054178 0.0 0 1 2944.009098,-417.379831 A 2.739063,2.739063 0.0 0 0 2942.430667,-416.014747 A 109.463977,109.463977 0.0 0 1 2934.305905,-406.733989 L 2913.373700,-385.801784 L 2892.441494,-364.869578 A 109.463977,109.463977 0.0 0 1 2883.160737,-356.744816 A 2.739063,2.739063 0.0 0 0 2881.795652,-355.166386 A 5.054178,5.054178 0.0 0 1 2878.335490,-350.763574 A 268.763245,268.763245 0.0 0 1 2820.122994,-413.989495 A 49.309578,49.309578 0.0 0 0 2804.514683,-426.512583 A 2.868366,2.868366 0.0 0 1 2803.162106,-431.335973 L 2867.839511,-496.013378 A 2.868366,2.868366 0.0 0 1 2872.662901,-494.660801 z" style="fill:none;stroke:#00004C"/><use xlink:href="#A%24C1D6968EA" style="stroke-width:0.001px" transform="matrix(6.12323e-14 1000 -1000 6.12323e-14 1.12155e+06 -4524.52)"/><path d="M 2994.759170,32.778239 A 49.309578,49.309578 0.0 0 0 2996.940753,12.886336 A 268.763245,268.763245 0.0 0 1 2993.395726,-72.983592 A 5.054178,5.054178 0.0 0 1 2998.955688,-72.317038 A 2.739063,2.739063 0.0 0 0 3001.037068,-72.166180 A 109.463977,109.463977 0.0 0 1 3013.344628,-72.983592 L 3042.947237,-72.983592 L 3072.549846,-72.983592 A 109.463977,109.463977 0.0 0 1 3084.857407,-72.166180 A 2.739063,2.739063 0.0 0 0 3086.938787,-72.317038 A 5.054178,5.054178 0.0 0 1 3092.498749,-72.983592 A 268.763245,268.763245 0.0 0 1 3088.953722,12.886336 A 49.309578,49.309578 0.0 0 0 3091.135305,32.778239 A 2.868366,2.868366 0.0 0 1 3088.681069,37.145307 L 2997.213406,37.145307 A 2.868366,2.868366 0.0 0 1 2994.759170,32.778239 z" style="fill:none;stroke:#00004C"/><use xlink:href="#A%24C1D6968EA" style="stroke-width:0.001px" transform="matrix(707.107 707.107 -707.107 707.107 790932 -794178)"/><path d="M 3213.231574,-17.795692 A 49.309578,49.309578 0.0 0 0 3200.708486,-33.404003 A 268.763245,268.763245 0.0 0 1 3137.482565,-91.616499 A 5.054178,5.054178 0.0 0 1 3141.885377,-95.076661 A 2.739063,2.739063 0.0 0 0 3143.463807,-96.441746 A 109.463977,109.463977 0.0 0 1 3151.588569,-105.722503 L 3172.520775,-126.654709 L 3193.452981,-147.586914 A 109.463977,109.463977 0.0 0 1 3202.733738,-155.711676 A 2.739063,2.739063 0.0 0 0 3204.098822,-157.290107 A 5.054178,5.054178 0.0 0 1 3207.558985,-161.692919 A 268.763245,268.763245 0.0 0 1 3265.771481,-98.466998 A 49.309578,49.309578 0.0 0 0 3281.379792,-85.943910 A 2.868366,2.868366 0.0 0 1 3282.732369,-81.120520 L 3218.054964,-16.443115 A 2.868366,2.868366 0.0 0 1 3213.231574,-17.795692 z" style="fill:none;stroke:#00004C"/><use xlink:href="#A%24C1D6968EA" style="stroke-width:0.001px" transform="matrix(-707.107 707.107 -707.107 -707.107 796962 787635)"/><path d="M 2804.514683,-85.943910 A 49.309578,49.309578 0.0 0 0 2820.122994,-98.466998 A 268.763245,268.763245 0.0 0 1 2878.335490,-161.692919 A 5.054178,5.054178 0.0 0 1 2881.795652,-157.290107 A 2.739063,2.739063 0.0 0 0 2883.160737,-155.711676 A 109.463977,109.463977 0.0 0 1 2892.441494,-147.586914 L 2913.373700,-126.654709 L 2934.305905,-105.722503 A 109.463977,109.463977 0.0 0 1 2942.430667,-96.441746 A 2.739063,2.739063 0.0 0 0 2944.009098,-95.076661 A 5.054178,5.054178 0.0 0 1 2948.411910,-91.616499 A 268.763245,268.763245 0.0 0 1 2885.185989,-33.404003 A 49.309578,49.309578 0.0 0 0 2872.662901,-17.795692 A 2.868366,2.868366 0.0 0 1 2867.839511,-16.443115 L 2803.162106,-81.120520 A 2.868366,2.868366 0.0 0 1 2804.514683,-85.943910 z" style="fill:none;stroke:#00004C"/><path d="M 3214.810236,-256.228246 A 171.862999,171.862999 0.000000 0, 0 2871.084239,-256.228246 A 171.862999,171.862999 0.000000 0, 0 3214.810236,-256.228246 z" style="fill:none;stroke:#00004C"/><path d="M 3219.362898,-256.228246 A 176.415661,176.415661 0.000000 0, 0 2866.531577,-256.228246 A 176.415661,176.415661 0.000000 0, 0 3219.362898,-256.228246 z" style="fill:none;stroke:#00004C"/></symbol><symbol id="8_SEATER_ROUND_TABLE_1350M"><path d="M 3180.665269,550.279121 A 137.718032,137.718032 0.000000 0, 0 2905.229205,550.279121 A 137.718032,137.718032 0.000000 0, 0 3180.665269,550.279121 z" style="fill:none;stroke:#00004C"/><path d="M 3185.217932,550.279121 A 142.270694,142.270694 0.000000 0, 0 2900.676543,550.279121 A 142.270694,142.270694 0.000000 0, 0 3185.217932,550.279121 z" style="fill:none;stroke:#00004C"/><use xlink:href="#%2AU12" style="stroke-width:0.500px"/></symbol><symbol id="*U11"><path d="M 52.636002,1067.584521 A 49.309578,49.309578 0.0 0 0 50.454419,1087.476424 A 268.763245,268.763245 0.0 0 1 53.999446,1173.346352 A 5.054178,5.054178 0.0 0 1 48.439484,1172.679798 A 2.739063,2.739063 0.0 0 0 46.358105,1172.528940 A 109.463977,109.463977 0.0 0 1 34.050544,1173.346352 L 4.447935,1173.346352 L -25.154674,1173.346352 A 109.463977,109.463977 0.0 0 1 -37.462235,1172.528940 A 2.739063,2.739063 0.0 0 0 -39.543615,1172.679798 A 5.054178,5.054178 0.0 0 1 -45.103577,1173.346352 A 268.763245,268.763245 0.0 0 1 -41.558550,1087.476424 A 49.309578,49.309578 0.0 0 0 -43.740133,1067.584521 A 2.868366,2.868366 0.0 0 1 -41.285897,1063.217453 L 50.181767,1063.217453 A 2.868366,2.868366 0.0 0 1 52.636002,1067.584521 z" style="fill:none;stroke:#00004C"/><use xlink:href="#A%24C2C166547" style="stroke-width:0.001px" transform="matrix(1000 0 0 1000 -4489.21 -1.11738e+06)"/></symbol><symbol id="*U12"><use xlink:href="#%2AU11" style="stroke-width:0.500px" transform="translate(3038.1, -772.24)"/><use xlink:href="#%2AU11" style="stroke-width:0.500px" transform="matrix(0.707107 -0.707107 0.707107 0.707107 2104.36 -381.452)"/><use xlink:href="#%2AU11" style="stroke-width:0.500px" transform="matrix(-1.07188e-15 -1 1 -1.07188e-15 1720.42 555.131)"/><use xlink:href="#%2AU11" style="stroke-width:0.500px" transform="matrix(-0.707107 -0.707107 0.707107 -0.707107 2111.22 1488.87)"/><use xlink:href="#%2AU11" style="stroke-width:0.500px" transform="matrix(-1 1.22465e-16 -1.22465e-16 -1 3047.8 1872.8)"/><use xlink:href="#%2AU11" style="stroke-width:0.500px" transform="matrix(-0.707107 0.707107 -0.707107 -0.707107 3981.54 1482.01)"/><use xlink:href="#%2AU11" style="stroke-width:0.500px" transform="matrix(2.05963e-15 1 -1 2.05963e-15 4365.46 545.427)"/><use xlink:href="#%2AU11" style="stroke-width:0.500px" transform="matrix(0.707107 0.707107 -0.707107 0.707107 3974.68 -388.313)"/></symbol><symbol id="10_SEATER_ROUND_TABLE"><path d="M 2501.734292,-304.630561 A 49.309578,49.309578 0.0 0 0 2482.141822,-300.558434 A 268.763245,268.763245 0.0 0 1 2401.570141,-270.651646 A 5.054178,5.054178 0.0 0 1 2400.485948,-276.145460 A 2.739063,2.739063 0.0 0 0 2399.986242,-278.171588 A 109.463977,109.463977 0.0 0 1 2395.405591,-289.624179 L 2386.257882,-317.777934 L 2377.110173,-345.931688 A 109.463977,109.463977 0.0 0 1 2374.084332,-357.889468 A 2.739063,2.739063 0.0 0 0 2373.297676,-359.822360 A 5.054178,5.054178 0.0 0 1 2370.945623,-364.904222 A 268.763245,268.763245 0.0 0 1 2453.708251,-388.067968 A 49.309578,49.309578 0.0 0 0 2471.952428,-396.289712 A 2.868366,2.868366 0.0 0 1 2476.864158,-395.305094 L 2505.129220,-308.314176 A 2.868366,2.868366 0.0 0 1 2501.734292,-304.630561 z" style="fill:none;stroke:#00004C"/><use xlink:href="#A%24C1D6968EA" style="stroke-width:0.001px" transform="matrix(951.057 -309.017 309.017 951.057 -347481 -1.06271e+06)"/><path d="M 2245.015490,-561.169049 A 49.309578,49.309578 0.0 0 0 2242.833907,-541.277146 A 268.763245,268.763245 0.0 0 1 2246.378934,-455.407218 A 5.054178,5.054178 0.0 0 1 2240.818972,-456.073772 A 2.739063,2.739063 0.0 0 0 2238.737592,-456.224630 A 109.463977,109.463977 0.0 0 1 2226.430032,-455.407218 L 2196.827423,-455.407218 L 2167.224814,-455.407218 A 109.463977,109.463977 0.0 0 1 2154.917253,-456.224630 A 2.739063,2.739063 0.0 0 0 2152.835873,-456.073772 A 5.054178,5.054178 0.0 0 1 2147.275911,-455.407218 A 268.763245,268.763245 0.0 0 1 2150.820938,-541.277146 A 49.309578,49.309578 0.0 0 0 2148.639355,-561.169049 A 2.868366,2.868366 0.0 0 1 2151.093591,-565.536117 L 2242.561254,-565.536117 A 2.868366,2.868366 0.0 0 1 2245.015490,-561.169049 z" style="fill:none;stroke:#00004C"/><use xlink:href="#A%24C1D6968EA" style="stroke-width:0.001px" transform="matrix(-1.83697e-13 -1000 1000 -1.83697e-13 -1.11631e+06 3991.35)"/><path d="M 2415.052095,-474.606303 A 49.309578,49.309578 0.0 0 0 2401.594990,-459.795717 A 268.763245,268.763245 0.0 0 1 2353.989900,-388.241772 A 5.054178,5.054178 0.0 0 1 2349.883586,-392.049089 A 2.739063,2.739063 0.0 0 0 2348.288387,-393.394540 A 109.463977,109.463977 0.0 0 1 2337.850899,-399.967443 L 2313.901885,-417.367420 L 2289.952871,-434.767397 A 109.463977,109.463977 0.0 0 1 2280.476308,-442.662900 A 2.739063,2.739063 0.0 0 0 2278.703764,-443.764257 A 5.054178,5.054178 0.0 0 1 2273.813870,-446.493067 A 268.763245,268.763245 0.0 0 1 2327.154934,-513.879584 A 49.309578,49.309578 0.0 0 0 2337.082164,-531.254773 A 2.868366,2.868366 0.0 0 1 2341.634580,-533.345242 L 2415.633475,-479.581899 A 2.868366,2.868366 0.0 0 1 2415.052095,-474.606303 z" style="fill:none;stroke:#00004C"/><use xlink:href="#A%24C1D6968EA" style="stroke-width:0.001px" transform="matrix(587.785 -809.017 809.017 587.785 -905192 -654257)"/><path d="M 1921.702417,-396.289712 A 49.309578,49.309578 0.0 0 0 1939.946594,-388.067968 A 268.763245,268.763245 0.0 0 1 2022.709223,-364.904222 A 5.054178,5.054178 0.0 0 1 2020.357170,-359.822360 A 2.739063,2.739063 0.0 0 0 2019.570513,-357.889468 A 109.463977,109.463977 0.0 0 1 2016.544673,-345.931688 L 2007.396963,-317.777934 L 1998.249254,-289.624179 A 109.463977,109.463977 0.0 0 1 1993.668603,-278.171588 A 2.739063,2.739063 0.0 0 0 1993.168897,-276.145460 A 5.054178,5.054178 0.0 0 1 1992.084704,-270.651646 A 268.763245,268.763245 0.0 0 1 1911.513023,-300.558434 A 49.309578,49.309578 0.0 0 0 1891.920553,-304.630561 A 2.868366,2.868366 0.0 0 1 1888.525625,-308.314176 L 1916.790688,-395.305094 A 2.868366,2.868366 0.0 0 1 1921.702417,-396.289712 z" style="fill:none;stroke:#00004C"/><path d="M 2056.572681,-531.254773 A 49.309578,49.309578 0.0 0 0 2066.499911,-513.879584 A 268.763245,268.763245 0.0 0 1 2119.840975,-446.493067 A 5.054178,5.054178 0.0 0 1 2114.951081,-443.764257 A 2.739063,2.739063 0.0 0 0 2113.178537,-442.662900 A 109.463977,109.463977 0.0 0 1 2103.701974,-434.767397 L 2079.752960,-417.367420 L 2055.803947,-399.967443 A 109.463977,109.463977 0.0 0 1 2045.366458,-393.394540 A 2.739063,2.739063 0.0 0 0 2043.771259,-392.049089 A 5.054178,5.054178 0.0 0 1 2039.664945,-388.241772 A 268.763245,268.763245 0.0 0 1 1992.059855,-459.795717 A 49.309578,49.309578 0.0 0 0 1978.602750,-474.606303 A 2.868366,2.868366 0.0 0 1 1978.021370,-479.581899 L 2052.020265,-533.345242 A 2.868366,2.868366 0.0 0 1 2056.572681,-531.254773 z" style="fill:none;stroke:#00004C"/><use xlink:href="#A%24C1D6968EA" style="stroke-width:0.001px" transform="matrix(-587.785 -809.017 809.017 -587.785 -900198 660621)"/><use xlink:href="#A%24C1D6968EA" style="stroke-width:0.001px" transform="matrix(-951.057 -309.017 309.017 -951.057 -339401 1.06482e+06)"/><use xlink:href="#A%24C1D6968EA" style="stroke-width:0.001px" transform="matrix(6.12323e-14 1000 -1000 6.12323e-14 1.1207e+06 -4504.52)"/><path d="M 2148.639355,48.712557 A 49.309578,49.309578 0.0 0 0 2150.820938,28.820654 A 268.763245,268.763245 0.0 0 1 2147.275911,-57.049274 A 5.054178,5.054178 0.0 0 1 2152.835873,-56.382721 A 2.739063,2.739063 0.0 0 0 2154.917253,-56.231862 A 109.463977,109.463977 0.0 0 1 2167.224814,-57.049274 L 2196.827423,-57.049274 L 2226.430032,-57.049274 A 109.463977,109.463977 0.0 0 1 2238.737592,-56.231862 A 2.739063,2.739063 0.0 0 0 2240.818972,-56.382721 A 5.054178,5.054178 0.0 0 1 2246.378934,-57.049274 A 268.763245,268.763245 0.0 0 1 2242.833907,28.820654 A 49.309578,49.309578 0.0 0 0 2245.015490,48.712557 A 2.868366,2.868366 0.0 0 1 2242.561254,53.079625 L 2151.093591,53.079625 A 2.868366,2.868366 0.0 0 1 2148.639355,48.712557 z" style="fill:none;stroke:#00004C"/><path d="M 2337.082164,18.798281 A 49.309578,49.309578 0.0 0 0 2327.154934,1.423091 A 268.763245,268.763245 0.0 0 1 2273.813870,-65.963425 A 5.054178,5.054178 0.0 0 1 2278.703764,-68.692236 A 2.739063,2.739063 0.0 0 0 2280.476308,-69.793593 A 109.463977,109.463977 0.0 0 1 2289.952871,-77.689096 L 2313.901885,-95.089073 L 2337.850899,-112.489050 A 109.463977,109.463977 0.0 0 1 2348.288387,-119.061952 A 2.739063,2.739063 0.0 0 0 2349.883586,-120.407404 A 5.054178,5.054178 0.0 0 1 2353.989900,-124.214721 A 268.763245,268.763245 0.0 0 1 2401.594990,-52.660775 A 49.309578,49.309578 0.0 0 0 2415.052095,-37.850190 A 2.868366,2.868366 0.0 0 1 2415.633475,-32.874594 L 2341.634580,20.888750 A 2.868366,2.868366 0.0 0 1 2337.082164,18.798281 z" style="fill:none;stroke:#00004C"/><use xlink:href="#A%24C1D6968EA" style="stroke-width:0.001px" transform="matrix(587.785 809.017 -809.017 587.785 904591 -661134)"/><path d="M 1978.602750,-37.850190 A 49.309578,49.309578 0.0 0 0 1992.059855,-52.660775 A 268.763245,268.763245 0.0 0 1 2039.664945,-124.214721 A 5.054178,5.054178 0.0 0 1 2043.771259,-120.407404 A 2.739063,2.739063 0.0 0 0 2045.366458,-119.061952 A 109.463977,109.463977 0.0 0 1 2055.803947,-112.489050 L 2079.752960,-95.089073 L 2103.701974,-77.689096 A 109.463977,109.463977 0.0 0 1 2113.178537,-69.793593 A 2.739063,2.739063 0.0 0 0 2114.951081,-68.692236 A 5.054178,5.054178 0.0 0 1 2119.840975,-65.963425 A 268.763245,268.763245 0.0 0 1 2066.499911,1.423091 A 49.309578,49.309578 0.0 0 0 2056.572681,18.798281 A 2.868366,2.868366 0.0 0 1 2052.020265,20.888750 L 1978.021370,-32.874594 A 2.868366,2.868366 0.0 0 1 1978.602750,-37.850190 z" style="fill:none;stroke:#00004C"/><use xlink:href="#A%24C1D6968EA" style="stroke-width:0.001px" transform="matrix(-587.785 809.017 -809.017 -587.785 909585 653754)"/><path d="M 2384.624739,-256.228246 A 187.797316,187.797316 0.000000 0, 0 2009.030106,-256.228246 A 187.797316,187.797316 0.000000 0, 0 2384.624739,-256.228246 z" style="fill:none;stroke:#00004C"/><path d="M 2390.315567,-256.228246 A 193.488144,193.488144 0.000000 0, 0 2003.339278,-256.228246 A 193.488144,193.488144 0.000000 0, 0 2390.315567,-256.228246 z" style="fill:none;stroke:#00004C"/><path d="M 1891.920553,-207.825931 A 49.309578,49.309578 0.0 0 0 1911.513023,-211.898059 A 268.763245,268.763245 0.0 0 1 1992.084704,-241.804847 A 5.054178,5.054178 0.0 0 1 1993.168897,-236.311032 A 2.739063,2.739063 0.0 0 0 1993.668603,-234.284905 A 109.463977,109.463977 0.0 0 1 1998.249254,-222.832313 L 2007.396963,-194.678559 L 2016.544673,-166.524805 A 109.463977,109.463977 0.0 0 1 2019.570513,-154.567025 A 2.739063,2.739063 0.0 0 0 2020.357170,-152.634133 A 5.054178,5.054178 0.0 0 1 2022.709223,-147.552271 A 268.763245,268.763245 0.0 0 1 1939.946594,-124.388525 A 49.309578,49.309578 0.0 0 0 1921.702417,-116.166780 A 2.868366,2.868366 0.0 0 1 1916.790688,-117.151399 L 1888.525625,-204.142316 A 2.868366,2.868366 0.0 0 1 1891.920553,-207.825931 z" style="fill:none;stroke:#00004C"/><use xlink:href="#A%24C1D6968EA" style="stroke-width:0.001px" transform="matrix(-951.057 309.017 -309.017 -951.057 351875 1.0622e+06)"/><path d="M 2471.952428,-116.166780 A 49.309578,49.309578 0.0 0 0 2453.708251,-124.388525 A 268.763245,268.763245 0.0 0 1 2370.945623,-147.552271 A 5.054178,5.054178 0.0 0 1 2373.297676,-152.634133 A 2.739063,2.739063 0.0 0 0 2374.084332,-154.567025 A 109.463977,109.463977 0.0 0 1 2377.110173,-166.524805 L 2386.257882,-194.678559 L 2395.405591,-222.832313 A 109.463977,109.463977 0.0 0 1 2399.986242,-234.284905 A 2.739063,2.739063 0.0 0 0 2400.485948,-236.311032 A 5.054178,5.054178 0.0 0 1 2401.570141,-241.804847 A 268.763245,268.763245 0.0 0 1 2482.141822,-211.898059 A 49.309578,49.309578 0.0 0 0 2501.734292,-207.825931 A 2.868366,2.868366 0.0 0 1 2505.129220,-204.142316 L 2476.864158,-117.151399 A 2.868366,2.868366 0.0 0 1 2471.952428,-116.166780 z" style="fill:none;stroke:#00004C"/><use xlink:href="#A%24C1D6968EA" style="stroke-width:0.001px" transform="matrix(951.057 309.017 -309.017 951.057 343794 -1.06533e+06)"/></symbol><symbol id="12_SEATER_ROUND_TABLE"><use xlink:href="#A%24C1D6968EA" style="stroke-width:0.001px" transform="matrix(866.025 -500 500 866.025 -559879 -967648)"/><path d="M 3342.040500,-1226.651381 A 49.309578,49.309578 0.0 0 0 3323.722815,-1218.594736 A 268.763245,268.763245 0.0 0 1 3251.129789,-1172.589688 A 5.054178,5.054178 0.0 0 1 3248.927061,-1177.738034 A 2.739063,2.739063 0.0 0 0 3248.017018,-1179.615990 A 109.463977,109.463977 0.0 0 1 3241.155338,-1189.865945 L 3226.354034,-1215.502556 L 3211.552729,-1241.139167 A 109.463977,109.463977 0.0 0 1 3206.106848,-1252.206534 A 2.739063,2.739063 0.0 0 0 3204.935511,-1253.933632 A 5.054178,5.054178 0.0 0 1 3201.578278,-1258.415424 A 268.763245,268.763245 0.0 0 1 3277.716330,-1298.280304 A 49.309578,49.309578 0.0 0 0 3293.852432,-1310.115562 A 2.868366,2.868366 0.0 0 1 3298.861542,-1310.173666 L 3344.595374,-1230.960345 A 2.868366,2.868366 0.0 0 1 3342.040500,-1226.651381 z" style="fill:none;stroke:#00004C"/><use xlink:href="#A%24C1D6968EA" style="stroke-width:0.001px" transform="matrix(500 -866.025 866.025 500 -967732 -556701)"/><path d="M 3241.813513,-1362.154481 A 49.309578,49.309578 0.0 0 0 3229.978256,-1346.018379 A 268.763245,268.763245 0.0 0 1 3190.113375,-1269.880326 A 5.054178,5.054178 0.0 0 1 3185.631583,-1273.237560 A 2.739063,2.739063 0.0 0 0 3183.904485,-1274.408897 A 109.463977,109.463977 0.0 0 1 3172.837119,-1279.854778 L 3147.200507,-1294.656082 L 3121.563896,-1309.457387 A 109.463977,109.463977 0.0 0 1 3111.313942,-1316.319067 A 2.739063,2.739063 0.0 0 0 3109.435985,-1317.229109 A 5.054178,5.054178 0.0 0 1 3104.287640,-1319.431838 A 268.763245,268.763245 0.0 0 1 3150.292687,-1392.024863 A 49.309578,49.309578 0.0 0 0 3158.349332,-1410.342548 A 2.868366,2.868366 0.0 0 1 3162.658297,-1412.897422 L 3241.871617,-1367.163591 A 2.868366,2.868366 0.0 0 1 3241.813513,-1362.154481 z" style="fill:none;stroke:#00004C"/><path d="M 2784.297127,-1310.115562 A 49.309578,49.309578 0.0 0 0 2800.433229,-1298.280304 A 268.763245,268.763245 0.0 0 1 2876.571282,-1258.415424 A 5.054178,5.054178 0.0 0 1 2873.214048,-1253.933632 A 2.739063,2.739063 0.0 0 0 2872.042711,-1252.206534 A 109.463977,109.463977 0.0 0 1 2866.596830,-1241.139167 L 2851.795526,-1215.502556 L 2836.994221,-1189.865945 A 109.463977,109.463977 0.0 0 1 2830.132541,-1179.615990 A 2.739063,2.739063 0.0 0 0 2829.222499,-1177.738034 A 5.054178,5.054178 0.0 0 1 2827.019770,-1172.589688 A 268.763245,268.763245 0.0 0 1 2754.426745,-1218.594736 A 49.309578,49.309578 0.0 0 0 2736.109060,-1226.651381 A 2.868366,2.868366 0.0 0 1 2733.554186,-1230.960345 L 2779.288017,-1310.173666 A 2.868366,2.868366 0.0 0 1 2784.297127,-1310.115562 z" style="fill:none;stroke:#00004C"/><use xlink:href="#A%24C1D6968EA" style="stroke-width:0.001px" transform="matrix(-866.025 -500 500 -866.025 -552551 969663)"/><use xlink:href="#A%24C1D6968EA" style="stroke-width:0.001px" transform="matrix(-500 -866.025 866.025 -500 -963501 561812)"/><path d="M 2919.800227,-1410.342548 A 49.309578,49.309578 0.0 0 0 2927.856873,-1392.024863 A 268.763245,268.763245 0.0 0 1 2973.861920,-1319.431838 A 5.054178,5.054178 0.0 0 1 2968.713575,-1317.229109 A 2.739063,2.739063 0.0 0 0 2966.835618,-1316.319067 A 109.463977,109.463977 0.0 0 1 2956.585664,-1309.457387 L 2930.949052,-1294.656082 L 2905.312441,-1279.854778 A 109.463977,109.463977 0.0 0 1 2894.245074,-1274.408897 A 2.739063,2.739063 0.0 0 0 2892.517976,-1273.237560 A 5.054178,5.054178 0.0 0 1 2888.036184,-1269.880326 A 268.763245,268.763245 0.0 0 1 2848.171304,-1346.018379 A 49.309578,49.309578 0.0 0 0 2836.336046,-1362.154481 A 2.868366,2.868366 0.0 0 1 2836.277943,-1367.163591 L 2915.491263,-1412.897422 A 2.868366,2.868366 0.0 0 1 2919.800227,-1410.342548 z" style="fill:none;stroke:#00004C"/><use xlink:href="#A%24C1D6968EA" style="stroke-width:0.001px" transform="matrix(-1.83697e-13 -1000 1000 -1.83697e-13 -1.11547e+06 3121.35)"/><path d="M 3087.262847,-1429.390115 A 49.309578,49.309578 0.0 0 0 3085.081264,-1409.498212 A 268.763245,268.763245 0.0 0 1 3088.626291,-1323.628284 A 5.054178,5.054178 0.0 0 1 3083.066329,-1324.294837 A 2.739063,2.739063 0.0 0 0 3080.984950,-1324.445696 A 109.463977,109.463977 0.0 0 1 3068.677389,-1323.628284 L 3039.074780,-1323.628284 L 3009.472171,-1323.628284 A 109.463977,109.463977 0.0 0 1 2997.164610,-1324.445696 A 2.739063,2.739063 0.0 0 0 2995.083230,-1324.294837 A 5.054178,5.054178 0.0 0 1 2989.523268,-1323.628284 A 268.763245,268.763245 0.0 0 1 2993.068295,-1409.498212 A 49.309578,49.309578 0.0 0 0 2990.886712,-1429.390115 A 2.868366,2.868366 0.0 0 1 2993.340948,-1433.757183 L 3084.808612,-1433.757183 A 2.868366,2.868366 0.0 0 1 3087.262847,-1429.390115 z" style="fill:none;stroke:#00004C"/><use xlink:href="#A%24C1D6968EA" style="stroke-width:0.001px" transform="matrix(866.025 500 -500 866.025 558629 -971876)"/><path d="M 3293.852432,-904.638095 A 49.309578,49.309578 0.0 0 0 3277.716330,-916.473352 A 268.763245,268.763245 0.0 0 1 3201.578278,-956.338233 A 5.054178,5.054178 0.0 0 1 3204.935511,-960.820025 A 2.739063,2.739063 0.0 0 0 3206.106848,-962.547123 A 109.463977,109.463977 0.0 0 1 3211.552729,-973.614489 L 3226.354034,-999.251101 L 3241.155338,-1024.887712 A 109.463977,109.463977 0.0 0 1 3248.017018,-1035.137666 A 2.739063,2.739063 0.0 0 0 3248.927061,-1037.015623 A 5.054178,5.054178 0.0 0 1 3251.129789,-1042.163969 A 268.763245,268.763245 0.0 0 1 3323.722815,-996.158921 A 49.309578,49.309578 0.0 0 0 3342.040500,-988.102276 A 2.868366,2.868366 0.0 0 1 3344.595374,-983.793311 L 3298.861542,-904.579991 A 2.868366,2.868366 0.0 0 1 3293.852432,-904.638095 z" style="fill:none;stroke:#00004C"/><use xlink:href="#A%24C1D6968EA" style="stroke-width:0.001px" transform="matrix(500 866.025 -866.025 500 969580 -564025)"/><path d="M 3158.349332,-804.411108 A 49.309578,49.309578 0.0 0 0 3150.292687,-822.728793 A 268.763245,268.763245 0.0 0 1 3104.287640,-895.321819 A 5.054178,5.054178 0.0 0 1 3109.435985,-897.524547 A 2.739063,2.739063 0.0 0 0 3111.313942,-898.434590 A 109.463977,109.463977 0.0 0 1 3121.563896,-905.296270 L 3147.200507,-920.097574 L 3172.837119,-934.898879 A 109.463977,109.463977 0.0 0 1 3183.904485,-940.344760 A 2.739063,2.739063 0.0 0 0 3185.631583,-941.516097 A 5.054178,5.054178 0.0 0 1 3190.113375,-944.873330 A 268.763245,268.763245 0.0 0 1 3229.978256,-868.735278 A 49.309578,49.309578 0.0 0 0 3241.813513,-852.599176 A 2.868366,2.868366 0.0 0 1 3241.871617,-847.590066 L 3162.658297,-801.856234 A 2.868366,2.868366 0.0 0 1 3158.349332,-804.411108 z" style="fill:none;stroke:#00004C"/><path d="M 2736.109060,-988.102276 A 49.309578,49.309578 0.0 0 0 2754.426745,-996.158921 A 268.763245,268.763245 0.0 0 1 2827.019770,-1042.163969 A 5.054178,5.054178 0.0 0 1 2829.222499,-1037.015623 A 2.739063,2.739063 0.0 0 0 2830.132541,-1035.137666 A 109.463977,109.463977 0.0 0 1 2836.994221,-1024.887712 L 2851.795526,-999.251101 L 2866.596830,-973.614489 A 109.463977,109.463977 0.0 0 1 2872.042711,-962.547123 A 2.739063,2.739063 0.0 0 0 2873.214048,-960.820025 A 5.054178,5.054178 0.0 0 1 2876.571282,-956.338233 A 268.763245,268.763245 0.0 0 1 2800.433229,-916.473352 A 49.309578,49.309578 0.0 0 0 2784.297127,-904.638095 A 2.868366,2.868366 0.0 0 1 2779.288017,-904.579991 L 2733.554186,-983.793311 A 2.868366,2.868366 0.0 0 1 2736.109060,-988.102276 z" style="fill:none;stroke:#00004C"/><use xlink:href="#A%24C1D6968EA" style="stroke-width:0.001px" transform="matrix(-866.025 500 -500 -866.025 565957 965435)"/><use xlink:href="#A%24C1D6968EA" style="stroke-width:0.001px" transform="matrix(-500 866.025 -866.025 -500 973811 554478)"/><path d="M 2836.336046,-852.599176 A 49.309578,49.309578 0.0 0 0 2848.171304,-868.735278 A 268.763245,268.763245 0.0 0 1 2888.036184,-944.873330 A 5.054178,5.054178 0.0 0 1 2892.517976,-941.516097 A 2.739063,2.739063 0.0 0 0 2894.245074,-940.344760 A 109.463977,109.463977 0.0 0 1 2905.312441,-934.898879 L 2930.949052,-920.097574 L 2956.585664,-905.296270 A 109.463977,109.463977 0.0 0 1 2966.835618,-898.434590 A 2.739063,2.739063 0.0 0 0 2968.713575,-897.524547 A 5.054178,5.054178 0.0 0 1 2973.861920,-895.321819 A 268.763245,268.763245 0.0 0 1 2927.856873,-822.728793 A 49.309578,49.309578 0.0 0 0 2919.800227,-804.411108 A 2.868366,2.868366 0.0 0 1 2915.491263,-801.856234 L 2836.277943,-847.590066 A 2.868366,2.868366 0.0 0 1 2836.336046,-852.599176 z" style="fill:none;stroke:#00004C"/><path d="M 2990.886712,-785.363542 A 49.309578,49.309578 0.0 0 0 2993.068295,-805.255445 A 268.763245,268.763245 0.0 0 1 2989.523268,-891.125373 A 5.054178,5.054178 0.0 0 1 2995.083230,-890.458819 A 2.739063,2.739063 0.0 0 0 2997.164610,-890.307961 A 109.463977,109.463977 0.0 0 1 3009.472171,-891.125373 L 3039.074780,-891.125373 L 3068.677389,-891.125373 A 109.463977,109.463977 0.0 0 1 3080.984950,-890.307961 A 2.739063,2.739063 0.0 0 0 3083.066329,-890.458819 A 5.054178,5.054178 0.0 0 1 3088.626291,-891.125373 A 268.763245,268.763245 0.0 0 1 3085.081264,-805.255445 A 49.309578,49.309578 0.0 0 0 3087.262847,-785.363542 A 2.868366,2.868366 0.0 0 1 3084.808612,-780.996474 L 2993.340948,-780.996474 A 2.868366,2.868366 0.0 0 1 2990.886712,-785.363542 z" style="fill:none;stroke:#00004C"/><use xlink:href="#A%24C1D6968EA" style="stroke-width:0.001px" transform="matrix(6.12323e-14 1000 -1000 6.12323e-14 1.12155e+06 -5334.52)"/><path d="M 3245.082745,-1107.376828 A 206.007965,206.007965 0.000000 0, 0 2833.066814,-1107.376828 A 206.007965,206.007965 0.000000 0, 0 3245.082745,-1107.376828 z" style="fill:none;stroke:#00004C"/><path d="M 3249.635407,-1107.376828 A 210.560628,210.560628 0.000000 0, 0 2828.514152,-1107.376828 A 210.560628,210.560628 0.000000 0, 0 3249.635407,-1107.376828 z" style="fill:none;stroke:#00004C"/><use xlink:href="#A%24C1D6968EA" style="stroke-width:0.001px" transform="matrix(-1000 1.22465e-13 -1.22465e-13 -1000 7270.09 1.1174e+06)"/><path d="M 2717.061494,-1155.564896 A 49.309578,49.309578 0.0 0 0 2736.953397,-1153.383313 A 268.763245,268.763245 0.0 0 1 2822.823324,-1156.928340 A 5.054178,5.054178 0.0 0 1 2822.156771,-1151.368378 A 2.739063,2.739063 0.0 0 0 2822.005912,-1149.286998 A 109.463977,109.463977 0.0 0 1 2822.823324,-1136.979437 L 2822.823324,-1107.376828 L 2822.823324,-1077.774219 A 109.463977,109.463977 0.0 0 1 2822.005912,-1065.466658 A 2.739063,2.739063 0.0 0 0 2822.156771,-1063.385279 A 5.054178,5.054178 0.0 0 1 2822.823324,-1057.825317 A 268.763245,268.763245 0.0 0 1 2736.953397,-1061.370344 A 49.309578,49.309578 0.0 0 0 2717.061494,-1059.188761 A 2.868366,2.868366 0.0 0 1 2712.694425,-1061.642997 L 2712.694425,-1153.110660 A 2.868366,2.868366 0.0 0 1 2717.061494,-1155.564896 z" style="fill:none;stroke:#00004C"/><use xlink:href="#A%24C1D6968EA" style="stroke-width:0.001px" transform="matrix(1000 0 0 1000 -1191.94 -1.11961e+06)"/><path d="M 3361.088066,-1059.188761 A 49.309578,49.309578 0.0 0 0 3341.196163,-1061.370344 A 268.763245,268.763245 0.0 0 1 3255.326235,-1057.825317 A 5.054178,5.054178 0.0 0 1 3255.992789,-1063.385279 A 2.739063,2.739063 0.0 0 0 3256.143647,-1065.466658 A 109.463977,109.463977 0.0 0 1 3255.326235,-1077.774219 L 3255.326235,-1107.376828 L 3255.326235,-1136.979437 A 109.463977,109.463977 0.0 0 1 3256.143647,-1149.286998 A 2.739063,2.739063 0.0 0 0 3255.992789,-1151.368378 A 5.054178,5.054178 0.0 0 1 3255.326235,-1156.928340 A 268.763245,268.763245 0.0 0 1 3341.196163,-1153.383313 A 49.309578,49.309578 0.0 0 0 3361.088066,-1155.564896 A 2.868366,2.868366 0.0 0 1 3365.455134,-1153.110660 L 3365.455134,-1061.642997 A 2.868366,2.868366 0.0 0 1 3361.088066,-1059.188761 z" style="fill:none;stroke:#00004C"/></symbol><symbol id="16_SEATER_ROUND_TABLE"><path d="M 2649.846962,-1212.219435 A 49.309578,49.309578 0.0 0 0 2630.634384,-1206.622653 A 268.763245,268.763245 0.0 0 1 2552.657538,-1170.486476 A 5.054178,5.054178 0.0 0 1 2551.145648,-1175.878291 A 2.739063,2.739063 0.0 0 0 2550.488514,-1177.858966 A 109.463977,109.463977 0.0 0 1 2545.023424,-1188.916859 L 2533.694996,-1216.266104 L 2522.366568,-1243.615348 A 109.463977,109.463977 0.0 0 1 2518.411858,-1255.298862 A 2.739063,2.739063 0.0 0 0 2517.475974,-1257.164075 A 5.054178,5.054178 0.0 0 1 2514.732453,-1262.045731 A 268.763245,268.763245 0.0 0 1 2595.422545,-1291.631552 A 49.309578,49.309578 0.0 0 0 2612.965412,-1301.259373 A 2.868366,2.868366 0.0 0 1 2617.939252,-1300.663160 L 2652.942411,-1216.158058 A 2.868366,2.868366 0.0 0 1 2649.846962,-1212.219435 z" style="fill:none;stroke:#00004C"/><use xlink:href="#A%24C1D6968EA" style="stroke-width:0.001px" transform="matrix(923.88 -382.683 382.683 923.88 -429609 -1.03288e+06)"/><path d="M 2580.873193,-1349.288772 A 49.309578,49.309578 0.0 0 0 2565.264882,-1336.765685 A 268.763245,268.763245 0.0 0 1 2507.052386,-1273.539764 A 5.054178,5.054178 0.0 0 1 2503.592223,-1277.942575 A 2.739063,2.739063 0.0 0 0 2502.227139,-1279.521006 A 109.463977,109.463977 0.0 0 1 2492.946382,-1287.645768 L 2472.014176,-1308.577974 L 2451.081971,-1329.510179 A 109.463977,109.463977 0.0 0 1 2442.957208,-1338.790937 A 2.739063,2.739063 0.0 0 0 2441.378778,-1340.156021 A 5.054178,5.054178 0.0 0 1 2436.975966,-1343.616184 A 268.763245,268.763245 0.0 0 1 2500.201887,-1401.828679 A 49.309578,49.309578 0.0 0 0 2512.724975,-1417.436991 A 2.868366,2.868366 0.0 0 1 2517.548365,-1418.789568 L 2582.225770,-1354.112162 A 2.868366,2.868366 0.0 0 1 2580.873193,-1349.288772 z" style="fill:none;stroke:#00004C"/><use xlink:href="#A%24C1D6968EA" style="stroke-width:0.001px" transform="matrix(707.107 -707.107 707.107 707.107 -791577 -789068)"/><path d="M 2319.001098,-1497.680048 A 49.309578,49.309578 0.0 0 0 2316.819515,-1477.788145 A 268.763245,268.763245 0.0 0 1 2320.364542,-1391.918217 A 5.054178,5.054178 0.0 0 1 2314.804580,-1392.584771 A 2.739063,2.739063 0.0 0 0 2312.723201,-1392.735629 A 109.463977,109.463977 0.0 0 1 2300.415640,-1391.918217 L 2270.813031,-1391.918217 L 2241.210422,-1391.918217 A 109.463977,109.463977 0.0 0 1 2228.902861,-1392.735629 A 2.739063,2.739063 0.0 0 0 2226.821481,-1392.584771 A 5.054178,5.054178 0.0 0 1 2221.261519,-1391.918217 A 268.763245,268.763245 0.0 0 1 2224.806546,-1477.788145 A 49.309578,49.309578 0.0 0 0 2222.624963,-1497.680048 A 2.868366,2.868366 0.0 0 1 2225.079199,-1502.047116 L 2316.546862,-1502.047116 A 2.868366,2.868366 0.0 0 1 2319.001098,-1497.680048 z" style="fill:none;stroke:#00004C"/><use xlink:href="#A%24C1D6968EA" style="stroke-width:0.001px" transform="matrix(-1.83697e-13 -1000 1000 -1.83697e-13 -1.11624e+06 3051.35)"/><path d="M 2165.970424,-1486.410759 A 49.309578,49.309578 0.0 0 0 2171.567206,-1467.198182 A 268.763245,268.763245 0.0 0 1 2207.703383,-1389.221336 A 5.054178,5.054178 0.0 0 1 2202.311568,-1387.709446 A 2.739063,2.739063 0.0 0 0 2200.330893,-1387.052311 A 109.463977,109.463977 0.0 0 1 2189.273000,-1381.587221 L 2161.923755,-1370.258793 L 2134.574511,-1358.930365 A 109.463977,109.463977 0.0 0 1 2122.890997,-1354.975656 A 2.739063,2.739063 0.0 0 0 2121.025784,-1354.039772 A 5.054178,5.054178 0.0 0 1 2116.144128,-1351.296251 A 268.763245,268.763245 0.0 0 1 2086.558307,-1431.986343 A 49.309578,49.309578 0.0 0 0 2076.930486,-1449.529209 A 2.868366,2.868366 0.0 0 1 2077.526699,-1454.503049 L 2162.031801,-1489.506209 A 2.868366,2.868366 0.0 0 1 2165.970424,-1486.410759 z" style="fill:none;stroke:#00004C"/><use xlink:href="#A%24C1D6968EA" style="stroke-width:0.001px" transform="matrix(-382.683 -923.88 923.88 -382.683 -1.0295e+06 430775)"/><use xlink:href="#A%24C1D6968EA" style="stroke-width:0.001px" transform="matrix(382.683 -923.88 923.88 382.683 -1.03269e+06 -425299)"/><path d="M 2464.695576,-1449.529209 A 49.309578,49.309578 0.0 0 0 2455.067754,-1431.986343 A 268.763245,268.763245 0.0 0 1 2425.481933,-1351.296251 A 5.054178,5.054178 0.0 0 1 2420.600277,-1354.039772 A 2.739063,2.739063 0.0 0 0 2418.735064,-1354.975656 A 109.463977,109.463977 0.0 0 1 2407.051550,-1358.930365 L 2379.702306,-1370.258793 L 2352.353061,-1381.587221 A 109.463977,109.463977 0.0 0 1 2341.295168,-1387.052311 A 2.739063,2.739063 0.0 0 0 2339.314493,-1387.709446 A 5.054178,5.054178 0.0 0 1 2333.922679,-1389.221336 A 268.763245,268.763245 0.0 0 1 2370.058855,-1467.198182 A 49.309578,49.309578 0.0 0 0 2375.655637,-1486.410759 A 2.868366,2.868366 0.0 0 1 2379.594260,-1489.506209 L 2464.099362,-1454.503049 A 2.868366,2.868366 0.0 0 1 2464.695576,-1449.529209 z" style="fill:none;stroke:#00004C"/><path d="M 1928.660650,-1301.259373 A 49.309578,49.309578 0.0 0 0 1946.203516,-1291.631552 A 268.763245,268.763245 0.0 0 1 2026.893608,-1262.045731 A 5.054178,5.054178 0.0 0 1 2024.150087,-1257.164075 A 2.739063,2.739063 0.0 0 0 2023.214203,-1255.298862 A 109.463977,109.463977 0.0 0 1 2019.259494,-1243.615348 L 2007.931066,-1216.266104 L 1996.602638,-1188.916859 A 109.463977,109.463977 0.0 0 1 1991.137548,-1177.858966 A 2.739063,2.739063 0.0 0 0 1990.480413,-1175.878291 A 5.054178,5.054178 0.0 0 1 1988.968523,-1170.486476 A 268.763245,268.763245 0.0 0 1 1910.991677,-1206.622653 A 49.309578,49.309578 0.0 0 0 1891.779100,-1212.219435 A 2.868366,2.868366 0.0 0 1 1888.683650,-1216.158058 L 1923.686810,-1300.663160 A 2.868366,2.868366 0.0 0 1 1928.660650,-1301.259373 z" style="fill:none;stroke:#00004C"/><use xlink:href="#A%24C1D6968EA" style="stroke-width:0.001px" transform="matrix(-923.88 -382.683 382.683 -923.88 -421918 1.03385e+06)"/><path d="M 2028.901087,-1417.436991 A 49.309578,49.309578 0.0 0 0 2041.424174,-1401.828679 A 268.763245,268.763245 0.0 0 1 2104.650095,-1343.616184 A 5.054178,5.054178 0.0 0 1 2100.247284,-1340.156021 A 2.739063,2.739063 0.0 0 0 2098.668853,-1338.790937 A 109.463977,109.463977 0.0 0 1 2090.544091,-1329.510179 L 2069.611885,-1308.577974 L 2048.679680,-1287.645768 A 109.463977,109.463977 0.0 0 1 2039.398922,-1279.521006 A 2.739063,2.739063 0.0 0 0 2038.033838,-1277.942575 A 5.054178,5.054178 0.0 0 1 2034.573675,-1273.539764 A 268.763245,268.763245 0.0 0 1 1976.361180,-1336.765685 A 49.309578,49.309578 0.0 0 0 1960.752868,-1349.288772 A 2.868366,2.868366 0.0 0 1 1959.400291,-1354.112162 L 2024.077697,-1418.789568 A 2.868366,2.868366 0.0 0 1 2028.901087,-1417.436991 z" style="fill:none;stroke:#00004C"/><use xlink:href="#A%24C1D6968EA" style="stroke-width:0.001px" transform="matrix(-707.107 -707.107 707.107 -707.107 -785690 792745)"/><path d="M 2612.965412,-913.494283 A 49.309578,49.309578 0.0 0 0 2595.422545,-923.122105 A 268.763245,268.763245 0.0 0 1 2514.732453,-952.707926 A 5.054178,5.054178 0.0 0 1 2517.475974,-957.589582 A 2.739063,2.739063 0.0 0 0 2518.411858,-959.454795 A 109.463977,109.463977 0.0 0 1 2522.366568,-971.138309 L 2533.694996,-998.487553 L 2545.023424,-1025.836798 A 109.463977,109.463977 0.0 0 1 2550.488514,-1036.894691 A 2.739063,2.739063 0.0 0 0 2551.145648,-1038.875366 A 5.054178,5.054178 0.0 0 1 2552.657538,-1044.267180 A 268.763245,268.763245 0.0 0 1 2630.634384,-1008.131004 A 49.309578,49.309578 0.0 0 0 2649.846962,-1002.534222 A 2.868366,2.868366 0.0 0 1 2652.942411,-998.595599 L 2617.939252,-914.090497 A 2.868366,2.868366 0.0 0 1 2612.965412,-913.494283 z" style="fill:none;stroke:#00004C"/><use xlink:href="#A%24C1D6968EA" style="stroke-width:0.001px" transform="matrix(923.88 382.683 -382.683 923.88 426459 -1.03607e+06)"/><path d="M 2512.724975,-797.316666 A 49.309578,49.309578 0.0 0 0 2500.201887,-812.924977 A 268.763245,268.763245 0.0 0 1 2436.975966,-871.137473 A 5.054178,5.054178 0.0 0 1 2441.378778,-874.597636 A 2.739063,2.739063 0.0 0 0 2442.957208,-875.962720 A 109.463977,109.463977 0.0 0 1 2451.081971,-885.243477 L 2472.014176,-906.175683 L 2492.946382,-927.107888 A 109.463977,109.463977 0.0 0 1 2502.227139,-935.232651 A 2.739063,2.739063 0.0 0 0 2503.592223,-936.811081 A 5.054178,5.054178 0.0 0 1 2507.052386,-941.213893 A 268.763245,268.763245 0.0 0 1 2565.264882,-877.987972 A 49.309578,49.309578 0.0 0 0 2580.873193,-865.464884 A 2.868366,2.868366 0.0 0 1 2582.225770,-860.641494 L 2517.548365,-795.964089 A 2.868366,2.868366 0.0 0 1 2512.724975,-797.316666 z" style="fill:none;stroke:#00004C"/><use xlink:href="#A%24C1D6968EA" style="stroke-width:0.001px" transform="matrix(707.107 707.107 -707.107 707.107 790232 -794958)"/><use xlink:href="#A%24C1D6968EA" style="stroke-width:0.001px" transform="matrix(6.12323e-14 1000 -1000 6.12323e-14 1.12078e+06 -5274.52)"/><path d="M 2222.624963,-717.073609 A 49.309578,49.309578 0.0 0 0 2224.806546,-736.965512 A 268.763245,268.763245 0.0 0 1 2221.261519,-822.835440 A 5.054178,5.054178 0.0 0 1 2226.821481,-822.168886 A 2.739063,2.739063 0.0 0 0 2228.902861,-822.018028 A 109.463977,109.463977 0.0 0 1 2241.210422,-822.835440 L 2270.813031,-822.835440 L 2300.415640,-822.835440 A 109.463977,109.463977 0.0 0 1 2312.723201,-822.018028 A 2.739063,2.739063 0.0 0 0 2314.804580,-822.168886 A 5.054178,5.054178 0.0 0 1 2320.364542,-822.835440 A 268.763245,268.763245 0.0 0 1 2316.819515,-736.965512 A 49.309578,49.309578 0.0 0 0 2319.001098,-717.073609 A 2.868366,2.868366 0.0 0 1 2316.546862,-712.706541 L 2225.079199,-712.706541 A 2.868366,2.868366 0.0 0 1 2222.624963,-717.073609 z" style="fill:none;stroke:#00004C"/><path d="M 2076.930486,-765.224447 A 49.309578,49.309578 0.0 0 0 2086.558307,-782.767314 A 268.763245,268.763245 0.0 0 1 2116.144128,-863.457406 A 5.054178,5.054178 0.0 0 1 2121.025784,-860.713885 A 2.739063,2.739063 0.0 0 0 2122.890997,-859.778001 A 109.463977,109.463977 0.0 0 1 2134.574511,-855.823291 L 2161.923755,-844.494863 L 2189.273000,-833.166435 A 109.463977,109.463977 0.0 0 1 2200.330893,-827.701345 A 2.739063,2.739063 0.0 0 0 2202.311568,-827.044211 A 5.054178,5.054178 0.0 0 1 2207.703383,-825.532321 A 268.763245,268.763245 0.0 0 1 2171.567206,-747.555475 A 49.309578,49.309578 0.0 0 0 2165.970424,-728.342897 A 2.868366,2.868366 0.0 0 1 2162.031801,-725.247448 L 2077.526699,-760.250607 A 2.868366,2.868366 0.0 0 1 2076.930486,-765.224447 z" style="fill:none;stroke:#00004C"/><use xlink:href="#A%24C1D6968EA" style="stroke-width:0.001px" transform="matrix(-382.683 923.88 -923.88 -382.683 1.03723e+06 423086)"/><path d="M 2375.655637,-728.342897 A 49.309578,49.309578 0.0 0 0 2370.058855,-747.555475 A 268.763245,268.763245 0.0 0 1 2333.922679,-825.532321 A 5.054178,5.054178 0.0 0 1 2339.314493,-827.044211 A 2.739063,2.739063 0.0 0 0 2341.295168,-827.701345 A 109.463977,109.463977 0.0 0 1 2352.353061,-833.166435 L 2379.702306,-844.494863 L 2407.051550,-855.823291 A 109.463977,109.463977 0.0 0 1 2418.735064,-859.778001 A 2.739063,2.739063 0.0 0 0 2420.600277,-860.713885 A 5.054178,5.054178 0.0 0 1 2425.481933,-863.457406 A 268.763245,268.763245 0.0 0 1 2455.067754,-782.767314 A 49.309578,49.309578 0.0 0 0 2464.695576,-765.224447 A 2.868366,2.868366 0.0 0 1 2464.099362,-760.250607 L 2379.594260,-725.247448 A 2.868366,2.868366 0.0 0 1 2375.655637,-728.342897 z" style="fill:none;stroke:#00004C"/><use xlink:href="#A%24C1D6968EA" style="stroke-width:0.001px" transform="matrix(382.683 923.88 -923.88 382.683 1.03404e+06 -432988)"/><path d="M 1891.779100,-1002.534222 A 49.309578,49.309578 0.0 0 0 1910.991677,-1008.131004 A 268.763245,268.763245 0.0 0 1 1988.968523,-1044.267180 A 5.054178,5.054178 0.0 0 1 1990.480413,-1038.875366 A 2.739063,2.739063 0.0 0 0 1991.137548,-1036.894691 A 109.463977,109.463977 0.0 0 1 1996.602638,-1025.836798 L 2007.931066,-998.487553 L 2019.259494,-971.138309 A 109.463977,109.463977 0.0 0 1 2023.214203,-959.454795 A 2.739063,2.739063 0.0 0 0 2024.150087,-957.589582 A 5.054178,5.054178 0.0 0 1 2026.893608,-952.707926 A 268.763245,268.763245 0.0 0 1 1946.203516,-923.122105 A 49.309578,49.309578 0.0 0 0 1928.660650,-913.494283 A 2.868366,2.868366 0.0 0 1 1923.686810,-914.090497 L 1888.683650,-998.595599 A 2.868366,2.868366 0.0 0 1 1891.779100,-1002.534222 z" style="fill:none;stroke:#00004C"/><use xlink:href="#A%24C1D6968EA" style="stroke-width:0.001px" transform="matrix(-923.88 382.683 -382.683 -923.88 434151 1.03067e+06)"/><path d="M 1960.752868,-865.464884 A 49.309578,49.309578 0.0 0 0 1976.361180,-877.987972 A 268.763245,268.763245 0.0 0 1 2034.573675,-941.213893 A 5.054178,5.054178 0.0 0 1 2038.033838,-936.811081 A 2.739063,2.739063 0.0 0 0 2039.398922,-935.232651 A 109.463977,109.463977 0.0 0 1 2048.679680,-927.107888 L 2069.611885,-906.175683 L 2090.544091,-885.243477 A 109.463977,109.463977 0.0 0 1 2098.668853,-875.962720 A 2.739063,2.739063 0.0 0 0 2100.247284,-874.597636 A 5.054178,5.054178 0.0 0 1 2104.650095,-871.137473 A 268.763245,268.763245 0.0 0 1 2041.424174,-812.924977 A 49.309578,49.309578 0.0 0 0 2028.901087,-797.316666 A 2.868366,2.868366 0.0 0 1 2024.077697,-795.964089 L 1959.400291,-860.641494 A 2.868366,2.868366 0.0 0 1 1960.752868,-865.464884 z" style="fill:none;stroke:#00004C"/><use xlink:href="#A%24C1D6968EA" style="stroke-width:0.001px" transform="matrix(-707.107 707.107 -707.107 -707.107 796119 786855)"/><path d="M 2549.663591,-1107.376828 A 278.850561,278.850561 0.000000 0, 0 1991.962470,-1107.376828 A 278.850561,278.850561 0.000000 0, 0 2549.663591,-1107.376828 z" style="fill:none;stroke:#00004C"/><path d="M 2543.972764,-1107.376828 A 273.159733,273.159733 0.000000 0, 0 1997.653298,-1107.376828 A 273.159733,273.159733 0.000000 0, 0 2543.972764,-1107.376828 z" style="fill:none;stroke:#00004C"/><path d="M 1880.509811,-1155.564896 A 49.309578,49.309578 0.0 0 0 1900.401714,-1153.383313 A 268.763245,268.763245 0.0 0 1 1986.271642,-1156.928340 A 5.054178,5.054178 0.0 0 1 1985.605088,-1151.368378 A 2.739063,2.739063 0.0 0 0 1985.454230,-1149.286998 A 109.463977,109.463977 0.0 0 1 1986.271642,-1136.979437 L 1986.271642,-1107.376828 L 1986.271642,-1077.774219 A 109.463977,109.463977 0.0 0 1 1985.454230,-1065.466658 A 2.739063,2.739063 0.0 0 0 1985.605088,-1063.385279 A 5.054178,5.054178 0.0 0 1 1986.271642,-1057.825317 A 268.763245,268.763245 0.0 0 1 1900.401714,-1061.370344 A 49.309578,49.309578 0.0 0 0 1880.509811,-1059.188761 A 2.868366,2.868366 0.0 0 1 1876.142743,-1061.642997 L 1876.142743,-1153.110660 A 2.868366,2.868366 0.0 0 1 1880.509811,-1155.564896 z" style="fill:none;stroke:#00004C"/><use xlink:href="#A%24C1D6968EA" style="stroke-width:0.001px" transform="matrix(-1000 1.22465e-13 -1.22465e-13 -1000 6433.54 1.1174e+06)"/><path d="M 2661.116250,-1059.188761 A 49.309578,49.309578 0.0 0 0 2641.224347,-1061.370344 A 268.763245,268.763245 0.0 0 1 2555.354419,-1057.825317 A 5.054178,5.054178 0.0 0 1 2556.020973,-1063.385279 A 2.739063,2.739063 0.0 0 0 2556.171831,-1065.466658 A 109.463977,109.463977 0.0 0 1 2555.354419,-1077.774219 L 2555.354419,-1107.376828 L 2555.354419,-1136.979437 A 109.463977,109.463977 0.0 0 1 2556.171831,-1149.286998 A 2.739063,2.739063 0.0 0 0 2556.020973,-1151.368378 A 5.054178,5.054178 0.0 0 1 2555.354419,-1156.928340 A 268.763245,268.763245 0.0 0 1 2641.224347,-1153.383313 A 49.309578,49.309578 0.0 0 0 2661.116250,-1155.564896 A 2.868366,2.868366 0.0 0 1 2665.483318,-1153.110660 L 2665.483318,-1061.642997 A 2.868366,2.868366 0.0 0 1 2661.116250,-1059.188761 z" style="fill:none;stroke:#00004C"/><use xlink:href="#A%24C1D6968EA" style="stroke-width:0.001px" transform="matrix(1000 0 0 1000 -1891.91 -1.11961e+06)"/></symbol><symbol id="4_SEATER_COCKTAIL_TABLE"><path d="M 1665.652669,-1460.829414 A 59.171494,59.171494 0.0 0 1 1650.624964,-1442.099440 A 322.515894,322.515894 0.0 0 0 1574.753859,-1372.244445 A 6.065014,6.065014 0.0 0 0 1580.037233,-1368.092250 A 3.286875,3.286875 0.0 0 1 1581.931349,-1366.454149 A 131.356772,131.356772 0.0 0 0 1591.681064,-1355.317240 L 1616.799711,-1330.198593 L 1641.918357,-1305.079946 A 131.356772,131.356772 0.0 0 0 1653.055266,-1295.330232 A 3.286875,3.286875 0.0 0 1 1654.693367,-1293.436115 A 6.065014,6.065014 0.0 0 0 1658.845562,-1288.152741 A 322.515894,322.515894 0.0 0 0 1728.700557,-1364.023846 A 59.171494,59.171494 0.0 0 1 1747.430531,-1379.051551 A 3.442040,3.442040 0.0 0 0 1749.053623,-1384.839620 L 1671.440737,-1462.452506 A 3.442040,3.442040 0.0 0 0 1665.652669,-1460.829414 z" style="fill:none;stroke:#00004C"/><use xlink:href="#A%24C1D6968EA" style="stroke-width:0.000px" transform="matrix(848.528 -848.528 -848.528 -848.528 936253 951532)"/><path d="M 1749.011466,-1144.528856 A 59.171494,59.171494 0.0 0 1 1730.281493,-1159.556561 A 322.515894,322.515894 0.0 0 0 1660.426498,-1235.427666 A 6.065014,6.065014 0.0 0 0 1656.274303,-1230.144292 A 3.286875,3.286875 0.0 0 1 1654.636202,-1228.250175 A 131.356772,131.356772 0.0 0 0 1643.499293,-1218.500461 L 1618.380646,-1193.381814 L 1593.261999,-1168.263168 A 131.356772,131.356772 0.0 0 0 1583.512285,-1157.126259 A 3.286875,3.286875 0.0 0 1 1581.618168,-1155.488157 A 6.065014,6.065014 0.0 0 0 1576.334794,-1151.335962 A 322.515894,322.515894 0.0 0 0 1652.205899,-1081.480968 A 59.171494,59.171494 0.0 0 1 1667.233604,-1062.750994 A 3.442040,3.442040 0.0 0 0 1673.021672,-1061.127902 L 1750.634559,-1138.740788 A 3.442040,3.442040 0.0 0 0 1749.011466,-1144.528856 z" style="fill:none;stroke:#00004C"/><use xlink:href="#A%24C1D6968EA" style="stroke-width:0.000px" transform="matrix(848.528 848.528 848.528 -848.528 -961915 944114)"/><path d="M 1432.710909,-1061.170058 A 59.171494,59.171494 0.0 0 1 1447.738614,-1079.900032 A 322.515894,322.515894 0.0 0 0 1523.609719,-1149.755027 A 6.065014,6.065014 0.0 0 0 1518.326345,-1153.907222 A 3.286875,3.286875 0.0 0 1 1516.432228,-1155.545323 A 131.356772,131.356772 0.0 0 0 1506.682514,-1166.682232 L 1481.563867,-1191.800879 L 1456.445220,-1216.919525 A 131.356772,131.356772 0.0 0 0 1445.308312,-1226.669240 A 3.286875,3.286875 0.0 0 1 1443.670210,-1228.563357 A 6.065014,6.065014 0.0 0 0 1439.518015,-1233.846731 A 322.515894,322.515894 0.0 0 0 1369.663020,-1157.975626 A 59.171494,59.171494 0.0 0 1 1350.933047,-1142.947920 A 3.442040,3.442040 0.0 0 0 1349.309955,-1137.159852 L 1426.922841,-1059.546966 A 3.442040,3.442040 0.0 0 0 1432.710909,-1061.170058 z" style="fill:none;stroke:#00004C"/><use xlink:href="#A%24C1D6968EA" style="stroke-width:0.000px" transform="matrix(-848.528 848.528 848.528 848.528 -954505 -954054)"/><use xlink:href="#A%24C1D6968EA" style="stroke-width:0.000px" transform="matrix(-848.528 -848.528 -848.528 848.528 943664 -946636)"/><path d="M 1349.352111,-1377.470616 A 59.171494,59.171494 0.0 0 1 1368.082085,-1362.442911 A 322.515894,322.515894 0.0 0 0 1437.937080,-1286.571806 A 6.065014,6.065014 0.0 0 0 1442.089275,-1291.855180 A 3.286875,3.286875 0.0 0 1 1443.727376,-1293.749297 A 131.356772,131.356772 0.0 0 0 1454.864285,-1303.499011 L 1479.982932,-1328.617658 L 1505.101578,-1353.736304 A 131.356772,131.356772 0.0 0 0 1514.851293,-1364.873213 A 3.286875,3.286875 0.0 0 1 1516.745410,-1366.511315 A 6.065014,6.065014 0.0 0 0 1522.028784,-1370.663510 A 322.515894,322.515894 0.0 0 0 1446.157678,-1440.518504 A 59.171494,59.171494 0.0 0 1 1431.129973,-1459.248478 A 3.442040,3.442040 0.0 0 0 1425.341905,-1460.871570 L 1347.729019,-1383.258684 A 3.442040,3.442040 0.0 0 0 1349.352111,-1377.470616 z" style="fill:none;stroke:#00004C"/><path d="M 1628.853378,-1260.999736 A 79.671589,79.671589 0.000000 0, 0 1469.510200,-1260.999736 A 79.671589,79.671589 0.000000 0, 0 1628.853378,-1260.999736 z" style="fill:none;stroke:#00004C"/><path d="M 1624.300715,-1260.999736 A 75.118927,75.118927 0.000000 0, 0 1474.062862,-1260.999736 A 75.118927,75.118927 0.000000 0, 0 1624.300715,-1260.999736 z" style="fill:none;stroke:#00004C"/></symbol><symbol id="A$C51F1"><path d="M 4.547798,1118.445583 A 0.049310,0.049310 0.0 0 0 4.545617,1118.465475 A 0.268763,0.268763 0.0 0 1 4.549162,1118.551345 A 0.005054,0.005054 0.0 0 1 4.543602,1118.550678 A 0.002739,0.002739 0.0 0 0 4.541520,1118.550527 A 0.109464,0.109464 0.0 0 1 4.529213,1118.551345 L 4.499610,1118.551345 L 4.470008,1118.551345 A 0.109464,0.109464 0.0 0 1 4.457700,1118.550527 A 0.002739,0.002739 0.0 0 0 4.455619,1118.550678 A 0.005054,0.005054 0.0 0 1 4.450059,1118.551345 A 0.268763,0.268763 0.0 0 1 4.453604,1118.465475 A 0.049310,0.049310 0.0 0 0 4.451422,1118.445583 A 0.002868,0.002868 0.0 0 1 4.453876,1118.441216 L 4.545344,1118.441216 A 0.002868,0.002868 0.0 0 1 4.547798,1118.445583 z" style="fill:none;stroke:#000000"/><path style="fill:none;stroke:#000000" d="M 4.49968 1118.47 L 4.47537 1118.47"/><path d="M 4.459220,1118.466720 A 0.262782,0.262782 0.000000 0 0 4.455754,1118.550679" style="fill:none;stroke:#000000"/><path d="M 4.459309,1118.466130 A 0.054830,0.054830 0.000000 0 0 4.457442,1118.445845" style="fill:none;stroke:#000000"/><path style="fill:none;stroke:#000000" d="M 4.49968 1118.45 L 4.45793 1118.45"/><path style="fill:none;stroke:#000000" d="M 4.49968 1118.45 L 4.45786 1118.45"/><path d="M 4.457856,1118.445103 A 0.000550,0.000550 0.000000 0 0 4.457442,1118.445845" style="fill:none;stroke:#000000"/><path d="M 4.461816,1118.470364 A 0.072232,0.072232 0.000000 0 0 4.458463,1118.450028" style="fill:none;stroke:#000000"/><path d="M 4.475374,1118.465606 A 0.022270,0.022270 0.000000 0 0 4.457745,1118.474533" style="fill:none;stroke:#000000"/><path d="M 4.457944,1118.446967 A 0.000165,0.000165 0.000000 0 0 4.457779,1118.447182" style="fill:none;stroke:#000000"/><path style="fill:none;stroke:#000000" d="M 4.49968 1118.45 L 4.45793 1118.45"/><path d="M 4.457929,1118.447154 A 0.000099,0.000099 0.000000 0 0 4.457801,1118.447263" style="fill:none;stroke:#000000"/><path d="M 4.457833,1118.550529 A 0.002735,0.002735 0.000000 0 0 4.455754,1118.550679" style="fill:none;stroke:#000000"/><path style="fill:none;stroke:#000000" d="M 4.45783 1118.55 L 4.45743 1118.55"/><path style="fill:none;stroke:#000000" d="M 4.45743 1118.55 L 4.45535 1118.55"/><path style="fill:none;stroke:#000000" d="M 4.45743 1118.55 L 4.45525 1118.55"/><path style="fill:none;stroke:#000000" d="M 4.54193 1118.55 L 4.54412 1118.55"/><path style="fill:none;stroke:#000000" d="M 4.54193 1118.55 L 4.54401 1118.55"/><path style="fill:none;stroke:#000000" d="M 4.54153 1118.55 L 4.54193 1118.55"/><path d="M 4.543610,1118.550679 A 0.002735,0.002735 0.000000 0 0 4.541531,1118.550529" style="fill:none;stroke:#000000"/><path d="M 4.541563,1118.447263 A 0.000099,0.000099 0.000000 0 0 4.541435,1118.447154" style="fill:none;stroke:#000000"/><path style="fill:none;stroke:#000000" d="M 4.49968 1118.45 L 4.54143 1118.45"/><path d="M 4.541585,1118.447182 A 0.000165,0.000165 0.000000 0 0 4.541420,1118.446967" style="fill:none;stroke:#000000"/><path d="M 4.541619,1118.474533 A 0.022270,0.022270 0.000000 0 0 4.523990,1118.465606" style="fill:none;stroke:#000000"/><path d="M 4.540901,1118.450028 A 0.072232,0.072232 0.000000 0 0 4.537549,1118.470364" style="fill:none;stroke:#000000"/><path d="M 4.541922,1118.445845 A 0.000550,0.000550 0.000000 0 0 4.541508,1118.445103" style="fill:none;stroke:#000000"/><path style="fill:none;stroke:#000000" d="M 4.49968 1118.45 L 4.54151 1118.45"/><path style="fill:none;stroke:#000000" d="M 4.49968 1118.45 L 4.54143 1118.45"/><path d="M 4.541922,1118.445845 A 0.054830,0.054830 0.000000 0 0 4.540055,1118.466130" style="fill:none;stroke:#000000"/><path d="M 4.543610,1118.550679 A 0.262782,0.262782 0.000000 0 0 4.540144,1118.466720" style="fill:none;stroke:#000000"/><path style="fill:none;stroke:#000000" d="M 4.49968 1118.47 L 4.52399 1118.47"/></symbol><symbol id="10_SEATER_RECTANGULAR_TABL"><use xlink:href="#A%24C51F1" style="stroke-width:0.001px" transform="matrix(1000 0 0 1000 -5141.15 -1.11934e+06)"/><path d="M -715.517114,-552.351420 L -100.907715,-552.351420 L -100.907715,-779.984531 L -715.517114,-779.984531 L -715.517114,-552.351420 z" style="fill:none;stroke:#00004C"/><path d="M -710.964452,-556.904082 L -105.460377,-556.904082 L -105.460377,-775.431869 L -710.964452,-775.431869 L -710.964452,-556.904082 z" style="fill:none;stroke:#00004C"/><use xlink:href="#A%24C51F1" style="stroke-width:0.001px" transform="matrix(1000 1.22465e-13 1.22465e-13 -1000 -14037 1.11801e+06)"/><path style="fill:none;stroke:#00004C" d="M -132.709 -541.428 L -130.526 -541.428"/><path style="fill:none;stroke:#00004C" d="M -132.709 -541.428 L -130.628 -542.413"/><path style="fill:none;stroke:#00004C" d="M -133.111 -545.844 L -132.709 -541.428"/><path d="M -133.111001,-545.844366 A 2.735089,2.735089 0.000000 0 0 -131.032641,-545.995006" style="fill:none;stroke:#00004C"/><use xlink:href="#A%24C51F1" style="stroke-width:0.001px" transform="matrix(1000 0 0 1000 -4907.82 -1.11934e+06)"/><use xlink:href="#A%24C51F1" style="stroke-width:0.001px" transform="matrix(-1000 0 0 1000 -4687.81 -1.11934e+06)"/><path d="M -218.888092,-545.995006 A 2.735089,2.735089 0.000000 0 0 -216.809732,-545.844366" style="fill:none;stroke:#00004C"/><path style="fill:none;stroke:#00004C" d="M -216.81 -545.844 L -217.212 -541.428"/><path style="fill:none;stroke:#00004C" d="M -217.212 -541.428 L -219.293 -542.413"/><path style="fill:none;stroke:#00004C" d="M -217.212 -541.428 L -219.395 -541.428"/><use xlink:href="#A%24C51F1" style="stroke-width:0.001px" transform="matrix(1000 0 0 1000 -5024.48 -1.11934e+06)"/><use xlink:href="#A%24C51F1" style="stroke-width:0.001px" transform="matrix(-1000 0 0 1000 -4571.15 -1.11934e+06)"/><path d="M -150.652554,-460.921955 A 22.269615,22.269615 0.000000 0 0 -133.022990,-469.848359" style="fill:none;stroke:#00004C"/><path d="M -133.207586,-442.469510 A 0.098589,0.098589 0.000000 0 0 -133.079431,-442.578948" style="fill:none;stroke:#00004C"/><path d="M -133.222698,-442.283121 A 0.165056,0.165056 0.000000 0 0 -133.057743,-442.497695" style="fill:none;stroke:#00004C"/><path d="M -133.134266,-440.419238 A 0.550343,0.550343 0.000000 0 0 -132.720603,-441.161211" style="fill:none;stroke:#00004C"/><path d="M -137.093853,-465.680257 A 72.231697,72.231697 0.000000 0 0 -133.741191,-445.343867" style="fill:none;stroke:#00004C"/><path d="M -134.587015,-461.446196 A 54.829689,54.829689 0.000000 0 0 -132.720603,-441.161211" style="fill:none;stroke:#00004C"/><path style="fill:none;stroke:#00004C" d="M -174.96 -460.922 L -199.268 -460.922"/><path d="M -216.897743,-469.848359 A 22.269615,22.269615 0.000000 0 0 -199.268179,-460.921955" style="fill:none;stroke:#00004C"/><path style="fill:none;stroke:#00004C" d="M -174.96 -442.283 L -216.713 -442.283"/><path style="fill:none;stroke:#00004C" d="M -174.96 -440.419 L -216.786 -440.419"/><path d="M -217.200131,-441.161211 A 0.550343,0.550343 0.000000 0 0 -216.786468,-440.419238" style="fill:none;stroke:#00004C"/><path d="M -216.862991,-442.497695 A 0.165056,0.165056 0.000000 0 0 -216.698036,-442.283121" style="fill:none;stroke:#00004C"/><path style="fill:none;stroke:#00004C" d="M -174.96 -442.47 L -216.713 -442.47"/><path d="M -216.841302,-442.578948 A 0.098589,0.098589 0.000000 0 0 -216.713148,-442.469510" style="fill:none;stroke:#00004C"/><path d="M -217.200131,-441.161211 A 54.829689,54.829689 0.000000 0 0 -215.333719,-461.446196" style="fill:none;stroke:#00004C"/><path d="M -216.179542,-445.343867 A 72.231697,72.231697 0.000000 0 0 -212.826880,-465.680257" style="fill:none;stroke:#00004C"/><path style="fill:none;stroke:#00004C" d="M -174.96 -460.922 L -150.653 -460.922"/><path style="fill:none;stroke:#00004C" d="M -174.96 -442.47 L -133.208 -442.47"/><path style="fill:none;stroke:#00004C" d="M -174.96 -440.419 L -133.134 -440.419"/><path style="fill:none;stroke:#00004C" d="M -174.96 -442.283 L -133.208 -442.283"/><use xlink:href="#A%24C51F1" style="stroke-width:0.001px" transform="matrix(1000 1.22465e-13 1.22465e-13 -1000 -13920.3 1.11801e+06)"/><path d="M -223.076544,-440.898761 A 49.309578,49.309578 0.0 0 0 -220.894961,-460.790665 A 268.763245,268.763245 0.0 0 1 -224.439988,-546.660592 A 5.054178,5.054178 0.0 0 1 -218.880025,-545.994039 A 2.739063,2.739063 0.0 0 0 -216.798646,-545.843180 A 109.463977,109.463977 0.0 0 1 -204.491085,-546.660592 L -174.888476,-546.660592 L -145.285867,-546.660592 A 109.463977,109.463977 0.0 0 1 -132.978306,-545.843180 A 2.739063,2.739063 0.0 0 0 -130.896927,-545.994039 A 5.054178,5.054178 0.0 0 1 -125.336965,-546.660592 A 268.763245,268.763245 0.0 0 1 -128.881992,-460.790665 A 49.309578,49.309578 0.0 0 0 -126.700409,-440.898761 A 2.868366,2.868366 0.0 0 1 -129.154644,-436.531693 L -220.622308,-436.531693 A 2.868366,2.868366 0.0 0 1 -223.076544,-440.898761 z" style="fill:none;stroke:#00004C"/><use xlink:href="#A%24C51F1" style="stroke-width:0.001px" transform="matrix(1000 1.22465e-13 1.22465e-13 -1000 -13803.7 1.11801e+06)"/><use xlink:href="#A%24C51F1" style="stroke-width:0.001px" transform="matrix(-1000 1.22465e-13 -1.22465e-13 -1000 4208.06 1.11801e+06)"/><path d="M -218.888092,-545.995006 A 262.781667,262.781667 0.000000 0 0 -215.421963,-462.036194" style="fill:none;stroke:#00004C"/><path d="M -134.498770,-462.036194 A 262.781667,262.781667 0.000000 0 0 -131.032641,-545.995006" style="fill:none;stroke:#00004C"/></symbol></defs><g inkscape:groupmode="layer" inkscape:label="0"><use xlink:href="#10_SEATER_RECTANGULAR_TABL" style="stroke-width:0.500px" transform="translate(721.781, 1553.63)"/></g></svg>