<svg xmlns="http://www.w3.org/2000/svg" xmlns:svg="http://www.w3.org/2000/svg" xmlns:xlink="http://www.w3.org/1999/xlink" xmlns:sodipodi="http://sodipodi.sourceforge.net/DTD/sodipodi-0.dtd" xmlns:inkscape="http://www.inkscape.org/namespaces/inkscape" viewBox="0 0 793.7007874015749 1122.5196850393702" width="793.7007874015749" height="1122.5196850393702">
    <defs><marker id="DistanceX" orient="auto" refX="0.0" refY="0.0" style="overflow:visible"><path d="M 3,-3 L -3,3 M 0,-5 L  0,5" style="stroke:#000000; stroke-width:0.5"/></marker><pattern id="Hatch" patternUnits="userSpaceOnUse" width="8" height="8" x="0" y="0"><path d="M8 4 l-4,4" stroke="#000000" stroke-width="0.25" linecap="square"/><path d="M6 2 l-4,4" stroke="#000000" stroke-width="0.25" linecap="square"/><path d="M4 0 l-4,4" stroke="#000000" stroke-width="0.25" linecap="square"/></pattern><symbol id="*MODEL_SPACE"/><symbol id="*PAPER_SPACE"/><symbol id="EVENT_CHAIR_1"><path style="fill:none;stroke:#00004C" d="M 3680.22 1034.9 L 3680.22 993.63"/><path style="fill:none;stroke:#00004C" d="M 3668.96 1034.9 L 3668.96 984.246"/><path style="fill:none;stroke:#00004C" d="M 3646.44 1034.9 L 3646.44 984.246"/><path style="fill:none;stroke:#00004C" d="M 3635.17 1034.9 L 3635.17 993.63"/><path style="fill:none;stroke:#00004C" d="M 3657.7 1034.9 L 3657.7 977.453"/><path style="fill:none;stroke:#00004C" d="M 3734.85 920.85 L 3742.17 1027.39"/><path style="fill:none;stroke:#00004C" d="M 3702.75 1034.9 L 3702.75 1012.4"/><path style="fill:none;stroke:#00004C" d="M 3691.49 1034.9 L 3691.49 1003.01"/><path style="fill:none;stroke:#00004C" d="M 3580.55 920.85 L 3573.23 1027.39"/><path style="fill:none;stroke:#00004C" d="M 3623.91 1034.9 L 3623.91 1003.01"/><path style="fill:none;stroke:#00004C" d="M 3612.65 1034.9 L 3612.65 1012.4"/><path style="fill:none;stroke:#00004C" d="M 3630.66 997.386 L 3586.58 997.386"/><path style="fill:none;stroke:#00004C" d="M 3644.18 986.124 L 3587.35 986.124"/><path style="fill:none;stroke:#00004C" d="M 3644.18 963.598 L 3588.9 963.598"/><path style="fill:none;stroke:#00004C" d="M 3630.66 952.336 L 3589.67 952.336"/><path style="fill:none;stroke:#00004C" d="M 3654.2 974.861 L 3588.13 974.861"/><path d="M 3742.168460,863.071507 A 335.184784,335.184784 0.000000 0 0 3573.228309,863.071507" style="fill:none;stroke:#00004C"/><path d="M 3737.437939,881.236787 A 316.413656,316.413656 0.000000 0 0 3577.958830,881.236787" style="fill:none;stroke:#00004C"/><path style="fill:none;stroke:#00004C" d="M 3716.14 903.561 L 3599.26 903.561"/><path style="fill:none;stroke:#00004C" d="M 3635.17 956.092 L 3635.17 914.824"/><path style="fill:none;stroke:#00004C" d="M 3646.44 965.477 L 3646.44 914.824"/><path style="fill:none;stroke:#00004C" d="M 3668.96 965.477 L 3668.96 914.824"/><path style="fill:none;stroke:#00004C" d="M 3680.22 956.092 L 3680.22 914.824"/><path style="fill:none;stroke:#00004C" d="M 3657.7 971.164 L 3657.7 914.824"/><path d="M 3735.408482,880.715454 A 9.447355,9.447355 0.000000 1 0 3740.018606,862.519246" style="fill:none;stroke:#00004C"/><path d="M 3734.849606,920.849635 A 18.771128,18.771128 0.000000 0 0 3733.764044,915.878594" style="fill:none;stroke:#00004C"/><path d="M 3716.269096,904.883847 A 11.262677,11.262677 0.000000 0 0 3728.035875,916.135237" style="fill:none;stroke:#00004C"/><path style="fill:none;stroke:#00004C" d="M 3733.76 915.879 L 3728.04 916.135"/><path style="fill:none;stroke:#00004C" d="M 3716.27 904.884 L 3716.27 903.561"/><path style="fill:none;stroke:#00004C" d="M 3743.33 880.15 L 3733.76 915.879"/><path style="fill:none;stroke:#00004C" d="M 3716.27 903.561 L 3721.88 877.602"/><path style="fill:none;stroke:#00004C" d="M 3691.49 946.708 L 3691.49 914.824"/><path style="fill:none;stroke:#00004C" d="M 3702.75 937.323 L 3702.75 914.824"/><path style="fill:none;stroke:#00004C" d="M 3714.01 927.939 L 3714.01 914.824"/><path style="fill:none;stroke:#00004C" d="M 3724.18 929.81 L 3711.77 929.81"/><path style="fill:none;stroke:#00004C" d="M 3724.95 941.073 L 3698.25 941.073"/><path style="fill:none;stroke:#00004C" d="M 3729.59 1008.65 L 3698.25 1008.65"/><path style="fill:none;stroke:#00004C" d="M 3726.5 963.598 L 3671.22 963.598"/><path style="fill:none;stroke:#00004C" d="M 3725.72 952.336 L 3684.73 952.336"/><path style="fill:none;stroke:#00004C" d="M 3728.04 986.124 L 3671.22 986.124"/><path style="fill:none;stroke:#00004C" d="M 3728.82 997.386 L 3684.73 997.386"/><path style="fill:none;stroke:#00004C" d="M 3661.55 974.861 L 3727.27 974.861"/><path d="M 3575.378163,862.519246 A 9.447355,9.447355 0.000000 1 0 3579.988287,880.715454" style="fill:none;stroke:#00004C"/><path style="fill:none;stroke:#00004C" d="M 3599.13 903.561 L 3593.52 877.602"/><path style="fill:none;stroke:#00004C" d="M 3599.13 904.884 L 3599.13 903.561"/><path style="fill:none;stroke:#00004C" d="M 3581.63 915.879 L 3587.36 916.135"/><path d="M 3587.360893,916.135237 A 11.262677,11.262677 0.000000 0 0 3599.127673,904.883847" style="fill:none;stroke:#00004C"/><path d="M 3581.632725,915.878594 A 18.771128,18.771128 0.000000 0 0 3580.547163,920.849635" style="fill:none;stroke:#00004C"/><path style="fill:none;stroke:#00004C" d="M 3572.07 880.15 L 3581.63 915.879"/><path style="fill:none;stroke:#00004C" d="M 3617.15 1008.65 L 3585.8 1008.65"/><path style="fill:none;stroke:#00004C" d="M 3617.15 941.073 L 3590.45 941.073"/><path style="fill:none;stroke:#00004C" d="M 3603.63 929.81 L 3591.22 929.81"/><path style="fill:none;stroke:#00004C" d="M 3601.39 927.939 L 3601.39 914.824"/><path style="fill:none;stroke:#00004C" d="M 3612.65 937.323 L 3612.65 914.824"/><path style="fill:none;stroke:#00004C" d="M 3623.91 946.708 L 3623.91 914.824"/><path style="fill:none;stroke:#00004C" d="M 3592 1046.16 L 3723.4 1046.16"/><path d="M 3723.397332,1046.161386 A 18.771128,18.771128 0.000000 0 0 3742.168460,1027.390258" style="fill:none;stroke:#00004C"/><path style="fill:none;stroke:#00004C" d="M 3730.37 1019.91 L 3711.77 1019.91"/><path style="fill:none;stroke:#00004C" d="M 3729.88 1031.17 L 3725.28 1031.17"/><path style="fill:none;stroke:#00004C" d="M 3725.27 1034.66 L 3725.27 1031.17"/><path style="fill:none;stroke:#00004C" d="M 3714.01 1034.9 L 3714.01 1021.78"/><path d="M 3573.228309,1027.390258 A 18.771128,18.771128 0.000000 0 0 3591.999437,1046.161386" style="fill:none;stroke:#00004C"/><path style="fill:none;stroke:#00004C" d="M 3590.11 1031.17 L 3585.51 1031.17"/><path style="fill:none;stroke:#00004C" d="M 3603.63 1019.91 L 3585.03 1019.91"/><path style="fill:none;stroke:#00004C" d="M 3601.39 1034.9 L 3601.39 1021.78"/><path style="fill:none;stroke:#00004C" d="M 3590.12 1034.66 L 3590.12 1031.17"/></symbol><symbol id="CHAIR_015"><path d="M -0.398083,1121.692616 A 0.997998,0.997998 0.000000 0 0 -0.398083,1121.830271" style="fill:none;stroke:#000000"/><path d="M -0.420055,1121.692616 A 0.997998,0.997998 0.000000 0 0 -0.420055,1121.830271" style="fill:none;stroke:#000000"/><path d="M -0.464800,1121.552376 A 1.036033,1.036033 0.0 0 0 -0.464800,1121.970511" style="fill:none;stroke:#000000"/><path d="M -0.398083,1121.692616 L -0.420055,1121.692616 A 1.032412,1.032412 0.0 0 1 -0.399055,1121.543359 A 0.015643,0.015643 0.0 0 0 -0.412239,1121.524554 L -0.469334,1121.521272 A 0.023464,0.023464 0.0 0 0 -0.493633,1121.539823 A 1.066826,1.066826 0.0 0 0 -0.493633,1121.983064 A 0.023464,0.023464 0.0 0 0 -0.469334,1122.001615 L -0.412239,1121.998333 A 0.015643,0.015643 0.0 0 0 -0.399055,1121.979528 A 1.032412,1.032412 0.0 0 1 -0.420055,1121.830271 L -0.398083,1121.830271 A 0.997998,0.997998 0.0 0 0 -0.379546,1121.964680 A 0.103241,0.103241 0.0 0 0 -0.291273,1122.046100 L 0.046454,1122.086360 L 0.060956,1122.088173 A 0.137655,0.137655 0.0 0 0 0.212979,1121.978744 A 1.101240,1.101240 0.0 0 0 0.212979,1121.544143 A 0.137655,0.137655 0.0 0 0 0.060956,1121.434714 L 0.046454,1121.436526 L -0.291273,1121.476787 A 0.103241,0.103241 0.0 0 0 -0.379546,1121.558207 A 0.997998,0.997998 0.0 0 0 -0.398083,1121.692616 z" style="fill:none;stroke:#000000"/><path d="M -0.216073,1121.623789 A 0.012317,0.012317 0.000000 0, 0 -0.240707,1121.623789 A 0.012317,0.012317 0.000000 0, 0 -0.216073,1121.623789 z" style="fill:none;stroke:#000000"/><path d="M 0.074879,1121.623788 A 0.012317,0.012317 0.000000 0, 0 0.050245,1121.623788 A 0.012317,0.012317 0.000000 0, 0 0.074879,1121.623788 z" style="fill:none;stroke:#000000"/><path d="M 0.074879,1121.899098 A 0.012317,0.012317 0.000000 0, 0 0.050245,1121.899098 A 0.012317,0.012317 0.000000 0, 0 0.074879,1121.899098 z" style="fill:none;stroke:#000000"/><path d="M -0.216073,1121.899098 A 0.012317,0.012317 0.000000 0, 0 -0.240707,1121.899098 A 0.012317,0.012317 0.000000 0, 0 -0.216073,1121.899098 z" style="fill:none;stroke:#000000"/></symbol><symbol id="EVENT_CHAIR_2"><use xlink:href="#CHAIR_015" style="stroke-width:0.002px" transform="matrix(0.520676 249.999 -249.999 0.520676 284750 1734.63)"/></symbol><symbol id="A$C62F36CF4"><path style="fill:none;stroke:#00004C" d="M 142.546 952.875 L 142.546 924.718"/><path style="fill:none;stroke:#00004C" d="M 138.792 923.331 L 138.792 951.487"/><path style="fill:none;stroke:#00004C" d="M 44.9361 951.487 L 44.9361 923.331"/><path style="fill:none;stroke:#00004C" d="M 41.1818 924.718 L 41.1818 952.875"/><path d="M 16.057417,965.587991 A 18.771128,18.771128 0.000000 0 0 7.393820,981.405484" style="fill:none;stroke:#00004C"/><path d="M 157.562842,1121.761441 A 18.771128,18.771128 0.000000 0 0 176.333970,1102.990313" style="fill:none;stroke:#00004C"/><path d="M 7.393820,1102.990313 A 18.771128,18.771128 0.000000 0 0 26.164947,1121.761441" style="fill:none;stroke:#00004C"/><path style="fill:none;stroke:#00004C" d="M 182.418 937.351 L 178.61 941.16"/><path d="M 5.117748,941.159655 A 3.754226,3.754226 0.000000 0 0 9.956581,941.558457" style="fill:none;stroke:#00004C"/><path d="M 1.985042,931.506385 A 3.754226,3.754226 0.000000 0 0 1.309387,937.351294" style="fill:none;stroke:#00004C"/><path style="fill:none;stroke:#00004C" d="M 1.30939 937.351 L 5.11775 941.16"/><path d="M 181.742748,931.506385 A 170.504411,170.504411 0.000000 0 0 1.985042,931.506385" style="fill:none;stroke:#00004C"/><path d="M 173.771208,941.558457 A 140.783459,140.783459 0.000000 0 0 142.545940,924.718241" style="fill:none;stroke:#00004C"/><path d="M 167.670373,965.587991 A 140.783459,140.783459 0.000000 0 0 142.545940,952.874933" style="fill:none;stroke:#00004C"/><path style="fill:none;stroke:#00004C" d="M 7.39382 1102.99 L 7.39382 981.405"/><path style="fill:none;stroke:#00004C" d="M 176.334 1102.99 L 176.334 981.405"/><path style="fill:none;stroke:#00004C" d="M 26.1649 1121.76 L 157.563 1121.76"/><path d="M 182.418402,937.351294 A 3.754226,3.754226 0.000000 0 0 181.742748,931.506385" style="fill:none;stroke:#00004C"/><path d="M 173.771208,941.558457 A 3.754226,3.754226 0.000000 0 0 178.610042,941.159655" style="fill:none;stroke:#00004C"/><path d="M 176.333970,981.405484 A 18.771128,18.771128 0.000000 0 0 167.670373,965.587991" style="fill:none;stroke:#00004C"/><path d="M 41.181850,952.874933 A 140.783459,140.783459 0.000000 0 0 16.057417,965.587991" style="fill:none;stroke:#00004C"/><path d="M 41.181850,924.718241 A 140.783459,140.783459 0.000000 0 0 9.956581,941.558457" style="fill:none;stroke:#00004C"/><path d="M 138.791715,923.330576 A 140.783459,140.783459 0.000000 0 0 44.936075,923.330576" style="fill:none;stroke:#00004C"/><path d="M 138.791715,951.487267 A 140.783459,140.783459 0.000000 0 0 44.936075,951.487267" style="fill:none;stroke:#00004C"/></symbol><symbol id="EVENT_CHAIR_3"><use xlink:href="#A%24C62F36CF4" style="stroke-width:0.500px" transform="translate(3818.73, 965.274)"/></symbol><symbol id="A$C51F1"><path d="M 0.399330,1121.583596 A 0.081324,0.081324 0.0 0 0 0.395732,1121.616403 A 0.443256,0.443256 0.0 0 1 0.401579,1121.758023 A 0.008336,0.008336 0.0 0 1 0.392409,1121.756924 A 0.004517,0.004517 0.0 0 0 0.388976,1121.756675 A 0.180533,0.180533 0.0 0 1 0.368678,1121.758023 L 0.319856,1121.758023 L 0.271034,1121.758023 A 0.180533,0.180533 0.0 0 1 0.250736,1121.756675 A 0.004517,0.004517 0.0 0 0 0.247303,1121.756924 A 0.008336,0.008336 0.0 0 1 0.238134,1121.758023 A 0.443256,0.443256 0.0 0 1 0.243980,1121.616403 A 0.081324,0.081324 0.0 0 0 0.240382,1121.583596 A 0.004731,0.004731 0.0 0 1 0.244430,1121.576394 L 0.395282,1121.576394 A 0.004731,0.004731 0.0 0 1 0.399330,1121.583596 z" style="fill:none;stroke:#000000"/><path style="fill:none;stroke:#000000" d="M 0.319975 1121.62 L 0.279885 1121.62"/><path d="M 0.253244,1121.618457 A 0.433391,0.433391 0.000000 0 0 0.247527,1121.756926" style="fill:none;stroke:#000000"/><path d="M 0.253389,1121.617484 A 0.090428,0.090428 0.000000 0 0 0.250311,1121.584029" style="fill:none;stroke:#000000"/><path style="fill:none;stroke:#000000" d="M 0.319975 1121.59 L 0.251114 1121.59"/><path style="fill:none;stroke:#000000" d="M 0.319975 1121.58 L 0.250993 1121.58"/><path d="M 0.250993,1121.582805 A 0.000908,0.000908 0.000000 0 0 0.250311,1121.584029" style="fill:none;stroke:#000000"/><path d="M 0.257524,1121.624467 A 0.119128,0.119128 0.000000 0 0 0.251994,1121.590927" style="fill:none;stroke:#000000"/><path d="M 0.279885,1121.616619 A 0.036728,0.036728 0.000000 0 0 0.250810,1121.631341" style="fill:none;stroke:#000000"/><path d="M 0.251139,1121.585879 A 0.000272,0.000272 0.000000 0 0 0.250867,1121.586233" style="fill:none;stroke:#000000"/><path style="fill:none;stroke:#000000" d="M 0.319975 1121.59 L 0.251114 1121.59"/><path d="M 0.251114,1121.586187 A 0.000163,0.000163 0.000000 0 0 0.250903,1121.586367" style="fill:none;stroke:#000000"/><path d="M 0.250955,1121.756677 A 0.004511,0.004511 0.000000 0 0 0.247527,1121.756926" style="fill:none;stroke:#000000"/><path style="fill:none;stroke:#000000" d="M 0.250955 1121.76 L 0.250292 1121.75"/><path style="fill:none;stroke:#000000" d="M 0.250292 1121.75 L 0.24686 1121.75"/><path style="fill:none;stroke:#000000" d="M 0.250292 1121.75 L 0.246691 1121.75"/><path style="fill:none;stroke:#000000" d="M 0.389657 1121.75 L 0.393259 1121.75"/><path style="fill:none;stroke:#000000" d="M 0.389657 1121.75 L 0.393089 1121.75"/><path style="fill:none;stroke:#000000" d="M 0.388995 1121.76 L 0.389657 1121.75"/><path d="M 0.392422,1121.756926 A 0.004511,0.004511 0.000000 0 0 0.388995,1121.756677" style="fill:none;stroke:#000000"/><path d="M 0.389047,1121.586367 A 0.000163,0.000163 0.000000 0 0 0.388835,1121.586187" style="fill:none;stroke:#000000"/><path style="fill:none;stroke:#000000" d="M 0.319975 1121.59 L 0.388835 1121.59"/><path d="M 0.389082,1121.586233 A 0.000272,0.000272 0.000000 0 0 0.388810,1121.585879" style="fill:none;stroke:#000000"/><path d="M 0.389140,1121.631341 A 0.036728,0.036728 0.000000 0 0 0.360064,1121.616619" style="fill:none;stroke:#000000"/><path d="M 0.387955,1121.590927 A 0.119128,0.119128 0.000000 0 0 0.382426,1121.624467" style="fill:none;stroke:#000000"/><path d="M 0.389638,1121.584029 A 0.000908,0.000908 0.000000 0 0 0.388956,1121.582805" style="fill:none;stroke:#000000"/><path style="fill:none;stroke:#000000" d="M 0.319975 1121.58 L 0.388956 1121.58"/><path style="fill:none;stroke:#000000" d="M 0.319975 1121.59 L 0.388835 1121.59"/><path d="M 0.389638,1121.584029 A 0.090428,0.090428 0.000000 0 0 0.386560,1121.617484" style="fill:none;stroke:#000000"/><path d="M 0.392422,1121.756926 A 0.433391,0.433391 0.000000 0 0 0.386706,1121.618457" style="fill:none;stroke:#000000"/><path style="fill:none;stroke:#000000" d="M 0.319975 1121.62 L 0.360064 1121.62"/></symbol><symbol id="EVENT_CHAIR_4"><use xlink:href="#A%24C51F1" style="stroke-width:0.001px" transform="matrix(-1000 0 0 1000 3266.33 -1.11946e+06)"/></symbol><symbol id="OFFICE_CHAIR_1"><path d="M 2210.157130,1888.474791 A 56.313384,56.313384 0.000000 0 0 2153.938681,1941.519660" style="fill:none;stroke:#00004C"/><path d="M 2314.029937,1941.519660 A 56.313384,56.313384 0.000000 0 0 2257.811488,1888.474791" style="fill:none;stroke:#00004C"/><path d="M 2287.260507,1874.488221 A 18.809117,18.809117 0.000000 0 0 2310.254705,1860.324388" style="fill:none;stroke:#00004C"/><path d="M 2311.150422,1856.679388 A 308.785053,308.785053 0.000000 0 0 2159.133165,1856.679388" style="fill:none;stroke:#00004C"/><path d="M 2310.226305,1860.318099 A 305.030828,305.030828 0.000000 0 0 2160.057282,1860.318099" style="fill:none;stroke:#00004C"/><path d="M 2310.226305,1860.318099 A 1.877113,1.877113 0.000000 1 0 2311.150422,1856.679388" style="fill:none;stroke:#00004C"/><path style="fill:none;stroke:#00004C" d="M 2224.6 1840.7 L 2243.37 1840.7"/><path d="M 2159.133165,1856.679388 A 1.877113,1.877113 0.000000 0 0 2160.057282,1860.318099" style="fill:none;stroke:#00004C"/><path d="M 2160.028881,1860.324388 A 18.809117,18.809117 0.000000 0 0 2183.023079,1874.488221" style="fill:none;stroke:#00004C"/><path style="fill:none;stroke:#00004C" d="M 2243.37 1869.71 L 2243.37 1888.47"/><path style="fill:none;stroke:#00004C" d="M 2224.6 1869.71 L 2224.6 1888.47"/><path style="fill:none;stroke:#00004C" d="M 2243.37 1836.19 L 2224.6 1836.19"/><path style="fill:none;stroke:#00004C" d="M 2224.6 1836.19 L 2224.6 1840.7"/><path style="fill:none;stroke:#00004C" d="M 2243.37 1840.7 L 2243.37 1836.19"/><path style="fill:none;stroke:#00004C" d="M 2210.16 1888.47 L 2257.81 1888.47"/><path d="M 2287.260507,1874.488221 A 286.259700,286.259700 0.000000 0 0 2180.748527,1874.918903" style="fill:none;stroke:#00004C"/><path d="M 2280.543155,2036.766701 A 37.542256,37.542256 0.000000 0 0 2318.022121,1997.045436" style="fill:none;stroke:#00004C"/><path style="fill:none;stroke:#00004C" d="M 2314.03 1941.52 L 2318.02 1997.05"/><path style="fill:none;stroke:#00004C" d="M 2149.95 1997.05 L 2153.94 1941.52"/><path d="M 2149.946497,1997.045436 A 37.542256,37.542256 0.000000 0 0 2187.425463,2036.766701" style="fill:none;stroke:#00004C"/><path style="fill:none;stroke:#00004C" d="M 2280.54 2036.77 L 2187.43 2036.77"/></symbol><symbol id="A$C55AF7360"><path style="fill:none;stroke:#00004C;stroke-linecap:round" d="M 142.895 1016.8 L 142.895 1024.31"/><path style="fill:none;stroke:#00004C;stroke-linecap:round" d="M 142.895 1106.9 L 142.895 1114.41"/><path style="fill:none;stroke:#00004C;stroke-linecap:round" d="M 157.912 1099.39 L 157.912 1031.81"/><path style="fill:none;stroke:#00004C;stroke-linecap:round" d="M 94.0903 1008.97 L 94.0903 1016.8"/><path style="fill:none;stroke:#00004C;stroke-linecap:round" d="M 127.878 1031.81 L 127.878 1099.39"/><path d="M 127.878304,1099.390013 A 18.771128,18.771128 0.000000 0 0 157.912108,1099.390013" style="fill:none;stroke:#00004C;stroke-linecap: round"/><path d="M 157.912108,1031.813952 A 18.771128,18.771128 0.000000 0 0 127.878304,1031.813952" style="fill:none;stroke:#00004C;stroke-linecap: round"/><path style="fill:none;stroke:#00004C;stroke-linecap:round" d="M 142.895 994.272 L 142.895 1001.78"/><path style="fill:none;stroke:#00004C;stroke-linecap:round" d="M 64.0565 1016.8 L 64.0565 1008.8"/><path style="fill:none;stroke:#00004C;stroke-linecap:round" d="M 30.2684 1099.39 L 30.2684 1031.81"/><path style="fill:none;stroke:#00004C;stroke-linecap:round" d="M 15.2515 1016.8 L 15.2515 1024.31"/><path style="fill:none;stroke:#00004C;stroke-linecap:round" d="M 15.2515 1106.9 L 15.2515 1114.41"/><path style="fill:none;stroke:#00004C;stroke-linecap:round" d="M 0.234634 1031.81 L 0.234634 1099.39"/><path d="M 0.234635,1099.390013 A 18.771128,18.771128 0.000000 0 0 30.268439,1099.390013" style="fill:none;stroke:#00004C;stroke-linecap: round"/><path d="M 30.268439,1031.813952 A 18.771128,18.771128 0.000000 0 0 0.234635,1031.813952" style="fill:none;stroke:#00004C;stroke-linecap: round"/><path style="fill:none;stroke:#00004C;stroke-linecap:round" d="M 15.2515 994.272 L 15.2515 1001.78"/><path d="M 15.251414,1114.406886 A 274.997023,274.997023 0.000000 0 0 142.895329,1114.406886" style="fill:none;stroke:#00004C;stroke-linecap: round"/><path style="fill:none;stroke:#00004C;stroke-linecap:round" d="M 15.2515 1016.8 L 142.895 1016.8"/><path d="M 15.251414,1001.780119 A 274.997023,274.997023 0.000000 0 0 142.895329,1001.780119" style="fill:none;stroke:#00004C;stroke-linecap: round"/><path style="fill:none;stroke:#00004C;stroke-linecap:round" d="M 15.2515 994.272 L 142.895 994.272"/></symbol><symbol id="A$C182D284A"><path style="fill:none;stroke:#00004C;stroke-linecap:round" d="M 44.3971 1121.76 L 198.486 1121.76"/><path d="M 54.193581,950.120949 A 11.578565,11.578565 0.000000 0 0 54.193621,973.007204" style="fill:none;stroke:#00004C;stroke-linecap: round"/><path d="M 68.958425,978.724354 A 23.133779,23.133779 0.000000 0 0 49.334065,997.795718" style="fill:none;stroke:#00004C;stroke-linecap: round"/><path style="fill:none;stroke:#00004C;stroke-linecap:round" d="M 49.304 997.796 L 30.8607 1092.57"/><path style="fill:none;stroke:#00004C;stroke-linecap:round" d="M 0.234638 1035.71 L 0.234638 1097.76"/><path style="fill:none;stroke:#00004C;stroke-linecap:round" d="M 24.9949 1035.71 L 24.9949 1097.76"/><path style="fill:none;stroke:#00004C;stroke-linecap:round" d="M 20.2572 1014.64 L 20.2572 1033.4"/><path style="fill:none;stroke:#00004C;stroke-linecap:round" d="M 5.19798 1014.62 L 5.19798 1033.33"/><path d="M 30.882323,1092.571878 A 27.999430,27.999430 0.000000 0 0 44.424837,1121.758732" style="fill:none;stroke:#00004C;stroke-linecap: round"/><path d="M 0.284235,1097.755388 A 23.961698,23.961698 0.000000 0 0 25.001730,1097.755388" style="fill:none;stroke:#00004C;stroke-linecap: round"/><path d="M 25.001622,1035.711056 A 23.961698,23.961698 0.000000 0 0 0.284235,1035.711121" style="fill:none;stroke:#00004C;stroke-linecap: round"/><path d="M 20.246884,1014.646406 A 8.305243,8.305243 0.000000 0 0 5.165918,1014.616005" style="fill:none;stroke:#00004C;stroke-linecap: round"/><path d="M 183.782451,973.007235 A 11.578565,11.578565 0.000000 0 0 183.782531,950.120924" style="fill:none;stroke:#00004C;stroke-linecap: round"/><path style="fill:none;stroke:#00004C;stroke-linecap:round" d="M 193.579 997.796 L 212.023 1092.57"/><path d="M 198.514772,1121.758732 A 27.999430,27.999430 0.000000 0 0 212.057330,1092.572118" style="fill:none;stroke:#00004C;stroke-linecap: round"/><path style="fill:none;stroke:#00004C;stroke-linecap:round" d="M 183.765 973.002 L 54.2109 973.002"/><path style="fill:none;stroke:#00004C;stroke-linecap:round" d="M 173.951 978.727 L 68.9317 978.727"/><path d="M 193.605848,997.795483 A 23.134118,23.134118 0.000000 0 0 173.981351,978.724035" style="fill:none;stroke:#00004C;stroke-linecap: round"/><path style="fill:none;stroke:#00004C;stroke-linecap:round" d="M 242.536 1035.71 L 242.536 1097.76"/><path style="fill:none;stroke:#00004C;stroke-linecap:round" d="M 217.832 1035.71 L 217.832 1097.76"/><path style="fill:none;stroke:#00004C;stroke-linecap:round" d="M 222.513 1014.64 L 222.513 1033.4"/><path style="fill:none;stroke:#00004C;stroke-linecap:round" d="M 237.629 1014.62 L 237.629 1033.33"/><path d="M 217.825193,1097.755194 A 23.961472,23.961472 0.000000 0 0 242.542456,1097.755194" style="fill:none;stroke:#00004C;stroke-linecap: round"/><path d="M 242.542420,1035.711292 A 23.961472,23.961472 0.000000 0 0 217.825193,1035.711314" style="fill:none;stroke:#00004C;stroke-linecap: round"/><path d="M 237.604532,1014.615968 A 8.305300,8.305300 0.000000 0 0 222.523470,1014.646382" style="fill:none;stroke:#00004C;stroke-linecap: round"/><path style="fill:none;stroke:#00004C;stroke-linecap:round" d="M 183.765 950.12 L 54.2109 950.12"/></symbol><symbol id="CH9"><path d="M 55.742865,1121.761443 A 28.156692,28.156692 0.000000 0 0 83.816620,1091.445232" style="fill:none;stroke:#00004C"/><path d="M -65.464317,1004.441894 A 23.463910,23.463910 0.000000 0 0 -112.392136,1004.441894" style="fill:none;stroke:#00004C"/><path d="M -65.464317,1039.722529 A 28.156692,28.156692 0.000000 0 0 -51.277256,1064.169384" style="fill:none;stroke:#00004C"/><path d="M 0.234631,1109.944718 A 28.156692,28.156692 0.000000 0 0 -13.952430,1085.497863" style="fill:none;stroke:#00004C"/><path d="M -112.392136,1168.689263 A 28.156692,28.156692 0.000000 0 0 -84.235444,1196.845955" style="fill:none;stroke:#00004C"/><path d="M -27.922061,1196.845955 A 28.156692,28.156692 0.000000 0 0 0.234631,1168.689263" style="fill:none;stroke:#00004C"/><path d="M 77.592067,1010.525960 A 28.156692,28.156692 0.000000 0 0 55.225491,985.113258" style="fill:none;stroke:#00004C"/><path d="M -45.370665,985.113258 A 28.156692,28.156692 0.000000 0 0 -65.617231,1001.767495" style="fill:none;stroke:#00004C"/><path d="M 55.225485,985.113262 A 304.003634,304.003634 0.000000 0 0 -45.370659,985.113262" style="fill:none;stroke:#00004C"/><path d="M 75.319141,952.821294 A 267.163419,267.163419 0.000000 0 0 -65.464316,952.821294" style="fill:none;stroke:#00004C"/><path d="M 75.319141,971.592422 A 267.163419,267.163419 0.000000 0 0 -65.464316,971.592422" style="fill:none;stroke:#00004C"/><path style="fill:none;stroke:#00004C" d="M -65.4643 1039.72 L -65.4643 1004.44"/><path style="fill:none;stroke:#00004C" d="M -13.9524 1085.5 L -51.2773 1064.17"/><path style="fill:none;stroke:#00004C" d="M 0.234631 1168.69 L 0.234631 1109.94"/><path style="fill:none;stroke:#00004C" d="M 0.234631 1121.76 L 55.7429 1121.76"/><path style="fill:none;stroke:#00004C" d="M 83.8166 1091.45 L 77.5921 1010.53"/><path d="M 75.319142,971.592421 A 9.385564,9.385564 0.000000 0 0 75.319142,952.821293" style="fill:none;stroke:#00004C"/><path d="M -65.464317,952.821293 A 9.385564,9.385564 0.000000 0 0 -65.464317,971.592421" style="fill:none;stroke:#00004C"/><path style="fill:none;stroke:#00004C" d="M 19.0058 962.523 L 19.0058 981.25"/><path style="fill:none;stroke:#00004C" d="M -9.15093 981.25 L -9.15093 962.523"/><path style="fill:none;stroke:#00004C" d="M -112.392 1004.44 L -112.392 1168.69"/><path style="fill:none;stroke:#00004C" d="M -84.2354 1196.85 L -27.9221 1196.85"/></symbol><symbol id="A$C47044345"><path style="fill:none;stroke:#00004C" d="M 122.178 1027.01 L 128.431 1022.85"/><path style="fill:none;stroke:#00004C" d="M 6.48812 1027.01 L 0.234632 1022.85"/><path d="M 128.431042,1022.850973 A 76.961624,76.961624 0.000000 0 0 0.234632,1022.850973" style="fill:none;stroke:#00004C"/><path d="M 122.177558,1027.006787 A 69.453173,69.453173 0.000000 0 0 6.488116,1027.006787" style="fill:none;stroke:#00004C"/><path d="M 120.646221,1065.448059 A 56.313384,56.313384 0.000000 0, 0 8.019453,1065.448059 A 56.313384,56.313384 0.000000 0, 0 120.646221,1065.448059 z" style="fill:none;stroke:#00004C"/></symbol><symbol id="A$C457C22D4"><path d="M 168.432381,1041.703900 A 80.057544,80.057544 0.000000 0, 0 8.317294,1041.703900 A 80.057544,80.057544 0.000000 0, 0 168.432381,1041.703900 z" style="fill:none;stroke:#00004C;stroke-linecap: round"/><path d="M 177.722507,963.914522 A 153.553073,153.553073 0.000000 0 0 1.564126,963.914522" style="fill:none;stroke:#00004C;stroke-linecap: round"/><path d="M 177.722507,973.769364 A 153.553073,153.553073 0.000000 0 0 1.564126,973.769364" style="fill:none;stroke:#00004C;stroke-linecap: round"/><path style="fill:none;stroke:#00004C;stroke-linecap:round" d="M 0.234629 973.769 L 0.234629 963.915"/><path style="fill:none;stroke:#00004C;stroke-linecap:round" d="M 96.6232 945.997 L 96.8056 962.384"/><path style="fill:none;stroke:#00004C;stroke-linecap:round" d="M 78.0063 962.384 L 78.3696 946.411"/><path style="fill:none;stroke:#00004C;stroke-linecap:round" d="M 178.387 974.665 L 179.052 964.81"/></symbol><symbol id="COCKTAIL_STOOL_2"><path d="M 939.780770,2330.502445 A 79.777293,79.777293 0.000000 0, 0 780.226183,2330.502445 A 79.777293,79.777293 0.000000 0, 0 939.780770,2330.502445 z" style="fill:none;stroke:#00004C"/><path d="M 934.149432,2330.502445 A 74.145955,74.145955 0.000000 0, 0 785.857522,2330.502445 A 74.145955,74.145955 0.000000 0, 0 934.149432,2330.502445 z" style="fill:none;stroke:#00004C"/><path d="M 957.084842,2275.280483 A 111.688211,111.688211 0.000000 0 0 766.349479,2269.648644" style="fill:none;stroke:#00004C"/><path d="M 943.216075,2283.169335 A 95.732752,95.732752 0.000000 0 0 779.579494,2278.572272" style="fill:none;stroke:#00004C"/><path style="fill:none;stroke:#00004C" d="M 943.216 2283.17 L 957.085 2275.28"/><path style="fill:none;stroke:#00004C" d="M 779.579 2278.57 L 766.444 2270.09"/><path d="M 766.349479,2269.648644 A 0.319109,0.319109 0.000000 0 0 766.443961,2270.090592" style="fill:none;stroke:#00004C"/><path d="M 766.349479,2269.648644 A 0.319109,0.319109 0.000000 0 0 766.443961,2270.090592" style="fill:none;stroke:#00004C"/><text x="862.623513" y="2324.713512" style="font-size: 0.188px; fill: #00004C; font-family: Arial; text-anchor: start" transform="rotate (-178.426667 862.623513 2324.713512)" sodipodi:linespacing="125%"><tspan sodipodi:role="line" dx="0.000000" dy="0.000000">ZSIZE0.0000</tspan></text><text x="862.623513" y="2324.713512" style="font-size: 0.188px; fill: #00004C; font-family: Arial; text-anchor: start" transform="rotate (-178.426667 862.623513 2324.713512)" sodipodi:linespacing="125%"><tspan sodipodi:role="line" dx="0.000000" dy="0.000000">YSIZE493.0381</tspan></text><text x="862.623513" y="2324.713512" style="font-size: 0.188px; fill: #00004C; font-family: Arial; text-anchor: start" transform="rotate (-178.426667 862.623513 2324.713512)" sodipodi:linespacing="125%"><tspan sodipodi:role="line" dx="0.000000" dy="0.000000">XSIZE508.3763</tspan></text></symbol><symbol id="A$C5BEB79AF"><path style="fill:none;stroke:#00004C" d="M 643.566 866.196 L 813.02 743.081"/><path style="fill:none;stroke:#00004C" d="M 519.15 782.336 L 583.875 583.131"/><path d="M 695.515105,1024.275993 A 156.215906,156.215906 0.000000 0 0 905.801016,1024.275993" style="fill:none;stroke:#00004C"/><path style="fill:none;stroke:#00004C" d="M 905.801 1024.28 L 696.379 1024.28"/><path style="fill:none;stroke:#00004C" d="M 251 880.034 L 81.5464 756.919"/><path d="M 0.234643,1024.275993 A 154.392717,154.392717 0.000000 0 0 209.104973,1024.275993" style="fill:none;stroke:#00004C"/><path style="fill:none;stroke:#00004C" d="M 209.69 1024.28 L 0.234643 1024.28"/><path style="fill:none;stroke:#00004C" d="M 369.203 787.621 L 304.477 588.417"/><path d="M 594.750494,983.399459 A 138.361983,138.361983 0.000000 0, 0 318.026527,983.399459 A 138.361983,138.361983 0.000000 0, 0 594.750494,983.399459 z" style="fill:none;stroke:#00004C"/><path d="M 695.515105,1024.275993 A 243.355396,243.355396 0.000000 1 0 209.104973,1024.275993" style="fill:none;stroke:#00004C"/><path d="M 904.360544,1025.503587 A 452.156288,452.156288 0.000000 1 0 0.259534,1025.503587" style="fill:none;stroke:#00004C"/><path d="M 857.753103,1024.495242 A 405.537940,405.537940 0.000000 1 0 46.866975,1024.495242" style="fill:none;stroke:#00004C"/></symbol><symbol id="A$C0ECE726C"><path style="fill:none;stroke:#00004C" d="M 973.543 653.095 L 1168.96 712.011"/><path style="fill:none;stroke:#00004C" d="M 1008.99 493.53 L 1246.82 496.881"/><path d="M 1246.819754,496.880640 A 127.758214,127.758214 0.000000 0 0 1009.333054,493.534509" style="fill:none;stroke:#00004C"/><path style="fill:none;stroke:#00004C" d="M 496.702 156.669 L 416.949 -50.1758"/><path style="fill:none;stroke:#00004C" d="M 384.457 227.587 L 227.906 70.9759"/><path d="M 778.292194,514.184635 A 157.677474,157.677474 0.000000 0, 0 462.937246,514.184635 A 157.677474,157.677474 0.000000 0, 0 778.292194,514.184635 z" style="fill:none;stroke:#00004C"/><path d="M 636.169730,138.144883 A 360.526512,360.526512 0.000000 1 0 636.169730,858.752485" style="fill:none;stroke:#00004C"/><path style="fill:none;stroke:#00004C" d="M 890.836 768.337 L 1055.55 894.013"/><path style="fill:none;stroke:#00004C" d="M 493.748 839.255 L 396.272 1037.24"/><path style="fill:none;stroke:#00004C" d="M 636.17 1084.09 L 636.17 860.032"/><path style="fill:none;stroke:#00004C" d="M 381.503 768.337 L 207.229 901.309"/><path style="fill:none;stroke:#00004C" d="M 778.591 839.255 L 871.973 1028.92"/><path d="M 636.169730,858.752485 A 360.526512,360.526512 0.000000 0 0 1009.333054,493.534509" style="fill:none;stroke:#00004C"/><path style="fill:none;stroke:#00004C" d="M 263.351 493.53 L 53.6311 496.485"/><path style="fill:none;stroke:#00004C" d="M 295.843 345.784 L 83.1691 254.181"/><path style="fill:none;stroke:#00004C" d="M 298.797 653.095 L 83.1691 718.104"/><path d="M 636.169730,-87.194318 A 585.780046,585.780046 0.000000 1 0 1209.275717,496.351654" style="fill:none;stroke:#00004C"/><path style="fill:none;stroke:#00004C" d="M 636.17 138.145 L 636.17 -128.764"/><path d="M 636.169730,138.144883 A 173.475363,173.475363 0.000000 0 0 636.169730,-124.744830" style="fill:none;stroke:#00004C"/><path d="M 636.981761,-124.727791 A 623.322302,623.322302 0.000000 1 0 1246.819754,496.880640" style="fill:none;stroke:#00004C"/></symbol><symbol id="A$C54DB1D4B"><path style="fill:none;stroke:#00004C" d="M 0.740173 1121.56 L 0.537281 1121.56"/><path style="fill:none;stroke:#00004C" d="M 0.771382 1121.46 L 0.537281 1121.46"/><path style="fill:none;stroke:#00004C" d="M 0.771382 1121.47 L 0.546906 1121.47"/><path d="M 0.767851,1121.608307 A 0.445116,0.445116 0.000000 0 0 0.567656,1121.572346" style="fill:none;stroke:#00004C"/><path d="M 0.767851,1121.608307 A 0.246347,0.246347 0.000000 0 0 0.567656,1121.572346" style="fill:none;stroke:#00004C"/><path d="M 0.571989,1121.605331 A 0.170574,0.170574 0.000000 0 0 0.751958,1121.632702" style="fill:none;stroke:#00004C"/><path style="fill:none;stroke:#00004C" d="M 0.554175 1121.76 L 0.754113 1121.76"/><path style="fill:none;stroke:#00004C" d="M 0.554175 1121.75 L 0.754113 1121.75"/><path style="fill:none;stroke:#00004C" d="M 0.234631 1121.6 L 0.304038 1121.6"/><path d="M 0.285313,1121.463106 A 0.050682,0.050682 0.000000 0 0 0.234631,1121.513788" style="fill:none;stroke:#00004C"/><path d="M 0.285313,1121.473242 A 0.040546,0.040546 0.000000 0 0 0.244767,1121.513788" style="fill:none;stroke:#00004C"/><path style="fill:none;stroke:#00004C" d="M 0.316522 1121.56 L 0.236177 1121.5"/><path style="fill:none;stroke:#00004C" d="M 0.272035 1121.74 L 0.234631 1121.74"/><path style="fill:none;stroke:#00004C" d="M 0.234631 1121.74 L 0.234631 1121.51"/><path style="fill:none;stroke:#00004C" d="M 0.244767 1121.51 L 0.25241 1121.73"/><path style="fill:none;stroke:#00004C" d="M 0.308965 1121.74 L 0.308965 1121.47"/><path style="fill:none;stroke:#00004C" d="M 0.537281 1121.46 L 0.537281 1121.74"/><path style="fill:none;stroke:#00004C" d="M 0.526633 1121.47 L 0.526633 1121.74"/><path style="fill:none;stroke:#00004C" d="M 0.546906 1121.47 L 0.546906 1121.74"/><path style="fill:none;stroke:#00004C" d="M 0.53677 1121.46 L 0.53677 1121.74"/><path style="fill:none;stroke:#00004C" d="M 0.536941 1121.74 L 0.536941 1121.46"/><path style="fill:none;stroke:#00004C" d="M 0.53677 1121.46 L 0.53677 1121.74"/><path style="fill:none;stroke:#00004C" d="M 0.526805 1121.74 L 0.526805 1121.47"/><path style="fill:none;stroke:#00004C" d="M 0.519876 1121.75 L 0.315722 1121.75"/><path style="fill:none;stroke:#00004C" d="M 0.519876 1121.76 L 0.315722 1121.76"/><path style="fill:none;stroke:#00004C" d="M 0.519876 1121.75 L 0.302582 1121.75"/><path style="fill:none;stroke:#00004C" d="M 0.519876 1121.76 L 0.302582 1121.76"/><path style="fill:none;stroke:#00004C" d="M 0.316522 1121.56 L 0.53677 1121.56"/><path d="M 0.511498,1121.572691 A 0.300372,0.300372 0.000000 0 0 0.288844,1121.608652" style="fill:none;stroke:#00004C"/><path d="M 0.511498,1121.572691 A 0.474385,0.474385 0.000000 0 0 0.288844,1121.608652" style="fill:none;stroke:#00004C"/><path d="M 0.304737,1121.633046 A 0.211369,0.211369 0.000000 0 0 0.507164,1121.605675" style="fill:none;stroke:#00004C"/><path style="fill:none;stroke:#00004C" d="M 0.30207 1121.74 L 0.310968 1121.64"/><path style="fill:none;stroke:#00004C" d="M 0.272035 1121.74 L 0.30207 1121.74"/><path d="M 0.272035,1121.737149 A 0.027560,0.027560 0.000000 0 0 0.302582,1121.761443" style="fill:none;stroke:#00004C"/><path style="fill:none;stroke:#00004C" d="M 0.25241 1121.73 L 0.30207 1121.74"/><path d="M 0.308965,1121.744549 A 0.006758,0.006758 0.000000 0 0 0.315722,1121.751307" style="fill:none;stroke:#00004C"/><path style="fill:none;stroke:#00004C" d="M 0.302582 1121.75 L 0.30207 1121.74"/><path style="fill:none;stroke:#00004C" d="M 0.288844 1121.61 L 0.304737 1121.63"/><path style="fill:none;stroke:#00004C" d="M 0.314363 1121.59 L 0.316522 1121.56"/><path d="M 0.547418,1121.744205 A 0.006758,0.006758 0.000000 0 0 0.554175,1121.750963" style="fill:none;stroke:#00004C"/><path d="M 0.519876,1121.751307 A 0.006758,0.006758 0.000000 0 0 0.526633,1121.744549" style="fill:none;stroke:#00004C"/><path d="M 0.537281,1121.717249 A 0.566781,0.566781 0.000000 0 0 0.536770,1121.717270" style="fill:none;stroke:#00004C"/><path d="M 0.519876,1121.751307 A 0.006758,0.006758 0.000000 0 0 0.526633,1121.744549" style="fill:none;stroke:#00004C"/><path d="M 0.537281,1121.744205 A 0.016894,0.016894 0.000000 0 0 0.554175,1121.761099" style="fill:none;stroke:#00004C"/><path d="M 0.519876,1121.761443 A 0.016894,0.016894 0.000000 0 0 0.536770,1121.744549" style="fill:none;stroke:#00004C"/><path d="M 0.519876,1121.761443 A 0.016894,0.016894 0.000000 0 0 0.536770,1121.744549" style="fill:none;stroke:#00004C"/><path style="fill:none;stroke:#00004C" d="M 0.507164 1121.61 L 0.511498 1121.57"/><path d="M 0.537281,1121.555659 A 0.710381,0.710381 0.000000 0 0 0.536770,1121.555675" style="fill:none;stroke:#00004C"/><path d="M 0.537281,1121.665538 A 0.600569,0.600569 0.000000 0 0 0.536770,1121.665557" style="fill:none;stroke:#00004C"/><path d="M 0.537281,1121.564110 A 0.701934,0.701934 0.000000 0 0 0.536770,1121.564127" style="fill:none;stroke:#00004C"/><path style="fill:none;stroke:#00004C" d="M 0.536941 1121.56 L 0.53677 1121.56"/><path style="fill:none;stroke:#00004C" d="M 0.571989 1121.61 L 0.567656 1121.57"/><path style="fill:none;stroke:#00004C" d="M 0.308965 1121.47 L 0.526633 1121.47"/><path style="fill:none;stroke:#00004C" d="M 0.285313 1121.46 L 0.53677 1121.46"/><path style="fill:none;stroke:#00004C" d="M 0.285313 1121.47 L 0.526805 1121.47"/><path style="fill:none;stroke:#00004C" d="M 0.537281 1121.54 L 0.53677 1121.54"/><path style="fill:none;stroke:#00004C" d="M 0.536941 1121.46 L 0.53677 1121.46"/><path style="fill:none;stroke:#00004C" d="M 0.536941 1121.54 L 0.53677 1121.54"/><path style="fill:none;stroke:#00004C" d="M 0.811928 1121.51 L 0.80178 1121.73"/><path style="fill:none;stroke:#00004C" d="M 0.822064 1121.74 L 0.822064 1121.51"/><path style="fill:none;stroke:#00004C" d="M 0.740173 1121.56 L 0.820518 1121.5"/><path style="fill:none;stroke:#00004C" d="M 0.754625 1121.74 L 0.745727 1121.64"/><path style="fill:none;stroke:#00004C" d="M 0.80178 1121.73 L 0.754625 1121.74"/><path style="fill:none;stroke:#00004C" d="M 0.78466 1121.74 L 0.822064 1121.74"/><path style="fill:none;stroke:#00004C" d="M 0.78466 1121.74 L 0.754625 1121.74"/><path style="fill:none;stroke:#00004C" d="M 0.754113 1121.75 L 0.754625 1121.74"/><path d="M 0.754113,1121.761099 A 0.027560,0.027560 0.000000 0 0 0.784660,1121.736805" style="fill:none;stroke:#00004C"/><path style="fill:none;stroke:#00004C" d="M 0.822064 1121.6 L 0.752657 1121.6"/><path style="fill:none;stroke:#00004C" d="M 0.767851 1121.61 L 0.751958 1121.63"/><path style="fill:none;stroke:#00004C" d="M 0.742332 1121.59 L 0.740173 1121.56"/><path d="M 0.822064,1121.513443 A 0.050682,0.050682 0.000000 0 0 0.771382,1121.462761" style="fill:none;stroke:#00004C"/><path d="M 0.811928,1121.513443 A 0.040546,0.040546 0.000000 0 0 0.771382,1121.472898" style="fill:none;stroke:#00004C"/></symbol><symbol id="A$C7EC0217F"><path style="fill:none;stroke:#00004C" d="M 0.915374 1121.56 L 0.995719 1121.5"/><path style="fill:none;stroke:#00004C" d="M 0.987129 1121.51 L 0.976981 1121.73"/><path style="fill:none;stroke:#00004C" d="M 0.997265 1121.74 L 0.997265 1121.51"/><path style="fill:none;stroke:#00004C" d="M 0.929826 1121.74 L 0.920928 1121.63"/><path style="fill:none;stroke:#00004C" d="M 0.929314 1121.75 L 0.929826 1121.74"/><path style="fill:none;stroke:#00004C" d="M 0.959861 1121.74 L 0.929826 1121.74"/><path d="M 0.929314,1121.761099 A 0.027560,0.027560 0.000000 0 0 0.959861,1121.736805" style="fill:none;stroke:#00004C"/><path style="fill:none;stroke:#00004C" d="M 0.976981 1121.73 L 0.929826 1121.74"/><path style="fill:none;stroke:#00004C" d="M 0.959861 1121.74 L 0.997265 1121.74"/><path style="fill:none;stroke:#00004C" d="M 0.943052 1121.6 L 0.927159 1121.63"/><path style="fill:none;stroke:#00004C" d="M 0.997265 1121.59 L 0.927858 1121.59"/><path style="fill:none;stroke:#00004C" d="M 0.917533 1121.59 L 0.915374 1121.56"/><path d="M 0.997265,1121.508969 A 0.050682,0.050682 0.000000 0 0 0.946583,1121.458287" style="fill:none;stroke:#00004C"/><path d="M 0.987129,1121.508969 A 0.040546,0.040546 0.000000 0 0 0.946583,1121.468423" style="fill:none;stroke:#00004C"/><path style="fill:none;stroke:#00004C" d="M 0.501728 1121.46 L 0.729828 1121.46"/><path style="fill:none;stroke:#00004C" d="M 0.511864 1121.47 L 0.719692 1121.47"/><path d="M 0.513088,1121.611766 A 0.193433,0.193433 0.000000 0 0 0.707873,1121.614728" style="fill:none;stroke:#00004C"/><path style="fill:none;stroke:#00004C" d="M 0.712934 1121.75 L 0.518622 1121.75"/><path style="fill:none;stroke:#00004C" d="M 0.712934 1121.76 L 0.518622 1121.76"/><path style="fill:none;stroke:#00004C" d="M 0.501728 1121.56 L 0.729828 1121.56"/><path d="M 0.718033,1121.583049 A 0.371364,0.371364 0.000000 0 0 0.501728,1121.587782" style="fill:none;stroke:#00004C"/><path d="M 0.718033,1121.583049 A 0.276976,0.276976 0.000000 0 0 0.501812,1121.584923" style="fill:none;stroke:#00004C"/><path d="M 0.285313,1121.458287 A 0.050682,0.050682 0.000000 0 0 0.234631,1121.508969" style="fill:none;stroke:#00004C"/><path d="M 0.476284,1121.567872 A 0.218219,0.218219 0.000000 0 0 0.288844,1121.603833" style="fill:none;stroke:#00004C"/><path style="fill:none;stroke:#00004C" d="M 0.316522 1121.56 L 0.236178 1121.5"/><path style="fill:none;stroke:#00004C" d="M 0.244767 1121.51 L 0.25241 1121.73"/><path style="fill:none;stroke:#00004C" d="M 0.234631 1121.74 L 0.234631 1121.51"/><path style="fill:none;stroke:#00004C" d="M 0.511864 1121.74 L 0.511864 1121.47"/><path style="fill:none;stroke:#00004C" d="M 0.491591 1121.74 L 0.491591 1121.47"/><path style="fill:none;stroke:#00004C" d="M 0.501556 1121.46 L 0.501556 1121.74"/><path style="fill:none;stroke:#00004C" d="M 0.501728 1121.74 L 0.501728 1121.46"/><path d="M 0.304737,1121.628228 A 0.149537,0.149537 0.000000 0 0 0.471950,1121.600857" style="fill:none;stroke:#00004C"/><path d="M 0.476284,1121.567872 A 0.341643,0.341643 0.000000 0 0 0.288844,1121.603833" style="fill:none;stroke:#00004C"/><path style="fill:none;stroke:#00004C" d="M 0.316522 1121.56 L 0.501556 1121.56"/><path style="fill:none;stroke:#00004C" d="M 0.484662 1121.76 L 0.302582 1121.76"/><path style="fill:none;stroke:#00004C" d="M 0.484662 1121.75 L 0.302582 1121.75"/><path style="fill:none;stroke:#00004C" d="M 0.30207 1121.74 L 0.310969 1121.63"/><path style="fill:none;stroke:#00004C" d="M 0.272035 1121.74 L 0.234631 1121.74"/><path style="fill:none;stroke:#00004C" d="M 0.302582 1121.75 L 0.30207 1121.74"/><path d="M 0.272035,1121.736805 A 0.027560,0.027560 0.000000 0 0 0.302582,1121.761099" style="fill:none;stroke:#00004C"/><path style="fill:none;stroke:#00004C" d="M 0.25241 1121.73 L 0.30207 1121.74"/><path style="fill:none;stroke:#00004C" d="M 0.272035 1121.74 L 0.30207 1121.74"/><path style="fill:none;stroke:#00004C" d="M 0.288844 1121.6 L 0.304737 1121.63"/><path style="fill:none;stroke:#00004C" d="M 0.234631 1121.59 L 0.304038 1121.59"/><path style="fill:none;stroke:#00004C" d="M 0.314363 1121.59 L 0.316522 1121.56"/><path d="M 0.501728,1121.744549 A 0.016894,0.016894 0.000000 0 0 0.518622,1121.761443" style="fill:none;stroke:#00004C"/><path d="M 0.511864,1121.744549 A 0.006758,0.006758 0.000000 0 0 0.518622,1121.751307" style="fill:none;stroke:#00004C"/><path d="M 0.484662,1121.761099 A 0.016894,0.016894 0.000000 0 0 0.501556,1121.744205" style="fill:none;stroke:#00004C"/><path d="M 0.484662,1121.750963 A 0.006758,0.006758 0.000000 0 0 0.491420,1121.744205" style="fill:none;stroke:#00004C"/><path style="fill:none;stroke:#00004C" d="M 0.501812 1121.58 L 0.513088 1121.61"/><path d="M 0.501728,1121.587782 A 0.710381,0.710381 0.000000 0 0 0.501556,1121.587840" style="fill:none;stroke:#00004C"/><path d="M 0.501728,1121.596699 A 0.701934,0.701934 0.000000 0 0 0.501556,1121.596757" style="fill:none;stroke:#00004C"/><path style="fill:none;stroke:#00004C" d="M 0.501728 1121.6 L 0.501556 1121.6"/><path style="fill:none;stroke:#00004C" d="M 0.47195 1121.6 L 0.476284 1121.57"/><path style="fill:none;stroke:#00004C" d="M 0.285313 1121.47 L 0.491591 1121.47"/><path style="fill:none;stroke:#00004C" d="M 0.285313 1121.46 L 0.501556 1121.46"/><path d="M 0.285313,1121.468423 A 0.040546,0.040546 0.000000 0 0 0.244767,1121.508969" style="fill:none;stroke:#00004C"/><path style="fill:none;stroke:#00004C" d="M 0.501728 1121.53 L 0.501556 1121.53"/><path style="fill:none;stroke:#00004C" d="M 0.719692 1121.47 L 0.719692 1121.74"/><path style="fill:none;stroke:#00004C" d="M 0.739965 1121.47 L 0.739965 1121.74"/><path style="fill:none;stroke:#00004C" d="M 0.73034 1121.46 L 0.73034 1121.74"/><path style="fill:none;stroke:#00004C" d="M 0.729828 1121.46 L 0.729828 1121.74"/><path d="M 0.730340,1121.744205 A 0.016894,0.016894 0.000000 0 0 0.747234,1121.761099" style="fill:none;stroke:#00004C"/><path d="M 0.740476,1121.744205 A 0.006758,0.006758 0.000000 0 0 0.747234,1121.750963" style="fill:none;stroke:#00004C"/><path d="M 0.712934,1121.761443 A 0.016894,0.016894 0.000000 0 0 0.729828,1121.744549" style="fill:none;stroke:#00004C"/><path d="M 0.712934,1121.751307 A 0.006758,0.006758 0.000000 0 0 0.719692,1121.744549" style="fill:none;stroke:#00004C"/><path d="M 0.730340,1121.717249 A 0.566781,0.566781 0.000000 0 0 0.729828,1121.717270" style="fill:none;stroke:#00004C"/><path style="fill:none;stroke:#00004C" d="M 0.73034 1121.6 L 0.729828 1121.6"/><path style="fill:none;stroke:#00004C" d="M 0.707873 1121.61 L 0.718033 1121.58"/><path d="M 0.730340,1121.683435 A 0.600569,0.600569 0.000000 0 0 0.729828,1121.683455" style="fill:none;stroke:#00004C"/><path d="M 0.730340,1121.559636 A 0.701934,0.701934 0.000000 0 0 0.729828,1121.559653" style="fill:none;stroke:#00004C"/><path d="M 0.730340,1121.551184 A 0.710381,0.710381 0.000000 0 0 0.729828,1121.551201" style="fill:none;stroke:#00004C"/><path style="fill:none;stroke:#00004C" d="M 0.759946 1121.6 L 0.755612 1121.57"/><path style="fill:none;stroke:#00004C" d="M 0.73034 1121.53 L 0.729828 1121.53"/><path d="M 0.943052,1121.603833 A 0.218219,0.218219 0.000000 0 0 0.755612,1121.567872" style="fill:none;stroke:#00004C"/><path d="M 0.759946,1121.600857 A 0.149537,0.149537 0.000000 0 0 0.927159,1121.628228" style="fill:none;stroke:#00004C"/><path style="fill:none;stroke:#00004C" d="M 0.747234 1121.76 L 0.929314 1121.76"/><path style="fill:none;stroke:#00004C" d="M 0.747234 1121.75 L 0.929314 1121.75"/><path style="fill:none;stroke:#00004C" d="M 0.915374 1121.56 L 0.73034 1121.56"/><path d="M 0.943052,1121.603833 A 0.392623,0.392623 0.000000 0 0 0.755612,1121.567872" style="fill:none;stroke:#00004C"/><path style="fill:none;stroke:#00004C" d="M 0.946583 1121.47 L 0.739965 1121.47"/><path style="fill:none;stroke:#00004C" d="M 0.946583 1121.46 L 0.73034 1121.46"/></symbol><symbol id="A$C243830B6"><path style="fill:none;stroke:#00004C" d="M 0.311507 1121.72 L 0.311507 1121.59"/><path style="fill:none;stroke:#00004C" d="M 0.291827 1121.74 L 0.291827 1121.58"/><path style="fill:none;stroke:#00004C" d="M 0.234631 1121.73 L 0.234631 1121.58"/><path style="fill:none;stroke:#00004C" d="M 0.497081 1121.59 L 0.497081 1121.72"/><path style="fill:none;stroke:#00004C" d="M 0.516979 1121.74 L 0.516979 1121.58"/><path style="fill:none;stroke:#00004C" d="M 0.516979 1121.74 L 0.516979 1121.58"/><path style="fill:none;stroke:#00004C" d="M 0.536659 1121.72 L 0.536659 1121.59"/><path style="fill:none;stroke:#00004C" d="M 0.722233 1121.59 L 0.722233 1121.72"/><path style="fill:none;stroke:#00004C" d="M 0.742131 1121.74 L 0.742131 1121.58"/><path style="fill:none;stroke:#00004C" d="M 0.742233 1121.74 L 0.742233 1121.58"/><path style="fill:none;stroke:#00004C" d="M 0.742233 1121.74 L 0.742233 1121.58"/><path style="fill:none;stroke:#00004C" d="M 0.799396 1121.73 L 0.799396 1121.58"/><path style="fill:none;stroke:#00004C" d="M 0.32277 1121.58 L 0.485818 1121.58"/><path style="fill:none;stroke:#00004C" d="M 0.498208 1121.56 L 0.310598 1121.56"/><path style="fill:none;stroke:#00004C" d="M 0.49831 1121.56 L 0.310598 1121.56"/><path style="fill:none;stroke:#00004C" d="M 0.49831 1121.5 L 0.310598 1121.5"/><path style="fill:none;stroke:#00004C" d="M 0.516979 1121.52 L 0.516979 1121.54"/><path style="fill:none;stroke:#00004C" d="M 0.517081 1121.54 L 0.517081 1121.52"/><path d="M 0.497081,1121.591925 A 0.011263,0.011263 0.000000 0 0 0.485818,1121.580663" style="fill:none;stroke:#00004C"/><path d="M 0.547922,1121.580663 A 0.011263,0.011263 0.000000 0 0 0.536659,1121.591925" style="fill:none;stroke:#00004C"/><path d="M 0.742131,1121.582157 A 0.018771,0.018771 0.000000 0 0 0.723360,1121.563385" style="fill:none;stroke:#00004C"/><path style="fill:none;stroke:#00004C" d="M 0.742233 1121.52 L 0.742233 1121.54"/><path style="fill:none;stroke:#00004C" d="M 0.742334 1121.54 L 0.742334 1121.52"/><path d="M 0.723462,1121.558851 A 0.018771,0.018771 0.000000 0 0 0.742233,1121.540080" style="fill:none;stroke:#00004C"/><path d="M 0.742233,1121.521309 A 0.018771,0.018771 0.000000 0 0 0.723462,1121.502538" style="fill:none;stroke:#00004C"/><path d="M 0.799396,1121.578247 A 0.048805,0.048805 0.000000 0 0 0.742233,1121.530163" style="fill:none;stroke:#00004C"/><path d="M 0.722233,1121.591925 A 0.011263,0.011263 0.000000 0 0 0.710970,1121.580663" style="fill:none;stroke:#00004C"/><path style="fill:none;stroke:#00004C" d="M 0.723462 1121.5 L 0.53575 1121.5"/><path style="fill:none;stroke:#00004C" d="M 0.723462 1121.56 L 0.53575 1121.56"/><path style="fill:none;stroke:#00004C" d="M 0.72336 1121.56 L 0.53575 1121.56"/><path style="fill:none;stroke:#00004C" d="M 0.547922 1121.58 L 0.71097 1121.58"/><path d="M 0.516979,1121.540080 A 0.018771,0.018771 0.000000 0 0 0.535750,1121.558851" style="fill:none;stroke:#00004C"/><path d="M 0.535750,1121.563385 A 0.018771,0.018771 0.000000 0 0 0.516979,1121.582157" style="fill:none;stroke:#00004C"/><path d="M 0.516979,1121.582157 A 0.018771,0.018771 0.000000 0 0 0.498208,1121.563385" style="fill:none;stroke:#00004C"/><path d="M 0.498310,1121.558851 A 0.018771,0.018771 0.000000 0 0 0.517081,1121.540080" style="fill:none;stroke:#00004C"/><path d="M 0.535750,1121.502538 A 0.018771,0.018771 0.000000 0 0 0.516979,1121.521309" style="fill:none;stroke:#00004C"/><path d="M 0.517081,1121.521309 A 0.018771,0.018771 0.000000 0 0 0.498310,1121.502538" style="fill:none;stroke:#00004C"/><path style="fill:none;stroke:#00004C" d="M 0.291827 1121.52 L 0.291827 1121.54"/><path style="fill:none;stroke:#00004C" d="M 0.283436 1121.53 L 0.290944 1121.53"/><path d="M 0.310598,1121.563385 A 0.018771,0.018771 0.000000 0 0 0.291827,1121.582157" style="fill:none;stroke:#00004C"/><path d="M 0.291827,1121.540080 A 0.018771,0.018771 0.000000 0 0 0.310598,1121.558851" style="fill:none;stroke:#00004C"/><path d="M 0.310598,1121.502538 A 0.018771,0.018771 0.000000 0 0 0.291827,1121.521309" style="fill:none;stroke:#00004C"/><path d="M 0.283436,1121.529442 A 0.048805,0.048805 0.000000 0 0 0.234631,1121.578247" style="fill:none;stroke:#00004C"/><path d="M 0.322770,1121.580663 A 0.011263,0.011263 0.000000 0 0 0.311507,1121.591925" style="fill:none;stroke:#00004C"/><path style="fill:none;stroke:#00004C" d="M 0.310598 1121.76 L 0.498208 1121.76"/><path style="fill:none;stroke:#00004C" d="M 0.485818 1121.73 L 0.32277 1121.73"/><path d="M 0.485818,1121.734991 A 0.011263,0.011263 0.000000 0 0 0.497081,1121.723728" style="fill:none;stroke:#00004C"/><path d="M 0.723360,1121.761443 A 0.018771,0.018771 0.000000 0 0 0.742131,1121.742672" style="fill:none;stroke:#00004C"/><path style="fill:none;stroke:#00004C" d="M 0.753463 1121.75 L 0.780625 1121.75"/><path style="fill:none;stroke:#00004C" d="M 0.53575 1121.76 L 0.72336 1121.76"/><path d="M 0.536659,1121.723728 A 0.011263,0.011263 0.000000 0 0 0.547922,1121.734991" style="fill:none;stroke:#00004C"/><path d="M 0.710970,1121.734991 A 0.011263,0.011263 0.000000 0 0 0.722233,1121.723728" style="fill:none;stroke:#00004C"/><path style="fill:none;stroke:#00004C" d="M 0.71097 1121.73 L 0.547922 1121.73"/><path d="M 0.742200,1121.738631 A 0.011263,0.011263 0.000000 0 0 0.753463,1121.749893" style="fill:none;stroke:#00004C"/><path d="M 0.780625,1121.749893 A 0.018771,0.018771 0.000000 0 0 0.799396,1121.731122" style="fill:none;stroke:#00004C"/><path d="M 0.516979,1121.742672 A 0.018771,0.018771 0.000000 0 0 0.535750,1121.761443" style="fill:none;stroke:#00004C"/><path d="M 0.498208,1121.761443 A 0.018771,0.018771 0.000000 0 0 0.516979,1121.742672" style="fill:none;stroke:#00004C"/><path style="fill:none;stroke:#00004C" d="M 0.280564 1121.75 L 0.253402 1121.75"/><path d="M 0.291827,1121.742672 A 0.018771,0.018771 0.000000 0 0 0.310598,1121.761443" style="fill:none;stroke:#00004C"/><path d="M 0.311507,1121.723728 A 0.011263,0.011263 0.000000 0 0 0.322770,1121.734991" style="fill:none;stroke:#00004C"/><path d="M 0.280564,1121.749893 A 0.011263,0.011263 0.000000 0 0 0.291827,1121.738631" style="fill:none;stroke:#00004C"/><path d="M 0.234631,1121.731122 A 0.018771,0.018771 0.000000 0 0 0.253402,1121.749893" style="fill:none;stroke:#00004C"/></symbol><symbol id="A$C0E9251F2"><path style="fill:none;stroke:#00004C" d="M 0.283436 1121.53 L 0.290944 1121.53"/><path d="M 0.280564,1121.749893 A 0.011263,0.011263 0.000000 0 0 0.291827,1121.738631" style="fill:none;stroke:#00004C"/><path style="fill:none;stroke:#00004C" d="M 0.291827 1121.74 L 0.291827 1121.58"/><path style="fill:none;stroke:#00004C" d="M 0.291896 1121.74 L 0.291896 1121.58"/><path style="fill:none;stroke:#00004C" d="M 0.311794 1121.59 L 0.311794 1121.72"/><path d="M 0.323057,1121.580663 A 0.011263,0.011263 0.000000 0 0 0.311794,1121.591925" style="fill:none;stroke:#00004C"/><path d="M 0.310667,1121.563385 A 0.018771,0.018771 0.000000 0 0 0.291896,1121.582157" style="fill:none;stroke:#00004C"/><path d="M 0.291794,1121.540080 A 0.018771,0.018771 0.000000 0 0 0.310566,1121.558851" style="fill:none;stroke:#00004C"/><path d="M 0.310566,1121.502538 A 0.018771,0.018771 0.000000 0 0 0.291794,1121.521309" style="fill:none;stroke:#00004C"/><path style="fill:none;stroke:#00004C" d="M 0.291827 1121.52 L 0.291827 1121.54"/><path style="fill:none;stroke:#00004C" d="M 0.291794 1121.54 L 0.291794 1121.52"/><path d="M 0.291896,1121.742672 A 0.018771,0.018771 0.000000 0 0 0.310667,1121.761443" style="fill:none;stroke:#00004C"/><path d="M 0.311794,1121.723728 A 0.011263,0.011263 0.000000 0 0 0.323057,1121.734991" style="fill:none;stroke:#00004C"/><path style="fill:none;stroke:#00004C" d="M 0.497368 1121.72 L 0.497368 1121.59"/><path d="M 0.497368,1121.591925 A 0.011263,0.011263 0.000000 0 0 0.486105,1121.580663" style="fill:none;stroke:#00004C"/><path d="M 0.486105,1121.734991 A 0.011263,0.011263 0.000000 0 0 0.497368,1121.723728" style="fill:none;stroke:#00004C"/><path style="fill:none;stroke:#00004C" d="M 0.498277 1121.76 L 0.310667 1121.76"/><path style="fill:none;stroke:#00004C" d="M 0.323057 1121.73 L 0.486105 1121.73"/><path style="fill:none;stroke:#00004C" d="M 0.310566 1121.5 L 0.498277 1121.5"/><path style="fill:none;stroke:#00004C" d="M 0.310566 1121.56 L 0.498277 1121.56"/><path style="fill:none;stroke:#00004C" d="M 0.310667 1121.56 L 0.498277 1121.56"/><path style="fill:none;stroke:#00004C" d="M 0.486105 1121.58 L 0.323057 1121.58"/><path d="M 0.283436,1121.529442 A 0.048805,0.048805 0.000000 0 0 0.234631,1121.578247" style="fill:none;stroke:#00004C"/><path d="M 0.234631,1121.731122 A 0.018771,0.018771 0.000000 0 0 0.253402,1121.749893" style="fill:none;stroke:#00004C"/><path style="fill:none;stroke:#00004C" d="M 0.280564 1121.75 L 0.253402 1121.75"/><path style="fill:none;stroke:#00004C" d="M 0.234631 1121.73 L 0.234631 1121.58"/><path style="fill:none;stroke:#00004C" d="M 0.722622 1121.72 L 0.722622 1121.59"/><path style="fill:none;stroke:#00004C" d="M 0.517048 1121.74 L 0.517048 1121.58"/><path style="fill:none;stroke:#00004C" d="M 0.517048 1121.74 L 0.517048 1121.58"/><path style="fill:none;stroke:#00004C" d="M 0.537048 1121.59 L 0.537048 1121.72"/><path d="M 0.517149,1121.742672 A 0.018771,0.018771 0.000000 0 0 0.535920,1121.761443" style="fill:none;stroke:#00004C"/><path d="M 0.535920,1121.563385 A 0.018771,0.018771 0.000000 0 0 0.517149,1121.582157" style="fill:none;stroke:#00004C"/><path d="M 0.537048,1121.723728 A 0.011263,0.011263 0.000000 0 0 0.548311,1121.734991" style="fill:none;stroke:#00004C"/><path d="M 0.548311,1121.580663 A 0.011263,0.011263 0.000000 0 0 0.537048,1121.591925" style="fill:none;stroke:#00004C"/><path style="fill:none;stroke:#00004C" d="M 0.517048 1121.52 L 0.517048 1121.54"/><path style="fill:none;stroke:#00004C" d="M 0.516947 1121.54 L 0.516947 1121.52"/><path d="M 0.535819,1121.502538 A 0.018771,0.018771 0.000000 0 0 0.517048,1121.521309" style="fill:none;stroke:#00004C"/><path d="M 0.517048,1121.540080 A 0.018771,0.018771 0.000000 0 0 0.535819,1121.558851" style="fill:none;stroke:#00004C"/><path style="fill:none;stroke:#00004C" d="M 0.936511 1121.58 L 0.773463 1121.58"/><path style="fill:none;stroke:#00004C" d="M 0.773463 1121.73 L 0.936511 1121.73"/><path style="fill:none;stroke:#00004C" d="M 0.7622 1121.59 L 0.7622 1121.72"/><path style="fill:none;stroke:#00004C" d="M 0.742301 1121.74 L 0.742301 1121.58"/><path style="fill:none;stroke:#00004C" d="M 0.742301 1121.74 L 0.742301 1121.58"/><path d="M 0.723530,1121.761443 A 0.018771,0.018771 0.000000 0 0 0.742301,1121.742672" style="fill:none;stroke:#00004C"/><path d="M 0.742301,1121.742672 A 0.018771,0.018771 0.000000 0 0 0.761073,1121.761443" style="fill:none;stroke:#00004C"/><path d="M 0.762200,1121.723728 A 0.011263,0.011263 0.000000 0 0 0.773463,1121.734991" style="fill:none;stroke:#00004C"/><path d="M 0.711359,1121.734991 A 0.011263,0.011263 0.000000 0 0 0.722622,1121.723728" style="fill:none;stroke:#00004C"/><path d="M 0.742301,1121.521309 A 0.018771,0.018771 0.000000 0 0 0.723530,1121.502538" style="fill:none;stroke:#00004C"/><path d="M 0.760971,1121.502538 A 0.018771,0.018771 0.000000 0 0 0.742200,1121.521309" style="fill:none;stroke:#00004C"/><path d="M 0.742301,1121.582157 A 0.018771,0.018771 0.000000 0 0 0.723530,1121.563385" style="fill:none;stroke:#00004C"/><path d="M 0.761073,1121.563385 A 0.018771,0.018771 0.000000 0 0 0.742301,1121.582157" style="fill:none;stroke:#00004C"/><path d="M 0.722622,1121.591925 A 0.011263,0.011263 0.000000 0 0 0.711359,1121.580663" style="fill:none;stroke:#00004C"/><path style="fill:none;stroke:#00004C" d="M 0.742301 1121.52 L 0.742301 1121.54"/><path style="fill:none;stroke:#00004C" d="M 0.7422 1121.54 L 0.7422 1121.52"/><path d="M 0.723530,1121.558851 A 0.018771,0.018771 0.000000 0 0 0.742301,1121.540080" style="fill:none;stroke:#00004C"/><path d="M 0.742200,1121.540080 A 0.018771,0.018771 0.000000 0 0 0.760971,1121.558851" style="fill:none;stroke:#00004C"/><path d="M 0.773463,1121.580663 A 0.011263,0.011263 0.000000 0 0 0.762200,1121.591925" style="fill:none;stroke:#00004C"/><path style="fill:none;stroke:#00004C" d="M 0.548311 1121.73 L 0.711359 1121.73"/><path style="fill:none;stroke:#00004C" d="M 0.72353 1121.76 L 0.53592 1121.76"/><path style="fill:none;stroke:#00004C" d="M 0.711359 1121.58 L 0.548311 1121.58"/><path style="fill:none;stroke:#00004C" d="M 0.535819 1121.56 L 0.72353 1121.56"/><path style="fill:none;stroke:#00004C" d="M 0.53592 1121.56 L 0.72353 1121.56"/><path style="fill:none;stroke:#00004C" d="M 0.535819 1121.5 L 0.72353 1121.5"/><path d="M 0.517048,1121.582157 A 0.018771,0.018771 0.000000 0 0 0.498277,1121.563385" style="fill:none;stroke:#00004C"/><path d="M 0.517048,1121.521309 A 0.018771,0.018771 0.000000 0 0 0.498277,1121.502538" style="fill:none;stroke:#00004C"/><path d="M 0.498277,1121.558851 A 0.018771,0.018771 0.000000 0 0 0.517048,1121.540080" style="fill:none;stroke:#00004C"/><path d="M 0.498277,1121.761443 A 0.018771,0.018771 0.000000 0 0 0.517048,1121.742672" style="fill:none;stroke:#00004C"/><path style="fill:none;stroke:#00004C" d="M 0.978716 1121.75 L 1.00588 1121.75"/><path d="M 0.967454,1121.521309 A 0.018771,0.018771 0.000000 0 0 0.948682,1121.502538" style="fill:none;stroke:#00004C"/><path style="fill:none;stroke:#00004C" d="M 0.967454 1121.74 L 0.967454 1121.58"/><path style="fill:none;stroke:#00004C" d="M 0.947774 1121.72 L 0.947774 1121.59"/><path d="M 0.948682,1121.761443 A 0.018771,0.018771 0.000000 0 0 0.967454,1121.742672" style="fill:none;stroke:#00004C"/><path d="M 0.967454,1121.582157 A 0.018771,0.018771 0.000000 0 0 0.948682,1121.563385" style="fill:none;stroke:#00004C"/><path style="fill:none;stroke:#00004C" d="M 0.967454 1121.52 L 0.967454 1121.54"/><path d="M 0.948682,1121.558851 A 0.018771,0.018771 0.000000 0 0 0.967454,1121.540080" style="fill:none;stroke:#00004C"/><path d="M 0.967454,1121.738631 A 0.011263,0.011263 0.000000 0 0 0.978716,1121.749893" style="fill:none;stroke:#00004C"/><path style="fill:none;stroke:#00004C" d="M 0.975845 1121.53 L 0.968336 1121.53"/><path style="fill:none;stroke:#00004C" d="M 1.02465 1121.73 L 1.02465 1121.58"/><path d="M 1.024650,1121.578247 A 0.048805,0.048805 0.000000 0 0 0.975845,1121.529442" style="fill:none;stroke:#00004C"/><path d="M 1.005879,1121.749893 A 0.018771,0.018771 0.000000 0 0 1.024650,1121.731122" style="fill:none;stroke:#00004C"/><path style="fill:none;stroke:#00004C" d="M 0.760971 1121.5 L 0.948682 1121.5"/><path style="fill:none;stroke:#00004C" d="M 0.761073 1121.56 L 0.948682 1121.56"/><path style="fill:none;stroke:#00004C" d="M 0.760971 1121.56 L 0.948682 1121.56"/><path style="fill:none;stroke:#00004C" d="M 0.948682 1121.76 L 0.761073 1121.76"/><path d="M 0.936511,1121.734991 A 0.011263,0.011263 0.000000 0 0 0.947774,1121.723728" style="fill:none;stroke:#00004C"/><path d="M 0.947774,1121.591925 A 0.011263,0.011263 0.000000 0 0 0.936511,1121.580663" style="fill:none;stroke:#00004C"/><path d="M 0.310566,1121.502538 A 0.018771,0.018771 0.000000 0 0 0.291794,1121.521309" style="fill:none;stroke:#00004C"/><path style="fill:none;stroke:#00004C" d="M 0.310566 1121.5 L 0.498277 1121.5"/><path d="M 0.517048,1121.521309 A 0.018771,0.018771 0.000000 0 0 0.498277,1121.502538" style="fill:none;stroke:#00004C"/><path d="M 0.535819,1121.502538 A 0.018771,0.018771 0.000000 0 0 0.517048,1121.521309" style="fill:none;stroke:#00004C"/><path style="fill:none;stroke:#00004C" d="M 0.535819 1121.5 L 0.72353 1121.5"/><path d="M 0.742301,1121.521309 A 0.018771,0.018771 0.000000 0 0 0.723530,1121.502538" style="fill:none;stroke:#00004C"/><path d="M 0.760971,1121.502538 A 0.018599,0.018599 0.000000 0 0 0.742301,1121.521309" style="fill:none;stroke:#00004C"/><path style="fill:none;stroke:#00004C" d="M 0.760971 1121.5 L 0.948682 1121.5"/><path d="M 0.967454,1121.521309 A 0.018771,0.018771 0.000000 0 0 0.948682,1121.502538" style="fill:none;stroke:#00004C"/><path style="fill:none;stroke:#00004C" d="M 0.967454 1121.52 L 0.967454 1121.53"/><path style="fill:none;stroke:#00004C" d="M 0.967454 1121.53 L 0.975845 1121.53"/><path d="M 1.024650,1121.578247 A 0.048805,0.048805 0.000000 0 0 0.975845,1121.529442" style="fill:none;stroke:#00004C"/><path style="fill:none;stroke:#00004C" d="M 1.02465 1121.58 L 1.02465 1121.73"/><path d="M 1.005879,1121.749893 A 0.018771,0.018771 0.000000 0 0 1.024650,1121.731122" style="fill:none;stroke:#00004C"/><path style="fill:none;stroke:#00004C" d="M 1.00588 1121.75 L 0.978716 1121.75"/><path d="M 0.967454,1121.738631 A 0.011263,0.011263 0.000000 0 0 0.978716,1121.749893" style="fill:none;stroke:#00004C"/><path d="M 0.948682,1121.761443 A 0.019316,0.019316 0.000000 0 0 0.967454,1121.738631" style="fill:none;stroke:#00004C"/><path style="fill:none;stroke:#00004C" d="M 0.948682 1121.76 L 0.761073 1121.76"/><path d="M 0.742301,1121.742672 A 0.018771,0.018771 0.000000 0 0 0.761073,1121.761443" style="fill:none;stroke:#00004C"/><path d="M 0.723530,1121.761443 A 0.018771,0.018771 0.000000 0 0 0.742301,1121.742672" style="fill:none;stroke:#00004C"/><path style="fill:none;stroke:#00004C" d="M 0.72353 1121.76 L 0.53592 1121.76"/><path d="M 0.517048,1121.742672 A 0.018945,0.018945 0.000000 0 0 0.535920,1121.761443" style="fill:none;stroke:#00004C"/><path d="M 0.498277,1121.761443 A 0.018771,0.018771 0.000000 0 0 0.517048,1121.742672" style="fill:none;stroke:#00004C"/><path style="fill:none;stroke:#00004C" d="M 0.498277 1121.76 L 0.310667 1121.76"/><path d="M 0.291827,1121.738631 A 0.019403,0.019403 0.000000 0 0 0.310667,1121.761443" style="fill:none;stroke:#00004C"/><path d="M 0.280564,1121.749893 A 0.011263,0.011263 0.000000 0 0 0.291827,1121.738631" style="fill:none;stroke:#00004C"/><path style="fill:none;stroke:#00004C" d="M 0.280564 1121.75 L 0.253402 1121.75"/><path d="M 0.234631,1121.731122 A 0.018771,0.018771 0.000000 0 0 0.253402,1121.749893" style="fill:none;stroke:#00004C"/><path style="fill:none;stroke:#00004C" d="M 0.234631 1121.73 L 0.234631 1121.58"/><path d="M 0.283436,1121.529442 A 0.048805,0.048805 0.000000 0 0 0.234631,1121.578247" style="fill:none;stroke:#00004C"/><path style="fill:none;stroke:#00004C" d="M 0.283436 1121.53 L 0.291827 1121.53"/><path style="fill:none;stroke:#00004C" d="M 0.291827 1121.53 L 0.291794 1121.52"/><path style="fill:none;stroke:#00004C" d="M 0.291794 1121.52 L 0.291794 1121.53"/></symbol><symbol id="A$C514E53C8"><path style="fill:none;stroke:#00004C" d="M 0.260911 1121.74 L 0.245894 1121.74"/><path style="fill:none;stroke:#00004C" d="M 0.245894 1121.74 L 0.245894 1121.66"/><path style="fill:none;stroke:#00004C" d="M 0.245894 1121.66 L 0.272173 1121.66"/><path style="fill:none;stroke:#00004C" d="M 0.272173 1121.66 L 0.272173 1121.72"/><path style="fill:none;stroke:#00004C" d="M 0.245894 1121.53 L 0.272173 1121.53"/><path style="fill:none;stroke:#00004C" d="M 0.272173 1121.53 L 0.272173 1121.5"/><path style="fill:none;stroke:#00004C" d="M 0.245894 1121.53 L 0.245894 1121.47"/><path style="fill:none;stroke:#00004C" d="M 0.245894 1121.47 L 0.272173 1121.47"/><path style="fill:none;stroke:#00004C" d="M 0.272173 1121.47 L 0.272173 1121.47"/><path d="M 0.272173,1121.472368 A 0.011263,0.011263 0.000000 0 0 0.283436,1121.483631" style="fill:none;stroke:#00004C"/><path d="M 0.283436,1121.457351 A 0.011263,0.011263 0.000000 0 0 0.272173,1121.468614" style="fill:none;stroke:#00004C"/><path style="fill:none;stroke:#00004C" d="M 0.272173 1121.5 L 0.272173 1121.47"/><path style="fill:none;stroke:#00004C" d="M 0.283436 1121.54 L 0.283436 1121.65"/><path style="fill:none;stroke:#00004C" d="M 0.234631 1121.54 L 0.234631 1121.65"/><path d="M 0.283436,1121.543698 A 0.011263,0.011263 0.000000 0 0 0.272173,1121.532436" style="fill:none;stroke:#00004C"/><path d="M 0.245894,1121.532436 A 0.011263,0.011263 0.000000 0 0 0.234631,1121.543698" style="fill:none;stroke:#00004C"/><path d="M 0.272173,1121.660079 A 0.011263,0.011263 0.000000 0 0 0.283436,1121.648817" style="fill:none;stroke:#00004C"/><path d="M 0.234631,1121.648817 A 0.011263,0.011263 0.000000 0 0 0.245894,1121.660079" style="fill:none;stroke:#00004C"/><path style="fill:none;stroke:#00004C" d="M 0.260911 1121.74 L 0.272212 1121.74"/><path style="fill:none;stroke:#00004C" d="M 0.272173 1121.72 L 0.272173 1121.71"/><path style="fill:none;stroke:#00004C" d="M 0.272173 1121.72 L 0.272173 1121.73"/><path d="M 0.272173,1121.731410 A 0.030034,0.030034 0.000000 0 0 0.302207,1121.761443" style="fill:none;stroke:#00004C"/><path style="fill:none;stroke:#00004C" d="M 0.497427 1121.69 L 0.497427 1121.48"/><path style="fill:none;stroke:#00004C" d="M 0.497427 1121.57 L 0.497427 1121.71"/><path style="fill:none;stroke:#00004C" d="M 0.302207 1121.76 L 0.467393 1121.76"/><path style="fill:none;stroke:#00004C" d="M 0.585273 1121.76 L 0.585273 1121.76"/><path style="fill:none;stroke:#00004C" d="M 0.497427 1121.69 L 0.497427 1121.73"/><path d="M 0.467393,1121.761443 A 0.030034,0.030034 0.000000 0 0 0.497427,1121.731410" style="fill:none;stroke:#00004C"/><path style="fill:none;stroke:#00004C" d="M 0.284019 1121.56 L 0.48241 1121.56"/><path style="fill:none;stroke:#00004C" d="M 0.497427 1121.54 L 0.497427 1121.5"/><path d="M 0.482410,1121.556655 A 0.015017,0.015017 0.000000 0 0 0.497427,1121.541638" style="fill:none;stroke:#00004C"/><path d="M 0.512444,1121.483631 A 0.015017,0.015017 0.000000 0 0 0.497427,1121.498648" style="fill:none;stroke:#00004C"/><path style="fill:none;stroke:#00004C;stroke-linecap:round" d="M 0.48241 1121.48 L 0.28719 1121.48"/><path d="M 0.497427,1121.498648 A 0.015017,0.015017 0.000000 0 0 0.482410,1121.483631" style="fill:none;stroke:#00004C"/><path style="fill:none;stroke:#00004C" d="M 0.48205 1121.48 L 0.515295 1121.48"/><path style="fill:none;stroke:#00004C" d="M 0.497441 1121.58 L 0.497441 1121.53"/><path d="M 0.287190,1121.483631 A 0.015017,0.015017 0.000000 0 0 0.272173,1121.498648" style="fill:none;stroke:#00004C"/><path style="fill:none;stroke:#00004C" d="M 0.512444 1121.56 L 0.707663 1121.56"/><path style="fill:none;stroke:#00004C" d="M 0.72268 1121.69 L 0.72268 1121.73"/><path style="fill:none;stroke:#00004C" d="M 0.527461 1121.76 L 0.692646 1121.76"/><path d="M 0.497427,1121.731410 A 0.030034,0.030034 0.000000 0 0 0.527461,1121.761443" style="fill:none;stroke:#00004C"/><path style="fill:none;stroke:#00004C" d="M 0.72268 1121.69 L 0.72268 1121.73"/><path d="M 0.497427,1121.541638 A 0.015017,0.015017 0.000000 0 0 0.512444,1121.556655" style="fill:none;stroke:#00004C"/><path d="M 0.692646,1121.761443 A 0.030034,0.030034 0.000000 0 0 0.722680,1121.731410" style="fill:none;stroke:#00004C"/><path style="fill:none;stroke:#00004C" d="M 0.72268 1121.72 L 0.72268 1121.73"/><path style="fill:none;stroke:#00004C" d="M 0.72268 1121.72 L 0.72268 1121.71"/><path style="fill:none;stroke:#00004C" d="M 0.733943 1121.74 L 0.722642 1121.74"/><path d="M 0.748960,1121.660079 A 0.011263,0.011263 0.000000 0 0 0.760223,1121.648817" style="fill:none;stroke:#00004C"/><path d="M 0.711418,1121.648817 A 0.011263,0.011263 0.000000 0 0 0.722680,1121.660079" style="fill:none;stroke:#00004C"/><path d="M 0.760223,1121.543698 A 0.011263,0.011263 0.000000 0 0 0.748960,1121.532436" style="fill:none;stroke:#00004C"/><path d="M 0.722680,1121.532436 A 0.011263,0.011263 0.000000 0 0 0.711418,1121.543698" style="fill:none;stroke:#00004C"/><path style="fill:none;stroke:#00004C" d="M 0.760223 1121.54 L 0.760223 1121.65"/><path style="fill:none;stroke:#00004C" d="M 0.711418 1121.54 L 0.711418 1121.65"/><path style="fill:none;stroke:#00004C" d="M 0.72268 1121.53 L 0.72268 1121.49"/><path d="M 0.722680,1121.468614 A 0.011263,0.011263 0.000000 0 0 0.711418,1121.457351" style="fill:none;stroke:#00004C"/><path style="fill:none;stroke:#00004C" d="M 0.72268 1121.47 L 0.72268 1121.47"/><path style="fill:none;stroke:#00004C" d="M 0.74896 1121.47 L 0.72268 1121.47"/><path style="fill:none;stroke:#00004C" d="M 0.74896 1121.53 L 0.74896 1121.47"/><path style="fill:none;stroke:#00004C" d="M 0.72268 1121.53 L 0.72268 1121.47"/><path style="fill:none;stroke:#00004C" d="M 0.74896 1121.53 L 0.72268 1121.53"/><path style="fill:none;stroke:#00004C" d="M 0.72268 1121.66 L 0.72268 1121.72"/><path style="fill:none;stroke:#00004C" d="M 0.74896 1121.66 L 0.72268 1121.66"/><path style="fill:none;stroke:#00004C" d="M 0.74896 1121.74 L 0.74896 1121.66"/><path style="fill:none;stroke:#00004C" d="M 0.733943 1121.74 L 0.74896 1121.74"/><path style="fill:none;stroke:#00004C" d="M 0.283436 1121.46 L 0.711418 1121.46"/><path style="fill:none;stroke:#00004C" d="M 0.515295 1121.48 L 0.72268 1121.48"/></symbol><symbol id="A$C5C1B5EFD"><path style="fill:none;stroke:#00004C" d="M 0.959196 1121.74 L 0.974213 1121.74"/><path style="fill:none;stroke:#00004C" d="M 0.974213 1121.74 L 0.974213 1121.66"/><path style="fill:none;stroke:#00004C" d="M 0.974213 1121.66 L 0.947934 1121.66"/><path style="fill:none;stroke:#00004C" d="M 0.947934 1121.66 L 0.947934 1121.72"/><path style="fill:none;stroke:#00004C" d="M 0.974213 1121.53 L 0.947934 1121.53"/><path style="fill:none;stroke:#00004C" d="M 0.947934 1121.53 L 0.947934 1121.5"/><path style="fill:none;stroke:#00004C" d="M 0.974213 1121.53 L 0.974213 1121.47"/><path style="fill:none;stroke:#00004C" d="M 0.974213 1121.47 L 0.947934 1121.47"/><path style="fill:none;stroke:#00004C" d="M 0.947934 1121.47 L 0.947934 1121.47"/><path d="M 0.936671,1121.483631 A 0.011263,0.011263 0.000000 0 0 0.947934,1121.472368" style="fill:none;stroke:#00004C"/><path d="M 0.947934,1121.468614 A 0.011263,0.011263 0.000000 0 0 0.936671,1121.457351" style="fill:none;stroke:#00004C"/><path style="fill:none;stroke:#00004C" d="M 0.947934 1121.5 L 0.947934 1121.47"/><path style="fill:none;stroke:#00004C" d="M 0.936671 1121.54 L 0.936671 1121.65"/><path style="fill:none;stroke:#00004C" d="M 0.985476 1121.54 L 0.985476 1121.65"/><path d="M 0.947934,1121.532436 A 0.011263,0.011263 0.000000 0 0 0.936671,1121.543698" style="fill:none;stroke:#00004C"/><path d="M 0.985476,1121.543698 A 0.011263,0.011263 0.000000 0 0 0.974213,1121.532436" style="fill:none;stroke:#00004C"/><path d="M 0.936671,1121.648817 A 0.011263,0.011263 0.000000 0 0 0.947934,1121.660079" style="fill:none;stroke:#00004C"/><path d="M 0.974213,1121.660079 A 0.011263,0.011263 0.000000 0 0 0.985476,1121.648817" style="fill:none;stroke:#00004C"/><path style="fill:none;stroke:#00004C" d="M 0.959196 1121.74 L 0.947895 1121.74"/><path style="fill:none;stroke:#00004C" d="M 0.947934 1121.72 L 0.947934 1121.71"/><path style="fill:none;stroke:#00004C" d="M 0.947934 1121.72 L 0.947934 1121.73"/><path d="M 0.917900,1121.761443 A 0.030034,0.030034 0.000000 0 0 0.947934,1121.731410" style="fill:none;stroke:#00004C"/><path style="fill:none;stroke:#00004C" d="M 0.72268 1121.69 L 0.72268 1121.48"/><path style="fill:none;stroke:#00004C" d="M 0.72268 1121.57 L 0.72268 1121.71"/><path style="fill:none;stroke:#00004C" d="M 0.9179 1121.76 L 0.752714 1121.76"/><path style="fill:none;stroke:#00004C" d="M 0.634834 1121.76 L 0.634834 1121.76"/><path style="fill:none;stroke:#00004C" d="M 0.72268 1121.69 L 0.72268 1121.73"/><path d="M 0.722680,1121.731410 A 0.030034,0.030034 0.000000 0 0 0.752714,1121.761443" style="fill:none;stroke:#00004C"/><path style="fill:none;stroke:#00004C" d="M 0.936088 1121.56 L 0.737697 1121.56"/><path style="fill:none;stroke:#00004C" d="M 0.72268 1121.54 L 0.72268 1121.5"/><path d="M 0.722680,1121.541638 A 0.015017,0.015017 0.000000 0 0 0.737697,1121.556655" style="fill:none;stroke:#00004C"/><path d="M 0.722680,1121.498648 A 0.015017,0.015017 0.000000 0 0 0.707663,1121.483631" style="fill:none;stroke:#00004C"/><path style="fill:none;stroke:#00004C;stroke-linecap:round" d="M 0.737697 1121.48 L 0.932917 1121.48"/><path d="M 0.737697,1121.483631 A 0.015017,0.015017 0.000000 0 0 0.722680,1121.498648" style="fill:none;stroke:#00004C"/><path style="fill:none;stroke:#00004C" d="M 0.738057 1121.48 L 0.704812 1121.48"/><path style="fill:none;stroke:#00004C" d="M 0.722666 1121.58 L 0.722666 1121.53"/><path d="M 0.947934,1121.498648 A 0.015017,0.015017 0.000000 0 0 0.932917,1121.483631" style="fill:none;stroke:#00004C"/><path style="fill:none;stroke:#00004C" d="M 0.707663 1121.56 L 0.512444 1121.56"/><path style="fill:none;stroke:#00004C" d="M 0.497427 1121.54 L 0.497427 1121.5"/><path style="fill:none;stroke:#00004C" d="M 0.497412 1121.58 L 0.497412 1121.57"/><path style="fill:none;stroke:#00004C" d="M 0.497427 1121.69 L 0.497427 1121.73"/><path style="fill:none;stroke:#00004C" d="M 0.497427 1121.52 L 0.497427 1121.71"/><path style="fill:none;stroke:#00004C" d="M 0.692646 1121.76 L 0.527461 1121.76"/><path d="M 0.692646,1121.761443 A 0.030034,0.030034 0.000000 0 0 0.722680,1121.731410" style="fill:none;stroke:#00004C"/><path style="fill:none;stroke:#00004C" d="M 0.512803 1121.48 L 0.479559 1121.48"/><path d="M 0.512444,1121.483631 A 0.015017,0.015017 0.000000 0 0 0.497427,1121.498648" style="fill:none;stroke:#00004C"/><path d="M 0.497427,1121.498648 A 0.015017,0.015017 0.000000 0 0 0.482410,1121.483631" style="fill:none;stroke:#00004C"/><path d="M 0.497427,1121.541638 A 0.015017,0.015017 0.000000 0 0 0.512444,1121.556655" style="fill:none;stroke:#00004C"/><path style="fill:none;stroke:#00004C" d="M 0.48241 1121.56 L 0.282688 1121.56"/><path style="fill:none;stroke:#00004C" d="M 0.272173 1121.69 L 0.272173 1121.73"/><path style="fill:none;stroke:#00004C" d="M 0.467393 1121.76 L 0.302207 1121.76"/><path d="M 0.272173,1121.731410 A 0.030034,0.030034 0.000000 0 0 0.302207,1121.761443" style="fill:none;stroke:#00004C"/><path d="M 0.467393,1121.761443 A 0.030034,0.030034 0.000000 0 0 0.497427,1121.731410" style="fill:none;stroke:#00004C"/><path d="M 0.707663,1121.556655 A 0.015017,0.015017 0.000000 0 0 0.722680,1121.541638" style="fill:none;stroke:#00004C"/><path d="M 0.482410,1121.556655 A 0.015017,0.015017 0.000000 0 0 0.497427,1121.541638" style="fill:none;stroke:#00004C"/><path d="M 0.497427,1121.731410 A 0.030034,0.030034 0.000000 0 0 0.527461,1121.761443" style="fill:none;stroke:#00004C"/><path d="M 0.467393,1121.761443 A 0.030034,0.030034 0.000000 0 0 0.497427,1121.731410" style="fill:none;stroke:#00004C"/><path style="fill:none;stroke:#00004C" d="M 0.467393 1121.76 L 0.302207 1121.76"/><path style="fill:none;stroke:#00004C" d="M 0.272173 1121.72 L 0.272173 1121.73"/><path style="fill:none;stroke:#00004C" d="M 0.272173 1121.72 L 0.272173 1121.71"/><path style="fill:none;stroke:#00004C" d="M 0.260911 1121.74 L 0.272212 1121.74"/><path d="M 0.234631,1121.648817 A 0.011263,0.011263 0.000000 0 0 0.245894,1121.660079" style="fill:none;stroke:#00004C"/><path d="M 0.272173,1121.660079 A 0.011263,0.011263 0.000000 0 0 0.283436,1121.648817" style="fill:none;stroke:#00004C"/><path d="M 0.245894,1121.532436 A 0.011263,0.011263 0.000000 0 0 0.234631,1121.543698" style="fill:none;stroke:#00004C"/><path d="M 0.283436,1121.543698 A 0.011263,0.011263 0.000000 0 0 0.272173,1121.532436" style="fill:none;stroke:#00004C"/><path style="fill:none;stroke:#00004C" d="M 0.234631 1121.54 L 0.234631 1121.65"/><path style="fill:none;stroke:#00004C" d="M 0.283436 1121.54 L 0.283436 1121.65"/><path style="fill:none;stroke:#00004C" d="M 0.272173 1121.53 L 0.272173 1121.49"/><path d="M 0.283436,1121.457351 A 0.011263,0.011263 0.000000 0 0 0.272173,1121.468614" style="fill:none;stroke:#00004C"/><path style="fill:none;stroke:#00004C" d="M 0.272173 1121.47 L 0.272173 1121.47"/><path style="fill:none;stroke:#00004C" d="M 0.245894 1121.47 L 0.272173 1121.47"/><path style="fill:none;stroke:#00004C" d="M 0.245894 1121.53 L 0.245894 1121.47"/><path style="fill:none;stroke:#00004C" d="M 0.272173 1121.53 L 0.272173 1121.47"/><path style="fill:none;stroke:#00004C" d="M 0.245894 1121.53 L 0.272173 1121.53"/><path style="fill:none;stroke:#00004C" d="M 0.272173 1121.66 L 0.272173 1121.72"/><path style="fill:none;stroke:#00004C" d="M 0.245894 1121.66 L 0.272173 1121.66"/><path style="fill:none;stroke:#00004C" d="M 0.245894 1121.74 L 0.245894 1121.66"/><path style="fill:none;stroke:#00004C" d="M 0.260911 1121.74 L 0.245894 1121.74"/><path style="fill:none;stroke:#00004C" d="M 0.936671 1121.46 L 0.283436 1121.46"/><path style="fill:none;stroke:#00004C" d="M 0.704812 1121.48 L 0.283436 1121.48"/><path d="M 0.272173,1121.471968 A 0.011263,0.011263 0.000000 0 0 0.283436,1121.483230" style="fill:none;stroke:#00004C"/><path d="M 0.283436,1121.483230 A 0.011263,0.011263 0.000000 0 0 0.272173,1121.494493" style="fill:none;stroke:#00004C"/></symbol></defs><g inkscape:groupmode="layer" inkscape:label="0"><use xlink:href="#A%24C5C1B5EFD" style="stroke-width:0.001px" transform="matrix(1000 0 0 1000 -234.631 -1.12064e+06)"/></g><g inkscape:groupmode="layer" inkscape:label="FURN"/></svg>