<svg xmlns="http://www.w3.org/2000/svg" xmlns:svg="http://www.w3.org/2000/svg" xmlns:xlink="http://www.w3.org/1999/xlink" xmlns:sodipodi="http://sodipodi.sourceforge.net/DTD/sodipodi-0.dtd" xmlns:inkscape="http://www.inkscape.org/namespaces/inkscape" viewBox="0 0 793.7007874015749 1122.5196850393702" width="793.7007874015749" height="1122.5196850393702">
    <defs><marker id="DistanceX" orient="auto" refX="0.0" refY="0.0" style="overflow:visible"><path d="M 3,-3 L -3,3 M 0,-5 L  0,5" style="stroke:#000000; stroke-width:0.5"/></marker><pattern id="Hatch" patternUnits="userSpaceOnUse" width="8" height="8" x="0" y="0"><path d="M8 4 l-4,4" stroke="#000000" stroke-width="0.25" linecap="square"/><path d="M6 2 l-4,4" stroke="#000000" stroke-width="0.25" linecap="square"/><path d="M4 0 l-4,4" stroke="#000000" stroke-width="0.25" linecap="square"/></pattern><symbol id="*MODEL_SPACE"/><symbol id="*PAPER_SPACE"/><symbol id="A$C2C166547"><path d="M 6.134487,1117.018310 A 0.097709,0.097709 0.000000 0 0 6.129952,1117.045820" style="fill:none;stroke:#000000"/><path d="M 6.135459,1117.051458 A 0.030124,0.030124 0.000000 0 0 6.111611,1117.039383" style="fill:none;stroke:#000000"/><path d="M 6.045848,1117.039383 A 0.030124,0.030124 0.000000 0 0 6.022000,1117.051458" style="fill:none;stroke:#000000"/><path d="M 6.027507,1117.045820 A 0.097709,0.097709 0.000000 0 0 6.022972,1117.018310" style="fill:none;stroke:#000000"/><path d="M 6.023997,1117.040890 A 0.355468,0.355468 0.0 0 0 6.019308,1117.154463" style="fill:none;stroke:#000000"/><path style="fill:none;stroke:#000000" d="M 6.02158 1117.15 L 6.01862 1117.15"/><path style="fill:none;stroke:#000000" d="M 6.02158 1117.15 L 6.01876 1117.15"/><path style="fill:none;stroke:#000000" d="M 6.02212 1117.15 L 6.02158 1117.15"/><path d="M 6.022119,1117.154259 A 0.003700,0.003700 0.000000 0 0 6.019308,1117.154463" style="fill:none;stroke:#000000"/><path d="M 6.138151,1117.154463 A 0.355468,0.355468 0.000000 0 0 6.133463,1117.040890" style="fill:none;stroke:#000000"/><path d="M 6.138151,1117.154463 A 0.003700,0.003700 0.000000 0 0 6.135340,1117.154259" style="fill:none;stroke:#000000"/><path style="fill:none;stroke:#000000" d="M 6.13534 1117.15 L 6.13588 1117.15"/><path style="fill:none;stroke:#000000" d="M 6.13588 1117.15 L 6.1387 1117.15"/><path style="fill:none;stroke:#000000" d="M 6.13588 1117.15 L 6.13884 1117.15"/><path style="fill:none;stroke:#000000" d="M 6.07873 1117.01 L 6.02225 1117.01"/><path style="fill:none;stroke:#000000" d="M 6.07873 1117.01 L 6.02215 1117.01"/><path style="fill:none;stroke:#000000" d="M 6.07873 1117.01 L 6.02225 1117.01"/><path style="fill:none;stroke:#000000" d="M 6.07873 1117.04 L 6.04585 1117.04"/><path d="M 6.022250,1117.014422 A 0.000133,0.000133 0.000000 0 0 6.022077,1117.014570" style="fill:none;stroke:#000000"/><path d="M 6.022271,1117.014170 A 0.000223,0.000223 0.000000 0 0 6.022047,1117.014460" style="fill:none;stroke:#000000"/><path d="M 6.022151,1117.011649 A 0.000744,0.000744 0.000000 0 0 6.021591,1117.012652" style="fill:none;stroke:#000000"/><path d="M 6.024116,1117.040092 A 0.074169,0.074169 0.000000 0 0 6.021591,1117.012652" style="fill:none;stroke:#000000"/><path style="fill:none;stroke:#000000" d="M 6.07873 1117.04 L 6.11161 1117.04"/><path d="M 6.135868,1117.012652 A 0.074169,0.074169 0.000000 0 0 6.133343,1117.040092" style="fill:none;stroke:#000000"/><path style="fill:none;stroke:#000000" d="M 6.07873 1117.01 L 6.13521 1117.01"/><path style="fill:none;stroke:#000000" d="M 6.07873 1117.01 L 6.13531 1117.01"/><path d="M 6.135868,1117.012652 A 0.000744,0.000744 0.000000 0 0 6.135308,1117.011649" style="fill:none;stroke:#000000"/><path d="M 6.135412,1117.014460 A 0.000223,0.000223 0.000000 0 0 6.135189,1117.014170" style="fill:none;stroke:#000000"/><path style="fill:none;stroke:#000000" d="M 6.07873 1117.01 L 6.13521 1117.01"/><path d="M 6.135383,1117.014570 A 0.000133,0.000133 0.000000 0 0 6.135209,1117.014422" style="fill:none;stroke:#000000"/></symbol><symbol id="4_SEATER_ROUND_TABLE"><path d="M 2160.237079,-1607.898137 A 66.701734,66.701734 0.0 0 0 2157.286023,-1580.990091 A 363.559680,363.559680 0.0 0 1 2162.081429,-1464.832677 A 6.836856,6.836856 0.0 0 1 2154.560393,-1465.734333 A 3.705167,3.705167 0.0 0 0 2151.744882,-1465.938402 A 148.073403,148.073403 0.0 0 1 2135.096278,-1464.832677 L 2095.052428,-1464.832677 L 2055.008579,-1464.832677 A 148.073403,148.073403 0.0 0 1 2038.359974,-1465.938402 A 3.705167,3.705167 0.0 0 0 2035.544464,-1465.734333 A 6.836856,6.836856 0.0 0 1 2028.023428,-1464.832677 A 363.559680,363.559680 0.0 0 1 2032.818834,-1580.990091 A 66.701734,66.701734 0.0 0 0 2029.867777,-1607.898137 A 3.880078,3.880078 0.0 0 1 2033.187655,-1613.805529 L 2156.917202,-1613.805529 A 3.880078,3.880078 0.0 0 1 2160.237079,-1607.898137 z" style="fill:none;stroke:#00004C"/><use xlink:href="#A%24C2C166547" style="stroke-width:0.001px" transform="matrix(1000 0 0 1000 -3983.58 -1.11862e+06)"/><path d="M 2030.961270,-995.172314 A 66.701734,66.701734 0.0 0 0 2033.912327,-1022.080360 A 363.559680,363.559680 0.0 0 1 2029.116921,-1138.237774 A 6.836856,6.836856 0.0 0 1 2036.637957,-1137.336118 A 3.705167,3.705167 0.0 0 0 2039.453467,-1137.132050 A 148.073403,148.073403 0.0 0 1 2056.102071,-1138.237774 L 2096.145921,-1138.237774 L 2136.189771,-1138.237774 A 148.073403,148.073403 0.0 0 1 2152.838375,-1137.132050 A 3.705167,3.705167 0.0 0 0 2155.653885,-1137.336118 A 6.836856,6.836856 0.0 0 1 2163.174922,-1138.237774 A 363.559680,363.559680 0.0 0 1 2158.379516,-1022.080360 A 66.701734,66.701734 0.0 0 0 2161.330572,-995.172314 A 3.880078,3.880078 0.0 0 1 2158.010694,-989.264922 L 2034.281148,-989.264922 A 3.880078,3.880078 0.0 0 1 2030.961270,-995.172314 z" style="fill:none;stroke:#00004C"/><use xlink:href="#A%24C2C166547" style="stroke-width:0.001px" transform="matrix(-1000 1.22465e-13 -1.22465e-13 -1000 8174.78 1.11602e+06)"/><path d="M 2243.401922,-1301.535226 A 147.802747,147.802747 0.000000 0, 0 1947.796427,-1301.535226 A 147.802747,147.802747 0.000000 0, 0 2243.401922,-1301.535226 z" style="fill:none;stroke:#00004C"/><path d="M 2249.560370,-1301.535226 A 153.961195,153.961195 0.000000 0, 0 1941.637980,-1301.535226 A 153.961195,153.961195 0.000000 0, 0 2249.560370,-1301.535226 z" style="fill:none;stroke:#00004C"/><path d="M 2401.962086,-1236.897321 A 66.701734,66.701734 0.0 0 0 2375.054040,-1239.848378 A 363.559680,363.559680 0.0 0 1 2258.896626,-1235.052972 A 6.836856,6.836856 0.0 0 1 2259.798282,-1242.574008 A 3.705167,3.705167 0.0 0 0 2260.002351,-1245.389518 A 148.073403,148.073403 0.0 0 1 2258.896626,-1262.038122 L 2258.896626,-1302.081972 L 2258.896626,-1342.125822 A 148.073403,148.073403 0.0 0 1 2260.002351,-1358.774426 A 3.705167,3.705167 0.0 0 0 2259.798282,-1361.589936 A 6.836856,6.836856 0.0 0 1 2258.896626,-1369.110972 A 363.559680,363.559680 0.0 0 1 2375.054040,-1364.315566 A 66.701734,66.701734 0.0 0 0 2401.962086,-1367.266623 A 3.880078,3.880078 0.0 0 1 2407.869479,-1363.946745 L 2407.869479,-1240.217199 A 3.880078,3.880078 0.0 0 1 2401.962086,-1236.897321 z" style="fill:none;stroke:#00004C"/><use xlink:href="#A%24C2C166547" style="stroke-width:0.001px" transform="matrix(6.12323e-14 1000 -1000 6.12323e-14 1.11941e+06 -7382.32)"/><path d="M 1789.236263,-1366.173130 A 66.701734,66.701734 0.0 0 0 1816.144310,-1363.222074 A 363.559680,363.559680 0.0 0 1 1932.301723,-1368.017480 A 6.836856,6.836856 0.0 0 1 1931.400067,-1360.496443 A 3.705167,3.705167 0.0 0 0 1931.195999,-1357.680933 A 148.073403,148.073403 0.0 0 1 1932.301723,-1341.032329 L 1932.301723,-1300.988479 L 1932.301723,-1260.944629 A 148.073403,148.073403 0.0 0 1 1931.195999,-1244.296025 A 3.705167,3.705167 0.0 0 0 1931.400067,-1241.480515 A 6.836856,6.836856 0.0 0 1 1932.301723,-1233.959479 A 363.559680,363.559680 0.0 0 1 1816.144310,-1238.754885 A 66.701734,66.701734 0.0 0 0 1789.236263,-1235.803828 A 3.880078,3.880078 0.0 0 1 1783.328871,-1239.123706 L 1783.328871,-1362.853252 A 3.880078,3.880078 0.0 0 1 1789.236263,-1366.173130 z" style="fill:none;stroke:#00004C"/><use xlink:href="#A%24C2C166547" style="stroke-width:0.001px" transform="matrix(-1.83697e-13 -1000 1000 -1.83697e-13 -1.11522e+06 4781.24)"/></symbol><symbol id="6_SEATER_ROUND_TABLE"><use xlink:href="#A%24C2C166547" style="stroke-width:0.001px" transform="matrix(500 866.025 -866.025 500 967592 -563593)"/><path d="M 3302.648783,231.993591 A 66.701734,66.701734 0.0 0 0 3277.870203,242.891924 A 363.559680,363.559680 0.0 0 1 3179.672635,305.123575 A 6.836856,6.836856 0.0 0 1 3176.692974,298.159338 A 3.705167,3.705167 0.0 0 0 3175.461947,295.619001 A 148.073403,148.073403 0.0 0 1 3166.180059,281.753749 L 3146.158134,247.074757 L 3126.136210,212.395766 A 148.073403,148.073403 0.0 0 1 3118.769493,197.424790 A 3.705167,3.705167 0.0 0 0 3117.185009,195.088521 A 6.836856,6.836856 0.0 0 1 3112.643634,189.025940 A 363.559680,363.559680 0.0 0 1 3215.636608,135.100177 A 66.701734,66.701734 0.0 0 0 3237.464132,119.090464 A 3.880078,3.880078 0.0 0 1 3244.240022,119.011866 L 3306.104796,226.164796 A 3.880078,3.880078 0.0 0 1 3302.648783,231.993591 z" style="fill:none;stroke:#00004C"/><use xlink:href="#A%24C2C166547" style="stroke-width:0.001px" transform="matrix(500 -866.025 866.025 500 -967728 -553062)"/><path d="M 2705.345501,120.037456 A 66.701734,66.701734 0.0 0 0 2727.173025,136.047169 A 363.559680,363.559680 0.0 0 1 2830.165999,189.972933 A 6.836856,6.836856 0.0 0 1 2825.624624,196.035513 A 3.705167,3.705167 0.0 0 0 2824.040140,198.371782 A 148.073403,148.073403 0.0 0 1 2816.673424,213.342759 L 2796.651499,248.021750 L 2776.629574,282.700741 A 148.073403,148.073403 0.0 0 1 2767.347686,296.565993 A 3.705167,3.705167 0.0 0 0 2766.116659,299.106331 A 6.836856,6.836856 0.0 0 1 2763.136998,306.070567 A 363.559680,363.559680 0.0 0 1 2664.939430,243.838917 A 66.701734,66.701734 0.0 0 0 2640.160850,232.940584 A 3.880078,3.880078 0.0 0 1 2636.704837,227.111789 L 2698.569611,119.958859 A 3.880078,3.880078 0.0 0 1 2705.345501,120.037456 z" style="fill:none;stroke:#00004C"/><path d="M 3036.316094,3.588918 A 66.701734,66.701734 0.0 0 0 3033.365038,30.496965 A 363.559680,363.559680 0.0 0 1 3038.160444,146.654379 A 6.836856,6.836856 0.0 0 1 3030.639408,145.752722 A 3.705167,3.705167 0.0 0 0 3027.823897,145.548654 A 148.073403,148.073403 0.0 0 1 3011.175293,146.654379 L 2971.131443,146.654379 L 2931.087594,146.654379 A 148.073403,148.073403 0.0 0 1 2914.438989,145.548654 A 3.705167,3.705167 0.0 0 0 2911.623479,145.752722 A 6.836856,6.836856 0.0 0 1 2904.102443,146.654379 A 363.559680,363.559680 0.0 0 1 2908.897849,30.496965 A 66.701734,66.701734 0.0 0 0 2905.946792,3.588918 A 3.880078,3.880078 0.0 0 1 2909.266670,-2.318474 L 3032.996217,-2.318474 A 3.880078,3.880078 0.0 0 1 3036.316094,3.588918 z" style="fill:none;stroke:#00004C"/><use xlink:href="#A%24C2C166547" style="stroke-width:0.001px" transform="matrix(1000 0 0 1000 -3107.5 -1.11701e+06)"/><use xlink:href="#A%24C2C166547" style="stroke-width:0.001px" transform="matrix(-1000 1.22465e-13 -1.22465e-13 -1000 9050.85 1.11771e+06)"/><path d="M 2907.040285,693.295339 A 66.701734,66.701734 0.0 0 0 2909.991342,666.387293 A 363.559680,363.559680 0.0 0 1 2905.195936,550.229879 A 6.836856,6.836856 0.0 0 1 2912.716972,551.131535 A 3.705167,3.705167 0.0 0 0 2915.532482,551.335604 A 148.073403,148.073403 0.0 0 1 2932.181086,550.229879 L 2972.224936,550.229879 L 3012.268786,550.229879 A 148.073403,148.073403 0.0 0 1 3028.917390,551.335604 A 3.705167,3.705167 0.0 0 0 3031.732900,551.131535 A 6.836856,6.836856 0.0 0 1 3039.253937,550.229879 A 363.559680,363.559680 0.0 0 1 3034.458531,666.387293 A 66.701734,66.701734 0.0 0 0 3037.409587,693.295339 A 3.880078,3.880078 0.0 0 1 3034.089709,699.202731 L 2910.360163,699.202731 A 3.880078,3.880078 0.0 0 1 2907.040285,693.295339 z" style="fill:none;stroke:#00004C"/><path d="M 3157.971236,348.442129 A 186.293046,186.293046 0.000000 0, 0 2785.385144,348.442129 A 186.293046,186.293046 0.000000 0, 0 3157.971236,348.442129 z" style="fill:none;stroke:#00004C"/><path d="M 3164.129684,348.442129 A 192.451494,192.451494 0.000000 0, 0 2779.226696,348.442129 A 192.451494,192.451494 0.000000 0, 0 3164.129684,348.442129 z" style="fill:none;stroke:#00004C"/><use xlink:href="#A%24C2C166547" style="stroke-width:0.001px" transform="matrix(-500 -866.025 866.025 -500 -961648 564292)"/><path d="M 2640.707597,464.890667 A 66.701734,66.701734 0.0 0 0 2665.486177,453.992333 A 363.559680,363.559680 0.0 0 1 2763.683745,391.760683 A 6.836856,6.836856 0.0 0 1 2766.663406,398.724920 A 3.705167,3.705167 0.0 0 0 2767.894433,401.265257 A 148.073403,148.073403 0.0 0 1 2777.176320,415.130509 L 2797.198245,449.809500 L 2817.220170,484.488491 A 148.073403,148.073403 0.0 0 1 2824.586887,499.459468 A 3.705167,3.705167 0.0 0 0 2826.171370,501.795737 A 6.836856,6.836856 0.0 0 1 2830.712745,507.858317 A 363.559680,363.559680 0.0 0 1 2727.719771,561.784081 A 66.701734,66.701734 0.0 0 0 2705.892248,577.793794 A 3.880078,3.880078 0.0 0 1 2699.116357,577.872392 L 2637.251584,470.719461 A 3.880078,3.880078 0.0 0 1 2640.707597,464.890667 z" style="fill:none;stroke:#00004C"/><use xlink:href="#A%24C2C166547" style="stroke-width:0.001px" transform="matrix(-500 866.025 -866.025 -500 973671 553761)"/><path d="M 3238.010878,576.846801 A 66.701734,66.701734 0.0 0 0 3216.183355,560.837088 A 363.559680,363.559680 0.0 0 1 3113.190381,506.911325 A 6.836856,6.836856 0.0 0 1 3117.731756,500.848744 A 3.705167,3.705167 0.0 0 0 3119.316239,498.512475 A 148.073403,148.073403 0.0 0 1 3126.682956,483.541499 L 3146.704881,448.862508 L 3166.726806,414.183516 A 148.073403,148.073403 0.0 0 1 3176.008693,400.318265 A 3.705167,3.705167 0.0 0 0 3177.239720,397.777927 A 6.836856,6.836856 0.0 0 1 3180.219381,390.813690 A 363.559680,363.559680 0.0 0 1 3278.416949,453.045341 A 66.701734,66.701734 0.0 0 0 3303.195529,463.943674 A 3.880078,3.880078 0.0 0 1 3306.651542,469.772469 L 3244.786769,576.925399 A 3.880078,3.880078 0.0 0 1 3238.010878,576.846801 z" style="fill:none;stroke:#00004C"/></symbol><symbol id="A$C1D6968EA"><path d="M 6.158592,1117.149653 A 0.074169,0.074169 0.000000 0 0 6.131152,1117.147128" style="fill:none;stroke:#000000"/><path d="M 6.152934,1117.148272 A 0.097709,0.097709 0.000000 0 0 6.125424,1117.143737" style="fill:none;stroke:#000000"/><path d="M 6.125424,1117.041292 A 0.097709,0.097709 0.000000 0 0 6.152934,1117.036757" style="fill:none;stroke:#000000"/><path d="M 6.131152,1117.037901 A 0.074169,0.074169 0.000000 0 0 6.158592,1117.035376" style="fill:none;stroke:#000000"/><path style="fill:none;stroke:#000000" d="M 6.13186 1117.09 L 6.13186 1117.13"/><path d="M 6.016782,1117.151936 A 0.355468,0.355468 0.000000 0 0 6.130354,1117.147247" style="fill:none;stroke:#000000"/><path d="M 6.119786,1117.149244 A 0.030124,0.030124 0.000000 0 0 6.131861,1117.125396" style="fill:none;stroke:#000000"/><path d="M 6.016782,1117.151936 A 0.003700,0.003700 0.000000 0 0 6.016985,1117.149125" style="fill:none;stroke:#000000"/><path style="fill:none;stroke:#000000" d="M 6.01699 1117.15 L 6.02296 1117.15"/><path style="fill:none;stroke:#000000" d="M 6.02296 1117.15 L 6.02163 1117.15"/><path style="fill:none;stroke:#000000" d="M 6.02296 1117.15 L 6.02296 1117.15"/><path style="fill:none;stroke:#000000" d="M 6.02296 1117.04 L 6.02296 1117.03"/><path style="fill:none;stroke:#000000" d="M 6.02296 1117.04 L 6.02163 1117.03"/><path style="fill:none;stroke:#000000" d="M 6.01699 1117.04 L 6.02296 1117.04"/><path d="M 6.016985,1117.035904 A 0.003700,0.003700 0.000000 0 0 6.016782,1117.033093" style="fill:none;stroke:#000000"/><path d="M 6.131861,1117.059633 A 0.030124,0.030124 0.000000 0 0 6.119786,1117.035785" style="fill:none;stroke:#000000"/><path d="M 6.130354,1117.037781 A 0.355468,0.355468 0.000000 0 0 6.016782,1117.033093" style="fill:none;stroke:#000000"/><path style="fill:none;stroke:#000000" d="M 6.13186 1117.09 L 6.13186 1117.06"/><path style="fill:none;stroke:#000000" d="M 6.15707 1117.09 L 6.15707 1117.15"/><path style="fill:none;stroke:#000000" d="M 6.1596 1117.09 L 6.1596 1117.15"/><path d="M 6.158592,1117.149653 A 0.000744,0.000744 0.000000 0 0 6.159595,1117.149093" style="fill:none;stroke:#000000"/><path d="M 6.156784,1117.149197 A 0.000223,0.000223 0.000000 0 0 6.157074,1117.148973" style="fill:none;stroke:#000000"/><path style="fill:none;stroke:#000000" d="M 6.15682 1117.09 L 6.15682 1117.15"/><path d="M 6.156674,1117.149167 A 0.000133,0.000133 0.000000 0 0 6.156822,1117.148994" style="fill:none;stroke:#000000"/><path d="M 6.156822,1117.036035 A 0.000133,0.000133 0.000000 0 0 6.156674,1117.035861" style="fill:none;stroke:#000000"/><path style="fill:none;stroke:#000000" d="M 6.15682 1117.09 L 6.15682 1117.04"/><path d="M 6.157074,1117.036055 A 0.000223,0.000223 0.000000 0 0 6.156784,1117.035832" style="fill:none;stroke:#000000"/><path d="M 6.159595,1117.035936 A 0.000744,0.000744 0.000000 0 0 6.158592,1117.035376" style="fill:none;stroke:#000000"/><path style="fill:none;stroke:#000000" d="M 6.1596 1117.09 L 6.1596 1117.04"/><path style="fill:none;stroke:#000000" d="M 6.15707 1117.09 L 6.15707 1117.04"/></symbol><symbol id="8_SEATER_ROUND_TABLE"><use xlink:href="#A%24C1D6968EA" style="stroke-width:0.001px" transform="matrix(-1.83697e-13 -1000 1000 -1.83697e-13 -1.11298e+06 5021.24)"/><path d="M 4181.420567,-1133.474288 A 66.701734,66.701734 0.0 0 0 4178.469510,-1106.566242 A 363.559680,363.559680 0.0 0 1 4183.264916,-990.408828 A 6.836856,6.836856 0.0 0 1 4175.743880,-991.310484 A 3.705167,3.705167 0.0 0 0 4172.928370,-991.514552 A 148.073403,148.073403 0.0 0 1 4156.279766,-990.408828 L 4116.235916,-990.408828 L 4076.192066,-990.408828 A 148.073403,148.073403 0.0 0 1 4059.543462,-991.514552 A 3.705167,3.705167 0.0 0 0 4056.727952,-991.310484 A 6.836856,6.836856 0.0 0 1 4049.206916,-990.408828 A 363.559680,363.559680 0.0 0 1 4054.002322,-1106.566242 A 66.701734,66.701734 0.0 0 0 4051.051265,-1133.474288 A 3.880078,3.880078 0.0 0 1 4054.371143,-1139.381680 L 4178.100689,-1139.381680 A 3.880078,3.880078 0.0 0 1 4181.420567,-1133.474288 z" style="fill:none;stroke:#00004C"/><use xlink:href="#A%24C1D6968EA" style="stroke-width:0.001px" transform="matrix(1000 0 0 1000 -1651.77 -1.11783e+06)"/><path d="M 4507.178900,-677.346653 A 66.701734,66.701734 0.0 0 0 4480.270854,-680.297709 A 363.559680,363.559680 0.0 0 1 4364.113440,-675.502303 A 6.836856,6.836856 0.0 0 1 4365.015096,-683.023340 A 3.705167,3.705167 0.0 0 0 4365.219165,-685.838850 A 148.073403,148.073403 0.0 0 1 4364.113440,-702.487454 L 4364.113440,-742.531304 L 4364.113440,-782.575154 A 148.073403,148.073403 0.0 0 1 4365.219165,-799.223758 A 3.705167,3.705167 0.0 0 0 4365.015096,-802.039268 A 6.836856,6.836856 0.0 0 1 4364.113440,-809.560304 A 363.559680,363.559680 0.0 0 1 4480.270854,-804.764898 A 66.701734,66.701734 0.0 0 0 4507.178900,-807.715955 A 3.880078,3.880078 0.0 0 1 4513.086292,-804.396077 L 4513.086292,-680.666531 A 3.880078,3.880078 0.0 0 1 4507.178900,-677.346653 z" style="fill:none;stroke:#00004C"/><use xlink:href="#A%24C1D6968EA" style="stroke-width:0.001px" transform="matrix(707.107 -707.107 707.107 707.107 -789866 -786569)"/><path d="M 4438.766860,-972.877230 A 66.701734,66.701734 0.0 0 0 4417.653286,-955.937080 A 363.559680,363.559680 0.0 0 1 4338.908455,-870.410521 A 6.836856,6.836856 0.0 0 1 4334.227846,-876.366264 A 3.705167,3.705167 0.0 0 0 4332.381278,-878.501429 A 148.073403,148.073403 0.0 0 1 4319.827072,-889.491904 L 4291.511794,-917.807182 L 4263.196516,-946.122460 A 148.073403,148.073403 0.0 0 1 4252.206041,-958.676666 A 3.705167,3.705167 0.0 0 0 4250.070876,-960.523234 A 6.836856,6.836856 0.0 0 1 4244.115133,-965.203843 A 363.559680,363.559680 0.0 0 1 4329.641692,-1043.948674 A 66.701734,66.701734 0.0 0 0 4346.581843,-1065.062248 A 3.880078,3.880078 0.0 0 1 4353.106508,-1066.891897 L 4440.596509,-979.401895 A 3.880078,3.880078 0.0 0 1 4438.766860,-972.877230 z" style="fill:none;stroke:#00004C"/><use xlink:href="#A%24C1D6968EA" style="stroke-width:0.001px" transform="matrix(-1000 1.22465e-13 -1.22465e-13 -1000 9884.24 1.11635e+06)"/><path d="M 3725.292932,-807.715955 A 66.701734,66.701734 0.0 0 0 3752.200978,-804.764898 A 363.559680,363.559680 0.0 0 1 3868.358392,-809.560304 A 6.836856,6.836856 0.0 0 1 3867.456736,-802.039268 A 3.705167,3.705167 0.0 0 0 3867.252667,-799.223758 A 148.073403,148.073403 0.0 0 1 3868.358392,-782.575154 L 3868.358392,-742.531304 L 3868.358392,-702.487454 A 148.073403,148.073403 0.0 0 1 3867.252667,-685.838850 A 3.705167,3.705167 0.0 0 0 3867.456736,-683.023340 A 6.836856,6.836856 0.0 0 1 3868.358392,-675.502303 A 363.559680,363.559680 0.0 0 1 3752.200978,-680.297709 A 66.701734,66.701734 0.0 0 0 3725.292932,-677.346653 A 3.880078,3.880078 0.0 0 1 3719.385540,-680.666531 L 3719.385540,-804.396077 A 3.880078,3.880078 0.0 0 1 3725.292932,-807.715955 z" style="fill:none;stroke:#00004C"/><use xlink:href="#A%24C1D6968EA" style="stroke-width:0.001px" transform="matrix(-707.107 -707.107 707.107 -707.107 -781709 793236)"/><path d="M 3885.889989,-1065.062248 A 66.701734,66.701734 0.0 0 0 3902.830140,-1043.948674 A 363.559680,363.559680 0.0 0 1 3988.356699,-965.203843 A 6.836856,6.836856 0.0 0 1 3982.400956,-960.523234 A 3.705167,3.705167 0.0 0 0 3980.265791,-958.676666 A 148.073403,148.073403 0.0 0 1 3969.275316,-946.122460 L 3940.960038,-917.807182 L 3912.644760,-889.491904 A 148.073403,148.073403 0.0 0 1 3900.090554,-878.501429 A 3.705167,3.705167 0.0 0 0 3898.243986,-876.366264 A 6.836856,6.836856 0.0 0 1 3893.563377,-870.410521 A 363.559680,363.559680 0.0 0 1 3814.818546,-955.937080 A 66.701734,66.701734 0.0 0 0 3793.704972,-972.877230 A 3.880078,3.880078 0.0 0 1 3791.875323,-979.401895 L 3879.365324,-1066.891897 A 3.880078,3.880078 0.0 0 1 3885.889989,-1065.062248 z" style="fill:none;stroke:#00004C"/><use xlink:href="#A%24C1D6968EA" style="stroke-width:0.001px" transform="matrix(6.12323e-14 1000 -1000 6.12323e-14 1.12121e+06 -6512.32)"/><path d="M 4051.051265,-351.588319 A 66.701734,66.701734 0.0 0 0 4054.002322,-378.496366 A 363.559680,363.559680 0.0 0 1 4049.206916,-494.653780 A 6.836856,6.836856 0.0 0 1 4056.727952,-493.752124 A 3.705167,3.705167 0.0 0 0 4059.543462,-493.548055 A 148.073403,148.073403 0.0 0 1 4076.192066,-494.653780 L 4116.235916,-494.653780 L 4156.279766,-494.653780 A 148.073403,148.073403 0.0 0 1 4172.928370,-493.548055 A 3.705167,3.705167 0.0 0 0 4175.743880,-493.752124 A 6.836856,6.836856 0.0 0 1 4183.264916,-494.653780 A 363.559680,363.559680 0.0 0 1 4178.469510,-378.496366 A 66.701734,66.701734 0.0 0 0 4181.420567,-351.588319 A 3.880078,3.880078 0.0 0 1 4178.100689,-345.680927 L 4054.371143,-345.680927 A 3.880078,3.880078 0.0 0 1 4051.051265,-351.588319 z" style="fill:none;stroke:#00004C"/><use xlink:href="#A%24C1D6968EA" style="stroke-width:0.001px" transform="matrix(707.107 707.107 -707.107 707.107 789941 -794728)"/><path d="M 4346.581843,-420.000360 A 66.701734,66.701734 0.0 0 0 4329.641692,-441.113934 A 363.559680,363.559680 0.0 0 1 4244.115133,-519.858765 A 6.836856,6.836856 0.0 0 1 4250.070876,-524.539373 A 3.705167,3.705167 0.0 0 0 4252.206041,-526.385942 A 148.073403,148.073403 0.0 0 1 4263.196516,-538.940148 L 4291.511794,-567.255426 L 4319.827072,-595.570703 A 148.073403,148.073403 0.0 0 1 4332.381278,-606.561179 A 3.705167,3.705167 0.0 0 0 4334.227846,-608.696343 A 6.836856,6.836856 0.0 0 1 4338.908455,-614.652086 A 363.559680,363.559680 0.0 0 1 4417.653286,-529.125527 A 66.701734,66.701734 0.0 0 0 4438.766860,-512.185377 A 3.880078,3.880078 0.0 0 1 4440.596509,-505.660712 L 4353.106508,-418.170711 A 3.880078,3.880078 0.0 0 1 4346.581843,-420.000360 z" style="fill:none;stroke:#00004C"/><use xlink:href="#A%24C1D6968EA" style="stroke-width:0.001px" transform="matrix(-707.107 707.107 -707.107 -707.107 798098 785087)"/><path d="M 3793.704972,-512.185377 A 66.701734,66.701734 0.0 0 0 3814.818546,-529.125527 A 363.559680,363.559680 0.0 0 1 3893.563377,-614.652086 A 6.836856,6.836856 0.0 0 1 3898.243986,-608.696343 A 3.705167,3.705167 0.0 0 0 3900.090554,-606.561179 A 148.073403,148.073403 0.0 0 1 3912.644760,-595.570703 L 3940.960038,-567.255426 L 3969.275316,-538.940148 A 148.073403,148.073403 0.0 0 1 3980.265791,-526.385942 A 3.705167,3.705167 0.0 0 0 3982.400956,-524.539373 A 6.836856,6.836856 0.0 0 1 3988.356699,-519.858765 A 363.559680,363.559680 0.0 0 1 3902.830140,-441.113934 A 66.701734,66.701734 0.0 0 0 3885.889989,-420.000360 A 3.880078,3.880078 0.0 0 1 3879.365324,-418.170711 L 3791.875323,-505.660712 A 3.880078,3.880078 0.0 0 1 3793.704972,-512.185377 z" style="fill:none;stroke:#00004C"/><path d="M 4348.717321,-742.531304 A 232.481405,232.481405 0.000000 0, 0 3883.754511,-742.531304 A 232.481405,232.481405 0.000000 0, 0 4348.717321,-742.531304 z" style="fill:none;stroke:#00004C"/><path d="M 4354.875768,-742.531304 A 238.639852,238.639852 0.000000 0, 0 3877.596064,-742.531304 A 238.639852,238.639852 0.000000 0, 0 4354.875768,-742.531304 z" style="fill:none;stroke:#00004C"/></symbol><symbol id="8_SEATER_ROUND_TABLE_1350M"><path d="M 4302.528962,348.442129 A 186.293046,186.293046 0.000000 0, 0 3929.942870,348.442129 A 186.293046,186.293046 0.000000 0, 0 4302.528962,348.442129 z" style="fill:none;stroke:#00004C"/><path d="M 4308.687410,348.442129 A 192.451494,192.451494 0.000000 0, 0 3923.784422,348.442129 A 192.451494,192.451494 0.000000 0, 0 4308.687410,348.442129 z" style="fill:none;stroke:#00004C"/><use xlink:href="#%2AU12" style="stroke-width:0.500px"/></symbol><symbol id="*U11"><path d="M 71.201433,1048.208145 A 66.701734,66.701734 0.0 0 0 68.250376,1075.116192 A 363.559680,363.559680 0.0 0 1 73.045782,1191.273606 A 6.836856,6.836856 0.0 0 1 65.524746,1190.371949 A 3.705167,3.705167 0.0 0 0 62.709236,1190.167881 A 148.073403,148.073403 0.0 0 1 46.060631,1191.273606 L 6.016782,1191.273606 L -34.027068,1191.273606 A 148.073403,148.073403 0.0 0 1 -50.675672,1190.167881 A 3.705167,3.705167 0.0 0 0 -53.491183,1190.371949 A 6.836856,6.836856 0.0 0 1 -61.012219,1191.273606 A 363.559680,363.559680 0.0 0 1 -56.216813,1075.116192 A 66.701734,66.701734 0.0 0 0 -59.167869,1048.208145 A 3.880078,3.880078 0.0 0 1 -55.847992,1042.300753 L 67.881555,1042.300753 A 3.880078,3.880078 0.0 0 1 71.201433,1048.208145 z" style="fill:none;stroke:#00004C"/><use xlink:href="#A%24C2C166547" style="stroke-width:0.001px" transform="matrix(1000 0 0 1000 -6072.62 -1.11596e+06)"/></symbol><symbol id="*U12"><use xlink:href="#%2AU11" style="stroke-width:0.500px" transform="translate(4109.67, -1044.62)"/><use xlink:href="#%2AU11" style="stroke-width:0.500px" transform="matrix(0.707107 -0.707107 0.707107 0.707107 3126.55 -631.96)"/><use xlink:href="#%2AU11" style="stroke-width:0.500px" transform="matrix(-1.07188e-15 -1 1 -1.07188e-15 2723.17 355.005)"/><use xlink:href="#%2AU11" style="stroke-width:0.500px" transform="matrix(-0.707107 -0.707107 0.707107 -0.707107 3135.83 1338.13)"/><use xlink:href="#%2AU11" style="stroke-width:0.500px" transform="matrix(-1 1.22465e-16 -1.22465e-16 -1 4122.8 1741.5)"/><use xlink:href="#%2AU11" style="stroke-width:0.500px" transform="matrix(-0.707107 0.707107 -0.707107 -0.707107 5105.92 1328.84)"/><use xlink:href="#%2AU11" style="stroke-width:0.500px" transform="matrix(2.05963e-15 1 -1 2.05963e-15 5509.3 341.879)"/><use xlink:href="#%2AU11" style="stroke-width:0.500px" transform="matrix(0.707107 0.707107 -0.707107 0.707107 5096.64 -641.243)"/></symbol></defs><g inkscape:groupmode="layer" inkscape:label="0"><use xlink:href="#8_SEATER_ROUND_TABLE_1350M" style="stroke-width:0.500px" transform="translate(-3762.1, 420.259)"/></g></svg>