<svg width="794" height="1123" viewBox="0 0 794 1123" fill="none" xmlns="http://www.w3.org/2000/svg">
<g clip-path="url(#clip0_3184_273)">
<path d="M13.1523 1106.96V1122.52" stroke="#00004C" stroke-width="0.5" stroke-dasharray="0.83 0.1 0.5 0.1"/>
<path d="M4.07812 1113.39H20.8642" stroke="#00004C" stroke-width="0.5" stroke-dasharray="0.83 0.1 0.5 0.1"/>
<path d="M18.3219 1113.39C18.3219 1112.02 17.7772 1110.71 16.8075 1109.74C15.8378 1108.77 14.5226 1108.22 13.1512 1108.22C11.7798 1108.22 10.4646 1108.77 9.49494 1109.74C8.52524 1110.71 7.98047 1112.02 7.98047 1113.39C7.98047 1114.76 8.52524 1116.08 9.49494 1117.05C10.4646 1118.02 11.7798 1118.56 13.1512 1118.56C14.5226 1118.56 15.8378 1118.02 16.8075 1117.05C17.7772 1116.08 18.3219 1114.76 18.3219 1113.39ZM17.0364 1113.39C17.0364 1112.36 16.6271 1111.37 15.8984 1110.65C15.1698 1109.92 14.1816 1109.51 13.1512 1109.51C12.1208 1109.51 11.1326 1109.92 10.404 1110.65C9.67534 1111.37 9.26601 1112.36 9.26601 1113.39C9.26601 1114.42 9.67534 1115.41 10.404 1116.14C11.1326 1116.87 12.1208 1117.28 13.1512 1117.28C14.1816 1117.28 15.1698 1116.87 15.8984 1116.14C16.6271 1115.41 17.0364 1114.42 17.0364 1113.39Z" fill="#00004C"/>
<path d="M18.3219 1113.39C18.3219 1112.02 17.7772 1110.71 16.8075 1109.74C15.8378 1108.77 14.5226 1108.22 13.1512 1108.22C11.7798 1108.22 10.4646 1108.77 9.49494 1109.74C8.52524 1110.71 7.98047 1112.02 7.98047 1113.39C7.98047 1114.76 8.52524 1116.08 9.49494 1117.05C10.4646 1118.02 11.7798 1118.56 13.1512 1118.56C14.5226 1118.56 15.8378 1118.02 16.8075 1117.05C17.7772 1116.08 18.3219 1114.76 18.3219 1113.39Z" stroke="#00004C" stroke-width="0.5"/>
<path d="M17.036 1113.39C17.036 1112.36 16.6267 1111.37 15.8981 1110.65C15.1694 1109.92 14.1812 1109.51 13.1508 1109.51C12.1204 1109.51 11.1322 1109.92 10.4036 1110.65C9.67496 1111.37 9.26562 1112.36 9.26562 1113.39C9.26562 1114.42 9.67496 1115.41 10.4036 1116.14C11.1322 1116.87 12.1204 1117.28 13.1508 1117.28C14.1812 1117.28 15.1694 1116.87 15.8981 1116.14C16.6267 1115.41 17.036 1114.42 17.036 1113.39Z" stroke="#00004C" stroke-width="0.5"/>
</g>
<defs>
<clipPath id="clip0_3184_273">
<rect width="793.701" height="1122.52" fill="white"/>
</clipPath>
</defs>
</svg>
