<svg xmlns="http://www.w3.org/2000/svg" xmlns:svg="http://www.w3.org/2000/svg" xmlns:xlink="http://www.w3.org/1999/xlink" xmlns:sodipodi="http://sodipodi.sourceforge.net/DTD/sodipodi-0.dtd" xmlns:inkscape="http://www.inkscape.org/namespaces/inkscape" viewBox="0 0 793.7007874015749 1122.5196850393702" width="793.7007874015749" height="1122.5196850393702">
    <defs><marker id="DistanceX" orient="auto" refX="0.0" refY="0.0" style="overflow:visible"><path d="M 3,-3 L -3,3 M 0,-5 L  0,5" style="stroke:#000000; stroke-width:0.5"/></marker><pattern id="Hatch" patternUnits="userSpaceOnUse" width="8" height="8" x="0" y="0"><path d="M8 4 l-4,4" stroke="#000000" stroke-width="0.25" linecap="square"/><path d="M6 2 l-4,4" stroke="#000000" stroke-width="0.25" linecap="square"/><path d="M4 0 l-4,4" stroke="#000000" stroke-width="0.25" linecap="square"/></pattern><symbol id="*MODEL_SPACE"/><symbol id="*PAPER_SPACE"/><symbol id="A$C0CE462CD"><path d="M 1.926274,1124.674604 L 10.658672,1124.674604 L 10.658672,1098.929686 L 1.926274,1098.929686" style="fill:none;stroke:#00004C"/><path style="fill:none;stroke:#00004C" d="M 221.767 1098.93 L 221.767 1124.67"/><path style="fill:none;stroke:#00004C" d="M 221.767 1124.67 L 230.499 1124.67"/><path d="M 221.767004,1098.929686 L 221.767004,887.821354 L 211.057058,887.821354 L 211.057058,1098.929686 L 221.767004,1098.929686 z" style="fill:none;stroke:#00004C"/><path d="M 211.057058,887.821354 A 210.887487,210.887487 0.000000 0 0 10.658672,1098.929686" style="fill:none;stroke:#00004C;stroke-dasharray:0.0161,0.0080,"/><path d="M 230.499402,1122.100112 L 232.064971,1122.100112 L 232.064971,1101.504178 L 230.499402,1101.504178 L 230.499402,1122.100112 z" style="fill:none;stroke:#00004C"/><path d="M 221.767004,1098.929686 L 230.499402,1098.929686 L 230.499402,1124.674604" style="fill:none;stroke:#00004C"/><path d="M 1.926274,1098.929686 L 1.926274,1124.674604" style="fill:none;stroke:#00004C"/><path d="M 0.360704,1122.100112 L 1.926274,1122.100112 L 1.926274,1101.504178 L 0.360704,1101.504178 L 0.360704,1122.100112 z" style="fill:none;stroke:#00004C"/></symbol><symbol id="_ARCHTICK"><path d="M 0.231972,1124.803332 L 0.489421,1124.545883" style="fill:none;stroke:#000000;stroke-linecap: round"/></symbol><symbol id="A$C33124527"><path d="M 278.336236,826.172711 L 269.986532,826.172711 L 269.986532,1098.929686 L 278.336236,1098.929686 L 278.336236,826.172711 z" style="fill:none;stroke:#00004C"/><path d="M 281.989231,1098.929686 L 278.336236,1098.929686 L 278.336236,1108.735021 L 275.205097,1108.735021 L 275.205097,1120.499753 L 275.205097,1124.674604 L 281.989231,1124.674604 L 281.989231,1098.929686 z" style="fill:none;stroke:#00004C"/><path d="M 1.926265,1098.929686 L 5.579261,1098.929686 L 5.579261,1108.735021 L 8.710399,1108.735021 L 8.710399,1120.499753 L 8.710399,1124.674604 L 1.926265,1124.674604 L 1.926265,1098.929686 z" style="fill:none;stroke:#00004C"/><path d="M 270.723957,826.162147 A 272.963334,272.963334 0.000000 0 0 5.579260,1098.936908" style="fill:none;stroke:#00004C;stroke-dasharray:0.0161,0.0080,"/><path d="M 281.989231,1122.100112 L 283.554800,1122.100112 L 283.554800,1101.504178 L 281.989231,1101.504178 L 281.989231,1122.100112 z" style="fill:none;stroke:#00004C"/><path d="M 0.360696,1122.100112 L 1.926265,1122.100112 L 1.926265,1101.504178 L 0.360696,1101.504178 L 0.360696,1122.100112 z" style="fill:none;stroke:#00004C"/></symbol></defs><g inkscape:groupmode="layer" inkscape:label="0"><use xlink:href="#A%24C33124527" style="stroke-width:0.500px" transform="translate(-0.360696, -2.15492)"/></g><g inkscape:groupmode="layer" inkscape:label="DEFPOINTS"/></svg>