<svg xmlns="http://www.w3.org/2000/svg" xmlns:svg="http://www.w3.org/2000/svg" xmlns:xlink="http://www.w3.org/1999/xlink" xmlns:sodipodi="http://sodipodi.sourceforge.net/DTD/sodipodi-0.dtd" xmlns:inkscape="http://www.inkscape.org/namespaces/inkscape" viewBox="0 0 793.7007874015749 1122.5196850393702" width="793.7007874015749" height="1122.5196850393702">
    <defs><marker id="DistanceX" orient="auto" refX="0.0" refY="0.0" style="overflow:visible"><path d="M 3,-3 L -3,3 M 0,-5 L  0,5" style="stroke:#000000; stroke-width:0.5"/></marker><pattern id="Hatch" patternUnits="userSpaceOnUse" width="8" height="8" x="0" y="0"><path d="M8 4 l-4,4" stroke="#000000" stroke-width="0.25" linecap="square"/><path d="M6 2 l-4,4" stroke="#000000" stroke-width="0.25" linecap="square"/><path d="M4 0 l-4,4" stroke="#000000" stroke-width="0.25" linecap="square"/></pattern><symbol id="*MODEL_SPACE"/><symbol id="*PAPER_SPACE"/><symbol id="A$C0CE462CD"><path d="M 3.909935,1123.940570 L 21.527598,1123.940570 L 21.527598,1072.000048 L 3.909935,1072.000048" style="fill:none;stroke:#00004C"/><path style="fill:none;stroke:#00004C" d="M 447.44 1072 L 447.44 1123.94"/><path style="fill:none;stroke:#00004C" d="M 447.44 1123.94 L 465.058 1123.94"/><path d="M 447.439876,1072.000048 L 447.439876,646.087770 L 425.832499,646.087770 L 425.832499,1072.000048 L 447.439876,1072.000048 z" style="fill:none;stroke:#00004C"/><path d="M 425.832499,646.087770 A 425.466721,425.466721 0.000000 0 0 21.527598,1072.000048" style="fill:none;stroke:#00004C;stroke-dasharray:0.0325,0.0162,"/><path d="M 465.057539,1118.746518 L 468.216085,1118.746518 L 468.216085,1077.194100 L 465.057539,1077.194100 L 465.057539,1118.746518 z" style="fill:none;stroke:#00004C"/><path d="M 447.439876,1072.000048 L 465.057539,1072.000048 L 465.057539,1123.940570" style="fill:none;stroke:#00004C"/><path d="M 3.909935,1072.000048 L 3.909935,1123.940570" style="fill:none;stroke:#00004C"/><path d="M 0.751389,1118.746518 L 3.909935,1118.746518 L 3.909935,1077.194100 L 0.751389,1077.194100 L 0.751389,1118.746518 z" style="fill:none;stroke:#00004C"/></symbol><symbol id="_ARCHTICK"><path d="M 0.491671,1124.200279 L 1.011076,1123.680874" style="fill:none;stroke:#000000;stroke-linecap: round"/></symbol><symbol id="A$C33124527"><path d="M 561.568627,521.711278 L 544.723053,521.711278 L 544.723053,1072.000048 L 561.568627,1072.000048 L 561.568627,521.711278 z" style="fill:none;stroke:#00004C"/><path d="M 568.938566,1072.000048 L 561.568627,1072.000048 L 561.568627,1091.782368 L 555.251537,1091.782368 L 555.251537,1115.517783 L 555.251537,1123.940570 L 568.938566,1123.940570 L 568.938566,1072.000048 z" style="fill:none;stroke:#00004C"/><path d="M 3.909918,1072.000048 L 11.279857,1072.000048 L 11.279857,1091.782368 L 17.596948,1091.782368 L 17.596948,1115.517783 L 17.596948,1123.940570 L 3.909918,1123.940570 L 3.909918,1072.000048 z" style="fill:none;stroke:#00004C"/><path d="M 546.210811,521.689966 A 550.705102,550.705102 0.000000 0 0 11.279855,1072.014619" style="fill:none;stroke:#00004C;stroke-dasharray:0.0325,0.0162,"/><path d="M 568.938566,1118.746518 L 572.097111,1118.746518 L 572.097111,1077.194100 L 568.938566,1077.194100 L 568.938566,1118.746518 z" style="fill:none;stroke:#00004C"/><path d="M 0.751373,1118.746518 L 3.909918,1118.746518 L 3.909918,1077.194100 L 0.751373,1077.194100 L 0.751373,1118.746518 z" style="fill:none;stroke:#00004C"/></symbol><symbol id="A$C05FB4604"><path d="M 596.663562,469.770758 A 602.645623,602.645623 0.000000 0 0 11.279845,1072.000050" style="fill:none;stroke:#00004C;stroke-dasharray:0.0325,0.0162,"/><path d="M 613.509137,469.770758 L 596.663562,469.770758 L 596.663562,1072.000050 L 613.509137,1072.000050 L 613.509137,469.770758 z" style="fill:none;stroke:#00004C"/><path d="M 620.879076,1072.000050 L 613.509137,1072.000050 L 613.509137,1091.782370 L 607.192047,1091.782370 L 607.192047,1115.517785 L 607.192047,1123.940572 L 620.879076,1123.940572 L 620.879076,1072.000050 z" style="fill:none;stroke:#00004C"/><path d="M 3.909906,1072.000050 L 11.279845,1072.000050 L 11.279845,1091.782370 L 17.596936,1091.782370 L 17.596936,1115.517785 L 17.596936,1123.940572 L 3.909906,1123.940572 L 3.909906,1072.000050 z" style="fill:none;stroke:#00004C"/><path d="M 620.879076,1118.746520 L 624.037621,1118.746520 L 624.037621,1077.194102 L 620.879076,1077.194102 L 620.879076,1118.746520 z" style="fill:none;stroke:#00004C"/><path d="M 0.751361,1118.746520 L 3.909906,1118.746520 L 3.909906,1077.194103 L 0.751361,1077.194103 L 0.751361,1118.746520 z" style="fill:none;stroke:#00004C"/></symbol></defs><g inkscape:groupmode="layer" inkscape:label="0"><use xlink:href="#A%24C05FB4604" style="stroke-width:0.500px" transform="translate(-0.751361, -1.42089)"/></g><g inkscape:groupmode="layer" inkscape:label="DEFPOINTS"/></svg>