<svg xmlns="http://www.w3.org/2000/svg" xmlns:svg="http://www.w3.org/2000/svg" xmlns:xlink="http://www.w3.org/1999/xlink" xmlns:sodipodi="http://sodipodi.sourceforge.net/DTD/sodipodi-0.dtd" xmlns:inkscape="http://www.inkscape.org/namespaces/inkscape" viewBox="0 0 793.7007874015749 1122.5196850393702" width="793.7007874015749" height="1122.5196850393702">
    <defs><marker id="DistanceX" orient="auto" refX="0.0" refY="0.0" style="overflow:visible"><path d="M 3,-3 L -3,3 M 0,-5 L  0,5" style="stroke:#000000; stroke-width:0.5"/></marker><pattern id="Hatch" patternUnits="userSpaceOnUse" width="8" height="8" x="0" y="0"><path d="M8 4 l-4,4" stroke="#000000" stroke-width="0.25" linecap="square"/><path d="M6 2 l-4,4" stroke="#000000" stroke-width="0.25" linecap="square"/><path d="M4 0 l-4,4" stroke="#000000" stroke-width="0.25" linecap="square"/></pattern><symbol id="*MODEL_SPACE"/><symbol id="*PAPER_SPACE"/><symbol id="A$C0CE462CD"><path d="M 4.155526,1122.577366 L 26.590086,1122.577366 L 26.590086,1056.435634 L 4.155526,1056.435634" style="fill:none;stroke:#00004C"/><path style="fill:none;stroke:#00004C" d="M 568.952 1056.44 L 568.952 1122.58"/><path style="fill:none;stroke:#00004C" d="M 568.952 1122.58 L 591.387 1122.58"/><path d="M 568.952291,1056.435634 L 568.952291,514.073429 L 541.437178,514.073429 L 541.437178,1056.435634 L 568.952291,1056.435634 z" style="fill:none;stroke:#00004C"/><path d="M 541.437178,514.073429 A 541.794827,541.794827 0.000000 0 0 26.590086,1056.435634" style="fill:none;stroke:#00004C;stroke-dasharray:0.0413,0.0207,"/><path d="M 591.386851,1115.963193 L 595.408984,1115.963193 L 595.408984,1063.049807 L 591.386851,1063.049807 L 591.386851,1115.963193 z" style="fill:none;stroke:#00004C"/><path d="M 568.952291,1056.435634 L 591.386851,1056.435634 L 591.386851,1122.577366" style="fill:none;stroke:#00004C"/><path d="M 4.155526,1056.435634 L 4.155526,1122.577366" style="fill:none;stroke:#00004C"/><path d="M 0.133393,1115.963193 L 4.155526,1115.963193 L 4.155526,1063.049807 L 0.133393,1063.049807 L 0.133393,1115.963193 z" style="fill:none;stroke:#00004C"/></symbol><symbol id="_ARCHTICK"><path d="M -0.197336,1122.908083 L 0.464082,1122.246666" style="fill:none;stroke:#000000;stroke-linecap: round"/></symbol><symbol id="A$C33124527"><path d="M 714.285320,355.690795 L 692.833947,355.690795 L 692.833947,1056.435634 L 714.285320,1056.435634 L 714.285320,355.690795 z" style="fill:none;stroke:#00004C"/><path d="M 723.670295,1056.435634 L 714.285320,1056.435634 L 714.285320,1081.626696 L 706.241055,1081.626696 L 706.241055,1111.851680 L 706.241055,1122.577366 L 723.670295,1122.577366 L 723.670295,1056.435634 z" style="fill:none;stroke:#00004C"/><path d="M 4.155505,1056.435634 L 13.540480,1056.435634 L 13.540480,1081.626696 L 21.584745,1081.626696 L 21.584745,1111.851680 L 21.584745,1122.577366 L 4.155505,1122.577366 L 4.155505,1056.435634 z" style="fill:none;stroke:#00004C"/><path d="M 694.728478,355.663656 A 701.275001,701.275001 0.000000 0 0 13.540478,1056.454189" style="fill:none;stroke:#00004C;stroke-dasharray:0.0413,0.0207,"/><path d="M 723.670295,1115.963193 L 727.692427,1115.963193 L 727.692427,1063.049807 L 723.670295,1063.049807 L 723.670295,1115.963193 z" style="fill:none;stroke:#00004C"/><path d="M 0.133372,1115.963193 L 4.155505,1115.963193 L 4.155505,1063.049807 L 0.133372,1063.049807 L 0.133372,1115.963193 z" style="fill:none;stroke:#00004C"/></symbol><symbol id="A$C05FB4604"><path d="M 758.975664,289.549065 A 767.416733,767.416733 0.000000 0 0 13.540465,1056.435637" style="fill:none;stroke:#00004C;stroke-dasharray:0.0413,0.0207,"/><path d="M 780.427037,289.549065 L 758.975664,289.549065 L 758.975664,1056.435637 L 780.427037,1056.435637 L 780.427037,289.549065 z" style="fill:none;stroke:#00004C"/><path d="M 789.812012,1056.435637 L 780.427037,1056.435637 L 780.427037,1081.626699 L 772.382772,1081.626699 L 772.382772,1111.851683 L 772.382772,1122.577369 L 789.812012,1122.577369 L 789.812012,1056.435637 z" style="fill:none;stroke:#00004C"/><path d="M 4.155489,1056.435637 L 13.540465,1056.435637 L 13.540465,1081.626699 L 21.584730,1081.626699 L 21.584730,1111.851683 L 21.584730,1122.577369 L 4.155490,1122.577369 L 4.155489,1056.435637 z" style="fill:none;stroke:#00004C"/><path d="M 789.812012,1115.963196 L 793.834145,1115.963196 L 793.834145,1063.049810 L 789.812012,1063.049810 L 789.812012,1115.963196 z" style="fill:none;stroke:#00004C"/><path d="M 0.133357,1115.963196 L 4.155490,1115.963196 L 4.155490,1063.049810 L 0.133357,1063.049810 L 0.133357,1115.963196 z" style="fill:none;stroke:#00004C"/></symbol><symbol id="A$C5D256BD7"><path d="M 39.997138,674.085931 L 39.997139,1056.435637 L 13.540446,1056.435637 L 13.540445,674.085931 L 39.997138,674.085931 z" style="fill:none;stroke:#00004C"/><path d="M 4.155471,1056.435637 L 13.540446,1056.435637 L 13.540446,1082.892330 L 21.584711,1082.892330 L 21.584711,1111.851683 L 21.584711,1122.577369 L 4.155471,1122.577369 L 4.155471,1056.435637 z" style="fill:none;stroke:#00004C"/><path d="M 396.984828,1056.731652 A 383.110500,383.110500 0.000000 0 0 39.997138,674.085931" style="fill:none;stroke:#00004C;stroke-dasharray:0.0413,0.0207,"/><path d="M 753.970326,674.085931 L 753.970325,1056.435637 L 780.427018,1056.435637 L 780.427019,674.085931 L 753.970326,674.085931 z" style="fill:none;stroke:#00004C"/><path d="M 789.811993,1056.435637 L 780.427018,1056.435637 L 780.427018,1082.892330 L 772.382753,1082.892330 L 772.382753,1111.851683 L 772.382753,1122.577369 L 789.811993,1122.577369 L 789.811993,1056.435637 z" style="fill:none;stroke:#00004C"/><path d="M 753.970326,674.085931 A 383.110500,383.110500 0.000000 0 0 396.982636,1056.731652" style="fill:none;stroke:#00004C;stroke-dasharray:0.0413,0.0207,"/><path d="M 789.811993,1115.963196 L 793.834126,1115.963196 L 793.834126,1063.049810 L 789.811993,1063.049810 L 789.811993,1115.963196 z" style="fill:none;stroke:#00004C"/><path d="M 4.155471,1115.963196 L 0.133338,1115.963196 L 0.133338,1063.049810 L 4.155471,1063.049810 L 4.155471,1115.963196 z" style="fill:none;stroke:#00004C"/></symbol></defs><g inkscape:groupmode="layer" inkscape:label="0"><use xlink:href="#A%24C5D256BD7" style="stroke-width:0.500px" transform="translate(-0.133338, -0.0576841)"/></g><g inkscape:groupmode="layer" inkscape:label="DEFPOINTS"/></svg>