<svg xmlns="http://www.w3.org/2000/svg" xmlns:svg="http://www.w3.org/2000/svg" xmlns:xlink="http://www.w3.org/1999/xlink" xmlns:sodipodi="http://sodipodi.sourceforge.net/DTD/sodipodi-0.dtd" xmlns:inkscape="http://www.inkscape.org/namespaces/inkscape" viewBox="0 0 793.7007874015749 1122.5196850393702" width="793.7007874015749" height="1122.5196850393702">
    <defs><marker id="DistanceX" orient="auto" refX="0.0" refY="0.0" style="overflow:visible"><path d="M 3,-3 L -3,3 M 0,-5 L  0,5" style="stroke:#000000; stroke-width:0.5"/></marker><pattern id="Hatch" patternUnits="userSpaceOnUse" width="8" height="8" x="0" y="0"><path d="M8 4 l-4,4" stroke="#000000" stroke-width="0.25" linecap="square"/><path d="M6 2 l-4,4" stroke="#000000" stroke-width="0.25" linecap="square"/><path d="M4 0 l-4,4" stroke="#000000" stroke-width="0.25" linecap="square"/></pattern><symbol id="*MODEL_SPACE"/><symbol id="*PAPER_SPACE"/><symbol id="A$C0CE462CD"><path d="M 2.287649,1121.818614 L 20.235297,1121.818614 L 20.235297,1068.905228 L 2.287649,1068.905228" style="fill:none;stroke:#00004C"/><path style="fill:none;stroke:#00004C" d="M 454.125 1068.91 L 454.125 1121.82"/><path style="fill:none;stroke:#00004C" d="M 454.125 1121.82 L 472.073 1121.82"/><path d="M 454.125061,1068.905228 L 454.125061,635.015464 L 432.112970,635.015464 L 432.112970,1068.905228 L 454.125061,1068.905228 z" style="fill:none;stroke:#00004C"/><path d="M 432.112970,635.015464 A 433.435861,433.435861 0.000000 0 0 20.235297,1068.905228" style="fill:none;stroke:#00004C;stroke-dasharray:0.0331,0.0165,"/><path d="M 472.072709,1116.527275 L 475.290415,1116.527275 L 475.290415,1074.196567 L 472.072709,1074.196567 L 472.072709,1116.527275 z" style="fill:none;stroke:#00004C"/><path d="M 454.125061,1068.905228 L 472.072709,1068.905228 L 472.072709,1121.818614" style="fill:none;stroke:#00004C"/><path d="M 2.287649,1068.905228 L 2.287649,1121.818614" style="fill:none;stroke:#00004C"/><path d="M -0.930057,1116.527275 L 2.287649,1116.527275 L 2.287649,1074.196567 L -0.930057,1074.196567 L -0.930057,1116.527275 z" style="fill:none;stroke:#00004C"/></symbol><symbol id="_ARCHTICK"><path d="M -1.194640,1122.083187 L -0.665507,1121.554053" style="fill:none;stroke:#000000;stroke-linecap: round"/></symbol><symbol id="A$C33124527"><path d="M 570.391484,508.309357 L 553.230385,508.309357 L 553.230385,1068.905228 L 570.391484,1068.905228 L 570.391484,508.309357 z" style="fill:none;stroke:#00004C"/><path d="M 577.899464,1068.905228 L 570.391484,1068.905228 L 570.391484,1089.058077 L 563.956072,1089.058077 L 563.956072,1113.238065 L 563.956072,1121.818614 L 577.899464,1121.818614 L 577.899464,1068.905228 z" style="fill:none;stroke:#00004C"/><path d="M 2.287632,1068.905228 L 9.795612,1068.905228 L 9.795612,1089.058077 L 16.231024,1089.058077 L 16.231024,1113.238065 L 16.231024,1121.818614 L 2.287632,1121.818614 L 2.287632,1068.905228 z" style="fill:none;stroke:#00004C"/><path d="M 554.746010,508.287646 A 561.020001,561.020001 0.000000 0 0 9.795610,1068.920072" style="fill:none;stroke:#00004C;stroke-dasharray:0.0331,0.0165,"/><path d="M 577.899464,1116.527275 L 581.117170,1116.527275 L 581.117170,1074.196567 L 577.899464,1074.196567 L 577.899464,1116.527275 z" style="fill:none;stroke:#00004C"/><path d="M -0.930074,1116.527275 L 2.287632,1116.527275 L 2.287632,1074.196567 L -0.930074,1074.196567 L -0.930074,1116.527275 z" style="fill:none;stroke:#00004C"/></symbol><symbol id="A$C05FB4604"><path d="M 606.143759,455.395973 A 613.933387,613.933387 0.000000 0 0 9.795600,1068.905230" style="fill:none;stroke:#00004C;stroke-dasharray:0.0331,0.0165,"/><path d="M 623.304857,455.395973 L 606.143759,455.395973 L 606.143759,1068.905230 L 623.304857,1068.905230 L 623.304857,455.395973 z" style="fill:none;stroke:#00004C"/><path d="M 630.812838,1068.905230 L 623.304857,1068.905230 L 623.304857,1089.058080 L 616.869445,1089.058080 L 616.869445,1113.238067 L 616.869445,1121.818616 L 630.812838,1121.818616 L 630.812838,1068.905230 z" style="fill:none;stroke:#00004C"/><path d="M 2.287620,1068.905230 L 9.795600,1068.905230 L 9.795600,1089.058080 L 16.231012,1089.058080 L 16.231012,1113.238067 L 16.231012,1121.818616 L 2.287620,1121.818616 L 2.287620,1068.905230 z" style="fill:none;stroke:#00004C"/><path d="M 630.812838,1116.527277 L 634.030544,1116.527277 L 634.030544,1074.196569 L 630.812838,1074.196569 L 630.812838,1116.527277 z" style="fill:none;stroke:#00004C"/><path d="M -0.930086,1116.527277 L 2.287620,1116.527277 L 2.287620,1074.196569 L -0.930086,1074.196569 L -0.930086,1116.527277 z" style="fill:none;stroke:#00004C"/></symbol><symbol id="A$C5D256BD7"><path d="M 30.960939,763.025466 L 30.960939,1068.905230 L 9.795585,1068.905230 L 9.795584,763.025466 L 30.960939,763.025466 z" style="fill:none;stroke:#00004C"/><path d="M 2.287605,1068.905230 L 9.795585,1068.905230 L 9.795585,1090.070584 L 16.230997,1090.070584 L 16.230997,1113.238067 L 16.230997,1121.818616 L 2.287605,1121.818616 L 2.287605,1068.905230 z" style="fill:none;stroke:#00004C"/><path d="M 316.551090,1069.142042 A 306.488400,306.488400 0.000000 0 0 30.960939,763.025466" style="fill:none;stroke:#00004C;stroke-dasharray:0.0331,0.0165,"/><path d="M 602.139489,763.025466 L 602.139488,1068.905230 L 623.304842,1068.905230 L 623.304843,763.025466 L 602.139489,763.025466 z" style="fill:none;stroke:#00004C"/><path d="M 630.812823,1068.905230 L 623.304842,1068.905230 L 623.304842,1090.070584 L 616.869431,1090.070584 L 616.869431,1113.238067 L 616.869431,1121.818616 L 630.812823,1121.818616 L 630.812823,1068.905230 z" style="fill:none;stroke:#00004C"/><path d="M 602.139489,763.025466 A 306.488400,306.488400 0.000000 0 0 316.549337,1069.142042" style="fill:none;stroke:#00004C;stroke-dasharray:0.0331,0.0165,"/><path d="M 630.812823,1116.527277 L 634.030529,1116.527277 L 634.030529,1074.196569 L 630.812823,1074.196569 L 630.812823,1116.527277 z" style="fill:none;stroke:#00004C"/><path d="M 2.287605,1116.527277 L -0.930101,1116.527277 L -0.930101,1074.196569 L 2.287605,1074.196569 L 2.287605,1116.527277 z" style="fill:none;stroke:#00004C"/></symbol><symbol id="A$C0A95752C"><path d="M 753.085672,703.802879 A 356.132046,356.132046 0.000000 0 0 395.610523,1068.905241" style="fill:none;stroke:#00004C"/><path style="fill:none;stroke:#00004C" d="M 22.8809 746.134 L 22.8809 1026.57"/><path style="fill:none;stroke:#00004C" d="M 33.4636 1026.57 L 33.4636 746.134"/><path d="M 396.220895,1066.805172 A 359.158669,337.894500 9.996789 0 0 36.737176,703.374752" style="fill:none;stroke:#00004C"/><path style="fill:none;stroke:#00004C" d="M 38.755 1026.57 L 38.755 746.134"/><path style="fill:none;stroke:#00004C" d="M 17.5896 746.134 L 17.5896 1026.57"/><path style="fill:none;stroke:#00004C" d="M 33.4636 746.134 L 22.8809 746.134"/><path style="fill:none;stroke:#00004C" d="M 38.755 746.134 L 17.5896 746.134"/><path style="fill:none;stroke:#00004C" d="M 38.755 703.803 L 38.755 746.134"/><path style="fill:none;stroke:#00004C" d="M 38.755 746.134 L 17.5896 746.134"/><path style="fill:none;stroke:#00004C" d="M 17.5896 746.134 L 17.5896 703.803"/><path style="fill:none;stroke:#00004C" d="M 17.5896 1068.91 L 38.755 1068.91"/><path style="fill:none;stroke:#00004C" d="M 17.5896 1026.57 L 17.5896 1068.91"/><path style="fill:none;stroke:#00004C" d="M 38.755 1026.57 L 17.5896 1026.57"/><path style="fill:none;stroke:#00004C" d="M 38.755 1068.91 L 38.755 1026.57"/><path style="fill:none;stroke:#00004C" d="M 17.5896 1026.57 L 38.755 1026.57"/><path style="fill:none;stroke:#00004C" d="M 22.8809 1026.57 L 33.4636 1026.57"/><path style="fill:none;stroke:#00004C" d="M 17.5896 1090.07 L 17.5896 1068.91"/><path style="fill:none;stroke:#00004C" d="M 25.5266 1090.07 L 17.5896 1090.07"/><path style="fill:none;stroke:#00004C" d="M 25.5266 1095.36 L 25.5266 1090.07"/><path style="fill:none;stroke:#00004C" d="M 25.5266 1121.82 L 25.5266 1095.36"/><path style="fill:none;stroke:#00004C" d="M -0.930076 1121.82 L 25.5266 1121.82"/><path style="fill:none;stroke:#00004C" d="M -0.930076 1068.91 L -0.930076 1121.82"/><path style="fill:none;stroke:#00004C" d="M 17.5896 1068.91 L -0.930076 1068.91"/><path style="fill:none;stroke:#00004C" d="M 17.5896 703.803 L 38.755 703.803"/><path style="fill:none;stroke:#00004C" d="M 758.377 1026.57 L 758.377 746.134"/><path style="fill:none;stroke:#00004C" d="M 758.377 746.134 L 768.96 746.134"/><path style="fill:none;stroke:#00004C" d="M 768.96 746.134 L 768.96 1026.57"/><path style="fill:none;stroke:#00004C" d="M 768.96 1026.57 L 758.377 1026.57"/><path style="fill:none;stroke:#00004C" d="M 753.086 703.803 L 753.086 746.134"/><path style="fill:none;stroke:#00004C" d="M 753.086 746.134 L 774.251 746.134"/><path style="fill:none;stroke:#00004C" d="M 774.251 746.134 L 774.251 703.803"/><path style="fill:none;stroke:#00004C" d="M 774.251 703.803 L 753.086 703.803"/><path style="fill:none;stroke:#00004C" d="M 753.086 1026.57 L 753.086 746.134"/><path style="fill:none;stroke:#00004C" d="M 753.086 746.134 L 774.251 746.134"/><path style="fill:none;stroke:#00004C" d="M 774.251 746.134 L 774.251 1026.57"/><path style="fill:none;stroke:#00004C" d="M 774.251 1026.57 L 753.086 1026.57"/><path style="fill:none;stroke:#00004C" d="M 753.086 1068.91 L 753.086 1026.57"/><path style="fill:none;stroke:#00004C" d="M 753.086 1026.57 L 774.251 1026.57"/><path style="fill:none;stroke:#00004C" d="M 774.251 1026.57 L 774.251 1068.91"/><path style="fill:none;stroke:#00004C" d="M 774.251 1068.91 L 753.086 1068.91"/><path style="fill:none;stroke:#00004C" d="M 774.251 1068.91 L 792.771 1068.91"/><path style="fill:none;stroke:#00004C" d="M 792.771 1068.91 L 792.771 1121.82"/><path style="fill:none;stroke:#00004C" d="M 792.771 1121.82 L 766.314 1121.82"/><path style="fill:none;stroke:#00004C" d="M 766.314 1121.82 L 766.314 1095.36"/><path style="fill:none;stroke:#00004C" d="M 766.314 1095.36 L 766.314 1090.07"/><path style="fill:none;stroke:#00004C" d="M 766.314 1090.07 L 774.251 1090.07"/><path style="fill:none;stroke:#00004C" d="M 774.251 1090.07 L 774.251 1068.91"/></symbol></defs><g inkscape:groupmode="layer" inkscape:label="0"><use xlink:href="#A%24C0A95752C" style="stroke-width:0.500px" transform="translate(0.930076, 0.701058)"/></g><g inkscape:groupmode="layer" inkscape:label="DEFPOINTS"/></svg>