<svg xmlns="http://www.w3.org/2000/svg" xmlns:svg="http://www.w3.org/2000/svg" xmlns:xlink="http://www.w3.org/1999/xlink" xmlns:sodipodi="http://sodipodi.sourceforge.net/DTD/sodipodi-0.dtd" xmlns:inkscape="http://www.inkscape.org/namespaces/inkscape" viewBox="0 0 793.7007874015749 1122.5196850393702" width="793.7007874015749" height="1122.5196850393702">
    <defs><marker id="DistanceX" orient="auto" refX="0.0" refY="0.0" style="overflow:visible"><path d="M 3,-3 L -3,3 M 0,-5 L  0,5" style="stroke:#000000; stroke-width:0.5"/></marker><pattern id="Hatch" patternUnits="userSpaceOnUse" width="8" height="8" x="0" y="0"><path d="M8 4 l-4,4" stroke="#000000" stroke-width="0.25" linecap="square"/><path d="M6 2 l-4,4" stroke="#000000" stroke-width="0.25" linecap="square"/><path d="M4 0 l-4,4" stroke="#000000" stroke-width="0.25" linecap="square"/></pattern><symbol id="*MODEL_SPACE"/><symbol id="*PAPER_SPACE"/><symbol id="A$C0CE462CD"><path d="M 2.075098,1122.485109 L 17.031472,1122.485109 L 17.031472,1078.390621 L 2.075098,1078.390621" style="fill:none;stroke:#00004C"/><path style="fill:none;stroke:#00004C" d="M 378.606 1078.39 L 378.606 1122.49"/><path style="fill:none;stroke:#00004C" d="M 378.606 1122.49 L 393.563 1122.49"/><path d="M 378.606275,1078.390621 L 378.606275,716.815817 L 360.262866,716.815817 L 360.262866,1078.390621 L 378.606275,1078.390621 z" style="fill:none;stroke:#00004C"/><path d="M 360.262866,716.815817 A 361.196551,361.196551 0.000000 0 0 17.031472,1078.390621" style="fill:none;stroke:#00004C;stroke-dasharray:0.0276,0.0138,"/><path d="M 393.562649,1118.075660 L 396.244070,1118.075660 L 396.244070,1082.800069 L 393.562649,1082.800069 L 393.562649,1118.075660 z" style="fill:none;stroke:#00004C"/><path d="M 378.606275,1078.390621 L 393.562649,1078.390621 L 393.562649,1122.485109" style="fill:none;stroke:#00004C"/><path d="M 2.075098,1078.390621 L 2.075098,1122.485109" style="fill:none;stroke:#00004C"/><path d="M -0.606324,1118.075660 L 2.075098,1118.075660 L 2.075098,1082.800069 L -0.606324,1082.800069 L -0.606324,1118.075660 z" style="fill:none;stroke:#00004C"/></symbol><symbol id="_ARCHTICK"><path d="M -0.826809,1122.705587 L -0.385865,1122.264642" style="fill:none;stroke:#000000;stroke-linecap: round"/></symbol><symbol id="A$C33124527"><path d="M 475.494961,611.227394 L 461.194045,611.227394 L 461.194045,1078.390621 L 475.494961,1078.390621 L 475.494961,611.227394 z" style="fill:none;stroke:#00004C"/><path d="M 481.751611,1078.390621 L 475.494961,1078.390621 L 475.494961,1095.184662 L 470.132117,1095.184662 L 470.132117,1115.334651 L 470.132117,1122.485109 L 481.751611,1122.485109 L 481.751611,1078.390621 z" style="fill:none;stroke:#00004C"/><path d="M 2.075084,1078.390621 L 8.331734,1078.390621 L 8.331734,1095.184662 L 13.694578,1095.184662 L 13.694578,1115.334651 L 13.694578,1122.485109 L 2.075084,1122.485109 L 2.075084,1078.390621 z" style="fill:none;stroke:#00004C"/><path d="M 462.457066,611.209302 A 467.516667,467.516667 0.000000 0 0 8.331733,1078.402990" style="fill:none;stroke:#00004C;stroke-dasharray:0.0276,0.0138,"/><path d="M 481.751611,1118.075660 L 484.433033,1118.075660 L 484.433033,1082.800069 L 481.751611,1082.800069 L 481.751611,1118.075660 z" style="fill:none;stroke:#00004C"/><path d="M -0.606338,1118.075660 L 2.075084,1118.075660 L 2.075084,1082.800069 L -0.606338,1082.800069 L -0.606338,1118.075660 z" style="fill:none;stroke:#00004C"/></symbol><symbol id="A$C05FB4604"><path d="M 505.288524,567.132908 A 511.611156,511.611156 0.000000 0 0 8.331724,1078.390622" style="fill:none;stroke:#00004C;stroke-dasharray:0.0276,0.0138,"/><path d="M 519.589439,567.132908 L 505.288524,567.132908 L 505.288524,1078.390622 L 519.589439,1078.390622 L 519.589439,567.132908 z" style="fill:none;stroke:#00004C"/><path d="M 525.846089,1078.390622 L 519.589439,1078.390622 L 519.589439,1095.184664 L 514.226595,1095.184664 L 514.226595,1115.334653 L 514.226595,1122.485111 L 525.846089,1122.485111 L 525.846089,1078.390622 z" style="fill:none;stroke:#00004C"/><path d="M 2.075074,1078.390622 L 8.331724,1078.390622 L 8.331724,1095.184664 L 13.694567,1095.184664 L 13.694567,1115.334653 L 13.694567,1122.485111 L 2.075074,1122.485111 L 2.075074,1078.390622 z" style="fill:none;stroke:#00004C"/><path d="M 525.846089,1118.075662 L 528.527511,1118.075662 L 528.527511,1082.800071 L 525.846089,1082.800071 L 525.846089,1118.075662 z" style="fill:none;stroke:#00004C"/><path d="M -0.606348,1118.075662 L 2.075074,1118.075662 L 2.075074,1082.800071 L -0.606348,1082.800071 L -0.606348,1118.075662 z" style="fill:none;stroke:#00004C"/></symbol><symbol id="A$C5D256BD7"><path d="M 25.969506,823.490819 L 25.969507,1078.390622 L 8.331712,1078.390622 L 8.331711,823.490819 L 25.969506,823.490819 z" style="fill:none;stroke:#00004C"/><path d="M 2.075061,1078.390622 L 8.331712,1078.390622 L 8.331712,1096.028418 L 13.694555,1096.028418 L 13.694555,1115.334653 L 13.694555,1122.485111 L 2.075061,1122.485111 L 2.075061,1078.390622 z" style="fill:none;stroke:#00004C"/><path d="M 263.961300,1078.587966 A 255.407000,255.407000 0.000000 0 0 25.969506,823.490819" style="fill:none;stroke:#00004C;stroke-dasharray:0.0276,0.0138,"/><path d="M 501.951631,823.490819 L 501.951631,1078.390622 L 519.589426,1078.390622 L 519.589427,823.490819 L 501.951631,823.490819 z" style="fill:none;stroke:#00004C"/><path d="M 525.846077,1078.390622 L 519.589426,1078.390622 L 519.589426,1096.028418 L 514.226583,1096.028418 L 514.226583,1115.334653 L 514.226583,1122.485111 L 525.846077,1122.485111 L 525.846077,1078.390622 z" style="fill:none;stroke:#00004C"/><path d="M 501.951631,823.490819 A 255.407000,255.407000 0.000000 0 0 263.959838,1078.587966" style="fill:none;stroke:#00004C;stroke-dasharray:0.0276,0.0138,"/><path d="M 525.846077,1118.075662 L 528.527498,1118.075662 L 528.527498,1082.800071 L 525.846077,1082.800071 L 525.846077,1118.075662 z" style="fill:none;stroke:#00004C"/><path d="M 2.075061,1118.075662 L -0.606360,1118.075662 L -0.606360,1082.800071 L 2.075061,1082.800071 L 2.075061,1118.075662 z" style="fill:none;stroke:#00004C"/></symbol><symbol id="A$C0A95752C"><path d="M 627.740118,774.138663 A 296.776705,296.776705 0.000000 0 0 329.844160,1078.390632" style="fill:none;stroke:#00004C"/><path style="fill:none;stroke:#00004C" d="M 19.2362 809.414 L 19.2362 1043.12"/><path style="fill:none;stroke:#00004C" d="M 28.0551 1043.12 L 28.0551 809.414"/><path d="M 330.596303,1078.197866 A 299.654144,281.912969 10.290812 0 0 32.230920,773.444588" style="fill:none;stroke:#00004C"/><path style="fill:none;stroke:#00004C" d="M 32.4645 1043.12 L 32.4645 809.414"/><path style="fill:none;stroke:#00004C" d="M 14.8267 809.414 L 14.8267 1043.12"/><path style="fill:none;stroke:#00004C" d="M 28.0551 809.414 L 19.2362 809.414"/><path style="fill:none;stroke:#00004C" d="M 32.4645 809.414 L 14.8267 809.414"/><path style="fill:none;stroke:#00004C" d="M 32.4645 774.139 L 32.4645 809.414"/><path style="fill:none;stroke:#00004C" d="M 32.4645 809.414 L 14.8267 809.414"/><path style="fill:none;stroke:#00004C" d="M 14.8267 809.414 L 14.8267 774.139"/><path style="fill:none;stroke:#00004C" d="M 14.8267 1078.39 L 32.4645 1078.39"/><path style="fill:none;stroke:#00004C" d="M 14.8267 1043.12 L 14.8267 1078.39"/><path style="fill:none;stroke:#00004C" d="M 32.4645 1043.12 L 14.8267 1043.12"/><path style="fill:none;stroke:#00004C" d="M 32.4645 1078.39 L 32.4645 1043.12"/><path style="fill:none;stroke:#00004C" d="M 14.8267 1043.12 L 32.4645 1043.12"/><path style="fill:none;stroke:#00004C" d="M 19.2362 1043.12 L 28.0551 1043.12"/><path style="fill:none;stroke:#00004C" d="M 14.8267 1096.03 L 14.8267 1078.39"/><path style="fill:none;stroke:#00004C" d="M 21.4409 1096.03 L 14.8267 1096.03"/><path style="fill:none;stroke:#00004C" d="M 21.4409 1100.44 L 21.4409 1096.03"/><path style="fill:none;stroke:#00004C" d="M 21.4409 1122.49 L 21.4409 1100.44"/><path style="fill:none;stroke:#00004C" d="M -0.606339 1122.49 L 21.4409 1122.49"/><path style="fill:none;stroke:#00004C" d="M -0.606339 1078.39 L -0.606339 1122.49"/><path style="fill:none;stroke:#00004C" d="M 14.8267 1078.39 L -0.606339 1078.39"/><path style="fill:none;stroke:#00004C" d="M 14.8267 774.139 L 32.4645 774.139"/><path style="fill:none;stroke:#00004C" d="M 632.15 1043.12 L 632.15 809.414"/><path style="fill:none;stroke:#00004C" d="M 632.15 809.414 L 640.968 809.414"/><path style="fill:none;stroke:#00004C" d="M 640.968 809.414 L 640.968 1043.12"/><path style="fill:none;stroke:#00004C" d="M 640.968 1043.12 L 632.15 1043.12"/><path style="fill:none;stroke:#00004C" d="M 627.74 774.139 L 627.74 809.414"/><path style="fill:none;stroke:#00004C" d="M 627.74 809.414 L 645.378 809.414"/><path style="fill:none;stroke:#00004C" d="M 645.378 809.414 L 645.378 774.139"/><path style="fill:none;stroke:#00004C" d="M 645.378 774.139 L 627.74 774.139"/><path style="fill:none;stroke:#00004C" d="M 627.74 1043.12 L 627.74 809.414"/><path style="fill:none;stroke:#00004C" d="M 627.74 809.414 L 645.378 809.414"/><path style="fill:none;stroke:#00004C" d="M 645.378 809.414 L 645.378 1043.12"/><path style="fill:none;stroke:#00004C" d="M 645.378 1043.12 L 627.74 1043.12"/><path style="fill:none;stroke:#00004C" d="M 627.74 1078.39 L 627.74 1043.12"/><path style="fill:none;stroke:#00004C" d="M 627.74 1043.12 L 645.378 1043.12"/><path style="fill:none;stroke:#00004C" d="M 645.378 1043.12 L 645.378 1078.39"/><path style="fill:none;stroke:#00004C" d="M 645.378 1078.39 L 627.74 1078.39"/><path style="fill:none;stroke:#00004C" d="M 645.378 1078.39 L 660.811 1078.39"/><path style="fill:none;stroke:#00004C" d="M 660.811 1078.39 L 660.811 1122.49"/><path style="fill:none;stroke:#00004C" d="M 660.811 1122.49 L 638.764 1122.49"/><path style="fill:none;stroke:#00004C" d="M 638.764 1122.49 L 638.764 1100.44"/><path style="fill:none;stroke:#00004C" d="M 638.764 1100.44 L 638.764 1096.03"/><path style="fill:none;stroke:#00004C" d="M 638.764 1096.03 L 645.378 1096.03"/><path style="fill:none;stroke:#00004C" d="M 645.378 1096.03 L 645.378 1078.39"/></symbol><symbol id="A$C3628088D"><path d="M 760.023601,725.634726 A 378.537318,378.537318 0.000000 0 0 396.244074,1078.390632" style="fill:none;stroke:#00004C"/><path style="fill:none;stroke:#00004C" d="M 28.0551 1043.12 L 28.0551 760.91"/><path style="fill:none;stroke:#00004C" d="M 19.2362 760.91 L 19.2362 1043.12"/><path style="fill:none;stroke:#00004C" d="M 32.4645 725.635 L 32.4645 760.91"/><path style="fill:none;stroke:#00004C" d="M 32.4645 760.91 L 14.8268 760.91"/><path style="fill:none;stroke:#00004C" d="M 14.8268 760.91 L 14.8268 725.635"/><path style="fill:none;stroke:#00004C" d="M 14.8268 725.635 L 32.4645 725.635"/><path style="fill:none;stroke:#00004C" d="M 14.8268 1078.39 L -0.60632 1078.39"/><path style="fill:none;stroke:#00004C" d="M -0.60632 1078.39 L -0.60632 1122.49"/><path style="fill:none;stroke:#00004C" d="M -0.60632 1122.49 L 21.4409 1122.49"/><path style="fill:none;stroke:#00004C" d="M 21.4409 1122.49 L 21.4409 1100.44"/><path style="fill:none;stroke:#00004C" d="M 21.4409 1100.44 L 21.4409 1096.03"/><path style="fill:none;stroke:#00004C" d="M 21.4409 1096.03 L 14.8268 1096.03"/><path style="fill:none;stroke:#00004C" d="M 14.8268 1096.03 L 14.8268 1078.39"/><path style="fill:none;stroke:#00004C" d="M 32.4645 1078.39 L 32.4645 1043.12"/><path style="fill:none;stroke:#00004C" d="M 14.8268 1043.12 L 14.8268 1078.39"/><path style="fill:none;stroke:#00004C" d="M 14.8268 1078.39 L 32.4645 1078.39"/><path style="fill:none;stroke:#00004C" d="M 32.4645 760.91 L 14.8268 760.91"/><path style="fill:none;stroke:#00004C" d="M 28.0551 760.91 L 19.2362 760.91"/><path style="fill:none;stroke:#00004C" d="M 32.4645 1043.12 L 14.8268 1043.12"/><path style="fill:none;stroke:#00004C" d="M 14.8268 1043.12 L 32.4645 1043.12"/><path style="fill:none;stroke:#00004C" d="M 19.2362 1043.12 L 28.0551 1043.12"/><path style="fill:none;stroke:#00004C" d="M 32.4645 1043.12 L 32.4645 760.91"/><path style="fill:none;stroke:#00004C" d="M 14.8268 760.91 L 14.8268 1043.12"/><path d="M 395.583434,1078.785630 A 368.790874,346.973358 -157.077083 0 0 32.842721,726.267609" style="fill:none;stroke:#00004C"/><path d="M 764.433050,1043.115041 L 764.433050,760.910317 L 773.251948,760.910317 L 773.251948,1043.115041 L 764.433050,1043.115041 z" style="fill:none;stroke:#00004C"/><path d="M 760.023601,725.634726 L 760.023601,760.910317 L 777.661397,760.910317 L 777.661397,725.634726 L 760.023601,725.634726 z" style="fill:none;stroke:#00004C"/><path d="M 777.661397,1078.390632 L 793.094467,1078.390632 L 793.094467,1122.485120 L 771.047223,1122.485120 L 771.047223,1100.437876 L 771.047223,1096.028427 L 777.661397,1096.028427 L 777.661397,1078.390632 z" style="fill:none;stroke:#00004C"/><path d="M 760.023601,1078.390632 L 760.023601,1043.115041 L 777.661397,1043.115041 L 777.661397,1078.390632 L 760.023601,1078.390632 z" style="fill:none;stroke:#00004C"/><path d="M 760.023601,1043.115041 L 760.023601,760.910317 L 777.661397,760.910317 L 777.661397,1043.115041 L 760.023601,1043.115041 z" style="fill:none;stroke:#00004C"/></symbol></defs><g inkscape:groupmode="layer" inkscape:label="0"><use xlink:href="#A%24C3628088D" style="stroke-width:0.500px" transform="translate(0.60632, 0.0345651)"/></g><g inkscape:groupmode="layer" inkscape:label="DEFPOINTS"/></svg>