<svg xmlns="http://www.w3.org/2000/svg" xmlns:svg="http://www.w3.org/2000/svg" xmlns:xlink="http://www.w3.org/1999/xlink" xmlns:sodipodi="http://sodipodi.sourceforge.net/DTD/sodipodi-0.dtd" xmlns:inkscape="http://www.inkscape.org/namespaces/inkscape" viewBox="0 0 793.7007874015749 1122.5196850393702" width="793.7007874015749" height="1122.5196850393702">
    <defs><marker id="DistanceX" orient="auto" refX="0.0" refY="0.0" style="overflow:visible"><path d="M 3,-3 L -3,3 M 0,-5 L  0,5" style="stroke:#000000; stroke-width:0.5"/></marker><pattern id="Hatch" patternUnits="userSpaceOnUse" width="8" height="8" x="0" y="0"><path d="M8 4 l-4,4" stroke="#000000" stroke-width="0.25" linecap="square"/><path d="M6 2 l-4,4" stroke="#000000" stroke-width="0.25" linecap="square"/><path d="M4 0 l-4,4" stroke="#000000" stroke-width="0.25" linecap="square"/></pattern><symbol id="*MODEL_SPACE"/><symbol id="*PAPER_SPACE"/><symbol id="2400MM_WINDOW"><path style="fill:none;stroke:#00004C" d="M 685.229 424.302 L 612.83 424.302"/><path style="fill:none;stroke:#00004C" d="M 686.953 422.579 L 611.109 422.579"/><path style="fill:none;stroke:#00004C" d="M 686.953 426.026 L 611.103 426.026"/><path style="fill:none;stroke:#00004C" d="M 690.364 427.75 L 690.4 420.856"/><path style="fill:none;stroke:#00004C" d="M 690.4 420.856 L 686.953 420.856"/><path style="fill:none;stroke:#00004C" d="M 686.953 420.856 L 686.953 427.75"/><path style="fill:none;stroke:#00004C" d="M 686.953 427.75 L 690.364 427.75"/><path style="fill:none;stroke:#00004C" d="M 611.097 427.746 L 611.116 420.851"/><path style="fill:none;stroke:#00004C" d="M 611.116 420.851 L 607.668 420.861"/><path style="fill:none;stroke:#00004C" d="M 607.668 420.861 L 607.687 427.755"/><path style="fill:none;stroke:#00004C" d="M 607.687 427.755 L 611.097 427.746"/><path style="fill:none;stroke:#00004C" d="M 685.229 422.579 L 685.229 426.026"/><path style="fill:none;stroke:#00004C" d="M 612.827 426.026 L 612.833 422.579"/></symbol><symbol id="1800_MM_WINDOW"><path style="fill:none;stroke:#00004C" d="M 664.546 424.302 L 612.83 424.302"/><path style="fill:none;stroke:#00004C" d="M 666.27 422.579 L 611.109 422.579"/><path style="fill:none;stroke:#00004C" d="M 666.27 426.026 L 611.103 426.026"/><path style="fill:none;stroke:#00004C" d="M 669.681 427.75 L 669.717 420.856"/><path style="fill:none;stroke:#00004C" d="M 669.717 420.856 L 666.27 420.856"/><path style="fill:none;stroke:#00004C" d="M 666.27 420.856 L 666.27 427.75"/><path style="fill:none;stroke:#00004C" d="M 666.27 427.75 L 669.681 427.75"/><path style="fill:none;stroke:#00004C" d="M 611.097 427.746 L 611.116 420.851"/><path style="fill:none;stroke:#00004C" d="M 611.116 420.851 L 607.668 420.861"/><path style="fill:none;stroke:#00004C" d="M 607.668 420.861 L 607.687 427.755"/><path style="fill:none;stroke:#00004C" d="M 607.687 427.755 L 611.097 427.746"/><path style="fill:none;stroke:#00004C" d="M 664.546 422.579 L 664.546 426.026"/><path style="fill:none;stroke:#00004C" d="M 612.827 426.026 L 612.833 422.579"/></symbol><symbol id="1500MM_WINDOW"><path style="fill:none;stroke:#00004C" d="M 654.205 424.302 L 612.83 424.302"/><path style="fill:none;stroke:#00004C" d="M 655.928 422.579 L 611.109 422.579"/><path style="fill:none;stroke:#00004C" d="M 655.928 426.026 L 611.103 426.026"/><path style="fill:none;stroke:#00004C" d="M 659.339 427.75 L 659.376 420.856"/><path style="fill:none;stroke:#00004C" d="M 659.376 420.856 L 655.928 420.856"/><path style="fill:none;stroke:#00004C" d="M 655.928 420.856 L 655.928 427.75"/><path style="fill:none;stroke:#00004C" d="M 655.928 427.75 L 659.339 427.75"/><path style="fill:none;stroke:#00004C" d="M 611.097 427.746 L 611.116 420.851"/><path style="fill:none;stroke:#00004C" d="M 611.116 420.851 L 607.668 420.861"/><path style="fill:none;stroke:#00004C" d="M 607.668 420.861 L 607.687 427.755"/><path style="fill:none;stroke:#00004C" d="M 607.687 427.755 L 611.097 427.746"/><path style="fill:none;stroke:#00004C" d="M 654.205 422.579 L 654.205 426.026"/><path style="fill:none;stroke:#00004C" d="M 612.827 426.026 L 612.833 422.579"/></symbol><symbol id="1200MM_WINDOW"><path style="fill:none;stroke:#00004C" d="M 643.863 424.302 L 612.83 424.302"/><path style="fill:none;stroke:#00004C" d="M 645.587 422.579 L 611.109 422.579"/><path style="fill:none;stroke:#00004C" d="M 645.587 426.026 L 611.103 426.026"/><path style="fill:none;stroke:#00004C" d="M 648.998 427.75 L 649.034 420.856"/><path style="fill:none;stroke:#00004C" d="M 649.034 420.856 L 645.587 420.856"/><path style="fill:none;stroke:#00004C" d="M 645.587 420.856 L 645.587 427.75"/><path style="fill:none;stroke:#00004C" d="M 645.587 427.75 L 648.998 427.75"/><path style="fill:none;stroke:#00004C" d="M 611.097 427.746 L 611.116 420.851"/><path style="fill:none;stroke:#00004C" d="M 611.116 420.851 L 607.668 420.861"/><path style="fill:none;stroke:#00004C" d="M 607.668 420.861 L 607.687 427.755"/><path style="fill:none;stroke:#00004C" d="M 607.687 427.755 L 611.097 427.746"/><path style="fill:none;stroke:#00004C" d="M 643.863 422.579 L 643.863 426.026"/><path style="fill:none;stroke:#00004C" d="M 612.827 426.026 L 612.833 422.579"/></symbol><symbol id="900MM_WINDOW"><path style="fill:none;stroke:#00004C" d="M 633.522 424.302 L 612.83 424.302"/><path style="fill:none;stroke:#00004C" d="M 635.246 422.579 L 611.109 422.579"/><path style="fill:none;stroke:#00004C" d="M 635.246 426.026 L 611.103 426.026"/><path style="fill:none;stroke:#00004C" d="M 638.656 427.75 L 638.693 420.856"/><path style="fill:none;stroke:#00004C" d="M 638.693 420.856 L 635.246 420.856"/><path style="fill:none;stroke:#00004C" d="M 635.246 420.856 L 635.246 427.75"/><path style="fill:none;stroke:#00004C" d="M 635.246 427.75 L 638.656 427.75"/><path style="fill:none;stroke:#00004C" d="M 611.097 427.746 L 611.116 420.851"/><path style="fill:none;stroke:#00004C" d="M 611.116 420.851 L 607.668 420.861"/><path style="fill:none;stroke:#00004C" d="M 607.668 420.861 L 607.687 427.755"/><path style="fill:none;stroke:#00004C" d="M 607.687 427.755 L 611.097 427.746"/><path style="fill:none;stroke:#00004C" d="M 633.522 422.579 L 633.522 426.026"/><path style="fill:none;stroke:#00004C" d="M 612.827 426.026 L 612.833 422.579"/></symbol><symbol id="300MM_ROUND_COLOUMN"><path d="M 13.152282,1106.958388 L 13.152282,1122.519685" style="fill:none;stroke:#00004C;stroke-dasharray:0.8273,0.1034, 0.5,0.1034,"/><path d="M 4.078027,1113.392796 L 20.864128,1113.392796" style="fill:none;stroke:#00004C;stroke-dasharray:0.8273,0.1034, 0.5,0.1034,"/><path d="M 18.323009,1113.392796 A 5.170727,5.170727 0.0 0 0 7.981555,1113.392796 A 5.170727,5.170727 0.0 0 0 18.323009,1113.392796 z M 17.037470,1113.392796 A 3.885188,3.885188 0.0 0 0 9.267094,1113.392796 A 3.885188,3.885188 0.0 0 0 17.037470,1113.392796 z " style="fill:#00004C"/><path d="M 18.323009,1113.392796 A 5.170727,5.170727 0.000000 0, 0 7.981555,1113.392796 A 5.170727,5.170727 0.000000 0, 0 18.323009,1113.392796 z" style="fill:none;stroke:#00004C"/><path d="M 17.037470,1113.392796 A 3.885188,3.885188 0.000000 0, 0 9.267094,1113.392796 A 3.885188,3.885188 0.000000 0, 0 17.037470,1113.392796 z" style="fill:none;stroke:#00004C"/></symbol></defs><g inkscape:groupmode="layer" inkscape:label="0"/><g inkscape:groupmode="layer" inkscape:label="FREECADS_COM"><use xlink:href="#300MM_ROUND_COLOUMN" style="stroke-width:0.500px"/></g><g inkscape:groupmode="layer" inkscape:label="CAD-BLOCK_COM"/></svg>