<svg xmlns="http://www.w3.org/2000/svg" xmlns:svg="http://www.w3.org/2000/svg" xmlns:xlink="http://www.w3.org/1999/xlink" xmlns:sodipodi="http://sodipodi.sourceforge.net/DTD/sodipodi-0.dtd" xmlns:inkscape="http://www.inkscape.org/namespaces/inkscape" viewBox="0 0 793.7007874015749 1122.5196850393702" width="793.7007874015749" height="1122.5196850393702">
    <defs><marker id="DistanceX" orient="auto" refX="0.0" refY="0.0" style="overflow:visible"><path d="M 3,-3 L -3,3 M 0,-5 L  0,5" style="stroke:#000000; stroke-width:0.5"/></marker><pattern id="Hatch" patternUnits="userSpaceOnUse" width="8" height="8" x="0" y="0"><path d="M8 4 l-4,4" stroke="#000000" stroke-width="0.25" linecap="square"/><path d="M6 2 l-4,4" stroke="#000000" stroke-width="0.25" linecap="square"/><path d="M4 0 l-4,4" stroke="#000000" stroke-width="0.25" linecap="square"/></pattern><symbol id="*MODEL_SPACE"/><symbol id="*PAPER_SPACE"/><symbol id="A$C0CE462CD"><path d="M 7.699576,1122.785139 L 46.158822,1122.785139 L 46.158822,1009.399312 L 7.699576,1009.399312" style="fill:none;stroke:#00004C"/><path style="fill:none;stroke:#00004C" d="M 975.923 1009.4 L 975.923 1122.79"/><path style="fill:none;stroke:#00004C" d="M 975.923 1122.79 L 1014.38 1122.79"/><path d="M 975.922602,1009.399312 L 975.922602,79.635532 L 928.753837,79.635532 L 928.753837,1009.399312 L 975.922602,1009.399312 z" style="fill:none;stroke:#00004C"/><path d="M 928.753837,79.635532 A 928.791131,928.791131 0.000000 0 0 46.158822,1009.399312" style="fill:none;stroke:#00004C;stroke-dasharray:0.0709,0.0354,"/><path d="M 1014.381848,1111.446556 L 1021.276932,1111.446556 L 1021.276932,1020.737895 L 1014.381848,1020.737895 L 1014.381848,1111.446556 z" style="fill:none;stroke:#00004C"/><path d="M 975.922602,1009.399312 L 1014.381848,1009.399312 L 1014.381848,1122.785139" style="fill:none;stroke:#00004C"/><path d="M 7.699576,1009.399312 L 7.699576,1122.785139" style="fill:none;stroke:#00004C"/><path d="M 0.804492,1111.446556 L 7.699576,1111.446556 L 7.699576,1020.737895 L 0.804492,1020.737895 L 0.804492,1111.446556 z" style="fill:none;stroke:#00004C"/></symbol><symbol id="_ARCHTICK"><path d="M 0.237528,1123.352082 L 1.371386,1122.218224" style="fill:none;stroke:#000000;stroke-linecap: round"/></symbol><symbol id="A$C33124527"><path d="M 1225.064936,-191.877555 L 1188.291155,-191.877555 L 1188.291155,1009.399312 L 1225.064936,1009.399312 L 1225.064936,-191.877555 z" style="fill:none;stroke:#00004C"/><path d="M 1241.153466,1009.399312 L 1225.064936,1009.399312 L 1225.064936,1052.583989 L 1211.274768,1052.583989 L 1211.274768,1104.398248 L 1211.274768,1122.785139 L 1241.153466,1122.785139 L 1241.153466,1009.399312 z" style="fill:none;stroke:#00004C"/><path d="M 7.699540,1009.399312 L 23.788069,1009.399312 L 23.788069,1052.583989 L 37.578237,1052.583989 L 37.578237,1104.398248 L 37.578237,1122.785139 L 7.699540,1122.785139 L 7.699540,1009.399312 z" style="fill:none;stroke:#00004C"/><path d="M 1191.538922,-191.924079 A 1202.185716,1202.185716 0.000000 0 0 23.788065,1009.431120" style="fill:none;stroke:#00004C;stroke-dasharray:0.0709,0.0354,"/><path d="M 1241.153466,1111.446556 L 1248.048550,1111.446556 L 1248.048550,1020.737895 L 1241.153466,1020.737895 L 1241.153466,1111.446556 z" style="fill:none;stroke:#00004C"/><path d="M 0.804456,1111.446556 L 7.699540,1111.446556 L 7.699540,1020.737895 L 0.804456,1020.737895 L 0.804456,1111.446556 z" style="fill:none;stroke:#00004C"/></symbol><symbol id="A$C05FB4604"><path d="M 1301.676956,-305.263377 A 1315.571543,1315.571543 0.000000 0 0 23.788043,1009.399317" style="fill:none;stroke:#00004C;stroke-dasharray:0.0709,0.0354,"/><path d="M 1338.450737,-305.263377 L 1301.676955,-305.263377 L 1301.676955,1009.399317 L 1338.450737,1009.399317 L 1338.450737,-305.263377 z" style="fill:none;stroke:#00004C"/><path d="M 1354.539267,1009.399317 L 1338.450737,1009.399317 L 1338.450737,1052.583994 L 1324.660569,1052.583994 L 1324.660569,1104.398252 L 1324.660569,1122.785143 L 1354.539267,1122.785143 L 1354.539267,1009.399317 z" style="fill:none;stroke:#00004C"/><path d="M 7.699514,1009.399317 L 23.788043,1009.399317 L 23.788043,1052.583994 L 37.578211,1052.583994 L 37.578211,1104.398252 L 37.578211,1122.785143 L 7.699514,1122.785143 L 7.699514,1009.399317 z" style="fill:none;stroke:#00004C"/><path d="M 1354.539267,1111.446561 L 1361.434351,1111.446561 L 1361.434351,1020.737899 L 1354.539267,1020.737899 L 1354.539267,1111.446561 z" style="fill:none;stroke:#00004C"/><path d="M 0.804430,1111.446561 L 7.699514,1111.446561 L 7.699514,1020.737899 L 0.804430,1020.737899 L 0.804430,1111.446561 z" style="fill:none;stroke:#00004C"/></symbol><symbol id="A$C5D256BD7"><path d="M 69.142340,353.942678 L 69.142342,1009.399317 L 23.788011,1009.399317 L 23.788009,353.942678 L 69.142340,353.942678 z" style="fill:none;stroke:#00004C"/><path d="M 7.699482,1009.399317 L 23.788011,1009.399317 L 23.788011,1054.753647 L 37.578179,1054.753647 L 37.578179,1104.398252 L 37.578179,1122.785143 L 7.699482,1122.785143 L 7.699482,1009.399317 z" style="fill:none;stroke:#00004C"/><path d="M 681.121237,1009.906771 A 656.760857,656.760857 0.000000 0 0 69.142340,353.942678" style="fill:none;stroke:#00004C;stroke-dasharray:0.0709,0.0354,"/><path d="M 1293.096376,353.942678 L 1293.096374,1009.399317 L 1338.450705,1009.399317 L 1338.450707,353.942678 L 1293.096376,353.942678 z" style="fill:none;stroke:#00004C"/><path d="M 1354.539234,1009.399317 L 1338.450705,1009.399317 L 1338.450705,1054.753647 L 1324.660537,1054.753647 L 1324.660537,1104.398252 L 1324.660537,1122.785143 L 1354.539234,1122.785143 L 1354.539234,1009.399317 z" style="fill:none;stroke:#00004C"/><path d="M 1293.096376,353.942678 A 656.760857,656.760857 0.000000 0 0 681.117479,1009.906771" style="fill:none;stroke:#00004C;stroke-dasharray:0.0709,0.0354,"/><path d="M 1354.539234,1111.446561 L 1361.434319,1111.446561 L 1361.434319,1020.737899 L 1354.539234,1020.737899 L 1354.539234,1111.446561 z" style="fill:none;stroke:#00004C"/><path d="M 7.699482,1111.446561 L 0.804397,1111.446561 L 0.804397,1020.737899 L 7.699482,1020.737899 L 7.699482,1111.446561 z" style="fill:none;stroke:#00004C"/></symbol><symbol id="A$C0A95752C"><path d="M 1616.552483,227.037136 A 763.140098,763.140098 0.000000 0 0 850.534307,1009.399341" style="fill:none;stroke:#00004C"/><path style="fill:none;stroke:#00004C" d="M 51.8281 317.746 L 51.8281 918.691"/><path style="fill:none;stroke:#00004C" d="M 74.5052 918.691 L 74.5052 317.746"/><path d="M 850.681000,1009.885887 A 768.829639,723.310693 10.373798 0 0 86.291276,226.865330" style="fill:none;stroke:#00004C"/><path style="fill:none;stroke:#00004C" d="M 85.8438 918.691 L 85.8438 317.746"/><path style="fill:none;stroke:#00004C" d="M 40.4895 317.746 L 40.4895 918.691"/><path style="fill:none;stroke:#00004C" d="M 74.5052 317.746 L 51.8281 317.746"/><path style="fill:none;stroke:#00004C" d="M 85.8438 317.746 L 40.4895 317.746"/><path style="fill:none;stroke:#00004C" d="M 85.8438 227.037 L 85.8438 317.746"/><path style="fill:none;stroke:#00004C" d="M 85.8438 317.746 L 40.4895 317.746"/><path style="fill:none;stroke:#00004C" d="M 40.4895 317.746 L 40.4895 227.037"/><path style="fill:none;stroke:#00004C" d="M 40.4895 1009.4 L 85.8438 1009.4"/><path style="fill:none;stroke:#00004C" d="M 40.4895 918.691 L 40.4895 1009.4"/><path style="fill:none;stroke:#00004C" d="M 85.8438 918.691 L 40.4895 918.691"/><path style="fill:none;stroke:#00004C" d="M 85.8438 1009.4 L 85.8438 918.691"/><path style="fill:none;stroke:#00004C" d="M 40.4895 918.691 L 85.8438 918.691"/><path style="fill:none;stroke:#00004C" d="M 51.8281 918.691 L 74.5052 918.691"/><path style="fill:none;stroke:#00004C" d="M 40.4895 1054.75 L 40.4895 1009.4"/><path style="fill:none;stroke:#00004C" d="M 57.4974 1054.75 L 40.4895 1054.75"/><path style="fill:none;stroke:#00004C" d="M 57.4974 1066.09 L 57.4974 1054.75"/><path style="fill:none;stroke:#00004C" d="M 57.4974 1122.79 L 57.4974 1066.09"/><path style="fill:none;stroke:#00004C" d="M 0.804452 1122.79 L 57.4974 1122.79"/><path style="fill:none;stroke:#00004C" d="M 0.804452 1009.4 L 0.804452 1122.79"/><path style="fill:none;stroke:#00004C" d="M 40.4895 1009.4 L 0.804452 1009.4"/><path style="fill:none;stroke:#00004C" d="M 40.4895 227.037 L 85.8438 227.037"/><path style="fill:none;stroke:#00004C" d="M 1627.89 918.691 L 1627.89 317.746"/><path style="fill:none;stroke:#00004C" d="M 1627.89 317.746 L 1650.57 317.746"/><path style="fill:none;stroke:#00004C" d="M 1650.57 317.746 L 1650.57 918.691"/><path style="fill:none;stroke:#00004C" d="M 1650.57 918.691 L 1627.89 918.691"/><path style="fill:none;stroke:#00004C" d="M 1616.55 227.037 L 1616.55 317.746"/><path style="fill:none;stroke:#00004C" d="M 1616.55 317.746 L 1661.91 317.746"/><path style="fill:none;stroke:#00004C" d="M 1661.91 317.746 L 1661.91 227.037"/><path style="fill:none;stroke:#00004C" d="M 1661.91 227.037 L 1616.55 227.037"/><path style="fill:none;stroke:#00004C" d="M 1616.55 918.691 L 1616.55 317.746"/><path style="fill:none;stroke:#00004C" d="M 1616.55 317.746 L 1661.91 317.746"/><path style="fill:none;stroke:#00004C" d="M 1661.91 317.746 L 1661.91 918.691"/><path style="fill:none;stroke:#00004C" d="M 1661.91 918.691 L 1616.55 918.691"/><path style="fill:none;stroke:#00004C" d="M 1616.55 1009.4 L 1616.55 918.691"/><path style="fill:none;stroke:#00004C" d="M 1616.55 918.691 L 1661.91 918.691"/><path style="fill:none;stroke:#00004C" d="M 1661.91 918.691 L 1661.91 1009.4"/><path style="fill:none;stroke:#00004C" d="M 1661.91 1009.4 L 1616.55 1009.4"/><path style="fill:none;stroke:#00004C" d="M 1661.91 1009.4 L 1701.59 1009.4"/><path style="fill:none;stroke:#00004C" d="M 1701.59 1009.4 L 1701.59 1122.79"/><path style="fill:none;stroke:#00004C" d="M 1701.59 1122.79 L 1644.9 1122.79"/><path style="fill:none;stroke:#00004C" d="M 1644.9 1122.79 L 1644.9 1066.09"/><path style="fill:none;stroke:#00004C" d="M 1644.9 1066.09 L 1644.9 1054.75"/><path style="fill:none;stroke:#00004C" d="M 1644.9 1054.75 L 1661.91 1054.75"/><path style="fill:none;stroke:#00004C" d="M 1661.91 1054.75 L 1661.91 1009.4"/></symbol><symbol id="A$C3628088D"><path d="M 1956.710012,102.312726 A 973.381674,973.381674 0.000000 0 0 1021.276942,1009.399341" style="fill:none;stroke:#00004C"/><path style="fill:none;stroke:#00004C" d="M 74.5053 918.691 L 74.5053 193.021"/><path style="fill:none;stroke:#00004C" d="M 51.8281 193.021 L 51.8281 918.691"/><path style="fill:none;stroke:#00004C" d="M 85.8439 102.313 L 85.8439 193.021"/><path style="fill:none;stroke:#00004C" d="M 85.8439 193.021 L 40.4895 193.021"/><path style="fill:none;stroke:#00004C" d="M 40.4895 193.021 L 40.4895 102.313"/><path style="fill:none;stroke:#00004C" d="M 40.4895 102.313 L 85.8439 102.313"/><path style="fill:none;stroke:#00004C" d="M 40.4895 1009.4 L 0.804501 1009.4"/><path style="fill:none;stroke:#00004C" d="M 0.804501 1009.4 L 0.804501 1122.79"/><path style="fill:none;stroke:#00004C" d="M 0.804501 1122.79 L 57.4974 1122.79"/><path style="fill:none;stroke:#00004C" d="M 57.4974 1122.79 L 57.4974 1066.09"/><path style="fill:none;stroke:#00004C" d="M 57.4974 1066.09 L 57.4974 1054.75"/><path style="fill:none;stroke:#00004C" d="M 57.4974 1054.75 L 40.4895 1054.75"/><path style="fill:none;stroke:#00004C" d="M 40.4895 1054.75 L 40.4895 1009.4"/><path style="fill:none;stroke:#00004C" d="M 85.8439 1009.4 L 85.8439 918.691"/><path style="fill:none;stroke:#00004C" d="M 40.4895 918.691 L 40.4895 1009.4"/><path style="fill:none;stroke:#00004C" d="M 40.4895 1009.4 L 85.8439 1009.4"/><path style="fill:none;stroke:#00004C" d="M 85.8439 193.021 L 40.4895 193.021"/><path style="fill:none;stroke:#00004C" d="M 74.5053 193.021 L 51.8281 193.021"/><path style="fill:none;stroke:#00004C" d="M 85.8439 918.691 L 40.4895 918.691"/><path style="fill:none;stroke:#00004C" d="M 40.4895 918.691 L 85.8439 918.691"/><path style="fill:none;stroke:#00004C" d="M 51.8281 918.691 L 74.5053 918.691"/><path style="fill:none;stroke:#00004C" d="M 85.8439 918.691 L 85.8439 193.021"/><path style="fill:none;stroke:#00004C" d="M 40.4895 193.021 L 40.4895 918.691"/><path d="M 1021.000517,1008.978179 A 949.745982,893.559401 -157.165200 0 0 85.440398,102.577388" style="fill:none;stroke:#00004C"/><path d="M 1968.048595,918.690679 L 1968.048595,193.021388 L 1990.725760,193.021388 L 1990.725760,918.690679 L 1968.048595,918.690679 z" style="fill:none;stroke:#00004C"/><path d="M 1956.710012,102.312726 L 1956.710012,193.021388 L 2002.064343,193.021388 L 2002.064343,102.312726 L 1956.710012,102.312726 z" style="fill:none;stroke:#00004C"/><path d="M 2002.064343,1009.399341 L 2041.749382,1009.399341 L 2041.749382,1122.785167 L 1985.056469,1122.785167 L 1985.056469,1066.092254 L 1985.056469,1054.753671 L 2002.064343,1054.753671 L 2002.064343,1009.399341 z" style="fill:none;stroke:#00004C"/><path d="M 1956.710012,1009.399341 L 1956.710012,918.690679 L 2002.064343,918.690679 L 2002.064343,1009.399341 L 1956.710012,1009.399341 z" style="fill:none;stroke:#00004C"/><path d="M 1956.710012,918.690679 L 1956.710012,193.021388 L 2002.064343,193.021388 L 2002.064343,918.690679 L 1956.710012,918.690679 z" style="fill:none;stroke:#00004C"/></symbol><symbol id="A$C7AF54601"><path d="M 703.796561,306.407226 A 704.556068,704.556068 0.000000 0 0 46.158766,1009.399351" style="fill:none;stroke:#00004C;stroke-dasharray:0.0709,0.0354,"/><path d="M 787.610139,1009.399351 L 703.796561,1009.399351 L 703.796561,306.407226 L 749.150892,306.407226 L 749.150892,1122.785178 L 787.610139,1122.785178" style="fill:none;stroke:#00004C"/><path d="M 7.699519,1122.785178 L 46.158766,1122.785178 L 46.158766,1009.399351 L 7.699519,1009.399351 L 7.699519,1122.785178 L 7.699519,1122.785178 z" style="fill:none;stroke:#00004C"/><path d="M 787.610139,1111.446595 L 794.505223,1111.446595 L 794.505223,1020.737934 L 787.610139,1020.737934 L 787.610139,1111.446595 z" style="fill:none;stroke:#00004C"/><path d="M 787.610139,1122.785178 L 787.610139,1009.399351" style="fill:none;stroke:#00004C"/><path d="M 7.699519,1111.446595 L 0.804435,1111.446595 L 0.804435,1020.737934 L 7.699519,1020.737934 L 7.699519,1111.446595 z" style="fill:none;stroke:#00004C"/></symbol></defs><g inkscape:groupmode="layer" inkscape:label="0"><use xlink:href="#A%24C7AF54601" style="stroke-width:0.500px" transform="translate(-0.804435, -0.265493)"/></g><g inkscape:groupmode="layer" inkscape:label="DEFPOINTS"/></svg>