<svg xmlns="http://www.w3.org/2000/svg" xmlns:svg="http://www.w3.org/2000/svg" xmlns:xlink="http://www.w3.org/1999/xlink" xmlns:sodipodi="http://sodipodi.sourceforge.net/DTD/sodipodi-0.dtd" xmlns:inkscape="http://www.inkscape.org/namespaces/inkscape" viewBox="0 0 793.7007874015749 1122.5196850393702" width="793.7007874015749" height="1122.5196850393702">
    <defs><marker id="DistanceX" orient="auto" refX="0.0" refY="0.0" style="overflow:visible"><path d="M 3,-3 L -3,3 M 0,-5 L  0,5" style="stroke:#000000; stroke-width:0.5"/></marker><pattern id="Hatch" patternUnits="userSpaceOnUse" width="8" height="8" x="0" y="0"><path d="M8 4 l-4,4" stroke="#000000" stroke-width="0.25" linecap="square"/><path d="M6 2 l-4,4" stroke="#000000" stroke-width="0.25" linecap="square"/><path d="M4 0 l-4,4" stroke="#000000" stroke-width="0.25" linecap="square"/></pattern><symbol id="*MODEL_SPACE"/><symbol id="*PAPER_SPACE"/><symbol id="2400MM_WINDOW"><path style="fill:none;stroke:#00004C" d="M 744.094 1089.4 L 49.5192 1089.4"/><path style="fill:none;stroke:#00004C" d="M 760.63 1072.86 L 33.0128 1072.86"/><path style="fill:none;stroke:#00004C" d="M 760.63 1105.93 L 32.9547 1105.93"/><path style="fill:none;stroke:#00004C" d="M 793.352 1122.48 L 793.701 1056.33"/><path style="fill:none;stroke:#00004C" d="M 793.701 1056.33 L 760.63 1056.33"/><path style="fill:none;stroke:#00004C" d="M 760.63 1056.33 L 760.63 1122.48"/><path style="fill:none;stroke:#00004C" d="M 760.63 1122.48 L 793.352 1122.48"/><path style="fill:none;stroke:#00004C" d="M 32.8967 1122.43 L 33.0709 1056.29"/><path style="fill:none;stroke:#00004C" d="M 33.0709 1056.29 L 0 1056.38"/><path style="fill:none;stroke:#00004C" d="M 0 1056.38 L 0.174244 1122.52"/><path style="fill:none;stroke:#00004C" d="M 0.174244 1122.52 L 32.8967 1122.43"/><path style="fill:none;stroke:#00004C" d="M 744.094 1072.86 L 744.094 1105.93"/><path style="fill:none;stroke:#00004C" d="M 49.4902 1105.93 L 49.5482 1072.86"/></symbol><symbol id="1800_MM_WINDOW"><path style="fill:none;stroke:#00004C" d="M 545.669 1089.4 L 49.5192 1089.4"/><path style="fill:none;stroke:#00004C" d="M 562.205 1072.86 L 33.0128 1072.86"/><path style="fill:none;stroke:#00004C" d="M 562.205 1105.93 L 32.9547 1105.93"/><path style="fill:none;stroke:#00004C" d="M 594.927 1122.48 L 595.276 1056.33"/><path style="fill:none;stroke:#00004C" d="M 595.276 1056.33 L 562.205 1056.33"/><path style="fill:none;stroke:#00004C" d="M 562.205 1056.33 L 562.205 1122.48"/><path style="fill:none;stroke:#00004C" d="M 562.205 1122.48 L 594.927 1122.48"/><path style="fill:none;stroke:#00004C" d="M 32.8967 1122.43 L 33.0709 1056.29"/><path style="fill:none;stroke:#00004C" d="M 33.0709 1056.29 L 0 1056.38"/><path style="fill:none;stroke:#00004C" d="M 0 1056.38 L 0.174244 1122.52"/><path style="fill:none;stroke:#00004C" d="M 0.174244 1122.52 L 32.8967 1122.43"/><path style="fill:none;stroke:#00004C" d="M 545.669 1072.86 L 545.669 1105.93"/><path style="fill:none;stroke:#00004C" d="M 49.4902 1105.93 L 49.5482 1072.86"/></symbol><symbol id="1500MM_WINDOW"><path style="fill:none;stroke:#00004C" d="M 446.457 1089.4 L 49.5192 1089.4"/><path style="fill:none;stroke:#00004C" d="M 462.992 1072.86 L 33.0128 1072.86"/><path style="fill:none;stroke:#00004C" d="M 462.992 1105.93 L 32.9547 1105.93"/><path style="fill:none;stroke:#00004C" d="M 495.715 1122.48 L 496.063 1056.33"/><path style="fill:none;stroke:#00004C" d="M 496.063 1056.33 L 462.992 1056.33"/><path style="fill:none;stroke:#00004C" d="M 462.992 1056.33 L 462.992 1122.48"/><path style="fill:none;stroke:#00004C" d="M 462.992 1122.48 L 495.715 1122.48"/><path style="fill:none;stroke:#00004C" d="M 32.8967 1122.43 L 33.0709 1056.29"/><path style="fill:none;stroke:#00004C" d="M 33.0709 1056.29 L 0 1056.38"/><path style="fill:none;stroke:#00004C" d="M 0 1056.38 L 0.174244 1122.52"/><path style="fill:none;stroke:#00004C" d="M 0.174244 1122.52 L 32.8967 1122.43"/><path style="fill:none;stroke:#00004C" d="M 446.457 1072.86 L 446.457 1105.93"/><path style="fill:none;stroke:#00004C" d="M 49.4902 1105.93 L 49.5482 1072.86"/></symbol><symbol id="1200MM_WINDOW"><path style="fill:none;stroke:#00004C" d="M 347.244 1089.4 L 49.5192 1089.4"/><path style="fill:none;stroke:#00004C" d="M 363.78 1072.86 L 33.0128 1072.86"/><path style="fill:none;stroke:#00004C" d="M 363.78 1105.93 L 32.9547 1105.93"/><path style="fill:none;stroke:#00004C" d="M 396.502 1122.48 L 396.85 1056.33"/><path style="fill:none;stroke:#00004C" d="M 396.85 1056.33 L 363.78 1056.33"/><path style="fill:none;stroke:#00004C" d="M 363.78 1056.33 L 363.78 1122.48"/><path style="fill:none;stroke:#00004C" d="M 363.78 1122.48 L 396.502 1122.48"/><path style="fill:none;stroke:#00004C" d="M 32.8967 1122.43 L 33.0709 1056.29"/><path style="fill:none;stroke:#00004C" d="M 33.0709 1056.29 L 0 1056.38"/><path style="fill:none;stroke:#00004C" d="M 0 1056.38 L 0.174244 1122.52"/><path style="fill:none;stroke:#00004C" d="M 0.174244 1122.52 L 32.8967 1122.43"/><path style="fill:none;stroke:#00004C" d="M 347.244 1072.86 L 347.244 1105.93"/><path style="fill:none;stroke:#00004C" d="M 49.4902 1105.93 L 49.5482 1072.86"/></symbol><symbol id="900MM_WINDOW"><path style="fill:none;stroke:#00004C" d="M 248.031 1089.4 L 49.5192 1089.4"/><path style="fill:none;stroke:#00004C" d="M 264.567 1072.86 L 33.0128 1072.86"/><path style="fill:none;stroke:#00004C" d="M 264.567 1105.93 L 32.9547 1105.93"/><path style="fill:none;stroke:#00004C" d="M 297.289 1122.48 L 297.638 1056.33"/><path style="fill:none;stroke:#00004C" d="M 297.638 1056.33 L 264.567 1056.33"/><path style="fill:none;stroke:#00004C" d="M 264.567 1056.33 L 264.567 1122.48"/><path style="fill:none;stroke:#00004C" d="M 264.567 1122.48 L 297.289 1122.48"/><path style="fill:none;stroke:#00004C" d="M 32.8967 1122.43 L 33.0709 1056.29"/><path style="fill:none;stroke:#00004C" d="M 33.0709 1056.29 L 0 1056.38"/><path style="fill:none;stroke:#00004C" d="M 0 1056.38 L 0.174244 1122.52"/><path style="fill:none;stroke:#00004C" d="M 0.174244 1122.52 L 32.8967 1122.43"/><path style="fill:none;stroke:#00004C" d="M 248.031 1072.86 L 248.031 1105.93"/><path style="fill:none;stroke:#00004C" d="M 49.4902 1105.93 L 49.5482 1072.86"/></symbol></defs><g inkscape:groupmode="layer" inkscape:label="0"/><g inkscape:groupmode="layer" inkscape:label="FREECADS_COM"><use xlink:href="#900MM_WINDOW" style="stroke-width:0.500px"/></g></svg>