<svg xmlns="http://www.w3.org/2000/svg" xmlns:svg="http://www.w3.org/2000/svg" xmlns:xlink="http://www.w3.org/1999/xlink" xmlns:sodipodi="http://sodipodi.sourceforge.net/DTD/sodipodi-0.dtd" xmlns:inkscape="http://www.inkscape.org/namespaces/inkscape" viewBox="0 0 793.7007874015749 1122.5196850393702" width="793.7007874015749" height="1122.5196850393702">
    <defs><marker id="DistanceX" orient="auto" refX="0.0" refY="0.0" style="overflow:visible"><path d="M 3,-3 L -3,3 M 0,-5 L  0,5" style="stroke:#000000; stroke-width:0.5"/></marker><pattern id="Hatch" patternUnits="userSpaceOnUse" width="8" height="8" x="0" y="0"><path d="M8 4 l-4,4" stroke="#000000" stroke-width="0.25" linecap="square"/><path d="M6 2 l-4,4" stroke="#000000" stroke-width="0.25" linecap="square"/><path d="M4 0 l-4,4" stroke="#000000" stroke-width="0.25" linecap="square"/></pattern><symbol id="*MODEL_SPACE"/><symbol id="*PAPER_SPACE"/><symbol id="A$C0CE462CD"><path d="M 5.322194,1122.795034 L 35.234941,1122.795034 L 35.234941,1034.606058 L 5.322194,1034.606058" style="fill:none;stroke:#00004C"/><path style="fill:none;stroke:#00004C" d="M 758.385 1034.61 L 758.385 1122.8"/><path style="fill:none;stroke:#00004C" d="M 758.385 1122.8 L 788.297 1122.8"/><path d="M 758.384547,1034.606058 L 758.384547,311.456451 L 721.697730,311.456451 L 721.697730,1034.606058 L 758.384547,1034.606058 z" style="fill:none;stroke:#00004C"/><path d="M 721.697730,311.456451 A 722.393102,722.393102 0.000000 0 0 35.234941,1034.606058" style="fill:none;stroke:#00004C;stroke-dasharray:0.0551,0.0276,"/><path d="M 788.297295,1113.976136 L 793.660138,1113.976136 L 793.660138,1043.424955 L 788.297295,1043.424955 L 788.297295,1113.976136 z" style="fill:none;stroke:#00004C"/><path d="M 758.384547,1034.606058 L 788.297295,1034.606058 L 788.297295,1122.795034" style="fill:none;stroke:#00004C"/><path d="M 5.322194,1034.606058 L 5.322194,1122.795034" style="fill:none;stroke:#00004C"/><path d="M -0.040650,1113.976136 L 5.322194,1113.976136 L 5.322194,1043.424955 L -0.040650,1043.424955 L -0.040650,1113.976136 z" style="fill:none;stroke:#00004C"/></symbol></defs><g inkscape:groupmode="layer" inkscape:label="0"><use xlink:href="#A%24C0CE462CD" style="stroke-width:0.500px" transform="translate(0.0406496, -0.275349)"/></g></svg>